<svg id="Layer_1" data-name="Layer 1" xmlns="http://www.w3.org/2000/svg" viewBox="0 0 191.4 399.6"><defs><style>.cls-1{fill:#fff;}.cls-2{fill:#010101;}</style></defs><path class="cls-1" d="M261.56,543.77c-2.32-.47-5.4,2.06-5.95,4.9-.37,1.9,1,3,4.28,3.55,2,.34,3.62-1.16,4-3.79.3-1.87-1-4.38-2.36-4.66" transform="translate(-208.81 -217.08)"/><path class="cls-1" d="M279.14,428a19.37,19.37,0,0,0,9.26-1.31c5.52-2.17,9.75-5.5,10.38-11.95,0-.33.18-.65.21-1,.35-4.18.55-8.44-2-12a11.57,11.57,0,0,0-9.22-5.18c-2.46-.13-4.81-.62-7.3.15-3.65,1.13-6.5,3.4-9.35,5.79-4.82,4.05-6.42,8.81-4.56,15,2,6.83,5.48,10,12.62,10.5" transform="translate(-208.81 -217.08)"/><path class="cls-1" d="M337.84,429.86c.4-.21.82-.39,1.23-.57a1.8,1.8,0,0,0,1.12-1.55c.21-1.65.47-3.29.76-5.26a53.37,53.37,0,0,0-10.77,5.11c-.81.52-.77,1.28-.95,2-1.15,4.83-1.42,9.83-2.84,14.62a3.21,3.21,0,0,0,.41,3.21,27.72,27.72,0,0,0,8.24,7.08,32.12,32.12,0,0,1,1.23-4.7c.64-1.55.5-2.36-1.12-3.18-1.91-1-3.62-2.45-3.86-4.76-.65-6.08,1.06-9.1,6.55-12" transform="translate(-208.81 -217.08)"/><path class="cls-1" d="M341.38,432.18c-3.94,1.37-5.8,4-5.65,8.17.1,2.87.75,3.52,3.49,3.66,2.45,0,4.76-.09,5.9-2.57a8.37,8.37,0,0,0-.82-8.36,2.21,2.21,0,0,0-2.92-.9" transform="translate(-208.81 -217.08)"/><path class="cls-1" d="M304.53,601.16c-2,.56-3.32,2.65-3.44,5.68-.07,1.91-.13,3.92,1.89,5s3.92.4,5.78-.55,1.61-2.56,1.68-3.47c.67-5-2.05-7.79-5.91-6.7" transform="translate(-208.81 -217.08)"/><path class="cls-1" d="M317.55,376.87c-15.53-1.1-31.06-2.54-46.65-2.36-6.43.07-12.87-.14-19.26.89a54.58,54.58,0,0,1-5.73.39c-7.63.41-15.29.41-22.81,2.16-4.67,1.09-7.82,3.62-9.38,8.2-.7,2.05.44,3.75,1,5.42.33,1,2.25.23,3.46.19,6-.18,11.91-1.07,17.9-1.06,3,0,3,0,3.7,3.07a35.69,35.69,0,0,1,.87,4.66c.46,5.61.76,11.25,1.23,16.87.53,6.41.77,12.84,1.2,19.25.48,7.21,1.1,14.4.95,21.63,0,2.83-.59,3.58-3.28,3.47-3.18-.12-6.27.57-9.41.7-1.43.06-1.71.71-1.6,1.93.21,2.24.45,4.49.5,6.74.23,10.27,1.16,20.5,2.07,30.72.36,4.16,1.41,8.3,1.37,12.44-.09,9.54,1.87,18.84,2.75,28.26.64,6.94,2.5,13.75,3.24,20.71.5,4.71,1.29,9.4,1.71,14.11a161,161,0,0,0,2.29,17.08c.5,2.57.51,2.7,3.22,2.79a105.34,105.34,0,0,0,10.81,0c10.71-.74,21.43-.37,32.14-.52,5-.07,9.93.07,14.89.15,1.58,0,2.77-.21,3.21-2.11.48-2.08,1.51-4,2-6.11,1.89-8.36,4.9-16.39,6.92-24.7,1-4.17,2.64-8.18,3.49-12.35,1.3-6.43,3.28-12.65,5.06-18.93,1.62-5.75,3.47-11.43,5-17.21,2.06-7.85,3.9-15.76,5.81-23.65,1.65-6.79,3.72-13.49,4.49-20.47.15-1.35.58-2.75-.38-3.92a16.22,16.22,0,0,0-5.11-4.37c-1.4-.7-.05,1-.79,1.15-3.11-3-6.13-6.14-9.44-9-2.43-2.07-3-4.47-2.81-7.45.32-4.4,1.7-8.64,2-13a37.35,37.35,0,0,1,1.39-6.27,4.19,4.19,0,0,1,2.23-2.72c3.34-1.94,7-3,10.49-4.56a102,102,0,0,1,9.57-4.15c1.51-.49,2.14-1,2.48-2.47a95.2,95.2,0,0,0,1.86-18.11,40,40,0,0,0-.31-8.09,6.11,6.11,0,0,0-4.8-5.43c-5.74-1.59-11.66-2.13-17.51-3-3.95-.62-8-.62-12-.9m-88.38,8.3-.78-.05.66,0,.63.06-.51,0m36,21.59a27,27,0,0,1,11.67-11.3c7.08-3.41,15.75-1.76,20.59,4.37,3,3.86,3.65,8.64,3.32,13.48a15.71,15.71,0,0,1-.49,2.32,16.78,16.78,0,0,1-15.2,13.5c-2.36.2-4.72.46-6.34,0-1.51-.17-2.3-.29-3.08-.35-5-.36-7.78-3.47-9.57-7.79-.69-1.66-1.26-3.37-1.9-5.05a10.51,10.51,0,0,1,1-9.14m-6.07,148.56a9.73,9.73,0,0,1-6.21-3,4.46,4.46,0,0,1-.73-6.07,5.6,5.6,0,0,0,.54-.86c1.54-4,4.57-5.12,8.63-4.64a7.58,7.58,0,0,1,6.66,9.69c-1.12,4.19-2.85,5.29-8.89,4.85m28.82,32.32c-4.27-.33-8.54-.62-13.07-.57-4.25-.27-8.75-.52-13.24-.84a3,3,0,0,1-3.06-3.26,22.43,22.43,0,0,1,5.59-15.5c5.09-5.71,11.57-6.71,18.51-5,3.69.92,5.56,4.35,7.43,7.46,2.43,4,2.48,8.62,2.85,13.06.26,3.2-1.81,4.88-5,4.63m9.37-30.18c-3.74,1.57-7.38,1.95-10.83-.75-2.89-2.27-4.34-6.18-1.26-10.4,1.92-2.63,3.93-4.82,7.36-5.37,2.93-.47,5.5.52,8.1,1.53a3,3,0,0,1,1.41,1.83,9.14,9.14,0,0,1,.65,4.82c-.18,4-1.8,6.81-5.43,8.34" transform="translate(-208.81 -217.08)"/><path class="cls-1" d="M285.24,570.56c-4.24-5.63-8.67-6.52-13.35-4a14.78,14.78,0,0,0-4,3,18,18,0,0,0-4.61,10.27c-.3,2.46-.33,2.45,2,2.59l9.77.61,0-.47c3.71.23,7.43.45,11.14.7,1.4.1,2-.35,2-1.89,0-3.91-.5-7.59-2.95-10.85" transform="translate(-208.81 -217.08)"/><path class="cls-1" d="M296,544.69a9,9,0,0,0-7.9,5.79,3.9,3.9,0,0,0,4.22,4.87,8,8,0,0,0,6.25-7c.11-2-1.11-3.68-2.57-3.65" transform="translate(-208.81 -217.08)"/><path class="cls-1" d="M291,601.21c-2.78-.1-5.1,2.41-5.47,5.75s3.06,5.15,5.74,5.37c3.3.27,4.93-1.28,5.11-4.69a5.84,5.84,0,0,0-5.38-6.43" transform="translate(-208.81 -217.08)"/><path class="cls-1" d="M261.59,601.14c-2.8-.16-5.46,2.42-5.67,5.48-.15,2.13,3.09,5.52,5.37,5.64s5-2,5.18-4c.35-3.62-2-7-4.88-7.17" transform="translate(-208.81 -217.08)"/><path class="cls-1" d="M267.85,599.27c-1.08,1.09,0,1.83.63,3,.6-1.17,1.8-1.78.87-3a1.49,1.49,0,0,0-1.5-.08" transform="translate(-208.81 -217.08)"/><path class="cls-1" d="M253.68,599.2c-.3,0-.8.1-.86.28a.67.67,0,0,0,.65.9c.37.06.56-.24.66-.47.17-.52-.09-.72-.45-.71" transform="translate(-208.81 -217.08)"/><path class="cls-1" d="M234,531.24c-1.32-10.75-1.82-21.58-3.18-32.33-.41-3.23-.41-6.51-.86-9.76-.79-5.69-1.67-11.39-1.32-17.19a71.25,71.25,0,0,0-.35-9.46c-.11-1.54-.73-1.95-2.1-1.75s-2.71.41-2.18,2.18c.91,3.05,1,6.18,1.36,9.28.5,3.93,1.26,7.74,1.15,11.81a69.61,69.61,0,0,0,1.71,15.73,122.92,122.92,0,0,1,2.45,18.4c.38,7,2.13,13.75,2.16,20.75a39.52,39.52,0,0,0,1.59,8.93c1,4.06.79,8.27,1.73,12.35a42,42,0,0,1,1.42,5.91,105.9,105.9,0,0,0,2.25,12.6c.14.66.23,1.32.91,1.68.07-.1.2-.19.19-.28-1-7.81-1.77-15.68-3.22-23.41-1.59-8.44-2.66-16.94-3.71-25.44" transform="translate(-208.81 -217.08)"/><path class="cls-1" d="M323,348.82a93,93,0,0,0-14.35-1.49c-10.55-.63-21.14-.79-31.71-.93-13.09-.18-26.18-.18-39.24.77-4.15.31-8.35-.15-12.78.92a134.43,134.43,0,0,0,3.7,13.27,65.51,65.51,0,0,0,4.29,11c1.24,2.34,1.68,2.7,4.27,2.25,3.24-.56,6.5-.62,9.76-.86,5.73-.43,11.45-1,17.22-.5a14.34,14.34,0,0,0,2.7-.07c9.6-.91,19.18,0,28.74.56,11.16.64,22.3,1.68,33.45,2.58,1.72.14,2.58-.35,3.07-2.2,1.74-6.65,3.7-13.25,5.6-19.86,1.24-4.32.91-4.79-3.67-5-3.69-.14-7.5.27-11.05-.5" transform="translate(-208.81 -217.08)"/><path class="cls-1" d="M297.61,599.38l1.18,3.28c.58-1.15,1.12-2.15,1.65-3.18a3.59,3.59,0,0,0-2.83-.1" transform="translate(-208.81 -217.08)"/><path class="cls-1" d="M284.09,599.12c-.51,0-1.13-.22-1.28.65.18.58.36,1.32,1,1.51.92.25,1-.66,1.19-1.21.24-.76-.38-.92-1-1" transform="translate(-208.81 -217.08)"/><path class="cls-1" d="M274.75,601.44A3.62,3.62,0,0,0,271.4,605c-.27,3,2.9,6.76,6,7.06,1.7.17,4.36-1.62,4.67-3.13a6.36,6.36,0,0,0-7.28-7.52" transform="translate(-208.81 -217.08)"/><path class="cls-1" d="M243.86,600.72c-2.41.2-2.85,2.39-3.47,4.09-1,2.75,2,7.06,4.74,7.31,2.26.2,5.48-2.42,5.86-5,.16-1.15.91-2.41,0-3.57-1.81-2.37-4.35-3-7.15-2.8" transform="translate(-208.81 -217.08)"/><path class="cls-1" d="M311,268.44c-8-.19-16,.27-24,.11-16.48-.32-33,.21-49.44.53-1.35,0-2.69.24-4,.31s-1.87.62-1.8,1.9c0,.79,0,1.59.05,2.37.42,5.12.44,5,5.53,5.33,16.7.92,33.41.35,50.12.54,13.79.17,27.53,1,41.25,2.31a14.81,14.81,0,0,1,2.31.36,1,1,0,0,1,.51.78.81.81,0,0,1-.81.88,6,6,0,0,1-1.33-.11c-10.38-1.89-20.89-1.86-31.38-2.25-6.2-.23-12.4-.29-18.61-.26-10.27.05-20.55-.46-30.82-.7-4.51-.11-9-.19-13.54-.2-2.16,0-2.43.22-2.34,2.29.21,4.65-.66,3.89,3.93,4.08a11,11,0,0,0,2.37,0c6.6-1.1,13.28-1.12,19.93-1.18,16.5-.16,33,.74,49.43,1.67,7.11.4,14.21.95,21.31,1.42,2.28.14,2.39.14,2.65-2.25.3-2.91.45-5.83.56-8.76.1-2.46.55-4.93.15-7.46a18.09,18.09,0,0,0-2-.47c-6.62-.77-13.28-1.08-19.94-1.24" transform="translate(-208.81 -217.08)"/><path class="cls-1" d="M330.38,262c-8-.5-16-1.2-24-1.25-11.17-.07-22.34.14-33.51.29q-18.79.25-37.58.84c-5.09.16-4-.12-3.95,4.67a2,2,0,0,0,0,.34,1.11,1.11,0,0,0,1.35,1.13c5.74-.75,11.51-.12,17.27-.41,9.24-.48,18.49-.82,27.75-.76,9,.05,18.06.62,27.1.38a135.72,135.72,0,0,1,14.47.17c4.5.29,7.88.55,11.27.69,2.55.11,2.56,0,2.47-2.55,0-.22,0-.45,0-.67-.14-2.64-.14-2.71-2.63-2.87" transform="translate(-208.81 -217.08)"/><path class="cls-1" d="M324.46,335.08a10.9,10.9,0,0,0,2.68,0c.15,0,.35-.24.43-.41a.55.55,0,0,0-.39-.78,27.13,27.13,0,0,0-3.37-.13c-3.38.14-6.77.64-10.12.44-8.57-.48-17.13-.64-25.71-.78-16.9-.28-33.8-1-50.7-1.49-.67,0-1.35-.1-2-.11-2.71,0-2.8.06-2.6,2.9.19,2.59.38,5.18.61,7.77.28,3.06.71,3.34,3.85,3.14,4.94-.32,9.89-.72,14.84-.76,6.88-.06,13.77-.16,20.65,0,17.36.33,34.75.29,52,2.27.45.05.91.07,1.35.14,1.3.22,1.84-.33,1.91-1.63.12-2.48.35-5,.53-7.42.1-1.46-.41-2.39-2.05-2.46-2.45-.11-4.89-.3-7.34-.45a10.93,10.93,0,0,1,5.41-.25" transform="translate(-208.81 -217.08)"/><path class="cls-1" d="M343.43,310.47c-4.85,2.35-9.81,4.49-14.42,7.31a34,34,0,0,1-9.76,4.45c-3.83.9-7.53,2.22-11.58,2.22-5.67,0-10.79-2.32-16.21-3.24-2.57-.43-3.91-2.43-5.88-3.6q-8.68-5.19-17.46-10.19a28.49,28.49,0,0,0-17.85-3.66,96.84,96.84,0,0,0-9.59,1.92,54,54,0,0,0-17,7.25c-5.09,3.17-5.3,3.69-5,9.51.07,1.24.13,2.48.22,3.72.23,3.06.81,3.62,3.9,3.83,5.07.36,10.18.05,15.22.41,8.56.63,17.12.36,25.68.82,12.6.68,25.23.74,37.08,1,8.9.49,17,.07,25.15.05,5.08,0,10.17,0,15.25.13,1.74,0,2.56-.38,3-2.26,1.37-6,1.54-12.08,1.72-18.17.06-2-.56-2.47-2.47-1.55" transform="translate(-208.81 -217.08)"/><path class="cls-1" d="M259.34,237.06c.28,2.46.49,4.93.76,7.39.33,3.12.44,3.21,3.46,3.18.22,0,.45,0,.67,0,7.42-.76,14.86-.58,22.3-.53l2,.13c3.83.19,7.66.36,11.49.57,1.19.06,1.94-.16,1.81-1.65a141.29,141.29,0,0,1-.28-14.84c0-2.37-.08-4.74-.27-7.09-.2-2.6-.47-2.79-3-3a41.36,41.36,0,0,0-8.1.09c-8.52.85-17,1.65-25.59,1.91-1.57,0-3.13.36-4.71.45s-2.16.75-1.92,2.38c.54,3.67,1,7.37,1.38,11.05" transform="translate(-208.81 -217.08)"/><path class="cls-1" d="M217.27,292c.26,5.52.46,11,.7,16.56a24.07,24.07,0,0,0,.61,5.82c1.47-1,2.71-1.78,3.82-2.7,3.37-2.78,7.36-4.31,11.4-5.72a61.94,61.94,0,0,1,18.42-3.83c5.55-.17,11.13.39,16.1,3,4.76,2.51,9.18,5.65,13.76,8.51s9.18,5.85,14.66,7.3a37.32,37.32,0,0,0,26.66-2.33c7.16-3.49,13.83-8,21.4-10.65.71-.25,1.22-.51,1.2-1.37-.07-3.94.35-7.89,0-11.85-.15-1.52-.72-2.5-2.4-2.73-4.57-.61-9.12-1.46-13.7-1.95-9.87-1.08-19.79-1.53-29.71-2.1-5.06-.29-10.13-.68-15.2-.72-4.05,0-8.11.31-12.16,0-10.26-.69-20.5,0-30.74.35-7.67.23-15.26,1.33-22.9,1.95-1.82.15-1.94,1-1.88,2.42" transform="translate(-208.81 -217.08)"/><path class="cls-1" d="M234.21,260.05c9.14.24,18.26-.32,27.39-.58,19.41-.55,38.81-.09,59.77.46,1.71.11,5,.41,8.25.49,3.74.09,3.83-.07,3.76-3.72a9.6,9.6,0,0,0-.3-2.33,2.39,2.39,0,0,0-1.81-1.82c-5.46-1.34-10.87-3-16.57-2.84a106.5,106.5,0,0,1-11.16-.34c-2.25-.16-4.47-.76-6.71-.8-5.64-.11-11.28-.13-16.92,0-14.76.38-29.54.67-44.21,2.6-5.42.72-5.15-.33-4.63,5.94.23,2.83.3,2.86,3.14,2.93" transform="translate(-208.81 -217.08)"/><path class="cls-1" d="M390.88,446.1c2.26-.5,4.18-3.05,4.34-5.76.18-3.13-1.85-5.82-4.41-5.62a8.92,8.92,0,0,0-7.07,4,3.91,3.91,0,0,0-.24,4.44c1.13,1.95,5,3.51,7.38,3" transform="translate(-208.81 -217.08)"/><path class="cls-1" d="M391.56,447.66a8.86,8.86,0,0,1-4.35-.2c-1.26-.54-1.56.23-1.78,1.21-1.08,4.81-2.48,9.53-3.77,14.27-.34,1.24-1.23,2.43-.85,3.89,3.38-3.85,9.16-14.41,10.75-19.17" transform="translate(-208.81 -217.08)"/><path class="cls-1" d="M349.27,442.75c4.72.05,9.45.18,14.17.28a1.62,1.62,0,0,0,0-.22c1.35.08,2.7.19,4.05.25,3.7.14,7.41.34,11.12.35,2.42,0,2.7-.52,2.47-2.82-.19-1.87-1.68-1.63-2.79-1.7-6.4-.41-12.81-.7-19.22-1.06-3-.17-6.06-.4-9.09-.64-1.4-.12-2.13.39-2.14,1.85a7.17,7.17,0,0,1-.25,1.66c-.4,1.49.16,2,1.67,2.05" transform="translate(-208.81 -217.08)"/><path class="cls-1" d="M373.94,473c-1.71-.05-2.19.77-1.86,2.29a35.93,35.93,0,0,0,2.3,8.05,27.43,27.43,0,0,0,7.85-9.31,44.69,44.69,0,0,0-8.29-1" transform="translate(-208.81 -217.08)"/><path class="cls-1" d="M226.57,459.5c4.58-.59,9.15-1.24,13.74-1.73,1.73-.19,1.89-1.21,2-2.54a123.3,123.3,0,0,0-.4-13.18c-.28-6.53-.72-13.07-1.38-19.57-.48-4.72-.17-9.47-.86-14.16-.63-4.24-.5-8.57-1.54-12.75-.67-2.67-.69-2.65-3.3-2.83-6.67-.45-13.24,1-20.11.88-.15,2.13.76,3.68.85,5.33.35,5.73,1.19,11.39,1.87,17.07,1,8.58,1.79,17.2,3.25,25.7.94,5.41.1,11.17,3.25,16.26.85,1.39,1.36,1.69,2.66,1.52" transform="translate(-208.81 -217.08)"/><path class="cls-2" d="M226.09,283.28c-3.34.46-6.59,1.45-10,1.74-3,.25-3.52,1.23-3.27,4.25.29,3.6.84,7.2.85,10.8,0,9.81.87,19.59,1,29.39,0,2.85.8,3.66,3.54,4A51.66,51.66,0,0,0,226,334c2.24-.09,2.71.44,2.9,2.71.16,2,0,4,0,6.28a18.37,18.37,0,0,0-6.27.17c-3.08.65-3.8,1.8-2.9,4.77,2.22,7.33,4.43,14.67,6.78,22,1.27,4,1.18,4.1-2.75,4.5-7.47.77-13.4,5.27-14.81,13.42-.42,2.4.49,4.33,1,6.48,1.51,6.71,1.81,13.6,2.89,20.38,1.36,8.47,1.92,17,3.05,25.53.91,6.82,2.14,13.6,2.59,20.48a3.92,3.92,0,0,0,.35,1.64c1.73,3.05,2,6.4,2.11,9.8.21,9.39,1.74,18.64,2.85,27.93.54,4.48,2,8.83,2.19,13.36.45,9.7,2,19.28,2.92,28.93.4,4.24,1.73,8.39,2.16,12.63a145.32,145.32,0,0,0,3.71,19.94c1.65,6.78,2.88,13.68,4.95,20.37a5,5,0,0,1-.48,4.5c-2.84,4.32-1.81,8.69.29,12.87a6.84,6.84,0,0,0,11.12,1.31,17.91,17.91,0,0,1,3.12-2.85c5.16,6.65,10.27,7.92,15.75-.24a17.25,17.25,0,0,0,7.52,5.42c1.31.43,2.68.51,3.46-.51,2.35-3.06,4.73-2.32,7.27-.42a3.41,3.41,0,0,0,.63.24c4.2,2,7.7,1.18,10.76-2.83.43.76.69,1.26,1,1.73a4.09,4.09,0,0,0,1.48,1.35c4.26,2.55,11.15-.94,11.61-5.9.12-1.23.2-2.47.32-3.71a8.68,8.68,0,0,0-3.27-8.09c-1.46-1.19-1.45-1.64.27-2.46a4,4,0,0,0,2.08-2.41,24.33,24.33,0,0,0,2-6.78,22.48,22.48,0,0,1,1.27-5.25c1.69-4.78,3-9.67,4.32-14.57,3.4-12.52,6.63-25.1,10.32-37.53C333,520.8,335,512.36,337.36,504c1.69-5.95,2.77-12.08,4.14-18.13.74-3.3,1.6-6.57,2.23-9.89.51-2.66.49-5.44,1.22-8s.42-4.14-1.64-5.83c-2.56-2.11-3.91-4.76-2.11-8.21a13.81,13.81,0,0,0,1.06-3.9,1.8,1.8,0,0,1,1.82-1.63c2.24-.23,4.48-.36,6.74-.43,5.29-.15,10.58.28,15.88-.19a49.08,49.08,0,0,1,11.49.08c1.4.2,1.72.75,1.34,2a152.64,152.64,0,0,0-3.76,15c-.09.44-.31.86-.38,1.3-.25,1.57-1.22,2-2.68,1.82a10.37,10.37,0,0,0-4.36.2c-2.48.69-2.72.93-1.88,3.22a53.52,53.52,0,0,1,1.38,5.22c.9,3.49,2,6.93,3,10.39a3,3,0,0,0,1.47,1.76c1.85,1.08,3.56.94,5.29-1.36,3.25-4.33,7.35-7.91,10.46-12.35,1.74-2.49,1.6-3.5-1-4.85-.51-.27-1.36.09-1.64-1,1.84-1.65,2.75-4,4.15-6a99,99,0,0,0,8.68-14.84c1.16-2.52,2.46-5.11,1.84-8.11-.85-4.13-3.42-7-6.73-9.35a4.32,4.32,0,0,0-3.53-.83c-2.58.63-5.36.94-7.15,3.34a3,3,0,0,1-2.86,1.36c-9.24-.58-18.48-1.29-27.73-1.42-3.81,0-4.32-3.94-7.19-4.78-.11,0,0-.83,0-1.27.39-3.14,1.15-6,5.05-6.37a2.07,2.07,0,0,0,.33-.1c2.64-.73,4.46-2.1,4.31-5.18a7.69,7.69,0,0,1,.29-2,99.55,99.55,0,0,0,2.33-25.86c-.14-4.76-1.81-8.85-6.93-10.48-.75-.24-1.49-.51-2.25-.7-3.48-.83-7-1.63-10.57-2.47a10.13,10.13,0,0,1,.49-2.72c1.76-3.58,2.52-7.47,3.6-11.26s2-7.41,2.73-11.17c.51-2.62-.06-3.13-2.73-3.43-1.57-.17-3.15-.26-4.71-.53-4.11-.68-4.1-.71-3.44-5,.47-3.1.86-3.46,3.94-3.37a7.17,7.17,0,0,1,2,.43c3,.94,5.74-.09,8.5-1a1.53,1.53,0,0,0,1.16-1.52c-.33-3.52.84-6.89.81-10.41,0-5.85.28-11.72.45-17.58.14-4.81.4-9.63.42-14.45,0-2.46-1.8-4.21-4.28-4.68-1.77-.34-3.53-.77-5.31-1.08-3.59-.63-3.76-.62-3.64-4.28.22-6.19.71-12.37,1-18.56.19-4.19,0-8.3-2.28-12.1a5.6,5.6,0,0,0-3.92-2.89c-7.63-1.5-15.17-3.5-23-3.62-1.47,0-2.23-.39-2.33-2.08-.31-4.85-1.07-9.66-1-14.53a80.56,80.56,0,0,0-.71-8.77c-.12-1.37-.64-2.06-2-2.1a91.76,91.76,0,0,0-9.81-.29c-8.77.7-17.51,1.82-26.31,2a60.54,60.54,0,0,0-11.05,1.49c-2.34.51-2.57.93-2.15,3.28,1.09,6.12,1.45,12.33,2.28,18.48.11.83.58,1.74-.06,2.61a3.66,3.66,0,0,1-1,.21c-9-.46-17.67,2-26.54,2.84-2.28.2-2.39.58-2.22,2.79q1.14,14.67,2.24,29.33c.19,2.49.11,2.7-2.4,3m157.65,155.4a8.92,8.92,0,0,1,7.07-4c2.56-.2,4.59,2.48,4.41,5.62-.16,2.71-2.08,5.26-4.34,5.76s-6.25-1-7.38-3a3.91,3.91,0,0,1,.24-4.44m-2.08,24.26c1.29-4.74,2.69-9.46,3.77-14.26.22-1,.52-1.76,1.78-1.22a8.86,8.86,0,0,0,4.35.2c-1.59,4.76-7.37,15.32-10.75,19.17-.38-1.46.51-2.65.85-3.89m.57,11.1a27.43,27.43,0,0,1-7.85,9.31,35.93,35.93,0,0,1-2.3-8.05c-.33-1.52.15-2.34,1.86-2.29a44.69,44.69,0,0,1,8.29,1M347.6,440.7a7.25,7.25,0,0,0,.25-1.66c0-1.46.74-2,2.14-1.85,3,.24,6.06.47,9.09.64,6.41.36,12.82.65,19.22,1.06,1.11.07,2.6-.17,2.79,1.7.23,2.3,0,2.82-2.47,2.82-3.71,0-7.42-.21-11.12-.35-1.35-.06-2.7-.17-4-.25,0,.07,0,.15,0,.22-4.72-.1-9.45-.23-14.17-.28-1.51,0-2.07-.56-1.67-2.05m-126.94,1c-1.46-8.5-2.22-17.12-3.25-25.7-.68-5.68-1.52-11.34-1.86-17.07-.11-1.64-1-3.2-.86-5.33,6.87.08,13.44-1.33,20.11-.88,2.61.18,2.63.16,3.3,2.83,1,4.19.91,8.51,1.54,12.75.69,4.69.38,9.44.86,14.16.66,6.5,1.1,13,1.38,19.57a123.3,123.3,0,0,1,.4,13.18c-.08,1.33-.24,2.35-2,2.54-4.59.49-9.16,1.14-13.74,1.73-1.3.17-1.81-.13-2.66-1.52-3.15-5.09-2.31-10.85-3.25-16.26m20,138.65c-.68-.36-.77-1-.91-1.69a103.39,103.39,0,0,1-2.24-12.59,43.51,43.51,0,0,0-1.43-5.91c-.94-4.08-.75-8.29-1.73-12.35a39.52,39.52,0,0,1-1.59-8.93c0-7-1.78-13.78-2.16-20.75a122.92,122.92,0,0,0-2.45-18.4A69.61,69.61,0,0,1,226.48,484c.11-4.07-.65-7.88-1.15-11.81-.4-3.1-.45-6.23-1.36-9.28-.54-1.77.9-2,2.18-2.18s2,.21,2.1,1.75a71.25,71.25,0,0,1,.35,9.46c-.35,5.8.53,11.5,1.32,17.19.45,3.25.45,6.53.86,9.76,1.36,10.75,1.86,21.58,3.18,32.33,1,8.5,2.13,17,3.71,25.44,1.45,7.73,2.18,15.6,3.22,23.41,0,.08-.12.18-.19.28M251,607.09c-.38,2.61-3.6,5.23-5.86,5-2.79-.25-5.73-4.56-4.74-7.31.62-1.7,1.06-3.9,3.47-4.09,2.8-.23,5.34.43,7.15,2.8.89,1.16.14,2.42,0,3.57m3.14-7.18c-.1.23-.29.53-.66.47s-.81-.43-.65-.9c.06-.18.56-.27.86-.28s.62.19.45.71m7.17,12.35c-2.29-.12-5.53-3.51-5.38-5.64.21-3.06,2.87-5.64,5.67-5.48s5.23,3.55,4.88,7.17c-.19,2-2.92,4.07-5.17,4m7.18-10c-.61-1.21-1.71-1.95-.63-3a1.49,1.49,0,0,1,1.5.08c.93,1.18-.27,1.79-.87,3M282,609c-.31,1.51-3,3.3-4.67,3.13-3.06-.3-6.23-4-6-7.06a3.62,3.62,0,0,1,3.35-3.59A6.36,6.36,0,0,1,282,609m3-8.89c-.18.55-.27,1.46-1.19,1.21-.68-.19-.86-.93-1-1.51.16-.87.77-.68,1.28-.65s1.19.19,1,1m6.26,12.26c-2.68-.22-6.1-2.08-5.74-5.38s2.69-5.84,5.47-5.74a5.84,5.84,0,0,1,5.38,6.43c-.18,3.41-1.81,5-5.11,4.69m7.49-9.67-1.18-3.28a3.56,3.56,0,0,1,2.82.1c-.52,1-1.06,2-1.64,3.18m11.65,5.19c-.07.92.06,2.59-1.68,3.48S305,613,303,611.88s-2-3.13-1.89-5c.12-3,1.44-5.12,3.44-5.68,3.86-1.09,6.58,1.66,5.91,6.69m34.68-166.41c-1.14,2.48-3.45,2.59-5.91,2.57-2.73-.14-3.38-.79-3.48-3.66-.15-4.21,1.71-6.8,5.65-8.17a2.21,2.21,0,0,1,2.92.9,8.37,8.37,0,0,1,.82,8.36m-13.83.45c.24,2.31,1.95,3.8,3.86,4.76,1.62.82,1.76,1.63,1.12,3.18a32.45,32.45,0,0,0-1.23,4.7,27.72,27.72,0,0,1-8.24-7.08,3.21,3.21,0,0,1-.41-3.21c1.42-4.79,1.69-9.79,2.84-14.62.18-.74.14-1.51.95-2A53.37,53.37,0,0,1,341,422.48c-.29,2-.55,3.61-.76,5.26a1.78,1.78,0,0,1-1.12,1.55c-.41.18-.83.36-1.23.57-5.49,2.93-7.2,5.95-6.55,12m15.77-61.08a6.11,6.11,0,0,1,4.8,5.43,40,40,0,0,1,.31,8.09,95.2,95.2,0,0,1-1.86,18.11c-.34,1.5-1,2-2.48,2.47a102,102,0,0,0-9.57,4.15c-3.48,1.54-7.15,2.62-10.48,4.56a4.17,4.17,0,0,0-2.24,2.72,36.39,36.39,0,0,0-1.39,6.27c-.3,4.4-1.68,8.64-2,13-.22,3,.38,5.38,2.81,7.45,3.31,2.82,6.33,6,9.44,9,.74-.17-.6-1.85.79-1.15a16.22,16.22,0,0,1,5.11,4.37c1,1.17.53,2.57.38,3.92-.77,7-2.84,13.68-4.49,20.47-1.91,7.89-3.75,15.8-5.81,23.65-1.51,5.78-3.36,11.46-5,17.21-1.78,6.28-3.76,12.5-5.06,18.93-.85,4.17-2.47,8.18-3.49,12.35-2,8.31-5,16.34-6.92,24.7-.47,2.08-1.5,4-2,6.11-.44,1.9-1.63,2.13-3.21,2.11-5-.08-9.92-.22-14.89-.15-10.71.15-21.43-.22-32.14.52a105.34,105.34,0,0,1-10.81,0c-2.71-.09-2.72-.22-3.22-2.79a161,161,0,0,1-2.29-17.08c-.42-4.71-1.21-9.4-1.71-14.11-.74-7-2.6-13.77-3.24-20.71-.88-9.42-2.84-18.72-2.75-28.26,0-4.14-1-8.28-1.37-12.44-.91-10.22-1.84-20.45-2.07-30.72-.05-2.25-.29-4.5-.5-6.74-.11-1.22.17-1.87,1.6-1.93,3.14-.13,6.23-.82,9.41-.7,2.69.11,3.23-.64,3.29-3.47.15-7.23-.48-14.42-1-21.63-.43-6.41-.67-12.84-1.2-19.25-.47-5.62-.77-11.26-1.23-16.87a37.44,37.44,0,0,0-.87-4.66c-.66-3.09-.73-3.07-3.7-3.07-6,0-11.92.88-17.9,1.06-1.21,0-3.13.77-3.46-.19-.56-1.67-1.71-3.37-1-5.42,1.56-4.58,4.71-7.11,9.38-8.2,7.52-1.75,15.18-1.75,22.81-2.16a54.58,54.58,0,0,0,5.73-.39c6.39-1,12.83-.82,19.26-.89,15.59-.18,31.12,1.26,46.65,2.36,4,.28,8.05.28,12,.9,5.85.91,11.77,1.45,17.51,3m-13-31.49c4.58.17,4.91.64,3.67,5-1.9,6.61-3.86,13.21-5.6,19.86-.49,1.85-1.35,2.34-3.07,2.2-11.15-.9-22.29-1.94-33.45-2.58-9.56-.55-19.14-1.47-28.74-.56a14.34,14.34,0,0,1-2.7.07c-5.77-.51-11.49.07-17.22.5-3.26.24-6.52.3-9.76.86-2.59.45-3,.09-4.27-2.25a65.51,65.51,0,0,1-4.29-11,134.43,134.43,0,0,1-3.7-13.27c4.43-1.07,8.63-.61,12.78-.92,13.06-.95,26.15-.95,39.24-.77,10.57.14,21.16.3,31.71.93A93.14,93.14,0,0,1,323,348.82c3.55.77,7.36.36,11.05.5m-7.68-13.54c1.64.07,2.15,1,2.05,2.46-.18,2.47-.41,4.94-.53,7.42-.07,1.3-.61,1.85-1.91,1.63-.44-.07-.9-.09-1.35-.14-17.29-2-34.68-1.94-52-2.27-6.87-.14-13.76,0-20.64,0-5,0-9.9.44-14.84.76-3.13.2-3.57-.08-3.85-3.14-.23-2.59-.42-5.18-.61-7.77-.2-2.84-.11-2.92,2.6-2.9.67,0,1.35.08,2,.11,16.9.52,33.8,1.21,50.7,1.49,8.58.14,17.14.3,25.71.78,3.35.2,6.74-.3,10.12-.44a27.13,27.13,0,0,1,3.37.13.55.55,0,0,1,.39.78c-.08.17-.28.4-.43.41a10.9,10.9,0,0,1-2.68,0,10.93,10.93,0,0,0-5.41.25c2.45.15,4.89.34,7.34.45m17.79-5.59c-.42,1.88-1.24,2.3-3,2.26-5.08-.13-10.17-.14-15.25-.13-8.13,0-16.25.44-25.15-.05-11.85-.3-24.48-.37-37.08-1-8.56-.46-17.12-.19-25.68-.81-5-.37-10.15-.06-15.22-.41-3.09-.22-3.67-.78-3.9-3.84-.09-1.24-.15-2.48-.22-3.72-.3-5.82-.09-6.34,5-9.51a54,54,0,0,1,17-7.25,97.61,97.61,0,0,1,9.6-1.92,28.49,28.49,0,0,1,17.85,3.66q8.79,5,17.46,10.19c2,1.17,3.31,3.17,5.88,3.6,5.42.92,10.54,3.25,16.21,3.24,4.05,0,7.75-1.32,11.58-2.22a33.8,33.8,0,0,0,9.76-4.46c4.61-2.81,9.57-4.95,14.42-7.3,1.91-.92,2.53-.49,2.47,1.55-.18,6.09-.35,12.17-1.72,18.17m-11.34-52.58c-.11,2.93-.26,5.85-.56,8.76-.26,2.39-.37,2.4-2.65,2.25-7.1-.47-14.2-1-21.31-1.42-16.46-.93-32.93-1.83-49.43-1.67-6.65.06-13.33.08-19.93,1.18a11,11,0,0,1-2.37,0c-4.59-.19-3.72.57-3.93-4.08-.09-2.07.18-2.3,2.34-2.3,4.51,0,9,.1,13.54.21,10.27.24,20.54.75,30.82.7,6.21,0,12.41,0,18.61.26,10.49.39,21,.36,31.38,2.25a6.64,6.64,0,0,0,1.33.11.81.81,0,0,0,.81-.88,1,1,0,0,0-.51-.78,14.81,14.81,0,0,0-2.31-.36c-13.72-1.28-27.46-2.14-41.25-2.31-16.71-.19-33.42.38-50.12-.54-5.09-.29-5.11-.21-5.53-5.33-.06-.78,0-1.58-.05-2.37-.07-1.28.58-1.83,1.8-1.9s2.7-.29,4-.31c16.48-.32,33-.85,49.44-.53,8,.16,16-.3,24-.11,6.66.15,13.32.47,19.94,1.24a18.09,18.09,0,0,1,2,.47c.4,2.53-.05,5-.15,7.46m.18-12.09c.09,2.59.08,2.66-2.47,2.55-3.39-.14-6.77-.4-11.27-.68a132.94,132.94,0,0,0-14.47-.18c-9,.24-18.07-.33-27.1-.38-9.26-.06-18.51.28-27.75.75-5.76.3-11.53-.33-17.27.42a1.11,1.11,0,0,1-1.35-1.13,2,2,0,0,1,0-.34c0-4.79-1.14-4.51,4-4.67q18.78-.57,37.57-.84c11.17-.15,22.34-.36,33.51-.29,8,0,16,.74,24,1.25,2.49.16,2.49.23,2.63,2.87,0,.22,0,.45,0,.67m-73.14-41.89c1.58-.09,3.14-.41,4.71-.45,8.56-.26,17.07-1.06,25.59-1.91a41.36,41.36,0,0,1,8.1-.09c2.55.25,2.82.44,3,3,.19,2.35.31,4.72.27,7.08a141.43,141.43,0,0,0,.28,14.85c.13,1.49-.62,1.71-1.81,1.65-3.83-.21-7.66-.38-11.49-.57l-2-.13c-7.44,0-14.88-.23-22.3.53-.22,0-.45,0-.67,0-3,0-3.13-.06-3.46-3.18-.27-2.46-.47-4.93-.76-7.39-.43-3.68-.84-7.38-1.38-11.05-.24-1.63.34-2.29,1.92-2.38M235.7,251.18c14.67-1.93,29.45-2.22,44.21-2.6,5.64-.14,11.28-.12,16.92,0,2.24.05,4.46.64,6.71.8a103.85,103.85,0,0,0,11.16.34c5.7-.17,11.11,1.5,16.57,2.84a2.39,2.39,0,0,1,1.81,1.81,9.75,9.75,0,0,1,.3,2.34c.07,3.65,0,3.81-3.76,3.72-3.27-.08-6.54-.38-8.25-.49-21-.55-40.36-1-59.77-.46-9.13.26-18.25.82-27.39.58-2.84-.07-2.91-.1-3.14-2.93-.52-6.27-.79-5.22,4.63-5.94m6.35,36.49c10.24-.32,20.48-1,30.74-.35,4,.27,8.11-.06,12.16,0,5.07,0,10.14.42,15.21.71,9.91.57,19.83,1,29.7,2.1,4.59.5,9.13,1.34,13.7,1.95,1.68.23,2.25,1.21,2.4,2.74.39,3.95,0,7.9,0,11.84,0,.86-.49,1.12-1.2,1.37-7.57,2.68-14.24,7.16-21.4,10.65A37.32,37.32,0,0,1,296.74,321c-5.48-1.45-10-4.39-14.67-7.3s-9-6-13.75-8.51c-5-2.61-10.55-3.17-16.1-3A61.94,61.94,0,0,0,233.8,306c-4,1.41-8,2.94-11.4,5.72-1.11.92-2.35,1.68-3.82,2.7a24.07,24.07,0,0,1-.61-5.82c-.24-5.52-.44-11-.7-16.56-.07-1.4.06-2.27,1.89-2.42,7.63-.62,15.22-1.72,22.89-1.95" transform="translate(-208.81 -217.08)"/><path class="cls-2" d="M290.07,570c-1.87-3.11-3.74-6.54-7.43-7.46-6.94-1.73-13.42-.73-18.51,5A22.39,22.39,0,0,0,258.54,583a3,3,0,0,0,3.06,3.26c4.49.32,9,.57,13.24.84,4.53-.05,8.8.24,13.07.57,3.2.25,5.27-1.43,5-4.63-.37-4.44-.42-9-2.85-13.06m-3.9,13.35c-3.71-.25-7.43-.47-11.14-.7l0,.47-9.77-.61c-2.28-.14-2.25-.13-2-2.59a18,18,0,0,1,4.61-10.27,14.67,14.67,0,0,1,4-3c4.67-2.56,9.1-1.67,13.34,4,2.45,3.26,3,6.94,2.95,10.85,0,1.54-.62,2-2,1.89" transform="translate(-208.81 -217.08)"/><path class="cls-2" d="M266.06,421c1.79,4.32,4.56,7.43,9.57,7.79.79.06,1.57.18,3.08.35,1.62.51,4,.24,6.34,0a16.8,16.8,0,0,0,15.21-13.5,17.07,17.07,0,0,0,.48-2.32c.33-4.84-.28-9.63-3.32-13.48-4.84-6.13-13.51-7.78-20.6-4.37a27,27,0,0,0-11.66,11.3,10.51,10.51,0,0,0-1,9.14c.64,1.68,1.21,3.39,1.9,5.05m5-18.51c2.85-2.39,5.7-4.66,9.35-5.79,2.49-.77,4.84-.28,7.3-.15a11.57,11.57,0,0,1,9.22,5.18c2.59,3.59,2.39,7.85,2,12,0,.34-.18.66-.21,1-.63,6.45-4.86,9.78-10.38,11.95a19.37,19.37,0,0,1-9.26,1.31c-7.14-.49-10.59-3.67-12.62-10.5-1.86-6.21-.26-11,4.56-15" transform="translate(-208.81 -217.08)"/><path class="cls-2" d="M300.65,542.47c-2.6-1-5.17-2-8.1-1.53-3.43.55-5.44,2.74-7.36,5.37-3.08,4.22-1.63,8.13,1.26,10.4,3.45,2.7,7.09,2.32,10.83.75s5.25-4.38,5.43-8.34a9.14,9.14,0,0,0-.65-4.82,3,3,0,0,0-1.41-1.83m-8.33,12.88a3.9,3.9,0,0,1-4.22-4.87,9,9,0,0,1,7.9-5.79c1.46,0,2.68,1.7,2.57,3.65a8,8,0,0,1-6.25,7" transform="translate(-208.81 -217.08)"/><path class="cls-2" d="M268,550.47a7.58,7.58,0,0,0-6.66-9.69c-4.06-.48-7.09.6-8.63,4.64a5.6,5.6,0,0,1-.54.86,4.46,4.46,0,0,0,.73,6.07,9.73,9.73,0,0,0,6.21,3c6,.44,7.77-.66,8.89-4.85m-8.09,1.75c-3.32-.55-4.65-1.65-4.28-3.55.55-2.84,3.63-5.37,5.95-4.9,1.38.28,2.66,2.79,2.36,4.66-.41,2.63-2,4.13-4,3.79" transform="translate(-208.81 -217.08)"/><path class="cls-2" d="M228.39,385.12l.78.05.51,0-.63-.06-.66,0" transform="translate(-208.81 -217.08)"/></svg>