<svg id="Layer_1" data-name="Layer 1" xmlns="http://www.w3.org/2000/svg" viewBox="0 0 274.73 919.74"><defs><style>.cls-1{fill:#010101;}.cls-2{fill:#fff;}</style></defs><path class="cls-1" d="M359.57,94.5c7.49-10.8,26.18-14.72,36.59-8.19,15.62,9.79,25.39,24,31,41.61,1.74,5.53-.93,11.58,3.33,16.59,4.85,5.7,4.56,11.78-1.75,15.73-7.16,4.48-6.71,10.07-4.28,16.16,3.3,8.27,3.91,15.27-5.64,19.68a4.79,4.79,0,0,0-2.48,3.2c-1.38,4.45-4.11,5.59-7.77,2.38a13.92,13.92,0,0,0-9.74-3.23c-6.68.33-9.26-2.91-10.44-8.67a50.54,50.54,0,0,0-2.07-5.95c-1.88-5.48-3.91-10.07-11.46-9.52-3.1.23-9.38-.09-8.63-5.58,1-7.34-2-11.71-7.31-15.73-3.65-2.78-5.32-7-7-11.29-4.8-16.88-2.25-32.88,7.67-47.19m30.74-5.11c-9.31-4.88-22.55-1.29-28.22,8.49-8.23,14.19-12.49,29.43-4.8,45.38C362.43,154,371,160.78,382.9,162.89c1.36.24,3,.78,4-.47s0-2.67-.68-3.84c-4.93-8.66-8.28-18.34-16.31-25-1.49-1.23-2.64-3.25-.69-4.78s3.38.34,4.37,1.94c5,8.14,11,15.64,15.14,24.35a38.06,38.06,0,0,0,4.9,7.64c2.63,3.22,5.89,1.8,9,.61s2.06-3.28,1.92-5.73c-.59-10-.7-20-1-30-.08-2.21.74-3.92,3-3.74s1.62,2.35,1.64,3.89c.1,8.87.33,17.74.26,26.6,0,5.28,2.18,4.74,5.45,2.57a22.68,22.68,0,0,0,8.93-25.1c-.76-2.7-1.38-5.44-1.84-7.29-5.77-16.37-16.26-27.56-30.64-35.09" transform="translate(-222.01 -17.99)"/><path class="cls-2" d="M327.27,26c-4.92-2.75-12.06.58-12.13,6.06a14,14,0,0,0,1.63,6.83c1.73,3.57,5.88,5.76,8.68,4.45a17.89,17.89,0,0,0,8.36-7.68,2.56,2.56,0,0,0,.08-3A19.42,19.42,0,0,0,327.27,26" transform="translate(-222.01 -17.99)"/><path class="cls-2" d="M354.39,46.27c3.65.48,6.47-2,8.74-5.1,2.66-3.67,2.07-7.75.45-11.54-1.35-3.17-7.69-5.27-10.32-3.45-3.23,2.23-6.54,4.43-9.2,7.4a3,3,0,0,0-1,2.28c.27,3.61,7.14,10.31,11.36,10.41" transform="translate(-222.01 -17.99)"/><path class="cls-2" d="M460.11,274.05c.19,6.65.25,13.31.35,20,0,1-.17,1.88,1.23,2.16,2.95.58,8.74-2.38,9.53-5.3,1.06-4,2-8,1.62-12.21A75,75,0,0,1,473,267c.27-3.87.73-7.77.87-11.69.08-2.31.14-4.62.24-6.93a3.92,3.92,0,0,0-2.87-4.22,38.7,38.7,0,0,0-10-1.06,1.42,1.42,0,0,0-1.67,1.53c-.07,2.51-.3,5-.23,7.51.21,7.32.58,14.64.79,22" transform="translate(-222.01 -17.99)"/><path class="cls-2" d="M475.2,540.55c-4.68-.28-9.52,4.93-9.75,10.51-.18,4.29,5.35,9.61,10.35,10,6.89.49,12-3.46,12.35-9.67.37-6.45-4.44-9.92-12.95-10.81" transform="translate(-222.01 -17.99)"/><path class="cls-2" d="M400.36,888.27a15.21,15.21,0,0,1-3.54,1.24c-10.19,1.85-20.31,1.09-30.37-.94a2.76,2.76,0,0,0-3.27,1.12c-7,8.13-8.55,18.09-9.71,28.19,0,1.25-.11,2.51-.13,3.76-.08,5.64.52,6.24,6.22,6.45a79.71,79.71,0,0,0,13.55-.86c9.66-1.3,19.24-3,27.86-8,2-1.17,3.61-2.34,2.89-5.22-.6-2.4-.53-5-.84-7.45-.68-5.47-1.1-11-.2-16.44.36-2.14-.33-2.88-2.46-1.89" transform="translate(-222.01 -17.99)"/><path class="cls-2" d="M416.56,463c-.67-.93-1.56-2.07-3-1.87-.9.12-5.11,5.68-5.06,6.7a84.85,84.85,0,0,1-.84,15c-.21,2.56.08,2.77,2.77,1.8C418,482,422.53,471.35,416.56,463" transform="translate(-222.01 -17.99)"/><path class="cls-2" d="M396.74,783.81c0-.65.17-1.46-.55-1.83s-1.23.4-1.6.86c-2,2.47-4.69,2.92-7.55,2.89a20.65,20.65,0,0,1-12-3.48c-1.42-1-2.12-1-3,.72-4,8-5.73,16.58-6.64,25.27-.87,8.33-.78,16.76-1.06,25.15-.14,4.33-.44,8.69-.18,13,.46,7.9.57,15.79.46,23.44a92.42,92.42,0,0,0-.19,12.41,3,3,0,0,0,2.44,3.11c7.81,2.22,15.82,1.95,23.79,1.74a24.48,24.48,0,0,0,9.49-2.35c1.71-.77,2.35-1.75,2.08-3.56-.48-3.25-1.09-6.49-1.26-9.76-1.13-22.17-2.16-44.34-3.23-66.51q-.5-10.56-1-21.11" transform="translate(-222.01 -17.99)"/><path class="cls-2" d="M481.51,563.21a14.84,14.84,0,0,1-7.69.73c-1.35-.23-1.82.26-2.2,1.54-.61,2.08-.46,4.21-.76,6.31-1.62,11.06-3.26,22.12-4.64,33.21-1.35,10.8-2.43,21.63-3.57,32.46-.36,3.45-.53,6.93-.84,10.39-.1,1.08,0,2,1.29,2.16,4.06.67,7.66,2.6,11.35,4.23,2.36,1,2.71.19,3-2,.94-7.47.49-15,1.37-22.47,1.09-9.2,1.51-18.45,2.84-27.64,1.27-8.76,1.38-17.68,1.89-25,.62-5-.14-8.46.57-11.9.48-2.39-.71-2.72-2.6-2" transform="translate(-222.01 -17.99)"/><path class="cls-2" d="M465.09,543.08c2.86-3.87,6.28-6.55,11.5-5.5.54.11,1.23.16,1.16-.9a10.05,10.05,0,0,0-.58-.87c-2.05-2.55-4-5.21-6.19-7.63-5.06-5.55-10.43-10.84-15.36-16.51-6.76-7.79-12.66-16.28-19.47-24-4.07-4.64-7.85-9.53-11.78-14.29-.4-.48-.66-1.37-1.48-1.14s-.51,1.15-.64,1.76a18.56,18.56,0,0,1-4.4,9c-1.42,1.56-1.37,2.92.08,4.51s2.68,3.53,4.08,5.25c9.06,11.15,18.31,22.15,27.14,33.46,4.26,5.45,8.67,10.75,13,16.11.65.81,1.32,3,2.93.8" transform="translate(-222.01 -17.99)"/><path class="cls-2" d="M478.17,682.34c-.29-7.11,0-14.26-.81-21.35-.14-1.14-.36-2.07-1.66-2.37q-9-2.11-18-4.26c-1.12-.27-2-.07-1.93,1.32.07,2.61-.59,5.16-.76,7.74-.66,10.26.14,20.56-.2,31,2-3.87,5.23-6.84,7.37-10.54,1.32-2.29,2.5-4.67,3.88-6.92a1.93,1.93,0,0,1,2.73-.9c1.09.62.86,1.64.5,2.56a3.09,3.09,0,0,0,.19,2.47c1.84,4.62,5.23,8.27,7.79,12.43.28.47.52,1.18,1.25.93s.43-1,.4-1.5c-.23-3.55-.62-7.08-.77-10.65" transform="translate(-222.01 -17.99)"/><path class="cls-2" d="M401.52,649.55c.1-2.21-.74-4.64-.07-6.59,1-3-.53-2.71-2.4-2.78-8.09-.3-16.18-.15-23,0-5.88-.41-5.58-.44-5.12,4.06.59,5.83,1.18,11.71.62,17.59A154.64,154.64,0,0,0,371,687.3a385.17,385.17,0,0,1,.3,49.93c-.59,9.61-1,19.18-.86,28.82.12,6.28,3.59,13.16,10.66,15.53,4.61,1.54,9.44,1,11.94-1.64,5-5.29,7.1-11.73,7.73-18.81.75-8.46,1.09-16.94,1.32-25.43.25-9.25.52-18.51.47-27.77,0-5.38-1-10.77-.92-16.15.25-14.08-.77-28.15-.14-42.23" transform="translate(-222.01 -17.99)"/><path class="cls-2" d="M334.67,891c-.88-3.67-.75-3.69-4.16-2.78a7,7,0,0,1-1.71.29c-6,.08-12,.49-17.84-1-4.39-1.14-7.1.3-9.47,3.77-5.1,7.47-9,15.43-10.73,24.39a22,22,0,0,0-.28,9.14,3.6,3.6,0,0,0,2,2.6,28.24,28.24,0,0,0,12.78,3.18,25.36,25.36,0,0,0,4.62-.13c7.72-1.58,15.69-.91,23.42-2.69,3.83-.87,6-2.68,5.6-6.45-1-10.16-1.86-20.33-4.23-30.3" transform="translate(-222.01 -17.99)"/><path class="cls-2" d="M310.07,466.44a78.65,78.65,0,0,1,16.45-.05c9.92.73,19.84-.45,30.64.22,14-.32,28.8-.59,43.64-1a11.57,11.57,0,0,0,9.25-4.57c.91-1.17,1.12-2.91,2.75-3.57a1.51,1.51,0,0,0,1-1.59c-.19-.85-1.08-.56-1.72-.59-5.67-.28-11.33-.6-17-.83-14.72-.6-29.43.75-44.16.54-11-.16-21.94.82-32.92.13-6.06-.38-12.12-.8-18.18-1.15-.8-.05-1.85-.38-2.3.66s.22,1.79.95,2.5c2.69,2.63,5.42,5.23,8,8a3.83,3.83,0,0,0,3.57,1.37" transform="translate(-222.01 -17.99)"/><path class="cls-2" d="M296.93,459.84c-1.28-1.4-2.13-1.17-3.53.09-4.21,3.75-4.86,8.53-4.58,13.71a13.49,13.49,0,0,0,9.61,12.06c1.7.49,2.3.09,2.62-1.77.95-5.52.89-11.13,1.54-16.34a1.69,1.69,0,0,0-.44-2.34c-1.76-1.79-3.53-3.56-5.22-5.41" transform="translate(-222.01 -17.99)"/><path class="cls-2" d="M255.8,608.94c-.41-6.33-1.07-12.64-1.47-19-.46-7.31-.81-14.61-2.1-21.85-.39-2.22-1-1.83-2.29-.73-2,1.78-4.3,2.94-7.1,2.54-1.62-.23-2.3.41-2.28,2,.06,7.43-.16,14.87.17,22.28.7,15.78,1.7,31.54,2.5,47.31.1,1.94.75,2.54,2.67,2.17a57.77,57.77,0,0,1,8.84-1.36c2.75-.11,4.11-.76,3-3.52.3-3.72-1-7-1.07-10.55-.1-6.45-.49-12.9-.91-19.35" transform="translate(-222.01 -17.99)"/><path class="cls-2" d="M296,488.22a15,15,0,0,1-6.82-5.15c-.42-.51-.83-1.09-1.61-1.08-1.09.06-1.3,1-1.79,1.72-3.56,5-7.16,10-10.67,15.05-5.93,8.53-12.21,16.81-17.64,25.7-2.77,4.51-4.94,9.41-8.39,13.48-1.2,1.41-.63,2.09.63,2.93,2.59,1.73,5.71,2.92,6.91,6.21.76,2.11,1.67,1.74,2.68.19,1.43-2.18,2.43-4.58,4-6.71,3.3-4.5,6.47-9.1,9.57-13.75,4.81-7.22,9.53-14.49,14.26-21.76,3-4.68,6.08-9.37,9-14.1.51-.81,1.82-2.08-.16-2.73" transform="translate(-222.01 -17.99)"/><path class="cls-2" d="M311.36,783.31c3.68,2.56,10,1.81,13-1.55,5.33-6,7.28-13.38,8-21.17,1.33-14.6,1.71-29.23,2.12-43.87.33-11.48.89-23,.94-34.44.05-13.2.53-26.4.82-39.6,0-.76.19-1.62-.58-2.11a1.73,1.73,0,0,0-2.32.5,3.41,3.41,0,0,1-2.71.75,115.2,115.2,0,0,1-18.74-1.16c-2.25-.39-4.47-1.15-6.85-.83-1.32.18-1.81.65-1.85,2-.15,4.82-.54,9.63-.57,14.45-.07,10.41.4,20.84,0,31.24-.61,15.51-.44,31-.89,46.55-.28,9.63-.64,19.24-1,28.86-.59,9,3.59,15.48,10.68,20.4" transform="translate(-222.01 -17.99)"/><path class="cls-2" d="M304.54,636.64c10.6-.16,21.21,0,31.79-.47,11.59-.57,23.12.93,34.69.45,9.36.06,18.73-.16,28.07.42,2.63.16,3.17-.94,3-3.22-.36-3.94-.8-7.89-.8-11.84,0-16-1.09-32-.59-48.05.56-17.75.78-35.51,1.45-53.26.47-12.45,1.22-24.87,2.48-37.27.42-4.12.46-8.28.61-12.42,0-1.33-.18-2.68-2.07-2.26-3,.65-6,0-8.95.1-10.8.27-21.61.86-32.4.64-10.11-.22-20.22.36-30.34,0-7.76-.29-15.55-1.47-23.34.13-1.7.35-2.45.85-2.67,2.65-1.33,10.92-2.6,21.84-2.63,32.87,0,2.6-.09,5.21-.15,7.82-.45,18.42-1.13,36.83-.23,55.25q.68,14,1.06,28.05c.36,12.91.91,25.85-.48,38.75-.13,1.28.2,1.71,1.53,1.69" transform="translate(-222.01 -17.99)"/><path class="cls-2" d="M309.54,884.07c5.65.54,11.24,1.55,17,1.32,5.15-.21,5.8-.59,6.19-5.7l.09-1.15c.85-12.12,1.8-24.23,2.5-36.36.44-7.69.64-15.41.66-23.12,0-5.59-.75-11.17-.67-16.78.07-2.22.27-4.44.2-6.65-.18-5.07-1.17-9.94-4-14.27-.86-1.29-1.59-1.81-2.76-.14-5.6,7.95-12.9,9.08-21.07,3.37-.39-.27-.76-.68-1.28-.39s-.44.8-.39,1.27c.16,1.44.44,2.88.49,4.32.47,15.23,1.11,30.46,1.3,45.7.19,15,.19,29.93-1.21,44.85-.23,2.46.5,3.49,3,3.73" transform="translate(-222.01 -17.99)"/><path class="cls-2" d="M237.05,651.56c0,.38.13.76.17,1.15.65,7.38,1.46,14.75,1.46,22.19,0,3.16-.14,6.42.94,10.2a38.9,38.9,0,0,0,2.16-3.46c1.87-4,3.67-8.06,5.5-12.09,2.54-5.62,3.53-5.76,7.46-1q5.24,6.33,10.48,12.63l.53-.19c-.08-.45-.14-.9-.23-1.35-1.38-7.18-3.21-14.29-3.3-21.67-.05-3.58-.83-7.07-1.27-10.6-.23-1.81-1.05-2.18-2.69-2.06-5.86.43-11.64,1.6-17.52,1.87-3.73.17-3.93.62-3.69,4.41" transform="translate(-222.01 -17.99)"/><path class="cls-2" d="M246,278.74c0-9.35,1.61-18.65.91-28-.63-8.62-1.2-9.07-10.09-7.77-5,.74-7.72,3.77-7.86,8.79-.14,4.73-.32,9.45-.48,14.17.65,6.78.47,13.53,1,20.29s3.75,9.93,10.61,9.67A27.75,27.75,0,0,1,243,296c3,.24,3.36-.2,3.25-3.12-.16-4.7-.26-9.42-.24-14.13" transform="translate(-222.01 -17.99)"/><path class="cls-2" d="M369.12,239.79c1,11.48,2.43,22.81,8.19,33.13,4.77,8.53,11.88,12.88,21.64,12.78,6-.06,11.69-1.83,17.38-3.77a16.61,16.61,0,0,0,10.32-9.43c5.66-12.88,10-26.06,9.08-40.48-.52-8.8-1-17.52-4.85-25.68-4.32-9.14-10.24-15.84-21.3-16.57-5.87-.39-11.51.53-17.25,1.1-10.57,1-16.84,7.49-20.29,16.9a47.76,47.76,0,0,0-3.13,19.32c0,4.8-.15,8.74.21,12.7M400,242c2.43,0,4.92-.54,7.37.7,5,2.54,5,7.34,5.69,11.36-.34,6.07-5.78,10.88-12.47,11.49-5.29.49-11.36-3.67-12.65-8.66-1.6-6.18,5.22-14.75,12.06-14.89" transform="translate(-222.01 -17.99)"/><path class="cls-2" d="M399.2,262.38c4.85.38,9.91-3.65,10.18-8.12.28-4.8-2.06-8.75-5.32-9-6.89-.46-12.47,3.43-12.81,8.92-.22,3.65,3.85,7.83,7.95,8.16" transform="translate(-222.01 -17.99)"/><path class="cls-2" d="M282.65,352.78c1.73.06,3.46.16,5.19.17,1.14,0,2.22-.29,2-1.78-.69-5.75-.35-11.54-.53-17.3,0-1.41-.57-2.12-2.08-2.07-3.18.11-6.35.2-9.52.14-2.34,0-3,.93-2.67,3.19.5,3.79.82,7.62,1.06,11.45.38,6.17.33,6.17,6.51,6.2" transform="translate(-222.01 -17.99)"/><path class="cls-2" d="M305.65,258.38c3.47,1.42,6.12-.35,8.56-2.57,3-2.71,3.73-8.43,1.64-11.88a3.21,3.21,0,0,0-2.82-1.67c-2.46-.08-5,1.46-7.4-.42-.19-.15-.74.1-1.1.23-3.92,1.51-4.87,3-4.84,7.36,0,5.14,1.21,7,6,8.95" transform="translate(-222.01 -17.99)"/><path class="cls-2" d="M246.48,566.07a26.93,26.93,0,0,0,6.45-5.75c2.7-3.59,3.09-8.92.47-12.48-3-4.13-9.11-6.29-12.85-2.06A18.71,18.71,0,0,0,236,557.33c-.23,2.13.78,4.21,1.82,6.1,1.86,3.36,5.88,4.57,8.67,2.64" transform="translate(-222.01 -17.99)"/><path class="cls-2" d="M287.28,355.59c-2.79-.09-5.58-.16-8.37-.29-1.36-.07-2.23.28-2.19,1.88.14,5,.24,10,.34,15,0,1.34.67,1.89,2,1.84,3.28-.13,6.55-.24,9.83-.3,1.57,0,2.05-.57,2-2.28-.07-4.64-.42-9.23-.88-13.84-.21-2-1-2.49-2.74-2" transform="translate(-222.01 -17.99)"/><path class="cls-2" d="M352.26,358.23c.23-2.32-.45-3-2.77-3q-17.64.28-35.29.26c-2.55,0-3.27,1.21-2.95,3.36a56.76,56.76,0,0,1,.68,11c-.15,3,1.2,3.54,3.8,3.41,5.39-.27,10.79-.32,16.19-.45l0-.68c5.77.2,11.55.29,17.32.64,2.42.15,3.17-.8,3-3a58.09,58.09,0,0,1,0-11.57" transform="translate(-222.01 -17.99)"/><path class="cls-2" d="M258.5,402.78c9.63-.17,19.26-.32,28.89-.58,16-.43,32-1.41,48-1.19,11,.14,22,0,33,.16,9.73.14,19.47.42,29.2.54,13.6.17,27.21-.15,40.81-.27v.33c3-.07,6,0,9-.25,1.92-.13,4.18.83,5.66-.38,1.63-1.33,0-3.66.47-5.5a4.34,4.34,0,0,0,.12-.87c.23-9.82.6-19.65.64-29.47,0-5.87-.77-11.75-.63-17.6.28-11.48.84-22.95,1.53-34.41.25-4.12.05-8.3,1.15-12.37.34-1.27,1.34-2.16,1.29-3.72-.35-10.32-.37-20.64-.76-30.95-.31-8.5,1-17.08-1.25-25.51-1-3.9.39-7.79.54-11.69a203.84,203.84,0,0,0-.78-29.14c-1.57-15-3.21-30.07-8.51-44.42-2.91-7.87-6.12-15.36-11.38-22.18a151.42,151.42,0,0,0-32.49-31c-6.09-4.33-12.19-8.54-19.08-11.45a62.49,62.49,0,0,0-15.77-4.59c-5.8-.79-11.68-2-17.41-2-8.79-.12-17.65,1.22-25.77,5.26a11.23,11.23,0,0,1-3.58,1.11,46.92,46.92,0,0,0-10.51,3c-6.81,2.58-12.85,6.52-19,10.21-1.22.73-2.65.86-3.84,1.87-9.09,7.74-14,18.68-21.48,27.67-2.17,2.61-3.13,6-4.67,8.95A43,43,0,0,0,257,155.55a57.46,57.46,0,0,1-2.79,11.21,49.7,49.7,0,0,0-2.76,18.48c.21,10.62-.86,21.18-1.37,31.76-.37,7.5-.76,15-.63,22.5.16,9.55,1.2,19.07,0,28.64-.53,4.09-1.11,8.38-.45,12.39,1,6.08-.43,12.17,1.8,18.43,1.79,5,2.25,11,2.22,16.69,0,5.26.75,10.52.56,15.8a91.23,91.23,0,0,0,0,12.15,293.52,293.52,0,0,1,1,31.8,248,248,0,0,0,1.07,24.84c.18,2.05,1.05,2.57,2.93,2.54m110.78-197.4c3.64-9.71,13.77-17.52,24.17-17.78,2.88-.07,5.75-.46,8.62-.79a38.63,38.63,0,0,1,18.67,2.68c3.74,1.46,5.94,4.41,8.23,7.4,7.79,10.19,9.59,22.09,9.9,34.43.09,3.37.5,6.74,0,11.12-.3,7.81-3.12,16.07-6,24.23-1.62,4.57-3.56,9.18-6.79,13a7.89,7.89,0,0,1-2.28,2.19c-4.9,2.36-9.5,5.5-15.16,6-2.2.2-4.37.81-6.57.95-7.47.51-14.45-.54-20.51-5.64-7.93-6.69-11-15.79-13.32-25.33A99.44,99.44,0,0,1,365.65,237c-.29-10.61-.23-21.27,3.63-31.57M353.22,328.24c14.13-1,28.13,1.16,42.2,1,11.38-.11,22.74,1,34.11.46,2.46-.12,3.42.78,3.29,3.08-.45,8.1,0,16.19-.05,24.29,0,4.92,1.14,9.75.72,14.69-.3,3.55-.45,3.74-3.92,3.56-2.69-.14-5.4.16-8.08-.31l0,.9c-7.7-.26-15.4-.56-23.1-.77-13.08-.37-26.17.58-39.24.21-11-.32-22,.3-33,.19-15.78-.16-31.58.53-47.38.87-4.25.09-4.51-.38-4.46-4.56q.18-14.75-.86-29.47c-.25-3.56-.26-7.14-.41-10.71-.07-1.74.6-2.26,2.42-2.24,17.35.24,34.69-.56,52-1,8.57-.21,17.19.36,25.73-.23M277.5,210.14c1.56-6.78,3.7-13.22,10.38-16.91,2.48-1.37,5.43-1.47,7.84-2.92,5.39-3.25,11.23-3.4,17.25-3,9.16.63,16,5.32,21.22,12.43,9.6,13,9.7,28.26,10.25,40.35-.77,11.55-1.41,20-4.16,28.17-5.43,16.13-18.66,23.43-35.66,20.45-6.61-1.17-12.75-4-17.11-8.93-5.34-6-9.3-13-10.61-21.42-1-6.5-2.25-13-2-19.51.39-9.61.41-19.28,2.58-28.73" transform="translate(-222.01 -17.99)"/><path class="cls-2" d="M309.92,333.78q.19,8.54,1,17c.16,1.81,1.29,1.88,2.62,1.89,4.53,0,9.05.15,13.58.1,7.71-.07,15.41-.24,23.11-.38,1.25,0,2.41-.33,2.38-1.89-.11-5.78.28-11.57-.44-17.34-.21-1.76-1-2.18-2.7-2.07-3.17.2-6.35.18-9.52.26-9.34-.11-18.67-.27-28,.22-1.53.08-2,.78-2,2.18" transform="translate(-222.01 -17.99)"/><path class="cls-2" d="M295.62,417.61c12.43-.4,24.55-.28,36.69-.75,16.64-.64,33.32-1.4,50-1,11.21.23,22.34,1.22,33.5,1.95,8.07.53,16.15,1.2,24.27.91,4.13-.14,7.35-1.26,8.89-5.52.64-1.8,1.77-3.42,2.57-5.17,1.3-2.8,1-3.31-2.08-3.34q-15.32-.18-30.61-.36c-10.6-.12-21.2.41-31.81,0-11.08-.45-22.17-.45-33.26-.53-5.38,0-10.78.47-16.14.23-8.21-.35-16.39-.05-24.58,0-8.57.07-17.14.75-25.71,1-9.34.29-18.68,1-28,0-.71-.08-1.68-.25-2,.63s.45,1.41.93,2c2.76,3.23,6.3,5.69,8.92,9.07.61.8,1.57.54,2.43.55,8.78.19,17.57-.37,26.05.39" transform="translate(-222.01 -17.99)"/><path class="cls-2" d="M299.92,451.23a13.89,13.89,0,0,1,2.88.1c15.29,1.64,30.6,1.23,45.92.87,13.7-.32,27.39-.59,39.5-.85,10.07.53,18.56.47,27,.37,1.28,0,2.65.07,3.6-1.33,2.59-3.85,6.05-7,9-10.5.42-.51,1.16-.95.9-1.68-.34-1-1.31-.55-2-.57-5.59-.18-11.17-.36-16.76-.47-6.93-.12-13.85-.66-20.77-.79-14.64-.27-29.3.3-43.95-.25-8.56-.33-17.15.16-25.7-.53-11.67-.93-23.29.79-34.94.56-1.33,0-1.92.45-.91,1.7,2.65,3.3,5.48,6.47,7.92,9.92,2.13,3,4.88,3.74,8.25,3.45" transform="translate(-222.01 -17.99)"/><path class="cls-2" d="M317,432.56c15.5,1.12,31,.7,46.56,1.13,8.95.24,17.92-.33,26.9-.11,13.39.34,26.79.57,40.19.84.85,0,1.83.21,2.42-.62a146.55,146.55,0,0,1,9.34-11.5c-2.05-.07-3.39-.06-4.72-.17-9.88-.82-19.81-.94-29.69-1.91-4.12-.4-8.21-1-12.39-1-13.67,0-27.34-.68-41,.18-5.19.33-10.41.16-15.62.19-9.74.06-19.41,1.46-29.19,1.05-12.13-.52-24.29-.57-36.44-.82-.85,0-1.93-.3-2.36.61s.45,1.62.95,2.28c2.34,3.05,4.84,6,7.06,9.12a2.87,2.87,0,0,0,2.75,1.51c5.78-.05,11.58-.12,17.36.09,6,.23,11.92-1.27,17.9-.84" transform="translate(-222.01 -17.99)"/><path class="cls-2" d="M291.8,279.27a30.18,30.18,0,0,0,25.56,6.27c8.62-1.65,14.35-6.66,18.1-14.25,5-10.19,4.57-21.39,6-32.64-1.34-12.56-1.35-25.76-9.7-36.85-4.85-6.46-11-10.69-19.21-11.38a35.67,35.67,0,0,0-18,3.29c-4.46,2-9.1,3.56-11.09,8.91-1.45,3.88-3,7.63-3.59,11.8-2.43,16.18-3,32.27,1.42,48.23a32.07,32.07,0,0,0,10.49,16.62m5.05-34.64c2.66-4.7,9.92-7.54,15.17-5.95,2.77.84,5.9.86,7.4,4.18a9.8,9.8,0,0,1,1.24,5.33c.09,8-5.61,12.86-12.06,13.6-4.63.54-11.32-3.53-12.22-8.14-.58-3-1.18-6.1.47-9" transform="translate(-222.01 -17.99)"/><path class="cls-2" d="M307.77,355.83c-1.59-1.1-4.45-.37-6.74-.45a1.85,1.85,0,0,0,0,.23c-2-.07-4-.09-6.06-.21-1.61-.1-2.38.49-2.12,2.17a105.85,105.85,0,0,1,1,13.54c0,1.62.69,2.45,2.48,2.36,3.65-.17,7.31-.21,11-.27,1.29,0,1.64-.68,1.58-1.85-.17-3-.12-6-.46-9-.25-2.26,1.14-5.32-.68-6.57" transform="translate(-222.01 -17.99)"/><path class="cls-2" d="M300.14,352.53c1.83.07,3.67.07,5.49.21s2.64-.56,2.39-2.52a90.52,90.52,0,0,1-.66-15.87c.09-1.7-.42-2.68-2.49-2.55-3.65.23-7.32.27-11,.2-1.9,0-2.27.74-2.16,2.42.24,3.56.29,7.13.51,10.7.46,7.41.48,7.41,7.9,7.41" transform="translate(-222.01 -17.99)"/><path class="cls-2" d="M419.79,352.45c2.78-.11,5.58.2,8.36-.34,1.07-.21,1.85-.45,1.58-1.82-.47-2.41.26-4.79.28-6.85.09-2.75.11-5.16.27-7.57.13-1.91-.43-2.89-2.54-2.84a75.19,75.19,0,0,1-7.8-.25c-1.71-.14-2,.49-2.16,2.09-.38,5.21.45,10.39.18,15.59-.07,1.27.44,2.05,1.83,2" transform="translate(-222.01 -17.99)"/><path class="cls-2" d="M392.86,354.61c-11.65-.5-23.3.26-34.95.05-1.83,0-2.61.75-2.6,2.59,0,4.33.1,8.68-.12,13-.11,2.09.74,2.31,2.46,2.34,5.78.1,11.55.36,17.33.55,0-.17,0-.35,0-.52,6.16-.14,12.32-.35,18.49-.38,1.7,0,2.22-.57,2.1-2.17a116.56,116.56,0,0,1-.57-13.86c.07-1.56-1.06-1.56-2.16-1.61" transform="translate(-222.01 -17.99)"/><path class="cls-2" d="M355.45,349.71c-.16,1.58.26,2.26,2,2.24,11.86-.1,23.73-.91,35.59-.09,1.77.13,2.36-.61,2.34-2.37q-.13-7.53,0-15.06c0-1.7-.62-2.21-2.17-2.25-5.3-.14-10.6-.35-15.89-.52a111.82,111.82,0,0,0-20-.71c-1.93.14-2.33.61-2.22,2.56.29,5.39.79,10.79.27,16.2" transform="translate(-222.01 -17.99)"/><path class="cls-2" d="M398.19,342.08l.25,0c-.08,2.4-.09,4.82-.26,7.22-.14,1.85.45,2.61,2.42,2.58,3.95-.07,7.91,0,11.85.21,2.15.12,2.62-.72,2.57-2.68q-.21-7.67-.09-15.34c0-1.45-.7-1.56-1.74-1.65a88,88,0,0,0-13-.3c-1.86.12-2.23,1.19-2.19,2.7.05,2.42.12,4.83.18,7.24" transform="translate(-222.01 -17.99)"/><path class="cls-2" d="M412.69,354.93c-3.86,0-7.71-.08-11.56-.28-2.26-.12-3,.74-3.09,3-.23,4.44.88,8.82.4,13.27-.16,1.54,1.23,1.42,2.29,1.45l11.25.39c5.4-.14,10.79-.33,16.17-.48,1.75,0,2.44-.53,2.34-2.33-.26-4.42-.42-8.85-.57-13.28,0-1.3-.67-1.73-1.86-1.47a27,27,0,0,1-7.77.16c-2-.16-2.22.67-2.16,2.34.12,3.56,0,7.13.08,10.7,0,1.36-.45,2.34-1.95,2.25s-1.45-1.23-1.42-2.36c.1-3.56.08-7.13.25-10.69.08-1.82-.47-2.66-2.4-2.66" transform="translate(-222.01 -17.99)"/><path class="cls-1" d="M491.67,571.18c.66-4.79,1.19-9.63,3.47-13.85,2-3.63,1.8-7.18,1.19-10.89-.68-4.13-3-7.74-6.73-9-4.74-1.63-7-5.51-9.26-9a100.59,100.59,0,0,0-10.83-13.74c-6.14-6.54-11.85-13.44-17.61-20.3-3.51-4.19-6.74-8.66-10.55-12.56A166.13,166.13,0,0,1,424,460.63c-.42-.6-.92-1-.21-1.68,1.88-1.78,2.62-4.33,4.55-6.21a30.38,30.38,0,0,0,5.48-6.94c1.93-3.61,4.69-6.55,6.94-9.85,3.73-5.45,8.59-10.06,12.46-15.5,2-2.79,3-6.1,5.17-8.6,3.59-4.17,4.29-9.19,4-14-.35-5.32-1-10.71-1-16,0-13-1-26-.52-39,.4-11.75,1.13-23.49,1.58-35.25.1-2.79,1.18-3.88,3.91-4.61,6.19-1.68,10.67-4.86,11.59-12.26,1-7.69,1.11-15.39,1.41-23.08.26-6.45,1.3-12.89.75-19.38A12.58,12.58,0,0,0,466,236.4c-2.7.29-2.14-1.31-2-2.89.3-4.63,1.7-9,1.14-13.9-.94-8.16-1.92-16.34-2.8-24.52-.71-6.53-1.36-13.12-2.46-19.66a290.59,290.59,0,0,0-6.1-28.68c-1.92-7-6.37-12.73-10.83-18.19a170,170,0,0,0-14.65-15.87c-5.27-5-10.43-10-16.29-14.35a33.4,33.4,0,0,1-4.24-3c-5.16-5.13-11.69-8.22-18-11.57-3.2-1.7-6.79-2.57-10.24-3.76a110.85,110.85,0,0,0-19.65-4.38c-5-.76-10.16-.69-15.25-.82-1.26,0-1.53-.45-1.43-1.5.71-7.41.58-14.85.76-22.28,0-1.6.34-2.65,2.12-1.18,6.62,5.46,15.18,2.73,21.19-2.13,5.32-4.3,6-10.64,6.19-16.8.11-3,0-6.59-3-8.72-7.3-5.19-15.23-6.23-23.17.42-1.85,1.55-3.69,3.09-5.67,4.48-1.43,1-2.15.82-2.89-.66a11.48,11.48,0,0,0-4.75-5.32c-6.05-3.19-12.12-3.59-18.14.1-3.28,2-6.63,4.37-7.05,8.34A19.88,19.88,0,0,0,314,45.85c4.18,4.4,10.33,5.18,15.74,2.42a33.51,33.51,0,0,0,7.38-5.76c.84.81.5,1.63.5,2.35,0,5.2,0,10.41-.06,15.62,0,4.44,0,8.88,0,13.32,0,1.23,0,2.44-1.81,2.79-4.12.8-8.17,2-12.29,2.73-2.36.44-4.66.88-6.61,2.34-4.31,3.24-9.43,4.64-14.35,6.55-3.92,1.51-8.15,2.94-11.3,5.55-4.29,3.56-9.25,6.27-13.13,10.3-2.79,2.89-6.24,5-8.78,8.27-2.25,2.93-2.62,6.44-4.16,9.55-1.16,2.34-3.2,3.84-4.25,6.09-3.36,7.21-8.17,13.64-11.22,21-1.94,4.71-3.79,9.37-4.36,14.49-.65,5.77-1.9,11.51-2.11,17.29-.23,6.45-1.17,12.84-1.14,19.29,0,4.41-1.22,9.07-.27,13.13,1.48,6.31.48,12.46.88,18.66.14,2.26-.3,3.41-3.16,3.35-4-.08-8.11.51-11.37,3.19-4.6,3.79-5.86,9.23-6.06,14.77-.2,6,.27,12,.42,17.94.17,7,0,14,2,20.83,1.05,3.44,2.66,6.95,5.93,8.53s6.84,3.16,10.81,2.59a2.79,2.79,0,0,1,3.26,2.24,35.48,35.48,0,0,1,1.05,7.14c.07,10.22.82,20.42.4,30.65a41.78,41.78,0,0,0,.43,8.59c1.11,6.59.91,13.22,1.07,19.85.2,8.64-1,17.31.68,25.9a18.66,18.66,0,0,1,.28,4.89,8.58,8.58,0,0,0,.46,3.07c1,3.51,3.55,5.84,5.84,8.4,2.68,3,5.69,5.76,8,9A161.07,161.07,0,0,0,275.23,439c4,4.34,7.34,9.19,11.28,13.55.83.92,1,1.67-.13,2.65-5,4.4-6.59,10.14-6.6,16.61,0,3,.31,6.12-1.2,8.82-3.12,5.6-7.47,10.39-10.59,16-1.63,2.93-3.9,5.48-5.81,8.26-2.17,3.17-4.18,6.46-6.43,9.57-2.52,3.47-5.67,6.62-7.3,10.54a32.56,32.56,0,0,1-9.91,12.79c-4,3.29-8.61,6.28-9.52,12.06s-2.58,11.68,3.07,16.21c.62.49,1.27,1.22,1.12,2-.54,2.82.54,5.51.52,8.3a248.27,248.27,0,0,0,.63,24.84c1.09,12,1.49,24.15,2.17,36.23.19,3.37-.06,3.58-3.52,3.31a5.4,5.4,0,0,0-5.67,7.4,16.35,16.35,0,0,1,.86,4.81c.38,3.7.7,7.42,1.09,11.13.48,4.58.84,9.19,1.58,13.74.64,4,.18,8.11,1.5,12,.61,1.81.83,3.88,3.3,4.24s4.63.21,6.3-2.28a55.71,55.71,0,0,0,3.59-5.53c1.64-3.16,3.49-6.21,5.28-9.3.81-1.39,1.57-1.54,2.44.05.78,1.43,1.84,2.71,2.66,4.12,2.23,3.82,6.68,5.48,8.94,9.34.92,1.58,3.67,1.27,4.7-.42,1.46-2.36,3.43-4.5,2.46-7.86-.69-2.35-.47-5-.68-7.47-.54-6.42-.92-12.87-2.4-19.19s-.49-12.89-4-18.64c-.32-.5-.12-1.32-.16-2-.52-8.36-.69-16.77-1.63-25.09-1.66-14.68-2.56-29.42-4.13-44.11-.09-.87-.25-1.82.61-2.38,1.95-1.27,2.64-3.29,3.15-5.35a51.07,51.07,0,0,1,9.69-20.39c4.81-5.9,9.17-12.12,13.44-18.42,2.62-3.85,5.61-7.45,8.22-11.4.08,9.8.13,19.43.36,29,.3,11.8.55,23.6.2,35.37-.35,11.94-.82,23.87-.59,35.82.15,8,.27,16,1.17,24,.71,6.38-.1,12.68.12,19,.21,6-.29,12.11-.23,18.16,0,3.63.1,7.25-.16,10.88s-.78,7.13-.38,10.6c.62,5.32.19,10.59,0,15.86-.52,13.77-1.17,27.54-2.16,41.28-.34,4.8.34,9.57-.34,14.37-.6,4.27-.76,8.72,1.06,12.8,3.54,8,4.27,16.51,5.58,25,.73,4.7.54,9.4,1.1,14.09.71,6,1.76,12,1.28,18.06-.34,4.38,0,8.8-.19,13.22-.3,7.88.42,15.77-.43,23.68-.25,2.3-1.26,4.49-1.07,6.76a14,14,0,0,1-1.82,8,280.3,280.3,0,0,0-12.83,25.88c-1.39,3.3-3.49,6.18-3.7,10.34-.47,9.26,5.56,13.88,12.52,16.47,6.05,2.25,12.46,1.17,18.6.61,7.81-.7,15.65-1.24,23.43-2.26,3.25-.43,6.64-1.14,8.34-4.67.73-1.51,1.81-1.2,2.76-.2.8.82,1.32,2.14,2.51,2.3,3.53.46,6.85,2,10.48,2a118.63,118.63,0,0,0,33.11-4.47c6.32-1.82,12.21-4.7,16.78-9.72,1.52-1.67,2-3.25.46-5.11a5.19,5.19,0,0,1-1.24-3.48c.15-8-.93-16-1.36-24-.1-1.72-.34-3.3,1.88-4.15a2.56,2.56,0,0,0,1.19-3.27c-2.21-7-1.86-14.31-2.6-21.48-1-10.05-1.5-20.17-2.06-30.27-.59-10.49-1.49-21-1.52-31.49,0-8.53-.92-17.17,2-25.47a53.27,53.27,0,0,0,3-14.09c.5-7.75.46-15.53.64-23.29.15-6.46,1.86-12.84,1.43-19.29-.54-8.17-.86-16.32-.76-24.5a128.25,128.25,0,0,0,0-13.3,246.79,246.79,0,0,1-.6-32.63,7.45,7.45,0,0,0-.07-2.59c-2.08-6.17-1.59-12.56-1.71-18.9-.15-7.18.07-14.39-.51-21.53-.79-9.83-.5-19.66-.49-29.48,0-11.58.79-23.16.92-34.74.14-12.26,1-24.48,1.79-36.69.13-1.8-1-5,2.06-5.57s4.33,2.44,5.46,4.39c2.22,3.83,5.9,6.38,8.06,10.29,1.19,2.14,3.22,4,4.88,6a185.71,185.71,0,0,1,11.7,15.3c3.77,5.62,8.49,10.6,12.47,16.1,1.53,2.1,3.83,4.12,3.69,7-.22,4.2,2.25,7,4.62,9.92a3.27,3.27,0,0,1,.67,3.47c-1.63,4.42-1.08,9.14-2,13.69-1,5.22-.66,10.68-1.68,16-.47,2.45-.89,4.91-1.18,7.38-.66,5.71-1.2,11.43-1.86,17.13-.92,7.86-3.76,15.45-3.13,23.53.11,1.46-.65,2.2-2.19,1.67-.91-.31-1.77-.8-2.7-1-2.42-.62-4.78,1.28-3.9,3.38,1,2.28.72,4.54.85,6.81.38,6.7,1.27,13.45.77,20.09-.76,10.15.25,20.18.78,30.25a3.6,3.6,0,0,0,1.14,2.29c2.39,2.49,7,1.68,9.15-1.49,2.6-3.8,5.24-7.59,8-11.25,2.27-3,3.55-3,5.15.25,2.2,4.4,5.77,7.65,8.63,11.48a4.58,4.58,0,0,0,5.28,1.88c2-.5,3-2,3.73-4,1.13-3-.5-5.65-.56-8.47-.16-7.43-.05-14.87-.57-22.27-.68-9.56-1.46-19-.68-28.69,1-12.46,1.32-25,2.31-37.46.45-5.67.12-11.42.84-17,.85-6.65,1-13.36,1.89-20M333.81,35.7a17.89,17.89,0,0,1-8.36,7.68c-2.8,1.31-6.95-.88-8.68-4.45a14,14,0,0,1-1.63-6.83c.07-5.48,7.21-8.81,12.13-6.06a19.42,19.42,0,0,1,6.62,6.71,2.56,2.56,0,0,1-.08,3M459.55,244.58a1.42,1.42,0,0,1,1.67-1.53,38.7,38.7,0,0,1,10,1.06,3.92,3.92,0,0,1,2.87,4.22c-.1,2.31-.16,4.62-.24,6.93-.14,3.92-.6,7.82-.87,11.69a75,75,0,0,0-.17,11.71c.38,4.25-.56,8.23-1.62,12.21-.79,2.92-6.58,5.88-9.53,5.3-1.4-.28-1.22-1.18-1.23-2.16-.1-6.65-.16-13.31-.35-20-.21-7.32-.58-14.64-.79-22-.07-2.5.16-5,.23-7.51m-115.49-211c2.66-3,6-5.17,9.2-7.4,2.63-1.82,9,.28,10.32,3.45,1.62,3.79,2.22,7.87-.45,11.54-2.27,3.14-5.09,5.58-8.74,5.1-4.22-.1-11.09-6.8-11.36-10.41a3,3,0,0,1,1-2.28M243,296a27.75,27.75,0,0,0-2.88-.13c-6.86.26-10.05-2.79-10.61-9.67s-.37-13.51-1-20.29c.16-4.72.34-9.44.48-14.17.14-5,2.84-8,7.86-8.79,8.89-1.3,9.46-.85,10.09,7.77.7,9.38-.88,18.68-.91,28,0,4.71.08,9.42.24,14.13.11,2.92-.25,3.36-3.25,3.12m12.57,104.25a248.13,248.13,0,0,1-1.07-24.84,293.52,293.52,0,0,0-1-31.8,91.23,91.23,0,0,1,0-12.15c.19-5.28-.58-10.54-.56-15.8,0-5.72-.43-11.66-2.22-16.69-2.23-6.26-.8-12.35-1.8-18.43-.66-4-.09-8.3.45-12.39,1.25-9.57.21-19.09,0-28.64-.13-7.49.26-15,.63-22.5.51-10.58,1.58-21.14,1.37-31.76a49.5,49.5,0,0,1,2.77-18.48A58.16,58.16,0,0,0,257,155.55a43,43,0,0,1,4.83-13.23c1.55-3,2.5-6.34,4.67-8.95,7.45-9,12.39-19.93,21.48-27.67,1.19-1,2.62-1.14,3.84-1.87,6.2-3.69,12.24-7.63,19-10.21a46.92,46.92,0,0,1,10.51-3,11.23,11.23,0,0,0,3.58-1.11c8.12-4,17-5.38,25.77-5.26,5.73.08,11.61,1.26,17.41,2a62.49,62.49,0,0,1,15.77,4.59c6.89,2.91,13,7.12,19.08,11.46a150.85,150.85,0,0,1,32.48,31c5.27,6.82,8.48,14.31,11.39,22.18,5.3,14.35,6.94,29.38,8.51,44.42a203.84,203.84,0,0,1,.78,29.14c-.15,3.9-1.56,7.79-.54,11.7,2.21,8.42.94,17,1.25,25.5.39,10.31.41,20.63.76,30.95.05,1.56-.95,2.45-1.29,3.72-1.09,4.07-.9,8.25-1.15,12.37-.69,11.46-1.25,22.93-1.53,34.41-.14,5.85.66,11.73.63,17.6,0,9.82-.41,19.65-.64,29.47a4.14,4.14,0,0,1-.12.86c-.44,1.86,1.16,4.18-.47,5.51-1.47,1.21-3.74.25-5.66.38-3,.22-6,.18-9,.25v-.33c-13.6.12-27.21.44-40.81.27-9.73-.12-19.47-.4-29.2-.54-11-.15-22,0-33-.16-16-.22-32,.76-48,1.19-9.63.26-19.26.41-28.89.58-1.88,0-2.75-.49-2.93-2.54m11.57,16.43c-2.62-3.38-6.16-5.84-8.92-9.07-.48-.55-1.3-1.1-.93-2s1.34-.71,2-.63c9.35,1,18.69.29,28,0,8.57-.27,17.14-.95,25.71-1,8.19-.07,16.37-.37,24.58,0,5.36.23,10.76-.28,16.14-.24,11.09.08,22.18.08,33.26.53,10.61.43,21.21-.1,31.81,0q15.3.19,30.61.36c3,0,3.38.53,2.08,3.34-.8,1.74-1.92,3.37-2.57,5.17-1.54,4.25-4.76,5.38-8.89,5.53-8.12.28-16.2-.39-24.27-.92-11.16-.73-22.29-1.72-33.5-1.95-16.7-.36-33.38.4-50,1-12.14.47-24.26.36-36.69.76-8.48-.78-17.27-.21-26.05-.4-.86,0-1.82.25-2.43-.55M279,431.8c-2.22-3.13-4.72-6.07-7.06-9.12-.51-.66-1.37-1.4-.95-2.28s1.51-.62,2.36-.61c12.15.25,24.31.3,36.44.82,9.78.41,19.45-1,29.19-1.05,5.21,0,10.43.14,15.62-.19,13.68-.86,27.35-.16,41-.18,4.18,0,8.27.63,12.39,1,9.88,1,19.81,1.08,29.69,1.91,1.33.11,2.67.1,4.72.17-3.45,4-6.59,7.59-9.35,11.5-.58.83-1.56.63-2.41.62-13.4-.27-26.8-.5-40.19-.84-9-.22-18,.35-26.9.11-15.52-.43-31.06,0-46.56-1.13-6-.43-11.9,1.07-17.9.84-5.78-.21-11.58-.14-17.36-.09A2.87,2.87,0,0,1,279,431.8m4.75,6.06c-1-1.25-.42-1.73.91-1.71,11.65.24,23.27-1.48,34.94-.55,8.55.69,17.14.2,25.7.53,14.66.55,29.31,0,43.95.25,6.92.13,13.84.67,20.77.79,5.59.11,11.17.29,16.76.47.71,0,1.68-.42,2,.57.26.73-.48,1.17-.9,1.68-3,3.53-6.44,6.65-9,10.5-.95,1.4-2.32,1.32-3.6,1.33-8.49.09-17,.17-27-.37-12.11.26-25.8.53-39.5.85-15.32.36-30.63.77-45.92-.87a13.89,13.89,0,0,0-2.88-.1c-3.37.29-6.12-.45-8.25-3.45-2.44-3.45-5.27-6.62-7.92-9.92M237.81,563.43c-1-1.89-2.05-4-1.82-6.1a18.71,18.71,0,0,1,4.56-11.55c3.74-4.23,9.82-2.07,12.85,2.06,2.62,3.56,2.23,8.89-.47,12.48a26.93,26.93,0,0,1-6.45,5.75c-2.79,1.93-6.81.72-8.67-2.64M261,647.34c.44,3.53,1.22,7,1.27,10.6.09,7.38,1.92,14.49,3.3,21.67.09.45.15.9.23,1.35l-.53.19q-5.24-6.31-10.48-12.63c-3.93-4.73-4.92-4.59-7.46,1-1.83,4-3.63,8.08-5.5,12.09a38.9,38.9,0,0,1-2.16,3.46c-1.08-3.78-.93-7-.94-10.2,0-7.44-.81-14.81-1.46-22.19,0-.39-.15-.77-.17-1.15-.24-3.79,0-4.24,3.69-4.41,5.88-.27,11.66-1.44,17.52-1.87,1.64-.12,2.46.25,2.69,2.06m-3.17-8.5c1.07,2.76-.29,3.41-3,3.52a57.77,57.77,0,0,0-8.84,1.36c-1.92.37-2.57-.23-2.67-2.17-.8-15.77-1.8-31.53-2.5-47.31-.33-7.41-.11-14.85-.17-22.28,0-1.63.66-2.27,2.28-2,2.8.4,5.08-.76,7.1-2.54,1.25-1.1,1.9-1.49,2.29.73,1.29,7.24,1.64,14.54,2.1,21.85.4,6.34,1.06,12.65,1.47,19s.81,12.9.91,19.35c.05,3.51,1.37,6.83,1.07,10.55M296.14,491c-3,4.73-6,9.42-9,14.1-4.73,7.27-9.45,14.54-14.26,21.76-3.1,4.65-6.27,9.25-9.57,13.75-1.56,2.13-2.56,4.53-4,6.71-1,1.55-1.92,1.92-2.68-.19-1.19-3.29-4.32-4.48-6.91-6.21-1.26-.84-1.83-1.52-.63-2.93,3.45-4.07,5.62-9,8.39-13.48,5.43-8.89,11.71-17.17,17.64-25.71,3.51-5.05,7.11-10,10.67-15,.49-.69.7-1.66,1.79-1.72.78,0,1.19.57,1.61,1.08a15,15,0,0,0,6.82,5.15c2,.65.67,1.92.16,2.73m6.45-23.36c-.65,5.21-.59,10.82-1.54,16.34-.32,1.86-.92,2.26-2.62,1.77a13.49,13.49,0,0,1-9.61-12.06c-.28-5.18.37-10,4.58-13.71,1.4-1.26,2.25-1.49,3.53-.09,1.69,1.85,3.46,3.62,5.22,5.41a1.68,1.68,0,0,1,.44,2.34m-4.08-10.49c-.73-.71-1.41-1.45-.95-2.5s1.5-.71,2.3-.66c6.06.35,12.12.77,18.18,1.15,11,.69,21.95-.28,32.92-.13,14.73.21,29.44-1.14,44.16-.54,5.67.23,11.33.55,17,.83.64,0,1.52-.26,1.72.59a1.51,1.51,0,0,1-1,1.59c-1.63.66-1.84,2.4-2.75,3.57a11.57,11.57,0,0,1-9.25,4.57c-14.84.45-29.68.72-43.64,1-10.8-.67-20.72.51-30.64-.22a78.65,78.65,0,0,0-16.45.05,3.83,3.83,0,0,1-3.57-1.37c-2.58-2.74-5.3-5.34-8-8m5,139.1q-.4-14-1.06-28.05c-.9-18.42-.22-36.83.23-55.25.06-2.61.15-5.22.15-7.82,0-11,1.3-21.95,2.63-32.87.22-1.81,1-2.3,2.67-2.65,7.79-1.6,15.58-.42,23.34-.13,10.12.39,20.23-.19,30.34,0,10.79.22,21.6-.37,32.4-.64,3-.08,6,.55,8.95-.1,1.89-.42,2.11.93,2.07,2.26-.15,4.14-.19,8.3-.61,12.42-1.26,12.4-2,24.82-2.48,37.27-.67,17.75-.89,35.51-1.45,53.26-.5,16,.57,32,.59,48.05,0,3.95.44,7.9.8,11.84.2,2.28-.34,3.38-3,3.22-9.34-.58-18.71-.36-28.07-.42-11.57.48-23.1-1-34.69-.45-10.58.51-21.19.31-31.79.47-1.33,0-1.66-.41-1.53-1.69,1.39-12.9.84-25.84.48-38.75m4.25,239.29c-.19-15.24-.83-30.47-1.31-45.71,0-1.44-.32-2.87-.48-4.31-.05-.47-.11-1,.39-1.27s.89.12,1.28.39c8.18,5.71,15.47,4.58,21.07-3.37,1.17-1.67,1.9-1.15,2.76.14,2.87,4.33,3.85,9.2,4,14.27.07,2.21-.13,4.43-.2,6.65-.08,5.61.68,11.19.67,16.78,0,7.71-.22,15.43-.66,23.12-.69,12.13-1.65,24.24-2.5,36.36l-.09,1.15c-.39,5.11-1,5.49-6.19,5.7-5.73.23-11.32-.78-17-1.32-2.51-.24-3.24-1.27-3-3.73,1.4-14.92,1.4-29.89,1.21-44.85m-7.06-72.58c.33-9.62.69-19.23,1-28.86.46-15.51.28-31,.89-46.55.42-10.4-.05-20.83,0-31.24,0-4.82.42-9.63.57-14.45,0-1.33.53-1.8,1.85-2,2.38-.32,4.6.44,6.85.83a115.2,115.2,0,0,0,18.74,1.16,3.42,3.42,0,0,0,2.71-.75,1.72,1.72,0,0,1,2.31-.5c.78.49.61,1.35.59,2.11-.29,13.2-.77,26.4-.82,39.6-.05,11.49-.61,23-.94,34.44-.41,14.64-.79,29.27-2.12,43.87-.7,7.79-2.65,15.15-8,21.17-3,3.36-9.28,4.11-13,1.55-7.09-4.92-11.27-11.44-10.68-20.4m32.62,164.8c-7.73,1.78-15.7,1.11-23.42,2.69a25.36,25.36,0,0,1-4.62.13,28.24,28.24,0,0,1-12.78-3.18,3.6,3.6,0,0,1-2-2.6,22,22,0,0,1,.28-9.14c1.75-9,5.63-16.92,10.73-24.39,2.37-3.47,5.08-4.91,9.47-3.77,5.81,1.51,11.87,1.1,17.84,1a7,7,0,0,0,1.71-.29c3.41-.91,3.28-.89,4.16,2.78,2.37,10,3.26,20.14,4.23,30.3.36,3.77-1.77,5.58-5.6,6.45m15.1-24.79c-.49,2.64-.52,5.37-.79,8.05-.14,1.31.15,2.73-1.18,4.21-1.55-3.61-1.35-7.26-2.35-10.67-2.07-7-2.3-14.44-4.61-21.46-1.07-3.24.23-6.71.48-10.06.93-12.47,2.24-24.91,3.08-37.38.86-12.89,1.24-25.8,1.47-38.73.13-7.42-2.79-13.62-5.52-20-.86-2-1.27-3.7-.26-5.75a22.75,22.75,0,0,0,2.19-9.49c.2-6.22,1-12.48.55-18.66s-.31-12.47-.37-18.7c-.06-5.87.45-11.74.49-17.62A181,181,0,0,1,342.86,688c.79-7,.11-14.11,1.07-21.17.79-5.8.47-11.76.56-17.65.07-4,.12-4.08,4-3.89q6.93.35,13.87.52c1.81,0,2.39.88,2.6,2.66a101.78,101.78,0,0,1,.1,18.8c-.89,13.12,0,26.25.51,39.36.5,12.27-.5,24.46-1.25,36.68-.52,8.34-1.62,16.7-.66,25.11a34.88,34.88,0,0,0,1.65,7.61,8.14,8.14,0,0,1-.68,7.21c-2.65,4.54-2.52,9.85-3.89,14.75a91.74,91.74,0,0,0-3,22c-.17,5.3-1.13,10.58-.78,15.89.54,8.3.34,16.61.07,24.9a123.31,123.31,0,0,0,.85,20.42A6.9,6.9,0,0,1,357,885c-2.78,6-7.31,11.18-8.57,17.88m54.42-12.76c-.9,5.49-.48,11,.2,16.44.31,2.48.24,5,.84,7.45.72,2.88-.87,4.06-2.89,5.22-8.62,5-18.2,6.66-27.86,8a79.71,79.71,0,0,1-13.55.86c-5.7-.21-6.3-.81-6.22-6.45,0-1.25.09-2.51.13-3.76,1.16-10.1,2.73-20.06,9.71-28.19a2.76,2.76,0,0,1,3.27-1.12c10.06,2,20.18,2.79,30.37.94a15.21,15.21,0,0,0,3.54-1.24c2.13-1,2.82-.25,2.46,1.89M401,871.43c.17,3.27.78,6.51,1.26,9.76.27,1.81-.37,2.79-2.08,3.56a24.48,24.48,0,0,1-9.49,2.35c-8,.21-16,.48-23.79-1.74a3,3,0,0,1-2.44-3.11,92.42,92.42,0,0,1,.19-12.41c.11-7.65,0-15.54-.46-23.44-.26-4.32,0-8.68.18-13,.28-8.39.19-16.82,1.06-25.15.91-8.69,2.67-17.3,6.64-25.27.84-1.68,1.54-1.73,3-.72a20.63,20.63,0,0,0,12,3.48c2.86,0,5.59-.42,7.55-2.89.37-.46.77-1.29,1.6-.86s.52,1.18.55,1.83q.52,10.55,1,21.11c1.07,22.17,2.1,44.34,3.23,66.51m1.6-163.5c.05,9.26-.22,18.52-.47,27.77-.23,8.49-.57,17-1.32,25.43-.63,7.08-2.73,13.52-7.73,18.81-2.5,2.64-7.33,3.18-11.94,1.64-7.07-2.37-10.54-9.25-10.66-15.53-.18-9.64.27-19.21.86-28.82a385.17,385.17,0,0,0-.3-49.93,154.66,154.66,0,0,1,.56-25.45c.56-5.88,0-11.76-.62-17.59-.46-4.5-.76-4.47,5.12-4.06,6.79-.17,14.88-.33,23,0,1.87.07,3.44-.25,2.4,2.78-.68,1.95.17,4.38.07,6.59-.63,14.08.39,28.15.14,42.23-.1,5.37.9,10.77.92,16.15m7.82-223.25c-2.69,1-3,.76-2.77-1.8a84.85,84.85,0,0,0,.84-15c-.05-1,4.16-6.58,5.06-6.7,1.47-.2,2.36.94,3,1.87,6,8.34,1.42,19-6.16,21.67m51.76,57.6c-4.34-5.36-8.75-10.66-13-16.11-8.83-11.31-18.08-22.31-27.14-33.46-1.4-1.72-2.59-3.62-4.08-5.25s-1.5-2.95-.08-4.51a18.56,18.56,0,0,0,4.4-9c.13-.61-.21-1.52.64-1.76s1.08.66,1.48,1.14c3.93,4.76,7.71,9.65,11.78,14.29,6.81,7.76,12.71,16.26,19.47,24,4.93,5.67,10.3,11,15.36,16.51,2.21,2.42,4.14,5.08,6.19,7.63a10.05,10.05,0,0,1,.58.87c.07,1.06-.62,1-1.16.9-5.22-1.05-8.64,1.63-11.5,5.5-1.61,2.18-2.28,0-2.93-.8m16.38,152.21c-.73.25-1-.46-1.25-.93-2.57-4.16-6-7.81-7.79-12.43a3.09,3.09,0,0,1-.19-2.47c.36-.92.59-1.94-.5-2.56a1.93,1.93,0,0,0-2.73.9c-1.38,2.25-2.56,4.63-3.88,6.92-2.14,3.7-5.33,6.67-7.37,10.54.35-10.48-.46-20.78.2-31,.17-2.58.83-5.12.76-7.74,0-1.39.81-1.59,1.93-1.32q9,2.13,18,4.26c1.3.3,1.52,1.23,1.66,2.37.85,7.09.52,14.24.81,21.35.15,3.57.54,7.1.77,10.65,0,.54.32,1.24-.4,1.5m5.56-129.24c-.7,3.44.06,6.94-.56,11.9-.51,7.35-.62,16.27-1.89,25-1.33,9.19-1.75,18.44-2.84,27.64-.88,7.42-.43,15-1.38,22.47-.27,2.14-.62,3-3,2-3.69-1.63-7.29-3.56-11.35-4.23-1.26-.2-1.38-1.08-1.29-2.16.31-3.46.48-6.94.84-10.39,1.14-10.83,2.22-21.66,3.57-32.46,1.38-11.09,3-22.15,4.64-33.21.3-2.1.15-4.23.76-6.31.38-1.28.85-1.77,2.2-1.54a14.84,14.84,0,0,0,7.69-.73c1.89-.67,3.08-.35,2.59,2M475.8,561c-5-.36-10.53-5.68-10.35-10,.23-5.58,5.07-10.79,9.75-10.51,8.51.89,13.32,4.36,12.95,10.81-.35,6.21-5.46,10.16-12.35,9.67" transform="translate(-222.01 -17.99)"/><path class="cls-1" d="M275.46,329.45c-1.82,0-2.49.5-2.42,2.24.15,3.57.16,7.15.41,10.71q1.05,14.72.86,29.47c-.05,4.18.21,4.65,4.46,4.56,15.8-.34,31.6-1,47.38-.87,11,.11,22-.51,33-.19,13.07.37,26.16-.58,39.24-.21,7.7.21,15.4.51,23.1.77l0-.9c2.68.47,5.39.17,8.08.31,3.47.18,3.62,0,3.92-3.56.42-4.94-.76-9.77-.72-14.69.07-8.1-.4-16.19.05-24.29.13-2.3-.83-3.2-3.29-3.08-11.37.57-22.73-.57-34.11-.46-14.07.13-28.07-2-42.2-1-8.54.59-17.16,0-25.73.23-17.34.42-34.68,1.22-52,1m-.38,5.68c-.3-2.26.33-3.23,2.67-3.19,3.17.06,6.34,0,9.51-.14,1.52-.05,2.05.66,2.1,2.07.17,5.76-.17,11.55.52,17.3.18,1.5-.9,1.78-2,1.78-1.73,0-3.46-.11-5.19-.17-6.18,0-6.12,0-6.51-6.2-.24-3.83-.56-7.66-1.06-11.45m13.8,38.62c-3.28.06-6.55.17-9.83.3-1.32.05-2-.5-2-1.84-.1-5-.2-10-.34-15,0-1.6.83-1.95,2.19-1.88,2.79.13,5.58.2,8.37.29,1.72-.45,2.53,0,2.74,2,.46,4.61.81,9.2.88,13.84,0,1.71-.45,2.25-2,2.28m2.85-39.33c-.11-1.68.26-2.46,2.16-2.42,3.66.07,7.33,0,11-.2,2.07-.13,2.58.85,2.49,2.55a90.48,90.48,0,0,0,.66,15.87c.24,2-.5,2.66-2.39,2.52s-3.66-.14-5.49-.21c-7.42,0-7.44,0-7.9-7.41-.22-3.57-.27-7.14-.51-10.7m15.6,38.78c-3.66.05-7.32.1-11,.27-1.79.09-2.44-.74-2.48-2.36a105.85,105.85,0,0,0-1-13.54c-.26-1.68.51-2.27,2.12-2.18,2,.13,4,.15,6.06.22a1.85,1.85,0,0,1,0-.23c2.29.08,5.15-.65,6.74.45,1.82,1.25.43,4.31.68,6.57.34,3,.29,6,.46,9,.06,1.17-.29,1.83-1.58,1.85m112.61-40.42c2.59.21,5.2.3,7.8.25,2.11,0,2.67.93,2.54,2.84-.16,2.41-.18,4.82-.27,7.57,0,2.06-.75,4.44-.28,6.85.27,1.36-.51,1.61-1.58,1.82-2.78.54-5.58.23-8.36.34-1.39.06-1.9-.72-1.83-2,.27-5.2-.56-10.38-.18-15.59.12-1.6.45-2.23,2.16-2.09m-5.1,35.5c0,1.13-.06,2.27,1.42,2.36s2-.9,1.95-2.25c0-3.57,0-7.14-.08-10.7-.06-1.67.2-2.5,2.17-2.34a27,27,0,0,0,7.77-.16c1.18-.26,1.8.17,1.85,1.47.15,4.43.31,8.86.57,13.28.1,1.8-.59,2.28-2.34,2.33-5.38.15-10.77.34-16.17.48l-11.25-.39c-1.06,0-2.45.09-2.29-1.45.48-4.45-.63-8.83-.4-13.27.12-2.25.83-3.11,3.09-3,3.85.2,7.7.28,11.56.28,1.93,0,2.48.84,2.4,2.65-.17,3.57-.15,7.14-.25,10.7M400.2,332.14a88,88,0,0,1,13,.3c1,.09,1.76.2,1.74,1.65q-.12,7.67.09,15.34c.05,2-.42,2.8-2.57,2.68-3.94-.23-7.9-.28-11.85-.21-2,0-2.56-.73-2.42-2.58.17-2.4.18-4.82.26-7.22l-.25,0c-.06-2.41-.13-4.82-.18-7.23,0-1.52.33-2.59,2.19-2.71m-6.71,40.11c-6.17,0-12.33.24-18.49.38,0,.17,0,.35,0,.52-5.78-.19-11.55-.45-17.33-.55-1.72,0-2.57-.25-2.46-2.34.22-4.33.14-8.68.12-13,0-1.84.77-2.63,2.6-2.59,11.65.21,23.3-.55,34.95-.05,1.1.05,2.23.05,2.16,1.61a116.56,116.56,0,0,0,.57,13.86c.12,1.6-.4,2.17-2.1,2.17M357.4,331a112.76,112.76,0,0,1,20,.7c5.29.19,10.59.39,15.89.53,1.55,0,2.21.55,2.17,2.25q-.17,7.53,0,15.06c0,1.76-.57,2.5-2.34,2.37-11.86-.82-23.73,0-35.59.09-1.75,0-2.17-.66-2-2.24.52-5.41,0-10.81-.27-16.2-.11-1.95.29-2.42,2.22-2.56m-8.13,41.82c-5.77-.35-11.55-.44-17.32-.64l0,.68c-5.4.13-10.8.18-16.2.45-2.59.13-3.94-.45-3.79-3.41a56.76,56.76,0,0,0-.68-11c-.32-2.15.4-3.37,2.95-3.36q17.64,0,35.29-.26c2.32,0,3,.64,2.77,3a58.09,58.09,0,0,0,0,11.57c.22,2.17-.53,3.12-3,3m.16-41.65c1.66-.11,2.49.31,2.7,2.06.72,5.78.33,11.57.44,17.35,0,1.56-1.13,1.87-2.38,1.89-7.7.14-15.4.31-23.11.38-4.53.05-9.05-.07-13.58-.1-1.33,0-2.46-.08-2.62-1.89q-.76-8.51-1-17c0-1.4.46-2.1,2-2.18,9.33-.49,18.66-.33,28-.22,3.17-.08,6.35-.06,9.52-.26" transform="translate(-222.01 -17.99)"/><path class="cls-1" d="M368.18,257.86c2.34,9.54,5.39,18.64,13.32,25.33,6.06,5.1,13,6.15,20.51,5.64,2.2-.14,4.37-.75,6.57-.95,5.66-.53,10.26-3.67,15.16-6a7.89,7.89,0,0,0,2.28-2.19c3.23-3.81,5.17-8.42,6.79-13,2.9-8.16,5.72-16.42,6-24.23.54-4.38.13-7.75,0-11.12-.31-12.34-2.11-24.24-9.9-34.43-2.29-3-4.49-5.94-8.23-7.4a38.63,38.63,0,0,0-18.67-2.68c-2.87.33-5.74.72-8.62.79-10.4.26-20.53,8.07-24.17,17.78-3.86,10.3-3.92,21-3.63,31.57a99.44,99.44,0,0,0,2.53,20.91M372,207.77c3.45-9.41,9.72-15.85,20.29-16.9,5.74-.57,11.38-1.49,17.25-1.1,11.06.73,17,7.43,21.3,16.57,3.86,8.16,4.33,16.88,4.85,25.68.86,14.42-3.42,27.6-9.08,40.48a16.61,16.61,0,0,1-10.32,9.43c-5.69,1.94-11.34,3.71-17.38,3.77-9.76.1-16.87-4.25-21.63-12.78-5.77-10.32-7.16-21.65-8.2-33.13-.36-4-.18-7.9-.21-12.7A47.76,47.76,0,0,1,372,207.77" transform="translate(-222.01 -17.99)"/><path class="cls-1" d="M287.51,279.8c4.36,4.93,10.5,7.76,17.11,8.93,17,3,30.23-4.32,35.66-20.45,2.75-8.14,3.39-16.62,4.16-28.17-.55-12.09-.65-27.37-10.25-40.35-5.26-7.11-12.06-11.8-21.22-12.43-6-.42-11.86-.27-17.25,3-2.41,1.45-5.36,1.55-7.84,2.92-6.68,3.69-8.82,10.13-10.38,16.91-2.17,9.45-2.18,19.12-2.58,28.73-.27,6.55,1,13,2,19.51,1.31,8.44,5.27,15.39,10.61,21.42m-7.62-65.38c.62-4.17,2.14-7.92,3.59-11.8,2-5.35,6.63-6.9,11.09-8.91a35.67,35.67,0,0,1,18-3.29c8.25.69,14.36,4.92,19.21,11.38,8.35,11.09,8.36,24.29,9.7,36.85-1.42,11.25-1,22.45-6,32.64-3.75,7.59-9.48,12.6-18.1,14.25a30.22,30.22,0,0,1-25.56-6.27,32.07,32.07,0,0,1-10.49-16.62c-4.46-16-3.85-32-1.42-48.23" transform="translate(-222.01 -17.99)"/><path class="cls-1" d="M400.61,265.5c6.69-.61,12.14-5.42,12.47-11.49-.7-4-.66-8.82-5.69-11.36-2.45-1.24-4.94-.75-7.37-.7-6.84.14-13.66,8.71-12.06,14.89,1.29,5,7.36,9.15,12.65,8.66m3.45-20.2c3.26.21,5.61,4.16,5.32,9-.27,4.47-5.33,8.5-10.18,8.12-4.1-.33-8.17-4.51-7.95-8.16.34-5.49,5.92-9.38,12.81-8.92" transform="translate(-222.01 -17.99)"/><path class="cls-1" d="M308.6,261.79c6.45-.74,12.15-5.63,12.06-13.6a9.8,9.8,0,0,0-1.24-5.33c-1.5-3.32-4.63-3.34-7.4-4.18-5.25-1.59-12.51,1.25-15.17,5.95-1.65,2.92-1.05,6-.47,9,.9,4.61,7.59,8.68,12.22,8.14m-4.07-19.72c.36-.13.91-.38,1.1-.23,2.38,1.88,4.94.34,7.4.42a3.22,3.22,0,0,1,2.82,1.67c2.09,3.44,1.34,9.17-1.64,11.88-2.44,2.22-5.09,4-8.56,2.57-4.75-2-5.92-3.82-6-8.95,0-4.39.92-5.85,4.84-7.36" transform="translate(-222.01 -17.99)"/></svg>