<svg id="Layer_1" data-name="Layer 1" xmlns="http://www.w3.org/2000/svg" viewBox="0 0 263.67 401.89"><defs><style>.cls-1{fill:#fff;}.cls-2{fill:#010101;}</style></defs><path class="cls-1" d="M199.89,589.66c1.29-.9,2.88-1,4.17-1.87,4.34-2.8,9.21-4.6,13.79-6.94q6.61-3.39,13.41-6.53c1.32-.61,2.51-1.54,3.87-2.06a86.91,86.91,0,0,0,8.25-4,27.27,27.27,0,0,0,4.93-2.72,57.68,57.68,0,0,1,7.73-5.73c.39-.22,1-.4.9-1-.07-.71-.78-.69-1.25-.69-1.94,0-3.88,0-5.82.07A71.15,71.15,0,0,0,229.66,561a81.28,81.28,0,0,0-11.79,4.06,49.46,49.46,0,0,0-7.88,3.82,31,31,0,0,0-7.44,7.55c-2.75,3.74-3.55,8-3.59,12.45,0,.63.29,1.19.93.74" transform="translate(-195.45 -192.23)"/><path class="cls-1" d="M221.42,561.85c3.44-1.23,7-2,10.51-2.91,6-1.55,12-2.78,18.28-2.51l4.94-.09c.61,0,1.34-.07,1.33-.82,0-1,.7-1.37,1.29-1.93,2-1.83,1.6-4.06-.94-4.65a5.66,5.66,0,0,0-3.09-.18,45.81,45.81,0,0,1-10.09,1.65,127.68,127.68,0,0,1-27.29-.22,1.72,1.72,0,0,0-1.15.24c-2.15,1.2-2.66,2.32-1.78,5.59,1.06,4,4,7.26,8,5.83" transform="translate(-195.45 -192.23)"/><path class="cls-1" d="M217.76,538.19c8.63,1,17.29.13,25.91.86,2.67.14,5.26-.52,7.89-.7.9-.06,1.76-.46,1.51-1.7a1.06,1.06,0,0,1,.66-1.27c2.47-1.33,2.89-2.31,2.57-5.11-.14-1.25-.67-2-2-2-1.88-.07-3.76-.19-5.64-.2-8.76,0-17.54.39-26.3-.26-3.16-.23-5.73.67-7.59,3.37a3.9,3.9,0,0,0-.44,4.16c.72,1.19,1.36,2.63,3.39,2.86" transform="translate(-195.45 -192.23)"/><path class="cls-1" d="M221.4,526.3c8.47.4,16.94.3,25.41.61l4.06-.06a1.79,1.79,0,0,0,1.6-.54,4.67,4.67,0,0,1,2.3-1.53c1.86-.71,1.29-2.37,1.28-3.8s-.92-1.42-1.91-1.54c-2.15-.27-4.33-.47-6.45-.91-3.51-.74-7-1.71-10.48-2.47-5-1.09-10.16-1-15.22-1.7a5.82,5.82,0,0,0-5.7,2.64,5.56,5.56,0,0,0-.31,5.89,6.06,6.06,0,0,0,5.42,3.41" transform="translate(-195.45 -192.23)"/><path class="cls-1" d="M228.22,308.75c.08,1.26.55,1.7,1.88,1.55,7.06-.84,14.05-2.22,21.13-2.95,4.67-.49,9.31-1.45,14-1.73,7.88-.48,15.72-1.32,23.56-2.17,7.09-.77,14.17-1.4,21.29-1.51,4.95-.07,9.9.08,14.83-.08q10.68-.32,21.34-.12c5.69.1,11.38.49,17.06.37,9.76-.2,19.5-.1,29.25.44,1.51.09,2-.48,1.24-1.71a4.92,4.92,0,0,1-.48-3.89c.35-1.69-.44-2.06-1.8-2.21-2.75-.29-5.5-.6-8.24-.95-4.13-.51-8.24-1.24-12.39-1.55-3.31-.24-6.66-.25-10-.18-6.81.14-13.62-.1-20.43.07-13.35.33-26.69.92-40,1.48-3.52.29-7.05.48-10.55.89s-7.21,1-10.8,1.6c-6.77,1.11-13.65,1.17-20.41,2.62-5.55,1.2-11.23,1.81-16.83,2.87-4.16.78-8.4,1.06-12.62,1.49-1.1.11-1.61.47-1.44,1.64.2,1.34.37,2.68.45,4" transform="translate(-195.45 -192.23)"/><path class="cls-1" d="M343.68,290.56c1,0,2,0,3,.07.74,0,1.08-.31,1.12-1A85.87,85.87,0,0,0,348,281c-.25-6.72-1.95-13.27-2.19-20a3,3,0,0,0-2.82-2.68q-2.81-.36-5.62-.57c-.9-.07-1.82-.31-2.54.72-.43.62-1.11.26-1.34-.4a6.64,6.64,0,0,1-.24-1.74,32.74,32.74,0,0,0-.82-7.18c-.3-1.07-.57-2-1.89-2.47-3.34-1.2-6.75-.93-10.1-.55q-8.06.93-16.09,2.09a97.92,97.92,0,0,0-14.8,2.86c-.89.28-2.29.29-2.31,1.54a55.65,55.65,0,0,0,0,5.92c.24,2.32.48,2.3-1.87,2.42a9.89,9.89,0,0,0-1.22.13c-2.6.47-5.14,1.13-7.75,1.58-4,.68-4.4,1.33-3.38,5.5,1.95,8,1.82,16.14,2.42,24.23.2,2.8.06,2.78,2.87,2.44.74-.09,1.07-.34,1-1.09a79.78,79.78,0,0,1,.18-9.53c.07-2.68.08-5.66,1.62-7.83,3.36-4.75,7.77-7.94,14.08-6.39,4.06,1,7.66,2.62,8.83,7.27a67.46,67.46,0,0,1,1.65,10.26c.15,1.61.6,3.28-.81,5,3.83-.12,7.31-.72,10.82-.66.67,0,.89-.54.75-1.14a19,19,0,0,1,0-6.68c.53-4.51.78-9.15,4.53-12.52a10.78,10.78,0,0,1,5.68-3.14c1-.14,2-.45,2.95-.51,3.06-.2,5.95,0,8.47,2.29s3.17,5.43,4.15,8.38a27.16,27.16,0,0,1,.85,11.35c-.06.56,0,.73.57.72" transform="translate(-195.45 -192.23)"/><path class="cls-1" d="M264.81,294.46c0,1.2.28,1.71,1.59,1.52,1.92-.28,3.86-.48,5.79-.59,1.14-.06,1.27-.49,1.17-1.55-.22-2.34-.2-4.7-.33-7-.27-5.11-.11-10.25-1.19-15.3-.42-2-1.32-3.9-1.16-6,.24-3,.87-3.94,3.84-4.19,3.32-.27,6.33-1.84,9.65-2,.41,0,.9-.09.93-.63.09-1.85.88-3.69.13-5.56a1.88,1.88,0,0,1,.88-2.55,7.71,7.71,0,0,1,2.78-1.08c2.31-.47,4.63-.86,6.93-1.33,11.43-2.33,22.89-4.46,34.65-3.66.42,0,.83,0,1.13.34a10,10,0,0,1,2.49,4.39c.35,1.85.75,3.7,1,5.56.16,1.12.67,1.39,1.74,1.45,3,.19,6.12-.57,9,1.44.93.66,1.6,1.19,1.64,2.14.25,5.72,1.9,11.27,1.95,17,0,4.13.15,8.25.22,12.38,0,.76-.1,1.56,1.09,1.57,2.65,0,5.3.11,8,.17.47,0,1-.18.67-.68-.71-1.19.11-2.31,0-3.44-.45-3.86-.14-7.74-.28-11.6-.26-7.14-1.38-14.17-2.12-21.24-.8-7.72-3.1-15.14-4.91-22.65a56.19,56.19,0,0,0-6.46-16.64,42.25,42.25,0,0,0-5-6.79c-.31-.33-.62-1-1.3-.61a1.57,1.57,0,0,1-2.16-.62c-1.1-1.6-2.84-2.42-4.14-3.71-4-4-9.28-5.11-14.42-6.46-3.1-.82-6.33-.35-10.86-.44a36.63,36.63,0,0,0-9.84,1.1,40.36,40.36,0,0,0-19.12,10.52,42.19,42.19,0,0,0-4.1,5.1c-2.54,3.42-5.61,6.45-6.7,10.75-.33,1.31-.52,2.65-.9,3.95A54.24,54.24,0,0,0,264.31,240c-.57,10-1.52,19.92-.73,30,.65,8.15,1.36,16.32,1.23,24.52" transform="translate(-195.45 -192.23)"/><path class="cls-1" d="M387,435.32c-.9,1.09-2.16,1.65-3.15,2.61a41.83,41.83,0,0,1-8.06,5.58,154.33,154.33,0,0,1-16.86,8.58c-2.93,1.26-3.88,3.36-4.44,6a3.3,3.3,0,0,0,3.55,3.85,12.22,12.22,0,0,0,1.27-.42c4.22-1.84,8.06-4.4,12.17-6.45,3.35-1.67,6.81-3.13,10.1-4.95s6.23-4.73,9.87-6.26c.44-.19,1.12-.4,1.16-1,.08-1.17,1-1.69,1.7-2.33,1.71-1.53,1.35-3.67-.77-4.45-1.15-.43-2.27-.94-3.43-1.34a2.77,2.77,0,0,0-3.11.6" transform="translate(-195.45 -192.23)"/><path class="cls-1" d="M293.33,277.87c-1.91.05-4-.06-5.3,2-1.95,3-2.37,6.3-2.53,9.67.07,1.05.14,2,.19,3,0,.77.46,1.05,1.16.92,3.37-.63,6.79-.53,10.19-.75.72-.05.94-.29,1.11-1,.92-3.85,0-7.45-1.41-11-.58-1.51-1.64-2.94-3.41-2.89" transform="translate(-195.45 -192.23)"/><path class="cls-1" d="M393.43,445.6c-1.24-.71-2.16.12-3,.69a111.54,111.54,0,0,1-12.63,7.56c-5.16,2.46-10.33,4.94-15.27,7.83-1.09.64-2.55.79-2.26,2.62.07.46-.46.79-.87,1a2.59,2.59,0,0,0-1.17,3.5c.69,1.71,1.21,3.73,3.72,3.58,1.95-.11,3.85-1.15,5.86-.27.18.08.55-.17.78-.33,3.45-2.37,7.55-3.3,11.29-5,2.16-1,4.48-1.79,6.57-2.91,3.64-1.94,6.94-4.52,10.85-6,1.05-.4,1.83-1,1.33-2.35-.22-.59.28-1.12.73-1.51.75-.66,1.57-1.24,2.31-1.9s1.77-1.59,1.6-3c-.06-.88-.09-2.09-.88-2.36-2.65-.89-5.14-3.26-8.26-1.3a.84.84,0,0,1-.67.12" transform="translate(-195.45 -192.23)"/><path class="cls-1" d="M300,292.35c.25.34.77.11,1.17.07.65-.05,1.3-.06,1.94-.12.34,0,.72,0,.77-.53a24.91,24.91,0,0,0,.34-3.32A41.3,41.3,0,0,0,302,277.58c-.64-2.18-1.52-4.26-4.08-4.8a14.94,14.94,0,0,1-1.82-.61c-6.36-2.17-12.63,1.62-14.3,7.94-1,3.74-.69,7.57-1,11.36-.22,2.69.11,3,2.66,2.53.84-.16,1-.32.82-1.22a15,15,0,0,1-.1-3.19c-.49-2.43.2-4.6.47-6.81.44-3.53,2.34-5.71,5.62-6.31,4.36-.81,6.63.27,8.47,3.79,1.64,3.14,1.58,6.58,2,9.95a1.15,1.15,0,0,1-.32,1c-.3.33-.82.68-.46,1.17" transform="translate(-195.45 -192.23)"/><path class="cls-1" d="M338.42,290.82c3-.31,3-.24,3-3.31,0-.59,0-1.18,0-1.77.7-4.41-1.27-8.19-3-11.94-1.37-2.92-3.71-4.92-7.21-4.71-2.39.15-4.82.47-6.71,2.18-1,.93-2.6,1-3.32,2.48a31.77,31.77,0,0,0-3.44,14.08c0,3.66.19,3.9,3.78,3.62.9-.08,1.21-.2,1.24-1.31.1-3.5-.26-7,.89-10.49,1-3.13,5.91-6.32,9-4.34a9.27,9.27,0,0,1,4,5.38,24.42,24.42,0,0,1,.44,8.77c-.1,1.26.18,1.48,1.39,1.36" transform="translate(-195.45 -192.23)"/><path class="cls-1" d="M333.77,279.22c-1-2.15-2-2.87-4-2.72a6,6,0,0,0-4.39,3.57c-.95,3.1-.59,6.28-.67,9.44,0,1.47.76,1.95,2.13,1.8,1.11-.12,2.22-.17,3.33-.24v.08c1.23,0,2.46-.08,3.69,0,.91,0,1.32-.22,1.17-1.2a7,7,0,0,1,.07-1.58,17.38,17.38,0,0,0-1.32-9.11" transform="translate(-195.45 -192.23)"/><path class="cls-1" d="M379.28,468.73c-.71.27-1.46.45-2.14.79-3.14,1.55-6.22,3.35-9.63,4.16a3.24,3.24,0,0,0-2.77,3.62c.06,1.39-.38,3.46,1.71,4s4.35.72,6.53,1.05c1.82.06,3.32-1.07,5-1.28,4.95-.64,9.26-3,13.62-5.06s8.76-4.72,13.13-7.11c.45-.25,1-.4,1-1.09,0-1.19.8-1.67,1.81-2.1a4.25,4.25,0,0,0,2.42-4.47,4.73,4.73,0,0,0-4.34-3.93c-4.63-.17-8.63,2-12.34,4.18-4.56,2.63-9,5.45-14,7.28" transform="translate(-195.45 -192.23)"/><path class="cls-1" d="M423.22,541.4a5.06,5.06,0,0,1-1.23,0c-2.7-.14-5.4-.44-8.09-.39-8.13.15-16.25,0-24.37.51a21.94,21.94,0,0,0-6.8,1.66c-2.67,1.07-3.52,3-2.49,5.28a3.74,3.74,0,0,0,4.36,2.24,4.84,4.84,0,0,1,.85,0c5-.2,10,.54,15-.08,3.24-.06,6.47-.06,9.71-.18a18.39,18.39,0,0,0,5.05-.6,49.21,49.21,0,0,1,8.24-1.84c2.11-.33,3.44-1.64,4.84-3,.43-.4.34-.8.07-1.26a4.41,4.41,0,0,0-5.11-2.37" transform="translate(-195.45 -192.23)"/><path class="cls-1" d="M422.34,552c-1.94-1-1.94-1-2.76-.12,1.72.48,1.72.48,2.76.12" transform="translate(-195.45 -192.23)"/><path class="cls-1" d="M405.32,553c-6.1,0-12.83,1.91-19.69,2.82-.3,0-.65.06-.69.42s.33.57.63.75c6.14,3.63,12.15,7.49,18.47,10.83a116.88,116.88,0,0,0,16.2,7.15c6.7,2.34,13.29,5,20.28,6.39,4.15.8,8.28,1.79,12.55,1.75,1.86,0,2.25-.47,1.32-2-1.86-3.12-2.83-6.66-5.15-9.58-3.53-4.45-6.85-9-11.9-12s-10.55-4.52-16.18-5.7c-4.91-1-10-.59-15.84-.79" transform="translate(-195.45 -192.23)"/><path class="cls-1" d="M406.62,469.48c-2.4,1.49-5,2.65-7.43,4-4.15,2.29-8.27,4.65-12.56,6.63-2.53,1.16-5.39,1.58-8.05,2.45s-5.27,1.22-6.74,4a5,5,0,0,0,.15,4.94,3.07,3.07,0,0,0,3.69,1.38c3.91-1,8-1.19,11.81-2.63a19.33,19.33,0,0,1,3.83-1.27c5.23-.79,9.69-3.72,14.69-5.12,4.39-1.23,7.26-4.73,10.45-7.66a4.5,4.5,0,0,0,1.05-5.32c-.77-1.79-2.47-2-4.13-2.11-.53,0-1.06,0-2.08,0-1.28,0-3.18-.23-4.68.7" transform="translate(-195.45 -192.23)"/><path class="cls-1" d="M426.48,516.64c-1.93-.06-3.85-.27-5.78-.25a131.22,131.22,0,0,0-18.77,1.71c-6,.95-12.05.93-18.05,1.69-4.12.53-5.63,2.73-4.14,6.47a3.75,3.75,0,0,1,.22.67,2.48,2.48,0,0,0,2.88,2c1.15-.06,2.31-.2,3.46-.18,3.41.06,6.82.3,10.22.25a162.37,162.37,0,0,1,17.31.2,41.4,41.4,0,0,0,11.78-1.71c4.16-1.38,5.29-3.24,4.63-7.46-.35-2.26-1.44-3.32-3.76-3.38" transform="translate(-195.45 -192.23)"/><path class="cls-1" d="M418.77,505.54c-2,.52-4.08,1.11-6.15,1.5-9.88,1.87-19.89,2.74-29.89,3.67a3.76,3.76,0,0,0-2.75,1.36,2.45,2.45,0,0,1-1.61,1.18c-1,.18-.95,1.13-.89,1.86s-.17,1.56.86,1.91a18.73,18.73,0,0,0,6.54.75c4.86-.12,9.72-.7,14.58-1.1,7-.44,14-1.42,21.08-1.71.55,0,.92-.16,1-.73.25-1.57,1.39-1.67,2.63-1.67q1.33,0,2.64-.15a2.52,2.52,0,0,0,2.37-2.06c.2-1.26-1.11-1.42-1.93-1.94-2.22-1.39-5.14-1-7.14-3-.38-.35-.89,0-1.35.08" transform="translate(-195.45 -192.23)"/><path class="cls-1" d="M410.46,483.08c-2.31,1.22-4.84,2-7.19,3.19a77.31,77.31,0,0,1-9.42,3.41c-4.16,1.4-8.19,3.13-12.64,3.56a8,8,0,0,0-5.48,3.2,2.06,2.06,0,0,0,.22,3.11,4.83,4.83,0,0,0,4.77,1.46,14.87,14.87,0,0,1,2.09-.32,75.41,75.41,0,0,0,17.9-3.47,12.27,12.27,0,0,1,3.59-.83,15.49,15.49,0,0,0,5.44-1.35c1.91-.75,3.79-1.56,5.69-2.32.93-.37,2.16-.27,1.63-2-.25-.8.6-1.6,1.63-1.72.46-.05.94,0,1.4-.05,1.21-.14,2.49-.42,2.83-1.73s.5-2.79-.75-4.08c-1.54-1.59-3.45-1.2-5.27-1.45a14.83,14.83,0,0,0-6.44,1.41" transform="translate(-195.45 -192.23)"/><path class="cls-1" d="M418.57,492.88A84.11,84.11,0,0,1,406,497.44a100.62,100.62,0,0,1-21.35,4.46,13.72,13.72,0,0,0-7.24,2.77c-1.69,1.22-.73,2.51-.43,3.78s1.33,1.19,2.29,1c3.43-.64,6.95,0,10.37-.79,8.42-.87,16.79-2.1,25.13-3.59a28.1,28.1,0,0,0,11-4.57,3.89,3.89,0,0,0,.85-6c-1.58-1.63-6-2.58-8.09-1.59" transform="translate(-195.45 -192.23)"/><path class="cls-1" d="M243.11,467.09c5.54,2.68,11,5.4,16.61,8,2.44,1.14,4.7,2.7,7.36,3.35.75.18,1.49.43,2.19-.14a8.47,8.47,0,0,0,2.86-5.9c0-1.17-1.95-3.35-3.44-3.82-4-1.27-8.13-2.17-11.82-4.34-1.65-1-3.58-1.48-5.18-2.51-3.44-2.21-7.21-3.91-10.27-6.7-.33-.29-1-.83-1.36-.17-.73,1.47-1.73,1-2.84.7-1.58-.39-3.23.41-3.33,1.72-.16,2.21.24,4.39,2,5.9,2.11,1.79,4.73,2.71,7.21,3.9" transform="translate(-195.45 -192.23)"/><path class="cls-1" d="M254.91,539.31a79,79,0,0,1-11.9,1.06l-24.17-.59c-2,0-4.12,2.38-4.25,4.19-.23,3.09,3.67,2.1,4.06,4.45,0,.33.56.37.93.33a1.4,1.4,0,0,1,.35,0c3.93.59,7.89,0,11.82.31,6.46.71,12.79-.58,19.15-1.28,1.12-.12,2.8,0,3.28-.93.74-1.41,2-2.07,3-3.12s.5-2.36.07-3.46-1.23-1.08-2.34-.94" transform="translate(-195.45 -192.23)"/><path class="cls-1" d="M249.58,458.58a102.24,102.24,0,0,0,9.32,4.79c4.12,1.83,8.06,3.83,12.36,3.09,3,0,3.2-.09,3.85-.84a5.14,5.14,0,0,0-1.68-8.35,27.21,27.21,0,0,0-4.8-2.19c-3.36-.9-6-3.19-8.92-4.77a35.54,35.54,0,0,1-8.23-5.95c-1.4-1.38-2.54-2.78-5-1.79-1.42.56-3.16.43-4.7,1.15-3.14,1.47-4.12,3.92-1.89,7,2.52,3.45,6.1,5.8,9.72,7.88" transform="translate(-195.45 -192.23)"/><path class="cls-1" d="M256.92,441.55q5.08,2.9,10.2,5.75c4.16,2.32,8.37,4.62,12.94,5.69,4.05.95,8,2.3,12.22,2.75,5,.55,9.86,1.48,14.86,1.6,9.47.22,18.78-1.17,28.11-2.5.84-.12,1.25-.4,1.19-1.34-.31-5.88.46-11.74.41-17.62,0-5.29.18-10.57.06-15.87-.1-4.93.47-9.88.41-14.81-.11-10.65-.47-21.29-.64-31.94,0-1.76-.41-2.65-2.35-2.35a7.8,7.8,0,0,1-2.64-.05c-1.37-.23-1.38.43-1.33,1.49.11,2.82.11,5.65.16,8.47h.37c.05,2.88.12,5.77.13,8.66,0,1.45-.49,3.24-1.94,3.22-4.07-.05-8.11.5-12.17.31-2.05-.1-2.74-.76-2.46-2.76a38.88,38.88,0,0,0,.21-6c-.15-11-.15-22.1-2.16-33-.16-.89.12-1.26.95-1.56,2.07-.76,4.28-.65,6.41-1a22,22,0,0,1,7.37-.41c1.21.22,1.89.76,1.92,2.08,0,1.58.23,3.17.32,4.75,0,.9.23,1.31,1.28.85a22.5,22.5,0,0,1,3.87-1.19,1.64,1.64,0,0,0,1.45-2c-.24-2.69-.33-5.4-.68-8.08-.39-3.05-.48-3-3.66-3.3a13.31,13.31,0,0,0-1.41-.07c-6.64.19-13.27.48-19.91.55q-9.27.11-18.47,1.12c-6.67.72-13.37,1-20,1.95-5.69.79-11.48.88-17.2,1.65-4.36.58-8.77.92-13.07,1.8a154.37,154.37,0,0,1-16.56,2.29,131.7,131.7,0,0,0-13.41,2c-.84.17-.92.54-.85,1.18.17,1.64.29,3.28.52,4.91.85,5.88,1.32,11.85,2.73,17.58a102.89,102.89,0,0,0,6,18.18c1.27,2.77,2.21,5.68,3.66,8.37a113.84,113.84,0,0,0,8.46,13.46c1.5,2,3,4,4.6,6,1.68,2.14,3.61,4.09,5.33,6.18s3.7,3.89,5.49,5.84a39,39,0,0,0,9.32,7.19" transform="translate(-195.45 -192.23)"/><path class="cls-1" d="M233.1,475.8c2.29.58,4.29,2.26,6.58,2.93,4.19,1.21,7.94,3.44,12,4.87,4.46,1.57,8.81,3.54,13.68,3.56.93.13,2-.05,2.22-1,.36-1.37.77-2.8-.33-4.19-2.85-3.59-7.1-4.94-10.95-6.78-4.44-2.13-8.82-4.37-13.28-6.46-3.3-1.55-6.52-3.18-10.41-2.48-1.82.33-4.14,1.88-3.7,3.19.81,2.41.61,5.44,4.16,6.32" transform="translate(-195.45 -192.23)"/><path class="cls-1" d="M225.26,513a42.91,42.91,0,0,1,5.79.45c6.49,1.25,13,2.63,19.43,4,1.51.32,2.88.68,4-.91.43-.6,1.38-.84,2.1-1.23a2,2,0,0,0,1.09-1.05,3.86,3.86,0,0,0-3.18-5.31A117,117,0,0,1,242,506.67c-5.41-1.22-10.67-3.1-16.12-4.23-1-.22-2-.6-2.88-.87-3.5.2-6.06,3.4-4.78,6.16s3.45,5.13,7,5.31" transform="translate(-195.45 -192.23)"/><path class="cls-1" d="M349.7,368.43a18.89,18.89,0,0,0,8.06-2.3,2.41,2.41,0,0,0,1.34-2.29,8,8,0,0,0-1.11-4.21c-2.78-4.24-7-5.42-11.64-5.08a86.42,86.42,0,0,0-18.77,3.63c-3.25,1-3.59,1.37-3.54,4.74,0,.3,0,.59.07.88a17.36,17.36,0,0,0,0,1.77c.07.57.29,1.13.39,1.7.2,1.24,1,1.55,2.13,1.6a180.58,180.58,0,0,0,23-.44" transform="translate(-195.45 -192.23)"/><path class="cls-1" d="M222.32,497.1a2.6,2.6,0,0,1,1,1.62c.21.94.77,1.22,1.64,1.53,4.93,1.76,10.07,2.77,15.08,4.27a52.94,52.94,0,0,0,11.44,2.61c.92-.17,1.91.4,2.6-.35a3.28,3.28,0,0,1,2.4-.91c2.92-.2,3.59-.78,4.26-3.67a3.69,3.69,0,0,0-2.86-4.63c-3.43-1-6.91-1.9-10.28-3a167.94,167.94,0,0,0-19.21-5c-.44-.1-.94-.15-.93.42,0,2.06-1.22,1.87-2.63,1.66a3.09,3.09,0,0,0-3.39,1.71,2.92,2.92,0,0,0,.86,3.8" transform="translate(-195.45 -192.23)"/><path class="cls-1" d="M230.37,488.19c4.87,1,9.64,2.44,14.42,3.8,5.19,1.48,10.14,4,15.73,3.68.58,0,1.1.18,1.71-.18a3.66,3.66,0,0,0,1.88-3.84,3.82,3.82,0,0,0-2.83-3.27,115.76,115.76,0,0,1-14-5.05c-4.41-2-9.06-3.58-13.57-5.4-1-.41-1.84-1.19-2.26.63-.2.88-1.19.81-2,.73a2.71,2.71,0,0,0-3.12,1.65c-.76,1.69-1.59,3.34-.27,5.1,1.08,1.41,2.69,1.81,4.32,2.15" transform="translate(-195.45 -192.23)"/><path class="cls-1" d="M390.28,325.89c4.06-.39,7.3-3,7.25-6.67-.06-4-2.92-6.54-7.12-6.54-3.44,0-6,4.2-6,6.53,0,3.35,2.9,7,5.85,6.68" transform="translate(-195.45 -192.23)"/><path class="cls-1" d="M317.42,391.1a90.39,90.39,0,0,1,9.87-.13c1.94.15,2.06-.67,2-2,0-2.82-.09-5.65-.13-8.48h-.35c0-2.71-.17-5.42-.1-8.12.05-1.55-.56-1.95-2-1.83a3.27,3.27,0,0,1-3.75-2.67,17.57,17.57,0,0,1-.35-7.18c.4-3.12.42-3.1,3.44-3.68.66-.13,1.69.08,1.62-1.14-.08-1.71-.17-3.41-.27-5.12-.07-1-.6-1.34-1.65-1.29-3.54.17-7,.86-10.51,1.31a1.15,1.15,0,0,0-1.12,1.59c.84,3.52.39,7.15,1,10.7.75,4.42.65,8.92,1,13.39a88,88,0,0,1,0,13.39c-.1,1.15.42,1.28,1.32,1.26" transform="translate(-195.45 -192.23)"/><path class="cls-1" d="M339.55,327.79c3.27.2,7-3.74,7-7,0-2.89-4-6.65-7-6.58s-5.78,4-5.7,8c-.09,4,2.13,5.4,5.74,5.62" transform="translate(-195.45 -192.23)"/><path class="cls-1" d="M208.39,330.62h-.11c0-1.59-.05-3.18-.08-4.77,0-1-.52-1.25-1.35-.69a30.5,30.5,0,0,0-3,2.15,4.29,4.29,0,0,0-1.33,4.32c.38,1.86,3.69,4.49,5.42,4.45.69,0,.5-.51.5-.87,0-1.54,0-3.07-.07-4.59" transform="translate(-195.45 -192.23)"/><path class="cls-1" d="M288.84,328.76c2.14-.54,4.84-3.63,4.79-5.48-.23-3-.7-5.55-4.29-6.57s-6.48.55-6.95,4.17a8.31,8.31,0,0,0,1.36,5.34c1.24,2.16,3,3.06,5.09,2.54" transform="translate(-195.45 -192.23)"/><path class="cls-1" d="M210.31,348.13c.05,3.55.09,3.55,3.53,2.9a8.79,8.79,0,0,1,.87-.15,253.67,253.67,0,0,0,25.31-3.5c6.08-1.13,12.25-1.43,18.38-2.17,8.81-1.08,17.62-2.12,26.48-2.87,7-.59,13.95-1.06,20.92-1.46,5.81-.34,11.64-.32,17.46-.55a77.36,77.36,0,0,1,11.29-.05c.64.07,1.16.1,1.37,1a39.71,39.71,0,0,1,1.21,11c-.06,1.42.44,1.77,1.75,1.54a50.57,50.57,0,0,1,8.22-1c7.36-.1,12.28,3.09,13.41,10.09a5,5,0,0,1-3.62,5.48,68.18,68.18,0,0,1-17.44,2.36c-1.54,0-1.93.62-1.83,2,.67,9.23.47,18.48.83,27.72.19,4.93-.11,9.87-.26,14.81-.16,5.23.09,10.48.07,15.71,0,3.51-.37,7-.22,10.51.17,3.71-.59,7.4,0,11.1.15,1,.43,1.61,1.55,1.24,1.5-.49,3-1,4.48-1.55,2-.8,4.14-1.31,6-2.52,1.05-.69,2.49,0,3.42-.32a56.59,56.59,0,0,0,10.25-4.94c3.85-2.32,7.75-4.58,11.52-7,3.54-2.31,7.34-4.34,9.65-8.14a1.57,1.57,0,0,1,1.22-.94c.94,0,1.47-.73,2-1.29,2.83-2.88,5-6.31,7.38-9.52a50,50,0,0,0,5.25-9.09,121.34,121.34,0,0,0,7.87-21c1.13-4.54,2.64-9,3.4-13.63a284.93,284.93,0,0,0,2.74-29,137.36,137.36,0,0,0-.21-19.59c-.54-3.51.31-9.38-.5-15.18-.28-2-.34-3.45-3.14-3.8-5.68-.69-11.22-2.44-17-2.73-7.13-.36-14.26,0-21.38,0-6.3,0-12.59-.16-18.88-.26-5.65-.08-11.3-.24-16.95-.38-4.89-.12-9.76.58-14.66.35a164.58,164.58,0,0,0-18.18.28c-6.28.4-12.55,1.09-18.83,1.52-8.28.57-16.54,1.28-24.75,2.55-6.15.95-12.34,1.71-18.54,2.36a199.16,199.16,0,0,0-22.61,3.85c-2.91.64-5.94.77-8.71,2.11-.95.46-1.51.87-1.48,2,.14,5.29.17,10.58.28,15.88,0,1.57-.27,3.48.49,4.64a5.65,5.65,0,0,1,.78,4.28,42.39,42.39,0,0,0-.21,5.29M390.09,311c5.49.13,8.55,1.4,8.84,8.44.78,4.59-4.6,8.32-8.51,8.44s-7.77-4.8-7.71-8.48c.08-4.3,3.19-8.49,7.38-8.4m-55.33,3.86c2.14-2.93,5.57-3.52,9.44-.66.71.52,1.51.93,2.15,1.48,2.15,1.84,3,6.08,1,8.6a8.34,8.34,0,0,0-.94,1.27c-2.27,4.07-7.29,5-11.36,2.73-1.64-.89-2.85-3.67-2.91-6.32s1.09-5,2.65-7.1M281,321.6c0-3.82,1.81-6.42,4.79-7.15,2.25-.56,6.62,1,8.17,3.69,2.59,4.51,1.31,8.11-1.08,10.35a6.78,6.78,0,0,1-6.83,1.77c-2.9-.86-4-3.2-4.81-5.81a7.65,7.65,0,0,1-.24-2.85m-51.13,2.81c.3-1.78,3.42-4.93,5.06-5.23,2.22-.4,4.56.81,6,3.13,1.07,1.68,1.29,2.62,1.28,5.51a7.66,7.66,0,0,1-.24,3c-.68,2.85-2.75,3.85-5.29,4a5.76,5.76,0,0,1-5.5-2.69c-1.73-2.44-1.81-5-1.35-7.72" transform="translate(-195.45 -192.23)"/><path class="cls-1" d="M238.32,332.54a4.12,4.12,0,0,0,2.56-4.77c-.07-1.1-.13-1.74-.15-2.38,0-2.29-1.64-3.25-3.46-3.94a3.92,3.92,0,0,0-4.21,1c-1.62,1.47-2.27,5.7-1.27,7.64,1.4,2.75,3.82,3.63,6.53,2.44" transform="translate(-195.45 -192.23)"/><path class="cls-1" d="M385.58,554.33a72,72,0,0,1,8.76-1.42c-3.08-.92-6,.71-9,.47-.3,0-.77.15-.65.63s.56.4.88.32" transform="translate(-195.45 -192.23)"/><path class="cls-1" d="M429.44,579.91a127.82,127.82,0,0,1-13.69-5c-2.8-1.2-5.85-1.87-8.4-3.64-3.23-2.25-7-3.47-10.36-5.57-3.63-2.27-7.43-4.31-11.07-6.57-.3-.19-.58-.48-1-.3s-.27.6-.27.93c0,1.94.23,3.87.18,5.82a128.48,128.48,0,0,0,.22,16.06c.08.82.36.85,1,1,1.61.49,3.26.19,4.89.4,8.46,1.06,16.92,2.23,25.48,2,6.3-.19,12.59-.1,18.89,0a78.06,78.06,0,0,0,13.57-.53,3,3,0,0,0-.64-.21c-6.51-.5-12.66-2.62-18.84-4.47" transform="translate(-195.45 -192.23)"/><path class="cls-1" d="M415.74,324A1.32,1.32,0,0,0,417,325.2c1.93.13,5.44-2.37,6-4.22,1-3.43-2.33-8-6-7.4-1.2.21-1.75.35-1.48,1.61.4,1.92-.11,3.87.15,5.91a7.76,7.76,0,0,0,.08,2.87" transform="translate(-195.45 -192.23)"/><path class="cls-1" d="M383.3,540.53c2.95-.41,5.88-.17,8.81-.32,8.52-.45,17-.27,25.57-.22,1.16.14,2.48.53,2.07-1.54-.15-.78.41-1.32,1.21-1.48a9.37,9.37,0,0,1,2.42-.41,3.93,3.93,0,0,0,3.94-2c.8-1.22.43-1.7-.65-2.09a8.47,8.47,0,0,0-3.46-.59c-.57,0-1.48.19-1.66-.27-.8-2-2.41-1.32-3.75-1.16-3.72.45-7.4-.23-11.11-.11-6.64.23-13.3.53-19.9-.28-3.52-.43-5.66,1.78-7.74,3.74-1.14,1.08-.37,3.3.47,4.66a4.18,4.18,0,0,0,3.78,2" transform="translate(-195.45 -192.23)"/><path class="cls-1" d="M257.88,576.58a101,101,0,0,0-.59-13.91c-.11-.95-.22-1.32-1.21-.68a30.44,30.44,0,0,0-4,2.77,25.09,25.09,0,0,1-4.76,3.27c-3.28,1.84-6.76,3.26-10.05,5s-6.86,3.5-10.33,5.17c-4.52,2.18-8.89,4.67-13.59,6.51-2.85,1.12-5.31,3.18-8.36,4A2.48,2.48,0,0,0,203.2,590a2.18,2.18,0,0,0,1.46.29,169.53,169.53,0,0,0,20.77-1.11c7.31-.78,14.67-1,21.93-2.2,2.89-.49,5.71-1.39,8.66-1.61,1.65-.11,2.35-1.06,2.24-2.67-.13-2-.42-4.11-.38-6.16" transform="translate(-195.45 -192.23)"/><path class="cls-1" d="M307,458.75a9.54,9.54,0,0,0,5.45,0c-1.83.11-3.63-.62-5.45,0" transform="translate(-195.45 -192.23)"/><path class="cls-2" d="M197.61,593.66c2.25.76,4.57.37,6.81.29,17.06-.62,34.1-1.63,50.94-4.75a35.82,35.82,0,0,0,5.12-1.28c.57-.19,1.46-.33,1.44-1.1,0-2.12,1.36-4.13.3-6.35a10.63,10.63,0,0,1-.5-3.13c-.43-3.29.32-6.63-.19-9.87-.53-3.4-.24-6.81-.66-10.19a4.09,4.09,0,0,1,1-3.22c1.88-2.38,1.53-5-.77-7a1.63,1.63,0,0,1-.39-2.21c1.84-3.27.6-5.91-1.61-8.36-.35-.4-.57-.68-.16-1.19a6.4,6.4,0,0,0,.14-8.18c-.57-.71-.34-1,.06-1.46A5.15,5.15,0,0,0,260,520c-.9-2,.09-3,.89-4.34,1.65-2.67,1.69-3.72-.24-6.2-.64-.83-.7-1.19.34-1.67.88-.41,2.12-.67,2.47-1.57.79-2.08,1.47-4.3.92-6.54-.25-1-.12-1.55.63-2.07,2.28-1.58,3.42-3.66,2.9-6.48-.19-1,.56-1.28,1.18-1.72a5.94,5.94,0,0,0,2.23-7.11,1.5,1.5,0,0,1,.26-1.67c.83-1.26,2.32-1.78,3-3.12a9.68,9.68,0,0,0,1.09-6.14,2.27,2.27,0,0,1,.81-2.32,14.82,14.82,0,0,0,2.68-3,5.25,5.25,0,0,0,.59-5.06c-.62-1.42-.52-2.54,1-3.32.54-.27,1.21-.68,1.13-1.45-.11-1.2.47-.94,1.14-.63a8.17,8.17,0,0,0,1.29.57c10.3,2.74,20.64,5,31.45,3.48,4.9-.66,9.91-.15,14.78-1.62,2.84-.85,5.86-1,8.75-1.9,3.88-1.15,7.65-2.6,11.4-4.09.4-.15.91-.27,1.14.11s-.14.72-.55.9a2.57,2.57,0,0,0-1.06,1.15c-2.09,3.42-.22,9.37,3.47,11,.74.33,1.08.58.83,1.54a7.62,7.62,0,0,0,.81,5.47c.82,1.5,1.48,3.58,3.63,3.7,1.46.08,1.79.6,1.66,1.9-.23,2.31.95,4.24,2.06,6.06.89,1.48,2.73,1.08,4.24,1.2.11,0,.22.07.34.09.63.08.92.28.66,1-1.31,3.75.07,6.85,2.44,9.69.26.31.66.66.66,1,0,3.52,3.57,6.38,1.85,10.23a2.07,2.07,0,0,0,.17,1.38c.62,1.64.41,3.32.44,5,0,2-.67,4.47,1.78,5.87.56.32.44.93.19,1.43-1.05,2.11-.43,4.12.35,6.12.48,1.23,1.57,2.34-.22,3.62-.72.51-.61,1.94-.69,3-.13,1.73.41,3.39.44,5.09a2.75,2.75,0,0,0,1.54,2.73c.61.28.77.76.39,1.05-1.06.8-.72,2.06-1.16,3.06-.89,2,.83,7,2.71,7.64a2.46,2.46,0,0,1,1.82,2.63c0,3.06.6,6.08.41,9.16-.35,5.76-.91,11.51-1,17.29,0,2.6,1.66,3.83,4.13,4,.52,0,1.06-.07,1.58,0,11,1.14,22,2.37,33.09,2.46,12.14.11,24.27.25,36.38-.78,4.19-.35,4.31-.55,3.19-4.69a2,2,0,0,1,0-.35c-.32-3.77-2.05-7.1-3.91-10.2a56.73,56.73,0,0,0-10.88-13.19,54.59,54.59,0,0,0-8.34-6.39,35.45,35.45,0,0,0-6.31-2.67c-.83-.29-1.54-.82-.25-1.44,1.82-.88,2.75-2.45,3.65-4.12a2.9,2.9,0,0,0-1-4.09c-.49-.31-1-.57-1.5-.88-.29-.19-.74-.48-.44-.82.91-1,.85-2.41,1.38-3.54,1.32-2.83,1.34-3.21-1.05-5.33-.5-.45-.91-.61,0-1.2,4.68-2.92,4.81-7.43,3.76-11.76a1.7,1.7,0,0,0-.69-1c-.88-.65-2.34-1.07-2.44-2.08s1.25-1.87,2-2.77a2.29,2.29,0,0,0-.1-3.54,14.17,14.17,0,0,0-6.07-3.71l1.72-1.25c2.57-1.82,4.71-7.44,2.48-9.88a9.65,9.65,0,0,0-3.79-2.45c-1-.42-1.75-.78-.87-2.11a7.72,7.72,0,0,0,.82-5.13,3.56,3.56,0,0,0-1.87-3c-1.53-.71-3-1.58-4.84-1.51-.44,0-1,.05-1.19-.52s.24-.8.54-1.05c2.15-1.78,2.21-4.33,2.4-6.77a3.43,3.43,0,0,0-1.61-3.29,9.31,9.31,0,0,0-5.44-1.76c-1.25,0-1.89-.17-1.52-1.83.4-1.84.77-4.16-.44-5.63-1.67-2-3.48-4.19-6.39-4.68-.75-.12-1.06-.51-.65-1.23,1.16-2,.9-4.18.55-6.36a2.17,2.17,0,0,0-1.12-1.62c-1.82-1.2-3.94-1.55-5.95-2.16-1.19-.36-1.52-.54-1.05-2,1.54-4.79.22-6.58-3.74-7.58-1.41-.35-2.89-.46-4.34-.7-.39-.07-.91,0-1-.51s.34-.58.6-.81a17.33,17.33,0,0,0,3-2.67c1.72-2.5,3.86-4.65,5.58-7.18,1.15-1.7,2.51-3.33,3.51-5.12a116.76,116.76,0,0,0,6.9-15.3c1.44-3.77,3.05-7.42,3.87-11.44,1.12-5.5,3.19-10.78,3.92-16.42.7-5.35,2-10.61,2.41-16a152.15,152.15,0,0,0,.1-24.34c-.1-1.27.05-2,1.52-2.39,2.39-.68,4.77-1.76,5.57-4.41a11.6,11.6,0,0,0,.22-7c-1-3-2-6.61-5.22-7.39-3.53-.84-4.27-2.5-3.92-5.61a1.72,1.72,0,0,0-1.69-2c-5.62-.42-11.15-1.54-16.73-2.36-.89-.14-1.49-.52-1.44-1.44.12-2.49-1-4.69-1.51-7-.19-.83-.52-1-1.32-1a40,40,0,0,1-6-.24c-7.95-.84-15.87-2.11-23.88-2.22-1.29,0-1.86-.5-1.86-1.74,0-7.36-.52-14.7-.89-22.05-.28-5.56-1.56-10.94-2.28-16.41-.45-3.39-1.54-6.74-2.28-10.11a108.6,108.6,0,0,0-5.86-19.67,49.16,49.16,0,0,0-9.87-14.44c-.42-.43-1.17-.44-1.33-1.08-.68-2.68-3.07-3.44-5.14-4.39a88.58,88.58,0,0,0-11.13-4.54,38.81,38.81,0,0,0-8.93-1.94,60.77,60.77,0,0,0-21.23,2.31,42.38,42.38,0,0,0-6.38,2.44,53.17,53.17,0,0,0-6.46,3.92,34,34,0,0,0-5.32,4.29c-2.93,3.08-5.12,6.74-7.49,10.27a26,26,0,0,0-4.73,11.53c-.32,2.59-1.52,5.06-2,7.65a137.78,137.78,0,0,0-1.61,22.87c0,11.59.83,23.15,1.84,34.69.13,1.46-.12,2-1.66,2.37-3.52.78-7.13.78-10.65,1.51a75.25,75.25,0,0,1-9.33,1.8c-4.75.38-9.43,1.35-14.19,1.52a1.42,1.42,0,0,0-1.35,1.4,13.59,13.59,0,0,0,0,2.47c.43,5.42.44,5.42-5,6.38a.88.88,0,0,1-.17,0q-6.23,1.23-12.44,2.44c-1.36.26-2.36,1-1.79,2.4.7,1.72.49,3.46.71,5.18a2.48,2.48,0,0,1-1.54,2.86,7.08,7.08,0,0,0-4.57,5.11c-.6,2.42-.75,4.77.56,7a10.71,10.71,0,0,0,5.5,4.44c.48.19,1.27.29,1.08.92-.46,1.49.21,2.91.09,4.37a48,48,0,0,0,0,10.24c1.27,9.31,2.21,18.65,5,27.73,2,6.48,4.43,12.75,7,19s6.33,11.44,10,16.87c.34.49,1,.64,1.18,1.26,1,2.77,3.39,4.59,5.07,6.88a48.81,48.81,0,0,0,7.8,8.28,5.26,5.26,0,0,1,1.36,2.62c.28.88.06,1.24-.95,1.35-3.34.37-5.48,2.72-7.68,4.92a3.16,3.16,0,0,0-.89,2.07c-.13,1.82-.48,3.64,0,5.45.3,1.12-.11,1.6-1.3,1.68-.91.06-2.11.17-2.52,1-1.21,2.48-2.5,5.09-.68,7.82.73,1.11.31,1.34-.66,1.86-2.39,1.28-4.7,2.75-4.91,5.89a8,8,0,0,0,1.63,5.3c.66.92.44,1.29-.46,1.81a8.27,8.27,0,0,0-3.36,10.15c.63,1.36.18,1.75-.88,2.17a11.37,11.37,0,0,0-1.11.54,5,5,0,0,0-2.29,6.83c.83,1.47.35,2.33-.83,3.07-.66.41-1.49.83-1.64,1.53-.75,3.43-2.34,7,.7,10.13.39.41.61.75-.12,1-1.29.48-2,1.66-2.82,2.61a7,7,0,0,0,0,10c1.35,1.4,1.17,2.34-.66,3.21a2.27,2.27,0,0,0-1.17,1c-1.49,2.8-1.94,5.63-.28,8.53.62,1.08,1.31,2-.15,3.16-.82.65-.64,2.09-.35,3.2s.64,2,.9,3.05c.15.59.47,1.21-.13,1.81-2.81,2.8-3.18,5.92-1.35,9.45a21.32,21.32,0,0,0,2.27,3.69c1.29,1.56.08,1.94-.83,2.15a11.16,11.16,0,0,0-2.81,1.39c-3,1.64-5.31,4.2-7.51,6.75-2,2.33-4.07,4.72-4.87,7.84a35.23,35.23,0,0,0-1,11,2.83,2.83,0,0,0,2.08,2.85m217.9-278.47c-.27-1.26.28-1.4,1.48-1.61,3.66-.64,6.95,4,6,7.4-.52,1.85-4,4.35-6,4.22a1.32,1.32,0,0,1-1.28-1.23,7.8,7.8,0,0,1-.08-2.88c-.26-2,.25-4-.15-5.9M256,585.41c-2.95.22-5.77,1.12-8.66,1.61-7.26,1.24-14.62,1.42-21.93,2.2a169.53,169.53,0,0,1-20.77,1.11,2.18,2.18,0,0,1-1.46-.29,2.48,2.48,0,0,1,1.75-1.29c3.05-.82,5.51-2.88,8.36-4,4.7-1.85,9.07-4.33,13.59-6.51,3.47-1.67,6.94-3.33,10.33-5.17s6.78-3.2,10.05-5a25.09,25.09,0,0,0,4.76-3.27,30.44,30.44,0,0,1,4-2.77c1-.64,1.1-.27,1.21.68a101,101,0,0,1,.59,13.91c0,2,.25,4.11.38,6.16.11,1.61-.59,2.56-2.24,2.67m51-126.66c1.82-.63,3.62.1,5.45,0a9.54,9.54,0,0,1-5.45,0m72.06,75.08c2.08-2,4.22-4.17,7.74-3.74,6.61.81,13.26.51,19.9.28,3.71-.12,7.39.56,11.11.11,1.34-.16,2.95-.89,3.75,1.16.18.46,1.09.3,1.66.27a8.47,8.47,0,0,1,3.46.59c1.08.4,1.45.87.65,2.09a3.93,3.93,0,0,1-3.94,2A9.37,9.37,0,0,0,421,537c-.8.16-1.36.69-1.21,1.48.41,2.07-.91,1.69-2.07,1.54-8.53,0-17.05-.23-25.57.22-2.93.15-5.87-.09-8.81.32a4.18,4.18,0,0,1-3.78-2c-.84-1.36-1.61-3.58-.47-4.66m56.3,51.29c-6.3-.13-12.59-.22-18.89,0-8.57.25-17-.93-25.47-2-1.63-.21-3.29.09-4.9-.4-.64-.19-.92-.22-1-1a128.48,128.48,0,0,1-.22-16.06c.05-2-.18-3.88-.18-5.82,0-.33-.14-.74.27-.93s.66.11,1,.3c3.64,2.26,7.44,4.3,11.07,6.58,3.35,2.09,7.13,3.31,10.36,5.56,2.55,1.77,5.6,2.44,8.4,3.64a127.82,127.82,0,0,0,13.69,5c6.18,1.85,12.33,4,18.84,4.48a2.5,2.5,0,0,1,.64.2,78,78,0,0,1-13.57.53M384.7,554c-.11-.48.35-.65.65-.63,3,.24,5.91-1.39,9-.47a73.66,73.66,0,0,0-8.76,1.42c-.32.08-.77.11-.88-.32m52.64,5.5c5.05,3,8.37,7.55,11.9,12,2.32,2.92,3.29,6.46,5.15,9.58.93,1.57.54,2-1.32,2-4.27,0-8.4-1-12.55-1.75-7-1.35-13.58-4-20.28-6.39a116.88,116.88,0,0,1-16.2-7.15c-6.32-3.34-12.33-7.2-18.47-10.83-.3-.18-.68-.33-.63-.75s.39-.39.69-.42c6.86-.91,13.59-2.83,19.69-2.82,5.88.2,10.93-.23,15.84.79,5.63,1.18,11.14,2.73,16.18,5.7m-17.76-7.64c.83-.92.83-.92,2.76.12-1,.36-1,.36-2.76-.12m8.68-6.84c-1.4,1.34-2.73,2.65-4.84,3a49.21,49.21,0,0,0-8.24,1.84,18.44,18.44,0,0,1-5.05.6c-3.24.12-6.47.12-9.71.17-5,.63-10-.11-15,.09a4.84,4.84,0,0,0-.85,0,3.74,3.74,0,0,1-4.36-2.24c-1-2.24-.18-4.21,2.49-5.28a21.94,21.94,0,0,1,6.8-1.66c8.12-.51,16.24-.36,24.37-.51,2.69,0,5.39.25,8.09.39a5.06,5.06,0,0,0,1.23,0,4.41,4.41,0,0,1,5.11,2.37c.27.46.36.86-.07,1.26m-2.65-17.55a41.4,41.4,0,0,1-11.78,1.71,162.37,162.37,0,0,0-17.31-.2c-3.4,0-6.81-.19-10.22-.25-1.15,0-2.31.12-3.46.18a2.48,2.48,0,0,1-2.88-2,4.78,4.78,0,0,0-.22-.67c-1.49-3.74,0-5.94,4.14-6.47,6-.76,12.07-.74,18.05-1.69a131.22,131.22,0,0,1,18.77-1.71c1.93,0,3.85.19,5.78.25,2.32.06,3.41,1.12,3.76,3.38.66,4.22-.47,6.08-4.63,7.46m1.65-19.07c.82.52,2.13.68,1.93,1.94a2.52,2.52,0,0,1-2.37,2.06c-.87.09-1.75.14-2.63.15-1.25,0-2.39.1-2.64,1.67-.09.56-.46.71-1,.73-7.05.29-14,1.27-21.08,1.71-4.86.4-9.72,1-14.58,1.1a18.73,18.73,0,0,1-6.54-.75c-1-.35-.8-1.23-.86-1.91s-.1-1.68.89-1.86a2.45,2.45,0,0,0,1.61-1.18,3.76,3.76,0,0,1,2.75-1.36c10-.93,20-1.8,29.89-3.67,2.07-.39,4.11-1,6.15-1.5.46-.12,1-.43,1.35-.08,2,1.93,4.92,1.56,7.14,3m-.6-13.94a3.89,3.89,0,0,1-.85,6,28.1,28.1,0,0,1-11,4.57c-8.35,1.49-16.71,2.72-25.13,3.59-3.42.76-6.94.16-10.37.79-1,.18-2,.18-2.29-1s-1.26-2.56.43-3.78a13.72,13.72,0,0,1,7.24-2.77A100.62,100.62,0,0,0,406,497.44a84.11,84.11,0,0,0,12.53-4.56c2.05-1,6.51,0,8.09,1.59m-4.49-11.35c1.25,1.29,1.1,2.7.75,4.08s-1.62,1.59-2.83,1.73c-.46.05-.94,0-1.4.05-1,.12-1.88.91-1.63,1.72.53,1.75-.7,1.65-1.63,2-1.9.76-3.78,1.57-5.69,2.32a15.49,15.49,0,0,1-5.44,1.35,12.27,12.27,0,0,0-3.59.83,75.41,75.41,0,0,1-17.9,3.47,14.87,14.87,0,0,0-2.09.32,4.83,4.83,0,0,1-4.77-1.46,2.06,2.06,0,0,1-.22-3.11,8,8,0,0,1,5.48-3.2c4.45-.43,8.48-2.16,12.64-3.56a77.31,77.31,0,0,0,9.42-3.41c2.35-1.15,4.88-2,7.19-3.19a14.83,14.83,0,0,1,6.44-1.41c1.82.26,3.73-.14,5.27,1.45M411.3,468.77c1,0,1.55-.06,2.08,0,1.66.13,3.36.32,4.13,2.11a4.5,4.5,0,0,1-1.05,5.32c-3.19,2.93-6.06,6.43-10.45,7.66-5,1.4-9.46,4.33-14.68,5.12a19.21,19.21,0,0,0-3.84,1.27c-3.81,1.44-7.9,1.59-11.81,2.63a3.07,3.07,0,0,1-3.69-1.38,5,5,0,0,1-.15-4.94c1.48-2.74,4.22-3.13,6.74-4s5.52-1.29,8.05-2.45c4.29-2,8.41-4.34,12.56-6.63,2.46-1.37,5-2.53,7.43-4,1.5-.93,3.4-.74,4.68-.71m-5.73-11.5a4.73,4.73,0,0,1,4.34,3.92,4.25,4.25,0,0,1-2.42,4.48c-1,.43-1.8.91-1.81,2.11,0,.68-.53.83-1,1.08-4.37,2.39-8.64,5-13.13,7.11S382.9,480.38,378,481c-1.65.21-3.15,1.34-5,1.28-2.18-.33-4.39-.53-6.53-1.05s-1.65-2.57-1.71-4a3.24,3.24,0,0,1,2.77-3.62c3.41-.81,6.49-2.61,9.63-4.16a20.32,20.32,0,0,1,2.14-.79c5-1.83,9.39-4.65,14-7.28,3.71-2.14,7.71-4.35,12.34-4.18m-3.2-10.49c.79.27.81,1.48.87,2.36.17,1.39-.71,2.2-1.6,3s-1.56,1.24-2.31,1.89c-.45.4-.95.93-.73,1.52.5,1.38-.28,2-1.33,2.35-3.92,1.47-7.21,4.05-10.85,6-2.09,1.12-4.41,1.9-6.57,2.91-3.74,1.73-7.84,2.66-11.29,5-.23.16-.6.41-.78.33-2-.88-3.91.16-5.86.27-2.51.15-3-1.87-3.72-3.58a2.59,2.59,0,0,1,1.17-3.5c.41-.24.94-.57.87-1-.29-1.83,1.17-2,2.25-2.62,4.95-2.89,10.13-5.37,15.28-7.83a110.08,110.08,0,0,0,12.63-7.56c.87-.57,1.8-1.4,3-.69a.84.84,0,0,0,.67-.12c3.12-2,5.61.41,8.27,1.3m-12.25-12.06c1.16.4,2.28.91,3.43,1.34,2.12.78,2.48,2.92.77,4.45-.72.64-1.62,1.16-1.7,2.33,0,.58-.72.79-1.16,1-3.64,1.53-6.44,4.36-9.87,6.26s-6.75,3.28-10.1,4.95c-4.11,2.05-7.95,4.61-12.17,6.45a12.22,12.22,0,0,1-1.27.42A3.31,3.31,0,0,1,354.5,458c.56-2.59,1.51-4.69,4.44-6a154.33,154.33,0,0,0,16.86-8.58,41.83,41.83,0,0,0,8.06-5.58c1-1,2.25-1.52,3.15-2.61a2.77,2.77,0,0,1,3.11-.6M264.31,240A54.24,54.24,0,0,1,267,227.45c.38-1.3.57-2.64.9-3.95,1.09-4.3,4.16-7.33,6.7-10.75a42.19,42.19,0,0,1,4.1-5.1,40.36,40.36,0,0,1,19.12-10.52,36.63,36.63,0,0,1,9.84-1.1c4.53.09,7.76-.38,10.86.44,5.14,1.35,10.4,2.47,14.42,6.46,1.3,1.29,3,2.11,4.14,3.71a1.57,1.57,0,0,0,2.16.62c.68-.38,1,.28,1.3.61a42.25,42.25,0,0,1,5,6.79A56.19,56.19,0,0,1,352,231.3c1.81,7.51,4.11,14.93,4.91,22.65.74,7.07,1.86,14.1,2.12,21.24.14,3.86-.17,7.74.28,11.6.13,1.13-.69,2.25,0,3.44.3.5-.2.69-.67.68-2.65-.06-5.3-.14-8-.17-1.19,0-1.08-.81-1.09-1.57-.07-4.13-.18-8.25-.22-12.38,0-5.74-1.7-11.29-1.95-17-.05-.95-.71-1.48-1.64-2.14-2.86-2-6-1.25-9-1.44-1.07-.06-1.58-.33-1.74-1.45-.25-1.86-.65-3.71-1-5.56a10,10,0,0,0-2.49-4.39c-.3-.37-.71-.31-1.13-.34-11.76-.8-23.22,1.33-34.65,3.66-2.3.46-4.62.86-6.93,1.33a7.71,7.71,0,0,0-2.78,1.08,1.88,1.88,0,0,0-.88,2.55c.75,1.87,0,3.71-.13,5.56,0,.54-.52.61-.93.63-3.32.16-6.33,1.73-9.65,2-3,.25-3.6,1.18-3.84,4.19-.16,2.13.74,4,1.16,6,1.08,5.05.92,10.19,1.19,15.3.13,2.35.11,4.71.33,7,.1,1.06,0,1.49-1.17,1.55-1.93.11-3.87.31-5.79.59-1.31.19-1.6-.32-1.59-1.52.13-8.2-.58-16.37-1.23-24.52-.79-10.05.16-20,.73-30m77.95,38.52c-1-2.95-1.61-6.07-4.15-8.38s-5.41-2.49-8.48-2.29c-1,.06-2,.37-2.94.51a10.78,10.78,0,0,0-5.68,3.14c-3.75,3.37-4,8-4.53,12.51a19,19,0,0,0,0,6.69c.14.6-.08,1.15-.75,1.14-3.51-.06-7,.54-10.82.65,1.41-1.7,1-3.36.81-5a67.46,67.46,0,0,0-1.65-10.26c-1.17-4.65-4.77-6.27-8.83-7.27-6.31-1.55-10.72,1.64-14.08,6.38-1.54,2.18-1.55,5.16-1.62,7.84a79.78,79.78,0,0,0-.18,9.53c.06.75-.27,1-1,1.09-2.81.34-2.67.36-2.88-2.44-.59-8.1-.46-16.25-2.41-24.23-1-4.17-.62-4.81,3.38-5.5,2.61-.45,5.15-1.11,7.75-1.58a9.89,9.89,0,0,1,1.22-.13c2.35-.13,2.11-.1,1.87-2.42a53.12,53.12,0,0,1,0-5.92c0-1.25,1.42-1.26,2.31-1.54a97.92,97.92,0,0,1,14.8-2.86q8-1.17,16.09-2.09c3.35-.38,6.76-.65,10.1.55,1.32.48,1.59,1.4,1.89,2.47a32.74,32.74,0,0,1,.82,7.18,6.64,6.64,0,0,0,.24,1.74c.23.66.91,1,1.35.4.71-1,1.63-.79,2.53-.72q2.82.21,5.62.56a3,3,0,0,1,2.82,2.69c.24,6.73,1.94,13.28,2.19,20a83,83,0,0,1-.22,8.64.94.94,0,0,1-1.12,1c-1,0-2-.09-3-.07-.59,0-.63-.16-.57-.72a27.16,27.16,0,0,0-.85-11.35m-5.67,2.2a9.27,9.27,0,0,0-4-5.38c-3.08-2-8,1.21-9,4.34-1.15,3.48-.79,7-.89,10.49,0,1.11-.34,1.23-1.24,1.31-3.59.28-3.81,0-3.78-3.62a31.77,31.77,0,0,1,3.44-14.08c.72-1.45,2.29-1.55,3.32-2.48,1.89-1.71,4.32-2,6.71-2.18,3.5-.21,5.84,1.79,7.21,4.71,1.76,3.75,3.73,7.53,3,11.94,0,.59,0,1.18,0,1.77,0,3.07,0,3-3,3.31-1.21.12-1.49-.1-1.39-1.36a24.42,24.42,0,0,0-.44-8.77M335,289.91c.15,1-.26,1.23-1.17,1.2-1.23,0-2.46,0-3.69,0v-.08c-1.11.07-2.22.12-3.33.24-1.37.15-2.17-.33-2.13-1.8.08-3.16-.28-6.34.67-9.44a6,6,0,0,1,4.39-3.57c2-.15,3,.57,4,2.72a17.38,17.38,0,0,1,1.32,9.11,7,7,0,0,0-.07,1.58m-34.29.3c-.39-3.37-.33-6.81-2-9.95-1.84-3.52-4.11-4.6-8.47-3.8-3.28.61-5.18,2.79-5.61,6.32-.28,2.21-1,4.38-.49,6.81a15.77,15.77,0,0,0,.11,3.19c.19.9,0,1.06-.82,1.22-2.55.49-2.88.16-2.66-2.53.3-3.79,0-7.62,1-11.36,1.67-6.32,7.94-10.1,14.3-7.94a14.94,14.94,0,0,0,1.82.61c2.56.54,3.44,2.62,4.09,4.8a41.69,41.69,0,0,1,2.16,10.87,24.91,24.91,0,0,1-.34,3.32c0,.49-.43.5-.77.53-.64.06-1.29.07-1.94.12-.4,0-.92.27-1.17-.07-.36-.49.16-.84.46-1.17a1.11,1.11,0,0,0,.31-1m-2.58,1.52c-.17.72-.39,1-1.11,1-3.4.22-6.82.12-10.19.75-.7.13-1.12-.15-1.16-.92-.05-1-.12-2-.19-3,.16-3.37.58-6.67,2.53-9.67,1.34-2.05,3.39-1.94,5.3-2s2.83,1.38,3.41,2.89c1.36,3.52,2.33,7.12,1.41,11m-68.94,11.35c4.22-.43,8.46-.71,12.62-1.49,5.6-1.06,11.28-1.67,16.83-2.87,6.76-1.45,13.64-1.51,20.41-2.62,3.59-.59,7.19-1.18,10.8-1.6s7-.6,10.55-.89c13.34-.56,26.68-1.15,40-1.48,6.81-.17,13.62.07,20.43-.07,3.34-.07,6.69-.06,10,.18,4.14.31,8.26,1,12.39,1.55,2.74.35,5.49.66,8.24.95,1.36.15,2.15.52,1.8,2.21a4.92,4.92,0,0,0,.48,3.89c.78,1.23.27,1.8-1.24,1.71-9.75-.54-19.49-.64-29.25-.44-5.68.12-11.37-.27-17.06-.37q-10.67-.19-21.34.12c-4.93.16-9.88,0-14.83.08-7.12.11-14.2.74-21.29,1.51-7.84.85-15.68,1.69-23.56,2.17-4.68.28-9.32,1.24-14,1.73-7.08.73-14.07,2.11-21.13,2.95-1.33.15-1.8-.29-1.88-1.55s-.25-2.69-.45-4c-.17-1.17.34-1.53,1.44-1.64m-21.25,33c-1.73,0-5-2.6-5.42-4.45a4.29,4.29,0,0,1,1.33-4.32,30.5,30.5,0,0,1,3-2.15c.83-.56,1.33-.35,1.35.69,0,1.59.05,3.18.08,4.77h.11c0,1.53.06,3.06.07,4.58,0,.37.19.87-.5.88m1.78,2.48c-.76-1.16-.45-3.07-.49-4.64-.11-5.3-.14-10.59-.28-15.88,0-1.17.53-1.58,1.48-2,2.77-1.34,5.8-1.47,8.71-2.11A199.16,199.16,0,0,1,241.77,310c6.2-.65,12.39-1.41,18.54-2.36,8.21-1.27,16.47-2,24.75-2.55,6.28-.43,12.55-1.12,18.83-1.52a164.58,164.58,0,0,1,18.18-.28c4.9.23,9.77-.47,14.66-.35,5.65.14,11.3.3,16.95.38,6.29.1,12.58.27,18.88.26,7.12,0,14.25-.34,21.38,0,5.77.29,11.31,2,17,2.73,2.8.35,2.86,1.83,3.14,3.8.81,5.8,0,11.67.5,15.18a137.36,137.36,0,0,1,.21,19.59,284.93,284.93,0,0,1-2.74,29c-.76,4.67-2.27,9.09-3.4,13.63a121.34,121.34,0,0,1-7.87,21,50,50,0,0,1-5.25,9.09c-2.4,3.21-4.55,6.64-7.38,9.52-.56.56-1.09,1.26-2,1.29a1.59,1.59,0,0,0-1.22.94c-2.31,3.8-6.11,5.83-9.65,8.14-3.77,2.46-7.67,4.72-11.52,7a56.59,56.59,0,0,1-10.25,4.94c-.93.33-2.37-.37-3.42.32-1.86,1.21-4,1.72-6,2.52-1.46.59-3,1.06-4.48,1.55-1.12.37-1.4-.24-1.55-1.24-.57-3.7.19-7.39,0-11.1-.15-3.49.21-7,.22-10.51,0-5.23-.23-10.48-.07-15.71.15-4.94.45-9.88.26-14.81-.36-9.24-.16-18.49-.83-27.72-.1-1.39.29-2,1.83-2a68.18,68.18,0,0,0,17.44-2.36,5,5,0,0,0,3.62-5.48c-1.13-7-6.05-10.19-13.41-10.09a50.57,50.57,0,0,0-8.22,1c-1.31.23-1.81-.12-1.75-1.54a39.71,39.71,0,0,0-1.21-11c-.21-.91-.73-.94-1.37-1a77.36,77.36,0,0,0-11.29.05c-5.82.23-11.65.21-17.46.55-7,.4-13.95.87-20.92,1.46-8.86.75-17.67,1.79-26.48,2.87-6.13.74-12.29,1-18.38,2.17a253.67,253.67,0,0,1-25.31,3.5,8.79,8.79,0,0,0-.87.15c-3.44.65-3.48.65-3.53-2.9a42.39,42.39,0,0,1,.21-5.29,5.65,5.65,0,0,0-.78-4.28m106.4,37.89c-.31-4.47-.21-9-1-13.39-.6-3.55-.15-7.18-1-10.7a1.16,1.16,0,0,1,1.13-1.59c3.5-.45,7-1.14,10.51-1.31,1.05,0,1.58.27,1.65,1.29.1,1.71.19,3.41.28,5.12.06,1.22-1,1-1.63,1.14-3,.58-3,.56-3.44,3.68a17.57,17.57,0,0,0,.35,7.18,3.28,3.28,0,0,0,3.75,2.67c1.42-.12,2,.28,2,1.83-.07,2.7.06,5.41.1,8.12h.35c0,2.83.1,5.66.13,8.48,0,1.34-.11,2.16-2,2a90.39,90.39,0,0,0-9.87.13c-.9,0-1.42-.11-1.32-1.26a88,88,0,0,0,0-13.39m10.53-7.58c-1.17-.05-1.93-.36-2.13-1.59-.1-.58-.32-1.14-.39-1.71a17.36,17.36,0,0,1,0-1.77c0-.29-.06-.58-.07-.88-.05-3.37.29-3.76,3.54-4.74a86.42,86.42,0,0,1,18.77-3.63c4.68-.34,8.86.84,11.64,5.08a7.85,7.85,0,0,1,1.1,4.21,2.39,2.39,0,0,1-1.33,2.29,18.89,18.89,0,0,1-8.06,2.3,180.58,180.58,0,0,1-23,.44m-84.56,59.65c-1.71-2.09-3.65-4-5.33-6.19-1.56-2-3.1-4-4.6-6a113.84,113.84,0,0,1-8.46-13.46c-1.45-2.69-2.39-5.6-3.66-8.37a102.89,102.89,0,0,1-6-18.18c-1.41-5.73-1.88-11.7-2.73-17.58-.23-1.63-.35-3.27-.52-4.91-.07-.64,0-1,.85-1.18a131.7,131.7,0,0,1,13.41-2,154.37,154.37,0,0,0,16.56-2.29c4.3-.88,8.71-1.22,13.07-1.8,5.72-.77,11.51-.86,17.2-1.65,6.65-.92,13.35-1.23,20-1.95q9.19-1,18.47-1.12c6.64-.07,13.27-.36,19.91-.55a13.31,13.31,0,0,1,1.41.07c3.18.26,3.27.25,3.66,3.3.35,2.68.44,5.39.68,8.08a1.64,1.64,0,0,1-1.45,2,22.13,22.13,0,0,0-3.86,1.19c-1.06.46-1.24.05-1.29-.85-.09-1.58-.28-3.17-.32-4.75,0-1.32-.71-1.86-1.92-2.08a22,22,0,0,0-7.37.41c-2.13.33-4.34.22-6.41,1-.83.3-1.11.67-.95,1.56,2,10.92,2,22,2.16,33a38.88,38.88,0,0,1-.21,6c-.28,2,.41,2.66,2.46,2.76,4.06.19,8.1-.36,12.17-.31,1.45,0,1.94-1.77,1.94-3.22,0-2.89-.08-5.78-.13-8.66h-.37c0-2.82,0-5.65-.16-8.47-.05-1.06,0-1.72,1.33-1.49a7.8,7.8,0,0,0,2.64.05c1.94-.3,2.32.59,2.35,2.35.16,10.65.53,21.29.64,31.94.06,4.93-.51,9.88-.41,14.81.12,5.3-.1,10.58-.06,15.87,0,5.88-.72,11.74-.41,17.62.06.94-.35,1.22-1.2,1.34-9.32,1.33-18.63,2.72-28.1,2.5-5-.12-9.91-1-14.86-1.6-4.19-.45-8.17-1.8-12.22-2.75-4.57-1.07-8.78-3.37-12.94-5.69q-5.12-2.85-10.2-5.75a39,39,0,0,1-9.32-7.19c-1.79-1.95-3.79-3.76-5.49-5.84m-.36,15.2c1.54-.72,3.28-.59,4.7-1.15,2.49-1,3.63.41,5,1.79a35.54,35.54,0,0,0,8.23,5.95c3,1.58,5.56,3.87,8.92,4.77a27.21,27.21,0,0,1,4.8,2.19,5.14,5.14,0,0,1,1.68,8.35c-.65.75-.82.79-3.86.84-4.29.74-8.23-1.26-12.35-3.09a102.24,102.24,0,0,1-9.32-4.79c-3.62-2.08-7.2-4.43-9.72-7.88-2.23-3.06-1.25-5.51,1.89-7m-7.86,13.57c.1-1.31,1.75-2.11,3.33-1.72,1.11.28,2.12.77,2.84-.7.33-.66,1-.12,1.36.17,3.06,2.79,6.83,4.49,10.27,6.7,1.6,1,3.53,1.54,5.18,2.51,3.69,2.16,7.81,3.07,11.82,4.34,1.49.47,3.45,2.65,3.44,3.82a8.47,8.47,0,0,1-2.86,5.9c-.7.57-1.44.32-2.19.14-2.66-.65-4.92-2.21-7.36-3.35-5.56-2.61-11.07-5.34-16.61-8-2.48-1.19-5.1-2.11-7.21-3.9-1.77-1.51-2.17-3.69-2-5.9m-1.25,9c3.89-.7,7.11.93,10.41,2.48,4.46,2.09,8.84,4.33,13.28,6.46,3.85,1.84,8.1,3.19,10.94,6.78,1.11,1.39.7,2.82.34,4.19-.25.91-1.29,1.09-2.22,1-4.87,0-9.21-2-13.68-3.56-4.09-1.43-7.84-3.66-12-4.88-2.29-.66-4.29-2.34-6.58-2.92-3.55-.88-3.35-3.91-4.16-6.32-.44-1.31,1.88-2.86,3.7-3.19m-6.32,14.65a2.71,2.71,0,0,1,3.12-1.65c.78.08,1.77.15,2-.73.42-1.82,1.25-1,2.26-.63,4.51,1.82,9.16,3.36,13.57,5.4a115.76,115.76,0,0,0,14,5.05,3.82,3.82,0,0,1,2.83,3.28,3.66,3.66,0,0,1-1.88,3.83c-.61.36-1.13.16-1.71.18-5.59.3-10.54-2.2-15.73-3.68-4.78-1.36-9.55-2.77-14.42-3.8-1.63-.34-3.24-.74-4.32-2.15-1.32-1.76-.49-3.41.27-5.1m-4.86,12.36a3.09,3.09,0,0,1,3.39-1.71c1.41.21,2.66.4,2.63-1.66,0-.57.49-.52.93-.42a167.94,167.94,0,0,1,19.21,5c3.37,1.13,6.85,2,10.28,3a3.69,3.69,0,0,1,2.86,4.63c-.67,2.89-1.34,3.47-4.26,3.67a3.24,3.24,0,0,0-2.39.91c-.7.75-1.69.18-2.61.35a53.51,53.51,0,0,1-11.44-2.6c-5-1.51-10.15-2.52-15.08-4.28-.87-.31-1.43-.59-1.64-1.53a2.6,2.6,0,0,0-1-1.62,2.92,2.92,0,0,1-.86-3.8m1.58,8.27c.87.27,1.86.65,2.88.87,5.45,1.13,10.71,3,16.12,4.23A117,117,0,0,0,254.51,509a3.86,3.86,0,0,1,3.18,5.31,2,2,0,0,1-1.09,1.05c-.72.39-1.67.63-2.1,1.23-1.14,1.59-2.51,1.23-4,.91-6.47-1.37-12.94-2.75-19.43-4a42.91,42.91,0,0,0-5.79-.45c-3.55-.18-5.66-2.4-7-5.31s1.28-6,4.78-6.16m34.14,42.14c-1,1-2.26,1.71-3,3.13-.48.92-2.16.8-3.28.92-6.36.7-12.69,2-19.15,1.28-3.93-.3-7.89.29-11.82-.31a1.4,1.4,0,0,0-.35,0c-.37,0-.88,0-.93-.33-.39-2.35-4.29-1.36-4.06-4.45.13-1.81,2.23-4.24,4.25-4.19l24.17.59a79,79,0,0,0,11.9-1.06c1.11-.14,2,0,2.34.94s1,2.3-.07,3.46M216.29,517a5.82,5.82,0,0,1,5.7-2.64c5.06.73,10.21.61,15.22,1.7,3.51.76,7,1.73,10.48,2.47,2.12.44,4.3.64,6.45.91,1,.12,1.91.2,1.91,1.54s.58,3.09-1.28,3.8a4.67,4.67,0,0,0-2.3,1.53,1.79,1.79,0,0,1-1.6.54l-4.06.06c-8.47-.31-16.94-.21-25.41-.61a6.06,6.06,0,0,1-5.42-3.41,5.56,5.56,0,0,1,.31-5.89m-1.48,14.17c1.86-2.7,4.43-3.6,7.59-3.37,8.76.65,17.53.24,26.3.26,1.88,0,3.76.13,5.64.2,1.29,0,1.82.76,2,2,.32,2.8-.1,3.78-2.57,5.11a1.06,1.06,0,0,0-.66,1.27c.25,1.24-.61,1.64-1.51,1.7-2.63.18-5.22.84-7.89.7-8.62-.73-17.28.11-25.91-.86-2-.23-2.68-1.67-3.39-2.86a3.9,3.9,0,0,1,.44-4.16m.4,19.26a1.72,1.72,0,0,1,1.15-.24,127.68,127.68,0,0,0,27.29.22,45.81,45.81,0,0,0,10.09-1.65,5.76,5.76,0,0,1,3.09.18c2.54.59,2.9,2.82.94,4.65-.59.56-1.29.92-1.29,1.93,0,.75-.72.82-1.33.83l-4.94.08c-6.24-.27-12.27,1-18.28,2.51-3.53.9-7.07,1.68-10.51,2.91-4,1.43-6.93-1.88-8-5.83-.88-3.27-.37-4.39,1.78-5.59m-12.66,26a31,31,0,0,1,7.44-7.55,49.46,49.46,0,0,1,7.88-3.82A81.28,81.28,0,0,1,229.66,561a71.1,71.1,0,0,1,20.21-2.79c1.94,0,3.88-.09,5.82-.07.47,0,1.18,0,1.26.69.06.56-.52.74-.91,1a57.68,57.68,0,0,0-7.73,5.73,27.27,27.27,0,0,1-4.93,2.72,86.91,86.91,0,0,1-8.25,4c-1.36.52-2.55,1.45-3.87,2.06-4.51,2.09-9,4.28-13.41,6.53-4.58,2.34-9.44,4.14-13.79,6.94-1.29.83-2.88,1-4.17,1.87-.64.45-.93-.11-.93-.74,0-4.49.84-8.71,3.59-12.45" transform="translate(-195.45 -192.23)"/><path class="cls-2" d="M390.42,327.88c3.91-.12,9.29-3.85,8.51-8.44-.29-7-3.35-8.31-8.84-8.44-4.19-.09-7.3,4.1-7.38,8.4-.06,3.68,3.94,8.59,7.71,8.48m0-15.2c4.2,0,7.06,2.54,7.12,6.54.05,3.68-3.19,6.28-7.25,6.68-2.95.28-5.83-3.34-5.85-6.69,0-2.33,2.54-6.53,6-6.53" transform="translate(-195.45 -192.23)"/><path class="cls-2" d="M335,328.29c4.07,2.22,9.09,1.33,11.36-2.74a8.34,8.34,0,0,1,.94-1.27c2.08-2.52,1.18-6.76-1-8.6-.63-.54-1.43-1-2.14-1.48-3.87-2.86-7.3-2.27-9.44.66-1.56,2.13-2.82,4.47-2.65,7.1s1.27,5.43,2.91,6.33m-1.21-6.12c-.08-4,2.72-7.91,5.7-8s7,3.69,7,6.58c0,3.28-3.7,7.22-7,7-3.61-.22-5.83-1.66-5.74-5.62" transform="translate(-195.45 -192.23)"/><path class="cls-2" d="M286,330.26a6.78,6.78,0,0,0,6.83-1.77c2.39-2.24,3.67-5.84,1.08-10.35-1.55-2.67-5.92-4.25-8.17-3.69-3,.73-4.76,3.33-4.79,7.15a7.65,7.65,0,0,0,.24,2.85c.77,2.61,1.91,4.95,4.81,5.81m-3.65-9.38c.47-3.62,3.43-5.17,6.95-4.17s4.06,3.61,4.29,6.57c.05,1.85-2.65,4.94-4.79,5.48s-3.85-.38-5.09-2.54a8.31,8.31,0,0,1-1.36-5.34" transform="translate(-195.45 -192.23)"/><path class="cls-2" d="M236.71,334.82c2.54-.19,4.61-1.19,5.29-4a7.86,7.86,0,0,0,.24-3c0-2.89-.21-3.83-1.28-5.51-1.48-2.32-3.82-3.53-6-3.13-1.63.3-4.76,3.45-5.06,5.23-.46,2.71-.38,5.28,1.35,7.72a5.76,5.76,0,0,0,5.5,2.69m-3.65-12.36a3.92,3.92,0,0,1,4.21-1c1.82.69,3.41,1.65,3.46,3.94,0,.64.08,1.28.15,2.38a4.12,4.12,0,0,1-2.56,4.77c-2.71,1.19-5.13.31-6.53-2.44-1-1.94-.35-6.17,1.27-7.64" transform="translate(-195.45 -192.23)"/></svg>