<svg id="Layer_1" data-name="Layer 1" xmlns="http://www.w3.org/2000/svg" viewBox="0 0 224.13 336.89"><defs><style>.cls-1{fill:#fff;}.cls-2{fill:#010101;}</style></defs><path class="cls-1" d="M372,253.43c.06-.72.06-1.44.08-2.16a21.58,21.58,0,0,0-.25-5.08c-.3-1.47-1.65-2.13-2.57-1.33-2.66,2.32-2.51,7.38.3,9.6.57.44,1.2.91,2,.55s.43-1,.47-1.58" transform="translate(-192.32 -242.56)"/><path class="cls-1" d="M286.81,365.94c9.89-.69,19.76-.16,29.64.09,5.24.23,10.48.38,15.7.93,1,.1,1.49-.19,1.51-1.25.12-6.17.2-12.35.44-18.51.08-2.06-.65-2.72-2.64-2.74-6-.07-9.85-3.15-12.19-8.56a28.56,28.56,0,0,1-1.16-19.59c1.35-4.85,3.08-9.56,6.21-13.61.65-.84,2.15-1.4.93-2.89-.24-.29.14-.67.48-.65.94,0,1.36-.71,1.95-1.18a12.24,12.24,0,0,1,7.05-2.71c2.47-.13,2.61-.25,2.44-2.78,0-.46-.13-.92-.14-1.37,0-1.55-.8-2-2.31-1.83a30.55,30.55,0,0,1-5.47.42c-6.24-.26-12.47-.07-18.7,0-1.65,0-2.15-.56-2.15-1.93,0-2.63.15-5.26,0-7.88-.18-4.07.32-8.12.25-12.19,0-.89.2-2,1.2-1.94s.94,1.15.81,2c-.06.45-.08.9-.13,1.35a131.8,131.8,0,0,0-.67,17.09c0,1.37.56,1.86,1.93,1.7a49,49,0,0,1,7.23-.66c5.44.13,10.86.39,16.29-.3,2.35-.3,3.71,1,3.84,3.36a34.85,34.85,0,0,1,0,3.54,1.44,1.44,0,0,0,1.38,1.74,15.76,15.76,0,0,1,6.51,3c2,1.46,3.19,3.37,4.63,5.2,2.33,3,3,6.45,3.39,10,.43,4-1.21,7.74-1.72,11.62-.73,5.48-3.81,9.64-7.07,13.75-.67.84-1.77,1.33-2.53,2.12a9.29,9.29,0,0,1-5.31,3c-2.52.29-2.81,1.4-2.49,3.4a4.62,4.62,0,0,1-.06,1.17,128.23,128.23,0,0,0-.71,16.51c0,1.41.42,1.78,1.79,1.75,4.25-.08,8.53-.25,12.76.07,2.13.16,3-.47,3.53-2.33,1.42-4.76,3-9.45,4.32-14.26,1.21-4.53,2.95-8.91,4.16-13.46,1.72-6.44,3.68-12.83,5.46-19.26,1.13-4.1,2.68-8,3.91-12.13,1-3.16,1.62-6.41,2.83-9.54a73.78,73.78,0,0,0,2.74-7.07,37.67,37.67,0,0,1,2.41-6.59,66.23,66.23,0,0,0,4.25-11.32c.45-1.65-.16-2.59-1.91-3.19-3.73-1.27-7.66-.89-11.44-1.72a34.78,34.78,0,0,0-6-.47c-15.78-.63-31.59-.06-47.37-.87-6.51-.33-12.95,1-19.44.76-7.29-.24-14.54.49-21.82.51-4.15,0-8.31.28-12.47.57-3.83.27-7.69.46-11.53.55-2.51.05-4.93,1-7.4.66-2.12-.29-4.14.17-6.21.2-1.68,0-2.3.63-2.77,2.4-1.1,4.2-.09,8.22.6,12.2.47,2.67,1,5.38,1.52,8.06.57,3.15.77,6.36,1.48,9.51.46,2,1.33,4,1.47,6a52.64,52.64,0,0,0,1.35,7.08c.73,3.5,2.08,6.87,3,10.34,2.21,8.05,4.19,16.16,7.37,23.9,1.42,3.45,2,7.17,3.57,10.57a33.63,33.63,0,0,1,2.41,6.63c.39,1.7,1.38,2.41,3.46,2.07A82.87,82.87,0,0,1,273.3,366c4.5-.07,9,.31,13.51,0m-25.2-9.36c-.54.07-.79-.37-1-.79a48.2,48.2,0,0,1-2.54-7.64c-1-3.38-1.85-6.8-2.86-10.17-1.16-3.88-2.32-7.76-3.65-11.58-2-5.61-4-11.24-5.45-16.95-2-8.1-4.13-16.24-4.69-24.65-.09-1.36-.55-2.7-.74-4.06a1.27,1.27,0,0,1,1.09-1.58c.61,0,.83.74.83,1.37,0,5.43,2,10.49,2.77,15.78a104.35,104.35,0,0,0,3.6,15.45c1.53,5.19,3.64,10.24,4.83,15.51s3.7,10.13,4.67,15.55a40.49,40.49,0,0,0,3.4,11,7.79,7.79,0,0,1,.43,1.6c-.06.57-.13,1.07-.7,1.14m5.91-23.74a37.65,37.65,0,0,1,0-17.09c1.19-5.78,4.16-10.52,7.54-15.05,2.17-2.91,5.8-3.52,9.22-4.12a15.93,15.93,0,0,1,6.23,0c4.84,1,7.27,4.54,9.49,8.51a28.83,28.83,0,0,1,3.28,8.35c.72,3.6-.61,7-.76,10.54a23.18,23.18,0,0,1-4.36,12.71c-3.34,4.69-7.73,7.28-14.46,6.56-5,.46-9.61-1.91-13.63-5.79a9.52,9.52,0,0,1-2.53-4.6" transform="translate(-192.32 -242.56)"/><path class="cls-1" d="M323.27,381.28c2.24.42,4.58.3,6.87.53a53.23,53.23,0,0,0,11,.2c.77-.09,1.34-.37,1.28-1.37a39.62,39.62,0,0,1,.72-8.76c.36-2.35.05-2.86-2.31-2.9-2.19,0-4.47-.06-6.56-.22s-4.44-.71-6.63-.87c-8.66-.64-17.34-.85-26-.89-7.16,0-14.29.49-22.36.43-1.5,0-3.93.19-6.36,0-.86-.08-2,0-1.63,1.3.86,3.27.56,6.66,1.17,10,.2,1.09.17,2.37.76,3.22.88,1.26,2.06-.39,3.15-.14a1.3,1.3,0,0,0,.39,0c7.71-.76,15.45-1.12,23.18-1.23s15.6-.67,23.36.79" transform="translate(-192.32 -242.56)"/><path class="cls-1" d="M242.46,447.57c-2,3.56-4.63,6.62-7.09,9.75A119.36,119.36,0,0,1,227,467.56c-2,2.09-3.79,4.51-6,6.38a21.87,21.87,0,0,1-6.66,4c-1.44.5-1.72,1.23-.63,2.45a8.64,8.64,0,0,1,1.74,2.61c.64,1.73,1.57,1.15,2.27.29a20.94,20.94,0,0,1,4.48-3.9c3.7-2.63,6.47-6.36,9.58-9.67,2-2.11,3.76-4.47,5.54-6.79a110.73,110.73,0,0,0,7.6-11.36c3.75-6.41,7.38-12.95,9.55-20.15.83-2.76,1.29-5.62,2.58-8.19-.76-.88-1.34-2-2.24-2.45s-.8.86-1,1.45-.3,1.13-.47,1.7c-1.4,4.83-2.36,9.79-5.24,14.11-2,3.06-3.84,6.3-5.6,9.54" transform="translate(-192.32 -242.56)"/><path class="cls-1" d="M347.81,334.69c3.73-5.72,4.95-12.28,5.83-18.84.11-6.51-2.71-11.55-7.33-15.66-2.52-2.24-5.63-3-9-3.11-3.08-.09-5.92.28-8.12,2.57A47.62,47.62,0,0,0,324.3,306c-2.25,3.3-2.89,7.21-4.24,10.85a19.86,19.86,0,0,0-1.06,7.91c.18,3.58,1.25,6.87,2.25,10.28,2.05,7,10.2,8.85,15.35,7.83,4.75-.93,8.53-4.08,11.21-8.17" transform="translate(-192.32 -242.56)"/><path class="cls-1" d="M312.77,385.4c-2.87.17-5.69-.8-8.58-.27-1.52.27-3.59-.82-4.51.32s0,3.15-.1,4.77c-.08,1.44.6,2,2,2a71.87,71.87,0,0,1,8.42.57c3.93.52,3.93.48,3.88-3.48,0-.91.07-1.83.08-2.75s-.34-1.22-1.18-1.17" transform="translate(-192.32 -242.56)"/><path class="cls-1" d="M261.89,421.51c3,.25,3.48-.46,3.21-3.38a49.3,49.3,0,0,0-1.74-7.46,36.18,36.18,0,0,0-2.29-7.28c-.44-.9-.8-1.23-1.73-.49-3.62,2.88-6.58,6.09-5.22,11.23,1.41,5.34,2.84,6.87,7.77,7.38" transform="translate(-192.32 -242.56)"/><path class="cls-1" d="M265.06,410c1.2,6.51,3.41,12.76,4.64,19.25.76,4,2.61,7.71,3.08,11.81a59.57,59.57,0,0,0,2.56,11.66c1.22,3.78,2.33,7.6,3.55,11.38.72,2.25,2.07,4.32,1.81,6.93a87.4,87.4,0,0,1-1.45,8.71c-.26,1.28,0,1.79,1.45,1.6a39.56,39.56,0,0,1,8.59-.26c3.45.1,5.88.29,8.3.22,5.83-.15,11.66-.46,17.49-.64s11.8-.32,17.7-.46c1,0,1.57-.24,1-1.4-2.17-4.31-2.06-8.86-1.79-13.58.43-7.36,2.95-14.2,4.83-21.16,2.06-7.58,5-14.93,7-22.57,1.49-5.69,2.8-11.43,4.3-17.12.25-1,.28-1.66-.89-1.95a.8.8,0,0,1-.63-1.05c.16-.57.62-.63,1.11-.49,1.38.38,1.31-.66,1.46-1.47.24-1.22-.66-1-1.34-1.06-8.32-.4-16.65-.75-25-1.25-1.58-.1-2.88.78-4.41.69-18.26-1.11-36.51-1.9-54.73.46-2.37.31-2.58.55-1.6,2.83a42.29,42.29,0,0,1,3,8.92m17.61,58c3.08-.75,6.25-.72,9.38-1,6.66-.5,13.33-.83,20-1.33,2.36-.18,4.71,0,7.55-.07a41.63,41.63,0,0,0,7.18-.11c.87-.11,1.44.29,1.45,1.18s-.73,1.09-1.52,1.08c-5.28-.1-10.55-.68-15.83-.43-2.34.11-4.66.67-7,.77-5.81.26-11.63.06-17.43.57a20.23,20.23,0,0,0-3.47.65c-.53.14-1.13.28-1.29-.4s.48-.84,1-1" transform="translate(-192.32 -242.56)"/><path class="cls-1" d="M298.92,332.2a60.8,60.8,0,0,0,2.61-14.05c.56-5.72-1.7-10.62-4.8-15.18-2.15-3.15-4.8-5.57-8.54-5-5.05-.26-9.1,1-12.15,4.45a27.31,27.31,0,0,0-4.83,8.21c-2.75,6.92-4.11,13.95-1.79,21.27a11.08,11.08,0,0,0,3.36,5.42,20.6,20.6,0,0,0,9.69,4.25c6.72,1,14.25-3,16.45-9.38" transform="translate(-192.32 -242.56)"/><path class="cls-1" d="M289.49,486.74c-.21-1.71-1.7-1.06-2.69-1.1s-2.22-.19-2.55,1.43a12.92,12.92,0,0,0,.69,8.19c1.43,3.22,2.86,4.63,6.32,4.75l4.55.14c-1.17-2.23-2.18-4-3.08-5.92-1.17-2.46-2.91-4.65-3.24-7.49" transform="translate(-192.32 -242.56)"/><path class="cls-1" d="M310.7,485.53c-6.22.15-12.43.64-18.66.25-1.25-.09-1.21.35-.77,1.35.79,1.79,1.64,3.54,2.58,5.26,2.28,4.17,4,8.6,8.59,11.16,3,1.67,7.15,1.55,9.44-1,2-2.22,3.53-4.78,5.36-7.09,2.58-3.25,4.19-7.14,7.09-10.25-4.63.31-9.13.19-13.63.29" transform="translate(-192.32 -242.56)"/><path class="cls-1" d="M287.86,501.12c-1.32-.55-2.72-1-3.47-2.4-.16-.31-.45-.56-.78-.37s-.42.67-.17.87c1.34,1.06.4,2-.15,2.88A28.1,28.1,0,0,0,281,506c-2.06,5.13-4.72,10-6.45,15.3A103.81,103.81,0,0,0,270.19,542c-.27,2.36.14,5.25-2.76,6.66-.34.16-.45.77-.68,1.17a32.81,32.81,0,0,0-3.42,8.07,12.11,12.11,0,0,1-1.41,3.45,41.61,41.61,0,0,0-4.63,12c-.34,1.32-.08,2.07.92,1.83,1.74-.17,2.91-.3,4.09-.4a3.13,3.13,0,0,0,2.84-2.12c2.6-5.51,4.22-11.37,6.6-17,3.09-7.26,5.85-14.66,8.6-22.07a58.09,58.09,0,0,0,2.88-9.47c1.4-7.32,2.79-14.65,5.27-21.71.26-.75.05-1-.63-1.32" transform="translate(-192.32 -242.56)"/><path class="cls-1" d="M330.63,488.5a1.31,1.31,0,0,0,0-.39c-.29-1,.71-2.57-1-2.93s-2.84-.24-3.88,1.78a64.61,64.61,0,0,1-6.8,10.46c-.38.47-1.27.84-.81,1.58.36.58,1.16.42,1.81.47,1.53.11,2.42-1.21,3.63-1.59,4.7-1.45,6.64-4.79,7-9.38" transform="translate(-192.32 -242.56)"/><path class="cls-1" d="M329.08,497a17.88,17.88,0,0,1-5.66,3.48c-.91.36-1.12.84-.8,1.81a85.5,85.5,0,0,1,3.07,12.13c1.12,6.44,3.31,12.68,3.3,19.33a7.94,7.94,0,0,0,.95,3.56c2.13,4.19,4.88,8,6.85,12.29,1.57,3.38,3.62,6.48,5.46,9.65,2.33,4,4.39,8.26,7.36,12a3.48,3.48,0,0,0,3.35,1.62c.59-.24,2.05.84,2.25-.87a6,6,0,0,0-.42-2.87c-1.72-4.23-3.37-8.51-5.38-12.6-2.3-4.68-4.1-9.65-7.46-13.76a6.5,6.5,0,0,1-1.65-5c.38-6.85-1.44-13.48-3.16-20-1.78-6.76-3.47-13.57-6.16-20.07-.47-1.15-.86-1.58-1.9-.64" transform="translate(-192.32 -242.56)"/><path class="cls-1" d="M354,422.28a5.3,5.3,0,0,1-2,1c-.76.12-1,.58-.63,1.28,1.64,3.65,2.39,7.58,3.63,11.35a89.78,89.78,0,0,0,3.63,8.23,72.58,72.58,0,0,0,8.06,13.5c1.61,2.21,3.5,4.18,5,6.45a30.33,30.33,0,0,0,5.77,6.59c2.25,1.82,4.18,4,6.73,5.56,3,1.87,5.62,4.44,8.8,6.14.54.29,1,1.09,1.71.64.51-.35.06-1.13.21-1.68.87-3.24-.22-4.84-3.42-6.44-5.61-2.8-9.93-7.56-14.54-11.79-2.8-2.57-4.73-5.88-7-8.86a70.36,70.36,0,0,1-7.6-12,101.76,101.76,0,0,1-7.69-19.44c-.08-.32-.09-.67-.67-.57" transform="translate(-192.32 -242.56)"/><path class="cls-1" d="M345.69,420.66c-.2,1.37.3,1.61,1.54,1.72s2.09-.61,3.16-.79c4.24-.74,7.25-4.25,7.49-9.16a8.37,8.37,0,0,0-2.32-5.52c-1.4-1.44-3.18-2.26-4.72-3.47-.86-.68-1,.22-1.2.87-.58,2.41-1.19,4.82-1.74,7.23-.71,3-1.76,6-2.21,9.12" transform="translate(-192.32 -242.56)"/><path class="cls-1" d="M330.22,542.74c0,.52,0,1,0,1.55.67,7.84,1.17,15.69,1.11,23.56,0,2,.71,2.95,2.71,3.06,1.3.07,2.59.39,3.9.47,3,.19,6,1.08,9.24.67l-16.49-29.51-.5.2" transform="translate(-192.32 -242.56)"/><path class="cls-1" d="M279,542.86c-.63,1.41-.47,3-1.32,4.43-2.47,4.06-3.86,8.63-6,12.85-2,3.93-2.34,8.5-4.53,12.39-.69,1.21-.22,1.83,1.25,1.66a70.48,70.48,0,0,1,9.16-.89c1.07,0,1.42-.36,1.25-1.37-.53-3.12-.24-6.26-.18-9.4a102.55,102.55,0,0,1,1-14.86,35.37,35.37,0,0,0,.65-7.36c-1.21.84-.89,1.82-1.21,2.55" transform="translate(-192.32 -242.56)"/><path class="cls-1" d="M405,494.2c4.21.87,7.07-.54,9-4.38a2.57,2.57,0,0,0,.3-2.26c-.49-.86-1.44-.34-2.16-.21-2.65.48-4.95.14-7-1.91-2.26-2.24-2-7.45.79-9,1-.54,1.74-1.28,2.73-1.89-1.5-1.66-3.25-2.47-5.31-1.7a8.8,8.8,0,0,0-5.95,6.8c-.57,3.37-.2,6.94,2.06,9.71,1.52,1.88,2.86,4.25,5.58,4.81m5.15-1.79c-1.86.78-3.73.35-5.62,0,1.86.35,3.74-.17,5.62,0" transform="translate(-192.32 -242.56)"/><path class="cls-1" d="M213.45,483.74c-1.09-2.05-1.74-4.7-5.07-3.73a.76.76,0,0,1-.67-.32c-.79-1.68-2.51-1.54-3.87-1.8-3.18-.61-5.86.72-8.13,2.86-.62.58-1.11,1.68.26,1.82,1.74.18,3.24,1,4.88,1.4,3,.76,4.9,6,3.33,8.7s-3.27,4.75-6.61,4.77c-.34,0-.86-.12-.94.43s.36.65.64.92a7.32,7.32,0,0,0,2.83,1.31c2.69,1,5.48,1.17,8-.31,4.31-2.52,6.32-6.45,6.16-11.48a10.45,10.45,0,0,0-.8-4.57" transform="translate(-192.32 -242.56)"/><path class="cls-2" d="M252.75,418.92c-.89.35-.73,1.09-.91,1.77-.69,2.59-.84,5.29-1.78,7.83-1.82,4.91-4.45,9.4-7,14a97.55,97.55,0,0,1-8.76,12.9c-2.3,2.94-4.75,5.76-6.88,8.8-1.67,2.38-3.88,4.23-5.78,6.36a20.8,20.8,0,0,1-8.64,6c-1.27.45-2.31,1.58-4,.62-6.05-3.44-13.24-1.85-16.37,4.84a2.2,2.2,0,0,0-.09,2.24c.55.88,1.39.56,2.14.46,3.54-.48,6.13,1.14,8.05,3.87.63.91,1.21,2.37.14,3.29-2.25,1.94-4,5.17-7.89,3.77-1.21-.43-1.6.5-1.3,1.45.65,2.12,1.67,3.9,4.1,4.55a23.32,23.32,0,0,0,6.19,1c6.08,0,10.38-4.05,11.76-9.54a15.08,15.08,0,0,0,.74-6c-.1-.64.3-1,.76-1.48,3.54-3.46,7.91-5.92,11.26-9.64s6.75-7.05,9.68-11c3.21-4.3,5.9-8.94,8.9-13.37s4.83-9.12,7.16-13.7c2.12-4.14,2.44-9.08,4.71-13.27.33-.6-.05-1.86,1.25-1.44s3.17-.68,3.68,1.65c.71,3.18,1.16,6.42,2.18,9.53,1.4,4.24,1.9,8.69,3,13,1,4.12,2.07,8.24,3.05,12.36.7,2.92,1.22,5.88,2,8.78,1.16,4.42,1.73,8.73-1.28,12.72a2.63,2.63,0,0,0,0,3.25c1.17,1.93,3,2,4.85,1.77,1.65-.19,1.73.26,1.21,1.65a13.62,13.62,0,0,0-.78,8.66,2.72,2.72,0,0,1-.27,1.9c-2.82,6.11-5.61,12.24-7.2,18.83-2.07,8.62-4.2,17.21-5.14,26.05-.05.51.06,1.12-.38,1.48-1.54,1.3-1.84,3.35-3,4.89-2.06,2.69-2.39,6.15-3.78,9.15-.68,1.47-1.93,2.74-2.37,4.25a52.3,52.3,0,0,1-2.53,7.39c-1.25,2.74-.34,5.11.4,7.59a2,2,0,0,0,2.15,1.35c2.57.07,5.1-.33,7.66-.39,5-.13,10-1.35,15-.94a2.11,2.11,0,0,0,1.87-.91c.37-.46.67-1,1.32-1.09,1.45-.13,1.55-1.09,1.56-2.24.11-10.3,1.79-20.47,2.7-30.7.47-5.27,1.54-10.48,2.14-15.72.84-7.43,3.66-14.29,5.39-21.45.46-1.89,1.21-2,2.41-.61a14.91,14.91,0,0,0,9.88,4.95,10.6,10.6,0,0,0,5.55-.4,12.19,12.19,0,0,0,5-4.51c.4-.62.9-1.57,1.75-1.39s.82,1.23,1.1,1.94c1.07,2.71,1.13,5.64,1.82,8.43,1.19,4.83,2.57,9.67,3.09,14.59.55,5.13,1.41,10.23,1.8,15.39a246.54,246.54,0,0,1,.77,24.76,11.65,11.65,0,0,0,.72,4.58c.35.93,1,1.39,1.74,1.24,2.4-.51,4.66.28,7,.6,6.22.85,12.53,1.08,18.69,2.42a2.33,2.33,0,0,0,2.5-.7,10.12,10.12,0,0,0,1.51-11.39c-1.41-3.15-2.7-6.43-4.35-9.4-2.74-4.91-4.37-10.34-7.46-15.09a9.5,9.5,0,0,1-2-4.59,102,102,0,0,0-3.37-18.7c-1.9-7.4-3.75-14.86-6.75-21.94a3,3,0,0,1,.23-2.83,9.57,9.57,0,0,0,1.1-6.65c-.2-1.1.1-1.47,1.1-1.49.69,0,1.59-.1,1.64-.78.13-1.62.81-3.41,0-4.86a22.93,22.93,0,0,1-2.6-13.26c.26-2.68.78-5.31,1.26-8,.86-4.77,2.4-9.37,3.64-14,1.37-5.15,3.44-10.11,5.09-15.2.41-1.27,1.49-2.2,1.64-3.53.06-.57-.26-1.14.65-1.28s1.09.69,1.2,1.21a26.66,26.66,0,0,0,.73,3.85c2,5.37,3.65,10.87,6.28,16,2.53,5,5.09,9.81,8.67,14.08,4.23,5,7.89,10.6,13,14.9a101.43,101.43,0,0,0,10,7.5,24,24,0,0,0,5.23,3,3.32,3.32,0,0,1,2.38,2.49c2.28,6.8,7.12,9.42,13.93,8.28,4.2-.7,7.14-5.77,6-9.84-.19-.66-.46-1.3-1.37-.86-2,1-4.11.51-6.19.45a2.42,2.42,0,0,1-1.93-1.11c-1.75-2.3-.78-4.4.41-6.39s3.06-2.06,5-1.82c.49.06,1,.5,1.3-.26.19-.58-.26-.9-.66-1.29-1.54-1.48-3.51-2.13-5.37-3-2.71-1.3-7.44-.44-9.15,1.93-1.5,2.06-2.58,2.23-4.55.7-3.07-2.4-6.41-4.37-9.38-7-3.89-3.46-7.83-6.79-10.81-11.08-2.49-3.58-5-7.11-7.34-10.82-1.93-3.09-3.22-6.39-4.85-9.57-1.84-3.58-2.42-7.62-4.13-11.23a4.87,4.87,0,0,1,.54-5.51c4-5.74,2.31-12.51-4-15.93-1-.56-1.17-.83-.75-1.87a39.56,39.56,0,0,0,1.59-5c.26-1,0-1.87-1.28-1.93-1.83-.08-3.72-.53-5.43-.44-5.68.31-11.27-.49-16.9-.89-3.67-.11-7.35-.15-11-.37-1.42-.08-3.17.64-4.17-.3s-.07-2.77-.45-4.16c-.48-1.76.47-2.26,2-2.22,2.16.07,4.27.52,6.45.52,5.81,0,11.55,1.33,17.38.91,2.2-.16,4.43-.44,5.59-2.58A10.48,10.48,0,0,0,348,378a15.65,15.65,0,0,1,.26-3.3c0-.56.33-1.21.92-1.05,1.8.47,3.23-.71,4.86-.91a4.56,4.56,0,0,0,3.11-2.16c1.6-2.12,1.16-4.83,2.32-7.13,1.25-2.48,1.72-5.33,2.73-7.95,2.61-6.79,4-13.92,6.06-20.86,1.28-4.25,2.51-8.52,3.81-12.76,1.06-3.44,2.42-6.77,3.33-10.26a115.41,115.41,0,0,1,3.57-11c1.86-5.08,3.34-10.3,5.49-15.28,1.54-3.53,2.1-7.38,3.84-10.87,1.66-3.31-.15-8.3-3.24-10.35s-6.69-1.25-10.06-1.58c-1.38-.14-1.78-.39-1.71-1.79.23-4.72.32-9.45.49-14.18a3.79,3.79,0,0,0-6.77-2.51,9.84,9.84,0,0,0-1.72,3.3c-1.52,3.93,1.48,8.45,4.51,9.21,1.6.41,2.08,1,1.84,2.46a10.81,10.81,0,0,0-.13,2c0,1.14-.45,1.49-1.57,1.34-2.14-.29-4.28-.55-6.43-.72q-10-.81-20-1.19c-5.28-.19-10.58-.25-15.87-.65-2.81-.21-5.64-.24-8.46-.17-5.68.15-11.35.43-17,.62-5,.17-10,.1-14.93.47-9.41.72-18.84.74-28.27,1-2.6.08-5.26-.39-7.8.33a41.44,41.44,0,0,1-7.88,1.46,27.33,27.33,0,0,0-8.93,1.81,9.38,9.38,0,0,0-4.53,4.76,10.7,10.7,0,0,0-.48,6c.92,5,2.13,10,2.78,15.05.43,3.3.52,6.71,1.48,9.85,2,6.62,3.07,13.46,4.92,20.11.9,3.24,1.46,6.57,2.12,9.87a88.38,88.38,0,0,0,2.59,9.26c.83,2.62,1.26,5.34,2.36,7.89,1.91,4.44,3.79,8.9,5.33,13.48,1.17,3.46,1.81,7.06,4.4,9.9,1.54,1.7,3.29,2.35,5.37,1.38,1.76-.83,3.55-.56,5.36-.35.42,0,.84.13.76.66-.33,2.27.81,4.35.85,6.58a12.58,12.58,0,0,0,1.4,5.48,2.62,2.62,0,0,0,2.44,1.56c4,.35,7.93-.42,11.89-.69,3.22-.23,6.44-1.1,9.69-.31a3.39,3.39,0,0,0,3.17-.31c.64-.48,1.25-.35,1.21.7-.06,1.51-.1,3-.13,4.53,0,.76-.41,1-1.13,1-3.48-.21-6.93.41-10.39.34a119.6,119.6,0,0,0-26,2.31c-2.52.51-2.94,1.09-2.67,3.64s-.2,5-2.59,6.75a6.44,6.44,0,0,0-2.71,4.21c-.39,3-.42,6,.95,8.88.21.43.6.85-.06,1.1m144.63,60.76a8.8,8.8,0,0,1,5.95-6.8c2.06-.77,3.81,0,5.31,1.7-1,.61-1.75,1.35-2.73,1.89-2.78,1.52-3.05,6.73-.79,9,2.05,2.06,4.35,2.39,7,1.91.72-.13,1.67-.65,2.16.21a2.57,2.57,0,0,1-.3,2.26c-1.89,3.84-4.75,5.25-9,4.38-2.71-.56-4-2.94-5.57-4.81-2.26-2.77-2.63-6.35-2.06-9.71M208.09,499.79c-2.51,1.48-5.3,1.27-8,.31a7.32,7.32,0,0,1-2.83-1.31c-.28-.27-.71-.47-.64-.92s.59-.42.94-.43c3.34,0,5.09-2.18,6.61-4.77s-.32-7.94-3.33-8.7c-1.64-.42-3.14-1.22-4.88-1.4-1.37-.14-.88-1.24-.26-1.82,2.27-2.14,4.95-3.47,8.13-2.86,1.36.26,3.08.12,3.87,1.8a.76.76,0,0,0,.67.32c3.33-1,4,1.68,5.07,3.73a10.45,10.45,0,0,1,.8,4.57c.16,5-1.85,9-6.16,11.48m71.49,47.88a102.55,102.55,0,0,0-1,14.86c-.06,3.14-.36,6.28.18,9.4.17,1-.18,1.39-1.25,1.37a68.77,68.77,0,0,0-9.16.89c-1.47.18-1.94-.45-1.25-1.66,2.19-3.89,2.52-8.46,4.53-12.39,2.16-4.22,3.56-8.79,6-12.85.85-1.39.69-3,1.32-4.43.32-.73,0-1.71,1.21-2.55a35.37,35.37,0,0,1-.65,7.36m8.91-45.23c-2.48,7.06-3.87,14.39-5.26,21.71a60.16,60.16,0,0,1-2.89,9.47c-2.75,7.41-5.51,14.81-8.6,22.07-2.38,5.59-4,11.45-6.6,17a3.13,3.13,0,0,1-2.84,2.12c-1.18.1-2.35.23-4.09.4-1,.24-1.26-.51-.92-1.83a41.61,41.61,0,0,1,4.63-12,12.41,12.41,0,0,0,1.41-3.45,32.81,32.81,0,0,1,3.42-8.07c.23-.4.34-1,.68-1.17,2.9-1.41,2.49-4.3,2.76-6.66a103.81,103.81,0,0,1,4.33-20.71c1.73-5.34,4.39-10.17,6.45-15.3a28.1,28.1,0,0,1,2.32-3.85c.55-.92,1.49-1.82.15-2.88-.25-.2-.12-.69.17-.86s.62.05.78.36c.75,1.4,2.15,1.85,3.47,2.4.68.28.89.57.63,1.32m2.77-2.43c-3.47-.12-4.89-1.53-6.32-4.75a12.93,12.93,0,0,1-.69-8.19c.33-1.62,1.5-1.47,2.55-1.43s2.48-.61,2.69,1.1c.34,2.84,2.07,5,3.24,7.49.9,1.87,1.91,3.69,3.08,5.92l-4.55-.14m26-4.52c-1.83,2.31-3.35,4.87-5.36,7.09-2.29,2.52-6.43,2.64-9.44,1-4.59-2.56-6.31-7-8.59-11.16-.94-1.72-1.79-3.47-2.58-5.26-.44-1-.48-1.44.77-1.35,6.23.39,12.44-.1,18.66-.24,4.5-.11,9,0,13.63-.3-2.9,3.11-4.51,7-7.09,10.25m2.72,4c-.65-.05-1.45.11-1.81-.47-.46-.74.43-1.11.81-1.58a64.61,64.61,0,0,0,6.8-10.46c1-2,2.28-2.11,3.88-1.78s.73,1.93,1,2.93a1.31,1.31,0,0,1,0,.39c-.4,4.59-2.34,7.93-7,9.38-1.21.38-2.1,1.7-3.63,1.59m18,71.91c-1.31-.08-2.6-.4-3.9-.47-2-.11-2.73-1-2.71-3.06.06-7.87-.44-15.72-1.11-23.56,0-.51,0-1,0-1.55l.5-.2,16.49,29.51c-3.25.41-6.23-.48-9.24-.67m-.83-53.66c1.72,6.57,3.54,13.2,3.16,20a6.5,6.5,0,0,0,1.65,5c3.36,4.11,5.16,9.08,7.46,13.76,2,4.09,3.66,8.37,5.38,12.6a6,6,0,0,1,.42,2.87c-.21,1.71-1.66.63-2.25.87a3.48,3.48,0,0,1-3.35-1.62c-3-3.69-5-7.93-7.36-12-1.84-3.17-3.89-6.27-5.46-9.65-2-4.25-4.72-8.1-6.85-12.29a7.94,7.94,0,0,1-.95-3.56c0-6.65-2.18-12.89-3.3-19.33a85.5,85.5,0,0,0-3.07-12.13c-.32-1-.11-1.45.8-1.81a17.88,17.88,0,0,0,5.66-3.48c1-.94,1.43-.51,1.9.64,2.69,6.5,4.38,13.31,6.16,20.07m25.24-75.43a70.36,70.36,0,0,0,7.6,12c2.32,3,4.25,6.29,7,8.86,4.61,4.23,8.93,9,14.54,11.79,3.2,1.6,4.29,3.2,3.42,6.44-.15.55.3,1.33-.21,1.68-.67.45-1.17-.35-1.71-.64-3.18-1.7-5.78-4.27-8.8-6.14-2.55-1.57-4.48-3.74-6.73-5.56a30.33,30.33,0,0,1-5.77-6.59c-1.54-2.27-3.43-4.24-5-6.45a72.58,72.58,0,0,1-8.06-13.5,89.78,89.78,0,0,1-3.63-8.23c-1.24-3.77-2-7.7-3.63-11.35-.32-.7-.13-1.16.63-1.28a5.3,5.3,0,0,0,2-1c.58-.1.59.25.67.57a101.76,101.76,0,0,0,7.69,19.44m-11.54-38.85c1.54,1.21,3.32,2,4.72,3.47a8.37,8.37,0,0,1,2.32,5.52c-.24,4.91-3.25,8.42-7.49,9.16-1.07.18-2,.89-3.16.79s-1.74-.35-1.54-1.72c.45-3.12,1.5-6.07,2.2-9.12.56-2.41,1.17-4.82,1.75-7.23.16-.65.34-1.55,1.2-.87M371.53,255c-.77.36-1.4-.11-2-.55-2.81-2.22-3-7.28-.3-9.6.92-.8,2.27-.14,2.57,1.33a21.58,21.58,0,0,1,.25,5.08c0,.72,0,1.44-.08,2.16,0,.55.2,1.26-.47,1.58M261.22,367.09c-2.08.34-3.07-.37-3.46-2.07a33.63,33.63,0,0,0-2.41-6.63c-1.59-3.4-2.15-7.12-3.57-10.57-3.18-7.74-5.16-15.85-7.37-23.9-.94-3.47-2.29-6.84-3-10.34A52.35,52.35,0,0,1,240,306.5c-.14-2.06-1-4-1.47-6-.71-3.15-.91-6.36-1.48-9.51-.48-2.68-1.05-5.39-1.51-8.06-.7-4-1.71-8-.61-12.2.47-1.77,1.09-2.38,2.77-2.4,2.07,0,4.09-.49,6.21-.2,2.47.33,4.89-.61,7.4-.66,3.84-.09,7.7-.28,11.53-.55,4.16-.29,8.32-.56,12.47-.57,7.28,0,14.53-.75,21.82-.51,6.49.21,12.93-1.09,19.44-.76,15.78.81,31.59.24,47.37.87a34.59,34.59,0,0,1,6,.47c3.79.83,7.72.45,11.45,1.72,1.75.6,2.36,1.54,1.91,3.19a66.23,66.23,0,0,1-4.25,11.32,37.67,37.67,0,0,0-2.41,6.59,73.78,73.78,0,0,1-2.74,7.07c-1.21,3.13-1.87,6.38-2.83,9.54-1.23,4.07-2.78,8-3.91,12.13-1.78,6.43-3.73,12.82-5.46,19.26-1.21,4.55-2.95,8.93-4.16,13.46-1.28,4.81-2.9,9.5-4.32,14.26-.56,1.86-1.4,2.49-3.53,2.33-4.23-.32-8.51-.15-12.76-.07-1.37,0-1.77-.34-1.79-1.75a128.23,128.23,0,0,1,.71-16.51,4.62,4.62,0,0,0,.06-1.17c-.32-2,0-3.11,2.49-3.4a9.29,9.29,0,0,0,5.31-3c.76-.79,1.86-1.28,2.53-2.12,3.26-4.11,6.34-8.27,7.07-13.75.51-3.88,2.15-7.61,1.72-11.62-.38-3.57-1.06-7.06-3.39-10-1.44-1.83-2.66-3.74-4.63-5.2a15.76,15.76,0,0,0-6.51-3,1.44,1.44,0,0,1-1.38-1.74,34.85,34.85,0,0,0,0-3.54c-.13-2.37-1.49-3.66-3.84-3.36-5.43.69-10.85.43-16.29.3a49,49,0,0,0-7.23.66c-1.37.16-1.9-.33-1.93-1.7a131.8,131.8,0,0,1,.67-17.09c.05-.45.07-.9.13-1.35.13-.86.31-2-.81-2s-1.21,1.05-1.2,1.94c.07,4.07-.43,8.12-.25,12.19.12,2.62-.05,5.26,0,7.88,0,1.37.51,1.95,2.16,1.92,6.23-.09,12.46-.28,18.7,0a30.55,30.55,0,0,0,5.47-.42c1.51-.2,2.27.28,2.31,1.83,0,.45.11.91.14,1.37.17,2.53,0,2.65-2.44,2.78a12.19,12.19,0,0,0-7.05,2.72c-.59.46-1,1.22-1.95,1.17-.34,0-.72.36-.48.65,1.22,1.49-.28,2.05-.93,2.89-3.13,4.05-4.86,8.76-6.21,13.61a28.5,28.5,0,0,0,1.16,19.59c2.34,5.41,6.22,8.49,12.19,8.56,2,0,2.72.68,2.64,2.74-.24,6.16-.32,12.34-.44,18.51,0,1.06-.54,1.35-1.51,1.25-5.22-.55-10.46-.7-15.7-.94-9.88-.24-19.75-.77-29.64-.08-4.5.32-9-.06-13.51,0a82.87,82.87,0,0,0-12.08,1.14m60-32.06c-1-3.41-2.07-6.7-2.25-10.28a19.86,19.86,0,0,1,1.06-7.91c1.35-3.64,2-7.55,4.24-10.85a47.62,47.62,0,0,1,4.87-6.34c2.2-2.29,5-2.66,8.12-2.57,3.39.1,6.5.87,9,3.11,4.62,4.11,7.44,9.15,7.33,15.66-.88,6.56-2.1,13.12-5.83,18.84-2.68,4.09-6.46,7.24-11.21,8.17-5.15,1-13.3-.83-15.35-7.83m-44.52,46.69a1.3,1.3,0,0,1-.39,0c-1.09-.25-2.27,1.4-3.15.14-.59-.85-.56-2.13-.76-3.22-.61-3.29-.31-6.68-1.17-10-.33-1.26.77-1.38,1.63-1.3,2.43.21,4.86,0,6.36,0,8.07.06,15.2-.47,22.36-.43,8.69,0,17.37.25,26,.89,2.19.16,4.5.71,6.63.87s4.37.18,6.56.22c2.36,0,2.67.55,2.31,2.9a39.62,39.62,0,0,0-.72,8.76c.06,1-.51,1.28-1.28,1.37a53.23,53.23,0,0,1-11-.2c-2.29-.23-4.63-.11-6.87-.53-7.75-1.46-15.58-.91-23.36-.79s-15.47.47-23.18,1.23M310,392.8a72,72,0,0,0-8.42-.57c-1.39,0-2.07-.57-2-2,.09-1.62-.81-3.63.1-4.77s3-.05,4.51-.32c2.89-.53,5.71.44,8.58.27.84,0,1.2.38,1.19,1.18s-.06,1.83-.09,2.74c.05,4,.05,4-3.88,3.48m-46.3,5.47c18.22-2.36,36.47-1.57,54.73-.46,1.53.1,2.83-.79,4.41-.69,8.32.5,16.65.85,25,1.25.68,0,1.58-.16,1.34,1.06-.15.81-.08,1.86-1.46,1.47-.49-.14-.95-.08-1.11.49a.8.8,0,0,0,.64,1.05c1.16.29,1.13,1,.88,1.95-1.5,5.69-2.81,11.42-4.3,17.12-2,7.64-4.92,15-7,22.57-1.88,7-4.4,13.8-4.83,21.16-.27,4.72-.38,9.27,1.79,13.59.58,1.15,0,1.36-1,1.39-5.9.14-11.8.27-17.7.46s-11.66.49-17.49.64c-2.42.07-4.85-.12-8.3-.22a39.56,39.56,0,0,0-8.59.26c-1.49.19-1.71-.32-1.45-1.6a87.4,87.4,0,0,0,1.45-8.71c.26-2.61-1.09-4.68-1.81-6.93-1.22-3.78-2.33-7.6-3.55-11.38a59.57,59.57,0,0,1-2.56-11.66c-.47-4.1-2.32-7.81-3.08-11.81-1.23-6.49-3.44-12.74-4.64-19.25a42.2,42.2,0,0,0-3-8.91c-1-2.28-.77-2.53,1.6-2.84m-4.35,4.63c.93-.74,1.29-.41,1.73.49a36.18,36.18,0,0,1,2.29,7.28,50.54,50.54,0,0,1,1.74,7.46c.27,2.92-.23,3.63-3.21,3.38-4.93-.51-6.36-2-7.77-7.38-1.36-5.14,1.6-8.35,5.22-11.23m-6,21c.17-.57.26-1.16.47-1.7s.19-1.84,1-1.45,1.48,1.57,2.24,2.45c-1.29,2.56-1.75,5.43-2.58,8.19-2.17,7.2-5.8,13.74-9.55,20.15a110.73,110.73,0,0,1-7.6,11.36c-1.78,2.32-3.57,4.68-5.54,6.79-3.11,3.31-5.88,7-9.58,9.67a20.94,20.94,0,0,0-4.48,3.9c-.7.86-1.63,1.44-2.28-.29a8.43,8.43,0,0,0-1.73-2.61c-1.09-1.22-.81-1.95.63-2.45a21.87,21.87,0,0,0,6.66-4c2.26-1.87,4-4.29,6-6.38a119.36,119.36,0,0,0,8.33-10.24c2.46-3.13,5.14-6.19,7.09-9.75,1.76-3.24,3.56-6.48,5.6-9.55,2.88-4.31,3.84-9.27,5.24-14.1" transform="translate(-192.32 -242.56)"/><path class="cls-2" d="M283.68,343.23c6.73.72,11.12-1.87,14.46-6.56A23.18,23.18,0,0,0,302.5,324c.15-3.52,1.48-6.94.76-10.54a28.55,28.55,0,0,0-3.28-8.35c-2.22-4-4.65-7.47-9.49-8.51a15.93,15.93,0,0,0-6.23,0c-3.42.6-7,1.21-9.22,4.12-3.38,4.53-6.35,9.27-7.54,15.05a37.65,37.65,0,0,0,0,17.09,9.6,9.6,0,0,0,2.53,4.6c4,3.88,8.66,6.25,13.63,5.79m-14.26-11.32c-2.32-7.32-.95-14.35,1.79-21.27a27.31,27.31,0,0,1,4.83-8.21c3-3.43,7.1-4.71,12.15-4.45,3.74-.58,6.39,1.84,8.54,5,3.1,4.56,5.36,9.46,4.8,15.18a60.8,60.8,0,0,1-2.61,14.05c-2.2,6.35-9.73,10.37-16.45,9.38a20.6,20.6,0,0,1-9.69-4.25,11.08,11.08,0,0,1-3.36-5.42" transform="translate(-192.32 -242.56)"/><path class="cls-2" d="M258.48,342.82c-1-5.42-3.47-10.25-4.67-15.55S250.51,317,249,311.76a104.35,104.35,0,0,1-3.6-15.45c-.72-5.29-2.77-10.35-2.77-15.78,0-.63-.22-1.39-.83-1.37a1.26,1.26,0,0,0-1.08,1.58c.18,1.36.64,2.7.73,4.06.56,8.41,2.7,16.55,4.69,24.65,1.4,5.71,3.49,11.34,5.45,16.95,1.33,3.82,2.49,7.7,3.65,11.58,1,3.37,1.86,6.79,2.86,10.17a48.2,48.2,0,0,0,2.54,7.64c.2.42.45.86,1,.79s.63-.57.69-1.14a7.79,7.79,0,0,0-.43-1.6,40.59,40.59,0,0,1-3.4-11" transform="translate(-192.32 -242.56)"/><path class="cls-2" d="M283,469.33a20.23,20.23,0,0,1,3.47-.65c5.8-.51,11.62-.31,17.43-.57,2.34-.1,4.66-.66,7-.77,5.28-.25,10.55.33,15.84.43.78,0,1.52-.08,1.51-1.08s-.58-1.29-1.45-1.18a41.63,41.63,0,0,1-7.18.11c-2.84.09-5.19-.11-7.55.07-6.66.5-13.33.83-20,1.33-3.13.23-6.3.2-9.38,1-.51.12-1.15.28-1,1s.76.54,1.29.4" transform="translate(-192.32 -242.56)"/><path class="cls-2" d="M410.17,492.41c-1.88-.16-3.76.36-5.62,0,1.89.34,3.76.77,5.62,0" transform="translate(-192.32 -242.56)"/></svg>