<svg id="Layer_1" data-name="Layer 1" xmlns="http://www.w3.org/2000/svg" viewBox="0 0 254.84 512.69"><defs><style>.cls-1{fill:#fff;}.cls-2{fill:#010101;}</style></defs><path class="cls-1" d="M383.5,546.64c.18,10,.26,20,.33,30,0,2.28-.12,4.57-.19,6.85.1,2.9.1,5.81.33,8.69.46,5.57-.6,4.92,5.41,4.62,3.89-.2,7.51-1.13,10.4-4.05a15,15,0,0,0,3.59-6c1.22-3.6,3-7,4.5-10.51.4-.94,1.1-2.18-.51-2.64-2.67-.75-4.82-2.63-7.54-3.29a2.78,2.78,0,0,1-2.2-2.62,3,3,0,0,1,2.42-2.93c2.53-.72,5.21-.26,7.69-1.16.61-.22,1.66-.17,1.63-1a2.05,2.05,0,0,0-1.54-1.79c-1.73-.55-3.42-1.25-5.14-1.86-1.05-.37-1.32-.95-1-2.1.51-2,1.51-2.75,4.31-2.27,1.77.3,3.12-.51,4.6-1,1.09-.35,1-.93,0-1.55-2.59-1.73-5.31-3-8.53-2.88a12.13,12.13,0,0,1-4.52-.66c-3.88-1.37-8-1.82-11.77-3.64-1.87-.91-2.32-.26-2.28,1.68" transform="translate(-164.06 -148.02)"/><path class="cls-1" d="M382.06,565.27c.07-1.45.11-2.77-1.93-2.93s-3.06.54-3.25,2.54c-.16,1.6-.34,3.2-.45,4.24s-.09,1.48-.05,1.94a8.75,8.75,0,0,0,3.49,6.39,2,2,0,0,0,1.94.44c.8-.34.11-1.09.21-1.63.66-3.66-.13-7.33,0-11" transform="translate(-164.06 -148.02)"/><path class="cls-1" d="M397.13,380.63c-.05-3.87-.36-4.08-4.23-3.95-.15,0-.3,0-.46,0-1.8-.14-2.35.63-2.25,2.46.54,9.85,1,19.7,1.29,29.57.21,8.11-.25,16.2-.48,24.29q-.45,15.62-.86,31.21c-.19,7.35-1.18,14.65-1,22,.29,15.15.33,30.28-1.43,45.37-.28,2.42-.75,4.82-.82,7.29s1.83,2.19,3,2.63c1.61.59,1.14-1.16,1.52-1.9a4,4,0,0,0,.28-1.56c.61-8.6,1.54-17.18,1.72-25.83.12-5.73-.07-11.49.29-17.17.39-6.05.71-12.14,1.15-18.2.7-9.66.56-19.37,1.23-29.05.73-10.53.92-21.09,1-31.1,1-12.4.18-24.25,0-36.1" transform="translate(-164.06 -148.02)"/><path class="cls-1" d="M170.3,351.63c.59,5.33,0,10.71.74,16,.22,1.65.94,2.27,2.5,2.29,2.06,0,4.13.11,6.19.18v.07c2.14.06,4.29.1,6.43.2,1.43.08,1.9-.41,2-2,.7-9.38,1.76-18.73,2.26-28.12a55.23,55.23,0,0,0-.16-12.12c-.37-2.22-2.14-4-1.68-6.51a18.77,18.77,0,0,0,0-3.89c-.08-2.72-.52-3.21-3.2-2.93-6,.62-9.9,4.37-12.26,9.38a35.54,35.54,0,0,0-3.39,18.94c.29,2.8.29,5.63.6,8.42" transform="translate(-164.06 -148.02)"/><path class="cls-1" d="M318.74,285.11c1.29.95,2.39.18,3.27-1,1.91-2.59,2-5.92,3.55-8.64.55-1-.48-.84-1-1a46.34,46.34,0,0,0-8-.7c-1.49-.13-3.23-.32-5-.45-1.6-.12-2.2.29-1.55,2.12,1.6,4.45,5.16,7,8.7,9.63" transform="translate(-164.06 -148.02)"/><path class="cls-1" d="M319.72,596.8c-.42,1.07.73,1.21,1.34,1.46,3.62,1.54,5.94,4.72,8.6,7.3a44,44,0,0,1,10.48,15.86c1.42,3.71,3.17,7.31,4.34,11.1,1.56,5.09,2.71,10.31,4,15.48a2.1,2.1,0,0,0,2.05,1.79,139.19,139.19,0,0,1,18.19,2.84c1,.49,1.24-.52,1.17-1.92a9.7,9.7,0,0,0-.41-2.91,99.77,99.77,0,0,0-12.12-23.93,104.83,104.83,0,0,0-12.93-15.21c-4.29-4.2-8.74-8.21-14.56-10.34a35.7,35.7,0,0,0-8.11-2.31c-.76-.08-1.72,0-2,.79" transform="translate(-164.06 -148.02)"/><path class="cls-1" d="M342.89,634.81c-2.37-6.41-4.35-12.95-7.89-18.9-3-5.11-7.16-9.23-11.22-13.42a17.88,17.88,0,0,0-4.31-3c-.89-.49-2.11-.91-2.21,1-.3,5.58-.67,11.16-1,16.74-.31,4.73.28,9.49-.36,14.21a50.51,50.51,0,0,0-.24,14.16c.18,1.3.53,2.12,2.07,2.15,8.1.13,16.18.92,23.93,1.49l1.94,0c2.72.05,2.83-.09,2.08-2.66-1.14-3.89-1.33-8-2.75-11.82" transform="translate(-164.06 -148.02)"/><path class="cls-1" d="M317.31,576.85c-.16,6.15.15,12.31.27,19.23,1.71-2.58,3.74-1.83,5.55-1.69,1.57.12,1.94-.38,2-1.84,1.13-16.73,1.29-33.5,1.09-50.24-.23-18.67-.13-37.33,1-55.94.71-11.45,1.52-22.9,2.23-34.35.15-2.41-.23-4.88.63-7.26.41-1.14-.41-.85-1.16-.86-3.19,0-6.44.54-9.56-.59-2.75-1-2.84-1-2.75,1.84.19,6.35.76,12.68,1.05,19,.66,14.06.6,28.14,1,42.21.38,14.53-.4,29.08-.94,43.62-.34,8.94-.21,17.9-.43,26.85" transform="translate(-164.06 -148.02)"/><path class="cls-1" d="M253.54,601.13c0-.63.16-1.94-1.11-1a13.29,13.29,0,0,0-3,3c-3.17,4.52-6.63,8.84-9.13,13.84-1.83,3.67-3.95,7.12-4.92,11.22-1.61,6.79-2.65,13.66-3.75,20.52-.32,2,.17,2.51,2.28,2a141.4,141.4,0,0,1,18.77-2.69c3.36-.27,3.38,0,3.41-3.44,0-.16,0-.31,0-1s0-1.78-.07-2.93c-.59-8.7-1.23-17.39-1.79-26.09-.28-4.5-.43-9-.67-13.51" transform="translate(-164.06 -148.02)"/><path class="cls-1" d="M271.28,409.81c-.92,0-1.83-.12-2.75-.07l-35.45,2c-1.4.08-2.34.48-2.27,2.14.05,1.37-.06,2.74-.12,4.79,0,2.89-.37,6.63,2.32,9.54s5.16,6.16,9.17,7.64c3,1.12,5.9,2,9.06.52a13,13,0,0,1,4.2-1.13c3-.3,5-2.15,6.74-4.31A83.32,83.32,0,0,0,270.27,418a42.38,42.38,0,0,0,2.85-5.21c.91-2.49.66-2.93-1.84-3" transform="translate(-164.06 -148.02)"/><path class="cls-1" d="M286.72,168.17c-.11-.61-.22-1.36-1-1.34s-1.06.77-1.1,1.49a10.81,10.81,0,0,0,.09,1.6,135.1,135.1,0,0,1,.67,13.94c0,2.56-.32,5.25,3.64,5.41a1.08,1.08,0,0,0,.17-.49c-.41-4.63-.77-9.26-1.29-13.87-.25-2.27-.79-4.5-1.2-6.74" transform="translate(-164.06 -148.02)"/><path class="cls-1" d="M302.29,412.21c.42,1.54.66,3.13,1,4.7,1.91,9,4.35,17.56,13.27,22.62a17.81,17.81,0,0,0,8.54,2.52c5.55.2,10.78-1.2,14.41-5.2,3.49-3.83,6.48-8.43,6-14.21l0-1.15c.15-6.31-.41-8.22-6.79-8.17a140.45,140.45,0,0,1-17.62-1.1c-5.84-.7-11.84.66-17.55-1.52-1.13-.42-1.68.19-1.31,1.51" transform="translate(-164.06 -148.02)"/><path class="cls-1" d="M289.23,158.61c.12-2.38-2.68-6-4.61-6.1a6.65,6.65,0,0,0-6.84,6.5c0,2.56,2.86,5.2,5.82,5.32,3.41.78,5.49-2.94,5.63-5.72" transform="translate(-164.06 -148.02)"/><path class="cls-1" d="M359.51,248.52c2.57,1,3.7.53,4-2.36.44-4.63.43-9.3,1.06-13.91a19.55,19.55,0,0,0,.05-2.29c-.18-2-1.5-2.84-3.91-3-2.21-.11-1.71,1.55-1.84,2.67-.68,5.62-.36,11.28-.51,16.93a1.69,1.69,0,0,0,1.17,1.92" transform="translate(-164.06 -148.02)"/><path class="cls-1" d="M184.19,445.43c.19-6.88,1.27-13.78.91-20.62-.49-9,.29-17.9.36-29.86-.14-4.18.35-11.36.6-18.55.09-2.82-2-1.84-3.31-2.24-1.85-.55-1.61,1-1.67,1.91-.29,4.28-.59,8.56-.64,12.84-.16,11.4-.11,22.79-.29,34.19-.13,7.7-.64,15.39-.76,23.1-.16,10.24-1.22,20.43-1.34,30.68-.09,7-.49,14.06-.53,21.1,0,7.33.27,14.66,0,22a132.39,132.39,0,0,0,.85,19.49c.08.69-.16,1.79.93,1.8a36.6,36.6,0,0,0,5-.37c.76-.1.8-.82.79-1.46-.07-3.29,0-6.58-.24-9.86-.84-12.51-1.61-25-1.63-37.56,0-15.53.53-31.06,1-46.59" transform="translate(-164.06 -148.02)"/><path class="cls-1" d="M273.17,196.71l18.38-.64c2.44.08,5,.18,7.48.21.89,0,1.67-.3,1.67-1.44,0-.82-.43-1.43-1.21-1.35-3.53.35-6.9-1.05-10.37-.91-5.41.21-10.82-.15-16.23.31-1.51.14-2.22.36-2.19,2.05,0,1.88,1.18,1.82,2.47,1.77" transform="translate(-164.06 -148.02)"/><path class="cls-1" d="M199.68,187c.11-2-.74-3.37-2.13-3.5a4,4,0,0,0-4,3.69c-.07,1.12,2.07,4.22,3,4.3,1.45.12,3-2.1,3.12-4.49" transform="translate(-164.06 -148.02)"/><path class="cls-1" d="M371.62,342l2.28.06c1.75-.16,3.78.36,5.16-.58,1.66-1.12.44-3.23.55-4.91,0-.15.07-.29.08-.44.39-4.18.39-4.18-3.63-3.7-6.63.8-6.58.8-6.51,7.25,0,1.57.57,2.27,2.07,2.32" transform="translate(-164.06 -148.02)"/><path class="cls-1" d="M371.34,236.87a2.08,2.08,0,0,0,2.1-1.67c.07-1.44,0-2.31-.94-2.69-.54-.22-3.05,2.11-3.05,2.8,0,1.26,1.09,1.57,1.89,1.56" transform="translate(-164.06 -148.02)"/><path class="cls-1" d="M196.16,236c-.91,0-1.5,1.18-1.5,2.23,0,.8.38,1.51,1.32,1.49s1.16-.78,1.11-1.76c-.31-.58.33-2-.93-2" transform="translate(-164.06 -148.02)"/><path class="cls-1" d="M239.9,613.2c2.72-4.37,5.6-8.63,8.41-12.94-2,.59-3.92,1-5.73,1.75a27,27,0,0,0-11.29,7.89c-2,2.53-4.38,4.79-6.48,7.23a132.21,132.21,0,0,0-9.67,13.31c-4.58,6.87-6.24,14.82-7.5,22.85-.3,1.91.18,2.12,2,1.75,6.06-1.21,12.16-2.2,18.26-3.15,1.24-.19,1.71-.54,1.75-1.8a109.18,109.18,0,0,1,2.5-17.7,57.76,57.76,0,0,1,7.71-19.19" transform="translate(-164.06 -148.02)"/><path class="cls-1" d="M210.38,231.18c-.31-1.4,0-3.08-.66-4.23-1-1.67-2.59,0-3.92,0-2.81,0-4.16,1.47-4.18,4.73.71,3.74,0,8,.48,12.31.21,2,.52,3.83,2.6,4.73,2.31,1,4.47.48,6.57-.68a1.22,1.22,0,0,0,.56-1.57c-1.27-5-.31-10.23-1.45-15.26" transform="translate(-164.06 -148.02)"/><path class="cls-1" d="M258,450.92c.47-4.09.63-8.23.84-12.35,0-.85.19-2.44-1.48-1.55-3.19,1.69-6.68,2-10.14,2.37-1.54.16-2.11.6-2,2.19.13,2.9,0,5.82.1,8.72.69,15.15-.11,30.3,0,45.46.06,8.58-1,17.1-1.24,25.67-.33,14-.76,28-.57,42,.09,7-.37,14.07-.58,21.1.58,4.23.17,8.43-.15,12.63-.11,1.48.31,2,1.8,1.41a24.51,24.51,0,0,1,6.63-1.7c1.7-.2,2.16-1.11,2.07-2.8-.28-5.43-.68-10.88-.51-16.3.73-23.19.54-46.41,1.67-69.59.92-19.11,1.4-38.25,3.59-57.29" transform="translate(-164.06 -148.02)"/><path class="cls-1" d="M276,296.07c5.12-.1,10.24,0,15.35-.29,6.08-.3,12.08,1.12,18.23.15,4.42-.7,9-.51,13.41-1.47,4.89-1.07,9.42-3,13.07-6.59,2.95-2.9,2.56-6.7,2.9-10.32a10.18,10.18,0,0,1,.1-2.29c.94-3.39-.93-6.19-1.84-9.19-.23-.73-.93-.89-1.62-1.1-7.41-2.22-15.11-1.82-22.68-2.42a138.75,138.75,0,0,0-16.57-.21c-5.63.23-11.3-.25-16.91.13-9.92.67-19.88.07-29.79,1-6.08.59-12.23.46-18.27,1.56-1.58.29-2.53.88-2.28,2.72.57,4.16.93,8.36,1.61,12.5a10.46,10.46,0,0,0,6.22,7.72c5.87,2.67,11.86,5.12,18.41,6.1,4.85.73,9.61,1.67,14.53,1,.51-.07,1.24-.15,1.55.13,1.39,1.26,3,.85,4.58.82m-6.06-14.19a48.16,48.16,0,0,1-3-5.33c-3.28,1.85-5.34,4.76-7.43,7.66-.89,1.23-2.08,2.26-2.92,3.53-1.13,1.69-1.92,1.17-3-.07-1.38-1.63-2.21-3.6-3.56-5.27a39.76,39.76,0,0,0-7.19-7.3,1.65,1.65,0,0,1-.87-1.74c.17-.71.77-.61,1.31-.57,7.74.61,15.41-.63,23.12-.92,8.94-.34,17.88-.45,26.82-.59,9.17-.14,18.33-.19,27.48.5,2.58.19,5.16.51,7.75.68a1.45,1.45,0,0,1,1.47,1.16c.17.58.36,1.17-.31,1.64-3.3,2.29-4,6.18-5.7,9.45a14.13,14.13,0,0,1-1.31,2.39c-1.42,1.72-2.9,1.63-4.73.38a38.84,38.84,0,0,1-8-7.41,34.19,34.19,0,0,1-2-3.36c-1.72,2.4-3.74,4.08-5.23,6.35-1.25,1.92-3.7,3.08-5.69,4.47-.58.41-1.3.05-1.87-.46-3.25-3-6.74-5.7-8.88-9.7-.28-.54-.56-1.48-1.37-1.33s-.91,1-1.17,1.6c-1.47,3.58-2.52,7.34-4.79,10.59-1,1.43-1.7,1.51-3.12.56-2.62-1.78-4.05-4.5-5.84-6.91" transform="translate(-164.06 -148.02)"/><path class="cls-1" d="M263.65,273.59c-3,.18-6.08.4-9.12.61l0-.25c-2.35.26-4.69.54-7,.79-1.36.14-1.5.92-.54,1.56,3.2,2.16,4.45,5.89,7.09,8.49.93.91,1.39.83,2.13-.15,2.52-3.33,4.93-6.77,8.17-9.47.4-.33,1-.66.76-1.28s-.95-.32-1.43-.3" transform="translate(-164.06 -148.02)"/><path class="cls-1" d="M295.78,300.58c-4.31-.2-4.24-.22-3.1,3.9.25.91.6,1.07,1.34,1.09,1.6,0,3.2.09,4.8.14h0l4.79.14c.6,0,1.2.1,1.56-.62.71-1.43-.93-4.3-2.54-4.37-2.28-.1-4.57-.17-6.85-.27" transform="translate(-164.06 -148.02)"/><path class="cls-1" d="M275.47,285.38c1.34,1,1.88.74,2.62-.5a52,52,0,0,0,3.86-8.29c1.18-3.17,1.23-3.15-2.17-2.79-3.2-.09-6.41-.16-9.61-.3-1.31-.05-1.78.54-1.25,1.64,1.77,3.67,3,7.66,6.55,10.24" transform="translate(-164.06 -148.02)"/><path class="cls-1" d="M287.88,300.57a37.48,37.48,0,0,1-8.47.06c-3.65-.4-3.86-.15-3.46,3.47.14,1.3.58,1.93,2,1.79s3.06-.07,4.59-.09v0c1.91,0,3.82-.11,5.73-.08,2.68,0,1.75-1.84,1.79-3.23.05-1.56-.48-2.15-2.19-1.94" transform="translate(-164.06 -148.02)"/><path class="cls-1" d="M168.78,549.34c0,4.9.58,9.78.16,15.92.24,6.78.36,14.81.88,22.82a30.52,30.52,0,0,0,5,14.08c2.51,4,5,8.13,9.24,10.84,3,1.91,5.92,3.43,9.49,3.28a3.1,3.1,0,0,0,3.19-2.74,66.71,66.71,0,0,0,.67-16.7c-.29-2.8.25-3.46,3-4.58a8.85,8.85,0,0,0,5.48-5.44,48.84,48.84,0,0,0,1.61-8.52c.29-1.82-.51-2.63-2.1-2.84-2.42-.33-4.85-.78-7.29-.08-1.51.44-2.36-.24-2.71-1.65a15.6,15.6,0,0,1-.48-2.7c-.49-8-.94-16-1.4-24-.06-1.09.11-2-1.62-2.06-7-.07-13.83,1-20.74,1.64-1.84.17-2.38,1-2.38,2.77" transform="translate(-164.06 -148.02)"/><path class="cls-1" d="M196.63,339.63c.69,0,1.36.17,2,.26a45.46,45.46,0,0,0,4.81.15c1.3,0,2-.47,2.13-1.79q.34-4.68.7-9.34c.07-.82-.5-1.36-1.05-1.06-2.14,1.12-4.35-.14-6.5.43-1.92.5-4.68-.84-5.74.72s-.4,4-.47,6.06c-.15,4.32-.14,4.31,4.08,4.57" transform="translate(-164.06 -148.02)"/><path class="cls-1" d="M226.11,242.17a4.11,4.11,0,0,0,3.77,2.1c1.72.12,1.49-1.36,2-2.29,1.42-2.53,1.47-5.29,1.44-8,0-3.14-.27-6.27-.45-10.23.1-1.16.23-3.14.43-5.11a4.94,4.94,0,0,1,3.36-4.23c3.71-1.58,6.88-.38,9.81,1.83,1.57,1.18,2.79.93,3.28-1,.27-1,.4-2.11.65-3.15.8-3.32,2.28-4.16,5.53-3.18a7.41,7.41,0,0,1,2.47,1.18c1.56,1.2,2.84.89,3.82-.88a7,7,0,0,0,1-2.07c.31-1.84,1.44-2.11,3-1.81,2.76.54,5.14.12,6.85-2.41.72-1.06,2.17-2.11,1.22-3.34s-2.76-1.08-4.26-.51c-.62.23-1.08.72-1.87.69a175.55,175.55,0,0,0-20.76.77c-7.92.65-15.41,3-23,5.16-2.69.79-3.69,2.5-3.78,5.4-.14,4.55.85,9,1,13.5a37.64,37.64,0,0,0,4.48,17.59" transform="translate(-164.06 -148.02)"/><path class="cls-1" d="M211.32,386.69a7.66,7.66,0,0,0,5.24,3.95c7.72,2.1,15.68,2.65,23.58,2.89,13.35.42,26.67.83,39.95,2.29,4.71.51,9.5,1.22,14.18.87s9.18,1.19,13.9-.35c2.83-.92,6.21-.2,9.34-.13,6,.14,12.08.35,18.11.53,0-.13,0-.25,0-.37l18.55.55a5.25,5.25,0,0,0,4.64-2.45c2.89-4,4-8.5,4.47-13.29,1-11.59,1.92-23.18,2.34-34.82a3.64,3.64,0,0,1,.42-2.2c2.53-3.49,1.5-7.51.3-10.75a16.39,16.39,0,0,1-.94-7.17c.39-5.91-1.8-10.27-6.32-11.95a51.16,51.16,0,0,0-15.66-3.06c-8-.38-16.06-.41-24.07-1.08-2.59-.22-5.41-1.47-7.83.76-.22.21-.74.11-1.12.1-12.38-.25-24.75-1.17-37.15-.28a58.92,58.92,0,0,1-10.08-.5c-4.28-.44-8.69-.28-13.05-.42a144.6,144.6,0,0,0-27.67,1.55c-3.61.58-7.14,1.67-9.61,5.06-3,4.11-4,8.84-4.3,13.54-.74,13.46-1.07,27-1.26,40.43a33.18,33.18,0,0,0,4,16.3" transform="translate(-164.06 -148.02)"/><path class="cls-1" d="M255.23,242.29a14.72,14.72,0,0,0,3.68.64,8.87,8.87,0,0,0,5-1.14,3.77,3.77,0,0,0,1.75-5.54,6.06,6.06,0,0,0-8.85-2.42,21,21,0,0,0-2.64,2.19c-2.36,2.16-1.85,5.09,1.06,6.27" transform="translate(-164.06 -148.02)"/><path class="cls-1" d="M303.56,247.89a22.16,22.16,0,0,0,4,1.59c5,1.59,9.83,1.64,14.43-1.46,3.75-2.52,4.6-6.5,4.92-10.37a12.28,12.28,0,0,0-4.55-10.45,11.47,11.47,0,0,0-8.12-3c-2,0-4-1-6,.27a32.11,32.11,0,0,0-7.14,6c-1.86,2.17-2.65,4.57-2.66,8.33-.63,3.54,1,6.88,5.09,9.1m8.86-16.74c3.41,0,7.67,4.39,7.51,7.65-.18,3.66-4,6.95-8,6.85-3.19-.09-6.61-3.65-6.51-6.78.12-3.94,3.6-7.77,7-7.72" transform="translate(-164.06 -148.02)"/><path class="cls-1" d="M312.38,243.23c3.16.14,4.94-1.24,5.09-3.93a5.88,5.88,0,0,0-5.47-6c-1.74,0-3.94,2.87-4.08,5.38-.16,2.76,1.44,4.37,4.46,4.5" transform="translate(-164.06 -148.02)"/><path class="cls-1" d="M258.55,252c4,.32,6.74-.56,9-2.6a18,18,0,0,0,6-15.84c-.36-3.46-4.15-7.84-7.39-8.2-4.24-.47-8.54.62-12.79-.28-.18,0-.4.21-.61.28-4.36,1.49-9.09,7.84-9.38,12.58-.13,2.17-.15,4.43,1.26,6.15,3.81,4.71,8.23,8.48,13.94,7.91M256.5,231.3a9.62,9.62,0,0,1,7.66.78,6.66,6.66,0,0,1,4,7.3c-.28,1.91-3.76,5.16-6,5.45a14.82,14.82,0,0,1-4.49.21c-2.08,0-4-.14-5.42-1.95-2.94-3.85-.56-10.17,4.25-11.79" transform="translate(-164.06 -148.02)"/><path class="cls-1" d="M293.22,282.64c2.45,2.53,3.66,2.47,6.41.16,2.49-2.08,4-4.91,6.08-7.35.4-.47,1.26-.93.81-1.7-.31-.55-1.11-.45-1.69-.45-5.86,0-11.72.08-18,.13,1.21,1.57.74,3.5,2,4.56a57.83,57.83,0,0,1,4.36,4.65" transform="translate(-164.06 -148.02)"/><path class="cls-1" d="M384,370.37c0,1.57.68,2.36,2.38,2.33,2.29-.05,4.58.11,6.88.17a66.62,66.62,0,0,0,8.71,0c.91-.08,1.65-.23,1.8-1.33.22-1.64.61-3.27.7-4.92.33-6.73.58-13.46.87-20.19.12-2.89.7-5.72.53-8.66-.35-6-3.55-10.95-5.89-16.2a3.64,3.64,0,0,0-2.41-2.31,33.89,33.89,0,0,0-13.82-.48c-.66.13-.8.54-.93,1.11-.93,4-.77,8.23-.74,12.25.1,12.75,2.2,25.43,1.92,38.22" transform="translate(-164.06 -148.02)"/><path class="cls-1" d="M252.78,261.72c6.44-.58,12.89-.77,19.33-1.13,6.95-.38,13.91,0,20.85-.25,15.85-.5,31.64,0,47.32,2.48,4.49.71,11.05-2.38,11.77-7,.59-3.83,1.56-7.67,1.46-11.59-.15-5.53.11-11,.48-16.53.36-5.31.27-10.51-2-15.49-.58-1.31-.43-3-1.47-4.06a21.45,21.45,0,0,0-10.77-6c-3.55-.83-7.27-.92-10.89-1.51-9.32-1.53-18.76-.13-28.16-1.81-7.94-1.42-16.22-.41-25-.09,1,.48,1.89.27,1.23,1.58a20.51,20.51,0,0,1-3.19,4.69c-1.63,1.81-3.5,3.8-6.52,2.31a1.68,1.68,0,0,0-2.27,1c-.41.82-.85,1.63-1.2,2.47-1.15,2.71-3.8,3.32-6,1.34a5.94,5.94,0,0,0-1.91-1.24c-2.18-.85-2.71-.57-3.1,1.7a36.53,36.53,0,0,1-.64,3.62,4.25,4.25,0,0,1-7,2,10.54,10.54,0,0,0-3.73-2.59c-2.89-.88-5.58,1.4-5.86,5.06a70.7,70.7,0,0,0,.05,9.87c.29,4.66.35,9.34-2.37,13.54-1.34,2.09-5.34,2.89-7.29,1.25a13.24,13.24,0,0,1-4.37-7.39,145.55,145.55,0,0,1-3-23.16c-.06-1.52.11-3.06.14-4.59,0-.45,0-1-.53-1.15a.75.75,0,0,0-.94.46c-1,2.6-3,4.76-3.21,7.77-.3,3.72.7,7.28,1.09,10.87.79,7.29.67,14.68,2.33,21.87a1.61,1.61,0,0,1-.05,1.13c-1.63,2.44-.4,4.64.46,6.9s7,6.18,9.45,5.93a1.87,1.87,0,0,0,.65-.19c3-1.44,6.19-1.55,9.35-1.7,5.18-.24,10.4.06,15.55-.4m45.51-31.09c1.83-3.15,4.89-4.69,7.18-7.17a5.71,5.71,0,0,1,4.28-1.36c5.59,0,11.17-.06,15.38,4.71s5.29,9.79,3.19,15.84-9.87,11.08-15.49,10.14a23.72,23.72,0,0,1-11.29-3.8,10.84,10.84,0,0,1-5.46-8.36,15.13,15.13,0,0,1,2.21-10m-55.87,1a14.74,14.74,0,0,1,5.62-6.16c.33-.19.83-.31,1-.6,1.58-3.58,4.42-2.41,7.07-1.91,2.28.43,4.55-.09,6.82-.15a13.05,13.05,0,0,1,11.72,7.16,17.55,17.55,0,0,1-5,20.34c-3.16,2.66-6.89,3.6-11,4.14-4.38-1.2-9-1.86-12.57-5.49-5.1-5.12-6.75-10.84-3.54-17.33" transform="translate(-164.06 -148.02)"/><path class="cls-2" d="M167.12,370.77a3.11,3.11,0,0,0,3.17,2.93,28.9,28.9,0,0,0,6.17.2c1.75-.23,2.73.1,2.64,2.44-.38,9.64-.86,19.28-.6,28.93.38,14.33-.14,28.65-.59,43-.42,13.24-1.68,26.46-1.73,39.71-.07,17.22.12,34.44.25,51.66,0,1.43-.42,2.18-1.87,2.28-2.13.16-4.26.41-6.39.5-2.88.13-4.16,1.49-4.11,4.38.11,5.35.19,10.7.19,16,0,8.19.09,16.37.55,24.55a23.43,23.43,0,0,0,1.09,6.52c1.77,5,3.62,9.89,6.91,14.3s7,8.16,12.1,10.6c4.08,2,8.29.53,12.42,1,1.62.17.94-2.16,2.26-2.52.21-.06.35-.32.55-.41A1.77,1.77,0,0,0,201.2,615c.23-5.89,1.23-11.74.91-17.66a2.46,2.46,0,0,1,1.47-2.56,16.8,16.8,0,0,0,5.37-5.14c3.11-4.31,2.53-9.66,3.76-14.5.21-.83-.51-1.15-1.14-1.5a23.59,23.59,0,0,0-9.82-3c-2-.15-2.45-.91-2.51-2.61-.27-7.64-.59-15.28-.87-22.92a3.51,3.51,0,0,0-1.2-3c-2.74-2.46-5.85-2.25-9-1.75-1.33.21-1.65-.06-1.59-1.29a117.15,117.15,0,0,0-.09-13.77c-.44-6-.24-12-.62-17.89-.47-7.25-.86-14.47-.67-21.73.24-9.31.34-18.63.63-27.94.31-10.24.45-20.48,1.26-30.7.53-6.86-.35-13.77.15-20.66.75-10.3.37-20.66,1.4-31,.13-1.25.3-1.85,1.78-1.9,1.26,0,2.58-.59,2.58-2.35A151.62,151.62,0,0,1,195.1,348c.49-3.26.71-3.55,4.08-3.15.83.1,1.67.18,2.51.25s1.3.52,1.17,1.52c-.77,5.79.08,11.59,0,17.39-.12,5.42,1.13,10.78.67,16.21-.05.58,0,1.15.69,1.26,1.24.21.92,1.21,1.12,2,.75,2.71,1.22,5.66,2.94,7.86,2.85,3.63,6.86,5.38,11.52,5.72,6.41.45,12.84.68,19.25,1.06,10.16.6,20.34.76,30.52,1,1.61,0,2.31.4,2.29,2.2,0,3.1.09,3.1-3.14,3.27-.54,0-1.07,0-1.61,0-13,.15-25.92,1.91-38.91,2.44a2.58,2.58,0,0,0-2.67,2.32c-1.31,9.34-1.3,18.43,5.73,25.91,2.28,2.43,4.38,5.16,7.72,6.29,1,.35.85,1.13.84,1.87-.08,5.82.17,11.64.38,17.43.49,13.7.18,27.39.24,41.09,0,5.28-1,10.51-1.14,15.77-.34,13.16-.74,26.3-.59,39.48.15,13.53-.64,27.08-1,40.62,0,.54,0,1.12-.63,1.32-3.57,1.09-6,3.74-8.57,6.22a96.29,96.29,0,0,0-12.06,14.12c-2.72,3.87-5.33,7.9-7.76,12-3.93,6.68-4.61,14-6.1,21.21a29.9,29.9,0,0,0-.28,4.35c0,.62-.08,1.4.53,1.65,2,.85,3.77,3.15,6.4,1.4a4.48,4.48,0,0,1,1.55-.4c6.76-1.18,13.52-2.38,20.29-3.51,6.55-1.09,13.12-2.06,19.74-2.64,2.23-.2,4.53,0,6.71-1s3.3-2.38,3.17-4.87c-.12-2.14-.2-4.28-.34-6.42-.35-5.65-.34-11.33-.74-17-.84-11.68-1.44-23.38-1.66-35.06-.27-14.7.4-29.41.53-44.12.13-13.85-.16-27.7,1.14-41.51.69-7.4.88-14.82,1.17-22.25.45-11.7,1.35-23.38,2.38-35.05a35.68,35.68,0,0,1,4.16-13.6c.88-1.67,2.23-3.06,3.21-4.71,1.83-3.05,3-6.49,5.6-9.11a9.68,9.68,0,0,0,2.72-7.12c0-1.73.59-2.24,2.3-2.14,4.89.28,9.78.45,14.67.55,1.22,0,1.5.44,1.67,1.57.66,4.44,1.33,8.89,2.27,13.27.62,2.9,2.07,5.59,2.9,8.41C304,438,307,441,310.88,443.32a2.33,2.33,0,0,1,1.25,2.4c0,3.44-.15,6.91.16,10.33,1.34,14.72.73,29.51,1.58,44.25.64,11,.05,22-.28,33-.35,11.62-.65,23.23-1,34.85-.35,10.79.49,21.57-.06,32.35-.33,6.49-1.08,13-1.13,19.47-.08,9.57-1.35,19-1.65,28.58-.08,2.87.11,3.1,3,3.65,2.29.44,4.53.13,6.79.3,9.61.71,19.23,1.26,28.82,2.16,6,.56,12.09.56,17.78,3a6.4,6.4,0,0,0,6.18-.91,8,8,0,0,0,2.89-5.6,17.34,17.34,0,0,0-1.7-6.84c-2.08-4.88-3.47-10.08-6.43-14.58-2.09-3.17-4-6.45-6-9.67s-4.58-5.81-6.8-8.72a54.76,54.76,0,0,0-8.11-8.3c-3.78-3.19-7.49-6.38-12.05-8.45-2.08-.94-3.63-2.07-3.59-4.91s.77-5.75.92-8.64c.5-9.48.21-19,0-28.45-.21-11.66-.43-23.32-.6-35-.08-5.73.73-11.42.58-17.17-.15-5.31.76-10.6.77-15.94,0-4.61,1.25-9.15,1.14-13.84-.15-6.57,1.34-13.08,1.16-19.68-.05-1.66-.08-3.23,2.35-3.11.77,0,1.29-.76,1.78-1.35.84-1,1.53-2.11,2.45-3a28.38,28.38,0,0,0,8.43-15.73,38.48,38.48,0,0,0-1.24-16.08c-.36-1.35-.89-3.32-3.1-3.43-11.3-.54-22.6-1.12-33.91-1.65-1.35-.07-1.86-.47-1.18-1.81a3.71,3.71,0,0,0,.46-1.53c0-2.39,1.29-2.79,3.42-2.73,13.47.44,26.94.71,40.41,1.16a7.79,7.79,0,0,0,6.15-2.47c1.33-1.35,2.52-2.84,3.81-4.23,3.87-4.16,4.12-9.56,4.31-14.63.4-10.93,2.19-21.82,1.09-32.79-.08-.83,0-1.54,1.15-1.53a21.75,21.75,0,0,0,5.2-.74c1.37-.31,2,0,2.09,1.67.43,7.87.37,15.77,1,23.61.49,5.93.5,7.65,7.62,6.55l.22,0c1.23-.29,1.64.22,1.6,1.44a61,61,0,0,0,0,6.2,412.35,412.35,0,0,1,.87,41.3c-.39,12.17-.94,24.33-1,36.51,0,9.77-1.45,19.48-1.27,29.3.16,9.31.21,18.66-.55,28a161.67,161.67,0,0,1-1.78,16.89c-.31,1.64-.32,3.81-3.23,3.86-2,0-3.22,1.38-3.25,3.85-.05,3.66-.66,7.31-.15,11,.19,1.45,0,2.36-2,2.32a5.89,5.89,0,0,0-6.41,5.24c-.22,1.13-.4,2.26-.61,3.39a12.9,12.9,0,0,0,5,13.24c2.83,2.11,3.41,4.31,3.42,7.27a34.85,34.85,0,0,1,.06,3.68c-.36,3.3,1.16,6.26,1.55,9.42a1.39,1.39,0,0,0,1,1.17,20.57,20.57,0,0,0,7.59,1.22c5.7-.09,9.34-4.52,14.29-6.08.25-.08.42-.43.62-.65a29.39,29.39,0,0,0,5.94-9.46c1.6-4.34,3.82-8.48,5.43-12.86.52-1.42.92-2.44-1.22-2.7a2.46,2.46,0,0,1-2.08-1.91c-.12-1,1.08-1.25,1.81-1.47a12,12,0,0,0,3.1-1.89,2.45,2.45,0,0,0,.06-4c-.84-.66-1.74-1.25-2.6-1.89-.36-.26-.88-.47-.82-1s.68-.82,1.18-.91a7.6,7.6,0,0,0,3.55-2c2.55-2.16,2.46-3.26-.32-5-1.73-1.1-3.94-1.84-5.1-3.37s-2.65-1.81-4.25-2.16c-4-.88-8.21-.79-12.25-1.7-1.44-.32-1.64-.94-1.57-2.19.53-9.86,1.11-19.72,1.49-29.58s.48-19.59.84-29.37c.68-18.9,1.54-37.79,2.16-56.7.37-11.39.91-22.79.54-34.2-.12-4,0-8,0-12,0-.87.16-2.1,1.3-1.49,3.79,2,5-2.55,7.78-2.93.44-.06.55-.85.6-1.41.45-5.47,2-10.77,2.22-16.3.4-8.48.82-17-.79-25.31A27,27,0,0,0,400.94,316a4.91,4.91,0,0,0-1.78-.9c-6-2-11.94-1-17.88.07a3.36,3.36,0,0,0-2.8,2.66c-.39,2.26-.49,4.57-.76,6.84-.22,1.78,1.09,4-.29,5.23s-3.67.64-5.53,1-2.52-.52-2.47-2.27c.05-1.91-.13-3.85.1-5.74.57-4.59-2.21-7.46-4.95-10.45-1.52-1.66-3.88-1.74-5.48-3.2a6.9,6.9,0,0,0-4.55-1.9c-2.83-.08-5.66-.15-8.49-.18-11.78-.14-23.54-.63-35.32-1-2.95-.1-2-2-2.23-3.45-.29-2,1.2-1.5,2.26-1.62,2.2-.23,4.41.18,6.64-.2a90.93,90.93,0,0,0,14.31-3.79c5.6-1.92,8.49-5.55,10-10.81,1.16-4,.71-8.2,1.19-12.29a6.51,6.51,0,0,0-.32-3.84c-.85-1.66.11-2.07,1.5-2a8.24,8.24,0,0,0,4.25-.6c2.57-1.39,6.36-1.43,7.08-5.06.59-2.94,2.37-5.64,1.86-8.82-.1-.62-.13-1.54.89-1.53s2.41-.2,3.13.35c1.87,1.44,2.88-.14,4.15-.82,1.43-.78,2.82-1.71,3.09-3.45a32.81,32.81,0,0,0,.52-5.92c-.05-1.7.54-2,2-1.64a5.51,5.51,0,0,0,5.67-1.62,7.06,7.06,0,0,0,.56-8.4c-1.33-2.21-3.69-1.73-5.79-1.54-1.24.1-2,0-2.21-1.5a4,4,0,0,0-4.25-3.69,33.81,33.81,0,0,1-3.88-.41,2,2,0,0,1-2-2.48c.08-.76.55-1.9-.5-2.24s-1-1.13-1-2c0-9.07-5-16.3-13.51-18.82a87.51,87.51,0,0,0-13.5-2.51c-7.28-.94-14.64-.89-22-1-2.36,0-3.54-.45-3.65-3-.06-1.46-1.15-3.37-2.58-2.83-2.3.87-4.36-.08-6.51.11-1,.1-1.65-.27-1.8-1.52-.58-5.09-1.76-10.07-2.69-15.09-.66-3.56-1.17-7.14.79-10.71,2.07-3.74,1-9.42-1.84-11.41a10.18,10.18,0,0,0-14.61,2.82,20.06,20.06,0,0,0-2,4.61c-.61,2-1.07,4.33,0,6,1.3,1.93,2.89,4,5.42,4.7a2.65,2.65,0,0,1,2,2.7c.32,5,.67,9.93,1.16,14.88.19,2-.5,2.44-2.3,2.32-2.52-.17-5.05-.25-7.57-.21-4.88.08-4.91.12-4.93,5.07,0,1.35-.43,2-1.85,1.92a71.32,71.32,0,0,0-11.69.34c-11.93,1.08-23.9,1.88-34.91,7.42-3.38,1.7-6.64,3.27-7.83,7.32-1.07,3.62-3.48,6.92-2.72,10.95.32,1.68-.31,2-1.77,2.36-3.18.89-7.16,0-9.15,4.45a7,7,0,0,1-.41-1.32c.33-8.73.86-17.43,1.89-26.11.27-2.34,1-4.59,3.26-5.69,2.83-1.37,3.64-3.89,4.33-6.59,1.17-4.64-3-10.3-7.69-10.71-3.86-.34-6.28,1.23-8.54,4.41-3.19,4.46-2.94,10.18,1.84,12.79,2.3,1.25,2.28,2.61,2.11,4.55-.13,1.6-.2,3.2-.3,4.81-.5,8.33-1,16.65-1.46,25-.11,2.29.85,4.8-2.12,6.06-.21.09-.31.51-.42.79-1.64,4.25.12,7.56,4.63,8.6,1.61.37,2.57,1.11,2.56,2.92a3.73,3.73,0,0,0,1,2.75,10.44,10.44,0,0,0,10.77,2.44c1.83-.58,1.91.15,2.1,1.41A33.6,33.6,0,0,0,212.8,261c.81,2.06,1.81,4.24,3.83,5.21a14.78,14.78,0,0,0,6,1.54c2.13,0,2.8,1.22,2.74,3.11a26.55,26.55,0,0,0,.79,7.74c.81,3,2.2,5.87,2.44,9,0,.64.56,1.05.9,1.55,1.45,2.16,3.61,3.31,5.74,4.66,2.41,1.53,4.65,3.21,7.67,3,2.27-.19,4.37.61,6.46,1.19,6.56,1.82,13.16,3.18,20,2.79.87-.05,2.2-.56,2,1.23-.15,1.29.68,3.24-1.72,3.24-7.25,0-14.49.46-21.74,0a136,136,0,0,0-26.29,1.32,15.35,15.35,0,0,0-6.89,2.28c-4.56,3.37-8.46,7.44-9.32,13.51-.13,1-.62,1.75-1.84,1.54a29.42,29.42,0,0,0-7.32-.13c-2.19.17-2.62-1-2.67-2.67-.07-2.37-.16-4.74-.13-7.12.06-5,.09-5-4.77-4.69-4.68.3-9,2.16-12.92,4.34s-6.11,6.16-7.85,10.13a49,49,0,0,0-3,12.41c-.56,3.82,0,7.65.34,11.45.66,7.69.48,15.44,2,23.06M381.81,577.89a2,2,0,0,1-1.94-.44,8.75,8.75,0,0,1-3.49-6.39c0-.46,0-.92.05-1.94s.29-2.64.45-4.24c.19-2,1.28-2.7,3.25-2.54s2,1.48,1.93,2.93c-.17,3.66.62,7.33,0,11-.1.54.6,1.29-.21,1.63m15.74-29.29a12.13,12.13,0,0,0,4.52.66c3.22-.15,5.94,1.15,8.53,2.87.94.63,1,1.21,0,1.56-1.48.48-2.83,1.29-4.6,1-2.8-.48-3.8.31-4.31,2.27-.29,1.15,0,1.73,1,2.11,1.72.6,3.41,1.3,5.14,1.85a2.05,2.05,0,0,1,1.54,1.79c0,.8-1,.75-1.63,1-2.48.9-5.16.44-7.69,1.16a3,3,0,0,0-2.41,2.93,2.76,2.76,0,0,0,2.19,2.62c2.72.66,4.87,2.54,7.54,3.29,1.61.46.91,1.7.51,2.64-1.5,3.51-3.28,6.91-4.5,10.51a15,15,0,0,1-3.59,6c-2.89,2.92-6.51,3.85-10.4,4.05-6,.3-4.95.95-5.41-4.62-.23-2.88-.23-5.79-.33-8.69.07-2.28.21-4.56.19-6.85-.07-10-.15-20-.33-30,0-1.94.41-2.59,2.28-1.68,3.73,1.82,7.89,2.27,11.77,3.64m-1.48-100.77c-.67,9.68-.53,19.39-1.23,29.05-.44,6.06-.76,12.15-1.15,18.2-.36,5.68-.17,11.44-.29,17.17-.18,8.65-1.11,17.23-1.72,25.83a4,4,0,0,1-.28,1.56c-.38.74.09,2.49-1.52,1.9-1.2-.44-3.1-.25-3-2.63s.54-4.87.82-7.29c1.76-15.09,1.71-30.22,1.43-45.37-.14-7.36.85-14.66,1-22q.41-15.6.86-31.21c.22-8.09.68-16.18.48-24.29-.24-9.87-.75-19.72-1.29-29.57-.1-1.83.45-2.6,2.26-2.46.15,0,.3,0,.45,0,3.87-.13,4.18.09,4.23,3.95.15,11.85.94,23.7,0,36.1-.11,10-.3,20.57-1,31.1M382.78,319.9c.13-.57.27-1,.93-1.11a33.89,33.89,0,0,1,13.82.48,3.64,3.64,0,0,1,2.41,2.31c2.34,5.26,5.54,10.17,5.89,16.2.17,2.94-.41,5.77-.53,8.66-.29,6.73-.54,13.46-.87,20.19-.09,1.65-.48,3.28-.7,4.92-.15,1.1-.89,1.25-1.8,1.33a66.62,66.62,0,0,1-8.71,0c-2.3-.06-4.59-.22-6.88-.17-1.7,0-2.41-.76-2.38-2.33.29-12.79-1.82-25.47-1.92-38.22,0-4-.19-8.21.74-12.25m-6.72,12.5c4-.48,4-.48,3.63,3.7,0,.15-.07.29-.08.44-.11,1.68,1.11,3.79-.55,4.91-1.38.94-3.41.42-5.16.58l-2.28-.06c-1.5-.05-2.06-.75-2.07-2.32-.07-6.45-.12-6.45,6.51-7.25m-3.56-99.89c.94.38,1,1.25.94,2.69a2.08,2.08,0,0,1-2.1,1.67c-.8,0-1.9-.3-1.89-1.56,0-.69,2.51-3,3.05-2.8m-13.65-2.84c.13-1.12-.37-2.78,1.84-2.67,2.41.12,3.74,1,3.91,3a19.55,19.55,0,0,1-.05,2.29c-.63,4.61-.62,9.28-1.06,13.91-.28,2.89-1.41,3.39-4,2.36a1.69,1.69,0,0,1-1.17-1.92c.15-5.65-.17-11.31.51-16.93M193.59,187.18a4,4,0,0,1,4-3.69c1.39.13,2.24,1.53,2.13,3.5-.13,2.39-1.67,4.61-3.12,4.49-.89-.08-3-3.18-3-4.3M196,239.76c-.94,0-1.33-.69-1.32-1.5,0-1,.59-2.18,1.5-2.22,1.26,0,.62,1.38.93,2,0,1-.11,1.74-1.11,1.76M211.27,248c-2.1,1.16-4.26,1.69-6.57.68-2.08-.9-2.39-2.76-2.6-4.73-.47-4.27.23-8.57-.48-12.31,0-3.26,1.37-4.7,4.18-4.73,1.33,0,2.94-1.64,3.92,0,.67,1.15.35,2.83.66,4.23,1.14,5,.18,10.25,1.45,15.26a1.22,1.22,0,0,1-.56,1.57m18.42,402.08c0,1.26-.51,1.61-1.75,1.8-6.1,1-12.2,1.94-18.26,3.15-1.86.37-2.34.16-2-1.75,1.26-8,2.92-16,7.5-22.85a131.09,131.09,0,0,1,9.67-13.31c2.1-2.44,4.44-4.7,6.48-7.23A27,27,0,0,1,242.58,602c1.81-.72,3.73-1.16,5.73-1.75-2.81,4.31-5.69,8.57-8.41,12.94a57.76,57.76,0,0,0-7.71,19.19,109.18,109.18,0,0,0-2.5,17.7m23-72.29c-.17,5.42.23,10.87.51,16.3.09,1.69-.37,2.6-2.07,2.8a24.51,24.51,0,0,0-6.63,1.7c-1.49.63-1.91.07-1.8-1.41.32-4.2.73-8.4.15-12.62.21-7,.67-14.08.58-21.11-.19-14,.24-28,.57-42,.21-8.57,1.3-17.09,1.24-25.67-.12-15.16.68-30.31,0-45.46-.14-2.9,0-5.82-.1-8.72-.07-1.59.5-2,2-2.19,3.46-.36,7-.68,10.14-2.37,1.67-.89,1.52.7,1.48,1.55-.21,4.12-.37,8.26-.84,12.35-2.19,19-2.67,38.18-3.59,57.29-1.13,23.18-.94,46.4-1.67,69.59M256,640.73c.08,1.15.06,2.3.07,2.93s0,.82,0,1c0,3.42-.05,3.17-3.41,3.44a141.4,141.4,0,0,0-18.77,2.69c-2.11.46-2.6,0-2.28-2,1.1-6.86,2.14-13.73,3.75-20.52,1-4.1,3.09-7.55,4.92-11.22,2.5-5,6-9.32,9.13-13.84a13.14,13.14,0,0,1,3.05-3c1.26-.92,1.07.4,1.1,1,.24,4.5.39,9,.67,13.51.56,8.7,1.2,17.39,1.79,26.09m17.12-227.91a42.38,42.38,0,0,1-2.85,5.21,83.32,83.32,0,0,1-8.09,12.87c-1.72,2.16-3.71,4-6.74,4.31a13.09,13.09,0,0,0-4.2,1.13c-3.16,1.45-6,.6-9.06-.52-4-1.48-6.45-4.71-9.17-7.64s-2.28-6.65-2.33-9.54c.07-2.05.18-3.42.13-4.79-.06-1.66.87-2.06,2.27-2.14l35.45-2c.92-.05,1.83,0,2.75.07,2.5.08,2.75.52,1.84,3m45.56,93.56c-.36-14.07-.3-28.15-1-42.21-.29-6.34-.86-12.67-1.05-19-.09-2.86,0-2.83,2.75-1.84,3.12,1.13,6.37.57,9.56.59.75,0,1.57-.28,1.16.86-.86,2.38-.48,4.85-.63,7.26-.71,11.45-1.52,22.9-2.23,34.35-1.15,18.61-1.25,37.27-1,55.94.2,16.74,0,33.51-1.09,50.24-.1,1.46-.47,2-2,1.84-1.8-.14-3.84-.89-5.55,1.69-.12-6.92-.43-13.08-.27-19.23.22-9,.09-17.91.43-26.85.54-14.54,1.32-29.09.94-43.62m24.88,142.91-1.94-.06c-7.75-.57-15.83-1.35-23.94-1.48-1.53,0-1.88-.85-2.06-2.15a50.51,50.51,0,0,1,.24-14.16c.64-4.72.05-9.48.36-14.22.37-5.57.73-11.15,1-16.73.1-1.91,1.32-1.49,2.21-1a17.88,17.88,0,0,1,4.31,3c4.06,4.19,8.19,8.31,11.22,13.42,3.54,6,5.52,12.49,7.89,18.9,1.42,3.85,1.61,7.94,2.75,11.82.75,2.57.64,2.71-2.08,2.66m-13.71-51c5.82,2.13,10.27,6.14,14.56,10.34a104.83,104.83,0,0,1,12.93,15.21,99.77,99.77,0,0,1,12.12,23.93,9.7,9.7,0,0,1,.41,2.91c.07,1.4-.13,2.41-1.17,1.92a139.19,139.19,0,0,0-18.19-2.84,2.1,2.1,0,0,1-2.05-1.79c-1.27-5.17-2.43-10.39-4-15.48-1.17-3.79-2.92-7.39-4.34-11.1a44,44,0,0,0-10.48-15.86c-2.66-2.58-5-5.76-8.6-7.3-.61-.26-1.76-.39-1.34-1.46.3-.77,1.26-.87,2-.79a35.7,35.7,0,0,1,8.11,2.31m-8.7-186.1a140.33,140.33,0,0,0,17.62,1.1c6.38-.05,6.94,1.86,6.79,8.17,0,.38,0,.77,0,1.15.47,5.78-2.52,10.38-6,14.21-3.63,4-8.86,5.4-14.41,5.2a17.81,17.81,0,0,1-8.54-2.52c-8.92-5.06-11.36-13.62-13.27-22.62-.34-1.57-.58-3.16-1-4.7-.37-1.32.18-1.93,1.31-1.5,5.71,2.17,11.71.81,17.55,1.51M277.78,159a6.65,6.65,0,0,1,6.84-6.5c1.93.11,4.73,3.72,4.61,6.1-.14,2.78-2.22,6.5-5.63,5.72-3-.12-5.85-2.76-5.82-5.32m11.44,29.77a1.2,1.2,0,0,1-.18.49c-4-.16-3.65-2.85-3.64-5.41a135.1,135.1,0,0,0-.67-13.94,10.73,10.73,0,0,1-.09-1.6c0-.72.27-1.48,1.1-1.49s.87.73,1,1.34c.41,2.24.95,4.47,1.2,6.74.52,4.61.88,9.24,1.3,13.87m-16.33,4.11c5.41-.46,10.82-.1,16.23-.31,3.47-.14,6.84,1.26,10.37.91.78-.08,1.21.53,1.21,1.35,0,1.14-.78,1.45-1.67,1.44-2.52,0-5-.14-7.48-.21l-18.38.64c-1.29,0-2.44.11-2.47-1.77,0-1.69.68-1.91,2.19-2.05m-48.48,12.79c7.54-2.2,15-4.51,23-5.16a175.47,175.47,0,0,1,20.76-.77c.79,0,1.25-.46,1.87-.69,1.5-.57,3.27-.77,4.26.51s-.5,2.28-1.22,3.34c-1.71,2.53-4.09,3-6.85,2.41-1.54-.3-2.67,0-3,1.81a6.93,6.93,0,0,1-1,2.07c-1,1.77-2.26,2.08-3.82.88a7.41,7.41,0,0,0-2.47-1.18c-3.25-1-4.73-.14-5.53,3.18-.25,1-.38,2.12-.65,3.15-.49,1.9-1.71,2.15-3.28,1-2.93-2.21-6.1-3.41-9.8-1.83a4.94,4.94,0,0,0-3.37,4.23c-.2,2-.33,4-.43,5.11.18,4,.41,7.09.45,10.23,0,2.75,0,5.51-1.44,8-.52.93-.29,2.41-2,2.29a4.11,4.11,0,0,1-3.77-2.1,37.64,37.64,0,0,1-4.48-17.59c-.15-4.52-1.14-8.94-1-13.5.09-2.9,1.09-4.61,3.78-5.4M227.23,264c-2.46.26-8.55-3.61-9.45-5.93s-2.09-4.46-.46-6.9a1.61,1.61,0,0,0,.05-1.13c-1.66-7.19-1.54-14.58-2.33-21.87-.39-3.59-1.39-7.15-1.09-10.87.24-3,2.16-5.17,3.21-7.77a.75.75,0,0,1,.94-.46c.54.18.54.7.53,1.15,0,1.53-.2,3.07-.14,4.59a145.55,145.55,0,0,0,3,23.16,13.24,13.24,0,0,0,4.37,7.39c1.95,1.64,5.95.84,7.29-1.25,2.71-4.2,2.66-8.88,2.37-13.54a70.7,70.7,0,0,1-.05-9.87c.28-3.66,3-5.94,5.86-5.06a10.54,10.54,0,0,1,3.73,2.59,4.25,4.25,0,0,0,7-2,36.53,36.53,0,0,0,.64-3.62c.38-2.27.92-2.55,3.1-1.7a5.94,5.94,0,0,1,1.91,1.24c2.19,2,4.83,1.37,6-1.34.36-.84.79-1.65,1.2-2.47a1.68,1.68,0,0,1,2.27-1c3,1.49,4.89-.5,6.52-2.31a20.51,20.51,0,0,0,3.19-4.69c.66-1.31-.26-1.1-1.23-1.58,8.8-.32,17.08-1.33,25,.09,9.4,1.68,18.84.28,28.16,1.8,3.62.6,7.34.69,10.89,1.52a21.45,21.45,0,0,1,10.77,6c1,1.09.89,2.76,1.47,4.06,2.23,5,2.32,10.18,2,15.49-.37,5.5-.63,11-.48,16.53.1,3.92-.87,7.76-1.46,11.59-.72,4.61-7.28,7.7-11.77,7-15.68-2.5-31.47-3-47.32-2.48-6.94.21-13.9-.13-20.85.25-6.44.36-12.89.55-19.33,1.13-5.16.46-10.37.16-15.55.41-3.16.14-6.39.25-9.35,1.69a1.87,1.87,0,0,1-.65.19m44.17,31.24c-.31-.28-1-.2-1.55-.13-4.92.66-9.68-.28-14.53-1-6.55-1-12.54-3.43-18.41-6.1a10.46,10.46,0,0,1-6.22-7.72c-.68-4.14-1-8.34-1.61-12.5-.25-1.84.7-2.43,2.28-2.72,6-1.1,12.19-1,18.27-1.56,9.91-1,19.87-.37,29.79-1,5.61-.38,11.28.1,16.91-.13a138.75,138.75,0,0,1,16.57.21c7.57.6,15.27.2,22.68,2.42.69.21,1.39.37,1.62,1.1.91,3,2.78,5.8,1.84,9.19a10.18,10.18,0,0,0-.1,2.29c-.34,3.62.05,7.42-2.89,10.32A25.87,25.87,0,0,1,323,294.46c-4.41,1-9,.77-13.41,1.47-6.15,1-12.15-.45-18.23-.15-5.11.26-10.23.19-15.35.29-1.58,0-3.19.44-4.58-.82m33.77,10c-.36.72-1,.63-1.56.62l-4.79-.14h0c-1.6,0-3.2-.11-4.8-.14-.74,0-1.09-.18-1.34-1.09-1.14-4.12-1.21-4.1,3.1-3.9,2.28.1,4.57.17,6.85.27,1.61.07,3.25,2.94,2.54,4.37m-16.89.52c-1.91,0-3.82.05-5.73.08v0c-1.53,0-3.07-.05-4.59.09s-1.87-.49-2-1.79c-.4-3.62-.19-3.87,3.46-3.47a37.48,37.48,0,0,0,8.47-.06c1.71-.21,2.24.38,2.19,1.94,0,1.39.89,3.27-1.79,3.23M208.54,330c.26-4.71,1.32-9.44,4.31-13.55,2.47-3.39,6-4.48,9.61-5.06a144.6,144.6,0,0,1,27.67-1.55c4.35.14,8.77,0,13.05.42a58.92,58.92,0,0,0,10.08.5c12.4-.89,24.77,0,37.15.28.38,0,.9.11,1.12-.1,2.42-2.23,5.24-1,7.83-.76,8,.67,16.05.7,24.07,1.08a51.16,51.16,0,0,1,15.66,3.06c4.52,1.69,6.71,6,6.32,12a16.36,16.36,0,0,0,.94,7.16c1.2,3.24,2.23,7.26-.29,10.75a3.57,3.57,0,0,0-.43,2.2c-.42,11.64-1.31,23.23-2.34,34.82-.43,4.79-1.58,9.33-4.47,13.29a5.25,5.25,0,0,1-4.64,2.45l-18.55-.55c0,.12,0,.24,0,.37-6-.18-12.07-.39-18.11-.53-3.13-.07-6.51-.79-9.34.13-4.72,1.54-9.28,0-13.9.35s-9.47-.36-14.18-.87c-13.28-1.46-26.6-1.87-39.95-2.29-7.9-.24-15.86-.79-23.58-2.89a7.66,7.66,0,0,1-5.24-3.95,33.18,33.18,0,0,1-4-16.3c.19-13.48.52-27,1.25-40.42M193,329c1.06-1.56,3.82-.22,5.74-.72,2.15-.57,4.36.69,6.49-.43.56-.3,1.13.24,1.06,1.06q-.36,4.66-.7,9.34c-.1,1.32-.84,1.81-2.13,1.79a45.46,45.46,0,0,1-4.81-.15c-.68-.09-1.35-.22-2-.26-4.21-.26-4.23-.25-4.08-4.57.07-2.06-.52-4.6.47-6.06M191.9,544.93c1.73,0,1.56,1,1.62,2.06.46,8,.91,16,1.4,24a15.6,15.6,0,0,0,.48,2.7c.35,1.41,1.2,2.09,2.71,1.65,2.44-.7,4.87-.25,7.29.08,1.59.21,2.39,1,2.1,2.84a48.84,48.84,0,0,1-1.61,8.52,8.85,8.85,0,0,1-5.48,5.44c-2.74,1.12-3.28,1.78-3,4.58a66.73,66.73,0,0,1-.67,16.7,3.1,3.1,0,0,1-3.19,2.74c-3.57.15-6.53-1.37-9.49-3.28-4.22-2.71-6.73-6.87-9.24-10.84a30.52,30.52,0,0,1-5-14.08c-.52-8-.64-16-.88-22.82.42-6.14-.17-11-.16-15.92,0-1.81.54-2.6,2.38-2.77,6.91-.65,13.77-1.71,20.74-1.64m-7-15.35c.21,3.28.17,6.57.24,9.86,0,.64,0,1.36-.79,1.46a36.6,36.6,0,0,1-5,.37c-1.1,0-.85-1.11-.93-1.8a132.39,132.39,0,0,1-.85-19.49c.27-7.34,0-14.67,0-22,0-7,.44-14.07.53-21.1.12-10.25,1.18-20.44,1.34-30.68.12-7.71.63-15.4.76-23.1.18-11.4.13-22.79.29-34.19.05-4.28.35-8.56.64-12.84.06-.89-.18-2.46,1.67-1.91,1.31.4,3.4-.58,3.31,2.24-.25,7.19-.74,14.37-.6,18.55-.07,12-.85,20.87-.36,29.86.36,6.84-.72,13.74-.91,20.62-.43,15.53-1,31.06-1,46.59,0,12.53.79,25.05,1.63,37.56M173.09,324.27c2.35-5,6.3-8.76,12.26-9.38,2.68-.28,3.12.21,3.2,2.93a18.77,18.77,0,0,1,0,3.89c-.46,2.48,1.31,4.29,1.68,6.51a55.23,55.23,0,0,1,.16,12.12c-.5,9.39-1.56,18.74-2.26,28.12-.11,1.54-.58,2-2,2-2.14-.11-4.29-.14-6.43-.2v-.07c-2.06-.07-4.13-.16-6.19-.18-1.56,0-2.28-.64-2.5-2.29-.72-5.33-.15-10.71-.74-16-.31-2.79-.31-5.62-.6-8.42a35.54,35.54,0,0,1,3.39-18.94" transform="translate(-164.06 -148.02)"/><path class="cls-2" d="M246,248.93c3.61,3.63,8.19,4.29,12.57,5.49,4.14-.54,7.87-1.48,11-4.14a17.55,17.55,0,0,0,5-20.34,13.05,13.05,0,0,0-11.72-7.16c-2.27.06-4.53.58-6.82.15-2.65-.5-5.49-1.67-7.07,1.91-.12.29-.62.41-1,.6a14.74,14.74,0,0,0-5.62,6.16c-3.2,6.49-1.56,12.21,3.54,17.33m-2.61-11c.29-4.74,5-11.09,9.38-12.58.21-.07.43-.32.61-.28,4.25.9,8.55-.19,12.79.28,3.24.36,7,4.74,7.39,8.2a18,18,0,0,1-6,15.84c-2.23,2-5,2.92-9,2.59-5.71.58-10.13-3.19-14-7.9-1.4-1.72-1.38-4-1.25-6.15" transform="translate(-164.06 -148.02)"/><path class="cls-2" d="M301.54,249a23.72,23.72,0,0,0,11.29,3.8c5.62.94,13.4-4.13,15.49-10.14s1-11.11-3.19-15.83-9.79-4.7-15.38-4.72a5.71,5.71,0,0,0-4.28,1.36c-2.29,2.48-5.35,4-7.18,7.18a15.09,15.09,0,0,0-2.21,10,10.84,10.84,0,0,0,5.46,8.36m-3.07-10.2c0-3.76.8-6.16,2.66-8.33a32.11,32.11,0,0,1,7.14-6c2-1.32,4-.26,6-.27a11.47,11.47,0,0,1,8.12,3A12.28,12.28,0,0,1,327,237.65c-.32,3.87-1.16,7.85-4.91,10.37-4.61,3.1-9.43,3-14.44,1.46a22.16,22.16,0,0,1-4-1.59c-4-2.22-5.72-5.56-5.09-9.1" transform="translate(-164.06 -148.02)"/><path class="cls-2" d="M275.76,288.79c1.42.95,2.12.87,3.12-.56,2.27-3.25,3.32-7,4.79-10.59.26-.63.46-1.48,1.17-1.6s1.09.79,1.37,1.32c2.14,4,5.63,6.75,8.88,9.71.57.51,1.29.87,1.87.46,2-1.39,4.44-2.55,5.69-4.47,1.49-2.27,3.51-3.95,5.23-6.35a34.19,34.19,0,0,0,2,3.36,38.84,38.84,0,0,0,8,7.41c1.83,1.25,3.31,1.34,4.73-.38a14.13,14.13,0,0,0,1.31-2.39c1.7-3.27,2.4-7.16,5.7-9.45.67-.47.48-1.06.31-1.64a1.44,1.44,0,0,0-1.47-1.16c-2.59-.17-5.17-.49-7.75-.68-9.15-.69-18.31-.64-27.48-.5-8.94.14-17.88.25-26.82.59-7.71.29-15.38,1.53-23.12.92-.54,0-1.14-.14-1.31.57a1.65,1.65,0,0,0,.87,1.74,39.76,39.76,0,0,1,7.19,7.3c1.35,1.67,2.18,3.64,3.56,5.27,1.05,1.24,1.84,1.76,3,.07.84-1.27,2-2.3,2.92-3.54,2.09-2.89,4.15-5.8,7.43-7.65a48.16,48.16,0,0,0,3,5.33c1.79,2.41,3.22,5.13,5.84,6.91m35.83-15.43c1.75.13,3.49.32,5,.45a46.37,46.37,0,0,1,8,.7c.51.12,1.54,0,1,1-1.58,2.72-1.64,6-3.55,8.64-.87,1.18-2,1.95-3.27,1-3.53-2.61-7.1-5.18-8.7-9.63-.65-1.83-.05-2.24,1.55-2.12m-6.76-.06c.58,0,1.38-.1,1.69.45.45.77-.41,1.23-.81,1.7-2,2.44-3.59,5.27-6.08,7.35-2.75,2.31-4,2.37-6.41-.16a57.83,57.83,0,0,0-4.36-4.65c-1.28-1.06-.81-3-2-4.56,6.27-.05,12.13-.11,18-.13m-40.51,1.87c-3.24,2.7-5.65,6.14-8.17,9.47-.74,1-1.2,1.06-2.13.15-2.64-2.6-3.89-6.33-7.09-8.49-1-.64-.82-1.42.54-1.56,2.35-.25,4.69-.53,7-.79l0,.25c3-.21,6.08-.43,9.12-.61.48,0,1.17-.36,1.43.3s-.36.95-.76,1.28m4.6,0c-.53-1.1-.06-1.69,1.25-1.64,3.2.14,6.41.21,9.61.3,3.4-.36,3.35-.38,2.17,2.79a52,52,0,0,1-3.86,8.29c-.74,1.24-1.28,1.47-2.62.5-3.58-2.58-4.78-6.57-6.55-10.24" transform="translate(-164.06 -148.02)"/><path class="cls-2" d="M257.66,245a14.87,14.87,0,0,0,4.5-.21c2.21-.29,5.69-3.54,6-5.45a6.66,6.66,0,0,0-4-7.3,9.62,9.62,0,0,0-7.66-.78c-4.81,1.62-7.19,7.94-4.25,11.79,1.38,1.81,3.34,1.91,5.41,1.95m-3.49-9a21,21,0,0,1,2.64-2.19,6.06,6.06,0,0,1,8.85,2.42,3.77,3.77,0,0,1-1.75,5.54,8.87,8.87,0,0,1-5,1.14,14.72,14.72,0,0,1-3.68-.64c-2.91-1.18-3.42-4.11-1.06-6.27" transform="translate(-164.06 -148.02)"/><path class="cls-2" d="M311.94,245.65c4,.1,7.81-3.19,8-6.85.16-3.26-4.1-7.6-7.51-7.65s-6.87,3.78-7,7.72c-.1,3.13,3.32,6.69,6.51,6.78m.06-12.3a5.88,5.88,0,0,1,5.47,6c-.15,2.69-1.93,4.07-5.09,3.93s-4.62-1.74-4.46-4.5c.14-2.51,2.34-5.42,4.08-5.38" transform="translate(-164.06 -148.02)"/></svg>