<svg id="Layer_1" data-name="Layer 1" xmlns="http://www.w3.org/2000/svg" viewBox="0 0 253.26 558.51"><defs><style>.cls-1{fill:#fff;}.cls-2{fill:#010101;}</style></defs><path class="cls-1" d="M394.91,530.68a3,3,0,0,1-2.85-.53c-4.35-2.65-9.22-3.66-14.09-4.64a37.73,37.73,0,0,0-5.34-.32c-.63,0-.93.2-1.12.87-1.3,4.66-4.33,7.12-9.21,7.58-1,.09-1.91.28-2.9.43,1.46,3.09,2.54,6.2,4.38,8.95.34.51.48,1.16,1.45.82s1.32.5,1.16,1.24a3.1,3.1,0,0,0,1,3.08c1.65,1.53,3.14,3.46,5.43,4a11.61,11.61,0,0,0,8.63-1.24c.74-.43,2-.13,2.94-.75,1.12-.73,2.36-1.3,3.4-2.13,1.95-1.55,4.43-2.24,6.24-4a7,7,0,0,1,2.83-1.29,14.39,14.39,0,0,1-1-4.63c0-.09-.11-.17-.27-.38a59.9,59.9,0,0,1-4.08,6.21c-1.28,1.52-4.37,2.43-6.18,1.68-1-.42-1.63-2.35-1.08-3.75a11.54,11.54,0,0,1,3-4.29c2.08-1.94,4.22-3.82,6.26-5.81a12.36,12.36,0,0,1,1.41-1.06Zm-13.3,9.84c-2.54-1.16-5.41-1.07-7.95-2.21-1.4-.63-3-.22-4.44-.84a7.11,7.11,0,0,1-.93-.27c-.48-.29-.86-.71-.59-1.34s.74-.51,1.24-.36c2.54.73,4.89,2,7.53,2.39,1.88.28,3.74.61,5.6,1,.45.09,1,.18,1.17.79-.29.75-.92,1.22-1.63.89" transform="translate(-202.09 -200.31)"/><path class="cls-1" d="M325.91,727.75c-.43-6.44-.25-12.88-.8-19.31-.73-8.54-1-17.1-1.64-25.65-.51-7.23-1.1-14.47-2-21.67-.46-3.65-.71-7.34-.89-11-.32-6.76-1.05-13.48-1.72-20.21-.53-5.33-1.31-10.65-1.32-16,0-2.86-1.15-5.51-1.32-8.33-.06-.95-.88-.77-1.53-.62-2.42.56-4.82,1.23-7.26,1.67-6.14,1.09-12,3.15-18,4.84-3.82,1.08-7.59,2.42-11.38,3.66a23.1,23.1,0,0,0-3.83,2.09.65.65,0,0,0-.33.94A60.66,60.66,0,0,1,277.13,629c.78,3.46,1.91,6.88,2.61,10.36,1.33,6.68,3.09,13.3,3.72,20.08a183.82,183.82,0,0,1,1.2,23.7c-.05,1.46,0,2.93,0,4.39,0,1.28.74,2.07,1.93,1.82,4.58-1,8.46.92,12.44,2.7,1.87.83,2.89,2.53,4.44,3.67a.7.7,0,0,1,.08,1.13.75.75,0,0,1-1.15.06,31.68,31.68,0,0,0-2.57-2.22c-4.28-2.92-8.84-4.77-14.16-3.33-1.84.5-3,2-4.48,3A26.76,26.76,0,0,0,276,700a31.86,31.86,0,0,0-4,6.37c-1.11,2.51-2.89,4.64-3.81,7.28-1.79,5.16-3.1,10.34-2.17,15.86a21.53,21.53,0,0,1,.16,3.41c0,1.28-.18,2.52.72,3.71.71,1,0,2.43-1.19,2.81-1.39.46-2.76.94-4.17,1.28-.86.21-1,.67-.9,1.42.49,3,1.24,6,2,9a1,1,0,0,0,.15.29c.38.67,0,1.86.59,2.07a5.46,5.46,0,0,0,2.72-.22c12.36-2.8,25-3.35,37.56-4,6.76-.34,16.31-.47,23.17-.1a2.73,2.73,0,0,1-.34-1.3c-.15-6.72-.12-13.46-.57-20.16m-10.58,5.86c-1.94-.06-3.88-.08-5.83-.11-9,.42-18,.48-26.94,2.31-3.38.7-6.83,1.05-10.17,2-.64.18-1.19.51-1.8.7s-1.24.29-1.47-.48.28-.94.89-1.07,1-.36,1.56-.42c6.29-.75,12.38-2.62,18.7-3.17,2.47-.22,5-.26,7.45-.38,5.84-.29,11.67-.81,17.52-.79.72,0,1.59-.22,1.58.8s-.85.67-1.49.65" transform="translate(-202.09 -200.31)"/><path class="cls-1" d="M286.53,292.7c2.06,5.15,4.7,10,6.61,15.25s4.9,10,7.2,15c3.33,7.31,7.27,14.32,10.77,21.54,1.77,3.64,4.14,6.94,5.81,10.63a18.9,18.9,0,0,0,3,5.32c.48.51.86.79,1.19.08.5-1.06,1.55-1.46,2.34-2.16,4.41-3.87,9.12-4.23,14.71-1.07,1.12.64,2.2,1.33,3.31,2,.66.39,1.17.41,1.55-.44.88-2,1.93-3.86,2.73-5.85,1.63-4.06,3.94-7.77,5.8-11.72,1.56-3.3,3.49-6.44,5.23-9.66a33.23,33.23,0,0,0,1.91-3.94c1.12-3,3.21-5.47,4.46-8.4.73-1.71,2.26-3.08,2.95-4.79,1.27-3.11,3.32-5.75,4.86-8.71,2.88-5.56,6.31-10.82,9.16-16.41.31-.61,1.06-1.31-.08-1.88a26.09,26.09,0,0,1-3.68-2.31c-3.35-2.42-7.27-3.8-10.94-5.62A112,112,0,0,0,352,273.91a58.8,58.8,0,0,0-19.74-3.24,74.29,74.29,0,0,0-7.61.58c-3.28.44-6.36,1.65-9.54,2.4-4.88,1.15-9.39,3.25-14,5-4.87,1.87-9.55,4.23-14.32,6.36-1.14.5-2.05,1.21-1.76,2.54a32.14,32.14,0,0,0,1.5,5.13" transform="translate(-202.09 -200.31)"/><path class="cls-1" d="M429.76,523c-3.32-2.21-6.48-4.7-10.31-6-5.93-2-12-2.61-18-.54a10.09,10.09,0,0,0-5.43,5.13c-1.48,2.92-2.27,5.91-1.11,9.14l0,0h0l0,0c1.63-.24,2.38-1.85,3.8-2.44.69-.29,1.26-.84,1.93-1.19a1,1,0,0,1,1.4.42c.31.57-.06.84-.48,1.17-1.41,1.12-1.64,3-2.81,4.3,0,0,0,.11-.08.14-3.81,3-1.14,6.08-.08,9.07a8.88,8.88,0,0,0,3.5,4.36c.72.48,1.17.45,1.38-.45.58-2.5,2.65-4.14,3.7-6.38a1.35,1.35,0,0,1,1.61-.82c.68.24.35.92.41,1.43a21.63,21.63,0,0,1-.55,7.26c-.15.71-.15.92.74,1.27,2.95,1.16,5.91,1,8.93.7.61,0,4.4-.75,6.1-.94-.29-1.5-.59-3-.95-4.49a82.33,82.33,0,0,1-2-9.3c-.08-.68-.78-1.67.28-1.95s2.37-1.18,2.92.73c1,3.37,3.6,5.92,4.74,9.25a2.61,2.61,0,0,1,.76-1.36,19.41,19.41,0,0,0,3.83-6.1c1.19-3,1.48-5.9-.06-8.79-.92-1.71-2.65-2.59-4.2-3.62" transform="translate(-202.09 -200.31)"/><path class="cls-1" d="M232.69,517.18c1.76-1.31,3.2-2.95,5-4.26a37.27,37.27,0,0,1,9.14-4.68c3.63-1.36,7.51-.78,11.27-1,2.07-.14,2.31-1,2.49-2.54,1.19-10.16,1-20.35.4-30.53-.46-8.33-.25-16.68-.93-25-.25-3.13-.58-6.25-.89-9.38-.07-.72-.3-1.23-1.24-1-4.36.92-8.8,1.38-13.07,2.85-6.07,2.08-12.3,3.71-18.14,6.44-2.09,1-4.17,1.95-6.33,2.78s-4,2.08-6.16,2.88a38,38,0,0,0-6.47,3.25,1.25,1.25,0,0,0-.7,1.59c.89,3,1.22,6.16,2.17,9.13,1.56,4.87,3,9.79,4.78,14.61,1.92,5.2,3.87,10.4,5.77,15.62,1.8,5,4.18,9.72,6.22,14.6a37.42,37.42,0,0,0,4.06,8,12.28,12.28,0,0,1,2.64-3.32" transform="translate(-202.09 -200.31)"/><path class="cls-1" d="M219.74,421.81c.28,0,.57-.26.63.35.13,1.32.36,2.56-1.2,3.28-.58.27-.78,1-1.16,1.85,2.89-1.26,5.62-2.17,8.22-3.29,7.05-3,14.52-3.16,21.94-3.74.67-.05,1.71.42,1.92-.23.29-.89-.84-1.22-1.43-1.7a1.49,1.49,0,0,0-.89-.34,2.68,2.68,0,0,1-2-1.23c-.29-.34-.58-.7-.37-1.16s.69-.45,1.13-.47a16.22,16.22,0,0,0,2.1-.17c1.83-.32,2-.86.88-2.26-.9-1.08-1.9-2.07-2.8-3.15-.55-.65-1-1.15-1.8-.29a.86.86,0,0,1-1.19,0c-.56-.5.1-.71.34-1,.54-.64.25-1.23-.13-1.78-.68-1-.23-1.46.72-1.79,1.61-.56,3.21-1.14,5-1.79-.35-.16-.53-.31-.71-.31l-9.42,0a10.42,10.42,0,0,0-3.07.13,42.9,42.9,0,0,1-7.08,1.34c-5.07.76-9.9,2.05-14.17,5-.51.36-.79.6-.09,1,1.43.84,2.7,1.93,4.4,2.31,1.42.32,1.66,1.64.56,2.66a22.5,22.5,0,0,1-2.23,2.13,1.69,1.69,0,0,0-.79,1.93c1.54-1.5,3.37-2,5.12-2.69,2.51-1,5-2.08,7.56-2.85,3.54-1,7.25-1,10.92-1.06,1.89,0,3.77,0,5.66,0,.6,0,1.11.28,1.09.94s-.56.68-1.08.62a61.74,61.74,0,0,0-9.52.12,19.93,19.93,0,0,0-5.88.89,26,26,0,0,1-4.86,1.71,18.62,18.62,0,0,0-8.11,3.49c-.35.24-1.14.23-.82.94a1.36,1.36,0,0,0,1.33.77c.43,0,.86-.16,1.28-.21" transform="translate(-202.09 -200.31)"/><path class="cls-1" d="M235,329.17c.5,2.26,2,4.09,2.51,6.41.65,2.73,2.25,5.21,3.21,7.93,2.07,5.9,5.15,11.38,7.44,17.22,1,2.54,2.59,4.81,3.71,7.34,1.93,4.38,4.88,8.24,7.12,12.49,1.88,3.57,4.49,6.76,5.87,10.57a32.83,32.83,0,0,0,4.21,7.64,19.78,19.78,0,0,0,4.71,5.08,30,30,0,0,0,6.05,3.58c2.8,1.11,5.55,2.7,8.5,2.93,5.89.44,11.65,2,17.34,2a17.59,17.59,0,0,0,5.1-.11c.53-.09,1-.16.79-.87-1.21-3.44-1.19-7-1.31-10.6a80.09,80.09,0,0,1,.59-13.13c.58-4.43,2.21-8.62,2.84-13a21.91,21.91,0,0,1,4.41-10.43,2.8,2.8,0,0,0,.31-3.61c-2.59-5.2-5.66-10.14-8.2-15.37-1.55-3.18-3.3-6.3-5-9.41-3-5.37-5.25-11.11-8.23-16.5-2.48-4.49-4.13-9.36-6.38-14-.44-.92-.92-1.84-1.31-2.78q-3-7.32-6-14.67c-.17-.42-.33-.7-.8-.36-2.38,1.72-5,3.1-7.4,4.72-2.88,1.93-5.86,3.76-8.85,5.4-3.17,1.75-6,3.9-9.1,5.75-3.46,2.09-6.81,4.37-10.16,6.63-2.31,1.55-4.54,3.22-6.83,4.81a38.53,38.53,0,0,0-3.93,3.84,8.78,8.78,0,0,0-2.58,7.68c.11,1.12,1.22,1.75,1.45,2.83" transform="translate(-202.09 -200.31)"/><path class="cls-1" d="M312.08,416.53a2.71,2.71,0,0,0-1.91.19c-.47.28-1,.66-.89,1.24s.83.32,1.27.28c3.28-.31,6.56-.74,9.85-1,3.46-.23,6.93-.18,10.39-.43a41.23,41.23,0,0,1,9.09,0c2.33,0,4.66.08,7,.1.36,0,1.17.2.82-.51-.87-1.79.09-3.51,0-5.26-.54-7.39,1-14.69,1.07-22.06a49.16,49.16,0,0,0-1.94-14.42,61.67,61.67,0,0,0-3-8,12.72,12.72,0,0,0-8.23-7c-3-.91-6.59-1.22-9.3,1.57-.6.61-1.25,1.18-1.86,1.78a20.74,20.74,0,0,0-5.92,9.31,111.85,111.85,0,0,0-2.64,13.84c-.57,3.74-1.57,7.44-1.63,11.23-.09,5.58,0,11.17,2,16.51.14.39.18.65-.22,1-1.15.91-2.19,1.93-3.88,1.59" transform="translate(-202.09 -200.31)"/><path class="cls-1" d="M286.3,553.91a.63.63,0,0,1,.7-.24c2.57.47,4.42-.52,5.61-2.95,1.06-2.13,2.66-4.15,3.09-6.39.67-3.55,3.32-6.26,3.68-9.84,0-.45.62-.65.45-1.16-1.48-.54-3.1-.3-4.6-.87-2.12-.81-3.7-2.41-5.54-3.62a1.12,1.12,0,0,1-.44-.64c-.44-1.92-1.65-2.61-3.53-2.3-4,.66-8.08,1.15-11.66,3.38-.69.43-1,.72-.32,1.43a5.23,5.23,0,0,1,1.13,2.82,3.18,3.18,0,0,1-2.75,4,7.09,7.09,0,0,1-6.66-2c-2.15-2-4.49-3.79-6.28-6.19-.71-1-1.89-1.55-2.61-2.6-.35-.52-.75-1-.43-1.6a1.25,1.25,0,0,1,1.47-.42,27.52,27.52,0,0,0,5.51.39,5.6,5.6,0,0,1,3.27,1.26c.53.39,1,.56,1.34-.34,1.69-4.25.42-11.41-2.91-14.37a10,10,0,0,0-7.71-2.73c-2,.19-4.09.08-6.13.14a18.54,18.54,0,0,0-8.67,2.82,36.8,36.8,0,0,0-7.62,5.82,16.37,16.37,0,0,0-5,9.24c-.25,1.6-.78,3.19-.11,4.8.13.32.19.82.63.85s.63-.42.79-.73c.79-1.59,1.52-3.22,2.31-4.82.23-.45.37-1.21,1-1.08a1.45,1.45,0,0,1,1.15,1.58c-.34,3.12.08,6.29-.53,9.39a4.09,4.09,0,0,0,.86,3.78c1.82,2.31,4.16,3.89,6.37,5.67a7.35,7.35,0,0,0,2.92.53c.08-1.19.18-2.38.31-3.56a8,8,0,0,0,.1-1.46c0-.81-.06-1.63,1-1.71s1.92-.25,2.23,1.18c.35,1.66,1.72,2.86,2.32,4.43.23.61.77.53,1.25.35,2.72-1,5.41-2.09,7.24-4.57,1.14-1.54,3-2.51,3.73-4.39a.6.6,0,0,1,.84-.29.68.68,0,0,1,.25,1c-1.05,1.62.06,2.16,1.14,3.14,1.35,1.24,2.56,2.7,3.79,4.08a23.25,23.25,0,0,0,9,6c2.23.89,4.06,2.64,6.53,2.92.52.06,1,.42,1.47-.16m-13-13.31a4.62,4.62,0,0,1-1.28.1.9.9,0,0,1-.85-.85.72.72,0,0,1,.88-.73c2.83.38,5.54-.79,8.38-.58a12.56,12.56,0,0,0,4.11-.81c2.23-.64,4.43-1.41,6.65-2.09.67-.2,1.54-.48,1.8.44s-.67.95-1.33,1.17c-1.85.59-3.71,1.19-5.5,1.93a17.16,17.16,0,0,1-6.41.93,25.13,25.13,0,0,0-6.45.49" transform="translate(-202.09 -200.31)"/><path class="cls-1" d="M231.68,370.85c4.44-.23,8.73-1.51,13.14-2a11.81,11.81,0,0,0,4.18-1.22c.63-.33.86-.74.43-1.27a21.13,21.13,0,0,1-2.4-4.71,68.49,68.49,0,0,1-3.07-6.57,20.84,20.84,0,0,0-2.54-5.37,2.57,2.57,0,0,1-.41-.87,38,38,0,0,0-1.79-5,62.46,62.46,0,0,1-2.6-6.42c-.49-1.66-.87-1.73-2.24-.77A49.72,49.72,0,0,0,226.7,344a73.19,73.19,0,0,0-9.32,12.41c-1.71,2.88-3.28,5.83-4.79,8.81a7.94,7.94,0,0,0-.82,3.62,1.51,1.51,0,0,0,1.35,1.67c3.28.89,6.62.79,10.79.9,2-.15,4.9-.41,7.77-.56" transform="translate(-202.09 -200.31)"/><path class="cls-1" d="M294,529.68a57.63,57.63,0,0,0,7.85,2.48c6.45,1.68,13.13,1.35,19.7,2,5.43.49,10.88,1.14,16.35.66a10.49,10.49,0,0,0,1.94,0c7.34-1.24,14.78-1.8,22.12-3.1a12.25,12.25,0,0,0,5.13-1.82c2.86-2,3.65-4.51,2.57-7.81a8.47,8.47,0,0,0-3.63-4.2c-2-1.41-4.3-2.18-6.73-.51a1,1,0,0,1-1.65-.79c0-.55-.15-.92-.8-1-2.26-.22-4.52-.64-6.78-.7-12.55-.33-25.12-.5-37.66.15-3.34.17-6.95-.54-9.93,1.83a1,1,0,0,1-.79.13c-1.68-.49-3.13.28-4.61.83a4.14,4.14,0,0,1-1.24.33c-3,.15-4.72,2.13-6.17,4.42a2.72,2.72,0,0,0-.06,3,10,10,0,0,0,4.39,4.18" transform="translate(-202.09 -200.31)"/><path class="cls-1" d="M450.84,458.08a124,124,0,0,0-12.37-4.45c-4.44-1.17-8.86-2.48-13.36-3.33q-8.26-1.57-16.52-3.19c-1.39-.27-2.82-.11-4.3-.47a14.72,14.72,0,0,0-7,.43c-1,.25-1.25.7-1.3,1.67-.13,2.6.2,5.2.05,7.78-.44,7.58,0,15.13.27,22.69.4,7.09.51,14.18,1.11,21.26.4,4.72.64,9.46,1.93,14.06.13.47.14.9.79.55,2-1.06,4.24-1.1,6.43-1.44,6.76-1,12.78,1.27,18.38,4.49,2.37,1.36,4.78,2.79,7.06,4.36.49.34.72.28.9-.33,1.36-4.62,3.86-8.78,5.32-13.37.87-2.77,2.15-5.41,2.92-8.24,1.27-4.69,3-9.24,4.15-14,1-3.93,2.6-7.71,3.35-11.67.95-5,2.31-9.91,3.32-14.89a1.45,1.45,0,0,0-1.09-1.95" transform="translate(-202.09 -200.31)"/><path class="cls-1" d="M420.23,340.31c-1.33,5.52-3.11,10.89-4.79,16.3-1.15,3.7-2.16,7.45-3.24,11.17-.19.64-.37,1.21.66,1.08a49.3,49.3,0,0,1,8.24.05c8.15-.29,16.34-.3,24.39-1.82,5.1-1,5.1-1,2.37-5.45-1.28-2.07-2.95-3.86-4.26-5.88a35.37,35.37,0,0,0-5.2-5.84c-1.68-1.67-3.67-3.05-5.36-4.69a52.54,52.54,0,0,0-8.68-6.64c-2.93-1.85-3.3-1.71-4.13,1.72" transform="translate(-202.09 -200.31)"/><path class="cls-1" d="M372.72,305.18c-1.22,2.1-2.13,4.38-3.48,6.37a138.09,138.09,0,0,0-9.46,16.58c-1.84,3.74-4,7.27-5.73,11.07-1.58,3.48-3.7,6.72-5.32,10.19a92.66,92.66,0,0,1-4.44,9.33c-1,1.56-.61,2.58.62,3.46,2.12,1.52,2.66,4,3.72,6.1,1.44,2.85,2,6,2.87,9.1a34.14,34.14,0,0,1,1.23,9.32,138,138,0,0,1-.68,14.07c-.4,3.65-.23,7.36-.46,11-.15,2.38-.28,2.24,2.14,2.2s4.84-1.31,7.11-.74A20.29,20.29,0,0,0,365,413c1.76-.27,3.46-.83,5.24-1.06a73.33,73.33,0,0,0,8.59-1.58c3.24-.81,6.42-1.86,9.6-2.88,5.53-1.78,9.82-5,12.38-10.4,1.18-2.47,1.31-5.23,2.5-7.69,1.93-3.95,2.73-8.29,4-12.47.67-2.23,1.89-4.3,2.42-6.5,1.21-5,3.22-9.82,4.44-14.88,1.07-4.47,3.22-8.65,4.24-13.22s2.61-8.69,3.69-13.11c.61-2.48,1.35-4.9.62-7.47-.67-2.37-.9-4.91-2.89-6.72a88.63,88.63,0,0,0-10.31-7.91c-1.56-1-3.28-1.85-4.85-2.81s-3.36-2.12-5-3.29-3.41-2.41-5.14-3.58c-3.11-2.13-6.52-3.82-9.3-6.41a11.21,11.21,0,0,0-2.29-1.46c-.48-.28-1-.18-1.11.23-.76,2.12-2.53,3.61-3.45,5.61-1.57,3.43-3.77,6.5-5.66,9.74" transform="translate(-202.09 -200.31)"/><path class="cls-1" d="M330.51,226.92a85.09,85.09,0,0,1,17.25,1.34,65.53,65.53,0,0,1,7.48,1.49c.28.09.64.28.91,0s.06-.49-.06-.74c-1.37-3-2.53-6.09-4.17-8.92a60.26,60.26,0,0,0-6-8.61c-3-3.61-6.71-6.42-11.57-7.16-2.3-.35-4.5.47-6.74.77a6.7,6.7,0,0,0-3,.68,22.75,22.75,0,0,0-6.58,6c-2.29,3.35-4.76,6.61-6.37,10.33-1.12,2.58-3,4.89-3.35,8.21,1.59-.9,3.09-.8,4.52-1,5.85-1,11.63-2.32,17.66-2.32" transform="translate(-202.09 -200.31)"/><path class="cls-1" d="M256.1,385.16c.2-.29.6-.52.35-1-1.27-2.3-2-4.91-3.77-6.9a8.61,8.61,0,0,1-1.8-3c-.59-1.66-1.73-2.22-3.5-1.92-3.35.56-6.72,1-10.06,1.67-4.1.79-8.29.83-12.4,1.56-.68.12-1.08.24-1.11,1-.16,4.47,0,8.73,3.16,12.5,3,3.61,6.22,6.33,10.52,5.64,8.37-.1,14.39-3.17,18.61-9.59" transform="translate(-202.09 -200.31)"/><path class="cls-1" d="M350.54,230.36c-5-.62-10-1.27-14.71-1.87-6.81.54-13.38.36-19.85,1.63-2,.39-3.62.56-4.09,3A40.55,40.55,0,0,1,310,238.8c-.36,1,.06,1.26,1,1,1.57-.37,3.17-.65,4.74-1a60.87,60.87,0,0,1,10.18-1.76,113.38,113.38,0,0,1,18.15.24c2.83.24,5.51,1.07,8.28,1.52.64.11,1.3.33,1-.72-.55-2.18-1.15-4.35-1.72-6.53-.16-.6-.34-1.1-1.1-1.2" transform="translate(-202.09 -200.31)"/><path class="cls-1" d="M287.11,283.44c4.75-2.31,9.59-4.42,14.42-6.56,4.4-1.95,9-3.4,13.52-4.91,5.29-1.75,10.83-2.46,16.18-4,.25-.08.64-.22.76-.11,1.51,1.4,3.29.5,4.94.65a2.86,2.86,0,0,1,1.27.2c2.06,1.42,4.57,1.54,6.8,1.71,5.07.39,9.31,3,14,4.43,3.26,1,6.15,3.09,9.34,4.44,2.51,1.05,4.68,2.83,7.49,3.6a56.5,56.5,0,0,0-2.14-7.68c-1.95-4.52-3-9.36-5-13.86-1.51-3.4-2-7.17-3.74-10.51a22.79,22.79,0,0,1-1.61-4,6.36,6.36,0,0,0-4.78-4.69c-2.87-.78-5.81-1.22-8.66-2A51.68,51.68,0,0,0,336,238a97.84,97.84,0,0,0-18.06,1.78,93.89,93.89,0,0,0-15.25,3.78c-.56.2-1.19.27-1.34,1-.56,2.78-2.28,5.08-3.17,7.7-1.79,5.22-4.18,10.19-6,15.37-.76,2.14-2.18,4-2.72,6.22a53.3,53.3,0,0,1-3.24,8.62c-.16.37-.51.85-.1,1.19s.71-.08,1-.25" transform="translate(-202.09 -200.31)"/><path class="cls-1" d="M350.64,609.43c-.87-.11-1.69-.44-2.4.4a.53.53,0,0,1-.94-.09c-.39-.94-1.25-1-2-1.12a58.05,58.05,0,0,0-10-.89c-.36,0-.8-.15-1,.35s.06.7.46.91c.84.43.94,1.13.89,2-.23,4.05-.61,8.09-.67,12.16-.11,8-.48,16-.74,24.06,0,.8-.22,1.73.32,2.37a2.64,2.64,0,0,1,.41,2.28c-.55,6.31-1.65,12.57-1.78,18.92-.1,5.12-1,10.2-.7,15.33a.72.72,0,0,1-.42.81c-.62-.26-.24-1-.92-1.54a9,9,0,0,0-.13,1.05c-.1,4.45-.62,8.86-1.16,13.27a175.85,175.85,0,0,0-1.07,23.06,210,210,0,0,0,1.29,25.81c.09.7.06,1.28,1.12,1a13,13,0,0,1,2.25,0,180.58,180.58,0,0,1,21.44-.71c6.33.27,12.69.39,19,1.09,5.7.64,11.36,1.54,17.08,2,1,.08,1.32-.11,1.51-1.1.51-2.6.62-5.28,1.76-7.74a11.15,11.15,0,0,0,1.15-3.54c.08-.68,0-.91-.78-1a20.09,20.09,0,0,0-4.51-.35c-.54,0-1.08.07-1.33-.63s-.45-1.11.13-1.62a1.78,1.78,0,0,0,.48-.65,48.6,48.6,0,0,0,3-14.19,28.37,28.37,0,0,0-.07-6.32c-.85-5-2-10-5.83-13.85a26.25,26.25,0,0,0-11.22-7c-2.87-.84-5.91-.27-8.87-.43a6.65,6.65,0,0,0-3.78.67c-2.31,1.31-4.86,2.23-6.69,4.29-.53.58-1.13.68-1.64,0s-.22-1.18.5-1.53a13.91,13.91,0,0,0,2.63-1.89,6.62,6.62,0,0,1,2.27-1.52c2.68-.7,5.18-2.24,8.11-1.86,1,.12,1.2-.35,1.09-1.24a29.25,29.25,0,0,1-.31-4.86c.15-4.28.13-8.57.41-12.84.24-3.73-.26-7.44.15-11.18.34-3.08,1.1-6.08,1.44-9.12.5-4.32,1.6-8.51,2.29-12.79.73-4.6,2.44-9,3.78-13.42a37.89,37.89,0,0,1,2.66-6.61c1.24-2.38.94-3.23-1.73-3.77a21.84,21.84,0,0,1-4.49-1.32,33.23,33.23,0,0,0-6.91-2.25c-5.15-1-10.26-2.24-15.48-2.86m18.52,125.35c4.13.37,8.22,1.36,12.36,1.88.77.11,2.11.26,1.92,1.26-.14.79-1.42.36-2.19.35-4.25-.09-8.3-1.45-12.48-2-4.46-.58-8.93-1-13.41-1.36a154.71,154.71,0,0,0-19.13-.91c-.91,0-1.82.16-2.74.25-.57.06-1.22.06-1.27-.64s.66-.58,1.11-.63a73.94,73.94,0,0,1,8.29,0c9.18.59,18.38,1,27.54,1.84" transform="translate(-202.09 -200.31)"/><path class="cls-1" d="M423,535c.38,1.67.72,3.35,1.15,5a55.55,55.55,0,0,1,1.57,7.78,26.23,26.23,0,0,0,2.31,8.26,2.1,2.1,0,0,0,2.36,1.33c1-.12,1.15-1,1.38-1.79a3.36,3.36,0,0,0,.13-1.61,26.4,26.4,0,0,0-2.4-7.7c-1.26-2.41-2.73-4.7-3.86-7.2A10.86,10.86,0,0,0,423,535" transform="translate(-202.09 -200.31)"/><path class="cls-1" d="M309.41,425.48c2.55-.43,5.12-.77,7.65-1.31,5.46-1.16,11.07-.54,16.57-1.65,4-.82,8.2-.25,12.27.54a15.4,15.4,0,0,0,3.91.23,2.31,2.31,0,0,0-1.75-.72c-.53,0-1.11,0-1.25-.77s.38-.81.89-1.09a23,23,0,0,0,2.58-1.86c-13.39-1.28-26.48-.54-40,.34,1.61,1.41,1.57,2.16-.1,3.12-1.07.61-1.62,2.09-2.44,3.22a2.46,2.46,0,0,0,1.63,0M334,420.43l-4.3.24c1.38-1,2.85-.46,4.3-.24m-10.35.21c-.82,1.1-1.88.28-2.83.49.86-.64,1.89-.25,2.83-.49m-5.33.55c-1.57.8-3.23.18-4.81.29l4.81-.29" transform="translate(-202.09 -200.31)"/><path class="cls-1" d="M310.48,429.59a2.93,2.93,0,0,0-1.26,1.23c-.33.67-1.56,1.07-1.2,1.75.46.87,1.46,0,2.21,0,5-.39,10.1-.81,15.13-1.36,2.84-.31,5.65-1,8.49-1.31,5.11-.55,10.23-.93,15.34-1.38.33,0,.72,0,.69-.47s-.47-.66-.68-.53c-1.08.65-1.92-.28-2.88-.56l2.21-.43a1,1,0,0,0,.91-1c0-.47-.56-.59-1-.63-.65-.05-1.3-.07-1.94-.13-3.76-.33-7.47-1-11.3-.83-3.13.17-6.21.92-9.34.86-4.46-.09-8.83.65-13.22,1.18-1,.11-1.93.31-2.88.49-.31.06-.74.18-.7.53s.36.52.61.7a2.72,2.72,0,0,0,.75.29,1.16,1.16,0,0,1,.9,1c0,.54-.53.41-.83.58m17.86-1.51c-5.44,0-10.76,1.5-16.2,1.12,5.42-.23,10.73-1.79,16.2-1.12" transform="translate(-202.09 -200.31)"/><path class="cls-1" d="M222.66,391.86l3.74,1a2.28,2.28,0,0,0,1.89,0c-1.57-1.31-3-2.49-3.75-4.3a.63.63,0,0,0-.78-.42c-.86.27-1.57-.19-2.46-.52-.56.88.52,1.71.11,2.35-1.13,1.76.29,1.63,1.25,1.88" transform="translate(-202.09 -200.31)"/><path class="cls-1" d="M350.23,476.31c.85-.51,1.92-.62,2.64-1.58-14.66,1.12-29.39,1-44,3,1.08.39,1.73,1.32,2.68,1.65,1.54.53,1,1.33.37,2.12s-1.36,1.4-2,2.11c-.21.23-.47.56-.22.85s.49.12.75.1c3.39-.32,6.79-.63,10.18-1,5.27-.58,10.49-1.6,15.78-2s10.28-1.16,15.46-1.94a2.41,2.41,0,0,0-1.5-1.26c-.5-.22-1.18-.27-1.15-.94s.6-.84,1.08-1.13m-13.65,1.47a34.67,34.67,0,0,1,9.44-.36c0,.17,0,.34,0,.51l-9.46-.15" transform="translate(-202.09 -200.31)"/><path class="cls-1" d="M405.41,545.73c-1.43,3.53-3.18,6.91-4.48,10.52a39.81,39.81,0,0,0-1.81,6.64c-.18,1-.18,1.86,1.43,1.76a4,4,0,0,0,3.55-2.56c1.54-3,1.67-6.32,2.42-9.5a77.54,77.54,0,0,0,1.16-8.5,2.9,2.9,0,0,0-.23-2.06c-.41,1.51-1.53,2.43-2,3.7" transform="translate(-202.09 -200.31)"/><path class="cls-1" d="M306.34,443.67c.16.32.47.18.72.17a49.27,49.27,0,0,0,6.29-.63c6.06-1.1,12.27-.7,18.36-1.74,4.85-.82,9.8-.82,14.67-1.52a16.92,16.92,0,0,0,5.2-1.12,2,2,0,0,1,2.16.17c.23.18.34.69.72.36s0-.71-.26-.91a13.7,13.7,0,0,0-4.84-2.46c-.52-.13-1-.21-1.1-.74a1.17,1.17,0,0,1,.64-1.34c1.25-.73,2.43-1.59,3.63-2.41.43-.3,1.18-.5,1-1.11s-1.06-.48-1.52-.46c-4.75.23-9.51.41-14.24.89-4.07.42-8.09,1.59-12.15,1.72-4.93.16-9.78,1.21-14.73,1a9.41,9.41,0,0,0-2.07.34c-.91.17-1.11.5-.41,1.26,1.55,1.7,3.26,2.84,5.71,2.52,1.38-.18,2.79-.15,4.36-.22-.83.7-1.68.42-2.44.57-1.81.36-3.85-.28-5.41,1.19l-4,3.79c-.19.19-.45.36-.3.67" transform="translate(-202.09 -200.31)"/><path class="cls-1" d="M310.16,448.51c-1.23.79-1.63,2.31-2.91,3-.45.24-.91.62-.72,1.12s.78.19,1.16.13a59.48,59.48,0,0,1,6.56-1c3.52-.14,7-.65,10.5-.94,4.26-.34,8.49-.92,12.73-1.44s8.63-.55,12.89-1.3c.36-.06.88.06.87-.48s-.5-.52-.84-.67c-.72-.3-1.37.14-2,.24a.93.93,0,0,1-1-.39c-.15-.23.06-.36.22-.52,1.85-1.78,3.29-4,5.55-5.55-1.1-.45-1.81.32-2.64.33a120.43,120.43,0,0,0-13.66,1.41,26.92,26.92,0,0,1-3.47.62c-7.7,0-15.32,1-23,1.61-.7.06-1.72-.08-1.93.53s.67,1.22,1.2,1.74,1.15,1.16.5,1.58m19.41-1.46a82.52,82.52,0,0,1-13,.92,74.91,74.91,0,0,1,13-.92" transform="translate(-202.09 -200.31)"/><path class="cls-1" d="M243.94,395.54c.92.64,1.82.15,2.58.45.29.12.67.25.77-.21a.62.62,0,0,0-.62-.76,7,7,0,0,0-2.73.52" transform="translate(-202.09 -200.31)"/><path class="cls-1" d="M247.73,543.5c-.15.25-.29.37-.3.51-.24,3.34-.45,6.69-.36,10a35.72,35.72,0,0,0,.94,7.57c.28,1.14.88,2.3,2.19,2.24s1.94-1.21,2.05-2.52a9.63,9.63,0,0,0,0-1.78c-.19-1.83-.33-3.67-.65-5.47a39,39,0,0,0-3.9-10.6" transform="translate(-202.09 -200.31)"/><path class="cls-1" d="M233.33,531.4a49.16,49.16,0,0,0-5,12.58,5.09,5.09,0,0,0,.22,3.35c.46,1.07,1.17,1.16,2,.39a5.57,5.57,0,0,0,2-4.08,74.36,74.36,0,0,1,.78-7.42,20.49,20.49,0,0,0,.35-5c-.2.08-.34.08-.38.15" transform="translate(-202.09 -200.31)"/><path class="cls-1" d="M396.69,531.27a106.62,106.62,0,0,0-8.27,7.49A15.19,15.19,0,0,0,386,542a1.8,1.8,0,0,0,.06,2.14c.55.63,1.29.47,2,.24a7.76,7.76,0,0,0,4.4-4.06,36.54,36.54,0,0,1,3.3-5.68,17,17,0,0,0,2.83-4.43,12.08,12.08,0,0,0-1.9,1" transform="translate(-202.09 -200.31)"/><path class="cls-1" d="M270.16,530.52c-1.75-.78-3.4-1.76-5.11-2.62a8.91,8.91,0,0,0-4.31-1.15c-.44,0-1.11-.29-1.27.31-.11.44.3.92.73,1.19,2.29,1.41,3.5,4.09,6.08,5.16a1,1,0,0,1,.46.44c.94,1.7,2.7,1.81,4.1,2.25,2.09.15,2.89-.86,2.12-2.58a5.87,5.87,0,0,0-2.8-3" transform="translate(-202.09 -200.31)"/><path class="cls-1" d="M224.78,441.06c1.69-1.42,3.89-1.85,5.72-3a22.33,22.33,0,0,1,12.64-3.31c.39,0,.82.06,1.08-.24a48.21,48.21,0,0,1,4.75-4.25c-1.35-.54-2.11.24-3,.44-4.94,1.13-10,1.64-14.86,3.13a51.2,51.2,0,0,1-6.52,1.85,12,12,0,0,0-4.77,2.26c-.46.33-.64.64-.07,1,1.36.77,2.75,1.48,4.12,2.25a.68.68,0,0,0,.87-.1" transform="translate(-202.09 -200.31)"/><path class="cls-1" d="M369.29,587.91c-3.08-.59-6.14-1.32-9.24-1.75a22.68,22.68,0,0,0-5.52-.6c1.16,2.7,3.53,3.22,5.73,4-4-.29-6.23-.22-8,.52-.56.24-1.43.35-1.4,1.14s.89.78,1.5.92c5,1.09,10.06,1.63,14.61,4.16.27.16.68.4,1-.14-1-.81-2-1.63-3-2.4-.7-.51-.63-.94,0-1.36,1.51-.95,3-1.87,4.52-2.85.39-.25,1.27-.06,1.08-.9-.15-.64-.79-.63-1.33-.73m-4,3.64a.56.56,0,0,1-.82.28,21.57,21.57,0,0,0-3.27-1.89c1.34-.21,2.44.49,3.64.71a.66.66,0,0,1,.45.9" transform="translate(-202.09 -200.31)"/><path class="cls-1" d="M310.86,457.07a13.32,13.32,0,0,0-2.78,1.91c-.44.33-1.12.6-.92,1.14s.93.3,1.44.22c2.4-.38,4.78-.88,7.19-1.14,4.89-.54,9.8-.8,14.71-1.13,6.05-.4,12.07-1.06,18.14-.65,1.51.1,3-.05,4.54-.09.28,0,.59-.05.63-.37a.67.67,0,0,0-.24-.55c-1.88-1-3.17-3.26-5.75-2.91-.26,0-.6.1-.69-.23s.25-.55.54-.66c1.46-.55,2.15-1.91,3.23-2.91-14.52,1.91-29.18,1.55-43.54,4.49,1.12.38,2,1.33,3.2,1.37a.74.74,0,0,1,.76.71.75.75,0,0,1-.46.8" transform="translate(-202.09 -200.31)"/><path class="cls-1" d="M301.41,596.13c-1.24-.39-2.59.1-3.72-.56-1.73.4-3.44.22-5.09.51-2.08.37-4.46.43-5.15,3.17-.07.29-.49.51-.25.86s.66.17,1,.13a75.54,75.54,0,0,1,8-.86c1.61,0,3.5-1.54,4.92.53,0,.06.33,0,.42,0a3,3,0,0,0,1.17-2.21c0-.93-.58-1.29-1.38-1.53" transform="translate(-202.09 -200.31)"/><path class="cls-1" d="M291.52,595.65c.1.18,1,0,1.55-.11a10.89,10.89,0,0,1,4.32-.4c.42.05,1,.13,1.09-.42.32-1.55,1.61-2.32,2.57-3.36-4.35-1.76-8.51.13-12.74.69-.31,0-.56.23-.3.69.79,1.41,2.74,1.42,3.51,2.91" transform="translate(-202.09 -200.31)"/><path class="cls-1" d="M366.94,605.66a3,3,0,0,0-2.25-1.08,14.16,14.16,0,0,1-2.87-.45c-3.41-.78-6.82-1.7-10.38-1.48-.45,0-1.07-.18-1.27.43s.28.8.62,1c1.22.88,1.43,1.73.23,2.85-.64.6-.61,1.15.54,1.29,2.31.3,4.58.82,6.88,1.1s4.67,1,7,1.46c.13-1.42-2-1.78-1.24-3,.57-.89,1.73-1.39,2.72-2.12" transform="translate(-202.09 -200.31)"/><path class="cls-1" d="M298,589.28c2.61-.27,2.64-.23,3.08,2.05.17-.62.75-.88,1.17-1.28s.54-.88.09-1.1c-2.09-1-3.74-3.06-6.61-2.2a22.46,22.46,0,0,1-6.84,1.12c.57-.35.77-.56,1-.6a34.63,34.63,0,0,1,7.37-1.17,2,2,0,0,0,1.65-.49c.91-1,1.82-2,2.74-3,.42-.45.51-.87-.14-1.13a12,12,0,0,1-4.17-2.65c-.26-.25-.76-.31-.54-.8a.65.65,0,0,1,1-.35c1.32,1,1.57-.08,1.75-.94a20.68,20.68,0,0,1,.82-2.12c.11-.33.56-.62.18-1s-.69-.13-1.06-.05c-3,.6-6.05,1.25-9.09,1.75a36.57,36.57,0,0,0-4.92,1.2,3.86,3.86,0,0,0,.66.52c2,.82,2.06,1.15.61,2.8-.64.74-1.64,1.07-2.12,2-.17.33-.47.65-.18,1a.92.92,0,0,0,.91.23c1-.13,2-.3,3.06-.45a103.68,103.68,0,0,1,11-.91c.77,0,1,.36.9,1s-.43.79-1.06.45A2.78,2.78,0,0,0,298,583a71,71,0,0,0-9.87.89c-.42.07-1-.06-1.13.41s.54.56.86.77c1.52,1,1.48,1.67-.18,2.62a3.87,3.87,0,0,0-1.71,1.44c-.25.47-.68,1-.34,1.5s1,.34,1.49.19A65,65,0,0,1,298,589.28" transform="translate(-202.09 -200.31)"/><path class="cls-1" d="M353.76,598.17c-1.13.39-2.3.6-3.12,1.8s-.22,1.21.67,1.23a47.23,47.23,0,0,1,9.15,1.28c1.84.42,3.64,1.21,5.65,1-.42-1.88-1.73-2.53-3.34-3-2.37-.62-4.71-1.39-7-2.09a5.62,5.62,0,0,1,5.07.78c2.18,1.57,4,.26,5.92-.13a1,1,0,0,0,.79-1.08c0-.68-.5-.77-1-.87a31.72,31.72,0,0,1-4.59-1.54,35.73,35.73,0,0,0-9.23-2.14,5.82,5.82,0,0,0,2.32,2.36c1,.68.54,1.17,0,1.75-.34.4-.85.4-1.31.56" transform="translate(-202.09 -200.31)"/><path class="cls-1" d="M352.75,495c-.67-1.48-3-1.41-3-3.44,0-.17-.47,0-.73,0-7.23,1.64-14.6,1.72-21.07,2.12-5.6-.14-10.28.57-15,.72-.64,0-1.77-.12-1.88.55-.12.83,1.11.77,1.67,1.21.35.29,1,.22,1.36.49.57.42,1.16,1,.09,1.58-.48.28-1.31.61-.72,1.29s.59,1.66,1.87,1.45c5.55-.91,11.21-.74,16.78-1.68,6.07-1,12.15-2.1,18.29-2.63a7.3,7.3,0,0,0,1.88-.52c.53-.2.76-.37.41-1.16" transform="translate(-202.09 -200.31)"/><path class="cls-1" d="M299.32,506.28c1,1.17,1.19,2.64,1.91,3.89s1.43,2.11,1.47,3.49a.77.77,0,0,0,.95.83c1.18-.15,2.38-.08,3.56-.24,4.25-.61,8.53-.67,12.8-.86s8.25-.17,12.39-.1c3.38.07,6.79.13,10.2,0,4.37-.14,8.78-.28,12.89.57a2.48,2.48,0,0,0,2.65-1.31c1-1.56,1.52-3.31,2.47-4.88,2.13-3.54,1.54-4.65-2.49-5.34H358a180.44,180.44,0,0,0-21.55-1.22c-5.11-.09-10.14.79-15.23.91a21.14,21.14,0,0,0-3.73.09c-1.44.3-2.89.19-4.34.94-1,.49-2.49-.11-3.78,0a32.49,32.49,0,0,0-9.06,1.66c-.71.28-1.71.65-.95,1.55" transform="translate(-202.09 -200.31)"/><path class="cls-1" d="M308.79,476.18c7.17-.5,14.34-1,21.52-1.52,4.15-.27,8.31-.61,12.48-.65,2.74,0,5.33-.84,8-1,.71-.05,1.85.45,2-.36.22-1-1.08-1.14-1.73-1.66-.15-.12-.41-.11-.61-.17-1.31-.39-1.31-.74-.54-1.92.62-1,1.83-1,2.89-2-14.79.32-29.17,0-43.69,1.67,1.2,1.62,3,1.53,4.19,2.42l-5.7,5.12a8.67,8.67,0,0,0,1.13.12" transform="translate(-202.09 -200.31)"/><path class="cls-1" d="M351.1,497.79c-1,.11-2,.3-3,.45l-9.43,1.42c0,.15,0,.31,0,.47,4.19,0,8.38,0,12.57.28,1.29.07.78-1.06,1-1.67.24-.86-.41-1-1.06-.95" transform="translate(-202.09 -200.31)"/><path class="cls-1" d="M288.34,568.56a34.19,34.19,0,0,0,5.63-.65c3.31-.52,4.74-2.89,4.92-5.66a41.44,41.44,0,0,0-.47-8.26c-.35-2.77-.87-5.52-1.32-8.28a23.6,23.6,0,0,1-4.19,7.27c-2.12,2.68-4.41,3.68-7.72,2.75-.73-.21-1.45-.46-2.19-.62-1.8-.38-2-.28-1.5,1.49.75,2.93,1.53,5.86,2.51,8.73a4.32,4.32,0,0,0,4.33,3.23" transform="translate(-202.09 -200.31)"/><path class="cls-1" d="M293.94,569.57a18.88,18.88,0,0,1-4.68.35c-.43,0-1-.18-1.24.18-1,1.66-2.87,2.62-3.44,4.73,3-.22,5.8-1,8.71-1.14,2.17-.08,4.2-1,6.32-1.41.4-.09.94-.28,1-.74s-.58-.65-.92-.75c-1.87-.55-3.64-1.75-5.73-1.22" transform="translate(-202.09 -200.31)"/><path class="cls-1" d="M350.12,485.82c-.55.06-1-1.13-1.18-1.86s.62-.81,1.18-1a7.6,7.6,0,0,0,2.86-1.27,5.05,5.05,0,0,0-.66-.13c-8.6.37-17.12,1.5-25.66,2.44-3.54.39-7,1.35-10.6,1.31-1.93,0-3.87.3-5.81.46-.38,0-.87.08-1,.47s.45.51.77.65c1.2.51,2.4,1,3.58,1.55.56.26,1,.82.14,1.13-1.61.6-2,2.18-3.32,3.6,14.86-.24,29.29-.82,43.65-4.67-1.52-.87-1.8-2.95-4-2.68M322,488.71a23.89,23.89,0,0,1-6.32.32l6.33-.32h0a4.44,4.44,0,0,1,2.46-.61,45.44,45.44,0,0,0,7.73-.35,1,1,0,0,1,1.14.31c-3.79,1.2-7.59.63-11.35.65" transform="translate(-202.09 -200.31)"/><path class="cls-1" d="M352.5,459.84c.25-.14.74-.08.61-.56s-.52-.23-.82-.24c-6.66-.15-13.32-.59-20,.07-4.69.47-9.42-.21-14.09.84-2.79.62-5.66.9-8.49,1.34-.3,0-.72-.08-.8.35s.4.41.64.59a9.89,9.89,0,0,1,2.21,1.67c-1.64.43-3.21,1-3.47,2.93,14.57,0,29.06-1.05,43.82-1.9-.93-1.52-2.27-1.33-3.64-1.59a15.71,15.71,0,0,1,4-3.5" transform="translate(-202.09 -200.31)"/><path class="cls-1" d="M229.22,445.59c3.88-1.95,8.18-2.75,12.21-4.33a24,24,0,0,1,6.69-1.86c.8-.07,2.23-.17,2.22-.91,0-1.05-1.32-1.37-2.34-1.57-4.64-.93-9.1-.91-13.61,1.07a53.22,53.22,0,0,0-10,5.44,12.49,12.49,0,0,0-5.07,6.63c.29,0,.49,0,.6,0,2.88-1.94,6.23-2.89,9.3-4.43" transform="translate(-202.09 -200.31)"/><path class="cls-1" d="M378.34,553.48a5.61,5.61,0,0,0-1.37.44,4.65,4.65,0,0,1-2.71.21,12.38,12.38,0,0,1-7.92-5.08c-.22-.28-.41-.73-.86-.6s-.45.58-.55.93c-.45,1.5-.84,3-1.33,4.5-1.12,3.42-1,7.06-1.84,10,.07,3.56,1.07,4.65,4,5.25,1.67.34,3.34.17,5,.36,2.56.3,3.39-.2,4.47-2.57,1.77-3.86,2.78-8,4.38-11.94.58-1.42.26-1.69-1.29-1.48" transform="translate(-202.09 -200.31)"/><path class="cls-1" d="M441.51,442.57a13.46,13.46,0,0,1-3.27-3.66c1.6-.05,2.5-1.12,3.77-1.26.32,0,.72,0,.84-.4s-.28-.66-.58-.87a2.74,2.74,0,0,0-1-.55,60.2,60.2,0,0,1-8.78-2.81,84,84,0,0,0-9.1-2.27c-4.11-.95-8.2-2-12.31-3-.62-.14-1.64-.75-1.91-.06-.33.89.92,1,1.48,1.35a10.67,10.67,0,0,1,3.76,3c.38.55.52,1.17-.21,1.22-.91.05-1.69.65-2.65.42-1.37-.32-2.46.38-3.78,1.27,3.92.93,7.52,1.68,11.06,2.65,3,.82,6.07,1,9.07,1.77a63.27,63.27,0,0,1,8.08,2.81c1.9.75,3.84,1.44,5.74,2.21.56.23,1.22.56.8,1.29s-1,.61-1.66.2a48.38,48.38,0,0,0-12.7-5.19c-6.43-1.6-13-2.75-19.46-4.08-.41-.08-1-.26-1.19.2s.29.74.57,1c1.08,1.06,2.24,2.05,3.25,3.17.53.6.7,1.38-.58,1.28-.38,0-.79-.24-.92.28a1.25,1.25,0,0,0,.1.92c.31.42.67,0,1-.08,4.06-.63,8.12-1.38,12.22-.2a43.61,43.61,0,0,1,11.69,5c.38.24.82.63,1.35.43,2.29-.85,4.72-1.16,7-1.84.53-.15,1.19-.33.75-1.07a9.31,9.31,0,0,0-2.52-3.12" transform="translate(-202.09 -200.31)"/><path class="cls-1" d="M409.73,446.06l27.19,5.72.15-.39c-4.37-2.8-8.85-5.54-14-6.53a23,23,0,0,0-13.34,1.2" transform="translate(-202.09 -200.31)"/><path class="cls-1" d="M440.26,411.65c-.65-.39-1.33-.82-1.4-1.68-.08-1.07,1-.57,1.41-1a5.23,5.23,0,0,1,.64-.5c.32-.22,1-.14.85-.77-.09-.42-.6-.43-.94-.54-1.89-.61-3.89-1.07-5.68-1.82a71,71,0,0,0-19.48-5.23c-.67-.08-1.75-.59-2,.26-.16.57.95.83,1.6,1.05a1.24,1.24,0,0,1,.83,1.26c0,.7-.62.62-1.09.64a3.68,3.68,0,0,0-1.67.62,36.78,36.78,0,0,0-5.24,3.71c-.25.23-.55.48-.49.8.12.51.63.33,1,.32,7-.07,13.75,1.23,20.52,2.61a88.48,88.48,0,0,1,12.41,3c.63.23,1.42.47,1.17,1.26s-1,.57-1.6.25c-4.4-2.24-9.23-3-14-3.92-4-.81-8-1.38-12-2a21.05,21.05,0,0,0-7.59.16c-.4.08-1,0-1,.56s.61.49,1,.5c1.83,0,3.64.55,5.49.07.78-.21,1.26.42,1.36,1.06s-.36,1-1.05.87-.77.22-.81.72a2.62,2.62,0,0,1-2.31,2.54c-.35.07-.81.25-.77.7s.58.59,1,.64a20.86,20.86,0,0,1,3,.57A43.06,43.06,0,0,0,419.3,420a81.45,81.45,0,0,1,12.17,2.74c3.82,1.2,7.82,1.37,11.77,2.23-1.25-1.44-1.93-3.25-3.45-4.4-.34-.25-.84-.41-.71-1s.69-.65,1.16-.71c1.6-.22,3.22-.39,4.83-.57,1-.12,1.21-.71.61-1.41-1.66-1.92-3.2-3.95-5.42-5.3" transform="translate(-202.09 -200.31)"/><path class="cls-1" d="M438.52,429c2.42-.66,4.85-.37,7.11-1.3-1.72.05-2.81-1.35-4.37-1.69-6.06-1.35-12.09-2.79-18.12-4.27a137.43,137.43,0,0,0-14.88-3.24c-.49-.06-1.23-.39-1.36.38-.1.59.65.67,1.07.76,2.32.5,4,2,5.75,3.45.81.65.78,1.75,0,2.05-1,.39-1.26,1.56-2.42,1.65,11.61,2.4,23,5.17,34.22,9.46-2.44-2.25-3.47-5.8-7-7.25" transform="translate(-202.09 -200.31)"/><path class="cls-1" d="M444.43,405a45.36,45.36,0,0,1-5.92-4.3c-.25-.23-.57-.38-.42-.75a.63.63,0,0,1,.82-.35c1.38.5,2.3-.53,3.42-1.19-1-.24-2-.5-3-.71a46.88,46.88,0,0,0-18.16-.81c-1.47.26-2.81,1.13-4.39.95-.51-.06-1.26-.16-1.35.53-.13.94.81.75,1.29.81a54.45,54.45,0,0,1,11.14,2.64c5.74,2,11.6,3.61,17.23,5.91a1,1,0,0,0,1.19-.21c.43-.4.13-.79-.1-1.15a5.38,5.38,0,0,0-1.77-1.37" transform="translate(-202.09 -200.31)"/><path class="cls-1" d="M441.78,387.9c-.78.18-1.55.45-2.33.66s-1.55,0-1.19-.89c1.31-3.09-.65-1.12-1.42-1a5.12,5.12,0,0,1-1.09.31,4.42,4.42,0,0,0-3.36,1.7,19.21,19.21,0,0,1-6.53,4.09,38.2,38.2,0,0,1-10.36,2.46c-.48.06-1.3-.11-1.21.66.07.6.79.28,1.33.32l4.05-.69a30.72,30.72,0,0,0,6.41-1.68,49.65,49.65,0,0,1,12.47-3.22c1.38-.19,2.93-.35,4-1.59a1,1,0,0,0,.27-1.05c-.23-.5-.68-.19-1-.11" transform="translate(-202.09 -200.31)"/><path class="cls-1" d="M440,394.37a1.46,1.46,0,0,1-1.31-.48c-.42-.53.17-.87.27-1.3s.9-.63.8-1.33A50.67,50.67,0,0,0,427,394.57c.16.55.5.51.81.53a91.44,91.44,0,0,1,12.67,1.61c1.05.22,2.1.49,3.16.67s2.18,0,2.39-1.1c.16-.87-1-1.11-1.71-1.42a9.16,9.16,0,0,0-4.31-.49" transform="translate(-202.09 -200.31)"/><path class="cls-1" d="M435.57,385.68c1.54-.22,2.33-1.45,3.63-1.57a.37.37,0,0,0,.31-.48.33.33,0,0,0-.51-.2c-1.17.56-2.66.62-3.43,2.25" transform="translate(-202.09 -200.31)"/><path class="cls-1" d="M373,579.54c-1.19-.78-2.65-.57-3.75-1.18-4-2.21-8.45-2.57-12.9-3.3-.29.2-.85-.21-1.06.37s.21.69.44,1c1.1,1.31,2.17,2.63,3.29,3.92.37.42.79.8.57,1.41s-.93.62-1.51.58a11.62,11.62,0,0,0-3.71.4c-.32.09-.7.12-.72.51s.43.52.79.59a33,33,0,0,1,4,.82c3.54,1.15,7.23,1.33,10.86,1.92.42.07.78.08,1-.29s-.13-.57-.36-.79a5.25,5.25,0,0,1-1.22-2.61c-.13-.52,0-1.11.5-.92,1.78.74,2.62-.83,3.84-1.43.51-.24.69-.5,0-1" transform="translate(-202.09 -200.31)"/><path class="cls-1" d="M369.18,571.06c-2.57.62-5-1.51-7.71-.17a12.52,12.52,0,0,0-3.45,2c-.23.22-.61.36-.53.74s.58.38.93.44a58.84,58.84,0,0,1,10.83,2.65,36.56,36.56,0,0,0,4.23,1,8.86,8.86,0,0,0-1.92-2.6c-.92-1-2.27-1.78-1.82-3.5.11-.46-.25-.63-.56-.55" transform="translate(-202.09 -200.31)"/><path class="cls-1" d="M437.88,371.92c-4.34.53-8.72.57-13.07.83-3.47.22-6.92-.55-10.38-.05-.58.09-1,.18-1.27.79-.8,2.12-1.72,4.21-2.4,6.37-1.09,3.5-1.41,7.22-3.11,10.54-.43.83.21,1.29.76,1.75,1.75,1.51,3.86,1.79,6.09,1.83,5.71-.32,11.06-1.8,15.62-5.37a22.5,22.5,0,0,0,9-15.39c.12-1,0-1.45-1.26-1.3" transform="translate(-202.09 -200.31)"/><path class="cls-1" d="M223.84,431.48c.14.63-.55.71-.91,1a8.94,8.94,0,0,0-3.24,3.78,205.78,205.78,0,0,1,29.67-8.07,5.83,5.83,0,0,0-3.17-1.08c-.45-.06-1.15,0-1.19-.57a1.32,1.32,0,0,1,.84-1.44c.46-.16.9-.36,1.36-.52a7,7,0,0,0,2.62-1.59c.24-.23.46-.48.36-.84s-.5-.36-.81-.35c-.92,0-1.84.05-2.75.1-8.6.51-17.12,1.44-25,5.24-1.26.6-2.82.77-3.89,2.07a17.28,17.28,0,0,0,4.79,1.54c.51,0,1.18.13,1.33.76" transform="translate(-202.09 -200.31)"/><path class="cls-1" d="M218.68,402c.69.79.69,1.42-.18,2a10,10,0,0,0-2.09,2.18c5.51-1.52,10.53-3.69,16.09-3.88,5.38-.18,10.63-2,16.44-1.6a8.56,8.56,0,0,0-1.47-1.26c-1.64-.81-2.77-2.62-4.9-2.47-2.85.21-5.71,0-8.56,0-5.72,0-11.41-.21-17,1.21-.78.2-1.15.24-.49,1s1.41,1.9,2.19,2.79m1.87-1.94a6.78,6.78,0,0,1,3.2,0c-1,.7-2.15.42-3.2.75a.6.6,0,0,1-.5-.31c-.15-.45.27-.35.5-.4" transform="translate(-202.09 -200.31)"/><path class="cls-1" d="M217.65,396.34a96.45,96.45,0,0,1,13.94-.77c-1.07-1.37-2.32-.72-3.35-1.06a62,62,0,0,0-9.43-2.27c-1.13-.19-1.72.12-1.26,1.34a5.51,5.51,0,0,1,.1,2.76" transform="translate(-202.09 -200.31)"/><path class="cls-1" d="M288.35,608.29c-.23.26-.08.8.26.77,1.15-.12,2.15.75,3.4.28a37.22,37.22,0,0,1,8.23-2.41c.77-.1,2-.14,2.13-.88s-.95-1.48-1.6-1.78c-1.1-.51-1.23-1.08-.89-1.76a3.84,3.84,0,0,1,.36-.58c.6-.81.39-1.27-.54-1.52a4.15,4.15,0,0,0-1.75-.2c-2.36.34-4.72.64-7.07,1-.27,0-.7,0-.71.51a6.89,6.89,0,0,0,1.06.68.9.9,0,0,1,.34,1.15c-.61,1.87.56,1.28,1.39,1a10.6,10.6,0,0,1,5.66-.7c-2.42,0-4.52,1.38-6.84,1.63-1.93.21-2.45,1.73-3.43,2.84" transform="translate(-202.09 -200.31)"/><path class="cls-2" d="M453,454.84c-2.69-1.06-5.24-2.47-8.06-3.23a3.62,3.62,0,0,1-2.24-1.47c1.79,0,3.17.1,4.55.05a2,2,0,0,0,2.07-2.34c-.22-1.56-.2-3.27-1.94-4.19a4.83,4.83,0,0,1-1.44-1.3c-.36-.46-.74-1.23.35-1.2a3.24,3.24,0,0,0,3.22-1.94,3.64,3.64,0,0,0-.61-4.35A17.48,17.48,0,0,1,447,432.4c-.17-.23-.6-.64-.25-.79,1.37-.61,1.14-2.18,1.95-3,1.25-1.32.65-2.35-.27-3.38-.72-.8-1.58-1.49-2.26-2.33-.35-.44-.87-1.42.37-1.3,2.11.21,2.65-.91,3.1-2.66a4.44,4.44,0,0,0-1.12-4.7c-1.72-1.81-1.57-1.9.62-3.16.7-.4,1.27-1,1.94-1.47a1,1,0,0,0,.43-1.27,12.44,12.44,0,0,0-4-6.1c-.49-.38-1.34-.45-1.23-1.3s1-.81,1.65-1c2.23-.53,3.62-3.35,2.22-5-.76-.9-1.52-2.07-2.82-2.46-1.12-.35-1.49-1.06-.88-2.09A21.63,21.63,0,0,0,447.7,387c.68-1.71,0-2.67-1.86-2.89a9.29,9.29,0,0,0-1.29-.06c-1,0-1.64,0-.8-1.19a1.45,1.45,0,0,0-.33-2.15,1.07,1.07,0,0,1-.48-1,59.92,59.92,0,0,1,.55-7.44c.13-.67.53-.65.92-.57,3,.61,5.56-.93,8.27-1.74.73-.22,1.43-.84,1.25-1.5-.38-1.45-.14-3-.57-4.37-1.15-3.71-3.39-6.86-5.64-9.94-.93-1.29-1.56-2.83-2.87-3.87a61.55,61.55,0,0,1-4.73-4.55,71.28,71.28,0,0,0-10.4-8.93c-.88-.59-1.44-1.6-2.6-1.82-2.07-.39-2.36-.87-1.58-3.47a21.87,21.87,0,0,0,.84-5.39,35.18,35.18,0,0,0-.85-7.86,9.5,9.5,0,0,0-3.12-5.67,89.5,89.5,0,0,0-10.86-8.29c-3.25-2.13-6.66-4-9.86-6.17s-6.23-4.34-9.44-6.36-5.78-4.5-9.08-6.15a6.08,6.08,0,0,1-2.71-2.23c-2.06-3.51-2.85-7.53-4.4-11.26-2.05-4.91-3.33-10.14-5.27-15.11-1.69-4.31-2.91-8.79-4.81-13-1.74-3.88-3-7.95-5-11.76a50.89,50.89,0,0,1-3.45-7.84,31.84,31.84,0,0,0-4.94-9.24c-2-2.82-3.66-5.87-6.16-8.42a22.21,22.21,0,0,0-9.67-5.92c-5.09-1.45-10.15.05-14.95,2.21-1.44.65-1.73,2.31-3.06,3a6.06,6.06,0,0,0-2.17,1.63c-1.49,2.18-3.38,4-4.83,6.25a98.33,98.33,0,0,0-5.37,9.68c-1.47,2.94-2.61,6.06-4.21,8.91-.69,1.24-.76,2.57-1.38,3.77a55,55,0,0,0-3.36,7c-1.63,4.65-3.55,9.2-5.38,13.76-2,5.08-4,10.16-5.67,15.36-1.15,3.64-2.2,7.32-3.27,11-.15.5-.21.88-.86,1-3.11.43-5.31,2.74-7.85,4.22-3.17,1.86-6.28,3.92-9.48,5.77-3.49,2-7.07,3.87-10.4,6.17-3.93,2.71-8,5.21-11.9,7.95-1.68,1.18-3.62,2-5.1,3.38a45.13,45.13,0,0,0-5.26,5.18,12.43,12.43,0,0,0-2.72,5.74c-.52,3.39.81,6.24,2.47,9,.49.81,1.14,1.61,0,2.36-1.33.89-2.44,2.11-3.74,3-3.55,2.39-6.2,5.67-9.13,8.68a27.11,27.11,0,0,0-3.21,3.32c-1.44,2.14-2.35,4.62-3.92,6.69-1.33,1.74-1.7,3.91-2.7,5.82a13.73,13.73,0,0,0-1.85,5,6.89,6.89,0,0,0,1.58,5.61,6.24,6.24,0,0,0,4.86,2.16,6.33,6.33,0,0,1,3.4.88c.77.48,2.38-.1,2.32,1.53a39.17,39.17,0,0,1-.4,5.51c-.12.68-.19,1.21-1.11,1.28a2.46,2.46,0,0,0-2.2,2.1c-.21,1.21-.75,1.22-1.72,1.29-2.62.17-3.34,1.41-2.44,3.9.17.46.3.93.5,1.37.32.68.08,1-.61,1.14a2.64,2.64,0,0,0-1.76,4.4c.8,1.12,1.29,2.51,2.48,3.34.79.55.65,1.16.18,1.8-1.24,1.69-2.41,3.43-3.55,5.2a2.09,2.09,0,0,0,0,2.45c.67,1.36,1.95,1.41,2.95,2s2.55.21,2.6,1.43c0,1-.82,2.05-1.43,3-2,3-2,3,.58,5.51.43.42,1.25.81.78,1.58-.77,1.27-.89,2.83-2.09,4-1.56,1.46-1.17,2.83.69,3.57.88.36,2.43-.17,2.56.94.08.75-1.07,1.65-1.67,2.48-.16.22-.38.39-.53.61a3,3,0,0,0,1.07,4.38,18.35,18.35,0,0,0,3.28,1.3c1,.4,1.28.9.51,1.81s-1.19,1.68-1.8,2.47c-1.27,1.67-2.38,3.66-4.71,4.19a7.34,7.34,0,0,0-2.48.57,42.2,42.2,0,0,1-5.83,3.43c-1.62.81-1.76,1.13-.91,2.77a.79.79,0,0,1,0,.87,2.06,2.06,0,0,0,.06,1.73c1.88,4.73,2.55,9.81,4.33,14.58,1.34,3.57,2.26,7.31,3.25,11,.79,2.92,1.75,5.79,2.71,8.63.84,2.47,1.89,4.94,2.67,7.43a88.73,88.73,0,0,0,4.85,11.79c1.7,3.53,3.66,6.92,4.81,10.7a1.9,1.9,0,0,0,1.14,1.33c1.72.44,1.36,1.56,1.06,2.74a8.77,8.77,0,0,0-.27,1.6c-.1,1.59-.25,3.47,1.13,4.35,1.62,1,1.1,1.89.46,3-.21.38-.39.78-.57,1.17-1.49,3.24-2.64,6.52-1.72,10.19a2.55,2.55,0,0,0,2.43,2.18,4.69,4.69,0,0,0,4.68-4,20.63,20.63,0,0,1,.83-4c2.3,2.06,4.13,4.36,6.86,5.61a5,5,0,0,0,3.78,0,63.87,63.87,0,0,0,.26,11,10.9,10.9,0,0,0,2.16,5.85,2.94,2.94,0,0,0,4.09.75c2-1.11,2.59-3,2.68-5a25.94,25.94,0,0,0-2-10c-.82-2.25-.6-2.42,1.67-3.07,2.1-.6,4.14-1.41,5.53-3.32a1.63,1.63,0,0,1,2.57-.41c.72.51.92,1.28,1.55,1.79,3.77,3,7.36,6.31,11.9,8.22,1.21.51,2.26,1.27,2.21,2.68a22.07,22.07,0,0,0,2.06,9.13c.6,1.44.94,3.29,2,4.15,1.72,1.35,1.54,2.23.2,3.48a8.5,8.5,0,0,0-.78.81c-1.12,1.43-1.25,3-.12,3.71s1.07,1.54.46,2.55a7.72,7.72,0,0,1-1.6,2.23c-1.14.92-.64,1.85.05,2.66a5.71,5.71,0,0,0,1.72,1.2c.55.27,1.41.18,1.4,1.06s-.63,1-1.25,1.31a2.45,2.45,0,0,0-.37,4.35,22.19,22.19,0,0,0,2,1.13c1.54.94,1.64,1.87.53,3.25a24.32,24.32,0,0,0-1.81,2.69,1.88,1.88,0,0,0,.14,2.46,3.05,3.05,0,0,0,.58.47,15.8,15.8,0,0,0,1.94.8c.6.26,1.53.65,1.22,1.27-.73,1.5-1.06,3.37-2.7,4.22-2.58,1.35-5.56,1.63-8.13,3.07a15.14,15.14,0,0,1-4.21,2.07c-1.24.26-1.74.85-1.1,2.05a1.16,1.16,0,0,1-.07,1.37c-.68.76-.42,1.51-.17,2.29.79,2.47,1.38,5,2.07,7.5.74,2.68.95,5.44,1.54,8.12.89,4.07,2.11,8.06,3.14,12.09.29,1.15.35,2.36.6,3.52,1.22,5.64,2.45,11.28,2.5,17.08,0,4.75.6,9.51.13,14.26a20.55,20.55,0,0,0,.18,6.91c.11.49-.18.77-.39,1.16-.7,1.32-2.19,1.71-3.09,2.8A93.47,93.47,0,0,0,267.54,706a46.9,46.9,0,0,0-4.42,10c-1.21,4-2.07,8.11-1.38,12.32.36,2.21.26,4.44.53,6.64.1.72-.19,1-.79,1.14a27.49,27.49,0,0,0-4,1.43c-1.48.47-2.58,3.09-2.14,4.6a53.69,53.69,0,0,1,1.83,12c.19,3.43,2.43,5.41,5.77,4.42a98.3,98.3,0,0,1,20.84-3.72c7.18-.51,14.33-1.41,21.53-1.18,6.22.2,12.44-.49,18.66.08a10.63,10.63,0,0,0,2.74-.17,6.91,6.91,0,0,0,2.25-.76c.1,1.05.74,1.29,1.95,1.18,2.85-.27,5.72-.48,8.58-.68,4.1-.28,8.21,0,12.29-.16,8.52-.31,16.92.81,25.34,1.67,3.29.33,6.55.91,9.84,1.2,1.81.16,3.51.94,5.4.65,2.57-.39,3.78-1.43,4.47-3.88,1.12-4,2.24-7.9,3.16-11.91.77-3.35-.35-5.75-3.67-6.53-1.15-.27-1.47-.72-1.08-1.93A37.13,37.13,0,0,0,397,719.9c-.13-4.56.57-9.18-1.19-13.63-1.67-4.23-3.77-8-7.87-10.48-1.72-1-3.54-1.79-5.31-2.7a23.65,23.65,0,0,0-8.05-2.82c-1-.11-1.47-.58-1.41-1.6s.14-2.27.14-3.4c0-6.84.39-13.65,1-20.46.43-4.84,1.37-9.66,1.47-14.51.16-7.55,2.75-14.53,4.6-21.67.87-3.37,2.59-6.52,3.95-9.75.22-.54.44-1.21.05-1.54-1.69-1.38-2.77-3.27-4.28-4.79-.16-.17-.49-.18-.74-.26l-8.51-2.65c-.33-.11-.86-.1-.84-.59s.5-.52.85-.67c2.34-1,2.73-2.4,1.3-4.55-.24-.36-.39-.78-.65-1.12-.94-1.22-.64-1.66.86-2,2.55-.54,3.06-2.39,1.36-4.32a21,21,0,0,0-1.69-1.94c-.86-.75-.61-1.23.2-1.72,1.48-.9,2.95-1.8,4.42-2.72.5-.31,1.21-.73.83-1.37-.5-.86-.36-2-1.33-2.69-.44-.33-1.48-1.17-.58-2a5,5,0,0,1,2.16-1.36c1.8-.44,2.57-2.32,1.29-3.6s-1.86-3.14-3.1-4.48c-.52-.57-.53-.82.27-1.4,1.71-1.23,3.71-2.38,4.44-4.48.92-2.71,2-5.38,2.92-8.08a20,20,0,0,0,1.46-7.45,2.1,2.1,0,0,1,1.34-2.32c2.95-1.67,5.87-3.41,8.79-5.13a12.22,12.22,0,0,0,2.38-1.76,9.83,9.83,0,0,0,4.45,4c.51.24.5.51.25.87a24.69,24.69,0,0,0-3.36,8.17c-.48,1.93-1.41,3.75-1.53,5.79a3.2,3.2,0,0,0,4.75,3.23c1.91-1,3.6-2.26,4.13-4.64.3-1.38.56-2.76.79-4.15.35-2.19.79-4.36,1.22-6.54.12-.57.32-1,1.11-.62,3.15,1.64,6.51,1.32,9.86.93a21.81,21.81,0,0,0,5.37-1.74c.38,2.06.74,4.13,1.16,6.18.29,1.4.8,2.72,2.38,3.22,3.12,1,5-.5,5.08-4.36-.29-1.54-.3-3.43-.8-5.28s-2.2-3.41-2.68-5.34c0-.13-.09-.26-.13-.39l0,.06c.57.6,1.28-.38,1.77-.73,1.22-.87,1.52-2.36,2.38-3.44a12.16,12.16,0,0,0,1-14.14c-.38-.61-.54-1.08.24-1.43a4.35,4.35,0,0,0,2.35-3c1.12-3.35,2.73-6.52,3.83-9.91,1.16-3.58,2.4-7.16,3.71-10.68a213.3,213.3,0,0,0,7-24.81c1.25-5.21,2-10.53,3.24-15.74.53-2.2-.09-3.75-2.21-4.59m-9.68-8.08c-2.33.68-4.76,1-7,1.84-.53.2-1-.19-1.35-.43a43.61,43.61,0,0,0-11.69-5c-4.1-1.18-8.16-.43-12.22.2-.35.05-.71.5-1,.08a1.25,1.25,0,0,1-.1-.92c.13-.52.54-.32.92-.28,1.28.1,1.11-.68.58-1.28-1-1.12-2.17-2.11-3.25-3.17-.28-.28-.84-.52-.57-1s.78-.28,1.19-.2c6.49,1.33,13,2.48,19.46,4.08a48,48,0,0,1,12.7,5.19c.7.41,1.29.47,1.66-.2s-.24-1.06-.8-1.29c-1.9-.77-3.84-1.46-5.74-2.21a63.27,63.27,0,0,0-8.08-2.81c-3-.74-6.09-.95-9.07-1.77-3.54-1-7.14-1.72-11.06-2.65,1.32-.89,2.41-1.59,3.78-1.27,1,.23,1.74-.36,2.65-.42.73-.05.59-.67.21-1.22a10.67,10.67,0,0,0-3.76-3c-.56-.32-1.81-.46-1.48-1.35.27-.69,1.29-.08,1.91.06,4.11,1,8.2,2,12.31,3a84,84,0,0,1,9.1,2.27,60.2,60.2,0,0,0,8.78,2.81,2.74,2.74,0,0,1,1,.55c.3.21.72.42.58.87s-.52.36-.84.4c-1.27.14-2.17,1.21-3.77,1.26a13.61,13.61,0,0,0,3.27,3.66,9.31,9.31,0,0,1,2.52,3.12c.44.74-.22.92-.75,1.07m-6.21,4.63-.15.39-27.19-5.72a23,23,0,0,1,13.34-1.2c5.15,1,9.63,3.73,14,6.53m-25.75-24.6c1.16-.1,1.46-1.27,2.42-1.66.76-.3.79-1.4,0-2.05-1.76-1.41-3.43-2.95-5.75-3.45-.42-.09-1.17-.17-1.07-.76.13-.77.87-.44,1.35-.38a137.09,137.09,0,0,1,14.89,3.24c6,1.48,12.06,2.92,18.12,4.27,1.56.34,2.65,1.74,4.37,1.69-2.26.93-4.69.64-7.11,1.3,3.55,1.45,4.58,5,7,7.25-11.17-4.29-22.6-7.06-34.21-9.45m-8.55,10.45c1.49,1.07,2.31,2.68,3.5,4,.75.81.51,1.19-.35,1.48a10,10,0,0,1-4.19.18c-3.06-.28-6,.87-9.05.71a1.37,1.37,0,0,0-1.28,2c.82,2.24.42,4.53.48,6.77.17,6.88,0,13.77.25,20.64.19,4.69.54,9.38.65,14.08.11,5.4.6,10.79.53,16.21,0,3,.9,6,1.44,8.94.3,1.63.64,2.92-1,4.43a10.61,10.61,0,0,0-3.16,6.78c-.11,1.19-.42,1.36-1.63,1-4.3-1.3-8.61-2.61-13.16-2.7a1.81,1.81,0,0,1-1.9-1.06c-2.17-4.13-5.42-6.65-10.35-6.47-2.13.07-2.2-.06-1.15-2,.95-1.74,1.66-3.6,2.71-5.31,1.49-2.44-.15-6.41-2.88-7.33-1.69-.57-3.42-1-5.13-1.5-.39-.12-1-.1-.93-.7s.59-.53,1-.64l.62-.16c.7-.22,1.38-.52,1.43-1.36a2.14,2.14,0,0,0-1.09-1.84.66.66,0,0,0-.15-.05c-2.29-1.33-2.32-2-.08-3.41.76-.48,1.61-.86,1.26-1.94s-.51-2.2-2-2.15a.71.71,0,0,1-.81-.65c0-.47.34-.6.66-.81,1.93-1.21,2.2-2.74.88-4.65-.53-.76-1.09-1.55.14-2.25.33-.19.4-.58.49-1,.27-1.14.18-2.31.57-3.46.32-1-.66-1.5-1.43-1.92-2.09-1.14-2.1-1.21-.27-2.73s1.93-3.07,0-4.43c-1.61-1.11-1.66-1.66-.24-3a7.59,7.59,0,0,1,.78-.59c1.47-1.13,1.47-1.53-.12-2.59,1.45-1.41,1.45-1.77,0-3-1.08-.91-1.7-2.41-3.61-2.92a20.34,20.34,0,0,0,2.35-2c1.56-1.74,1.32-3.15-.78-4-1.16-.49-.88-.88-.33-1.59a22.64,22.64,0,0,0,3.49-5.44c.37-.95.29-1.53-.6-2a16.6,16.6,0,0,0-2.84-1.55c-.8-.24-.79-.71-.12-1.1a5.08,5.08,0,0,0,1.8-1.61c1.51-2.34.64-4.56-2.3-5.84a2.56,2.56,0,0,1,.35-.53,2.06,2.06,0,0,0-.55-3.52c-1.78-.74-1.71-.87-.64-2.43,1.43-2.08,3.53-2.11,5.67-2.29a62.78,62.78,0,0,0,8.29-1.23c2.69-.57,5.42-.92,8.09-1.52q5.5-1.22,11-2.69c1.31-.35,2.65-.45,4-.76,2.87-.68,4.71-2.9,7-4.36.83-.52,1.47-1.38,2.36-1.92,1.72-1.07,2-3.12,3.06-4.67a27.86,27.86,0,0,0,2.09-4.37c.25-.57.46-.81,1.06-.39.44.3,1,.49,1.44.75a1.85,1.85,0,0,1,.5.35c-.65,1.4.07,3.28-.62,4.26-1.35,1.91-2.16,4.14-3.61,5.91s-1.35,3.43-.8,5.38c.33,1.2.75,2.14,2.29,2.18a2.45,2.45,0,0,1-2.12,1.35c-1.84.22-2.14,1.72-2.25,2.94s.15,2.48,2,2.57a4.18,4.18,0,0,1,2.7,1.49,1.55,1.55,0,0,1-1.34.38c-1.59-.11-2.23.68-2.43,2.16s.64,2.2,1.71,2.78a19.56,19.56,0,0,1,3.35,2.35c-2.52.7-3.47,2.87-4.93,4.5a1.35,1.35,0,0,0,.36,1.9M270.39,526.39c-.18.21-.54.35-.7.09a1.47,1.47,0,0,1-.11-.93,41,41,0,0,0,.45-6.16c.11-3.11-1.31-5.63-2.93-8.08a4.55,4.55,0,0,0-2.22-1.58c-.76-.32-1.42-.73-.45-1.63a1.59,1.59,0,0,0,.34-1c.06-3.63.71-7.21.94-10.82.34-5,.18-9.94.53-14.88.33-4.75.13-9.48.28-14.22.11-3.55-.45-7.1-.53-10.65-.06-2.37-.72-4.72-.29-7.11.2-1.11-.58-2-.67-3.12a66.51,66.51,0,0,0-1.19-9,3.26,3.26,0,0,0-3.06-2.26c-.16,0-.41.08-.46,0-1.18-1.74-2.64-.87-4-.44a6.42,6.42,0,0,1-4-.33c-.47-.15-.9-.38-.88-1s.43-.69.92-.89c1.87-.75,2.66-2.47,3.16-4.23a1.62,1.62,0,0,0-1.19-2c-1-.3-.94-.85-.08-1.28a5.56,5.56,0,0,0,1.72-1.47c1.26-1.49,1.2-2.21-.17-3.62-.49-.51-.88-1.11-1.39-1.58a1.62,1.62,0,0,1-.29-2.49c.77-1.15-.41-4.24-2.07-5.56-.82-.66-1.36-1.53-2.12-2.21-.29-.25-.59-.55-.35-1s.63-.34,1-.32a3.43,3.43,0,0,0,3.42-1.36,3.9,3.9,0,0,0-1.26-5.71c-.73-.48-1.63-.77-1.36-1.91s0-2.46,1.65-3.34a15.38,15.38,0,0,0,5.53-4.42c.73-1.06,1.08-.9,1.57.15.62,1.31,1.19,2.63,1.74,4a67.59,67.59,0,0,0,4.21,8c.35.61,1.37.86,1.67,1.48,1.44,2.95,4.42,4.22,6.6,6.36.64.63,1.5.55,2.23.85,3.13,1.29,6.18,2.83,9.54,3.52a39.45,39.45,0,0,0,4.05.32c4,.43,7.89,1.36,11.9,1.58.93.05,1.84,0,2.75,0,.32,0,.71-.06.82.35a.83.83,0,0,1-.33.86,1.64,1.64,0,0,0-.24.21c-.54.74-1.8.8-1.81,2.09s1.18,1.26,1.84,1.78.35.77-.05,1.16c-.82.8-1.6,1.63-2.39,2.45-1.32,1.37-1.18,2.86.44,3.73.79.43.82.89.41,1.56-.5.84-1,1.68-1.47,2.53-1,1.81-.56,3.22,1.33,4.07s1.94,1.29,1,2.93c-.67,1.11-1.42,2.17-2.17,3.22a2.51,2.51,0,0,0,.68,3.89,5.86,5.86,0,0,0,1.19.84c.86.3.73.79.37,1.36-.65,1.06-1.32,2.1-2,3.15-1.17,1.84-1.06,3.22.59,4.53.93.74,1,1.33.16,2.1a16.32,16.32,0,0,0-1.36,1.4,1.61,1.61,0,0,0,.54,2.57,5,5,0,0,0,.84.47c1.24.44,1.63,1.12.77,2.27a7.29,7.29,0,0,0-.52,1c-1.28,2.44-.9,3.53,1.65,4.64,1.9.83,1.94,1,.43,2.5a13.75,13.75,0,0,0-2.82,4.15,1.58,1.58,0,0,0,1,2,19.13,19.13,0,0,0,2.68,1.15c.83.27,1,.51.33,1.18a12.33,12.33,0,0,0-2.46,4.14,2.33,2.33,0,0,0,1.47,3.34c3.09,1.21,3.08,1.2.87,3.83-.95,1.11-1.9,2.28-.94,3.86.48.78,1.48.82,2.2,1.26l0,.47c-1.48.17-3,.28-4.43.53-2.55.45-4.86,1.67-7.26,2.58-.82.31-.75,2.17-.16,3.22,1.24,2.2,2.4,4.44,3.59,6.67.38.69.24,1.1-.6,1.24-1.81.32-3.54,1-5.39,1.16a3.74,3.74,0,0,0-1.51.53c-2.42,1.47-4.73,3.06-5.47,6.06-.14.55-.46.76-1.08.69-3.87-.47-7.31,1.11-10.75,2.47-1.48.58-3.2.76-4.33,2.09m.45,9.71c-1.4-.44-3.16-.55-4.1-2.25a1,1,0,0,0-.46-.44c-2.58-1.07-3.79-3.75-6.08-5.16-.43-.27-.84-.75-.73-1.19.16-.6.83-.29,1.27-.31a8.91,8.91,0,0,1,4.31,1.15c1.71.86,3.36,1.84,5.11,2.62a5.87,5.87,0,0,1,2.8,3c.77,1.72,0,2.73-2.12,2.58m-46.45-92.67a53.22,53.22,0,0,1,10-5.44c4.51-2,9-2,13.61-1.07,1,.2,2.32.52,2.34,1.57,0,.74-1.42.84-2.22.91a24,24,0,0,0-6.69,1.86c-4,1.58-8.33,2.38-12.21,4.33-3.07,1.54-6.42,2.49-9.3,4.43-.11.07-.31,0-.6,0a12.49,12.49,0,0,1,5.07-6.63M219.86,438a11.92,11.92,0,0,1,4.77-2.26,51.2,51.2,0,0,0,6.52-1.85c4.87-1.49,9.92-2,14.86-3.13.85-.2,1.61-1,3-.44a48.21,48.21,0,0,0-4.75,4.25c-.26.3-.69.25-1.08.24a22.33,22.33,0,0,0-12.64,3.31c-1.83,1.14-4,1.57-5.72,3a.68.68,0,0,1-.87.1c-1.37-.77-2.76-1.48-4.12-2.25-.57-.32-.39-.63.07-1m17.63-43.2c-4.3.69-7.49-2-10.52-5.64-3.15-3.77-3.32-8-3.16-12.5,0-.8.43-.92,1.11-1,4.11-.73,8.3-.77,12.4-1.56,3.34-.64,6.71-1.1,10.06-1.67,1.77-.3,2.91.26,3.5,1.92a8.61,8.61,0,0,0,1.8,3c1.77,2,2.5,4.6,3.76,6.9.26.46-.14.69-.34,1-4.22,6.42-10.24,9.49-18.61,9.59m9.8,1c-.1.46-.48.33-.77.21-.76-.3-1.67.19-2.58-.45a7,7,0,0,1,2.73-.52.62.62,0,0,1,.62.76m-26-8.15c.9.33,1.61.79,2.47.52a.63.63,0,0,1,.78.42c.7,1.81,2.18,3,3.75,4.3a2.28,2.28,0,0,1-1.89,0l-3.74-1c-1-.25-2.38-.12-1.25-1.88.41-.64-.67-1.47-.12-2.35M316.18,414c-2-5.34-2.12-10.93-2-16.51.06-3.79,1.06-7.49,1.63-11.23a111.85,111.85,0,0,1,2.64-13.84,20.74,20.74,0,0,1,5.92-9.31c.61-.6,1.26-1.17,1.86-1.78,2.71-2.79,6.31-2.48,9.3-1.57a12.72,12.72,0,0,1,8.23,7,61.12,61.12,0,0,1,3,8,49.16,49.16,0,0,1,1.94,14.42c-.08,7.37-1.61,14.67-1.07,22.06.13,1.75-.84,3.47,0,5.26.35.71-.46.51-.82.51-2.32,0-4.65-.07-7-.1a41.86,41.86,0,0,0-9.09,0c-3.45.25-6.93.2-10.39.43-3.29.23-6.57.66-9.85,1-.44,0-1.11.34-1.27-.28s.42-1,.89-1.24a2.71,2.71,0,0,1,1.91-.19c1.69.34,2.73-.68,3.88-1.59.4-.32.36-.58.22-1m-6,8.34c1.67-1,1.71-1.71.1-3.12,13.48-.88,26.57-1.62,40-.34a23,23,0,0,1-2.58,1.86c-.51.28-1,.35-.89,1.09s.72.73,1.25.77a2.31,2.31,0,0,1,1.75.72,15.4,15.4,0,0,1-3.91-.23c-4.07-.79-8.25-1.36-12.27-.54-5.5,1.11-11.11.49-16.57,1.65-2.53.54-5.1.88-7.65,1.31a2.46,2.46,0,0,1-1.63,0c.82-1.13,1.37-2.61,2.44-3.22m.19,5.66a2.6,2.6,0,0,1-.75-.29c-.25-.18-.58-.44-.61-.7s.39-.47.7-.53c.95-.18,1.91-.38,2.88-.49,4.39-.53,8.76-1.27,13.22-1.18,3.13.06,6.21-.69,9.34-.86,3.83-.2,7.54.5,11.3.83.64.06,1.29.08,1.94.13.45,0,1,.17,1,.63a1,1,0,0,1-.91,1l-2.21.43c1,.28,1.8,1.21,2.88.56.22-.13.66.16.68.53s-.36.44-.69.47c-5.11.45-10.23.83-15.34,1.38-2.84.31-5.65,1-8.49,1.31-5,.55-10.08,1-15.13,1.36-.75.06-1.75.91-2.21,0-.36-.68.87-1.08,1.2-1.75a2.93,2.93,0,0,1,1.26-1.23c.3-.17.87,0,.83-.58a1.16,1.16,0,0,0-.9-1m.25,11.24c1.56-1.47,3.6-.83,5.41-1.19.76-.15,1.61.13,2.44-.57-1.57.07-3,0-4.36.22-2.45.32-4.16-.82-5.71-2.52-.7-.76-.5-1.09.41-1.26a9.41,9.41,0,0,1,2.07-.34c4.95.2,9.8-.85,14.73-1,4.06-.13,8.08-1.3,12.15-1.72,4.73-.48,9.49-.66,14.24-.89.46,0,1.34-.26,1.52.46s-.6.81-1,1.11c-1.2.82-2.38,1.68-3.63,2.41a1.17,1.17,0,0,0-.64,1.34c.11.53.58.61,1.1.74a13.7,13.7,0,0,1,4.84,2.46c.27.2.71.53.26.91s-.49-.18-.72-.36a2,2,0,0,0-2.16-.16,17.2,17.2,0,0,1-5.2,1.11c-4.87.7-9.82.7-14.67,1.53-6.09,1-12.3.63-18.36,1.73a49.27,49.27,0,0,1-6.29.63c-.25,0-.56.15-.72-.17s.11-.48.3-.67l4-3.79m-1,7.72c-.53-.52-1.43-1-1.2-1.74s1.23-.47,1.93-.53c7.65-.63,15.27-1.65,23-1.6a28.81,28.81,0,0,0,3.47-.63A120.43,120.43,0,0,1,350.49,441c.83,0,1.54-.78,2.64-.33-2.26,1.59-3.7,3.77-5.55,5.55-.16.16-.37.29-.22.52a.93.93,0,0,0,1,.39c.68-.1,1.33-.54,2-.24.34.15.83.25.84.68s-.51.41-.87.47c-4.26.75-8.6.76-12.89,1.3s-8.47,1.1-12.73,1.44c-3.5.29-7,.8-10.5.94a59.48,59.48,0,0,0-6.56,1c-.38.06-1,.39-1.16-.13s.27-.88.72-1.12c1.28-.68,1.68-2.2,2.91-3,.65-.42,0-1.14-.5-1.58m.9,8.63c-1.24,0-2.08-1-3.2-1.37,14.36-2.94,29-2.58,43.54-4.49-1.08,1-1.77,2.36-3.23,2.91-.29.11-.66.24-.54.66s.43.27.69.23c2.58-.35,3.87,1.87,5.75,2.91a.68.68,0,0,1,.24.56c0,.31-.35.35-.63.36-1.51,0-3,.2-4.54.09-6.07-.41-12.09.25-18.14.65-4.91.33-9.82.59-14.71,1.13-2.41.26-4.79.76-7.19,1.14-.51.08-1.23.35-1.45-.22s.49-.81.93-1.14a13.32,13.32,0,0,1,2.78-1.91.79.79,0,0,0-.3-1.51m39.74,22.82a2.41,2.41,0,0,1,1.5,1.26c-5.18.78-10.3,1.56-15.46,1.94s-10.51,1.42-15.78,2c-3.39.37-6.79.68-10.18,1-.26,0-.63.05-.75-.1s0-.62.22-.85c.67-.71,1.4-1.36,2-2.11s1.17-1.59-.37-2.12c-.95-.33-1.6-1.26-2.68-1.65,14.65-2,29.38-1.9,44-3-.72,1-1.79,1.07-2.64,1.58-.48.29-1.05.58-1.08,1.13s.65.72,1.15.94m1.84-13.45c-14.76.85-29.25,1.94-43.82,1.9.26-2,1.83-2.5,3.47-2.93a9.89,9.89,0,0,0-2.21-1.67c-.24-.18-.72-.14-.64-.59s.5-.31.8-.35c2.83-.44,5.7-.72,8.49-1.34,4.67-1.05,9.4-.37,14.09-.84,6.65-.66,13.31-.22,20-.07.3,0,.71-.2.82.24s-.36.42-.61.56a15.71,15.71,0,0,0-4,3.5c1.37.26,2.71.07,3.64,1.59m-38.78,6c-1.21-.89-3-.8-4.19-2.42,14.52-1.63,28.9-1.35,43.69-1.67-1.06,1.06-2.27,1-2.89,2-.77,1.18-.76,1.53.54,1.92.2.06.46,0,.61.17.65.52,1.95.69,1.73,1.66-.18.81-1.32.31-2,.36-2.7.19-5.29,1-8,1-4.16,0-8.33.38-12.48.65-7.18.48-14.35,1-21.52,1.52a8.67,8.67,0,0,1-1.13-.12l5.7-5.12m-4,32.13c1.29-.12,2.82.48,3.78,0,1.45-.75,2.9-.64,4.34-.94a21.14,21.14,0,0,1,3.73-.09c5.09-.12,10.13-1,15.23-.91A180.44,180.44,0,0,1,358,502.34h.16c4,.69,4.63,1.8,2.49,5.34-.95,1.57-1.46,3.32-2.47,4.88a2.48,2.48,0,0,1-2.65,1.31c-4.12-.85-8.52-.71-12.89-.57-3.41.11-6.82.05-10.2,0-4.14-.07-8.27-.08-12.39.1s-8.55.25-12.8.86c-1.18.16-2.38.1-3.56.24a.77.77,0,0,1-.95-.83c0-1.38-.84-2.38-1.47-3.49s-.92-2.72-1.91-3.89c-.76-.9.24-1.27.95-1.55a32.56,32.56,0,0,1,9.06-1.66m41.88-2.66c-4.19-.24-8.38-.29-12.57-.28,0-.16,0-.32,0-.47l9.43-1.42c1-.15,2-.34,3-.45.65-.07,1.3.09,1.06.95-.17.61.35,1.74-1,1.67m-.75-3.77c-6.14.53-12.21,1.62-18.29,2.63-5.57.94-11.23.77-16.78,1.68-1.28.21-1.39-.88-1.87-1.45s.24-1,.72-1.29c1.07-.61.48-1.16-.09-1.58-.37-.27-1-.2-1.36-.49-.56-.44-1.79-.38-1.67-1.21.11-.67,1.24-.53,1.88-.55,4.7-.15,9.38-.85,15-.72,6.47-.4,13.84-.49,21.07-2.12.26-.06.73-.19.73,0,0,2,2.3,2,3,3.44.35.79.12,1-.41,1.16a7.3,7.3,0,0,1-1.88.52m-40-3.47c1.3-1.43,1.71-3,3.32-3.6.84-.31.42-.87-.14-1.13-1.18-.55-2.38-1-3.57-1.55-.33-.14-.87-.17-.78-.65s.58-.44,1-.47c1.94-.16,3.88-.48,5.81-.46,3.61,0,7.06-.92,10.6-1.31,8.54-.93,17.06-2.07,25.66-2.44a5.05,5.05,0,0,1,.66.13,7.6,7.6,0,0,1-2.86,1.27c-.56.19-1.36.19-1.18,1s.63,1.92,1.18,1.86c2.19-.27,2.47,1.81,4,2.68-14.36,3.85-28.79,4.43-43.65,4.67m-20.8,29.38c1.45-2.29,3.17-4.27,6.17-4.42a4.14,4.14,0,0,0,1.24-.33c1.48-.55,2.93-1.32,4.61-.83a1,1,0,0,0,.79-.13c3-2.37,6.59-1.66,9.93-1.83,12.54-.65,25.11-.48,37.66-.15,2.26.06,4.52.48,6.78.7.65.07.77.44.8,1,.08,1.21,1.13,1.14,1.65.79,2.43-1.67,4.68-.9,6.73.51a8.47,8.47,0,0,1,3.63,4.2c1.08,3.3.29,5.8-2.57,7.81a12.25,12.25,0,0,1-5.13,1.82c-7.34,1.3-14.78,1.86-22.12,3.1a10.49,10.49,0,0,1-1.94,0c-5.47.48-10.92-.17-16.35-.66-6.57-.6-13.25-.27-19.7-2a57.63,57.63,0,0,1-7.85-2.48,10,10,0,0,1-4.39-4.19,2.7,2.7,0,0,1,.06-2.94M439.14,373.22a22.47,22.47,0,0,1-9,15.39c-4.56,3.57-9.91,5.05-15.62,5.37-2.23,0-4.34-.32-6.09-1.83-.55-.46-1.19-.92-.76-1.75,1.7-3.32,2-7,3.11-10.54.68-2.16,1.6-4.25,2.4-6.37.23-.61.69-.7,1.27-.79,3.46-.5,6.91.27,10.38.05,4.35-.26,8.73-.3,13.07-.83,1.25-.15,1.38.26,1.26,1.3m.37,10.41a.37.37,0,0,1-.31.48c-1.3.12-2.09,1.35-3.63,1.57.77-1.63,2.26-1.69,3.43-2.25a.33.33,0,0,1,.51.2m5.55,34.73c-1.61.18-3.22.35-4.82.57-.47.06-1,.11-1.16.71s.37.71.71,1c1.52,1.15,2.2,3,3.45,4.4-3.95-.86-7.95-1-11.77-2.23A80.23,80.23,0,0,0,419.3,420a43.44,43.44,0,0,1-5.94-1.59,19.57,19.57,0,0,0-3-.56c-.41-.06-1-.09-1-.65s.43-.63.78-.7a2.62,2.62,0,0,0,2.31-2.54c0-.5.21-.84.81-.72s1.15-.26,1.05-.87-.58-1.27-1.36-1.06c-1.85.48-3.66,0-5.49-.07-.38,0-1,.12-1-.5s.64-.48,1-.56a21.05,21.05,0,0,1,7.59-.16c4,.62,8,1.19,12,2,4.75,1,9.58,1.68,14,3.92.63.32,1.34.59,1.6-.25s-.54-1-1.17-1.26a88.48,88.48,0,0,0-12.41-3c-6.76-1.38-13.56-2.68-20.52-2.61-.33,0-.84.19-1-.32-.06-.32.24-.57.49-.79a36.06,36.06,0,0,1,5.24-3.72,3.68,3.68,0,0,1,1.67-.62c.47,0,1.1.06,1.09-.63a1.25,1.25,0,0,0-.83-1.27c-.65-.22-1.76-.48-1.6-1.05.25-.85,1.33-.34,2-.26a70.89,70.89,0,0,1,19.47,5.23c1.79.75,3.79,1.21,5.68,1.82.34.11.85.12.94.54.12.63-.53.55-.85.77a5.23,5.23,0,0,0-.64.5c-.42.4-1.49-.1-1.4,1,.06.85.74,1.28,1.39,1.68,2.22,1.35,3.76,3.38,5.42,5.3.6.7.41,1.29-.62,1.41m1.14-12c.23.36.53.75.1,1.15a1.05,1.05,0,0,1-1.2.21c-5.62-2.3-11.48-3.92-17.22-5.91a54.45,54.45,0,0,0-11.14-2.64c-.48-.06-1.42.13-1.29-.81.09-.69.84-.59,1.35-.53,1.58.18,2.92-.69,4.39-.95a46.88,46.88,0,0,1,18.16.81c1,.21,2,.47,3,.71-1.12.66-2,1.69-3.42,1.19a.63.63,0,0,0-.82.35c-.15.37.17.52.42.75a45.36,45.36,0,0,0,5.92,4.3,5.38,5.38,0,0,1,1.77,1.37m-1.85-11.49c.72.31,1.87.55,1.71,1.42-.21,1.07-1.35,1.28-2.39,1.1s-2.11-.45-3.16-.68a93,93,0,0,0-12.67-1.6c-.31,0-.65,0-.81-.53a50.67,50.67,0,0,1,12.77-3.31c.1.7-.67.8-.8,1.33s-.69.77-.27,1.3a1.44,1.44,0,0,0,1.31.48,9.16,9.16,0,0,1,4.31.49m-1.84-5.8c-1,1.24-2.58,1.4-4,1.59a49.65,49.65,0,0,0-12.47,3.22,30.72,30.72,0,0,1-6.41,1.68l-4.05.69c-.54,0-1.26.28-1.33-.32-.09-.77.73-.6,1.21-.66a38.2,38.2,0,0,0,10.36-2.46,19.21,19.21,0,0,0,6.53-4.09,4.42,4.42,0,0,1,3.36-1.7,5.12,5.12,0,0,0,1.09-.31c.77-.15,2.73-2.12,1.42,1-.36.84.42,1.09,1.19.89s1.54-.48,2.33-.66c.32-.08.77-.39,1,.11a1,1,0,0,1-.27,1.05M433,345.23c1.69,1.64,3.68,3,5.36,4.68a35.85,35.85,0,0,1,5.2,5.85c1.31,2,3,3.81,4.26,5.88,2.73,4.43,2.73,4.48-2.37,5.45-8.05,1.52-16.24,1.53-24.39,1.82a49.3,49.3,0,0,0-8.24-.05c-1,.13-.85-.44-.66-1.08,1.08-3.72,2.09-7.46,3.24-11.17,1.68-5.41,3.46-10.78,4.79-16.3.83-3.43,1.2-3.57,4.13-1.72a52.54,52.54,0,0,1,8.68,6.64m-51.21-55.4c.14-.41.63-.51,1.11-.23a11.49,11.49,0,0,1,2.29,1.46c2.78,2.59,6.19,4.28,9.31,6.41,1.72,1.17,3.44,2.36,5.13,3.58s3.3,2.27,5,3.29,3.29,1.77,4.85,2.82a87.46,87.46,0,0,1,10.31,7.9c2,1.81,2.22,4.35,2.89,6.72.73,2.58,0,5-.62,7.47-1.08,4.42-2.71,8.68-3.69,13.11s-3.17,8.75-4.24,13.22c-1.22,5.06-3.23,9.84-4.44,14.88-.53,2.21-1.75,4.27-2.42,6.5-1.25,4.18-2,8.52-4,12.47-1.19,2.46-1.32,5.22-2.5,7.69-2.56,5.38-6.85,8.62-12.38,10.4-3.18,1-6.36,2.07-9.6,2.88a73.33,73.33,0,0,1-8.59,1.58c-1.78.23-3.48.79-5.24,1.06a20.29,20.29,0,0,1-4.15.22c-2.27-.57-4.62.69-7.11.73s-2.29.19-2.14-2.19c.23-3.67.06-7.38.46-11a138,138,0,0,0,.68-14.07,34.14,34.14,0,0,0-1.23-9.32c-.83-3.07-1.43-6.25-2.87-9.1-1.06-2.11-1.59-4.58-3.72-6.1-1.23-.88-1.57-1.9-.62-3.46a91.8,91.8,0,0,0,4.44-9.34c1.62-3.46,3.74-6.7,5.31-10.18,1.72-3.8,3.9-7.33,5.74-11.07a138.09,138.09,0,0,1,9.46-16.58c1.35-2,2.26-4.27,3.48-6.37,1.89-3.24,4.09-6.31,5.66-9.74.92-2,2.69-3.49,3.45-5.61m-70.15-67.76c1.61-3.72,4.08-7,6.37-10.33a22.75,22.75,0,0,1,6.58-6,6.7,6.7,0,0,1,3-.68c2.24-.3,4.44-1.12,6.74-.77,4.86.74,8.55,3.55,11.57,7.16a60.26,60.26,0,0,1,6,8.61c1.64,2.83,2.79,5.94,4.17,8.92.12.25.29.51.06.74s-.63.1-.91,0a65.53,65.53,0,0,0-7.48-1.49,85.09,85.09,0,0,0-17.25-1.34c-6,0-11.81,1.32-17.66,2.31-1.43.25-2.93.15-4.52,1.05.36-3.32,2.23-5.63,3.35-8.21m40.65,16.74c-2.77-.45-5.45-1.28-8.28-1.52a113.38,113.38,0,0,0-18.15-.24,60.87,60.87,0,0,0-10.18,1.76c-1.57.38-3.17.66-4.74,1-1,.22-1.39,0-1-1a41,41,0,0,0,1.94-5.65c.47-2.47,2.09-2.64,4.09-3,6.47-1.27,13-1.09,19.85-1.63,4.72.6,9.71,1.25,14.71,1.87.76.1.94.6,1.1,1.2.57,2.18,1.17,4.35,1.72,6.53.27,1-.39.83-1,.72M286.17,282.5a53.3,53.3,0,0,0,3.24-8.62c.54-2.25,2-4.08,2.72-6.22,1.85-5.18,4.24-10.15,6-15.37.89-2.62,2.61-4.92,3.17-7.7.15-.73.78-.8,1.34-1a93.89,93.89,0,0,1,15.25-3.78A97.84,97.84,0,0,1,336,238a51.68,51.68,0,0,1,13.92,2.1c2.85.8,5.79,1.24,8.66,2a6.36,6.36,0,0,1,4.78,4.69,22.49,22.49,0,0,0,1.61,4c1.75,3.34,2.23,7.11,3.74,10.51,2,4.5,3,9.34,5,13.86a56.5,56.5,0,0,1,2.14,7.68c-2.81-.77-5-2.55-7.49-3.6-3.19-1.35-6.08-3.46-9.34-4.44-4.67-1.4-8.91-4-14-4.43-2.23-.17-4.74-.29-6.8-1.71a2.86,2.86,0,0,0-1.27-.2c-1.65-.15-3.43.75-4.94-.65-.12-.11-.51,0-.76.11-5.35,1.52-10.89,2.23-16.18,4-4.56,1.51-9.12,3-13.52,4.91-4.83,2.14-9.67,4.25-14.42,6.57-.33.16-.71.52-1,.25s-.06-.83.1-1.2m.62,2.53c4.77-2.13,9.45-4.49,14.32-6.36,4.63-1.77,9.14-3.87,14-5,3.18-.75,6.26-2,9.54-2.4a74.29,74.29,0,0,1,7.61-.58A58.8,58.8,0,0,1,352,273.91a112,112,0,0,1,13.39,5.67c3.67,1.82,7.59,3.2,10.94,5.62a26.09,26.09,0,0,0,3.68,2.31c1.14.57.39,1.27.08,1.88-2.85,5.59-6.28,10.86-9.16,16.41-1.54,3-3.59,5.6-4.86,8.71-.69,1.71-2.22,3.08-2.95,4.79-1.25,2.93-3.34,5.4-4.46,8.4a33.23,33.23,0,0,1-1.91,3.94c-1.74,3.22-3.67,6.36-5.23,9.66-1.87,3.94-4.17,7.66-5.8,11.72-.8,2-1.85,3.88-2.73,5.85-.38.85-.89.83-1.55.44-1.11-.66-2.19-1.35-3.31-2-5.59-3.16-10.3-2.8-14.71,1.07-.79.7-1.84,1.1-2.34,2.16-.33.71-.71.43-1.19-.08a18.9,18.9,0,0,1-3-5.32c-1.67-3.69-4-7-5.81-10.63-3.5-7.23-7.44-14.23-10.77-21.54-2.3-5.06-5.27-9.8-7.2-15s-4.55-10.1-6.61-15.25a32.44,32.44,0,0,1-1.5-5.13c-.29-1.32.62-2,1.76-2.54m-50.7,33.63a37.51,37.51,0,0,1,3.94-3.83c2.28-1.6,4.51-3.27,6.82-4.82,3.35-2.26,6.7-4.54,10.16-6.63,3.07-1.85,5.93-4,9.1-5.75,3-1.64,6-3.47,8.85-5.4,2.41-1.62,5-3,7.4-4.72.47-.34.63-.06.8.36q3,7.35,6,14.67c.39.94.87,1.86,1.32,2.78,2.24,4.61,3.89,9.48,6.37,14,3,5.39,5.23,11.13,8.23,16.5,1.73,3.11,3.48,6.23,5,9.41,2.54,5.23,5.61,10.17,8.2,15.37a2.8,2.8,0,0,1-.31,3.61,21.91,21.91,0,0,0-4.41,10.43c-.63,4.39-2.26,8.58-2.84,13a80.09,80.09,0,0,0-.59,13.13c.12,3.58.1,7.16,1.31,10.6.25.7-.26.78-.79.87a17.26,17.26,0,0,1-5.1.1c-5.69,0-11.45-1.52-17.34-2-3-.23-5.7-1.82-8.5-2.93a30,30,0,0,1-6.05-3.58,19.78,19.78,0,0,1-4.71-5.08,32.83,32.83,0,0,1-4.21-7.64c-1.38-3.81-4-7-5.87-10.57-2.24-4.25-5.19-8.11-7.12-12.49-1.12-2.53-2.72-4.8-3.71-7.34-2.29-5.84-5.37-11.32-7.44-17.22-1-2.72-2.56-5.2-3.21-7.93-.55-2.32-2-4.15-2.51-6.41-.23-1.08-1.34-1.71-1.45-2.83a8.78,8.78,0,0,1,2.58-7.68m-23,51.85a1.51,1.51,0,0,1-1.35-1.67,7.94,7.94,0,0,1,.82-3.62c1.51-3,3.08-5.93,4.79-8.81A72.8,72.8,0,0,1,226.7,344a49.72,49.72,0,0,1,7.68-7.31c1.37-1,1.75-.89,2.24.77a62.46,62.46,0,0,0,2.6,6.42,38,38,0,0,1,1.79,5,2.57,2.57,0,0,0,.41.87,20.84,20.84,0,0,1,2.54,5.37,68.49,68.49,0,0,0,3.07,6.57,21.13,21.13,0,0,0,2.4,4.71c.43.53.2.94-.43,1.27a11.81,11.81,0,0,1-4.18,1.22c-4.41.46-8.7,1.74-13.14,2-2.87.15-5.73.41-7.77.56-4.17-.11-7.51,0-10.79-.9m5.69,21.73a62,62,0,0,1,9.43,2.27c1,.34,2.28-.31,3.35,1.06a96.45,96.45,0,0,0-13.94.77,5.51,5.51,0,0,0-.1-2.76c-.46-1.22.13-1.53,1.26-1.34M217,398.18c5.62-1.42,11.31-1.21,17-1.21,2.86,0,5.71.25,8.57,0,2.12-.15,3.25,1.66,4.89,2.47a8.56,8.56,0,0,1,1.47,1.26c-5.81-.38-11.06,1.42-16.44,1.6-5.56.19-10.58,2.36-16.09,3.88A10.2,10.2,0,0,1,218.5,404c.87-.61.87-1.24.18-2s-1.43-1.88-2.19-2.79-.29-.84.49-1m.15,23.07c-.32-.71.47-.7.82-.94a18.62,18.62,0,0,1,8.11-3.49,26,26,0,0,0,4.86-1.71,19.93,19.93,0,0,1,5.88-.89,61.74,61.74,0,0,1,9.52-.12c.52.06,1.06,0,1.08-.62s-.49-.93-1.09-.94c-1.89,0-3.77,0-5.66,0-3.67.07-7.38,0-10.92,1.06-2.58.77-5,1.89-7.56,2.85-1.75.68-3.59,1.19-5.12,2.69a1.69,1.69,0,0,1,.79-1.93,21.45,21.45,0,0,0,2.23-2.13c1.1-1,.86-2.34-.56-2.66-1.7-.38-3-1.47-4.4-2.31-.7-.4-.42-.64.09-1,4.27-3,9.1-4.28,14.17-5a42.9,42.9,0,0,0,7.08-1.34,10.42,10.42,0,0,1,3.07-.13l9.42,0c.18,0,.36.15.71.31-1.8.65-3.4,1.23-5,1.79-.95.33-1.4.8-.72,1.79.38.55.67,1.14.13,1.78-.24.29-.9.5-.34,1a.86.86,0,0,0,1.19,0c.8-.86,1.25-.36,1.8.29.9,1.08,1.91,2.07,2.8,3.14,1.17,1.41.95,1.95-.87,2.27a16.52,16.52,0,0,1-2.11.17c-.44,0-.91,0-1.13.47s.08.82.37,1.16a2.68,2.68,0,0,0,2,1.23,1.55,1.55,0,0,1,.89.33c.59.49,1.72.82,1.43,1.71-.21.65-1.25.18-1.92.23-7.42.58-14.89.7-21.94,3.74-2.6,1.12-5.33,2-8.22,3.29.38-.86.58-1.57,1.16-1.85,1.56-.72,1.33-2,1.2-3.28-.06-.61-.35-.39-.63-.35s-.85.18-1.28.21a1.36,1.36,0,0,1-1.33-.77m.59,7.93c1.07-1.3,2.63-1.47,3.89-2.07,7.89-3.8,16.41-4.73,25-5.24.91-.06,1.83-.08,2.75-.1.31,0,.69-.06.81.35s-.12.61-.36.84a7.16,7.16,0,0,1-2.62,1.6c-.46.15-.9.35-1.36.51a1.32,1.32,0,0,0-.84,1.44c0,.55.74.5,1.19.57a5.83,5.83,0,0,1,3.17,1.08,205.78,205.78,0,0,0-29.67,8.07,8.94,8.94,0,0,1,3.24-3.78c.36-.26,1-.34.91-1s-.82-.71-1.33-.76a17.28,17.28,0,0,1-4.79-1.54M226,512.47c-2-4.88-4.42-9.64-6.22-14.6-1.9-5.22-3.85-10.42-5.77-15.62-1.78-4.82-3.22-9.74-4.78-14.61-.95-3-1.28-6.13-2.17-9.13a1.25,1.25,0,0,1,.7-1.59,38,38,0,0,1,6.47-3.25c2.12-.8,4.05-2.08,6.16-2.88s4.24-1.8,6.33-2.78c5.84-2.73,12.07-4.36,18.14-6.44,4.27-1.47,8.71-1.93,13.07-2.85.95-.2,1.17.31,1.24,1,.31,3.12.64,6.25.89,9.38.68,8.32.47,16.67.93,25,.56,10.17.79,20.37-.4,30.53-.18,1.54-.42,2.4-2.49,2.54-3.76.26-7.64-.32-11.27,1a37.27,37.27,0,0,0-9.14,4.68c-1.78,1.31-3.23,3-5,4.26a12.28,12.28,0,0,0-2.64,3.32,37.42,37.42,0,0,1-4.06-8m7.37,23.75a74.05,74.05,0,0,0-.78,7.42,5.57,5.57,0,0,1-2,4.08c-.86.77-1.57.68-2-.39a5.09,5.09,0,0,1-.22-3.35,49.16,49.16,0,0,1,5-12.58c0-.07.18-.07.38-.15a20,20,0,0,1-.35,5m18.92,23.35a9.63,9.63,0,0,1,0,1.78c-.11,1.31-.68,2.46-2.05,2.52s-1.91-1.1-2.19-2.24a36.39,36.39,0,0,1-.95-7.57c-.08-3.36.13-6.71.37-10,0-.14.15-.26.3-.51a39,39,0,0,1,3.9,10.6c.32,1.8.47,3.64.65,5.47m26-8.41a23.39,23.39,0,0,1-9-6A54.44,54.44,0,0,0,265.5,541c-1.08-1-2.19-1.52-1.14-3.14a.68.68,0,0,0-.25-1,.6.6,0,0,0-.84.29c-.76,1.88-2.59,2.85-3.73,4.39-1.83,2.48-4.52,3.55-7.24,4.57-.47.18-1,.26-1.25-.35-.6-1.57-2-2.77-2.32-4.43-.31-1.43-1.3-1.27-2.23-1.19s-1,.91-1,1.72a8,8,0,0,1-.1,1.46c-.13,1.18-.23,2.37-.31,3.56a7.35,7.35,0,0,1-2.92-.53c-2.21-1.78-4.55-3.36-6.37-5.67A4.09,4.09,0,0,1,235,537c.61-3.1.19-6.27.53-9.39a1.45,1.45,0,0,0-1.15-1.58c-.65-.13-.79.63-1,1.08-.79,1.6-1.52,3.23-2.31,4.82-.16.31-.37.76-.79.73s-.5-.53-.63-.85c-.67-1.61-.14-3.2.11-4.8a16.43,16.43,0,0,1,5-9.25,37.1,37.1,0,0,1,7.62-5.81,18.54,18.54,0,0,1,8.67-2.82c2-.06,4.1.05,6.13-.14a10,10,0,0,1,7.71,2.73c3.33,3,4.6,10.12,2.91,14.37-.35.9-.81.73-1.34.34a5.53,5.53,0,0,0-3.27-1.26,27.52,27.52,0,0,1-5.51-.39,1.25,1.25,0,0,0-1.47.42c-.32.58.08,1.08.43,1.6.72,1,1.9,1.64,2.61,2.6,1.79,2.4,4.13,4.18,6.28,6.19a7.09,7.09,0,0,0,6.66,2,3.18,3.18,0,0,0,2.75-4,5.3,5.3,0,0,0-1.13-2.82c-.72-.71-.37-1,.32-1.43,3.58-2.23,7.64-2.72,11.66-3.38,1.89-.31,3.09.38,3.53,2.3a1.12,1.12,0,0,0,.44.64c1.84,1.21,3.42,2.81,5.54,3.62,1.5.57,3.12.33,4.6.87.17.51-.41.71-.45,1.16-.36,3.58-3,6.29-3.68,9.84-.43,2.24-2,4.26-3.09,6.39-1.19,2.43-3,3.42-5.61,2.95a.63.63,0,0,0-.7.24c-.45.58-.95.22-1.47.16-2.47-.29-4.3-2-6.53-2.91m21.37,19.63c.34.1,1,.24.92.75s-.58.65-1,.74c-2.12.46-4.15,1.33-6.32,1.41-2.91.12-5.73.92-8.71,1.14.57-2.11,2.48-3.07,3.44-4.73.21-.36.81-.18,1.24-.18a18.88,18.88,0,0,0,4.68-.35c2.09-.52,3.86.67,5.73,1.22M281.5,556.6c-.45-1.77-.3-1.87,1.5-1.49.74.16,1.46.41,2.19.62,3.31.93,5.6-.07,7.72-2.75a23.6,23.6,0,0,0,4.19-7.27c.45,2.76,1,5.51,1.32,8.28a42.25,42.25,0,0,1,.48,8.26c-.19,2.77-1.62,5.15-4.93,5.66a34.19,34.19,0,0,1-5.63.65,4.32,4.32,0,0,1-4.33-3.23c-1-2.87-1.76-5.8-2.51-8.73m4.08,34c-.34-.52.09-1,.34-1.5a3.87,3.87,0,0,1,1.71-1.44c1.66-1,1.7-1.63.18-2.62-.32-.21-1-.18-.86-.77s.71-.34,1.13-.41A71,71,0,0,1,298,583a2.78,2.78,0,0,1,1.27.1c.63.34,1,.12,1.06-.45s-.13-1-.9-1a103.68,103.68,0,0,0-11,.91c-1,.15-2,.32-3.06.45a.92.92,0,0,1-.91-.23c-.29-.38,0-.7.18-1,.48-.9,1.48-1.23,2.12-2,1.45-1.65,1.39-2-.61-2.8a3.86,3.86,0,0,1-.66-.52,36.57,36.57,0,0,1,4.92-1.2c3-.5,6.06-1.15,9.09-1.75.37-.08.75-.28,1.06.05s-.07.68-.18,1a20.68,20.68,0,0,0-.82,2.12c-.18.86-.43,1.93-1.75.94a.65.65,0,0,0-1,.35c-.22.49.28.55.54.8a12,12,0,0,0,4.17,2.65c.66.26.56.68.14,1.13-.92,1-1.83,2-2.74,3a2,2,0,0,1-1.65.49,34.63,34.63,0,0,0-7.37,1.17,5.07,5.07,0,0,0-1,.6,22.46,22.46,0,0,0,6.84-1.12c2.87-.86,4.52,1.19,6.61,2.2.45.22.29.75-.09,1.1s-1,.66-1.17,1.28c-.44-2.28-.47-2.32-3.08-2.05a65,65,0,0,0-10.93,1.56c-.51.15-1.14.36-1.49-.19M293,604.52c-.83.29-2,.88-1.39-1a.9.9,0,0,0-.34-1.15,6.89,6.89,0,0,1-1.06-.68c0-.54.44-.47.71-.51,2.35-.34,4.71-.64,7.07-1a4.15,4.15,0,0,1,1.75.2c.93.25,1.14.71.54,1.52a3.84,3.84,0,0,0-.36.58c-.34.68-.21,1.25.89,1.76.65.3,1.8.92,1.6,1.78s-1.36.78-2.13.88a37.22,37.22,0,0,0-8.23,2.41c-1.25.47-2.25-.4-3.4-.28-.34,0-.49-.51-.26-.77,1-1.11,1.5-2.63,3.43-2.84,2.32-.25,4.42-1.59,6.84-1.63a10.6,10.6,0,0,0-5.66.7m8.66-4.64c-.09.07-.38.09-.42,0-1.42-2.07-3.31-.56-4.92-.53a75.54,75.54,0,0,0-8,.86c-.37,0-.76.26-1-.13s.18-.57.25-.86c.69-2.74,3.07-2.8,5.15-3.17,1.65-.29,3.36-.11,5.09-.51,1.13.66,2.48.17,3.72.56.8.24,1.39.6,1.38,1.53a3,3,0,0,1-1.17,2.22m-13.31-7.83c4.23-.56,8.39-2.45,12.74-.69-1,1-2.25,1.81-2.57,3.36-.11.55-.68.47-1.09.42a10.89,10.89,0,0,0-4.32.4c-.51.14-1.45.29-1.55.11-.77-1.49-2.72-1.5-3.52-2.91-.25-.46,0-.65.31-.69m15.34,157.26c-12.58.63-25.2,1.18-37.56,4a5.46,5.46,0,0,1-2.72.22c-.63-.21-.21-1.4-.59-2.07a1,1,0,0,1-.15-.29c-.77-3-1.52-6-2-9-.12-.75,0-1.21.9-1.42,1.41-.34,2.78-.82,4.17-1.28,1.16-.38,1.9-1.86,1.19-2.81-.9-1.19-.72-2.43-.72-3.71a22.78,22.78,0,0,0-.15-3.41c-.94-5.52.37-10.7,2.16-15.86.92-2.64,2.71-4.77,3.81-7.28a31.86,31.86,0,0,1,4-6.37,27.05,27.05,0,0,1,5.22-5.64c1.46-1,2.64-2.53,4.48-3,5.32-1.44,9.88.41,14.16,3.33a31.68,31.68,0,0,1,2.57,2.22.75.75,0,0,0,1.15-.06.7.7,0,0,0-.08-1.13c-1.55-1.14-2.57-2.84-4.44-3.67-4-1.78-7.86-3.67-12.44-2.7-1.18.25-1.92-.54-1.93-1.82,0-1.46-.07-2.93,0-4.39a183.82,183.82,0,0,0-1.2-23.7c-.63-6.78-2.39-13.4-3.72-20.08-.7-3.48-1.83-6.9-2.61-10.36a60.66,60.66,0,0,0-3.24-10.84.65.65,0,0,1,.33-.94,23.1,23.1,0,0,1,3.83-2.09c3.79-1.24,7.56-2.58,11.38-3.66,6-1.69,11.85-3.75,18-4.84,2.44-.44,4.84-1.11,7.26-1.67.65-.15,1.47-.33,1.53.62.17,2.82,1.31,5.47,1.32,8.33,0,5.36.79,10.68,1.32,16,.67,6.73,1.4,13.45,1.72,20.21.18,3.67.43,7.36.89,11,.91,7.2,1.5,14.44,2,21.67.6,8.55.91,17.11,1.64,25.65.55,6.43.37,12.87.8,19.31.45,6.7.42,13.44.57,20.16a2.73,2.73,0,0,0,.34,1.3c-6.86-.37-16.41-.24-23.17.1m24.55-67.92a2.27,2.27,0,0,1-.33,1.14,2,2,0,0,1-.27.34c-.25-6.29-1.37-12.3-1.71-18.38-.28-5-1.22-9.92-1.45-14.9-.33-7-1.57-13.87-2-20.85-.33-5.57-1.22-11.09-1.52-16.68a54.88,54.88,0,0,0-1.68-9.24c-.15-.69-.3-1.38-.44-2.07a.81.81,0,0,0-.94-.7c-1.51.12-3-.3-4.53.13a11.23,11.23,0,0,1-4.2.28,3.75,3.75,0,0,0-3.13.78c.47-1.42.8-2.46,1.17-3.49,1-2.68.7-3.4-1.91-4.65,1.54-.64,1.62-2.19,2.28-3.36s-.51-1.85-1.13-2.6a6.16,6.16,0,0,0-1.34-.9c-.62-.41-.69-.89,0-1.22a4.77,4.77,0,0,0,2-2.24,2.31,2.31,0,0,0-1.49-3.62c-2.14-.61-2.21-.73-.92-2.44a32.1,32.1,0,0,0,1.82-3c.78-1.29-.3-2.35-1.36-3.09-.88-.62-1.87-1.07-2.76-1.67-.47-.32-1-.74-.55-1.48,1.61-2.72,1.58-5.74,1.1-8.66a65.66,65.66,0,0,1-.63-7.1,28.55,28.55,0,0,0-1.25-5.5c-.83-3.26.15-6.13,1.45-9,.35-.76,1.05-.85,1.81-.74,4.82.72,9.7.67,14.55,1.18,1.4.15,2.72.6,4.12.81,4.14.61,8.3.38,12.44.66a37.44,37.44,0,0,0,6.42.1c3.83-.45,7.76-.34,11.53-1.45a13.69,13.69,0,0,1,2.58-.2c.62-.06.86.31,1.07.79a42.39,42.39,0,0,0,4,7.21,3.71,3.71,0,0,1,.34,3.28q-.81,2.86-1.73,5.7a57.25,57.25,0,0,0-2.07,12.73,2.28,2.28,0,0,1-1.15,2c-1.67,1.06-3.34,2.13-5,3.23-1.8,1.21-1.87,1.89-.48,3.54a1.41,1.41,0,0,1,.31.56c.19.9,1.6,1.35,1.22,2.25s-1.65.59-2.51.87c-1.73.58-2.1,1.56-1.35,3.26.48,1.09.78,2.25,1.19,3.36.3.79-.23,1.16-.76,1.37a9.1,9.1,0,0,0-2.17,1.33c-1.46,1.07-1.65,2.06-.51,3.56l2,2.58c.54.71.51,1.31-.34,1.72-1.79.85-2.46,2.77-3.82,4.06-1.19,1.13,0,2.12.87,3.29-3.07-.36-5.88-.73-8.68-1a39.42,39.42,0,0,0-4.06-.2,1.81,1.81,0,0,0-1.9,2.35c.6,1.7.36,3.41.35,5.09,0,8,.15,16-.3,24-.66,11.68-.84,23.39-1.33,35.08-.16,4-.63,7.89-1,11.83m43.36-106.28a8.86,8.86,0,0,1,1.92,2.6,36.56,36.56,0,0,1-4.23-1A58.84,58.84,0,0,0,358.42,574c-.35-.06-.82.07-.93-.44s.3-.52.53-.74a12.52,12.52,0,0,1,3.45-2c2.7-1.34,5.14.79,7.71.17.31-.08.67.09.56.55-.45,1.72.9,2.51,1.82,3.5M355,595.86a5.82,5.82,0,0,1-2.32-2.36,35.73,35.73,0,0,1,9.23,2.14,31.72,31.72,0,0,0,4.59,1.54c.47.1,1,.19,1,.87a1,1,0,0,1-.79,1.08c-1.95.39-3.74,1.7-5.92.13a5.62,5.62,0,0,0-5.07-.78c2.34.7,4.68,1.47,7,2.09,1.61.43,2.92,1.08,3.34,3-2,.16-3.81-.63-5.65-1a47.12,47.12,0,0,0-9.15-1.28c-.89,0-1.49,0-.67-1.23s2-1.41,3.12-1.8c.46-.16,1-.16,1.31-.56.5-.58,1-1.07,0-1.75m10.43,15c-2.35-.48-4.65-1.16-7-1.46s-4.57-.8-6.88-1.1c-1.15-.14-1.18-.69-.54-1.29,1.2-1.12,1-2-.23-2.85-.34-.24-.78-.55-.62-1s.82-.41,1.27-.43c3.56-.21,7,.7,10.38,1.48a14.16,14.16,0,0,0,2.87.45,3.07,3.07,0,0,1,2.25,1.08c-1,.73-2.15,1.23-2.72,2.12-.81,1.26,1.36,1.62,1.24,3m7.57,3.72a21.84,21.84,0,0,0,4.49,1.32c2.67.54,3,1.39,1.73,3.77a37.89,37.89,0,0,0-2.66,6.61c-1.34,4.45-3,8.82-3.78,13.42-.69,4.28-1.79,8.47-2.29,12.79-.34,3-1.1,6-1.44,9.12-.41,3.74.09,7.45-.15,11.18-.28,4.27-.26,8.56-.41,12.84a29.25,29.25,0,0,0,.31,4.86c.11.89-.13,1.36-1.09,1.24-2.93-.38-5.43,1.16-8.11,1.86a6.52,6.52,0,0,0-2.27,1.52,13.91,13.91,0,0,1-2.63,1.89c-.72.35-1,.82-.51,1.53s1.12.58,1.65,0c1.84-2.06,4.38-3,6.69-4.29a6.65,6.65,0,0,1,3.78-.67c3,.16,6-.41,8.87.43a26.25,26.25,0,0,1,11.22,7c3.87,3.87,5,8.84,5.83,13.85a28.37,28.37,0,0,1,.07,6.32,48.6,48.6,0,0,1-3,14.19,1.78,1.78,0,0,1-.48.65c-.58.51-.33,1-.13,1.62s.79.65,1.33.63a20.09,20.09,0,0,1,4.51.35c.74.13.86.36.78,1a11.15,11.15,0,0,1-1.15,3.54c-1.14,2.46-1.25,5.15-1.76,7.74-.19,1-.54,1.18-1.51,1.1-5.72-.48-11.38-1.38-17.08-2-6.29-.7-12.65-.82-19-1.09a180.58,180.58,0,0,0-21.44.71,13,13,0,0,0-2.25,0c-1.06.28-1-.3-1.12-1a210,210,0,0,1-1.29-25.81,175.93,175.93,0,0,1,1.07-23.06c.54-4.41,1.06-8.82,1.16-13.27a9,9,0,0,1,.13-1.05c.68.52.3,1.28.92,1.54a.72.72,0,0,0,.42-.81c-.34-5.13.6-10.21.7-15.33.13-6.35,1.23-12.61,1.78-18.92a2.64,2.64,0,0,0-.41-2.28c-.54-.64-.34-1.56-.32-2.37.26-8,.63-16,.74-24.06.06-4.07.44-8.11.67-12.16,0-.93-.05-1.62-.89-2-.4-.21-.59-.48-.46-.91s.6-.36,1-.35a58.05,58.05,0,0,1,10,.89c.76.15,1.62.18,2,1.12a.53.53,0,0,0,.94.09c.71-.84,1.53-.51,2.4-.41,5.22.63,10.33,1.84,15.48,2.87a33.23,33.23,0,0,1,6.91,2.25m-3.49-25c-1.49,1-3,1.9-4.52,2.85-.66.42-.73.85,0,1.36,1,.77,2,1.59,3,2.4-.31.54-.72.3-1,.14-4.55-2.53-9.66-3.07-14.61-4.16-.61-.14-1.47,0-1.5-.92s.84-.9,1.4-1.14c1.73-.74,4-.81,8-.51-2.2-.78-4.57-1.3-5.73-4a22.68,22.68,0,0,1,5.52.6c3.1.43,6.16,1.16,9.24,1.75.54.1,1.18.09,1.33.72.19.85-.69.66-1.08.91m3.51-9c-1.22.6-2.06,2.17-3.84,1.43-.46-.19-.63.4-.5.92a5.25,5.25,0,0,0,1.22,2.61c.23.22.58.43.36.79s-.58.36-1,.29c-3.63-.59-7.32-.77-10.86-1.92a33,33,0,0,0-4-.82c-.36-.07-.82-.07-.79-.59s.4-.42.72-.51a11.62,11.62,0,0,1,3.71-.4c.58,0,1.25.17,1.51-.58s-.2-1-.57-1.41c-1.12-1.29-2.19-2.61-3.29-3.92-.23-.29-.6-.55-.44-1s.77-.17,1.06-.37c4.45.73,8.88,1.09,12.9,3.3,1.1.61,2.56.4,3.75,1.18.73.48.55.74,0,1M379.63,555c-1.6,3.93-2.61,8.08-4.38,11.94-1.08,2.37-1.91,2.87-4.47,2.57-1.66-.19-3.33,0-5-.36-2.95-.6-3.95-1.69-4-5.25.87-2.92.72-6.56,1.84-10,.49-1.48.88-3,1.33-4.5.1-.35.14-.81.55-.93s.64.32.86.6a12.38,12.38,0,0,0,7.92,5.08,4.65,4.65,0,0,0,2.71-.21,5.61,5.61,0,0,1,1.37-.44c1.55-.21,1.87.06,1.29,1.48m28.05-10.87a77.54,77.54,0,0,1-1.16,8.5c-.75,3.18-.88,6.53-2.42,9.5a4,4,0,0,1-3.55,2.56c-1.61.1-1.61-.74-1.43-1.76a39.81,39.81,0,0,1,1.81-6.64c1.3-3.61,3.05-7,4.48-10.52.51-1.27,1.63-2.19,2-3.7a2.9,2.9,0,0,1,.23,2.06m21.84,2.17a26.4,26.4,0,0,1,2.4,7.7,3.13,3.13,0,0,1-.13,1.61c-.23.77-.37,1.67-1.38,1.79a2.1,2.1,0,0,1-2.36-1.33,26.23,26.23,0,0,1-2.31-8.26,54.17,54.17,0,0,0-1.58-7.78c-.42-1.65-.76-3.33-1.14-5a10.86,10.86,0,0,1,2.64,4.07c1.13,2.5,2.6,4.79,3.86,7.2m4.5-10.9a19.41,19.41,0,0,1-3.83,6.1,2.61,2.61,0,0,0-.76,1.36c-1.14-3.33-3.76-5.88-4.74-9.26-.55-1.9-1.95-1-2.92-.72s-.36,1.27-.28,1.95a82.33,82.33,0,0,0,2,9.3c.36,1.49.66,3,.95,4.49-1.7.19-5.49.89-6.1.94-3,.26-6,.46-8.93-.7-.89-.35-.89-.56-.74-1.27a21.89,21.89,0,0,0,.55-7.26c-.06-.51.27-1.19-.41-1.43a1.35,1.35,0,0,0-1.61.82c-1.05,2.24-3.12,3.88-3.7,6.38-.21.9-.66.93-1.38.45a8.88,8.88,0,0,1-3.5-4.36c-1.06-3-3.73-6.09.08-9.07,0,0,.05-.1.08-.14,1.17-1.28,1.4-3.18,2.81-4.3.42-.33.79-.6.48-1.17a1,1,0,0,0-1.4-.42c-.67.35-1.24.9-1.93,1.19-1.42.59-2.17,2.2-3.8,2.44a12.36,12.36,0,0,0-1.41,1.06c-2,2-4.18,3.87-6.26,5.81a11.54,11.54,0,0,0-3,4.29c-.55,1.4.06,3.33,1.09,3.75,1.8.75,4.89-.16,6.17-1.68a59.9,59.9,0,0,0,4.08-6.21c.16.21.27.29.27.38a14.45,14.45,0,0,0,1,4.63,7,7,0,0,0-2.83,1.29c-1.81,1.75-4.29,2.44-6.24,4-1,.83-2.28,1.4-3.4,2.13-.93.61-2.2.32-2.94.75a11.61,11.61,0,0,1-8.63,1.24c-2.29-.49-3.78-2.42-5.43-4a3.1,3.1,0,0,1-1-3.08c.16-.74-.2-1.57-1.16-1.23s-1.11-.32-1.45-.83c-1.84-2.75-2.92-5.86-4.38-8.95,1-.15,1.94-.34,2.9-.43,4.88-.46,7.91-2.92,9.21-7.58.19-.67.49-.9,1.12-.87a37.73,37.73,0,0,1,5.34.32c4.87,1,9.74,2,14.09,4.64a3,3,0,0,0,2.85.53c-1.16-3.23-.37-6.22,1.11-9.14a10.09,10.09,0,0,1,5.43-5.13c6-2.07,12.07-1.48,18,.54,3.83,1.3,7,3.79,10.31,6,1.55,1,3.28,1.91,4.2,3.62,1.54,2.89,1.25,5.84.06,8.79m-38.26-.7a36.54,36.54,0,0,0-3.3,5.68,7.76,7.76,0,0,1-4.4,4.06c-.68.23-1.42.39-2-.24A1.8,1.8,0,0,1,386,542a15.19,15.19,0,0,1,2.39-3.26,106.62,106.62,0,0,1,8.27-7.49,12.08,12.08,0,0,1,1.9-1,17,17,0,0,1-2.83,4.43M451.93,460c-1,5-2.37,9.88-3.32,14.89-.75,4-2.38,7.74-3.35,11.67-1.17,4.73-2.88,9.28-4.15,14-.77,2.83-2.05,5.47-2.92,8.24-1.46,4.59-4,8.75-5.32,13.37-.18.61-.41.67-.9.33-2.28-1.57-4.69-3-7.06-4.36-5.6-3.22-11.62-5.51-18.38-4.48-2.19.33-4.42.37-6.43,1.43-.65.35-.66-.08-.79-.55-1.29-4.6-1.53-9.34-1.93-14.06-.6-7.08-.71-14.17-1.11-21.25-.3-7.57-.71-15.12-.27-22.7.15-2.58-.18-5.18-.05-7.78.05-1,.3-1.42,1.3-1.67a14.72,14.72,0,0,1,7-.43c1.48.36,2.91.2,4.3.47q8.25,1.62,16.52,3.19c4.5.85,8.92,2.15,13.36,3.33a124,124,0,0,1,12.37,4.45,1.45,1.45,0,0,1,1.09,1.95" transform="translate(-202.09 -200.31)"/><path class="cls-2" d="M394.94,530.67h0l0,0h0l0,0h0" transform="translate(-202.09 -200.31)"/><path class="cls-2" d="M315.24,732.16c-5.86,0-11.68.5-17.52.79-2.48.12-5,.16-7.45.38-6.32.55-12.41,2.42-18.7,3.17-.53.06-1,.31-1.56.42s-1.1.38-.89,1.07.85.68,1.47.48,1.16-.52,1.8-.7c3.35-.91,6.79-1.26,10.17-2,8.9-1.83,17.94-1.89,26.94-2.31,1.95,0,3.89,0,5.83.11.64,0,1.48.29,1.49-.65s-.86-.8-1.58-.8" transform="translate(-202.09 -200.31)"/><path class="cls-2" d="M291.62,537.24c.66-.21,1.61-.16,1.33-1.16s-1.13-.64-1.8-.44c-2.22.68-4.42,1.45-6.65,2.09a12.56,12.56,0,0,1-4.11.81c-2.84-.21-5.55,1-8.38.58a.72.72,0,0,0-.88.73.9.9,0,0,0,.85.85,4.62,4.62,0,0,0,1.28-.1,25.13,25.13,0,0,1,6.45-.49,17.16,17.16,0,0,0,6.41-.93c1.8-.74,3.65-1.34,5.5-1.94" transform="translate(-202.09 -200.31)"/><path class="cls-2" d="M382.07,538.84c-1.86-.34-3.72-.67-5.6-1-2.64-.39-5-1.66-7.53-2.39-.5-.14-1-.24-1.24.36s.11,1,.59,1.34a6.69,6.69,0,0,0,.93.27c1.42.62,3,.21,4.44.84,2.53,1.14,5.41,1.05,7.95,2.21.71.33,1.34-.14,1.63-.89-.18-.61-.72-.7-1.17-.79" transform="translate(-202.09 -200.31)"/><path class="cls-2" d="M333.33,733c-.45,0-1.15-.06-1.11.63s.7.7,1.27.64c.92-.09,1.83-.22,2.74-.25a154.71,154.71,0,0,1,19.13.91c4.48.39,8.95.78,13.41,1.36,4.18.54,8.23,1.9,12.48,2,.77,0,2.05.44,2.19-.35.19-1-1.15-1.15-1.92-1.26-4.14-.52-8.23-1.51-12.36-1.88-9.16-.8-18.36-1.25-27.54-1.84a73.94,73.94,0,0,0-8.29,0" transform="translate(-202.09 -200.31)"/><path class="cls-2" d="M332.19,487.75a45.44,45.44,0,0,1-7.73.35,4.44,4.44,0,0,0-2.46.61h0c3.76,0,7.56.55,11.35-.65a1,1,0,0,0-1.14-.31" transform="translate(-202.09 -200.31)"/><path class="cls-2" d="M315.66,489a23.89,23.89,0,0,0,6.32-.32h0l-6.33.32" transform="translate(-202.09 -200.31)"/><path class="cls-2" d="M316.6,448a82.52,82.52,0,0,0,13-.92,74.91,74.91,0,0,0-13,.92" transform="translate(-202.09 -200.31)"/><path class="cls-2" d="M336.58,477.78l9.46.15c0-.17,0-.34,0-.51a34.67,34.67,0,0,0-9.44.36" transform="translate(-202.09 -200.31)"/><path class="cls-2" d="M328.34,428.08c-5.47-.67-10.78.89-16.2,1.12,5.44.38,10.76-1.15,16.2-1.12" transform="translate(-202.09 -200.31)"/><path class="cls-2" d="M329.68,420.67l4.3-.24c-1.45-.22-2.92-.8-4.3.24" transform="translate(-202.09 -200.31)"/><path class="cls-2" d="M318.3,421.19l-4.81.29c1.58-.11,3.24.51,4.81-.29" transform="translate(-202.09 -200.31)"/><path class="cls-2" d="M323.62,420.64c-.93.24-2-.15-2.82.49.95-.21,2,.61,2.82-.49" transform="translate(-202.09 -200.31)"/><path class="cls-2" d="M220.55,400.78c1-.33,2.23,0,3.2-.75a6.78,6.78,0,0,0-3.2,0c-.23.05-.65-.05-.5.4a.6.6,0,0,0,.5.31" transform="translate(-202.09 -200.31)"/><path class="cls-2" d="M364.81,590.65c-1.2-.22-2.3-.92-3.64-.71a21.57,21.57,0,0,1,3.27,1.89.56.56,0,0,0,.82-.28.66.66,0,0,0-.45-.9" transform="translate(-202.09 -200.31)"/></svg>