<svg id="Layer_1" data-name="Layer 1" xmlns="http://www.w3.org/2000/svg" viewBox="0 0 259.58 428.47"><defs><style>.cls-1{fill:#fff;}.cls-2{fill:#010101;}</style></defs><path class="cls-1" d="M373.62,463.91a20.55,20.55,0,0,0,2.94-.21c3.07-.61,6-1.77,7.63-4.54,3.1-5.31,1.22-9.87-4.23-12.78-5.76-3.06-12.51.22-14.54,6.6-1.91,6,2,11.19,8.2,10.93" transform="translate(-156.06 -201.36)"/><path class="cls-1" d="M382.54,476.8c-.62,4.86-1.39,9.72-1.68,14.6-.45,7.74-.42,15.51-1,23.26a34.66,34.66,0,0,0,.2,8.51c.23,1.4.71,1.81,2.17,1.47,2.6-.62,4.76-2.19,7.21-3.07a13.06,13.06,0,0,0,5.65-4.23,2.61,2.61,0,0,0,.67-2.67c-1.55-5-2.37-10.22-3.92-15.2q-2.87-9.23-5.62-18.47c-.64-2.11-.76-4.5-2.31-6.52a3.47,3.47,0,0,0-1.33,2.32" transform="translate(-156.06 -201.36)"/><path class="cls-1" d="M389.15,531.87a7.89,7.89,0,0,1-1.64,1.08c-4.49,2.37-6.68,6.71-9.15,10.79a3.6,3.6,0,0,0-.37,2.87c.37,1.25.83,2.56,2.41,2.78s2.65,0,3.35-1.72c1-2.52,2.84-4.61,4.33-6.88.34-.52.81-.8,1.36-.44a1,1,0,0,1,.32,1.42c-.53.82-1.19,1.57-1.67,2.41-1.07,1.88-3.08,3.33-3.2,5.6a24.15,24.15,0,0,1-2.08,7.82,20.51,20.51,0,0,0-1.64,8c0,7,5.39,11.68,12.43,10.93,6.41-.69,11-4.43,15.06-8.9a8.74,8.74,0,0,0,2-3.72c.75-3.06,1.92-6.07,1.52-9a17.2,17.2,0,0,0-.68-6.41,71.18,71.18,0,0,0-4.05-11.37c-3.83-8.49-12.88-10-18.29-5.19" transform="translate(-156.06 -201.36)"/><path class="cls-1" d="M275.53,209.39c-.9,0-1.85.75-2.75-.06,1.2-1.15,1.2-1.14,2.6-1.37.69-.12,1.77.21,1.75-.9,0-.95-.82-1.41-1.79-1.58a4.66,4.66,0,0,0-5.31,2.67c-.72,2,.44,4.59,2.53,5.72a3.11,3.11,0,0,0,4.85-2.41c.27-1.69-.16-2.12-1.88-2.07" transform="translate(-156.06 -201.36)"/><path class="cls-1" d="M238,594.33a2,2,0,0,0-.52.09,5.19,5.19,0,0,0-1.11.69c-2.56,2.59-5.74,2.31-8.9,1.86-2.76-.39-2.88-.42-4.15,2q-6.09,11.93-12.19,23.85a2.82,2.82,0,0,0-.52,2.07c1.34.44,2.47-.18,3.63-.33,7.56-.94,15.16-1.59,22.68-3,2.56-.46,5.21-.44,7.82-.67,1.22-.11,1.77-.64,1.21-2-2.24-5.24-3.19-10.86-4.74-16.31a33,33,0,0,0-3.21-8.39M233.08,602a.81.81,0,0,1-.13.3c-2.44,4.29-3.34,9.13-4.87,13.74-.21.63-.37,1.35-1.23,1.08-.63-.19-.59-.82-.47-1.48.43-1.46.82-3,1.36-4.57.85-2.45,2-4.77,2.62-7.33a7.46,7.46,0,0,1,1.5-2.48c.12-.16.62-.16.89-.07s.39.47.33.81" transform="translate(-156.06 -201.36)"/><path class="cls-1" d="M183.78,568.74c2.31-.17,4.54.09,6.36-2s1.57-4.44,1.06-6.78a71.56,71.56,0,0,0-7-18.24c-.32-.59-.72-1.27,0-1.75.89-.6,1.34.08,1.71.83a56.73,56.73,0,0,1,3.34,7.47c.42,1.31,1.2,2.12,2.63,1.92s1.83-1.43,1.88-2.68a7.49,7.49,0,0,0-1.83-5.42c-2.73-3.22-6.4-5.15-9.68-7.63-5.86-4.44-15.08-1.67-18.08,4.28a60.57,60.57,0,0,0-3.93,8.58,10,10,0,0,0,2.05,10.36c5.7,6.54,13,10,21.54,11" transform="translate(-156.06 -201.36)"/><path class="cls-1" d="M315.08,360.5c-1.42,0-2.84,0-4.24.1-.71.07-1.73.1-1.92.94a2.45,2.45,0,0,0,1.24,2.48,3.63,3.63,0,0,0,2.52.43l6.19-.37c0,.05,0,.11,0,.16,2.07-.08,4.19-.5,6.18-.16s1.84-.79,2-1.95c.14-1.34-.32-2.12-1.83-1.93a75.85,75.85,0,0,1-10.11.3" transform="translate(-156.06 -201.36)"/><path class="cls-1" d="M290.32,416.63c-3.6.19-7.2-1-11.23-.15a13.1,13.1,0,0,0,8.84,5.53c5.42,1.05,9.8-.67,13.4-5.37-3.91,0-7.47-.2-11,0" transform="translate(-156.06 -201.36)"/><path class="cls-1" d="M318,292.71c-6.11,1.65-12.21,3.42-18.57,3.9-3.79.29-4,.5-3.28,4.33,0,.1.06.21.08.32a40.7,40.7,0,0,1,.61,13c-.4,3.36-.89,6.71-1,10.11-.22,10.06-.42,20.12-.86,30.16-.38,8.63-.79,17.26-.62,25.9.09,5,.83,10,.42,15.08a102.09,102.09,0,0,0-.36,10.78c.09,2.07.2,4.15.26,6.22.07,2.68,0,2.67,2.73,2.61a204.39,204.39,0,0,0,24.44-2.36,135.61,135.61,0,0,0,30.64-8,73.77,73.77,0,0,0,8.2-4.1c1.59-.88,1.59-2,.11-3-.53-.35-1.3-.4-1.58-1.07a73.58,73.58,0,0,1-3.1-7.88c-1.72-6.21-3.56-12.38-5.82-18.4-2.11-5.62-3.72-11.4-5.78-17-3.26-8.91-6-18-8.83-27.08-1.32-4.27-3.37-8.23-4.81-12.43A168.81,168.81,0,0,0,323.3,295c-1.51-3.14-1.87-3.21-5.35-2.28m11.11,68.79a11.91,11.91,0,0,1-5.57,9.45c-3.79,2.62-7.92,1.53-11.37-.72-3.06-2-4.68-5.35-5.23-9.07-.21-1.42.42-2,1.78-2.05,2.6-.13,5.2-.32,7.72-.48,3.25.55,6.38,0,9.52-.23,2.77-.18,3.26.31,3.15,3.1" transform="translate(-156.06 -201.36)"/><path class="cls-1" d="M311.08,366.41c5.69,5.57,10.75,5.38,13.79-.09a58.5,58.5,0,0,0-13.79.09" transform="translate(-156.06 -201.36)"/><path class="cls-1" d="M307.64,255.08A68,68,0,0,1,297,257c-2.56.18-3.1.67-2.69,3,.87,4.91-.44,9.81.21,14.7.17,3.61,0,7.21-.18,10.81-.13,3.09.06,3.18,3,2.87,5.57-.58,10.83-2.52,16.26-3.71a23.23,23.23,0,0,0,3-1.37c1.35-.52,1.44-1.36,1-2.59-.61-1.75-1.16-3.52-1.61-5.31-1.56-6.24-3.17-12.45-5.25-18.53-.79-2.34-.76-2.31-3.14-1.77" transform="translate(-156.06 -201.36)"/><path class="cls-1" d="M339.36,332.44c.48,1.45,1,1.5,2,.41a11.18,11.18,0,0,0,3.18-9.88c-.61-4.08-1.86-5.45-6.05-5.33-.42,0-1.07.12-1.73.15-1.53.06-1.82.88-1.41,2.19,1.32,4.15,2.59,8.32,4,12.46" transform="translate(-156.06 -201.36)"/><path class="cls-1" d="M253.55,290.28a30.87,30.87,0,0,0,5.5,2.11,100.11,100.11,0,0,0,21.89,3.45c14.44.37,28.48-1.32,42-6.66,1.95-.77,3.18-1.88,3.41-3.93a5.21,5.21,0,0,0-2.38-5.38,10.13,10.13,0,0,0-4.75-1.46,4.26,4.26,0,0,0,.87,3.08c.69,1.14.68,2-.81,2.51-6.29,2.16-12.45,4.7-19.19,5.35-5.87.57-11.73,1.08-17.63,1.14-6.8.07-13.52-.6-19.95-3-4.87-1.85-4.87-1.86-3.05-6.77,0-.1.08-.2.11-.3.36-1.07,0-1.65-1.14-1.77a7.74,7.74,0,0,0-6.57,2.27,5.61,5.61,0,0,0,1.7,9.4" transform="translate(-156.06 -201.36)"/><path class="cls-1" d="M277.69,252.9c4.69,2.15,9.71,2.29,15.66,2.7,2.29-.33,5.6.06,8.81-.66a22.46,22.46,0,0,0,8.13-3.13c4-2.8,6.86-9.94,1.23-14.89-1.71-1.51-3.54-2.91-5.19-4.49-2.12-2-4.84-2.37-7.49-3-1.3-.29-1.82.36-1.71,1.62a12.74,12.74,0,0,1,.18,1.62c-.11,3.71-1.15,7-4,9.61-.4.36-.93.7-1.47.33a1.19,1.19,0,0,1-.34-1.72c.43-.75.89-1.49,1.37-2.22,1.46-2.26,1.48-4.7,1-7.25-.25-1.4-.83-1.64-2.21-1.52a29.57,29.57,0,0,0-8.89,2c-5.27,2.23-9,6-10,11.93-.73,4.44.81,7.14,4.92,9" transform="translate(-156.06 -201.36)"/><path class="cls-1" d="M261.79,285.38a38.23,38.23,0,0,0,6.17,2.16c7.41,1.88,15,1.25,22.48,1.27,1.41,0,1.88-.61,1.88-2,0-4.58,0-9.17.05-13.75s.42-9.39.06-14.08c-.09-1.19-.43-1.73-1.68-1.88a67,67,0,0,1-10.64-1.73,2.68,2.68,0,0,0-3.19,1c-.58.79-1.26,1.51-1.8,2.32-3.34,5.08-7.12,9.86-10.08,15.23-1.52,2.75-3.1,5.49-4.52,8.3-1,1.91-.81,2.24,1.27,3.16M288.66,276a.62.62,0,0,1-.55-.68c.05-.41.16-.91.77-.79.32.06.56.29.55.85a.67.67,0,0,1-.77.62m.49-10.21c.33.05.45.4.41.75-.11.56-.33,1-1,1.05a.51.51,0,0,1-.57-.6c.08-.66.29-1.31,1.15-1.2m-.92,16.59a.7.7,0,0,1,.82.69c0,.45-.2.84-.68.81a1,1,0,0,1-.63-.55.68.68,0,0,1,.49-.95" transform="translate(-156.06 -201.36)"/><path class="cls-1" d="M352.68,497.22a91.71,91.71,0,0,1-15.3,5.59c-9.65,2.8-19.5,3.81-29.38,4.59a147.09,147.09,0,0,1-28.45-.55c-7.15-.82-14.34-1.3-21.49-2.25-12.63-1.68-24.92-4.6-36.41-10.19-4-2-8.6-3.4-10.8-8-.45-.95-1.57-.76-1.92.26a2.87,2.87,0,0,0,.62,3.31c1.76,1.45,3.14,3.28,5.24,4.39a71.94,71.94,0,0,0,8.58,3.88c7.44,2.79,14.88,5.55,22.49,7.85,9.52,2.86,19.32,4.36,29.07,6.13a87.35,87.35,0,0,0,14.36,1,194.17,194.17,0,0,0,25.18-.94,152.92,152.92,0,0,0,30.07-6.17A56.64,56.64,0,0,0,357,500.4c3.14-1.95,6-4.35,7.68-7.84,1.14-2.4.93-3-1.55-4.81a22.9,22.9,0,0,1-10.41,9.47" transform="translate(-156.06 -201.36)"/><path class="cls-1" d="M327.07,566.28a1.53,1.53,0,0,0-1.47-.43,1.73,1.73,0,0,0-.16.61,6.31,6.31,0,0,0,.21,1.29c1.88,6.82,2.8,13.91,6,20.36.71,1.44,1.13,2.92,2.4,4.14,2.11,2,3.41,2.28,5.24.07s3.66-4.81,4-8.07a24.29,24.29,0,0,1,1.78-6.94c1.9-4.25,1.9-8.89,3.57-13.77a35.66,35.66,0,0,1-10.35,4.32c-4,1.15-7.77,1-11.23-1.58" transform="translate(-156.06 -201.36)"/><path class="cls-1" d="M340,594.16a4.13,4.13,0,0,1-2.79,1.46c-3.34.39-3.37.41-4,3.58-.29,1.38-.45,2.8-.63,4.21-.7,5.63-1,11.32-2.32,16.87a2.18,2.18,0,0,0,.35,2.52c11.36-1.52,23.12-1.41,35.65-2.61-3.92-5.71-7.69-10.87-11.06-16.27s-6.67-10.86-11.3-16a14.92,14.92,0,0,1-3.86,6.21m12.57,22.21c.41.66.92,1.42,0,2s-1.31-.37-1.71-1c-3.09-4.87-6.19-9.73-9.23-14.62a21.63,21.63,0,0,1-1.72-3.52c-.24-.62.24-1,1-1s1,.69,1.28,1.27c2.6,5.8,6.49,10.8,9.91,16.09.18.27.37.54.54.82" transform="translate(-156.06 -201.36)"/><path class="cls-1" d="M238.24,544.36c-2.87-.4-5.75-1-8.67.08a34,34,0,0,0-8.95,4.64c-5.17,3.92-5,15.23.22,19a7.84,7.84,0,0,0,1.15.6c5.65,2.76,10.84,1.22,15.74-1.86,1.32-.83,2.87-1.71,3.56-3.29a22,22,0,0,0,2.3-8.54c.26-3.1-1-5.58-2.12-8a4.46,4.46,0,0,0-3.23-2.59" transform="translate(-156.06 -201.36)"/><path class="cls-1" d="M282.14,530.07a5,5,0,0,0,5.18,1,17.86,17.86,0,0,0,6.39-3.19c4.17-3.32,6.39-8.06,9.43-13a29,29,0,0,0-3-.16,124.77,124.77,0,0,1-15.71-.11c-2.93-.19-5.86-.56-8.8-.74-1-.07-2.41-.58-3.07.38s.32,2,.86,3a39.68,39.68,0,0,1,2.7,4.84,22,22,0,0,0,6,8" transform="translate(-156.06 -201.36)"/><path class="cls-1" d="M325.22,547.65c-2,3.36-1.83,7-1.34,10.8.71,5.44,6.78,9,12,8a35.11,35.11,0,0,0,8.76-2.58,7.11,7.11,0,0,0,3.86-4.56c1.63-5.15,0-9.78-2.54-14-1.41-2.33-3.67-4-6.92-3.17a12.24,12.24,0,0,1-3.26,0c-4.51-.06-8.21,1.58-10.56,5.52" transform="translate(-156.06 -201.36)"/><path class="cls-1" d="M303.85,520.49a3.45,3.45,0,0,0-3.35,1.94c-3.06,5.1-7.06,9.05-13.23,10.35a7.89,7.89,0,0,1-7.94-2.48,28.74,28.74,0,0,1-5-8c-.79-1.64-1.91-2-3.71-1.64-6.17,1.38-12.53,1.72-18.61,3.59a78.93,78.93,0,0,0-11.94,4.36,5.63,5.63,0,0,0-3.45,4.44,9.57,9.57,0,0,0,2.27,7c2.47,2.67,4.05,5.8,5.75,8.9.57,1,.79,2.28,1.88,3,6.64,4.46,13.36,8.72,21.58,9.66a15.67,15.67,0,0,1,2.89.54c3.37,1.07,6.82,1.47,12.08,1.54,5.79-.37,13.3-1,20.42-3.7s13.46-6.62,18.31-12.68a60.76,60.76,0,0,0,6.9-11.43c1.74-3.51,1-5.71-2.07-8.17-3.61-2.9-8-4.06-12.19-5.37a32.56,32.56,0,0,0-10.59-1.89m21.28,11a.88.88,0,0,1,1.18,0c.54.55.11,1-.29,1.36a8.52,8.52,0,0,1-3.13,1.73c-3.66,1.05-7.27,2.32-11,3.17-9.92,2.27-20,3.72-29,3.14-11.14-.13-21-1-30.68-3.56-2.84-.76-5.55-2-8.5-2.37a3,3,0,0,1-1.23-.42c-.63-.39-1.57-.86-1.18-1.7.49-1.06,1.34-.15,2,.06a111.89,111.89,0,0,0,36.27,6.32c7.32,0,14.67.41,21.87-.91,8.11-1.47,16.4-2.51,23.71-6.85" transform="translate(-156.06 -201.36)"/><path class="cls-1" d="M218.06,568.68a1.33,1.33,0,0,0-.23,1.21c.8,4.72,1.29,9.51,3.25,14a51.74,51.74,0,0,1,2.3,5.77,7.83,7.83,0,0,0,4.11,5.23,8,8,0,0,0,10.55-5,107.53,107.53,0,0,0,5.12-25.62c-7.42,7.7-17,10.19-25.1,4.42" transform="translate(-156.06 -201.36)"/><path class="cls-1" d="M183.84,525.3c2.52.57,3.82.06,4.6-2.34,2-6.12,4.15-12.18,4.93-18.63.35-2.92.72-5.84,1.27-8.75.93-4.93,1.83-9.87,2.29-14.89A28.49,28.49,0,0,0,194.55,467c-2.28,3.75-4,7-5.76,10.25a265,265,0,0,0-16.54,38.46c-.4,1.18-.42,2.14.5,3,3.27,2.91,6.67,5.63,11.09,6.61" transform="translate(-156.06 -201.36)"/><path class="cls-1" d="M267.72,430.83c2.85,7.25,4.6,14.35,8.17,20.78,3.24,5.84,11.6,7.18,16.13,2.27a115.33,115.33,0,0,0,15-20.6c.32-.55.83-1,.36-1.82-6.52.25-13.06.49-19.61.77s-13-1-20-1.4" transform="translate(-156.06 -201.36)"/><path class="cls-1" d="M211.9,399.43a14.1,14.1,0,0,0,2.33,1.17c3,1.07,6,2.07,8.9,3.3a119.75,119.75,0,0,0,27,7.87c5.92,1,11.93,1.38,17.87,2.26,7.49,1.12,15.05.61,22.56,1.15,1.5.11,2.27-.53,2.31-2,0-.76,0-1.53,0-2.29a114.1,114.1,0,0,1-.1-11.9,70.5,70.5,0,0,0,0-13.32,76.38,76.38,0,0,1-.3-10.8c.45-13.43,1.18-26.85,1.43-40.28a181.82,181.82,0,0,1,1.08-19c.69-5.62.12-11.1-.62-16.63-.19-1.44-.85-1.8-2.16-1.75-2.61.11-5.23.2-7.85.15-8.53-.15-17-.65-25.25-3.25-4.16-1.31-4.19-1.24-6.45,2.44a102.19,102.19,0,0,0-7.75,15.83c-1.1,2.76-2.88,5.13-4.11,7.81-1.32,2.86-2.15,5.95-3.85,8.62S235.31,335,234,338c-.66,1.49-1.38,3-1.93,4.5-1.62,4.51-3.33,9-5.17,13.42-4.23,10.14-8.32,20.34-12.12,30.66-1.2,3.27-1.81,6.79-3.65,9.78-.95,1.55-.64,2.31.76,3.12m75.53,2.23a.88.88,0,0,1-.95-1,1.1,1.1,0,0,1,.91-1.1.89.89,0,0,1,.91,1c0,.58-.26,1.06-.87,1.08m1.44-64.34c-.74.16-.92-.43-.88-1,.06-.72.13-1.53.94-1.62s1.21.47,1.22,1a1.53,1.53,0,0,1-1.28,1.61m.33-32.11a1,1,0,0,1,1.46.81c.23,1.57-1.22,1.69-2.34,2.9-.25-1.92-.59-3.15.88-3.71m-.64,15.44a.74.74,0,0,1,.86.71c.05.66,0,1.32-.84,1.43a.8.8,0,0,1-.91-.7,1.2,1.2,0,0,1,.89-1.44m-.29,30.18c.21-.22.64,0,.83.3.82,1.32.2,2.18-.82,2.94a2.35,2.35,0,0,1-.39-.28,2.25,2.25,0,0,1,.38-3m-.6,16.79c1-.13,1.34.23,1.4.83s-.1,1.4-.92,1.4a1.08,1.08,0,0,1-1-1.11,1.06,1.06,0,0,1,.48-1.12m-.26,16.24c.57,0,.94.21,1,.75a1.39,1.39,0,0,1-.85,1.58.76.76,0,0,1-1-.54c-.29-.9.27-1.4.88-1.79m-31.75-25.6c.1-1.55.66-2.55,2.48-2a10.23,10.23,0,0,0,1.37.19c5.36,0,11.12-.3,16.89,0,2.9.17,3.13.35,3.13,3.16,0,5.32-1.93,9.55-6.65,12.28a8.31,8.31,0,0,1-5.64,1.13,13.58,13.58,0,0,1-11.67-11.9,14.39,14.39,0,0,1,.09-2.93" transform="translate(-156.06 -201.36)"/><path class="cls-1" d="M259.23,361.69c.33,0,.65,0,1,0a106.61,106.61,0,0,1,11.68.61h3.37c1.22,0,2.13-.3,2.17-1.78s-.79-2.17-2.21-2.16c-2.62,0-5.24,0-7.86.12s-5.45.32-8.18.49c-.76,0-1.6,0-1.62,1.12s.65,1.53,1.67,1.56" transform="translate(-156.06 -201.36)"/><path class="cls-1" d="M203.89,458.63a4,4,0,0,0,3.46.59c3.41-1.15,6.57-2.68,8.07-6.34a6,6,0,0,0,.31-3.83c-1.4-5.68-9.53-8.46-14.1-4.8-1.87,1.49-3.3,3.22-2.87,5.63-.28,4.25,2.21,6.68,5.13,8.75" transform="translate(-156.06 -201.36)"/><path class="cls-1" d="M274.91,364.33c-3.52.24-6.88-1.13-10.38-.86-1.3,0-2.61-.07-3.91,0-1.85.1-2.21.83-1.34,2.53a9.25,9.25,0,0,0,3.42,3.44c5,3.17,9.63,2.35,13.4-2.61.9-1.18.27-2.6-1.19-2.5" transform="translate(-156.06 -201.36)"/><path class="cls-1" d="M301.46,430.34c4.28-.08,8.43-1.2,12.66-1.51a174.29,174.29,0,0,0,21.71-3,146.31,146.31,0,0,0,22-6.45,34.41,34.41,0,0,0,10.64-5.69,3.8,3.8,0,0,0,1.67-2.66c.41-5.23-2.09-9.08-6-13a4.45,4.45,0,0,1-2.2,3.55c-8.37,5.18-17.63,8.21-27.09,10.35-9.67,2.19-19.47,4-29.47,4.23a2,2,0,0,0-2.21,1.35,10.42,10.42,0,0,1-6.56,5.56c-7,2-14.1,1.35-19.1-5.37a3.71,3.71,0,0,0-3.24-1.7c-10.19-.19-20.2-1.87-30.19-3.75a94.61,94.61,0,0,1-20.48-6.63c-1.21-.53-2.46-.89-3.69-1.31-4.38-1.53-9.11-2.34-12.54-6a22.11,22.11,0,0,0-1.7,2.49c-1,2.16-2.19,4.43-1.88,6.84a7.63,7.63,0,0,0,4.34,6.13c2.48,1.26,5.21,1.59,7.73,2.55,7.26,2.77,14.81,4.49,22.28,6.47,6.82,1.81,13.69,3.52,20.69,4.66,6.66,1.09,13.3,2.38,20,2.87,7.52.53,15.06.09,22.6-.05" transform="translate(-156.06 -201.36)"/><path class="cls-1" d="M212.92,460.23a154.34,154.34,0,0,0,.3,16.66,9.24,9.24,0,0,1-.42,4.11c-1.25,3.2-.42,5.67,2.47,7.58s5.68,4.11,9,5.18a47.46,47.46,0,0,1,5.16,2.07,70.59,70.59,0,0,0,19.07,5.62c8,1.19,15.9,2.85,24,3.49,7.84.61,15.67,1.21,21,1.33,13-.18,23.47-.55,33.81-2.62a106.38,106.38,0,0,0,21.93-6.51,25.62,25.62,0,0,0,10.42-7.72c1.08-1.41,2.24-2.7,1.1-4.67-.28-.5-.09-1.28-.11-1.93-.21-6.13,1-12.21.68-18.35a3,3,0,0,1,1.17-2.91c1.23-.76,1-1.75.73-2.86a9.21,9.21,0,0,1-.46-2.57c0-1.75-1-2.51-2.41-3.08a101.63,101.63,0,0,0-18.1-5.68c-6.11-1.19-12.22-2.37-18.34-3.48a75.64,75.64,0,0,0-19.23-1.41c-1,.08-1.8,0-2.47,1.11-2.24,3.63-5.16,6.76-7.66,10.2a11.23,11.23,0,0,1-8,4.68c-3.5.41-7.12-.15-9.82-2.63a14.89,14.89,0,0,1-4.69-7.73,31.57,31.57,0,0,0-1.81-4.56,2.39,2.39,0,0,0-2.46-1.75c-2.61,0-5.23-.13-7.85,0-13.21.52-25.9,3.7-38.38,7.82-1.54.51-3.23,1.18-4,2.63-1.21,2.32-2.3,4.67-4.22,6.52a2,2,0,0,0-.48,1.49m4.84-.07c.32-.55,1-.33,1.49-.13,1.82.76,3.59,1.65,5.43,2.31a143.06,143.06,0,0,0,21.42,6,177.53,177.53,0,0,0,24.33,3.39c19,1,38,.94,56.85-2.66,8.06-1.54,16-3.37,24-5.44a53.47,53.47,0,0,0,5.76-2.35c.38-.15.93-.26,1.2.19.36.61-.06,1.07-.56,1.29a41.89,41.89,0,0,1-4.28,1.64,205.79,205.79,0,0,1-34.9,7.45c-10,1.12-20,2.5-30.07,2.12-13.07-.89-26.24-.93-39.14-3.56-6.51-1.33-13.14-2.23-19.45-4.5-2.85-1-5.77-1.91-8.63-2.91a23.19,23.19,0,0,1-2.67-1.25c-.63-.32-1.14-.85-.73-1.55" transform="translate(-156.06 -201.36)"/><path class="cls-1" d="M239.13,319.75c.68-1.73.13-2.49-1.73-2.56a46.47,46.47,0,0,0-5.88.33c-2.92.24-3.67,1-3.23,4,.58,4,2.68,7.25,5.28,11.28,2.09-4.88,3.93-8.93,5.56-13.05" transform="translate(-156.06 -201.36)"/><path class="cls-2" d="M200.53,460.91a10.43,10.43,0,0,0,8.37,2.33c1,3.41.28,6.7.55,9.95.31,3.71.15,7.23-2.81,10.27-2.62,2.7-2.37,4.38-.62,7.69a17.35,17.35,0,0,0,3.46,4.29,25,25,0,0,0,8,4.93A235.29,235.29,0,0,0,244,509.7a170.59,170.59,0,0,0,22,5c1.21.18,2.89-.11,3.76,1.53a9.68,9.68,0,0,1-3.17,1,39.66,39.66,0,0,0-6.15.91c-6.84,1.76-13.79,3.14-20.39,5.85a10.68,10.68,0,0,0-5.92,5.62,13.86,13.86,0,0,0-1.14,7.67c.09.83.42,1.82-1,2-3.68.37-6.78,2.27-10,3.78-2.48,1.15-4.12,3.22-5.66,5.29-3.91,5.29-4.22,11.3-3.1,17.52.39,2.15,1,4.28,1.21,6.45a54.61,54.61,0,0,0,6.11,20.58c.43.83.94,1.67.16,2.72-2.32,3.09-3.29,6.87-5,10.27-3.29,6.51-6.62,13-9.88,19.55-.41.82-1.46,1.84-.69,2.66s2,2,3.68,1.68c.64-.13,1.31-.19,1.93-.37a33.66,33.66,0,0,1,5.81-1c4.23-.48,8.46-1,12.69-1.53,6.47-.85,12.93-1.81,19.41-2.62,2.95-.37,3.47-1,2.58-3.71-.27-.82-.69-1.6-1-2.39a46.44,46.44,0,0,1-2.59-7c-1.16-4.43-2.4-8.85-3.86-13.19-1.35-4-2.36-7.9-.68-12.06a34.12,34.12,0,0,0,1.33-4.73c1.26-5.31,1.75-10.76,2.67-16.14a29.72,29.72,0,0,1,1.77-6.57c8,5.87,17.37,7.43,26.6,8.79,10.61,1.55,21.18,0,31.44-3,3.69-1.08,7.63-1.93,10.62-4.82,1-.94,1.56,0,1.81.95.77,2.84,1.38,5.74,2.27,8.55,1.77,5.62,2.4,11.55,4.79,17S330,597,328.78,603.24c-1.24,6.52-1.38,13.24-2.95,19.75-.72,3,.53,4.15,3.68,3.82,4.46-.46,8.92-.9,13.38-1.24,6.65-.49,13.33-.36,20-1.15,3.35-.4,3.37-.23,6.19-2.4,2.27-1.74,2.34-1.82.62-4-2.63-3.35-4.84-7-7.23-10.47-4.36-6.4-8.45-13-13-19.23a8.06,8.06,0,0,1-1.32-7.9c.7-2.3,1.91-4.4,2.26-6.83a48.24,48.24,0,0,1,1.92-8.63,25.09,25.09,0,0,0,.43-16.08c-1.59-4.93-4.14-9-9.7-10.41a25.75,25.75,0,0,0-9.48-1.12c1.86-4.18-.13-7.3-1.93-10.18-2.08-3.32-5.49-5.23-9.21-6.41-3.52-1.13-6.89-2.65-10.49-3.73,5.06.27,9.85-1,14.71-1.64,12.62-1.72,24.47-5.6,34.77-13.26,2.88-2.14,5.68-4.72,6.87-8.5s1.06-5.17-2.07-7.71A4.47,4.47,0,0,1,364.4,482c0-3.83,0-7.67.4-11.48.18-1.76-.3-3.59.3-5.6,1.5.65,2.36,1.67,3.64,2.09a17.12,17.12,0,0,0,13.62-1.39c4.39-2.28,7-5.71,6.74-11a12.73,12.73,0,0,0-3.44-7.9c-7.53-9-18.27-5.07-22.89,2.08-1,1.59-2,1-3,.51a124.59,124.59,0,0,0-16.13-5.39c-3.25-.95-6.57-1.63-9.78-2.68a50.89,50.89,0,0,0-14.07-2.71c-3.06-.11-6.12-.27-9.17-.43-.72,0-1.58.13-2-.78,3.17-4.88,3.17-4.83,8.4-5.21a134.06,134.06,0,0,0,16.57-2.24,173.42,173.42,0,0,0,23-6.27,98,98,0,0,0,15-7.15,4.1,4.1,0,0,0,2.06-2.83c.64-2.94.8-5.85-.52-8.66q-1.26-2.67-2.56-5.29c-1.29-2.61-3.26-4.41-6.23-4.74a2.82,2.82,0,0,1-2.68-2.34c-1-3.11-1.76-6.32-2.81-9.42-2.44-7.23-5.06-14.4-7.57-21.61-2.4-6.9-4.57-13.89-7.2-20.7-1.18-3.05-.61-5.07,1.65-7.21a8.39,8.39,0,0,0,2.85-6.07,53.22,53.22,0,0,0-.42-6.55c-.49-3.85-2.61-5.81-6.45-6.17a14.72,14.72,0,0,0-4.24.29c-1.63.32-2.66-.09-3.08-1.95a23.41,23.41,0,0,0-2-5.86c-2.28-4.25-3.15-9.09-5.76-13.19-.84-1.33-.46-2.36.79-3.37,4.59-3.75,4.44-9.2-.09-12.95a14.81,14.81,0,0,0-6.1-2.95c-1.22-.31-2.25-.78-2.44-2.26-.65-5.15-3-9.81-4.34-14.75-.64-2.35-.33-4,1.44-5.46,2.08-1.75,2.75-4.1,2.88-6.71a12.22,12.22,0,0,0-2.13-8c-3.09-4.39-6.53-8.16-12.07-9.34-2-.43-4-1.14-6-1.59a2.63,2.63,0,0,1-2.27-2.38c-1.29-7.05-5.49-12-11.58-15.38a10.55,10.55,0,0,1-4.57-4.47,5.69,5.69,0,0,0-5-3.1,9.94,9.94,0,0,0-8.92,5.05,7.55,7.55,0,0,0,1.27,8.23c2.65,2.74,6.56,3.85,9.21,2.58a11.69,11.69,0,0,0,1.33-.92,10,10,0,0,0,3.74-5.3,28.77,28.77,0,0,1,8.3,7.78,12.67,12.67,0,0,1,2.45,5.3c.21,1.53-.26,2.3-1.71,2.57-.75.13-1.5.3-2.25.38a22.23,22.23,0,0,0-13.46,6.09c-2.36,2.22-4.95,4.34-5.45,7.89a23.13,23.13,0,0,0,.06,7.83,6.31,6.31,0,0,0,1.72,3.43c2.25,2.29,2.27,2.37.45,5.17-2.9,4.49-6.27,8.73-8.72,13.46-1.8,3.48-4,4.87-7.78,5.09-5.36.3-8.48,4.28-8.65,9.63-.09,2.52,1.24,4.15,2.77,5.65,1.29,1.26,1.23,2.22.39,3.68-2.66,4.62-5.32,9.25-6.92,14.4a30.16,30.16,0,0,1-1.82,3.81,2.51,2.51,0,0,1-2.6,1.54,51.84,51.84,0,0,0-8.18.24c-5.25.78-6.22,3.4-5.33,7.15,1,4.32,2,8.78,5.65,11.89.79.66.75,1.34.32,2.3-1.08,2.49-1.93,5.07-2.92,7.59-2,5.09-4,10.17-6,15.24-3.37,8.41-6.92,16.75-9.56,25.43-.83,2.72-1.84,5.38-2.75,8.07-.25.72-.34,1.51-1.21,1.82-4.78,1.67-6.52,5.71-8.09,10-1.68,4.67,1.79,11.58,6.36,12.83,2,.55,3.91,1.39,5.91,1.94,5.47,1.5,10.85,3.27,16.34,4.7,9.29,2.43,18.59,4.77,28,6.63,2,.41,4.11.72,6.09,1.26,2.55.69,1.65,3.77,3.05,5.38.05.06,0,.21,0,.61a20.65,20.65,0,0,1-4.7.08c-7.64-.1-15.19.26-22.66,2.32-6,1.65-12.16,2.63-17.77,5.47a2.41,2.41,0,0,1-3.2-.74A25.76,25.76,0,0,0,213,440.8a10.93,10.93,0,0,0-12.55-.29,10,10,0,0,0-4.72,9.14c.14,4.37,1.06,8.29,4.84,11.26M365.42,453c2-6.38,8.78-9.66,14.54-6.6,5.45,2.91,7.33,7.47,4.23,12.78-1.61,2.77-4.56,3.93-7.63,4.54a20.55,20.55,0,0,1-2.94.21c-6.2.26-10.1-4.94-8.2-10.93m-88-241.52a3.11,3.11,0,0,1-4.85,2.41c-2.09-1.13-3.25-3.76-2.53-5.72a4.66,4.66,0,0,1,5.31-2.67c1,.17,1.78.63,1.79,1.58,0,1.11-1.06.78-1.75.9-1.4.23-1.4.22-2.6,1.37.91.81,1.85.09,2.75.06,1.72,0,2.15.38,1.88,2.07M245.9,619c.56,1.31,0,1.84-1.21,2-2.61.23-5.26.2-7.82.67-7.52,1.37-15.12,2-22.68,3-1.16.15-2.29.77-3.63.33a2.82,2.82,0,0,1,.52-2.07q6.1-11.93,12.19-23.85c1.27-2.47,1.39-2.44,4.15-2,3.16.45,6.34.73,8.9-1.86a5.19,5.19,0,0,1,1.11-.69,2,2,0,0,1,.52-.09,33,33,0,0,1,3.21,8.39c1.55,5.45,2.5,11.07,4.74,16.31M238,589.88a8,8,0,0,1-10.55,5,7.83,7.83,0,0,1-4.11-5.23,51.74,51.74,0,0,0-2.3-5.77c-2-4.45-2.45-9.24-3.25-14a1.33,1.33,0,0,1,.23-1.21c8.12,5.77,17.68,3.28,25.1-4.42A107.53,107.53,0,0,1,238,589.88m5.55-34.9a22,22,0,0,1-2.3,8.54c-.69,1.58-2.24,2.46-3.56,3.29-4.9,3.08-10.09,4.62-15.74,1.86a7.84,7.84,0,0,1-1.15-.6c-5.22-3.76-5.39-15.07-.22-19a34,34,0,0,1,8.95-4.64c2.92-1.07,5.8-.48,8.67-.08a4.46,4.46,0,0,1,3.23,2.59c1.1,2.45,2.38,4.92,2.12,8m111.6,48.94c3.37,5.4,7.14,10.56,11.06,16.27-12.53,1.19-24.29,1.09-35.66,2.61a2.19,2.19,0,0,1-.34-2.52c1.29-5.55,1.61-11.24,2.32-16.87.18-1.41.34-2.83.63-4.21.67-3.17.7-3.19,4-3.58a4.13,4.13,0,0,0,2.8-1.46,14.92,14.92,0,0,0,3.86-6.21c4.63,5.11,8,10.62,11.3,16m-10.1-26.61a24.06,24.06,0,0,0-1.79,6.94c-.37,3.26-2.08,5.72-4,8.07s-3.13,1.95-5.24-.07c-1.27-1.22-1.69-2.7-2.4-4.14-3.18-6.45-4.1-13.54-6-20.36a7.1,7.1,0,0,1-.22-1.29,2,2,0,0,1,.17-.61,1.53,1.53,0,0,1,1.47.43c3.46,2.55,7.27,2.73,11.23,1.58a35.66,35.66,0,0,0,10.35-4.32c-1.67,4.88-1.67,9.52-3.56,13.77m-9.31-35.18a12.24,12.24,0,0,0,3.26,0c3.25-.88,5.51.84,6.92,3.17,2.58,4.26,4.17,8.89,2.54,14a7.11,7.11,0,0,1-3.86,4.56,35.11,35.11,0,0,1-8.76,2.58c-5.22,1-11.29-2.56-12-8-.49-3.8-.66-7.45,1.34-10.8,2.35-3.94,6-5.58,10.56-5.52m-21.34-19.75c4.21,1.31,8.58,2.47,12.19,5.37,3.07,2.46,3.81,4.66,2.07,8.17a61.16,61.16,0,0,1-6.9,11.44c-4.85,6-11.19,9.94-18.31,12.67s-14.63,3.33-20.42,3.7c-5.26-.07-8.71-.47-12.08-1.54a15.67,15.67,0,0,0-2.89-.54c-8.22-.94-14.94-5.2-21.58-9.66-1.09-.72-1.31-2-1.88-3-1.7-3.1-3.28-6.23-5.75-8.9a9.57,9.57,0,0,1-2.27-7,5.63,5.63,0,0,1,3.45-4.44A78.93,78.93,0,0,1,252,524.27c6.08-1.87,12.44-2.21,18.61-3.59,1.8-.4,2.92,0,3.71,1.64a28.74,28.74,0,0,0,5,8,7.89,7.89,0,0,0,7.94,2.48c6.17-1.3,10.17-5.25,13.23-10.35a3.45,3.45,0,0,1,3.35-1.94,32.56,32.56,0,0,1,10.59,1.89m-41.87-8.15c.66-1,2-.45,3.06-.38,2.94.18,5.87.55,8.8.74a124.77,124.77,0,0,0,15.71.11,29.24,29.24,0,0,1,3,.16c-3,4.93-5.27,9.67-9.44,13a18,18,0,0,1-6.39,3.19,5,5,0,0,1-5.18-1,22,22,0,0,1-6-8,39.68,39.68,0,0,0-2.7-4.84c-.54-.93-1.54-2-.85-3m92.07-21.67c-1.65,3.49-4.54,5.89-7.68,7.84a56.18,56.18,0,0,1-12.42,5.76,152.92,152.92,0,0,1-30.07,6.17,194.17,194.17,0,0,1-25.18.94,87.35,87.35,0,0,1-14.36-1c-9.75-1.78-19.55-3.27-29.07-6.13-7.61-2.29-15.05-5.06-22.49-7.85a71.94,71.94,0,0,1-8.58-3.88c-2.1-1.11-3.48-2.94-5.24-4.39a2.87,2.87,0,0,1-.62-3.31c.35-1,1.47-1.21,1.92-.26,2.2,4.59,6.8,6,10.8,8,11.49,5.59,23.78,8.52,36.41,10.19,7.15.95,14.34,1.43,21.49,2.25a147.09,147.09,0,0,0,28.45.55c9.88-.78,19.73-1.79,29.38-4.59a91.71,91.71,0,0,0,15.3-5.59,22.9,22.9,0,0,0,10.41-9.47c2.48,1.83,2.69,2.41,1.55,4.81M336.8,317.79c.66,0,1.31-.11,1.73-.15,4.19-.12,5.44,1.25,6.05,5.33a11.21,11.21,0,0,1-3.18,9.88c-1,1.09-1.56,1-2-.41-1.38-4.14-2.65-8.31-4-12.46-.41-1.31-.12-2.13,1.41-2.19m-5.94-4c1.44,4.2,3.49,8.16,4.81,12.43,2.81,9.07,5.57,18.17,8.83,27.08,2.06,5.64,3.67,11.42,5.78,17,2.26,6,4.1,12.19,5.82,18.4a73.58,73.58,0,0,0,3.1,7.88c.28.67,1.05.72,1.58,1.07,1.47,1,1.48,2.1-.11,3a73.77,73.77,0,0,1-8.2,4.1,135.61,135.61,0,0,1-30.64,8,200.33,200.33,0,0,1-24.44,2.35c-2.68.07-2.66.08-2.74-2.6,0-2.07-.16-4.15-.25-6.22a102.37,102.37,0,0,1,.36-10.79c.41-5-.33-10-.42-15.07-.17-8.64.24-17.26.62-25.9.44-10,.64-20.1.86-30.16.08-3.4.57-6.75,1-10.11a40.7,40.7,0,0,0-.61-13c0-.11-.06-.22-.08-.32-.7-3.83-.51-4,3.28-4.33,6.36-.48,12.46-2.25,18.57-3.89,3.48-.94,3.84-.87,5.35,2.27a168.81,168.81,0,0,1,7.56,18.8M301.33,416.64c-3.6,4.7-8,6.42-13.4,5.37a13.1,13.1,0,0,1-8.84-5.53c4-.81,7.63.34,11.23.15s7.1,0,11,0M316,275.38c.45,1.79,1,3.56,1.61,5.31.44,1.23.35,2.08-1,2.59a21.28,21.28,0,0,1-3,1.37c-5.43,1.19-10.69,3.13-16.26,3.71-3,.31-3.17.22-3-2.87.15-3.6.35-7.2.18-10.81-.65-4.89.66-9.79-.21-14.7-.41-2.3.13-2.79,2.69-3a69.25,69.25,0,0,0,10.61-1.94c2.38-.54,2.35-.57,3.14,1.77,2.08,6.08,3.69,12.29,5.25,18.53m-43.26-31.51c1-6,4.74-9.7,10-11.93a29.57,29.57,0,0,1,8.89-2c1.38-.12,2,.12,2.21,1.52.47,2.55.45,5-1,7.25-.47.73-.93,1.47-1.36,2.23a1.18,1.18,0,0,0,.34,1.71c.54.37,1.07,0,1.47-.33,2.85-2.57,3.89-5.9,4-9.61a14.83,14.83,0,0,0-.17-1.62c-.12-1.26.4-1.91,1.71-1.62,2.64.59,5.36.94,7.48,3,1.65,1.57,3.48,3,5.19,4.48,5.63,5,2.82,12.09-1.23,14.89a22.55,22.55,0,0,1-8.12,3.13c-3.22.72-6.53.33-8.82.66-6-.41-11-.55-15.66-2.71-4.11-1.88-5.65-4.58-4.92-9m-12.25,38.35c1.42-2.81,3-5.55,4.52-8.31,3-5.36,6.74-10.14,10.08-15.22.54-.81,1.22-1.53,1.8-2.32a2.68,2.68,0,0,1,3.19-1,65.91,65.91,0,0,0,10.64,1.72c1.25.16,1.59.7,1.68,1.89.35,4.69,0,9.39-.06,14.08s-.08,9.17-.05,13.75c0,1.37-.47,2-1.88,2-7.52,0-15.07.61-22.48-1.27a38.23,38.23,0,0,1-6.17-2.16c-2.08-.92-2.24-1.25-1.27-3.16m-8.67-1.34a7.74,7.74,0,0,1,6.57-2.27c1.18.12,1.5.7,1.14,1.77,0,.1-.08.2-.11.3-1.82,4.91-1.82,4.92,3.05,6.77,6.43,2.44,13.15,3.11,19.95,3,5.9-.05,11.76-.56,17.63-1.14,6.74-.65,12.9-3.19,19.19-5.35,1.49-.51,1.5-1.37.81-2.51a4.26,4.26,0,0,1-.87-3.08,10.13,10.13,0,0,1,4.75,1.46,5.21,5.21,0,0,1,2.38,5.38c-.23,2.05-1.46,3.16-3.41,3.93-13.51,5.34-27.55,7-42,6.66a100.11,100.11,0,0,1-21.89-3.45,30.87,30.87,0,0,1-5.5-2.11,5.61,5.61,0,0,1-1.7-9.4m-23.56,40.64c-.44-3,.31-3.76,3.23-4a46.47,46.47,0,0,1,5.88-.33c1.86.07,2.41.83,1.73,2.56-1.63,4.12-3.47,8.17-5.56,13.05-2.6-4-4.7-7.32-5.28-11.28m-17.15,74.79c1.84-3,2.45-6.51,3.65-9.78,3.8-10.32,7.89-20.52,12.13-30.67,1.83-4.4,3.54-8.9,5.16-13.41.55-1.53,1.27-3,1.93-4.5,1.3-2.94,1.09-6.33,2.89-9.14s2.54-5.76,3.85-8.62c1.24-2.68,3-5.05,4.11-7.81a102.19,102.19,0,0,1,7.75-15.83c2.26-3.68,2.29-3.75,6.45-2.44,8.23,2.6,16.72,3.1,25.25,3.25,2.62.05,5.24,0,7.86-.15,1.3,0,2,.31,2.15,1.75.74,5.53,1.31,11,.62,16.63a181.82,181.82,0,0,0-1.08,19c-.25,13.43-1,26.85-1.43,40.28a76.38,76.38,0,0,0,.3,10.8,70.5,70.5,0,0,1,0,13.32,114.1,114.1,0,0,0,.1,11.9c0,.76,0,1.52,0,2.29,0,1.5-.81,2.14-2.31,2-7.51-.54-15.07,0-22.56-1.15-5.94-.88-11.95-1.28-17.87-2.26a119.75,119.75,0,0,1-27-7.87c-2.92-1.23-5.92-2.24-8.9-3.3a14.1,14.1,0,0,1-2.33-1.17c-1.4-.81-1.71-1.57-.76-3.12m47.68,31.21c-7-1.14-13.87-2.85-20.69-4.66-7.47-2-15-3.7-22.28-6.47-2.52-1-5.25-1.29-7.73-2.55a7.63,7.63,0,0,1-4.34-6.13c-.31-2.41.83-4.68,1.88-6.84a22.11,22.11,0,0,1,1.7-2.49c3.43,3.66,8.16,4.47,12.54,6,1.23.42,2.48.78,3.69,1.31a94.61,94.61,0,0,0,20.48,6.63c10,1.88,20,3.56,30.19,3.75a3.71,3.71,0,0,1,3.24,1.7c5,6.72,12.1,7.36,19.1,5.37a10.42,10.42,0,0,0,6.56-5.56,2,2,0,0,1,2.21-1.35c10-.19,19.8-2,29.47-4.23,9.46-2.14,18.72-5.17,27.09-10.35a4.45,4.45,0,0,0,2.2-3.55c3.88,3.88,6.38,7.72,6,13a3.8,3.8,0,0,1-1.67,2.66,34.41,34.41,0,0,1-10.64,5.69,146.31,146.31,0,0,1-22,6.45,174.29,174.29,0,0,1-21.71,3c-4.23.31-8.38,1.43-12.66,1.51-7.54.14-15.08.58-22.6,0-6.74-.47-13.38-1.77-20-2.86M307,433.28a114.84,114.84,0,0,1-15,20.6c-4.53,4.91-12.89,3.57-16.13-2.27-3.57-6.43-5.32-13.53-8.17-20.78,7,.43,13.48,1.67,20,1.4s13.09-.52,19.61-.77c.47.77,0,1.27-.36,1.82m-89.37,18.94c.75-1.45,2.44-2.13,4-2.63,12.48-4.12,25.17-7.3,38.38-7.82,2.62-.1,5.24.05,7.85,0a2.39,2.39,0,0,1,2.46,1.75,31.57,31.57,0,0,1,1.81,4.56,14.89,14.89,0,0,0,4.69,7.73c2.7,2.48,6.32,3,9.82,2.63a11.23,11.23,0,0,0,8-4.68c2.5-3.44,5.42-6.57,7.66-10.2.67-1.08,1.49-1,2.47-1.11A76.1,76.1,0,0,1,324,443.89c6.12,1.11,12.23,2.29,18.34,3.49a100.79,100.79,0,0,1,18.1,5.67c1.43.57,2.44,1.33,2.41,3.08a9.59,9.59,0,0,0,.46,2.57c.29,1.11.5,2.09-.73,2.86a3,3,0,0,0-1.17,2.91c.35,6.14-.89,12.22-.68,18.34,0,.66-.17,1.44.11,1.94,1.14,2,0,3.26-1.1,4.67a25.62,25.62,0,0,1-10.42,7.72,106.38,106.38,0,0,1-21.93,6.51c-10.34,2.06-20.8,2.44-33.81,2.62-5.35-.12-13.18-.72-21-1.33-8.08-.64-16-2.3-24-3.48a71.68,71.68,0,0,1-19.07-5.62,45.57,45.57,0,0,0-5.16-2.08c-3.35-1.07-6.13-3.27-9-5.18s-3.72-4.38-2.47-7.58a9.24,9.24,0,0,0,.42-4.11,154.48,154.48,0,0,1-.3-16.67,2,2,0,0,1,.48-1.48c1.92-1.85,3-4.2,4.22-6.52m-16-8c4.57-3.66,12.69-.88,14.1,4.8a6,6,0,0,1-.31,3.83c-1.5,3.66-4.66,5.19-8.07,6.34a4,4,0,0,1-3.46-.59c-2.92-2.07-5.41-4.5-5.13-8.75-.43-2.41,1-4.14,2.87-5.63" transform="translate(-156.06 -201.36)"/><path class="cls-2" d="M184.69,528.45c3.38.33,5.55-1.06,6.94-4.21,2-4.63,2.93-9.59,4.21-14.42,1.74-6.53,1.91-13.39,3.62-19.94,1.31-5,.86-10.19,1.44-14.43a59.44,59.44,0,0,0-1.61-11.85,4,4,0,0,0-1.57-2.78c-.71-.47-1.28-.67-2,0a25.39,25.39,0,0,0-6.06,7.13c-3.28,6.26-6.46,12.58-9.61,18.92-1.79,3.6-3.62,7.2-5.07,10.93-2.37,6.08-4.15,12.39-6.75,18.38a2.82,2.82,0,0,0,.38,3.3c4.29,4.93,9.44,8.33,16.11,9m-12.44-12.72a265,265,0,0,1,16.54-38.46c1.72-3.27,3.48-6.5,5.76-10.25a28.49,28.49,0,0,1,2.38,13.67c-.46,5-1.36,10-2.29,14.89-.55,2.91-.92,5.83-1.27,8.75-.78,6.45-3,12.51-4.93,18.63-.78,2.4-2.08,2.91-4.6,2.34-4.42-1-7.82-3.7-11.09-6.62-.92-.81-.9-1.77-.5-2.95" transform="translate(-156.06 -201.36)"/><path class="cls-2" d="M394,525.88c-4.77,1.47-8.72,4.44-12.32,7.81-3,2.8-4.83,6.41-6.68,10-1.44,2.79-.94,5.4,1.19,7.78,1.23,1.38,2.87,1.87,5,2.62-2.14,3.13-2.74,6.35-3.47,9.54-1.7,7.5,3.82,15.74,11.54,16.56a22.75,22.75,0,0,0,23.53-13.66,28.64,28.64,0,0,0,2.06-19.19c-1.4-5.52-3.15-11.09-6.67-15.92s-8.72-7.2-14.15-5.54m13.44,11.18a71.18,71.18,0,0,1,4.05,11.37,17.2,17.2,0,0,1,.68,6.41c.4,3-.77,6-1.52,9a8.74,8.74,0,0,1-2,3.72c-4.1,4.47-8.65,8.21-15.06,8.9-7,.75-12.4-3.9-12.43-10.93a20.48,20.48,0,0,1,1.64-8,24.15,24.15,0,0,0,2.08-7.82c.12-2.27,2.13-3.72,3.2-5.6.48-.84,1.14-1.59,1.67-2.41a1,1,0,0,0-.32-1.42c-.55-.36-1-.08-1.36.44-1.49,2.27-3.3,4.36-4.33,6.88-.7,1.72-1.85,1.94-3.35,1.72s-2-1.53-2.41-2.78a3.6,3.6,0,0,1,.37-2.87c2.47-4.08,4.66-8.42,9.15-10.79a7.89,7.89,0,0,0,1.64-1.08c5.41-4.82,14.46-3.3,18.29,5.19" transform="translate(-156.06 -201.36)"/><path class="cls-2" d="M171.64,569.37c3.79,2,7.57,3.33,11.85,3.18,1.83,0,3.8.56,5.42-.63,3.28-2.4,5.82-5.26,5.46-9.78-.16-2.06.08-4.13-.68-6.14a2.07,2.07,0,0,1,.59-2.61A9.24,9.24,0,0,0,196,542.13a25,25,0,0,0-7.1-8A77.31,77.31,0,0,0,178,528a8.93,8.93,0,0,0-11.33,2.84c-.27.34-.52.71-.82,1a37.06,37.06,0,0,0-8.31,13.51c-2.55,7.49-2.28,10.9,4,17.44,2.84,3,6.42,4.74,10,6.6m-11.45-22a60.57,60.57,0,0,1,3.93-8.58c3-6,12.22-8.72,18.08-4.28,3.28,2.48,7,4.41,9.68,7.63a7.49,7.49,0,0,1,1.83,5.42c-.05,1.25-.36,2.46-1.88,2.68s-2.21-.61-2.63-1.92a56.73,56.73,0,0,0-3.34-7.47c-.37-.75-.83-1.43-1.71-.83-.7.48-.3,1.16,0,1.75a71.56,71.56,0,0,1,7,18.24c.51,2.34.84,4.63-1.06,6.78s-4,1.81-6.36,2c-8.52-1-15.84-4.51-21.54-11a10,10,0,0,1-2.05-10.36" transform="translate(-156.06 -201.36)"/><path class="cls-2" d="M383.48,467.31a2,2,0,0,0-1.91,1.45,53.23,53.23,0,0,0-4,16.46c-.52,9.7-1,19.41-1.46,29.12a66.11,66.11,0,0,0,.7,12.09c.34,2.33.62,2.67,2.95,2,6.53-2,13.05-3.88,18.09-9.18,1.87-2,2.3-3.46,1.59-5.67-1-3-1.91-6-2.64-9.07-.66-2.76-.9-5.59-1.91-8.28A186.56,186.56,0,0,1,389,477.1a35.57,35.57,0,0,0-3.77-8.68,1.77,1.77,0,0,0-1.79-1.11m8.33,32.16c1.54,5,2.36,10.19,3.91,15.2a2.61,2.61,0,0,1-.67,2.67,13.06,13.06,0,0,1-5.65,4.23c-2.45.88-4.61,2.45-7.21,3.07-1.46.34-1.94-.07-2.17-1.47a34.66,34.66,0,0,1-.2-8.51c.62-7.75.59-15.52,1-23.26.29-4.88,1.06-9.74,1.68-14.6a3.43,3.43,0,0,1,1.33-2.31c1.55,2,1.67,4.4,2.31,6.51q2.77,9.25,5.63,18.47" transform="translate(-156.06 -201.36)"/><path class="cls-2" d="M218.49,461.71a23.85,23.85,0,0,0,2.66,1.25c2.87,1,5.79,1.88,8.64,2.91,6.31,2.27,12.94,3.17,19.45,4.5,12.9,2.63,26.07,2.67,39.14,3.56,10.1.38,20.09-1,30.07-2.12a205.79,205.79,0,0,0,34.9-7.45,41.89,41.89,0,0,0,4.28-1.64c.5-.22.92-.68.56-1.29-.27-.46-.82-.34-1.2-.19a53.47,53.47,0,0,1-5.76,2.35c-7.92,2.07-15.89,3.9-24,5.44-18.85,3.6-37.83,3.71-56.85,2.66a179.09,179.09,0,0,1-24.33-3.39,143.06,143.06,0,0,1-21.42-6c-1.84-.66-3.61-1.55-5.43-2.3-.5-.21-1.17-.43-1.49.12s.1,1.23.73,1.55" transform="translate(-156.06 -201.36)"/><path class="cls-2" d="M267.23,373.09a8.33,8.33,0,0,0,5.65-1.13c4.72-2.73,6.64-7,6.65-12.28,0-2.81-.23-3-3.13-3.16-5.77-.35-11.53,0-16.89,0a10.23,10.23,0,0,1-1.37-.19c-1.82-.57-2.38.43-2.48,2a15.14,15.14,0,0,0-.09,2.93,13.58,13.58,0,0,0,11.66,11.9m8.87-6.26c-3.77,5-8.36,5.78-13.39,2.61a9.21,9.21,0,0,1-3.43-3.44c-.87-1.7-.51-2.44,1.34-2.53,1.3-.07,2.61,0,3.91,0,3.5-.27,6.86,1.1,10.38.86,1.46-.1,2.09,1.32,1.19,2.5M259.19,359c2.72-.17,5.44-.38,8.17-.49s5.24-.1,7.86-.12c1.42,0,2.26.57,2.21,2.16s-.95,1.79-2.18,1.78h-3.36a106.61,106.61,0,0,0-11.68-.61c-.33,0-.65,0-1,0-1,0-1.69-.45-1.67-1.56s.86-1.08,1.63-1.12" transform="translate(-156.06 -201.36)"/><path class="cls-2" d="M290.66,306a1,1,0,0,0-1.46-.81c-1.47.56-1.13,1.79-.88,3.71,1.12-1.22,2.57-1.33,2.34-2.9" transform="translate(-156.06 -201.36)"/><path class="cls-2" d="M288.28,354.07c1-.76,1.64-1.62.82-2.94-.19-.29-.62-.52-.83-.3a2.25,2.25,0,0,0-.38,3,2.35,2.35,0,0,0,.39.28" transform="translate(-156.06 -201.36)"/><path class="cls-2" d="M288.93,334.72c-.82.09-.88.9-.94,1.62,0,.55.14,1.14.88,1a1.53,1.53,0,0,0,1.28-1.61c0-.52-.36-1-1.22-1" transform="translate(-156.06 -201.36)"/><path class="cls-2" d="M288.15,369.85c.82,0,1-.71.92-1.4s-.42-1-1.4-.83a1.06,1.06,0,0,0-.48,1.12,1.08,1.08,0,0,0,1,1.11" transform="translate(-156.06 -201.36)"/><path class="cls-2" d="M287.39,399.57a1.1,1.1,0,0,0-.91,1.1.87.87,0,0,0,.95,1c.61,0,.86-.5.87-1.08a.89.89,0,0,0-.91-1" transform="translate(-156.06 -201.36)"/><path class="cls-2" d="M287.54,386.19a1.38,1.38,0,0,0,.85-1.58c0-.54-.41-.71-1-.75-.6.39-1.16.89-.86,1.79a.75.75,0,0,0,1,.54" transform="translate(-156.06 -201.36)"/><path class="cls-2" d="M288.58,322.79c.81-.11.89-.77.84-1.43a.73.73,0,0,0-.86-.71,1.2,1.2,0,0,0-.89,1.44.8.8,0,0,0,.91.7" transform="translate(-156.06 -201.36)"/><path class="cls-2" d="M316.39,358.63c-2.52.16-5.12.35-7.72.48-1.36.07-2,.63-1.78,2.05.55,3.72,2.17,7.07,5.23,9.07,3.45,2.25,7.58,3.34,11.37.72a11.88,11.88,0,0,0,5.57-9.45c.11-2.79-.38-3.28-3.14-3.1-3.15.2-6.28.78-9.53.23m-5.31,7.78a58.5,58.5,0,0,1,13.79-.09c-3,5.47-8.1,5.66-13.79.09M327,362.13c-.12,1.16.08,2.29-2,1.95s-4.11.07-6.18.16c0-.05,0-.11,0-.16l-6.19.37a3.63,3.63,0,0,1-2.52-.43,2.45,2.45,0,0,1-1.24-2.48c.19-.84,1.21-.87,1.92-.94,1.4-.13,2.82-.11,4.24-.1a75.85,75.85,0,0,0,10.11-.3c1.51-.19,2,.59,1.83,1.93" transform="translate(-156.06 -201.36)"/><path class="cls-2" d="M279.55,539.28A111.89,111.89,0,0,1,243.28,533c-.62-.21-1.47-1.12-2-.06-.39.84.55,1.31,1.18,1.7a3,3,0,0,0,1.23.42c3,.37,5.66,1.61,8.5,2.37,9.67,2.56,19.54,3.43,30.68,3.56,9,.58,19.08-.87,29-3.14,3.71-.85,7.32-2.12,11-3.17a8.52,8.52,0,0,0,3.13-1.73c.4-.34.83-.81.28-1.36a.87.87,0,0,0-1.17,0c-7.3,4.34-15.6,5.38-23.71,6.85-7.2,1.32-14.55.94-21.87.91" transform="translate(-156.06 -201.36)"/><path class="cls-2" d="M288.57,267.62c.66,0,.88-.49,1-1.05,0-.35-.08-.7-.41-.74-.86-.12-1.07.53-1.15,1.19a.51.51,0,0,0,.57.6" transform="translate(-156.06 -201.36)"/><path class="cls-2" d="M288.37,283.91c.48,0,.72-.36.68-.81a.7.7,0,0,0-.82-.69.68.68,0,0,0-.49.95,1,1,0,0,0,.63.55" transform="translate(-156.06 -201.36)"/><path class="cls-2" d="M288.88,274.56c-.61-.12-.72.38-.77.79a.62.62,0,0,0,.55.68.67.67,0,0,0,.77-.62c0-.56-.23-.79-.55-.85" transform="translate(-156.06 -201.36)"/><path class="cls-2" d="M340.87,598.19c-.73,0-1.21.37-1,1a21.63,21.63,0,0,0,1.72,3.52c3,4.89,6.14,9.75,9.23,14.62.4.63.75,1.54,1.71,1s.45-1.29,0-2c-.17-.28-.36-.55-.54-.82-3.42-5.29-7.31-10.29-9.91-16.09-.26-.58-.57-1.21-1.28-1.27" transform="translate(-156.06 -201.36)"/><path class="cls-2" d="M232.75,601.15c-.27-.09-.77-.09-.89.07a7.46,7.46,0,0,0-1.5,2.48c-.56,2.56-1.77,4.88-2.63,7.33-.53,1.53-.92,3.11-1.34,4.57-.13.66-.17,1.29.45,1.48.87.27,1-.45,1.24-1.08,1.53-4.61,2.43-9.45,4.88-13.74a1,1,0,0,0,.12-.3c.06-.34,0-.7-.33-.81" transform="translate(-156.06 -201.36)"/></svg>