<svg id="Layer_1" data-name="Layer 1" xmlns="http://www.w3.org/2000/svg" viewBox="0 0 368.59 396.06"><defs><style>.cls-1{fill:#fff;}.cls-2{fill:#010101;}</style></defs><path class="cls-1" d="M196.49,399.28c1.55,4.4,1.92,9.21,3.43,13.63,2.51,7.33,4.43,14.84,6.52,22.27,2.44,8.66,5.06,17.28,7.79,25.82s5,17.3,8.75,25.55c2.51,5.52,5.07,11,8.93,15.64a27.75,27.75,0,0,0,16.66,9.92,96.74,96.74,0,0,0,14.2,1.5c5.67.2,11.34.62,17,.51,8.78-.18,17.55-.72,26.33-1.12,6.78-.3,13.69.08,20.31-1.13,6.9-1.26,13.87-1.78,20.75-3a21.64,21.64,0,0,0,12.47-7,52.17,52.17,0,0,0,9.44-14.21c.76-1.79,1.84-3.53,1.37-5.68a5.58,5.58,0,0,1,.59-3c1.5-4.35,2.95-8.72,4.28-13.12,1-3.36,1.38-6.86,2.5-10.23a88,88,0,0,0,3.83-14.83c1.57-10.91,4.57-21.52,6.14-32.45s4.67-21.54,3.28-32.75c-.48-3.89-.73-7.89-2.08-11.5-1.68-4.49-6-5-10.18-5.13-1.4,0-2.46.1-2.15,1.86.26,1.45-.83,3.66,2.08,3.65,2.24,0,4.47.09,6.71.2.5,0,1.25.1,1.23.86s-.75.87-1.42.84c-1.91-.11-3.82-.19-5.74-.32-1.24-.09-2.57-.3-2.44,1.61.11,1.44.13,2.95,2.37,2.62a31.09,31.09,0,0,1,4.32-.11c.59,0,1.42-.2,1.42.79,0,.78-.59,1.11-1.29,1.15a30.84,30.84,0,0,1-3.84.11c-1.84-.13-2.61.37-2.4,2.42.2,1.9.94,2.25,2.65,1.86a12.77,12.77,0,0,1,3.33-.06c.77,0,1.47.42,1.46,1.29s-.74,1.1-1.53,1.09c-1.36,0-2.72,0-4.07,0-1,0-1.75.33-1.58,1.56.49,3.64.27,7.38,1.45,10.92.3.89.65,1.81-.49,2.21s-1.44-.54-1.63-1.47a44,44,0,0,1-.85-8.33c-.06-4.89-.06-4.85-4.87-4.38-1.35.14-1.72.52-1.53,1.95.45,3.41.66,6.84,1,10.27.06.71.21,1.55-.81,1.69s-1.27-.66-1.33-1.54q-.31-4.07-.66-8.13c-.34-4-.63-4.17-4.57-3.52-1.28.21-1.54.65-1.28,1.88a49.59,49.59,0,0,1,.73,5.47c.07.75-.23,1.49-1.16,1.5s-1-.71-1-1.36c-.13-1.68-.29-3.36-.32-5s-.7-2.21-2.23-2a29.61,29.61,0,0,1-4.76.41c-2.23-.14-2.33,1-2,2.63.42,1.87.77,3.75,1.15,5.63.19.9.07,1.68-1,1.81s-1.07-.72-1.18-1.44a33,33,0,0,1-.83-5.44c0-2.62-1-3.59-3.52-3.07a3.85,3.85,0,0,1-1,0c-1.3-.1-1.62.48-1.48,1.74.24,2.06.32,4.15.37,6.23,0,.68.49,1.85-.8,1.85s-1.18-1-1.24-1.95c-.11-2-.36-4-.46-6-.06-1.15-.62-1.61-1.68-1.48-3.88.45-7.77.94-11.65,1.39-1.11.14-2.18,1.34-3.32.17a.83.83,0,0,1-.16-1.1c.82-1,2-.76,3.11-.87,3.73-.37,7.47-.71,11.21-1,1.63-.13,2.1-.92,1.66-2.4-.34-1.13.4-3.08-1.95-2.74-4.9.7-9.93-.16-14.78,1.2-.67.19-1.68.38-1.77-.59s1-.8,1.64-.92a94.28,94.28,0,0,1,14.51-1.48c1.83,0,2.05-.89,2-2.42s-.47-2.61-2.39-2.33q-3.45.48-6.92.69t-6.71.13c-.69,0-1.49-.35-1.44-1.29,0-.74.62-.85,1.23-.77,4.75.64,9.39-.52,14.08-.76,1.25-.07,1.75-.39,1.55-1.69-.32-2-.55-4-.77-5.94a1.64,1.64,0,0,0-1.68-1.63,133.69,133.69,0,0,0-20.57-.9c-7.33.24-14.68.56-22,.88a101.74,101.74,0,0,1-12.47,0c-1.65-.11-2.19.59-2,2.09.09.71.21,1.42.3,2.14.68,5.58,1.79,11.06-.9,16.61-2.06,4.24-7.56,6.35-11.45,3.66-3.19-2.21-9.48-2.7-12.49.27-2.7,2.67-4.85,2.8-7.71.6a10.17,10.17,0,0,0-7.15-1.93c-2.08.11-4.18-.06-6.24.21a7,7,0,0,1-6.79-2.62c-2.75-3.48-6.73-4.56-10.65-5.81s-7.56-2.61-8.72-7.15c-.18-.68-.7-1.27-1-1.93a1.63,1.63,0,0,0-2.11-1c-2.91.49-5.87.72-8.72,1.42-4.14,1-7.81,4.59-6.11,11.24,2.08,8.1,3.08,16.45,5.89,24.41m152.16,86c-1.86,2.66-5.39,4.81-7.91,4.82-3.25,0-7.8-3.76-8.13-6.63-.65-5.54,2.35-8.37,6.56-9.64a10.24,10.24,0,0,1,4.95.12,7.26,7.26,0,0,1,4.53,11.33m1.71-34.72c-.5,2.71-1,5.66-3.94,6.91-3.22,1.38-6.58,2.86-9.87,0-2.4-2.08-3-5-3.5-7.86-.26-2.62,3.54-7.49,5.83-8,3.06-.69,5.92.89,8.41,2.38a6.21,6.21,0,0,1,3.07,6.54m-10.61-40c2.48-.38,5.23,1.1,7.55,2.45,1.33.78,1.26,2.48,1.32,3.67a9.32,9.32,0,0,1-6.42,8.29c-1.32.34-2.6.8-3.9,1.16a4.81,4.81,0,0,1-5.95-2.7c-2.88-6.07.16-11.76,7.4-12.87M225,427.72a47.81,47.81,0,0,1,7.64-.62c1.72,0,2.34-.62,2.33-2.44,0-5.46-.94-10.83-1.39-16.25-.11-1.44,0-1.74,1.66-1.81,6.06-.27,12.13-.74,18.14-1.5,5.75-.73,11.51-.17,17.25-.66,9.95-.86,19.91-1.55,29.87-2.32,2.58-.2,3.24.23,3.28,2.83.25,16.16,1.6,32.3.59,48.47-.13,2,.22,4-.23,6Q304,474.38,304,489.4c0,.24,0,.48,0,.71.42,4,.42,4-3.24,3.09a5.76,5.76,0,0,0-1.66-.12c-7,.43-14,.94-21,1.3-8.45.44-16.9.83-25.36,1.1A57.73,57.73,0,0,0,242,496.65c-1.49.33-2.63-.26-3.92-.38-.85-.07-.95-.82-.87-1.66a81.57,81.57,0,0,0,.05-15.07c-.27-2.88-.54-3.12-3.38-2.77-1.74.21-3.47.56-5.22.71-2.32.2-3-.51-3.1-2.82-.18-3.74-.33-7.5-.7-11.23-.12-1.25.27-1.58,1.31-1.68,2.71-.26,5.4-.59,8.11-.78,1.17-.08,2-.47,1.75-1.67-1.12-5.14-.45-10.35-.72-15.52-.11-2.17-.56-2.67-2.85-2.22-2.09.41-4.29,1.77-6.63.14-.81-.56-1.51-1.05-1.48-1.88.13-3.45-1-6.78-.9-10.24.05-1.3.43-1.66,1.54-1.86" transform="translate(-112.76 -222.11)"/><path class="cls-1" d="M236.39,425.89c-.12,1.27.88,1,1.68,1,4.08,0,8.15-.09,12.22.24,1.37.11,2,.55,2.1,2,.23,3.35.58,6.69.9,10,.1,1.1-.27,1.58-1.46,1.59-4.31.05-8.63.34-12.94.24-2-.05-2.46.62-2.31,2.46.43,5.1.77,10.21,1,15.31.08,1.51.59,2.13,2.15,2.08a46,46,0,0,0,8.11-.62c2.31-.48,4.37.5,4.46,2,.2,3.51.33,7,.52,10.53.09,1.75-.47,2.52-2.44,2.63-3.27.17-6.52.59-9.8.62-1,0-1.94.25-1.75,1.65.75,5.33.18,10.72.66,16.06.13,1.44.63,1.69,2,1.53,14.7-1.77,29.5-1.91,44.25-3,4.38-.32,8.76-.6,13.15-.88,2-.13,3.15-.85,3-3.25a84.7,84.7,0,0,1,.35-14.85c.17-1.55-.32-2.37-2.07-2.38-4.07,0-8.14-.27-12.21-.33-3.2,0-3.19,0-2.6-3a10.37,10.37,0,0,0,.13-2.16c-.21-11.36.83-22.68.95-34,0-1.61.66-2.33,2.26-2.8,3.62-1.08,7.39-1.28,11.05-2.12,1.16-.27,2.69-.21,2.67-2.1-.08-6.32-.05-12.65-.55-18.95,0-.55-.29-1.53-.71-1.32-2.3,1.17-4.5-.26-6.81,0-10.41,1-20.82,2.08-29.9,2.3-10.14-.19-18.75,1.5-27.47,1.66-1.34,0-1.46.74-1.5,1.87-.17,5.37,1.41,10.64.91,16" transform="translate(-112.76 -222.11)"/><path class="cls-1" d="M139.52,432.37c3.79-.8,7.64-.4,11.46-.21,2.88,0,5.76,0,8.63.06,1.19,0,2,.06,2.31-1.59,1.55-9.62,5.62-17.77,13.29-24.18a43.38,43.38,0,0,1,14-8.3c.93-.32,1.3-.77,1-1.77a187.56,187.56,0,0,1-3.88-20.64c-.21-1.41-1-2-2.34-1.62a20.47,20.47,0,0,0-5,1.66,103.42,103.42,0,0,0-28.35,21.53A52,52,0,0,0,140.6,412.7c-2.46,6-2.83,12.06-2.71,18.32,0,1.16.49,1.59,1.63,1.35" transform="translate(-112.76 -222.11)"/><path class="cls-1" d="M122.63,448.23A231.77,231.77,0,0,1,131.07,470c2.61,7.43,5.59,14.74,8.12,22.21,1.43,4.21,3.39,8.23,4.37,12.61.34,1.52,1.39,2.4,3.34,2.35,5.61-.15,11.14-1.08,16.72-1.36,1.14-.05,1.47-.46,1.45-1.6-.15-7.66-.55-15.32-.57-23,0-6.06-.56-12.12-.88-18.19h-.39c0-4.08.12-8.15,0-12.22a68.66,68.66,0,0,0-1.17-12.38c-.2-1-.39-1.8-1.74-1.82-5.9-.07-11.78-.36-17.7.2-3.56.33-7.12,1.62-10.68.89-4.13-.84-8.07.54-12.11.51-1.12,0-1.48.52-.92,1.51,1.53,2.72,2.37,5.74,3.68,8.53" transform="translate(-112.76 -222.11)"/><path class="cls-1" d="M300.56,428.37c-3.39.48-6.68,1.5-10.13,1.69-1.34.08-2,.89-2.1,2.4-.3,8.29-.71,16.57-1.05,24.85-.12,3-.12,6.07-.25,9.1-.07,1.43.43,1.88,1.89,2,3.75.34,7.5.25,11.24.43,1.43.07,2.18-.25,2.16-2-.07-6,0-12,.05-18h.21c0-6.23,0-12.46.12-18.69,0-1.63-.55-2.07-2.14-1.85" transform="translate(-112.76 -222.11)"/><path class="cls-1" d="M225.64,437c.33,3.13,1,3.79,4.07,3.59q9.31-.58,18.61-1.34c3.38-.27,3.37-.36,3.12-3.7-.09-1.12-.22-2.24-.21-3.35,0-2.48-1.41-3.42-3.6-3.47-2.95-.08-5.91-.05-8.86-.06a79.79,79.79,0,0,0-12.15.69c-1.51.25-1.84.85-1.65,2.18.26,1.81.47,3.64.67,5.46" transform="translate(-112.76 -222.11)"/><path class="cls-1" d="M345.87,368.08c-.57,0-.89.07-1.21.08-1.09,0-2.46-.2-2.16,1.63.23,1.38-.06,3.32,2.45,2.72a5.5,5.5,0,0,1,1.67,0c2,.17,2.53-.66,2.19-2.58s-1.67-2-2.94-1.86" transform="translate(-112.76 -222.11)"/><path class="cls-1" d="M341.7,363.73c.62,2.7.78,2.65,5,2.21,2.49-.26,1.18-1.89,1.45-3.06-.15-1.28-.29-2.62-.45-4a1.68,1.68,0,0,0-1.37-1.68c-4.52-1.11-5.78-.05-5.07,4.39.11.7.25,1.41.41,2.1" transform="translate(-112.76 -222.11)"/><path class="cls-1" d="M218.33,370.4A17.28,17.28,0,0,1,228.92,376a8.66,8.66,0,0,0,8.67,2.9c3.07-.5,6.45-1.21,9.33.69,3.26,2.15,6.1,2.33,9.29-.23s9.15-2.22,12.19.05c3.37,2.53,6.77,1.86,9.24-1.56,2.06-2.85,1.81-6,1.79-9.95-.11-2.05-.37-4.82-.68-7.6s-1.59-3.09-3.91-3c-15.88.44-31.76,1.15-47.56,2.86-5.55.6-11.15.68-16.69,1.45-1.55.21-2,.64-1.2,2.08,2,3.53,4.55,6.27,8.94,6.77" transform="translate(-112.76 -222.11)"/><path class="cls-1" d="M346.74,374.47c-1.34.33-3.71-1.22-3.64,2.08.06,2.45,1,3.12,3.24,2.66,1.1-.33,3.16.79,2.87-1.84-.17-1.56.08-3.53-2.47-2.9" transform="translate(-112.76 -222.11)"/><path class="cls-1" d="M341.32,475.19c-2.83-.08-6.74,3.56-6.84,6.36s3.33,6.43,6.08,6.56,7.68-4,7.82-6.67c.19-3.66-2.58-6.11-7.06-6.25" transform="translate(-112.76 -222.11)"/><path class="cls-1" d="M337.43,424.68c3.73-.46,6.81-2.1,8.66-5.58,1.59-3,.36-5.37-3-5.61-1.34-.1-2.71.19-4.05.07a5.21,5.21,0,0,0-6,5.51c0,3.52,1.79,5.93,4.42,5.61" transform="translate(-112.76 -222.11)"/><path class="cls-1" d="M340.74,445.32c-.6.31-1.05,1-1.91.9-.46-1,.29-1.61,1.07-2.9-5.22,3.48-5.91,7.71-2.48,12.14a4.48,4.48,0,0,0,5.81,1.54,13.2,13.2,0,0,0,4.21-3.07,5.48,5.48,0,0,0,.6-6.81c-2-2.77-4.35-3.32-7.3-1.8" transform="translate(-112.76 -222.11)"/><path class="cls-1" d="M251.14,471.85c0-2.56-.18-5.12,0-7.67.09-1.82-.71-2.13-2.26-2.08-2.63.08-5.27,0-7.9,0-4.06.12-8.14-.15-12.17.73-1.48.32-2.23.72-2,2.5.42,2.76.56,5.56.72,8.35.08,1.53.57,2.13,2.22,1.83,6.6-1.17,13.37-.49,20-2,1.41-.32,1.43-.7,1.42-1.69" transform="translate(-112.76 -222.11)"/><path class="cls-1" d="M349.67,362.39c.1,3.32.1,3.32,3.31,3.22,4.63-.15,4.66-.15,4.1-4.84-.12-1,.29-2.59-1.13-2.87a17.12,17.12,0,0,0-5.93-.34c-.51.08-.45.77-.46,1.24,0,.72,0,1.44,0,2.16h.12c0,.48,0,1,0,1.43" transform="translate(-112.76 -222.11)"/><path class="cls-1" d="M354.65,367.59a12.19,12.19,0,0,0-1.5,0c-1.27.15-3-.67-3,1.86s1.23,2.82,3.19,2.57c1-.12,1.92-.11,2.86-.26.73-.11,1.79.25,2-.83a3.65,3.65,0,0,0-.46-3c-.88-1.08-2.27-.15-3.1-.35" transform="translate(-112.76 -222.11)"/><path class="cls-1" d="M320.26,314.46c-2.66.36-4.22,2-5.78,3.83-1.83,2.13-1.66,3.12.41,5,1.06,1,2.33.88,3.45,1.17,2.41-.11,4-1.4,5.61-3,1.42-1.39,2.64-2.63,1.44-4.68a4.61,4.61,0,0,0-5.13-2.37" transform="translate(-112.76 -222.11)"/><path class="cls-1" d="M347.05,315.22c-3.66-.43-8,3.46-8.11,7.57-.08,1.84.42,3.31,2.95,3.76a10.24,10.24,0,0,0,4.44-.32c3.61-1,5.27-7.15,2.81-10a3,3,0,0,0-2.09-1" transform="translate(-112.76 -222.11)"/><path class="cls-1" d="M222.49,307.51c-.05,2.17,1,2.74,3.21,2.52,8-.8,16.06-1.37,24.1-1.95s16.26-1,24.38-1.6c9.72-.73,19.41-2,29.14-2.31,14.78-.46,29.49-2.08,44.28-2.2l4.56,0c1.08,0,1.58-.33,1.38-1.58-.46-2.75-.23-5.57-.36-8.35-.08-1.68-.43-2.14-1.89-2.17-8.94-.23-17.89-1.07-26.83-.58-10,.55-20.09.66-30.12,1.55-9.69.86-19.42,1.19-29.14,1.69-11.25.58-22.48,1.34-33.7,2.42-2.69.26-5.43.28-8.05,1.13-1.42.45-2.11,1.25-1.81,2.84a42.44,42.44,0,0,1,.85,8.57" transform="translate(-112.76 -222.11)"/><path class="cls-1" d="M199.73,283.27c-.29,4.94.27,9.82.34,14.73,0,2.46.56,4.93.5,7.41-.29,10.91,2.9,21.44,3.49,32.26a8.32,8.32,0,0,0,.2.94,2,2,0,0,0,2.4,1.73A390.86,390.86,0,0,1,246,340c13.89.39,27.79,1,41.69,1.09,10.45.06,20.92-.65,31.38-.95,14.45-.42,28.92-.78,43.38-1.16,2.71-.08,5.43-.1,8.14-.2,1.86-.06,2.79-.78,2.64-2.95-.45-6.77-1.2-13.52-1.35-20.32a5.7,5.7,0,0,1,1-4,4.65,4.65,0,0,0,1.07-3.53c-.78-14-1.56-28-2.22-41.93-.11-2.34-1.38-2.51-3.13-2.54-9.19-.19-18.38-.08-27.57-.53a105,105,0,0,0-15.25.18c-4.52.43-9.23,0-13.84,0-9.67-.13-19.35.23-29,.65-11.49.49-23,1.71-34.45,1.67-15.85-.07-31.64.47-47.32,2.94-1.12.18-1.57.31-1.51,1.7.19,4.39.35,8.81.1,13.19m38.81,44.61c-4.16,3.1-4.16,3.1-7,3.07s-5.21-1.37-6-3.51a7.48,7.48,0,0,1,2.12-7.75,22.82,22.82,0,0,1,3-2.29,4.67,4.67,0,0,1,6.33.87c.68.78,1.43,1.5,2.13,2.26,2.32,2.54,2.07,5.32-.65,7.35m31.52-6.4c-.92,2.2-2,4.31-4.63,5.1a26.4,26.4,0,0,1-6.29,1.26c-1.51.15-3-1.32-4-2.78a4.16,4.16,0,0,1,.42-4.92c.92-1.2,1.59-2.6,2.6-3.7,2.26-2.51,7.25-3.16,10.21-1.48,1.62.92,2.62,4.32,1.7,6.52m19.33,6.91a7.36,7.36,0,0,1-6.61-6.7c-.09-3.46,5.7-9.16,9.23-9.07,2.8.06,6.45,4.75,6.45,8.28,0,3.07-5.44,7.56-9.07,7.49m38.36-8.16c-2.29,3.16-4.93,6.16-9.84,5.9-3.42,0-5.78-1.67-6.45-4.66a4.68,4.68,0,0,1,.44-3c2.5-5.94,10.49-7.63,15-3.09,1.32,1.34,1.95,3.37.87,4.85m23.76,3.47c-2.6,5.19-9.83,6.43-13.14,2.89-1.38-1.47-1.75-1.84-1.67-3.95-.06-2.61,1.64-4.39,3-6.33.46-.65,2.31-.62,1.09-2.14a2.66,2.66,0,0,1,.52-.38,8.61,8.61,0,0,1,9.23,1.82c1.75,1.78,2.24,5.53,1,8.09M221.7,294.78c6.43-1.57,13-1.3,19.52-2C252.11,291.55,263,291,274,290.23c17-1.15,34-2.33,51-2.43,9.44.05,18.88.13,28.32.11,1.65,0,2,.6,2,2.12q-.1,5.52.09,11c.11,3.07.15,3-3,3-12.55,0-25.09,0-37.62,1.07s-25.31,2.17-38,2.93c-10.61.64-21.2,1.37-31.83,1.61-4.69.1-9.35,1.07-14,1.65l-8.05,1c-1.23.16-1.93-.14-2-1.6-.29-4.54-.7-9.08-1.09-13.61-.13-1.48.46-2,1.94-2.39" transform="translate(-112.76 -222.11)"/><path class="cls-1" d="M187.28,315.35c1.72.22,1.63-1,1.62-2.2,0-2.8,0-5.59,0-8.38,0-1.19-.3-2.4-.19-3.59.13-1.5-.57-2-2-1.89-.95.1-1.91.13-2.87.14s-1.46.4-1.4,1.44c.2,4.15.21,8.32.62,12.45.25,2.41,2.57,1.82,4.18,2" transform="translate(-112.76 -222.11)"/><path class="cls-1" d="M190.56,312.23c0,1.13-.29,3,1.27,2.9,2.4-.1,5,.47,7.2-.86.27-.16.15-1,.12-1.6-.17-3.19-.33-6.39-.58-9.57-.42-5.54-.44-5.48-5.94-4.86-1.5.17-2.14.77-2.12,2.25,0,2.07,0,4.15,0,6.23-.11,1.83,0,3.67.08,5.51" transform="translate(-112.76 -222.11)"/><path class="cls-1" d="M179.85,314.15c1.08.26,1.52,0,1.48-1.11-.08-1.76-.17-3.51-.26-5.26h-.13c0-1.91,0-3.82,0-5.74,0-1.1-.36-1.64-1.61-1.22a6.66,6.66,0,0,0-4.42,6.81c.08,2.65,2.66,6,4.92,6.52" transform="translate(-112.76 -222.11)"/><path class="cls-1" d="M264.88,315.46c-3-.36-7.57,3.44-7.85,6.68-.21,2.44.12,4,3.31,3.81a8.81,8.81,0,0,0,7.45-3.58,4.8,4.8,0,0,0,.57-4.77c-.5-1.44-2-2-3.48-2.14" transform="translate(-112.76 -222.11)"/><path class="cls-1" d="M394.4,299h-.09q.24,3.21.49,6.44c.05.65.07,1.27.93,1.44a7.25,7.25,0,0,0,8.61-8.09,3.73,3.73,0,0,0-2.93-3.56c-.84-.23-1.62-.67-2.45-1-1.45-.51-3.12-.84-4.38-.11-1,.56-.05,2.06-.17,3.14a15.68,15.68,0,0,0,0,1.68" transform="translate(-112.76 -222.11)"/><path class="cls-1" d="M375.74,308.94c0,.46.22,1.25.71.91,2.05-1.45,4.37-.47,6.51-.9.77-.16,1.22-.45,1.17-1.44-.11-2.06,0-4.14,0-6.21h0c0-1.91-.12-3.83.07-5.72.16-1.6-.37-2.16-1.91-2.26-2.06-.12-4.13.22-6.2-.25-1.21-.28-1.24.76-1.2,1.54.26,4.78.57,9.55.87,14.33" transform="translate(-112.76 -222.11)"/><path class="cls-1" d="M260.85,259.41c5.65-.33,11.31-.69,17-.76,12.21-.14,24.4-1.42,36.62-.43.69,0,1.39,0,1.37-.88a16.34,16.34,0,0,0-.3-4.27c-.41-1.37-1.92-.73-2.95-1a8.08,8.08,0,0,0-.9-.32c-3-.3-5.81-1.61-8.92-1.49-9,.37-18,.59-29.24.94-3.1.63-8.39,1.59-13.62,2.84-2.07.5-1.49,2.61-1.44,4.11s1.35,1.29,2.4,1.23" transform="translate(-112.76 -222.11)"/><path class="cls-1" d="M235,319.08c-1.31-1-2.88-.13-4.21.6a6.93,6.93,0,0,0-1.59,1c-1.48,1.48-2.46,3.22-1.67,5.36.62,1.69,1.51,3.23,3.54,3.06,2.16,0,6.32-2.21,7.32-3.87a1.62,1.62,0,0,0,.26-.89c-.15-2.48-1.94-4-3.65-5.3" transform="translate(-112.76 -222.11)"/><path class="cls-1" d="M275.35,249.58c2.32-.06,4.64,0,7,0V249c5.67,0,11.35,0,17,.1,1.32,0,1.76-.36,1.8-1.75a79.41,79.41,0,0,0-.83-14.78c-.64-4-.69-4.38-4.49-4.82a67.8,67.8,0,0,0-15.79-.09c-4.38.52-5.7,1.8-5.93,4.73-.42,5.1-.83,10.19-.74,15.32,0,1.51.6,1.93,2,1.89" transform="translate(-112.76 -222.11)"/><path class="cls-1" d="M385.89,306.53c0,1.45.76,1.88,2.17,1.74,5-.52,5-.49,5-5.52,0-.72,0-1.44,0-2.16h0v-1.2c0-1.59.45-3.38-.12-4.74-.78-1.9-3-.31-4.48-1.07a3.19,3.19,0,0,0-.93-.25c-1.21-.23-1.91.23-1.73,1.51.57,3.89.2,7.79.14,11.69" transform="translate(-112.76 -222.11)"/><path class="cls-1" d="M368.22,367.61a2.89,2.89,0,0,0,0,.72c.06,3.12,2.44,1.55,3.49,1.86l3,0c.62,0,1.18-.21,1.09-.94-.15-1.09.36-2.52-1.36-2.9s-6,.52-6.21,1.24" transform="translate(-112.76 -222.11)"/><path class="cls-1" d="M332.78,515.25c-2.45.34-4.81,1.28-7.23,1.48-5.09.42-10.21.49-15.31.64-4.4.13-8.8.13-13.19.27-8.3.29-16.59.85-24.92.39-4.14-.23-8.25-.88-12.4-.92-1.58,0-2,.53-1.64,2a27.53,27.53,0,0,1,1.14,4.39c.15,1.43.78,1.87,2.08,2,6.79.87,13.63.59,20.44.86a240.7,240.7,0,0,0,31.54-.84c.78-.07,2,0,2.27-.46,1.26-1.92,3.22-1.45,4.91-1.63,4.2-.45,8.41-.83,12.62-1,2.8-.12,4-1.23,3.3-3.61.1-4.16.1-4.1-3.61-3.58" transform="translate(-112.76 -222.11)"/><path class="cls-1" d="M371.41,364.86l2.63-.11c.71,0,1.31-.29,1.29-1.1,0-1.59-.08-3.19-.23-4.77-.09-.86-.94-1.43-1.54-1-1.49,1.11-3.23.65-4.8,1.09-.5.14-1.07,0-1.26.81-.76,3.26.66,5.14,3.91,5.06" transform="translate(-112.76 -222.11)"/><path class="cls-1" d="M373.38,372.17c-.4,0-.8,0-1.2,0-3,.08-3.23.44-3,3.38.22,2.55,1.92,1.76,3.76,1.73a1.65,1.65,0,0,1,.53,0c1.84.1,2.88-.26,2.88-2.6s-1.29-2.52-3-2.47" transform="translate(-112.76 -222.11)"/><path class="cls-1" d="M364.12,373c-.8.08-1.59.2-2.38.3a1.09,1.09,0,0,0-1.1.72,3.43,3.43,0,0,0,3.18,4.16,6,6,0,0,0,2.33-.3c.5-.09,1.1.19,1.34-.62.75-2.58-.77-4.53-3.37-4.26" transform="translate(-112.76 -222.11)"/><path class="cls-1" d="M352.18,373.94c-.83.05-1.86.15-1.58,1.23.33,1.29-.35,3,1.35,3.82a38.74,38.74,0,0,0,7.47-.83,1.32,1.32,0,0,0,.12-.2c.82-1.73-1.11-4.42-3.08-4.26l-4.28.24" transform="translate(-112.76 -222.11)"/><path class="cls-1" d="M365,365c.39-.08.93-.09.93-.54a18.44,18.44,0,0,0-.29-5.22c-.44-1.44-2.14-.28-3.23-.7a6.72,6.72,0,0,1-1.42,0c-1.73-.39-2.23.16-2.05,2,.49,4.93,1.27,5.57,6.06,4.51" transform="translate(-112.76 -222.11)"/><path class="cls-1" d="M298.5,614.32c1.67,0,3.36-.17,5-.07a6.74,6.74,0,0,0,6.28-3.3,29.38,29.38,0,0,0,3.95-7.85c1.33-4.49,1.61-9.11,1.54-15.48-.6-5.12.34-12.24-4.53-18.2-1.27-1.56-2.46-2.72-4.36-2.89a24.89,24.89,0,0,0-6.45-.06c-4.42.78-9.42,3.36-9.44,9.64a13.65,13.65,0,0,1-.2,2.63c-2,9.63-1.5,19.23.25,28.82.61,3.32,4.5,6.67,7.93,6.76m-1.9-42.58a6.85,6.85,0,0,1,2.28-3,1.1,1.1,0,0,1,1.33-.15c.48.36.2.8.08,1.28-.3,1.14-2.21,1.87-1.23,3.22.74,1,2.27.38,3.42.67,3.73.93,4.36,2.65,1.94,5.73-.93,1.19-2.08,2.21-3.11,3.32-.31.33-.87.59-.67,1.16s.7.55,1.2.59c1.13.09,2.6-.49,3.2.94a4.89,4.89,0,0,1-.59,4.78,11.85,11.85,0,0,1-3.64,3.75,1.88,1.88,0,0,0-.82,2.09c.13.86.88.71,1.52.73,1.29.06,3-.7,3.67.86a6.74,6.74,0,0,1-.5,5.55,5.77,5.77,0,0,1-1.42,1.59c-2,1.8-1.93,2,.57,2.85.65.21,1.24.52,1.18,1.3s-.68.74-1.26.73c-.31,0-.63,0-.95,0-1.16.09-2.66.74-3.22-.65a4.35,4.35,0,0,1,.9-4.23c.73-.94,1.67-1.72,2.41-2.65a2.6,2.6,0,0,0,.67-2.66c-.46-1-1.48-.72-2.32-.55-1.32,0-2.77.21-3.37-1.25a3.88,3.88,0,0,1,.87-4c1.25-1.54,2.51-3.08,3.74-4.63.39-.49.92-1,.59-1.7s-1-.6-1.65-.5a2.55,2.55,0,0,1-2.74-1.53,2.73,2.73,0,0,1,.52-3.08,40.62,40.62,0,0,1,3.68-4.38c1.21-1.23.54-1.82-.73-2.06s-2.39-.18-3.57-.4c-2.37-.43-2.95-1.58-2-3.74" transform="translate(-112.76 -222.11)"/><path class="cls-1" d="M362.91,367.09c-.72.3-2.92-1.1-2.88,1.53,0,1.07-.16,3,1.84,2.57,1.61-.32,4.11.92,4.53-2,.36-2.43-1.3-2.44-3.49-2.12" transform="translate(-112.76 -222.11)"/><path class="cls-1" d="M451.27,421.63V422c-5,0-10.07-.11-15.11-.05-2.45,0-2.89.64-2.22,3a28.25,28.25,0,0,1,.88,4.45,134,134,0,0,1,.42,18.69c-.25,11.75-.87,23.48-2.11,35.18q-.79,7.62-1.67,15.24c-.09.82,0,1.64,1,1.42,4.58-1,9.38,1.34,13.87-.92a.74.74,0,0,1,.64.11c1.89,1.57,4,.49,6,.39a1.82,1.82,0,0,0,1.78-1.36q2.26-7.29,4.5-14.59c1.39-4.58,2.71-9.19,4.16-13.73s3.49-9.33,4.5-14.1c1.77-8.36,4.67-16.4,6.35-24.76.42-2.1,1.32-4.1,1.85-6.18.23-.87.89-2.39-.91-2.31-3.13.15-6.17-.43-9.25-.63-4.86-.32-9.75-.13-14.62-.15" transform="translate(-112.76 -222.11)"/><path class="cls-1" d="M439.83,517.93c1.18.15,2.14.21,2.34-1.44a56.89,56.89,0,0,1,2.47-10.41c1.25-3.91.77-4.34-3.27-4.36-.88,0-1.76,0-2.63,0-1.24-.08-1.71.5-1.69,1.7,0,2.07,0,4.14,0,6.21h.2c0,2.15,0,4.3,0,6.45s1.42,1.72,2.64,1.88" transform="translate(-112.76 -222.11)"/><path class="cls-1" d="M442.39,523.29c-.95,0-1.4-.62-1.37-1.59,0-.72.12-1.61-.84-1.72-3.25-.38-6.64-1-9.63.66-5.13,2.8-8.78,10.65-8,16.31.16,1.14.52,1.73,1.86,1.41,1.69-.4,3.77-.1,5.07-1s.34-3.32,1.13-4.92a5.59,5.59,0,0,0,.2-.94c1.35-5.28,5.44-7.13,9.58-5.27s5.27,5.52,5.59,9.54c.13,1.61.46,2.29,2.22,2.15,2.91-.25,1.82-2.45,2.14-3.74,0-.4,0-.56,0-.72a12,12,0,0,0-2.42-7.61,6.21,6.21,0,0,0-5.58-2.57" transform="translate(-112.76 -222.11)"/><path class="cls-1" d="M313.72,526.87a10.19,10.19,0,0,0-1.91.09,203.4,203.4,0,0,1-22.48,1.28c-2.79,0-5.59,0-8.38,0-1.34,0-2.1.18-1.19,1.72,2.89,4.9,6.83,8.41,12.63,9.16,4.1.54,8.35,1.23,12.27-.59,4.41-2,7.27-5.86,10-9.75.87-1.24.33-1.75-.93-1.86" transform="translate(-112.76 -222.11)"/><path class="cls-1" d="M152.63,514.56c.42,4.38.41,4.34,4.83,3.4,1.08-.22,1.36-.66,1.1-1.61a38.94,38.94,0,0,1-1.26-6.78c-.06-.66-.34-.93-1-1-3.18-.35-4.17.55-3.86,3.63,0,.39.09.79.13,1.18s.06.8.1,1.19" transform="translate(-112.76 -222.11)"/><path class="cls-1" d="M396,375.16c1.44,6.33-.38,12.55-.36,18.82,0,1.39.22,1.92,1.57,1.95a62.51,62.51,0,0,1,13.17,1.74,30.93,30.93,0,0,1,14.06,7.62c3.08,2.92,6.28,6.16,7.22,10.72.27,1.3,1.19,1.7,2.51,1.65,5.58-.23,11.14-.94,16.74-.68,1.91,0,3.83.09,5.74,0,4-.16,3.95-.19,2.6-4-.11-.3-.25-.6-.33-.9-3-11.52-10-20.52-18.7-28.13-7.47-6.51-15.78-11.71-25.54-14.45a52.86,52.86,0,0,0-17.46-2.18c-1.1.06-2,.24-1.71,1.62.43,2,0,4.21.49,6.18" transform="translate(-112.76 -222.11)"/><path class="cls-1" d="M155.73,520.71c-5.59.4-8.74,4.51-11.45,8.71-2.26,3.49-2.12,7.47-1.27,11.55.76,3.68.84,4,4.37,3.19,4.38-1,4.59-1.32,3.21-5.39-.93-2.75-.05-7.23,1.83-8.45,5-3.24,13.64-2.43,14.44,6.07.15,1.65.75,2.25,2.36,2.19s2.19-1,2.13-2.53c0-1-.09-1.91-.15-2.87A8,8,0,0,0,168,525c-3.59-2.88-7.66-4.57-12.26-4.24" transform="translate(-112.76 -222.11)"/><path class="cls-1" d="M292.59,316c-2.93-.3-5.08,1.17-6.84,3.23a4.33,4.33,0,0,0,2.11,6.93c3.31,1.05,7.8-1.6,8.53-5,.56-2.67-1.4-5.33-3.8-5.13" transform="translate(-112.76 -222.11)"/><path class="cls-2" d="M116.66,445.08c2.38,5.9,4.76,11.79,6.93,17.77,3,8.29,6,16.6,9.1,24.84,2.73,7.22,5.48,14.44,7.71,21.83.41,1.34,1.15,1.77,2.63,1.78s3.71-.84,4.79,1.08a8.1,8.1,0,0,1,.62,4.7c-.1,1.23-1.56,1.17-2.4,1.7a7,7,0,0,0-1.48,1.22c-3.43,3.83-7.06,7.39-7.56,13.12-.37,4.28-.83,8.5.64,12.53,1.16,3.17,1.27,4.22,5.5,3.72a18,18,0,0,0,6.08-1.72,29.17,29.17,0,0,1,6-2.36,2,2,0,0,0,1.23-3.19,13.47,13.47,0,0,1-1.71-4.2c-.75-3.55.89-5.4,4.41-5.09,2.69.24,3.46,1.44,3.32,5.18-.12,3.4,1.2,4.72,4.57,4.6,2.55-.09,5.11-.19,7.66-.25,1.17,0,1.66-.41,1.64-1.74,0-3.2-.88-6.3-.89-9.52,0-7.42-4-12.28-11.19-14a2.16,2.16,0,0,1-2-2c-1-4.91-1-4.9,3.89-5.1,2.42-.11,4-1.47,3.7-3.65a135.1,135.1,0,0,1-.92-20.3c.25-7.69-.83-15.32-.91-23-.09-7.51-.06-15-.88-22.53-.35-3.16-1.1-6.29-.77-9.52a34,34,0,0,1,4.69-13.43,34.46,34.46,0,0,1,12.52-12.43c1.77-1.06,3.54-2.14,5.4-3,1.49-.71,2.74-.18,3,1.52.5,2.86,2,5.37,2.62,8.18.93,4.35,2.27,8.63,3.6,12.83,2.48,7.82,4.53,15.77,7.06,23.57a97.16,97.16,0,0,1,2.94,9.35c1.51,7,4.28,13.52,6.25,20.34a88.86,88.86,0,0,0,9.23,21,38.52,38.52,0,0,0,7.5,9.47c5.74,5,12.29,8.52,20.17,8.69,1.75,0,2.19.85,2.48,2.48.57,3.25.54,6.71,2.69,9.55.56.74,1,1.4,2.05,1.34,5.28-.32,10.53.65,15.8.19,1.25-.11,1.8.57,2.44,1.51,1.45,2.17,2.28,4.8,4.51,6.39,3.85,2.74,7.85,5.27,12.69,5.71,2.68.24,2.33,2,2.11,3.6s-.84,3.28-3.22,2.86a25.45,25.45,0,0,0-7.13-.45c-3.94.41-7.83,1.27-10.18,4.75-1.79,2.65-2.32,6-2.64,9.1-.8,7.56-.4,15.2-.3,22.81.08,5.68,2.25,7.15,8.2,7.67,3.28.29,3.34,0,3.67,3.41.07.71,0,1.44.11,2.15.54,4.91.76,9.87,3.41,14.3a5.93,5.93,0,0,0,3.81,3c4.83,1.31,9.71.56,14.56.37,5.69-.23,8.14-2.33,9.65-7.71a9.62,9.62,0,0,1,.47-1.61A38.83,38.83,0,0,0,320,592.91c.06-1.51.15-2.25,2-2.27,2.22,0,1.94-2.17,2.21-3.67a1.67,1.67,0,0,0-1.89-2c-2.83.42-2.67-1.37-2.76-3.18-.17-3.5-.38-7-1.95-10.25-2.36-4.88-5.52-9-11.39-9.37A35.23,35.23,0,0,0,293.74,564c-5.26,1.6-7.15,5-7.68,10-.55,5.09-1.24,10.16-1.81,15.24-.11,1-.21,1.51-1.43,1.73-3,.53-4.09-.05-4.41-3.52-.89-9.57-1.35-19.16.59-28.69.23-1.16.41-2.58,1.7-3,3.17-1,6.25-2.13,9.79-1.53,6.86,1.17,10.25-.15,10.2-7.79,0-1.71.91-2,2.12-2.26a19.5,19.5,0,0,0,12.7-9c2.39-3.75,4.28-8.05,10-6.92.14,0,.3-.09.46-.11,3.95-.51,7.9-1.16,11.87-1.45,2.26-.16,3-.52,2.45-2.7-.66-2.55-.34-5.09-.37-7.64,0-1.4.52-2,2.06-2.32,4-.77,8.06-1.13,11.78-2.84a31.12,31.12,0,0,0,12.58-10,90.81,90.81,0,0,0,7.16-12.05c2.29-4.43,3.11-9.34,4.72-14,2.76-8,4.36-16.29,6.41-24.47.83-3.33,2.1-6.58,2.37-10s1.33-6.73,2-10.09c1.39-6.8,3.24-13.52,3.64-20.52a25,25,0,0,1,2.23-9.38,2,2,0,0,1,2.22-1.38c1,.11,2.07.16,3.11.23,4,.3,7.5,2.11,11.24,3.1,5.23,1.38,8.86,4.6,12,8.46,5.19,6.4,6.92,14.08,7,22.18,0,6.4-.05,12.8-.08,19.2h-.18c0,2.64-.05,5.28,0,7.92a238.27,238.27,0,0,1-3.84,40.77c-.37,2.2.32,3,2.64,3,2.7-.05,3.36.51,3.63,3.24.18,1.67.2,3.35.35,5,.13,1.45-.48,2.19-1.72,3-2.19,1.5-5,2.31-6.41,4.76a8.39,8.39,0,0,1-2.73,2.94,6.17,6.17,0,0,0-2.65,4.1,44.89,44.89,0,0,0-1.28,11.84c.11,3.18,1.08,4.13,4.23,3.67,3.31-.48,6.5-1.7,9.92-1.43,2.27.19,2.9-.56,2.88-2.91s.11-4.47.12-6.71a2.05,2.05,0,0,1,1.68-2.05,2.38,2.38,0,0,1,2.5.21c1.64,1.45,2.34,7.23,1.06,9.1-.51.76-1.58,1.31-.6,2.41a2.22,2.22,0,0,0,2.85.54c2.22-1.28,4.35-1,6.67-.27s4.22-.68,4.9-3.2a20.67,20.67,0,0,0,.68-6.59c-.24-4.64-2.41-9.72-6.94-11a1.79,1.79,0,0,1-1.44-2.14c.31-3.1.88-6.17,1.28-9.24.68-5.21,3.28-7.41,8.32-7.18,1.45.07,2-.77,2.48-2.05,2.64-6.7,4.27-13.69,6.29-20.57,2.62-8.95,5.49-17.83,8.13-26.78.83-2.82.84-5.84,1.83-8.65a184,184,0,0,0,6.13-22.9c.16-.76.66-1.5-.34-2.09-1.75-1-3.41-2-5.66-1.75a38.49,38.49,0,0,1-6.92-.44c-2.84-.27-4.7-1.61-4.82-4.42-.13-3.19-1.76-5.77-2.84-8.5a41.38,41.38,0,0,0-3.39-7,89.57,89.57,0,0,0-9.41-12.25,59.64,59.64,0,0,0-13.25-11.32c-6-3.58-12-7.22-19.16-8.81-5.76-1.29-11.34-2.5-17.23-1.5-.83.14-2.13.45-2.41-.43-.55-1.73-2.12-2.1-3.28-2.91-4.52-3.14-9.2-5.77-15-6-4.3-.18-8.57-.27-12.87-.29-8.95,0-17.89-.81-26.83-1.25-14.37-.69-28.75-1.29-43.11-.84-12,.36-24,.8-35.93,1.5-12.78.76-25.48,2-38.2,3.37-6.82.71-13.61,2-20.51,1.94a14.67,14.67,0,0,0-14.14,9.33,2.1,2.1,0,0,1-1.63,1.49c-8.88,2-16.49,6.77-23.48,12.23A86.24,86.24,0,0,0,147,394.19c-3,3.67-6.45,7.17-8.46,11.43-3.88,8.21-6.69,16.78-5.09,26.13.17,1-.19,1.45-1.25,1.53-5.09.4-10.15,1.36-15.3.91a4.22,4.22,0,0,0-2.56.45c-1.43.82-2.22,1.74-.93,3.41,1.62,2.08,2.28,4.61,3.25,7M290.32,578.74a13.65,13.65,0,0,0,.2-2.63c0-6.28,5-8.86,9.44-9.64a24.89,24.89,0,0,1,6.45.06c1.9.17,3.09,1.33,4.36,2.89,4.87,6,3.93,13.08,4.53,18.2.07,6.37-.21,11-1.54,15.48a29.59,29.59,0,0,1-3.95,7.86,6.75,6.75,0,0,1-6.28,3.29c-1.67-.1-3.36.11-5,.07-3.43-.09-7.32-3.44-7.93-6.76-1.75-9.59-2.21-19.19-.25-28.82M448,525.86a11.92,11.92,0,0,1,2.41,7.61c0,.16,0,.32,0,.72-.32,1.29.77,3.49-2.14,3.74-1.76.14-2.09-.54-2.21-2.15-.33-4-1.37-7.64-5.6-9.54s-8.23,0-9.58,5.27a5.59,5.59,0,0,1-.2.94c-.79,1.6.29,4-1.13,4.92s-3.38.59-5.07,1c-1.34.32-1.7-.27-1.86-1.41-.82-5.66,2.83-13.51,8-16.31,3-1.63,6.38-1,9.63-.66,1,.11.87,1,.84,1.72,0,1,.42,1.63,1.37,1.59a6.21,6.21,0,0,1,5.58,2.57M437.23,509.6H437c0-2.07.05-4.14,0-6.21,0-1.2.45-1.78,1.69-1.7.87.05,1.75,0,2.63,0,4,0,4.52.45,3.28,4.36a55.83,55.83,0,0,0-2.48,10.42c-.2,1.64-1.16,1.58-2.34,1.43s-2.7.13-2.64-1.88,0-4.3,0-6.45m28.66-87.82c3.08.2,6.12.78,9.25.63,1.8-.08,1.14,1.44.91,2.31-.53,2.08-1.43,4.08-1.85,6.18-1.68,8.36-4.58,16.4-6.35,24.76-1,4.77-3,9.41-4.5,14.1s-2.77,9.15-4.16,13.73c-1.48,4.87-3,9.73-4.49,14.59a1.84,1.84,0,0,1-1.79,1.36c-2,.1-4.07,1.18-6-.39a.74.74,0,0,0-.64-.11c-4.49,2.26-9.29-.11-13.87.92-1,.22-1.07-.6-1-1.42q.86-7.62,1.66-15.24c1.23-11.7,1.86-23.43,2.11-35.18a134,134,0,0,0-.42-18.69,28.25,28.25,0,0,0-.88-4.45c-.67-2.32-.23-2.93,2.22-3,5-.06,10.07,0,15.11.05v-.34c4.87,0,9.76-.17,14.62.15m-68.65-54.42a52.86,52.86,0,0,1,17.46,2.18c9.76,2.74,18.07,7.94,25.54,14.45,8.73,7.6,15.68,16.61,18.7,28.13.08.3.22.6.33.9,1.35,3.78,1.36,3.81-2.6,4-1.91.08-3.83,0-5.74,0-5.6-.26-11.16.45-16.74.68-1.32,0-2.24-.35-2.51-1.65-.94-4.56-4.14-7.8-7.22-10.72a30.93,30.93,0,0,0-14.06-7.62,62.51,62.51,0,0,0-13.17-1.74c-1.35,0-1.56-.56-1.57-1.95,0-6.27,1.8-12.49.36-18.82-.45-2-.06-4.13-.49-6.18-.28-1.38.61-1.56,1.71-1.62M168,525a8,8,0,0,1,3.21,8.23c.06,1,.12,1.91.15,2.87.06,1.49-.42,2.45-2.13,2.53s-2.21-.54-2.36-2.19c-.8-8.5-9.45-9.31-14.44-6.07-1.88,1.22-2.76,5.7-1.83,8.45,1.38,4.07,1.17,4.42-3.2,5.39-3.54.79-3.62.49-4.38-3.19-.85-4.08-1-8.06,1.27-11.55,2.71-4.2,5.86-8.31,11.45-8.71,4.6-.33,8.67,1.36,12.26,4.24m-11.73-16.39c.7.08,1,.35,1,1a38.94,38.94,0,0,0,1.26,6.78c.26.95,0,1.39-1.1,1.61-4.42.94-4.41,1-4.83-3.4,0-.39-.07-.79-.1-1.19s-.09-.79-.13-1.18c-.31-3.08.68-4,3.86-3.63m158.39,20.17c-2.72,3.89-5.58,7.71-10,9.75-3.92,1.82-8.17,1.13-12.27.59-5.8-.75-9.74-4.26-12.63-9.16-.91-1.54-.16-1.74,1.19-1.72,2.79,0,5.59,0,8.38,0A203.4,203.4,0,0,0,311.81,527a10.19,10.19,0,0,1,1.91-.09c1.26.11,1.8.62.93,1.86m18.44-6.29c-4.21.17-8.42.55-12.62,1-1.69.18-3.65-.29-4.91,1.63-.3.46-1.49.39-2.27.46a240.7,240.7,0,0,1-31.54.84c-6.81-.27-13.65,0-20.44-.86-1.3-.16-1.93-.6-2.08-2a27.53,27.53,0,0,0-1.14-4.39c-.39-1.45.06-2,1.64-2,4.15,0,8.26.69,12.4.92,8.33.46,16.62-.1,24.92-.38,4.39-.15,8.79-.15,13.19-.28,5.1-.15,10.22-.22,15.31-.64,2.42-.2,4.78-1.14,7.23-1.48,3.71-.52,3.71-.58,3.61,3.58.67,2.38-.5,3.49-3.3,3.61m43.29-147.8c0,2.34-1,2.7-2.88,2.6a1.65,1.65,0,0,0-.53,0c-1.84,0-3.54.82-3.76-1.73-.26-2.94-.06-3.3,3-3.38.4,0,.8,0,1.2,0,1.71-.05,3,0,3,2.47m-.59-5.37c.09.73-.47.93-1.09.94l-3,0c-1.05-.31-3.43,1.26-3.49-1.86a2.8,2.8,0,0,1,0-.71c.2-.73,4.63-1.59,6.21-1.25s1.22,1.81,1.36,2.9m-8.28-9.47c.18-.8.75-.67,1.25-.81,1.57-.44,3.31,0,4.8-1.09.6-.45,1.45.12,1.54,1,.15,1.58.2,3.18.23,4.77,0,.81-.58,1.07-1.29,1.1l-2.63.11c-3.25.08-4.67-1.8-3.9-5.06m0,17.44c-.24.81-.84.53-1.34.62a6,6,0,0,1-2.33.3,3.43,3.43,0,0,1-3.18-4.16,1.09,1.09,0,0,1,1.1-.72c.79-.1,1.58-.22,2.38-.3,2.6-.27,4.12,1.68,3.37,4.26m-1.09-8c-.42,2.9-2.92,1.66-4.53,2-2,.4-1.82-1.5-1.84-2.57,0-2.63,2.16-1.23,2.88-1.53,2.19-.32,3.85-.31,3.49,2.12M361,358.49a6.72,6.72,0,0,0,1.42,0c1.09.42,2.79-.74,3.23.7a18.44,18.44,0,0,1,.29,5.22c0,.46-.54.46-.93.54-4.79,1.06-5.57.42-6.06-4.5-.18-1.81.32-2.36,2.05-2M359.54,378a1.32,1.32,0,0,1-.12.2A38.74,38.74,0,0,1,352,379c-1.7-.81-1-2.53-1.35-3.82-.28-1.08.75-1.18,1.58-1.23l4.28-.24c2-.16,3.9,2.53,3.08,4.26m-1.33-7c-.22,1.08-1.28.72-2,.83-.94.15-1.91.14-2.86.26-2,.24-3.18-.17-3.19-2.57s1.73-1.71,3-1.86a12.21,12.21,0,0,1,1.5,0c.83.2,2.22-.73,3.1.35a3.65,3.65,0,0,1,.46,3m-8.65-12.13c0-.47-.05-1.16.46-1.24a17.12,17.12,0,0,1,5.93.34c1.42.28,1,1.84,1.13,2.87.56,4.69.53,4.69-4.1,4.84-3.21.1-3.21.1-3.31-3.22,0-.47,0-.95,0-1.43h-.12c0-.72,0-1.44,0-2.16m-3.22,20.41c-2.22.46-3.18-.21-3.24-2.66-.07-3.3,2.3-1.75,3.64-2.08,2.55-.63,2.3,1.34,2.47,2.9.29,2.63-1.77,1.51-2.87,1.84m.28-6.69a5.84,5.84,0,0,0-1.67,0c-2.51.6-2.22-1.34-2.45-2.72-.3-1.83,1.07-1.58,2.16-1.63.32,0,.64,0,1.21-.08,1.27-.18,2.58-.2,2.94,1.86s-.23,2.75-2.19,2.58m-.26-15.28a1.67,1.67,0,0,1,1.37,1.68c.16,1.34.3,2.68.44,4-.26,1.17,1.05,2.8-1.44,3.06-4.25.44-4.41.49-5-2.21-.16-.7-.3-1.4-.41-2.1-.71-4.44.55-5.5,5.07-4.39m-135.77,4.31c5.54-.77,11.14-.85,16.69-1.45,15.8-1.71,31.68-2.42,47.56-2.86,2.32-.07,3.6.22,3.91,3s.57,5.55.68,7.6c0,3.92.27,7.1-1.79,9.95-2.47,3.42-5.87,4.09-9.24,1.56-3-2.28-9.12-2.52-12.19-.05s-6,2.38-9.29.23c-2.88-1.9-6.26-1.19-9.33-.69a8.66,8.66,0,0,1-8.67-2.9,17.28,17.28,0,0,0-10.59-5.56c-4.39-.5-6.91-3.24-8.94-6.77-.83-1.44-.35-1.87,1.2-2.08m-13.88,2.08c2.85-.7,5.81-.93,8.72-1.42,1-.17,1.7,0,2.1,1a19.25,19.25,0,0,1,1,1.93c1.16,4.54,4.87,5.92,8.72,7.15s7.9,2.33,10.65,5.81a7,7,0,0,0,6.79,2.62c2.06-.27,4.16-.1,6.24-.21a10.17,10.17,0,0,1,7.15,1.93c2.86,2.2,5,2.07,7.71-.6,3-3,9.3-2.48,12.49-.27,3.89,2.69,9.39.58,11.45-3.66,2.69-5.55,1.58-11,.9-16.61-.09-.72-.21-1.43-.3-2.14-.17-1.5.37-2.2,2-2.09a101.57,101.57,0,0,0,12.46,0c7.35-.32,14.7-.64,22-.88a133.69,133.69,0,0,1,20.57.9,1.64,1.64,0,0,1,1.68,1.63c.22,2,.45,4,.77,5.94.2,1.3-.3,1.62-1.55,1.69-4.69.24-9.33,1.4-14.08.76-.61-.08-1.2,0-1.23.77,0,.94.75,1.28,1.44,1.29q3.36.06,6.71-.13t6.92-.69c1.92-.27,2.29.7,2.39,2.33s-.13,2.39-2,2.42A94.28,94.28,0,0,0,324,374.59c-.65.12-1.74-.06-1.64.92s1.1.78,1.77.59c4.85-1.36,9.88-.5,14.78-1.2,2.35-.34,1.62,1.61,1.95,2.74.45,1.48,0,2.27-1.66,2.4-3.74.28-7.48.62-11.21,1-1.08.11-2.29-.09-3.11.87A.83.83,0,0,0,325,383c1.14,1.17,2.21,0,3.32-.17,3.88-.45,7.77-.94,11.65-1.39,1.06-.13,1.62.33,1.68,1.48.1,2,.35,4,.46,6,.06.93.08,1.95,1.24,1.95s.82-1.17.8-1.85c-.05-2.08-.13-4.17-.37-6.23-.14-1.26.18-1.84,1.48-1.74a3.85,3.85,0,0,0,1,0c2.53-.52,3.54.45,3.52,3.07a33,33,0,0,0,.83,5.44c.11.72.16,1.56,1.18,1.44s1.18-.91,1-1.81c-.39-1.88-.74-3.76-1.16-5.63-.36-1.67-.26-2.77,2-2.63a29.61,29.61,0,0,0,4.76-.41c1.53-.16,2.21.5,2.23,2s.19,3.35.32,5c.05.65.17,1.37,1,1.36s1.23-.75,1.16-1.5a49.59,49.59,0,0,0-.73-5.47c-.26-1.23,0-1.67,1.28-1.88,3.94-.65,4.23-.48,4.57,3.52q.34,4.07.66,8.13c.06.88.2,1.68,1.33,1.54s.87-1,.81-1.69c-.3-3.43-.51-6.86-1-10.27-.19-1.43.18-1.81,1.53-1.95,4.81-.47,4.81-.51,4.87,4.38a44,44,0,0,0,.85,8.33c.19.93.42,1.9,1.63,1.47s.79-1.32.49-2.21c-1.18-3.54-1-7.28-1.45-10.92-.17-1.23.58-1.54,1.58-1.56,1.35,0,2.71,0,4.07,0,.79,0,1.53-.14,1.53-1.09s-.69-1.25-1.46-1.29a12.77,12.77,0,0,0-3.33.06c-1.71.39-2.45,0-2.65-1.86-.21-2.05.56-2.55,2.4-2.42a30.84,30.84,0,0,0,3.84-.11c.7,0,1.29-.37,1.29-1.15,0-1-.83-.79-1.42-.79a31.09,31.09,0,0,0-4.32.11c-2.24.33-2.26-1.18-2.37-2.62-.13-1.91,1.2-1.7,2.44-1.61,1.92.13,3.83.21,5.74.32.67,0,1.39.05,1.42-.84s-.73-.83-1.23-.86c-2.24-.11-4.47-.2-6.71-.2-2.91,0-1.82-2.2-2.08-3.65-.31-1.76.75-1.9,2.15-1.86,4.22.12,8.5.64,10.18,5.13,1.35,3.61,1.6,7.61,2.08,11.5,1.39,11.21-1.73,21.87-3.28,32.75s-4.57,21.54-6.14,32.45a88,88,0,0,1-3.83,14.83c-1.12,3.37-1.49,6.87-2.5,10.23-1.33,4.4-2.78,8.77-4.28,13.12a5.58,5.58,0,0,0-.59,3c.47,2.15-.61,3.89-1.37,5.68a52.17,52.17,0,0,1-9.44,14.21,21.64,21.64,0,0,1-12.47,7c-6.88,1.22-13.85,1.74-20.75,3-6.62,1.21-13.53.83-20.31,1.13-8.78.4-17.55.94-26.33,1.12-5.67.11-11.34-.31-17-.51a96.74,96.74,0,0,1-14.2-1.5,27.75,27.75,0,0,1-16.66-9.92c-3.86-4.66-6.42-10.12-8.93-15.64-3.75-8.25-6-17-8.75-25.55s-5.35-17.16-7.79-25.82c-2.09-7.43-4-14.94-6.52-22.27-1.51-4.42-1.88-9.23-3.43-13.63-2.81-8-3.81-16.31-5.89-24.41-1.7-6.65,2-10.23,6.11-11.24M140.59,412.7a52.18,52.18,0,0,1,10.1-15.39A103.42,103.42,0,0,1,179,375.78a20.47,20.47,0,0,1,5-1.66c1.35-.35,2.13.21,2.34,1.62a187.56,187.56,0,0,0,3.88,20.64c.27,1-.1,1.45-1,1.77a43.38,43.38,0,0,0-14,8.3c-7.67,6.41-11.74,14.56-13.29,24.18-.27,1.65-1.12,1.61-2.31,1.59-2.87-.06-5.75-.05-8.63-.06-3.82-.19-7.67-.59-11.46.21-1.14.24-1.61-.19-1.63-1.35-.12-6.26.25-12.35,2.7-18.32m-20.72,25.49c4,0,8-1.35,12.11-.51,3.56.73,7.12-.56,10.68-.89,5.92-.56,11.8-.27,17.7-.2,1.35,0,1.54.83,1.74,1.82a68.66,68.66,0,0,1,1.17,12.38c.08,4.07,0,8.14,0,12.22h.39c.32,6.07.86,12.13.88,18.19,0,7.68.42,15.34.57,23,0,1.14-.31,1.55-1.45,1.6-5.58.28-11.11,1.21-16.72,1.36-2,0-3-.83-3.34-2.35-1-4.38-2.94-8.4-4.37-12.61-2.53-7.47-5.51-14.78-8.12-22.21a231.77,231.77,0,0,0-8.44-21.76c-1.31-2.79-2.15-5.81-3.68-8.53-.56-1-.2-1.52.92-1.51" transform="translate(-112.76 -222.11)"/><path class="cls-2" d="M180.51,319.1a2,2,0,0,1,1.66,2.2c0,2.71.21,5.43.31,8.15,0,.82.21,1.46,1.21,1.34s1-.85.85-1.6a30.35,30.35,0,0,1-.65-6.92c0-.87-.67-2.5,1.18-2.08,1.46.33,4.14-1.43,4.17,1.87,0,2.18.4,4.3.6,6.45.07.84-.06,2.11,1.14,2s1.13-1.26,1-2.31c-.34-2.12-.55-4.27-.83-6.41-.08-.63-.34-1.22.63-1.48,3-.81,5,.31,5.85,3.39a12,12,0,0,1,.46,2.59c.23,4.9,1.42,9.65,2.31,14.44a4.69,4.69,0,0,0,5.27,3.93,171.68,171.68,0,0,1,19.9-.5c17.27.19,34.55.3,51.8,1.05,12.81.56,25.59.2,38.35-.33,11.26-.46,22.53-.79,33.79-1.1,7.27-.19,14.55,0,21.83-.06,1.58,0,3.66.2,4.35-1.33.85-1.89,1.9-3.89,1.59-6.18-.72-5.33-.47-10.71-.59-16.06-.11-4.91,0-4.91,4.62-5.95a6.08,6.08,0,0,0,.94-.21c2.15-.87,2.51.31,2.42,2.07q-.17,3.12-.24,6.24c0,.69-.21,1.65.81,1.7s1.18-.92,1.2-1.72c.05-1.52-.07-3,0-4.56.25-4.48.29-4.41,4.7-5.2,1.75-.32,2.43.33,2.45,1.93,0,1.84,0,3.68-.13,5.51-.06.89.17,1.4,1.1,1.45s1.24-.52,1.23-1.37c0-1.2.07-2.4,0-3.6-.18-4.22-.21-4.3,4-5.14,5.88-1.18,11.06-6.54,9.68-13.55a6.69,6.69,0,0,0-2.07-3.63c-3.1-3-7.15-4-11.12-5.06-1.52-.4-2-1-1.83-2.41.16-1.6.14-3.2.19-4.8,0-.73.08-1.73-.79-1.77-1.08,0-.65,1-.67,1.66a33,33,0,0,0,0,4.56c.21,2-.58,2.4-2.43,2.36-5.28-.12-5.25-.05-5.22-5.25,0-1,.66-2.85-.72-2.87-1.6,0-.94,1.89-1,2.94-.1,4.66-.05,4.58-4.8,4.81-1.76.08-2.15-.46-2.16-2.12-.07-7.12,0-14.25-.88-21.34a11.37,11.37,0,0,0-1.72-4.92,2.37,2.37,0,0,0-2.41-1.18c-8.54.7-17.09-.24-24.85.23-8.6-.59-16.43-.8-24.26-.62-1.81,0-2.95-.14-2.67-2.43a24.06,24.06,0,0,0-.17-4.79,2.81,2.81,0,0,0-2.88-2.87,82.14,82.14,0,0,1-11-2c-1.16-.25-1.36-.86-1.35-1.86a80.66,80.66,0,0,0-.12-9.59c-.34-2.88,0-5.89-2.25-8.51s-5.05-3.31-7.95-3.68a46.05,46.05,0,0,0-11-.24c-3.93.47-8.22.37-11.09,4.19-1.85,2.46-3.22,4.89-2.83,8.09.44,3.61-.53,7.17-.57,10.76a2.59,2.59,0,0,1-2.64,2.82c-3.13.11-6.06,1.37-9.2,1.36-2.43,0-3.25.73-3,3.19.17,2-.56,3.77-.6,5.69,0,1-.71,1.36-1.63,1.34-7.92-.2-15.81.44-23.72.79a198.8,198.8,0,0,0-30.39,3.71,3,3,0,0,0-2.68,3.53c.51,7.19.35,14.4.38,21.6,0,3.42,0,3.32-3.38,4-1.63.34-2.21-.15-2.35-1.7a21.76,21.76,0,0,0-.61-3.28.84.84,0,0,0-1.05-.73c-.5.15-.34.65-.33,1a29,29,0,0,0,.14,3.36c.19,1.59-.19,2.51-2,2.31a3.45,3.45,0,0,0-1.4.24c-1.47.5-2.11,0-2.09-1.56a23.71,23.71,0,0,0-.87-6.64c-.24-.85-.49-1.67-1.54-1.32s-.69,1.16-.43,1.85c.79,2.14.69,4.42,1.1,6.61.23,1.22,0,1.79-1.32,2.26-2.22.8-4.54,1.68-6.13,3.49-2.61,3-3.17,12.91.68,16.39a16.68,16.68,0,0,0,6.74,3.37m214.07-24.93c1.26-.73,2.93-.4,4.38.11.83.28,1.61.72,2.45,1a3.73,3.73,0,0,1,2.93,3.56,7.25,7.25,0,0,1-8.62,8.09c-.85-.17-.87-.79-.92-1.44q-.26-3.22-.49-6.44h.09a15.68,15.68,0,0,1,0-1.68c.12-1.08-.8-2.58.17-3.14m-7.1-.84a3.19,3.19,0,0,1,.93.25c1.44.76,3.7-.83,4.48,1.07.57,1.36.12,3.15.12,4.75v1.19h0c0,.72,0,1.44,0,2.16,0,5,0,5-5,5.52-1.41.14-2.2-.29-2.17-1.74.06-3.9.43-7.8-.14-11.69-.18-1.28.52-1.74,1.73-1.51m-11.41-.26c2.07.47,4.14.13,6.2.25,1.54.1,2.07.66,1.91,2.26-.19,1.89-.06,3.81-.07,5.72h0c0,2.07-.11,4.15,0,6.21.05,1-.4,1.28-1.17,1.44-2.14.43-4.46-.55-6.51.9-.49.34-.68-.45-.71-.91-.3-4.78-.61-9.55-.87-14.33,0-.78,0-1.82,1.2-1.54m-102-60.7c.23-2.93,1.55-4.21,5.93-4.73a67.8,67.8,0,0,1,15.79.09c3.8.44,3.85.83,4.49,4.82a79.41,79.41,0,0,1,.83,14.78c0,1.39-.48,1.77-1.8,1.75-5.67-.08-11.35-.08-17-.1v.62c-2.32,0-4.64-.08-7,0-1.4,0-2-.38-2-1.89-.09-5.13.32-10.22.74-15.32m-14.2,21.7c5.23-1.25,10.52-2.21,13.62-2.84,11.23-.35,20.24-.57,29.24-.93,3.11-.13,5.92,1.18,8.92,1.48a8.08,8.08,0,0,1,.9.32c1,.24,2.54-.4,2.95,1a16.34,16.34,0,0,1,.3,4.27c0,.89-.68.93-1.37.88-12.22-1-24.41.29-36.61.43-5.68.07-11.33.43-17,.76-1.05.06-2.35.24-2.4-1.23s-.63-3.61,1.44-4.11m-58.75,14.31c15.68-2.47,31.47-3,47.32-2.94,11.5,0,23-1.18,34.45-1.67,9.66-.42,19.34-.78,29-.65,4.61.05,9.32.46,13.84,0A105,105,0,0,1,341,263c9.19.45,18.38.34,27.57.53,1.75,0,3,.2,3.13,2.54.66,14,1.44,28,2.22,41.93a4.65,4.65,0,0,1-1.07,3.53,5.7,5.7,0,0,0-1,4c.15,6.8.9,13.55,1.35,20.32.15,2.17-.78,2.89-2.64,2.95-2.71.1-5.43.12-8.14.2-14.46.38-28.93.74-43.38,1.16-10.47.3-20.93,1-31.38.95-13.9-.07-27.79-.7-41.69-1.09a390.86,390.86,0,0,0-39.33.32,2,2,0,0,1-2.4-1.73,8.32,8.32,0,0,1-.2-.94c-.59-10.82-3.78-21.35-3.49-32.26.06-2.48-.46-5-.5-7.41-.07-4.91-.63-9.79-.34-14.73.25-4.38.09-8.8-.1-13.19-.06-1.39.39-1.52,1.51-1.7m-10.63,32.11c0-1.48.62-2.08,2.12-2.25,5.5-.62,5.52-.68,5.94,4.85.25,3.19.41,6.39.58,9.58,0,.55.15,1.44-.12,1.6-2.23,1.33-4.8.76-7.2.86-1.56.07-1.24-1.77-1.27-2.9-.06-1.84-.19-3.68-.08-5.51,0-2.08.05-4.16,0-6.23m-6.63-1.06c1,0,1.92,0,2.87-.14,1.42-.14,2.12.39,2,1.89-.11,1.19.23,2.4.19,3.59,0,2.79-.05,5.59,0,8.38,0,1.18.1,2.42-1.62,2.2s-3.93.38-4.18-2c-.41-4.13-.42-8.3-.63-12.44-.05-1.05.41-1.45,1.41-1.45m-4.53,1.39c1.25-.42,1.61.12,1.61,1.23,0,1.91,0,3.82,0,5.73h.13c.09,1.75.18,3.5.26,5.26,0,1.07-.4,1.37-1.48,1.11-2.26-.54-4.84-3.87-4.92-6.52a6.66,6.66,0,0,1,4.42-6.81" transform="translate(-112.76 -222.11)"/><path class="cls-2" d="M225.82,441.7c2.34,1.63,4.54.27,6.63-.14,2.29-.45,2.74.06,2.85,2.22.27,5.17-.4,10.38.72,15.52.26,1.2-.58,1.59-1.75,1.67-2.71.19-5.41.51-8.11.78-1,.1-1.43.43-1.31,1.68.37,3.73.52,7.49.7,11.23.11,2.31.78,3,3.1,2.82,1.75-.15,3.48-.5,5.22-.71,2.84-.35,3.11-.11,3.38,2.77a81.57,81.57,0,0,1-.05,15.07c-.08.84,0,1.59.87,1.66,1.29.12,2.43.71,3.92.38a57.73,57.73,0,0,1,10.69-1.17c8.46-.27,16.91-.66,25.36-1.1,7-.36,14-.87,21-1.3a5.76,5.76,0,0,1,1.66.12c3.66.93,3.66.94,3.24-3.08,0-.24,0-.48,0-.72q.07-15,.15-29.95c.45-2,.1-4,.23-6,1-16.17-.34-32.31-.59-48.47,0-2.6-.7-3-3.28-2.83-10,.77-19.92,1.46-29.87,2.32-5.74.49-11.5-.07-17.25.66-6,.76-12.08,1.23-18.14,1.5-1.7.07-1.77.37-1.66,1.81.45,5.42,1.37,10.79,1.39,16.25,0,1.82-.61,2.41-2.33,2.44a47.81,47.81,0,0,0-7.64.62c-1.11.2-1.49.56-1.54,1.86-.13,3.46,1,6.78.9,10.24,0,.83.67,1.32,1.48,1.88m3.93,33.81c-1.65.29-2.14-.31-2.22-1.84-.16-2.79-.3-5.59-.72-8.34-.27-1.79.48-2.19,2-2.51,4-.88,8.11-.61,12.17-.74,2.63,0,5.27.1,7.9,0,1.55-.05,2.35.26,2.26,2.08-.14,2.55,0,5.11,0,7.67,0,1,0,1.37-1.42,1.69-6.6,1.47-13.37.79-20,2m72.83-26.6h-.21c0,6-.12,12-.05,18,0,1.72-.73,2-2.16,2-3.74-.18-7.49-.09-11.24-.43-1.46-.13-2-.58-1.89-2,.14-3,.13-6.07.25-9.1.34-8.28.75-16.56,1.05-24.85.06-1.51.76-2.32,2.1-2.4,3.45-.19,6.74-1.21,10.13-1.69,1.59-.22,2.16.22,2.14,1.85-.09,6.23-.09,12.46-.12,18.69M237,408c8.72-.16,17.33-1.85,27.47-1.66,9.08-.22,19.5-1.27,29.9-2.3,2.31-.23,4.51,1.2,6.81,0,.42-.21.67.77.71,1.32.5,6.3.47,12.63.55,18.95,0,1.89-1.51,1.83-2.68,2.1-3.65.84-7.42,1-11,2.12-1.6.47-2.25,1.19-2.26,2.8-.12,11.36-1.16,22.68-.95,34a10.23,10.23,0,0,1-.13,2.15c-.59,3-.6,3,2.6,3,4.07.06,8.14.29,12.21.33,1.75,0,2.24.83,2.07,2.38a84.7,84.7,0,0,0-.35,14.85c.15,2.4-1,3.12-3,3.25-4.39.28-8.77.56-13.15.88-14.75,1.07-29.55,1.21-44.25,3-1.32.16-1.82-.09-2-1.53-.48-5.34.09-10.73-.66-16.06-.19-1.4.71-1.64,1.75-1.65,3.28,0,6.53-.45,9.8-.62,2-.11,2.53-.88,2.44-2.63-.19-3.51-.32-7-.52-10.53-.09-1.51-2.15-2.5-4.46-2a46,46,0,0,1-8.11.62c-1.56.05-2.07-.57-2.15-2.08-.28-5.1-.62-10.21-1-15.31-.15-1.84.27-2.51,2.31-2.46,4.31.11,8.63-.19,12.94-.24,1.19,0,1.56-.49,1.46-1.59-.32-3.34-.67-6.68-.9-10-.1-1.42-.73-1.86-2.1-2-4.07-.33-8.14-.27-12.22-.24-.8,0-1.8.28-1.68-1,.5-5.39-1.08-10.66-.91-16,0-1.13.16-1.85,1.5-1.87m-10.36,21.33a79.72,79.72,0,0,1,12.15-.69c2.95,0,5.91,0,8.86.06,2.19.05,3.63,1,3.6,3.47,0,1.11.12,2.23.21,3.35.25,3.34.26,3.43-3.12,3.7q-9.3.77-18.61,1.34c-3.1.2-3.74-.46-4.07-3.59-.2-1.82-.41-3.65-.67-5.46-.19-1.33.14-1.93,1.65-2.18" transform="translate(-112.76 -222.11)"/><path class="cls-2" d="M338.88,441.59c-2.29.51-6.09,5.38-5.82,8,.52,2.9,1.09,5.78,3.49,7.85,3.29,2.84,6.65,1.36,9.87,0,2.92-1.25,3.44-4.2,3.94-6.91a6.21,6.21,0,0,0-3.07-6.54c-2.49-1.49-5.35-3.07-8.41-2.38m8.56,12.34a13.2,13.2,0,0,1-4.21,3.07,4.48,4.48,0,0,1-5.81-1.54c-3.43-4.43-2.74-8.66,2.48-12.14-.78,1.29-1.53,1.92-1.07,2.9.86.08,1.31-.59,1.91-.9,2.95-1.52,5.27-1,7.3,1.8a5.48,5.48,0,0,1-.6,6.81" transform="translate(-112.76 -222.11)"/><path class="cls-2" d="M344.12,473.91a10.11,10.11,0,0,0-4.95-.13c-4.21,1.27-7.21,4.1-6.56,9.64.33,2.87,4.88,6.65,8.13,6.63,2.52,0,6.05-2.16,7.91-4.82a7.25,7.25,0,0,0-4.53-11.32m-3.56,14.2c-2.75-.13-6.17-3.82-6.08-6.56s4-6.44,6.84-6.36c4.48.14,7.25,2.59,7.06,6.25-.14,2.65-5,6.8-7.82,6.67" transform="translate(-112.76 -222.11)"/><path class="cls-2" d="M338.3,426.1c1.3-.36,2.59-.82,3.9-1.16a9.32,9.32,0,0,0,6.42-8.29c-.06-1.19,0-2.89-1.33-3.67-2.31-1.35-5.06-2.83-7.54-2.45-7.24,1.11-10.28,6.8-7.4,12.87a4.81,4.81,0,0,0,5.95,2.7m.73-12.54c1.34.12,2.71-.17,4.05-.07,3.37.24,4.6,2.61,3,5.61-1.85,3.48-4.93,5.12-8.66,5.58-2.63.32-4.44-2.09-4.42-5.61a5.21,5.21,0,0,1,6-5.51" transform="translate(-112.76 -222.11)"/><path class="cls-2" d="M298.58,575.48c1.18.22,2.4.17,3.57.4s1.94.83.73,2.06a40.62,40.62,0,0,0-3.68,4.38,2.73,2.73,0,0,0-.52,3.08,2.55,2.55,0,0,0,2.74,1.53c.61-.1,1.3-.3,1.65.5s-.2,1.21-.59,1.7c-1.23,1.55-2.49,3.09-3.74,4.63a3.88,3.88,0,0,0-.87,4c.6,1.46,2.05,1.28,3.37,1.25.84-.17,1.86-.43,2.32.55a2.6,2.6,0,0,1-.67,2.66c-.74.93-1.68,1.71-2.41,2.65a4.35,4.35,0,0,0-.9,4.23c.56,1.39,2.06.74,3.22.65.32,0,.64,0,.95,0,.58,0,1.21,0,1.26-.73s-.54-1.09-1.18-1.3c-2.5-.83-2.54-1-.57-2.85a5.77,5.77,0,0,0,1.42-1.59,6.72,6.72,0,0,0,.5-5.54c-.66-1.57-2.38-.81-3.67-.87-.64,0-1.39.13-1.52-.73a1.88,1.88,0,0,1,.82-2.09,11.85,11.85,0,0,0,3.64-3.75,4.89,4.89,0,0,0,.59-4.78c-.6-1.43-2.07-.85-3.2-.94-.5,0-1-.07-1.2-.59s.36-.83.67-1.16c1-1.11,2.18-2.13,3.11-3.32,2.42-3.08,1.8-4.8-1.94-5.73-1.15-.29-2.68.35-3.42-.67-1-1.35.93-2.08,1.23-3.22.12-.48.41-.92-.08-1.28s-.93-.11-1.33.15a6.85,6.85,0,0,0-2.28,3c-1,2.16-.39,3.31,2,3.74" transform="translate(-112.76 -222.11)"/><path class="cls-2" d="M220.85,310.78c.1,1.46.8,1.76,2,1.6l8.06-1c4.68-.58,9.34-1.55,14-1.65,10.63-.24,21.22-1,31.83-1.61,12.69-.76,25.34-1.89,38-2.93s25.07-1,37.62-1.07c3.12,0,3.08,0,3-3q-.19-5.52-.09-11c0-1.52-.34-2.12-2-2.12-9.44,0-18.88-.06-28.32-.11-17,.11-34,1.28-51,2.43-10.93.74-21.86,1.32-32.75,2.53-6.5.72-13.09.45-19.52,2-1.48.36-2.07.91-1.94,2.39.39,4.53.8,9.07,1.09,13.61m2.6-14.68c2.62-.85,5.36-.87,8.05-1.13,11.22-1.08,22.45-1.84,33.7-2.42,9.72-.5,19.45-.83,29.14-1.69,10-.89,20.09-1,30.12-1.55,8.94-.5,17.89.35,26.83.58,1.46,0,1.81.49,1.89,2.17.13,2.78-.1,5.59.36,8.35.2,1.25-.3,1.59-1.38,1.58l-4.56,0c-14.79.13-29.5,1.74-44.28,2.2-9.73.3-19.42,1.58-29.14,2.31-8.12.61-16.25,1-24.38,1.6s-16.08,1.15-24.1,1.95c-2.23.22-3.26-.35-3.21-2.52a42.44,42.44,0,0,0-.85-8.57c-.3-1.59.39-2.39,1.81-2.84" transform="translate(-112.76 -222.11)"/><path class="cls-2" d="M292,312.62c-3.53-.09-9.32,5.61-9.23,9.07a7.36,7.36,0,0,0,6.61,6.7c3.63.07,9.06-4.42,9.07-7.49,0-3.53-3.65-8.22-6.45-8.28m4.38,8.49c-.73,3.43-5.22,6.08-8.53,5a4.33,4.33,0,0,1-2.11-6.93c1.76-2.06,3.91-3.53,6.84-3.23,2.4-.2,4.36,2.46,3.8,5.13" transform="translate(-112.76 -222.11)"/><path class="cls-2" d="M237.05,318.27a4.65,4.65,0,0,0-6.32-.87,22.82,22.82,0,0,0-3,2.29,7.48,7.48,0,0,0-2.12,7.75c.78,2.14,3.06,3.47,6,3.51s2.82,0,7-3.07c2.72-2,3-4.81.65-7.35-.7-.77-1.45-1.48-2.14-2.26m1.36,7c-1,1.66-5.16,3.9-7.32,3.87-2,.17-2.92-1.37-3.54-3.06-.79-2.14.19-3.88,1.67-5.36a6.93,6.93,0,0,1,1.59-1c1.33-.73,2.9-1.61,4.21-.6,1.71,1.32,3.5,2.82,3.65,5.3a1.62,1.62,0,0,1-.26.89" transform="translate(-112.76 -222.11)"/><path class="cls-2" d="M341.32,313.79a2.66,2.66,0,0,0-.52.38c1.22,1.52-.63,1.49-1.09,2.14-1.37,1.94-3.07,3.72-3,6.33-.08,2.11.29,2.48,1.67,3.95,3.31,3.54,10.54,2.3,13.14-2.89,1.28-2.56.79-6.31-1-8.09a8.61,8.61,0,0,0-9.23-1.82m5,12.44a10.24,10.24,0,0,1-4.44.32c-2.53-.45-3-1.92-2.95-3.76.09-4.11,4.45-8,8.11-7.57a3,3,0,0,1,2.09,1c2.46,2.86.8,9-2.81,10" transform="translate(-112.76 -222.11)"/><path class="cls-2" d="M311.9,318.47a4.68,4.68,0,0,0-.44,3c.67,3,3,4.64,6.45,4.66,4.91.26,7.55-2.74,9.84-5.9,1.08-1.48.45-3.51-.87-4.85-4.49-4.54-12.48-2.85-15,3.09m12.05,3c-1.6,1.56-3.2,2.85-5.61,3-1.12-.29-2.39-.2-3.45-1.17-2.07-1.89-2.24-2.88-.41-5,1.56-1.8,3.12-3.47,5.78-3.83a4.61,4.61,0,0,1,5.13,2.37c1.2,2.06,0,3.29-1.44,4.68" transform="translate(-112.76 -222.11)"/><path class="cls-2" d="M268.36,315c-3-1.68-7.95-1-10.21,1.48-1,1.1-1.68,2.5-2.6,3.7a4.16,4.16,0,0,0-.42,4.92c1,1.46,2.5,2.93,4,2.78a25.88,25.88,0,0,0,6.29-1.27c2.62-.78,3.71-2.89,4.63-5.09s-.08-5.6-1.7-6.52m-.57,7.41a8.82,8.82,0,0,1-7.45,3.58c-3.19.21-3.52-1.37-3.31-3.81.28-3.24,4.83-7,7.85-6.68,1.51.18,3,.7,3.48,2.14a4.8,4.8,0,0,1-.57,4.77" transform="translate(-112.76 -222.11)"/></svg>