<svg id="Layer_1" data-name="Layer 1" xmlns="http://www.w3.org/2000/svg" viewBox="0 0 290.88 491.51"><defs><style>.cls-1{fill:#fff;}.cls-2{fill:#010101;}</style></defs><path class="cls-1" d="M481.13,456.46c-.08-1.08.59-1.19,1.56-1.18,4.05.05,8,.78,12.07,1a1.81,1.81,0,0,1,1.95,1.35c.91,3.1,1.87,6.18,2.81,9.28a82.22,82.22,0,0,1,3.15,19.38c.18,3.09-.28,6.25-3.45,7.83-5.31,2.65-13.18-.89-14.72-6.62-1.7-6.37-1-12.9-.93-19.37,0-1,1.3-2.57-.6-2.77-1.43-.15-1.16,1.64-1.23,2.55-.18,2.22-.05,4.47,0,6.71,0,.77,0,1.43-1.12,1.41-2.31,0-3.4-1-3.53-3.29-.05-.8-.08-1.59-.12-2.39-.19-5.47-.06-5.88,3-10.7a5.12,5.12,0,0,0,1.22-3.16" transform="translate(-216.61 -150.28)"/><path class="cls-1" d="M270.39,372.07c.66,1.32,3.44.95,2.54,3.36-.72,1.95-1.17,4-1.83,5.95-2.47,7.22-4.55,14.56-7,21.8-2.12,6.35-5.05,12.39-6.93,18.81-.79,2.72-2.36,5.13-3.13,7.82-.52,1.8-1.17,1.6-2.4,1a47.46,47.46,0,0,1-7.11-4.34c-3.7-2.83-7.52-5.57-11.06-8.64a3.11,3.11,0,0,1-1.21-1.47c0-.49.29-.79.55-1.13,1.34-1.77,2.66-3.56,4-5.32,3.72-4.84,7.42-9.7,11.2-14.49,2-2.52,4.47-4.66,6.15-7.45a2,2,0,0,1,.66-.54c2.77-1.65,4.51-4.36,6.5-6.73,2.31-2.74,4.73-5.38,7-8.14.5-.6,1.6-1.27,2-.46" transform="translate(-216.61 -150.28)"/><path class="cls-1" d="M273.25,371.59c-1.7-.37-3.81-3-3.46-4.86s.08-4.24,2.35-5c3.51-1.12,7.21-.42,7.3,4.38-.24,4.67-1.72,6.42-6.19,5.45" transform="translate(-216.61 -150.28)"/><path class="cls-1" d="M375.29,516.43c.18,0,.32.27.48.42.76.77,1.54,1.51,2.27,2.3,2.68,2.87,2.57,6.18-.07,9-1.57,1.68-3.57,1.66-5.67,2-.8,0-1.74,0-2.67-.16a8.18,8.18,0,0,1-6.41-5.41c-.84-3.41,1.19-5.7,3.58-6.93a13.06,13.06,0,0,1,8.49-1.22" transform="translate(-216.61 -150.28)"/><path class="cls-1" d="M347.78,437.37c4-.1,7.48-1.9,11.18-3,1.55-.46,2.13-.19,2.08,1.49-.1,2.73-.53,5.46-.17,8.21.14,1.12-.54,1.68-1.58,2a20.16,20.16,0,0,1-4.59.68l-2.9.33c-.62.06-1.24,0-1.41-.69-.69-2.68-2.62-4.8-3.33-7.47-.21-.81-.4-1.49.72-1.52" transform="translate(-216.61 -150.28)"/><path class="cls-1" d="M360,420.43a48.11,48.11,0,0,0,5.68,8.85c.95,1.11.74,1.67-.67,1.73-2.28.09-4.35,1-6.53,1.47-4.45.9-8.54,3.13-13.11,3.56-3.05.18-7.2-2.18-8.39-4.76a2.94,2.94,0,0,1,1.47-4.1,11.72,11.72,0,0,0,2.36-1c4.92-3.88,10.95-4.93,16.71-6.68a1.81,1.81,0,0,1,2.48,1" transform="translate(-216.61 -150.28)"/><path class="cls-1" d="M421.15,420.12a.85.85,0,0,1,1.1-.77c1.8.45,3.74.23,5.44,1.2a19.1,19.1,0,0,0,4.85,1.74c3.36.86,7,.72,9.09,4.74s.93,7.19-3.4,7.54c-2.52.56-4.68-.79-7-.74C426,434,421,432.46,416,431.52c-1.21-.22-1.45-.49-.67-1.62,2.16-3.13,5.14-5.78,5.86-9.78" transform="translate(-216.61 -150.28)"/><path class="cls-1" d="M359.85,415.19c.28-.35.68-.12,1,0,6.77,1.78,13.77,1.34,20.64,1.94,6.21.54,12.55-.16,18.82-.58A125.76,125.76,0,0,0,422,412.69c.48-.12,1-.5,1.43-.1s-.24.81-.43,1.21c-2.63,5.37-6.14,10.17-9.36,15.17-2.44,3.8-5.22,7.42-9.08,9.48a28.09,28.09,0,0,1-12.12,3.61c-1.36.08-2.79.52-4.06-.12-2.77-1.39-5.82-2-8.64-3.26-4.84-2.22-8.53-5.79-11.73-9.82a63.78,63.78,0,0,1-7.93-12.51c-.17-.37-.57-.73-.22-1.16" transform="translate(-216.61 -150.28)"/><path class="cls-1" d="M407.58,601.12q.29,6.17.59,12.34c-.21,6.42.49,12.85-.76,19.23-.23,1.18.11,1.83,1.59,1.81,5.93-.09,11.86-.3,17.77,0,8.27.46,16.61.31,24.78,2,1.62.33,2-.09,1.51-1.62a42.53,42.53,0,0,0-6.43-12.6c-3.88-5.17-7.93-10.2-11.54-15.57-.2-.3-.52-.56-.6-.89-.81-3.24-3-3.86-6-3.52-4.95.56-9.72-.75-14.52-1.63a22.77,22.77,0,0,1-4.41-1.1c-1.74-.69-2.05.07-2,1.53m3.67,10.8c-.49-.25-.89-.45-1-1.14a1.28,1.28,0,0,1,.61-1,1.57,1.57,0,0,1,1.82.15,145.34,145.34,0,0,0,11.84,8.61c2.45,1.61,5,3.08,7.46,4.59,4.84,2.94,9.83,5.64,14.75,8.46.62.36,1.39.86.94,1.69s-1.34.49-1.89,0c-2.86-2.34-6.39-3.48-9.52-5.37-5.81-3.5-11.84-6.65-17.36-10.64-1.15-.83-2.72-1.08-3.65-2.23a11.83,11.83,0,0,0-4-3.18" transform="translate(-216.61 -150.28)"/><path class="cls-1" d="M370.09,535.47c0-1.06-.74-2.42-.3-3.12.62-1,2.13,0,3.23-.33,1.35-.42,1.86,0,2.07,1.51.8,5.78,1.69,11.56,2.71,17.3.87,4.9,1.92,9.77,3,14.64,1.28,5.91,2.58,11.82,4,17.7,1.18,5,2.5,9.9,3.81,14.83.23.88.19,1.42-.85,1.49-4.18.24-8.21,1.69-12.44,1.64-2.74-.06-5.48-.15-8.21-.17-1.11,0-1.53-.27-1.28-1.53a277.07,277.07,0,0,0,3.54-27.87c1.07-12,.49-24.06.78-36.09" transform="translate(-216.61 -150.28)"/><path class="cls-1" d="M422.69,529.61c1.17-.13,1.17.5,1.12,1.48a60.89,60.89,0,0,0,.25,8.64c.53,6.12,1.9,12.12,2.52,18.21a258.1,258.1,0,0,0,6.69,39.84c.49,1.84-.06,2.36-1.94,2.53-7.11.64-13.89-1.09-20.72-2.58a5.12,5.12,0,0,1-3.51-5.12c.52-3.11,1.14-6.22,1.78-9.3,2.21-10.67,3.57-21.46,5.22-32.21,1.11-7.26,2.11-14.55,1.83-22.11a20.36,20.36,0,0,0,6.76.62" transform="translate(-216.61 -150.28)"/><path class="cls-1" d="M387,601.7c-6.9,1-13.82,1.93-20.83,1.18-1-.1-1.36.57-1.63,1.38A65.47,65.47,0,0,1,358,618.11c-1.45,2.34-2.92,4.74-4.56,7-1.78,2.44-2.68,5.45-3.7,8.32-.38,1.06,0,1.61,1.22,1.52,2.52-.16,5.05-.25,7.57-.37a.28.28,0,0,0,0,.09c10.83-.11,21.65-.28,32.48-.29,1.82,0,2.14-.61,1.88-2.13-.63-3.62-1.2-7.25-1.85-10.86-1.05-5.78-1.11-11.63-1.42-17.46-.1-2-.92-2.49-2.71-2.23m-21,25.64c2.52-2.57,5.58-4.44,8.27-6.8a56.64,56.64,0,0,0,8.82-9.36c.53-.73,1.09-1.36,1.9-.72a1.5,1.5,0,0,1,0,2.44c-2.48,2.29-4.51,5-7.11,7.21-2.06,1.77-4.33,3.3-6.28,5.15-3.07,2.91-6.68,5-10.07,7.4-1,.7-1.58,0-1.86-.91-.05-.79.49-1,1-1.34,1.74-1.12,3.9-1.58,5.36-3.07" transform="translate(-216.61 -150.28)"/><path class="cls-1" d="M421.83,527.55l-.88,0a6.57,6.57,0,0,1-7.38-4,6.9,6.9,0,0,1,.51-7.5,6.38,6.38,0,0,1,6.82-3c3.65.6,5.77,3.27,7,6.32,2.14,5.13-.51,8.48-6.11,8.22" transform="translate(-216.61 -150.28)"/><path class="cls-1" d="M237.15,422.79a7.27,7.27,0,0,1,2.28,2,6.87,6.87,0,0,0,2.93,2.51c1.93.87,3.46,2.31,5.24,3.39.83.5.9,1.06.56,2-1.13,3-2.64,5.93-3.36,9.13-.12.51-.67.91-1,1.35s-.71.65-1.13.43-.23-.74-.09-1.14a20.5,20.5,0,0,0,1-5.54c0-.81.17-1.78-1-1.79s-1,1-1.08,1.78c0,.5,0,1-.08,1.51-1,6.77-3.42,13.1-6.06,19.3a6.61,6.61,0,0,1-6.69,4.33c-3.46-.26-6.75-3.9-7.05-8a7.38,7.38,0,0,1,.44-3.26,113.9,113.9,0,0,1,7-17.13,101.55,101.55,0,0,1,5.66-10.34c.8-1.22,1.54-1.15,2.46-.53" transform="translate(-216.61 -150.28)"/><path class="cls-1" d="M436.81,278.59a79.4,79.4,0,0,1-16.15.7,59.92,59.92,0,0,1-17.44-4.48c-2.73-1.08-5.91-1.71-8.77-.05a9.35,9.35,0,0,0-3.7,3.8c-2.08,4-5.22,4.5-8.44,1.76a7.41,7.41,0,0,0-5.74-2.09,14,14,0,0,0-6.2,2.93c-5.4,4-11.27,5.58-17.88,4A95,95,0,0,1,340.24,281c-3-1.17-5.75-1.35-7.92,1.61-.26.36-.64.92-1.23.67s-.44-.85-.47-1.34q-.21-4.21-.4-8.43h.09c-.14-3-.36-5.91-.4-8.87,0-2.69.29-3.12,3-3,1.62.06,3.61-1.12,4.9,1,2.19,3.54,5.52,5.63,9.18,7.44,7.67,3.8,14.82,3.22,21.56-2.07a1.62,1.62,0,0,0,.55-.62c.94-2.53,3.05-4.42,3.85-7a2.35,2.35,0,0,1,2.77-1.77c2.88.29,5.72-.29,8.58-.43s5.41-.26,7.06,2.79a11.41,11.41,0,0,0,3.57,3.93c4.09,2.69,8,5.83,13.07,6.62,4.44.69,8.77.34,12.66-2.27,3.59-2.4,5.8-5.89,7.7-9.64.24-.46.29-1.29,1.1-1.09,2.37.6,4.7,0,7-.13,1.4-.09,2,.27,2,1.92,0,5.2.24,10.41.5,15.6.09,1.72-.42,2.52-2.17,2.74" transform="translate(-216.61 -150.28)"/><path class="cls-1" d="M390,296.12c-11.91.12-23.82-.65-35.74.34-6.91.58-13.79,1.55-20.75,1.58-1.69,0-2.39-.46-2.31-2.18.06-1.29-.1-2.59-.16-3.89h0c0-.36,0-.73,0-1.09,0-1.64-.55-3.45.21-4.89,1.48-2.81,5.52-3.71,8.66-2.81,5,1.45,9.6,4.11,15,4.6s10.34-.57,14.65-3.8a34.73,34.73,0,0,1,6.09-3.13,3.39,3.39,0,0,1,3.35.22c1.31.91,2.85,1.34,4.18,2.25,2,1.37,4.59,1.42,5.85.07,1.42-1.5,3.29-2.59,4.13-4.64.28-.68.68-1.52,1.55-1.71,2.84-.64,5.84-1.34,8.51,0,5.35,2.61,11,3.57,16.82,4.05s11.3-.72,16.93-1.29c1.54-.16,2.15,0,2.29,1.77.26,3.35-.41,6.63-.3,9.95,0,1.42-.63,1.85-1.94,1.87-2.74.05-5.47.18-8.2.31-9.51.48-19,1.14-28.52,1.39-3.48.09-6.8,1-10.28,1.06" transform="translate(-216.61 -150.28)"/><path class="cls-1" d="M430.29,255.79c-1.22-1,.34-2.16.63-3.19,1-3.53,1-7.13,1.17-10.72,0-.89.19-1.68,1.28-1.6,4.26.34,8.5-.36,12.77-.17,1.27,0,1.62.68,1.62,1.77,0,3,.11,5.92,0,8.88-.06,1.68,1.08,3.82-.37,4.94-1.27,1-3.34.48-5.46.54a56.87,56.87,0,0,1-8.26-.21c-1.15,0-2.64.34-3.37-.24" transform="translate(-216.61 -150.28)"/><path class="cls-1" d="M383.53,297.41c.22,0,.43,0,.65,0v.07c1.22-.06,2.45-.09,3.67-.18s1.9.32,1.94,1.81c.07,2.68-.3,5.32-.46,8-.16,2.5-.39,5-.71,7.5-.29,2.3-2.05,4.15-3.74,4.14s-3.81-2.09-4.09-4c-.6-4.13-1.21-8.25-1.67-12.39-.54-4.78-.47-4.79,4.41-4.87" transform="translate(-216.61 -150.28)"/><path class="cls-1" d="M421.25,340.73a106.18,106.18,0,0,1,7.26,12.38c2.19,4.27,4,8.73,6.37,12.88,2.08,3.61,3,7.62,4.53,11.4,1.71,4.13,3.76,8.09,3.54,12.9-.26,5.76-1.1,10.91-6.36,14.43-2.83,1.89-5.54,3.78-9.1,3.83a3.92,3.92,0,0,0-1.88.39c-3.29,2-7.08,2.38-10.66,3.32-7.35,1.95-14.92,2.47-22.64,2.66a111.13,111.13,0,0,1-22.75-.49,107.57,107.57,0,0,1-19.06-4.34c-2.13-.68-3.91-2.22-6.21-2.4a5.47,5.47,0,0,1-4.21-2.69c-2.06-3-2.15-6.46-2.54-9.91-1-8.79,1.45-16.95,4.42-25,1.85-5.05,4.91-9.68,6-14.94s4-10,6.18-14.88c1.67-3.8,4.28-7.23,6.42-10.83,4.25-7.17,8.72-14.08,15-19.64,1.12-1,1.74-.94,2.07.52.37,1.69.6,3.42,1.06,5.08.93,3.34,4.12,5.61,7.07,5.14s5.05-3.32,5-6.78c0-.94.07-1.88,0-2.81-.15-1.9.64-1.59,1.89-1,1.74.8,3,2.19,4.44,3.33a65.88,65.88,0,0,1,9,8.86c2.13,2.43,4.09,5.1,6.35,7.3,3.5,3.39,6.06,7.46,8.76,11.31" transform="translate(-216.61 -150.28)"/><path class="cls-1" d="M445.46,231.17c-2.3-.08-4.61-.08-6.92-.11v.16c-1.73,0-3.45,0-5.18,0a1.94,1.94,0,0,1-2.21-2.06,10.84,10.84,0,0,0-1.49-4.9c-1-1.72-1.75-3.62-2.61-5.44-.44-1-.06-1.4.92-1.31,6,.55,12-.07,17.93.53,1.12.12,1.75.34,1.69,1.63-.17,3.22-.32,6.45-.38,9.68,0,1.27-.41,1.86-1.75,1.8" transform="translate(-216.61 -150.28)"/><path class="cls-1" d="M437.16,347.56c-1.23.07-4.34-3.83-4.17-4.69a3.26,3.26,0,0,1,.18-.38c1.71-3.81,2.09-3.9,5.21-1.16a3.34,3.34,0,0,1,.48.44c.57.64,2,1,1.39,2.08a27,27,0,0,1-3.09,3.71" transform="translate(-216.61 -150.28)"/><path class="cls-1" d="M427.89,343.72a2,2,0,0,1-3-.86c-2.09-3.08-3.87-6.39-6.4-9.18-1.92-2.13-3.49-4.57-5.52-6.63-.35-.35-1.4-1.07,0-1.55,3.1-1.07,6-2.72,9.41-2.84,4.19-.15,8.26.89,10,5.28a24.54,24.54,0,0,1,1.24,5.58c.24,4.63-1.67,8.44-5.77,10.2" transform="translate(-216.61 -150.28)"/><path class="cls-1" d="M386.33,256.49c-1.65,0-3.31.14-5,.22v-.08c-1.58.08-3.16.1-4.73.24-1.81.17-2.14-.58-1.59-2.17a46.54,46.54,0,0,0,2.18-9.88c.17-1.37.72-1.77,2-1.95,2-.29,2.91.94,3.34,2.39a36.21,36.21,0,0,0,4.58,9.67c.64.95.65,1.56-.8,1.56" transform="translate(-216.61 -150.28)"/><path class="cls-1" d="M325.73,225.26c-.62,3.34.29,6.61.43,9.92.06,1.54-.37,2.07-1.93,1.95a20.08,20.08,0,0,0-4.1.16c-1.37.19-1.82-.33-1.84-1.63,0-1.8-.15-3.6-.24-5.4h0q-.13-3-.29-6.06c0-.92.24-1.52,1.3-1.57,1.94-.11,3.88-.29,5.83-.38.89-.05,1.37.31,1.06,1.33a13.07,13.07,0,0,0-.26,1.68" transform="translate(-216.61 -150.28)"/><path class="cls-1" d="M333,259.73a17.76,17.76,0,0,0-5.78.8c-.54.17-1.09.6-1.63.24-1.55-1-3.05-.42-4.57,0s-2.38-.07-2.13-1.79a59.22,59.22,0,0,0,.18-8c-.06-1.23-.1-2.46-.18-3.69-.07-.89,0-1.47,1.19-1.49a40.69,40.69,0,0,0,5.61-.56c1.74-.28,2.76.09,2.92,2.05a10.78,10.78,0,0,0,1.39,3.61,70.9,70.9,0,0,0,4,6.89c.66,1,.87,2-1,1.92" transform="translate(-216.61 -150.28)"/><path class="cls-1" d="M422.54,261.28c-3.39,6-10.34,9.17-16.58,5.58-1.92-1.1-3.72-2.37-5.62-3.49-3.31-2-5.45-5.06-7.67-8.1-2.93-4-4.63-8.6-6.32-13.2-2.76-7.47-4.1-15.06-1.48-22.84.7-2.09.88-4.6,2.67-6a42.21,42.21,0,0,1,9.77-6.24c5.92-2.54,11.41-1.32,16.95.94a1.3,1.3,0,0,1,.69.51c1.42,3,4.26,5,5.87,8,3.67,6.78,6.87,13.65,6.92,23.24,0,6.49-1.09,14.38-5.2,21.67" transform="translate(-216.61 -150.28)"/><path class="cls-1" d="M357.6,330.09c-2.23,4-4.33,8.07-6.39,12.16-.85,1.69-1.91,1.52-2.79.35-2.4-3.16-4.95-6.3-4.75-9.91-.19-2.85,0-3,2-6.73,2.47-4.77,9.45-7,14.84-4.13,1.37.74,1.71,1.62.79,2.93a59.24,59.24,0,0,0-3.66,5.33" transform="translate(-216.61 -150.28)"/><path class="cls-1" d="M372.41,244.75a51.86,51.86,0,0,1-5.68,17.38c-1.39,2.71-3.11,5.41-6.3,6.15-6.35,1.49-11.81-1-16.21-5.15-5.6-5.28-9.25-12-11.6-19.36a44.11,44.11,0,0,1-1.85-18c.77-7.34,4-13.74,10.63-17.88,1.57-1,3.49-.93,5-2.07,2.38-1.86,7.12-1.76,9.18.3,3.4,3.39,6.88,6.73,10,10.37a28.93,28.93,0,0,1,4.5,7.09c1.77,4,2.13,8.22,2.35,13.86a46.72,46.72,0,0,1,0,7.29" transform="translate(-216.61 -150.28)"/><path class="cls-1" d="M342,340.52c-.92.35-2,1.9-2.81.8a40.27,40.27,0,0,1-3.15-5.88,4.26,4.26,0,0,1,.36-.8c.42-.56,4.71-1.66,5.38-1.32,1.15.59.59,1.8.87,2.71s.4,1.53.62,2.29a1.75,1.75,0,0,1-1.27,2.2" transform="translate(-216.61 -150.28)"/><path class="cls-1" d="M378.77,230.72c.13.69.84,1.83-.66,2s-1.21-1-1.21-1.76a23.9,23.9,0,0,0-2.5-9.74c-1.34-3-1.37-2.94,1.87-3.18a10.69,10.69,0,0,0,1.5-.08c1.74-.34,2.17.2,1.55,1.89a20.33,20.33,0,0,0-.55,10.86" transform="translate(-216.61 -150.28)"/><path class="cls-1" d="M422.94,434.78l.64.11c3.75.65,7.5,1.32,11.25,2,1,.17.91.72.57,1.41a17.33,17.33,0,0,0-1.81,4.82c-.17,1.06-.25,2.39-.91,3s-2-.41-3-.38a7.63,7.63,0,0,1-1.51,0c-1.91-.37-4-.58-4.54-3s-1-4.5-1.58-6.74c-.21-.86.05-1.24.91-1.27" transform="translate(-216.61 -150.28)"/><path class="cls-1" d="M481.45,391.06c-3.3,2.25-8.27-.72-8.6-5.11,0-1.35-.52-3,1.08-3.65,1.4-.61,3-1.22,4.57-.46a8.13,8.13,0,0,1,4.1,7.76,2,2,0,0,1-1.15,1.46" transform="translate(-216.61 -150.28)"/><path class="cls-1" d="M502,449.73c1.43,4.35,1.15,4.55-3.27,4.71l-.86,0a64.6,64.6,0,0,1-18.2-2.19c-1.09-.28-1.58-.71-1.45-2.11.6-6.33.52-12.69.52-19,0-5.49-.28-11-.37-16.46,0-2.67.59-5.47,0-8-.92-3.66-.29-7.18-.2-10.75.05-2.08,1.87-2.35,3.28-2.41,1.26-.06,1.49,1.32,1.57,2.43a4.57,4.57,0,0,0,.56,2.06,92.87,92.87,0,0,1,5.64,12c2.66,6.57,4.59,13.35,6.92,20,2.25,6.47,3.78,13.14,5.91,19.64" transform="translate(-216.61 -150.28)"/><path class="cls-2" d="M494,409.49c-1.45-3.43-3-6.8-4.59-10.18S488,392.5,488.1,389c.14-3.73-.74-6.74-4.56-8.66-2.77-1.4-5.26-3-8.51-2.29-1.12.23-1.73-.75-2.33-1.34-4-4-7.82-8.21-11.87-12.15-2.4-2.34-4.81-4.72-7.17-7.1-2.55-2.58-5.43-4.83-7.75-7.68a12,12,0,0,0-3.68-2.95c-1.6-.82-1-1.49-.14-2.16,1.26-1,1.2-1.64-.1-2.64s-2.16-2.68-4-3.15c-.73-.19-.63-.77-.38-1.41,2.29-5.66.73-10.71-2.71-15.32-1.13-1.51-2.93-2.18-4.78-2.77-5.41-1.73-10.59-.37-15.76.94A3.74,3.74,0,0,1,410,319c-2.77-3-5.36-6.11-8.41-8.86-2.13-1.91-4-3.87-7-4.41-.95-.17-.9-1.2-.59-1.79.52-1-.53-2.63,1.35-3a39.85,39.85,0,0,1,9.62-1,63.25,63.25,0,0,0,7.11-.57c8.89-.8,17.79-1.58,26.69-2.42,1.26-.11,2.38-.9,3.7-1a1.22,1.22,0,0,0,1-1.22c0-2.06.87-4,.22-6.2s.3-4.57.28-6.89c-.06-6-.19-11.9-.79-17.83-.28-2.7-.11-2.81,2.55-3l2.82-.15c3.4-.18,4-.81,4-4.17-.09-4.83-.14-9.67-.41-14.49-.11-2,.61-2.6,2.42-2.64a14.1,14.1,0,0,0,3.42-.47c2.46-.7,3-3.24,1.19-5.08a8.26,8.26,0,0,0-5.48-2.25c-1.58-.12-2.25-.84-2.12-2.32.37-4.28-.35-8.65,1.21-12.85.87-2.35-.16-3.55-2.69-3.49-4.54.09-9.09.19-13.64.34-1.39,0-1.92-.46-1.88-1.88.31-9-.64-18.07-.59-27.11a45.36,45.36,0,0,1,.05-6.49c.11-.76.16-1.56.9-1.81,1.9-.65,3.21-2.22,5-3,1.57-.73,1.28-1.5.22-2.39a26.05,26.05,0,0,0-6.4-3.56c-1.45-.66-1.47-1.18-.09-1.91,1.71-.91,3.18-2.26,5.13-2.76.76-.2,1.46-.8.78-1.58-2.22-2.56-3.12-5.8-4.64-8.72a5,5,0,0,0-.44-.74c-.46-.55-1-1.35-1.74-.83-.61.41-.27,1.19,0,1.78,1.28,2.42,2.54,4.86,3.88,7.25.43.76.55,1.1-.42,1.61-2.4,1.28-4.49,3.13-7.25,3.72-.53.12-.93.36-.94,1a1.12,1.12,0,0,0,1,1.24c2.82.57,5,2.65,7.65,3.47,1.72.52,1.58,1.48.2,2-5.84,2.34-4.51,7.29-4.43,11.78.11,6.19.3,12.39.42,18.58.06,2.53,0,5.05.05,7.58,0,1,.49,2.29-.83,2.59s-3.13.7-4.16-.89-2.56-2.68-3.7-4.18c-2-2.65-5.22-3.84-8.05-5.28-6.37-3.24-13-3.24-19.83-.88a24,24,0,0,0-13.08,9.88,2.54,2.54,0,0,1-2.45,1.34c-3,0-5.92.23-8.88.4a1.85,1.85,0,0,1-1.86-1c-2.85-3.91-5.73-7.92-9.86-10.54a10.55,10.55,0,0,0-7-1.92c-3.51.44-7.05.57-10,2.92a8,8,0,0,1-2.61,1c-4.6,1.41-7.26,5-9.69,8.77-1.36,2.11-3.07,4-3.88,6.64-.57-1.67-1.67-2.72-3.15-2.12-2.34.95-4.68.48-7,.63-3,.2-3.63.86-3.83,3.81-.33,4.64.43,9.24.5,13.86,0,1.53-.45,2-1.91,2.15-1.89.2-3.93.21-5.31,1.92-1.67,2.08-.34,5.87,2.27,6.41a17.7,17.7,0,0,0,1.94.19c3.32.32,3.25.32,3.5,3.6a59.2,59.2,0,0,1-.12,11.45,5,5,0,0,0,.06,1.28c.44,3.43.68,3.6,4.09,3.26,1.87-.18,3.75-.24,5.61-.45,1.08-.12,1.36.27,1.36,1.3,0,6.56.61,13.1.88,19.65.2,4.82.57,9.66.4,14.5a2.42,2.42,0,0,0,2.75,2.82c9.86-.15,19.71-.63,29.51-1.65,4.55-.47,9.12.07,13.64-.68.61-.1,1.39.05,1.35.71-.07,1.37.41,3-1.08,4s-2.86,1.61-4.27,2.44c-2.59,1.51-4,4.18-5.71,6.42-1.54,2-3.08,2.15-4.9,1.47-4-1.47-7.23-.2-10.83,1.63-2.93,1.5-4.62,3.94-6.78,6-1.68,1.62-1.72,4-2,6.07a3.09,3.09,0,0,1-2.42,3c-1.18.36-1.84.93-1.59,2.34.36,2-.44,3-2.62,3.51-1.18.3-2.39.38-3.59.72-2.48.7-4,2.79-6.42,3.68-7.07,2.64-14.13,5.36-20.95,8.57-4.81,2.27-10,3.76-14.55,6.5a16.87,16.87,0,0,1-3.19,1.32c-1.56.52-2.06-.82-2.57-1.75-1.72-3.1-7.22-4.08-10.08-2.15-2.59,1.75-4.1,4.17-5.57,6.72a5.53,5.53,0,0,0-.56,3.16,6.29,6.29,0,0,1-2.19,5.55c-3.25,2.78-5.27,6.66-8.3,9.66-2.8,2.79-4.81,6.24-7.36,9.21s-4.6,6-6.93,9c-2.1,2.67-4.51,5.15-6.1,8.3-1.16,2.3-3.25,4.15-5,6.13-2,2.29-2.18,3.24-.52,5.85.47.74.8,1.47.06,2.13-2.25,2-2.8,4.89-3.9,7.51C220.92,435.44,218.18,442,217,449c-1.12,6.76-.27,13.23,6,17.49a10.56,10.56,0,0,0,13.2-1.22c4.12-3.76,4.7-9,7.05-13.44a4.44,4.44,0,0,1,2.35-2.53,5.73,5.73,0,0,0,3.84-4.63c.23-2.34,1.67-4.12,2.26-6.26.28-1,.88-1.67,2.1-1,2.78,1.48,4.6.59,5.27-2.51,1.38-6.43,3.78-12.54,5.8-18.77,1.85-5.68,3.6-11.39,5.35-17.1,2.07-6.73,4.1-13.48,6.15-20.22.36-1.21.69-2.12,2.41-2.16a4.84,4.84,0,0,0,4.7-3.55c.64-2,1.33-4,.82-6.12-.32-1.33.75-1.37,1.47-1.69,5.47-2.41,11.16-4.36,16.44-7.19s10.6-5.24,15.91-7.82c5.69-2.76,11.19-5.89,17-8.5,1.17-.53,2.06-.66,2.54.8s1.39,1.54,2.57,1.07a12.69,12.69,0,0,0,2.14-1c2.41-1.54,2.86-1.47,4.6.74.28.35.33.57.07.91-2.33,3-2.84,6.74-3.79,10.24-1.33,4.9-3.67,9.37-5.61,14-2.71,6.48-5.39,12.88-5.08,20.12.16,3.81-.13,7.62.5,11.43.68,4.1,2,7.84,5.13,10.65,1.1,1,2.79,1.36,4.24,2a36,36,0,0,0,7.6,2.65,6.65,6.65,0,0,1-1.08.77c-4.83,1.72-8.95,4.79-13.44,7.14-2.57,1.34-3.35,4.05-3.28,6.89,0,1.15.25,2.3.27,3.45.07,3.82,2.73,5.48,5.77,6.39a6.08,6.08,0,0,1,4.63,4.93c.71,2.87,3.06,5,4.06,7.81.44,1.25,2,1.3,3.39.87,2.88-.87,2.88-.77,3.59,2.1,1.65,6.63,3.62,13.2,4.89,19.9,1.13,5.94,2.14,11.92,3.25,17.88,1,5.38,2.22,10.73,3.32,16.1.22,1.06.32,2.14.52,3.2a4.77,4.77,0,0,1-2,4.88c-2.64,2.18-3.37,7.5-1.63,10.52a4,4,0,0,0,2,1.91c1.59.51,1.43,1.2,1.18,2.7a32,32,0,0,0-.29,8.57c.43,4.1.34,8.22.67,12.32.28,3.4-.46,6.88-.67,10.33-.47,7.48-.87,15-1.77,22.42-.57,4.81-1.12,9.61-2.69,14.23-.69,2-.71,4.31-1.85,6.14-1.76,2.83-3.07,5.91-5.11,8.61a65.11,65.11,0,0,0-7.44,12.57c-1,2.29-2.41,4.43-3,6.93-1,4.34.06,5.62,4.46,5.94,6.42.46,12.79-.22,19.19-.51,7.92-.38,15.83-.81,23.75-1.21,1.69-.08,3.43.07,5.16.06,1.93,0,2.18-1,2-2.49-1.43-11.46-3-22.89-4.13-34.4-.42-4.5-2-8.9-3.07-13.35-2.62-11.15-5.89-22.18-7.7-33.49-1.09-6.83-2.67-13.6-3.14-20.54-.05-.71,0-1.64-.39-2.09-1.81-2-1.28-3.26.87-4.46,1.2-.68,1.23-2.11,1.3-3.3.28-4.2-.95-8.1-5.14-10.06-.51-.23-.84-.45-1-1-1.63-7.9-4.72-15.4-6.18-23.38-1.3-7.06-3.49-14-5.24-20.94-1.28-5.1-2.5-10.22-3.73-15.33-.72-3-.7-3,2.44-4a7.45,7.45,0,0,0,4.65-9.7,6.48,6.48,0,0,1-.3-3.69c4.24,5.27,10.19,7.44,16,9.32,5.45,1.75,11.07,1.28,16.72-.63a38.83,38.83,0,0,0,12-7,8.82,8.82,0,0,0,1.91-1.73c1.23-1.87,2.2-2,3.16.66a90.06,90.06,0,0,1,2.6,9.15c.31,1.23.83,2,2.12,2s1.32.65,1.18,1.57c-1.2,8-1.39,16.08-2.16,24.12-.73,7.51-2,15-2,22.6,0,4.37-1,8.73-1.44,13.11-.16,1.53-1.45,1.89-2.37,2.59-4.28,3.29-5.43,6.77-3.55,11.73a4.06,4.06,0,0,1,.07,2.83c-.82,2.89-.34,5.91-.36,8.85a95.76,95.76,0,0,1-1.07,11.62c-1,7.63-2.33,15.21-3.32,22.85-.93,7.2-2.58,14.31-3.79,21.48a25.79,25.79,0,0,0-.23,7.67c1,8.28.34,16.58.69,24.87a46.42,46.42,0,0,1-.87,9.89c-.67,3.85.11,5.41,3.94,6.2a7.14,7.14,0,0,0,3,.1c5-1.26,10.06-.7,15.07-.56,7.44.2,14.87.22,22.3.48a57.42,57.42,0,0,1,8.77,1.08,2.34,2.34,0,0,0,2.95-1.47c.55-1.32,1-3,.39-4.23-1.76-3.87-2.48-8.13-4.67-11.84-2.71-4.58-5.86-8.83-9-13.12a57.76,57.76,0,0,1-7.06-12.64c-3.16-7.87-4.13-16.1-5.17-24.26-1.52-12-3.8-23.83-4.95-35.84-.34-3.48.41-6.92-.07-10.38a.7.7,0,0,1,.23-.57c2.58-1.26,2.23-3.65,2.2-5.85a9.37,9.37,0,0,0-3.87-7.8,3,3,0,0,1-1.3-3.07c.58-7.34,1.76-14.6,2.77-21.89.89-6.43,1.22-12.93,1.79-19.41.52-6,.45-12,1.32-17.94.19-1.34.3-2,1.95-1.33,2.24.89,4.09-.36,4.62-2.82a36.8,36.8,0,0,1,.92-4.22c.88-2.62,1-5.63,5-6.06,2.19-.24,4.15-4.72,3.86-7.61-.57-5.49-3.83-8.28-8.84-9.78a32,32,0,0,0-6.78-1.36c-1.38-.11-2.95-.74-3.36-2.27-.33-1.25,2-4.12,3.25-4.33a24.82,24.82,0,0,0,10.53-4.2,16,16,0,0,0,7-13.93,38.9,38.9,0,0,0-3.06-14.08c-1.59-3.76-2.56-7.8-4.35-11.45-3.14-6.4-6.11-12.9-9.71-19.07a14.64,14.64,0,0,1-1.51-4.19c1.58,1.68,3.08,3.36,4.66,5,.78.8,1.14,1.54,1.92.09.63-1.17,1.34-1,2.14,0,4.81,5.87,10.17,11.23,15.33,16.77,2.87,3.08,5.9,6,8.53,9.31.48.6,1.29.94,1.8,1.52,1.53,1.75,3.31,3.15,2.53,6.17-1,4-.9,8.57,4.37,11.24,1,.5,1.33,1.07.78,2.39-.83,2,.35,4.06.26,6.17-.36,8.74.18,17.47.5,26.2a152.94,152.94,0,0,1-.89,22.44,2,2,0,0,0,1.26,2.25c.76.34,1.35.74.69,1.61-2,2.64-2.6,5.83-3,8.92a29.34,29.34,0,0,0,.56,9.69,5.15,5.15,0,0,0,2.89,3.79,6,6,0,0,1,3.53,4.53c.74,3.7,2.05,7.39,4.62,10.14,3.64,3.9,7.93,6.54,13.83,6.25a10.59,10.59,0,0,0,8.9-5c1.43-2.05,1.22-4.48,1.39-6.68a51,51,0,0,0-2.73-19.34c-.76-2.4-1.08-4.94-2.21-7.24-.48-1,0-1.35,1.06-1.52,3.11-.48,4.11-1.8,3.58-4.9-1.7-9.9-3.54-19.71-7.05-29.23-1.94-5.25-3.83-10.5-6-15.67m-85,225c-1.49,0-1.83-.63-1.6-1.81,1.25-6.38.55-12.81.76-19.23q-.3-6.16-.59-12.34c-.07-1.46.24-2.22,2-1.53a22.77,22.77,0,0,0,4.41,1.1c4.8.88,9.57,2.19,14.52,1.63,3-.34,5.19.28,6,3.52.08.33.4.59.6.89,3.61,5.37,7.66,10.4,11.54,15.56a42.7,42.7,0,0,1,6.43,12.61c.49,1.53.11,2-1.51,1.62-8.17-1.69-16.51-1.54-24.78-2-5.91-.32-11.84-.11-17.76,0m-.13-51.19c2.21-10.67,3.57-21.46,5.22-32.21,1.11-7.26,2.11-14.55,1.83-22.11a20.36,20.36,0,0,0,6.76.62c1.17-.13,1.17.5,1.12,1.48a60.89,60.89,0,0,0,.25,8.64c.53,6.12,1.9,12.12,2.52,18.21a258.1,258.1,0,0,0,6.69,39.84c.49,1.84-.06,2.36-1.94,2.53-7.11.64-13.89-1.09-20.72-2.58a5.12,5.12,0,0,1-3.51-5.12c.52-3.11,1.14-6.22,1.78-9.3m12-70.3c3.65.6,5.77,3.27,7,6.32,2.14,5.13-.51,8.48-6.11,8.22l-.88,0a6.57,6.57,0,0,1-7.38-4,6.92,6.92,0,0,1,.5-7.5,6.4,6.4,0,0,1,6.83-3m-56.41,91.25c.27-.81.6-1.48,1.63-1.37,7,.74,13.93-.17,20.83-1.19,1.79-.26,2.61.26,2.71,2.23.31,5.83.37,11.69,1.42,17.46.65,3.61,1.22,7.24,1.85,10.86.26,1.52-.06,2.13-1.88,2.13-10.83,0-21.65.18-32.48.29a.28.28,0,0,1,0-.09c-2.52.12-5.05.21-7.57.37-1.24.09-1.6-.46-1.22-1.52,1-2.87,1.92-5.88,3.7-8.32,1.64-2.26,3.11-4.66,4.56-7a65.47,65.47,0,0,0,6.46-13.85m1.28-4.83a277.24,277.24,0,0,0,3.54-27.86c1.07-12,.5-24.07.78-36.1,0-1.06-.74-2.42-.3-3.12.62-1,2.13,0,3.23-.33,1.35-.42,1.86,0,2.07,1.51.8,5.78,1.69,11.56,2.71,17.3.87,4.9,1.92,9.77,3,14.64,1.27,5.91,2.56,11.82,4,17.7,1.19,5,2.51,9.9,3.82,14.83.23.88.19,1.43-.85,1.49-4.18.24-8.21,1.69-12.45,1.64-2.73-.06-5.47-.15-8.2-.17-1.11,0-1.53-.27-1.28-1.53m-2.55-74.85c-.84-3.41,1.19-5.7,3.58-6.93a13.06,13.06,0,0,1,8.49-1.22c.18,0,.32.27.48.42.76.77,1.54,1.51,2.27,2.3,2.68,2.87,2.57,6.18-.07,9-1.57,1.68-3.57,1.66-5.67,2-.8,0-1.74,0-2.67-.16a8.18,8.18,0,0,1-6.41-5.41M229,433.66a101.55,101.55,0,0,1,5.66-10.34c.8-1.22,1.54-1.15,2.46-.53a7.27,7.27,0,0,1,2.28,2,6.87,6.87,0,0,0,2.93,2.51c1.93.87,3.46,2.31,5.24,3.39.83.5.9,1.06.56,2-1.13,3-2.64,5.94-3.36,9.13-.12.5-.67.91-1,1.35s-.71.65-1.13.43-.23-.74-.09-1.14a20.5,20.5,0,0,0,1-5.54c0-.81.17-1.78-1-1.79s-1,1-1.08,1.78c0,.5,0,1-.08,1.51-1,6.77-3.42,13.1-6.06,19.3a6.62,6.62,0,0,1-6.69,4.33c-3.46-.26-6.75-3.9-7.05-8a7.38,7.38,0,0,1,.44-3.26,113.9,113.9,0,0,1,7-17.13m39.35-61.13c.5-.61,1.6-1.27,2-.46.66,1.32,3.44.95,2.54,3.36-.72,1.95-1.17,4-1.83,5.95-2.47,7.22-4.55,14.56-7,21.8-2.12,6.35-5,12.39-6.93,18.81-.79,2.72-2.36,5.13-3.13,7.82-.52,1.8-1.17,1.6-2.4,1a48,48,0,0,1-7.11-4.34c-3.7-2.83-7.52-5.57-11.06-8.64a3.11,3.11,0,0,1-1.21-1.47c0-.49.29-.79.55-1.13,1.34-1.77,2.66-3.56,4-5.32,3.72-4.84,7.42-9.7,11.2-14.49,2-2.52,4.47-4.66,6.15-7.45a2,2,0,0,1,.66-.54c2.77-1.65,4.51-4.36,6.5-6.73,2.31-2.74,4.73-5.38,7-8.14m3.76-10.77c3.51-1.12,7.21-.42,7.3,4.38-.24,4.67-1.72,6.42-6.19,5.45-1.7-.37-3.81-3-3.46-4.86s.08-4.24,2.35-5M422,436.05c-.21-.86.05-1.24.91-1.27l.64.11c3.75.65,7.5,1.32,11.24,2,1,.17.92.72.58,1.41a17.33,17.33,0,0,0-1.81,4.82c-.17,1.06-.25,2.39-.91,3s-2-.41-3-.38a7.63,7.63,0,0,1-1.51,0c-1.91-.37-4-.58-4.54-3s-1-4.5-1.58-6.74M416,431.52c-1.21-.22-1.45-.49-.67-1.62,2.16-3.13,5.14-5.78,5.86-9.78a.85.85,0,0,1,1.1-.77c1.8.45,3.74.23,5.44,1.2a19.1,19.1,0,0,0,4.85,1.74c3.36.86,7,.72,9.09,4.74s.93,7.19-3.4,7.54c-2.52.56-4.68-.79-7-.74C426,434,421,432.46,416,431.52m-48-2.66a63.78,63.78,0,0,1-7.93-12.51c-.17-.37-.57-.73-.22-1.16s.68-.12,1,0c6.77,1.78,13.77,1.34,20.64,1.94,6.21.54,12.55-.16,18.82-.58A125.76,125.76,0,0,0,422,412.69c.48-.12,1-.5,1.43-.1s-.24.81-.43,1.22c-2.63,5.36-6.14,10.16-9.36,15.16-2.44,3.8-5.22,7.42-9.08,9.48a28.09,28.09,0,0,1-12.12,3.61c-1.36.09-2.79.52-4.06-.12-2.77-1.39-5.82-2-8.64-3.26-4.84-2.22-8.53-5.79-11.73-9.82m-20.94,10c-.21-.81-.4-1.49.72-1.52,4-.1,7.48-1.9,11.18-3,1.55-.46,2.13-.19,2.08,1.49-.1,2.73-.53,5.46-.17,8.2.14,1.13-.54,1.69-1.58,2a20.16,20.16,0,0,1-4.59.68l-2.9.32c-.62.07-1.24,0-1.41-.68-.69-2.68-2.62-4.8-3.33-7.47m-6.26-12.75c4.92-3.88,10.95-4.93,16.71-6.68a1.81,1.81,0,0,1,2.48,1,48.11,48.11,0,0,0,5.68,8.85c.95,1.11.74,1.67-.67,1.73-2.28.09-4.35,1-6.53,1.47-4.45.9-8.54,3.13-13.11,3.56-3.05.18-7.2-2.18-8.39-4.76a2.94,2.94,0,0,1,1.47-4.1,12.31,12.31,0,0,0,2.36-1m2.49-87.82a1.75,1.75,0,0,1-1.27,2.2c-.92.35-2,1.9-2.81.8a40.27,40.27,0,0,1-3.15-5.88,4.26,4.26,0,0,1,.36-.8c.42-.56,4.71-1.66,5.38-1.32,1.16.59.59,1.8.87,2.71s.4,1.53.62,2.29m17.18-16.49c1.37.74,1.71,1.62.79,2.93a59.24,59.24,0,0,0-3.66,5.33c-2.23,4-4.33,8.07-6.39,12.16-.85,1.69-1.91,1.52-2.8.35-2.39-3.16-4.94-6.3-4.74-9.91-.19-2.85,0-3,2-6.73,2.47-4.77,9.45-7,14.84-4.13m-35.54-99.58c.89-.05,1.37.31,1.06,1.33a15.09,15.09,0,0,0-.26,1.68c-.62,3.34.29,6.61.43,9.92.06,1.54-.37,2.07-1.93,1.95a20.08,20.08,0,0,0-4.1.16c-1.37.19-1.82-.33-1.84-1.63,0-1.8-.15-3.6-.24-5.4h0q-.13-3-.29-6.06c0-.92.24-1.52,1.3-1.57,1.94-.11,3.88-.29,5.83-.38m3.69,25.06a10.78,10.78,0,0,0,1.39,3.61,70.9,70.9,0,0,0,4,6.89c.66,1,.87,2-1,1.92a17.76,17.76,0,0,0-5.78.8c-.54.17-1.09.6-1.63.24-1.55-1-3.05-.42-4.57,0s-2.38-.07-2.13-1.79a59.22,59.22,0,0,0,.18-8c-.06-1.23-.1-2.46-.18-3.69-.07-.89,0-1.47,1.19-1.49a40.69,40.69,0,0,0,5.61-.56c1.73-.28,2.76.09,2.92,2.05m41.43-23.71c1.77,4,2.13,8.22,2.35,13.86a46.73,46.73,0,0,1,0,7.29,51.86,51.86,0,0,1-5.68,17.38c-1.39,2.71-3.11,5.41-6.3,6.15-6.35,1.49-11.81-1-16.21-5.15-5.6-5.28-9.25-12-11.6-19.36a44.29,44.29,0,0,1-1.85-18c.77-7.34,4-13.74,10.63-17.88,1.57-1,3.49-.93,5-2.07,2.38-1.86,7.12-1.76,9.18.3,3.4,3.39,6.88,6.73,10,10.37a28.93,28.93,0,0,1,4.5,7.09m7.72-5.63c1.74-.34,2.17.2,1.55,1.89a20.33,20.33,0,0,0-.55,10.86c.13.69.84,1.83-.66,2s-1.21-1-1.21-1.76a23.9,23.9,0,0,0-2.5-9.74c-1.34-3-1.37-2.94,1.87-3.18a10.69,10.69,0,0,0,1.5-.08m1.44,24.9c2-.29,2.91.94,3.34,2.39a36.21,36.21,0,0,0,4.58,9.67c.64.95.65,1.56-.8,1.56-1.65,0-3.31.14-5,.22v-.08c-1.58.08-3.16.1-4.73.24-1.81.17-2.14-.58-1.59-2.17a46.54,46.54,0,0,0,2.18-9.88c.17-1.37.72-1.77,2-1.95m41.61-26.5c3.67,6.78,6.87,13.65,6.92,23.24,0,6.49-1.09,14.38-5.2,21.67-3.39,6-10.34,9.17-16.58,5.58-1.92-1.1-3.72-2.37-5.62-3.49-3.31-2-5.45-5.06-7.66-8.1-2.94-4-4.64-8.6-6.33-13.2-2.76-7.47-4.1-15-1.48-22.84.7-2.09.88-4.61,2.67-6a42.21,42.21,0,0,1,9.77-6.24c5.92-2.54,11.41-1.32,16.95.94a1.3,1.3,0,0,1,.69.51c1.42,3,4.26,5,5.87,8m26.77,3.32c-.17,3.22-.32,6.45-.38,9.68,0,1.27-.42,1.86-1.75,1.8-2.31-.08-4.61-.08-6.92-.11v.16c-1.73,0-3.45,0-5.18,0a1.92,1.92,0,0,1-2.2-2.06,10.9,10.9,0,0,0-1.5-4.89c-1-1.73-1.75-3.63-2.61-5.45-.45-1-.05-1.4.93-1.31,6,.55,11.95-.07,17.92.53,1.12.12,1.75.34,1.69,1.63m-5.67,36.55a56.87,56.87,0,0,1-8.26-.21c-1.15,0-2.64.34-3.37-.24-1.22-1,.34-2.16.63-3.19,1-3.53,1-7.13,1.17-10.72,0-.88.19-1.68,1.28-1.6,4.26.34,8.5-.36,12.77-.17,1.27,0,1.62.68,1.62,1.77,0,3,.11,5.92,0,8.88-.06,1.68,1.08,3.82-.37,4.94-1.27,1-3.34.48-5.46.54m-3.44,4c0,5.2.24,10.41.5,15.6.09,1.72-.42,2.52-2.17,2.74a79.4,79.4,0,0,1-16.15.7,59.92,59.92,0,0,1-17.44-4.48c-2.73-1.08-5.91-1.71-8.77-.05a9.35,9.35,0,0,0-3.7,3.8c-2.08,4-5.22,4.5-8.44,1.77a7.38,7.38,0,0,0-5.74-2.1,14,14,0,0,0-6.2,2.93c-5.4,4-11.27,5.58-17.88,4A95,95,0,0,1,340.24,281c-3-1.17-5.75-1.35-7.92,1.61-.26.36-.64.92-1.23.67s-.44-.85-.47-1.34q-.21-4.21-.4-8.43h.09c-.14-3-.36-5.91-.4-8.87,0-2.69.29-3.12,3-3,1.62.06,3.61-1.12,4.9,1,2.19,3.54,5.52,5.63,9.18,7.44,7.67,3.8,14.81,3.22,21.56-2.07a1.62,1.62,0,0,0,.55-.62c.94-2.53,3.05-4.42,3.85-7a2.35,2.35,0,0,1,2.77-1.77c2.88.29,5.72-.29,8.58-.43s5.41-.26,7.07,2.79a11.29,11.29,0,0,0,3.56,3.93c4.09,2.69,8,5.83,13.07,6.62,4.44.69,8.77.34,12.66-2.27,3.59-2.4,5.8-5.89,7.7-9.64.24-.46.29-1.3,1.1-1.09,2.37.6,4.7,0,7-.13,1.4-.09,2,.27,2,1.92m-38.23,34.81c-3.48.09-6.8,1-10.28,1.06-11.91.12-23.82-.65-35.74.34-6.91.58-13.79,1.55-20.75,1.58-1.69,0-2.39-.46-2.31-2.18.06-1.29-.1-2.59-.16-3.89h0c0-.37,0-.73,0-1.09,0-1.64-.55-3.46.21-4.9,1.48-2.8,5.52-3.7,8.66-2.8,5,1.45,9.6,4.11,15,4.6s10.34-.57,14.65-3.8a34.73,34.73,0,0,1,6.09-3.13,3.39,3.39,0,0,1,3.35.22c1.31.91,2.85,1.34,4.18,2.25,2,1.37,4.59,1.42,5.85.07,1.42-1.5,3.29-2.59,4.13-4.64.28-.68.68-1.52,1.55-1.71,2.84-.64,5.84-1.34,8.51,0,5.35,2.61,11,3.57,16.82,4.05s11.3-.72,16.93-1.29c1.54-.16,2.15,0,2.29,1.77.26,3.35-.41,6.63-.3,9.95,0,1.42-.63,1.85-1.94,1.87-2.74.05-5.47.18-8.2.31-9.51.48-19,1.14-28.52,1.39m-21.13,7.22c-.54-4.78-.47-4.79,4.41-4.87.22,0,.43,0,.65,0v.07c1.22-.06,2.45-.09,3.67-.18s1.9.32,1.94,1.81c.07,2.68-.3,5.32-.46,8-.16,2.5-.39,5-.71,7.5-.29,2.3-2.05,4.15-3.74,4.14s-3.81-2.09-4.09-4c-.6-4.13-1.21-8.25-1.67-12.39m27,19.84c2.13,2.43,4.09,5.1,6.35,7.3,3.5,3.39,6.06,7.46,8.76,11.31a105.49,105.49,0,0,1,7.26,12.39c2.19,4.26,4,8.72,6.37,12.87,2.07,3.61,3,7.62,4.53,11.4,1.71,4.13,3.76,8.09,3.54,12.9-.26,5.76-1.1,10.91-6.36,14.43-2.83,1.89-5.54,3.78-9.1,3.83a3.92,3.92,0,0,0-1.88.39c-3.29,2-7.08,2.38-10.66,3.32-7.35,1.95-14.92,2.47-22.64,2.65a110.41,110.41,0,0,1-22.75-.48,107.77,107.77,0,0,1-19.06-4.34c-2.13-.68-3.91-2.22-6.21-2.4a5.47,5.47,0,0,1-4.21-2.69c-2.06-3-2.15-6.46-2.53-9.91-1-8.79,1.44-16.95,4.41-25,1.85-5.05,4.91-9.68,6-14.94s4-10,6.18-14.88c1.67-3.8,4.28-7.23,6.42-10.83,4.25-7.17,8.72-14.08,15-19.64,1.12-1,1.74-.94,2.06.52.38,1.69.61,3.42,1.07,5.08.93,3.34,4.12,5.61,7.07,5.15s5.05-3.33,5-6.79c0-.93.07-1.88,0-2.81-.15-1.9.64-1.59,1.89-1,1.74.8,3,2.19,4.45,3.33a66.39,66.39,0,0,1,9,8.86m26.27,5.82a24.06,24.06,0,0,1,1.25,5.58c.24,4.63-1.67,8.44-5.77,10.2a2,2,0,0,1-3-.86c-2.09-3.08-3.87-6.39-6.39-9.18-1.93-2.13-3.5-4.57-5.53-6.63-.35-.35-1.4-1.07,0-1.55,3.1-1.07,6-2.72,9.41-2.84,4.19-.15,8.26.89,10,5.28m6.45,13.83c.57.64,2,1,1.39,2.08a27,27,0,0,1-3.09,3.71c-1.23.07-4.33-3.83-4.17-4.69a3.26,3.26,0,0,1,.18-.38c1.71-3.81,2.09-3.9,5.21-1.16a3.34,3.34,0,0,1,.48.44m38.19,130.94c-.05-.8-.08-1.59-.12-2.38-.19-5.48-.06-5.89,3-10.71a5.12,5.12,0,0,0,1.22-3.16c-.09-1.08.59-1.19,1.56-1.18,4.05.05,8,.78,12.07,1a1.81,1.81,0,0,1,1.95,1.35c.91,3.1,1.87,6.18,2.81,9.28a82.22,82.22,0,0,1,3.15,19.38c.18,3.09-.28,6.25-3.45,7.83-5.31,2.65-13.18-.89-14.72-6.62-1.7-6.37-1-12.9-.93-19.37,0-1,1.3-2.57-.6-2.77-1.43-.15-1.16,1.64-1.23,2.55-.18,2.22-.05,4.47,0,6.71,0,.77,0,1.43-1.12,1.41-2.31,0-3.4-1-3.53-3.29m1.45-90.87a8.13,8.13,0,0,1,4.1,7.76,2,2,0,0,1-1.15,1.46c-3.3,2.25-8.27-.72-8.6-5.11,0-1.35-.52-3,1.07-3.65,1.41-.6,3-1.22,4.58-.46m5.06,16.2a94.27,94.27,0,0,1,5.65,12c2.65,6.57,4.58,13.35,6.91,20,2.25,6.47,3.78,13.14,5.91,19.64,1.43,4.35,1.15,4.55-3.27,4.71l-.86,0a64.6,64.6,0,0,1-18.2-2.19c-1.1-.28-1.58-.71-1.45-2.11.6-6.33.52-12.69.52-19,0-5.49-.28-11-.37-16.46,0-2.67.59-5.47,0-8-.92-3.66-.29-7.18-.2-10.75.05-2.08,1.87-2.35,3.28-2.41,1.26-.06,1.49,1.32,1.57,2.43a4.57,4.57,0,0,0,.56,2.06" transform="translate(-216.61 -150.28)"/><path class="cls-2" d="M410.89,609.8a1.57,1.57,0,0,1,1.82.15,145.34,145.34,0,0,0,11.84,8.61c2.45,1.61,5,3.08,7.46,4.59,4.84,2.94,9.83,5.64,14.75,8.46.62.36,1.39.86.94,1.69s-1.34.49-1.89,0c-2.86-2.34-6.39-3.48-9.52-5.37-5.81-3.5-11.84-6.65-17.37-10.64-1.14-.83-2.71-1.08-3.64-2.23a11.83,11.83,0,0,0-4-3.18c-.49-.25-.89-.46-1-1.14a1.28,1.28,0,0,1,.61-1" transform="translate(-216.61 -150.28)"/><path class="cls-2" d="M383.07,611.18c.53-.74,1.09-1.36,1.9-.72a1.5,1.5,0,0,1,0,2.44c-2.48,2.29-4.51,5-7.11,7.22-2.06,1.76-4.33,3.29-6.28,5.14-3.07,2.91-6.68,5-10.07,7.4-1,.7-1.58,0-1.86-.91-.05-.79.49-1,1-1.34,1.74-1.12,3.9-1.58,5.36-3.07,2.52-2.57,5.58-4.44,8.27-6.8a56.64,56.64,0,0,0,8.82-9.36" transform="translate(-216.61 -150.28)"/></svg>