<svg id="Layer_1" data-name="Layer 1" xmlns="http://www.w3.org/2000/svg" viewBox="0 0 243.53 286.51"><defs><style>.cls-1{fill:#fff;}.cls-2{fill:#010101;}</style></defs><path class="cls-1" d="M248.71,286.21c-1,.6-.5,1.52-.37,2.4.49-.69,1.74-.79,1.49-1.94a.76.76,0,0,0-1.12-.46" transform="translate(-191.85 -273.12)"/><path class="cls-1" d="M201,449.69a7.76,7.76,0,0,1,4.1-.31,4.11,4.11,0,0,0,3.16-.31,29,29,0,0,1,4.52-1.69c1.05-.3,1-.56.22-1.15-3.42-2.77-7.44-4.5-11.31-6.49-.58-.3-.9,0-.93.55-.1,2.32-1.22,4.46-1.09,6.59-.08.62-.11,1-.19,1.42-.26,1.32.07,1.73,1.52,1.39" transform="translate(-191.85 -273.12)"/><path class="cls-1" d="M214.5,407.32c1.74.83,3.11,2.18,4.77,3.08,3.39,1.83,6.41,4.24,9.61,6.34,4.31,2.84,8.39,6,12.56,9.08.34.24.69.53,1.1.3s.25-.72.24-1.11c-.05-1.38-.1-2.77-.14-3.93,0-.64,0-1,0-1.45,0-1.22.12-2.44,0-3.64-.13-1.51-1.81-1.34-2.64-2.18-1.59-1.6-3.61-2.77-5.35-4.23-1.57-1.31-3.68-1.65-5.15-3.11a15.66,15.66,0,0,0-2.42-2c-3.11-2-6.52-3.61-9.43-6-.74-.61-1.5-.81-2,.46-.68,1.7-1.67,3.26-2.4,5s-.1,2.75,1.19,3.36" transform="translate(-191.85 -273.12)"/><path class="cls-1" d="M210.11,417.35c2.17,1.53,4.61,2.63,6.74,4.18,4.47,3.23,9.18,6.12,13.36,9.75a4.9,4.9,0,0,0,1.81,1c1.39.42,2.3,1.21,1.73,2.83a33.27,33.27,0,0,0,6.61-5.13c1.33-1.3,1.16-1.92-.46-3s-2.82-2.15-4.19-3.22c-2.9-2.25-6-4.16-8.89-6.45-4.3-3.45-9.4-5.75-13.66-9.28-.85-.7-1.55-.53-1.94.65-.61,1.86-1.34,3.7-2.11,5.47s-.24,2.3,1,3.18" transform="translate(-191.85 -273.12)"/><path class="cls-1" d="M197.76,470.49a24.89,24.89,0,0,0,10.15-1.9,13.81,13.81,0,0,0,5.63-3.8c1-1.19,2-2.41,1.33-4a37.32,37.32,0,0,0-3.78-7.15,2.53,2.53,0,0,0-1.16-1c-2-.48-3.73-1.85-5.91-1.3-3.57-.82-5.85,1.15-6.87,4.07a92.77,92.77,0,0,0-3.39,10.52c-.63,2.93,1.47,4.47,4,4.59m-1.11-5.89a2,2,0,0,1,.7-.51c4.18-1.91,8.47-3.3,13.17-2.8.79.08,1.39.42,1.38,1.24s-.83.77-1.44.76c-.92,0-1.84,0-2.77-.07-3.5-.74-6.19,1.26-9,2.72-.26.13-.48.33-.74.46-.56.29-1.21.67-1.71,0s0-1.3.44-1.83" transform="translate(-191.85 -273.12)"/><path class="cls-1" d="M204.66,427.18c2.5.93,4.1,3.22,6.46,4.28,3.26,1.48,5.95,3.86,9,5.59a39.86,39.86,0,0,0,3.91,2.48c.26.11.61.14.65.49.1.76.46.56,1,.34,2.94-1.32,5.38-3.4,8-5.21a5.71,5.71,0,0,1-2.76-1.21c-2.94-2.39-6-4.63-9-6.87-4.27-3.14-8.76-5.91-13.29-8.65-.74-.45-1.09-.42-1.53.5a33.17,33.17,0,0,0-2.46,7c-.1.42-.49,1.05,0,1.25" transform="translate(-191.85 -273.12)"/><path class="cls-1" d="M242.26,360.81a.86.86,0,0,0,1.2.34c.11-.06.16-.3.15-.45a14.77,14.77,0,0,1,1-5.9l-.52-.24a30.21,30.21,0,0,0-3.63,4.65c-.52,1,1.32.88,1.83,1.6" transform="translate(-191.85 -273.12)"/><path class="cls-1" d="M249.39,282.23c.34.16,1.22-.31,1.12-1.18-.22-1.92-2.14-.23-2.62-1.3-.59,0-.88.4-.69.61a8.1,8.1,0,0,0,2.19,1.87" transform="translate(-191.85 -273.12)"/><path class="cls-1" d="M218.37,397c2.31,1.62,4.73,3.06,7.13,4.53,1.85,1.13,3.59,2.5,5.44,3.67,3.54,2.24,7.19,4.32,10.31,7.17a1.56,1.56,0,0,0,1.05.46c.53-.08.35-.64.36-1,0-.87-.06-1.74,0-2.41.07-2.29.52-4.18-2.29-5.39-2-.88-3.69-2.86-5.47-4.4-4.07-3.51-8.7-6.17-13.1-9.18-.68-.47-1.18-.5-1.7.32a15.5,15.5,0,0,0-2.3,4.4c-.27,1.05-.09,1.35.61,1.84" transform="translate(-191.85 -273.12)"/><path class="cls-1" d="M238.28,364.67c1.22.75,2.4,1.56,3.61,2.33.46.29.64,1.18,1.31.92s.27-1,.39-1.47a5.61,5.61,0,0,0-3.46-5.1c-1.63-.77-1.79.69-2.43,1.42-.76.89-.21,1.42.58,1.9" transform="translate(-191.85 -273.12)"/><path class="cls-1" d="M251.47,286.06c.77,0,1.34-1,1.43-1.94-.14-.75-.22-1.75-1.1-1.74a1.84,1.84,0,0,0-1.62,1.76c0,.76.46,1.95,1.29,1.92" transform="translate(-191.85 -273.12)"/><path class="cls-1" d="M233.2,371.36a72.39,72.39,0,0,1,7.31,5.1c.61.54,1.65,1.32,2.14,1.12.82-.34.24-1.53.39-2.35a11.51,11.51,0,0,0,0-1.31c-.2-1.23,1-3.09-.78-4.16s-3.35-2.73-5.15-3.95c-1.13-.76-1.83-.49-2.25.68a6.48,6.48,0,0,1-1.9,2.8c-.72.65-.84,1.36.2,2.07" transform="translate(-191.85 -273.12)"/><path class="cls-1" d="M222.43,388.86c3.72,2.39,7.43,4.79,11,7.45,2.75,2.07,5.44,4.21,8.14,6.33.26.21.46.59.84.39s.24-.61.24-.94c0-1.44-.05-2.89-.08-4.34h-.11c0-1.5.1-3,.12-4.51,0-.44.17-1-.42-1.2-2.51-.75-4.25-2.72-6.37-4.08-3-1.95-5.87-4.24-8.81-6.35-.41-.29-1.09-.95-1.48-.19-1.09,2.09-2.72,3.87-3.49,6.14a1,1,0,0,0,.46,1.3" transform="translate(-191.85 -273.12)"/><path class="cls-1" d="M227.37,380.11c1.47.57,2.52,1.71,3.78,2.55,3.47,2.32,6.65,5.1,10.49,6.88.87.41,1,.29,1-.52l.12-4.16h0c0-1.33.1-2.65.09-4,0-.45.24-1.26-.56-1.17s-1.05-.41-1.43-.76c-2.29-2.12-5.11-3.52-7.42-5.61-.73-.67-2.29-1.4-2.72-.43-1,2.16-2.67,3.74-3.82,5.72-.43.73-.24,1.21.49,1.49" transform="translate(-191.85 -273.12)"/><path class="cls-1" d="M254.28,282.58c.57.12,1-.35,1.33-.89-.25-.65-.57-1.37-1.23-1.51s-1.11.45-1.21,1.14.54,1.14,1.11,1.26" transform="translate(-191.85 -273.12)"/><path class="cls-1" d="M202.2,438.33c4.18,1.14,7.42,4.15,11.36,5.77,1,.4,1.8.92,1.29,2.45l9-4.92c-3.5-2.35-6.76-4.57-10.06-6.74-2.87-1.89-5.79-3.71-8.67-5.6-.56-.36-1.07-.67-1.33.2-.77,2.48-1.49,5-2.19,7.47-.17.58-.13,1.16.64,1.37" transform="translate(-191.85 -273.12)"/><path class="cls-1" d="M365.27,382.47c-1.22,2-3.51,3.12-4.44,5.4-1.78.05-1.39,1.41-1.48,2.26.06,2.59.1,5,.15,7.33,0,.33-.1.78.34.88s.58-.29.76-.58a8.48,8.48,0,0,1,1-1.59c3.18-3.34,6.31-6.73,9.26-10.28,2.12-2.56,4.52-4.91,6.4-7.63.66-.95,3.05-1.09,1.92-3A32.94,32.94,0,0,0,376.6,372c-.51-.67-.78-.79-1.55-.09a102.34,102.34,0,0,0-7.25,7.63,23,23,0,0,0-2.53,3" transform="translate(-191.85 -273.12)"/><path class="cls-1" d="M350.73,351.65c-2.93-.47-5.89-.2-8.82-.45-8-.69-16.06-.48-24.08-.56-8.9-.09-17.81,0-26.72,0-9.07.07-18.15-.61-27.22-.36-2.37.07-4.74.09-7.11.14a74.18,74.18,0,0,0-7.43.62c-.74.09-1.82.09-2,1.09-.4,2.51-1.6,4.83-1.64,7.42-.06,3.76-.2,7.5-.49,11.25-.37,4.84-.31,9.72-.59,14.56-.42,7.23-.14,14.44-.21,21.66-.05,5.66.13,11.33.13,17s0,11.06.09,16.6c0,1.5-.13,3-.12,4.51,0,3.8.05,3.71,3.83,3.54,11.08-.52,22.17-.73,33.26-.91,7.11-.12,14.22-.17,21.33-.39a312,312,0,0,1,32.51.3c7,.53,14,.2,21,.34,1.11,0,1.49-.24,1.43-1.47a125.64,125.64,0,0,1-.31-13c.45-8.15.28-16.29.24-24.44-.05-8.85-.25-17.69-.31-26.54-.07-9.31-.1-18.62-3-27.64-.82-2.55-1-2.84-3.76-3.28" transform="translate(-191.85 -273.12)"/><path class="cls-1" d="M359.65,367.44c-.36.57-1.07,1-1,1.75a69.9,69.9,0,0,0,.41,7.62c.44-.3.68-.39.8-.56,2.14-3.06,5.23-5.28,7.27-8.41.71-1.09,2.49-1.9,2.21-3s-1.85-1.95-2.77-3a1,1,0,0,0-1.72-.14,26.13,26.13,0,0,0-5.16,5.75" transform="translate(-191.85 -273.12)"/><path class="cls-1" d="M368.8,368.65c-2.23,2.54-4.93,4.65-6.89,7.44-.57.81-.85,2-2.29,1.62-.54-.13-.51.49-.52.54.13,2.3.23,4.27.37,6.23,0,.49-.29,1.21.24,1.42s.87-.56,1.26-.93c4.78-4.62,8.08-10.6,13.46-14.67.21-.16.38-.33.21-.54-1-1.2-1.94-2.59-3.31-3.24-1.07-.51-1.54.83-2,1.68-.11.19-.37.28-.52.45" transform="translate(-191.85 -273.12)"/><path class="cls-1" d="M358.08,364.63c0,.33,0,.77.35.92s.56-.28.83-.48c1.36-1,2.23-2.48,3.41-3.62,1.38-1.33,1.39-2.12-.2-3.24-2-1.44-3.91-3.13-6.13-4.94.12,2.19.93,3.68,1.19,5.34a45.2,45.2,0,0,1,.55,6" transform="translate(-191.85 -273.12)"/><path class="cls-1" d="M308.94,337.6c.08.52.12,1.3.93,1.22a1.34,1.34,0,0,0,1.19-1.29c.05-.4,0-.81.05-1.21.07-2.66-.21-5.37.28-7.95.64-3.41-1.82-5-3.52-7.64a80.23,80.23,0,0,0,.16,10.38,65.33,65.33,0,0,0,.91,6.49" transform="translate(-191.85 -273.12)"/><path class="cls-1" d="M323.38,318.1c2.81.77,7.1-2.07,7.2-5.32a11.3,11.3,0,0,0-1.94-4.73c-.67-.89-1-2-2.19-2.56-1.89-.82-2.95.44-4.31,1.26a6.2,6.2,0,0,0-3.31,6c.16,2.88,1.74,4.59,4.55,5.37" transform="translate(-191.85 -273.12)"/><path class="cls-1" d="M337.6,279.18c1.65,1.26,3,2.56,3.21,4.93a23.77,23.77,0,0,0,.77,3.88c.64,2.55,1.74,4.72,4.3,5.91,3.47,1.6,6,3.89,5.58,8.17a5.34,5.34,0,0,0,.15,1,1.37,1.37,0,0,0,.83,1.22c1.81.78,3.52,1.65,4,3.87a1.41,1.41,0,0,0,.56-1.46c0-2.07,0-4.15-.09-6.22-.19-5.83-.35-11.65-.64-17.47-.17-3.37-.87-3.91-4.18-4.13-4.67-.31-9.33-.69-14-1-.42,0-1-.4-1.2.25s.34.78.7,1.05" transform="translate(-191.85 -273.12)"/><path class="cls-1" d="M411.3,436.09c-2.17,2.52-2.09,5.66-2.71,8.88.64,5.37,2.16,10.58,6.43,14.6a1.79,1.79,0,0,0,1.74.53c3.48-.88,7-2,9.56-4.49a54.84,54.84,0,0,0,6-6.12c1.53-2.05,1.63-3.4.17-5.49a13.05,13.05,0,0,0-3.38-3.33c-1.73-1.2-3.4-2.54-5-3.86a12.66,12.66,0,0,0-8.8-2.88,5.49,5.49,0,0,0-4,2.16m2.84,17.74c.85-.78,1.78-1.47,2.65-2.23,2.21-1.92,4.17-4.15,7-5.29a9.68,9.68,0,0,1,4.08-1c.42.19,1.36-.37,1.38.65,0,.86-.73,1-1.46,1.15-3.38.86-6.55,2.06-8.76,5.06-.95,1.28-2.65,1.82-3.72,3.06-.46.53-.89,0-1.21-.19-.5-.34-.31-.88,0-1.2" transform="translate(-191.85 -273.12)"/><path class="cls-1" d="M404.22,437.9c-.34.33-.94.73-.59,1.3s1,.2,1.4.3c1.4-.07,2.54.05,3.08-1.9a6.78,6.78,0,0,1,4.64-4.8c1.69-.48,2.28-1.14,1.2-2.71a.84.84,0,0,1-.05-.17c-.56-1.46-1-1.57-2.1-.42-2.6,2.74-4.84,5.79-7.58,8.4" transform="translate(-191.85 -273.12)"/><path class="cls-1" d="M257,286.42a2,2,0,0,0,1.3-1.17,9.11,9.11,0,0,0-1.83-2.52,2,2,0,0,0-1.24,1.3c-.18.4,1.29,2.34,1.77,2.39" transform="translate(-191.85 -273.12)"/><path class="cls-1" d="M397,436.91c-.41.49-1,1-.83,1.63s.89.3,1.37.39c.79.15,1.6.23,2.34.34.57,0,1.27.22,1.5-.32.49-1.17,1.51-1.86,2.24-2.79a54.24,54.24,0,0,1,5.72-6.63c2.82-2.57,3.22-3.59,1.56-6.92-.51-1-.95-1.24-1.72-.32l-5.49,6.57L397,436.91" transform="translate(-191.85 -273.12)"/><path class="cls-1" d="M381.16,387.19c-1.59,1.86-3.29,3.62-4.87,5.51-2.43,2.89-5.22,5.49-7.64,8.42-2,2.47-3.83,5.13-6,7.51-1.1,1.2-2.63,2.56-2.77,4-.37,3.94-.12,7.93-.12,11.91l.39.1c3.1-3.82,6.08-7.73,9.34-11.4,2-2.27,4.13-4.5,6-6.83,4.3-5.3,8.56-10.64,13-15.85.4-.47.77-1.13,1.54-.52s.42,1.23-.09,1.77a40.06,40.06,0,0,0-2.85,3c-2.34,3.1-4.95,6-7.39,9s-5.1,5.5-7.46,8.43c-3.32,4.14-7,8-10.14,12.28-.5.66-.62,1.09.21,1.66a30.06,30.06,0,0,0,4.48,2.55c.34.16.86.49,1.08,0,1-2.12,3-3.35,4.28-5.14,2.82-3.9,6.05-7.47,9-11.28,3.65-4.74,7.25-9.53,11.16-14.07.78-.91,2.28-1.78,2.14-2.94s-1.36-2.06-2.05-3.13a47.23,47.23,0,0,0-6.26-8.17c-.37-.37-.57-.89-1.19-.28-1.23,1.2-2.63,2.17-3.77,3.52" transform="translate(-191.85 -273.12)"/><path class="cls-1" d="M367.13,392.37c-2,2.27-4.41,4.24-5.86,7-.1.2-.3.51-.42.5-1.76-.25-1.19,1-1.23,1.87s-.06,1.85-.09,2.77h.11c0,1.33-.1,2.66-.1,4,0,.37-.19.92.32,1.05s.67-.35.93-.67q3.38-4.23,6.79-8.45c1.62-2,3.51-3.77,5.14-5.75,3.5-4.24,6.91-8.56,10.78-12.48.33-.34,1.31-.78.46-1.29-1.35-.82-1.53-3-3.55-2.94a.49.49,0,0,0-.29.17c-1,1-2.07,2-3,3.07q-5,5.55-10,11.16" transform="translate(-191.85 -273.12)"/><path class="cls-1" d="M386.44,435.51c-.39.54-.65.84.33,1.15,2,.63,4,1.15,6,1.63a1.44,1.44,0,0,0,1.93-.81,17.36,17.36,0,0,1,2.39-3.38c2.11-2.33,4-4.87,6.11-7.2,1.92-2.09,3.32-4.67,5.61-6.46.59-.46.4-.85.13-1.34a51.92,51.92,0,0,0-4.38-7.54,41.24,41.24,0,0,1-3,3.95c-5.91,6-10.3,13.16-15.11,20" transform="translate(-191.85 -273.12)"/><path class="cls-1" d="M382.2,413.16c-1.9,2.26-3.79,4.59-5.61,6.94-2.13,2.77-4.45,5.4-6.65,8.12-1,1.24-.82,1.73.71,2.39s2.82,1.26,4.32,1.75a1.64,1.64,0,0,0,2.23-.78c.77-1.08,1.69-2.05,2.47-3.12,1.49-2,3.57-3.56,5-5.67a48.05,48.05,0,0,1,4.45-5.47c2.53-2.75,4.89-5.66,7.45-8.38a28.66,28.66,0,0,0,1.93-2.66c.46-.64,1.11-1.29,1.87-.78s.36,1.34,0,1.93A6.91,6.91,0,0,1,399,409c-2.28,2.2-4.22,4.72-6.49,7-2.53,2.49-4.66,5.39-7,8.09a89.8,89.8,0,0,0-7,8.45c-.34.52-.59,1,.23,1.39,1.48.63,3,1.25,4.42,1.93.57.27.83.06,1.14-.36,2-2.67,4.16-5.23,5.93-8,3.36-5.31,7.71-9.84,11.24-15a6.22,6.22,0,0,1,2.31-2.46,2.6,2.6,0,0,0-.24-.58c-2.45-3.66-4.47-7.58-6.73-11.36-.51-.87-1.12-1.14-1.87-.17a42.91,42.91,0,0,1-2.85,3.46c-3.58,3.74-6.6,8-9.94,11.91" transform="translate(-191.85 -273.12)"/><path class="cls-1" d="M360.25,460.4c-3.1,1.27-6.17,2.67-9.62,2.73-.66,0-.93.6-1.33,1-1.79,1.84-2.75,4.28-4.49,6.14-1.58,1.7-2.59,3.78-4,5.6-.44.57-.87,1.2-.53,1.91s1.16.36,1.72.34c7-.27,13.76-2.23,20.55-3.83.66-.16,1.34-.45,1.63.35s-.53.9-1,1.07a68.93,68.93,0,0,1-15.07,3.19c-2.48.27-4.92.66-7.37,1.11a1.62,1.62,0,0,0-1.46,1.62,157.28,157.28,0,0,0-1.44,16.06c-.22,4.72,0,9.47,0,14.2a71.24,71.24,0,0,0,3.33,21c.3,1,.79,1.52,1.69,1.59a60.58,60.58,0,0,0,8.8.51c3.71-.24,7.47-.43,11-2a50.44,50.44,0,0,1,5.32-2.42c1.71-.5,1.35-1.61,1.35-2.64s-1.22-.84-1.63-1.33c.1-.47.35-.51.57-.52,1.47-.08,1.3-1.22,1.11-2-.24-1-1.06-.26-1.55-.14-1.8.43-3.51,1.14-5.33,1.54-3.27.73-6.61.9-9.92,1.34-3.55.48-7.09,1-10.59,1.78-.64.14-1.62.27-1.66-.69a1.3,1.3,0,0,1,1.5-1.42c9.09.06,17.86-2.07,26.63-4.14a1.28,1.28,0,0,0,1.13-1.45c0-2,0-3.94.1-5.91,0-.74-.14-.93-.87-.7-3,1-6.05,1.48-9.09,2.16-5.07,1.14-10.19,2-15.33,2.75-1.43.21-2.84.53-4.27.73a1,1,0,0,1-1.3-.85c-.08-.74.67-.71,1.12-.79,2.1-.38,4.2-.77,6.31-1,6.18-.8,12.41-1.58,18.33-3.47,6.23-2,4.94-.59,4.43-6.76,0-.12,0-.23,0-.35-.18-2.62-.19-2.65-2.67-1.79-3.47,1.19-7.11,1.5-10.67,2.22-4.82,1-9.69,1.64-14.52,2.56a1,1,0,0,1-1.2-.42,1.45,1.45,0,0,1,.08-1.49c.25-.47.63-.32,1-.19a3.37,3.37,0,0,0,1.19.08,132.69,132.69,0,0,0,23.14-4.22,8.59,8.59,0,0,0,2.77-.9c1-.72,0-1.79,0-2.71.15-4.82-.81-9.52-1.44-14.26-.21-1.56-.9-1.55-2.1-1.11a22.31,22.31,0,0,1-3.79,1.21c-6.38,1.08-12.9,1.13-19.24,2.51-.66.14-1.67.43-1.8-.71s.76-1.35,1.62-1.36c2.6,0,5.17-.26,7.75-.5a96.25,96.25,0,0,0,16.16-2.83c.92-.25,1.11-.67,1-1.42-.2-1.26-.46-2.5-.71-3.75-.76-3.72-1.38-7.48-2.53-11.21a16,16,0,0,1-2.08,1.08c-3.58,1.27-7.36,1.94-10.91,3.33a9.48,9.48,0,0,1-3.44.24c-.48,0-.71-.3-.69-.8s0-.91.56-.9c3,0,5.55-1.6,8.43-1.8a12.72,12.72,0,0,0,4.9-1.54c3-1.51,3-1.45,2.16-4.68-.31-1.23-.66-1.3-1.73-.86m-19.78,37.24c1.66.59,3.21-.17,4.77-.39,3.23-.46,6.42-1.3,9.62-2a9.06,9.06,0,0,1,2.22-.34c2.91.17,5.33-1.22,7.87-2.28.59-.25,1.31-1,1.81-.31s-.3,1.35-.94,1.89c-1.35,1.13-3.07.89-4.6,1.27-4.7,1.16-9.45,2.11-14.21,3-2.08.39-4.27.15-6,.79-1,.05-1.54-.12-1.57-.84a.8.8,0,0,1,1.06-.84" transform="translate(-191.85 -273.12)"/><path class="cls-1" d="M273.45,330.07c-4.36-.58-7.9-2.94-11.53-5.24,1.05,2.12,2.33,4.1,4.49,5.17a12.15,12.15,0,0,1,4.12,3c1.62,1.94,2.88,4.15,4.74,5.91s4.51,1.5,5.41-.79c1.39-3.55,2.49-7.22,5-10.39-3.75,3-8,2.88-12.24,2.31" transform="translate(-191.85 -273.12)"/><path class="cls-1" d="M248,295.57c1.83-1.1,1.29-2.17.18-3.45a6.1,6.1,0,0,0-.18,3.45" transform="translate(-191.85 -273.12)"/><path class="cls-1" d="M253.76,285.94c-.71.05-1.67.7-1.43,1.62s.11,1.9,1.06,2.25c.62-.06,2.38-2,2.23-2.35a2.09,2.09,0,0,0-1.86-1.52" transform="translate(-191.85 -273.12)"/><path class="cls-1" d="M247.48,299.72c0,1,0,1.92-.09,3.1,1.81-.89,1.68-2,1-3.22a.77.77,0,0,0-.52-.37c-.26,0-.35.25-.36.49" transform="translate(-191.85 -273.12)"/><path class="cls-1" d="M259.54,283.69a.54.54,0,0,0,.78-.07.59.59,0,0,0,.13-.3,8.21,8.21,0,0,0-2-2.66,1.14,1.14,0,0,0-.32.07c-.33.19-.61.6-.44.84a19.83,19.83,0,0,0,1.87,2.12" transform="translate(-191.85 -273.12)"/><path class="cls-1" d="M250.59,295.57c-.85-.16-1.64.92-1.74,1.79a1.83,1.83,0,0,0,1.56,1.94c1,.18,1.23-1,2-1.46-.54-.94-1-2.11-1.81-2.27" transform="translate(-191.85 -273.12)"/><path class="cls-1" d="M262.48,281.57c.56-.77,1.16-1.51,1.78-2.3-.76-.48-1.43-.17-2.08-.14-2.05.08-2.24.52-1.12,2.34.44.71.87.84,1.42.1" transform="translate(-191.85 -273.12)"/><path class="cls-1" d="M250.72,288.73c-.71,0-1.81.91-1.67,1.63s.81,2,1.73,2.16,1.31-.91,1.81-1.75c-.81-.59-.88-2-1.87-2" transform="translate(-191.85 -273.12)"/><path class="cls-1" d="M260.11,308.34a36.58,36.58,0,0,0-.18,9,6.62,6.62,0,0,0,1.84,4.41c4,3.85,8.61,6.52,14.36,6.67a10.46,10.46,0,0,0,3.44-.1c5.35-1.61,10.06-4.15,12.54-9.47,2.58-5.53,4.33-11.08.23-16.85a15.22,15.22,0,0,0-5.63-4.56c-2.32-1.23-5-1.44-7.56-1.75-2-.24-4-.65-6-.12A18,18,0,0,0,262,304.07a13,13,0,0,0-1.84,4.27m17.47-2.84c4.26.33,6.69,2.86,7,7.58.3,5-4.68,8.82-9.27,8.33a7.07,7.07,0,0,1-7.39-7.15c-.19-5.89,3.36-9.25,9.68-8.76" transform="translate(-191.85 -273.12)"/><path class="cls-1" d="M275.47,319.58c4.49,0,7.51-2.49,7.49-6.18,0-3.31-2.36-6.6-4.8-6.42-1.92.15-4.2-.68-5.68.85s-2.86,3.44-2.77,5.95c.13,3.6,2.22,5.79,5.76,5.8" transform="translate(-191.85 -273.12)"/><path class="cls-1" d="M263.59,282.41c-.53.48-1,.76-.52,1.52.75,1.31,1.21,1.34,2.16.09l.52-.69a1.11,1.11,0,0,1,1.32-.57.85.85,0,0,1,.72.85c0,.63-.51.77-1,1.06-.89.59-2.92.87-1,2.64.4.37.2,1-.23,1.4s-.81.06-1.15-.27a8.38,8.38,0,0,0-.66-.52l-.23.16.18.42c.3.62,1.29,1.18.57,1.93s-1.39.07-2-.43-.88,0-1.3.28c-.68.45-.56,1-.18,1.47a21.13,21.13,0,0,0,1.7,2,.78.78,0,0,1,.08,1.21.93.93,0,0,1-1.25.23,4.58,4.58,0,0,1-1.42-1.7c-.3-.44-.53-.87-1.22-.44-2.28,1.39-2.41,2.07-.62,4a3.66,3.66,0,0,0,1.56,1.33.83.83,0,0,1,.58,1.1,1.3,1.3,0,0,1-.9,1,.84.84,0,0,1-1-.48c-.5-1-1.61-1.59-2-2.74a.78.78,0,0,0-1.38-.33c-.5.45-1,.86-.19,1.5.26.2.4.56.64.81.71.77,2,1.68.66,2.59-1.1.74-1.63-.83-2.29-1.56-.33-.36-.27-1.14-.94-1.11s-.66.86-1.08,1.24-.21,1,.12,1.41c.67.87,1.34,1.74,2.06,2.56s.54,1.36-.13,1.77-1.26-.12-1.43-.79a7.34,7.34,0,0,0-1.6-2.64c-.43-.58-.79-.49-1.22.05-1.87,2.31-3.24,4.76-2.74,7.89a5.82,5.82,0,0,1,.08,1.38c-.63,10-.29,20-.2,30a44.29,44.29,0,0,0,.13,6.41c.19,1.26.71,1.51,2,1.43,6.24-.35,12.49-1,18.71-.77,12,.38,24.07.18,36.11.18,15.92,0,31.82.3,47.73.65a4.07,4.07,0,0,0,1.64-.36c1.92-.73,2.25-2.31,2.3-4,.19-6.12.32-12.24.5-18.37.13-4.39.11-8.8.49-13.17.29-3.43-1.28-5.66-3.81-7.51-1.6-1.16-3.24-2.25-3.13-4.58.15-2.84-1-4.58-3.73-5.89-3-1.44-5.72-3.55-5.64-7.57a9.17,9.17,0,0,0-.46-3.08c-.57-1.67-.7-3.64-2.67-4.74a4.22,4.22,0,0,0,0,2.31,13.36,13.36,0,0,1,0,3.46c0,.53-.32,1.07-1,1a.9.9,0,0,1-.82-1,66.31,66.31,0,0,0-.58-7.06c-.08-1.4-.53-1.64-1.69-1.64-4.91,0-9.83-.07-14.75-.07-12,0-23.93.61-35.9.85-5.33.1-10.64.5-16,.36-.41,0-1.43-.27-1.05.54.86,1.82-.68,2.23-1.53,3m44.28,22.17a13,13,0,0,1,1.84-3.49c3.34-5.28,8.32-7.74,14.33-8.49a11.11,11.11,0,0,1,6,1.21c3.64,1.67,7.24,3.51,9.35,7s3.74,7.09,2.93,11.46a24,24,0,0,1-4,10.2c-2.24,3-5,5.3-8.91,6-3.59.65-7.14,1.53-10.79.67a25.86,25.86,0,0,1-4.05-1.48c-1-.43-1.29-.47-1.33.88a61.53,61.53,0,0,1-.44,9c-.25,1.46-2.14,3.19-3.42,3.14s-2.4-1.71-2.5-3.43c-.3-5.25-1.13-10.48-.81-15.28,0-6.2.24-11.89,1.78-17.44m-28.05-10.22c1.56.38,3.21.43,4.78.78,7.83,1.76,12,7.2,11.6,15.41a20.08,20.08,0,0,1-1.49,7.56c-.71,1.79-2.21,3.25-3.06,5-1.76,3.6-4.8,6.25-6.85,9.62a10.46,10.46,0,0,0-1.52,3.82,10.66,10.66,0,0,1-1.56,3.84c-1.1,1.79-5,2.34-6.66.88a18.08,18.08,0,0,1-4-4.26,15.77,15.77,0,0,0-5.88-5.7,12.69,12.69,0,0,1-5.26-5.79,1,1,0,0,1-.18-.48c.31-3.11-1.58-5.71-2-8.66-.89-6.53.62-12.37,5.33-17s10.13-6.63,16.69-5" transform="translate(-191.85 -273.12)"/><path class="cls-1" d="M253.9,296.16a1.7,1.7,0,0,0,.84-1.19l-1-1.42c-.27-.38-.45-1.18-1.06-.62-.36.34-1.08.84-.57,1.61.28.44.55.87.84,1.3s.53.64,1,.32" transform="translate(-191.85 -273.12)"/><path class="cls-1" d="M256.64,289.12c-1,0-2.39,2.12-2,2.87,1.09,2.26,1.28,2.28,2.91.36.11-.13.23-.25.35-.37.34-.36.63-.8.22-1.21a5.93,5.93,0,0,1-1.46-1.65" transform="translate(-191.85 -273.12)"/><path class="cls-1" d="M262,286.8c.31.15.54-.05.72-.47a15.14,15.14,0,0,0-1.45-1.58c-.2-.17-.5.2-.49.52A1.81,1.81,0,0,0,262,286.8" transform="translate(-191.85 -273.12)"/><path class="cls-1" d="M259.38,286.51a1.59,1.59,0,0,0-1.52,1c-.16.42,1.47,2.55,1.87,2.45a1.43,1.43,0,0,0,1-1.42c.06-1-.68-1.6-1.4-2.07" transform="translate(-191.85 -273.12)"/><path class="cls-1" d="M360.86,535.3a33.42,33.42,0,0,1-18.22,1.1c-1-.2-2.19-.41-2.61-1.19-1.21-2.16-1.52-.56-1.86.37a78.08,78.08,0,0,0-3.51,13.56c-.43,2.43.6,4.22,3,4.56,2.18.31,4.27.94,6.41,1.42,2.49.55,5.05,1.11,7.56.64,5.29-1,10.74-1.21,15.87-3.13a46,46,0,0,0,6.56-2.48,2.36,2.36,0,0,0,1.4-2.67c-.79-5.25-1.19-10.55-2.31-15.75a4.13,4.13,0,0,0-1.74-2.63c-.65.63,0,1.65-.89,2-1.73.76-3,2.2-4.84,2.89-1.59.59-3.25.7-4.83,1.26" transform="translate(-191.85 -273.12)"/><path class="cls-1" d="M308.64,316.37c.77,3.88,3.14,6.75,6,9.23a10.78,10.78,0,0,0,7.31,2.43c6-.75,11.9-1.51,15.66-7.39a19.23,19.23,0,0,0,2.83-12.56c-.58-5.39-3.94-9.26-8.89-11.94-5.17-2.81-10.11-1.85-14.81.42-3.76,1.82-5.91,5.45-7.38,9.39a13,13,0,0,0-.59,7.5c.22,1-.29,1.9-.09,2.92m8.83-7a8.48,8.48,0,0,1,1.7-1.93c.49-.45,1.21-.74.41-1.75-.5-.62.57-1.07,1.14-1.3a8.59,8.59,0,0,1,3.53-.41,7.63,7.63,0,0,1,7.33,6c.12.57.21,1.14.32,1.71.57,3.16-.6,5.11-3.2,7-2.25,1.65-4.44,1.61-6.84,1-3.22-.88-6.78-6.18-4.39-10.27" transform="translate(-191.85 -273.12)"/><path class="cls-1" d="M351.82,461c.18.06.35.18.49.14,2.43-.67,4.84-1.39,7.28-2,1.2-.31,1.5-1.08,1-2a42.42,42.42,0,0,1-1.46-4.19c-.48-1.19-1.05-1.21-1.76-.13-1.23,1.87-2.57,3.68-3.74,5.59-.56.91-1.75,1.37-1.81,2.65" transform="translate(-191.85 -273.12)"/><path class="cls-1" d="M266.5,525.29c.44-1.14-.14-1.25-1.1-1a21.55,21.55,0,0,1-6,.77c-6.48.1-12.94-.24-19.39-.78-1.52-.13-1.67.41-1.39,1.66.36,1.62.9,3.18.46,4.94-.28,1.15.54,2,1.8,2.37a27.55,27.55,0,0,0,6.52.66c4.48.25,8.94.12,13.17-1.48,1.61-.61,4.52.23,4.32-3.06,1.8-.87,1.08-2.74,1.6-4.12" transform="translate(-191.85 -273.12)"/><path class="cls-1" d="M267.28,521.19c0-2,.11-3.92.26-5.87.1-1.21-.28-1.12-1.26-.85a27.06,27.06,0,0,1-5.26,1c-6.45.44-12.9.75-19.36,1.12-3.8.22-3.76.23-3.51,4.06.08,1.21.63,1.84,1.77,1.91,4,.27,8,1.31,10.33,1.1,6.38-.12,11.06.55,15.66-.82.93-.28,1.35-.63,1.37-1.62" transform="translate(-191.85 -273.12)"/><path class="cls-1" d="M338.82,475.8c1.91-2.85,4-5.54,6.07-8.31a35.62,35.62,0,0,0,2.93-4.42,2.41,2.41,0,0,1,.77-1.12,8.74,8.74,0,0,0,2.74-3.47c1.32-2.57,3.47-4.58,4.62-7.24.21-.49,1-.85.64-1.46s-1.06-.28-1.61-.29c-6.77-.15-13.53,0-20.29-.46q-10.81-.75-21.66-.54c-12.42.25-24.84.57-32.61.75-14.12-.28-23.56.07-33,1.25-.45.06-1.1-.15-1.25.35s.32,1,.66,1.34c1.5,1.73,3.13,3.42,4.46,5.21,2.8,3.77,6.41,6.81,9,10.76,1.68,2.55,4.24,4.52,6.37,6.78a1.81,1.81,0,0,0,1.55.56c2.66-.12,5.32-.16,8-.37,7.44-.58,14.9-.24,22.35-.44,8.5-.22,17,.79,25.46,1,3.72.07,7.48,0,11.16,1.08,1.15.32,2.62.51,3.59-.93" transform="translate(-191.85 -273.12)"/><path class="cls-1" d="M240.58,485.8c2.89,0,5.78-.13,8.66-.08,5,.09,10-1,15.06-.69,1.48.09,1.95-.29,1.83-1.81-.25-3.12-.17-3-3.18-3-6.75.13-13.51.16-20.28.21a16.23,16.23,0,0,1-2.06-.23c-.64-.09-1.37-.18-1.26-1.07s.91-.93,1.48-.75c3.4,1,6.93-.11,10.23.66,4.33.09,8.51-.61,12.71-.79.5,0,1.22.09,1.29-.81.22-2.73-3.43-6.07-6.09-5.59a12.09,12.09,0,0,1-2.25.13c-5.2-.05-10.41-.06-15.61-.2-1.28,0-1.6.41-1.56,1.56.13,3.48-.79,6.87-.92,10.34-.08,1.85.61,2.09,2,2.09" transform="translate(-191.85 -273.12)"/><path class="cls-1" d="M267.62,532.16c-1.15,1.08-2.66,1.09-4,1.59-6.45,2.5-13.22,2.31-20,1.69-2.26-.2-4.93.07-5.91-2.86a1.3,1.3,0,0,0-.7,1,59.82,59.82,0,0,1-4,9.34c-2.94,5.83.14,10.28,4.9,12.1,6.45,2.46,13.09,1.14,19.64.06,2.62-.43,4.87-2,7.41-2.74a10.15,10.15,0,0,0,3.39-1.19c1.15-.86,2.92-1.24,3.16-2.87a9.34,9.34,0,0,0-.4-4.11,44.17,44.17,0,0,1-1.56-7.8c-.14-1.15-.27-2.3-.51-3.43-.17-.8-.88-1.37-1.52-.77" transform="translate(-191.85 -273.12)"/><path class="cls-1" d="M266,505.16A129.68,129.68,0,0,1,241.69,507a14.47,14.47,0,0,1-3.43-.16c-.91-.24-1,0-1,.73.09,2,.19,4,.2,6.06,0,1.18.58,1.47,1.64,1.4,1.32-.08,2.65,0,4-.08a126.1,126.1,0,0,0,21.69-1.83,19.5,19.5,0,0,0,1.93-.72,1.1,1.1,0,0,0,.84-1.3c-.07-1.55-.19-3.11-.13-4.67,0-1.19-.33-1.45-1.5-1.25" transform="translate(-191.85 -273.12)"/><path class="cls-1" d="M243.88,464.08l8.84-.41c.39,0,.91.11,1.11-.3s-.33-.79-.6-1.13c-2.16-2.63-4.58-5-6.62-7.75-.58-.78-1.09-2.34-2-2-.67.21-1,1.8-1.29,2.83-1.18,4.35-1.72,8.86-3.07,13.17-.24.77.11,1,.78,1.2,2.15.68,4.37.24,6.54.48,1.39,0,2.77.12,4.16.11,2.25,0,4.51-.09,6.75-.2,1-.05,1.31-.61.48-1.28a37.59,37.59,0,0,1-2.53-2.83,1.87,1.87,0,0,0-1.59-.82c-3.22.23-6.48-.14-9.67.63a2.33,2.33,0,0,1-1.54-.07c-.47-.21-1.09-.4-1-1s.75-.54,1.27-.56" transform="translate(-191.85 -273.12)"/><path class="cls-1" d="M238.48,504.75c9.16.87,18.25,0,27.34-1,1-.11,1.42-.57,1.36-1.58-.07-1.39-.15-2.78-.1-4.17,0-1.15-.39-1.48-1.51-1.43q-10.47.5-21,.89c-1.67.06-3.35,0-5,0-.75,0-1-.52-.93-1.17s.6-.76,1.16-.65a32.8,32.8,0,0,0,6.64.17c6.77.15,13-.5,19.33-.88.78,0,1.29-.26,1.3-1.22a35.05,35.05,0,0,0-.36-5.88c-.12-.81-.45-1.13-1.37-1.13-8.74,0-17.42,1.42-26.17,1.06-.68,0-1.11.12-1.14.9q-.36,7.46-.77,14.92c-.05.95.37,1.12,1.21,1.2" transform="translate(-191.85 -273.12)"/><path class="cls-2" d="M191.87,466.64c-.15,2.7.37,3.83,2.43,4.73a11.44,11.44,0,0,0,5.74.82c2.72-.25,5.29-1.18,8-1.47a4.74,4.74,0,0,0,2.1-.76c1.51-1,2.78-2.39,4.46-3.23a3.69,3.69,0,0,0,1.65-2.34c1.08-3.18.06-5.87-1.64-8.49-.55-.86-1.73-1.72-1.49-2.6.32-1.17,1.88-.81,2.88-1.05,3.85-.9,7-3.12,10.24-5.17a62.26,62.26,0,0,0,5.66-3.83c2.19-1.73,4.85-2.91,6.59-5.2.24-.3.55-.69,1-.54s.31.68.4,1.05a4.4,4.4,0,0,1,.12,1c0,5.17.7,10.37-.87,15.49-.74,2.41-1.12,4.93-1.67,7.4-.61,2.75-1.46,5.44-1.88,8.26-.47,3.25-1,6.5-1.59,9.72a108.35,108.35,0,0,0-1.23,14.8c-.24,4.95.09,9.93.2,14.89a107.6,107.6,0,0,0,1,12.8c.29,2,.86,4.27.35,6.14-1.23,4.5-3.71,8.54-5.37,12.89-.77,2-2.09,3.9-1.4,6.27,1.33,4.6,4.56,7.45,8.65,9.49,3.39,1.68,7.1,1.35,12.39,1.74,4.45.63,10.26-.89,16-2.73,1.45-.47,3.27-.68,4.25-1.61,1.62-1.53,3.76-1.79,5.48-3s2.81-2.2,2.26-4.41c-.74-3-1-6-1.53-9-.29-1.5-1.24-2.76-1.28-4.3a7,7,0,0,0-2.08-4.82,2,2,0,0,1-.56-1.87,71.64,71.64,0,0,0,.93-12.76c-.18-4.26,0-8.54-.36-12.78-.41-4.77-.51-9.54-.57-14.32a38.3,38.3,0,0,0-.4-5.35c-.29-1.88.15-2.47,2-2.12,2.34.42,4.68-.07,7-.13,2.74-.06,5.53-.24,8.26-.17,4.16.1,8.3-.15,12.44-.11,4.48.05,9-.24,13.44-.23a101.08,101.08,0,0,1,10.88.47c2.74.3,5.53.14,8.23.88.74.21.95.46,1,1.38.17,2.29-.43,4.49-.46,6.74-.07,5-.24,10-.28,15.07a174.8,174.8,0,0,0,1,24.42c.3,2.26,1,4.48-.58,6.58-.32.42-.25,1.11-.4,1.67-1.15,4.47-2.28,9-3.49,13.4a2.13,2.13,0,0,0,.61,2.37c2.1,1.66,3.93,3.74,6.67,4.47a72.35,72.35,0,0,0,10.9,1.93c2.61.28,5.33.66,7.9-.32a8.65,8.65,0,0,1,3.56-.58,11,11,0,0,0,4.21-.84,37.58,37.58,0,0,1,7.16-2,8.09,8.09,0,0,0,5.15-2.09,9,9,0,0,1,2.41-1.94c1.26-.61,1.3-1.62,1.36-2.72.07-1.48-.51-2.85-.64-4.28a96.17,96.17,0,0,0-1.64-13.2,6.92,6.92,0,0,0-2.44-4.4,2.74,2.74,0,0,1-1.35-2.28c.07-5.84.12-11.68,0-17.51-.13-9.23-2.42-18.21-3.28-27.35-.57-6-2.65-11.7-3.51-17.66-.61-4.23-2.8-8.05-3.56-12.26-.49-2.71-1.49-5.35-1.19-8.19.27-2.52.39-5.06.57-7.59.07-.93.22-1.51,1.33-.72a22.08,22.08,0,0,0,6.47,3.15c1.76.54,3.39,1.4,5.07,2.08,5,2,10,4.18,15.22,5.31,4.61,1,9.38,1.92,14.2,1.1,1.29-.22,1.87-.05,2,1.57a16.29,16.29,0,0,0,1,6.13,47.25,47.25,0,0,0,3,5.83c1.3,2,3,3.88,5.72,3.43a19.74,19.74,0,0,0,5-1.34c5-2.26,8.63-6.05,12.17-10.06,1.62-1.84,1.49-3.87,1.39-6a1.72,1.72,0,0,0-.83-1.45c-2.47-1.57-4.24-3.93-6.63-5.67-2.9-2.12-5.52-4.47-9.21-5-.62-.1-.87-.36-.54-.91.51-.87.06-1.55-.16-2.4-.44-1.64-1.5-3-1.82-4.65-.75-3.84-3.11-7-4.47-10.59a53.7,53.7,0,0,0-6-10.91c-.8-1.19-1.25-2.63-2.13-3.74-2.43-3.07-3.93-6.71-6.25-9.85-1.7-2.3-2.93-5-4.7-7.18s-3.35-4.42-5.24-6.48c-4.85-5.3-9.07-11.16-14.72-15.72-2.29-1.84-4.1-4.22-6.55-5.89-2-1.35-3.85-2.86-5.84-4.18a1.6,1.6,0,0,1-.88-1.69c.31-2.65,0-5.32.08-8,.1-3.81.25-7.62.37-11.42.16-5.19.33-10.38.65-15.56.34-5.42.69-10.83.68-16.26,0-2.13,0-4.27-.12-6.4-.19-4.33-.47-8.66-.66-13-.07-1.73-.78-2.33-2.39-1.76-.48.17-1.05.62-1.29-.13-.51-1.52-1.69-1.37-2.85-1.31-3.44.17-6.83-.57-10.29-.44-2.14.08-4.37-.21-6.51-.19-4.61,0-9.23-.14-13.82-.31-3.31-.12-6.62.1-9.95-.16s-6.85.39-10.3.23a19,19,0,0,0-4.13.16,41.43,41.43,0,0,1-8.6.44c-7.93-.26-15.84.18-23.74.6-6.79.36-13.59.21-20.38.64-1.13.07-1.76.45-1.68,1.63,0,.47.17,1-.43,1.14-1,.19-.87.94-.89,1.6-.07,1.85.14,3.69,0,5.55-.38,4.55-.15,9.11-.3,13.67-.13,3.78-.11,7.6-.38,11.39-.5,7-.58,14.09-.73,21.15-.12,5.36-.86,10.71-.63,16.1,0,1,.37,2.16-.21,3.23-1.81,3.32-5,5.7-6.38,9.31a3,3,0,0,1-.5.7,57.09,57.09,0,0,0-3.52,4.56,69.86,69.86,0,0,1-4.65,6.58,98.43,98.43,0,0,0-7,10.84c-1.83,3-3.53,6.13-5.29,9.19a100.12,100.12,0,0,0-5.32,11c-.59,1.4-1.73,2.48-2.05,4A46.39,46.39,0,0,1,203,415.2c-2,4.73-3.19,9.74-5,14.54a59.26,59.26,0,0,0-2.57,9.3,48.61,48.61,0,0,0-1.42,8.88c0,1.54.11,3.38,1.57,4.19,1.19.65.69.95.35,1.72-1.82,4.12-3.78,8.19-4,12.81m47.68,6.73c0-1.15.28-1.59,1.56-1.56,5.2.14,10.41.15,15.61.2a12.09,12.09,0,0,0,2.25-.13c2.66-.48,6.31,2.86,6.09,5.59-.07.9-.79.78-1.29.81-4.2.18-8.38.88-12.71.79-3.3-.77-6.83.38-10.23-.66-.57-.18-1.38-.15-1.48.75s.62,1,1.26,1.07a16.23,16.23,0,0,0,2.06.23c6.77,0,13.53-.08,20.28-.21,3-.06,2.93-.15,3.18,3,.12,1.52-.35,1.9-1.83,1.81-5-.3-10,.78-15.06.69-2.88-.05-5.77.07-8.66.08-1.35,0-2-.24-2-2.09.13-3.48,1.05-6.86.92-10.34m4-7.7a2.33,2.33,0,0,0,1.54.07c3.19-.77,6.45-.4,9.67-.63.8-.06,1.16.39,1.6.82a35.39,35.39,0,0,0,2.52,2.83c.83.67.51,1.23-.47,1.28-2.25.11-4.51.17-6.76.2-1.39,0-2.77-.07-4.16-.11-2.17-.24-4.39.2-6.54-.48-.67-.22-1-.43-.78-1.2,1.36-4.31,1.89-8.82,3.07-13.17.28-1,.62-2.62,1.29-2.83,1-.3,1.46,1.26,2,2,2,2.73,4.46,5.12,6.62,7.75.28.34.85.6.6,1.13s-.72.28-1.11.3c-2.95.14-5.89.29-8.84.41-.52,0-1.16-.11-1.27.56s.51.82,1,1m-5.55,23c0-.78.46-.92,1.14-.9,8.75.36,17.43-1,26.17-1.06.92,0,1.25.32,1.37,1.13a35.05,35.05,0,0,1,.36,5.88c0,1-.52,1.17-1.3,1.22-6.29.38-12.56,1-19.33.88a32.8,32.8,0,0,1-6.64-.17c-.56-.11-1.09-.06-1.16.65s.18,1.17.93,1.17c1.68,0,3.36.05,5,0q10.48-.41,21-.89c1.12,0,1.55.28,1.51,1.43-.05,1.39,0,2.78.11,4.17.05,1-.37,1.46-1.37,1.58-9.09,1-18.18,1.91-27.34,1-.84-.08-1.26-.25-1.21-1.2.28-5,.52-9.94.77-14.92m22.54,43.84c-4.23,1.6-8.69,1.73-13.17,1.48a27.69,27.69,0,0,1-6.53-.66c-1.25-.35-2.08-1.22-1.79-2.37.44-1.76-.1-3.32-.46-4.93-.28-1.26-.13-1.8,1.39-1.67,6.45.54,12.91.88,19.39.78a21.55,21.55,0,0,0,6-.77c1-.29,1.54-.18,1.1,1-.52,1.38.2,3.25-1.6,4.12.2,3.29-2.71,2.45-4.32,3.06m5.33-9.66c-4.6,1.37-9.28.7-15.66.82-2.34.21-6.3-.83-10.33-1.1-1.14-.07-1.69-.7-1.77-1.91-.25-3.83-.28-3.84,3.51-4.06,6.46-.37,12.91-.68,19.36-1.12a27.06,27.06,0,0,0,5.26-1c1-.27,1.36-.36,1.26.85-.15,1.95-.23,3.91-.26,5.87,0,1-.44,1.34-1.37,1.62m.83-10.43a19.5,19.5,0,0,1-1.93.72,126.1,126.1,0,0,1-21.69,1.83c-1.33,0-2.66,0-4,.08-1.06.07-1.63-.22-1.64-1.4,0-2-.11-4-.2-6.06,0-.76,0-1,1-.73a15,15,0,0,0,3.43.16A129.68,129.68,0,0,0,266,505.16c1.17-.2,1.53.06,1.49,1.25-.05,1.56.07,3.12.14,4.67a1.11,1.11,0,0,1-.84,1.3m2.91,24a44.17,44.17,0,0,0,1.56,7.8,9.34,9.34,0,0,1,.4,4.11c-.24,1.63-2,2-3.16,2.87a10.15,10.15,0,0,1-3.39,1.19c-2.54.76-4.8,2.31-7.41,2.74-6.55,1.08-13.19,2.4-19.65-.06-4.75-1.81-7.83-6.27-4.89-12.1a59.82,59.82,0,0,0,4-9.34,1.3,1.3,0,0,1,.7-1c1,2.93,3.65,2.66,5.91,2.86,6.74.62,13.51.81,20-1.69,1.3-.5,2.81-.51,4-1.6.63-.59,1.35,0,1.52.78.24,1.13.37,2.28.51,3.43m65.58-59.63c-3.68-1-7.44-1-11.16-1.08-8.49-.18-17-1.19-25.46-1-7.45.2-14.91-.14-22.35.44-2.65.21-5.31.25-8,.37a1.81,1.81,0,0,1-1.55-.56c-2.13-2.26-4.69-4.23-6.37-6.78-2.62-3.95-6.23-7-9-10.76-1.33-1.79-3-3.48-4.46-5.21-.34-.39-.81-.85-.66-1.34s.81-.29,1.25-.35c9.39-1.18,18.83-1.53,33-1.25,7.77-.18,20.18-.5,32.61-.75q10.83-.21,21.66.54c6.76.47,13.52.31,20.29.46.55,0,1.29-.27,1.61.29s-.43,1-.64,1.46c-1.15,2.66-3.3,4.67-4.62,7.24a8.74,8.74,0,0,1-2.74,3.47,2.41,2.41,0,0,0-.77,1.12,35.62,35.62,0,0,1-2.93,4.42c-2,2.77-4.16,5.46-6.07,8.31-1,1.44-2.44,1.25-3.59.93m22.14-24c.71-1.07,1.28-1,1.77.14a42.35,42.35,0,0,0,1.45,4.19c.5,1,.2,1.72-1,2-2.44.64-4.85,1.36-7.28,2-.14,0-.31-.08-.49-.14.06-1.28,1.25-1.74,1.81-2.65,1.18-1.91,2.51-3.72,3.74-5.6m14.05,76.39a4.1,4.1,0,0,1,1.74,2.63c1.13,5.2,1.52,10.5,2.32,15.75a2.38,2.38,0,0,1-1.41,2.67,46,46,0,0,1-6.56,2.48c-5.13,1.92-10.58,2.14-15.87,3.13-2.52.47-5.07-.09-7.56-.64-2.14-.48-4.23-1.11-6.41-1.42-2.41-.34-3.44-2.13-3-4.57a78.2,78.2,0,0,1,3.51-13.55c.34-.93.65-2.53,1.85-.37.44.78,1.65,1,2.62,1.19a33.52,33.52,0,0,0,18.22-1.09c1.58-.57,3.24-.68,4.83-1.27,1.84-.69,3.11-2.13,4.84-2.89.9-.4.24-1.42.89-2M362,461.26c.81,3.23.88,3.17-2.16,4.68a12.72,12.72,0,0,1-4.9,1.54c-2.88.2-5.47,1.84-8.43,1.8-.52,0-.56.47-.56.9s.21.81.69.8a9.48,9.48,0,0,0,3.44-.24c3.55-1.39,7.33-2.06,10.91-3.33a17.4,17.4,0,0,0,2.08-1.08c1.15,3.73,1.76,7.49,2.53,11.21.25,1.25.51,2.49.71,3.75.11.75-.08,1.17-1,1.42a96.25,96.25,0,0,1-16.16,2.83c-2.58.24-5.15.49-7.75.5-.86,0-1.74.28-1.62,1.36s1.14.85,1.8.71c6.34-1.38,12.86-1.43,19.24-2.51a22.31,22.31,0,0,0,3.79-1.21c1.2-.44,1.89-.45,2.1,1.11.63,4.74,1.59,9.44,1.44,14.26,0,.92,1,2,0,2.71a8.59,8.59,0,0,1-2.77.9,132.69,132.69,0,0,1-23.14,4.22,3.37,3.37,0,0,1-1.19-.08c-.42-.13-.8-.28-1,.19a1.45,1.45,0,0,0-.08,1.49,1,1,0,0,0,1.2.42c4.83-.92,9.7-1.59,14.52-2.56,3.56-.71,7.2-1,10.67-2.22,2.48-.86,2.49-.83,2.67,1.79,0,.12,0,.23,0,.35.51,6.17,1.8,4.76-4.43,6.76-5.92,1.89-12.15,2.67-18.33,3.47-2.11.27-4.21.66-6.31,1-.45.09-1.2,0-1.12.79a1,1,0,0,0,1.3.85c1.43-.2,2.84-.52,4.27-.73,5.13-.76,10.26-1.61,15.33-2.75,3-.68,6.11-1.21,9.09-2.16.73-.23.9,0,.87.7-.08,2-.1,3.94-.1,5.91a1.28,1.28,0,0,1-1.13,1.45c-8.77,2.07-17.54,4.2-26.63,4.14-1.15,0-1.53.7-1.49,1.42,0,1,1,.83,1.65.69,3.5-.8,7-1.3,10.59-1.78,3.31-.44,6.65-.61,9.92-1.33,1.82-.41,3.53-1.11,5.33-1.55.49-.12,1.31-.9,1.55.14.19.82.36,2-1.11,2-.22,0-.47,0-.57.52.41.49,1.63.39,1.63,1.33s.36,2.14-1.35,2.64a50.44,50.44,0,0,0-5.32,2.42c-3.55,1.54-7.31,1.73-11,2a60.58,60.58,0,0,1-8.8-.51c-.9-.07-1.39-.58-1.7-1.59a71.55,71.55,0,0,1-3.32-21c0-4.73-.19-9.48,0-14.2a157.28,157.28,0,0,1,1.44-16.06,1.62,1.62,0,0,1,1.46-1.62c2.45-.45,4.89-.84,7.37-1.11a68.93,68.93,0,0,0,15.07-3.19c.5-.17,1.32-.25,1-1.07s-1-.51-1.63-.35c-6.79,1.6-13.52,3.56-20.55,3.83-.56,0-1.37.4-1.72-.35s.09-1.33.53-1.9c1.4-1.82,2.41-3.9,4-5.59,1.74-1.87,2.7-4.31,4.49-6.15.4-.41.67-1,1.33-1,3.45-.06,6.52-1.46,9.62-2.73,1.07-.44,1.42-.37,1.73.86m62.08-24.45c1.62,1.32,3.29,2.66,5,3.86a12.9,12.9,0,0,1,3.38,3.33c1.46,2.09,1.36,3.44-.17,5.49a54.84,54.84,0,0,1-6,6.12c-2.6,2.51-6.08,3.61-9.56,4.49a1.79,1.79,0,0,1-1.74-.53c-4.27-4-5.79-9.23-6.43-14.6.62-3.22.54-6.36,2.71-8.88a5.45,5.45,0,0,1,4-2.16,12.66,12.66,0,0,1,8.8,2.88m-10.16-6.89a.84.84,0,0,0,.05.17c1.08,1.57.49,2.23-1.2,2.71a6.78,6.78,0,0,0-4.64,4.79c-.54,2-1.68,1.84-3.08,1.91-.44-.1-1.1.19-1.4-.3s.25-1,.59-1.3c2.74-2.61,5-5.66,7.58-8.4,1.09-1.15,1.54-1,2.1.42m-3-7.31c1.66,3.33,1.26,4.35-1.56,6.92a52.49,52.49,0,0,0-5.71,6.63c-.74.93-1.76,1.62-2.26,2.79-.22.54-.92.29-1.49.32-.74-.11-1.55-.19-2.34-.34-.48-.09-1.23.25-1.37-.39s.42-1.14.83-1.63l6.69-8,5.49-6.58c.77-.92,1.21-.69,1.72.32m-2-3.51c.26.49.45.88-.14,1.34-2.29,1.79-3.69,4.37-5.61,6.46-2.14,2.33-4,4.87-6.11,7.2a17,17,0,0,0-2.39,3.38,1.44,1.44,0,0,1-1.93.81c-2-.48-4-1-6-1.63-1-.31-.72-.61-.33-1.15,4.81-6.84,9.2-14,15.11-20a41.24,41.24,0,0,0,3-3.95A52.92,52.92,0,0,1,409,419.1M396.86,398c2.26,3.78,4.28,7.7,6.73,11.36a2.6,2.6,0,0,1,.24.58,6.22,6.22,0,0,0-2.31,2.46c-3.53,5.17-7.88,9.7-11.24,15-1.77,2.81-3.95,5.37-5.93,8-.31.42-.57.64-1.14.36-1.45-.69-2.94-1.3-4.42-1.93-.82-.35-.58-.87-.23-1.39a89.8,89.8,0,0,1,7-8.45c2.33-2.7,4.46-5.6,7-8.09,2.27-2.23,4.21-4.75,6.49-7a6.91,6.91,0,0,0,1.39-1.53c.32-.59.6-1.5,0-1.93s-1.4.14-1.87.78a28.66,28.66,0,0,1-1.93,2.66c-2.56,2.72-4.92,5.63-7.45,8.38a48.94,48.94,0,0,0-4.45,5.47c-1.44,2.11-3.52,3.62-5,5.67-.78,1.07-1.7,2-2.47,3.11a1.64,1.64,0,0,1-2.23.79c-1.49-.49-2.89-1.13-4.32-1.75s-1.71-1.15-.71-2.39c2.2-2.72,4.51-5.35,6.65-8.12,1.82-2.35,3.71-4.68,5.61-6.94,3.34-4,6.36-8.17,9.94-11.91a42.91,42.91,0,0,0,2.85-3.46c.75-1,1.36-.7,1.87.17m-10.74-14a47.23,47.23,0,0,1,6.26,8.17c.69,1.07,1.92,2,2.05,3.13s-1.36,2-2.14,2.94c-3.91,4.54-7.51,9.33-11.16,14.07-2.94,3.81-6.17,7.38-9,11.28-1.3,1.79-3.32,3-4.28,5.14-.22.5-.74.17-1.08,0a30.06,30.06,0,0,1-4.48-2.55c-.83-.57-.71-1-.21-1.66,3.18-4.26,6.82-8.14,10.14-12.28,2.36-2.93,5.11-5.53,7.46-8.43s5.05-5.9,7.39-9a40.06,40.06,0,0,1,2.85-3c.51-.54.87-1.15.09-1.77s-1.14.05-1.54.52c-4.41,5.21-8.67,10.55-13,15.85-1.9,2.33-4,4.56-6,6.83-3.26,3.67-6.24,7.58-9.34,11.4l-.39-.1c0-4-.25-8,.12-11.91.14-1.41,1.67-2.77,2.77-4,2.18-2.38,4-5,6-7.51,2.42-2.93,5.21-5.53,7.64-8.42,1.58-1.89,3.28-3.65,4.87-5.51,1.14-1.35,2.54-2.32,3.77-3.52.62-.61.82-.09,1.19.28m-5.71-6c2-.07,2.2,2.12,3.55,2.94.85.51-.13.95-.46,1.29-3.87,3.92-7.28,8.24-10.78,12.48-1.63,2-3.52,3.76-5.14,5.75q-3.42,4.21-6.79,8.45c-.26.32-.5.77-.93.66s-.33-.67-.32-1c0-1.33.06-2.66.1-4h-.11c0-.92,0-1.85.09-2.77s-.53-2.12,1.23-1.87c.12,0,.32-.3.42-.5,1.45-2.75,3.84-4.72,5.86-7q5-5.61,10-11.16c1-1.07,2-2,3-3.07a.49.49,0,0,1,.29-.17m-3.81-6a33.15,33.15,0,0,1,2.56,3.27c1.13,1.94-1.26,2.08-1.92,3-1.88,2.72-4.28,5.07-6.4,7.63-2.95,3.55-6.08,6.94-9.26,10.28a8.48,8.48,0,0,0-1,1.59c-.18.29-.36.68-.76.58s-.33-.55-.33-.88c-.06-2.37-.1-4.74-.15-7.33.08-.85-.31-2.21,1.47-2.26.93-2.28,3.22-3.44,4.44-5.4a22.28,22.28,0,0,1,2.54-3,98.26,98.26,0,0,1,7.24-7.63c.77-.7,1-.58,1.55.1m-5.27-5.44c1.37.65,2.31,2.05,3.31,3.24.17.21,0,.38-.21.54-5.38,4.07-8.68,10.05-13.46,14.67-.38.37-.6,1.19-1.26.93s-.21-.93-.24-1.42c-.14-2-.24-3.93-.37-6.23,0-.05,0-.66.52-.54,1.44.34,1.72-.8,2.29-1.62,2-2.79,4.66-4.9,6.89-7.44.15-.17.41-.26.52-.45.47-.85.94-2.19,2-1.68m-4.8-4.69c.92,1,2.48,1.83,2.77,3s-1.5,1.94-2.21,3c-2,3.13-5.13,5.35-7.27,8.41-.12.17-.36.26-.8.56a69.9,69.9,0,0,1-.41-7.62c0-.77.68-1.18,1-1.75a26.13,26.13,0,0,1,5.16-5.75,1,1,0,0,1,1.72.14m-4.06-3.62c1.59,1.12,1.58,1.91.2,3.24-1.18,1.14-2.06,2.61-3.41,3.62-.26.2-.43.65-.83.48s-.34-.59-.35-.92a43.61,43.61,0,0,0-.56-6c-.25-1.66-1.06-3.15-1.18-5.34,2.22,1.81,4.09,3.5,6.13,4.94m-5,24.36c.06,8.85.26,17.69.31,26.54,0,8.15.21,16.29-.24,24.44a125.64,125.64,0,0,0,.31,13c.06,1.23-.32,1.49-1.43,1.47-7-.14-14,.19-21-.34a312,312,0,0,0-32.51-.3c-7.11.22-14.22.27-21.33.39-11.09.18-22.18.39-33.26.91-3.78.17-3.8.26-3.83-3.54,0-1.5.08-3,.12-4.51-.1-5.54-.08-11.07-.09-16.6s-.18-11.33-.13-17c.07-7.22-.21-14.43.21-21.66.28-4.84.22-9.72.59-14.56.29-3.75.43-7.49.49-11.25,0-2.59,1.24-4.91,1.64-7.42.16-1,1.24-1,2-1.09a74.18,74.18,0,0,1,7.43-.62c2.37,0,4.74-.07,7.11-.14,9.07-.25,18.15.43,27.22.36,8.91-.06,17.82-.12,26.72,0,8,.08,16.06-.13,24.08.56,2.93.25,5.89,0,8.82.45,2.73.44,2.94.73,3.76,3.28,2.92,9,2.95,18.33,3,27.64M336.9,278.13c.22-.65.78-.28,1.2-.25,4.67.34,9.33.72,14,1,3.31.22,4,.76,4.18,4.13.29,5.82.45,11.64.64,17.47.07,2.07.09,4.15.09,6.22a1.42,1.42,0,0,1-.56,1.46c-.49-2.22-2.2-3.09-4-3.87a1.37,1.37,0,0,1-.83-1.22,5.34,5.34,0,0,1-.15-1c.41-4.28-2.11-6.57-5.57-8.17-2.57-1.19-3.67-3.36-4.31-5.91a23.77,23.77,0,0,1-.77-3.88c-.17-2.37-1.56-3.67-3.21-4.93-.36-.27-.9-.49-.7-1.05m-71.78,1.3c-.38-.8.64-.55,1.05-.54,5.33.14,10.64-.26,16-.37,12-.23,23.93-.87,35.9-.84,4.92,0,9.84.06,14.75.07,1.16,0,1.61.24,1.69,1.64a66.31,66.31,0,0,1,.58,7.06.9.9,0,0,0,.82,1c.64.06.92-.48,1-1a12.93,12.93,0,0,0,0-3.46,4.22,4.22,0,0,1,0-2.31c2,1.1,2.1,3.07,2.67,4.74a9.17,9.17,0,0,1,.46,3.08c-.08,4,2.66,6.13,5.64,7.57,2.72,1.31,3.88,3.05,3.73,5.89-.11,2.33,1.54,3.42,3.13,4.59,2.53,1.84,4.1,4.07,3.81,7.5-.38,4.37-.36,8.78-.49,13.17-.18,6.13-.31,12.25-.5,18.37-.05,1.72-.38,3.3-2.3,4a4.07,4.07,0,0,1-1.64.36c-15.91-.35-31.82-.65-47.73-.65-12,0-24.07.2-36.11-.18-6.22-.2-12.48.42-18.71.78-1.24.07-1.76-.18-2-1.44a45.77,45.77,0,0,1-.13-6.41c-.1-10-.43-20,.2-30a6.39,6.39,0,0,0-.07-1.38c-.52-3.13.86-5.58,2.72-7.89.44-.54.8-.62,1.23-.05a7.21,7.21,0,0,1,1.6,2.64c.17.68.73,1.21,1.43.79s.71-1.09.13-1.77-1.4-1.69-2.06-2.56c-.33-.43-.6-1-.12-1.41s.39-1.2,1.08-1.24.61.75.94,1.11c.66.73,1.19,2.3,2.29,1.56,1.38-.91.05-1.82-.66-2.59-.24-.25-.38-.61-.64-.81-.83-.65-.31-1,.19-1.5a.78.78,0,0,1,1.38.33c.38,1.15,1.5,1.7,2,2.74a.84.84,0,0,0,1,.48,1.3,1.3,0,0,0,.9-1,.83.83,0,0,0-.58-1.1,3.66,3.66,0,0,1-1.56-1.33c-1.79-2-1.66-2.65.62-4,.69-.43.92,0,1.22.44a4.68,4.68,0,0,0,1.42,1.7.93.93,0,0,0,1.25-.23.78.78,0,0,0-.08-1.21,21.13,21.13,0,0,1-1.7-2c-.38-.49-.5-1,.18-1.47.42-.28.7-.82,1.3-.28s1.29,1.13,2,.43-.27-1.31-.57-1.93l-.18-.42.23-.16a8.38,8.38,0,0,1,.66.52c.34.33.64.74,1.15.27s.63-1,.23-1.4c-1.92-1.77.11-2,1-2.64.45-.29.95-.43,1-1.06a.85.85,0,0,0-.72-.85,1.11,1.11,0,0,0-1.32.57l-.52.69c-1,1.25-1.41,1.22-2.16-.09-.44-.76,0-1,.52-1.52.85-.75,2.39-1.16,1.53-3m-4.34,9.15a1.43,1.43,0,0,1-1,1.42c-.4.1-2-2-1.87-2.45a1.59,1.59,0,0,1,1.52-1c.72.47,1.46,1,1.4,2.07m0-3.31c0-.32.29-.69.49-.52a15.14,15.14,0,0,1,1.45,1.58c-.18.42-.41.62-.72.47a1.82,1.82,0,0,1-1.22-1.53m-2.67,5.5c.41.41.12.85-.22,1.21-.12.12-.24.24-.35.37-1.63,1.92-1.82,1.9-2.91-.36-.37-.75,1-2.9,2-2.87a5.93,5.93,0,0,0,1.46,1.65m-6,3.77c-.5-.77.22-1.27.58-1.6.61-.57.79.23,1.06.61l1,1.42a1.7,1.7,0,0,1-.84,1.19c-.46.32-.75,0-1-.32s-.56-.86-.85-1.3m.34,3.3c-.76.45-1,1.64-2,1.46a1.83,1.83,0,0,1-1.56-1.94c.1-.87.89-1.95,1.74-1.79s1.27,1.33,1.81,2.27m1-8c-.95-.35-.85-1.47-1.06-2.25s.72-1.57,1.43-1.62a2.09,2.09,0,0,1,1.86,1.52c.15.35-1.61,2.29-2.23,2.35m-.8,1c-.5.83-1,1.88-1.81,1.75s-1.57-1.33-1.73-2.17,1-1.65,1.67-1.62c1,0,1.06,1.45,1.87,2m-4.25-2.17c-.13-.87-.62-1.79.37-2.39a.76.76,0,0,1,1.12.46c.25,1.15-1,1.25-1.49,1.93m-.16,3.52c1.11,1.28,1.65,2.35-.18,3.45a6.1,6.1,0,0,1,.18-3.45m-.34,7.11a.77.77,0,0,1,.52.37c.71,1.22.84,2.33-1,3.21,0-1.17.06-2.13.09-3.09,0-.24.1-.51.36-.49m14.34-20.1c.64,0,1.32-.34,2.08.14-.62.79-1.22,1.53-1.78,2.3s-1,.61-1.42-.1c-1.12-1.82-.93-2.25,1.12-2.34m-4.07,1.6a1.14,1.14,0,0,1,.32-.07,8.1,8.1,0,0,1,2,2.66.63.63,0,0,1-.13.3.54.54,0,0,1-.78.07,19.83,19.83,0,0,1-1.87-2.12c-.17-.24.11-.65.44-.84m-1.62,2a9.11,9.11,0,0,1,1.83,2.52,1.94,1.94,0,0,1-1.3,1.17c-.48-.05-1.95-2-1.77-2.39a2,2,0,0,1,1.24-1.3m-3.32-1.41c.1-.69.51-1.29,1.21-1.14s1,.86,1.23,1.51c-.31.54-.76,1-1.33.89s-1.23-.44-1.11-1.26m-1.37,1.06c.88,0,1,1,1.1,1.74-.09.95-.66,1.91-1.43,1.94s-1.31-1.16-1.29-1.92a1.84,1.84,0,0,1,1.62-1.76m-3.91-2.63c.48,1.07,2.4-.62,2.62,1.3.1.87-.78,1.34-1.12,1.18a8.1,8.1,0,0,1-2.19-1.87c-.19-.21.1-.64.69-.61m-7.46,79.46a30.21,30.21,0,0,1,3.63-4.65l.52.24a14.77,14.77,0,0,0-1,5.9c0,.15,0,.39-.15.45a.86.86,0,0,1-1.2-.34c-.51-.72-2.34-.61-1.83-1.6m-2.73,3.56c.64-.73.8-2.19,2.43-1.42a5.61,5.61,0,0,1,3.46,5.1c-.12.45.24,1.23-.39,1.47s-.85-.63-1.31-.92c-1.21-.77-2.39-1.58-3.61-2.33-.79-.48-1.34-1-.58-1.9m-4.7,6.52a6.48,6.48,0,0,0,1.9-2.8c.42-1.17,1.12-1.44,2.25-.68,1.8,1.22,3.26,2.83,5.16,3.95s.57,2.93.77,4.16a11.51,11.51,0,0,1,0,1.31c-.15.82.43,2-.39,2.35-.49.2-1.53-.58-2.14-1.12a72.39,72.39,0,0,0-7.31-5.1c-1-.71-.92-1.42-.2-2.07m-6.12,9.33c1.15-2,2.85-3.56,3.82-5.72.43-1,2-.24,2.72.43,2.31,2.09,5.13,3.49,7.42,5.61.38.35.67.85,1.43.76s.56.72.56,1.17c0,1.32-.05,2.65-.09,4h0l-.12,4.16c0,.81-.13.93-1,.52-3.84-1.78-7-4.56-10.49-6.88-1.26-.84-2.31-2-3.78-2.55-.73-.28-.92-.76-.49-1.49M222,387.56c.77-2.27,2.4-4.05,3.49-6.14.39-.76,1.07-.1,1.48.19,2.94,2.11,5.77,4.4,8.81,6.35,2.12,1.36,3.85,3.33,6.37,4.08.58.18.42.77.42,1.2,0,1.5-.08,3-.12,4.51h.11c0,1.45.06,2.9.08,4.34,0,.33.13.75-.24.94s-.58-.18-.84-.39c-2.7-2.12-5.39-4.26-8.14-6.33-3.53-2.66-7.24-5.06-11-7.45a1,1,0,0,1-.46-1.3m-4.21,7.63a15.5,15.5,0,0,1,2.3-4.4c.52-.82,1-.79,1.7-.32,4.4,3,9,5.67,13.1,9.19,1.78,1.53,3.45,3.51,5.47,4.39,2.81,1.21,2.36,3.11,2.29,5.39,0,.67,0,1.54,0,2.41,0,.37.17.94-.36,1a1.56,1.56,0,0,1-1.05-.46c-3.12-2.84-6.77-4.93-10.31-7.17-1.85-1.17-3.59-2.54-5.44-3.67-2.41-1.47-4.82-2.91-7.13-4.53-.69-.49-.88-.79-.61-1.84M213.31,404c.73-1.7,1.72-3.26,2.4-5,.5-1.27,1.26-1.07,2-.46,2.91,2.37,6.32,3.93,9.43,6a15.66,15.66,0,0,1,2.42,2c1.47,1.46,3.58,1.8,5.15,3.11,1.74,1.46,3.76,2.63,5.35,4.23.83.84,2.51.67,2.64,2.18.1,1.2,0,2.42,0,3.64,0,.41,0,.81,0,1.45,0,1.16.09,2.55.14,3.93,0,.39.21.86-.24,1.11s-.76-.06-1.1-.3c-4.17-3-8.25-6.24-12.56-9.08-3.2-2.1-6.22-4.51-9.61-6.34-1.66-.9-3-2.25-4.77-3.08-1.29-.61-1.94-1.58-1.19-3.36m-4.21,10.21c.78-1.77,1.51-3.61,2.12-5.47.39-1.18,1.09-1.35,1.94-.65,4.26,3.53,9.36,5.83,13.66,9.28,2.86,2.29,6,4.2,8.89,6.45,1.37,1.07,2.71,2.26,4.19,3.22s1.79,1.67.46,3a33,33,0,0,1-6.61,5.13c.57-1.62-.35-2.41-1.73-2.83a5,5,0,0,1-1.81-1c-4.18-3.63-8.89-6.52-13.36-9.75-2.13-1.55-4.57-2.65-6.74-4.18-1.24-.88-1.72-1.54-1-3.18m-4.48,11.76a33.17,33.17,0,0,1,2.46-7c.44-.92.79-.95,1.53-.5,4.53,2.74,9,5.51,13.29,8.65,3,2.24,6.08,4.48,9,6.87a5.78,5.78,0,0,0,2.77,1.21c-2.62,1.81-5.06,3.89-8,5.21-.49.22-.85.42-1-.34,0-.35-.39-.38-.65-.49a38.56,38.56,0,0,1-3.9-2.48c-3.11-1.73-5.8-4.11-9.06-5.59-2.36-1.06-4-3.35-6.46-4.28-.53-.2-.14-.83,0-1.25m-3.06,11c.7-2.5,1.42-5,2.19-7.47.26-.87.77-.56,1.33-.2,2.88,1.89,5.8,3.71,8.67,5.6,3.3,2.17,6.55,4.39,10.06,6.74l-9,4.92c.51-1.53-.33-2.06-1.29-2.45-3.94-1.62-7.18-4.63-11.36-5.77-.77-.21-.81-.79-.64-1.37m-2,11.34c.08-.39.11-.8.19-1.42-.13-2.13,1-4.27,1.1-6.59,0-.58.34-.85.92-.55,3.87,2,7.89,3.72,11.31,6.49.74.59.83.85-.22,1.15a30,30,0,0,0-4.52,1.68,4.07,4.07,0,0,1-3.16.32,7.76,7.76,0,0,0-4.1.31c-1.45.34-1.77-.07-1.52-1.39m-2.36,7.08c1-2.92,3.29-4.89,6.86-4.07,2.18-.55,3.94.82,5.91,1.3a2.49,2.49,0,0,1,1.16,1,37.89,37.89,0,0,1,3.78,7.15c.68,1.61-.31,2.83-1.33,4a13.87,13.87,0,0,1-5.64,3.8,24.81,24.81,0,0,1-10.14,1.9c-2.53-.12-4.63-1.66-4-4.59a90.24,90.24,0,0,1,3.4-10.52" transform="translate(-191.85 -273.12)"/><path class="cls-2" d="M257.8,316.38c.4,2.95,2.29,5.55,2,8.66a1,1,0,0,0,.17.48,12.81,12.81,0,0,0,5.27,5.79,15.77,15.77,0,0,1,5.88,5.7,17.69,17.69,0,0,0,4,4.26c1.68,1.46,5.56.91,6.66-.88a10.66,10.66,0,0,0,1.56-3.84,10.46,10.46,0,0,1,1.52-3.82c2.05-3.37,5.09-6,6.85-9.62.85-1.75,2.35-3.21,3.06-5a20.08,20.08,0,0,0,1.49-7.56c.36-8.21-3.77-13.65-11.6-15.41-1.57-.35-3.22-.4-4.78-.78-6.56-1.61-12.09.49-16.69,5s-6.22,10.48-5.33,17m22.88,21.77c-.9,2.29-3.57,2.51-5.41.79s-3.12-4-4.74-5.91a12.15,12.15,0,0,0-4.12-3c-2.16-1.07-3.44-3.05-4.49-5.17,3.63,2.3,7.17,4.66,11.53,5.24s8.49.69,12.24-2.31c-2.52,3.17-3.62,6.84-5,10.39m-7.57-42.59c2-.53,4.06-.12,6,.12,2.57.31,5.24.52,7.56,1.75a15.13,15.13,0,0,1,5.63,4.56c4.1,5.77,2.35,11.32-.23,16.85-2.48,5.32-7.19,7.86-12.53,9.47a10.53,10.53,0,0,1-3.45.1c-5.75-.15-10.36-2.82-14.36-6.67a6.73,6.73,0,0,1-1.85-4.41,37.08,37.08,0,0,1,.19-9,12.72,12.72,0,0,1,1.84-4.27,18,18,0,0,1,11.16-8.51" transform="translate(-191.85 -273.12)"/><path class="cls-2" d="M306.9,337.3c.1,1.72,1.23,3.37,2.5,3.43s3.17-1.68,3.42-3.14a61.53,61.53,0,0,0,.44-9c0-1.35.33-1.31,1.33-.89a24.94,24.94,0,0,0,4.05,1.49c3.65.86,7.2,0,10.79-.67,3.94-.72,6.67-3,8.91-6a24,24,0,0,0,4-10.2c.81-4.37-.86-8-2.93-11.46s-5.72-5.36-9.35-7a11.11,11.11,0,0,0-6-1.21c-6,.75-11,3.21-14.33,8.48a13.18,13.18,0,0,0-1.84,3.5c-1.54,5.55-1.77,11.24-1.78,17.44-.32,4.8.51,10,.81,15.28M309.32,306c1.47-3.94,3.62-7.57,7.38-9.39,4.7-2.27,9.64-3.23,14.82-.42,4.94,2.68,8.3,6.55,8.88,11.94a19.23,19.23,0,0,1-2.83,12.56c-3.76,5.88-9.66,6.64-15.66,7.39a10.78,10.78,0,0,1-7.31-2.43c-2.82-2.48-5.19-5.35-6-9.23-.2-1,.31-1.94.09-2.92a13,13,0,0,1,.59-7.5m-1.45,14.78c1.7,2.65,4.16,4.23,3.52,7.64-.49,2.58-.21,5.29-.28,7.95,0,.4,0,.81-.05,1.21a1.34,1.34,0,0,1-1.19,1.29c-.81.08-.85-.7-.93-1.22a65.33,65.33,0,0,1-.91-6.49,80.23,80.23,0,0,1-.16-10.38" transform="translate(-191.85 -273.12)"/><path class="cls-2" d="M341,499.32c1.76-.64,3.94-.4,6-.79,4.76-.91,9.51-1.86,14.21-3,1.53-.38,3.25-.14,4.6-1.27.64-.54,1.54-1,.94-1.89s-1.22.06-1.81.31c-2.53,1.06-5,2.45-7.87,2.28a9.06,9.06,0,0,0-2.22.34c-3.21.67-6.39,1.51-9.63,2-1.55.22-3.1,1-4.77.39a.8.8,0,0,0-1,.84c0,.72.62.89,1.57.84" transform="translate(-191.85 -273.12)"/><path class="cls-2" d="M414.1,455c.33.21.75.72,1.21.19,1.07-1.24,2.77-1.78,3.72-3.06,2.21-3,5.38-4.2,8.76-5.06.73-.18,1.48-.29,1.46-1.15,0-1-1-.46-1.38-.65a9.68,9.68,0,0,0-4.08,1c-2.83,1.13-4.79,3.37-7,5.3-.87.75-1.8,1.44-2.65,2.22-.35.32-.54.86,0,1.2" transform="translate(-191.85 -273.12)"/><path class="cls-2" d="M197.92,466.4c.26-.13.48-.33.74-.46,2.84-1.46,5.53-3.46,9-2.72.93,0,1.85.07,2.77.07.61,0,1.42.2,1.44-.76s-.59-1.16-1.38-1.24c-4.7-.5-9,.89-13.17,2.8a2,2,0,0,0-.7.51c-.43.53-1,1.14-.44,1.83s1.15.26,1.71,0" transform="translate(-191.85 -273.12)"/><path class="cls-2" d="M275.29,321.41c4.59.49,9.57-3.32,9.27-8.33-.29-4.72-2.72-7.25-7-7.58-6.32-.49-9.87,2.87-9.69,8.76a7.08,7.08,0,0,0,7.4,7.15m-2.81-13.58c1.48-1.53,3.76-.7,5.68-.85,2.44-.18,4.79,3.11,4.8,6.42,0,3.69-3,6.19-7.49,6.18-3.54,0-5.63-2.2-5.76-5.8-.09-2.51,1.25-4.38,2.77-5.95" transform="translate(-191.85 -273.12)"/><path class="cls-2" d="M321.86,319.61c2.4.65,4.59.69,6.84-1,2.6-1.91,3.77-3.86,3.2-7-.11-.57-.2-1.14-.32-1.71a7.63,7.63,0,0,0-7.33-6,8.59,8.59,0,0,0-3.53.41c-.57.23-1.64.68-1.14,1.3.8,1,.08,1.3-.41,1.75a8.25,8.25,0,0,0-1.7,1.93c-2.39,4.09,1.17,9.39,4.39,10.27m.28-12.86c1.36-.82,2.42-2.08,4.31-1.26,1.23.53,1.52,1.67,2.19,2.56a11.3,11.3,0,0,1,1.94,4.73c-.1,3.25-4.39,6.09-7.2,5.32s-4.39-2.49-4.55-5.37a6.2,6.2,0,0,1,3.31-6" transform="translate(-191.85 -273.12)"/></svg>