<svg id="Layer_1" data-name="Layer 1" xmlns="http://www.w3.org/2000/svg" viewBox="0 0 281.12 346.46"><defs><style>.cls-1{fill:#fff;}.cls-2{fill:#010101;}</style></defs><rect class="cls-1" x="300.61" y="604.48" width="9.66" height="21.18" transform="translate(-454.9 600.91) rotate(-87.44)"/><path class="cls-1" d="M234.81,363.67c-4.16,2.1-7.25,5.14-7.06,9.94-.25,3.48.18,6.5,3.23,8,4.4,2.22,11.9,1.52,15.19-3.79a9.12,9.12,0,0,0-.4-10.69c-2.46-3.2-7.84-5.08-11-3.5m7.64,11.22a4.93,4.93,0,0,1-5.78,2.58c-3.26-1.13-4.12-2.72-3.24-6a11.92,11.92,0,0,0,.52-2.43c.13-1.75,1.75-.89,2.58-1.11,4.08.17,7.22,4,5.92,6.95" transform="translate(-132.21 -291.78)"/><path class="cls-1" d="M238.13,371.42c-.93.23-2.45-.27-2.37,1.46.06,1.32.61,2.6,2.12,2.58s1.77-1.28,2-2.6c-.23-.82-.53-1.74-1.79-1.44" transform="translate(-132.21 -291.78)"/><path class="cls-1" d="M238.66,402.72c-3.1-.3-7,3-7.28,6.12-.19,2.47,1.66,4.2,4.69,4.4,2.84.19,6-2.48,6.17-5.23.13-1.91-2.06-5.14-3.58-5.29" transform="translate(-132.21 -291.78)"/><path class="cls-1" d="M260.06,404.3c-3.62-1-6.35,1.08-6.58,4.87a4.16,4.16,0,0,0,1,3.45c1.86,2,4,2,6.89-.05,2-1.38,3.34-3.08,2.86-5.67-.44-2.35-2.56-2.16-4.21-2.6" transform="translate(-132.21 -291.78)"/><path class="cls-1" d="M282.52,403.68c-2-.18-4.93,3.12-5.06,5.79-.1,2.34,1.3,4.09,3.4,4.21,2.5.15,5-2.35,5.17-5.19s-1.07-4.59-3.51-4.81" transform="translate(-132.21 -291.78)"/><path class="cls-1" d="M320.12,426.52c-4.92-.27-9.84-.31-14.75-.51-15.77-.65-31.57-.71-47.33-1.6-12.09-.69-24.19-.9-36.28-1.43-1.38-.07-2.07.25-2,1.75.06,1.79,0,3.59,0,5.39,0,1.56.48,2.15,2.21,2,3.18-.27,6.4-.3,9.6-.28,14.62.09,29.22.78,43.8,1.65,14.68.66,29.35,1.29,44,2,1.53.08,2.19-.32,2.24-1.84.05-1.72.11-3.45.31-5.16.17-1.45-.36-1.9-1.78-2" transform="translate(-132.21 -291.78)"/><path class="cls-1" d="M313.47,375.93c-1.19-.33-2.92-1.44-3.79,1.08a4.66,4.66,0,0,1-5.55,3.25c-4.13-.6-4.44-.4-5.85-3.94-1.2-3,.78-5,2.65-6.38,2.14-1.53,2-3.46,2.27-5.45.14-1.16-.18-1.87-1.61-1-3.73,2.19-6.48,5.2-7.43,9.44-1.39,6.21,2.53,11.83,8.29,12.25,3.62.25,4.12.15,7.09-2,1.64-1.2,3.48-2.31,4.22-4.28.31-.85,1.44-2.43-.29-2.92" transform="translate(-132.21 -291.78)"/><path class="cls-1" d="M303.52,404.77c-2.5-.15-6.32,3.15-6.58,5.69a3.3,3.3,0,0,0,.7,2.87c1.06,1.29,2,2.9,4.13,2.43,3.38-.74,5.47-2.68,5.75-5.33s-1.77-5.53-4-5.66" transform="translate(-132.21 -291.78)"/><path class="cls-1" d="M300.82,374.9a3.54,3.54,0,0,0,3.4,3.25c2,.07,2.54-.81,2.83-4.2.1-1.88-1.13-2.67-2.75-3-1-.2-3.45,2.66-3.48,3.94" transform="translate(-132.21 -291.78)"/><path class="cls-1" d="M315.55,589.78c0-1.28-.42-1.3-1.55-1.08a28.72,28.72,0,0,1-15.4-.9c-.91-.32-1.45-.37-1.46.9a44.49,44.49,0,0,0,.47,6.52c.13.85.55,1.39,1.35,1.27,2.48-.38,5.12,1,7.51-.66a1.14,1.14,0,0,1,1.53.11c1.13,1.36,2.69,1,3.78,1.08.74,0,1.13,0,1.52.08,1.93.31,2.72-.38,2.44-2.42a32,32,0,0,1-.19-4.9" transform="translate(-132.21 -291.78)"/><path class="cls-1" d="M222.08,555.38c-.93,0-1.5.28-1.42,1.35.12,1.8.21,3.59.27,5.39,0,1.29.7,1.65,1.84,1.27a22.62,22.62,0,0,1,15.8.53c1.2.47,1.81.11,1.91-1.13.14-1.72.13-3.46.41-5.15.27-1.54,0-2-1.71-2-3.91,0-7.81-.26-11.5,0l-5.6-.25" transform="translate(-132.21 -291.78)"/><path class="cls-1" d="M238.1,527.18c-4.63.41-9.16-.89-13.78-.78-1.56-.07-3.13-.06-4.68-.23s-2,.4-1.76,1.87c.26,1.86.35,3.74.52,5.61.46,5.13.47,5.26,5.51,5,4.59-.24,9.18-.39,13.77-.36.74,0,1.9.3,1.9-1.11a61.12,61.12,0,0,0-.24-8.66c-.11-.75-.24-1.4-1.24-1.32" transform="translate(-132.21 -291.78)"/><path class="cls-1" d="M313.56,531c-2.65,0-5.31-.22-8-.34a1.34,1.34,0,0,1,0,.2c-3-.14-5.93-.29-8.89-.39-.74,0-1.8-.19-1.65,1a63.58,63.58,0,0,1,0,7.93c0,1.13.54,1.45,1.56,1.55,5.79.56,11.61.47,17.41.75.95,0,1.68-.2,1.88-1.29a19.05,19.05,0,0,0-.07-7.67,2,2,0,0,0-2.26-1.77" transform="translate(-132.21 -291.78)"/><path class="cls-1" d="M347.52,444.24A124.7,124.7,0,0,0,349,459.79c.16.87-.53,2.22.54,2.51,1.26.33,2.8.58,4-.47a13.14,13.14,0,0,0,4.59-12.38c-.77-4.6-2.81-8.65-8.32-9.7-2.1-.39-2.54.09-2.43,1.92.05.85.11,1.71.16,2.57" transform="translate(-132.21 -291.78)"/><path class="cls-1" d="M319.33,441.49c-4.85-.7-9.84-.48-14.76-.76-7.72-.44-15.43-1.19-23.16-1.36-6.55-.14-13.09-.65-19.65-.68-5.44,0-10.94-.36-16.4-.7-10.56-.66-21.21,1.36-31.72-.78-2.43-.49-4.64.27-6.95.41a93.07,93.07,0,0,0-11.87,1.21c-.94.17-1.5.47-1.37,1.45.37,2.81-.26,5.61-.13,8.44.2,4.44.81,8.94.56,13.32-.5,8.61,0,17.18,0,25.78,0,4.23.86,8.39,1.09,12.6.42,7.49-.27,15,.63,22.48.18,1.45.41,2.4,2.14,2.35,3.67-.1,7.38.19,11-.21,10.71-1.19,21.36.23,32,.48,8.48.2,16.93,1.55,25.41,1.91,19.07.81,38.12,2,57.24,1.54,5.15.23,10.31.41,15.46.72,2,.12,3-.76,3.53-2.62.78-3,.36-5.9.31-8.87-.3-16.26-.78-32.53-.07-48.78.1-2.4-.17-4.85.27-7.15a12.15,12.15,0,0,0,.39-5c-1-4.39-.95-8.86-1-13.3,0-1.73-.53-2.25-2.26-2.35-6.89-.4-13.75.9-20.68-.11" transform="translate(-132.21 -291.78)"/><path class="cls-1" d="M296.13,559.77c-.37,2.61.06,5.21.14,7.82,0,1,.36,1.86,1.54,1.16,4.08-2.4,8.48-1.75,12.82-1.41,5.23.42,5.37.35,5.28-4.94,0-1.23-.45-1.76-1.66-1.62-4.83.55-9.68.31-14.52.44a3.86,3.86,0,0,1-3.6-1.45" transform="translate(-132.21 -291.78)"/><path class="cls-1" d="M296.33,572.43c-3.22,1.74-4.24,8.12-1.41,10,3.4,2.21,6.69,5.1,11.07,4.14,4.41.88,8.09-.34,11.53-2.67,2.58-1.74,4.13-5.89,2.79-8.34a11.35,11.35,0,0,0-8.14-5.72,23,23,0,0,0-15.84,2.63" transform="translate(-132.21 -291.78)"/><path class="cls-1" d="M408.22,309.71c-1.87-.15-1.47,1.66-2,2.65.14,1.21.14,2.48,1.81,2.55s2.35-1.17,2.53-2.53a2.31,2.31,0,0,0-2.34-2.67" transform="translate(-132.21 -291.78)"/><path class="cls-1" d="M345.17,414.38c.39-11.11.51-22.22.07-33.33-.39-9.92-1.87-19.8-1.41-29.75.12-2.57-.76-3.16-3-3.23-8.29-.24-16.59-.4-24.86-1-13.59-1-27.19-.73-40.78-.84L240.89,346c-13.91-.11-27.82-.31-41.74-.26-3.49,0-5.11,1.6-5.28,5.1-.38,8.05-.34,16.11-.11,24.16.35,12.59,1.05,25.16.66,37.75-.15,4.7.47,5.45,5,6.61l.23,0c6.67,1.47,13.53,1.4,20.25,1.71,12.11.56,24.25.67,36.37,1.12,17.12.63,34.24,1.14,52.88,1.76,3.34-.14,8.18.86,13,.69,6.88-.25,13.75-.2,20.62-.26,1.81,0,2.58-.7,2.53-2.49-.08-2.5-.16-5-.08-7.51m-102.81-1.27c-1,1.31-3.59,2.33-5.91,2.22-1.6-.61-3.68-.23-5.32-1.53-3.6-2.86-3.35-7.21.45-10.32,1.5-1.21,3.26-1.94,4.75-3.25s3.46-.19,4.85,1c3.85,3.41,4.25,7.74,1.18,11.83m7.56-37.91c-.94,5.44-4.72,8.21-9.41,9.6-5.17,1.53-10.12.68-13.73-3.88a12.77,12.77,0,0,1,.78-14.37c1.47-1.6,1.84-4.07,4.35-4.9a18.09,18.09,0,0,1,11.7.27c4,1.33,7.12,8.55,6.31,13.28m7.24,40.93c-4.55-.11-6.34-3.39-6.4-6.83-.06-3.71,4.69-8.49,7.84-8.26,4.08.3,8.4,3.95,8.09,7.28-.36,3.94-3.3,8.18-9.53,7.81m30.29-4.29a17.71,17.71,0,0,1-2.6,3.28c-2.23,2.05-4.81,1.13-7.05.19-2.45-1-3-3.42-2.75-5.79a9.58,9.58,0,0,1,6.35-8.34,3.87,3.87,0,0,1,2.92.5,7,7,0,0,1,3.13,10.16m13.92,6c-4.1-.42-5.78-1.63-6.78-5.28-.66-2.44,1.19-6.55,3.64-8.16,2.2-1.44,4.21-3.19,7.2-1.62,2.11,1.11,5,5,4.92,7.27.09,3.53-3.73,8.32-9,7.79m15.52-39.95c-1.72,6.33-9.31,10.77-14.67,9.7-2.94.35-5.3-1.46-7.65-3.31-2-1.54-2.42-3.84-2.73-6-1.21-8.82,2.68-14.23,10.77-17.82,2.05-.91,3.13.12,2.87,2.3-.14,1.16-.16,2.34-.28,3.51-.18,1.64-.22,3.13,2.07,3.28.45,0,1.2.57,1.24.95.44,3.56,3.31,3,5.54,3.22,3.8.3,3.86.48,2.84,4.21" transform="translate(-132.21 -291.78)"/><path class="cls-1" d="M389.17,388.58c-.63,5.7-4.87,7.91-8.78,11.7,5.91-1.18,11.5.48,16.74-1.95,1.62-.75,3.1-1.93,3.45-3.6.73-3.49,1.53-7,1.29-10.64-.19-2.89-2.31-6.06-5.05-6.17-5-.2-10.06-.78-15.29.09,3.94,2.57,8.33,4.3,7.64,10.57" transform="translate(-132.21 -291.78)"/><path class="cls-1" d="M386.16,389.18c1.16-2.23.38-4.3-1.8-5.59a14.62,14.62,0,0,1-2.24-1.69C375.54,376,369,370,362.38,364.23c-4.91-4.28-10-8.32-15.06-12.46a1.65,1.65,0,0,0-1-.43c-.49.06-.39.58-.38,1,0,2.42-.05,4.84.17,7.24.78,8.49.59,17,.74,25.52q.3,12.42.61,24.83c.1,3.74-.19,7.49.34,11.22.12.9.52,1.88,1.33.95,1.61-1.83,4.17-2.2,5.7-3.93a42.13,42.13,0,0,1,7.75-6.35c5.9-4.15,10.29-10.08,16.73-13.59,3.45-1.89,5.11-5.6,6.88-9" transform="translate(-132.21 -291.78)"/><path class="cls-1" d="M143.14,506.71c0,2.81,0,5.62-.12,8.43,0,1.11.43,1.42,1.43,1,.57-.24,1.14-.48,1.72-.7,4.81-1.85,9.71-2.71,14.74-1,1.28.43,1.33-.13,1.28-1-.08-1.4-.26-2.8-.27-4.21,0-4.83,0-4.83-5.66-4.91-3.21.11-7.11.28-11,.38-1.43,0-2.14.56-2.12,2.09" transform="translate(-132.21 -291.78)"/><path class="cls-1" d="M143.26,519.19a7.58,7.58,0,0,0-3.47,9c1.45,4.55,7.33,8.78,12.12,9,3,.15,5.36-1.43,7.93-2.48,3.38-1.38,4.87-4.49,6.35-7.46a6,6,0,0,0,.1-4.54c-1.65-4.92-5.76-5.88-10.21-6.88-4.31.63-8.82.89-12.82,3.29" transform="translate(-132.21 -291.78)"/><path class="cls-1" d="M230.32,564.94A18.82,18.82,0,0,0,224,566c-4.67,1.24-6.61,4.46-7.68,8.53-.4,1.55-.6,3.38,1,4.76a21.43,21.43,0,0,0,21.11,4.9c6-1.68,7.51-5.16,7.56-10.84a2.7,2.7,0,0,0-1-2c-4.12-3.92-8.68-6.82-14.64-6.39" transform="translate(-132.21 -291.78)"/><path class="cls-1" d="M166.39,397.86c-2.79-1.62-4.6-4.37-7.19-6.26-1.76-1.29-3.1-3.32-2.54-5.72.66-2.76,1.28-5.6,4-7.33.84-.53,2.58-1.08,2.1-2.14s-2.06-1.47-3.41-1.58c-.55,0-1.09-.12-2.2-.24-3,.35-6.61.59-10.13,1.23a6.72,6.72,0,0,0-5,4.48c-1.76,4.35-.53,8.57,1.06,12.49,1.07,2.66,3.11,4.42,6.64,5.2,5.41,1.18,10.79,1.12,16.18,1.58.44,0,1,.08,1.25-.43.3-.67-.3-1-.73-1.28" transform="translate(-132.21 -291.78)"/><path class="cls-1" d="M154.89,316a2.3,2.3,0,0,0-2.45-1.75c-1.28,0-1.76.89-1.93,1.94a8.4,8.4,0,0,0-.09,2.55c.22,1.57,2.42,3.83,3.53,3.57,1.51-.36,1-1.85,1.4-2.84a30.18,30.18,0,0,0-.46-3.47" transform="translate(-132.21 -291.78)"/><path class="cls-1" d="M192.58,408.69c.12-5.48-.17-10.95-.41-16.42-.56-12.5-.7-25-.8-37.54,0-.55.49-1.39-.31-1.64a2,2,0,0,0-1.89.71c-3.29,3.52-7,6.62-10.2,10.24-4.65,5.27-10,9.84-15,14.75-2.17,2.12-4.73,4.15-5,7.86a2.43,2.43,0,0,0,.93,2.5c5.66,4.29,10.14,9.86,15.76,14.21,2.33,1.8,4.83,3.38,7,5.36a65.86,65.86,0,0,0,8.84,6.85c.44.28.94.76,1.48.45s.29-1,.24-1.5a48.3,48.3,0,0,1-.63-5.83" transform="translate(-132.21 -291.78)"/><path class="cls-1" d="M240.25,625.08h0c.06-1.33,0-2.67.2-4,.24-1.81-.49-2.34-2.22-2.28a85.86,85.86,0,0,0-16.67,2.2,10.57,10.57,0,0,0-8.22,9.64c-.17,1.79.26,2.31,2.09,2.23,6.63-.28,13.19-1.34,19.85-1.3,4.92,0,4.92-.14,4.89-5.11,0-.47,0-.94.06-1.41" transform="translate(-132.21 -291.78)"/><path class="cls-1" d="M237.55,586.91a28.8,28.8,0,0,1-15.19-1.29c-1.15-.44-1.8-.68-1.53,1q.58,3.46,1.09,6.95c.11.74.39,1.14,1.22,1,4.71-.85,9.48-.64,14.23-.85,3.17-.14,3.17-.11,3.33-3.31,0-.31,0-.63,0-.94,0-3.07-.12-3-3.19-2.51" transform="translate(-132.21 -291.78)"/><path class="cls-1" d="M223.46,608.91c-1.64,1.42-.52,4.56-.77,6.94-.14,1.4.21,1.77,1.8,1.71,3.89-.16,7.76-.53,11.64-.84,1.47-.12,3.2,1,4.3,0s-.13-2.85.25-3.7c.22-1.73.41-2.89.5-4s-.45-1.77-1.66-1.68a80.18,80.18,0,0,0-9.07.74c-2.4.45-5.44-.46-7,.88" transform="translate(-132.21 -291.78)"/><path class="cls-1" d="M363.74,475.13a1.29,1.29,0,0,0,1.3,1.23,6.06,6.06,0,0,1,.7-.51c4.3-2.3,8.19-5.3,12.66-7.31,1.46-.65,2.22-1.42.56-2.82-.93-.79-1.66-1.81-2.59-2.65-1.18-1.07-2.09-1-3.55-.42-3.18,1.24-5.73,3.39-8.47,5.27a10,10,0,0,0-2.52,2.41c-1.67,2.41,2,2.85,1.91,4.8" transform="translate(-132.21 -291.78)"/><path class="cls-1" d="M188.11,438.11c.24-1.7-.44-2.08-2-1.45-3.17,1.28-4.87,3.85-5.77,6.89-.7,2.34-2,4.88.2,7.24.33.36.23.89-.14,1.88-.2.41.18,1.21.79,1.85a12.37,12.37,0,0,0,4.86,3.19c1.47.53,2-.07,1.87-1.57a86.92,86.92,0,0,1,.21-18" transform="translate(-132.21 -291.78)"/><path class="cls-1" d="M162.07,455.66c-.57-.49-1.33-1.24-1.95-.22-1,1.64-2.62,2.65-3.77,4.13-1.59,2-1.48,2.38.57,3.83,4.48,3.17,8.9,6.43,13.35,9.64.49.35,1.25,1.06,1.61.5,1.2-1.86,2.93-3.39,3.68-5.73-.27-.43-.58-1-.93-1.46-1.14-1.63-3-2.36-4.45-3.69-2.59-2.45-5.38-4.7-8.11-7" transform="translate(-132.21 -291.78)"/><path class="cls-1" d="M146.27,485.74a1.81,1.81,0,0,0,1.44,2.26c4.32,1,8.61,2.22,13,3,1.39.25,3.07,1.67,4.12.61s1-2.87,1.48-4.34.22-2.32-1.28-3a106,106,0,0,0-11.42-4c-6.18-1.88-6.84-1.33-7.31,5.45" transform="translate(-132.21 -291.78)"/><path class="cls-1" d="M374.18,517.32c-6.37,0-9.1,2.5-9.2,8.24-.08,4.57,1.2,7.42,4.2,10.77,4,4.5,14.85,4.15,18.11-1.3a20.11,20.11,0,0,0,3-8c.18-1.46.5-3.18-1.16-4.24-4.58-2.93-9.31-5.46-14.95-5.43" transform="translate(-132.21 -291.78)"/><path class="cls-1" d="M371,505.78c-.08,2.34-.2,4.67-.31,7-.26,1.5.07,2.66,2,2.31,5.21-1,9.78,1.28,14.4,3,1.35.51,1.67.21,1.77-1a45.24,45.24,0,0,1,1.3-8.34c.28-1,0-1.57-1.16-1.78-5.29-.95-10.54-2.14-15.88-2.87-1.47-.2-2,.23-2.11,1.64" transform="translate(-132.21 -291.78)"/><path class="cls-1" d="M368.21,486.35a32.72,32.72,0,0,0,1.2,5.43c.36,1,.82,1.44,1.88,1.11,5.23-1.63,10.76-1.37,16.08-2.47.73-.15,1.44-.13,1.31-1.15-.09-2.78-1.16-5.3-2-7.87-.33-1-1.1-.8-1.94-.59-5,1.28-10.11,2.47-15.15,3.73-.86.21-1.55.68-1.35,1.81" transform="translate(-132.21 -291.78)"/><path class="cls-1" d="M305.94,621.26a48.5,48.5,0,0,1-8.12-.17c-1.08-.14-1.87.09-1.89,1.4-.05,3-.13,5.93-.15,8.89,0,1.47.61,2.25,2.26,2.25,7.9,0,15.72,1.06,23.56,1.85,4.25.43,4.26.36,3.07-3.66a4,4,0,0,1-.13-.69c-.86-5.34-4.66-9-9.87-9.46-2.8-.22-5.62-.27-8.73-.41" transform="translate(-132.21 -291.78)"/><path class="cls-2" d="M411.76,308.94a12.71,12.71,0,0,1-2.58-2.35c-.71-.73-1.36-.56-2.08-.07a8.07,8.07,0,0,0-3.18,8.2,2.44,2.44,0,0,1-.2,1.56c-2.38,6.25-5.53,12.17-7.59,18.58-3.61,11.26-7.26,22.47-7.1,34.5,0,.76.25,1.85-.67,2.05-2.1.48-4.65,1.18-6.33,0-2.51-1.71-4.84-3.77-7.24-5.69-4-3.19-7.59-6.89-11.67-10-5.26-4-9.9-8.65-15.18-12.58a6.17,6.17,0,0,0-5.4-1.44,20.42,20.42,0,0,1-5.35.45q-12-.46-24-1.13c-5.67-.31-11.33-.87-17-1-5.52-.14-11.06.2-16.59.13-7-.09-13.95.09-20.94-.3-5.13-.28-10.3.07-15.45,0-5.54-.09-11.08-.62-16.61-.43-5.94.21-11.87-.5-17.77-.07-5.42.38-11-1.3-16.29,1.12-.32.14-.91-.11-1.31-.31-1.33-.65-2.19-.19-2.91,1a53.66,53.66,0,0,1-7,9.54c-4,4.16-7.16,8.95-11.34,12.95a36.3,36.3,0,0,0-5.08,5.38c-1.12,1.63-2,1.69-3.62,1.37a9.27,9.27,0,0,0-4.65,0c-1.65.53-1.9-.26-1.89-1.61q.17-20.75.32-41.49a3.45,3.45,0,0,1,.7-2.63c2.52-2.66,2.79-5.83,1.69-9.13-1-2.94-5.36-4.35-7.27-2.47-3.18,3.13-2.21,9.61,1.82,11.53,1.07.51,1.06,1.24,1.05,2.07,0,2.9-.27,5.8-.14,8.69.51,11.19-.33,22.38,0,33.57,0,1.55-.35,2.05-2,2.3-2.92.45-6,.17-8.76,1.32-2.51,1-4.89,2.33-5.39,5.51-.84,5.28-1.32,10.44.48,15.72a11.62,11.62,0,0,0,5.52,6.89,20.06,20.06,0,0,0,10.17,2.34c4.6,0,9,1.82,13.68.84a.81.81,0,0,1,.64.2c1.71,2,4.21,3,6.16,4.83,3.9,3.61,8.36,6.63,12.22,10.28,4.26,4,9.26,5.84,14.88,6.73,3.8.61,7.64.31,11.41,1,.85.16,2,.14,1.74,1.62-.23,1.11-.14,2.4-1.77,2.62-6.84.93-13.72,1.59-20.56,2.33-8.28.89-13.87,5.76-14.4,13.72a4.43,4.43,0,0,1-1.07,2.78c-2,2.28-4.54,4-6.8,6-1.05.93-2.16,1-3-.17-1.09-1.55-3-1.88-4.27-3.18a1.31,1.31,0,0,0-1.74-.06,17.52,17.52,0,0,0-6.5,7.46c-.77,1.68-1.16,3.36,1.26,4.38a20.36,20.36,0,0,1,3.89,2.58c.82.6,1,1.21.57,2.37-1,2.9-3,5.32-4.05,8.16-.39,1-.93,1-1.82.7-2.14-.74-4.33-1.35-6.49-2-1-.32-1.71-.28-1.89.93-.34,2.23-.74,4.45-1,6.69-.68,5.83-.66,5.87,5.27,6.67,1.47.2,1.69.7,1.49,2.15-.31,2.29-1.63,4.28-1.92,6.46-.4,3-2.16,3.27-4.47,3.07a4.11,4.11,0,0,1-.71,0c-1.75-.52-2.46.2-2.46,1.95,0,2.89-.26,5.79-.09,8.66.19,3.29-.4,6.15-3.06,8.33a4,4,0,0,0-1.43,3.08c-.43,6.76,5.41,13,10.58,14.58,7.88,2.41,16.83-.39,20.63-9.82a10.19,10.19,0,0,0-2.64-11.73c-.49-.4-1-.76-1-1.49,0-3.13-.18-6.27,0-9.38.15-2.91-.89-4.41-3.7-4.5-1.41-.05-2.82,0-4.23,0-.77,0-1.6,0-1.24-1.08.81-2.34.63-4.79,1-7.18.17-1.05.55-1.74,1.65-1.18,2.49,1.28,5.44,1.38,7.74,3.19,1,.79,2.37.56,2.31-1a23.67,23.67,0,0,1,1.27-7.1c.92-3.39-.06-4.86-3.43-5.93-1.11-.35-2.21-.76-3.33-1.1-.63-.19-1.06-.56-.68-1.18,1.21-2,1.28-4.34,2.28-6.38.39-.79.8-1.18,1.58-.55a39.47,39.47,0,0,1,5.33,4.44c1.3,1.47,1.79,1.29,2.65-.22,1.3-2.27,2.31-4.67,4.22-6.65,1.75-1.8,1.41-3.13-.75-4.62-1.26-.86-2-2.2-3.25-3a.82.82,0,0,1-.25-1.35c1.19-1.71,2.3-3.48,3.43-5.22.78-1.2,1.41-1,2.36,0,1.45,1.44,2.27,3.65,4.67,4,1.45.22,3.27.13,4.22,1,1.14,1-.18,2.78-.12,4.23,0,.7.3,1.39.28,2.08-.4,13.71,1.76,27.31,1.83,41,0,5.68.13,11.36.08,17.05a6.14,6.14,0,0,0,5.62,6.2c6.09.21,12.19.53,18.29.29.78,0,2-.32,1.91,1-.1,2.5.94,4.93.19,7.46-.49,1.67.68,2.27,2,1.95,2-.49,4.07-.33,6-.81s2.45.49,2.6,2c.3,2.87.43,5.76.74,8.63.12,1.19-.42,1.3-1.35,1.22-1.64-.13-3.28-.2-4.91-.35-1.85-.16-2.59.77-2.54,2.5.06,2.12.06,4.23.2,6.34A6.66,6.66,0,0,1,217,567c-4.9,5.28-4.4,11.49,1,16.19.34.3.88.5.77,1.07-.55,3,.35,5.9.47,8.85a4,4,0,0,0,4.32,3.53c.77-.13,1.54-.22,2.31-.32,2-.24,2.93.49,2.69,2.64a15,15,0,0,0,0,4.68c.48,2.25-.45,2.71-2.38,2.74-5.45.08-5.45.12-5.29,5.63a7.54,7.54,0,0,1,.06.94c-.26,2.52.89,5.77-3.26,6.28-.13,0-.24.19-.36.28-3.95,3-6.23,6.82-6.29,12-.06,4.37-.21,4.37,3.95,3.49a16.75,16.75,0,0,1,1.86-.3,123.55,123.55,0,0,1,22.91-.66c2.49.21,3.23-.83,3.21-3,0-.71.1-1.41.06-2.11-.33-6.41.47-12.81,0-19.24-.3-4.33,0-4.35-4.38-4.25-1.54,0-3.07,0-4.61.06,0-1.55,0-3.1,0-4.65,0-4.65,0-4.63,4.64-4.79.72,0,1.42-.26,1.8.61.15.36.37.51.63.11.95-1.44,2.9-2.28,2.27-4.64-.37-1.39,0-3-.11-4.45a5.87,5.87,0,0,1,1.38-4c2.46-3.44,4-7.35,3-11.63-.63-2.5-1.22-5.48-4.79-5.89-.36,0-2.85-.51-.52-1.86.25-.14.39-.67.41-1,.16-2.66.26-5.31.4-8,.07-1.18-.4-1.68-1.63-1.68-2.27,0-4.54-.15-6.81-.18-1,0-1.38-.29-1.75-1.34-1.2-3.38-.4-6.79-.43-10.18,0-1.24,1-1.21,1.87-1.2,1.73,0,3.45.07,5.17.11s2.56-.84,2.53-2.6c0-1.41.13-2.82.08-4.23s.32-1.84,2-1.82c6.26.08,12.46,1.17,18.74,1a84.28,84.28,0,0,1,12.41.42c4,.47,7.95.62,11.93.73,6.12.18,5.71-.44,5.1,6.08-.21,2.29.35,3.15,2.73,3.32,2,.15,4.05.3,6.09.36,1,0,1.37.4,1.43,1.39.2,3.51.47,7,.71,10.53.15,2.17-.82,3-3,2.66-1.45-.19-3.13-.61-4.14,1.09-1.59-.75-2,.37-2,1.51,0,2.89-.6,5.78,0,8.67a1.68,1.68,0,0,1-.76,2c-2.24,1.58-2.68,4-2.85,6.57-.2,3,2,4.58,3.68,6.48.41.45,1.31.93,1,1.46-1.64,2.43,0,4.87-.15,7.3-.29,5.15-.07,5.24,5.2,5.3,2.1,0,3.26.36,2.8,2.87a12.3,12.3,0,0,0,.23,3.9c.5,3.5,0,4-3.55,3.34-.38-.07-.75-.23-1.13-.3a14.11,14.11,0,0,0-3.51-.08,1.22,1.22,0,0,0-.6-.1c-.93.05-1.12.68-1.06,1.48,0,.47.05.94.05,1.41.06,7.68,1.2,15.42-1.35,22.94-.38,1.13.06,1.61,1.24,1.57,11.05-.4,22,1.25,32.92,2.25,1.67.15,2.24-.41,2.21-2.08,0-2.26-.92-4.29-1.53-6.37-1.05-3.55-2.69-6.76-6.25-8.59-1-.52-2.65-.83-2.78-1.94-.31-2.64-1.16-5.42.16-8,.72-1.42.07-1.74-1-1.78-1.48-.05-3,.12-4.45.15-3.4.08-3.72-.26-3.56-3.63.09-1.72.25-3.44.24-5.16,0-1.24.45-1.61,1.67-1.53,1.79.12,3.6,0,5.39.09,1.54.06,2.35-.34,2.13-2.14-.36-3-.49-5.93-.78-8.89-.07-.72-.3-1.42.42-1.91,2.48-1.7,3.35-4.41,4.35-7,.55-1.46,1.16-3.16.3-4.51a26.08,26.08,0,0,0-4.23-4.92,2.45,2.45,0,0,1-1-2.73,40.29,40.29,0,0,0,.57-6.78c.05-1.53-.64-2.52-2.43-2.36a41.93,41.93,0,0,0-5.37.3c-1,.2-1.92.16-1.9-1.29.05-3.66.06-7.33.09-11,0-1.18.34-1.91,1.77-1.86,1.87.07,3.75-.16,5.63-.12,1.42,0,2.21-.23,2.12-1.91s.13-3.44.16-5.16c0-.85.24-1.31,1.2-1.28,5.47.13,11,0,16.39.44,3.55.3,7-.29,10.46-.43,3-.11,4.13-3,2.64-5.55a4.22,4.22,0,0,1-.61-2.91c1-5.63-.47-11.21-.4-16.84.08-6.54-.34-13.1-.22-19.65.14-7.93.58-15.85.87-23.77.06-1.44.2-2.56,2.11-2.65,3.25-.16,6.09-1.33,7.95-4.22,1.16.69,1.41,1.95,2.33,2.72,2.51,2.09,2.27,3.53-.63,5.08-2,1.09-2.53,3.37-.95,5a14.93,14.93,0,0,1,2.7,3.8c1.58,3.16,2.4,3.33,5.08,1.06,1-.87,1.73-1.26,2.33.38a14.74,14.74,0,0,0,1.23,2c.33.61.42,1.34-.4,1.53-1.18.26-1.9,1.37-3.13,1.49s-1.68.9-1.36,2.15c.54,2.11,1.12,4.23,1.51,6.38.67,3.67,1.33,4.17,5,3.38,2.94-.63,2.92-.63,3.47,2.34.26,1.41.62,2.81.93,4.21a16.56,16.56,0,0,1-4.6-.44c-2.9-.46-3.76.41-3.61,3.29a30,30,0,0,1-.19,3.27c-.1,2.09-.74,4.32-.39,6.18.32,1.67-.07,1.82-1.17,2.43a7.45,7.45,0,0,0-3.47,4.54,18.39,18.39,0,0,0-.69,6c.25,7.76,5.82,13.77,12.21,15,9.88,1.9,16.79-5.61,17.76-15,.25-2.44.34-4.9-2-6.61a1.14,1.14,0,0,1-.31-1.48c1.27-3.29,1.58-6.83,2.54-10.2.7-2.47-.52-4.07-3.16-4.19a22.39,22.39,0,0,1-6-1.21c-.57-.18-1.19-.32-1.15-1.21a30.9,30.9,0,0,0-.71-6.71c-.21-1.25.16-1.83,1.53-2,1.85-.22,3.66-.79,5.5-1.09,1.2-.19,2-.8,1.88-2-.44-3.31-.45-6.73-1.69-9.88a3,3,0,0,0-3.93-2,29.86,29.86,0,0,1-6.43,1.32c-.85.05-1.61.05-1.9-.9a6.78,6.78,0,0,0-1.91-2.61c-1.15-1.21-1.59-2.45.35-3.51s3.74-2.27,5.61-3.42,2.22-2.23.82-4-3.19-3.63-4.79-5.44c-1.19-1.35-2.28-1.38-3.73-.18a38,38,0,0,1-4.6,2.78c-.83.51-1.34.43-1.88-.48a19.69,19.69,0,0,0-3.09-4.39,8.71,8.71,0,0,1-3-7.12c0-4.92-1.48-9.22-6.4-11.82-3.26-1.72-6.81-1.56-10.16-2.5-1.69-.48-3.37-1.2-5.24-.91a71.53,71.53,0,0,1-9.6.32c-2.38,0-1.74-1.71-1.92-2.93-.23-1.59.93-1.43,2-1.46,4.06-.13,8.13,0,12.15-.82.53-.1,1.25-.31,1.6-.06,1.75,1.23,3.18.43,4.94-.18,4.92-1.68,8.62-5.12,12.57-8.21,2.74-2.15,5.17-4.72,7.83-6.94,3-2.53,6-5.15,8.9-7.82,1.33-1.22,2.56-2.7,4.47-2.68,4.9.06,9.75-.87,14.7-.51a8.72,8.72,0,0,0,9-6.48c1.65-6.14,2.58-12.38,1.57-18.76-.43-2.68-1.53-4.65-4.36-5.77a22.09,22.09,0,0,0-8.2-1.53c-1.38,0-3.51.49-3.67-1.76-.26-3.73-.45-7.51.5-11.2,1.44-5.59,2.76-11.23,4.46-16.75,1.11-3.62,1.77-7.39,3.56-10.83a91.47,91.47,0,0,0,3.87-8.69c1.1-2.81,2.36-5.75,6.44-5.55a3.42,3.42,0,0,0,3.32-2.84c.45-1.81,1.18-3.63-1.09-4.93M166.29,522.78a6,6,0,0,1-.1,4.54c-1.48,3-3,6.08-6.35,7.46-2.57,1.05-4.91,2.63-7.93,2.48-4.79-.24-10.67-4.47-12.12-9a7.58,7.58,0,0,1,3.47-9c4-2.4,8.51-2.66,12.82-3.29,4.45,1,8.56,2,10.21,6.88m-10-18.54c5.65.08,5.63.08,5.66,4.91,0,1.41.19,2.81.27,4.21.05.91,0,1.48-1.28,1-5-1.67-9.93-.81-14.74,1-.58.22-1.15.46-1.72.7-1,.41-1.46.1-1.43-1,.07-2.81.14-5.62.12-8.43,0-1.53.69-2,2.12-2.09,3.89-.1,7.79-.27,11-.38M165,484.32c1.5.64,1.76,1.55,1.28,3s-.51,3.36-1.48,4.34-2.73-.36-4.12-.61c-4.36-.79-8.65-2-13-3a1.81,1.81,0,0,1-1.44-2.26c.47-6.78,1.13-7.33,7.31-5.45a106,106,0,0,1,11.42,4m9.63-18c.35.5.66,1,.93,1.47-.75,2.33-2.48,3.86-3.68,5.72-.36.56-1.12-.15-1.61-.5-4.45-3.21-8.87-6.47-13.35-9.64-2-1.45-2.16-1.79-.57-3.83,1.15-1.48,2.78-2.49,3.77-4.13.62-1,1.38-.27,1.95.22,2.73,2.3,5.52,4.55,8.11,7,1.42,1.33,3.31,2.06,4.45,3.69m11.4-8.64a12.37,12.37,0,0,1-4.86-3.19c-.61-.64-1-1.44-.79-1.85.37-1,.47-1.52.14-1.88-2.19-2.36-.9-4.9-.2-7.24.9-3,2.6-5.62,5.77-6.89,1.58-.63,2.26-.25,2,1.45a87.62,87.62,0,0,0-.21,18c.11,1.5-.4,2.1-1.87,1.57M390.29,527a20.11,20.11,0,0,1-3,8c-3.26,5.45-14.09,5.8-18.11,1.3-3-3.35-4.28-6.2-4.2-10.77.1-5.74,2.83-8.21,9.2-8.24,5.64,0,10.37,2.5,14.95,5.43,1.66,1.06,1.34,2.78,1.16,4.24M389,507c1.17.21,1.44.78,1.16,1.78a45.24,45.24,0,0,0-1.3,8.34c-.1,1.22-.42,1.52-1.77,1-4.63-1.76-9.19-4-14.4-3-1.92.35-2.25-.81-2-2.31.11-2.34.23-4.67.31-7,.06-1.41.64-1.84,2.11-1.64,5.34.73,10.59,1.92,15.88,2.87m-4.26-26.2c.84-.21,1.61-.37,1.94.59.87,2.57,1.94,5.09,2,7.87.13,1-.58,1-1.31,1.15-5.32,1.1-10.85.84-16.08,2.47-1.06.33-1.52-.11-1.88-1.11a32.72,32.72,0,0,1-1.2-5.43c-.2-1.13.48-1.6,1.35-1.81,5-1.26,10.11-2.45,15.15-3.73m-20.36-12.89c2.73-1.88,5.29-4,8.47-5.27,1.46-.57,2.37-.65,3.55.42.93.84,1.66,1.86,2.59,2.66,1.66,1.4.9,2.16-.56,2.81-4.47,2-8.36,5-12.66,7.31a6.06,6.06,0,0,0-.7.51,1.29,1.29,0,0,1-1.3-1.23c.09-1.95-3.58-2.39-1.91-4.8a10,10,0,0,1,2.52-2.41M154,322.34c-1.11.26-3.31-2-3.53-3.57a8.4,8.4,0,0,1,.09-2.55c.17-1.05.65-2,1.93-1.94a2.3,2.3,0,0,1,2.45,1.75,30.18,30.18,0,0,1,.46,3.47c-.43,1,.11,2.48-1.4,2.84m13.17,76.8c-.22.51-.81.46-1.25.43-5.39-.46-10.78-.4-16.18-1.58-3.53-.78-5.57-2.54-6.64-5.2-1.59-3.92-2.82-8.14-1.06-12.49a6.72,6.72,0,0,1,5-4.48c3.52-.64,7.11-.88,10.13-1.23,1.11.12,1.65.2,2.2.24,1.35.11,3,.58,3.41,1.58s-1.26,1.61-2.1,2.14c-2.73,1.73-3.35,4.57-4,7.33-.56,2.4.78,4.43,2.54,5.72,2.59,1.89,4.4,4.63,7.19,6.26.43.25,1,.61.73,1.28M193,416c-.54.3-1-.17-1.48-.45a65.86,65.86,0,0,1-8.84-6.85c-2.19-2-4.69-3.56-7-5.36-5.62-4.35-10.11-9.92-15.76-14.21a2.43,2.43,0,0,1-.93-2.5c.27-3.71,2.83-5.74,5-7.86,5-4.91,10.38-9.48,15-14.75,3.2-3.62,6.91-6.73,10.2-10.24a2,2,0,0,1,1.89-.71c.8.25.3,1.09.31,1.64.1,12.52.24,25,.8,37.54.24,5.47.53,10.94.41,16.42a48.3,48.3,0,0,0,.63,5.83c0,.51.36,1.17-.24,1.5M235.3,631.6c-6.66,0-13.22,1-19.85,1.3-1.83.08-2.26-.44-2.09-2.23a10.58,10.58,0,0,1,8.22-9.64,85.86,85.86,0,0,1,16.67-2.2c1.73-.06,2.46.47,2.22,2.28-.18,1.31-.14,2.65-.2,4h0c0,.47-.06.94-.06,1.41,0,5,0,5.14-4.89,5.11m4.22-24.31c1.21-.09,1.76.52,1.66,1.68s-.28,2.32-.5,4c-.38.85.84,2.69-.25,3.69s-2.83-.11-4.3,0c-3.88.31-7.75.68-11.64.84-1.59.06-1.94-.31-1.8-1.71.25-2.38-.87-5.52.77-6.94s4.59-.43,7-.88a80.18,80.18,0,0,1,9.07-.74m-2.15-13.62c-4.75.21-9.52,0-14.23.85-.83.15-1.11-.25-1.22-1q-.51-3.48-1.09-6.95c-.27-1.64.38-1.4,1.53-1a28.8,28.8,0,0,0,15.19,1.29c3.07-.5,3.2-.56,3.19,2.51,0,.31,0,.63,0,.94-.16,3.2-.16,3.17-3.33,3.31m7.6-22.34a2.72,2.72,0,0,1,1,2c0,5.68-1.53,9.16-7.56,10.84a21.43,21.43,0,0,1-21.11-4.9c-1.56-1.38-1.36-3.21-1-4.76,1.07-4.07,3-7.29,7.67-8.53a18.92,18.92,0,0,1,6.33-1.08c6-.43,10.52,2.47,14.65,6.39m-5.79-15.73c1.69,0,2,.5,1.71,2-.28,1.69-.27,3.43-.41,5.15-.1,1.24-.71,1.6-1.91,1.13a22.62,22.62,0,0,0-15.8-.53c-1.14.38-1.8,0-1.84-1.27-.06-1.8-.14-3.59-.27-5.39-.08-1.07.49-1.39,1.42-1.35l5.6.25c3.69-.29,7.59,0,11.5,0m-1.5-17.33c-4.59,0-9.18.12-13.77.36-5,.28-5,.15-5.51-5-.17-1.87-.26-3.75-.52-5.61-.2-1.47.24-2,1.76-1.87s3.12.16,4.68.23c4.62-.11,9.15,1.19,13.78.79,1-.09,1.13.56,1.24,1.31a61.12,61.12,0,0,1,.24,8.66c0,1.41-1.16,1.11-1.9,1.11m86.86,92.86a4,4,0,0,0,.13.69c1.19,4,1.18,4.09-3.07,3.66-7.84-.79-15.66-1.87-23.56-1.85-1.65,0-2.28-.78-2.26-2.25,0-3,.1-5.93.15-8.89,0-1.31.81-1.54,1.89-1.4a48.5,48.5,0,0,0,8.12.17c3.11.14,5.93.19,8.73.41,5.21.42,9,4.12,9.87,9.46M313.41,611.2c1.42,0,2,.5,1.86,1.95a45.74,45.74,0,0,0-.16,4.69c0,1.1-.41,1.56-1.52,1.54-5.24-.09-10.48-.2-15.72-.17-1.7,0-2.13-.68-2.09-2.23.07-2.19,0-4.37-.07-6.55.93.25,1.93.42,2.27.55a5,5,0,0,0,1.61.12c4.6,0,9.21.11,13.82.1m-.11-14.1c-.39-.06-.78,0-1.52-.08-1.09-.11-2.65.28-3.78-1.08a1.14,1.14,0,0,0-1.53-.11c-2.39,1.7-5,.28-7.51.66-.8.12-1.22-.42-1.35-1.27a44.49,44.49,0,0,1-.47-6.52c0-1.27.55-1.22,1.46-.9a28.72,28.72,0,0,0,15.4.9c1.13-.22,1.58-.2,1.55,1.08a32,32,0,0,0,.19,4.9c.28,2-.51,2.73-2.44,2.42m7-21.58c1.34,2.45-.21,6.6-2.79,8.34-3.44,2.33-7.12,3.55-11.53,2.67-4.38,1-7.67-1.93-11.08-4.14-2.82-1.84-1.8-8.22,1.42-10a23,23,0,0,1,15.84-2.63,11.35,11.35,0,0,1,8.14,5.72m-6.06-14.75c1.21-.13,1.64.4,1.66,1.63.09,5.29-.05,5.36-5.28,4.94-4.34-.34-8.74-1-12.82,1.41-1.18.71-1.51-.14-1.54-1.16-.08-2.61-.51-5.21-.14-7.82a3.86,3.86,0,0,0,3.6,1.45c4.84-.13,9.69.11,14.52-.45m1.64-20.3c-.2,1.09-.93,1.34-1.88,1.29-5.8-.28-11.62-.19-17.41-.75-1-.1-1.56-.42-1.56-1.55a63.58,63.58,0,0,0,0-7.93c-.15-1.22.91-1.06,1.65-1,3,.1,5.93.25,8.89.39a1.34,1.34,0,0,0,0-.2c2.65.12,5.3.3,8,.34a2,2,0,0,1,2.26,1.77,19.05,19.05,0,0,1,.07,7.67m33.9-100.72c5.51,1.05,7.55,5.1,8.32,9.7a13.14,13.14,0,0,1-4.59,12.38c-1.19,1.05-2.73.8-4,.47-1.07-.29-.38-1.64-.54-2.51a124.7,124.7,0,0,1-1.47-15.55c0-.86-.11-1.72-.16-2.57-.11-1.83.33-2.31,2.43-1.92M340,441.6c1.73.1,2.23.62,2.26,2.35.09,4.44,0,8.91,1,13.3a12.15,12.15,0,0,1-.39,5c-.45,2.3-.17,4.75-.27,7.15-.71,16.25-.23,32.52.07,48.78,0,3,.47,5.92-.31,8.87-.5,1.86-1.5,2.74-3.53,2.62-5.15-.31-10.31-.49-15.46-.72-19.12.45-38.17-.73-57.24-1.54-8.48-.36-16.93-1.71-25.41-1.91-10.67-.25-21.32-1.67-32-.48-3.63.4-7.35.11-11,.21-1.73,0-2-.9-2.14-2.35-.9-7.48-.21-15-.63-22.48-.24-4.21-1.09-8.37-1.09-12.6,0-8.6-.47-17.17,0-25.78.25-4.38-.36-8.88-.56-13.32-.13-2.83.5-5.63.13-8.44-.13-1,.43-1.28,1.37-1.45a93.07,93.07,0,0,1,11.87-1.21c2.31-.14,4.52-.9,6.95-.41,10.51,2.14,21.16.12,31.72.78,5.46.34,11,.68,16.4.7,6.56,0,13.1.54,19.65.68,7.72.17,15.44.92,23.16,1.36,4.92.28,9.91.06,14.76.76,6.93,1,13.79-.29,20.68.11m-18.42-7.94c0,1.52-.71,1.92-2.24,1.84-14.67-.72-29.35-1.35-44-2-14.58-.87-29.18-1.56-43.8-1.65-3.2,0-6.42,0-9.6.28-1.73.14-2.25-.44-2.21-2,0-1.8.08-3.6,0-5.39-.05-1.5.64-1.82,2-1.76,12.09.54,24.19.75,36.28,1.44,15.76.89,31.56.95,47.33,1.6,4.91.2,9.83.24,14.75.51,1.41.08,1.95.53,1.78,2-.2,1.71-.26,3.44-.31,5.16m21.13-9.28c-6.87.06-13.74,0-20.62.26-4.81.17-9.65-.83-13-.69-18.64-.62-35.77-1.13-52.88-1.76-12.12-.45-24.26-.56-36.37-1.12-6.72-.31-13.58-.24-20.25-1.71l-.23,0c-4.49-1.16-5.11-1.91-5-6.61.39-12.59-.31-25.16-.66-37.75-.23-8-.28-16.11.11-24.16.17-3.5,1.79-5.08,5.28-5.1,13.92-.05,27.83.15,41.74.26l34.26.26c13.59.11,27.2-.15,40.78.84,8.27.61,16.57.77,24.86,1,2.28.07,3.16.66,3,3.23-.46,9.95,1,19.83,1.41,29.75.44,11.11.32,22.22-.07,33.33-.08,2.5,0,5,.08,7.51.05,1.79-.72,2.47-2.53,2.49m19.83-12.61a42.13,42.13,0,0,0-7.75,6.35c-1.53,1.73-4.09,2.1-5.7,3.93-.81.93-1.21-.05-1.33-.95-.53-3.73-.24-7.48-.34-11.22q-.33-12.42-.61-24.83c-.15-8.51,0-17-.74-25.52-.22-2.4-.13-4.82-.17-7.24,0-.37-.11-.89.38-1a1.65,1.65,0,0,1,1,.43c5,4.14,10.15,8.18,15.06,12.46C369,370,375.54,376,382.12,381.9a14.62,14.62,0,0,0,2.24,1.69c2.18,1.29,3,3.36,1.8,5.59-1.77,3.4-3.43,7.11-6.88,9-6.44,3.51-10.83,9.44-16.73,13.59m34.27-33.85c2.74.11,4.86,3.28,5.05,6.17.24,3.62-.56,7.15-1.29,10.64-.35,1.67-1.84,2.85-3.44,3.6-5.25,2.43-10.84.77-16.75,1.95,3.91-3.79,8.15-6,8.78-11.7.69-6.27-3.7-8-7.64-10.57,5.23-.87,10.27-.29,15.29-.09m11.21-63c-1.67-.07-1.67-1.33-1.81-2.55.53-1,.13-2.8,2-2.65a2.3,2.3,0,0,1,2.34,2.67c-.18,1.36-.78,2.6-2.53,2.53" transform="translate(-132.21 -291.78)"/><path class="cls-2" d="M134.46,306.32c.56-5.63,3.83-9.42,8.42-12.28.58-.36,1.53-.39,1.23-1.34a1.38,1.38,0,0,0-1.92-.82,6.16,6.16,0,0,0-1.76.57,19,19,0,0,0-6,7.05c-.93,1.88-2.55,3.66-2.2,5.8a7,7,0,0,0,0,1c.08.9-.12,2.17,1.15,2.2s1-1.26,1.08-2.14" transform="translate(-132.21 -291.78)"/><path class="cls-2" d="M140.52,310.54c-.69-4.85,2.85-7.37,5.66-10.27.45-.48,1.45-.66.81-1.56a1.32,1.32,0,0,0-2-.41,16.48,16.48,0,0,0-6.76,10.75,14.4,14.4,0,0,0,.15,1.83,1,1,0,0,0,1.15.95,1,1,0,0,0,1-1.29" transform="translate(-132.21 -291.78)"/><path class="cls-2" d="M143.58,312.36c.08.25-.11,1.09.75,1.38a.88.88,0,0,0,1.16-.54c.34-2.81,2.29-4.68,3.82-6.8.48-.65.55-1.34-.19-1.83a1.32,1.32,0,0,0-2,.41,45.22,45.22,0,0,0-2.52,4.44c-.39.82-1.22,1.49-1,2.94" transform="translate(-132.21 -291.78)"/><path class="cls-2" d="M314.05,373.64c-2.23-.18-5.1.34-5.54-3.22,0-.38-.79-.92-1.24-.95-2.29-.15-2.24-1.64-2.07-3.28.12-1.17.14-2.35.28-3.51.25-2.18-.82-3.21-2.87-2.3-8.09,3.59-12,9-10.77,17.82.31,2.2.77,4.5,2.73,6,2.35,1.85,4.71,3.66,7.65,3.31,5.36,1.07,12.95-3.37,14.67-9.7,1-3.73,1-3.91-2.84-4.21M304.3,371c1.62.32,2.85,1.11,2.75,3-.29,3.39-.87,4.27-2.83,4.2a3.55,3.55,0,0,1-3.4-3.25c0-1.28,2.47-4.14,3.48-3.94m9.46,7.89c-.74,2-2.58,3.08-4.22,4.28-3,2.17-3.47,2.27-7.09,2-5.76-.42-9.68-6-8.29-12.25.95-4.24,3.7-7.25,7.43-9.44,1.43-.84,1.75-.13,1.61,1-.24,2-.13,3.92-2.27,5.45-1.87,1.35-3.85,3.36-2.65,6.38,1.41,3.54,1.72,3.34,5.86,3.94a4.66,4.66,0,0,0,5.54-3.25c.87-2.52,2.6-1.41,3.79-1.08,1.73.49.6,2.07.29,2.92" transform="translate(-132.21 -291.78)"/><path class="cls-2" d="M243.61,361.92a18.09,18.09,0,0,0-11.7-.27c-2.51.83-2.88,3.3-4.35,4.9a12.77,12.77,0,0,0-.78,14.37c3.61,4.56,8.56,5.41,13.73,3.88,4.69-1.39,8.47-4.16,9.41-9.6.81-4.73-2.28-11.95-6.31-13.28m2.56,15.94c-3.29,5.31-10.79,6-15.19,3.79-3-1.54-3.48-4.56-3.23-8-.19-4.8,2.9-7.84,7.06-9.94,3.13-1.58,8.5.3,11,3.5a9.12,9.12,0,0,1,.4,10.69" transform="translate(-132.21 -291.78)"/><path class="cls-2" d="M305.43,402.74c-3-1.57-5,.18-7.2,1.62-2.45,1.61-4.3,5.72-3.64,8.16,1,3.65,2.68,4.86,6.78,5.28,5.25.53,9.07-4.26,9-7.79.08-2.28-2.81-6.16-4.92-7.27m-3.66,13c-2.12.47-3.07-1.14-4.13-2.43a3.3,3.3,0,0,1-.7-2.87c.26-2.54,4.08-5.84,6.58-5.69,2.23.13,4.28,3,4,5.66s-2.37,4.59-5.75,5.33" transform="translate(-132.21 -291.78)"/><path class="cls-2" d="M258.6,401c-3.15-.23-7.9,4.55-7.84,8.26.06,3.44,1.85,6.72,6.4,6.83,6.23.37,9.17-3.87,9.53-7.81.31-3.33-4-7-8.09-7.28m2.81,11.53c-2.94,2-5,2-6.89.05a4.16,4.16,0,0,1-1-3.45c.23-3.79,3-5.83,6.58-4.87,1.65.44,3.77.25,4.21,2.6.49,2.59-.87,4.3-2.86,5.67" transform="translate(-132.21 -291.78)"/><path class="cls-2" d="M241.18,401.28c-1.39-1.24-3.48-2.26-4.85-1s-3.25,2-4.75,3.26c-3.8,3.1-4.05,7.45-.45,10.31,1.64,1.3,3.72.92,5.32,1.53,2.32.11,4.93-.91,5.91-2.22,3.07-4.09,2.68-8.42-1.18-11.83m-5.11,12c-3-.2-4.88-1.93-4.69-4.4.23-3.1,4.18-6.42,7.28-6.12,1.52.15,3.71,3.38,3.58,5.29-.19,2.75-3.33,5.42-6.17,5.23" transform="translate(-132.21 -291.78)"/><path class="cls-2" d="M284.32,401.68a3.87,3.87,0,0,0-2.92-.5,9.58,9.58,0,0,0-6.35,8.34c-.26,2.37.3,4.75,2.75,5.79,2.24.94,4.82,1.86,7.05-.19a17.71,17.71,0,0,0,2.6-3.28,7,7,0,0,0-3.13-10.16m-3.46,12c-2.1-.12-3.51-1.87-3.39-4.21.12-2.67,3-6,5-5.79,2.44.22,3.69,1.94,3.51,4.81s-2.67,5.34-5.17,5.19" transform="translate(-132.21 -291.78)"/><path class="cls-2" d="M236.53,367.94c-.83.22-2.45-.64-2.58,1.11a11.92,11.92,0,0,1-.52,2.43c-.88,3.27,0,4.86,3.24,6a4.93,4.93,0,0,0,5.78-2.58c1.3-3-1.84-6.78-5.92-6.95m1.35,7.52c-1.51,0-2.06-1.26-2.12-2.58-.08-1.73,1.44-1.23,2.37-1.46,1.26-.31,1.56.62,1.79,1.44-.27,1.33-.66,2.59-2,2.6" transform="translate(-132.21 -291.78)"/></svg>