<svg id="Layer_1" data-name="Layer 1" xmlns="http://www.w3.org/2000/svg" viewBox="0 0 283.9 313.33"><defs><style>.cls-1{fill:#fff;}.cls-2{fill:#010101;}</style></defs><path class="cls-1" d="M488.76,515.47c1.22.14,2.76.24,2.72-1.46-.06-2.53,2.19-4.84.74-7.37-.27-.48-1.58-.48-2.41-.51-2.42-.07-4.83,0-7.24-.08-2.23-.06-4.69-1.29-6.6-.05s-.53,4.22-2,6.4a79.2,79.2,0,0,0,14.81,3.07" transform="translate(-212.61 -309.42)"/><path class="cls-1" d="M296.44,358.72C302.31,364,309,366.4,317,364.81a12.26,12.26,0,0,0,9-6.32,31.43,31.43,0,0,0,2.83-8.35c.53-2.37-.2-4-2.76-4.7a24.48,24.48,0,0,0-7-1,30.82,30.82,0,0,0-22,5.06c-4.28,2.79-4.51,5.82-.7,9.22" transform="translate(-212.61 -309.42)"/><path class="cls-1" d="M363.35,565.13c.85,0,1.7,0,2.56,0,1.71,0,3.42.12,5.13.12,2.28,0,2.11-1.83,2.31-3.29s-.35-2.12-2-2.21c-2.89-.14-5.74-.67-8.66,0-2.24.51-1.8,2.09-1.81,3.6,0,1.76,1.17,1.8,2.44,1.77" transform="translate(-212.61 -309.42)"/><path class="cls-1" d="M394.08,441.55c.92-6.87,1.42-13.8,2.28-20.68.35-2.72-.57-3.66-3.25-3.85-6.93-.5-13.83-1.24-20.74-1.88q-28.25-2.62-56.5-5.23c-4.07-.37-4.09-.32-4.38,3.51-.54,7.21-1.26,14.42-1.55,21.65-.74,18.13-3.4,36.18-2.13,54.69,28,2.12,56.2,4.13,84.81,4.6a20.34,20.34,0,0,1-1.29-7.12c.42-15.26.72-30.52,2.75-45.69" transform="translate(-212.61 -309.42)"/><path class="cls-1" d="M367.94,568.33c-.19,3.48,2.53,5.91,3.47,9,3,9.76,6.51,19.33,10.32,28.8a4.73,4.73,0,0,1,.46,3,1.78,1.78,0,0,1-.89,1.13,1.59,1.59,0,0,1-1.38-.37,4.18,4.18,0,0,1-1-1.78c-1.95-8.11-5.69-15.6-8.15-23.53-1.52-5-3-9.93-5.52-14.53-.62-1.15-1.13-2.06-2.68-1.83-1.8.27-2.2,1.43-2.17,3,0,.35,0,.7,0,1,.11,10.23,0,20.44-.81,30.64a44.81,44.81,0,0,0,0,6.24c.3,4.83.37,5,5.12,4.9a247.44,247.44,0,0,1,28.56.85,13.21,13.21,0,0,0,6.17-.59c-1.45-4.67-4.39-8.14-6.25-12.18-4.25-9.25-9.52-18-14-27.18-2.4-4.92-5.48-7.74-11.33-6.56" transform="translate(-212.61 -309.42)"/><path class="cls-1" d="M390.6,369a30.79,30.79,0,0,0,16.68,2.45c8.83-1.07,12.34-4.71,12.7-14-1.54-.2-3.09.28-4.71-.64-7-3.93-14.6-5.05-22.52-4.61a20.88,20.88,0,0,0-6.48,1.69,3.17,3.17,0,0,0-2,2.18c-1.21,4.42,2.17,11,6.37,12.88" transform="translate(-212.61 -309.42)"/><path class="cls-1" d="M402.21,431.86c-.66,3.15-1.63,5.75-.17,8.68,4.67-5.1,5.16-5.66.17-8.68" transform="translate(-212.61 -309.42)"/><path class="cls-1" d="M421.93,384.21c-12.12-.71-24.24-1.28-36.35-2-14.36-.92-28.7-2.36-43.07-2.94-17.84-.72-35.69-1.11-53.35-4.13-1.32-.22-2.71-.64-4.34.29.58,3.26,1.07,6.66,1.81,10,1.46,6.5,1.52,6.47,8.24,7,11.23.87,22.47,1.19,33.74,1.23,8.63,0,17.28.22,25.91.78,16.24,1.06,32.58.67,48.71,3.32,5.13.84,10.3,1.43,15.45,2.12,1.37.18,2.8.5,3.53-1.23,1.86-4.41,4.75-8.45,4.86-13.46-1.66-1.15-3.45-.82-5.14-.92" transform="translate(-212.61 -309.42)"/><path class="cls-1" d="M442.12,418.21c4.88-.46,4.92-.54,5.49-5.48,2.59-22.45,3.49-45,4-67.58.12-5,.06-10.06.1-15.09,0-2.27-.73-3.14-3.33-3.28-12.12-.67-24.21-1.95-36.36-2.46-10.91-.46-21.79-1.68-32.68-2.51-7.62-.58-15.25-1-22.86-1.62-3.45-.28-6.85-1-10.35-1.06-12.31-.37-24.62-.9-36.92-1.33-9.7-.33-19.43-.51-29.13-1.11-5.53-.34-11.1.05-16.65,0-1.87,0-2.46.66-2.28,2.46.81,7.81-.21,15.61-.21,23.42,0,13.72-.43,27.41-1.67,41.08a146.68,146.68,0,0,0-.63,17.16c.07,2.63.85,4,3.82,4.14,6.76.3,13.5,1.06,20.26,1.44,11.61.66,23.23,1.17,34.84,1.76,18.91,1,37.69,3.43,59.18,5.33,15.51,1.49,33.63,3.47,51.84,4.57a86,86,0,0,0,13.52.18m-48.46-81.32c7.77-4.23,13.28-3.95,20.62,2.48a25.13,25.13,0,0,1,8.8,19.14c.26,9.4-4.56,13.66-13.42,15.77-3.13.74-6.48,1.35-9.1.57-6.3-.35-10.89-3.05-15.37-6.1a6.05,6.05,0,0,1-2.3-3.31c-4.41-12.5-.8-22.26,10.77-28.55m-102.73,5.55c3.65-5.61,8.23-10,15-12,3.42-1,6.51-2.75,10.32-2.57a12.6,12.6,0,0,1,10.16,5.17c6.82,8.77,6.16,18.09,2,27.4-1.88,4.21-6,6.68-10.78,7.19a69.08,69.08,0,0,1-7.63.15c-10.57-1.14-16.43-7-20.33-14.95-1.63-3.32-.85-7.27,1.21-10.43m87.73,55.73c-14-.76-28-1.74-42.06-1.71-15.93,0-31.9-.26-47.79-2-4.82-.53-9.7-.62-14.55-.79-2.42-.08-3.22-1-3.14-3.53.15-4.5-.19-9-.28-13.52-.1-4.95.42-5.28,5.27-5.16,12.51.32,24.77,3,37.24,3.7q14,.75,28.06,1.46c20.29.79,40.41,3.86,60.69,4.61,11.27.42,22.51,1.39,33.79,1.26,1,0,2.09,0,3.12,0,2.18.14,3,1.37,2.86,3.48a16.89,16.89,0,0,1-1,5.08c-1.35,3.46-1.32,7.14-1.74,10.75-.2,1.7-.76,3.2-3,1.93-1.26-.72-2.69-.63-4.06-.76-17.79-1.68-35.56-3.88-53.39-4.84" transform="translate(-212.61 -309.42)"/><path class="cls-1" d="M331.25,571.57c0-2-1.07-2.84-2.75-3.13-3.27-.56-6.57-.16-9.85,0a2,2,0,0,0-1.92,1.51c-1.5,5.08-5.32,8.87-7.57,13.48-4.83,10-9.61,19.92-14.86,29.67a4.45,4.45,0,0,0-.24,1.34c1,.86,2.12.51,3.11.4,10.33-1.15,20.74-.51,31.1-1.34,3.88-.32,4.31-.19,4-4.56-.74-10-.95-20.05-.71-30.1.06-2.42-.33-4.85-.29-7.27m-3.4,4.76a27.92,27.92,0,0,0-2.21,6.9,54,54,0,0,1-3.58,11.35,80.75,80.75,0,0,0-4.85,14.24c-.29,1.22-.63,2.37-2.07,2.77a1.07,1.07,0,0,1-1.08-.81,4.06,4.06,0,0,1,.16-2c2.7-5.66,3.53-11.93,5.87-17.72,1.28-3.19,1.93-6.63,2.91-9.93.59-2,1.26-4,1.95-5.92.54-1.54.86-4.12,2.95-3.31s.69,3,0,4.46" transform="translate(-212.61 -309.42)"/><path class="cls-1" d="M413.22,441.1c-1.45-1.18-2.81-2.48-4.61-4.07-.7.89-1.12,1.4-1.52,1.93-.53.68-1,1.37-1.56,2.05-2.41,3.07-2.41,3.07.66,5.54.53.43,1.06.87,1.63,1.26,2.44,1.65,3.94,1,6.6-2.24,1.9-2.31.33-3.25-1.2-4.47" transform="translate(-212.61 -309.42)"/><path class="cls-1" d="M363.87,556.94c2.92.09,5.9-.17,9.21,1.35.59-6.24,1.26-11.88,1.62-17.54.5-8.06,1.46-7.12-6.86-7.38s-7.28-.94-7,7c.13,4,.18,4,4.05,3.65,2.23-.22,4.46-.52,6.7-.58a1.54,1.54,0,0,1,1.62,1.63c-.08.88-.91.82-1.59.88-1.55.12-3.1.23-4.63.44-6.75.93-6.6.93-6.21,7.6.14,2.39,1.07,2.85,3.12,2.91" transform="translate(-212.61 -309.42)"/><path class="cls-1" d="M330.31,507.23c-1-.15-2-.54-3-.73-4.52-.85-4.88-.62-5.1,4.18-.08,1.66-.78,3.38.18,5.12,2.53,0,5.08-.09,7.63,0,1.85.09,2.41-.86,2.49-2.44a24.1,24.1,0,0,1,.2-3.07c.37-2-.59-2.81-2.41-3.09" transform="translate(-212.61 -309.42)"/><path class="cls-1" d="M458.12,508.32a6.39,6.39,0,0,0,6,7,7.18,7.18,0,0,0,8-6.29c.42-5.23-1-7.3-5.31-7.57-4.7-.3-8.28,2.53-8.7,6.87" transform="translate(-212.61 -309.42)"/><path class="cls-1" d="M321.9,556.75c-1.24.07-2.36,0-2.92,1.51-1.56,4.23.11,7,4.49,7.22a40.41,40.41,0,0,1,4.68.25c2.26.39,3.27-.35,3.12-2.69-.07-1.21.09-2.43.08-3.64-.07-11.8,0-23.59.73-35.37.32-5.17.34-5.17-4.77-5.49-5.51-.34-5.5-.34-5.64,5.44,0,.86-.06,1.74-.16,2.6-.23,2,1,2.38,2.54,2.24,1.38-.12,2.75-.46,4.13-.5,1,0,2.3-.12,2.33,1.34,0,1.08-1.08,1.17-1.92,1.26-1.72.19-3.45.31-5.18.5-.84.09-1.9.09-2.12,1.13-.49,2.36-1.31,4.9-.36,7.13.82,1.94,3.13.58,4.74.94a11.08,11.08,0,0,0,2.08.13c1.09,0,2.3.14,2.11,1.56-.14,1.06-1.3.83-2.13.88-7.29.46-7.16.48-7.85,7.12-.27,2.53.43,3.4,2.9,3.62,2.28.21,5-.21,6.7,3.21-2.93.63-5.23-.54-7.58-.39" transform="translate(-212.61 -309.42)"/><path class="cls-1" d="M331,498.46a36.36,36.36,0,0,1-5.12-.25c-2.07-.3-2.73.63-2.91,2.5s.58,2.52,2.28,2.59c1,.05,2,.19,3,.27.6.14,1.09.28,1.6.36,3.1.51,3.58,0,3.58-3,0-1.73-.66-2.51-2.4-2.51" transform="translate(-212.61 -309.42)"/><path class="cls-1" d="M366.32,530.62c.87,0,1.73-.11,2.6-.11,7,0,7,0,7.32-7.29a6.52,6.52,0,0,0-.32-1.37c-4.17-.08-8.14-.17-12.1-.23-1.2,0-2.37-.08-2.88,1.51-1.75,5.41-.2,7.62,5.38,7.49" transform="translate(-212.61 -309.42)"/><path class="cls-1" d="M364.21,518.92c3.93-.47,7.93.12,11.83-.72.42-4.45.83-8.92,1.26-13.38.15-1.53-.53-2.23-2-2.37-4.32-.39-8.64-.83-13-1.23-1.39-.12-1.71.79-1.8,1.95-.15,1.91.91,2.35,2.55,2.35,3.64,0,7.28.06,10.92.17a1.72,1.72,0,0,1,1.85,2c-.12,1.33-1,1.7-2.2,1.45a35.29,35.29,0,0,0-7.26-.43c-6.29,0-6.29,0-5.6,6.39a4.55,4.55,0,0,1,0,.52c-.17,2.44.91,3.58,3.38,3.29" transform="translate(-212.61 -309.42)"/><path class="cls-1" d="M433.42,459.79c-5-5.64-5.54-5.68-10.16.43-.09.11-.08.31-.2.82,1.77,1.91,3.43,3.64,5,5.45,1,1.12,1.85,1.39,2.94.17a35.93,35.93,0,0,1,2.52-2.57c1.59-1.5,1.33-2.68-.11-4.3" transform="translate(-212.61 -309.42)"/><path class="cls-1" d="M445.48,476.68a3.15,3.15,0,0,1,.38-.35c1.19-.89,1.42-1.77.29-3-2.7-2.91-5.11-6.11-8.73-8.84l-5.72,5.57c2.13,2.29,4,4.29,5.88,6.32,3.78,4.12,3.77,4.13,7.9.27" transform="translate(-212.61 -309.42)"/><path class="cls-1" d="M453.6,484.08c.77-1.35-1-2.77-1.87-4-.74-1-1.07-2.6-2.86-2.82-.85.86-1.75,1.67-2.52,2.58-1,1.11-2.24,1.57-3.89,2.2,1.37,1.81,2.38,3.21,3.46,4.56.53.67,1.08,1.27,2.15,1a8.28,8.28,0,0,0,5.53-3.57" transform="translate(-212.61 -309.42)"/><path class="cls-1" d="M413,450.67c-.29.29-.51.47-.2,1.2.6.58,1.41,1.45,2.31,2.21,5.53,4.72,5.53,4.71,10.59-.9-6.56-8.6-6.56-8.6-12.7-2.51" transform="translate(-212.61 -309.42)"/><path class="cls-1" d="M459.92,492.94c-.08-1.66-3.29-6-4.4-5.95-1.63.07-6.11,3.36-5.94,4.35s4.28,5.79,4.87,5.79c.95,0,5.51-3.48,5.47-4.19" transform="translate(-212.61 -309.42)"/><path class="cls-1" d="M462.87,497c-.24-.51-.69-.85-1.2-.59-2,1-4.41,1.75-5,4.27l.81,1c1.69-1.1,3.39-2.18,5.06-3.31a1,1,0,0,0,.35-1.34" transform="translate(-212.61 -309.42)"/><path class="cls-1" d="M463.49,518.19c-3.56-.53-3.61-.52-4.28,3-.91,4.77-1.76,9.56-2.61,14.34-.29,1.67-1,3.48,1.91,3.71,3.44.27,4.56-.1,4.9-2.92.7-5.81,1.14-11.65,1.71-17.71a12.89,12.89,0,0,0-1.63-.4" transform="translate(-212.61 -309.42)"/><path class="cls-1" d="M241.5,480a5.48,5.48,0,0,0-5.82.72c-1.48,1.35-3.07,2.83-2.41,5.3s2.61,4.26,4.62,4a6.88,6.88,0,0,0,5.42-5.82c-.07-1.42-.1-3.5-1.81-4.2" transform="translate(-212.61 -309.42)"/><path class="cls-1" d="M251,466c-.73-.72-1.21-1.71-2.5-2-3.14,3.27-6.71,6.28-8.84,10.53,5.23,3.15,5.23,3.15,9.3-1.5a17.18,17.18,0,0,1,2.05-2.34c2.11-1.63,1.6-3.11,0-4.69" transform="translate(-212.61 -309.42)"/><path class="cls-1" d="M267.14,446.78a39.26,39.26,0,0,0-6.35,5.23c-.81.74-1.64,1.45-.77,2.54,1.14,1.4,1.56,3.56,3.78,3.86a4.07,4.07,0,0,0,2.64-1.58,18.62,18.62,0,0,1,4.76-3.9c1.33-.82,2.82-1.51,1.5-3.55-1.66-2.58-3.77-3.65-5.56-2.6" transform="translate(-212.61 -309.42)"/><path class="cls-1" d="M240.54,493.07c-.74,2.63,2.34,4.67,3.7,7,.5.88,1.06,1.73,1.59,2.59,7.89-4.7,7.91-4.72,2.73-11.78-.77-1-1.21-2.46-2.73-3-1.85,1.71-4.71,3.14-5.29,5.2" transform="translate(-212.61 -309.42)"/><path class="cls-1" d="M256.6,456c-.4.29-.83.57-1.23.9-5.07,4.25-5.07,4.26-.44,9.34,7.65-5.49,7.65-5.49,1.67-10.24" transform="translate(-212.61 -309.42)"/><path class="cls-1" d="M295.58,426.08a1.37,1.37,0,0,0-1,1.56c.13,1.46,3.29,5.24,4.41,5.21a5.31,5.31,0,0,0,4.63-4.46c.27-2.16.42-4.33.67-7-3.72,1.09-5.61,4-8.7,4.68" transform="translate(-212.61 -309.42)"/><path class="cls-1" d="M279.56,438.08c-.51.06-.92,0-1.16.16a56.24,56.24,0,0,1-4.61,3.3c-2.49,1.38-1.77,2.83-.51,4.58,2,2.78,2.62,3.13,4.9,1.56a66.14,66.14,0,0,0,5.28-4.52c-2.2-1.42-2.59-3.63-3.9-5.08" transform="translate(-212.61 -309.42)"/><path class="cls-1" d="M291.69,429a36.42,36.42,0,0,0-7.43,5c-3,2.35-3,2.35-.77,5.18s2.19,2.83,5.13.85c.72-.48,1.45-.94,2.16-1.42,5.45-3.71,5.45-3.71,1.56-9.14a4.68,4.68,0,0,0-.65-.5" transform="translate(-212.61 -309.42)"/><path class="cls-1" d="M229.47,487.2c-4.33,2.19-7.73,5.7-11.69,8.43-2.33,1.62-.63,3,.23,4.31,1.11,1.74,2.21,1,3.33-.1,3.43-3.23,6.89-6.44,10.45-9.76-.92-1-1.09-2.32-2.32-2.88" transform="translate(-212.61 -309.42)"/><path class="cls-2" d="M454,541c1.83,1.61,5,.81,7.58,1.16.52.07,1,.08,1.56.12a2.07,2.07,0,0,0,2.29-1.68,37.44,37.44,0,0,0,.95-4.57c.49-3.79.67-7.63,1.36-11.38,1.86-10,2.82-10.53,12.73-7.86,3.34.9,6.74,1.65,10.15,2.25,3,.54,3.74,0,3.94-3.11a44.87,44.87,0,0,1,1.56-8.69c.87-3.2.68-3.56-2.68-3.86-4.84-.44-9.73-1.15-14.54-.84-5,.32-7.79-4.37-12.39-4.56-.34,0-.86-.68-.95-1.12-.93-4.23-4.1-7.13-6.17-10.67a107.54,107.54,0,0,0-17.49-21.79c-12.16-12.05-24.45-24-37.88-34.67-1.74-1.38-1.73-2.95-1.19-4.62s2.2-1.34,3.55-1.21c5.7.51,11.39,1.09,17.09,1.57,5.88.5,11.75,1,17.64,1.3,3.85.17,7.87.16,8.92-5a1.21,1.21,0,0,1,.63-.78c2.86-1.12,2.78-3.62,3-6.05,1.29-13.66,2.83-27.31,3.88-41,1.11-14.34,2.68-28.64,2.47-43.1-.1-7.16-5.73-13.18-13.42-11.93-6.72,1.1-13.48.51-20.23-.14-11.57-1.12-23.16-2.6-34.75-2.83-17.52-.35-34.89-2.44-52.34-3.51-12.8-.78-25.66-.88-38.41-2.45a10.38,10.38,0,0,0-2.08-.12c-9.7.91-19.38,0-29.06-.39-2.77-.1-5.55,0-8.33,0-2.41,0-3.77,1.36-4.74,3.42a9.52,9.52,0,0,0-.7,4.06c-.24,12-.31,23.93-.74,35.88-.49,13.53-1.1,27.05-2.54,40.53a38.38,38.38,0,0,0-.08,10.38c1,6,2.36,7.2,8.3,7.94,13.23,1.65,26.62,1,39.82,3,1.41.21,3.57-.62,4,1.34s-1.87,2.24-3.07,3c-10.29,6.09-19.92,13.12-29.53,20.23a169,169,0,0,0-21.72,18.53c-5.77,6-13,11.15-15.54,19.78-.13.44-.67.79-1.06,1.12-3.37,2.91-6.35,6.21-10.06,8.81-3.87,2.72-7.92,5.38-11.1,8.92a27,27,0,0,0,4,6.38c2,2.51,2.42,2.5,4.95.49,3.67-2.92,6.82-6.41,10.71-9.09,3.72-2.55,3.88-2.58,6.11,1.43,2.06,3.72,3.63,7.76,6.53,11.05l9.32-5.3c2-1.16,2.55-2.69,1.24-4.76-2.14-3.35-3.72-7.11-6.49-10-4.2-4.39-3.52-6,.28-10.15a188.69,188.69,0,0,1,20.52-18.91c5.5-4.49,11.23-8.67,17-12.77,4.71-3.35,9.38-6.92,15.27-9.28.3,2.68-.9,4.94-.14,7,1.29,3.58.77,7.16.49,10.8-.84,11-1.9,22.05-1.7,33.12.12,7,4,14.78,12.59,13.57a12,12,0,0,1,2.62.35c-2.36,20.31-2.45,40.3-4.7,60.15a33.45,33.45,0,0,1-4.71,13.58c-1.52,2.55-2.71,5.22-4,7.85-3.65,7.26-7,14.68-10.91,21.8a47.85,47.85,0,0,0-5.2,14c-.38,1.94.28,2.73,2.16,3.29,4.07,1.2,8.22,1,12.36,1.26,10.75.59,21.48.29,32.23-.17,3.2-.14,4.46-2.11,6.08-4.14s-1-3.05-.72-4.76c1.16-6.9.28-13.84.26-20.76,0-8.68.44-17.39-.22-26-1.44-18.78-.39-37.44,1.33-56.12a26,26,0,0,1,1.65-7.07c.42-1.06.93-1.93,2.16-1.84,2.59.18,5.18.38,7.75.75,1.48.21,1.72,1.48,1.75,2.78.16,8,.43,15.91.49,23.86.08,9.53-.09,19.06,0,28.59.08,15.09.84,30.17-.09,45.26a104.12,104.12,0,0,0,0,11.45c.19,3.88,4.19,7.39,8.13,7.52L397,622.73a19.15,19.15,0,0,0,5.17-.35c5.18-1.23,6.79-4.07,4.87-9.09a35.47,35.47,0,0,0-2-4.22c-5.82-10.64-11.68-21.25-17.49-31.9-1.81-3.32-2.9-7.29-5.42-9.9-2.21-2.3-2-4.34-1.93-6.83.35-8.49.73-17,1-25.48.3-9.91,1.35-19.75,2.28-29.6.2-2.17,1-3.28,3.25-2.81,3.57.75,6.79-.93,10.17-1.4,2.43-.33,3.61-1.49,1.86-3.83-.76-1-.35-1.88-.29-2.9.74-11.25.74-22.51.92-33.78A68.64,68.64,0,0,1,401,446.35c4,2.07,6.64,5.14,9.68,7.68a273.9,273.9,0,0,1,24.52,23.9c6.25,6.72,11.35,14.37,16.48,22,2,3,4.44,5.71,3.44,9.79a3.52,3.52,0,0,0,.59,2.48c1.64,2.45,1.18,5.08.52,7.55a68.94,68.94,0,0,0-2.12,13.88c-.14,2.49-2.34,5.47-.19,7.34M221.34,499.84c-1.12,1.06-2.22,1.84-3.33.1-.86-1.35-2.56-2.69-.23-4.31,4-2.73,7.36-6.24,11.69-8.43,1.23.56,1.4,1.87,2.32,2.88-3.56,3.32-7,6.53-10.45,9.76M237.9,490c-2,.26-4-1.48-4.63-4s.93-3.95,2.41-5.3a5.48,5.48,0,0,1,5.82-.72c1.71.7,1.74,2.78,1.81,4.2A6.88,6.88,0,0,1,237.9,490m7.93-2.16c1.52.56,2,2,2.73,3,5.18,7.06,5.16,7.08-2.73,11.78-.53-.86-1.09-1.71-1.6-2.59-1.35-2.34-4.43-4.38-3.7-7,.59-2.06,3.45-3.49,5.3-5.2M251,470.64a17.18,17.18,0,0,0-2.05,2.34c-4.07,4.65-4.07,4.65-9.3,1.5,2.13-4.25,5.7-7.26,8.84-10.53,1.3.29,1.77,1.28,2.5,2,1.61,1.58,2.12,3.06,0,4.69m4-4.36c-4.63-5.08-4.63-5.09.44-9.34.4-.33.83-.61,1.23-.9,6,4.75,6,4.75-1.67,10.24m16.27-13.35a18.62,18.62,0,0,0-4.76,3.9,4.07,4.07,0,0,1-2.64,1.58c-2.22-.3-2.64-2.46-3.78-3.86-.87-1.09,0-1.8.77-2.54a39.26,39.26,0,0,1,6.35-5.23c1.79-1,3.9,0,5.56,2.6,1.32,2-.17,2.73-1.5,3.55m7-5.25c-2.28,1.57-2.91,1.22-4.9-1.56-1.26-1.75-2-3.2.51-4.58a54.58,54.58,0,0,0,4.61-3.3c.24-.17.65-.1,1.16-.16,1.31,1.45,1.7,3.66,3.9,5.08a66.14,66.14,0,0,1-5.28,4.52m12.6-9.09c-.71.48-1.44.94-2.16,1.42-2.93,2-2.93,2-5.13-.85s-2.19-2.83.77-5.18a36.42,36.42,0,0,1,7.43-5,4.68,4.68,0,0,1,.65.5c3.89,5.43,3.89,5.43-1.56,9.14m12.83-10.2a5.31,5.31,0,0,1-4.63,4.46c-1.12,0-4.28-3.75-4.41-5.21a1.37,1.37,0,0,1,1-1.56c3.09-.73,5-3.59,8.7-4.68-.25,2.66-.4,4.83-.67,7M463.41,536.3c-.34,2.82-1.46,3.19-4.9,2.92-2.9-.23-2.2-2-1.91-3.71.85-4.79,1.7-9.57,2.61-14.34.67-3.51.72-3.51,4.28-3a12.89,12.89,0,0,1,1.63.4c-.57,6.06-1,11.9-1.71,17.71M476,506c1.91-1.24,4.37,0,6.6.05,2.41.07,4.82,0,7.24.08.83,0,2.14,0,2.41.51,1.45,2.53-.8,4.84-.74,7.37,0,1.7-1.5,1.6-2.72,1.46A79.2,79.2,0,0,1,474,512.4c1.49-2.18,0-5.1,2-6.4m-9.15-4.55c4.27.27,5.73,2.34,5.31,7.57a7.18,7.18,0,0,1-8,6.29,6.39,6.39,0,0,1-6-7c.42-4.34,4-7.17,8.7-6.87M332.25,608.94c.33,4.37-.1,4.24-4,4.55-10.36.84-20.77.2-31.1,1.35-1,.1-2.07.46-3.11-.4a4.45,4.45,0,0,1,.24-1.34c5.25-9.75,10-19.71,14.86-29.66,2.25-4.62,6.07-8.4,7.57-13.49a2,2,0,0,1,1.92-1.51c3.28-.16,6.58-.56,9.85,0,1.68.29,2.78,1.12,2.75,3.13,0,2.42.35,4.85.29,7.27-.24,10,0,20.08.71,30.1m.27-95.55c-.09,1.58-.64,2.53-2.49,2.44-2.55-.12-5.1,0-7.63,0-1-1.74-.26-3.46-.18-5.12.22-4.8.58-5,5.1-4.18,1,.19,2,.58,3,.73,1.82.28,2.78,1.08,2.41,3.09a24.1,24.1,0,0,0-.2,3.07m-9.74,40.54c-2.47-.22-3.17-1.09-2.9-3.62.69-6.64.56-6.66,7.85-7.12.83-.05,2,.18,2.13-.88.19-1.42-1-1.53-2.11-1.56a11.08,11.08,0,0,1-2.08-.13c-1.61-.36-3.92,1-4.74-.94-.95-2.23-.13-4.77.36-7.13.22-1,1.28-1,2.12-1.13,1.73-.19,3.46-.31,5.18-.5.84-.09,1.94-.18,1.92-1.26,0-1.46-1.37-1.37-2.33-1.34-1.38,0-2.75.38-4.13.5-1.58.14-2.77-.25-2.54-2.24.1-.86.14-1.74.16-2.6.14-5.78.13-5.78,5.64-5.44,5.11.32,5.09.31,4.77,5.49-.72,11.78-.8,23.57-.73,35.37,0,1.21-.15,2.43-.08,3.64.15,2.34-.86,3.08-3.12,2.69a40.41,40.41,0,0,0-4.68-.25c-4.38-.24-6.05-3-4.49-7.22.56-1.52,1.68-1.44,2.92-1.51,2.35-.15,4.65,1,7.58.39-1.71-3.42-4.42-3-6.7-3.21m7.06-50c-.51-.08-1-.22-1.6-.36-.93-.08-1.95-.22-3-.27-1.7-.07-2.45-.79-2.28-2.59s.84-2.8,2.91-2.5a36.36,36.36,0,0,0,5.12.25c1.74,0,2.4.78,2.4,2.51,0,3-.48,3.47-3.58,3m31,11.18c-.69-6.4-.69-6.38,5.6-6.39a35.29,35.29,0,0,1,7.26.43c1.22.25,2.08-.12,2.2-1.45a1.72,1.72,0,0,0-1.85-2c-3.64-.11-7.28-.16-10.92-.17-1.64,0-2.7-.44-2.55-2.35.09-1.16.41-2.07,1.8-1.95,4.32.4,8.64.84,13,1.23,1.48.14,2.16.84,2,2.37-.44,4.46-.84,8.93-1.26,13.38-3.9.84-7.9.25-11.83.72-2.47.28-3.55-.86-3.38-3.29a4.55,4.55,0,0,0,0-.52m.15,8c.51-1.59,1.68-1.52,2.88-1.51,4,.06,7.93.15,12.1.23a6.66,6.66,0,0,1,.32,1.37c-.28,7.32-.28,7.32-7.32,7.29-.87,0-1.73.09-2.6.11-5.58.13-7.13-2.08-5.38-7.49m-.19,30.9c-.39-6.67-.54-6.67,6.21-7.6,1.53-.21,3.08-.32,4.63-.44.68-.06,1.51,0,1.58-.87a1.53,1.53,0,0,0-1.61-1.64c-2.24.06-4.47.36-6.7.59-3.87.38-3.92.38-4.05-3.67-.25-8-1.19-7.28,7-7s7.36-.68,6.86,7.38c-.36,5.66-1,11.3-1.62,17.54-3.31-1.52-6.29-1.26-9.21-1.35-2.05-.06-3-.52-3.12-2.91m2,5.73c2.92-.66,5.77-.13,8.66,0,1.62.09,2.16.81,2,2.21s0,3.29-2.31,3.29c-1.71,0-3.42-.08-5.13-.12-.86,0-1.71,0-2.56,0-1.27,0-2.46,0-2.44-1.78,0-1.51-.43-3.09,1.81-3.6m16.55,15.13c4.46,9.16,9.73,17.93,14,27.18,1.86,4,4.8,7.51,6.25,12.18a13.22,13.22,0,0,1-6.17.59,247.44,247.44,0,0,0-28.56-.85c-4.75.08-4.82-.07-5.12-4.9a44.81,44.81,0,0,1,0-6.24c.77-10.2.92-20.41.81-30.64,0-.34,0-.69,0-1,0-1.53.37-2.69,2.16-3,1.56-.23,2.07.68,2.69,1.83,2.5,4.6,4,9.58,5.52,14.53C373.27,592.5,377,600,379,608.1a4.18,4.18,0,0,0,1,1.78,1.59,1.59,0,0,0,1.38.37,1.78,1.78,0,0,0,.89-1.13,4.8,4.8,0,0,0-.46-3c-3.81-9.47-7.32-19-10.32-28.8-.94-3.07-3.66-5.5-3.47-9,5.85-1.18,8.93,1.64,11.33,6.56m-71.46-85.13c-1.27-18.51,1.39-36.56,2.13-54.69.29-7.23,1-14.44,1.56-21.65.28-3.84.3-3.88,4.37-3.51q28.26,2.59,56.5,5.23c6.91.64,13.81,1.38,20.74,1.88,2.68.19,3.6,1.13,3.25,3.85-.86,6.88-1.36,13.81-2.28,20.68-2,15.17-2.33,30.43-2.75,45.69a20.34,20.34,0,0,0,1.29,7.12c-28.61-.47-56.82-2.48-84.81-4.6m68.95-76.3c-21.49-1.9-40.27-4.36-59.18-5.33-11.61-.59-23.23-1.1-34.84-1.76-6.76-.38-13.5-1.14-20.26-1.44-3-.13-3.75-1.51-3.82-4.14a146.6,146.6,0,0,1,.63-17.16C260.53,370,261,356.27,261,342.55c0-7.81,1-15.61.2-23.42-.18-1.8.41-2.49,2.28-2.46,5.55.07,11.12-.32,16.65,0,9.7.6,19.43.78,29.13,1.11,12.3.43,24.61,1,36.92,1.33,3.5.1,6.9.78,10.35,1.06,7.61.61,15.24,1,22.85,1.62,10.9.83,21.78,2.05,32.69,2.51,12.15.51,24.24,1.79,36.36,2.46,2.6.14,3.35,1,3.33,3.28,0,5,0,10.06-.1,15.09-.53,22.57-1.43,45.13-4,67.58-.57,4.93-.61,5-5.49,5.48A86,86,0,0,1,428.6,418c-18.21-1.1-36.33-3.08-51.84-4.57m25.45,18.4c5,3,4.5,3.58-.17,8.68-1.46-2.93-.49-5.53.17-8.68m5.61,15.95c-.57-.39-1.1-.83-1.63-1.26-3.07-2.47-3.07-2.47-.66-5.54.53-.68,1-1.37,1.56-2.05.4-.53.82-1,1.52-1.93,1.8,1.59,3.16,2.89,4.61,4.07s3.1,2.16,1.2,4.47c-2.67,3.23-4.16,3.89-6.6,2.24m7.33,6.27c-.9-.76-1.71-1.63-2.31-2.21-.31-.73-.09-.91.2-1.2,6.14-6.09,6.14-6.09,12.7,2.51-5.06,5.61-5.06,5.62-10.59.9m12.92,12.41c-1.58-1.81-3.24-3.54-5-5.45.12-.51.11-.71.2-.82,4.62-6.11,5.14-6.07,10.16-.43,1.44,1.62,1.7,2.8.11,4.3a35.93,35.93,0,0,0-2.52,2.57c-1.09,1.22-2,.95-2.94-.17m9.51,9.92c-1.86-2-3.75-4-5.88-6.32l5.72-5.57c3.62,2.73,6,5.93,8.73,8.84,1.13,1.2.9,2.08-.29,3a3.15,3.15,0,0,0-.38.35c-4.13,3.86-4.12,3.85-7.9-.27m8.34,10.21c-1.07-1.35-2.09-2.75-3.46-4.56,1.65-.63,2.94-1.09,3.89-2.2.77-.91,1.67-1.72,2.52-2.58,1.79.22,2.12,1.79,2.86,2.82.88,1.21,2.64,2.63,1.87,4a8.25,8.25,0,0,1-5.53,3.57c-1.07.24-1.62-.36-2.15-1m8.53,10.51c-.59,0-4.71-4.91-4.87-5.79s4.31-4.28,5.94-4.35c1.11-.05,4.32,4.29,4.4,5.95,0,.71-4.52,4.21-5.47,4.19m3,4.53-.81-1c.61-2.53,3-3.24,5-4.28.51-.26,1,.08,1.2.59a1,1,0,0,1-.35,1.33c-1.67,1.14-3.37,2.22-5.06,3.32" transform="translate(-212.61 -309.42)"/><path class="cls-2" d="M436.11,403.77c2.23,1.27,2.79-.23,3-1.93.42-3.61.4-7.29,1.74-10.75a16.89,16.89,0,0,0,1-5.08c.15-2.11-.68-3.34-2.86-3.48-1-.06-2.08-.07-3.12,0-11.28.13-22.52-.84-33.79-1.26-20.28-.74-40.4-3.82-60.69-4.61q-14-.72-28.06-1.46c-12.47-.66-24.73-3.38-37.24-3.7-4.85-.12-5.37.21-5.27,5.16.09,4.51.43,9,.28,13.52-.08,2.52.72,3.45,3.14,3.53,4.85.17,9.73.26,14.55.79,15.89,1.75,31.86,2,47.79,2,14.07,0,28.07,1,42.06,1.71,17.83,1,35.6,3.16,53.39,4.84,1.37.13,2.8,0,4.06.76m-13.9-5.18c-.73,1.73-2.16,1.41-3.53,1.23-5.15-.69-10.32-1.28-15.45-2.12-16.13-2.65-32.47-2.26-48.71-3.32-8.63-.56-17.28-.75-25.91-.78-11.27,0-22.51-.36-33.74-1.23-6.72-.52-6.78-.49-8.24-7-.75-3.34-1.23-6.74-1.81-10,1.63-.93,3-.51,4.34-.29,17.66,3,35.5,3.41,53.35,4.13,14.37.58,28.71,2,43.07,2.94,12.11.77,24.24,1.34,36.35,2,1.69.1,3.49-.23,5.14.92-.11,5-3,9.05-4.86,13.46" transform="translate(-212.61 -309.42)"/><path class="cls-2" d="M385.19,368.75c4.48,3.05,9.07,5.75,15.37,6.1,2.62.79,6,.17,9.1-.57,8.86-2.11,13.68-6.37,13.42-15.77a25.13,25.13,0,0,0-8.8-19.14c-7.34-6.43-12.85-6.71-20.62-2.48-11.57,6.28-15.18,16-10.77,28.55a6.05,6.05,0,0,0,2.3,3.31m-1-12.6a3.17,3.17,0,0,1,2-2.18,20.88,20.88,0,0,1,6.48-1.69c7.92-.44,15.55.68,22.52,4.62,1.62.91,3.17.43,4.71.63-.36,9.24-3.87,12.88-12.7,14A30.79,30.79,0,0,1,390.6,369c-4.2-1.87-7.58-8.46-6.37-12.88" transform="translate(-212.61 -309.42)"/><path class="cls-2" d="M310.05,367.82a69.08,69.08,0,0,0,7.63-.15c4.77-.52,8.9-3,10.78-7.19,4.15-9.31,4.8-18.63-2-27.4a12.58,12.58,0,0,0-10.16-5.17c-3.81-.18-6.9,1.59-10.32,2.57-6.81,1.94-11.39,6.35-15,12-2.06,3.16-2.84,7.11-1.21,10.43,3.9,7.94,9.76,13.81,20.33,14.95M297.14,349.5a30.81,30.81,0,0,1,22-5.06,24.48,24.48,0,0,1,7,1c2.56.72,3.29,2.33,2.76,4.7a31.43,31.43,0,0,1-2.83,8.35,12.26,12.26,0,0,1-9,6.32c-8,1.59-14.69-.84-20.56-6.09-3.81-3.41-3.58-6.43.7-9.22" transform="translate(-212.61 -309.42)"/><path class="cls-2" d="M327.9,571.87c-2.09-.81-2.41,1.77-2.95,3.31-.69,2-1.36,3.93-1.95,5.92-1,3.3-1.63,6.74-2.91,9.92-2.34,5.8-3.17,12.07-5.87,17.73a4.06,4.06,0,0,0-.16,2,1.07,1.07,0,0,0,1.08.81c1.44-.41,1.78-1.55,2.07-2.77a80.75,80.75,0,0,1,4.85-14.24,54,54,0,0,0,3.58-11.35,27.92,27.92,0,0,1,2.21-6.9c.74-1.46,2.18-3.63,0-4.46" transform="translate(-212.61 -309.42)"/></svg>