<svg id="Layer_1" data-name="Layer 1" xmlns="http://www.w3.org/2000/svg" viewBox="0 0 177.83 465.7"><defs><style>.cls-1{fill:#fff;}.cls-2{fill:#010101;}</style></defs><path class="cls-1" d="M286.81,402.13c.25,1.52,1.12,1.69,2.41,1.64a92.27,92.27,0,0,1,13.71.12c2.45.25,4.86-.22,7.29,0a1.49,1.49,0,0,0,1.57-.87c2.57-4.75,5.75-9.14,8.21-14,.72-1.4.68-1.91-1-1.88-6.5.13-13-.64-20.75-.8l-17.78.23c-.85,0-2.11,0-1.14,1.34a32.08,32.08,0,0,1,3.93,7.77c.89,2.38,3.16,3.91,3.58,6.44" transform="translate(-211.94 -181.23)"/><path class="cls-1" d="M324.9,358.53c0-3.21-.07-6.43.06-9.64.05-1.35-.47-1.83-1.65-1.9-1.49-.08-3,0-4.48-.24-1.75-.25-2.31.54-1.82,2,.86,2.58.36,5.22.53,7.83.25,3.91-.24,7.84.34,11.75.12.8-.15,1.87,1.12,1.94a10.42,10.42,0,0,0,5.38-.67c.09-.05.06-.4,0-.6-.36-3.52.22-7,.48-10.49" transform="translate(-211.94 -181.23)"/><path class="cls-1" d="M332.57,343c0-1.28-.54-1.85-1.83-1.75a5.77,5.77,0,0,1-1.71,0c-1.69-.36-2.11.48-2.16,2-.26,7.66-.57,15.32-.85,23-.14,3.65-.12,3.65,3.43,3.1a2.28,2.28,0,0,1,1.06-.06c1.58.58,1.65-.47,1.72-1.53l.45-7.52h-.12c0-5.73,0-11.47,0-17.2" transform="translate(-211.94 -181.23)"/><path class="cls-1" d="M343.34,298.9c-.07-3.08-.27-3.28-3.37-3.27-6.7,0-13.38-.25-20.06-.61-9.86-.54-19.74,0-29.62-.4-10.08-.44-20.19-.18-30.29-.35-1.77,0-2.23.42-2.4,2.2-.79,8.69-1,17.42-1.56,26.13-.74,11.29-1.39,22.59-1.81,33.9-.32,8.73-.18,17.47-.34,26.21,0,1.58.44,2,1.94,1.85,9.5-1.13,19,.12,28.49.09,13.69,0,27.34.92,41,1.54,3.43.16,6.86.57,10.3.15.74-.09,1.6.06,1.61,1s-.87.69-1.47.68c-3-.08-6.11.05-9.11-.33-2.59-.34-3.86,0-5.24,2.74-2.47,4.92-5.8,9.42-8.33,14.36-.38.76-1.11.82-1.85.77-3.43-.21-6.87-.1-10.31-.27-4.34-.21-8.72-.71-13.07,0-.9.14-1.3-.24-1.84-1-3.29-4.69-5.59-9.93-8.31-14.93-1-1.9-2.08-2.94-4.49-3s-5,.07-7.47-.14a64.93,64.93,0,0,0-9.66.2c-1.64.11-2.56.62-2.49,2.58.09,2.43-.23,4.86-.38,7.3-.13,5.24.2,10.47.12,15.7,0,1.82.41,2.84,2.55,2.57a19.13,19.13,0,0,1,5.34-.09,143,143,0,0,0,19.59,1.61c11,.32,22,.29,33.06.58,7.23.18,14.45.19,21.68.12,1.77,0,2.15-.68,2.24-2.24q.52-9.43.83-18.88c.23-6.85,1.2-13.67,1.86-20.51.82-8.63.67-17.32,1.64-25.95s.9-17.23,1-25.86c.12-8.13.37-16.27.18-24.41m-53.63,70.46c-1.63-.08-.79-1.58-.76-2.4.28-9.52,1.09-19,1.1-28.55,0-4,.06-4-3.83-3.67-4.28.41-8.58-.41-12.87.32-1.26.21-1.65.61-1.69,1.87-.34,9.81-1.05,19.6-.92,29.43,0,1.57.47,2,1.95,1.88,4.13-.29,8.27-.47,12.41-.69a4.25,4.25,0,0,1,1.07,0c.6.12,1.17.48,1.15,1.1,0,.9-.85.53-1.33.57-2.71.27-5.42,0-8.14.14-2,.11-4,.19-6,.47-2.7.4-3,.21-2.82-2.58.27-5.08.59-10.16.89-15.24l-.83-.05c.3-5.07.62-10.15.89-15.22.13-2.51.88-3.6,3.29-3.48,4.52.23,8.9-.94,13.38-1a13.82,13.82,0,0,1,1.93,0c2.31.32,3.17,1.29,3.08,3.69-.24,6.81-.46,13.61-.87,20.4-.21,3.52,0,7-.16,10.53,0,.81,1,2.52-1,2.42m43.83-1.82c-.28,2.86-.84,3.61-3.81,3.86-4.27.35-8.57.58-12.86.55-2.24,0-4.42.36-6.64.37a3.55,3.55,0,0,1-3.4-3.2c-.89-10.59-.57-21.21-.74-31.81,0-3,.07-3,3.21-2.9,6.46.16,12.87-.56,19.3-1,1.25-.1,3.07-1,3.65,0,.77,1.39,1.82,2.78,2.06,4.5a34.07,34.07,0,0,1,0,5.15c-.15,7.31-.37,14.61-.56,21.92h-.1c-.05.86-.07,1.72-.15,2.57" transform="translate(-211.94 -181.23)"/><path class="cls-1" d="M314.55,353.28c-1.48-.14-3-.25-4.47-.3-1.33,0-1.85.59-1.79,2,.17,4.07.23,8.14.29,12.22.06,3.35,0,3.35,4,3.51.3,0,1.23,0,2.16,0s1.39-.43,1.35-1.43q-.33-7.27-.61-14.55c0-.67,0-1.37-.89-1.45" transform="translate(-211.94 -181.23)"/><path class="cls-1" d="M339.29,248.28c1.35,2.46,8.87,3.27,10.68,1.16,0-.05.07-.12.11-.18a23.63,23.63,0,0,0,4.3-11.53c0-.4,0-1.26,0-2.12a9.13,9.13,0,0,0-7.34-8.68,5.77,5.77,0,0,0-5.18,1.41c-5.38,5.5-6.29,13.12-2.55,19.94" transform="translate(-211.94 -181.23)"/><path class="cls-1" d="M313.19,351.42c1.49.07,1.83-.36,1.64-1.82-.44-3.41,1.06-4.93,4.49-4.75a32.7,32.7,0,0,1,3.43.18c2,.33,2.46-.56,2.33-2.41-.23-3.15.38-3.65,3.67-3.46.57,0,1.15.09,1.72.07s2.17,0,1.68-.83.67-3-1.88-3.08c-7-.17-13.85,1.12-20.8.79-1.18-.05-1.27.38-1.3,1.48-.07,2.72.34,5.44-.08,7.82-.24,5.83-.24,5.79,5.1,6" transform="translate(-211.94 -181.23)"/><path class="cls-1" d="M347,303.92c-1.18-.25-1.37.15-1.38,1.13-.07,6.29-.16,12.58-.23,18.87,0,.54-.1,1.33.75,1.25,1.64-.14,3.65-.18,4.57-1.45,1.86-2.56,3.69-5.29,3.74-8.69,0-6.63-2.32-10-7.45-11.11" transform="translate(-211.94 -181.23)"/><path class="cls-1" d="M338.74,228.46a2,2,0,0,0-2.08.84c-2.72,3.86-5,7.86-5.22,12.78a6.89,6.89,0,0,0,2.88,6.07c.73.58,1.2,2,2.47,1.35-1.5-7.17-3.43-14.28,1.95-21" transform="translate(-211.94 -181.23)"/><path class="cls-1" d="M335.52,418.66c-9,.15-18,.34-27,.13-10.3-.25-20.62-.16-27.81-.77-10.54-.63-18-1-25.41-1.53-1.3-.08-1.89.2-1.69,1.61a20.45,20.45,0,0,1,0,2.35c0,.53.17,1.13.82,1,1.12-.21,2.08.38,3.15.41,13.87.52,27.69,1.93,41.56,2.55,11.44.5,22.86.35,34.29,0,3.41-.1,3.37-.27,4-3.56.33-1.66-.06-2.25-1.92-2.22" transform="translate(-211.94 -181.23)"/><path class="cls-1" d="M222.59,410.25l-3-.18c-1-.06-1.45.25-.81,1.21a52.8,52.8,0,0,1,4.46,7.19c.15.33.38.74.76.6a1.27,1.27,0,0,0,.56-.83c.32-1.17.53-2.37.86-3.54,1.11-3.87,1.13-3.86-2.84-4.45" transform="translate(-211.94 -181.23)"/><path class="cls-1" d="M304.22,259.46a1.61,1.61,0,0,0-1.78-1.89c-2.08-.08-4.15-.23-6.22-.33a160.11,160.11,0,0,0-17-.25,2.08,2.08,0,0,0-2.28,2c-.5,3.31-.54,3.24-3.78,3.4-1.49.07-3.13-.14-3.62,2.1-1.31,6.05-1.41,12.2-1.91,18.31-.1,1.31.42,1.43,1.49,1.32,1.63-.15,3.27-.48,4.88-.53,8.56-.29,17.13-.53,25.69-.87,7.8-.31,15.61.06,23.4.51l3.43.2c3.93.24,7.86.52,11.79.66,1,0,2.41.52,2.44-1.45.08-4.71.27-9.42.42-14.12,0-1.07-.25-1.69-1.52-1.82-11-1.07-21.93-2-32.95-2-1.72,0-3.25.08-2.52-2.47a11.73,11.73,0,0,0,0-2.78" transform="translate(-211.94 -181.23)"/><path class="cls-1" d="M282,235.9c.1,2.29,1.24,3.14,3.48,3.56,2,.36,3.72-1.52,5.17-4.08s2.08-5.75,2.82-8.72a5.36,5.36,0,0,0-.79-4.5c-.9-1.31-4.59-2.51-5.19-1.59-2.34,3.56-6,6.52-5.28,11.25a40.27,40.27,0,0,0-.21,4.08" transform="translate(-211.94 -181.23)"/><path class="cls-1" d="M301.63,240c2.61,2.21,5.84,3.86,9.46,3.16,7.12-1.38,11.26-6.17,13.73-12.69,2.1-5.55,1.91-10.75-2.08-15.52-2.06-2.46-6.16-4-9-3.36-5.07,1.23-8.42,4.79-11,8.85-2.12,3.29-2.84,7.29-3.12,11.14,0,1.35.09,2.57.11,3.78a6.49,6.49,0,0,0,1.91,4.64" transform="translate(-211.94 -181.23)"/><path class="cls-1" d="M259.66,292.9c3.57-.17,7.14-.36,10.72-.35,9.7,0,19.41.18,29.11.2,10.86,0,21.72.08,32.59.4l9.64.56c.74,0,1.58.09,1.47-1a23.38,23.38,0,0,1,.26-3.84c.1-1.62-.4-2.58-2.34-2.78a265.87,265.87,0,0,0-27.37-1.24c-10.36,0-20.7.72-31,.75-6.37,0-12.73.41-19.08.26-5.11-.12-4.68-.75-5.38,5.29,0,.07,0,.15,0,.21-.44,1.35.22,1.59,1.41,1.54" transform="translate(-211.94 -181.23)"/><path class="cls-1" d="M270.68,257.8c-.17,2.81-.14,2.7,2.69,2.8,2.09.08,2.12-1.2,2.11-2.63,0-1.18-.12-2.41,1.6-2.41s3.14-.44,4.66-.44c6.44,0,12.89.16,19.33.49,4.66.24,4.73.4,4.74,5.13,0,1.59.63,1.88,2,1.94,5.16.23,10.31.58,15.46.88s10.59.58,15.88,1c1.41.1,1.91-.31,2-1.7.08-1.64.38-3.26.57-4.9.17-1.48.9-3.25.35-4.39-.67-1.39-2.81-.84-4.28-1.3-5.53-1.72-8.17-4.5-8.55-9.46a18.66,18.66,0,0,1,1.57-9.64c.61-1.26.65-2.82,1.94-3.75,2.66-1.92,5.29-3.94,8.77-4.08,1.92-.08,2.47-1.12,2-2.79a42.4,42.4,0,0,1-.67-5.1c-.53-3,.07-6.29-1.14-9.12-2.21-5.2-4.47-10.45-8.6-14.55-2.59-2.57-5.54-5.09-9.06-5.43-9-.87-17.82.41-25.58,5.67a15.08,15.08,0,0,0-4.17,4c-2.08,3.18-5.21,5.49-6.84,9.09-.88,1.95-2.44,3.65-3.09,5.78a64.16,64.16,0,0,1-4.88,11.9A29.4,29.4,0,0,0,277.2,231c-1.35,4.89-2.29,9.88-4,14.69a45.94,45.94,0,0,0-2.56,12.15M305,214.57c3.12-2.84,6.67-5.68,11.46-5.29a11.49,11.49,0,0,1,6.85,3.16c5.36,4.75,5.85,10.5,3.86,16.95-.65,2.11-1.09,4.24-2.34,6.14-2.81,4.25-6.22,7.74-11.29,9.19a13.06,13.06,0,0,1-4.51.34c-3.6-.72-7.34-1.31-9.7-4.58-2.21-3.08-2.16-6.69-1.92-10.29A22.74,22.74,0,0,1,305,214.57M280,231c.5-4.9,3.23-8.65,6.45-12.11,1.14-1.22,4-1,6.18.37a6.83,6.83,0,0,1,3.31,7.13c-.62,4.62-2.68,8.73-5.08,12.62a6,6,0,0,1-6.89,2.66c-2.93-.81-3.68-3.2-4.06-5.73A12.11,12.11,0,0,1,280,231" transform="translate(-211.94 -181.23)"/><path class="cls-1" d="M268.74,244.61c.23,1.21-.09,3.08,1.42,3.19,1.2.08,1.14-1.75,1.29-2.8a48.24,48.24,0,0,1,2.83-10.55c.67-1.72,1.18-3.51,1.75-5.28.13-.39.33-.86-.21-1.11s-.81.08-1.09.44a16.61,16.61,0,0,0-2.19,2.9c-1.86,4.07-4.1,8.06-3.78,12.78a1.57,1.57,0,0,0,0,.43" transform="translate(-211.94 -181.23)"/><path class="cls-1" d="M215.49,378.38c.27,4.86.5,9.73.87,14.58.3,4-.3,8,.37,12,.55,3.26.52,3.26,4.05,3.53,1.29.48,2.87.14,4.43.19,1.28,0,1.87-.36,1.6-1.76-1.21-6.42-1.17-13-1.91-19.42a34,34,0,0,1-.72-4.87c.07-3.49-.16-7-.27-10.5,0-.63.1-1.35-.84-1.46-2.2-.24-4.4-.52-6.61-.69-.66-.05-1.43,0-1.33,1.15.21,2.41.23,4.84.36,7.25" transform="translate(-211.94 -181.23)"/><path class="cls-1" d="M382.3,353a4.74,4.74,0,0,0-5.32,4.55c-.21,2.14,3,5.64,5.48,6a5,5,0,0,0,5.53-4.33c.25-2.54-2.81-5.88-5.69-6.2" transform="translate(-211.94 -181.23)"/><path class="cls-1" d="M218.35,363.75a3.53,3.53,0,0,0,4.44-.79c1.42-1.52,2.62-3,1.47-5.29s-3.1-3.49-4.93-4.9a2.34,2.34,0,0,0-3.3.36c-.81,1.26-1.81,2.59-1.82,4.37-.3,2.13,1.47,5.12,4.14,6.25" transform="translate(-211.94 -181.23)"/><path class="cls-1" d="M369.2,346.68a17.08,17.08,0,0,0,3.24,3.64c.72.68,1,.56,1.68,0,2.07-1.73,3.86-3.81,6.28-5.12.66-.36.58-.79.15-1.39-2.2-3.07-5.07-5.54-7.58-8.32-2.34-2.6-4.72-5.24-7.31-7.67-3.23-3-5.91-6.65-9.41-9.87-1.11,3-2.11,5.76-4.81,7.39a1.28,1.28,0,0,0-.17,2.3c2.22,1.82,3.66,4.39,5.85,6.18,2.79,2.29,4.75,5.29,7.12,7.92,1.58,1.76,3.75,2.92,5,4.95" transform="translate(-211.94 -181.23)"/><path class="cls-1" d="M381.12,418.8a28.74,28.74,0,0,1-5.33-.7c-2.45-.14-2.75,0-2.54.94.54,2.5,1.15,5,1.81,7.46.28,1.07.87,1.53,1.7.35,1.6-2.27,3.21-4.52,4.81-6.79.43-.61.68-1.27-.45-1.26" transform="translate(-211.94 -181.23)"/><path class="cls-1" d="M275.66,557c-1.44.61-2.72,1.6-4.3,1.91-.4.08-.49.39-.51.81,0,1.06-.19,2.12-.22,3.19q-.67,20-1.31,40c-.11,3.17-.13,3.17,3,2.93,2.92-.22,2.88-.22,3-3.17.45-8.8.33-17.63,1.13-26.42.42-6,0-12,.61-18,.11-1-.08-1.73-1.43-1.16" transform="translate(-211.94 -181.23)"/><path class="cls-1" d="M254.41,310.67h0c.18-3.07.35-6.14.55-9.21.06-.91.06-1.69-1.2-1.22-3.84,1.44-7.38,3-8.91,7.47-2,5.78.44,11.73,6.83,13.49,1.46.41,2.16.05,2.23-1.53.12-3,.34-6,.51-9" transform="translate(-211.94 -181.23)"/><path class="cls-1" d="M263.6,539.9c4-3.17,8.41-4.85,13.53-2.67.94.41,1-.14,1.05-1a282.8,282.8,0,0,0-.11-28.53c-.23-3.35.27-6.81-1-10.18-3.61,2.23-7.32,2.77-11.13,1.15-1.6-.68-2-.35-2.17,1.32-.51,5.63,0,11.27-.29,16.9-.32,7.14-.16,14.31-.21,21.46,0,.47-.24,1,.36,1.5" transform="translate(-211.94 -181.23)"/><path class="cls-1" d="M261.66,548.9c-.37,3.15.77,4.75,3.66,6.21,3.79,1.92,7.44,1.28,10.84-.51,2.72-1.43,5.25-6,4.27-10.58-.56-2.6-1.73-4.33-4.37-4.87-7-1.42-13.7,1.56-14.4,9.75" transform="translate(-211.94 -181.23)"/><path class="cls-1" d="M270.6,620.79a38.45,38.45,0,0,0,3.86-10.17c.2-1,1.57-2.06.63-2.85-.6-.5-2,0-3.09.08s-2.13-.32-2.86.92c-2.3,3.94-4.68,7.83-7,11.75-1.31,2.19-2.42,4.58-3.8,6.64-2.74,4.06-4.63,8.62-7.62,12.5-.72.93-.46,1.44,1.35,1.31a5.58,5.58,0,0,1,1.09-.17c3.06-.1,5.82-2,9-1.48,1.64.25,2.41-.57,2.69-2.23A24.6,24.6,0,0,1,266.2,633a68.7,68.7,0,0,0,2.57-7.25,21,21,0,0,1,1.83-5" transform="translate(-211.94 -181.23)"/><path class="cls-1" d="M270.36,626.81c-1.48,3.5-2.06,7.25-3.64,10.68-.32.7-.56,1.55.64,1.47,3.27-.2,6.54-.53,9.8-.78.88-.07,1-.61,1-1.33,0-6.14.43-12.3-.77-18.39-.38-1.94-.06-4-1.33-5.9-1,5.15-3.71,9.56-5.69,14.25" transform="translate(-211.94 -181.23)"/><path class="cls-1" d="M249.48,322.88c-2.11-.72-3.55-2.31-5-3.85-.44-.46-.82-.63-1.19,0a33.33,33.33,0,0,1-4.23,4.73c-2.49,2.61-4.57,5.62-7.16,8.11-3.43,3.3-6.13,7.28-9.78,10.36-1.34,1.13-1.2,2.27.21,3.27a11.56,11.56,0,0,1,3.55,4.2,4.53,4.53,0,0,0,2.72,2c.44-.2,1.09-.28,1.3-.64,1.53-2.54,4.05-4.16,5.87-6.44,2-2.55,4.05-5.1,6.15-7.59s4.4-5.16,6.7-7.65c1.61-1.74.54-4,1.43-5.91,0-.08-.32-.46-.55-.54" transform="translate(-211.94 -181.23)"/><path class="cls-1" d="M319,483.08c3.54-1.74,6.92-3.8,10.57-5.38,2.61-1.13,5.54-2.52,4.61-6.43a5.12,5.12,0,0,1,.16-1.29,57.18,57.18,0,0,1,0-7.07c.27-2.53-1.06-2.88-2.95-2.87-6.51,0-13-.67-19.53-.52-9.29.23-18.59.16-27.89.27-8.51.1-17,.32-25.54.38-4.19,0-4.13-.08-4.27,4.12-.16,4.83,1.42,8.94,5.65,11.34A105.33,105.33,0,0,1,270.75,483a54,54,0,0,0,11.93,6.54c3.87,1.6,7.81,3.07,11.53,5,1.56.8,2.78.79,3.94-.05a34.59,34.59,0,0,1,5.32-2.71c1.62-.81,2.62-2.51,4.29-3.07,4-1.34,7.5-3.72,11.26-5.57" transform="translate(-211.94 -181.23)"/><path class="cls-1" d="M315.3,497.12c4,.88,7.15-1.2,9.28-4.27a15.9,15.9,0,0,0,2.83-9.69c-.11-2.58-.32-2.68-2.68-1.42-4,2.1-7.88,4.24-11.88,6.25a50.2,50.2,0,0,0-4.76,2.37c-1.16.74-1.25,1.54-.43,2.39,2.07,2.12,3.92,4.67,7.64,4.37" transform="translate(-211.94 -181.23)"/><path class="cls-1" d="M279.13,493c.68-.94,1.54-2.25,0-3.22-2.06-1.27-4.26-2.31-6.3-3.6-3.52-2.23-7-4.56-10.44-6.9-.79-.54-1.08-.37-1.32.48a18.33,18.33,0,0,0-.65,7c.77,6.77,2.67,9.64,9.67,10.64a10,10,0,0,0,9.07-4.4" transform="translate(-211.94 -181.23)"/><path class="cls-1" d="M305,606.37a2.72,2.72,0,0,0,4.39-2q1.64-19.59,3.28-39.18c.32-3.92.3-3.82-3.41-5.09-1.58-.54-1.89,0-2,1.34-.41,7.23-.85,14.46-1.28,21.68h-.16c-.42,7.09-.85,14.18-1.24,21.26,0,.67-.4,1.44.38,2" transform="translate(-211.94 -181.23)"/><path class="cls-1" d="M306.1,608.42c-.47,0-1.05-.34-1.4.14s.05,1,.29,1.38c1.66,3,2.92,6.13,4.38,9.19,2,4.18,3.8,8.48,6.52,12.28a25.32,25.32,0,0,1,2.66,5.66c.61,1.57,1.21,1.42,2.22,1.55l4.67.61c.36,0,.93,0,1.5.1.88.09,1.22-.07.78-1.05a99.9,99.9,0,0,0-6.65-11.64c-2.55-4.08-5.39-8-7.62-12.27-1.53-3-3-6.36-7.35-6" transform="translate(-211.94 -181.23)"/><path class="cls-1" d="M313.29,630.91c-1.43-3.11-3.73-5.77-4.68-9.12-1.09-3.84-3.6-7-5-10.82-.07,5.14.08,10.21-.29,15.27a70.94,70.94,0,0,0,.1,9c.05,1-.26,2.51,1.5,2.6,3.57.16,7.14.29,10.71.43,1,0,1.42-.41.76-1.26a30.11,30.11,0,0,1-3.1-6.09" transform="translate(-211.94 -181.23)"/><path class="cls-1" d="M308.77,527.39q-.27,4.5-.53,9c-.08,1.32.17,1.94,1.81,1.48,2.23-.62,4.55-1.66,6.87-.76,1.68.65,3.48.84,5.1,1.58,1,.48,1.41.21,1.43-.9,0-2.36.13-4.72.21-7.07.34-9.38,1.45-18.72,1.17-28.12-.06-1.83-.65-3.68,0-5.52.13-.39.44-.88-.05-1.15s-.88.29-1.19.63a5.64,5.64,0,0,1-3.74,2.26c-2.35.18-4.71.46-7-.28-1.34-.44-2,0-2,1.46-.15,2.86-.56,5.71-.6,8.56-.07,6.31-1.62,12.49-1.39,18.82" transform="translate(-211.94 -181.23)"/><path class="cls-1" d="M256.55,458.47q11.7-.27,23.41-.36c15.47-.14,30.93.4,46.44-.17,2,.12,4,.2,6,.37,1.17.1,1.94-.06,1.9-1.53s.08-3,.14-4.5c0-.91-.3-1.28-1.28-1.18-5.39.58-10.82.29-16.24.43-9.3.25-18.61-.2-27.91.15-4.28.16-8.56,0-12.82,0-6,0-12-.36-18-.18-3.87.11-3.87.21-3.68,4.11a4.14,4.14,0,0,1,0,.86c-.3,1.68.48,2.06,2,2" transform="translate(-211.94 -181.23)"/><path class="cls-1" d="M383.63,370.25c-3.27-.18-3.71,0-4.11,2.31-.74,4.3-1.41,8.61-2.14,12.9-1,5.65-1.27,11.38-2.22,17a88.05,88.05,0,0,0-1.55,11.9c0,.8-.15,1.82,1,1.71a26.44,26.44,0,0,1,6.16.6c1.35.19,1.85-.44,1.8-1.68a62.68,62.68,0,0,1,.44-6.85c.82-11.5,2.08-22.95,3.58-34.37.45-3.37.48-3.37-3-3.55" transform="translate(-211.94 -181.23)"/><path class="cls-1" d="M324.08,542.72c-3.11-2.84-6.62-4.55-10.86-3.45-5.9,1.53-7.31,3.93-7.79,9.89,0,.58-.1,1.15-.09,1.72.08,5,2.76,8,7.3,7.89,7.14-.21,12-4.45,13.1-11.64a4.71,4.71,0,0,0-1.66-4.41" transform="translate(-211.94 -181.23)"/><path class="cls-2" d="M371.89,353.55c.6.79,1.07.82,1.7.1a68.82,68.82,0,0,1,9-8.1c1.11-.89,1.16-1.73.28-2.69s-2.12-1.75-3-2.71c-6.59-7.24-13.69-14-20.34-21.17-2-2.14-3.61-4.32-3.4-7.7a8.51,8.51,0,0,0-3.47-7.07c-.85-.68-2.43-.83-2.5-2.12-.09-1.64-.71-3.18-.6-4.85.25-3.86.38-7.72.54-11.58.06-1.49-.14-2.81-1.73-3.59a2.09,2.09,0,0,1-1.14-2.12c.05-1.27-.11-2.56,0-3.85.47-6,.9-12.07,1.39-18.11a3.5,3.5,0,0,1,1.42-3c6.82-3.94,9.87-10.15,10.25-17.7.22-4.4.21-9.09-4.36-11.77-2-1.14-3.62-2.82-6-3.23a.89.89,0,0,1-.86-.8c-.14-1.35-.61-2.76-.39-4.05.78-4.67-.48-9.09-1.69-13.43-1.26-4.56-4.24-8.34-7.13-12a28.38,28.38,0,0,0-17.35-10.47c-4.85-1-9.6.53-14.34,1-3.23.31-6.76.82-9.6,3.76-2.15,2.22-5.12,3.79-7.56,6-4.33,3.89-7.35,8.65-10,13.62a90.26,90.26,0,0,0-6.23,14.32,5.6,5.6,0,0,1-1.87,3,24.16,24.16,0,0,0-6.52,6.76,28.15,28.15,0,0,0-3.43,8.18,19.63,19.63,0,0,0-.45,9.14c.2,1,.28,2.29,1.36,2.77,1.68.74,1.46,1.88,1,3.2-2.87,8.11-3.36,16.65-4.23,25.1-.2,2-.77,2.17-2.38,2.12-6.16-.19-6.57,0-6,5.93.43,4.17-1.46,8.05-.84,12.15.1.67-.66.59-1.09.8-6.38,3.09-8.69,5.92-8.06,13.86.21,2.58,0,4.66-2.13,6.43-3.07,2.56-5.07,6.12-7.93,8.92-2.66,2.61-5.08,5.47-7.56,8.26a55.7,55.7,0,0,0-5.12,6.05c-.34.53-.86,1-.29,1.72,2.42,2.89,4.79,5.81,7.27,8.64a2,2,0,0,0,3.44-.22,30,30,0,0,1,2.81-3.21c2.74-3.2,6-5.88,8.57-9.26,1.88-2.51,4.37-4.49,6.13-7.12.38-.56,1.08-1.43,1.88-1.1s.53,1.33.54,2.12c.14,9.32-1.08,18.55-1.66,27.83-.2,3.13-.77,6.33-.5,9.38.38,4.28.19,8.54.22,12.79,0,6.82-.54,13.61-.07,20.48a153.71,153.71,0,0,1,.36,17.32c-.13,2.67.69,3.53,3.35,4a15.38,15.38,0,0,0,1.92.16c8.72.39,17.47.49,26.17,1.24,9.78.84,19.57,1.33,29.38,1.23s19.56-.11,29.32-.93c3.47-.29,4.48-1.1,4.46-4.56,0-6.34-.08-12.68.52-19a29.17,29.17,0,0,0,.18-5.76c-.43-4.16.44-8.24.69-12.35.24-4,1-7.89,1.29-11.87.28-4.57.28-9.17.65-13.73.71-8.78,1.73-17.53,2.2-26.33a20.2,20.2,0,0,0-.34-6.87c1.32.25,2,1.23,2.72,2.05,7.2,7.83,14.51,15.56,21,24M248.6,329.33c-2.3,2.49-4.51,5.06-6.7,7.65s-4.13,5-6.16,7.59c-1.81,2.28-4.33,3.9-5.86,6.44-.21.36-.86.44-1.3.64a4.53,4.53,0,0,1-2.72-2,11.56,11.56,0,0,0-3.55-4.2c-1.41-1-1.55-2.14-.21-3.27,3.65-3.08,6.35-7.05,9.78-10.36,2.59-2.49,4.67-5.5,7.16-8.11a33.33,33.33,0,0,0,4.23-4.73c.37-.58.75-.41,1.19,0,1.47,1.54,2.91,3.13,5,3.85.23.08.58.46.55.54-.89,1.87.18,4.17-1.43,5.91m3.07-8.13c-6.39-1.76-8.82-7.71-6.83-13.49,1.53-4.45,5.07-6,8.91-7.47,1.26-.47,1.26.31,1.2,1.22-.2,3.07-.37,6.14-.55,9.21h0c-.17,3-.39,6-.52,9-.06,1.59-.76,1.95-2.22,1.54M347,226.93a9.13,9.13,0,0,1,7.34,8.68c.05.86,0,1.72,0,2.12a23.63,23.63,0,0,1-4.3,11.53c0,.06-.07.13-.11.18-1.81,2.11-9.33,1.3-10.68-1.16-3.74-6.82-2.83-14.44,2.55-19.94a5.77,5.77,0,0,1,5.18-1.41m-40.29,37.78c11,0,22,.92,32.95,2,1.27.13,1.56.75,1.52,1.82-.15,4.7-.34,9.41-.42,14.12,0,2-1.48,1.49-2.44,1.45-3.93-.14-7.86-.42-11.79-.66l-3.43-.2c-7.8-.45-15.6-.82-23.4-.51-8.56.34-17.13.58-25.69.87-1.61.05-3.25.38-4.89.54-1.06.1-1.58,0-1.48-1.33.5-6.11.6-12.26,1.91-18.31.49-2.24,2.13-2,3.62-2.1,3.24-.16,3.28-.09,3.78-3.4a2.08,2.08,0,0,1,2.28-2,159.89,159.89,0,0,1,17,.25c2.08.1,4.15.25,6.23.33a1.61,1.61,0,0,1,1.78,1.89,11.73,11.73,0,0,1,0,2.78c-.73,2.55.8,2.46,2.52,2.47m30.06-15.21c-1.27.65-1.74-.77-2.47-1.35a6.89,6.89,0,0,1-2.88-6.07c.23-4.92,2.5-8.92,5.22-12.78a2,2,0,0,1,2.08-.84c-5.38,6.76-3.45,13.87-1.95,21m-57.33-24.76a64.16,64.16,0,0,0,4.88-11.9c.65-2.13,2.21-3.83,3.09-5.78,1.63-3.6,4.76-5.91,6.84-9.09a15.08,15.08,0,0,1,4.17-4c7.76-5.26,16.55-6.54,25.58-5.66,3.52.33,6.47,2.85,9.06,5.42,4.13,4.1,6.39,9.35,8.6,14.55,1.21,2.83.61,6.09,1.14,9.12a42.4,42.4,0,0,0,.67,5.1c.49,1.67-.06,2.71-2,2.79-3.48.14-6.11,2.16-8.77,4.08-1.29.93-1.33,2.49-1.94,3.75a18.66,18.66,0,0,0-1.57,9.64c.38,5,3,7.74,8.55,9.46,1.47.46,3.61-.09,4.28,1.3.55,1.14-.18,2.91-.35,4.39-.19,1.64-.49,3.26-.57,4.9-.06,1.39-.56,1.8-2,1.7-5.29-.39-10.58-.66-15.88-1s-10.3-.65-15.46-.88c-1.39-.06-2-.35-2-1.94,0-4.73-.08-4.89-4.74-5.13-6.44-.33-12.89-.47-19.33-.49-1.52,0-3.09.45-4.66.44s-1.6,1.23-1.6,2.41c0,1.43,0,2.71-2.11,2.63-2.83-.1-2.86,0-2.69-2.8a45.94,45.94,0,0,1,2.56-12.15c1.67-4.81,2.61-9.8,4-14.69a29.4,29.4,0,0,1,2.26-6.22m-6.92,6.66a17.12,17.12,0,0,1,2.19-2.9c.28-.36.61-.65,1.09-.44s.34.72.21,1.12c-.57,1.76-1.08,3.55-1.75,5.27A48.24,48.24,0,0,0,271.45,245c-.15,1.05-.09,2.88-1.29,2.8-1.51-.11-1.19-2-1.42-3.19a1.57,1.57,0,0,1,0-.43c-.32-4.72,1.92-8.71,3.78-12.78m-14.3,59.75c.7-6,.27-5.41,5.38-5.29,6.35.15,12.71-.24,19.08-.26,10.34,0,20.68-.76,31-.75a265.87,265.87,0,0,1,27.37,1.24c1.94.2,2.44,1.16,2.34,2.78a23.38,23.38,0,0,0-.26,3.84c.11,1.09-.73,1-1.46,1l-9.65-.56c-10.87-.32-21.73-.39-32.59-.4-9.7,0-19.41-.18-29.11-.2-3.58,0-7.15.18-10.72.35-1.19.05-1.85-.19-1.41-1.54,0-.06,0-.14,0-.21m79.2,129.73c-.65,3.29-.61,3.46-4,3.56-11.43.32-22.85.48-34.29,0-13.87-.62-27.69-2-41.56-2.54-1.07,0-2-.63-3.15-.42-.65.12-.8-.48-.82-1a20.45,20.45,0,0,0,0-2.35c-.2-1.41.39-1.69,1.69-1.61,7.43.49,14.87.9,25.41,1.53,7.18.61,17.51.52,27.81.76,9,.22,18,0,27-.12,1.86,0,2.25.56,1.92,2.22m4.69-71.71c-1,8.63-.82,17.32-1.64,25.95-.66,6.84-1.63,13.66-1.86,20.51q-.31,9.45-.83,18.88c-.09,1.56-.47,2.23-2.24,2.24-7.23.07-14.45.06-21.68-.12-11-.29-22-.26-33.06-.58a143.1,143.1,0,0,1-19.59-1.61,19.13,19.13,0,0,0-5.34.09c-2.14.27-2.58-.75-2.55-2.57.08-5.23-.25-10.46-.12-15.7.15-2.44.47-4.87.38-7.3-.07-2,.85-2.47,2.49-2.58a64.93,64.93,0,0,1,9.66-.2c2.49.21,5,.08,7.47.14s3.45,1.1,4.49,3c2.72,5,5,10.24,8.31,14.93.54.77.94,1.15,1.84,1,4.36-.69,8.73-.19,13.07,0,3.44.17,6.88.06,10.31.27.74.05,1.47,0,1.85-.77,2.53-4.94,5.86-9.44,8.33-14.36,1.38-2.75,2.65-3.08,5.24-2.74,3,.38,6.07.25,9.11.33.6,0,1.48.28,1.47-.68s-.87-1.08-1.61-1c-3.44.42-6.87,0-10.3-.15-13.67-.62-27.32-1.57-41-1.54-9.5,0-19-1.22-28.49-.09-1.5.17-2-.27-1.94-1.85.16-8.74,0-17.48.34-26.21.42-11.31,1.07-22.61,1.81-33.9.57-8.71.76-17.44,1.56-26.13.17-1.78.63-2.23,2.4-2.2,10.1.17,20.21-.09,30.29.35,9.88.42,19.75-.14,29.62.4,6.68.36,13.36.64,20.06.61,3.1,0,3.3.19,3.37,3.27.19,8.14-.06,16.28-.18,24.41-.13,8.63-.07,17.29-1,25.86m-61.69,37.41,17.78-.23c7.79.16,14.25.93,20.75.8,1.71,0,1.75.48,1,1.88-2.46,4.81-5.64,9.2-8.21,14a1.5,1.5,0,0,1-1.57.86c-2.43-.18-4.84.29-7.29,0a92.27,92.27,0,0,0-13.71-.12c-1.29.05-2.16-.12-2.41-1.64-.42-2.53-2.69-4.06-3.58-6.44a32.08,32.08,0,0,0-3.93-7.77c-1-1.34.29-1.33,1.14-1.34m65.67-61.41c-.85.08-.75-.71-.75-1.25.07-6.29.16-12.58.23-18.87,0-1,.2-1.38,1.38-1.13,5.13,1.08,7.46,4.48,7.45,11.11-.05,3.4-1.88,6.13-3.74,8.69-.92,1.27-2.93,1.31-4.57,1.45m11,8.64c-2.19-1.79-3.63-4.36-5.85-6.18a1.28,1.28,0,0,1,.17-2.3c2.7-1.63,3.7-4.38,4.81-7.39,3.5,3.22,6.18,6.83,9.41,9.87,2.59,2.42,5,5.07,7.31,7.66,2.51,2.79,5.38,5.26,7.58,8.33.43.6.51,1-.15,1.4-2.42,1.3-4.21,3.38-6.28,5.11-.69.57-1,.69-1.68,0a17.35,17.35,0,0,1-3.24-3.64c-1.21-2-3.38-3.19-5-4.95-2.37-2.63-4.33-5.63-7.12-7.92" transform="translate(-211.94 -181.23)"/><path class="cls-2" d="M298.94,614.7c-.1,7.72-.17,15.44-.28,23.16,0,1.43,2.11,4.31,3.5,4.27a66.44,66.44,0,0,1,11.09,1.07c6.08.83,12.17,1.64,18.06,3.45,1.21.37,2.57.6,3.13-.89a7.62,7.62,0,0,0-.51-6.34c-2.37-4-5-7.76-7.33-11.79a149,149,0,0,0-8.81-13.56c-3.54-4.88-4.51-10.13-3.8-16,.84-7,1.29-14.11,2.07-21.16.59-5.38-.29-10.95,2.15-16.14a4.44,4.44,0,0,1,2.08-2.46,7.43,7.43,0,0,0,1.71-.82c4.79-3.92,6.29-9.16,6-15-.25-5.3-.39-10.59-.13-15.88.28-5.51.77-11,.95-16.52a87.44,87.44,0,0,0-.27-11.79c-.39-3.63-1.62-7.19.54-10.67a2.15,2.15,0,0,0,.4-1.41c-.94-4,2.06-4.69,4.63-5.78a6.74,6.74,0,0,1,1.43-.44,1.51,1.51,0,0,0,1.22-1.07c.77-2.2,1.76-4.33,1.55-6.77a21.23,21.23,0,0,1,.21-3.64c.56-5.49,1.43-11,1.36-16.48a6,6,0,0,0-7-5.86,18.79,18.79,0,0,1-2.12.21c-8.16.27-16.3.79-24.47.64-9.87-.18-19.75,0-29.63,0-6.86,0-13.73-.82-20.57.44a23,23,0,0,1-4,.42c-1.46,0-1.89.64-1.79,2a53.32,53.32,0,0,1-.37,11.15c-.53,3.75.46,7.4.81,11.09.18,1.92.86,3,2.68,3.58a6.85,6.85,0,0,1,5,7.43c-.23,3.29-.64,6.61,1.15,9.65a6.31,6.31,0,0,1,.39,5c-.93,3.26-.64,6.55-.67,9.81-.1,10.32.45,20.64-.25,31a65.2,65.2,0,0,0-.22,8.38c.19,3.31.25,6.73,3.75,8.8,3.28,1.94,4.06,5.22,3.93,8.81-.47,13-1,26.08-1.36,39.12a10.53,10.53,0,0,1-1.77,6.24c-1.8,2.47-2.87,5.44-4.52,8-2.36,3.62-4.46,7.39-6.63,11.1-1.41,2.41-3.67,4.41-4.12,7.37,0,.23-.33.47-.56.62-1.66,1.06-2.09,2.78-2.53,4.53-.73,2.88.79,5,4.26,4.14a116.52,116.52,0,0,1,11.63-1.93c6-.82,12-.48,18-.89,1.75-.12,4.11-1.94,4.09-3.38-.09-7-.07-13.88-1.26-20.77-.88-5.08-1.87-10.23-1.85-15.35.05-13.33.58-26.66,1-40,.07-2.13-.26-4.39.62-6.38,1.53-3.48,1.74-7.14,1.75-10.81,0-5.12-1.31-10.12-1.07-15.33a259.46,259.46,0,0,0-.55-37.05c3.92,2.2,8.35,3.08,11.82,6,1.28,1.06,2.43,1,3.89.11,2.41-1.52,5-2.73,7.51-4.1.74-.41.95-.5,1.47.51,1.11,2.18-.21,4-.25,6-.11,6.24-.74,12.43-1.18,18.64S304.61,533,304,539c-.85,8-.8,15.9-1.07,23.85-.24,6.81-.31,13.66-1.24,20.38-1.14,8.24,0,16.68-2.48,24.81-.62,2.05-.2,4.42-.23,6.64m16.69,23.56c-3.57-.14-7.14-.27-10.71-.43-1.76-.09-1.45-1.6-1.5-2.6a70.94,70.94,0,0,1-.1-9c.37-5.06.22-10.14.29-15.27,1.4,3.78,3.91,7,5,10.82.95,3.35,3.25,6,4.68,9.12a30.11,30.11,0,0,0,3.1,6.09c.66.85.27,1.3-.76,1.26m-9.78-55.13H306c.43-7.22.87-14.45,1.28-21.68.07-1.38.38-1.88,2-1.34,3.71,1.27,3.73,1.17,3.41,5.09q-1.65,19.59-3.28,39.18a2.72,2.72,0,0,1-4.39,2c-.78-.54-.42-1.31-.38-2,.39-7.08.82-14.17,1.24-21.26m7.6,31.24c2.23,4.3,5.07,8.19,7.62,12.27a99.9,99.9,0,0,1,6.65,11.64c.44,1,.1,1.14-.78,1.05-.57-.06-1.14-.07-1.5-.1l-4.67-.61c-1-.13-1.61,0-2.22-1.55a25.32,25.32,0,0,0-2.66-5.66c-2.72-3.8-4.53-8.1-6.52-12.28-1.46-3.06-2.72-6.22-4.38-9.18-.24-.43-.64-.9-.29-1.39s.93-.1,1.4-.14c4.38-.41,5.82,3,7.35,6m12.29-67.24c-1.12,7.19-6,11.43-13.1,11.64-4.54.13-7.22-2.93-7.3-7.89,0-.57.06-1.14.09-1.72.48-6,1.89-8.36,7.79-9.89,4.24-1.1,7.75.61,10.86,3.45a4.71,4.71,0,0,1,1.66,4.41m-15.58-38.56c0-2.85.45-5.7.6-8.56.07-1.48.7-1.9,2-1.46,2.32.74,4.68.46,7,.28a5.64,5.64,0,0,0,3.74-2.26c.31-.34.6-1,1.19-.63s.18.76.05,1.15c-.63,1.84,0,3.69,0,5.52.28,9.4-.83,18.74-1.17,28.12-.08,2.35-.17,4.71-.21,7.07,0,1.11-.4,1.38-1.43.9-1.62-.74-3.42-.93-5.1-1.58-2.32-.9-4.64.14-6.87.76-1.64.46-1.89-.16-1.81-1.48q.25-4.51.53-9c-.23-6.33,1.32-12.51,1.39-18.82m-55.65-52.13a4,4,0,0,0,0-.85c-.19-3.91-.19-4,3.68-4.12,6-.18,12,.13,18,.18,4.26,0,8.54.19,12.82,0,9.3-.35,18.61.1,27.91-.15,5.42-.14,10.85.15,16.25-.43,1-.1,1.31.27,1.27,1.18-.06,1.5-.18,3-.14,4.5s-.73,1.63-1.9,1.53c-2-.17-4-.25-6-.37-15.51.57-31,0-46.44.17q-11.7.11-23.41.36c-1.56,0-2.34-.35-2-2m5.88,30.28a18.33,18.33,0,0,1,.65-7c.24-.85.53-1,1.32-.48,3.46,2.34,6.92,4.67,10.44,6.9,2,1.29,4.24,2.33,6.3,3.6,1.57,1,.71,2.28,0,3.22a10,10,0,0,1-9.07,4.4c-7-1-8.9-3.87-9.67-10.64M263.74,500c.15-1.67.57-2,2.17-1.32,3.81,1.63,7.52,1.08,11.13-1.15,1.3,3.37.8,6.83,1,10.18a282.8,282.8,0,0,1,.11,28.53c0,.81-.11,1.35-1.05,1-5.12-2.18-9.5-.5-13.53,2.67-.6-.5-.36-1-.36-1.5.05-7.15-.11-14.32.21-21.46.26-5.63-.22-11.27.29-16.9m1.08,137.05c-.29,1.66-1,2.48-2.69,2.23-3.16-.48-5.92,1.38-9,1.48a4.81,4.81,0,0,0-1.09.17c-1.81.13-2.07-.38-1.35-1.31,3-3.88,4.88-8.44,7.62-12.5,1.38-2.06,2.49-4.45,3.8-6.64,2.33-3.92,4.71-7.81,7-11.75.72-1.24,1.85-.82,2.86-.92s2.5-.58,3.09-.08c.94.79-.43,1.85-.63,2.85a38.45,38.45,0,0,1-3.86,10.17,21,21,0,0,0-1.83,5A69.67,69.67,0,0,1,266.2,633a24.19,24.19,0,0,0-1.38,4.05m11.66-60.87c-.8,8.79-.68,17.62-1.14,26.42-.15,3-.11,3-3,3.17-3.12.24-3.1.24-3-2.93q.66-20,1.3-40c0-1.07.2-2.13.23-3.19,0-.42.11-.73.51-.81,1.58-.31,2.86-1.3,4.3-1.91s1.54.16,1.43,1.16c-.64,6-.19,12-.61,18m.9,42.24c1.2,6.09.72,12.25.77,18.39,0,.72-.11,1.26-1,1.33-3.26.25-6.53.58-9.8.78-1.2.08-1-.77-.64-1.46,1.58-3.44,2.16-7.19,3.64-10.69,2-4.69,4.68-9.1,5.69-14.25,1.27,1.9.95,4,1.33,5.9M280.43,544c1,4.54-1.55,9.15-4.27,10.58-3.4,1.79-7.05,2.43-10.84.51-2.89-1.46-4-3.06-3.66-6.21.7-8.19,7.41-11.17,14.4-9.75,2.64.54,3.81,2.27,4.37,4.87m23-52.3a34.59,34.59,0,0,0-5.32,2.71c-1.16.84-2.38.85-3.94.05-3.72-1.91-7.66-3.38-11.53-5A54,54,0,0,1,270.75,483a105.33,105.33,0,0,0-10.94-7.33c-4.23-2.4-5.81-6.51-5.65-11.34.14-4.2.08-4.09,4.27-4.12,8.51-.06,17-.29,25.54-.38,9.3-.11,18.6,0,27.89-.27,6.53-.15,13,.55,19.53.52,1.89,0,3.22.34,2.95,2.87a57.18,57.18,0,0,0,0,7.07,5.12,5.12,0,0,0-.16,1.29c.93,3.91-2,5.3-4.61,6.43-3.65,1.58-7,3.64-10.57,5.38-3.76,1.85-7.24,4.23-11.26,5.57-1.67.56-2.67,2.26-4.29,3.07m4.62-1.37c1.52-1,3.18-1.57,4.76-2.37,4-2,7.93-4.14,11.88-6.24,2.36-1.26,2.57-1.16,2.68,1.42a15.9,15.9,0,0,1-2.83,9.69c-2.13,3.07-5.32,5.15-9.28,4.27-3.72.3-5.57-2.25-7.64-4.37-.82-.85-.73-1.65.43-2.4" transform="translate(-211.94 -181.23)"/><path class="cls-1" d="M273.21,431.63,258,431.5c3.64.08,7.28.14,10.92.24,1.43,0,2.85,0,4.27-.11" transform="translate(-211.94 -181.23)"/><path class="cls-1" d="M298.9,442.64c8.88,0,17.75-.42,26.62-.75,3-.11,6-.52,9-.71,1.06-.07,1.47-.41,1.55-1.52.34-4.39.33-4.66-4-4.55-9.4.24-18.76-.63-25.24-.75-9.8-.58-16.72-1-23.64-1.39a30.71,30.71,0,0,0-4.07,0c-7.94.63-15.89.24-23.84.43-.87,0-1.31.14-1.22,1.19.12,1.56-.07,4.27,0,5.84a2,2,0,0,1-.1.81h.68c4.51,0,9,.13,13.54.12,10.25,0,20.45,1.25,30.68,1.29" transform="translate(-211.94 -181.23)"/><path class="cls-2" d="M258,431.5c-1.23,0-2.46-.05-3.68-.09a2.86,2.86,0,0,0-.68,0c-1,.17-1.36.85-1.46,2-.18,1.93.11,5-.35,6.91-.19.79-.25,1.64.9,1.63a1.42,1.42,0,0,0,0,.31,1,1,0,0,0,.18.56c.36.5,1.21.41,1.87.43h.43c2.94-.08,5.89-.23,8.83-.33,2.43-.08,4.85-.13,7.26-.06,1.36,0,2.71.1,4.06.16,7,.31,14,.85,21,1.06,12.65.4,25.29.13,37.93-.55l1.56-.09c1.25-.07,2.09-.6,2.2-1.88a41.56,41.56,0,0,1,.67-6.18c.09-.4.07-1.16-.32-1.1-1.67.23-2.51-1.5-4.21-1.44-10.46.37-20.92.06-31.37-.32-3.95-.14-7.89-.48-11.83-.76a114.06,114.06,0,0,0-14.56-.36c-1.08.06-2.15.14-3.23.21m-18.53,9.6H254a1.84,1.84,0,0,0,.1-.81c-.12-1.57.07-4.28,0-5.84-.09-1.05.35-1.17,1.22-1.19,8-.19,15.9.2,23.84-.43a30.71,30.71,0,0,1,4.07,0c6.92.39,13.84.81,23.64,1.39,6.48.12,15.84,1,25.24.75,4.33-.11,4.34.16,4,4.55-.08,1.11-.49,1.45-1.55,1.52-3,.19-6,.6-9,.71-8.87.33-17.74.79-26.62.75-10.23,0-20.43-1.32-30.68-1.29-4.51,0-9-.11-13.54-.12" transform="translate(-211.94 -181.23)"/><path class="cls-2" d="M385.73,397.37a225.69,225.69,0,0,1,2.55-23.07c1-5.41,1.06-5.49-4.42-5.74-.78-.05-1.57-.12-2.36-.14-2.78-.07-3.56.56-3.87,3.38-1.43,13-3.78,25.81-5.25,38.77-.43,3.83-2.31,7.66-.53,11.66a42.88,42.88,0,0,1,2.55,7.93c.21.92,1,1.27,1.57.57,1.11-1.37,2.78-2.34,3.31-4.12a5.44,5.44,0,0,1,1.83-2.57c2.44-2.12,4-4.59,3.47-8.05a16.15,16.15,0,0,1-.07-4.5c.58-4.69.86-9.41,1.22-14.12m-4.16,22.69c-1.6,2.27-3.21,4.52-4.81,6.79-.83,1.18-1.42.72-1.7-.35-.66-2.47-1.27-5-1.81-7.46-.21-1,.09-1.08,2.54-.94a29.56,29.56,0,0,0,5.33.71c1.13,0,.88.64.45,1.25m5-46.26c-1.51,11.42-2.78,22.87-3.59,34.37a62.68,62.68,0,0,0-.44,6.85c.05,1.24-.45,1.87-1.8,1.68a26.44,26.44,0,0,0-6.16-.6c-1.16.11-1-.91-1-1.71a88.05,88.05,0,0,1,1.55-11.9c.95-5.65,1.25-11.38,2.22-17,.73-4.29,1.39-8.6,2.14-12.9.4-2.28.84-2.49,4.11-2.31,3.45.18,3.42.18,3,3.55" transform="translate(-211.94 -181.23)"/><path class="cls-2" d="M214.79,401.73c.17,2.79.12,5.62,1.36,8.37,1.77,3.92,4.84,7,6.41,11.06.3.77.75,1.73,1.79,1.57s1.28-1.08,1.45-1.94c.9-4.48,3-8.7,2.47-13.48-.53-4.48-.38-9-.68-13.49-.52-7.76-1.44-15.49-1.56-23.27,0-.93-.35-1.5-1.34-1.59-2.06-.18-4.05-.95-6.44-.81-.44,0-1.16,0-1.87-.12-1.69-.21-2.55.33-2.91,2.2s.13,3.41.19,5.1c.31,8.8.61,17.61,1.13,26.4m10.64,13c-.33,1.17-.54,2.37-.86,3.54a1.27,1.27,0,0,1-.56.83c-.38.14-.61-.27-.76-.6a52.8,52.8,0,0,0-4.46-7.19c-.64-1-.17-1.27.81-1.21l3,.18c4,.59,3.95.58,2.84,4.45m-9-44.72c2.21.17,4.41.45,6.61.69.94.11.82.83.84,1.46.11,3.5.34,7,.26,10.5a35.13,35.13,0,0,0,.73,4.86c.74,6.47.7,13,1.91,19.43.27,1.4-.32,1.8-1.6,1.76-1.56-.05-3.14.29-4.43-.19-3.53-.27-3.51-.27-4.05-3.53-.67-4-.07-8-.37-12-.36-4.85-.6-9.72-.87-14.58-.13-2.41-.15-4.84-.36-7.25-.1-1.18.67-1.2,1.33-1.15" transform="translate(-211.94 -181.23)"/><path class="cls-2" d="M214.78,364.05a6.74,6.74,0,0,0,6.86,1.95,7.29,7.29,0,0,0,4.57-6.21c-.17-5.66-2.36-8.5-7.86-9.47a4.4,4.4,0,0,0-4.73,2.17,8.66,8.66,0,0,0,1.16,11.56M216,353.13a2.34,2.34,0,0,1,3.3-.36c1.83,1.41,3.82,2.72,4.93,4.9s0,3.77-1.47,5.29a3.53,3.53,0,0,1-4.44.79c-2.67-1.13-4.44-4.12-4.14-6.25,0-1.78,1-3.11,1.82-4.37" transform="translate(-211.94 -181.23)"/><path class="cls-2" d="M382.47,350.7c-3.55-.24-7.24,2.78-7.66,6-.44,3.4,3.35,9.25,7.31,8.75,5.15.51,7.07-2.21,7.6-6.38.5-3.87-3.36-8.09-7.25-8.35m0,12.87c-2.47-.34-5.69-3.84-5.48-6A4.74,4.74,0,0,1,382.3,353c2.88.32,5.94,3.66,5.69,6.2a5,5,0,0,1-5.53,4.33" transform="translate(-211.94 -181.23)"/><path class="cls-2" d="M334.35,343.06a34.07,34.07,0,0,0,0-5.15c-.24-1.72-1.29-3.11-2.06-4.5-.58-1.05-2.4-.13-3.65,0-6.43.47-12.84,1.19-19.3,1-3.14-.08-3.25-.06-3.21,2.9.17,10.6-.15,21.22.74,31.81a3.55,3.55,0,0,0,3.4,3.2c2.22,0,4.4-.39,6.64-.37,4.29,0,8.59-.2,12.86-.56,3-.24,3.53-1,3.81-3.85.08-.85.1-1.71.15-2.57h.1c.19-7.31.41-14.61.56-21.92m-26.26,2.35c.42-2.38,0-5.1.08-7.82,0-1.1.12-1.53,1.3-1.48,7,.33,13.84-1,20.8-.79,2.55.07,1.32,2.09,1.88,3.08s-1,.8-1.68.83-1.15,0-1.72-.07c-3.29-.19-3.9.31-3.67,3.46.13,1.85-.31,2.74-2.33,2.41a32.7,32.7,0,0,0-3.43-.18c-3.43-.18-4.94,1.34-4.49,4.75.19,1.46-.15,1.89-1.64,1.82-5.34-.22-5.34-.18-5.1-6m6.61,25.3c-.93,0-1.86,0-2.16,0-3.93-.16-3.9-.16-4-3.51-.06-4.08-.12-8.15-.29-12.22-.06-1.4.46-2,1.79-2,1.49,0,3,.16,4.47.3.87.08.86.78.89,1.45.19,4.85.38,9.7.61,14.55,0,1-.34,1.46-1.35,1.43m9.68-1.09a10.42,10.42,0,0,1-5.38.67c-1.27-.07-1-1.14-1.12-1.94-.58-3.91-.09-7.84-.34-11.75-.17-2.61.33-5.24-.53-7.83-.49-1.48.07-2.27,1.82-2,1.47.2,3,.16,4.48.24,1.18.07,1.7.55,1.65,1.9-.13,3.21,0,6.43-.06,9.64-.26,3.5-.84,7-.48,10.49,0,.2.05.55,0,.6m7.85-1.92c-.06,1.06-.14,2.11-1.72,1.53a2.28,2.28,0,0,0-1.06.06c-3.55.55-3.57.55-3.43-3.1.28-7.66.59-15.32.85-23,.05-1.49.47-2.33,2.16-2a5.84,5.84,0,0,0,1.72,0c1.28-.1,1.82.47,1.82,1.75,0,5.73,0,11.47,0,17.2h.13l-.45,7.52" transform="translate(-211.94 -181.23)"/><path class="cls-2" d="M290.84,356.41c.41-6.79.63-13.59.87-20.4.09-2.4-.77-3.37-3.08-3.69a13.82,13.82,0,0,0-1.93,0c-4.48,0-8.86,1.2-13.38,1-2.41-.12-3.16,1-3.29,3.48-.27,5.07-.59,10.15-.89,15.22l.83.05c-.3,5.08-.62,10.16-.89,15.24-.14,2.79.12,3,2.82,2.58,2-.28,4-.36,6-.47,2.72-.15,5.43.13,8.14-.14.48,0,1.31.33,1.33-.57,0-.62-.55-1-1.15-1.1a4.25,4.25,0,0,0-1.07,0c-4.14.21-8.28.4-12.41.69-1.48.1-1.93-.31-1.95-1.88-.13-9.83.58-19.62.92-29.43,0-1.26.43-1.66,1.69-1.87,4.29-.73,8.59.09,12.87-.32,3.89-.37,3.84-.37,3.83,3.67,0,9.53-.82,19-1.1,28.55,0,.82-.87,2.32.76,2.4,1.93.1.93-1.6,1-2.42.19-3.51-.05-7,.16-10.53" transform="translate(-211.94 -181.23)"/><path class="cls-2" d="M309,245.06a13.06,13.06,0,0,0,4.51-.34c5.07-1.45,8.48-4.94,11.29-9.19,1.25-1.9,1.69-4,2.34-6.14,2-6.44,1.5-12.2-3.86-16.95a11.49,11.49,0,0,0-6.85-3.16c-4.79-.39-8.34,2.45-11.46,5.29a22.74,22.74,0,0,0-7.59,15.62c-.24,3.6-.29,7.21,1.92,10.29,2.36,3.27,6.1,3.86,9.7,4.58m-6.25-24.63c2.62-4.06,6-7.62,11-8.85,2.82-.68,6.92.9,9,3.36,4,4.77,4.18,10,2.08,15.52-2.47,6.52-6.61,11.31-13.73,12.69-3.62.7-6.85-1-9.46-3.16a6.49,6.49,0,0,1-1.91-4.64c0-1.21-.07-2.43-.11-3.78.28-3.85,1-7.85,3.12-11.14" transform="translate(-211.94 -181.23)"/><path class="cls-2" d="M284,241.64a6,6,0,0,0,6.89-2.66c2.4-3.88,4.46-8,5.08-12.62a6.83,6.83,0,0,0-3.31-7.13c-2.19-1.38-5-1.59-6.18-.37-3.22,3.46-5.95,7.21-6.45,12.11a12.11,12.11,0,0,0-.09,4.94c.38,2.53,1.13,4.92,4.06,5.73m3.57-21.07c.6-.92,4.29.28,5.19,1.59a5.36,5.36,0,0,1,.79,4.5c-.74,3-1.29,6-2.82,8.72s-3.2,4.44-5.17,4.08c-2.24-.42-3.38-1.27-3.48-3.56a40.27,40.27,0,0,1,.21-4.08c-.73-4.73,2.94-7.69,5.28-11.25" transform="translate(-211.94 -181.23)"/></svg>