<svg id="Layer_1" data-name="Layer 1" xmlns="http://www.w3.org/2000/svg" viewBox="0 0 230.42 389.88"><defs><style>.cls-1{fill:#fff;}.cls-2{fill:#010101;}</style></defs><path class="cls-1" d="M412.88,390.72a9,9,0,0,0-3.35,0c-.93.27-.25,1.37-.46,2.25.48.62-.56,1.9.45,2.23.77.25,1.44-.89,2.05-1.52a14.78,14.78,0,0,0,1.48-2c.29-.4.34-1-.17-1" transform="translate(-193.21 -225.47)"/><path class="cls-1" d="M404.4,283.91c-.15-1.25.09-2.46-.64-3.57a8,8,0,0,0-10-3c-2.9,1.25-4.79,3.6-6.48,6.07-2.95,4.32-5.83,8.68-8.54,13.15-1.73,2.85-4,5.39-5.05,8.66a6.32,6.32,0,0,0,2.38,7.49,6.91,6.91,0,0,0,7.93.31,26.38,26.38,0,0,0,5.59-5.32,127.06,127.06,0,0,0,11.3-15.12c1.7-2.69,3.32-5.46,3.51-8.71M398,287.58a4.15,4.15,0,0,1-.56,0c-2.57-.12-5.49-3.23-5.42-5.62,0-.57.14-1.14.78-1.26s.94.41,1.1.95a7.26,7.26,0,0,0,1.68,3.15,2.84,2.84,0,0,0,2.4,1c.58-.06,1.49-.59,1.54.49,0,.78-.75,1.17-1.52,1.27" transform="translate(-193.21 -225.47)"/><path class="cls-1" d="M391,309.09c-1.28,1.35-2.61,2.66-3.84,4.06a9.19,9.19,0,0,1-10.35,2.35c-4.43-2-6.89-6.49-5.57-10.45a18.59,18.59,0,0,1,2.66-4.27c.36-.53.93-1-.24-1.43a42.06,42.06,0,0,0-14-3.33c-1.46-.07-2.37.15-2.06,1.94a8.51,8.51,0,0,1,0,2.52c-.77,6.08-.6,12.22-1,18.32-.5,3.93-.15,7.92-.66,11.83-.34,2.62-.52,5.25-.71,7.87-.46,6.28-.62,12.59-.91,18.88,0,.66-.1,1.32-.13,2s.19,1,1,1a72.7,72.7,0,0,1,7.38.26c7.15.83,12.58,4.13,15.78,10.75,1.8,3.71,2.18,7.7,2.39,11.73.16,3,.26,3.07,3.37,3.05h.36c5.7-.43,11.4,0,17.1-.12,5.23-.09,10.45-.07,15.67-.37,1.1-.07,1.41-.51,1.56-1.51.6-3.84,0-7.67-.17-11.48A106,106,0,0,0,416,354.33c-1.45-6.16-3.5-12.12-5.5-18.09a64.29,64.29,0,0,0-6.11-12.43,71.1,71.1,0,0,0-12.19-14.88c-.51-.49-.84-.23-1.2.16" transform="translate(-193.21 -225.47)"/><path class="cls-1" d="M388.39,420.38a1.46,1.46,0,0,1,.36,0c1.21.17,1.55-.48,1.66-1.55a29.45,29.45,0,0,0,0-7c.1-2.34.21-4.67.29-7,0-.51.15-1.29-.77-.83a7.41,7.41,0,0,0-4,3.92,23.31,23.31,0,0,0-1.45,8.83c.11,3.22.85,3.86,4,3.67" transform="translate(-193.21 -225.47)"/><path class="cls-1" d="M407.08,392.2c0-.8-.13-1.46-1.14-1.46-3.91,0-7.82,0-11.72,0-1.16,0-1.49.51-1.48,1.5a36.9,36.9,0,0,1,0,3.79c-.75,7.55-.23,15.14-.67,22.69-.08,1.4.51,1.52,1.52,1.45,3.66-.24,7.32-.55,11-.72,1.39-.07,1.75-.61,1.86-2,.48-5.88-.45-11.8.29-17.68q.17-3.79.32-7.57m-2,10c.08,1.33.62,2.65,0,4.24-.14-.31-.23-.41-.23-.51.05-1.24.11-2.49.24-3.73m0,5.89c.69,2.94.09,5.92.14,8.87a25.9,25.9,0,0,1-.14-8.87" transform="translate(-193.21 -225.47)"/><path class="cls-1" d="M365.11,291.63c2.11.56,4.23,1.08,6.64,1.69C370.87,291,370,289,369.39,287a18.06,18.06,0,0,0-3.35-6.5c-.62-.75-1.3-1.62-2.36-1.19s-1.15,1.41-1.22,2.43c-.24,3.44,1.64,6.35,2.3,9.56a.56.56,0,0,0,.35.38" transform="translate(-193.21 -225.47)"/><path class="cls-1" d="M323.65,387.42c-5.76-.28-11.53-.34-17.3-.43-6.86-.1-13.72.06-20.56-.28-4.68-.24-9.16,0-13.47,2A4.89,4.89,0,0,0,270,390l34.56.28c0-.16,0-.33,0-.49l-1.28-.25c1.48-1.05,2.31.83,3.63.8,6.09-.13,12.13.72,18.22.66,5.53-.07,11,1.07,16.56.95a11.28,11.28,0,0,0,5.19-.93c-2-1-3.87-.38-5.59-.91-2.92-.9-5.89-1.66-8.84-2.38s-5.86-.21-8.8-.35" transform="translate(-193.21 -225.47)"/><path class="cls-1" d="M353.45,327.22c-1.25-.79-3.14-.77-4.74-.76-3.25,0-6.47-.35-9.74-.2-5.39.26-10.81,0-16.21,0-4.26,0-8.52.18-12.78.13-7-.07-14.07-.23-21.1-.43-4.69-.13-9.39.26-13.36-.08-2.88-.13-5-.19-7.21-.32s-2.24,0-2.32,2.08c-.27,7.38-.57,14.76-.86,22.14-.17,4.21-.62,8.43-.41,12.62.3,5.83.47,11.66.81,17.49.07,1.33.57,1.59,1.79,1.48a115.54,115.54,0,0,1,14.05,0c7.26.3,14.53.44,21.79.51,6.13.06,12.26.18,18.39.06a39,39,0,0,1,6.12.13c3,.4,6,.53,9,.65,3.78.14,7.56.06,11.31.5,1.74.2,2.33-.42,2.59-2a86.92,86.92,0,0,0,.84-10.43c.08-2.15,0-4.36.29-6.44.22-1.8.9-3.64.95-5.51.2-9.13.67-18.26,1.14-27.39.08-1.43,1.09-3.36-.31-4.24" transform="translate(-193.21 -225.47)"/><path class="cls-1" d="M382.5,505.57a27.66,27.66,0,0,0-1.33,12.3c0,.47,0,1,.52,1.25,1.06.37,2.25,1.06,3.25.7.82-.3.4-1.62.44-2.49.24-4.78,1.85-8.82,6.31-11.15,5.64-3,9.35-.22,9.82,5a25.14,25.14,0,0,1-2.6,14.36c-1.33,2.51-1.18,2.51,1.09,4.35,1.08.88,1.78.77,2.44-.38.33-.58.69-1.13,1-1.7A30,30,0,0,0,408,514.16c0-.42,0-.84,0-1.26-.08-6.11-2.77-13-9.61-15.14-7.7-2.36-13.35,1.19-15.83,7.81" transform="translate(-193.21 -225.47)"/><path class="cls-1" d="M381.23,425.56c-1.35.08-1.81.61-1.71,1.89.11,1.44.14,2.88.21,4.32.2,3.74-.6,7.46-.42,11.17.36,7.37-.18,14.74.33,22.11.23,3.36.37,6.73.54,10.09.06,1.17.49,1.8,1.8,1.59,1.85-.31,3.72-.1,5.59-.28a37.26,37.26,0,0,0,3.95.15c7.61-.53,15.22-1.16,22.83-1.67,1.51-.1,2.22-.68,2.28-2.15.13-3.18.35-6.36.39-9.54,0-3-.31-6-.15-9,.45-8.71,1.33-17.41,1.31-26.15,0-1-.13-2,.95-2.7a.65.65,0,0,0,.35-.9c-.14-.3-.4-.37-.73-.42a33,33,0,0,0-6.2-.42l-14.94.9c-5.46.34-10.91.73-16.38,1" transform="translate(-193.21 -225.47)"/><path class="cls-1" d="M395,481.26c-.59.12-.86.29-.87.87q-.18,6-.38,11.89c0,.79.27,1.33,1.11,1.31a10,10,0,0,1,4,1c1.12.46,1.34.18,1.36-.92,0-2.16.17-4.32.26-6.48h-.09c0-1,.08-2.05.13-3.07.3-5.63.1-5.78-5.5-4.64" transform="translate(-193.21 -225.47)"/><path class="cls-1" d="M337,401.41c-.4-.17-.92-.51-.87-1.06.07-.7.76-.64,1.25-.81s1,0,1.28-.48c-22-2.75-44-.21-66.06-.36,2.93.1,5.15,2,7.83,2.81-4.57-.08-8.63,1.51-13.1,3.47a6.76,6.76,0,0,0,3,.39c3.9-.24,7.8-.61,11.7-.69,11.07-.23,22.12-1.19,33.2-1,3.49.07,7-.34,10.46.1,5.32.67,10.68.83,16,1a14.73,14.73,0,0,0,7.08-1.48,17.08,17.08,0,0,0-8.44-.86c-1.67.3-2.32-.61-3.4-1m-45.73.13a13.53,13.53,0,0,1,7,.3l-7-.3m8.62.07,6.91,0c-2.3.64-4.61.27-6.91,0" transform="translate(-193.21 -225.47)"/><path class="cls-1" d="M339,409.1a1.71,1.71,0,0,1-2-2c.45-1.33-.29-1.08-1-1.12-1.67-.09-3.33-.05-5-.27-3.09-.4-6.22-.54-9.33-.66-4.61-.18-9.19.61-13.83.27-6.12-.44-12.24.38-18.37.41-4.71,0-9.38.36-14.5.69.58.24.73.33.89.37.74.17,1.81.07,1.87,1s-.94,1.41-1.84,1.66c-.4.11-.82.17-1.24.25a11.08,11.08,0,0,0-4.77,2,37.26,37.26,0,0,1,9.37-.46c2.49.1,5-.25,7.55-.31,7.4-.16,14.79-.52,22.19-.63,11.84-.18,23.69.54,35.54-.05.38,0,.86.16,1.08-.55-2.18-.41-4.29-1.07-6.56-.62m-59.84,1.37a8.55,8.55,0,0,1,4.49-1.17c0,.18.07.36.1.53l-4.59.64m42.43-2.28c1.51.32,3-.65,4.72.12a8.55,8.55,0,0,1-4.72-.12" transform="translate(-193.21 -225.47)"/><path class="cls-1" d="M216.73,492.49c.15,1,.42,1.55,1.58,1.2a4.9,4.9,0,0,1,2.84,0c.83.25,1.27.08,1.16-1.07-.31-3.53-.35-7.07-.68-10.59-.38-4.17.08-3.17-3.79-3.22-.85,0-1.26.31-1.24,1.31.05,1.73-.11,3.47-.18,4.94.2,2.67,0,5.07.31,7.46" transform="translate(-193.21 -225.47)"/><path class="cls-1" d="M223.14,417.68c1.15-.08,1.31-.4,1.29-1.5q-.24-11.55-.27-23.08c0-1.15-.27-1.48-1.36-1.46-3,.06-6,.05-9,.06v-.09c-1.14-.05-2.28,0-3.41-.17s-1.47.32-1.43,1.41c.1,2.88.15,5.77.17,8.65,0,.89.59,1.2,1.16,1.67,3.75,3.08,7.15,6.43,8.41,11.37.87,3.46.89,3.39,4.45,3.14" transform="translate(-193.21 -225.47)"/><path class="cls-1" d="M265.22,293.3c-2.47-.14-4.72,1.16-7.21,1.09a18.32,18.32,0,0,0-5,.63,30.79,30.79,0,0,0-9.84,4.31c-.86.57-.8.73-.35,1.35,1.43,2,2.77,4.07,4,6.21a6.53,6.53,0,0,1-.15,7.15c-1,1.76-2.27,3.68-4.47,3.9a10.68,10.68,0,0,1-8.83-2.75c-1.82-1.72-3-3.89-4.48-5.83-1-1.28-1.61-2-2.18.19a1.24,1.24,0,0,1-.59.65c-2.58,1.4-4.34,3.72-6.4,5.7a62.3,62.3,0,0,0-9.37,11.39,121.7,121.7,0,0,0-7.94,14.54,34.58,34.58,0,0,0-3.37,11C198,363.22,198,373.7,198,384.17c0,2.7.29,2.89,2.89,2.48a10,10,0,0,1,2-.14c5.1.2,10.21.43,15.31.65,6-.26,12-.44,18-1,1.36-.12,1.8-.57,1.69-1.87a38.68,38.68,0,0,1,.17-8.47,20.83,20.83,0,0,1,5.84-12.46c2.3-2.28,5.21-3.46,8.15-4.53a29.6,29.6,0,0,1,10.27-1.65c.9,0,1.18-.27,1-1.16-.22-1.14.19-2.29.14-3.39-.25-4.95.35-9.87.51-14.8.36-11.68.68-23.37,1.69-35,.25-2.91-.15-5.87.55-8.75.23-.93-.51-.73-1-.76" transform="translate(-193.21 -225.47)"/><path class="cls-1" d="M210.58,418c1.68,0,3.37,0,5,.15,1.23.09,1.56-.34,1.38-1.56-.71-4.77-3.61-8.15-6.93-11.29-.21-.2-.45-.46-.78-.3s-.19.51-.19.79c0,1.75,0,3.49,0,5.24h.2c-.08,1.8-.15,3.6-.24,5.4-.06,1.05.38,1.55,1.46,1.56" transform="translate(-193.21 -225.47)"/><path class="cls-1" d="M285.84,321.37c5,.34,10.08.34,15.13.54,10.95.44,21.89-.21,32.84-.12,3.87,0,3.88-.07,4.08-3.92a1.71,1.71,0,0,0-.09-.48,115.47,115.47,0,0,1-16.22-.72c-11.11-.94-22.25-.71-33.38-.71-3.53,0-3.44.08-3.95,3.44-.22,1.46.14,1.87,1.59,2" transform="translate(-193.21 -225.47)"/><path class="cls-1" d="M318.12,248.63c5.41,3.31,10.28,7.14,12.46,13.47.29.82.26,1.82,1.33,2.66a46.52,46.52,0,0,0-1.21-14.47c-.91-3.75-3.31-6.87-5.93-9.71a7.88,7.88,0,0,0-4.48-2.16c-3.17-.62-5.12.92-5.34,4.17a6.16,6.16,0,0,0,3.17,6" transform="translate(-193.21 -225.47)"/><path class="cls-1" d="M285.57,314.3c5.59-.11,11.19-.39,16.78-.2,6.73.23,13.47.38,20.19.72a119.61,119.61,0,0,0,12.27.32,4,4,0,0,1,3.13.72c.79-2.81.36-5.41.6-8,.56-5.85,1.29-11.71,1.42-17.57.16-7.06.38-14.13.17-21.21-.13-4.39-.48-8.74-.92-13.09-.16-1.61.1-3.24-.35-4.85-1-3.52-1.73-7.1-3.58-10.34-1.75-3.05-3.51-5.9-6.93-7.51-3.6-1.69-7.39-2-11.21-2.32-3.22-.26-6.44-.09-9.31,1.51a47.48,47.48,0,0,0-8.76,5.66A32.87,32.87,0,0,0,290.32,250c-2.55,6-2.79,12.63-3.46,19-1.22,11.41-.79,23-1.8,34.43-.28,3.14-.26,6.35-.52,9.52-.06.74-.14,1.43,1,1.41M315,237.61c1.83-1.64,4.23-1.4,6.49-.91,4.33.94,6.63,4.19,8.83,7.66,3.85,6.06,3.41,12.86,3.7,19.55.07,1.68-.13,3.36-.2,5,.06,3.3-.46,6.6-.18,9.91.06.63.08,1.46-.87,1.51s-1.39-.5-1.42-1.46a57.47,57.47,0,0,0-1.28-11.08c-1.39-6.06-4.07-11.25-9.35-14.85-1.73-1.18-3.38-2.48-5.11-3.68-3.91-2.73-3.38-9.23-.61-11.7" transform="translate(-193.21 -225.47)"/><path class="cls-1" d="M288.35,394.68c17-.31,34,1.88,51,2.67-.2-.3-.48-.4-.67-.59-.44-.42-1.62-.2-1.38-1.07.17-.62,1.13-.86,1.84-.92a3.73,3.73,0,0,0,2.86-1.31c-4.74-.51-9.45-.75-14.17-.91-6.06-.21-12.12-.37-18.18-.53-8.84-.24-17.69-.51-26.53-.68-2.93,0-6-.14-8.13,2.47-.32.38-.84.34-1.33.39-2.77.32-5,2-7.57,3,13.65-.37,27.28.22,40.83-1.54-6.2-.26-12.41-.09-18.59-.95M277,393.9l9.86.42c-3.29.05-6.6.73-9.86-.42" transform="translate(-193.21 -225.47)"/><path class="cls-1" d="M208.25,502.56c-5,8.55-5.32,17.55-1,26.56,1.37,2.83,1.35,2.7,4.18,1.36,1.49-.71,1.62-1.48.9-2.75-2-3.52-2.51-7.36-2.19-12.09a11.86,11.86,0,0,1,4.27-9.87,7.31,7.31,0,0,1,11.66,2.73c1.21,2.93,1,6,1.07,9.08,0,4-.06,4,4.07,4,.59,0,1.31.27,1.55-.49.81-2.63,2-5.19,1.91-8A22.45,22.45,0,0,0,232,502.9c-2.59-4.54-6.58-7.44-11.74-7.58s-9.46,2.89-12,7.24" transform="translate(-193.21 -225.47)"/><path class="cls-1" d="M248.63,291.51a33.61,33.61,0,0,1,5.44-1.19c.53-.12,1.1-.15,1.25-.82.62-2.88,1.25-5.75,1.87-8.62,0-1.13-.4-2.36-.9-2.43-.87-.11-1.19.69-1.65,1.2-3,3.23-4.64,7.25-6.64,11.07-.14.27-.33.58,0,.8a.82.82,0,0,0,.65,0" transform="translate(-193.21 -225.47)"/><path class="cls-1" d="M207,392.44c0-.5-.09-.88-.75-1-2.44-.47-2.79-.23-2.89,2.43-.45,2.49.82,4.53,2.68,6.31.25.24.56.53.95.4s.32-.6.31-.93c-.09-2.4-.2-4.8-.3-7.2" transform="translate(-193.21 -225.47)"/><path class="cls-1" d="M232.91,310.77c1.68,3.31,4.38,4.5,7.73,5.11,2.2.4,3.27-.93,4.27-2.35s1.6-3.09.67-4.74A103.13,103.13,0,0,0,239,298.64c-2.64-3.64-5.37-7.21-7.87-10.95a44.86,44.86,0,0,0-13.4-13.2,2.88,2.88,0,0,0-3.53,0A6.92,6.92,0,0,0,211,280a6.82,6.82,0,0,0,.69,3.49c.89,1.89,2.4,3.31,3.63,4.93,4.52,5.92,9,11.88,13.56,17.77,1.25,1.61,3.16,2.82,4,4.58m-17.55-26.4a.89.89,0,0,1-1.08-.41.82.82,0,0,1,.28-1.12c1.09-.77,2.19-1.48,2.35-3a.52.52,0,0,1,.72-.35c.64.21.71.74.67,1.31a4.55,4.55,0,0,1-2.94,3.56" transform="translate(-193.21 -225.47)"/><path class="cls-1" d="M200.79,422.43c-1.46,0-2.41.11-1.73,1.94a3,3,0,0,1,0,2.2c.11,1.74.3,3.71.35,5.69.37,13.42,1.39,26.8,2.1,40.2.12,2.34.17,2.5,2.52,2.33,4-.28,8-.05,12-.33,5.88-.42,11.79-.21,17.66-.74a5.6,5.6,0,0,1,2.81.33c1.79.76,2.51.14,2.4-1.86-.24-4.51-.42-9-.79-13.52-.9-11.17-.66-22.38-1.32-33.55,0-.85,1.42-1.85-.07-2.48a11.37,11.37,0,0,0-3-.54,17.94,17.94,0,0,0-1.8-.06c-4-.08-7.89.32-11.84.39-6.43.11-12.86.05-19.29,0" transform="translate(-193.21 -225.47)"/><path class="cls-1" d="M279.25,528.22A1.3,1.3,0,0,0,278,526.9c-.84-.08-1.08.61-1.28,1.26a5.22,5.22,0,0,0,1.74,5.35c.28.22.53.54.93.33s.31-.61.33-1.23c-.14-1.29-.33-2.84-.48-4.39" transform="translate(-193.21 -225.47)"/><path class="cls-1" d="M339.11,526.21c-.53.07-.64.48-.66.93-.06,1.36-.12,2.72-.2,4.6,2.21-2.07,2.61-3.57,1.67-5-.2-.3-.38-.65-.81-.58" transform="translate(-193.21 -225.47)"/><path class="cls-1" d="M318.27,509.64c.24-1.19-.3-1.89-1.77-1.72a10.54,10.54,0,0,0-1.77.29,3.22,3.22,0,0,0-1.53,5.34c.26.3.61.63.87.24a7.33,7.33,0,0,1,3.86-2.77c.39-.15.27-.76.34-1.38" transform="translate(-193.21 -225.47)"/><path class="cls-1" d="M321.64,462.46a1.15,1.15,0,0,0,1.35-1.14,22.06,22.06,0,0,0,.16-2.69c0-.53-.07-1.07.52-1.17,1.95-.34,3.65-1.95,5.84-1.15a1,1,0,0,0,1.23-.52c.24-.44-.14-.8-.37-1.13a8.4,8.4,0,0,0-7.19-3.77c-1.22,0-1.6.44-1.62,1.55,0,1.44-.11,2.88-.17,4.32h-.1c-.06,1.44-.11,2.88-.19,4.32,0,.56-.46,1.29.54,1.38" transform="translate(-193.21 -225.47)"/><path class="cls-1" d="M329.88,571.8c-4.51-.41-9-.07-13.52-.23-.89,0-1.13.31-1.2,1.13a22.11,22.11,0,0,0,1,8.68,87.81,87.81,0,0,0,5.41,12.18c1.77,3.53,3.06,7.33,5.53,10.49.49.63.6,1.32-.17,1.65a1.41,1.41,0,0,1-1.81-.66c-2.24-3.19-3.09-7-4.87-10.41-1.53-2.93-2.81-6-4.29-8.94-.41-.81-.12-1.93-1-2.53-.53.26-.38.67-.39,1-.32,7.14.13,14.28.2,21.43,0,1.32.51,1.67,1.82,1.73,6.13.26,12.27-.44,18.4.28a51.48,51.48,0,0,0,8.6-.13c1.21-.06,1.21-.26,1-1.06-.37-1.45-.8-2.9-1.27-4.32-3.23-9.76-7.33-19.18-11.19-28.69a2.35,2.35,0,0,0-2.29-1.6" transform="translate(-193.21 -225.47)"/><path class="cls-1" d="M337.47,413.46c.07-.59.59-.63,1.07-.78,1-.3,2.11-.1,3.11-.84a4.27,4.27,0,0,0-2.44-.1,23.8,23.8,0,0,1-5.39.34c-8.28-.53-16.57-.29-24.85-.43-7-.12-14.06,0-21.09.46-2.32.14-4.68.1-7,.23-.9.05-2.17.09-2.47.78-.51,1.2-1.49,1.24-2.37,1.64-2.16,1-4.52,1.58-6.84,3.5l10.66-1.85h0l9.3-.75,0,.58c-3.12-.06-6.19.71-9.33.17h0c-1.87,1.46-4.3,1.07-6.39,1.78.15.59.55.61.89.63a25.86,25.86,0,0,1,4.84.21c5.07,1.21,10.24,1.15,15.35,1.21,5.29.08,10.58-.62,15.91-.52,4.68.09,9.35.4,14,.4,5,0,10.09.07,15.14-.06,3.92-.09,7.6-1.89,11.57-1.43.31,0,.67-.05.67-.42s-.39-.6-.73-.71a25.41,25.41,0,0,0-6.26-1.68c-2.26-.17-4.59-.16-6.61-1.49-.34-.23-.84-.35-.79-.87m6.68,4.71c-1.23.5-2.35,0-3.49-.42,1.18-.12,2.28.58,3.49.42" transform="translate(-193.21 -225.47)"/><path class="cls-1" d="M316,473.16c-1.74-.19-2,.14-1.55,1.89.72,2.86,3.06,3.41,5.44,4,1.15.29,1.61,0,1.82-1.19a56,56,0,0,0,.52-9.5c.12-1.68.07-1.92-.56-1.94-1.41-.05-.66,1.11-.89,1.72a2.39,2.39,0,0,0-.14.88c-.1,4.64-.1,4.64-4.64,4.14" transform="translate(-193.21 -225.47)"/><path class="cls-1" d="M331.47,422c-4.43,0-8.85.06-13.28-.11a180.81,180.81,0,0,0-21.08.3,61.36,61.36,0,0,1-13.67-.73c-1.12-.16-1.84-.39-1.44,1.46,1.11,5.19,4.07,9.05,8.06,12.23,4.95,3.95,10.41,6.94,16.87,7.4a24.18,24.18,0,0,0,19-7c1.85-1.75,2.9-4.23,4.71-5.84,2-1.78,1.57-4.08,2.28-5.42.44-2-.26-2.28-1.46-2.28" transform="translate(-193.21 -225.47)"/><path class="cls-1" d="M328.45,459.64c-1,0-1.27.37-1.31,1.26-.13,2.94-.18,5.89-.51,8.81-.19,1.69.37,3.32,0,5a49.41,49.41,0,0,0-1.22,8c-.3,6.79-1.77,13.44-2.17,20.23-.25,4.31-.41,8.62-.58,12.93a8.5,8.5,0,0,0,.72,4.76,7.85,7.85,0,0,0,8.72,3.44c1.12-.31,2.47-.22,3.17-1.46a35.5,35.5,0,0,0,4.15-9.56A117.08,117.08,0,0,0,341.55,499c.87-8.79,2.35-17.53,2.35-26.41.13-2.95.34-5.89.36-8.84,0-3.19-1.07-4.11-4.33-3.95-.24,0-.47.09-.71.11a20.89,20.89,0,0,1-6.46-.11,17.79,17.79,0,0,0-4.31-.15" transform="translate(-193.21 -225.47)"/><path class="cls-1" d="M299,574.1a57,57,0,0,1-10.26.49c-3.14-.15-4.33,1.88-5.29,3.93-2.65,5.65-5.1,11.4-7.42,17.19-1.68,4.17-3.63,8.25-4.61,12.7-.28,1.29,0,1.31,1.19,1.23,8.05-.53,16-1.91,24.11-1.88,1.51,0,3-.2,4.51-.26,1.15,0,1.64-.34,1.47-1.71-.62-5.08-.88-10.2-1.09-15.31-.12-2.91-.4-5.82-.6-8.73l-.4,0c-.69,1.64-1.37,3.28-2.08,4.91-2.22,5.13-5.19,9.91-7.11,15.19a25.05,25.05,0,0,1-1.83,3.52,1.25,1.25,0,0,1-1.82.57,1.06,1.06,0,0,1-.29-1.59c2.46-3.59,3.94-7.7,6-11.49a68.5,68.5,0,0,0,6.94-17c.33-1.39,0-2-1.43-1.75" transform="translate(-193.21 -225.47)"/><path class="cls-1" d="M297.22,510.65a20.9,20.9,0,0,1,3-.39c.78,0,1-.26,1-1.05.06-2-.6-2.87-2.33-2.88-2,0-3.56,1.21-3.54,2.86,0,1.81,0,1.79,1.81,1.46" transform="translate(-193.21 -225.47)"/><path class="cls-1" d="M298.36,454.1c-.15-4-.25-4.08-4.44-4.36a11.57,11.57,0,0,0-9.22,4.43c-.29.37-.73.73-.52,1.26s.82.33,1.27.36c2.57.16,5.15.34,7.72.45,1.15.05,1.95.33,2.07,1.68.11,1.19.4,2.36.59,3.54s1.18.8,1.87.86.91-.52.89-1.21c-.1-2.34-.15-4.67-.23-7" transform="translate(-193.21 -225.47)"/><path class="cls-1" d="M316.12,464.44c.06-2.34.19-4.69.31-7.56.56-3.74,0-8,.09-12.28,0-1.18-.52-1.3-1.45-1.06-3.65.9-7.3,1.48-11,.5-.87-.22-.89.43-.84,1,.11,1.07.36,2.13.46,3.21.5,5.62.38,11.28,1,16.9.12,1.18.14,1.75,1.6,1.48a41.71,41.71,0,0,1,8.06-.32c1.38,0,1.78-.59,1.81-1.84" transform="translate(-193.21 -225.47)"/><path class="cls-1" d="M317.88,521.37c-.31,7.15-.61,14.31-1,21.46-.42,8.29-1.21,16.56-1.51,24.86-.06,1.5.35,2,1.84,2a107.85,107.85,0,0,1,13.69.4c1.25.13,1.34-.63,1.42-1.54.33-3.42.31-6.85.44-10.27.26-6.38.7-12.75.88-19.12.06-2.16,1.16-4.93-2.23-5.9a.75.75,0,0,1-.36-1.08c.25-.47.72-.77,1.2-.48,2.31,1.38,1.48-.54,1.65-1.5.26-1.46-.13-2.1-1.77-2.23a40.33,40.33,0,0,0-4.12-.28,8.3,8.3,0,0,1-6.23-2.27,11,11,0,0,1-3.61-6.6l-.44.08c.05.82.16,1.64.13,2.45" transform="translate(-193.21 -225.47)"/><path class="cls-1" d="M286.83,527.6c-1.08.41-2.68-.73-3.2.76-.38,1.07-.07,2.38-.07,3.58v.55c-.06,2.21-.06,2.22,2,1.78.6-.13,1.06-.11,1.33.54a1.07,1.07,0,0,1-.54,1.5,2.41,2.41,0,0,1-1.37.4c-1,0-1.36.38-1.3,1.43.11,1.92,0,3.85.11,5.77.64,8.52.7,17.07,1.48,25.58.29,3.29.13,3.34,3.37,3.19s6.74.22,10.11-.17c.78-.09,1.55-.12,1.37-1.17-.45-2.53.15-5,.22-7.53.3-11.67.27-23.34,0-35,.14-3.3.26-6.61.44-9.91.06-1.22-.08-1.82-1.41-.92a12.93,12.93,0,0,1-2.3,1,.93.93,0,0,1-1.35-.49c-.23-.54.13-.87.58-1.15.7-.44,1.55-.57,2.14-1.28s2.14-.39,1.79-1.31-1.78-.4-2.74-.45c-1.59-.08-2.31.34-2.52,2.29-.75,7-1.87,8.62-8.15,11" transform="translate(-193.21 -225.47)"/><path class="cls-1" d="M286,524.16a4.13,4.13,0,0,0,3.74-3.16,22.71,22.71,0,0,0,.67-5c.05-3.78.11-7.56.28-11.34.46-10,1.31-20.07,1.05-30.12-.12-4.48.2-9-1-13.42-.3-1.08-.69-1.25-1.64-1.35-4.56-.45-9,.38-13.43,1.1-2.05.33-2.59,1.39-2.72,3.05-.26,3.24-.54,6.48-.66,9.73-.3,8.47-.53,17-.43,25.43,0,6.39.36,12.73,2.52,18.83a6.72,6.72,0,0,0,1.38,2.29c2.75,3.09,6.31,4,10.25,4" transform="translate(-193.21 -225.47)"/><path class="cls-2" d="M402.61,293.85a22.44,22.44,0,0,0,3.66-8.39c.34-2.08.53-4.19-.69-6.12a10.45,10.45,0,0,0-16.22-1.72c-3.27,3.21-5.3,7.27-8,10.89A57.26,57.26,0,0,0,377,296c-.24.46-.53.83-1.06.84s-.61-.31-.74-.68c-1.17-3.34-2.93-6.46-3.91-9.88a18.37,18.37,0,0,0-3.75-7.12c-1.53-1.76-3.26-2.3-5.13-1.58-1.26.48-2.18,2.44-2.06,4.49a18.77,18.77,0,0,0,1.46,6.1c1.42,3.49,1.33,3.53-2.38,3.28-2.78-.19-2.9-.1-3.52,2.59a3.78,3.78,0,0,0-.08.89c0,4.94-.4,9.86-.67,14.78-.2,3.91-.31,7.82-.5,11.73,0,.49.22,1.54-.76,1.25-2.89-.87-5.91-.86-8.84-1.53-1.72-.39-1.95-1.11-1.75-2.67.51-4.11,1-8.25,1.24-12.39q.72-11.7,1.18-23.41c.22-5.8.57-11.6.6-17.42.05-8-.84-15.8-4-23.25-.83-2-1.18-4.25-2.32-6-2.46-3.81-5.61-7-10.17-8.29-2.29-.66-4.36-2.13-6.78-2.18-7.35-.13-14.45.76-21,4.72a39.15,39.15,0,0,0-9.45,7.87,82.74,82.74,0,0,0-7.12,9.93c-1.54,2.47-2.79,5.08-2.33,8.11a12.27,12.27,0,0,1-.24,4.1,100,100,0,0,0-1.1,14.36c-.11,4.75-.31,9.5-.71,14.23-.56,6.47-1.34,12.92-1.76,19.41-.23,3.47-.53,7-.81,10.42-.1,1.2-.61,1.8-2,1.61a39.63,39.63,0,0,0-5.22-.3c-1.54,0-2.13-.51-1.94-2.15,1-8.19.4-16.48,1.39-24.69.41-3.47-.69-4.23-4.24-4.15-2.41.06-4.76.59-7.18.52-2-.06-1.92,0-1.45-2,.6-2.58,1.39-5.15,1.26-7.82-.12-2.44-2.65-4.4-4.21-3.3a12.24,12.24,0,0,0-3.17,2.93,47.29,47.29,0,0,0-4.73,8.85c-1,2.44-1.78,5.1-4.76,6.18-1.12.41-2.29-.22-3.4.56-.34.24-.94-1.08-1.42-1.68-2.85-3.57-5.19-7.51-8.05-11.09a44.4,44.4,0,0,0-10.57-9.49,4.81,4.81,0,0,0-4.49-.57c-5.5,2.14-7.43,9-4.35,13.14,3.86,5.15,7.85,10.2,11.78,15.29l5,6.59c-.71-.35-1.13-.75-1.41-.67-1.6.49-3.41.32-4.66,1.94a32,32,0,0,1-4.05,4.1,63.83,63.83,0,0,0-10.89,13.37,141.26,141.26,0,0,0-6.81,12.52c-2.77,5.45-4.8,11.15-5,17.36-.13,3.73-.31,7.46-.52,11.19a150.5,150.5,0,0,0,.17,22.37,2.47,2.47,0,0,0,1.84,2.35c1.56.56,3-.07,4.44-.2,1.09-.09,1.95-.11,1.66,1.42-.85,4.44,1.53,7.32,4.78,9.75.44.33.93.6.91,1.25-.16,4.28.42,8.55,0,12.83-.1,1.13-.63,1.36-1.63,1.39-2.76.09-5.52.3-8.28.39-1.43.05-1.92.59-1.62,2.05.2,1,.46,2.21-.51,2.86-1.29.87-1.18,2-1,3.19a89.47,89.47,0,0,1,.79,10.08c.28,5.95.46,11.91.82,17.86.45,7.44,1.46,14.85,1.15,22.33,0,.49.12,1.28.56,1.16,1.27-.35,1.45.67,2,1.26a1.36,1.36,0,0,0,1.3.49c4-.85,8.13-.7,12.23-.69,1.22,0,1.41.38,1.42,1.4,0,3.25,0,6.51.21,9.75.21,2.69.15,5-2.94,6-.32.1-.54.46-.82.69-4.77,3.79-7.27,8.85-8.24,14.76a30.31,30.31,0,0,0,5,22.35c.62.93,1.4,1.18,2.13.08a6.48,6.48,0,0,1,3-2.24c2.66-1.15,2.66-1.15,1.59-4a6.85,6.85,0,0,0-.43-1c-2.39-4.14-2.29-8.6-1.87-13.17a9.46,9.46,0,0,1,3-5.94,5.48,5.48,0,0,1,5.88-1.65,5.2,5.2,0,0,1,3.65,4.52,44.26,44.26,0,0,1,.37,10.09c-.11,1.7.54,2.35,2.1,2.7s3.28-.31,4.85.19c1.06.34,1.54-.07,2-.93a19.68,19.68,0,0,0,2.25-12.33c-1.05-7.17-4.12-12.89-11.23-15.73a1.45,1.45,0,0,1-1-1.41c-.58-4.31-.06-8.65-.63-12.95-.15-1.16.39-1.36,1.44-1.46a46.73,46.73,0,0,1,11.15-.1,2,2,0,0,0,2.53-1.49c.24-1.12.78-1.28,1.85-1.37,3.53-.29,4.09-1.2,3.29-4.67a45.6,45.6,0,0,1-1.11-8.05c-.26-5.82-.34-11.66-.71-17.48-.44-6.91-.32-13.82-.18-20.73,0-1.45-.13-2.83-1.94-3.15-.52-.09-.54-.57-.81-.83-1.23-1.21-1.78-3.32-3.89-3.4-2.52-.08-5,0-7.57.12-1.27.07-1.54-.35-1.53-1.51,0-5.53-.21-11.07.05-16.6.1-2.34.32-4.67.44-7,0-.77.38-1.1,1.11-1.06,3.44.17,6.82-.75,10.26-.6,1.06.05,2.1-.06,2.23-1.49.05-.51.39-.68.9-.65,1.9.1,2.31-.86,1.81-2.52a2,2,0,0,1,0-1.07c1.18-4.57,1.32-9.31,2.87-13.88,2.09-6.19,8.32-8.14,13.37-8.4,1.08-.06,1.44.56,1.4,1.61,0,1.56.06,3.12,0,4.68-.07,5.18.77,10.33.45,15.52a1.62,1.62,0,0,0,1.12,1.69,8.32,8.32,0,0,0,3.13.69c2.13-.17,4.29-.08,6.44-.1a18.35,18.35,0,0,1-3.79,1.84c-1,.39-2,.75-3,1.17-.5.22-1.07.58-1.06,1.13s.68.73,1.22.82a14,14,0,0,0,4.65.42c.52-.09,1.2-.29,1.61.37-.34.64-1,.64-1.53.9-2.52,1.27-5.32,1.91-7.67,3.56-.49.34-1.18.45-1,1.27s.89.87,1.56.92a46,46,0,0,1,4.85.39c1.56.28,3.28.15,4.94,1.25-.61.3-.91.47-1.23.61-2.39,1-4.78,2-7.16,3-.61.26-1.32.5-1.31,1.31s.88.8,1.43,1.08a6.14,6.14,0,0,0,2.58.41,24.52,24.52,0,0,1,6.07.63,1,1,0,0,1-1,.82c-2.84.6-5.36,2.09-8.11,2.94-.66.2-1.14.51-1,1.23s.72.9,1.35,1a6.79,6.79,0,0,0,.9-.05l7.83-.28c0,.15,0,.3.05.45l-7.62,3.62c-.68.32-1.65.49-1.35,1.57s1.16.91,2,.93c3.49.1,7,.29,10.45.61a2.19,2.19,0,0,1,2.35,2.09,22.6,22.6,0,0,0,5,10.45A38.58,38.58,0,0,0,296,443.19c1.85.9,2.49,2,2.15,4.08-.22,1.33-.6,1.6-1.79,1.28a12,12,0,0,0-7.13.3c-2.81,1-5.66,2.17-6.87,5.11a3.15,3.15,0,0,1-3,2.27,19.84,19.84,0,0,1-2.87.18c-2.71-.16-4.8,1.33-7,2.52a1.31,1.31,0,0,0-.6,1.06c-.6,3.61-.3,7.28-.84,10.92-.5,3.35,0,6.84-.25,10.24-.53,7.51-.5,15-.62,22.54a42.5,42.5,0,0,0,2.3,15.19c1,2.65,2.27,5,5,6.19,1.18.49,1.53.92.83,2.23a5.42,5.42,0,0,0,1.54,7.13c2.36,1.52,3.17,3.35,2.62,6a4.41,4.41,0,0,0,0,1.09c.26,8.3.51,16.6,1,24.9.14,2.47.74,4.87-.45,7.6-1.9,4.33-3.61,8.79-5.27,13.23q-3.87,10.32-8,20.52a6.76,6.76,0,0,0,.88,7c.37.41.66.82,1.35.52,2.89-1.24,6.05-.84,9.06-1.37,4-.7,8-.31,12.05-.76,3.22-.37,6.48-1,9.69-.79,2.07.12,3.93.25,5.82-.7a2.72,2.72,0,0,0,1.8-3.1c-.63-5.55-1.18-11.09-1.41-16.68-.45-10.75-1.46-21.47-1.42-32.24q.08-19.51.16-39c0-2.41.33-4.82-.19-7.21-.38-1.7-1.24-3.24-1.46-5-.4-3.28-2.43-4.53-5.71-3.71-2.1.52-2.15.5-2-1.68.26-5.35.56-10.7.84-16a156.54,156.54,0,0,0-.16-19.13c-.07-1.06.09-1.69,1.42-1.68s1.72.5,1.61,1.72c-.08.78,0,1.57,0,2.35a2.5,2.5,0,0,0,2.52,2.84c2.82.1,5.65.17,8.47.07,1.5-.05,2.35.23,2.57,1.92a5.64,5.64,0,0,0,3.31,4.84,13.76,13.76,0,0,0,3.64,1c1.33.16,1.45.7,1.32,1.89-.79,7.36-1.87,14.7-2.3,22.09-.06,1.13-.5,1.2-1.49,1.08-2.64-.33-5.56,1.06-6.36,2.89s.1,5.14,1.83,6.72a1.86,1.86,0,0,1,.61,1.59c-.19,5.76-.05,11.52-.29,17.29-.49,12.22-1.39,24.42-2,36.64-.65,13-.61,26-.35,39a1.66,1.66,0,0,0,1.07,1.59c1.81,1,3.52.16,5.27.19,5.53.09,11.08-.3,16.61.09a72.33,72.33,0,0,1,9,.71c4,.78,6.38.16,8.53-3a2.18,2.18,0,0,0,.08-2.7,27.94,27.94,0,0,1-3.27-6.59c-2.65-6.52-5.4-13-7.65-19.67-1.15-3.41-3.4-6.34-3.19-10.45s.35-8.28.31-12.42c-.08-6.63,1-13.21.84-19.84-.05-2.35,0-4.55,2.43-5.83.25-.13.4-.44.59-.67,1.6-2,1.69-3,.53-5.22-.31-.58-.81-1.19-.64-1.85.55-2.14.34-4.45,1.27-6.5a40.84,40.84,0,0,0,2.6-10.28c1.54-9.26,2.18-18.64,3.24-28,.74-6.49.26-13.08,1.4-19.55a2.28,2.28,0,0,0-1.39-2.63c-1.14-.61-2.24-.15-3.29-.37a39.11,39.11,0,0,0-7.48-.52c-1.26,0-3,.73-3.92-1-2.31-4.16-5.62-6.68-10.6-6.4-1.14.07-1.56-.37-1.39-1.47a6.85,6.85,0,0,0,.12-1.62c-.1-1,.29-1.44,1.29-1.95a29.37,29.37,0,0,0,7.81-5.37c3.06-3.14,6-6.39,6.74-11.05.34-2.09.83-3.95-1.17-5.61,2.76.19,5.3-.54,7.92-.74,3.29-.25,6.57-.68,9.84-1.15.61-.08,1.57,0,1.73-1s-.56-1.47-1.32-1.92A28.37,28.37,0,0,0,349,415a47.83,47.83,0,0,0-5.83-1.2,3.37,3.37,0,0,1,1.21-.53c2.29-.5,4.59-.95,6.87-1.49.66-.15,1.51-.3,1.37-1.33a1.39,1.39,0,0,0-1.37-1.39,19,19,0,0,1-2.49-.42q-3.24-.75-6.54-1.19c2.88-1.5,5.9-1.29,8.87-1.13,1.07.06,1.81.17,1.74-1.19,0-.24-.08-.49.17-.64,1.31-.82.41-1.19-.33-1.55a16.06,16.06,0,0,0-7.59-2,2.87,2.87,0,0,1-2.3-.54c2.7-.51,5-1.26,7.42-.95.85.1,1.52-.07,1.76-.83.3-.95-.6-1-1.2-1.18s-.93-.24-1.4-.35l-4.81-1.21c.07-.72.51-.81.89-1a21.41,21.41,0,0,1,7.56-2.25c.7-.07,1.73-.15,1.65-1.28s-.88-1.15-1.72-1.2c-3.37-.19-6.61-1.3-10-1.41-.56,0-1.39.09-1.57-.85a2.91,2.91,0,0,1,1.94-.24c2.28.08,4.57.16,6.85.28a3.46,3.46,0,0,0,3-.93,8.18,8.18,0,0,0,2.14-4.84c.32-5.28.64-10.57.9-15.86.05-1.16.38-1.66,1.6-1.47,1.84.28,3.72.11,5.56.49,3.63.74,7.22,1.67,9.46,4.88,1.85,2.66,3.54,5.52,3.55,8.92a56,56,0,0,0,.35,6.47,5.64,5.64,0,0,0,6,5.32c2-.09,4.09-.16,6.12-.34,1.36-.11,1.89.43,1.87,1.73,0,2.65-.08,5.3-.05,7.95a1.31,1.31,0,0,1-.75,1.26c-1.39.94-3.06,1.53-4.09,2.92-3.35,4.53-3.78,9.68-2.71,15,.31,1.54-.1,1.62-1.26,1.65-1.38,0-2.77.2-4.15.19s-2,.51-1.69,2c.08.34-.1.78,0,1.06.63,1.22.36,1.91-1,2.44a2.23,2.23,0,0,0-1.26,2.87,15.51,15.51,0,0,1,.24,4.13c0,5.06-.11,10.12.21,15.18.54,8.47,1,17,1.59,25.42.13,1.83-.83,4.07,1.53,5.32.15.08.11.56.12.86,0,1.68,1.09,2.09,2.45,1.79,3.61-.81,7.28-.76,10.95-1,1.29-.07,1.5.35,1.52,1.48,0,3.85-.56,7.69-.27,11.55a.93.93,0,0,1-.89,1.13A10.74,10.74,0,0,0,386,497.7a14.29,14.29,0,0,0-5.71,7.79,37.73,37.73,0,0,0-1.21,12.17c.09,2.72,0,2.86,2.65,3.25,1.56.22,3.1,2,4.64.58,1.32-1.25.63-3.2.85-4.84.55-4.1,2.14-7.43,6.26-9.15,3.8-1.59,5.94.63,6.08,3.87.24,5.75-.64,11.3-4,16.18-.63.91-.5,1.49.41,2.07,1.26.81,2.49,1.67,3.72,2.55,1.92,1.36,2.31,1.29,3.73-.65a36.37,36.37,0,0,0,5.44-11.11,21.59,21.59,0,0,0,.63-11.34c-.9-4-2-7.9-5.73-10.27-1.51-1-1.75-2.09-1.87-3.78-.3-4.18.31-8.29.52-12.43,0-.83-.12-1.92,1.23-2,2.57-.24,5.16-.37,7.73-.6s6.15,1.44,7.6-2.57c.06-.15.42-.22.65-.28,1.43-.39,1.77-1.37,1.7-2.75-.17-3.86,0-7.71,0-11.56.11-7-.06-13.94.8-20.92.64-5.18.58-10.45.81-15.69a2.4,2.4,0,0,0-1.17-2.43,6.12,6.12,0,0,1-1.81-2.53c-.63-1.2-1.06-3.31-3.14-2.87-2.26.48-4.55.46-6.79.84-1.69.29-2-.34-1.94-1.78.32-5.1-.28-10.22.3-15.32.27-2.37.6-4.59,3.12-5.74a4,4,0,0,0,2.28-2c1.05-3.18,3.42-4.33,6.48-4.53,1.52-.1,1.69-1.1,1.62-2.26,0-.59-.4-1.25.19-1.69,1.69-1.24,1.5-3,1.43-4.75-.08-2-.09-4-.14-5.94a102.34,102.34,0,0,0-4.69-28.76c-2-6.24-3.75-12.57-6.74-18.45-3.68-7.27-7.82-14.21-13.91-19.78-.84-.77-1.66-1.56-2.53-2.31s-.9-1.2-.13-2.07a82.58,82.58,0,0,0,7.17-9.95M248,290.72c2-3.82,3.67-7.84,6.64-11.07.46-.51.78-1.31,1.65-1.2.5.07.88,1.3.9,2.43q-.93,4.31-1.87,8.62c-.15.68-.72.7-1.25.82a33.61,33.61,0,0,0-5.44,1.19.82.82,0,0,1-.65,0c-.31-.22-.12-.53,0-.8m-32.7-2.3c-1.23-1.62-2.74-3-3.63-4.93A6.82,6.82,0,0,1,211,280a6.92,6.92,0,0,1,3.26-5.52,2.88,2.88,0,0,1,3.53,0,44.86,44.86,0,0,1,13.4,13.2c2.5,3.74,5.23,7.31,7.87,10.95a103.87,103.87,0,0,1,6.55,10.15c.92,1.65.31,3.33-.68,4.74s-2.07,2.75-4.27,2.35c-3.35-.61-6-1.8-7.73-5.11-.89-1.76-2.8-3-4-4.58-4.56-5.89-9-11.85-13.56-17.77M207,400.57c-.39.13-.7-.16-.95-.4-1.86-1.78-3.13-3.82-2.68-6.31.1-2.66.45-2.9,2.89-2.43.66.13.73.51.75,1,.1,2.4.21,4.8.3,7.2,0,.33.13.77-.31.93M232,502.9a22.45,22.45,0,0,1,2.73,10.19c.14,2.84-1.1,5.4-1.91,8-.24.76-1,.49-1.55.49-4.13,0-4,0-4.07-4,0-3.05.14-6.15-1.07-9.08a7.31,7.31,0,0,0-11.66-2.73,11.86,11.86,0,0,0-4.27,9.87c-.32,4.73.18,8.57,2.19,12.09.72,1.27.59,2-.9,2.75-2.83,1.34-2.81,1.47-4.18-1.36-4.36-9-4-18,1-26.56,2.53-4.35,6.74-7.39,12-7.24s9.15,3,11.74,7.58M216.6,480.09c0-1,.39-1.32,1.24-1.31,3.87.05,3.41-.95,3.79,3.22.33,3.52.37,7.06.68,10.59.11,1.15-.33,1.32-1.16,1.07a4.9,4.9,0,0,0-2.84,0c-1.16.35-1.43-.19-1.58-1.2-.36-2.39-.11-4.79-.31-7.46.07-1.47.23-3.21.18-4.94m15.32-58a17.94,17.94,0,0,1,1.8.06,11.37,11.37,0,0,1,3,.54c1.49.63,0,1.63.07,2.48.66,11.17.42,22.38,1.32,33.55.37,4.5.55,9,.79,13.52.11,2-.61,2.62-2.4,1.86a5.6,5.6,0,0,0-2.81-.33c-5.87.53-11.78.32-17.66.74-4,.28-8,.05-12,.33-2.35.17-2.4,0-2.52-2.33-.71-13.4-1.73-26.78-2.1-40.2,0-2-.24-3.95-.35-5.69a3,3,0,0,0,0-2.2c-.68-1.83.27-1.95,1.73-1.94,6.43.05,12.86.12,19.29,0,3.95-.07,7.88-.47,11.84-.39m-22.76-11c0-1.75,0-3.49,0-5.24,0-.28-.17-.62.19-.79s.57.1.78.3c3.32,3.14,6.22,6.52,6.93,11.29.17,1.22-.15,1.65-1.38,1.56-1.68-.11-3.37-.14-5-.15-1.08,0-1.52-.5-1.46-1.56.09-1.8.16-3.6.23-5.4h-.19m1.12-7.86c-.57-.47-1.15-.78-1.16-1.67,0-2.88-.07-5.77-.17-8.65,0-1.09.28-1.55,1.43-1.41s2.27.12,3.41.17v.09c3,0,6,0,9-.06,1.09,0,1.36.31,1.36,1.46q0,11.53.27,23.08c0,1.1-.14,1.42-1.29,1.5-3.56.25-3.58.32-4.45-3.14-1.26-4.94-4.66-8.29-8.41-11.37m56-109.11c-.7,2.88-.3,5.84-.55,8.75-1,11.65-1.33,23.34-1.69,35-.16,4.93-.76,9.85-.51,14.8.05,1.1-.36,2.25-.14,3.39.17.89-.11,1.16-1,1.16a29.84,29.84,0,0,0-10.27,1.65c-2.94,1.07-5.85,2.25-8.15,4.53a20.85,20.85,0,0,0-5.84,12.46,38.68,38.68,0,0,0-.17,8.47c.11,1.3-.33,1.75-1.69,1.87-6,.56-12,.74-18,1-5.11-.22-10.21-.45-15.31-.65a10,10,0,0,0-2,.14c-2.6.41-2.9.22-2.89-2.48,0-10.47,0-20.95,1.09-31.38a34.58,34.58,0,0,1,3.37-11,121.7,121.7,0,0,1,7.94-14.54,62.3,62.3,0,0,1,9.37-11.39c2.06-2,3.82-4.29,6.4-5.7a1.24,1.24,0,0,0,.59-.65c.57-2.22,1.18-1.47,2.18-.19,1.49,1.94,2.66,4.11,4.48,5.83a10.69,10.69,0,0,0,8.83,2.75c2.2-.22,3.42-2.14,4.47-3.9a6.53,6.53,0,0,0,.15-7.15c-1.26-2.14-2.6-4.2-4-6.2-.45-.63-.51-.79.35-1.36A30.69,30.69,0,0,1,253,295a18.27,18.27,0,0,1,5-.63c2.49.07,4.74-1.22,7.21-1.09.51,0,1.25-.17,1,.76m18.3,18.83c.26-3.17.24-6.38.52-9.52,1-11.47.58-23,1.8-34.43.67-6.35.91-12.93,3.46-19a32.87,32.87,0,0,1,8.75-11.79,47.48,47.48,0,0,1,8.76-5.66c2.88-1.6,6.09-1.77,9.31-1.51,3.82.31,7.61.63,11.21,2.32,3.42,1.61,5.18,4.46,6.93,7.51,1.85,3.24,2.61,6.82,3.58,10.34.45,1.61.19,3.24.35,4.85.44,4.35.79,8.7.92,13.09.21,7.08,0,14.15-.17,21.21-.13,5.86-.86,11.72-1.42,17.57-.24,2.56.19,5.16-.6,8a4,4,0,0,0-3.13-.72,122.52,122.52,0,0,1-12.27-.32c-6.72-.34-13.46-.49-20.19-.72-5.59-.19-11.19.09-16.78.2-1.17,0-1.09-.67-1-1.41m-.29,6.51c.51-3.36.42-3.44,3.95-3.44,11.13,0,22.27-.23,33.38.71a115.47,115.47,0,0,0,16.22.72,1.71,1.71,0,0,1,.09.48c-.2,3.85-.2,3.95-4.08,3.92-10.95-.09-21.89.56-32.84.12-5.05-.2-10.09-.2-15.13-.54-1.45-.1-1.81-.51-1.59-2m-18.14,77.77c2.54-1,4.8-2.65,7.57-3,.49-.05,1,0,1.33-.39,2.17-2.61,5.2-2.52,8.13-2.47,8.84.17,17.69.44,26.53.68,6.06.16,12.12.32,18.18.53,4.72.16,9.43.4,14.17.91a3.74,3.74,0,0,1-2.87,1.31c-.7.06-1.66.3-1.83.92-.24.87.94.65,1.38,1.08.19.18.47.28.67.58-17-.79-34-3-51-2.67,6.19.86,12.39.69,18.59.95-13.55,1.76-27.18,1.17-40.83,1.54M279.4,533.84c-.4.21-.65-.11-.94-.33a5.23,5.23,0,0,1-1.73-5.35c.2-.65.44-1.34,1.28-1.27a1.32,1.32,0,0,1,1.24,1.33c.15,1.55.34,3.1.48,4.39,0,.62.06,1-.33,1.23m-3.63-13.64a6.72,6.72,0,0,1-1.38-2.29c-2.16-6.1-2.56-12.44-2.52-18.83-.1-8.48.13-17,.43-25.43.12-3.25.4-6.49.66-9.73.13-1.66.67-2.72,2.72-3.05,4.46-.72,8.87-1.55,13.43-1.1.95.1,1.34.27,1.64,1.35,1.21,4.43.89,8.94,1,13.42.26,10-.59,20.08-1,30.12-.18,3.78-.24,7.56-.29,11.34a22.71,22.71,0,0,1-.67,5,4.14,4.14,0,0,1-3.74,3.16c-3.94.08-7.5-.87-10.25-4m24.66,55.65a68.5,68.5,0,0,1-6.94,17c-2.07,3.79-3.55,7.9-6,11.49a1.06,1.06,0,0,0,.29,1.59,1.25,1.25,0,0,0,1.82-.57,25.05,25.05,0,0,0,1.83-3.52c1.92-5.28,4.89-10.06,7.11-15.19.71-1.63,1.39-3.27,2.08-4.91l.4,0c.2,2.91.48,5.82.6,8.73.21,5.11.48,10.23,1.09,15.31.17,1.37-.33,1.67-1.47,1.71-1.5.06-3,.27-4.51.26-8.08,0-16.06,1.35-24.11,1.88-1.16.08-1.47.06-1.19-1.23,1-4.45,2.93-8.53,4.61-12.7,2.32-5.79,4.77-11.54,7.42-17.19,1-2,2.15-4.08,5.29-3.93A57,57,0,0,0,299,574.1c1.41-.19,1.76.36,1.43,1.75M299,506.33c1.73,0,2.39.91,2.33,2.88,0,.79-.24,1-1,1.05a20.9,20.9,0,0,0-3,.39c-1.79.33-1.79.35-1.81-1.46,0-1.65,1.5-2.88,3.54-2.86m-4,10.28c.21-2,.93-2.37,2.52-2.29,1,0,2.42-.4,2.74.45s-1.3.72-1.79,1.31-1.44.84-2.14,1.28c-.45.28-.81.61-.58,1.15a.93.93,0,0,0,1.35.49,12.93,12.93,0,0,0,2.3-1c1.33-.9,1.47-.3,1.41.92-.18,3.3-.3,6.61-.44,9.91.27,11.68.3,23.35,0,35-.07,2.51-.67,5-.22,7.53.18,1-.59,1.08-1.37,1.17-3.37.39-6.74,0-10.11.17s-3.08.1-3.38-3.19c-.77-8.51-.83-17.06-1.47-25.58-.14-1.92,0-3.85-.11-5.77-.06-1,.31-1.46,1.31-1.43a2.4,2.4,0,0,0,1.36-.4,1.07,1.07,0,0,0,.54-1.5c-.27-.65-.73-.66-1.33-.54-2.07.44-2.07.43-2-1.78v-.55c0-1.2-.31-2.51.07-3.58.52-1.49,2.12-.35,3.2-.76,6.28-2.37,7.4-4,8.15-11m2.72-54.29c-.69-.06-1.67.36-1.87-.86s-.48-2.35-.59-3.54c-.12-1.35-.92-1.63-2.07-1.68-2.57-.11-5.15-.29-7.72-.45-.45,0-1,.23-1.27-.36s.23-.89.52-1.26a11.57,11.57,0,0,1,9.22-4.43c4.19.28,4.29.37,4.44,4.36.08,2.34.13,4.67.23,7,0,.69-.06,1.29-.89,1.21m16.61,4a40.93,40.93,0,0,0-8.06.31c-1.46.27-1.47-.3-1.6-1.48-.61-5.62-.49-11.28-1-16.9-.1-1.08-.35-2.14-.46-3.21-.05-.54,0-1.19.84-1,3.73,1,7.38.4,11-.5.93-.24,1.47-.12,1.45,1.06-.08,4.27.47,8.54-.09,12.28-.12,2.87-.25,5.22-.31,7.56,0,1.25-.43,1.86-1.81,1.85m3.87,52.55a11.1,11.1,0,0,0,3.62,6.6,8.3,8.3,0,0,0,6.23,2.27,40.33,40.33,0,0,1,4.12.28c1.64.13,2,.77,1.77,2.23-.17,1,.66,2.88-1.65,1.5-.48-.29-.95,0-1.19.48a.74.74,0,0,0,.35,1.08c3.39,1,2.29,3.74,2.23,5.89-.18,6.38-.62,12.75-.88,19.13-.13,3.42-.12,6.85-.44,10.27-.08.91-.17,1.67-1.42,1.54a107.85,107.85,0,0,0-13.69-.4c-1.49,0-1.9-.52-1.84-2,.3-8.3,1.09-16.57,1.51-24.86.37-7.15.67-14.31,1-21.46,0-.81-.08-1.63-.13-2.45Zm-4.11-5.05c-.26.39-.61.06-.87-.24a3.22,3.22,0,0,1,1.53-5.34,10.54,10.54,0,0,1,1.77-.29c1.47-.17,2,.53,1.77,1.73-.07.62.05,1.22-.34,1.37a7.3,7.3,0,0,0-3.86,2.77m29.29,88.3c.47,1.42.9,2.87,1.27,4.32.21.8.21,1-1,1.06a52.58,52.58,0,0,1-8.6.13c-6.12-.72-12.27,0-18.4-.28-1.31-.06-1.8-.41-1.82-1.73-.07-7.15-.52-14.29-.2-21.43,0-.33-.14-.74.39-1,.88.6.59,1.72,1,2.53,1.48,2.95,2.76,6,4.29,8.94,1.78,3.4,2.63,7.22,4.87,10.41a1.42,1.42,0,0,0,1.81.66c.77-.33.66-1,.17-1.65-2.47-3.16-3.76-7-5.53-10.49a87.81,87.81,0,0,1-5.41-12.18,22.11,22.11,0,0,1-1-8.68c.07-.82.31-1.16,1.2-1.13,4.5.16,9-.18,13.52.23a2.35,2.35,0,0,1,2.29,1.6c3.86,9.51,8,18.93,11.19,28.69m-5.11-70.35c.08-1.88.14-3.24.2-4.6,0-.45.13-.86.65-.93s.62.28.82.58c.94,1.38.54,2.88-1.67,5m-5.49-71.95a20.89,20.89,0,0,0,6.46.11c.24,0,.47-.1.71-.11,3.26-.16,4.35.76,4.33,3.95,0,2.95-.23,5.89-.36,8.84,0,8.88-1.48,17.62-2.35,26.41a116.78,116.78,0,0,1-2.12,14.09,35.5,35.5,0,0,1-4.15,9.56c-.7,1.24-2,1.15-3.17,1.46a7.85,7.85,0,0,1-8.72-3.44,8.42,8.42,0,0,1-.72-4.76c.17-4.31.33-8.62.58-12.93.4-6.79,1.87-13.44,2.17-20.23a49.41,49.41,0,0,1,1.22-8c.36-1.71-.2-3.33,0-5,.33-2.92.38-5.87.51-8.81,0-.89.34-1.23,1.31-1.26a17.79,17.79,0,0,1,4.31.15m-11.66,1.29c.08-1.44.13-2.88.19-4.32h.1c.06-1.44.15-2.88.17-4.32,0-1.11.4-1.56,1.62-1.55a8.4,8.4,0,0,1,7.19,3.77c.23.33.61.69.37,1.13a1,1,0,0,1-1.23.52c-2.19-.8-3.89.81-5.84,1.15-.59.1-.54.64-.52,1.17a22.06,22.06,0,0,1-.16,2.69,1.15,1.15,0,0,1-1.35,1.14c-1-.09-.56-.82-.54-1.38m-.48,7.94a2.39,2.39,0,0,1,.14-.88c.23-.61-.52-1.77.89-1.72.63,0,.68.26.56,1.94a56,56,0,0,1-.52,9.5c-.21,1.2-.67,1.48-1.82,1.19-2.38-.59-4.72-1.14-5.44-4-.43-1.75-.19-2.08,1.55-1.89,4.54.5,4.54.5,4.64-4.14m12.31-44.78c-.71,1.34-.27,3.64-2.28,5.43-1.81,1.6-2.86,4.08-4.71,5.83a24.18,24.18,0,0,1-19,7c-6.46-.46-11.92-3.45-16.87-7.4-4-3.18-6.95-7-8.06-12.23-.4-1.85.32-1.62,1.44-1.46a61.36,61.36,0,0,0,13.67.73,180.81,180.81,0,0,1,21.08-.3c4.43.17,8.85.12,13.28.11,1.2,0,1.9.29,1.46,2.28m11.94-8.42a25.41,25.41,0,0,1,6.26,1.68c.34.11.72.29.73.71s-.36.46-.67.42c-4-.46-7.65,1.34-11.57,1.43-5.05.13-10.09.06-15.14.06-4.69,0-9.36-.31-14-.4-5.33-.1-10.62.6-15.91.52-5.11-.06-10.28,0-15.35-1.21a25.86,25.86,0,0,0-4.84-.21c-.34,0-.74,0-.89-.63,2.09-.71,4.52-.32,6.39-1.78l-10.67,1.85c2.33-1.92,4.69-2.51,6.85-3.5.88-.4,1.86-.44,2.37-1.64.29-.69,1.57-.73,2.47-.78,2.34-.13,4.7-.09,7-.23,7-.44,14.08-.58,21.09-.46,8.28.14,16.57-.1,24.84.43a23.85,23.85,0,0,0,5.4-.34,4.27,4.27,0,0,1,2.44.1c-1,.74-2.13.54-3.11.84-.48.15-1,.19-1.07.78s.45.64.79.87c2,1.33,4.35,1.32,6.61,1.49m.66-6.1c-.21.71-.7.53-1.09.55-11.84.59-23.69-.13-35.53.05-7.4.11-14.79.47-22.19.63-2.52.06-5.06.41-7.55.31a37.26,37.26,0,0,0-9.37.46,11.08,11.08,0,0,1,4.77-2c.42-.08.84-.14,1.24-.25.9-.25,1.9-.62,1.84-1.66s-1.13-.87-1.87-1c-.16,0-.31-.13-.89-.37,5.12-.33,9.79-.67,14.5-.69,6.13,0,12.25-.86,18.37-.41,4.64.34,9.22-.45,13.83-.27,3.11.12,6.24.26,9.33.66,1.68.22,3.34.18,5,.27.74,0,1.48-.21,1,1.12a1.71,1.71,0,0,0,2,2c2.26-.45,4.37.21,6.55.62m3.34-6.41a14.73,14.73,0,0,1-7.08,1.48c-5.35-.14-10.71-.31-16-1-3.49-.44-7,0-10.46-.1-11.08-.22-22.13.74-33.2,1-3.9.08-7.8.45-11.7.69a6.76,6.76,0,0,1-3-.39c4.47-2,8.53-3.55,13.1-3.47-2.68-.78-4.9-2.71-7.83-2.81,22.06.15,44.07-2.39,66.06.36-.31.45-.85.34-1.28.48s-1.18.11-1.25.81c-.06.55.47.89.87,1,1.08.44,1.73,1.35,3.4,1.05a17.08,17.08,0,0,1,8.44.86m-7.58-13.16c1.72.53,3.61-.07,5.59.91a11.28,11.28,0,0,1-5.19.93c-5.55.12-11-1-16.56-.95-6.09.06-12.13-.79-18.22-.66-1.32,0-2.15-1.85-3.63-.8l1.28.25c0,.17,0,.33,0,.49L270,390a4.81,4.81,0,0,1,2.34-1.38c4.31-1.94,8.79-2.19,13.47-2,6.84.34,13.7.18,20.56.28,5.77.09,11.54.15,17.3.43,2.94.14,6-.34,8.8.35s5.92,1.48,8.84,2.38m11.33-31.3c-.05,1.87-.73,3.71-.95,5.51-.25,2.08-.21,4.29-.29,6.44a86.92,86.92,0,0,1-.84,10.43c-.26,1.63-.85,2.25-2.59,2-3.75-.44-7.54-.36-11.31-.5-3-.11-6-.25-9-.65a39,39,0,0,0-6.12-.13c-6.13.12-12.26,0-18.39-.06-7.26-.07-14.53-.21-21.79-.51a115.54,115.54,0,0,0-14.05,0c-1.22.11-1.72-.15-1.79-1.48-.34-5.83-.51-11.66-.81-17.49-.21-4.19.24-8.41.41-12.62.29-7.38.59-14.76.86-22.14.08-2.12.18-2.21,2.32-2.08s4.33.2,7.21.32c4,.34,8.67-.05,13.36.08,7,.2,14.06.36,21.1.43,4.26.05,8.52-.11,12.78-.13,5.4,0,10.82.22,16.21,0,3.27-.15,6.49.24,9.74.21,1.6,0,3.49,0,4.74.75,1.4.88.39,2.81.31,4.24-.47,9.13-.94,18.25-1.14,27.39m9.84-77.16c.07-1,.25-2,1.22-2.43s1.74.44,2.36,1.19a18.06,18.06,0,0,1,3.35,6.5c.61,2.05,1.48,4,2.36,6.37-2.41-.61-4.53-1.13-6.64-1.69a.56.56,0,0,1-.35-.38c-.66-3.21-2.54-6.12-2.3-9.56m23.4,126.19a7.41,7.41,0,0,1,4-3.92c.92-.46.79.32.77.83-.08,2.34-.19,4.67-.29,7a29.45,29.45,0,0,1,0,7c-.11,1.07-.45,1.72-1.66,1.55a1.46,1.46,0,0,0-.36,0c-3.13.19-3.87-.45-4-3.67a23.31,23.31,0,0,1,1.45-8.83m22.08,105c0,.43,0,.85,0,1.27a30,30,0,0,1-4.48,13.68c-.35.57-.71,1.12-1,1.7-.66,1.15-1.36,1.26-2.44.38-2.27-1.84-2.42-1.84-1.09-4.35a25.14,25.14,0,0,0,2.6-14.36c-.47-5.25-4.18-8-9.82-5-4.46,2.33-6.07,6.37-6.31,11.15,0,.87.38,2.19-.44,2.49-1,.36-2.19-.32-3.25-.7-.54-.2-.48-.78-.52-1.25a27.66,27.66,0,0,1,1.33-12.3c2.48-6.62,8.13-10.17,15.83-7.81,6.85,2.11,9.53,9,9.61,15.13M400.5,489c-.09,2.16-.23,4.32-.26,6.48,0,1.1-.25,1.38-1.36.92a10,10,0,0,0-4-1c-.84,0-1.14-.52-1.11-1.31q.19-5.94.38-11.89c0-.58.28-.75.87-.87,5.6-1.14,5.8-1,5.5,4.64-.05,1-.09,2.05-.13,3.06Zm12.05-65.32a33,33,0,0,1,6.2.42c.33.05.59.12.73.42a.65.65,0,0,1-.35.9c-1.08.65-.95,1.66-.95,2.7,0,8.74-.86,17.44-1.31,26.15-.16,3,.18,6,.15,9,0,3.18-.26,6.36-.39,9.54-.06,1.47-.77,2.05-2.28,2.15-7.61.51-15.22,1.14-22.83,1.67a37.26,37.26,0,0,1-3.95-.15c-1.87.18-3.74,0-5.59.28-1.31.21-1.74-.42-1.8-1.59-.17-3.36-.31-6.73-.54-10.09-.51-7.37,0-14.74-.33-22.11-.18-3.71.62-7.43.42-11.17-.07-1.44-.1-2.88-.21-4.32-.1-1.28.36-1.81,1.71-1.88,5.47-.29,10.92-.68,16.38-1l14.94-.9m-6.08-6.2c-.11,1.35-.47,1.89-1.86,2-3.67.17-7.33.48-11,.72-1,.07-1.6-.05-1.52-1.45.44-7.55-.08-15.14.67-22.69a36.9,36.9,0,0,0,0-3.79c0-1,.32-1.52,1.47-1.5,3.91.06,7.82,0,11.73,0,1,0,1.18.66,1.14,1.46-.1,2.52-.21,5.05-.32,7.57-.74,5.88.19,11.8-.29,17.68m6.58-25.72a14.78,14.78,0,0,1-1.48,2c-.61.63-1.28,1.77-2.05,1.52-1-.33,0-1.61-.45-2.23.21-.88-.47-2,.46-2.25a9,9,0,0,1,3.35,0c.51,0,.46.61.17,1m-8.66-67.92a64.09,64.09,0,0,1,6.11,12.44c2,6,4.05,11.92,5.5,18.08a106,106,0,0,1,2.74,18.35c.22,3.81.77,7.64.17,11.48-.15,1-.46,1.44-1.56,1.51-5.22.3-10.44.28-15.67.37-5.7.11-11.4-.31-17.1.12h-.36c-3.11,0-3.21,0-3.36-3.05-.22-4-.6-8-2.4-11.73-3.2-6.62-8.62-9.92-15.78-10.75a72.8,72.8,0,0,0-7.38-.26c-.85,0-1.07-.31-1-1s.1-1.32.13-2c.29-6.29.45-12.6.91-18.88.19-2.62.37-5.25.71-7.87.51-3.91.16-7.9.66-11.83.39-6.1.22-12.24,1-18.32a8.51,8.51,0,0,0,0-2.52c-.31-1.79.6-2,2.06-1.94a42.06,42.06,0,0,1,14,3.33c1.16.47.6.9.24,1.43a18.59,18.59,0,0,0-2.66,4.27c-1.32,4,1.14,8.49,5.57,10.45a9.19,9.19,0,0,0,10.35-2.35c1.23-1.4,2.56-2.71,3.84-4.06.36-.39.69-.65,1.2-.16a71.1,71.1,0,0,1,12.19,14.88m-14.8-16.07a26.38,26.38,0,0,1-5.59,5.32,6.91,6.91,0,0,1-7.93-.31,6.32,6.32,0,0,1-2.38-7.49c1-3.27,3.32-5.81,5.05-8.66,2.71-4.47,5.59-8.83,8.54-13.15,1.69-2.47,3.58-4.82,6.48-6.07a8,8,0,0,1,10,3c.73,1.11.49,2.32.64,3.57-.19,3.25-1.81,6-3.51,8.71a128.16,128.16,0,0,1-11.3,15.12" transform="translate(-193.21 -225.47)"/><path class="cls-2" d="M315.63,249.31c1.73,1.2,3.38,2.5,5.11,3.68,5.28,3.6,8,8.79,9.35,14.85a57.47,57.47,0,0,1,1.28,11.08c0,1,.48,1.5,1.42,1.46s.92-.88.87-1.51c-.28-3.31.24-6.6.18-9.91.07-1.69.27-3.37.2-5-.29-6.69.15-13.49-3.7-19.55-2.2-3.47-4.5-6.72-8.83-7.66-2.26-.49-4.66-.73-6.49.91-2.77,2.47-3.3,9,.61,11.7m4.66-10.89a7.85,7.85,0,0,1,4.48,2.16c2.62,2.84,5,6,5.93,9.71a46.52,46.52,0,0,1,1.21,14.47c-1.07-.84-1-1.84-1.33-2.66-2.18-6.33-7.05-10.16-12.46-13.47a6.16,6.16,0,0,1-3.17-6c.22-3.25,2.17-4.79,5.34-4.17" transform="translate(-193.21 -225.47)"/><path class="cls-2" d="M398,285.82a2.84,2.84,0,0,1-2.4-1,7.26,7.26,0,0,1-1.68-3.15c-.16-.54-.41-1.09-1.1-.95s-.76.69-.78,1.26c-.07,2.39,2.85,5.5,5.42,5.62a4,4,0,0,0,.55,0c.78-.1,1.56-.49,1.53-1.27,0-1.08-1-.55-1.54-.49" transform="translate(-193.21 -225.47)"/><path class="cls-2" d="M217.63,279.5a.52.52,0,0,0-.72.35c-.16,1.51-1.26,2.22-2.35,3a.82.82,0,0,0-.28,1.12.89.89,0,0,0,1.08.41,4.55,4.55,0,0,0,2.94-3.56c0-.57,0-1.1-.67-1.31" transform="translate(-193.21 -225.47)"/><path class="cls-2" d="M289.18,416.24l0-.58-9.3.75h0c3.14.54,6.21-.23,9.33-.17" transform="translate(-193.21 -225.47)"/><path class="cls-2" d="M344.15,418.17c-1.21.16-2.31-.54-3.49-.42,1.14.39,2.26.92,3.49.42" transform="translate(-193.21 -225.47)"/><path class="cls-2" d="M405,408.09a25.9,25.9,0,0,0,.14,8.87c-.05-2.95.55-5.93-.14-8.87" transform="translate(-193.21 -225.47)"/><path class="cls-2" d="M405.06,402.2c-.13,1.24-.19,2.49-.24,3.73,0,.1.09.2.23.51.63-1.59.09-2.91,0-4.24" transform="translate(-193.21 -225.47)"/><path class="cls-2" d="M291.3,401.54l7,.3a13.53,13.53,0,0,0-7-.3" transform="translate(-193.21 -225.47)"/><path class="cls-2" d="M306.83,401.58l-6.91,0c2.3.24,4.61.6,6.91,0" transform="translate(-193.21 -225.47)"/><path class="cls-2" d="M279.13,410.47l4.59-.64c0-.17-.06-.35-.1-.53a8.55,8.55,0,0,0-4.49,1.17" transform="translate(-193.21 -225.47)"/><path class="cls-2" d="M321.56,408.19a8.55,8.55,0,0,0,4.72.12c-1.68-.77-3.21.2-4.72-.12" transform="translate(-193.21 -225.47)"/><path class="cls-2" d="M286.89,394.32,277,393.9c3.26,1.15,6.57.47,9.86.42" transform="translate(-193.21 -225.47)"/></svg>