<svg id="Layer_1" data-name="Layer 1" xmlns="http://www.w3.org/2000/svg" viewBox="0 0 163.81 409.9"><defs><style>.cls-1{fill:#fff;}.cls-2{fill:#010101;}</style></defs><path class="cls-1" d="M323.49,419a12.55,12.55,0,0,0-.08-5.78,13.12,13.12,0,0,0,.08,5.78" transform="translate(-286.67 -215.95)"/><path class="cls-1" d="M336.38,464.1c-2.11-2-3.85-4.41-5.81-6.58-3.38-3.74-6.81-7.44-10.35-11.31a2.72,2.72,0,0,0-.17.63c.52,11.4.67,22.81,1.67,34.2q.86,9.68,2.36,19.23a17,17,0,0,0,1.52,5,23.82,23.82,0,0,0,5.3,7.13A13.63,13.63,0,0,0,343,515.93c1.45-.25,3.15-.14,4.32-1.31a13.18,13.18,0,0,0,3.86-8c.52-4.17,1.11-8.33,1.51-12.52.33-3.53.29-7.05.56-10.57a1.75,1.75,0,0,0-.42-1.58c-2.48-2.29-4.44-5-7-7.29-3.54-3.14-6-7.32-9.44-10.6" transform="translate(-286.67 -215.95)"/><path class="cls-1" d="M345,589.61h.09a33.06,33.06,0,0,1,.26-3.73c.28-1.54-.47-1.78-1.69-1.61-3.21.46-6.43.93-9.59-.3a.45.45,0,0,0-.42.16c-.27,1-1.3,1.24-1.78,2-2.53,4-5.54,7.74-8.08,11.72-2.41,3.79-4.95,7.51-7.11,11.47-2,3.62-4.14,7.14-6.21,10.71-.19.33-.54.73-.26,1.08.16.19.64.18,1,.15,2-.23,3.94-.54,5.92-.74,6.57-.64,13.18-.39,19.74-1.25a69.27,69.27,0,0,1,7.5-.24c.86,0,1.28-.27,1.3-1.29.08-4.32-.15-8.64-.31-13-.18-5-.22-10.12-.32-15.18m-2.9-.19c-.19,2.07-1.45,3.78-2.28,5.59-1.13,2.47-1.79,5.09-2.93,7.54-1.69,3.64-3.24,7.34-4.57,11.12-.17.48-.32,1-.48,1.45-.2.66-.39,1.51-1.28,1.25s-.52-1.09-.28-1.69c.72-1.85,1.48-3.68,2.22-5.52,1.77-4.41,3.69-8.76,5.26-13.24.83-2.36,1.79-4.64,2.75-6.94.21-.49.58-.93,1.17-.7a.79.79,0,0,1,.42,1.14" transform="translate(-286.67 -215.95)"/><path class="cls-1" d="M405.56,581.42c-2.61.66-5.31.49-7.95.85-1.86.25-2.67,1-2.41,2.92a38.48,38.48,0,0,1,0,7.12c-.46,8.06-.69,16.13-.85,24.2,0,1.48.39,2.14,1.92,1.87.33-.06.68,0,1-.06,7.21-.62,14.43-.12,21.65-.18,4.69,0,9.38.1,14.21-.12-.85-2-2.27-3.31-3.21-4.95-2.32-4-5.17-7.67-7.85-11.45-4.36-6.13-8.64-12.32-13-18.48-.85-1.21-1.86-2.14-3.53-1.72m10,31.87a6.57,6.57,0,0,0,.51.61c-.08.55-.45.63-.75.45a3.41,3.41,0,0,1-1.12-1c-1.88-3.08-4.07-6-5.85-9.11-2.54-4.48-5.43-8.75-8.17-13.12a10.27,10.27,0,0,0-1.13-1.24,1.45,1.45,0,0,1,.06-2.26c1-.78,1.22.38,1.56.91,2.44,3.81,5,7.55,7.18,11.5,1.6,2.9,3.48,5.65,4.88,8.68a42,42,0,0,0,2.83,4.59" transform="translate(-286.67 -215.95)"/><path class="cls-1" d="M410.24,513.43a17.13,17.13,0,0,1-5.2,1.89c-3.44.56-6.67-.64-9.83-1.65a12.44,12.44,0,0,1-4.57-2.55,22.31,22.31,0,0,1-5.38-7.48c-.87-1.94-2.36-.44-3.57-.4s-.9.91-.79,1.63c.94,5.86.38,11.8.94,17.68.18,1.85.36,2.18,2.24,2.09,4.78-.22,9.51-1.18,14.35-.7,3.05.31,6.15.15,9.22.2,4.37,0,8.74.35,13.11-.18,1.16-.14,1.44-.52,1.44-1.53,0-6,0-12.07,0-18.11,0-3.56-.17-3.54-3.7-3.52-1.31,0-1.85.37-2.12,1.73-.85,4.26-1.65,8.56-6.1,10.9" transform="translate(-286.67 -215.95)"/><path class="cls-1" d="M414.85,525.55c-2.56,0-5.12-.06-7.68-.1-5.76-.05-11.49.44-17.21.9-3.48.28-3.48.4-2.84,4q1.29,7.3,2.61,14.59c.72,4,1.12,8,2,11.94a89.23,89.23,0,0,1,1.87,9.7c.51,4.59,1.7,9.05,2.55,13.57.09.51.29.67.81.53,2.55-.65,5.2-.42,7.79-.78,1.14-.16,1.89-.67,1.9-1.77a28.46,28.46,0,0,1,1-5.52c1-4.78,1.7-9.62,2.45-14.45.62-4,1.73-8,2.45-12,.84-4.63,1.29-9.33,2.7-13.86a45.41,45.41,0,0,0,.91-5.38c.2-1.09-.19-1.36-1.26-1.34" transform="translate(-286.67 -215.95)"/><path class="cls-1" d="M393.07,471.41a60.13,60.13,0,0,1-4.41,5.79c-1.14,1.36-2.69,2.8-3,4.39a45.44,45.44,0,0,0-.77,9.28c.18,5.29.59,10.44,3.57,15a15.45,15.45,0,0,0,8.16,6.39,23.37,23.37,0,0,0,8.41,1.07c4.44-.21,8.58-4,9.05-8.06.42-3.52.69-7.06,1.16-10.56,1.42-10.42,1.29-20.94,2.19-31.38,0-.74.07-1.48,0-2.22q-.54-9-1.11-18c-.06-1-.16-1.93-.27-2.89a.63.63,0,0,0-.49-.62c-.28,0-.38.19-.46.41-.94,2.52-3.14,4.15-4.45,6.47a104.87,104.87,0,0,1-6.38,9.15c-2.15,3-4.21,6.09-6.52,9-1.73,2.17-3.24,4.45-4.74,6.77" transform="translate(-286.67 -215.95)"/><path class="cls-1" d="M338,460.39a19.25,19.25,0,0,1,2.87,3.05c.81,1.09,1.78,2.05,2.63,3,1-.39,1.14-1.23,1.64-1.73s.25-1-.22-1.43a52.87,52.87,0,0,1-4-4.38c-1.68-2.19-3.78-4-5.28-6.38-.38-.59-.82-1.39-1.7-.46s-2.22,1.78-1,2.91c1.82,1.7,3.2,3.78,5,5.4" transform="translate(-286.67 -215.95)"/><path class="cls-1" d="M423.12,405.57c-.9-.16-1.37.36-1.84,1s-.93,1.5-1.59,1.45c-2.28-.19-1.13,1.06-.82,1.83a175.61,175.61,0,0,1,6.46,19.35c.93,3.38,1.71,6.78,2.38,10.22,1.14,5.85,3.48,11.4,4.42,17.31.2,1.28.65,2.39,2.54,1.72.27-.31,1.85,1.17,1.43-.74-.61-2.83-.81-5.73-1.38-8.54-1.59-7.83-2.91-15.73-5-23.47-1-3.84-2-7.68-3.17-11.47-.74-2.43-1.73-4.78-2.61-7.15-.2-.54.05-1.3-.87-1.47" transform="translate(-286.67 -215.95)"/><path class="cls-1" d="M434.45,460.45c-2.43.05-5.52,3.86-5.62,6.82-.09,2.39,2.78,4.28,4.84,4.36,3.45.13,7-2.81,7-5.62,0-3.42-2.48-5.65-6.21-5.56" transform="translate(-286.67 -215.95)"/><path class="cls-1" d="M420.47,404.69c1.25-.74.95-1.3,0-2.22a22.6,22.6,0,0,1-2.69-3.63,54.37,54.37,0,0,0-7-8.33,110.64,110.64,0,0,0,9.06,14.95c.29-.36.42-.64.64-.77" transform="translate(-286.67 -215.95)"/><path class="cls-1" d="M437.13,476c0-3.1.06-3.06-3-2.64-.86.11-1.16.34-1.11,1.24.08,1.36,0,2.72,0,4.08h.2c0,1.58-.05,3.17-.07,4.76,0,.88.2,1.38,1.18.69a3.91,3.91,0,0,1,1.63-.86c1.67-.21,1.51-1.44,1.5-2.52,0-1.59-.25-3.17-.25-4.76" transform="translate(-286.67 -215.95)"/><path class="cls-1" d="M406,395.62c.23,5,.46,9.93.7,15.14,1.63-1.46,1.14-11.39-.7-15.14" transform="translate(-286.67 -215.95)"/><path class="cls-1" d="M410.34,410.21A2.28,2.28,0,0,0,412,407.9c-.77-2.67-1.58-5.33-2.39-8-.14-.47-.26-1-1-1.14.36,3.63.7,7.21,1.08,10.8,0,.31.15.67.63.64" transform="translate(-286.67 -215.95)"/><path class="cls-1" d="M419.39,397.92c1,1.38,2.1,2.66,3.16,4,.66.83,1.59,1.22,2.24.3.45-.65,2.37-1,.62-2.64-2.91-2.71-5.72-5.55-8.53-8.37-2.25-2.26-5-3.78-7.24-6.06a1.35,1.35,0,0,0-.42-.19,2,2,0,0,0-.17.23l4.28,5.24c2,2.49,4.19,4.9,6.06,7.5" transform="translate(-286.67 -215.95)"/><path class="cls-1" d="M413.44,406.44c.17.63.44,1.38,1,1.44,1.15.13,1.54-1.19,2.45-1.64.61-.32.25-.92,0-1.35a61,61,0,0,0-3.5-5.9,79,79,0,0,1-4.55-7.25,3.91,3.91,0,0,0,.43,2.69c1.94,3.81,3,7.93,4.14,12" transform="translate(-286.67 -215.95)"/><path class="cls-1" d="M349.21,515.05a14.1,14.1,0,0,1-13.37,2.37A19.51,19.51,0,0,1,325,508.55a7.24,7.24,0,0,1-1.26-2.38c-.63-3.26-.68-3.26-3.93-3.59-2.87-.29-3.19.05-2.61,2.94a57.17,57.17,0,0,1,1,8.76c.14,3.68.39,7.36.54,11.05,0,1,.37,1.39,1.43,1.3,1.42-.11,2.8-.44,4.19-.66,4.67-.76,9.4-.37,14.09-.53,5.95-.2,11.92-.45,17.88-.16,2.36.12,2.37,0,2.48-2.4,0-.68,0-1.36,0-2h.05c-.27-5.11-.53-10.22-.84-15.33-.16-2.59-.21-2.49-2.86-2.57-1.29,0-1.86.34-2.07,1.59a42.23,42.23,0,0,1-.95,4.15c-.62,2.3-1,4.84-3,6.38" transform="translate(-286.67 -215.95)"/><path class="cls-1" d="M398.21,451.26c-2.81,3.72-5.54,7.49-8.16,11.36-.64.94.12,1.46.18,2.17s.79.65,1.56.74,1.13-.67,1.58-1.31c2.24-3.26,4.43-6.54,6.74-9.75,1.09-1.52,1.13-2-.26-3.34-.64-.58-1.07-.63-1.64.13" transform="translate(-286.67 -215.95)"/><path class="cls-1" d="M383.8,361.1c0-.73,0-1.57-1.14-1.44l-4.23.42c-.89.09-1.32.47-1.21,1.43.57,5.37.37,10.78,1.09,16.14.31,2.34.46,2.47,2.89,2.33a8.94,8.94,0,0,1,1.86-.05c1.32.22,1.47-.5,1.28-1.48-.66-3.37-.49-6.79-.64-10.19,0-2.39.1-4.78.1-7.16" transform="translate(-286.67 -215.95)"/><path class="cls-1" d="M364.11,365.1a39,39,0,0,1-6-1.23c-.6-.2-1.64-.62-1.53.72.22,2.76.54,5.51.84,8.46,2.78-1.37,5.43-2.61,8-4,.6-.31,1.51-.27,1.75-1.15s.53-1.79,1.38-.32c.21.37.62.17.92,0,1-.49,2-1,3-1.51l0-.42a58.58,58.58,0,0,1-8.37-.59" transform="translate(-286.67 -215.95)"/><path class="cls-1" d="M369.45,373.86c-.27-.35-.2-.78-.38-1.1-.51-.9.08-2.29-.77-2.78s-1.82.65-2.74,1c-2.07.81-4.31,1.44-5.9,3.49a37.29,37.29,0,0,0,8.73,1.1c.62,0,1.35.15,1.7-.47s-.35-.88-.64-1.26" transform="translate(-286.67 -215.95)"/><path class="cls-1" d="M312,265.19c-.31-3.21-.35-3.21-3.66-3.11-1,0-2.05-.05-3.07-.05-.79,0-1.23.29-1.23,1.23,0,3.64.2,7.28.43,10.92.05.85.37,1.24,1.27,1.12,1.8-.22,3.61-.44,5.42-.57,1.16-.09,1.41-.74,1.35-1.71-.16-2.61-.27-5.23-.51-7.83" transform="translate(-286.67 -215.95)"/><path class="cls-1" d="M410.49,350.22q9.63-.59,19.26-.8a12,12,0,0,0,3.21-.34c2-.6,2.69-1.43,2.6-3.57a15.44,15.44,0,0,1,.12-1.68c.1-2.73.95-5.35.95-8.13,0-5.5.11-11,.51-16.51.34-4.77.32-9.55.44-14.31.11-4.41-.37-8.84-.19-13.28.05-1.36.08-2.72.1-4.08.12-8.43.18-16.87.38-25.29.11-4.71.39-9.42.71-14.12.13-1.83-.7-2.24-2.28-2.17-5.21.23-10.42,0-15.65.24s-10.78-.38-16.2-.15c-3.23.14-6.49,0-9.72.12-8.74.46-17.47,1.24-26.24,1-5.64-.14-11.27.24-16.89.57-6.64.39-13.29.07-19.92,1-3.17.42-6.49-.31-9.68.06a165,165,0,0,1-16.46,1.33,53.36,53.36,0,0,0-8.18.39c-1.39.24-1.76.81-1.61,2.16a241.17,241.17,0,0,1,1.17,24.18c.07,6.45.81,12.84,1,19.27.23,7,1,14,1.2,20.95.21,6,.52,11.95.88,17.91.33,5.45.78,10.89,1.18,16.34h-.12c0,1.25-.07,2.51,0,3.76,0,.48.08,1.2.8,1,1.52-.36,3,.16,4.54-.08,7.13-1.17,14.38-1,21.55-1.77,4.92-.53,9.87-.3,14.8-.7,4.7-.38,9.36-1.09,14.09-1.16,5.64-.09,11.27-.3,16.9-.52,7.1-.27,14.2-.38,21.3-.88,5.15-.36,10.33-.46,15.48-.77M415,334.8c1.56-1.56,3.53-1.6,5.56-1.21a.84.84,0,0,1,.53.35c.72,1.8,2.44,3.22,2.09,5.6a4.23,4.23,0,0,1-3.75,4.16c-2.4.26-5.13-1.34-5.64-3.48A5.45,5.45,0,0,1,415,334.8M312.58,276.72c-2.37.33-4.74.48-7.12.6-2.2.1-2.22.06-2.39-2.16-.29-3.73-.6-7.47-.82-10.26.13-4.1.18-4.1,3.46-4.4a33.69,33.69,0,0,1,5.41-.49c2.08.14,2.17.36,2.46,2.36.55,3.88.74,7.79,1.09,11.68.2,2.18,0,2.38-2.09,2.67" transform="translate(-286.67 -215.95)"/><path class="cls-1" d="M418.61,341.54c1.9,0,2.81-.78,2.88-2.66,0-1.15-1.75-3.78-2.6-3.82-1.47-.07-3.47,2.2-3.52,4s.85,2.41,3.24,2.48" transform="translate(-286.67 -215.95)"/><path class="cls-1" d="M372.78,368.28c-1.12-.27-1.94.52-2.88.86-.67.24-.62.82-.51,1.43.3,1.64,1.57,2.87,1.88,4.5.06.37.4.53,1,.54s1.27-.35.9-1.08c-1-1.92-.7-3.79-.18-5.7.07-.25,0-.49-.2-.55" transform="translate(-286.67 -215.95)"/><path class="cls-1" d="M376.23,367.66c0-.91-.28-1.1-1.13-.71-1,.46-1.74.95-1.58,2.26.25,1.91.37,3.84.51,5.76,0,.53.35.62.77.7,1.75.35,2,.08,1.73-2.24-.1-1.92-.24-3.85-.3-5.77" transform="translate(-286.67 -215.95)"/><path class="cls-1" d="M358.87,380.85c3,.14,5.9-.37,8.85-.29,2.71.06,5.37-.81,8.1-.48.85.1,1-.45,1-1.19s-.19-1.29-1-1.18c-2.22.29-4.39-.31-6.56-.37A68,68,0,0,1,358.59,376c-.79-.14-1.37-.16-1.24.92a12.37,12.37,0,0,1,0,1.36h0c0,.4.07.8,0,1.2-.07,1.07.1,1.29,1.44,1.36" transform="translate(-286.67 -215.95)"/><path class="cls-1" d="M396.3,391a2.2,2.2,0,0,0,2.26-1.92c.08-1.11-1-1.12-1.87-1.16-1.42-.16-1.54.92-1.64,1.85A1,1,0,0,0,396.3,391" transform="translate(-286.67 -215.95)"/><path class="cls-1" d="M331.57,391c-1.32,0-1.95,1-2.07,2.25s.81,1.13,1.35,1.2c1.51.07,2.57-.28,2.61-1.75a1.67,1.67,0,0,0-1.89-1.7" transform="translate(-286.67 -215.95)"/><path class="cls-1" d="M384.29,400.6a5.86,5.86,0,0,1-1.52.13c-3.69.15-7.39-.37-11.42.14-8.32-.21-16.88,1.06-25.49,1.62-.63,0-.79.33-1.1.78-.93,1.35-.39,2.77-.36,4.16.15,7.44.4,14.88.5,22.32,0,1.62.65,1.93,2.08,1.74,5.17-.72,10.39-.86,15.6-1.14,5.5-.29,11-.34,16.52-.72A47.13,47.13,0,0,0,386,429c1-.23,1.25-.61,1.18-1.58-.58-8.5-.16-17.06-1.35-25.54-.15-1.08-.31-1.63-1.53-1.24" transform="translate(-286.67 -215.95)"/><path class="cls-1" d="M374.56,360.34a40.35,40.35,0,0,0-5,.47c-.78.13-1.9-.26-2.24,1-.08.29-.53.32-.75.13-1.52-1.32-3.35-.74-5-.68s-3.27-.27-5.22.43a14.15,14.15,0,0,0,4,1.32,88.89,88.89,0,0,0,14.4,1c.77,0,1.65.12,1.31-1-.27-.95.58-2.66-1.4-2.6" transform="translate(-286.67 -215.95)"/><path class="cls-1" d="M361,384.94c-7.59.49-15.21.66-22.76,1.64-3.8.5-7.63.06-11.42.6-.91.13-1.26.42-1,1.27.64,2.43,0,4.94.64,7.41.8,3.15.56,6.44.74,9.67.47,8.51,1.08,17,1.57,25.54.16,2.81,0,5.62,2,8,1.26,1.49,2.13,3.37,3.43,4.75,1.54,1.63,3.16,3.25,4.72,4.87,2.8,2.9,5.22,6.17,7.81,9.27a69.12,69.12,0,0,0,8.94,9.48,2.49,2.49,0,0,0,2,.74c4.85-.64,9.73-.78,14.61-1,2.37-.1,4.76-.51,7.12-.64,1.5-.09,2.69-.08,3.55-1.37.34-.51.39-1.28.81-1.64,2.19-1.89,3.35-4.53,5-6.8,4-5.56,7.88-11.24,12.14-16.63a7.44,7.44,0,0,0,1.84-4.78c-.11-6.09-.13-12.18-.15-18.27,0-8.19-1-16.36-.51-24.65-.18-2.51.36-5.11-.23-7.72-.26-1.14-.8-1.3-1.78-1.16-4.68.67-9.41.41-14.11.57-8.3.28-16.61.3-24.89.84M330.71,396c-1.48,0-2.94-1.27-2.89-2.5a3.93,3.93,0,0,1,3.59-3.86c1.82,0,3.89,1.67,3.87,3.14,0,1.65-2.27,3.23-4.57,3.22m64.65-9.57c1.49-.7,3,.34,4.31,1.14s.7,2.09.4,3.11-1.34.95-2.1,1.3c-1.57.72-3,0-4.42-.52-.57-.22-.69-.86-.57-1.76-.31-1.62,1.1-2.65,2.38-3.27m-7.53,14.43a82.16,82.16,0,0,1,.43,11.36,142.69,142.69,0,0,0,.4,16.45c.12,1.44-.55,1.77-1.61,1.76-4.11,0-8.17.63-12.26.89-7.16.47-14.32.94-21.47,1.47-1.69.12-3.36.51-5.05.72a12.66,12.66,0,0,1-2.38.11c-1.49-.09-2.13-.71-2.16-2.45-.09-4.31-.58-8.62-.82-12.93-.27-4.88-.46-9.77-.65-14.65a3.75,3.75,0,0,1,2.69-3.09,117.58,117.58,0,0,1,15.77-1.07c6.53,0,13.06-.61,19.6-.11a17.31,17.31,0,0,0,4.91-.38c1.65-.35,2.44.28,2.6,1.92" transform="translate(-286.67 -215.95)"/><path class="cls-1" d="M349.47,379.77c0,1.28.44,1.9,1.83,1.69a14.52,14.52,0,0,1,3.22-.19c1.24.11,1.45-.36,1.36-1.46-.42-5.05-.79-10.09-1.16-15.14-.22-2.89-.21-2.89-3.41-3-.06,0-.52,0-1-.07-1.93-.09-2.11.11-1.72,2a21.28,21.28,0,0,1,.37,3.56c.15,4.21.35,8.42.48,12.63" transform="translate(-286.67 -215.95)"/><path class="cls-1" d="M351.14,526.84c-4.15.13-8.31,0-12.47.16-4.31.14-8.64,0-12.93.55-1.36.19-1.72.58-1.32,2a64.36,64.36,0,0,1,1.34,6.49c.52,2.91.67,5.92,1.49,8.73,1.66,5.77,2.31,11.72,3.41,17.57,1,5.3,2.21,10.57,3,15.91.22,1.41-.17,3.48,1.11,4.16s3,.18,4.54.2v.07c1.31,0,2.62,0,3.92.08s1.64-.54,1.95-1.6c1.61-5.54,1.24-11.35,2.34-17,.73-3.77,1.22-7.67,1.68-11.53.34-2.87,1.19-5.74,1.18-8.55,0-5.36,1.48-10.45,2-15.7.12-1.21.07-1.56-1.26-1.53" transform="translate(-286.67 -215.95)"/><path class="cls-1" d="M319.12,404.87c-.74,3.44-1.1,7-2.24,10.32-.42,1.22.13,1.85,1.45,1.75a2.34,2.34,0,0,1,2.18.6c-.85,0-1.36,0-1.87,0s-1,.2-1.47-.14a.42.42,0,0,0-.66.29c-.13.95-.54,2-.09,2.85.34.66,1.25.25,1.9.3a6.18,6.18,0,0,0,.86,0c2.21-.1,2.17-.17,2.19-2.36.05-4.69.18-9.39.35-14.09a33.54,33.54,0,0,0-.13-7c-.52,2.95-1.94,5.08-2.47,7.55" transform="translate(-286.67 -215.95)"/><path class="cls-1" d="M298.1,467.74c-2.51-.09-5.16,3.17-5.27,6.48a5.63,5.63,0,0,0,5.36,5.8c4.34.28,6.57-3.7,6.77-7.55.16-3.07-2.06-4.55-6.86-4.73" transform="translate(-286.67 -215.95)"/><path class="cls-1" d="M302.56,411.2a2.67,2.67,0,0,1-1.15-1.53,2.6,2.6,0,0,0-2,2.58c.18,1.35,1.64,2.18,2.57,3.22.19.22.47-.18.67-.36,1.57-1.4,1.53-2.62-.12-3.91" transform="translate(-286.67 -215.95)"/><path class="cls-1" d="M305.37,410.63c1.37-3.18,3.92-5.6,5.62-8.59,2.08-3.66,4.07-7.39,6.41-10.92a7.3,7.3,0,0,0-1.73,1.29c-4.39,5-8.75,10-13.13,15a4.75,4.75,0,0,0-1.09,2.24,5.64,5.64,0,0,1,1.8,1.42c.85.72,1.59.81,2.12-.42" transform="translate(-286.67 -215.95)"/><path class="cls-1" d="M298.68,512.36c-2.51.13-3.92,1.57-4.87,3.64-1.72,3.75-1.93,7.93-3.35,11.77a5.79,5.79,0,0,0-.59,3.3,3.85,3.85,0,0,0,1.89,4.07c2.48,1.63,5.3,1.89,8.09,2.33,1.66.27,2.13-.68,2.32-2.16.59-4.46,1.09-8.92.29-13.41-.14-.78,0-1.72.9-1.72.72,0,.95.89,1,1.63.09,2.05.16,4.1.31,6.14,0,.59-.43,1.64.58,1.66s2.32,0,2.65-1.33a10.14,10.14,0,0,0,.32-3,21.55,21.55,0,0,0-2.89-9.15c-2.15-4-2.06-4-6.64-3.74" transform="translate(-286.67 -215.95)"/><path class="cls-1" d="M320.45,394.42a3.85,3.85,0,0,0-1.11,1.86c-.76,1.72-1.46,3.5-2.36,5.12-2.17,4-3.33,8.42-5.71,12.29-.27.44-.2.76.34,1.08,3,1.76,3,1.78,3.88-1.6.07-.28.09-.57.16-.84,1.15-4.47,1.48-9.15,3.4-13.43a15.53,15.53,0,0,0,1.4-4.48" transform="translate(-286.67 -215.95)"/><path class="cls-1" d="M311.06,415.67c-1.54.27-1.39,1.84-1.59,3-.12.75,1.9,2.13,3.45,2.14,2.22,0,.9-2.05,1.57-2.84.08-.94-2.09-2.56-3.43-2.32" transform="translate(-286.67 -215.95)"/><path class="cls-1" d="M310.52,421.63c-1.16-.45-2.39,0-3.55-.25-.85-.22-1.25.07-1.38,1-.16,1.12-.41,2.23-.67,3.33-1,4.2-2,8.39-3,12.58-.77,3.2-1.05,6.48-1.86,9.69a140.54,140.54,0,0,0-3.56,17.18c-.13.48,0,.79.77.75a13.43,13.43,0,0,1,5,.71c.62.21.87,0,.91-.58.2-2.6.86-5.14,1.13-7.71A118,118,0,0,1,305.94,446c.85-4,1.82-8,2.75-12,.86-3.7,1.29-7.51,2.62-11.09.35-.94-.19-1.07-.79-1.3" transform="translate(-286.67 -215.95)"/><path class="cls-1" d="M295.09,491.26c.2,3.89,0,7.78,0,11.67,0,2.26,0,4.53.07,6.8,0,.6-.07,1.58,1,1.36a21.1,21.1,0,0,1,4.41-.21c1.18,0,1.6-.42,1.6-1.6,0-3.57.09-7.15.15-10.72-.05-4.85-.59-9.65-1-14.46-.22-2.4-.24-2.39-2.56-2.31-.73,0-1.47,0-2.21,0-.52,0-.91.14-.78.79a8.53,8.53,0,0,1-.09,1.8c0,2.33-.6,4.6-.48,6.92" transform="translate(-286.67 -215.95)"/><path class="cls-1" d="M312.8,402.71c-2.17,3.13-3.37,6.78-5.73,9.81A15.49,15.49,0,0,0,305,416c-.73,1.78.66,2.3,1.53,2.81s1-.83,1.41-1.34c.24-.29.24-.76.45-1.09.49-.79.14-1.89.57-2.48A30.12,30.12,0,0,0,312,407.8c1.56-3.68,3.19-7.32,5.08-10.84a2.67,2.67,0,0,0,.5-2c-.26.29-.5.52-.7.79-1.6,2.18-2.59,4.77-4.1,6.95" transform="translate(-286.67 -215.95)"/><path class="cls-2" d="M392.14,362c3.22,0,6.33-.87,9.58-.91a30.49,30.49,0,0,0,8.79-1.71,40,40,0,0,1,8-2.09c2.79-.28,5.36-1.24,8-1.78,2.3-.46,4.28-1.89,6.63-2.1,4-.35,5.69-3.48,7.24-6.47,1.06-2,1.31-4.47,2.28-6.56a70.54,70.54,0,0,0,2.66-8,35.42,35.42,0,0,0,1.49-4.31c.82-4.44,2.18-8.76,2.82-13.27a70.64,70.64,0,0,0,.74-13.38c-.23-4.3-.52-8.6-.75-12.9-.29-5.51-.2-11-.7-16.53a149.32,149.32,0,0,0-4.09-21.52,11.63,11.63,0,0,0-8.53-8.59c-4-1.17-8.2-1.67-12.25-2.75-1.87-.49-2-.65-.84-2.23,2.48-3.25,4.34-6.9,6.63-10.28,1.21-1.78,2.09-3.34,4.65-3,1.48.19,2.81-1.78,2.84-3.66,0-1.57-1.43-3.49-2.75-3.63a3.8,3.8,0,0,0-4.24,4.77,2.93,2.93,0,0,1-.58,2.67,117.21,117.21,0,0,0-7.54,12.24c-1.32,2.4-1.33,2.4-4.06,1.78-1-.22-2-.46-3-.71-3.5-.9-7.11-.77-10.66-1.21-.52-.06-1,0-.93-.83.27-2.65.54-5.31,1.06-7.93.32-1.59.08-3.52,2.45-3.81.17,0,.31-.32.46-.49a3.89,3.89,0,0,0,0-5.4,4.84,4.84,0,0,0-5.65-.82c-1.78,1.13-1.94,2.77-.62,4.37.82,1,2,1.82,1.86,3.44-.31,3.17-.59,6.35-.77,9.53-.08,1.45-.67,1.87-2.05,1.68a45.63,45.63,0,0,0-5.93-.59c-4.94,0-9.85-.27-14.77-.66-4.21-.33-8.45-.61-12.7-.57a61.53,61.53,0,0,0-8.29.47,111.64,111.64,0,0,1-12.49,1A100,100,0,0,0,332,236.66c-3.24.55-6.36,1.57-9.62,2.1a33.67,33.67,0,0,0-6.5,1.17c-5.19,1.94-10.52,3.41-15.73,5.3-3,1.1-5.17,3.06-7.46,5a1.36,1.36,0,0,0-.3.76c-.34,1.88-.66,3.77-1,5.65-1.14,6.39-2.78,12.68-3.32,19.18a24.65,24.65,0,0,1-.22,3.73c-.88,3.71-.75,7.54-1,11.32s-.08,7.49-.08,11.23c0,9.16,0,18.31,1.51,27.39.2,1.24.68,2.38,1,3.58.78,3.25,1.58,6.5,2.06,9.8.38,2.65,1.76,4.9,2.68,7.32.84,2.23,1.09,4.67,2.67,6.69,1.75,2.22,3.57,4.15,6.56,4.09,1.68,0,3.26.48,4.88.47,1.93,0,3.49,1.14,5.42,1.24a78.61,78.61,0,0,1,8.27.71,67.46,67.46,0,0,0,8.45,1.25c4.07.16,8.14.55,12.23.32.81,0,1.14.27,1.2,1,.35,4.2.78,8.39,1,12.59.06,1,.9,2.12.21,2.93s-2.07.17-3.11.4a84.92,84.92,0,0,1-14.58,1.41,12.64,12.64,0,0,0-10.11,5.17c-2.76,3.54-6.18,6.56-9.17,9.94-3.23,3.65-6.31,7.43-9.4,11.19-1.9,2.32-1.76,3.05,0,5.43,1.38,1.87,3.46,2.74,5.21,4.05a1.36,1.36,0,0,1,.6,1.82c-.52,1.67-1,3.36-1.46,5-1.36,4.6-1.47,9.43-2.68,14-1.6,6.16-2.68,12.42-4,18.64-.82,3.94-1.05,8.07-4,11.54-2.26,2.69-2.25,6.15.42,9.05a2.56,2.56,0,0,1,.52,1.89c.08,8.59-.2,17.19.37,25.77.19,2.86.6,5.74-1.34,8.28a6.46,6.46,0,0,0-.65,1.93c-1,3-1.89,6.06-2.95,9a18.22,18.22,0,0,0-.57,7.76,2.83,2.83,0,0,0,1.27,2.14,18.52,18.52,0,0,0,12.11,3,2.32,2.32,0,0,0,2.23-2.19,27.67,27.67,0,0,0,.5-3.37c0-1.58.75-2.22,2.26-2.59,3.47-.83,3.84-1.41,4.12-5a7,7,0,0,0-.26-2.88c-1.55-4.4-2.62-9.05-6.05-12.54a1.19,1.19,0,0,1-.24-1c.26-9.52-.33-19-.66-28.52,0-.39-.13-.83.2-1.13a13.06,13.06,0,0,0,2.58-3.93c1.31-2.51,1.45-5-.59-7.28a2.54,2.54,0,0,1-.82-2c.19-3.58.78-7.11,1.3-10.65.71-4.76,1.94-9.45,2.78-14.18,1.11-6.28,3-12.33,4.45-18.52.06-.29.17-.7.45-.6,1.91.7,3.52-.92,5.43-.61a6.17,6.17,0,0,0,5-.91c.41,4.89,1,9.41.95,14a18.8,18.8,0,0,0,.93,5.53c.3,1.06.34,1,1.38,1.28.13,0,.25.22.31.36,1.05,2.76,3.56,4.41,5.21,6.71.6.85.68,1.13,0,1.9-1.42,1.59-1.33,1.64-2.66,0-3.22-3.87-7.32-6.89-10.31-11-.83-1.14-1.95-.89-2.8-.06-1.11,1.09-2,2.3-1.15,4.06a7.46,7.46,0,0,1,.38,2.69c.53,11,.26,22,1.56,32.9.65,5.47.69,11,1.51,16.46.47,3.11.36,3.13-2.72,3a5.31,5.31,0,0,0-.69,0c-2.48.15-3.88,1.57-3.47,3.9.27,1.58.42,3.15.54,4.73.54,7.14,1.44,14.26,1.23,21.44a1.41,1.41,0,0,0,.93,1.53c1.3.72,2.42-.13,3.61-.27s2,0,1.81,1.51a4.51,4.51,0,0,0-.09,1.85c.92,2.86.89,5.91,1.79,8.77a17.68,17.68,0,0,1,.83,4,79.12,79.12,0,0,0,1.59,8.8c.71,3.78,1.71,7.52,1.95,11.37.19,3.13,1.21,6.08,1.58,9.17.25,2.13,1.35,4.37.68,6.36a27,27,0,0,1-3.85,6.62,18.07,18.07,0,0,0-1.74,2.48c-1.68,3.43-4.12,6.37-6.37,9.4-2.11,2.84-3.53,6-5.46,9-1.38,2.09-2.38,4.48-3.62,6.7s-3.31,4.62-1.67,7.83c.56,1.09,1.23,1.72,2.05,1.53,2.92-.66,5.88.14,8.77-.46a8.33,8.33,0,0,1,2-.32,116.1,116.1,0,0,0,12.09-.41c4.15-.23,8.3-.24,12.44-.53,3.84-.27,5.95-1.85,5.88-6.07-.06-3.35-.3-6.71-.18-10,.27-8-1-16,.6-24.06.57-2.9.7-6,1.11-8.95,1.21-8.66,3-17.24,3.7-26,.15-1.87.38-3.73.67-5.59.64-4.08,1.37-8.15,2-12.24.17-1.09.42-1.63,1.67-1.87,3.95-.75,4.65-1.87,4.42-5.85-.42-7.22-.71-14.44-.64-21.67a2.49,2.49,0,0,0-1.1-2.32,5.47,5.47,0,0,0-3.58-1.11c-1,0-1.89-.22-1.57-1.56.95-4,.41-8.15,1.16-12.18a10.47,10.47,0,0,0,0-3.06A3.12,3.12,0,0,0,356,479.2a30.67,30.67,0,0,1-4.24-3.58c-2-2-3.62-4.32-5.46-6.47a2.21,2.21,0,0,1,.39-3.54c.33-.24.71-.34.89,0,1.15,2,3.44,3,4.51,5a2.84,2.84,0,0,0,2.87,1.72c6.55-.71,13.12-1.23,19.72-1.32a29.75,29.75,0,0,1,3.39-.14c2.72.3,5.05-.85,7.46-1.72a1.87,1.87,0,0,0,1-.92c.42-.79.65-1.9,1.31-2.3.93-.57,1.42,1.05,2.48,1s.89.62.43,1.25c-.82,1.16-1.65,2.31-2.45,3.48a34.62,34.62,0,0,1-5,6.43c-.69.65-1.53,1-1.72,2.31a79.65,79.65,0,0,0-.58,14.8c0,1.08,1.13,2.44.05,3.14-.82.53-2.23.33-3.34.18-1.77-.24-2.2.57-2.18,2.12.06,4.91,1.23,9.71,1.28,14.61,0,2.72.84,5.43.4,8.13-.66,4,.25,5.31,4.14,5.28.92,0,1.27.23,1.46,1.17,1.53,7.75,2.65,15.56,3.87,23.36,1,6.23,2.29,12.41,3.43,18.62.53,2.9,1.51,5.83,1.41,8.71-.15,4.08-.32,8.17-.41,12.25-.19,8.87-.09,17.75-.78,26.6-.09,1.26.39,2.07,1.68,2a1,1,0,0,1,1.14.72c.55,1.26,1.49,1.37,2.69,1.1a14.19,14.19,0,0,1,2.36-.23c3.18-.14,6.34.24,9.53.09,8.28-.37,16.57-.05,24.86.15a18.52,18.52,0,0,0,6.19-.85c1.42-.47,2.12-3.27,1.06-4.3-3.42-3.34-5.79-7.5-8.79-11.17-2.08-2.53-3.64-5.41-5.58-8-3-4-6-8-8.75-12.22a34.68,34.68,0,0,0-3.08-4.62c-1-1.13-2.12-2.86-1.72-4.75,1-4.68.95-9.51,2.28-14.18.92-3.24,1.46-6.62,2.17-9.93a19.34,19.34,0,0,0,.77-3.13,43.24,43.24,0,0,1,.64-5.91c.95-4.77,2.11-9.5,3-14.27.27-1.41.49-2.29,2.17-1.8.25.08.62-.2.92-.35,2.17-1.09,2.43-3.27,2.47-5.22.08-4.32-.28-8.64-.33-13,0-3.59.13-7.18.18-10.77,0-.57.29-1.47-.59-1.54-1.53-.13-2.87-1.18-4.49-.83-1.26.28-1.47-.39-1.47-1.54a118.56,118.56,0,0,1,.69-11.92c.33-3.47.27-6.94.52-10.4s.72-7,.62-10.52c-.21-6.88-.58-13.76-1.34-20.59a38.57,38.57,0,0,0-1.42-6.63c-.5-1.69-1.51-1.86-2.76-.69a1.65,1.65,0,0,1-1.33.62c-.77-.09-1.07.38-1.39,1a114.64,114.64,0,0,1-10,14.91c-.23.3-.55.83-.92.42a7.57,7.57,0,0,0-2.27-1.45c-.6-.32-.4-.76,0-1.11,1.94-1.91,3-4.53,5-6.4a4.79,4.79,0,0,0,1.55-3.83c-.12-3.56.42-7.1.14-10.68-.18-2.2.43-4.47.17-6.65-.3-2.49.17-5-.29-7.42a1.08,1.08,0,0,1,1.32-1.32c2.68.56,4.44-1.48,6.64-2.23,1.57-.53,2.09-.68,2.74.94a63,63,0,0,1,2.83,7.42c1.13,4.38,2.8,8.59,3.72,13.08,1.06,5.15,2.91,10.14,3.81,15.36.57,3.33,1.9,6.48,2.66,9.78a6,6,0,0,1-1.6,5.92c-2.67,3-3.33,7.36,1.47,10a1.71,1.71,0,0,1,.91,1.7c-.14,4,.65,8-.21,12-.07.36.2.62.35.92.51,1,1.51.65,2.33.78-.24.67-1.53.8-.8,1.65a6.88,6.88,0,0,0,1.88,1.09c-.2.31-.34.55-.51.77-1,1.3-.8,1.93.81,2.27.22,0,.45.05.67.1s.71.14.8.53-.24.58-.55.75l-2.41,1.27c-.63.34-1.59.49-1.5,1.39s1.08,1.2,1.95,1.32a8.19,8.19,0,0,1,3.29.71,4.17,4.17,0,0,1-2.05,1.4,1.63,1.63,0,0,0-.63,2.8,4.26,4.26,0,0,0,2,1.26l4.26,1.2c.4.11.84.3,1.32-.22-.53-.29-.95-.7-1.4-.74a11.26,11.26,0,0,1-3.76-1.49c-1.33-.67-1.1-1.27,0-1.87a7.94,7.94,0,0,0,1.71-1.4c1-1,.7-1.71-.44-2.21-.86-.38-1.76-.64-2.73-1,.94-1.07,2.47-1,3-2.34.77-1.87-1.22-1.81-1.83-2.7,2.58-1.71,2.75-2.66.6-3.81.45-.28.87-.46,1-1.06a17.19,17.19,0,0,0,.6-5.2c-.09-3.07,0-6.15,0-9.22,0-.64,0-1.21.7-1.6,2.61-1.48,3.06-3.83,3-6.66a5.27,5.27,0,0,0-3-4.9c-.48-.29-1-.43-1.16-1.13-.37-2-.89-3.88-1.2-5.84-.81-5.05-2.09-10-2.76-15.09-.39-2.9-1.49-5.7-2.06-8.58-1.43-7.27-3.92-14.22-6.28-21.21-1.18-3.51-1.32-3.46,1.53-5.38,2-1.37,2-1.36.35-3a2.75,2.75,0,0,1-.19-.28,121.09,121.09,0,0,0-9.75-9.87c-3.3-3.06-7.16-5.45-10.49-8.52a8.25,8.25,0,0,0-6.71-2,84.83,84.83,0,0,1-9.67.82c-1.88,0-2.11-.22-1.88-2.08.51-4.1.05-8.19-.2-12.27-.18-2.93,0-3.48,3-3.53m-75,35c-1.89,3.52-3.52,7.16-5.08,10.84a30.12,30.12,0,0,1-3.07,6.14c-.43.59-.07,1.69-.57,2.48-.21.33-.21.8-.45,1.09-.44.51-.45,1.9-1.41,1.34s-2.26-1-1.53-2.81a15.78,15.78,0,0,1,2.08-3.53c2.36-3,3.56-6.67,5.73-9.8,1.51-2.18,2.5-4.77,4.1-6.95.2-.27.44-.5.7-.79a2.67,2.67,0,0,1-.5,2m-14.42,18.15c-.2.18-.48.58-.67.36-.93-1-2.39-1.87-2.57-3.22a2.6,2.6,0,0,1,2-2.58,2.67,2.67,0,0,0,1.15,1.53c1.65,1.29,1.69,2.51.12,3.91m.57-4.06a5.64,5.64,0,0,0-1.8-1.42,4.75,4.75,0,0,1,1.09-2.24c4.38-5,8.74-10,13.13-15a7.3,7.3,0,0,1,1.73-1.29c-2.34,3.53-4.33,7.26-6.41,10.92-1.7,3-4.25,5.41-5.62,8.59-.53,1.23-1.27,1.14-2.12.42m2.07,105.05a21.55,21.55,0,0,1,2.89,9.15,10.18,10.18,0,0,1-.32,3c-.33,1.38-1.65,1.35-2.65,1.33s-.54-1.07-.58-1.66c-.15-2-.22-4.09-.31-6.14,0-.74-.27-1.64-1-1.63-.89,0-1,.94-.9,1.72.81,4.49.3,9-.29,13.41-.19,1.48-.66,2.42-2.32,2.16-2.79-.43-5.61-.7-8.09-2.33a3.85,3.85,0,0,1-1.89-4.07,5.79,5.79,0,0,1,.59-3.3c1.42-3.84,1.63-8,3.35-11.77.95-2.07,2.36-3.51,4.87-3.64,4.58-.23,4.49-.24,6.64,3.74m-9.66-33.56c-.13-.65.26-.79.78-.79.74,0,1.48.06,2.21,0,2.32-.08,2.33-.09,2.56,2.31.45,4.81,1,9.61,1,14.46-.06,3.57-.15,7.15-.15,10.72,0,1.18-.42,1.59-1.6,1.6a21.07,21.07,0,0,0-4.41.21c-1,.22-.93-.76-1-1.36-.1-2.27-.08-4.54-.07-6.8,0-3.89.23-7.78,0-11.67-.12-2.32.48-4.59.48-6.92a7.91,7.91,0,0,0,.09-1.8m9.3-10.07c-.2,3.85-2.43,7.83-6.77,7.55a5.63,5.63,0,0,1-5.36-5.8c.11-3.31,2.76-6.57,5.27-6.48,4.8.18,7,1.66,6.86,4.73m6.35-49.54c-1.33,3.58-1.76,7.39-2.62,11.09-.93,4-1.9,8-2.75,12a118,118,0,0,0-1.57,12.31c-.27,2.57-.93,5.11-1.13,7.71,0,.57-.29.79-.91.58a13.46,13.46,0,0,0-5-.71c-.77,0-.9-.27-.77-.75a142.44,142.44,0,0,1,3.56-17.18c.81-3.21,1.09-6.49,1.86-9.69,1-4.19,2-8.38,3-12.57.26-1.11.51-2.22.67-3.34.13-.89.53-1.18,1.38-1,1.17.29,2.39-.2,3.55.25.6.23,1.14.36.79,1.3m1.61-2.1c-1.55,0-3.57-1.39-3.45-2.14.2-1.18,0-2.75,1.59-3,1.34-.24,3.51,1.38,3.43,2.32-.67.79.65,2.86-1.57,2.84m2.57-7.66c-.89,3.38-.88,3.36-3.88,1.6-.54-.32-.61-.64-.34-1.08,2.38-3.87,3.53-8.31,5.71-12.28.89-1.63,1.6-3.41,2.36-5.13a3.85,3.85,0,0,1,1.11-1.86,15.53,15.53,0,0,1-1.4,4.48c-1.92,4.28-2.25,9-3.4,13.43-.07.27-.09.56-.16.84m6.23-8.82c-.17,4.7-.3,9.4-.35,14.09,0,2.19,0,2.26-2.19,2.36a6.18,6.18,0,0,1-.86,0c-.65-.05-1.56.36-1.9-.3-.45-.87,0-1.9.09-2.85a.42.42,0,0,1,.66-.29c.49.34,1,.16,1.47.14s1,0,1.87,0a2.35,2.35,0,0,0-2.19-.6c-1.31.1-1.86-.53-1.44-1.75,1.13-3.36,1.5-6.88,2.24-10.32.53-2.47,1.95-4.6,2.47-7.55a33.54,33.54,0,0,1,.13,7M323.49,419a13.12,13.12,0,0,1-.08-5.78,12.55,12.55,0,0,1,.08,5.78m112.39,64.22a3.91,3.91,0,0,0-1.63.86c-1,.69-1.19.19-1.18-.69,0-1.59.05-3.18.07-4.76h-.2c0-1.36.12-2.72,0-4.08-.05-.9.25-1.13,1.11-1.24,3.1-.42,3.05-.46,3,2.64,0,1.59.23,3.17.25,4.76,0,1.08.17,2.32-1.5,2.52M440.66,466c0,2.81-3.54,5.75-7,5.62-2.06-.08-4.93-2-4.84-4.36.1-3,3.19-6.77,5.62-6.82,3.73-.09,6.22,2.14,6.21,5.56M426.6,414.19c1.15,3.79,2.16,7.63,3.17,11.47,2,7.74,3.36,15.64,5,23.47.57,2.81.77,5.71,1.38,8.54.42,1.91-1.16.43-1.43.74-1.89.67-2.34-.44-2.54-1.72-.94-5.91-3.28-11.46-4.42-17.31-.67-3.44-1.45-6.84-2.38-10.22a175.61,175.61,0,0,0-6.46-19.35c-.31-.77-1.46-2,.82-1.83.66,0,1.14-.86,1.59-1.45s.94-1.12,1.84-1,.67.93.87,1.47c.88,2.37,1.87,4.72,2.61,7.15m-15.83-23.68a54.37,54.37,0,0,1,7,8.33,22.6,22.6,0,0,0,2.69,3.63c.92.92,1.22,1.48,0,2.22-.22.13-.35.41-.64.77a110.64,110.64,0,0,1-9.06-14.95M409.22,385c.14.06.33.09.42.19,2.2,2.28,5,3.8,7.24,6.06,2.81,2.82,5.62,5.66,8.53,8.37,1.75,1.63-.17,2-.62,2.64-.64.92-1.58.53-2.24-.3-1.06-1.33-2.16-2.61-3.15-4-1.88-2.6-4-5-6.07-7.5-1.43-1.74-2.86-3.5-4.28-5.24a2,2,0,0,1,.17-.23m-.35,6.78a77.85,77.85,0,0,0,4.55,7.26,61,61,0,0,1,3.5,5.9c.26.43.62,1,0,1.35-.91.45-1.3,1.77-2.45,1.64-.6-.06-.87-.81-1-1.44-1.16-4.08-2.2-8.2-4.14-12a4,4,0,0,1-.43-2.71m.77,8.18c.81,2.66,1.62,5.32,2.39,8a2.28,2.28,0,0,1-1.69,2.31c-.48,0-.6-.33-.63-.64-.38-3.59-.72-7.17-1.08-10.8.75.13.87.67,1,1.14m-2.93,10.85c-.24-5.21-.47-10.17-.7-15.14,1.84,3.75,2.33,13.68.7,15.14M334,452.08c.88-.93,1.32-.13,1.7.46,1.5,2.34,3.6,4.19,5.28,6.38a52.87,52.87,0,0,0,4,4.38c.47.48.75.9.22,1.43s-.61,1.34-1.64,1.73c-.85-1-1.82-1.93-2.63-3a19.25,19.25,0,0,0-2.87-3.05c-1.84-1.62-3.22-3.7-5-5.4-1.2-1.13.23-2.07,1-2.91m10.38,167a71.82,71.82,0,0,0-7.49.24c-6.56.86-13.17.61-19.74,1.25-2,.2-3.94.51-5.92.74-.32,0-.8,0-1-.15-.28-.35.07-.75.26-1.08,2.07-3.57,4.23-7.09,6.21-10.71,2.16-4,4.7-7.68,7.11-11.47,2.54-4,5.55-7.7,8.08-11.72.48-.77,1.51-1,1.78-2a.45.45,0,0,1,.42-.16c3.16,1.23,6.38.76,9.59.3,1.22-.17,2,.07,1.69,1.61a30.88,30.88,0,0,0-.26,3.73H345c.1,5.06.13,10.13.32,15.19.16,4.31.39,8.63.31,13,0,1-.44,1.28-1.31,1.29m8-90.67c-.52,5.25-2,10.34-2,15.7,0,2.81-.84,5.68-1.18,8.55-.46,3.86-1,7.76-1.68,11.53-1.1,5.65-.73,11.46-2.34,17-.31,1.06-.68,1.72-1.95,1.6s-2.61-.06-3.92-.08v-.07c-1.54,0-3.33.44-4.54-.2s-.89-2.75-1.11-4.16c-.81-5.34-2-10.61-3-15.91-1.1-5.85-1.75-11.8-3.41-17.57-.82-2.81-1-5.82-1.49-8.73a64.36,64.36,0,0,0-1.34-6.49c-.4-1.41,0-1.8,1.32-2,4.3-.59,8.62-.41,12.93-.55,4.16-.14,8.32,0,12.47-.16,1.33,0,1.38.32,1.26,1.53m2.81-25.44c2.65.08,2.7,0,2.86,2.57.31,5.11.57,10.22.84,15.33h-.05c0,.68,0,1.36,0,2-.11,2.42-.12,2.52-2.48,2.4-6-.29-11.93,0-17.88.16-4.69.16-9.42-.23-14.09.53-1.39.22-2.77.55-4.19.66-1.06.09-1.39-.3-1.43-1.3-.15-3.69-.4-7.37-.54-11.05a57.17,57.17,0,0,0-1-8.76c-.58-2.89-.26-3.23,2.61-2.94,3.25.33,3.3.33,3.93,3.59a7.24,7.24,0,0,0,1.26,2.38,19.51,19.51,0,0,0,10.82,8.87,14.1,14.1,0,0,0,13.37-2.37c2-1.54,2.36-4.08,3-6.38a42.23,42.23,0,0,0,.95-4.15c.21-1.25.78-1.63,2.07-1.59m-9.39-28.23c2.55,2.25,4.51,5,7,7.29a1.73,1.73,0,0,1,.43,1.58c-.27,3.52-.23,7-.56,10.57-.4,4.19-1,8.34-1.51,12.52a13.2,13.2,0,0,1-3.86,8c-1.17,1.17-2.87,1.06-4.32,1.3a13.6,13.6,0,0,1-12.08-3.5,23.82,23.82,0,0,1-5.3-7.13,17,17,0,0,1-1.52-5q-1.51-9.57-2.36-19.23c-1-11.39-1.15-22.8-1.67-34.2a2.72,2.72,0,0,1,.17-.63c3.54,3.87,7,7.57,10.35,11.31,2,2.17,3.7,4.61,5.81,6.58,3.48,3.28,5.9,7.46,9.44,10.6m76.24,126.92c2.68,3.78,5.53,7.42,7.85,11.45.94,1.64,2.36,3,3.21,4.95-4.83.22-9.52.08-14.21.12-7.22.07-14.44-.44-21.65.18-.34,0-.69,0-1,.06-1.53.27-1.94-.39-1.92-1.87.16-8.07.39-16.14.85-24.2a38.48,38.48,0,0,0,0-7.12c-.26-1.94.55-2.67,2.41-2.92,2.64-.36,5.34-.19,7.95-.85,1.67-.42,2.68.51,3.53,1.72,4.33,6.16,8.61,12.35,13,18.48m-5.95-74.73a45.41,45.41,0,0,1-.91,5.38c-1.41,4.53-1.86,9.23-2.7,13.86-.72,4-1.83,8-2.45,12-.75,4.83-1.41,9.67-2.45,14.45a27.72,27.72,0,0,0-1,5.52c0,1.1-.76,1.61-1.9,1.77-2.59.36-5.24.13-7.79.78-.52.14-.72,0-.81-.53-.85-4.52-2-9-2.55-13.57a89.23,89.23,0,0,0-1.87-9.7c-.88-4-1.28-8-2-11.94q-1.32-7.29-2.61-14.59c-.64-3.58-.64-3.7,2.84-4,5.72-.46,11.45-1,17.21-.9,2.56,0,5.12.14,7.68.1,1.07,0,1.46.25,1.26,1.34m2.35-26.09c3.53,0,3.66,0,3.7,3.52.07,6,0,12.08,0,18.11,0,1-.28,1.39-1.44,1.53-4.37.53-8.74.17-13.11.18-3.07,0-6.17.11-9.22-.2-4.84-.48-9.57.48-14.35.7-1.88.09-2.06-.24-2.24-2.09-.56-5.88,0-11.82-.94-17.68-.11-.72-.41-1.58.79-1.63s2.7-1.54,3.57.4a22.31,22.31,0,0,0,5.38,7.48,12.3,12.3,0,0,0,4.57,2.55c3.16,1,6.39,2.21,9.83,1.65a17.13,17.13,0,0,0,5.2-1.89c4.45-2.34,5.25-6.64,6.1-10.9.27-1.36.81-1.73,2.12-1.73m-14.13-45.14a104.87,104.87,0,0,0,6.38-9.15c1.31-2.32,3.51-3.95,4.45-6.47.08-.22.18-.45.46-.41a.63.63,0,0,1,.49.62c.11,1,.21,1.93.27,2.89q.57,9,1.11,18c0,.74,0,1.48,0,2.22-.9,10.44-.77,21-2.19,31.38-.47,3.5-.74,7-1.16,10.56-.47,4-4.61,7.85-9.05,8.06a23.37,23.37,0,0,1-8.41-1.07,15.48,15.48,0,0,1-8.16-6.38c-3-4.58-3.39-9.73-3.57-15a44.78,44.78,0,0,1,.78-9.29c.27-1.59,1.82-3,3-4.39a61.39,61.39,0,0,0,4.41-5.79c1.5-2.32,3-4.6,4.74-6.77,2.3-2.89,4.37-6,6.52-9m-4.49-4.53c1.4,1.3,1.36,1.82.27,3.34-2.31,3.21-4.5,6.49-6.74,9.75-.45.64-.76,1.46-1.58,1.31s-1.51,0-1.56-.74-.82-1.23-.18-2.17q3.93-5.79,8.16-11.36c.57-.76,1-.71,1.63-.13m.2-67.6c1-.14,1.52,0,1.78,1.16.59,2.61.05,5.21.23,7.72-.47,8.29.48,16.46.51,24.65,0,6.09,0,12.18.15,18.27a7.44,7.44,0,0,1-1.84,4.78c-4.26,5.39-8.12,11.07-12.14,16.63-1.64,2.27-2.8,4.91-5,6.8-.42.36-.47,1.13-.81,1.64-.86,1.29-2.05,1.28-3.55,1.37-2.36.13-4.75.54-7.12.64-4.88.2-9.76.34-14.61,1a2.49,2.49,0,0,1-2-.74,69.12,69.12,0,0,1-8.94-9.48c-2.59-3.1-5-6.37-7.81-9.27-1.56-1.62-3.18-3.24-4.72-4.87-1.3-1.38-2.17-3.26-3.43-4.75-2-2.37-1.83-5.18-2-8-.49-8.51-1.1-17-1.57-25.54-.18-3.23.06-6.52-.74-9.67-.64-2.47,0-5-.64-7.41-.22-.85.13-1.14,1-1.27,3.79-.54,7.62-.1,11.42-.6,7.55-1,15.17-1.15,22.76-1.64,8.28-.54,16.59-.56,24.89-.84,4.7-.16,9.43.1,14.11-.57m-49.7-21.95c.45,0,.91.06,1,.07,3.2.13,3.19.13,3.4,3,.38,5.05.75,10.1,1.17,15.14.09,1.1-.12,1.57-1.36,1.46a14.52,14.52,0,0,0-3.22.19c-1.39.21-1.79-.41-1.83-1.69-.13-4.21-.33-8.42-.48-12.63a21.28,21.28,0,0,0-.37-3.56c-.39-1.89-.21-2.09,1.72-2M376,362.94c.34,1.16-.54,1.06-1.31,1a88.89,88.89,0,0,1-14.4-1,14.15,14.15,0,0,1-4-1.32c1.95-.7,3.62-.37,5.22-.43s3.5-.64,5,.68c.22.19.67.16.75-.13.34-1.28,1.46-.89,2.24-1a38.55,38.55,0,0,1,5-.47c2-.06,1.14,1.65,1.41,2.6m-18.57,15.35h0a12.37,12.37,0,0,0,0-1.36c-.13-1.08.45-1.06,1.24-.92a68,68,0,0,0,10.66,1.33c2.17.06,4.34.66,6.56.37.84-.11,1,.44,1,1.18s-.17,1.29-1,1.19c-2.73-.33-5.39.54-8.1.48-3-.08-5.87.44-8.85.29-1.34-.07-1.5-.29-1.44-1.36,0-.4,0-.8,0-1.2m15.77-3.76c.37.73-.45,1-.9,1.08s-.93-.17-1-.54c-.31-1.64-1.58-2.86-1.88-4.5-.11-.61-.16-1.19.51-1.43.94-.34,1.76-1.13,2.88-.86.25.06.27.3.2.55-.52,1.91-.82,3.78.18,5.7m-3.07.59c-.35.62-1.08.51-1.7.47a37.29,37.29,0,0,1-8.73-1.1c1.59-2.05,3.83-2.68,5.9-3.49.92-.37,1.76-1.6,2.74-1s.26,1.88.76,2.78c.19.32.12.75.39,1.1s.95.7.64,1.26m-.58-7.5c-.3.15-.71.35-.92,0-.85-1.47-1.11-.63-1.38.32s-1.15.84-1.75,1.15c-2.58,1.37-5.23,2.61-8,4-.3-2.95-.62-5.7-.84-8.46-.11-1.34.93-.92,1.53-.72a39.28,39.28,0,0,0,6,1.23,58.58,58.58,0,0,0,8.37.59c0,.14,0,.28,0,.42-1,.5-2,1-3,1.51m5.29,8.05c-.42-.08-.73-.17-.77-.7-.14-1.92-.26-3.85-.5-5.76-.17-1.31.57-1.8,1.57-2.26.85-.39,1.11-.2,1.13.71.06,1.92.2,3.85.3,5.77.24,2.32,0,2.59-1.73,2.24m9.54,2.78c.19,1,0,1.7-1.28,1.48a8.94,8.94,0,0,0-1.86.05c-2.43.14-2.58,0-2.89-2.33-.72-5.36-.52-10.77-1.09-16.14-.11-1,.32-1.35,1.21-1.43l4.23-.42c1.15-.13,1.14.71,1.14,1.44,0,2.38-.06,4.77-.1,7.16.15,3.4,0,6.82.64,10.19m-10.63-26.58c-5.63.22-11.26.43-16.9.52-4.73.07-9.4.78-14.09,1.16-4.93.4-9.88.17-14.8.7-7.17.78-14.42.6-21.55,1.77-1.53.24-3-.28-4.54.08-.72.17-.79-.55-.8-1,0-1.25,0-2.51,0-3.76h.12c-.4-5.45-.85-10.89-1.18-16.34-.36-6-.67-11.93-.88-17.91-.24-7-1-14-1.2-20.95-.2-6.43-.94-12.82-1-19.27a241.17,241.17,0,0,0-1.17-24.18c-.14-1.35.22-1.92,1.61-2.16a53.36,53.36,0,0,1,8.18-.39A165,165,0,0,0,322,248.77c3.19-.37,6.51.36,9.68-.06,6.63-.89,13.28-.57,19.92-1,5.62-.33,11.24-.71,16.89-.57,8.77.21,17.5-.57,26.24-1,3.23-.16,6.49,0,9.72-.12,5.41-.23,10.83.41,16.2.15s10.44,0,15.65-.24c1.58-.07,2.41.34,2.28,2.17-.32,4.7-.6,9.41-.71,14.12-.2,8.42-.26,16.86-.38,25.29,0,1.36-.05,2.72-.1,4.08-.18,4.44.29,8.87.19,13.28-.12,4.76-.1,9.54-.44,14.31-.4,5.49-.52,11-.51,16.51,0,2.78-.85,5.4-.95,8.13a15.44,15.44,0,0,0-.12,1.68c.09,2.14-.56,3-2.59,3.57a12.08,12.08,0,0,1-3.22.34q-9.64.21-19.26.8c-5.15.31-10.33.41-15.48.77-7.1.5-14.2.61-21.3.88" transform="translate(-286.67 -215.95)"/><path class="cls-2" d="M294.66,456.38c-.77,1.35-.23,2.55-.38,3.64a6.3,6.3,0,0,0,.38-3.64" transform="translate(-286.67 -215.95)"/><path class="cls-2" d="M313.58,262.37c-.29-2-.38-2.22-2.46-2.36a33.69,33.69,0,0,0-5.41.49c-3.28.3-3.33.3-3.46,4.4.22,2.79.53,6.53.81,10.26.18,2.21.2,2.26,2.4,2.16,2.38-.12,4.75-.27,7.12-.6,2.12-.29,2.29-.49,2.09-2.67-.35-3.89-.54-7.8-1.09-11.68m-2.39,12.36c-1.81.13-3.62.35-5.42.57-.9.12-1.22-.27-1.27-1.12-.23-3.64-.4-7.28-.43-10.92,0-.94.44-1.22,1.23-1.23,1,0,2,0,3.07.05,3.3-.1,3.35-.1,3.66,3.11.24,2.6.35,5.22.51,7.83.06,1-.19,1.62-1.35,1.71" transform="translate(-286.67 -215.95)"/><path class="cls-2" d="M419.43,343.7a4.24,4.24,0,0,0,3.75-4.16c.35-2.38-1.37-3.8-2.09-5.6a.84.84,0,0,0-.53-.35c-2-.39-4-.35-5.56,1.21a5.45,5.45,0,0,0-1.21,5.42c.51,2.14,3.24,3.74,5.64,3.48m-.54-8.64c.85,0,2.64,2.67,2.6,3.82-.07,1.88-1,2.71-2.88,2.66-2.39-.07-3.28-.75-3.24-2.48s2.05-4.07,3.52-4" transform="translate(-286.67 -215.95)"/><path class="cls-2" d="M380.32,399.33c-6.54-.5-13.07.13-19.6.11A117.58,117.58,0,0,0,345,400.51a3.75,3.75,0,0,0-2.69,3.09c.19,4.88.38,9.77.65,14.65.24,4.31.73,8.62.82,12.93,0,1.74.67,2.36,2.16,2.45a12.66,12.66,0,0,0,2.38-.11c1.69-.21,3.36-.6,5.05-.72,7.15-.53,14.31-1,21.47-1.47,4.09-.26,8.15-.93,12.26-.89,1.06,0,1.73-.32,1.61-1.76a142.69,142.69,0,0,1-.4-16.45,82.16,82.16,0,0,0-.43-11.36c-.16-1.64-.95-2.27-2.6-1.92a17.31,17.31,0,0,1-4.91.38m5.5,2.51c1.19,8.48.77,17,1.35,25.54.07,1-.14,1.34-1.18,1.58a47.13,47.13,0,0,1-6.89.67c-5.5.38-11,.43-16.52.72-5.21.28-10.43.42-15.6,1.14-1.43.19-2.05-.12-2.08-1.74-.1-7.44-.35-14.88-.5-22.32,0-1.39-.57-2.81.36-4.16.31-.45.47-.74,1.1-.78,8.61-.56,17.17-1.83,25.49-1.62,4-.51,7.73,0,11.42-.14a5.86,5.86,0,0,0,1.52-.13c1.22-.39,1.38.16,1.53,1.24" transform="translate(-286.67 -215.95)"/><path class="cls-2" d="M393.55,391.47c1.42.55,2.85,1.24,4.42.52.76-.35,1.84-.42,2.1-1.3s.86-2.33-.4-3.11-2.82-1.85-4.31-1.14c-1.28.62-2.69,1.65-2.38,3.27-.12.9,0,1.54.57,1.76m3.14-3.55c.86,0,1.95.05,1.88,1.16A2.21,2.21,0,0,1,396.3,391a1,1,0,0,1-1.25-1.23c.1-.93.22-2,1.64-1.85" transform="translate(-286.67 -215.95)"/><path class="cls-2" d="M331.41,389.65a3.93,3.93,0,0,0-3.59,3.86c-.05,1.23,1.41,2.49,2.89,2.5,2.3,0,4.54-1.57,4.57-3.22,0-1.47-2-3.15-3.87-3.14m-.56,4.82c-.54-.07-1.47,0-1.35-1.2s.75-2.23,2.07-2.25a1.69,1.69,0,0,1,1.9,1.7c-.05,1.47-1.11,1.82-2.62,1.75" transform="translate(-286.67 -215.95)"/><path class="cls-2" d="M400.65,588.52c-.33-.53-.54-1.69-1.56-.91a1.45,1.45,0,0,0-.06,2.26,10.27,10.27,0,0,1,1.13,1.24c2.74,4.36,5.63,8.64,8.17,13.12,1.78,3.16,4,6,5.85,9.11a3.41,3.41,0,0,0,1.12,1c.3.18.67.1.75-.45a6.57,6.57,0,0,1-.51-.61,42,42,0,0,1-2.83-4.59c-1.4-3-3.28-5.78-4.88-8.68-2.19-3.95-4.74-7.69-7.18-11.5" transform="translate(-286.67 -215.95)"/><path class="cls-2" d="M341.71,588.28c-.59-.23-1,.21-1.17.7-1,2.3-1.92,4.58-2.75,6.94-1.57,4.48-3.49,8.83-5.26,13.24-.74,1.84-1.5,3.67-2.22,5.52-.24.6-.67,1.42.28,1.69s1.08-.59,1.28-1.25c.16-.48.31-1,.48-1.45,1.33-3.79,2.88-7.48,4.57-11.12,1.14-2.45,1.8-5.07,2.93-7.54.83-1.81,2.09-3.52,2.28-5.59a.79.79,0,0,0-.42-1.14" transform="translate(-286.67 -215.95)"/></svg>