<svg id="Layer_1" data-name="Layer 1" xmlns="http://www.w3.org/2000/svg" viewBox="0 0 368.04 314.23"><defs><style>.cls-1{fill:#fff;}.cls-2{fill:#010101;}</style></defs><path class="cls-1" d="M194.1,352c.09,5.33.22,10.66.23,16,0,9.07,1,18.1,1.46,27.15a11.62,11.62,0,0,0,6.63,9.86c4,2.09,7.72,4.56,11.93,6.28a131.59,131.59,0,0,0,13.53,4.63c6.47,1.86,13.11,2.76,19.71,4,5.66,1,11.34,2.27,17,2.5,14.34.57,28.67.2,42.66-3.51,7.3-1.94,14.85-3.05,21.76-6.35.39-.18.85-.51,1.13,0a1.38,1.38,0,0,1-.35,1.63c-2.1,2.09-4,4.62-6.84,5.6-5.32,1.85-9.87,5.23-15.2,7.09a157.1,157.1,0,0,1-15.63,4.9c-9.08,2.13-18.15,4.33-27.53,5a132.17,132.17,0,0,1-23.37-.34c-3.92-.4-7.8-1.22-11.7-1.6-8-.78-15.3-3.81-22.5-7.12-1.37-.64-2.47-1.79-4-2.13-1.41-.31-2.44-2.66-4-1.41-1.2,1-.81,3-1,4.59-1.11,10.3-.36,20.57.68,30.83a36.64,36.64,0,0,0,5.85,15.64c2.84,4.51,6.87,8.3,10.9,11.84a81,81,0,0,0,18.42,12.27,36.19,36.19,0,0,1,6.34,3.32c1.72,1.28,4.65.08,5.93,2.63.08.17.55.13.82.23a100,100,0,0,0,12.17,3.35c6.1,1.41,12.09,3.36,18.37,3.93,2.9.26,5.86,1.4,8.67.66a19.43,19.43,0,0,1,7.73-.31c.79.11,1.56.33,2.35.37,12.81.68,25.34-2.18,38-3a97.43,97.43,0,0,0,12.49-2.08c6.38-1.29,12.3-4,18.6-5.6a30.32,30.32,0,0,0,7.49-3,29.17,29.17,0,0,1,6.85-3.24c4.72-1.29,9.05-3.92,13.25-6.54q5.93-3.7,11.5-8a33.37,33.37,0,0,0,7.15-7.5c2.14-3.07,3.14-6.82,3.8-10.57.7-4,.76-8.13,1.59-12.16a93.8,93.8,0,0,0,1.69-11.91c.81-10.93,1.4-21.87,2.08-32.8.52-8.51,1.29-17,1.52-25.55.38-13.93,1.7-27.84,1.38-41.8-.15-6.6.27-13.26-2.32-19.61-1.11-2.74-1.37-5.93-3.62-8.07a19.8,19.8,0,0,1-3.69-4.73,1.93,1.93,0,0,0-.75-.75c-3.09-1.61-5.76-3.85-8.8-5.6A138.38,138.38,0,0,0,384,291.08c-7.24-2.7-14.77-4-22.31-5.37-1.84-.33-2.69.21-2.47,2.3a129.44,129.44,0,0,1,.35,15.76c0,.69.6,1.85-.7,1.89-1.13,0-1.5-.83-1.5-2,0-4-.09-8-.09-12,0-5.77.18-11.54,0-17.31-.14-5.31-.66-10.61-.91-15.92-.29-6.27-2.13-11.86-6.74-16.33-4.46-4.33-9.81-7.08-15.62-9.18a145.64,145.64,0,0,0-16.38-4.43c-3.66-.86-7.33-.69-11.06-.62a120.5,120.5,0,0,0-23.88,2.68c-6.88,1.53-13.26,4.29-19.66,7.17a29.68,29.68,0,0,0-10.24,7.78c-2.08,2.37-4.35,4.79-5.47,8-.83,2.31-2.87,4.11-3.42,6.52a40.21,40.21,0,0,0-1.24,10,19.25,19.25,0,0,0,3.8,11.62,36.59,36.59,0,0,0,6,5.92c3,2.47,5.91,4.93,9.8,6.14,4.52,1.41,9.07,3,13.7,3.41,10.39,1,20.84,1.15,31.21-.69A43.49,43.49,0,0,0,315,294.7c.13.87-.33,1.11-.78,1.37a16.91,16.91,0,0,1-6,2c-12.4,2.09-24.76,2.61-37.19,0-4.22-.89-8.47-1.45-12.19-3.8a7.58,7.58,0,0,0-6.83-.74c-2,.67-2.52,2.5-2.84,4-.23,1.13,1.45,1.74,2.59,2.2a2.26,2.26,0,0,0,.63.17c3.52.34,5.59,3.83,9.1,4.19a.8.8,0,0,1,.5.41c.69,1.38,2,1.58,3.32,1.72,5.23.54,10.46,1.42,15.7,1.55,11.28.29,22.49-.15,32.24-7.08.54-.38,1.1-1.83,1.94-.32.61,1.11-.43,1.52-1.08,2a31.58,31.58,0,0,1-8.76,4.72c-4,1.28-7.87,2.65-12.09,2.88-7.23.41-14.49.72-21.6-.71-4-.8-8.17-.71-12-2.11-3.61-1.32-7.15-2.83-10.67-4.36-1.34-.58-2.08-.59-2.08,1.11s0,3.2,0,4.8a7.87,7.87,0,0,0,1.44,4.74c3.16,4.37,7.59,7.11,12.26,9.52,5.09,2.62,10.62,3.9,16.14,5.23,4.08,1,8.05,2.45,12.32,2.65a144.83,144.83,0,0,0,19.43-.39c11.23-1,22.3-2.86,32.68-7.44,4.2-1.85,8.73-3.31,11.94-6.93.42-.47,1.18-.56,1.18,0,0,.88,1.42,1.81,0,2.66a91.29,91.29,0,0,1-16,8,159.3,159.3,0,0,1-22.34,6.06,56.07,56.07,0,0,1-15,1.12c-4.8-.33-9.57-.84-14.34-1.43-6.08-.76-12-2.46-18-3.34-4.94-.71-9.53-2.91-14.32-4.29-4-1.15-6.56-4.3-8-8.37a34.45,34.45,0,0,1-1.49-13c.07-1.88-1.63-3.87.72-6,1.4-1.28,2.05-3.7,4.13-4.81l-.36-.6c-1.13.18-2.25.36-3.38.57-2.27.4-3.91,2.24-6.18,2.67a64.62,64.62,0,0,0-20.7,7.89,116.8,116.8,0,0,0-13.85,9.68,31.73,31.73,0,0,0-8.47,10.35,31,31,0,0,0-3.47,22.24,50.48,50.48,0,0,1,.94,6.49M411,451.49c.15,4.05-2.89,8.73-6.19,10.1-.87.37-1.67.88-2.51,1.3-3.54,1.79-6.83.2-10-1-1.11-.41-.84-2.2-1.25-3.34-.25-.69.84-2-.93-2.09-.3,0-.06-.32,0-.48,2.5-3.89,5.45-7.34,9.55-9.59,3.34-1.82,6.54-.5,9.58.94,1.86.88,1.76,2.86,1.75,4.14m-1.27-34.77c.24,5-3.34,7.26-7.08,9.25a5.74,5.74,0,0,1-3.13.9c-4.23,0-8.64-3.34-9-6.44-.25-1.95,1.16-3,1.87-4.46,1.63-3.37,4.66-5.23,7.86-6.47a7.38,7.38,0,0,1,8.29,1.85c1.33,1.42,1.14,3.52,1.22,5.37m.18-37.41c-.38,3.41-1.57,6.44-5.22,8-2.56,1.07-4.95,2.51-8.19,2.6a13.32,13.32,0,0,1-7-2.41c-1.68-1.26-1.58-3.24-1-4.83a12.85,12.85,0,0,1,6.34-7.19c2.31-1.16,4.28-2.84,7-3.25,4.72-.7,8.52,2.36,8,7.11M334.4,304.73c-4,.12-5.2-2.11-5.79-5.94-.74-4.76.43-9.06,4.76-12a4,4,0,0,1,5.22,1.2,14.55,14.55,0,0,1,2.92,7.83c0,4.36-2.63,8.75-7.11,8.89m-3.59-31.42c-4.59,2.11-9.54,2-14.34,2.84-2,.34-4.05.42-6.08.62-6.68,1.1-13.39.36-20.1.35a85.24,85.24,0,0,1-24.13-3.29,70.12,70.12,0,0,1-15.83-7,2.54,2.54,0,0,1-1.22-1.2,1.19,1.19,0,0,1,.26-1.41,1,1,0,0,1,1.39-.15q.72.51,1.38,1.08c5.64,4.87,12.66,6.6,19.59,8.3,8.45,2.06,17.12,2.31,25.8,2.52a102.91,102.91,0,0,0,33.79-4.89c5.41-1.62,10.06-4.43,14.91-7,1.73-.92,2.62-2.74,4.21-3.78.38-.25.56-1.11,1.17-.62s.1,1.08-.24,1.53a30.2,30.2,0,0,1-10.58,8.3c-3.17,1.6-6.74,2.38-10,3.86m21.23,28c-3.23,1.7-5.25.82-6.71-2.58-1.93-4.5-.42-8.43,1.64-12.28.79-1.49,4-.58,5,1.5a30.55,30.55,0,0,1,2.39,8.34c.14,2.13-.26,3.91-2.36,5M201.13,341.17c.9-1.1,1.24-.12,1.8.42,4.79,4.53,10.54,7,16.95,8.48,4.82,1.09,9.55,2.7,14.42,3.62,5.21,1,10.51,1.5,15.7,2.67,11.4,2.55,23,2.19,34.55,2.18a189,189,0,0,0,27.27-1.93c5.26-.78,10.57-1.2,15.87-1.75,5.8-.61,11.46-2,17.17-3.13,1-.2,2-.27,3-.45s2.11,0,2.56-1.25a.89.89,0,0,1,.69-.42c6.13,0,11.89-1.79,17.76-3.23,5.23-1.28,10.37-2.89,15.64-4.06,5-1.11,9.79-3.35,14.72-4.93a61.75,61.75,0,0,0,12.5-5.73c1.1-.65,2.36-.6,3.64-1.13,0,1.33-.88,1.57-1.57,2-3.49,2-7.18,3.49-10.82,5.14-9.68,4.38-19.86,7.19-30.05,9.74s-20.29,5.41-30.68,7c-16.59,2.56-33.18,5.29-50,6.08A225,225,0,0,1,265,360a178.53,178.53,0,0,1-19.75-2.17c-6.66-1.26-13.23-2.88-19.92-4A91.74,91.74,0,0,1,213,350.44c-4.49-1.42-8-4.29-11.53-7.08-.88-.7-1-1.32-.33-2.19" transform="translate(-136.35 -222.13)"/><path class="cls-1" d="M403,411.5c-2-.26-3.89.83-5.76,2-2.59,1.63-3.82,5.41-2.56,7.85,1,2,6.21,3.52,8.34,2.34,3.05-1.68,5-4.11,5.06-7.8,0-3.52-1.27-4.77-5.08-4.4" transform="translate(-136.35 -222.13)"/><path class="cls-1" d="M347.69,516.87c-1.36,0-2.6,2-2.46,4a2.85,2.85,0,0,0,3.27,2.94c2-.11,2.5-1.42,2.4-3.15s-1.81-3.85-3.21-3.84" transform="translate(-136.35 -222.13)"/><path class="cls-1" d="M364,509c0-.51-.05-1-.07-1.53-.1-2.77-.12-2.81-2.58-1.65a35.55,35.55,0,0,1-11,3.4c-4.66.55-9.1,2-13.73,2.62-1.4.18-2.1,1-1.71,2.44.66,2.44,1,4.93,2.19,7.26a52.86,52.86,0,0,1,2.61,4.72c1.24,3.09,6.43,5.77,9.55,4.91,1-.28,1.64-1.35,2.88-1.3,2.23.09,3.88-1.19,5.26-2.72C362,521.94,364.56,516,364,509m-11.6,14.53c-.64,1.52-2.21,1.72-3.49,1.79-4.57,0-5.73-1.52-5.13-6.11.07-.49.7-1,.28-1.42-1.67-1.73.29-2,1.06-2.27,2.79-1,4.9.34,6.78,2.3,1.73,1.81,1.32,3.8.5,5.71" transform="translate(-136.35 -222.13)"/><path class="cls-1" d="M402.31,447.34c-1.52.3-2,1.86-3.24,2.45-2.26,1-3.75,3-5.07,5-1.83,2.79-1.21,4.79,1.74,6.44a5.4,5.4,0,0,0,3,.61,8.55,8.55,0,0,0,3.56-.64,15.66,15.66,0,0,0,5.84-5.49,5.76,5.76,0,0,0,.47-6.22c-1-1.61-4.32-2.57-6.32-2.17" transform="translate(-136.35 -222.13)"/><path class="cls-1" d="M334.56,288.49a10,10,0,0,0-4.41,10.66c.89,3.7,4,4.8,7,2.36a5.71,5.71,0,0,0,2.39-5.37c-.29-2.7-.74-5.35-3-7.27-.58-.5-1.15-.86-1.95-.38" transform="translate(-136.35 -222.13)"/><path class="cls-1" d="M402.17,374.49c-2,.43-3.66,1.64-5.47,2.35a10.25,10.25,0,0,0-5.54,5.2c-1.33,2.57-.37,4.46,2.31,5.45,3,1.11,5.84.06,8.54-.79,4-1.26,5.93-4.2,5.83-7.8-.13-4.28-1.54-5.3-5.67-4.41" transform="translate(-136.35 -222.13)"/><path class="cls-1" d="M350.7,290.31c-.1-.85-.53-1.75-1.27-1.86s-1.39.67-1.67,1.46a7.38,7.38,0,0,0,.29,6.51c.6,1,1.49,2.79,2.27,2.51,1.37-.49,1-2.3,1-3.19-.25-2.12-.44-3.77-.63-5.43" transform="translate(-136.35 -222.13)"/><path class="cls-1" d="M481.32,425.44c1.2.16,4.78-1.78,5.18-2.74a1,1,0,0,0,0-.81c-.73-1.12-.78-2.5-1.33-3.64-.84-1.72-1.88-3.4-3.95-4-.09.27-.19.41-.17.53.1.94,1.4,2.18-.36,2.7s-.9-1.39-1.54-2c-.46-.41.05-1.56-.9-1.46-.77.08-1.08.91-1.21,1.65a11.73,11.73,0,0,0,.45,6.67,4.82,4.82,0,0,0,3.86,3.1" transform="translate(-136.35 -222.13)"/><path class="cls-1" d="M199.83,421a65.55,65.55,0,0,0,16.76,8.76A115.68,115.68,0,0,0,241,434.52c14.87,1.5,29.44,0,44-2.56a43.21,43.21,0,0,0,6.27-1.71c4.06-1.36,8.13-2.78,12.25-3.89a34.1,34.1,0,0,0,7.16-2.58c2.7-1.44,5.46-2.69,8.25-3.92a23.08,23.08,0,0,0,5.79-3.21,5.34,5.34,0,0,0-3.72.41c-10.72,4.19-22.07,5.45-33.33,6.92-11.43,1.49-22.9.29-34.28-.93a177.27,177.27,0,0,1-22.52-4.27c-7.18-1.73-14.3-3.81-20.94-7.24-1.45-.75-3.26-1.64-4.83.08a36.64,36.64,0,0,0-5.51,7.3c-.4.73-.68,1.4.28,2.06" transform="translate(-136.35 -222.13)"/><path class="cls-1" d="M272.2,518c-1.4.12-3.29,2.67-3.15,4.22A3.45,3.45,0,0,0,273,525.4c2.22-.1,2.64-.61,2.5-3-.14-2.68-1.52-4.5-3.27-4.33" transform="translate(-136.35 -222.13)"/><path class="cls-1" d="M255.13,511.54c0-.93,0-1.73-1.26-1.89a33,33,0,0,1-6.28-1.85c-.53-.18-1.12-.58-1.64-.09s-.22,1.11,0,1.66c1.13,3.57,1.78,7.28,3.59,10.65,2.45,4.57,6.29,7.29,11.14,8.89-.56-.9-1.2-1.76-1.67-2.7-2.29-4.62-4-9.41-3.83-14.67" transform="translate(-136.35 -222.13)"/><path class="cls-1" d="M283.78,515.36a21.13,21.13,0,0,1-3.48-.19c-6.95-1.51-14.13-1.9-20.92-4.21-1.67-.56-2.17,0-2,1.78a39.25,39.25,0,0,0,2.93,11c2.14,5.25,5.33,7.66,10.56,7.39,3.9-.34,7-2.41,9.61-5a14,14,0,0,0,4.61-9.09c.12-1.59-.17-1.68-1.33-1.72m-10.64,12c-3.42.53-6.14-2.46-6.52-5.39-.25-1.93,2.33-5.47,4-5.61,3.69-.3,6.26,2,6.61,6,.27,3.17-1,4.53-4.1,5" transform="translate(-136.35 -222.13)"/><path class="cls-1" d="M373.21,501.23a11.36,11.36,0,0,1-4.61,1.92c-2.2.21-3,1.48-2.84,3.53a50.64,50.64,0,0,1-.87,10c-.43,3.22-1.25,6.32-4,8.67-1.18,1-1.48,3-3.11,4.15a2.05,2.05,0,0,0,.79,0c4.3-2.28,8.13-4.86,11.17-9,3.32-4.53,4.11-9.59,5.32-14.67a9.05,9.05,0,0,0,.26-3.45c-.22-1.56-.77-1.91-2.14-1.1" transform="translate(-136.35 -222.13)"/><path class="cls-1" d="M151.51,439.65c3.16-.27,4.91-1.75,4.65-4a3.77,3.77,0,0,0-1.19-2.52c-1.3-1.14-2.6.93-3.94-.05-.29-.22-2.66,3.14-2.61,3.72.18,2.13,1.16,3,3.09,2.87" transform="translate(-136.35 -222.13)"/><path class="cls-2" d="M138.73,446.65a1.83,1.83,0,0,0,2.16-1.14c.45-1.63,1.76-2.26,3-3,.75-.47,1.43-1.16,2.55-.38a2.42,2.42,0,0,1,1.13,2.37c-.15,4.76,0,9.51.2,14.26a2.36,2.36,0,0,0,2.74,2.43c1.66-.06,1.72-1.33,1.53-2.75a47.89,47.89,0,0,1-.23-12.88c.22-1.63.91-2.66,2.61-2.58a4.71,4.71,0,0,0,4.14-2.06,3,3,0,0,1,3.86-1c1.44.53,2.84,1.15,4.25,1.74,1,.43,2.07.51,2.73-.55s-.17-1.85-1-2.51c-1.33-1-3-1.07-4.5-1.54-1.35-.41-3-.48-3.42-2.29a7.79,7.79,0,0,0-4.14-5.12c-1.75-1-1.91-2.15-1.37-3.79a27.71,27.71,0,0,0,1.49-5c.73-5.8,3.56-10.9,5.62-16.2,1.84-4.74,4.49-9.25,6.92-13.79,3.44-6.41,7.38-12.47,11.32-18.52a68.21,68.21,0,0,1,8.17-10.19c.3-.3.4-.85.95-.69.73.2.42.82.41,1.29,0,2.11-.12,4.23-.09,6.35.12,7.89.69,15.75,1.23,23.62.46,6.72,2.47,12.51,8.06,16.62,1.25.92,1.29,1.53.14,2.64a19.4,19.4,0,0,0-5.22,8.88c-.74,2.64,0,5-.09,7.55-.15,6.79-1.07,13.56-.25,22.66.35,2.39.4,7.12,1.19,11.83.82,4.86,2.94,9.1,4.94,13.4,1.54,3.29,4.49,5.66,6.74,8.51.66.83,2,1,2.55,2,1.89,3.35,5.22,5.2,8.05,7.5s6.32,4,9.37,6.15c4.44,3.14,9.61,4.79,14.35,7.31,1.26.67,1.6,1,1.78,2.32.65,4.49,1.76,9.13,3.91,12.89,2.59,4.51,6.25,8.66,11.61,10.64,7.59,2.79,14.94,4.28,22.09-1.29,4-3.13,7-6.95,8-11.87.57-2.86.27-3.36,4-2.92,5.64.68,11.23.3,16.84.06a166.05,166.05,0,0,0,20.25-2.33c1-.16,1.89-.38,2.15,1a54.32,54.32,0,0,0,3.16,11c2.06,5.1,6.23,7,10.58,8.45,3.68,1.23,7.62.65,11.5-.72a38.62,38.62,0,0,0,14.31-8.57c6.61-6.32,8.17-14.33,9-22.75a2.64,2.64,0,0,1,1.35-2.49c4.44-2.41,9.18-4.19,13.45-7,4.8-3.13,9.62-6.16,14.14-9.71,7.32-5.74,10.4-13.6,11.66-22.4.59-4.1.68-8.28,1.29-12.37,1.07-7.09,1.58-14.24,2.16-21.36.82-10.05,1.34-20.13,1.76-30.2.39-9.28,1.69-18.5,1.4-27.81-.06-2.05.37-2.23,2.36-1.29a97.84,97.84,0,0,1,18.92,12,141.9,141.9,0,0,1,26.51,27.89,2.46,2.46,0,0,1,.05,3.44,12,12,0,0,0-1.38,11.58,6.6,6.6,0,0,1-.09,5c-1.28,3.25-3.35,6.17-4.07,9.66a3,3,0,0,1-1.08,1.6,2.31,2.31,0,0,0-1,2.67,1.42,1.42,0,0,0,1.46,1.08,2.4,2.4,0,0,0,2.54-1.35,33.66,33.66,0,0,0,2.83-6.59c.51-2.2,1.87-3.94,2.48-6,.3-1,1-.93,1.71-.52a4.79,4.79,0,0,0,3.83.26c1.4-.43,1.85-.12,2.14,1.39a43.91,43.91,0,0,0,3.48,10.12c.71,1.55,1.75,1.55,2.81.21.7-.87,1.08-2.07.5-2.86-1.9-2.54-1.69-5.7-2.83-8.43s1.11-4.8,1.71-7.17c.13-.52.8-.6,1.34-.38a20.61,20.61,0,0,1,2.63,1,71.34,71.34,0,0,0,7.07,3.49c1.09.46,2.5.69,3.12-.94.52-1.37-.24-3.51-1.36-3.64-4.34-.53-7.8-3.13-11.48-5.08a10.23,10.23,0,0,1-3.67-3.26,10.52,10.52,0,0,0-6.54-4.79,2.62,2.62,0,0,1-2-1.55c-1.26-3.58-4.16-6-6.38-8.79A118.71,118.71,0,0,0,460,385.31c-2.43-2.25-5-4.4-7.49-6.6a89.76,89.76,0,0,0-11.38-8.41,54.3,54.3,0,0,0-11.93-5.89,2.33,2.33,0,0,1-1.81-2.77,158.86,158.86,0,0,0,.66-19.5c-.3-7.37.28-14.78-1.87-22.07-2.19-7.46-5.78-13.75-12.09-18.35-1.22-.9-2.62-1.58-3.75-2.57-2.49-2.19-5.51-3.43-8.32-5.06-2.15-1.24-4.63-1.81-6.68-3-4.89-3-10.37-4.2-15.63-6.08-5.46-2-11.25-2.48-16.89-3.66-1.62-.34-1.88-1-1.57-2.36a18,18,0,0,0,.33-5.23c-.34-5.46-.8-10.92-.93-16.39-.11-4.64-1.61-8.81-3.46-13-1.53-3.43-4.29-5.82-6.73-8.47a19.65,19.65,0,0,0-5.12-4c-4.46-2.42-9.48-3.19-14.08-5.16a24.72,24.72,0,0,0-5.82-1.75q-9.6-1.54-19.28-2.57c-7-.74-13.87-.08-20.73.8-7,.9-13.62,3.54-20.24,5.95-3.14,1.15-5.8,3.31-9,4.43a2.12,2.12,0,0,0-.92.91c-2.55,4.08-6,7.41-8.8,11.35A62.22,62.22,0,0,0,240,257.46c-3,7.18-3.51,14.7-.49,22.15.72,1.79,1.24,3.71,3.14,4.8a8.81,8.81,0,0,1,2.18,2.09c.7.84,1.06,1.6-.61,1.86a25.81,25.81,0,0,0-5.29,1.34c-7.65,3-15.43,5.6-22.6,9.84-3.89,2.31-7.49,5-11.13,7.56A50.45,50.45,0,0,0,196,316a34.47,34.47,0,0,0-7.3,14.83c-1.37,6.16-1.94,12.59.61,18.77a10.81,10.81,0,0,1,.5,3.68c.09,1.69-.11,3.06-2.19,3.34-.77.1-1.18.81-1.62,1.39a31.28,31.28,0,0,1-2.66,3.45c-5.4,5.21-9,11.72-13,18-2.15,3.42-4,7.07-6.16,10.51-4.82,7.77-7.61,16.35-10.75,24.81a30.87,30.87,0,0,0-1.94,7.6c-.37,3.63-1.25,6.83-4.95,8.8-1.45.77-3.54,2-3.46,4.18.1,2.68-1.42,4.05-3.42,5.26-.86.52-1.64,1.2-2.46,1.8-.61.46-1.14.93-.78,1.82.46,1.11,1,2.22,2.27,2.46m338.28-31c.13-.74.44-1.57,1.21-1.65.95-.1.44,1.05.9,1.46.64.58-.18,2.48,1.54,2s.46-1.76.36-2.7c0-.12.08-.26.17-.53,2.07.63,3.11,2.31,3.95,4,.55,1.14.6,2.52,1.33,3.64a1,1,0,0,1,0,.81c-.4,1-4,2.9-5.18,2.74a4.82,4.82,0,0,1-3.86-3.1,11.73,11.73,0,0,1-.45-6.67m-277.46,3.25a36.64,36.64,0,0,1,5.51-7.3c1.57-1.72,3.38-.83,4.83-.08,6.64,3.43,13.76,5.51,20.94,7.24a177.27,177.27,0,0,0,22.52,4.27c11.37,1.22,22.85,2.42,34.28.93,11.26-1.47,22.61-2.73,33.33-6.92a5.34,5.34,0,0,1,3.72-.41,23.08,23.08,0,0,1-5.79,3.21c-2.79,1.23-5.55,2.48-8.25,3.92a34.1,34.1,0,0,1-7.16,2.58c-4.12,1.11-8.19,2.53-12.25,3.89A43.21,43.21,0,0,1,285,432c-14.56,2.53-29.13,4.06-44,2.56a115.68,115.68,0,0,1-24.37-4.78A65.55,65.55,0,0,1,199.83,421c-1-.66-.68-1.33-.28-2.06M249.49,520c-1.81-3.37-2.46-7.08-3.59-10.65-.17-.55-.45-1.19,0-1.66s1.11-.09,1.64.09a33,33,0,0,0,6.28,1.85c1.24.16,1.28,1,1.26,1.89-.15,5.26,1.54,10.05,3.83,14.67.47.94,1.11,1.8,1.67,2.7-4.85-1.6-8.69-4.32-11.14-8.89m35.62-2.94a14,14,0,0,1-4.61,9.09c-2.64,2.6-5.71,4.67-9.61,5-5.23.27-8.42-2.14-10.56-7.39a39.61,39.61,0,0,1-2.94-11c-.18-1.82.32-2.34,2-1.78,6.79,2.31,14,2.7,20.92,4.21a21.13,21.13,0,0,0,3.48.19c1.16,0,1.45.13,1.33,1.72m67,12.74c-1.24-.05-1.88,1-2.88,1.3-3.12.86-8.31-1.82-9.55-4.91a52.86,52.86,0,0,0-2.61-4.72c-1.23-2.33-1.53-4.82-2.19-7.26-.39-1.46.31-2.26,1.71-2.44,4.63-.59,9.07-2.07,13.73-2.62a35.55,35.55,0,0,0,11-3.4c2.46-1.16,2.48-1.12,2.58,1.64,0,.52.05,1,.07,1.54.61,7.07-2,13-6.6,18.15-1.38,1.53-3,2.81-5.26,2.72m23-24c-1.21,5.08-2,10.14-5.32,14.67-3,4.14-6.87,6.72-11.17,9a2.05,2.05,0,0,1-.79,0c1.63-1.17,1.93-3.12,3.11-4.15,2.72-2.35,3.54-5.45,4-8.67a50.64,50.64,0,0,0,.87-10c-.13-2.05.64-3.32,2.84-3.53a11.3,11.3,0,0,0,4.61-1.92c1.37-.81,1.92-.46,2.14,1.1a9.05,9.05,0,0,1-.26,3.45M193.62,330.36a36.59,36.59,0,0,1,3-7.08,31.73,31.73,0,0,1,8.47-10.35A116,116,0,0,1,219,303.25a64.62,64.62,0,0,1,20.7-7.89c2.27-.43,3.91-2.27,6.18-2.68,1.12-.2,2.25-.38,3.38-.56l.36.6c-2.08,1.11-2.73,3.53-4.13,4.81-2.35,2.12-.65,4.11-.72,6a34.45,34.45,0,0,0,1.49,13c1.43,4.07,4,7.22,8,8.37,4.79,1.38,9.38,3.58,14.32,4.29,6.06.88,11.94,2.58,18,3.34,4.77.59,9.55,1.1,14.34,1.43a56.07,56.07,0,0,0,15-1.12,158.93,158.93,0,0,0,22.34-6.06,91.29,91.29,0,0,0,16-8c1.43-.85,0-1.78,0-2.66,0-.55-.76-.46-1.18,0-3.21,3.62-7.75,5.08-11.94,6.93-10.38,4.58-21.45,6.44-32.68,7.44a144.83,144.83,0,0,1-19.43.39c-4.27-.2-8.24-1.67-12.33-2.65-5.51-1.33-11-2.61-16.13-5.23-4.67-2.41-9.1-5.15-12.26-9.52a7.87,7.87,0,0,1-1.44-4.74c0-1.6,0-3.2,0-4.8s.74-1.69,2.08-1.11c3.52,1.53,7.06,3,10.67,4.36,3.85,1.4,8,1.31,12,2.11,7.11,1.43,14.37,1.12,21.6.71,4.22-.23,8.13-1.6,12.09-2.88a31.58,31.58,0,0,0,8.76-4.72c.65-.48,1.69-.88,1.08-2-.84-1.51-1.4-.06-1.94.32-9.75,6.93-21,7.37-32.24,7.08-5.24-.13-10.47-1-15.7-1.55-1.33-.14-2.63-.34-3.33-1.72a.76.76,0,0,0-.49-.41c-3.51-.36-5.58-3.85-9.1-4.19a2.26,2.26,0,0,1-.63-.17c-1.14-.46-2.82-1.07-2.59-2.2.32-1.52.82-3.35,2.84-4a7.58,7.58,0,0,1,6.83.74c3.72,2.35,8,2.91,12.19,3.8,12.43,2.62,24.79,2.1,37.19,0a17.12,17.12,0,0,0,6-2c.45-.26.91-.5.78-1.37a43.49,43.49,0,0,1-7.77,1.63c-10.37,1.84-20.82,1.7-31.21.69-4.63-.45-9.18-2-13.7-3.41-3.89-1.21-6.79-3.67-9.8-6.14a36.59,36.59,0,0,1-6-5.92,19.25,19.25,0,0,1-3.8-11.62,40.21,40.21,0,0,1,1.24-10c.55-2.41,2.59-4.21,3.42-6.52,1.12-3.17,3.39-5.59,5.47-8A29.68,29.68,0,0,1,263,237.71c6.4-2.88,12.78-5.64,19.66-7.17a120.5,120.5,0,0,1,23.88-2.68c3.73-.07,7.39-.24,11.06.62A145.64,145.64,0,0,1,334,232.91c5.81,2.1,11.16,4.85,15.62,9.18,4.61,4.47,6.45,10.06,6.74,16.33.25,5.31.77,10.61.91,15.92.15,5.77,0,11.54,0,17.31,0,4,.1,8,.09,12,0,1.14.37,2,1.5,2,1.3,0,.69-1.2.7-1.89a129.44,129.44,0,0,0-.35-15.76c-.22-2.09.63-2.63,2.47-2.3,7.54,1.33,15.07,2.67,22.31,5.37A138.38,138.38,0,0,1,404.56,301c3,1.75,5.71,4,8.8,5.6a1.93,1.93,0,0,1,.75.75,19.8,19.8,0,0,0,3.69,4.73c2.25,2.14,2.51,5.33,3.62,8.07,2.59,6.35,2.17,13,2.32,19.61.32,14-1,27.87-1.38,41.8-.23,8.53-1,17-1.52,25.55-.68,10.93-1.27,21.87-2.08,32.79a93.7,93.7,0,0,1-1.69,11.92c-.83,4-.89,8.13-1.59,12.16-.66,3.75-1.66,7.5-3.79,10.57a33.47,33.47,0,0,1-7.17,7.5Q399,486.33,393,490c-4.2,2.62-8.53,5.25-13.25,6.54a29.17,29.17,0,0,0-6.85,3.24,29.82,29.82,0,0,1-7.5,3c-6.29,1.58-12.21,4.32-18.59,5.61a97.43,97.43,0,0,1-12.49,2.08c-12.69.86-25.22,3.72-38,3-.79,0-1.56-.26-2.35-.37a19.43,19.43,0,0,0-7.73.31c-2.81.74-5.77-.4-8.67-.66-6.28-.57-12.26-2.52-18.37-3.93A100,100,0,0,1,247,505.55c-.27-.1-.74-.06-.82-.23-1.28-2.55-4.21-1.35-5.93-2.63a36.19,36.19,0,0,0-6.34-3.32,81,81,0,0,1-18.42-12.27c-4-3.54-8.06-7.33-10.9-11.84a36.64,36.64,0,0,1-5.85-15.64c-1-10.26-1.79-20.52-.68-30.83.17-1.58-.22-3.61,1-4.59,1.53-1.25,2.56,1.1,4,1.41,1.56.35,2.66,1.49,4,2.13,7.2,3.31,14.45,6.34,22.5,7.12,3.9.38,7.78,1.2,11.7,1.6a132.17,132.17,0,0,0,23.37.34c9.38-.69,18.45-2.89,27.53-5a157.93,157.93,0,0,0,15.63-4.9c5.33-1.86,9.88-5.24,15.2-7.09,2.83-1,4.74-3.51,6.84-5.6a1.38,1.38,0,0,0,.35-1.63c-.28-.53-.74-.2-1.13,0-6.91,3.3-14.46,4.41-21.76,6.35-14,3.71-28.32,4.08-42.66,3.51-5.71-.23-11.39-1.46-17-2.5-6.6-1.21-13.24-2.11-19.71-4a131.59,131.59,0,0,1-13.53-4.63c-4.21-1.72-8-4.19-11.93-6.28a11.62,11.62,0,0,1-6.63-9.86c-.48-9.05-1.43-18.08-1.46-27.15,0-5.34-.14-10.67-.23-16a50.48,50.48,0,0,0-.94-6.49,36.78,36.78,0,0,1,.46-15.16M151,433.06c1.34,1,2.64-1.09,3.94.05a3.77,3.77,0,0,1,1.19,2.52c.26,2.27-1.49,3.75-4.65,4-1.93.17-2.91-.74-3.09-2.87,0-.58,2.32-3.94,2.61-3.72" transform="translate(-136.35 -222.13)"/><path class="cls-2" d="M201.46,343.36c3.58,2.79,7,5.66,11.53,7.08a91.74,91.74,0,0,0,12.29,3.35c6.69,1.15,13.26,2.77,19.92,4A181,181,0,0,0,265,360a225,225,0,0,0,27.35.47c16.8-.79,33.39-3.52,50-6.08,10.39-1.6,20.52-4.47,30.68-7S393.33,342,403,337.63c3.64-1.65,7.33-3.17,10.82-5.14.69-.4,1.53-.63,1.57-2-1.28.53-2.54.48-3.64,1.13a61.75,61.75,0,0,1-12.5,5.73c-4.93,1.58-9.69,3.82-14.72,4.93-5.27,1.17-10.41,2.78-15.64,4.06-5.87,1.43-11.63,3.27-17.76,3.23a.89.89,0,0,0-.69.42c-.45,1.29-1.6,1.09-2.56,1.25s-2,.25-3,.45c-5.71,1.12-11.37,2.52-17.17,3.13-5.3.55-10.61,1-15.87,1.75a187.52,187.52,0,0,1-27.27,1.92c-11.53,0-23.15.38-34.55-2.17-5.19-1.17-10.49-1.69-15.7-2.67-4.87-.92-9.6-2.53-14.42-3.62-6.41-1.45-12.16-3.95-16.95-8.48-.56-.54-.9-1.52-1.8-.42-.71.87-.55,1.49.33,2.19" transform="translate(-136.35 -222.13)"/><path class="cls-2" d="M351.37,261.15c.34-.45.86-1,.24-1.53s-.79.37-1.17.62c-1.59,1.05-2.48,2.86-4.21,3.78-4.85,2.6-9.5,5.41-14.91,7a102.91,102.91,0,0,1-33.79,4.89c-8.68-.21-17.35-.46-25.8-2.52-6.93-1.7-14-3.43-19.59-8.3q-.66-.57-1.38-1.08a1,1,0,0,0-1.39.15,1.19,1.19,0,0,0-.26,1.41,2.58,2.58,0,0,0,1.22,1.2,70.12,70.12,0,0,0,15.83,7,85.24,85.24,0,0,0,24.13,3.29c6.71,0,13.42.75,20.1-.35,2-.2,4.08-.28,6.08-.62,4.8-.83,9.75-.73,14.34-2.84,3.24-1.48,6.81-2.26,10-3.86a30.2,30.2,0,0,0,10.58-8.3" transform="translate(-136.35 -222.13)"/><path class="cls-2" d="M400.24,409.5c-3.2,1.24-6.23,3.1-7.86,6.47-.71,1.45-2.12,2.51-1.87,4.46.39,3.1,4.8,6.43,9,6.44a5.74,5.74,0,0,0,3.13-.9c3.74-2,7.32-4.22,7.08-9.25-.08-1.85.11-4-1.22-5.37a7.38,7.38,0,0,0-8.29-1.85m7.83,6.39c0,3.7-2,6.13-5.06,7.81-2.13,1.18-7.3-.33-8.34-2.34-1.26-2.44,0-6.22,2.56-7.85,1.87-1.18,3.77-2.27,5.76-2,3.81-.37,5.12.88,5.08,4.39" transform="translate(-136.35 -222.13)"/><path class="cls-2" d="M401.92,372.2c-2.74.41-4.71,2.09-7,3.25a12.85,12.85,0,0,0-6.34,7.19c-.61,1.59-.71,3.57,1,4.83a13.32,13.32,0,0,0,7,2.41c3.24-.09,5.63-1.53,8.19-2.6,3.65-1.53,4.84-4.56,5.21-8,.52-4.75-3.28-7.81-8-7.11m.09,14.5c-2.71.85-5.51,1.9-8.54.79-2.68-1-3.64-2.88-2.31-5.45a10.19,10.19,0,0,1,5.54-5.19c1.81-.72,3.43-1.93,5.47-2.36,4.13-.89,5.54.13,5.67,4.41.1,3.6-1.83,6.54-5.83,7.8" transform="translate(-136.35 -222.13)"/><path class="cls-2" d="M409.27,447.35c-3-1.44-6.24-2.76-9.58-.94-4.1,2.25-7.05,5.7-9.55,9.58-.1.17-.34.49,0,.49,1.77,0,.68,1.4.93,2.09.41,1.14.14,2.93,1.25,3.34,3.21,1.18,6.5,2.77,10,1,.84-.42,1.64-.93,2.51-1.3,3.3-1.37,6.34-6,6.19-10.1,0-1.29.11-3.26-1.75-4.14m-1.11,8.38a15.66,15.66,0,0,1-5.84,5.49,8.55,8.55,0,0,1-3.56.64,5.4,5.4,0,0,1-3-.61c-2.95-1.65-3.57-3.65-1.74-6.44,1.32-2,2.81-4,5.07-5,1.28-.59,1.72-2.15,3.24-2.45,2-.4,5.36.56,6.32,2.17a5.76,5.76,0,0,1-.47,6.22" transform="translate(-136.35 -222.13)"/><path class="cls-2" d="M352,288c-1-2.08-4.25-3-5-1.5-2.06,3.85-3.57,7.78-1.64,12.28,1.46,3.4,3.48,4.28,6.71,2.58,2.1-1.11,2.5-2.89,2.36-5A30.55,30.55,0,0,0,352,288m-1.69,11c-.78.28-1.67-1.49-2.27-2.51a7.38,7.38,0,0,1-.29-6.51c.28-.79.93-1.58,1.67-1.46s1.16,1,1.26,1.86c.2,1.66.39,3.31.64,5.43,0,.89.36,2.7-1,3.19" transform="translate(-136.35 -222.13)"/><path class="cls-2" d="M333.37,286.81c-4.33,2.92-5.5,7.22-4.76,12,.59,3.83,1.82,6.06,5.79,5.94,4.48-.14,7.14-4.53,7.11-8.89a14.55,14.55,0,0,0-2.92-7.83,4,4,0,0,0-5.22-1.2m3.73,14.7c-2.92,2.44-6.06,1.34-7-2.36a10,10,0,0,1,4.41-10.66c.8-.48,1.37-.12,1.95.38,2.24,1.92,2.69,4.57,3,7.27a5.71,5.71,0,0,1-2.39,5.37" transform="translate(-136.35 -222.13)"/><path class="cls-2" d="M345.07,515.47c-.77.28-2.73.54-1.06,2.27.42.43-.21.93-.28,1.42-.6,4.59.56,6.11,5.13,6.11,1.28-.07,2.85-.28,3.49-1.79.82-1.91,1.23-3.9-.5-5.71-1.88-2-4-3.29-6.78-2.3m3.43,8.39a2.85,2.85,0,0,1-3.27-2.94c-.14-2,1.1-4,2.46-4s3.13,2.06,3.21,3.84-.36,3-2.4,3.15" transform="translate(-136.35 -222.13)"/><path class="cls-2" d="M270.63,516.36c-1.68.14-4.26,3.68-4,5.61.38,2.93,3.1,5.92,6.52,5.39,3.11-.48,4.37-1.84,4.1-5-.35-4-2.92-6.29-6.61-6m2.34,9a3.45,3.45,0,0,1-3.92-3.16c-.14-1.55,1.75-4.1,3.15-4.22,1.75-.17,3.13,1.65,3.27,4.33.14,2.44-.28,2.95-2.5,3" transform="translate(-136.35 -222.13)"/></svg>