<svg id="Layer_1" data-name="Layer 1" xmlns="http://www.w3.org/2000/svg" viewBox="0 0 390.21 421.27"><defs><style>.cls-1{fill:#fff;}.cls-2{fill:#010101;}</style></defs><path class="cls-1" d="M434.48,491.28a137,137,0,0,0-6.31-13.57c-1.46-2.75-3.71-5-5-7.82a25.75,25.75,0,0,0-2.62-4.24c-.54-.75-1.21-2-2.38-.69-1.44,1.64-2.72,3.43-4.22,5-2.41,2.53-4.21,5.66-7.34,7.4a49.32,49.32,0,0,1,3.17,5c3.27,6.82,5.15,14.13,7.27,21.35.29,1,.46,2,.75,3,.14.48.39,1.06,1.05.94s.65-.63.7-1.09c.6-5.25,1.78-10.54-1-15.58a2,2,0,0,1-.21-.66c-.06-.49-.35-1.11.3-1.37a1.17,1.17,0,0,1,1.62.59,55.87,55.87,0,0,1,2.84,5.69c2.14,6.15,3.79,12.36,3.82,18.91a15,15,0,0,0,1.1,5.22c.57,1.51,1.47,2.65,3.2,2.71s2.73-.93,3.62-2.27c3.51-5.28,3.48-11.2,2.72-17.07a46.9,46.9,0,0,0-3.07-11.45" transform="translate(-49.06 -236.26)"/><path class="cls-1" d="M414,468.18c2.26-2.59,3.69-5.83,6.32-8.22,1.79-1.62,2.6-4,3.76-6.15a1.22,1.22,0,0,0-.14-1.45,18.5,18.5,0,0,0-2.23-2.65c-3.73-3.13-7-6.73-10.85-9.76-2-1.56-3.74-3.47-5.77-4.89a47.22,47.22,0,0,0-9.93-5.85c-3-1.15-5.53-3.26-8.9-3.63a14.33,14.33,0,0,1-3.85-.83c-3.49-1.44-7.19-2.4-10.41-4.52a28,28,0,0,0-2.63-1.92,33.4,33.4,0,0,1-7.6-6.53c-.26-.38-.54-.88-1.06-.69s-.42.76-.39,1.22c.1,1.44.21,2.88.31,4.32h-.18a20.35,20.35,0,0,1,0,4c-.37,1.85,1.44,2,2.06,3.08,1.24,2.16,2.84,4.11,4.14,6.24a44.46,44.46,0,0,1,3.16,5.49,73.43,73.43,0,0,1,2.55,7.31,53,53,0,0,0,6.83,14.14A71.07,71.07,0,0,0,390,469.83a90,90,0,0,1,9.14,9.76c.62.78,1.06.83,1.82.2,2.21-1.82,4.55-3.49,6.7-5.38a68.44,68.44,0,0,0,6.4-6.23" transform="translate(-49.06 -236.26)"/><path class="cls-1" d="M349.82,390.3a27.87,27.87,0,0,0-4.06-3.11c-1.7-1.29-3.38-2.81-5.53-3.43-1.67-.49-2.07-.15-2,1.59.2,8.15,1.34,16.22,1.56,24.37.24,8.55.79,17.09.64,25.64q.06,6.08.11,12.14c0,.45-.15,1,.36,1.24s.78-.13,1.1-.33a30.65,30.65,0,0,0,7.68-7.6A58.9,58.9,0,0,0,356,430a22.69,22.69,0,0,0,1.94-5.88c1-5.54.41-11.05,0-16.58-.48-6.82-3.62-12.32-8.13-17.24" transform="translate(-49.06 -236.26)"/><path class="cls-1" d="M182.11,330.77c3.79-.43,7.57-1,11.37-1.29,11.93-.9,23.89-1.44,35.8-2.59,13.37-1.28,26.78-1.26,40.18-1.65,2.48,0,5-.09,7.45-.05,7.51.11,15-.52,22.54-.19,1.73.07,3.47.06,5.2.1,1.21,0,1.83-1.06,2.79-1.53.35-.16-.42-1.2-.76-1.76-3.81-6.15-5.75-13.06-7.89-19.84-2-6.36-3.31-12.94-5-19.41-1.42-5.57-1.9-11.38-2.88-17.07-.45-2.61-.24-5.33-1.17-7.86a19.18,19.18,0,0,1-1-5.76,45,45,0,0,0-.75-7.93,1.72,1.72,0,0,0-1.83-1.61c-2.59-.16-5.19-.31-7.78-.56a189.86,189.86,0,0,0-20.1-.37,269.28,269.28,0,0,0-28.54,1.49c-6.81.79-13.63,1.67-20.39,2.81a72.12,72.12,0,0,0-12.1,2.94c-.82.28-1.12.6-1,1.62a41.18,41.18,0,0,1,.57,6.2,144.06,144.06,0,0,1-.87,14.7c-1,9.65-2.3,19.28-4.82,28.67-.95,3.55-1.22,7.28-2.83,10.67a24.76,24.76,0,0,0-2.37,6.31c-.77,4.52-3.17,8.45-4.64,12.72-.13.37-.56.71-.32,1.11s.73.18,1.11.13m91.33-37.52a1,1,0,0,1,1-.72,17.39,17.39,0,0,1,3.68-.34c3.47-.19,5.82,1.27,7.64,4.13a25.48,25.48,0,0,1,3.9,15.76,6.33,6.33,0,0,1-6.15,5.81,12.24,12.24,0,0,1-7.08-1.84c-1.71-1.16-2.21-3.2-2.78-5a54.22,54.22,0,0,1-1.62-9.16c-.41-3,.44-5.82,1.37-8.62m-37.52,5.67c.47-1.65.31-3.39,1.26-5,1.3-2.23,4.43-4.1,7-3.73a10.07,10.07,0,0,1,8.24,8.28,19.86,19.86,0,0,1,.31,4.15c0,4.61-.58,9.19-3.24,13-1.23,1.8-3.67,2.58-6,2.6a16.78,16.78,0,0,1-4.42-.75,3.41,3.41,0,0,1-2-2.05,23,23,0,0,1-1.18-16.54M200,300.51c1.61-2.65,4.06-4.13,6.09-6.15,1.12-1.11,3-.86,4.55,0,4.13,2.31,5.23,6.16,4.92,10.44a19.38,19.38,0,0,1-2.4,8.93,25.75,25.75,0,0,1-4.19,5.22,7.34,7.34,0,0,1-7.41,1.67c-3.63-1.14-4.95-4-5-8.17.44-3.81,1.06-8,3.47-11.94" transform="translate(-49.06 -236.26)"/><path class="cls-1" d="M339.06,433.31c-.05-8.39-.74-16.75-.88-25.13-.11-7.12-.76-14.21-1-21.31-.28-7.86-1.28-15.68-1.52-23.52a8.25,8.25,0,0,0-8.65-8.06c-2.25.07-4.5,0-6.75.14s-4.63-.13-6.86.71c-1.7.64-2,.4-2.05-1.46-.05-2.95-.06-5.9-.08-8.84-.16-5.44-.28-10.87-.94-16.27-.16-1.29-.29-2.69-2.06-2.62-4.28.17-8.5-.84-12.78-.73-5.43.14-10.87.48-16.29.3-10.86-.37-21.71,0-32.53.59-12.57.66-25.16,1.18-37.7,2.35-8.16.76-16.36,1.15-24.49,2.27-1.15.16-2.31.13-3.45.29-.6.08-1.17.19-1,1.21a46.56,46.56,0,0,1,.6,8.1c.05,2.48-.19,5,0,7.45.33,3.68.42,7.38.63,11.08,0,.66-.26,1.44-.88,1-1.19-.78-2.24,0-3.34-.1-3.66-.39-6.73,1.33-9.78,2.9A9.48,9.48,0,0,0,164,366a17.06,17.06,0,0,0-3.19,7.57c-.44,2.22-.08,4.53-.34,6.72a108.61,108.61,0,0,0-.87,16.42c.15,5.14-.12,10.29.1,15.43.4,9.3.58,18.62.6,27.92,0,5.59-.33,11.16.43,16.74a28.25,28.25,0,0,0,3.47,10.6c4.11,7,10.61,10.19,18.51,10.87.58.05,1.5-.26,1.47.68,0,.64-.84.67-1.42.65-4.59-.15-9.09-.65-12.84-3.71-.37-.29-.77-.75-1.2-.57-.61.24-.35.91-.32,1.4a72.76,72.76,0,0,1,.07,10.23c-.5,5.66-.83,11.22-3.35,16.61a14.07,14.07,0,0,0,.79,13.95,9.55,9.55,0,0,0,8,4.39c4.7,0,9.1-2,13.25-4.16s7.3-5.58,11.53-7.52a3.24,3.24,0,0,0,1.16-1.24,6.39,6.39,0,0,1,4.88-3.18,7.49,7.49,0,0,0,3-1.27c.77-.44.94-.85.34-1.77-1.33-2-3.22-3.71-4.32-5.82a94.44,94.44,0,0,1-4.81-9.66,51.82,51.82,0,0,1-3.56-14.73c-.67-8.75-.16-17.43,3.4-25.66a7.67,7.67,0,0,0,.37-1.52,37.54,37.54,0,0,1,2-6.39c.67-1.58,1.39-3.15,2-4.75a46.19,46.19,0,0,1,4.88-9.51c2.14-3.14,5.06-5.62,7.35-8.66a21.77,21.77,0,0,1,3.81-4.36c2.71-2.05,5-4.56,8.23-6.1,3.83-1.82,8-3,11.57-5.32a2,2,0,0,1,.66-.19,47,47,0,0,1,16.16-1.25c3.37.34,6.81.31,9.93,2a42.72,42.72,0,0,0,4.62,2.24c2.88,1.1,5.27,3.07,7.8,4.69a28.8,28.8,0,0,1,6.43,6.16c2.7,3.29,5.85,6.2,8.46,9.58a6.51,6.51,0,0,1,1.23,1.65c.84,2.52,2.81,4.48,3.43,7.11.77,3.28,2.94,5.93,4.09,9.06.79,2.16,1.42,4.36,2.15,6.53a34,34,0,0,1,1.56,11.6,50.41,50.41,0,0,1-4.26,18.79A50.85,50.85,0,0,0,299,483.3c-1,3.5-3.12,6.39-4.93,9.42s-4.06,5.7-6.09,8.57c-.24.34-1.06.94-.29,1.22,1.83.68,3.1,2.27,4.88,2.87,3.81,1.28,6.49,4.27,9.76,6.34,2,1.23,3.89,2.66,5.93,3.71,5.23,2.68,10.76,4.25,16.81,3.22,4.32-.75,8.42-1.74,11.33-5.41,1-1.29,1.41-2.75.57-4-1.59-2.37-2.77-5.1-4.88-7.05A16.65,16.65,0,0,1,327,491.36c-.32-2.9-1.41-5.72-.63-8.81.43-1.72-.14-3.67-.13-5.52,0-1.33-.44-1.49-1.55-1a15.66,15.66,0,0,1-8.69,1.74c-.58-.07-1.21.09-1.29-.76s.49-1,1.11-.93c3.31.17,6.26-1,9.34-2.09,5.63-2,9.25-6.16,12.86-10.48a4,4,0,0,0,.54-1.25c.69-2,.07-4.1.14-6.12.28-7.62.46-15.24.41-22.87" transform="translate(-49.06 -236.26)"/><path class="cls-1" d="M214.19,453.8a23.21,23.21,0,0,0,8.85,1,26.94,26.94,0,0,0,8.26-.81,13.5,13.5,0,0,0,7.8-5c2.41-3,1.82-6.42,1.67-9.62-.2-4-.49-8-.83-12.06a23.88,23.88,0,0,0-2.28-9.16c-.71-1.36-1.65-1.52-2.62-.67-1.7,1.5-3.73,2.5-5.32,4.26-2.49,2.74-5.38,5.11-7.68,8.08-2.54,3.31-5.5,6.3-7.36,10.11-1,2-2,4-3.1,5.94-1.62,3-1.3,6.51,2.61,7.9" transform="translate(-49.06 -236.26)"/><path class="cls-1" d="M304.3,517.6c-4.89-3.07-9.12-7.09-14.44-9.55-2.73-1.27-2.66-1.58-4.86.44a29.34,29.34,0,0,1-9.66,6.43c-2.15.78-4.1,2.11-6.43,2.42-4.92.66-9.69,2.2-14.66,2.63-2.81.24-5.64.82-8.42.62a82.85,82.85,0,0,1-13.32-2.3,43.62,43.62,0,0,1-5.23-1c-2.16-.79-4.17-2.15-6.41-2.46-3.78-.53-6.35-3-9-5.22-1.37-1.15-2.14-1-3.42-.47-3.53,1.33-5.84,4.43-9.13,6.18a54.91,54.91,0,0,0-5,3.13c-.78.53-1,.87-.48,1.78,1.48,2.75,2.76,5.6,4.26,8.35.93,1.7,1.51,3.65,2.55,5.18,2.41,3.53,4,7.48,6.11,11.14a82.52,82.52,0,0,1,4.78,8.71,15,15,0,0,0,1.07,2.5,95.68,95.68,0,0,1,6.67,11c2.66,5.64,6.52,10.53,9.34,16,1.07,2.07,3.21,3.33,4,5.74a2.1,2.1,0,0,0,.65-2.25,55.93,55.93,0,0,1,.27-10.19c.35-4.49,1.19-8.91,1.86-13.35.45-3,.76-5.88,2.53-8.5,3.07-4.54,6.73-7.76,12.67-6.77,2.89.48,5.78,1.09,8.24,2.77,1.06.72,1.72,2.06,2.79,2.77A5.1,5.1,0,0,1,264,557.7a56.53,56.53,0,0,0,1.09,9.45A140,140,0,0,1,268,587.72c.07.93-.42,2.4.77,2.67,1.61.37,1.57-1.37,1.92-2.34.75-2.11,1.1-4.37,2-6.41,1.18-2.67,2.33-5.37,3.56-8,1.88-4.06,3.7-8.17,5.86-12.1.43-.79,1.24-1.43,1.46-2.32.84-3.45,3-6.25,4.7-9.24,2-3.64,3.86-7.39,5.93-11,1.88-3.28,3.91-6.49,5.61-9.88,1.59-3.19,3.83-6,5.19-9.34a1.49,1.49,0,0,0-.64-2.15" transform="translate(-49.06 -236.26)"/><path class="cls-1" d="M243.14,475.37a4.89,4.89,0,0,0-3-4.46c-4.41-1.87-9.12-1.9-13.74-2a35.39,35.39,0,0,0-12.67,2.21,3.09,3.09,0,0,0-2.07,2.17c-.73,3.06-.75,6.15,1.05,8.86,2.23,3.35,5.43,5.83,8.44,8.45a42.5,42.5,0,0,0,6.39,5.07c2.61,1.52,4.71,3.87,7.74,4.76a3.47,3.47,0,0,0,3.58-.56c1.3-1.28,2.81-2.4,3.71-4.06a4.81,4.81,0,0,0,.77-2.43c-.13-4.5-.34-9-.06-13.38-.37-1.62,0-3.12-.11-4.61" transform="translate(-49.06 -236.26)"/><path class="cls-1" d="M274.34,593.41a8,8,0,0,0-4.78-.08c-.93.27-1.41.8-1.24,1.76a45.93,45.93,0,0,1,.22,5.86c.21,4.18-.57,3.69,3.92,3.69h1c4.43-.14,5.73-2.41,3.76-6.46a8.61,8.61,0,0,1-1.09-2.9,2.31,2.31,0,0,0-1.83-1.86" transform="translate(-49.06 -236.26)"/><path class="cls-1" d="M285.55,466.32c-5.84,0-11.76-1-17.51.94a1,1,0,0,1-.65.08c-2.83-1.54-5.38.29-8,.75a2.92,2.92,0,0,0-1.93,2.48,48.6,48.6,0,0,0-1.36,11.66,28.69,28.69,0,0,0,.34,4.83c.43,1.83,1.36,3.54,1.89,5.35a4.93,4.93,0,0,0,3.83,3.59c5,1.22,8.23-.11,11.37-4.13,3.61-4.63,7.71-8.8,11.47-13.29a16.53,16.53,0,0,0,3.72-7c.61-2.8-.36-5.27-3.16-5.28" transform="translate(-49.06 -236.26)"/><path class="cls-1" d="M275.9,311.77c2.09,4,3.68,4.91,7.89,4.43a4.18,4.18,0,0,0,.51-.07,5.24,5.24,0,0,0,3.94-3.92c.45-2.42-.13-4.8-.42-7.19-.28-2.22-1.7-4-2.42-6.07a8.91,8.91,0,0,0-4.81-5.16c-3.59-1.74-6.73.16-7,4.12-.06,1,0,2,0,2.95a22.75,22.75,0,0,0,2.27,10.91" transform="translate(-49.06 -236.26)"/><path class="cls-1" d="M260.49,561.22c-.14-1.64.27-3.58-1.48-5.08-3.14-2.68-6.55-4.29-10.71-4-4,.25-8,3.8-8.71,7.39a15.7,15.7,0,0,0,.19,2.92c0,2.53-1,4.85-1.42,7.27a90.57,90.57,0,0,0-1.11,16.71c.07,5.61.54,11.19.88,16.78.21,3.28.26,6.58.54,9.86.7,8.11,1.22,16.24,2.88,24.25.33,1.63.66,3.27,1,4.9.53,2.46.45,5,2.09,7.27a2.72,2.72,0,0,0,2.62,1.43c1.56-.09,3.12,0,4.68-.06v0c1.56,0,3.12-.13,4.67,0,2.43.18,3.7-1.21,4.68-3.12,2.56-5,2.71-10.41,3-15.8.15-3.11-.09-6.24,0-9.36a312.4,312.4,0,0,0-1.15-41.72c-.61-6.57-2.14-13-2.69-19.57m-8.06,70.85c4.19-.36,4.32-.3,3.95,3.92-.18,2.11-.64,4.2-1,6.3-.08.44-.14,1.06-.73,1-.75,0-.66-.74-.6-1.21.2-1.6.48-3.19.71-4.79a15.29,15.29,0,0,0,.25-1.89c.08-2.57-.17-2.78-2.6-2.1a2.57,2.57,0,0,1-2.47-.24c-.87-.71-.18-1.55.06-2.22,1.11-3,1.67-6.23,2.61-9.3a50.35,50.35,0,0,1,1.9-5c.65-1.53.29-2.09-1.32-2-3.9.3-4.08,0-2.65-4.14a103.84,103.84,0,0,0,3.39-13.73c.56-2.87-.08-3.36-3-3a10.09,10.09,0,0,1-1.55.1c-1.7,0-2.58-.85-2.18-2.51,1.17-4.9.85-10.15,3.53-14.72.94-1.6.51-1.82-1.28-2.23-3.4-.78-4.61-2.19-2.91-5.33a90,90,0,0,0,3.9-9.39c.28-.7.5-1.42.79-2.11.17-.39.28-1,.9-.8.46.17.24.71.19,1.08a15.81,15.81,0,0,1-1.43,4.22c-1,2.27-1.81,4.63-2.76,6.92-1.28,3.09-.49,4.4,2.82,4.31,1.34,0,1.59.46,1.4,1.61a17.84,17.84,0,0,1-1.06,4.35c-1.63,3.69-1.71,7.76-2.71,11.61-.35,1.36.34,2,1.72,1.78a13.52,13.52,0,0,1,1.55-.14c3.26-.07,3.73.4,3.69,3.6a18.82,18.82,0,0,1-1,5.6c-1,3.3-1.83,6.67-2.78,10-.3,1,.09,1.4,1.06,1.38h.69c2.76,0,3.5,1,2.55,3.67-.72,2-1.51,4-2.34,6-1.14,2.72-1,5.77-2.25,8.48-.4.89.31.9,1,.85" transform="translate(-49.06 -236.26)"/><path class="cls-1" d="M260.73,451.67c3.08-.46,6.16-.87,9.27-1.17,3.88-.37,7.9-.12,11.6-1.66,4.86-2,5.44-4.93,3.16-9.07a82.56,82.56,0,0,0-5.5-8.62c-3.47-4.76-7.08-9.32-12-12.74-3.43-2.39-7.31-3.2-11.37-3.4a2.64,2.64,0,0,0-2.63,1.64c-1.47,3-2.89,6.06-2.49,9.59.1,1.26.26,2.53.27,3.8,0,3.42,1.27,6.66,1.39,10.09a17.93,17.93,0,0,0,2.16,8.45,6.45,6.45,0,0,0,6.11,3.09" transform="translate(-49.06 -236.26)"/><path class="cls-1" d="M294.65,430a40.09,40.09,0,0,0-8.14-11.24,38.78,38.78,0,0,1-4.39-4.87,19.09,19.09,0,0,0-5.3-4.78c-2.55-1.69-5.54-2.72-8.09-4.43a16.85,16.85,0,0,0-6.67-3c-8.3-1.23-16.68-2.82-24.71,1.5-1.08.58-2.36.9-3.46,1.52s-2.48.85-3.58,1.69-3,1-3.19,1.8c-.47,2.25-2.07.52-2.86,1.17,0,0-.1.06-.14.1-1.58,1.66-3.59,2.86-5,4.71-1.75,2.26-3.53,4.52-5.45,6.64a39.19,39.19,0,0,0-7.28,10.54c-2.55,5.88-5.17,11.75-6.85,17.9a71.2,71.2,0,0,0-2.65,22.26c.14,3,1.14,5.75,1.59,8.65a31.26,31.26,0,0,0,3.67,10c1,1.91,2,3.9,3.25,5.75a52.14,52.14,0,0,0,11.16,11.65c3.48,2.8,7.73,4.34,11.91,5.52a69.83,69.83,0,0,0,17.91,2.3c3.2-.11,5.78-.56,8.36-.65A37.6,37.6,0,0,0,267,512c8.25-3.2,15.8-7.62,21.58-14.49a49.37,49.37,0,0,0,6.14-9c1.95-3.74,3.49-7.72,5.12-11.64a43.31,43.31,0,0,0,3.62-17.44c-.08-5-.25-10.07-2.45-14.72-1.6-3.36-2.14-7.22-4.81-10.05-.15-.16-.35-.42-.31-.59.31-1.61-.56-2.79-1.19-4.15M209,447.16a50.21,50.21,0,0,1,9.14-15.33c2.14-2.37,4-5.05,6.32-7.25,2-1.87,3.76-3.85,5.66-5.75s3.77-3.62,6.69-3.41a2,2,0,0,1,1.8,1.1A24.7,24.7,0,0,1,242,428c.22,5.37.9,10.72.86,16.1,0,2.89-1.4,5-3.19,7.14-3.29,3.94-7.79,4.57-12.4,5.08a17.52,17.52,0,0,1-5.23.27,23.51,23.51,0,0,1-9.28-1.49,6.36,6.36,0,0,1-3.82-7.95m36.11,37.12c0,2.26,0,4.51.06,6.76a12.32,12.32,0,0,1-5.66,10.83c-1.3.92-5.14.85-6.62-.18-4.84-3.38-9.8-6.58-14.13-10.67-1-1-1.94-2.39-3.68-2.59-.47-.05-.94-.82-1.26-1.36a42.23,42.23,0,0,1-4.19-8.3c-1.11-3.5.92-8.57,4.35-9.81a36.7,36.7,0,0,1,17.34-1.82,46.84,46.84,0,0,1,9,1.82c3.66,1.19,4.28,4,4.58,7,.26,2.75.1,5.54.12,8.31h0M252.62,448c-1.38-2.71-1.49-5.77-1.74-8.76-.31-3.5-.73-7-1.11-10.49a24.87,24.87,0,0,1,.8-9.59,14,14,0,0,1,2.43-4.74,3.18,3.18,0,0,1,2.61-1.15c5.25.09,10.25,1.4,14.35,4.66a55.13,55.13,0,0,1,9.44,10.47c2.52,3.36,4.67,6.95,6.92,10.48,2,3.08,1.26,8.41-1.43,10.85a2.93,2.93,0,0,1-1.22.58A47.78,47.78,0,0,1,271,452c-2.12.07-4.51.1-6.16,1.31a5.45,5.45,0,0,1-4.12,1c-4-.38-6.45-3-8.13-6.35m35.14,30.63a2.38,2.38,0,0,0-.62,1.39,4.91,4.91,0,0,1-1.31,2.93c-4.31,5.63-9.12,10.72-15.31,14.31-4,2.32-11,.74-13.26-3.17a14.81,14.81,0,0,1-2.1-6c-.19-2.18-.08-4.39-.1-6.58-.05-3.8-.25-7.62.91-11.34a5.52,5.52,0,0,1,4.69-4.28,73.15,73.15,0,0,1,17-1.48c2.65.08,5.31.09,8,.26,3.22.2,5,2,5.17,5.25a11.66,11.66,0,0,1-3.05,8.7" transform="translate(-49.06 -236.26)"/><path class="cls-1" d="M208.27,317.26c3.74-3.61,6-8,5.84-13.34a30.83,30.83,0,0,0-.31-3.61c-.51-2.43-2.37-3.86-4.39-4.81-1.43-.67-2.64.36-3.93,1.37-5.51,4.34-7.55,10.07-7.41,16.83a4.73,4.73,0,0,0,.92,3.08c2.61,3,6.41,3.25,9.28.48" transform="translate(-49.06 -236.26)"/><path class="cls-1" d="M240.27,316.26c3.41,1.63,8.36-.68,9.41-4.35a31.39,31.39,0,0,0,1.36-9.17,15.58,15.58,0,0,0-1.37-7.23,6.45,6.45,0,0,0-6-3.61,5.16,5.16,0,0,0-5.33,3.48,29.48,29.48,0,0,0-1.37,6.73,23.89,23.89,0,0,0,.61,9.76c.47,1.75.93,3.54,2.73,4.39" transform="translate(-49.06 -236.26)"/><path class="cls-1" d="M86.3,484.34a39.56,39.56,0,0,1-6.24-7.06c-.67-.94-1.09-1-1.86-.26a43.31,43.31,0,0,0-5,5.91,51.15,51.15,0,0,1-3,4.39,32.2,32.2,0,0,0-4.58,6.8c-1.51,2.76-3.07,5.5-4.49,8.31-3.28,6.49-7.3,12.66-8.79,19.95-.77,3.77-1.88,7.53.27,11.27a3.42,3.42,0,0,0,3.89,1.73c2.41-.53,3.47-2.24,4.28-4.31,2.14-5.39,3.91-10.92,6.8-16A46.5,46.5,0,0,0,70.67,509a19.26,19.26,0,0,1,4.69-6.85.92.92,0,0,1,1.26,0,.81.81,0,0,1,.2,1.09,8.82,8.82,0,0,1-.59,1.24,13.52,13.52,0,0,0-2,8.12,36.29,36.29,0,0,0,.38,3.79A2.78,2.78,0,0,0,78,518.67c1.43-.4,1.37-1.75,1.66-2.8.89-3.23.83-6.62,1.84-9.86,1.76-5.59,2.8-11.4,5.84-16.55,1.52-2.57,1.19-3.18-1.06-5.12" transform="translate(-49.06 -236.26)"/><path class="cls-1" d="M233.6,598.9c0-1.58,0-2.74,0-3.89,0-.44.07-1.17-.58-1a15.68,15.68,0,0,1-5.78.5c-.29,0-.61.3-.92.44-2.59,1.22-3,3.49-3,6a3.54,3.54,0,0,0,2.47,3.54,18.34,18.34,0,0,0,7.19.44c.89-.1,1.48-.73,1.12-1.55-.72-1.63-.23-3.31-.44-4.52" transform="translate(-49.06 -236.26)"/><path class="cls-1" d="M158.77,423.45c-.09-7.27-.63-14.53-.42-21.82.15-4.93-.39-9.87,0-15.11a5.49,5.49,0,0,0-1.05.73q-3,3.74-6,7.51a2,2,0,0,0-.28.44c-1.47,3.5-3.35,6.79-4.5,10.45-2.42,7.65-3.57,15.42-1.79,23.28a41.44,41.44,0,0,0,6.48,14.67,34.09,34.09,0,0,0,6.21,6.66c1,.81,1.47.52,1.51-.66s0-2.43,0-3.64c-.07-7.5-.11-15-.21-22.51" transform="translate(-49.06 -236.26)"/><path class="cls-1" d="M142.47,425.06c-.05-.48.13-1.16-.49-1.36s-.92.37-1.29.73c-1.19,1.16-2.18,2.56-3.74,3.31-3.3,1.58-6.09,4-9.51,5.45a33.7,33.7,0,0,1-7.11,2.48,56,56,0,0,0-11.23,3.27c-1.65.67-3.5,1.19-4.78,2.32a40.59,40.59,0,0,1-6.13,4.05c-4,2.42-7.66,5.22-11.47,7.83-4.69,3.21-8.35,7.65-12.2,11.82-.52.56-1,1.2-.43,2a80.73,80.73,0,0,0,7.34,10.19c2.87,3.21,5.81,6.32,8.84,9.37a43,43,0,0,0,5.83,5,2.77,2.77,0,0,0,3.88-.3c3.67-3.66,7.76-6.85,11.47-10.46,1.6-1.56,3.3-3,4.93-4.53,1.46-1.35,2.51-3,3.89-4.35a34.74,34.74,0,0,0,8.85-13.94c1.15-3.48,2.08-7.05,3.89-10.3a33,33,0,0,0,2.16-4.11c1.32-3.41,4.06-5.47,6.56-7.81.83-.78,1.88-1.34,2.25-2.5-.06-.21-.1-.38-.16-.54a26.58,26.58,0,0,1-1.35-7.61" transform="translate(-49.06 -236.26)"/><path class="cls-2" d="M429.79,478.12a80.64,80.64,0,0,0-6.86-11c-1.17-1.58-1.08-2.22.48-3.47a8,8,0,0,0,2.47-2.62,57.62,57.62,0,0,1,3.39-6.23,2.37,2.37,0,0,0,.08-2.6c-1.3-2.49-3.38-4.37-5.36-6.25-3.31-3.16-6.75-6.19-10.23-9.17-5.71-4.9-11.44-9.7-18.42-12.75-2.06-.9-4-2-6.29-2.28a30.81,30.81,0,0,1-10.92-3.67A67.14,67.14,0,0,1,368,411.2a20.43,20.43,0,0,1-6.62-7.94A4,4,0,0,0,359,400.9a1.84,1.84,0,0,1-1.21-1.49,22.7,22.7,0,0,0-5-8.58,30.69,30.69,0,0,0-11.44-8.3c-.41-.16-1.07-.18-.88-1,.56-2.54.39-5.15.54-7.73.32-5.31.1-10.54-2-15.59-2.2-5.35-5.56-7.76-10.22-8a70.14,70.14,0,0,0-11.57.56c-.93.11-1.36-.14-1.37-1.19-.11-6.11-.81-12.18-1.3-18.27a29.82,29.82,0,0,0-.56-4.29c-.64-2.92-2.56-5.32-3.39-8-1.45-4.76-4.42-8.76-5.76-13.63-1.27-4.64-2.34-9.34-3.43-14s-2-9.33-3.1-14C296.85,271.33,296,265.14,295,259c-.94-5.46-1-11-2.11-16.49a3.39,3.39,0,0,0-.74-1.68c-2.12-2.44-5.18-2.9-8-3.78-1.6-.5-3.42-1.2-5.08-.42a9.48,9.48,0,0,1-4.37.67c-1.56,0-3.12-.2-4.68-.23-3.79-.06-7.64.25-11.39-.19-4.75-.55-9.46-.14-14.16,0s-9.3.82-14,1.27A181.84,181.84,0,0,0,212,240.45c-2.71.56-5.46,1-8.13,1.71s-5.47,1.81-8.24,2.58c-4,1.12-4.55,1.79-4.23,5.93a5.2,5.2,0,0,0,.06.69c1.32,5.26.68,10.58,0,15.81-.62,4.91-1.15,9.84-1.73,14.76a46.53,46.53,0,0,1-1.49,7.41c-1.64,5.65-2.31,11.51-4.06,17.13-1,3.12-1.64,6.33-2.63,9.45-1.14,3.56-2.58,7-3.33,10.71a3.83,3.83,0,0,1-1.07,2,6.85,6.85,0,0,0-1.88,5.88,37.77,37.77,0,0,1,.4,5.18c-.24,4.61.05,9.2.23,13.8,0,1.11.43,3-1.42,3.21-3.52.32-6.35,2.32-9.51,3.48a6.19,6.19,0,0,0-2.6,1.27c-1.77,1.81-3.51,3.52-4.4,6-.82,2.3-2.18,4.44-2.71,6.84-.87,3.87-.41,7.83-.38,11.75a3.86,3.86,0,0,1-.83,2.69C152.73,390.5,151,392,150,394s-2.35,4.18-3.28,6.43c-1.8,4.33-3.57,8.61-3.82,13.38-.07,1.33-.06,2.75-1.88,3.24-.74.19-1.06,1.16-1.38,1.91a3.88,3.88,0,0,1-.72,1.34c-2.91,3-6.46,5.13-10,7.27a6.73,6.73,0,0,1-2.09.78,25.41,25.41,0,0,0-6.84,2.4,9.32,9.32,0,0,1-3.75,1.23c-4.51.31-8.27,2.74-12.25,4.43a50,50,0,0,0-9.47,5.51c-3.49,2.51-7.18,4.79-10.39,7.62-2.47,2.2-5.16,4.11-7.64,6.3a33.5,33.5,0,0,0-7,8.51,3.57,3.57,0,0,0,0,3.93c1,1.6,1.94,3.28,3.05,4.82.81,1.12,1.28,2.55,2.79,3.15.65.27.55,1,0,1.61-1.58,1.74-3,3.58-4.47,5.45-1.67,2.17-3.1,4.49-4.76,6.66a64.37,64.37,0,0,0-3.53,6.07c-2,3.35-4,6.76-5.75,10.25a98.74,98.74,0,0,0-4.61,9.82c-1.64,4.6-3.32,9.18-3.15,14.12.13,4,3.32,8.37,8.41,6.54,1.19-.42,2.63-.6,3.25-1.74,1.24-2.28,2.72-4.49,3.37-7,1.06-4.06,3.22-7.63,4.76-11.48a23.3,23.3,0,0,1,3.53-5.77c0,1.62.06,2.81,0,4a5.59,5.59,0,0,0,2.74,5.37,4.1,4.1,0,0,0,5.38-1.66,29.83,29.83,0,0,0,1.83-7.18c.46-2.39,1.5-4.64,1.73-7,.41-4.35,2.45-8.12,3.94-12.1.36-1,1-1.19,1.85-.49s2,1.51,3,2.36c2.44,2.2,7.64,2.84,10,.62,2.06-1.92,4.68-3.09,6.52-5.25a10.3,10.3,0,0,1,1.61-1.8c3.32-2.39,6-5.52,8.87-8.33,2.51-2.41,4.56-5.3,7.11-7.71a6.59,6.59,0,0,0,.93-1.24c3.15-5,4.95-10.52,6.59-16.07,1.86-6.26,5.64-11.13,10-15.74.91-1,1.44-.91,1.91.4a17.69,17.69,0,0,0,2,4.38,49.45,49.45,0,0,0,7.36,7.94,2.72,2.72,0,0,1,1.07,2.3c.08,3.57,0,7.18,1.17,10.63.92,2.77,1.75,5.55,3.8,7.83a10.4,10.4,0,0,1,2.47,6c.66,5.8-.28,11.54-.46,17.3a8,8,0,0,1-.84,3,53.1,53.1,0,0,0-2.46,5.52c-1.1,3.4-.95,6.91-.85,10.46a10.38,10.38,0,0,0,3.69,7.54,14.22,14.22,0,0,0,13.42,3.49c2.08-.47,4-1.54,6.14-1.63a6.14,6.14,0,0,0,3.18-.62c.35-.22.92-.4,1.09,0,.42,1.07,1.44,1.58,2.08,2.46a84.4,84.4,0,0,1,6.07,10c1.7,3.14,3.62,6.17,5.18,9.4,1.41,2.92,2.94,5.83,4.5,8.66,1.79,3.26,3.53,6.57,5.36,9.82,2.09,3.72,3.91,7.6,6.07,11.29,2,3.36,4,6.7,6.12,10a47.35,47.35,0,0,0,3.4,5.2c1.22,1.41,1,1.77-.74,2.42A15.76,15.76,0,0,0,222,594c-3.79,2.52-4.08,8.14-2,11.31,1.58,2.46,4.24,3.06,6.86,3.48a25.36,25.36,0,0,0,6.22.2c.64-.05,1.55-.25,1.49.88-.22,4.19.93,8.27,1,12.44A107.3,107.3,0,0,0,237,636c.61,4.37,1.9,8.65,2.92,13,.3,1.28.34,2.85,1.11,3.76a8.83,8.83,0,0,0,7.57,3.4c1-.07,2,0,2.43,1.41.83-1.73,2.18-1.79,3.51-1.73a8.18,8.18,0,0,0,6.87-2.82,2.64,2.64,0,0,1,1.39-1c1.54-.34,2.19-1.5,2.74-2.85,2-5,2.55-10.32,2.72-15.62.25-7.86.17-15.74.19-23.61,0-1.17.21-2,1.59-1.76a11.66,11.66,0,0,0,7.78-1.4c3.9-2,5.6-5.61,3.93-9.59-.43-1-1.41-1.88-1.56-3a3.89,3.89,0,0,0-2.79-3.17c-.77-.32-.89-.76-.54-1.31.87-1.39,1.13-3,1.84-4.47,1.73-3.51,3.33-7.09,5-10.65,1.51-3.29,3.37-6.38,4.89-9.66.84-1.82,2.05-3.5,2.76-5.37a79.67,79.67,0,0,1,5.81-11.29c1.21-2.1,1.86-4.5,3.3-6.41a33.65,33.65,0,0,0,4-6.45,6,6,0,0,1,1.27-1.85,5.81,5.81,0,0,0,1.48-2.67,5.92,5.92,0,0,1,1.22-2c1.34-1.74,3-3.38,3.44-5.62.28-1.36.88-1.37,1.94-1a26.06,26.06,0,0,0,17.13,0c4.21-1.5,7.6-3.7,9.06-8.17a4.26,4.26,0,0,1,.68-1,4.59,4.59,0,0,0,.46-5.08,44.92,44.92,0,0,0-4.85-7.3c-2.62-3-4.81-6.22-5.26-10.21-.42-3.72-.45-7.49-.55-11.24A4.72,4.72,0,0,1,333,474.8c4.43-2.78,8.13-6.14,9.83-11.45,1.22-3.83,2.34-7.58,2.1-11.63,0-.74.06-1.46-.72-2s-.32-1,.24-1.35a29.68,29.68,0,0,0,7.93-8.49c2.44-3.87,5.18-7.64,6.19-12.26.08-.36.12-.89.65-.9s.49.42.68.71c1,1.46,1.84,3,2.83,4.46,2.41,3.52,3.87,7.43,5.37,11.36s2.7,8.3,5.24,12c1.6,2.31,3.22,4.6,4.82,6.91a64.23,64.23,0,0,0,6.57,8.3c2.08,2.14,4.23,4.21,6.23,6.45s4.3,4.2,6.19,6.57a2.76,2.76,0,0,0,3.2,1.08,9.49,9.49,0,0,0,4.9-3.38c.8-1.06,1.29-.74,1.89.06a7.27,7.27,0,0,1,.74,1.15,47.36,47.36,0,0,1,2.71,6.48c1.59,4.87,3.63,9.56,4.34,14.71a10.61,10.61,0,0,0,1.43,4.59,2.8,2.8,0,0,0,2.55,1.44,2.77,2.77,0,0,0,2.24-1.94,14.94,14.94,0,0,0,.51-2.37c.22-1.92.38-3.86.6-6.26a21.73,21.73,0,0,1,1.08,2.41,50.05,50.05,0,0,1,2.31,14.15,14.14,14.14,0,0,0,1.32,5.84,4.69,4.69,0,0,0,7.38,1.57,12.92,12.92,0,0,0,4.25-7.54,41,41,0,0,0-.95-19c-1.85-6.43-4.79-12.4-7.83-18.31M181.32,329.53c1.47-4.27,3.87-8.2,4.64-12.72a24.76,24.76,0,0,1,2.37-6.31c1.61-3.39,1.88-7.11,2.83-10.67,2.52-9.39,3.78-19,4.82-28.67a144.06,144.06,0,0,0,.87-14.7,41.31,41.31,0,0,0-.57-6.2c-.14-1,.16-1.34,1-1.62a72.12,72.12,0,0,1,12.1-2.94c6.76-1.14,13.58-2,20.39-2.81a269.28,269.28,0,0,1,28.54-1.49,189.86,189.86,0,0,1,20.1.37c2.59.25,5.19.4,7.78.56a1.72,1.72,0,0,1,1.83,1.61,45,45,0,0,1,.75,7.93,19.18,19.18,0,0,0,1,5.76c.93,2.53.72,5.25,1.17,7.86,1,5.69,1.46,11.5,2.88,17.07,1.65,6.47,3,13.05,5,19.41,2.14,6.78,4.08,13.69,7.88,19.84.35.55,1.12,1.6.77,1.77-1,.46-1.58,1.55-2.79,1.52-1.73,0-3.47,0-5.2-.1-7.52-.33-15,.3-22.54.19-2.49,0-5,0-7.45.05-13.4.39-26.81.37-40.18,1.65-11.91,1.15-23.87,1.69-35.8,2.59-3.8.28-7.58.86-11.37,1.29-.38.05-.86.28-1.11-.13s.19-.74.32-1.11m-94,159.93c-3,5.15-4.08,11-5.84,16.55-1,3.24-1,6.63-1.84,9.86-.29,1-.23,2.39-1.66,2.8a2.78,2.78,0,0,1-3.44-2.34,36.29,36.29,0,0,1-.38-3.79,13.52,13.52,0,0,1,2-8.12,8.82,8.82,0,0,0,.59-1.24.81.81,0,0,0-.2-1.09.92.92,0,0,0-1.26,0A19.26,19.26,0,0,0,70.67,509a46.5,46.5,0,0,1-3.13,6.08c-2.89,5.1-4.66,10.63-6.8,16-.81,2.07-1.87,3.78-4.28,4.31a3.42,3.42,0,0,1-3.89-1.73c-2.15-3.74-1-7.5-.27-11.27,1.49-7.29,5.51-13.46,8.79-19.95,1.42-2.81,3-5.55,4.49-8.31a32.2,32.2,0,0,1,4.58-6.8,48.88,48.88,0,0,0,3-4.39,44.11,44.11,0,0,1,5-5.91c.77-.71,1.19-.68,1.86.26a39.56,39.56,0,0,0,6.24,7.06c2.25,1.94,2.58,2.55,1.06,5.12m54.37-53.75c-2.5,2.34-5.24,4.4-6.56,7.81a33,33,0,0,1-2.16,4.11c-1.81,3.25-2.74,6.82-3.89,10.3a34.74,34.74,0,0,1-8.85,13.94c-1.38,1.36-2.43,3-3.89,4.35-1.63,1.52-3.33,3-4.93,4.53-3.71,3.61-7.8,6.8-11.47,10.46a2.77,2.77,0,0,1-3.88.3,43,43,0,0,1-5.83-5c-3-3-6-6.16-8.84-9.37A80.73,80.73,0,0,1,74.09,467c-.53-.81-.09-1.45.43-2,3.85-4.17,7.51-8.61,12.2-11.82,3.81-2.61,7.5-5.41,11.47-7.83a40.59,40.59,0,0,0,6.13-4.05c1.28-1.13,3.13-1.65,4.78-2.32a56,56,0,0,1,11.23-3.27,33.7,33.7,0,0,0,7.11-2.48c3.42-1.43,6.21-3.87,9.51-5.45,1.56-.76,2.55-2.15,3.75-3.31.36-.36.71-.91,1.28-.73s.44.88.49,1.36a26.58,26.58,0,0,0,1.35,7.61c.06.16.1.33.16.54-.37,1.16-1.42,1.72-2.25,2.5M159,449.6c0,1.18-.55,1.47-1.51.66a34.09,34.09,0,0,1-6.21-6.66,41.44,41.44,0,0,1-6.48-14.67c-1.78-7.86-.63-15.63,1.79-23.28,1.15-3.66,3-6.95,4.5-10.45a1.83,1.83,0,0,1,.28-.44q3-3.76,6-7.51a5.49,5.49,0,0,1,1.05-.73c-.41,5.24.13,10.18,0,15.11-.21,7.29.33,14.55.42,21.82.1,7.5.14,15,.21,22.51,0,1.21.05,2.43,0,3.64M232.92,605a18.4,18.4,0,0,1-7.2-.44,3.54,3.54,0,0,1-2.46-3.54c0-2.54.43-4.81,3-6,.31-.14.63-.47.92-.44A15.68,15.68,0,0,0,233,594c.65-.18.57.55.58,1,0,1.15,0,2.31,0,3.89.21,1.21-.28,2.89.44,4.52.36.82-.23,1.45-1.12,1.55m31.41,17.54c-.13,3.12.11,6.25,0,9.36-.27,5.39-.42,10.83-3,15.8-1,1.91-2.25,3.3-4.68,3.12-1.55-.11-3.11,0-4.67,0v0c-1.56,0-3.12,0-4.68.06a2.72,2.72,0,0,1-2.62-1.43c-1.64-2.22-1.56-4.81-2.09-7.27-.36-1.63-.69-3.27-1-4.91-1.66-8-2.18-16.13-2.88-24.24-.28-3.28-.33-6.58-.53-9.86-.35-5.59-.82-11.17-.89-16.78a90.57,90.57,0,0,1,1.11-16.71c.43-2.42,1.41-4.74,1.42-7.27a15.7,15.7,0,0,1-.19-2.92c.67-3.59,4.76-7.14,8.71-7.39,4.16-.26,7.57,1.35,10.71,4,1.75,1.5,1.34,3.44,1.48,5.08.55,6.58,2.08,13,2.69,19.57a312.4,312.4,0,0,1,1.15,41.72m12.93-24.34c2,4.05.67,6.32-3.76,6.46h-1c-4.49,0-3.71.49-3.92-3.69a45.93,45.93,0,0,0-.22-5.86c-.17-1,.31-1.5,1.24-1.76a8,8,0,0,1,4.77.08c.89.3,1.73.81,1.84,1.86a8.61,8.61,0,0,0,1.09,2.9m27.68-78.42c-1.36,3.34-3.6,6.16-5.19,9.34-1.7,3.39-3.73,6.6-5.61,9.88-2.07,3.62-3.92,7.37-5.93,11-1.66,3-3.86,5.79-4.7,9.24-.22.89-1,1.53-1.46,2.32-2.16,3.93-4,8-5.86,12.1-1.23,2.63-2.38,5.33-3.56,8-.89,2-1.24,4.3-2,6.41-.35,1-.31,2.71-1.93,2.34-1.18-.27-.69-1.74-.76-2.67a140,140,0,0,0-2.84-20.57A56.53,56.53,0,0,1,264,557.7a5.1,5.1,0,0,0-2.38-4.35c-1.07-.71-1.73-2.05-2.79-2.77-2.46-1.68-5.35-2.28-8.24-2.77-5.94-1-9.6,2.23-12.67,6.77-1.77,2.62-2.08,5.53-2.53,8.5-.67,4.44-1.51,8.86-1.85,13.35a55,55,0,0,0-.28,10.19,2.1,2.1,0,0,1-.65,2.25c-.8-2.41-2.94-3.67-4-5.74-2.82-5.51-6.69-10.4-9.34-16a95.68,95.68,0,0,0-6.67-11,14.25,14.25,0,0,1-1.07-2.5,82.52,82.52,0,0,0-4.78-8.71c-2.12-3.66-3.7-7.61-6.11-11.14-1-1.53-1.62-3.48-2.55-5.18-1.5-2.75-2.78-5.6-4.26-8.35-.49-.91-.3-1.25.48-1.78a54.91,54.91,0,0,1,5-3.13c3.29-1.75,5.6-4.85,9.13-6.18,1.28-.49,2.05-.69,3.42.47,2.62,2.2,5.19,4.69,9,5.22,2.23.31,4.25,1.67,6.41,2.46a43.62,43.62,0,0,0,5.23,1,82.66,82.66,0,0,0,13.32,2.3c2.78.2,5.61-.38,8.42-.62,5-.43,9.74-2,14.66-2.63,2.33-.31,4.28-1.64,6.43-2.42a29.34,29.34,0,0,0,9.66-6.43c2.2-2,2.13-1.71,4.86-.44,5.32,2.46,9.55,6.48,14.44,9.55a1.5,1.5,0,0,1,.64,2.15m-8.79-85c2.67,2.83,3.21,6.69,4.81,10.05,2.2,4.65,2.37,9.73,2.45,14.72a43.31,43.31,0,0,1-3.62,17.44c-1.63,3.92-3.17,7.9-5.12,11.64a49.37,49.37,0,0,1-6.14,9C282.75,504.41,275.2,508.83,267,512a37.6,37.6,0,0,1-12.23,2.64c-2.58.09-5.16.54-8.36.65a69.83,69.83,0,0,1-17.91-2.3c-4.18-1.18-8.43-2.72-11.91-5.52a52.14,52.14,0,0,1-11.16-11.65c-1.23-1.85-2.22-3.84-3.25-5.75a31.5,31.5,0,0,1-3.67-10c-.45-2.9-1.45-5.65-1.59-8.65a71.2,71.2,0,0,1,2.65-22.26c1.68-6.15,4.3-12,6.85-17.9a39.19,39.19,0,0,1,7.28-10.54c1.92-2.12,3.7-4.38,5.45-6.64,1.43-1.85,3.44-3.05,5-4.71a1.21,1.21,0,0,1,.14-.1c.79-.65,2.39,1.08,2.86-1.17.17-.78,2.2-1.05,3.18-1.8s2.43-1.05,3.59-1.69,2.38-.94,3.46-1.52c8-4.32,16.41-2.73,24.71-1.5a16.85,16.85,0,0,1,6.67,3c2.55,1.71,5.54,2.74,8.09,4.44a18.77,18.77,0,0,1,5.3,4.77,38.78,38.78,0,0,0,4.39,4.87A40.09,40.09,0,0,1,294.65,430c.63,1.36,1.5,2.54,1.19,4.15,0,.17.16.43.31.59m42.36,27.59a4,4,0,0,1-.54,1.25c-3.61,4.32-7.23,8.51-12.86,10.48-3.08,1.08-6,2.26-9.34,2.09-.62,0-1.19.08-1.11.93s.71.69,1.29.76a15.66,15.66,0,0,0,8.69-1.74c1.11-.53,1.56-.37,1.55,1,0,1.85.56,3.8.13,5.52-.78,3.09.31,5.91.63,8.81a16.65,16.65,0,0,0,5.14,10.82c2.12,1.95,3.29,4.68,4.88,7.05.84,1.26.45,2.72-.57,4-2.91,3.67-7,4.66-11.33,5.41-6.05,1-11.58-.54-16.81-3.22-2-1-4-2.48-5.93-3.71-3.27-2.07-5.95-5.06-9.76-6.34-1.78-.6-3.05-2.19-4.88-2.87-.77-.28.05-.88.29-1.22,2-2.87,4.29-5.58,6.09-8.57S298,486.8,299,483.3a50.85,50.85,0,0,1,2.19-5.06,50.41,50.41,0,0,0,4.26-18.79,34,34,0,0,0-1.56-11.6c-.73-2.17-1.36-4.37-2.15-6.53-1.15-3.13-3.32-5.78-4.09-9.06-.62-2.63-2.58-4.59-3.43-7.11A6.51,6.51,0,0,0,293,423.5c-2.6-3.38-5.76-6.29-8.46-9.58a28.8,28.8,0,0,0-6.43-6.16c-2.53-1.62-4.92-3.59-7.8-4.69a42.72,42.72,0,0,1-4.62-2.24c-3.12-1.65-6.56-1.62-9.93-2a47,47,0,0,0-16.16,1.25,2,2,0,0,0-.66.19c-3.61,2.31-7.74,3.5-11.57,5.32-3.21,1.54-5.52,4.05-8.23,6.1a21.77,21.77,0,0,0-3.81,4.36c-2.29,3-5.21,5.52-7.35,8.66a46.19,46.19,0,0,0-4.88,9.51c-.61,1.6-1.33,3.17-2,4.75a37.54,37.54,0,0,0-2,6.39,7.67,7.67,0,0,1-.37,1.52c-3.56,8.23-4.07,16.91-3.4,25.66a51.82,51.82,0,0,0,3.56,14.73A92.44,92.44,0,0,0,203.7,497c1.1,2.11,3,3.78,4.32,5.82.6.92.44,1.33-.34,1.77a7.49,7.49,0,0,1-3,1.27,6.39,6.39,0,0,0-4.88,3.18,3.24,3.24,0,0,1-1.16,1.24c-4.22,1.94-7.45,5.42-11.53,7.52s-8.55,4.17-13.25,4.16a9.57,9.57,0,0,1-8-4.39,14.07,14.07,0,0,1-.79-13.95c2.52-5.39,2.85-10.95,3.36-16.61a74.3,74.3,0,0,0-.08-10.23c0-.49-.29-1.16.32-1.4.44-.18.84.28,1.2.57,3.75,3.06,8.25,3.56,12.84,3.71.58,0,1.41,0,1.42-.65,0-.94-.89-.63-1.48-.68-7.89-.68-14.39-3.86-18.5-10.87a28.25,28.25,0,0,1-3.47-10.6c-.76-5.58-.42-11.15-.43-16.74,0-9.3-.2-18.62-.6-27.92-.22-5.14,0-10.29-.1-15.43a108.41,108.41,0,0,1,.87-16.41c.26-2.2-.1-4.51.34-6.73A17.06,17.06,0,0,1,164,366a9.48,9.48,0,0,1,3.36-2.33c3.05-1.57,6.12-3.29,9.78-2.9,1.1.12,2.15-.68,3.34.1.62.4.91-.38.88-1-.21-3.7-.3-7.4-.63-11.08-.23-2.49,0-5,0-7.45a47.57,47.57,0,0,0-.61-8.1c-.2-1,.37-1.13,1-1.21,1.14-.16,2.3-.13,3.45-.29,8.13-1.12,16.33-1.51,24.49-2.27,12.54-1.17,25.13-1.69,37.7-2.35,10.82-.57,21.67-1,32.53-.59,5.42.18,10.86-.16,16.29-.3,4.28-.11,8.5.9,12.78.73,1.77-.07,1.9,1.33,2.06,2.62.67,5.4.78,10.83.94,16.27,0,3,0,5.89.08,8.84,0,1.86.35,2.1,2.05,1.46,2.23-.84,4.56-.58,6.86-.71s4.5-.07,6.75-.14a8.25,8.25,0,0,1,8.65,8.06c.24,7.84,1.24,15.66,1.52,23.52.27,7.1.91,14.19,1,21.31.14,8.38.83,16.74.88,25.13.05,7.63-.13,15.25-.41,22.87-.07,2,.55,4.08-.14,6.12m19.42-38.18A22.69,22.69,0,0,1,356,430a58.9,58.9,0,0,1-6.34,10.81,30.78,30.78,0,0,1-7.67,7.6c-.33.2-.7.53-1.11.33s-.36-.79-.36-1.24q-.06-6.08-.11-12.14c.15-8.55-.4-17.09-.64-25.64-.22-8.14-1.36-16.22-1.56-24.37,0-1.74.36-2.08,2-1.59,2.15.62,3.83,2.14,5.53,3.43a27.87,27.87,0,0,1,4.06,3.11c4.51,4.92,7.65,10.42,8.13,17.24.39,5.53,1,11,0,16.58m43,55.67c-.76.63-1.2.58-1.82-.2a90,90,0,0,0-9.14-9.76,71.07,71.07,0,0,1-10.76-12.95,53,53,0,0,1-6.83-14.14,73.43,73.43,0,0,0-2.55-7.31,44.46,44.46,0,0,0-3.16-5.49c-1.3-2.13-2.9-4.08-4.14-6.24-.62-1.08-2.43-1.23-2.06-3.08a20.35,20.35,0,0,0,0-4h.18c-.11-1.44-.21-2.88-.31-4.32,0-.46-.13-1,.39-1.22s.8.31,1.06.69a33.4,33.4,0,0,0,7.6,6.53,28,28,0,0,1,2.63,1.92c3.22,2.12,6.92,3.08,10.41,4.52a14.33,14.33,0,0,0,3.85.83c3.37.37,5.92,2.48,8.9,3.63a47.22,47.22,0,0,1,9.93,5.85c2,1.42,3.8,3.33,5.77,4.89,3.82,3,7.12,6.63,10.85,9.76a18.5,18.5,0,0,1,2.23,2.65,1.22,1.22,0,0,1,.14,1.45c-1.16,2.11-2,4.53-3.76,6.15-2.63,2.39-4.06,5.63-6.32,8.22a68.44,68.44,0,0,1-6.4,6.23c-2.14,1.89-4.49,3.56-6.7,5.38m33.9,40c-.89,1.34-1.94,2.34-3.62,2.28s-2.63-1.21-3.2-2.72a15,15,0,0,1-1.1-5.22c0-6.55-1.68-12.76-3.82-18.91a55.87,55.87,0,0,0-2.84-5.69,1.17,1.17,0,0,0-1.62-.59c-.65.26-.36.88-.3,1.37a2,2,0,0,0,.21.66c2.75,5,1.56,10.33,1,15.58-.05.46-.18,1-.7,1.09s-.91-.46-1.05-.94c-.29-1-.46-2-.75-3-2.12-7.22-4-14.53-7.27-21.35a49.32,49.32,0,0,0-3.17-5c3.13-1.74,4.93-4.87,7.34-7.4,1.5-1.57,2.78-3.36,4.22-5,1.17-1.34,1.84-.06,2.38.69a25.75,25.75,0,0,1,2.62,4.24c1.33,2.85,3.58,5.07,5,7.82a137,137,0,0,1,6.31,13.57,47,47,0,0,1,3.07,11.45c.76,5.87.79,11.79-2.72,17.07" transform="translate(-49.06 -236.26)"/><path class="cls-2" d="M239.08,317.51a16.78,16.78,0,0,0,4.42.75c2.31,0,4.75-.8,6-2.6,2.66-3.84,3.21-8.42,3.24-13a19.86,19.86,0,0,0-.31-4.15,10.07,10.07,0,0,0-8.24-8.28c-2.56-.37-5.69,1.5-7,3.73-1,1.6-.79,3.34-1.26,5a23,23,0,0,0,1.18,16.54,3.41,3.41,0,0,0,2,2.05m-2.15-15.4a29,29,0,0,1,1.38-6.73,5.14,5.14,0,0,1,5.32-3.48,6.45,6.45,0,0,1,6,3.61,15.58,15.58,0,0,1,1.37,7.23,31.72,31.72,0,0,1-1.36,9.17c-1.05,3.67-6,6-9.41,4.35-1.8-.85-2.26-2.64-2.73-4.39a23.89,23.89,0,0,1-.61-9.76" transform="translate(-49.06 -236.26)"/><path class="cls-2" d="M201.53,320.62a7.34,7.34,0,0,0,7.41-1.67,25.53,25.53,0,0,0,4.19-5.23,19.3,19.3,0,0,0,2.4-8.91c.31-4.29-.79-8.14-4.92-10.45-1.53-.86-3.43-1.11-4.55,0-2,2-4.48,3.5-6.09,6.15-2.41,3.95-3,8.13-3.47,11.94.08,4.16,1.4,7,5,8.17m3.95-23.75c1.28-1,2.5-2,3.93-1.37,2,.95,3.88,2.38,4.39,4.81a28.81,28.81,0,0,1,.3,3.61c.13,5.35-2.09,9.73-5.83,13.34-2.87,2.77-6.67,2.49-9.27-.48a4.68,4.68,0,0,1-.93-3.08c-.14-6.76,1.9-12.49,7.41-16.83" transform="translate(-49.06 -236.26)"/><path class="cls-2" d="M273.69,311c.57,1.82,1.07,3.86,2.78,5a12.24,12.24,0,0,0,7.08,1.84,6.33,6.33,0,0,0,6.15-5.81,25.48,25.48,0,0,0-3.9-15.76c-1.82-2.86-4.17-4.32-7.64-4.13a17.39,17.39,0,0,0-3.68.34,1,1,0,0,0-1,.72c-.94,2.8-1.78,5.58-1.37,8.62a54.22,54.22,0,0,0,1.62,9.16m-.08-13.12c.25-4,3.39-5.86,7-4.12A8.91,8.91,0,0,1,285.4,299c.72,2.05,2.14,3.85,2.42,6.07.29,2.39.87,4.77.42,7.19a5.24,5.24,0,0,1-3.93,3.92,4.63,4.63,0,0,1-.52.07c-4.21.48-5.8-.42-7.89-4.43a22.88,22.88,0,0,1-2.28-10.91c0-1-.07-2,0-2.95" transform="translate(-49.06 -236.26)"/><path class="cls-2" d="M285.64,464.67c-2.65-.17-5.31-.18-8-.26a73.15,73.15,0,0,0-17,1.48,5.52,5.52,0,0,0-4.69,4.28c-1.16,3.72-1,7.54-.91,11.34,0,2.19-.09,4.4.1,6.58a14.81,14.81,0,0,0,2.1,6c2.26,3.91,9.26,5.49,13.25,3.17,6.2-3.59,11-8.68,15.32-14.31a4.91,4.91,0,0,0,1.31-2.93,2.38,2.38,0,0,1,.62-1.39,11.66,11.66,0,0,0,3.05-8.7c-.18-3.21-1.95-5.05-5.17-5.25m3.08,6.93a16.66,16.66,0,0,1-3.73,7c-3.76,4.49-7.87,8.66-11.47,13.29-3.14,4-6.38,5.35-11.37,4.13a4.93,4.93,0,0,1-3.83-3.59c-.53-1.81-1.46-3.52-1.89-5.35a28.69,28.69,0,0,1-.34-4.83,48.6,48.6,0,0,1,1.36-11.66,2.92,2.92,0,0,1,1.93-2.48c2.63-.46,5.18-2.29,8-.75a1,1,0,0,0,.65-.08c5.75-1.91,11.67-.95,17.51-.94,2.8,0,3.77,2.48,3.17,5.28" transform="translate(-49.06 -236.26)"/><path class="cls-2" d="M212.77,455.11a23.51,23.51,0,0,0,9.28,1.49,17.52,17.52,0,0,0,5.23-.27c4.61-.51,9.11-1.14,12.4-5.08,1.79-2.14,3.17-4.25,3.19-7.14,0-5.38-.64-10.73-.86-16.1a24.59,24.59,0,0,0-3.46-11.49,2,2,0,0,0-1.79-1.1c-2.92-.21-4.9,1.62-6.69,3.41s-3.71,3.88-5.66,5.75c-2.31,2.2-4.18,4.88-6.32,7.25A50.21,50.21,0,0,0,209,447.16a6.36,6.36,0,0,0,3.82,7.95m-1.19-9.21c1.06-2,2.11-3.94,3.1-5.94,1.86-3.81,4.82-6.8,7.36-10.11,2.3-3,5.19-5.34,7.68-8.08,1.59-1.76,3.62-2.76,5.32-4.26,1-.85,1.91-.69,2.62.67a23.88,23.88,0,0,1,2.28,9.16c.34,4,.63,8,.83,12.06.15,3.2.74,6.66-1.67,9.62a13.47,13.47,0,0,1-7.8,5,26.94,26.94,0,0,1-8.26.81,23.18,23.18,0,0,1-8.85-1c-3.91-1.39-4.23-4.93-2.61-7.9" transform="translate(-49.06 -236.26)"/><path class="cls-2" d="M244.9,476c-.3-3-.92-5.82-4.58-7a46.84,46.84,0,0,0-9-1.82A36.7,36.7,0,0,0,213.93,469c-3.43,1.24-5.46,6.31-4.35,9.81a41.73,41.73,0,0,0,4.2,8.3c.31.54.78,1.31,1.25,1.36,1.74.2,2.66,1.62,3.68,2.59,4.33,4.09,9.29,7.29,14.13,10.67,1.48,1,5.32,1.1,6.62.18A12.32,12.32,0,0,0,245.12,491c0-2.25,0-4.5-.06-6.76h0c0-2.77.14-5.56-.12-8.31m-1.59,17.39a4.81,4.81,0,0,1-.77,2.43c-.9,1.66-2.41,2.78-3.71,4.06a3.47,3.47,0,0,1-3.58.56c-3-.89-5.13-3.24-7.74-4.76a42.5,42.5,0,0,1-6.39-5.07c-3-2.62-6.21-5.1-8.44-8.45-1.8-2.71-1.78-5.8-1.05-8.86a3.07,3.07,0,0,1,2.07-2.17,35.39,35.39,0,0,1,12.67-2.21c4.62.12,9.33.15,13.74,2a4.89,4.89,0,0,1,3,4.46c.14,1.49-.27,3,.11,4.61-.28,4.38-.07,8.88.06,13.38" transform="translate(-49.06 -236.26)"/><path class="cls-2" d="M260.75,454.34a5.45,5.45,0,0,0,4.12-1c1.65-1.21,4-1.24,6.16-1.31a47.78,47.78,0,0,0,12.64-1.7,2.93,2.93,0,0,0,1.22-.58c2.69-2.44,3.41-7.77,1.43-10.85-2.25-3.53-4.4-7.12-6.92-10.48A55.13,55.13,0,0,0,270,417.92c-4.1-3.26-9.1-4.57-14.35-4.66a3.18,3.18,0,0,0-2.61,1.15,14,14,0,0,0-2.43,4.74,24.87,24.87,0,0,0-.8,9.59c.38,3.5.8,7,1.11,10.49.25,3,.37,6,1.74,8.76,1.68,3.32,4.09,6,8.13,6.35m-8.29-14.21c-.12-3.43-1.38-6.67-1.39-10.09,0-1.27-.18-2.54-.27-3.8-.4-3.53,1-6.57,2.49-9.59a2.64,2.64,0,0,1,2.63-1.64c4.06.2,7.94,1,11.37,3.4,4.89,3.42,8.5,8,12,12.74a82.56,82.56,0,0,1,5.5,8.62c2.29,4.14,1.7,7-3.16,9.07-3.7,1.54-7.72,1.29-11.6,1.66-3.11.3-6.19.71-9.27,1.17a6.45,6.45,0,0,1-6.11-3.09,17.93,17.93,0,0,1-2.16-8.45" transform="translate(-49.06 -236.26)"/><path class="cls-2" d="M253.73,622.74c.83-2,1.62-4,2.34-6,.95-2.62.21-3.65-2.55-3.68h-.69c-1,0-1.36-.33-1.06-1.38.95-3.32,1.75-6.69,2.79-10a19.14,19.14,0,0,0,1-5.6c0-3.2-.43-3.67-3.69-3.6a13.52,13.52,0,0,0-1.55.14c-1.38.18-2.07-.42-1.72-1.78,1-3.85,1.08-7.92,2.71-11.61a17.39,17.39,0,0,0,1.06-4.35c.19-1.15-.06-1.65-1.4-1.61-3.31.09-4.1-1.22-2.82-4.31.95-2.29,1.75-4.65,2.76-6.91a16,16,0,0,0,1.43-4.23c0-.37.27-.91-.19-1.08-.62-.24-.73.41-.9.8-.29.69-.51,1.41-.79,2.11a90,90,0,0,1-3.9,9.39c-1.7,3.14-.49,4.56,2.91,5.33,1.79.41,2.22.63,1.28,2.23-2.68,4.57-2.36,9.82-3.53,14.72-.4,1.66.48,2.5,2.18,2.51a10.17,10.17,0,0,0,1.55-.1c2.94-.4,3.58.09,3,3a103.84,103.84,0,0,1-3.39,13.73c-1.43,4.13-1.25,4.44,2.65,4.14,1.61-.12,2,.44,1.32,2a51.32,51.32,0,0,0-1.9,5c-.94,3.07-1.5,6.26-2.61,9.3-.24.67-.93,1.51-.06,2.22a2.57,2.57,0,0,0,2.47.24c2.43-.68,2.68-.47,2.6,2.1a15.29,15.29,0,0,1-.25,1.89c-.23,1.6-.51,3.19-.71,4.79-.06.47-.15,1.18.6,1.21.59,0,.65-.59.73-1,.36-2.1.82-4.19,1-6.3.37-4.22.24-4.28-3.95-3.92-.64,0-1.35,0-1-.85,1.21-2.71,1.11-5.76,2.25-8.48" transform="translate(-49.06 -236.26)"/></svg>