<svg id="Layer_1" data-name="Layer 1" xmlns="http://www.w3.org/2000/svg" viewBox="0 0 310.24 452.89"><defs><style>.cls-1{fill:#fff;}.cls-2{fill:#010101;}</style></defs><path class="cls-1" d="M159.28,487.58c3.24,2.08,6.54,4,9.83,6,2.85,1.71,6.09,1.76,9.07,2.78a30.54,30.54,0,0,0,11.45,1.45c7.51-.41,14.39-3.48,21-7a38,38,0,0,0,6.82-4.48c1.54-1.31,2.73-3,4.6-4a8.88,8.88,0,0,0,1.95-1.11c5.52-5,9.24-11.35,13.43-17.36,1-1.38.5-2.16-1.07-2.62-3.79-1.12-7.59-2.24-11.39-3.28-7.75-2.14-15.73-1.58-23.62-.82-4.46.43-9,.45-13.3,2.09-.52.19-1.48.52-1.59-.6-.07-.71.09-1.3,1.06-1.43,3-.42,5.56-2,8.4-2.88,5.78-1.81,11.67-3.31,16.73-7,4.88-3.57,9.48-7.34,13-12.32,1.58-2.26,1.29-4.38-1.16-5.44-3.56-1.53-6.48-4.07-10-5.76-5.56-2.67-11.41-3.8-17.32-4.78-2.58-.44-5.25-1.1-7.73-.71a8.12,8.12,0,0,0-2.45.22c-5.8,2.6-12.16,4.05-17.06,8.49-1.21,1.1-3.34,1.35-2.85,3.76.08.43-.6.58-1,.82a38.44,38.44,0,0,0-9.64,8.56c-5.9,7-8.53,15.47-9.06,24.4-.41,6.8,1.41,13.25,6.33,18.47a29.37,29.37,0,0,0,5.61,4.51m32.36-16.52c1.08-.58,2.63-.42,2.82-2.17,0-.28.5-.38.79-.21a10.5,10.5,0,0,1,4.06,3.78c.67,1.27-1.33,5.2-2.68,5.9-3.62,1.89-6.51.23-6.78-4a3.14,3.14,0,0,1,1.79-3.31m-4.13-35.49a3.85,3.85,0,0,1,4.11,3.9c.14,2.39-2.4,4.95-5.08,5.12-2.41.16-5.63-2-5.69-3.9-.08-2.4,3.21-4.93,6.66-5.12" transform="translate(-142.47 -191.69)"/><path class="cls-1" d="M193.94,477.41a3.73,3.73,0,0,0,3.44-3.64c-.08-1.71-1.39-1.24-2.43-1.46-1.15.7-3.49,0-3.07,2.65.19,1.27.37,2.5,2.06,2.45" transform="translate(-142.47 -191.69)"/><path class="cls-1" d="M292.39,331.65c.54,1.12,1.06,1.3,2.05.53,1.88-1.46,4.19-1.7,6.49-2.19,2.07.51,2.35-.62,2.29-2.41a50.42,50.42,0,0,1,.29-6.62c.14-1.45-.23-2.09-1.78-2.14a23.1,23.1,0,0,0-13.06,3.36,1.11,1.11,0,0,0-.34,1.88c1.89,2.26,2.82,5,4.06,7.59" transform="translate(-142.47 -191.69)"/><path class="cls-1" d="M287.65,335.84a8.49,8.49,0,0,1,1.71-.61c2.56-.68,2.64-.9,1.13-3.05a10.19,10.19,0,0,0-.77-1.13c-1.55-1.65-1.55-4.11-3.07-5.79-.62-.68-.92-1.08-1.92-.32-2.53,1.9-3.85,4.21-3.34,7.07.34,4.78,2.31,5.87,6.26,3.83" transform="translate(-142.47 -191.69)"/><path class="cls-1" d="M309.78,330.3a7.18,7.18,0,0,0,3.1-1.35,2.7,2.7,0,0,0,.79-3.83,9.7,9.7,0,0,0-5.2-4.56c-1.76-.65-2.91-.45-2.81,1.86a41.78,41.78,0,0,1-.21,4.32c.05,3.69.68,4.21,4.33,3.56" transform="translate(-142.47 -191.69)"/><path class="cls-1" d="M308.82,286.91a1.53,1.53,0,0,0-.78,1.24c-.24,4.13-.14,8.27,1.32,12.14.91,2.44,1.58,5.15,3.84,6.9,5.9,4.57,15.57,3.32,20.37-2.45a16.57,16.57,0,0,0,3.86-14.22,33.89,33.89,0,0,0-.62-4.52c-.54-2-.51-4.39-2-6a32.58,32.58,0,0,0-5-4c-2.23-1.59-4-1.54-6.16.21-4.75,3.84-10,7-14.86,10.68m20.63,10c-.35,2-3.55,4.25-7.14,4.51a6.89,6.89,0,0,1-6.11-3.11c-1.14-1.83-.75-4,.28-5.89.89-1.66,2.47-1.69,3.49-.11a3.77,3.77,0,0,0,.31.6c.63.7,1.19,1.93,2.34,1,.91-.72.35-1.65-.25-2.41-.23-.3-.49-.58-.73-.88s-.6-.9-.27-1.45a1.34,1.34,0,0,1,1.39-.55,7,7,0,0,1,6.69,8.27" transform="translate(-142.47 -191.69)"/><path class="cls-1" d="M267.48,349.08c2.36.57,4.66,1.36,7,1.85,3.24.67,6.52.65,9.72,1.18,9.47,1.57,18.54,0,27.5-2.87,3.19-1,6.27-2.34,9.39-3.55,6-2.34,12.07-4.57,17.55-8.1a37.38,37.38,0,0,0,5.06-3.37c1.15-1,2-2.82,4-2.81,1.48,0,2.55-.81,3.7-1.54,1.51-1,2.8-2.4,4.22-3.23,6.65-3.91,12.11-9.27,18-14.06a23.94,23.94,0,0,0,5.69-6.44,67.94,67.94,0,0,1,6.17-8.3c3.07-3.81,5-8.13,7.47-12.19.91-1.49.83-3.82,3.61-2.83.3.11.73-.15,1.1-.24,2.52-.59,5-1.23,7.57-1.74a21.44,21.44,0,0,1,8.18-.35,1.49,1.49,0,0,1,1.36,1.76c-.05,1.16-.95,1-1.68,1s-1.35-.28-2-.35-1.27-.52-1.6.3a1.74,1.74,0,0,0,.4,1.7,3.71,3.71,0,0,0,4,1.53c2.14-.42,3.87-1.32,4.61-3.57,1.36-4.08.58-8-.86-11.86-.56-1.5-4.4-4-5.53-3.7a4.8,4.8,0,0,0-3.52,5.6c.14,1,.51,1.16,1.32.81.49-.21.95-.5,1.45-.67.89-.32,2-1.13,2.51.28.39,1.14-.8,1.35-1.63,1.72-3.77,1.64-7.86,1.75-11.82,2.47a19.91,19.91,0,0,1-16.56-4.25c-2.69-2.13-5.62-3.94-8.39-5.88-3-2.13-6.18-4.29-9.47-6.16-3.12-1.77-6-4-9.46-5.11-.5-.16-1.27-.32-1.39-.66-1-2.94-2.32-.81-3.25-.14-5.2,3.78-10.41,7.57-15.45,11.58-1.92,1.52-4,2.67-6,4.07-2.34,1.67-2.3,2.3.19,3.28,4.59,1.8,7.16,5.36,8.26,9.87,2.23,9.14,1.78,17.68-6.31,24.26a16.34,16.34,0,0,1-13.73,3.41,13.14,13.14,0,0,1-7.64-3.76c-4.41-4.63-5.24-10.28-5.47-16.22a5.64,5.64,0,0,0-.09-2.47c-3.63,2.69-7.24,5.07-10.45,7.9a6.85,6.85,0,0,1-4.38,1.65c-3.48.32-6.36-1.2-9.29-2.64-1.07-.53-2-.85-1.71,1a23,23,0,0,1-3.58,16.57c-3.77,5.84-9.51,8.39-16.2,8.78-4.35.26-8.45-1-11.16-4.64-4.66-6.27-5.11-18.34-.61-24.79,2.06-2.95,3.71-6.52,7.62-8.2-4.16-2.64-8.44-4-12.41-6.08-6.71-3.47-13.56-6.67-20.06-10.53-.53-.31-1.25-.73-1.59,0-1.66,3.64-5.53,4.87-8.23,7.33-3.66,3.31-6.83,7-10.22,10.54-3.95,4.09-8,8.12-11.08,13-.49.75-1.09.56-1.78.63-3.1.29-6.3.29-9.25,1.14-4.24,1.24-8.33.45-12.48.05-.86-.08-1.13-.68-1.08-1.46a1.18,1.18,0,0,1,1.39-1.19c.83.06,1.64.31,2.47.43,1.1.16,2.54,1.18,3.2.33.84-1.06-.78-1.92-1.35-2.81-1.87-2.91-4.73-4.11-7.59-3.41-3.33.82-3.67,3.92-3.92,6.31a10.76,10.76,0,0,0,5.49,10.91c2.83,1.69,4.87.84,5.88-2.53a2.94,2.94,0,0,0-2.37.45c-.66.41-1.39.44-1.78-.33s.24-1.08.78-1.42a16.51,16.51,0,0,1,6.59-2.41c4.45-.62,9-.58,13.46-.88a4.89,4.89,0,0,1,3.34,1.1c1.72,1.22,2.79,3,4.33,4.36,3.4,3,6.77,6,10.17,9,2.83,2.48,5.44,5.3,8.56,7.34,5.48,3.59,10.65,7.56,16.72,10.38s12.18,6,18.36,8.76a87.91,87.91,0,0,0,16,5.17m14.46-24.91c3-3.5,7.17-4.95,11.19-6.74,4.56-2,8.74-.78,13.27.31,3.68.88,5.9,3.14,8.41,5.35a4.7,4.7,0,0,1,0,7.06,8.91,8.91,0,0,1-7.54,2.43,16.31,16.31,0,0,0-5.27-.25c-3.62.14-6.67,1.89-9.69,3.68-2.43,1.44-4.83,2.91-7.81,2.86a6,6,0,0,1-5.21-4.27,11.46,11.46,0,0,1,2.65-10.43" transform="translate(-142.47 -191.69)"/><path class="cls-1" d="M185.85,416.53a48.27,48.27,0,0,1,11.89,0c.6.1,1.38.24,1.06-.82a25.12,25.12,0,0,1-.56-5.46,211.19,211.19,0,0,1-.74-27.21c.08-1.61.43-3.2,2.12-4a17.72,17.72,0,0,0,4.4-3.59c1.89-1.83,1.71-2.17-.11-4.17-2.48-2.75-5.64-4-9.1-4.9-2.17-.58-3.52-.39-4.57,1.59a43.78,43.78,0,0,0-2.23,5c-2,5.41-2.37,11.13-3.16,16.79a164.6,164.6,0,0,0-1.69,21.69c.07.9.2,1.89.2,2.88,0,1.73.6,2.37,2.49,2.21" transform="translate(-142.47 -191.69)"/><path class="cls-1" d="M203.38,378.11c-1.91,1-2.71,2.58-3.2,4.64-.72,3-.13,6.08-.73,9.09-.7,3.49.33,7,.25,10.49-.1,4.76.93,9.5.73,14.29,0,.45.43.51.81.62,3,.86,6,1.63,8.94,2.67,3.55,1.26,7.3,2.08,10.4,4.41,2.55,1.91,5.11,3.81,7.63,5.75.94.73,1.92,1.79,1.09,2.91-1.48,2-2.36,4.63-4.11,6.18-3.68,3.23-6.84,7.1-11.08,9.69a18.9,18.9,0,0,1-4.8,2.51c-2.6.72-4.71,2.64-7.33,3.63a22.49,22.49,0,0,0,4.85,0,70.79,70.79,0,0,1,19.7,1.21c4.17.93,8.19,2.32,12.27,3.53,1.21.36,1.41,1.21,1.15,2.35a22.3,22.3,0,0,1-2.26,4.94c-.59,1.17-.3,1.41.7,2,1.93,1.13,4,.69,6,1.1,5.51,1.16,11,2.65,16.6,3,4.85.32,9.74.54,14.55,1,9.62,1,19.21.58,28.78.06a107.48,107.48,0,0,0,19.45-2.53c6.21-1.51,12.46-2.89,18.59-4.68s12.45-4,18.62-6.19a30.85,30.85,0,0,0,6.65-3c3.75-2.43,8.17-3.66,11.64-6.58,2.41-2,5.61-2.59,8.16-4.44a47.89,47.89,0,0,1,6.89-4.38c2.34-1.17,4.88-2.08,7.3-3.88a6.85,6.85,0,0,0-3-.47c-3.2-.11-6.54.27-9.56-.53-6.37-1.67-12.89-3.06-18.86-6-1.35-.67-2.56-1.6-3.92-2.23-2.81-1.28-3.35-2.34-1.92-5.11,3.28-6.31,6.48-12.53,12.11-17.38a111,111,0,0,1,12.76-9c3.81-2.45,8.21-3.56,12.52-4.82,1.11-.32,2-.7,1.92-2.11-.08-1.59,0-3.19-.07-4.8-.11-6.63-2.05-12.91-3.62-19.27a1.48,1.48,0,0,0-.86-.95,48.14,48.14,0,0,1-5.14-3.23c-.83-.65-2.11-1.43-3.1-1-1.71.69-2.9,0-4.25-.75-3.32-1.77-6.35-4.33-9.74-5.6-3.8-1.44-6.91-4-10.69-5.38a109,109,0,0,1-14.27-7c-2.73-1.51-5.95-1.68-8.55-3.59a3.33,3.33,0,0,0-3.66,0c-3.55,2.57-7.8,3.68-11.65,5.63-6,3-12.62,4.25-18.59,7.16-7.34,3.58-15,2.71-22.65,2.36-4.22-.2-8.37-1.4-12.59-1.85a35.55,35.55,0,0,1-7.1-1.56c-4.56-1.43-9.16-2.72-13.75-4.07-.44-.13-1-.41-1.28,0-1.15,1.75-3.2,1.61-4.8,2.39-7.29,3.56-14.1,8-21.06,12.11a112.26,112.26,0,0,0-9.5,6.43c-3.81,2.83-7.91,5.34-11.39,8.62a9.37,9.37,0,0,1-2,1.53" transform="translate(-142.47 -191.69)"/><path class="cls-1" d="M171.69,423c2.15-1.28,4.28-2.78,6.64-3.49,3.49-1.07,3.84-3,3.49-6.32a100,100,0,0,1-.07-16.44,53,53,0,0,0-7.29,8.62c-2.92,4.44-3.73,9.39-4.36,14.45a10,10,0,0,0,.07,2.5c.13.93.48,1.3,1.52.68" transform="translate(-142.47 -191.69)"/><path class="cls-1" d="M186.61,442.67c2.16-.17,3.38-1.5,3.1-3.41-.21-1.42-.77-2.53-2.35-2-2.14.2-4.69,2.18-4.37,3.5.43,1.81,2,2.08,3.62,1.95" transform="translate(-142.47 -191.69)"/><path class="cls-1" d="M248.21,311.13c.59,4.72,3.81,7.5,7.78,9.07,4.6,1.82,14.24-1.8,17.2-5.82a34.05,34.05,0,0,0,4.54-9.6c2.06-6.15-.29-10.72-6.21-13.28-4-1.74-8.26-3.1-12-5.56a1.84,1.84,0,0,0-2.49.25c-6.14,5.68-10.41,12.16-9.14,21.23.09,1.12.13,2.42.29,3.71m8-9.25a1.83,1.83,0,0,1,3.28-.11c.69,1.09,1.42,1.85,2.49.88s.71-2.23-.37-3.14c-.66-.57-1.89-.92-1.31-2,.67-1.3,1.86-.68,2.84-.28,1.78.75,4.07.3,5.36,2.2,1.16,1.72,2.25,3.44,1.23,5.71-1.31,2.94-3.39,4.79-6.29,5.27-2.37-.11-4.4.17-6.08-1.6a5.68,5.68,0,0,1-1.15-6.89" transform="translate(-142.47 -191.69)"/><path class="cls-1" d="M351.53,468.2c-.08-.87-.09-1.83-1.39-1.46a47,47,0,0,0-5.3,1.39,102,102,0,0,1-23.57,6.24c-7.65,1.11-15.4,1.53-23.12,2.13-5.95.47-11.87.18-17.81.08-6.55-.11-13-1.24-19.57-1.51-1.3-.05-3.07-1.21-3.81,0s.4,2.76.86,4.13c.75,2.27,2.29,4.75,2.28,6.67,0,3.32.71,6.45,1,9.66.25,2.53,1.13,4.87,4.42,4.93.64,0,1.26.52,1.92.68a42,42,0,0,0,9.77,1.62c-4.8-3.26-10-3.74-14.9-6.14a3.3,3.3,0,0,1,3,.18c3.67,1.45,7.31,3,10.95,4.44a39.19,39.19,0,0,0,4.65,1.86c5.28,1.4,10.74.86,16.1,1.09,10.54.44,21.09-.12,31.32-3,4.68-1.32,9.52-1.95,14.09-3.79,3.14-1.25,5.71-3.52,9-4.42,1.16-.32.92-1.18.68-2a45.89,45.89,0,0,1-1.21-14.54c.13-2.75.87-5.45.61-8.22" transform="translate(-142.47 -191.69)"/><path class="cls-1" d="M395.82,361.5c1.91,1.1,3.91,2,5.06,4.12,3.23,5.81,4,12.27,4.87,18.68.15,2.13.43,4.26.43,6.39,0,1.38.49,1.32,1.64,1.29,2.34-.06,4.71-.82,7-.14s2.51.69,2.08-1.78c-.67-3.91-1.52-7.79-2.32-11.67-1-4.79-2.77-9.35-4.07-14A56,56,0,0,0,406.37,354c-1.45-2.84-4.47-3.52-6.67-1.66a26.06,26.06,0,0,0-4.83,5.12c-1.47,2.17-1.33,2.75.95,4.05" transform="translate(-142.47 -191.69)"/><path class="cls-1" d="M415.64,394.38c-6.68-.33-13.29-.1-19.65,2.82s-12.63,6.09-17.8,10.83a50,50,0,0,0-11.94,17.21c-.36.82.05,1.16.6,1.7,2.43,2.38,5.72,3.07,8.63,4.49,4,1.94,8.47,2.32,12.68,3.54a39.41,39.41,0,0,0,21.22.21c1.69-.43,3.43-.62,5.15-.93,1-.18,1.2.38,1.13,1.2s-.25,1.24-1.13.83-1.81.19-2.6.49c-5.89,2.25-11.53,5.06-17.21,7.8-2.15,1-3.83,2.75-5.91,3.77-3.58,1.75-6.13,4.64-8.84,7.34s-4.43,5.84-6.41,9c-1.05,1.67-.9,2.44.4,3.6,4.25,3.8,9.27,6.13,14.57,8,6.72,2.37,13.62,1.8,20.54,1.57,5.52-.18,9.46-4.16,14.47-5.32,1.9-.44,2.25-2.21,3.83-2.89a18.66,18.66,0,0,0,6-4c4.57-4.79,9.31-9.41,11.33-16.17,1.55-5.14,3.16-10.14,2.72-15.58-.18-2.13-.32-4.26-.48-6.39-.74-4.18-.52-8.5-2.62-12.43-3.84-7.16-7.72-14.24-16-17.26-4.14-1.52-8.33-3.17-12.73-3.39m-4.89,25.48c-2.08.15-5.76-2.56-5.87-4.31-.18-3.23,2.18-6.74,4.59-6.83,2.21-.08,5.31,3.68,5.52,6.71a4.26,4.26,0,0,1-4.24,4.43m3.77,55c.43-.84,1-1.15,4.41-2.2-1.24,1.48-2.91,1.65-4.41,2.2m.91-13.29c-2.35.07-5.68-2.4-5.72-4.24-.08-3.78,2-6.56,5-6.63s4.41,2.93,5.07,6.84c.34,2.06-1.94,4-4.38,4" transform="translate(-142.47 -191.69)"/><path class="cls-1" d="M409.1,410.61c-1.53.49-1.83,1.93-1.71,3.33.2,2.33,1.58,3.77,3.46,3.59,1-.37,2.45-.56,2.4-2.29s-3-5-4.15-4.63" transform="translate(-142.47 -191.69)"/><path class="cls-1" d="M414.54,452.82c-1.66.08-2.74.82-2.54,2.55,0,2.19,1.46,3.78,3.24,3.79,1.42,0,2.35-.53,2.33-2.1,0-2.74-1.13-4.32-3-4.24" transform="translate(-142.47 -191.69)"/><path class="cls-1" d="M420.57,393.18c3.19.13,6.08,1.36,9,2.54,2,.81,2.18.16,1.84-1.63-1.66-8.79-7.1-14.43-15-18.22a7.77,7.77,0,0,0,0,1c.92,5,1.87,10.06,2.77,15.09a1.31,1.31,0,0,0,1.42,1.19" transform="translate(-142.47 -191.69)"/><path class="cls-1" d="M246.72,255.12C253.8,258.45,261,261.54,268,265c5.43,2.69,11.1,4.78,16.56,7.4a2.56,2.56,0,0,0,3.41-.75,30.59,30.59,0,0,1,4.77-4.25c6.29-4.46,12.44-9.14,18.72-13.62,4.75-3.4,9.58-6.73,14.29-10.51-4.52-1.38-8.89-3.1-13.66-3.35-3.62-.19-7.22-.7-10.84-.77-2.74-.06-5.35-.83-8.07-.9-8.86-.22-17.05,3.11-25.39,5.22a84.89,84.89,0,0,0-20.94,8.77c-1,.55-2.58.93-2.62,1.9s1.62.57,2.48,1" transform="translate(-142.47 -191.69)"/><path class="cls-1" d="M277,211.35c-.8-2.37-1.55-5-4-6.52-.48-.29-.9-1.06-1.53-.6s-.31,1.13-.32,1.81c1.58,5.33,2.15,11,4,16.35,1.27,3.75,2.38,7.55,3.61,11.31.24.73.35,1.67,1.67,1.27a30.32,30.32,0,0,1,4.9-1.05c1.15-.15,1.65-.71,1.07-1.61-1.72-2.68-2.13-5.84-3.38-8.7-1.83-4.17-4.54-7.89-6-12.26" transform="translate(-142.47 -191.69)"/><path class="cls-1" d="M332.65,579.73c-1.46-.07-.65,1.37-.84,2,0,1.38-.07,2.76,1.73,2.74,1.17,0,1.24-1,1.16-1.83-.14-1.33-.52-2.82-2.05-2.89" transform="translate(-142.47 -191.69)"/><path class="cls-1" d="M293.25,551.14c-5.48-.21-11.06-.15-16.39-1.26-9.15-1.9-18.52-3-27.32-6.33-2.06-.77-4.61-.38-6.22-2.7-.91-1.32-2.34-1-2.91.91s-.56,4.08-1.08,6.06c-1,3.67-2.1,7.3-3.27,10.92-.45,1.36.06,1.63,1.24,1.56.6,0,1.22,0,1.82,0,8.53-.85,16.56,1.91,24.75,3.49,2.65.51,4.65,2.34,6.72,3.75,3.28,2.23,6.53,4.7,8,8.81,1.88,5.37,4.11,10.62,5.95,16,1,2.79,3.17,3.81,5.52,4.61,1.92.66,4,.78,6,1.27,1.14.28,1.12-.07,1.26-1.08a58,58,0,0,0,0-9.13c-.3-10.68-.68-21.36-1-32.32a4.43,4.43,0,0,1-.2-1.53c.47-2.4-.6-2.9-2.83-3m-2.64,37.39a4.06,4.06,0,0,1-4.23-3.59c-.28-1.09.89-2.65-.47-4-.3-.29.08-.69.41-.91a5.27,5.27,0,0,1,8,3.59c.25,1.68-2.08,4.77-3.7,4.89" transform="translate(-142.47 -191.69)"/><path class="cls-1" d="M290.14,581.38c-1.79.21-1.14,2-1.39,3,.11,1.14.28,2.23,1.5,2.06,1.46-.19,1.61-1.66,1.55-2.7s-.42-2.49-1.66-2.34" transform="translate(-142.47 -191.69)"/><path class="cls-1" d="M292,600c-4.67-1.43-9.16-3.32-10.56-8.84-.67-2.66-1.55-5.27-2.35-7.89-2.59-8.47-7.65-14.52-16.36-17.23-1.66-.51-3.34-1-5-1.48a55.18,55.18,0,0,0-17.38-2c-3.62.1-3.57.34-4.63,4a36.65,36.65,0,0,1-1.63,3.77c-.9,2.09-2.18,4.1-2.61,6.28-1.51,7.58-3.85,15.09-3,23a50.1,50.1,0,0,0,4.76,19.33c4,8.33,10.62,12.86,19.24,15,3.75.92,7.67,1.27,11.33,2.44a24.62,24.62,0,0,0,15.84.16,25.05,25.05,0,0,0,12.73-9.2c2.53-3.48,3.25-7.83,3.18-12.18-.08-4.12-.83-8.24-.83-12.31,0-2.67-1-2.33-2.74-2.85M238.4,573a57.09,57.09,0,0,0-1.76,7.34c-.81,4.55-1.16,9,.13,13.55.24.84.88,1.87-.64,2.12-1.36.22-1.62-.78-1.79-1.83a35.83,35.83,0,0,1,.49-13.61,56,56,0,0,0,1.61-8c.06-.74.4-1.18,1.13-1.13s.77.78.83,1.57" transform="translate(-142.47 -191.69)"/><path class="cls-1" d="M353.23,484.38a41.12,41.12,0,0,0,1.18,6.3c.28.94.67,2.08-.4,2.72-2.93,1.76-5.59,4.15-8.93,5-3.68,1-7.28,2.23-10.87,3.4-12.18,3.94-24.65,4.77-37.3,4.5a84.88,84.88,0,0,1-8.89-.16c-8.22-1.06-16.5-1.69-24.6-3.67a4.75,4.75,0,0,1-3.45-2.56,10.38,10.38,0,0,1-1.08-3.71c-.27-2.27-.56-4.54-.83-6.81-.19-1.63-.87-2.29-2.69-2-6.31.93-12.09,3-16.87,7.38-3.63,3.34-7.07,6.89-6.86,12.23.3,7.88-.07,15.87,4,23.17a21.26,21.26,0,0,0,11.87,10c1.48.52,2.29,1.82,3.77,2.12,6.16,1.28,12.21,3,18.38,4.28A197.27,197.27,0,0,0,290,549.49c9.51.92,19.06-.15,25.8-.12a220.65,220.65,0,0,0,25.53-2.63,176.18,176.18,0,0,0,21.6-4.87c4.75-1.42,9.44-3,13.43-6.22,4.64-3.72,8.63-7.85,10.05-13.88a27.27,27.27,0,0,1,1.11-4.84c3.66-8.22-.46-14.71-4.86-20.89-1.64-2.31-4.29-4.05-6.88-5.56a57.68,57.68,0,0,0-9-4.35,61.09,61.09,0,0,0-12-3.41c-1.32-.21-1.8.29-1.61,1.66m-95.48,32.47c1.72.47,3.47.85,5.15,1.42a25.32,25.32,0,0,1,3.19,1.55l-.24.66-8.27-3.15.17-.48m115.66-5.57c.4-.29.91-.77,1.37-.1s.1,1-.47,1.49c-2.11,1.77-4.79,2.32-7.21,3.37-5.22,2.26-10.8,3.42-16.37,4.51-6.2,1.22-12.4,2.46-18.61,3.63a133.89,133.89,0,0,1-16.37,1.73c-9,.44-19.66,1.82-30.29.19-6.4-1-12.93-.72-19.27-2.18-5.34-1.22-10.69-2.39-16-3.57-.94-.2-1.72-.65-1.35-1.67s1.24-.84,2.12-.48c5.46,2.22,11.35,2.68,17,4,.29.07.77.13.88,0,1.69-2.15,3-.47,4.5.31a5.24,5.24,0,0,0,2.43.55c5.6-.12,11,1.59,16.68,1.34s11.37.75,16.89,0c6-.82,12.06-1.26,18-1.82,7.29-.67,14.35-2.43,21.55-3.4,6.51-.87,12.78-3.31,18.95-5.75,1.83-.72,3.85-.93,5.51-2.13" transform="translate(-142.47 -191.69)"/><path class="cls-1" d="M376.41,557.22c-4,1.24-8.15,1.95-11.74,4.23a35.3,35.3,0,0,0-10.34,10.28,11.11,11.11,0,0,0-1.66,3.74,35.72,35.72,0,0,1-6.42,13.92,25.52,25.52,0,0,1-16.36,10.29c-3,.57-3.11.72-2.09,3.64a1.72,1.72,0,0,1,.09.44c0,3.93,1.07,7.65,2,11.42,1.83,7.18,4.71,13.76,10.16,18.93,3,2.81,6.48,5.43,10.48,5.55,5.95.19,12,.28,17.78-2.26,2.64-1.17,4.76-3,7.18-4.37,3.11-1.79,5.2-4.51,7.2-7.33a32,32,0,0,0,4.69-9.56,43.21,43.21,0,0,0,2-10.2c.16-3.6-.3-7.17-.42-10.76a85.06,85.06,0,0,0-4.94-24.55c-.76-2-.83-4.33-2.21-6.2-1.57-2.13-3-4.36-4.41-6.6-.29-.47-.55-.76-1-.61m5.15,30.44a6.46,6.46,0,0,1,.16,1.81c0,.74-.4,1.41-1.18,1.45s-.71-.8-.77-1.36c-.09-.75-.12-1.51-.18-2.27-1.21-4.38-.59-9.14-2.72-13.34a1.11,1.11,0,0,1,.57-1.7c1.05-.42,1,.52,1.19,1.14,1.56,4.64,1.72,9.56,2.93,14.27" transform="translate(-142.47 -191.69)"/><path class="cls-1" d="M345.88,586.22c2.11-3.38,3.19-7.2,4.5-10.9A28.49,28.49,0,0,1,358.61,563a37.43,37.43,0,0,1,16.1-7.74c3.49-.83,3.51-.75,2.29-3.89-.08-.21-.05-.51-.19-.65-2.15-2.17-2.26-6.18-6.15-6.81-.34,0-.74-.59-.86-1-.36-1.19-1.11-1-2-.72-4.08,1.21-8.14,2.51-12.33,3.34-8.2,1.64-16.24,4.18-24.66,4.67-2.88.17-5.76.42-8.8.65a10.7,10.7,0,0,1,1,2.77c.47,7.55,1.11,15.09,1.5,22.63.38,7.17.53,14.36.76,21.53,0,.88.09,1.5,1.3,1.13,7.68-2.36,14.81-5.52,19.3-12.71m-11.67.28c-2.72.15-4.69-1.29-4.76-3.48-.08-2.63,1.2-5.25,2.63-5.39,2.49-.25,4.69,2,4.85,4.94.13,2.43-.83,3.83-2.72,3.93" transform="translate(-142.47 -191.69)"/><path class="cls-1" d="M276.1,204.66c1.58,2.18,2,4.86,3.21,7.24.86,1.76,1.92,1.82,2.95.65,2.05-2.33,4.16-4.76,4-8.16-.07-1.63.1-3.46-1.66-4.51A21.19,21.19,0,0,0,274,196.72a11.83,11.83,0,0,0-9.12,4.2c-4.31,4.81-.08,12.79,4.92,14.3,1.63.49,1.72-.3,1.31-1.53-.61-1.81-1.24-3.61-1.85-5.41-.78-2.33-.25-5.68,1-6.39,1.7-1,3.93.1,5.87,2.77" transform="translate(-142.47 -191.69)"/><path class="cls-1" d="M226.06,267.72c1.19.49,2.27,1.23,3.44,1.78,4.25,2,8.34,4.36,12.54,6.47,4.47,2.25,9.14,4.09,13.7,6.16,5.2,2.35,10.31,4.9,15.57,7.08,4.32,1.79,8.25,4.41,12.76,5.72,2.61.76,5.27,1.35,7.9,2a3.39,3.39,0,0,0,1.7-.76c3.15-2.5,6.19-5.16,9.54-7.37,3.78-2.5,7.15-5.53,10.9-8.08,3.92-2.66,7.79-5.46,11.53-8.44,5.44-4.35,11.29-8.18,16.73-12.56a80.93,80.93,0,0,1,11-7.69c.37-.21.82-.66.84-1,.07-1.63,1.3-2.35,2.37-3.17,1.56-1.2,3.13-2.39,4.76-3.48.9-.6.76-1,.22-1.78-.77-1.14-2.2-1.29-3-2.38-2-2.79-4.76-4.92-6.21-8.14a14,14,0,0,0-2.35-2.74c-.74-.88-1.44-.65-2.12,0-1.94,2-4.43,3.34-6.53,5.2-4.61,4.07-9.88,7.3-14.86,10.89-4.36,3.14-8.76,6.24-13.15,9.34-3.6,2.53-7.41,4.79-10.79,7.58-4.15,3.44-8.72,6.32-12.71,10-2.35,2.17-4.59,3-8.32,1.21-4.37-2.14-8.79-4.4-13.4-6.17-3.38-1.29-6.42-3.48-9.81-4.75-6.79-2.56-13.22-5.92-20.12-8.3-5.37-1.85-10.86-3.81-15.81-6.83a11.63,11.63,0,0,0-1.23-.6c-1.16-.52-1.92-.38-2.52,1-1.63,3.65-3.42,7.24-5.16,10.85-.71,1.47-.3,2.36,1.24,3,1.24.55,2.73.53,3.78,1.52a23.68,23.68,0,0,0,7.56,4.42" transform="translate(-142.47 -191.69)"/><path class="cls-2" d="M146.84,483.16c5.23,5.73,11.47,10,18.2,13.79a39.5,39.5,0,0,0,14.11,4.83,6.88,6.88,0,0,1,3.66,1.14,3.41,3.41,0,0,0,2.77.74,88.28,88.28,0,0,0,10.17-1.45c8-2,15.63-4.58,22.65-9.3a69.94,69.94,0,0,0,16.32-15.07c1.08-1.37,2.62-2.77,4.13-2.35,3.68,1,7.41,1.79,11.09,2.73,1.72.44,2,2.13,2.07,3.46s-1.4.86-2.18.93c-3.12.29-6.26.56-9.08,2-5.71,2.95-9.76,7.77-12.69,13.23-2.81,5.26-3.19,11.33-3.53,17.28-.22,3.74,1,7.23,1.95,10.72,1.34,5,2.93,9.93,7.29,13.32a2.05,2.05,0,0,1,.71,2.32c-1.21,6.2-3,12.26-4.53,18.36-.43,1.66-.93,3.26.74,4.57.54.42-.05.8-.12,1.2-.35,2.22-1.92,3.9-2.64,5.93a74.77,74.77,0,0,0-3.52,14.81c-.92,6.6-1.37,13.22-.23,19.84a48.2,48.2,0,0,0,8,20c2,2.9,4,5.85,6.93,8.07,2.2,1.67,4.65,2.86,6.86,4.43a22.41,22.41,0,0,0,12.3,4,65.92,65.92,0,0,1,8.38.53c7.66,1.3,14.49-1.43,20.8-4.64A21.71,21.71,0,0,0,299.6,620a71.58,71.58,0,0,0-.32-14.85c-.1-.68-.16-1,.72-1.29,3.63-1,3.57-1,3.38-4.83-.53-10.5-1.37-21-1.54-31.5,0-3,0-5.93-.36-8.89-.11-1-.48-2.56,1.38-2.53,4.1.06,8.06-1.38,12.24-1,1.69.17,1.77.59,1.69,2a87.42,87.42,0,0,0-.27,11c.34,4.91,0,9.81.76,14.76.86,5.29.47,10.79,1.53,16.13a8.44,8.44,0,0,1-.09,3c-.45,2.73.13,3.48,2.85,3.37.81,0,1.43-.18,1.55,1a58.85,58.85,0,0,0,2.7,12c1.29,4,2.45,8.06,4.41,11.7a32.32,32.32,0,0,0,6.55,8,23.19,23.19,0,0,0,12.06,6,33.43,33.43,0,0,0,19.72-2.37,49.55,49.55,0,0,0,9-4.71c2.77-2.05,5-4.88,7.4-7.37,2.79-2.86,4.38-6.56,6.5-9.86,1.51-2.33.94-5.57,2.34-8.31,1.07-2.1,1-5,.9-7.44-.61-10.75-1.27-21.51-4.58-31.87-1.56-4.88-2.66-10-6.5-13.77,3.1-1.85,3.26-2.57,1.3-5.39-.18-.25-.29-.54-.46-.79-2-2.87-3.8-5.87-6-8.56-1.66-2-1.86-2.53.16-4.21.58-.48,1.28-.82,1.9-1.27a28.59,28.59,0,0,0,9-9.88,44.25,44.25,0,0,0,4.7-20.73,20.32,20.32,0,0,0-4.84-12.95c-2-2.45-4.58-3.94-6.88-5.88a36.76,36.76,0,0,0-12-7.18,40.63,40.63,0,0,0-11.57-2.28c-2.12,0-2.36-1.14-2.12-2.79.36-2.49.59-5,1-7.48a2.55,2.55,0,0,1,2.2-2.47,46.59,46.59,0,0,0,7.59-2.36c.3,3.07,2.5,7.46,5.61,8.69a11.94,11.94,0,0,1,2.1,1.39,50.17,50.17,0,0,0,21.9,8.76,42.44,42.44,0,0,0,15.13-.4,50.43,50.43,0,0,0,20.45-9.65c1.94-1.52,4.61-2.35,5.74-4.6.89-1.78,2.3-2.9,3.53-4.28a36.59,36.59,0,0,0,9.32-18.47,63.2,63.2,0,0,0,1.34-8.78c.14-5-.85-9.88-1.22-14.81-.6-8-4.52-14.35-9.67-20.1-1.67-1.86-4.11-3.62-4.48-5.86a43.6,43.6,0,0,0-4.4-12.89,26,26,0,0,0-9.54-10.1c-2.15-1.33-3.7-3.29-5.89-4.49a2.84,2.84,0,0,1-1.38-2,33.93,33.93,0,0,0-4-11.37c-1.64-3.12-3-6.7-7.24-7.16a22,22,0,0,0-6.37.16,5.37,5.37,0,0,0-3.31,1.74c-1.64,1.9-3.24,3.83-4.93,5.68-.41.46-.76,1.51-1.78.64-1.92-1.64-4.33-2.56-6.52-3.61-5.31-2.55-10.3-5.72-15.77-8a86.28,86.28,0,0,1-8.89-4.11c-2.49-1.37-5.42-1.89-7.93-3.9a20.31,20.31,0,0,0,5.62-3c5.48-4.26,11.33-8,16.52-12.71,2.69-2.43,5.65-4.56,8-7.34,3.41-4,6.92-7.95,10.05-12.16,2.74-3.67,5-7.69,7.51-11.54,1.12-1.73,8-3.23,9.66-2.12a1.86,1.86,0,0,1,.48.49,7.39,7.39,0,0,0,3.79,2.44c3.65,1.36,9.86-.1,11.14-5a23.64,23.64,0,0,0-.72-13.86,14.62,14.62,0,0,0-6.79-8.26c-1.55-.91-3.22-1.45-5.13-.4a12.9,12.9,0,0,0-5.77,7.07c-.32.82-.51,1.45-1.54,1.67a21.41,21.41,0,0,1-15.79-2.55c-4.63-2.71-8.65-6.3-13.23-9.11-4.25-2.62-8.37-5.45-12.81-7.76-1.14-.6-.5-1,.11-1.41,1.71-1.27,3.46-2.49,5.08-3.86,1.38-1.17,1.85-2.81.7-4.29-1.61-2.08-2.78-4.52-5-6.18a13.91,13.91,0,0,1-2.9-3.21c-2.32-3.37-4.66-6.74-7.15-10-1.4-1.83-2.56-1.76-4.18-.09a26.45,26.45,0,0,1-3.6,3.16c-3.8,2.71-7.53,5.53-11.34,8.23-2.56,1.82-5,4.05-8.6,2.83a23.25,23.25,0,0,0-2.95-1.22,140.17,140.17,0,0,0-25.35-2.75c-.71,0-1.54,0-1.71-.78a16.94,16.94,0,0,0-2.27-4.73c-2.21-4-2.4-8.84-5.8-12.5,2.39-.52,3.55-2,4.61-3.77a28.82,28.82,0,0,0,2.31-5.64c2.13-6-2.43-11.6-7.7-13.44-4.23-1.47-8.34-1.09-12.6-.88-4,.19-7.52.92-10.24,4-.84,1-1.62,2-2.46,3-3.61,4.21-3.92,12.62-.48,16.64,1.75,2.05,4.24,2.89,6.82,3.3,2.27.36,3.78,1.19,4.09,3.78a22.32,22.32,0,0,0,1.59,6.41,40.56,40.56,0,0,1,1.7,5.69c.37,1.35.21,2.14-1.55,2.5-8.68,1.77-16.64,5.59-24.66,9.18a38.28,38.28,0,0,0-4.65,2.9,4.19,4.19,0,0,1-4.31.33c-5.94-2.67-12.15-4.75-17.86-8-1.21-.68-2.35-1.15-3.36.72-3,5.49-4.92,11.44-7.88,16.93-1.15,2.13-.48,4,1.7,5.06,1.73.86,3.41,1.82,5.13,2.74-5.39,4.81-10.72,9.41-15.86,14.21a30.43,30.43,0,0,0-5.42,6.42c-2.78,4.63-5.69,8.72-11.9,8.33a6.55,6.55,0,0,0-2,.31A2.1,2.1,0,0,1,177.6,295c-1-2.53-3.3-4.26-5.27-5.78-4.84-3.76-12-1.11-13.71,4.74-1.86,6.35-.5,12.31,3.15,17.6a9.62,9.62,0,0,0,4.82,3.93C171.3,317,174,316,177,311.59c2.12-3,8.63-4.63,11.74-2.82a2.65,2.65,0,0,1,.93,1,18.18,18.18,0,0,0,4.09,4.25c7.28,6.1,14.23,12.64,22.23,17.86,4.92,3.21,9.75,6.56,15.13,9a106.48,106.48,0,0,0,10.36,4.56,19.48,19.48,0,0,1-6.16,3.78c-4,1.82-7.39,4.7-11.18,6.87A76.16,76.16,0,0,0,209,366.84c-1.21,1.15-2.53,2-4.28.6a22.79,22.79,0,0,0-10.78-4.87c-3.74-.6-7.61.47-9.53,3.72a32.7,32.7,0,0,0-4.35,11.19c-.71,4.12-1.22,8.28-1.77,12.44a7.64,7.64,0,0,1-1.37,3.58l-5.61,7.76c-4.73,6.54-8,13.61-7.58,21.92a3,3,0,0,1-.89,2.24c-3.74,4.38-7.53,8.69-11,13.33-4.66,6.28-7.94,13-9,20.85a36,36,0,0,0,1,15.84c.82,2.59.88,5.48,2.92,7.72M294.77,602.82c0,4.07.75,8.18.82,12.3.08,4.35-.64,8.7-3.17,12.18a25.05,25.05,0,0,1-12.73,9.2,24.62,24.62,0,0,1-15.84-.16c-3.66-1.17-7.58-1.52-11.33-2.44-8.62-2.11-15.24-6.64-19.24-15a50.1,50.1,0,0,1-4.76-19.33c-.87-7.92,1.47-15.43,3-23,.43-2.18,1.71-4.19,2.61-6.28a34.51,34.51,0,0,0,1.62-3.77c1.07-3.64,1-3.88,4.64-4a55.18,55.18,0,0,1,17.38,2c1.67.49,3.35,1,5,1.48,8.71,2.71,13.77,8.76,16.36,17.23.8,2.62,1.68,5.23,2.35,7.89,1.4,5.52,5.89,7.41,10.56,8.84,1.73.52,2.74.18,2.74,2.86m1.51-47.16c.36,11,.74,21.64,1,32.32a58,58,0,0,1,0,9.13c-.14,1-.12,1.36-1.26,1.08-2-.49-4.1-.61-6-1.27-2.35-.8-4.56-1.82-5.52-4.61-1.84-5.39-4.07-10.64-5.95-16-1.44-4.11-4.69-6.58-8-8.81-2.07-1.41-4.07-3.24-6.72-3.75-8.19-1.58-16.22-4.34-24.75-3.49-.6.06-1.22,0-1.82,0-1.18.07-1.69-.2-1.24-1.56,1.17-3.62,2.31-7.25,3.27-10.92.52-2,.47-4.07,1.08-6.06s2-2.23,2.91-.91c1.61,2.32,4.16,1.93,6.22,2.7,8.8,3.29,18.17,4.43,27.32,6.33,5.33,1.11,10.91,1,16.39,1.26,2.23.09,3.3.59,2.83,3a4.43,4.43,0,0,0,.2,1.53m29,42.14c-.23-7.17-.38-14.36-.76-21.53-.39-7.54-1-15.08-1.5-22.63a10.7,10.7,0,0,0-1-2.77c3-.23,5.92-.48,8.8-.65,8.42-.49,16.46-3,24.66-4.67,4.19-.83,8.25-2.13,12.33-3.34.87-.26,1.62-.47,2,.72.12.39.52.93.86,1,3.89.63,4,4.64,6.15,6.81.14.14.11.44.19.65,1.22,3.14,1.2,3.06-2.29,3.89a37.43,37.43,0,0,0-16.1,7.74,28.49,28.49,0,0,0-8.23,12.32c-1.31,3.7-2.39,7.52-4.5,10.9-4.49,7.19-11.62,10.35-19.3,12.71-1.21.37-1.27-.25-1.3-1.13m56.58-33.37c1.37,1.87,1.45,4.15,2.21,6.2A85.4,85.4,0,0,1,389,595.18c.11,3.59.57,7.16.41,10.76a43.21,43.21,0,0,1-2,10.2,32,32,0,0,1-4.69,9.56c-2,2.82-4.09,5.54-7.2,7.33-2.42,1.4-4.54,3.2-7.18,4.37-5.76,2.54-11.83,2.45-17.78,2.26-4-.12-7.52-2.74-10.48-5.55-5.45-5.17-8.33-11.75-10.16-18.93-1-3.77-2-7.49-2-11.42a1.4,1.4,0,0,0-.1-.44c-1-2.92-.94-3.07,2.1-3.64a25.52,25.52,0,0,0,16.36-10.29,35.86,35.86,0,0,0,6.42-13.92,11.11,11.11,0,0,1,1.66-3.74,35.3,35.3,0,0,1,10.34-10.28c3.59-2.28,7.77-3,11.74-4.23.49-.15.75.14,1,.61,1.41,2.24,2.84,4.47,4.41,6.6m-15.06-78.3a57.68,57.68,0,0,1,9,4.35c2.59,1.51,5.24,3.25,6.88,5.56,4.41,6.18,8.52,12.67,4.86,20.89a27.27,27.27,0,0,0-1.11,4.84c-1.42,6-5.41,10.16-10.05,13.88-4,3.2-8.68,4.8-13.43,6.22a176.18,176.18,0,0,1-21.6,4.87,220.65,220.65,0,0,1-25.53,2.63c-6.75,0-16.29,1-25.8.12a197.27,197.27,0,0,1-20.31-2.87c-6.17-1.26-12.22-3-18.38-4.28-1.48-.3-2.29-1.6-3.77-2.12a21.26,21.26,0,0,1-11.87-10c-4.1-7.3-3.73-15.29-4-23.17-.21-5.34,3.23-8.89,6.86-12.23,4.78-4.41,10.55-6.45,16.87-7.38,1.82-.27,2.5.39,2.69,2,.27,2.27.56,4.54.83,6.81a10.38,10.38,0,0,0,1.08,3.71,4.75,4.75,0,0,0,3.45,2.56c8.1,2,16.38,2.61,24.6,3.67a84.83,84.83,0,0,0,8.89.16c12.65.27,25.12-.56,37.3-4.5,3.59-1.17,7.19-2.44,10.87-3.4,3.34-.88,6-3.27,8.93-5,1.07-.64.68-1.78.4-2.72a41.12,41.12,0,0,1-1.18-6.3c-.19-1.37.29-1.87,1.61-1.66a61.09,61.09,0,0,1,12,3.41M352.13,491c.24.86.48,1.72-.68,2-3.27.9-5.84,3.17-9,4.42-4.57,1.84-9.41,2.47-14.09,3.79-10.23,2.89-20.78,3.45-31.32,3-5.36-.23-10.82.31-16.1-1.09a39.19,39.19,0,0,1-4.65-1.86c-3.64-1.48-7.28-3-10.94-4.44a3.32,3.32,0,0,0-3-.18c4.88,2.4,10.1,2.88,14.9,6.14a41.86,41.86,0,0,1-9.77-1.62c-.66-.16-1.28-.67-1.92-.68-3.29-.06-4.17-2.4-4.42-4.93-.31-3.21-1-6.34-1-9.66,0-1.92-1.53-4.4-2.28-6.67-.46-1.37-1.54-3-.86-4.13s2.51-.08,3.81,0c6.54.27,13,1.4,19.57,1.51,5.94.1,11.86.39,17.81-.08,7.72-.6,15.47-1,23.12-2.13a101.51,101.51,0,0,0,23.57-6.25,49.58,49.58,0,0,1,5.29-1.38c1.31-.37,1.32.59,1.4,1.46.27,2.77-.47,5.47-.61,8.22A45.89,45.89,0,0,0,352.13,491M444.35,415c2.1,3.93,1.88,8.25,2.62,12.43.16,2.13.3,4.26.47,6.39.45,5.44-1.16,10.44-2.71,15.58-2,6.76-6.76,11.38-11.33,16.17a18.85,18.85,0,0,1-6,4c-1.58.67-1.93,2.44-3.83,2.88-5,1.16-9,5.14-14.47,5.32-6.93.23-13.82.8-20.53-1.57-5.31-1.87-10.33-4.2-14.58-8-1.3-1.17-1.45-1.94-.4-3.61,2-3.13,3.8-6.35,6.41-9s5.26-5.59,8.84-7.34c2.08-1,3.76-2.73,5.91-3.77,5.68-2.74,11.32-5.55,17.21-7.8.79-.3,1.62-.94,2.6-.49s1.07-.13,1.13-.83-.13-1.38-1.13-1.2c-1.72.31-3.46.5-5.15.94a39.51,39.51,0,0,1-21.22-.22c-4.21-1.22-8.69-1.59-12.68-3.54-2.91-1.42-6.2-2.11-8.63-4.49-.55-.54-1-.88-.6-1.7A50,50,0,0,1,378.19,408c5.17-4.74,11.42-7.89,17.8-10.83s13-3.15,19.65-2.82c4.4.22,8.59,1.87,12.73,3.39,8.26,3,12.14,10.1,16,17.26m-28-39.17c7.93,3.8,13.37,9.44,15,18.23.34,1.79.12,2.43-1.84,1.63-2.89-1.18-5.78-2.41-9-2.54a1.31,1.31,0,0,1-1.42-1.19c-.9-5-1.85-10.06-2.77-15.09a7.86,7.86,0,0,1,0-1m-21.48-18.41a26.06,26.06,0,0,1,4.83-5.12c2.2-1.86,5.22-1.19,6.67,1.66a56,56,0,0,1,4.17,10.36c1.3,4.69,3.07,9.25,4.07,14,.8,3.88,1.65,7.76,2.32,11.67.43,2.47.26,2.46-2.08,1.78s-4.69.08-7,.14c-1.15,0-1.63.09-1.64-1.29,0-2.13-.27-4.26-.43-6.39-.88-6.41-1.65-12.86-4.87-18.68-1.15-2.09-3.15-3-5.06-4.12-2.27-1.3-2.42-1.88-.95-4.05M270.23,201.89c-1.25.71-1.78,4.06-1,6.39.61,1.81,1.24,3.6,1.85,5.41.41,1.23.32,2-1.31,1.53-5-1.51-9.23-9.49-4.92-14.3a11.83,11.83,0,0,1,9.12-4.2,21.19,21.19,0,0,1,10.65,3.16c1.76,1.05,1.59,2.88,1.66,4.51.14,3.4-2,5.83-4,8.16-1,1.17-2.09,1.11-2.95-.65-1.16-2.38-1.63-5.06-3.21-7.24-1.94-2.67-4.17-3.73-5.87-2.77m15.14,32a30.32,30.32,0,0,0-4.9,1.05c-1.32.4-1.43-.54-1.67-1.27-1.23-3.76-2.34-7.56-3.61-11.31-1.81-5.36-2.37-11-4-16.35,0-.68-.2-1.43.32-1.81s1.06.31,1.54.6c2.41,1.49,3.16,4.15,4,6.52,1.48,4.37,4.19,8.09,6,12.26,1.25,2.86,1.66,6,3.38,8.69.58.91.08,1.47-1.07,1.62m-38.51,18.32a84.73,84.73,0,0,1,20.94-8.77c8.34-2.11,16.53-5.44,25.38-5.22,2.73.07,5.34.84,8.08.9,3.62.07,7.22.58,10.84.77,4.77.25,9.14,2,13.66,3.35-4.71,3.78-9.54,7.11-14.29,10.51-6.28,4.48-12.43,9.16-18.72,13.62a29.65,29.65,0,0,0-4.76,4.26,2.58,2.58,0,0,1-3.42.74c-5.45-2.62-11.13-4.71-16.56-7.4-7-3.46-14.21-6.55-21.29-9.88-.86-.41-2.52.13-2.48-1s1.64-1.35,2.62-1.9m-32.14,9.54c-1.54-.67-1.95-1.56-1.24-3,1.74-3.61,3.53-7.2,5.16-10.85.6-1.34,1.36-1.48,2.52-1a10.76,10.76,0,0,1,1.23.6c5,3,10.44,5,15.81,6.83,6.9,2.38,13.33,5.74,20.13,8.3,3.38,1.27,6.42,3.46,9.8,4.75,4.61,1.77,9,4,13.4,6.17,3.73,1.83,6,1,8.32-1.21,4-3.66,8.56-6.54,12.71-10,3.38-2.79,7.19-5,10.79-7.58,4.4-3.1,8.79-6.2,13.15-9.34,5-3.59,10.25-6.82,14.86-10.89,2.1-1.86,4.59-3.18,6.53-5.2.69-.7,1.38-.93,2.13,0a14.24,14.24,0,0,1,2.34,2.74c1.45,3.22,4.24,5.35,6.21,8.14.77,1.09,2.2,1.24,3,2.38.55.81.69,1.18-.21,1.78-1.63,1.09-3.2,2.28-4.76,3.48-1.07.82-2.3,1.54-2.37,3.17,0,.36-.47.81-.84,1a80.93,80.93,0,0,0-11,7.69c-5.44,4.38-11.29,8.21-16.73,12.56-3.74,3-7.61,5.78-11.53,8.44-3.76,2.55-7.11,5.58-10.9,8.08-3.34,2.21-6.39,4.87-9.54,7.37a3.39,3.39,0,0,1-1.7.76c-2.63-.67-5.29-1.26-7.9-2-4.51-1.3-8.44-3.93-12.76-5.72-5.26-2.18-10.37-4.73-15.57-7.08-4.56-2.07-9.23-3.91-13.7-6.16-4.2-2.11-8.28-4.45-12.54-6.47-1.17-.55-2.25-1.29-3.44-1.78a23.52,23.52,0,0,1-7.56-4.43c-1.05-1-2.54-1-3.78-1.51M329.84,276a32.58,32.58,0,0,1,5,4c1.5,1.6,1.47,3.95,2,6a33.89,33.89,0,0,1,.62,4.52,16.57,16.57,0,0,1-3.86,14.22c-4.81,5.77-14.47,7-20.37,2.45-2.26-1.75-2.93-4.46-3.84-6.9-1.46-3.87-1.56-8-1.32-12.14a1.53,1.53,0,0,1,.78-1.24c4.86-3.7,10.11-6.84,14.86-10.68,2.17-1.75,3.93-1.8,6.16-.21m-72.78,10.17a1.84,1.84,0,0,1,2.49-.25c3.71,2.46,7.93,3.82,12,5.56,5.92,2.56,8.27,7.13,6.21,13.28a34.05,34.05,0,0,1-4.54,9.6c-3,4-12.6,7.64-17.2,5.82-4-1.57-7.19-4.35-7.78-9.07-.16-1.29-.2-2.59-.29-3.71-1.27-9.06,3-15.55,9.14-21.23m-23.95,49c-6.07-2.82-11.24-6.79-16.72-10.38-3.12-2-5.73-4.86-8.56-7.34-3.4-3-6.77-6-10.17-9-1.54-1.35-2.61-3.14-4.33-4.36A4.93,4.93,0,0,0,190,303c-4.49.3-9,.26-13.47.88a16.51,16.51,0,0,0-6.59,2.41c-.54.34-1.14.7-.77,1.42s1.11.74,1.77.33a2.94,2.94,0,0,1,2.37-.45c-1,3.37-3.05,4.22-5.88,2.53a10.76,10.76,0,0,1-5.49-10.91c.25-2.39.58-5.49,3.92-6.31,2.86-.7,5.72.5,7.59,3.41.57.89,2.19,1.75,1.35,2.81-.66.85-2.1-.17-3.2-.33-.83-.12-1.64-.37-2.47-.43a1.18,1.18,0,0,0-1.39,1.19c-.05.78.22,1.37,1.08,1.46,4.16.4,8.24,1.19,12.48,0,2.95-.86,6.15-.86,9.25-1.15.69-.07,1.29.12,1.78-.63,3.08-4.84,7.13-8.87,11.08-13,3.39-3.51,6.56-7.23,10.22-10.54,2.7-2.46,6.57-3.69,8.23-7.33.34-.76,1.06-.34,1.59,0,6.5,3.86,13.35,7.06,20.06,10.53,4,2,8.25,3.44,12.41,6.08-3.91,1.68-5.56,5.25-7.62,8.2-4.5,6.45-4.05,18.52.61,24.8,2.71,3.63,6.81,4.89,11.16,4.63,6.69-.39,12.43-2.94,16.2-8.78a23,23,0,0,0,3.58-16.57c-.3-1.83.64-1.51,1.71-1,2.93,1.46,5.81,3,9.29,2.65a6.85,6.85,0,0,0,4.38-1.65c3.21-2.83,6.82-5.21,10.44-7.9.41.91.07,1.7.1,2.47.23,5.94,1.05,11.59,5.47,16.22a13.14,13.14,0,0,0,7.64,3.76,16.34,16.34,0,0,0,13.73-3.41c8.09-6.58,8.54-15.12,6.31-24.26-1.1-4.51-3.67-8.07-8.26-9.87-2.49-1-2.53-1.61-.19-3.28,2-1.4,4.09-2.55,6-4.07,5-4,10.25-7.8,15.46-11.58.92-.67,2.25-2.8,3.24.14.12.34.89.5,1.38.66,3.49,1.12,6.35,3.34,9.46,5.11,3.3,1.87,6.45,4,9.48,6.16,2.77,1.94,5.7,3.75,8.39,5.89a19.94,19.94,0,0,0,16.56,4.24c4-.72,8.05-.83,11.82-2.48.83-.36,2-.57,1.63-1.71-.48-1.41-1.62-.6-2.51-.28-.5.17-1,.46-1.45.67-.81.35-1.18.2-1.32-.81a4.8,4.8,0,0,1,3.52-5.6c1.13-.3,5,2.2,5.53,3.7,1.44,3.86,2.22,7.78.86,11.86-.74,2.25-2.47,3.15-4.61,3.57a3.71,3.71,0,0,1-4-1.53,1.74,1.74,0,0,1-.4-1.7c.33-.82,1.05-.35,1.61-.3s1.34.31,2,.35,1.62.16,1.68-1a1.49,1.49,0,0,0-1.36-1.76,21.44,21.44,0,0,0-8.18.35c-2.54.5-5,1.15-7.57,1.74-.37.09-.8.35-1.1.24-2.78-1-2.7,1.34-3.61,2.83-2.48,4.06-4.4,8.38-7.47,12.19a67.94,67.94,0,0,0-6.17,8.3,23.94,23.94,0,0,1-5.69,6.44c-5.92,4.79-11.38,10.15-18,14.06-1.42.83-2.71,2.26-4.22,3.23-1.15.73-2.22,1.55-3.7,1.54-1.93,0-2.81,1.79-4,2.81a37.38,37.38,0,0,1-5.06,3.37c-5.48,3.53-11.53,5.76-17.55,8.1-3.12,1.21-6.2,2.52-9.39,3.56-9,2.89-18,4.43-27.5,2.86-3.2-.53-6.48-.51-9.72-1.18-2.39-.49-4.69-1.28-7-1.85a87.91,87.91,0,0,1-16-5.17c-6.18-2.81-12.22-5.91-18.36-8.76M216.75,368a112.26,112.26,0,0,1,9.5-6.43c7-4.13,13.77-8.55,21.06-12.11,1.6-.78,3.65-.64,4.8-2.39.28-.43.84-.14,1.28,0,4.59,1.35,9.19,2.64,13.75,4.07a35.55,35.55,0,0,0,7.1,1.56c4.22.45,8.37,1.65,12.59,1.85,7.63.35,15.31,1.22,22.65-2.36,6-2.91,12.64-4.14,18.59-7.16,3.85-2,8.1-3.06,11.65-5.63a3.33,3.33,0,0,1,3.66,0c2.6,1.91,5.82,2.08,8.55,3.59a109,109,0,0,0,14.27,7c3.78,1.41,6.89,3.94,10.69,5.38,3.39,1.27,6.42,3.83,9.74,5.6,1.35.72,2.54,1.44,4.25.75,1-.41,2.27.37,3.1,1a48.14,48.14,0,0,0,5.14,3.23,1.48,1.48,0,0,1,.86.95c1.57,6.36,3.51,12.64,3.62,19.27,0,1.6,0,3.21.07,4.8.07,1.41-.81,1.79-1.92,2.11-4.31,1.26-8.71,2.37-12.52,4.82a111,111,0,0,0-12.76,9c-5.63,4.85-8.83,11.07-12.11,17.38-1.43,2.77-.89,3.83,1.92,5.11,1.36.63,2.57,1.56,3.92,2.23,6,3,12.49,4.35,18.86,6,3,.8,6.36.42,9.55.53a6.87,6.87,0,0,1,3,.47c-2.42,1.8-5,2.71-7.3,3.88a47.89,47.89,0,0,0-6.89,4.38c-2.55,1.85-5.75,2.41-8.16,4.44-3.47,2.92-7.89,4.15-11.64,6.58a30.85,30.85,0,0,1-6.65,3c-6.17,2.16-12.35,4.36-18.62,6.19s-12.38,3.17-18.59,4.68a107.48,107.48,0,0,1-19.45,2.53c-9.57.52-19.16.94-28.78-.06-4.81-.5-9.7-.72-14.55-1-5.61-.37-11.09-1.86-16.6-3-2-.41-4.1,0-6-1.1-1-.59-1.29-.83-.7-2A22.3,22.3,0,0,0,240,462.1c.26-1.14.06-2-1.15-2.35-4.08-1.21-8.1-2.6-12.27-3.53a70.79,70.79,0,0,0-19.7-1.21,22.49,22.49,0,0,1-4.85,0c2.62-1,4.73-2.91,7.33-3.63a18.9,18.9,0,0,0,4.8-2.51c4.24-2.59,7.4-6.46,11.08-9.69,1.75-1.55,2.63-4.16,4.11-6.18.83-1.12-.15-2.18-1.09-2.91-2.52-1.94-5.08-3.84-7.63-5.75-3.1-2.33-6.85-3.15-10.4-4.41-2.93-1-6-1.81-8.94-2.67-.38-.11-.83-.17-.81-.62.2-4.79-.83-9.53-.73-14.29.08-3.52-.95-7-.25-10.49.6-3,0-6.07.73-9.09.49-2.06,1.29-3.64,3.2-4.64a9.37,9.37,0,0,0,2-1.53c3.48-3.28,7.58-5.79,11.39-8.62m-33.39,46.36c0-1-.13-2-.2-2.88a162.91,162.91,0,0,1,1.7-21.69c.78-5.66,1.11-11.38,3.15-16.79a43.78,43.78,0,0,1,2.23-5c1-2,2.4-2.17,4.58-1.59,3.45.92,6.61,2.15,9.1,4.9,1.81,2,2,2.34.1,4.17a17.72,17.72,0,0,1-4.4,3.59c-1.69.82-2,2.41-2.12,4a211.19,211.19,0,0,0,.74,27.21,25.12,25.12,0,0,0,.56,5.46c.32,1.06-.46.92-1.06.82a48.27,48.27,0,0,0-11.89,0c-1.89.16-2.49-.48-2.49-2.21m-13.26,5.51c.63-5.06,1.44-10,4.36-14.45a53,53,0,0,1,7.29-8.62,100,100,0,0,0,.07,16.44c.35,3.28,0,5.25-3.5,6.32-2.35.71-4.48,2.21-6.63,3.49-1.05.62-1.39.25-1.52-.68a10,10,0,0,1-.07-2.5M147.34,464.6c.53-8.93,3.16-17.36,9.06-24.4a38.44,38.44,0,0,1,9.64-8.56c.39-.24,1.07-.4,1-.82-.49-2.41,1.64-2.66,2.85-3.76,4.9-4.44,11.26-5.89,17.06-8.49a8.12,8.12,0,0,1,2.45-.22c2.48-.39,5.15.27,7.73.71,5.91,1,11.76,2.11,17.32,4.78,3.51,1.69,6.43,4.23,10,5.76,2.45,1.06,2.74,3.18,1.16,5.44-3.49,5-8.1,8.75-13,12.32-5.06,3.7-11,5.2-16.73,7-2.84.88-5.43,2.46-8.4,2.88-1,.13-1.13.72-1.06,1.43.11,1.12,1.07.79,1.59.6,4.29-1.64,8.84-1.66,13.3-2.09,7.89-.76,15.87-1.32,23.63.82,3.79,1,7.59,2.16,11.38,3.28,1.57.46,2,1.24,1.07,2.62-4.19,6-7.91,12.39-13.43,17.36a8.88,8.88,0,0,1-1.95,1.11c-1.87.95-3.06,2.66-4.6,4a38,38,0,0,1-6.82,4.48c-6.58,3.52-13.46,6.59-21,7a30.54,30.54,0,0,1-11.45-1.45c-3-1-6.22-1.07-9.07-2.78-3.29-2-6.59-3.94-9.83-6a29.06,29.06,0,0,1-5.61-4.51c-4.92-5.22-6.74-11.67-6.33-18.47" transform="translate(-142.47 -191.69)"/><path class="cls-2" d="M284.5,338.87c3,.05,5.38-1.42,7.81-2.86,3-1.79,6.07-3.54,9.69-3.68a16.31,16.31,0,0,1,5.27.25,9,9,0,0,0,7.55-2.43,4.71,4.71,0,0,0,0-7.06c-2.51-2.21-4.73-4.47-8.41-5.35-4.53-1.09-8.71-2.34-13.27-.31-4,1.79-8.17,3.24-11.19,6.74a11.49,11.49,0,0,0-2.66,10.43,6,6,0,0,0,5.22,4.27m20.95-12.13a41.78,41.78,0,0,0,.21-4.32c-.1-2.31,1-2.51,2.81-1.86a9.66,9.66,0,0,1,5.2,4.56,2.7,2.7,0,0,1-.79,3.83,7.18,7.18,0,0,1-3.1,1.35c-3.65.65-4.28.13-4.33-3.56m-16.78-4.56a23.1,23.1,0,0,1,13.06-3.36c1.55.05,1.92.69,1.78,2.14a50.42,50.42,0,0,0-.29,6.62c.06,1.79-.22,2.92-2.29,2.41-2.3.49-4.61.73-6.49,2.19-1,.77-1.51.59-2.05-.53-1.24-2.59-2.17-5.33-4.06-7.59a1.11,1.11,0,0,1,.34-1.88m-3.94,2.76c1-.76,1.3-.36,1.92.32,1.52,1.68,1.52,4.14,3.07,5.79a9.33,9.33,0,0,1,.77,1.13c1.51,2.15,1.43,2.37-1.13,3.05a8.49,8.49,0,0,0-1.71.61c-3.95,2-5.92,1-6.26-3.83-.51-2.86.81-5.17,3.34-7.07" transform="translate(-142.47 -191.69)"/><path class="cls-2" d="M327.4,522.56c-6,.56-12,1-18,1.82-5.52.75-11.26-.25-16.89,0s-11.08-1.46-16.68-1.34a5.22,5.22,0,0,1-2.43-.55c-1.49-.78-2.81-2.46-4.5-.31-.11.15-.59.09-.88,0-5.69-1.32-11.58-1.78-17-4-.88-.36-1.76-.53-2.12.48s.41,1.47,1.35,1.67c5.34,1.18,10.69,2.34,16,3.57,6.34,1.46,12.87,1.2,19.27,2.18,10.63,1.63,21.26.25,30.29-.19a133.89,133.89,0,0,0,16.37-1.73c6.21-1.17,12.41-2.41,18.61-3.63,5.57-1.09,11.15-2.25,16.37-4.51,2.42-1,5.1-1.6,7.21-3.37.57-.47.89-.86.47-1.49s-1-.19-1.37.1c-1.66,1.2-3.68,1.41-5.51,2.13-6.17,2.44-12.44,4.88-18.95,5.75-7.21,1-14.26,2.73-21.55,3.4" transform="translate(-142.47 -191.69)"/><path class="cls-2" d="M266.09,519.82a25.32,25.32,0,0,0-3.19-1.55c-1.68-.57-3.43-.95-5.15-1.42-.06.16-.12.32-.17.48l8.27,3.15.24-.66" transform="translate(-142.47 -191.69)"/><path class="cls-2" d="M196.63,478.36c1.35-.7,3.35-4.63,2.68-5.9a10.46,10.46,0,0,0-4.07-3.78c-.28-.17-.75-.07-.78.21-.19,1.75-1.74,1.59-2.82,2.17a3.14,3.14,0,0,0-1.79,3.31c.26,4.22,3.16,5.88,6.78,4M195,472.31c1,.22,2.35-.25,2.43,1.46a3.73,3.73,0,0,1-3.44,3.64c-1.69,0-1.87-1.18-2.06-2.45-.42-2.69,1.92-1.94,3.07-2.65" transform="translate(-142.47 -191.69)"/><path class="cls-2" d="M186.54,444.59c2.68-.17,5.22-2.73,5.08-5.12a3.84,3.84,0,0,0-4.11-3.9c-3.46.19-6.74,2.72-6.66,5.12.06,1.86,3.28,4.06,5.69,3.9m.82-7.37c1.58-.49,2.15.62,2.35,2,.28,1.91-.94,3.24-3.1,3.41-1.6.13-3.19-.14-3.62-1.95-.32-1.32,2.23-3.3,4.37-3.5" transform="translate(-142.47 -191.69)"/><path class="cls-2" d="M414.74,450.72c-3,.07-5.11,2.85-5,6.63,0,1.84,3.37,4.31,5.72,4.24s4.72-2,4.38-4c-.65-3.92-1.9-6.92-5.07-6.85m2.83,6.34c0,1.57-.92,2.1-2.33,2.1-1.78,0-3.2-1.6-3.24-3.79-.2-1.73.88-2.47,2.54-2.55,1.9-.08,3,1.5,3,4.24" transform="translate(-142.47 -191.69)"/><path class="cls-2" d="M409.47,408.72c-2.42.09-4.77,3.6-4.59,6.83.11,1.75,3.79,4.46,5.87,4.31a4.28,4.28,0,0,0,4.25-4.43c-.22-3-3.32-6.79-5.53-6.71m1.38,8.81c-1.88.18-3.26-1.26-3.46-3.59-.12-1.4.18-2.84,1.71-3.33,1.16-.36,4.1,3,4.15,4.63s-1.4,1.92-2.4,2.29" transform="translate(-142.47 -191.69)"/><path class="cls-2" d="M414.53,474.88c1.49-.55,3.16-.72,4.4-2.2-3.38,1.05-4,1.36-4.4,2.2" transform="translate(-142.47 -191.69)"/><path class="cls-2" d="M237.57,571.47c-.73-.05-1.07.39-1.13,1.13a56,56,0,0,1-1.61,8,35.83,35.83,0,0,0-.49,13.61c.17,1,.43,2,1.79,1.83,1.52-.25.88-1.28.64-2.12-1.29-4.51-.94-9-.13-13.55A57.09,57.09,0,0,1,238.4,573c-.06-.79,0-1.51-.83-1.57" transform="translate(-142.47 -191.69)"/><path class="cls-2" d="M377.44,572.25a1.11,1.11,0,0,0-.57,1.7c2.13,4.2,1.5,9,2.72,13.34.06.76.09,1.52.18,2.27.06.56-.14,1.41.77,1.36s1.15-.71,1.18-1.45a6.46,6.46,0,0,0-.16-1.81c-1.22-4.71-1.37-9.64-2.93-14.27-.2-.62-.14-1.56-1.19-1.14" transform="translate(-142.47 -191.69)"/><path class="cls-2" d="M332.08,577.63c-1.43.14-2.71,2.76-2.63,5.39.07,2.19,2,3.63,4.76,3.48,1.89-.1,2.85-1.5,2.72-3.93-.16-2.94-2.36-5.19-4.85-4.94m1.46,6.82c-1.8,0-1.7-1.36-1.73-2.74.19-.61-.62-2.05.84-2s1.91,1.56,2.05,2.89c.08.83,0,1.81-1.16,1.83" transform="translate(-142.47 -191.69)"/><path class="cls-2" d="M286.32,580.05c-.33.22-.72.62-.41.91,1.36,1.33.19,2.89.47,4a4.06,4.06,0,0,0,4.23,3.59c1.62-.12,3.95-3.21,3.7-4.89a5.27,5.27,0,0,0-8-3.59m3.93,6.37c-1.22.17-1.39-.92-1.5-2.06.25-1-.4-2.77,1.39-3,1.23-.15,1.61,1.41,1.66,2.34s-.08,2.51-1.55,2.7" transform="translate(-142.47 -191.69)"/><path class="cls-2" d="M263.39,310.37c2.9-.48,5-2.33,6.29-5.27,1-2.28-.06-4-1.23-5.71-1.29-1.9-3.58-1.45-5.37-2.2-1-.41-2.16-1-2.83.28-.58,1.12.65,1.47,1.31,2,1.08.91,1.5,2.13.37,3.14s-1.8.21-2.49-.88a1.83,1.83,0,0,0-3.28.11,5.67,5.67,0,0,0,1.15,6.89c1.68,1.76,3.72,1.49,6.08,1.6" transform="translate(-142.47 -191.69)"/><path class="cls-2" d="M321.37,289.23c-.33.55-.06,1,.28,1.45s.49.58.72.88c.6.76,1.16,1.68.25,2.41-1.15.91-1.71-.32-2.34-1a3.77,3.77,0,0,1-.31-.6c-1-1.58-2.6-1.55-3.49.11-1,1.91-1.42,4.07-.28,5.89a6.89,6.89,0,0,0,6.11,3.11c3.6-.26,6.79-2.52,7.14-4.51a7,7,0,0,0-6.69-8.27,1.34,1.34,0,0,0-1.39.55" transform="translate(-142.47 -191.69)"/></svg>