<svg id="Layer_1" data-name="Layer 1" xmlns="http://www.w3.org/2000/svg" viewBox="0 0 334.61 429.73"><defs><style>.cls-1{fill:#fff;}.cls-2{fill:#010101;}</style></defs><path class="cls-1" d="M413.29,396.11c5.91.25,11.36-3.4,12.91-8.45.61-2-.28-3.76-.48-5.63a12.73,12.73,0,0,0-7.06-10.23c-1.22-.67-2-.54-2.37,1-.28,1.09-.82,2.12-1.16,3.21-1,3.25-1.58,6.68-3,9.72-1.29,2.74-2.05,5.6-3.08,8.39-.59,1.59-.22,2.11,1.4,2,.95-.06,1.91,0,2.86,0" transform="translate(-114.24 -207.57)"/><path class="cls-1" d="M413.54,376.16c1.72-4.83,1.69-10.17,4.3-14.76a7.13,7.13,0,0,0,.92-2.88c.08-.91-.07-1.43-1-1.7-3.52-1-6.45-3.23-9.64-4.88-4.8-2.48-9.41-5.3-14.28-7.64-4.45-2.14-9-4.2-13.24-6.64-4.1-2.34-8.48-4-12.66-6.13-2.47-1.25-5.3-1.69-7.64-3.28-2.49-1.7-5.55-2.1-8.16-3.54a26.37,26.37,0,0,0-5.27-2.61c-4.14-1.16-7.55-3.78-11.53-5.3-4.72-1.8-9.17-4.34-13.75-6.54-.37-.18-.74-.54-1.35-.23a25.5,25.5,0,0,0,3.08,4.43,91.72,91.72,0,0,1,6.5,9.13c2.44,3.79,4.58,7.76,6.72,11.74,2.34,4.37,4.33,8.9,6.26,13.42,2.28,5.35,4.38,10.8,6.15,16.39,2.56,8.06,4.62,16.25,7.07,24.33,1,3.3,1.17,6.74,2,10.39,1.35-2,2.84-.9,4.35-.71,8.82,1.08,17.05,4.54,25.7,6.3,3.92.79,7.74,2.08,11.58,3.21a1.68,1.68,0,0,0,2.29-.89c2.5-4.13,3.68-8.77,5.29-13.24,1.29-3.58,2.35-7.24,3.57-10.85.85-2.52,1.81-5,2.71-7.52" transform="translate(-114.24 -207.57)"/><path class="cls-1" d="M424.67,406a38.93,38.93,0,0,1,.1-7,25.85,25.85,0,0,0,.07-3.63c0-.68-.45-1.53-1.14-.71-1.36,1.61-3.48,1.75-5,2.95a5.61,5.61,0,0,1-3.93,1.22c-1.47-.1-1.71.66-1.53,1.92a50.08,50.08,0,0,1,.49,8.39c-.21,8.49.56,16.95.88,25.43,0,1.24.43,1.39,1.49.94a12.38,12.38,0,0,1,5.83-.62c1,.07,1.93,1.37,2.8.51s0-2.09.39-3.12a1.21,1.21,0,0,0,0-.38c.24-8.68-.4-17.34-.42-25.89" transform="translate(-114.24 -207.57)"/><path class="cls-1" d="M352.12,381.17c-.72-3.53-2.49-6.85-3.25-10.37-1.19-5.53-3.51-10.66-5.62-15.78a163.23,163.23,0,0,0-10.19-21.42c-2.66-4.5-5.13-9.11-8.14-13.4-1.56-2.23-3-4.53-4.59-6.75-.66-.93-1.32-1.65-2.47-.24a48.24,48.24,0,0,1-5.26,5.53,33.3,33.3,0,0,1-10.37,6.51c-2,.75-4.09,1.28-6.08,2.12a8.57,8.57,0,0,1-2.46,1c-3.63.21-7.05,1.47-10.68,1.87-7.75.87-15.25-.29-22.61-2.14a40,40,0,0,1-14.57-6.75c-2.61-2-4.35-2-5.94-.24a101.92,101.92,0,0,0-8.35,10c-2.47,3.56-5.2,6.91-7.6,10.5-.6.89-1.81,1.24-2.05,2.43a6.65,6.65,0,0,1-1.73,2.9,20.11,20.11,0,0,0-2.52,3.58c-1.66,3.26-3.81,6.24-5.15,9.68-.9,2.31-2.21,4.46-3.08,6.78-2,5.28-4.24,10.43-5.66,16-2,7.84-3.53,15.58-2,23.65.51,2.64,0,5.44.83,7.93,1.47,4.59,2.32,9.34,4,13.9,2.48,6.84,4.44,13.9,8.3,20.13,1.13,1.83,1.22,4,2.62,5.67A148.09,148.09,0,0,0,228,465.64c2.37,2.29,5.11,4.11,7.6,6.24,2.79,2.39,6.31,3.93,9.57,5.74,1.82,1,2.1.76,2-1.4-.32-6-.83-12-1.49-17.91-.75-6.73-.17-13.51-.23-20.26-.09-9.37-1-18.71-1.21-28.08-.32-12.55.73-25.09-.19-37.65-.56-7.69-.28-15.43-.77-22.28-.26-9,.25-17.15.41-25.31,0-.49,0-1.18.74-1s.7.81.62,1.51c-.64,5.25-.54,10.54-.74,15.81-.19,5,.38,9.93.46,14.89.11,6.57.68,13.12.89,19.67.29,8.72,0,17.44.06,26.16,0,10.89.3,21.79,1.11,32.67.39,5.13-.07,10.31,0,15.47.14,8.54,1.05,17,1.34,25.56.11,3,1.24,4.51,3.81,5.39a7.47,7.47,0,0,1,1.27.38c2.06,1.16,4.48.73,6.6,1.52a64.34,64.34,0,0,0,8.57,2.51c10.55,2.29,20.59.61,30.37-3.36,5.63-2.29,11.26-4.63,16.38-8,3.45-2.26,7.06-4.3,10.4-6.7,2.4-1.71,4.38-4,6.74-5.78a74.46,74.46,0,0,0,6.35-5.94,57.46,57.46,0,0,0,6.36-7.52c3.71-4.93,7-10.1,8.76-16.13a59.19,59.19,0,0,0,2.49-14c.26-5.52.95-11,.39-16.56-.7-6.86-3.14-13.33-4.49-20.05m-103.9-39.3c-.05-1.18.68-1.72,1.8-1.7,1.58,0,1.65,1.28,1.88,2.45-.08,1-.52,1.75-1.59,1.7-1.45-.08-2-1.14-2.09-2.45m1.51,24.18c.76-.36,1,.37,1.27.8s1.29.52,1.49,1.33a2,2,0,0,1-.91,2.28c-.82.52-1.26-.23-1.66-.77a2.41,2.41,0,0,1-.6-2.11c.05-.53-.25-1.2.41-1.53m.15,21.7c1.54.16,3.19,1.82,2.92,2.89-.19.77-.55,1.71-1.63,1.43-1.66-.44-1.93-1.79-1.89-3.27,0-.55.14-1,.6-1.05m1.44,23.76c.78-.11,2,2.06,2,3.64a1.59,1.59,0,0,1-1.56,1.46c-1.08.1-2.12-1.68-2.07-3.37a1.7,1.7,0,0,1,1.66-1.73m-1.56,27.34a1.52,1.52,0,0,1,1.5-1.81c1.21,0,1.86.89,2.14,2-.11,1.05-.63,1.83-1.61,1.88-1.29.06-1.89-.84-2-2m2.78,29a2.47,2.47,0,0,1-2.23-2.41c-.13-1.05.8-1.6,1.65-1.86a3.1,3.1,0,0,1,2.61,2.5,1.76,1.76,0,0,1-2,1.77" transform="translate(-114.24 -207.57)"/><path class="cls-1" d="M426.19,452.9c.67-.78,1.35-1.79,0-2.69-.66-.45-.44-.84.08-1.16a1.92,1.92,0,0,0,.85-1.82c0-2.9.59-5.67-1.94-8.39a7.3,7.3,0,0,0-5.31-2.48c-1,.19-2-.1-2.8.36a14,14,0,0,0-6.65,8.83c-1.14,4.11,3,9.59,6,10.94a4,4,0,0,0,3,.41c2.5-.9,5-1.93,6.78-4" transform="translate(-114.24 -207.57)"/><path class="cls-1" d="M409.15,446c.56-1.45-.3-1.76-1.62-1.73a10.16,10.16,0,0,1-1.9-.16c-4.27-.66-8.65-.32-12.89-1.38-1.75-.45-1.7,1.11-1.91,2.15-.26,1.3.81,1.21,1.6,1.28a125.76,125.76,0,0,1,14.75,1.76c1.81.36,2.21-.2,2-1.92" transform="translate(-114.24 -207.57)"/><path class="cls-1" d="M353.91,439.35c-.59-.2-.75.32-.86.76a37.34,37.34,0,0,1-3.24,7.45c-.24.46-.53.91-.07,1.39.91.95,1.42,2.28,2.89,3.05.54-4,1.06-7.82,1.56-11.64,0-.35.15-.86-.28-1" transform="translate(-114.24 -207.57)"/><path class="cls-1" d="M414.87,457.54c-1.29-.12-1.52-1.24-2.19-1.93s-1.37-2.4-2.16-2.48c-1.29-.13-1.35,1.73-2.14,2.61-2.79,3.09-5.1,6.62-8.15,9.47-1.14,1.08-.77,1.76.14,2.5,1.27,1,2.3,2.39,3.82,2.88a2.16,2.16,0,0,0,1.65-1.06c3-3.71,5.63-7.67,9-11,.34-.33.7-.91,0-1" transform="translate(-114.24 -207.57)"/><path class="cls-1" d="M333.76,538.78c-1.84-2.09-3.65-4.22-5.59-6.21-2.3-2.35-4.55-4.74-6.84-7.1s-4.94-4.51-6.85-7.28c-.5-.73-1-.6-1.48.08-1.59,2.1-1.66,3.8.44,5.85,2.39,2.34,4.45,5,6.83,7.33,2.9,2.88,5.74,5.82,8.7,8.65a2.61,2.61,0,0,0,2.45.8c.55,0,1,0,1.44-.09.61-.07,1.41.17,1.67-.59s-.41-1-.77-1.44" transform="translate(-114.24 -207.57)"/><path class="cls-1" d="M316.82,600.25c-3.89,0-7.77,0-11.65,0-.36,0-.82-.17-1,.28s.18.68.45.94c2.54,2.38,4.93,4.91,7.35,7.42,3.52,3.66,7.41,7,11,10.54,2.24,2.23,4.56,4.38,6.85,6.52,2.67,2.5,5.41,5.89,9.65,3.75,1.37.43,2.35,0,3.36-.11.49,0,1.11,0,1.3-.57s-.39-.74-.66-1.08c-2.21-2.71-4.82-5.06-7.22-7.59q-8.33-8.79-16.15-18c-.82-1-1.71-2.08-3.27-2.07" transform="translate(-114.24 -207.57)"/><path class="cls-1" d="M302.69,610.69c.26,5.85.17,11.71.73,17.54.13,1.39.55,2,2.08,2,7.51-.06,15,0,22.53,0a9.49,9.49,0,0,0,4-.38c-10.1-9-19.31-18.65-29.32-27.59.26,2.87-.18,5.66-.05,8.45" transform="translate(-114.24 -207.57)"/><path class="cls-1" d="M305,599c3-.06,6.11-.07,9.17-.11,2.72,0,3-.34,2.93-3.12-.15-8.86-1-17.71-.51-25.36-.22-8.43.1-15.64-.66-22.83-.14-1.35-.5-1.91-1.92-1.93-3.69,0-7.38-.26-11.08-.34s-3.52-.84-3.32,3.4c.52,10.89,1.44,21.75,2.51,32.61a152.54,152.54,0,0,1,.35,15.28c0,1.93.86,2.43,2.53,2.4m.42-15c1.47-1.73,3.9-1.59,5.61-.84,1.05.47.89,1.88,1.32,2.84,1,2.19,1.48,4.48.06,6.74a2.58,2.58,0,0,1-4,.94c-1.74-1.06-3.16-4.62-2.62-6.55a.83.83,0,0,1,.87-.69c.26,1.2.53,2.42.79,3.64.1.51.24,1.07.76,1.24.93.32,1.7,1.47,2.77.9s.76-1.78.77-2.78a5.9,5.9,0,0,0-.95-4c-1.45-1.86-2.77-2.09-4.41-.38-1.13,1.19-2.12,2.56-1.79,4.41.1.54.28,1.15-.39,1.51-1.42-1.92-.95-4.51,1.18-7" transform="translate(-114.24 -207.57)"/><path class="cls-1" d="M318.27,584c.14,2.72.27,5.45.55,8.15.08.79-.86,2.3,1,2.27,1.62,0,1.4-1.29,1.29-2.39,0-.25,0-.5-.06-.75h0c-.17-2.46-.37-4.91-.51-7.37-.06-1-.12-1.88-1.38-1.79s-.94,1.13-.9,1.89" transform="translate(-114.24 -207.57)"/><path class="cls-1" d="M421,458c-.16.4.14.7.33,1,2,3.7,5.06,6.79,6.6,10.81a5.18,5.18,0,0,0,2.08,2.63c.67.36,1-1.24,1.91-1.52.3-.09.58-.28.88-.35.84-.17.91-.77.84-1.75a3.66,3.66,0,0,0-.24-.8,63.61,63.61,0,0,0-7.37-11.21c-.48-.61-4.73.4-5,1.16" transform="translate(-114.24 -207.57)"/><path class="cls-1" d="M350.85,462.89c-2.07-1.32-3.43-3.29-4.88-5.18-.54-.71-1.15-.68-1.43.12-.9,2.48-2.41,4.71-3,7.31l0,0,0,0,0,0s0,0,0,0c1.74.5,2.17,2.37,3.47,3.35,1,.75,1.79,1.8,2.78,2.59.53.43.87.81.42,1.38s-.93.25-1.31-.14c-1.79-1.86-3.57-3.72-5.33-5.6-.46-.49-.24-1.05,0-1.58h0a4.63,4.63,0,0,0-1,1.08c-1.44,3.31-2.52,6.79-4.39,9.92-.47.78.1,1.14.5,1.62.84,1,1.84,1.85,2.65,2.92a36.36,36.36,0,0,0,5.21,5.68,4.19,4.19,0,0,1,.44.56c-.25.18-.49.47-.76.51-.72.1-1.1-.49-1.56-.93-2.1-2-3.77-4.44-5.69-6.63-1.6-1.84-1.52-1.71-2.71.29-2.35,3.92-3.88,8.25-6.28,12.12-.6,1-.85,1.91.3,2.64,1.32.83,1.9,2.32,3,3.34,3.09,2.86,5.29,6.59,8.89,8.95.5.33,1.35.93.89,1.67s-1.39.26-1.82-.15c-1.63-1.58-3.18-3.25-4.71-4.93-2.24-2.48-4.41-5-6.68-7.5-.73-.79-1.52-1.18-2.1.34a26.91,26.91,0,0,1-2.23,4c-1.92,3.18-3.67,6.48-5.48,9.73l.05-.05h0v0c.61-.18,1.22-.64,1.7.32,1.37,2.74,3.85,4.53,5.93,6.63,2.5,2.52,5,5.06,7.27,7.77a14.69,14.69,0,0,0,3.67,3.31c.53.31,1.21.81.66,1.52s-1.16.28-1.62-.24c-1.95-2.15-4.12-4.07-6.05-6.25-2.28-2.58-4.7-5.1-7.22-7.49-1.68-1.59-3.71-3.09-4.34-5.57l0,0c-1,1.77-2.07,3.55-3.09,5.33-.39.69,0,1.22.43,1.71a97.26,97.26,0,0,0,9.59,9.67,24.14,24.14,0,0,1,4.64,5c1.6,2.32,4,3.83,5.48,6.28.5.87,1.31.65,1.41-.33a32.44,32.44,0,0,1,1.34-5.17c1-3.71,1-7.56,1.75-11.31,1.45-6.84,3-13.65,3.86-20.61.07-.62.28-1.18-.34-1.73a87,87,0,0,1-10-11.1c-.41-.52-1.77-.87-1.05-1.65.86-.94,1.43.57,2.19.84.23.08.29.55.49.79,2.43,2.81,4.5,5.94,7.37,8.36,1.35,1.14,2.1.8,2.5-1,.64-2.78,1.47-5.52,2-8.32s1.5-5.37.93-8.21h0v0a10.49,10.49,0,0,1-4.51-4c-.84-1.18-1.9-2.21-2.84-3.32-.45-.54-1-1.29-.4-1.83s1,.4,1.42.78c1.48,1.31,2.08,3.32,3.63,4.58.68.55,1.06,1.26,2.26,1.37.74.06.92.63.83,1.29,1.45-4.41,2.11-9,3.36-13.49a1.18,1.18,0,0,0-.46-1.37m-12.36,58c-.44.18-.64-.28-.87-.56-2.77-3.28-5.66-6.44-8.28-9.83-1.66-2.14-3.56-4.09-5.31-6.16-.44-.52-1.49-1.11-.68-1.86s1.25.32,1.7.85c2.94,3.46,5.9,6.91,8.78,10.42,1.51,1.83,2.56,4.08,5,5,.21.09.29.53.38.72-.06.64-.16,1.18-.69,1.4" transform="translate(-114.24 -207.57)"/><path class="cls-1" d="M325.74,539.05q-6.47-6.76-12.91-13.57a6.21,6.21,0,0,1-.66-1.13c-.38-.63-.59-1.59-1.44-1.59-.65,0-.79.9-1.12,1.42s-.66,1.24-1,1.84c-1.2,2.1-1.05,2.7.61,4.26,2.57,2.41,5,4.93,7.59,7.36a25.07,25.07,0,0,0,5.34,3.88l2.69-.27c.94-.08,2.39.38,2.69-.37.41-1-1.17-1.19-1.78-1.83" transform="translate(-114.24 -207.57)"/><path class="cls-1" d="M350.45,451.88c-2.06-1.22-1.9-1.53-3.09.59-.94,1.67-2.39,3.39.25,4.9.18.1.21.44.32.67a8.88,8.88,0,0,0,2.4,2.87c.86.71,1.64.78,1.68-.74,0-1.27.14-2.53.24-4.28a3.4,3.4,0,0,0-1.8-4" transform="translate(-114.24 -207.57)"/><path class="cls-1" d="M443.11,451.22a75,75,0,0,0-11.1-3.33c-3.25-.64-3.15-.81-3.57,2.51-.16,1.23.25,1.35,1.33,1.62,3.8,1,7.83.87,11.46,2.66,2.46,1.22,2.7,1,2.92-1.8.09-1.19,0-1.27-1-1.66" transform="translate(-114.24 -207.57)"/><path class="cls-1" d="M319,541.51c.23-.54-.24-.82-.59-1.07a38.54,38.54,0,0,1-3.12-2.48c-2.54-2.3-4.8-4.88-7.19-7.33-.36-.38-.62-1.08-1.37-.68a2.26,2.26,0,0,0-.43,3.18c2.22,2.08,4.44,4.16,6.74,6.13,1.42,1.22,2.87,2.53,5,2.46.35,0,.8.24,1-.21" transform="translate(-114.24 -207.57)"/><path class="cls-1" d="M205.29,447.25c3,.91,4.55,4,7.8,4.63-.49-1.28-.92-2.53-1.43-3.75-.19-.43-.32-1.06-1-1.05-1.49,0-2.08-1-2.65-2.1a6,6,0,0,0-3-2.74c-.34-.14-.7-.41-1,0s.66,4.78,1.26,5" transform="translate(-114.24 -207.57)"/><path class="cls-1" d="M207.53,453.69A71.82,71.82,0,0,0,215,458.9c.42.27.88.75,1.36.33s.05-1.05-.19-1.54c-2.18-4.37-6.24-6.26-10.46-7.94-.9-.36-.95.19-.88.81.24,1-.22,2.5,1.68,2.37.34,0,.73.47,1.06.76" transform="translate(-114.24 -207.57)"/><path class="cls-1" d="M209.43,444.32c-1.12-6.07-4.71-10.78-6-16.36a34.32,34.32,0,0,0-.08,5.16c.19,1.82-.32,3.88.8,5.4a68.65,68.65,0,0,0,5.26,5.8" transform="translate(-114.24 -207.57)"/><path class="cls-1" d="M210.69,359.17c2.24-4.2,5-8.05,7.27-12.21a140.59,140.59,0,0,1,9.2-14.21c1.78-2.49,4.11-4.58,5.6-7.52-1.54,0-2.15,1.15-3.11,1.72-4.38,2.62-9.12,4.56-13.5,7.14s-9,4.71-13.4,7.13q-9.69,5.26-19.48,10.32c-5.07,2.62-10.39,4.6-15.53,7-4.87,2.3-9.91,4.23-14.91,6.26-.78.32-1.12.52-.92,1.46,1.15,5.4,2.23,10.81,3.31,16.22a66.24,66.24,0,0,0,1.41,6.92c1,3.23,2.36,6.33,2.89,9.76a86.69,86.69,0,0,0,2.63,9.91c.9,3.22.76,2.82,3.69,2.22.43-.09.85-.25,1.28-.36,4.39-1.07,8.76-2.23,13.18-3.17,5.72-1.21,11.46-2.34,17-4.1.94-.3,1.15-.7,1.05-1.63a28.74,28.74,0,0,1,.45-8.17,143.67,143.67,0,0,1,3.73-14.55,105.67,105.67,0,0,1,8.11-20.17" transform="translate(-114.24 -207.57)"/><path class="cls-1" d="M210.93,479c.94.62,1.8,1.36,2.79,1.88a84.38,84.38,0,0,1,9.8,6.07c3.59,2.57,7.47,4.8,10.73,7.84a3.1,3.1,0,0,0,3.12.65c-1.45-2.44-3-4.73-4.35-7.16-.75-1.34-1.28-2.92-3.44-3.25-1.3-.19-2.3-1.91-3.57-2.73-4.57-2.94-9.16-5.83-13.81-8.64a8.14,8.14,0,0,0-4-1.47c.82,2.47.25,5.2,2.7,6.81" transform="translate(-114.24 -207.57)"/><path class="cls-1" d="M152.71,379c-.55-2.14-1-2.32-2.89-1.28a5.73,5.73,0,0,0-1.26.86c-3.73,3.62-6.36,7.76-6.09,13.25.2,1.9.32,3.82.66,5.69a5,5,0,0,0,1.59,3.36c2.92,2.3,9.52,2.41,12.61.2a1.42,1.42,0,0,0,.6-1.78q-2.62-10.14-5.22-20.3" transform="translate(-114.24 -207.57)"/><path class="cls-1" d="M210.45,471.42c2.58,1.56,5.4,2.7,7.78,4.61,2.09,1.68,4.92,2.21,6.86,4.07a18,18,0,0,0,4.39,2.62c-1.24-3.29-3.68-5.47-4.56-8.52a1.33,1.33,0,0,0-.91-.92c-4.6-1.43-8.42-4.29-12.46-6.77-1.42-.87-2.74-2-4.53-2.43,0,.66.06,1.23.13,1.79a6.86,6.86,0,0,0,3.3,5.55" transform="translate(-114.24 -207.57)"/><path class="cls-1" d="M221.57,470.57c.33.17.68.48,1,.07s0-.62-.16-.86c-1.08-1.16-1.33-2.72-2-4-.76-1.49-1.14-3.45-2.77-4.17a30.22,30.22,0,0,1-7.72-4.68c-1.2-1.05-2.83-1.44-3.83-2.6-.84.08-.66.56-.59,1,.22,1.57.47,3.14.65,4.71a2.64,2.64,0,0,0,1.38,2.09c4.6,3,9.23,5.89,14,8.49" transform="translate(-114.24 -207.57)"/><path class="cls-1" d="M241.93,313.12a27.13,27.13,0,0,0,4.35,3.37c3.71,1.85,7.18,4.2,11.15,5.55,2.76.94,5.27,2.68,8.18,3.08a69,69,0,0,0,18.49,0,58,58,0,0,0,14.72-3.6,79.87,79.87,0,0,0,9.91-5.46c2-1.19,3.54-3.19,5.24-4.88s1.73-4.43,4.21-5.35c.09,0,.14-.21.19-.32,1.36-3,3.51-5.47,5.27-8.17A84.79,84.79,0,0,0,330,285.67c4.82-10.87,3.88-22.31,1.81-33.6a43.18,43.18,0,0,0-5.85-15.58,41.8,41.8,0,0,0-4.07-5.88c-2.13-2.31-4.31-4.6-6.67-6.72a63.35,63.35,0,0,0-6.14-4.41,18.6,18.6,0,0,0-4.88-2.54,64.62,64.62,0,0,1-8.93-3.3,10.09,10.09,0,0,0-3.41-1.18,44.39,44.39,0,0,0-10.93-.35c-3.18.41-6.44.26-9.62.66-7.58.95-13.8,5.12-20.08,9-2.27,1.4-4.11,3.5-6.15,5.28-.23.2-.47.45-.65.32-.65-.6.13-1.08-.23-1.67-.58,0-.85.39-1.19.67-3.09,2.56-4.72,6.3-7.56,9.14s-4.35,6.76-6.2,10.36a16.18,16.18,0,0,0-1.56,4.64c-.49,2.68-1.33,5.3-1.81,8-.54,3-1.42,6.08-.48,9.21.16.54-.08.92-.66.87-1.08-.09-1.1.65-1.07,1.36a37.12,37.12,0,0,1,.28,4.57,37,37,0,0,0,5,22.3c.81,1.35,1.33,2.89,2.09,4.28,2.46,4.48,4.44,9.39,9.89,11.25a4.41,4.41,0,0,1,1.07.79m52.92-53.89c6-.12,11.95.06,17.9-.66.61-.07,1.61-.52,1.68.55s-1,.79-1.6.87c-5.72.7-11.46.34-17.19.49-2.64.07-2.57.07-2.58,2.6,0,3.46,1.13,6.75,1.43,10.17a1.38,1.38,0,0,0,1.41,1.45,79.75,79.75,0,0,0,16.92-.13c.9-.1,1.32-.44,1.27-1.46-.21-3.69-.32-7.39-.49-11.08,0-.58-.23-1.27.57-1.35s.88.65.84,1.23a70.37,70.37,0,0,0,.19,12.57c.15,1.73-1.39,1.65-2.43,1.73-2.53.21-5.08.23-7.63.32-.25,0-.51,0-.76,0v.16c-2.36,0-4.72,0-7.07-.05-3.42-.06-4.34-.74-4.69-4.08s-.56-6.72-.91-10.08c-.24-2.25.9-3.21,3.14-3.25m12.89,11.6c-1.14-.1-2.28,0-3.42-.05a17.25,17.25,0,0,0-5.12-.12c-1.23.08-1.91-.37-1.91-1.72s-.13-2.91-.22-4.37c-.05-1,.28-1.32,1.34-1.26,2.77.14,5.54.6,8.32.21.4,0,.92,0,1,.31a43.22,43.22,0,0,1,1.69,5.59c.19,1-.6,1.51-1.72,1.41m-25.32,12.3c5.66-.35,11.31.43,17-.18,3.41-.37,6.86-.38,10.29-.55,2.17-.1,3,.46,3.16,2.66.28,4.13,1.17,8.2,1.17,12.35,0,.85-.11,1.69.75,2.41s.1,1.16-.6,1.3a36.67,36.67,0,0,1-4.52.73c-3.62.27-7.25.42-10.87.61a1.09,1.09,0,0,1,0-.18c-9.74.37-19.47.8-29.21,1.09-7.39.23-14.78.3-22.17.4-2.51,0-3-.53-3-2.95,0-4,0-7.91,0-11.87,0-.53-.56-1.36.62-1.38,1,0,1.21.58,1.18,1.37-.09,1.92-.24,3.83-.29,5.74s0,3.94,0,5.91c0,1.2.54,1.65,1.79,1.62,7.56-.16,15.13-.2,22.69-.38,7.83-.18,15.65-.53,23.48-.69,4.83-.11,9.67-.13,14.48-.63a2.41,2.41,0,0,1,.38,0c4.35-.2,4.41-.32,3.83-4.61q-.75-5.59-1.29-11.2c-.09-.89-.41-1.1-1.18-1-11,1-22.15.24-33.18,1.14-6.47.52-12.91,1.26-19.4,1.54a99.52,99.52,0,0,1-11.84.08c-.57-.05-1.52.15-1.44-.79.11-1.2.92-.44,1.55-.42a105.7,105.7,0,0,0,16-.41c6.9-.78,13.81-1.24,20.74-1.67m-38.64-42c6.8-.25,13.59-.54,20.39-.32a38.44,38.44,0,0,0,4.36-.47c.57,0,1.26,0,1.23.82s-.68.58-1.18.63c-7,.8-14,.15-21,.71-3.24.25-3.18.16-3.14,3.44.07,4.46,0,8.93-.07,13.39H245c0,4.85-.09,9.69-.11,14.53,0,1.61,0,2.84,2.47,2.63,4.79-.42,9.64-.33,14.46-.5,2.91-.09,5.83.34,8.74-.31.88-.19,1.26-.37,1.13-1.28-1.31-8.85-.64-17.82-1.59-26.7-.14-1.33-.12-2.67-.2-4,0-.51-.21-1.1.55-1.16s.78.49.79,1c.18,5.68,1,11.3,1.15,17,.14,5.16.18,10.33,1.22,15.42.16.78.3,1.89-.85,1.54-2.62-.8-5.19-.08-7.77-.09-5.79,0-11.58.3-17.37.49a3.19,3.19,0,0,0-1.5.18c-2.3,1.42-2-.27-2.18-1.68-.73-8.07,0-16.18-.75-24.26-.3-3.23-.44-6.48-.68-9.71-.07-.94.13-1.27,1.23-1.31m4.66,26.62c-.26-5.91-.73-11.83-.35-17.76.11-1.68.58-2.35,2.48-2.45,4.51-.23,9.05.2,13.53-.57.63-.11,1.12.07,1.08.91-.26,5.31.83,10.53,1,15.81.05,1.4,0,2.8,0,4.2,0,2.07-.67,2.92-2.79,3-1.91.09-3.82,0-5.73,0a42.94,42.94,0,0,0-8,.4c-1.38.24-2-.21-1.4-1.66a4.16,4.16,0,0,0,.15-1.88" transform="translate(-114.24 -207.57)"/><path class="cls-1" d="M153.16,404.59a14.36,14.36,0,0,1-8-1.49c.38,1.19.89,1.74.61,2.62a42.63,42.63,0,0,0-1.36,5.34c-1.22,6.24-2.36,12.5-3.57,18.74-.86,4.43-1.81,8.85-2.7,13.28-.43,2.2-.3,2.29,1.86,2.25,2.52,0,5.13-.37,7.07,1.87.36.41.66,1.17,1.27,1s.63-1,.64-1.63c.19-8.43,2-16.69,2.74-25.06.49-5.18,1.64-10.29,2.51-15.43.16-.91.07-1.53-1.07-1.48" transform="translate(-114.24 -207.57)"/><path class="cls-1" d="M217.38,492.69c4,2.37,8,4.6,11.81,7.17,4.5,3,8.58,6.67,13.3,9.37,1.74,1,2.95,2.74,5.15,3.49-.55-2.24-1.92-3.76-3-5.45-2.4-3.88-3.93-8.45-8.93-10.16a16.57,16.57,0,0,1-4.54-3c-3.32-2.66-6.86-5-10.36-7.37-1.27-.87-3-.87-4-2-1.6-1.71-3.71-2.6-5.67-3.74-.31-.17-.58-.61-1-.34s-.19.68-.17,1.05c.15,2.36,1.32,4.49,1.54,6.86a2.37,2.37,0,0,0,1.71,1.91,15.93,15.93,0,0,1,4.17,2.23" transform="translate(-114.24 -207.57)"/><path class="cls-1" d="M133.45,457.27c-.09-.92,0-1.92-1.61-1.62-4.16.8-8.36,1.45-12.54,2.18-.7.12-1.8,0-1.6,1.09.17.93.52,2.05,1.87,2.08l2.47,0c3.51-.12,6.93-1,10.42-1.24,1.75-.13,1.09-1.53,1-2.51" transform="translate(-114.24 -207.57)"/><path class="cls-1" d="M250.65,269.26a76.77,76.77,0,0,1,9.71.19c4.67.14,4.67.17,4.33-5.81-.32-3.71-.76-8.79-1.19-13.86-.07-.74-.19-1.49-1.2-1.3-3.58.69-7.23.32-10.83.7-1.53.16-2.07.92-2.09,2.14-.12,5.66-.17,11.31.25,17,.05.64.19,1.05,1,1" transform="translate(-114.24 -207.57)"/><path class="cls-1" d="M137.28,465.07c-1.8-1.8-1.88-1.73-2.95.38-2,3.94-3.93,7.9-6,11.81a1.36,1.36,0,0,0,.36,2,21.51,21.51,0,0,0,1.86,1.31c1.77,1.09,2.36.86,3-1.1a3.38,3.38,0,0,1,.49-1c2.57-3.23,3.1-7.43,5.19-10.89a4,4,0,0,0,.21-.59c-.4-1-1.55-1.17-2.25-1.87" transform="translate(-114.24 -207.57)"/><path class="cls-1" d="M150.62,456.37c-1.46,3.18-1,4.23,2.43,5.18a8.11,8.11,0,0,1,1.1.3c3.67,1.49,7.63,1.78,11.4,2.83,1.94.54,2.91-.14,3-2.41.26-.93-.63-1.14-1.29-1.43-5.06-2.26-10.61-2.95-15.74-5-.46-.18-.68.1-.86.49" transform="translate(-114.24 -207.57)"/><path class="cls-1" d="M146.36,461.78a21.29,21.29,0,0,0,1.84-4.37c1.16-3.65.38-5.87-2.71-8-.83-.58-1.73-1.08-2.61-1.59a4.53,4.53,0,0,0-5.1.46,10.43,10.43,0,0,0-2,2.29c1.48,1.77-.25,3.09-.59,4.49-1.07,4.42,1.94,8.67,7.11,8.88a4.34,4.34,0,0,0,4-2.13" transform="translate(-114.24 -207.57)"/><path class="cls-1" d="M148,466.05c-1.34-1.45-2.24-2.1-3.86-.75-.4.32-1.3.11-1.18,1a1.45,1.45,0,0,0,1.42,1.31,2.39,2.39,0,0,1,2,1.75c1.5,3.47,4,6.21,6.55,8.87.41.43.83.8,1.49.5.87-.39,1.11-1.31,1.82-1.91-1.05-1.26-.94-3-2.17-4-2.3-2-4.05-4.48-6.12-6.68" transform="translate(-114.24 -207.57)"/><path class="cls-1" d="M262.18,495.33a4.84,4.84,0,0,0-1.56.2c-5,2-9.11,7.88-4.78,14.06,1.72,2.46,7.86,4.32,10.18,1.77a14.45,14.45,0,0,0,3.4-5.19c1.64-5-1.89-10.7-7.24-10.84m-.38,13c-2.63,0-4.82-1.83-4.83-4s2.36-4.79,4.46-4.79,4.61,2.72,4.59,5a4.28,4.28,0,0,1-4.22,3.82" transform="translate(-114.24 -207.57)"/><path class="cls-1" d="M300.22,541c.12,1.11,1.36.33,2.07.68.65-.42,2,.5,2-.62a2.44,2.44,0,0,0-2.41-2,1.79,1.79,0,0,0-1.65,2" transform="translate(-114.24 -207.57)"/><path class="cls-1" d="M250.48,573.72c.14,2.09.44,4.2.47,6.27.1,6.94.74,13.86.85,20.79,0,2,.9,2.72,2.52,2.78,3.93.16,7.85.67,11.81.19,1.51-.19,1.86-.75,1.84-2.16-.05-5.67-.36-11.34-.49-17,0-6.17.31-12.36.09-18.52-.22-5.91-.18-11.82-.08-17.72.06-3.37.24-3.34-3.15-3.25q-8.88.23-17.73.82c-1.43.09-1.9.44-1.41,2a25.38,25.38,0,0,1,.81,4.7c.67,5.88,1.29,11.76,2,17.65.07.62-.19,1.54.92,1.55,1.34,0,1.53,1,1.6,2M250,561.66a25.91,25.91,0,0,1,.79-3.15c.61-1.88,2.62-2.68,5.68-2.33,1.92.22,2.89,1.19,3,3.28.09,2.27.88,4.46.2,6.82s-1,2.94-3.54,3c-4.18.49-6.59-4.8-6.11-7.6" transform="translate(-114.24 -207.57)"/><path class="cls-1" d="M268,606.88a36,36,0,0,0-5.3,5.89c-1.68,2.26-3.69,4.31-5.39,6.59-2.79,3.72-5.55,7.46-8.33,11.19-.26.35-.69.71-.36,1.16s.82.28,1.25.22a140,140,0,0,1,16.73-1.39c1.24,0,1.65-.5,1.62-1.74-.14-4.77-.22-9.55-.27-14.32,0-2.41,0-4.82.05-7.6" transform="translate(-114.24 -207.57)"/><path class="cls-1" d="M254.63,620.88c1.18-3,3.76-4.91,5.57-7.38s3.69-4.8,5.62-7.13c.27-.32.69-.68.38-1.17s-.7-.28-1.06-.25c-3,.28-5.95-.35-9.2-.49-1.68,0-4-.58-5,1.56s-2.49,3.49-3.78,5.18c-2.43,3.18-4.58,6.55-6.95,9.76-2.71,3.65-5.23,7.44-8,11-.22.3-.55.66-.23,1,.16.17.59.16.88.13,3.92-.44,7.87-.65,11.81-.79a2.55,2.55,0,0,0,1.85-.79c2.34-2.36,3.83-5.34,5.93-7.88a12,12,0,0,0,2.2-2.81" transform="translate(-114.24 -207.57)"/><path class="cls-1" d="M261.26,501a3.45,3.45,0,0,0-2.73,2.95,3.58,3.58,0,0,0,3.48,3.14,2.41,2.41,0,0,0,2.55-2.68c0-1.5-1.93-3.46-3.3-3.41" transform="translate(-114.24 -207.57)"/><path class="cls-1" d="M239,515.32c4.89,3.17,9.53,6.7,14.22,10.15a23.07,23.07,0,0,0,5.57,3.29,32.14,32.14,0,0,0-3.9-5.84c-2.05-2.61-2.88-6.07-6.42-7.81a32.36,32.36,0,0,1-7.48-4.68c-1.8-1.6-4.28-2.21-6.17-3.66-1.53-1.17-3.24-2-4.81-3-3.22-2.12-6.33-4.39-9.47-6.62-2.67-1.9-5.31-3.82-8.21-5.9a18.67,18.67,0,0,0,1.49,6.63c.15.42.17.85.61,1.13,3.93,2.52,7.84,5.07,11.78,7.56,4.38,2.76,8.46,5.94,12.79,8.75" transform="translate(-114.24 -207.57)"/><path class="cls-1" d="M279.14,488.08c-3.85-.52-7.68-1.05-11.56-1.3-3.23-.21-6.45-.32-9.59-1.41-4.07-1.41-8.19-2.64-11.84-5-1.44-.93-3-1.75-4.37-2.71-3.31-2.22-6.91-4-10.14-6.35-3.45-2.54-5.95-6-9.08-8.84-1.72-1.56-2.9-3.65-4.92-5.27a1.67,1.67,0,0,0,.36,1.53c3,3.93,4.48,8.65,7,12.88,1.9,3.24,3.66,6.65,5.6,9.86l7,11.53c2,3.29,4.24,6.42,6.1,9.81,2.9,5.25,6.39,10.17,9.68,15.2q6.26,9.56,12.59,19c.52.78.84,2.2,2.08,1.9,1-.25.46-1.56.73-2.37,1.3-3.9,2.81-7.76,3.72-11.75,1.61-7,4.31-13.68,5.42-20.8.74-4.76,1.87-9.46,2.56-14.24.16-1.14-.06-1.55-1.28-1.71m-9.59,21.23c-3.07,3.71-3.87,4.42-7.55,4.32-1.65.25-3.29-.65-5.05-.88-1.24-.15-1.55-1.45-2.2-2.23-2.8-3.4-3.72-7.59-.6-11.26a22.55,22.55,0,0,1,3.25-3.67c2.54-2,5.17-1.6,7.92-.84,6.33,1.76,7.49,10.62,4.23,14.56" transform="translate(-114.24 -207.57)"/><path class="cls-1" d="M310,520.85c3.79-6,7.49-12.06,10.78-18.34,1.89-3.62,4.08-7.08,5.9-10.75,2-4,3.73-8.19,6.19-12a14.59,14.59,0,0,0,1.69-3.19c1.33-4,3.39-7.62,5.12-11.38a149,149,0,0,1,7.77-15.66c.24-.4.71-.93.07-1.32s-.9.17-1.22.59a87.48,87.48,0,0,1-9.54,10.56c-5.12,4.84-10.35,9.52-16.38,13.17a138.27,138.27,0,0,1-12.46,7.06c-5.09,2.41-10.07,5-15.58,6.36-2.82.68-5.69,1.21-8.54,1.81-.59.12-1.49.1-.82,1.09,1.93,2.89,2.7,6.22,3.75,9.48,1.36,4.23,3.05,8.34,4.22,12.64,1.07,3.92,2.83,7.69,3.64,11.65,1.13,5.56,3.06,10.88,4.46,16.47,1.77-2.7,3.83-5,5.18-8.08A80.68,80.68,0,0,1,310,520.85" transform="translate(-114.24 -207.57)"/><path class="cls-1" d="M309.8,541.67c1.23.11,2.06.19,2.88.25.31,0,.67.07.83-.29s-.11-.57-.35-.78c-2.32-2-4.62-4.06-7-6.08-.62-.53-1.55-1.23-2-.08s-2.57,2.09-1,3.65c1.91,1.87,3.74,4.09,6.53,3.33" transform="translate(-114.24 -207.57)"/><path class="cls-1" d="M228.73,522.21c5.36,3.94,11,7.39,16.31,11.48,2.91,2.26,6.15,4.2,9.1,6.41,2.24,1.68,4.34,1.48,7,1.36-1.57-1.9-3.71-2.2-5.16-3.48-5-4.4-10.76-7.74-15.95-11.89a129.26,129.26,0,0,0-14.8-10.49c-2.72-1.6-5.36-3.33-8-5,.29,2,.53,3.81,2.23,5.06,3.05,2.25,6.23,4.32,9.28,6.55" transform="translate(-114.24 -207.57)"/><path class="cls-1" d="M224.25,526.43a145,145,0,0,1,18.64,12.73c2.64,2.1,5.26,3.49,8.69,2.75.47-.1,1.17.24,1.36-.35s-.62-.82-1-1.2c-1.26-1.32-3.13-1.62-4.51-2.77a123.18,123.18,0,0,0-12.14-8.78,50.15,50.15,0,0,1-5.55-3.87c-3.33-2.89-7.46-4.57-10.67-7.67.54,3.75,1.21,6.93,5.17,9.16" transform="translate(-114.24 -207.57)"/><path class="cls-1" d="M253.49,566.39c1,.82,2.07,1.76,3.57,1.19a2.73,2.73,0,0,0,1.73-2.84,17,17,0,0,0-1.25-5.76c-1.06-1.79-3.93-1.72-5.14,0-1.66,2.29-.39,6.21,1.09,7.45" transform="translate(-114.24 -207.57)"/><path class="cls-1" d="M231.66,518.1c3.08,2.06,5.91,4.49,8.91,6.68,3.22,2.34,6.6,4.46,9.71,6.92s6.15,4.43,9.2,6.67a40.3,40.3,0,0,0,5.37,2.85A10.79,10.79,0,0,0,266,541c.45-.18,1.14.31,1.36-.29s-.43-1-.83-1.37a23.37,23.37,0,0,1-2.4-3.12c-1.92-2.3-2.95-5.65-6.46-6.29a10.52,10.52,0,0,1-3.57-1.87c-3.81-2.38-7.26-5.27-10.86-7.92-3.31-2.44-6.79-4.64-10.12-7-2.78-2-5.27-4.37-8.41-6s-5.85-3.74-8.77-5.63a1,1,0,0,0-.7-.18c-.37.13-.34.56-.24.82a20.12,20.12,0,0,1,1.39,5.92.86.86,0,0,0,.57.71c2,.79,3.4,2.53,5.28,3.38,3.44,1.55,6.34,3.9,9.43,6" transform="translate(-114.24 -207.57)"/><path class="cls-1" d="M246.44,567.77c.22-3.27-.87-6.54-.8-9.91,0-1-.54-1.25-1.36-1s-2-.3-1.89,1.21c.15,2.53.18,5.08.5,7.59a35,35,0,0,0,1.26,5,1.54,1.54,0,0,0,1.86,1.24c1-.14.61-.92.58-1.5,0-.83-.09-1.65-.15-2.58" transform="translate(-114.24 -207.57)"/><path class="cls-1" d="M243.08,542c.23-.75-.69-1.17-1.23-1.5-3.43-2-6.22-4.89-9.69-6.91-3.18-1.86-6.1-4.24-9.23-6.24a3,3,0,0,0-2-.84c0,1.46.74,2.69,1.07,4a3.94,3.94,0,0,0,1.95,2.57c3.48,2.18,6.78,4.62,10.17,6.94,2.14,1.47,4.23,3.09,7.1,2.48.65-.14,1.62.27,1.87-.52" transform="translate(-114.24 -207.57)"/><path class="cls-1" d="M224.91,542.35a.93.93,0,0,0,1.11.83c2.67-.51,5.41,0,8.58-.46-3.57-3.28-7.44-5.36-11.18-8.33.16,3.09,1.15,5.46,1.49,8" transform="translate(-114.24 -207.57)"/><path class="cls-1" d="M305.31,264.84l-4.2-.08c-2.63,0-2.51-.05-2.28,2.59.14,1.62.79,2.09,2.28,1.9a14.72,14.72,0,0,1,2.1,0v0c1,0,2,0,3,0,.38,0,.89.09,1-.31.38-1.21-.1-2.39-.33-3.54-.16-.79-1-.61-1.63-.63" transform="translate(-114.24 -207.57)"/><path class="cls-1" d="M329.36,239.65c-1.08-3.77-1.67-4.86-3-5.43,1.49,1.6,1,4,3,5.43" transform="translate(-114.24 -207.57)"/><path class="cls-2" d="M447.25,447.07c-4.84-1.21-9.73-2.26-14.46-3.9a3.68,3.68,0,0,1-2.45-2.88c-.33-1.27-.38-2.76-1.52-3.62a2.14,2.14,0,0,1-.79-2.15c.61-10.95.45-21.91.86-32.86A70.93,70.93,0,0,1,430,390.91c.88-4.56,0-9.08-1.65-13.45-1.48-3.89-3.89-6.81-8.05-7.86-1.45-.36-1.54-1-1.06-2.15,1.12-2.7,2.22-5.41,3.27-8.14q1.45-3.8-2.24-5.57a76.71,76.71,0,0,1-7.71-3.7c-2.89-1.8-5.88-3.53-8.92-5-7.36-3.66-14.65-7.49-22-11.13-3.86-1.9-7.66-4.09-11.62-5.69-5.3-2.16-10.46-4.65-15.82-6.68-3.51-1.33-6.85-3.17-10.26-4.78-6.26-3-12.66-5.61-19-8.3-2.48-1.05-2.81-2.13-1.37-4.38,2.14-3.35,4.11-6.81,6.31-10.12,1.61-2.41,2.5-5.14,3.76-7.69a26.1,26.1,0,0,0,2.77-8.68,76.29,76.29,0,0,0,.7-12c-.36-7.3.32-14.7-2.12-21.78-1-3-1.71-6.25-3.34-8.9C326,225.89,318,219.36,309,214c-2.39-1.42-5.05-2-7.59-2.95-3.08-1.17-6.18-2.57-9.44-2.87-6-.55-12-1-17.92-.05-6.76,1.12-13.21,3.51-19.57,6.06-6.06,2.42-11.64,5.42-15.95,10.61-1.34,1.6-2.41,3.37-3.76,4.94a78.34,78.34,0,0,0-9.48,13.32,23.73,23.73,0,0,0-2.57,5.93c-.74,3.13-1.78,6.16-2,9.47-.35,4.75-1,9.49-1.26,14.26-.16,3,.11,6,.19,9A33.55,33.55,0,0,0,221.36,292c.93,2.67,2.59,4.92,3.51,7.55a22.83,22.83,0,0,0,3,5.52c1,1.45,2.24,2.73,3.24,4.2a26.29,26.29,0,0,0,6.55,7.28c.39.27,1.09.17,1.05.88,0,.55-.64.56-1,.77-5.19,3-10.5,5.82-15.89,8.48-3.17,1.57-6.3,3.23-9.49,4.75-3.77,1.78-7.64,3.34-11.34,5.24-1.59.82-3.32,1.31-4.83,2.22-3.31,2-7,3.28-10.26,5.3-2.65,1.63-5.64,2.47-8.31,4a82.57,82.57,0,0,1-11,5.26c-2.23.9-4.47,1.77-6.7,2.66-3.11,1.25-6,3-9.4,3.52-2.14.34-3.21,1.74-2.83,3.41.73,3.24.56,6.62,1.65,9.79a1.15,1.15,0,0,1-.72,1.65c-3.8,1.84-6.27,5-8.31,8.54-2.57,4.46-2.24,9.42-1.47,14.17.38,2.4.71,5.49,3.86,6.56a.58.58,0,0,1,.21.84c-1.64,2.8-1.38,6-2.1,9.05-2.2,9.11-3.36,18.41-5,27.62-.52,2.93-.86,5.9-2.15,8.63-.33.69-.54,1.49-1.63,1.64-5.28.69-10.44,2.17-15.77,2.57-1.55.11-2.14.88-1.84,2.6.39,2.23,1.49,4.3,1.37,6.68a3.69,3.69,0,0,0,1.3,2.25c.58.58,1.09-.38,1.69-.48.37-.07.75-.13,1.13-.17,2.53-.3,5.06-.62,7.59-.88.93-.09,2.13-.68,2.72.06s-.81,1.32-.93,2.12c-.65,4.07-3.56,7.09-5.09,10.78-.94,2.26-.07,3.6,2.09,4.11a5.32,5.32,0,0,1,2.29.84,18.81,18.81,0,0,0,5.11,2.5c1,.39,2.27.39,2.59-.8a32.28,32.28,0,0,1,1.65-3.8c1.3-3.19,2.88-6.26,4.42-9.54,2.88,4.09,5,8.33,7.93,12.11.65.85,1.07,1.13,2.14.54a38.43,38.43,0,0,0,7.78-5.68,1.33,1.33,0,0,0,.26-2c-2-2.73-3.68-5.63-6.1-8-.38-.38-1.14-.74-.67-1.35s1.16-.13,1.58.16a7.72,7.72,0,0,0,3.34,1.2,67,67,0,0,1,8.54,1.87c2.13.64,2.84.55,3.13-1.59a17.85,17.85,0,0,1,1.77-5.6c1.15-2.32.54-3.34-2-4.06a4.87,4.87,0,0,1-1-.47,21.42,21.42,0,0,0-6-2.3,98.87,98.87,0,0,1-10.27-3,1.58,1.58,0,0,1-1.19-2c.53-4.16,1-8.33,1.53-12.5.88-7.21,2.22-14.36,2.94-21.6.33-3.36,1.25-6.67,2-10.5a10.84,10.84,0,0,1,2.13,6.44c.2,2.5,2.13,4.19,4.36,3.56,5.38-1.51,10.78-2.89,16.25-4.05,4.83-1,9.7-2.09,14.46-3.51,2.31-.69,2.57-.43,3.06,1.93a12.2,12.2,0,0,1,.24,1.7q.31,6.19.61,12.4c.24,5,.14,10.11.76,15.1,1.14,9,2,18.08,3.55,27.08,1.32,7.91,2.66,15.81,4.25,23.67,1.39,6.92,4.12,13.49,5.47,20.45.72,3.74,2.3,7.31,3,11.05,1.38,7.52,4,14.73,5.44,22.21a5.28,5.28,0,0,0,5.15,3.92c3.25,0,6.5,0,9.75-.09,4.42-.12,4.36-.15,5.1,4.25.27,1.56,0,2.51-1.64,3-1.26.37-2.37,1-2,2.7,1.06,5.09.71,10.29,1.31,15.42.21,1.75,1.23,2.62,3,2.35,1-.17,2-.33,3-.53s1.22.11,1.36,1c1.31,8.6,1,17.3,1.86,25.92,0,.57.21,1.26-.24,1.66-1.69,1.51-2.4,3.7-3.83,5.42-2.51,3-4.59,6.36-6.87,9.55-2.86,4-5.14,8.41-8.46,12.11-.72.81-1.84,2.06-1.41,2.91a14,14,0,0,0,2.1,3.71c.78.77,1.81-.1,2.74-.17,8.5-.65,17-1.41,25.5-2,3.37-.25,6.75-.38,10.12-.35,1.89,0,4.22-1.74,4.12-3.63-.52-9.23-.34-18.47-.44-27.71q-.27-25.23-.58-50.47c-.09-6.79.32-13.57,2.72-20.08a84.82,84.82,0,0,0,3.42-10.93c1.57-7,4.23-13.75,5.26-20.89.07-.48,0-1.13.74-1.11.58,0,.54.63.72,1,2.06,4.54,2.79,9.48,4.27,14.2,1.17,3.76,2,7.61,3.09,11.42,2.05,7.58,4.6,15,4.85,23,.29,9.5.73,19,1.85,28.42a138.75,138.75,0,0,1,.59,16.43c0,8.54.21,17.09,0,25.64-.08,3.84.25,7.64.44,11.45.07,1.39.59,2.84,2.5,2.74,9.23-.49,18.46-.22,27.69-.18,5.86,0,11.72-.19,17.58-.26.83,0,2-.33,1.81-.93-.57-1.73-.18-3.41-.3-5.1,0-.25-.35-.52-.58-.73-1.86-1.6-3.48-3.46-5.21-5.19-3.61-3.6-7-7.45-10.38-11.26-.93-1-2.11-1.78-3-2.89-2.16-2.7-4.07-5.63-7-7.67-.39-.28-1-.57-.8-1.16s.88-.29,1.35-.35c2.27-.27,2.9-.87,2.63-3-.62-4.85-.24-9.69-.19-14.53,0-2.63,0-2.87-2.53-2.73-1.81.09-2.05-.85-2.05-2.2,0-2.42.1-4.84.09-7.27,0-7.06.15-14.13-1.42-21.08-.14-.65-.24-1.28.69-1.46,2.11-.42,4.09-1.26,6.32-1.24a78.22,78.22,0,0,0,8.37-.54c3.58-.35,5.12-2,5.46-5.55a8.36,8.36,0,0,1,.45-2c2-5.72,2.62-11.79,4.28-17.61,1.38-4.83,1.93-9.87,3.13-14.73,2.72-11.07,5.07-22.21,6.92-33.46,1.1-6.67,1.44-13.44,2.3-20.13.73-5.68,1.51-11.36,2-17.07.91-9.72.69-19.48,1.16-29.22.08-1.58.54-1.8,2-1.45,5.37,1.28,10.86,2.16,16.08,4,5,1.73,10.27,2.35,15.28,4a73.38,73.38,0,0,0,7.18,1.85c1,.24,2.5.65,2.94-.51.69-1.78,1.92-3.24,2.5-5.09a61.22,61.22,0,0,1,2.72-6.31,114.09,114.09,0,0,1,1.09,13.4c.33,7.33.87,14.65,1.28,22a3.9,3.9,0,0,1-4.16,4c-3.1-.46-6.22-.45-9.34-.6a29.14,29.14,0,0,1-6.93-1.17c-1.42-.43-2.39-.11-2.45,1.32a21.18,21.18,0,0,1-1.05,5.18c-.9,3-.1,4.15,2.93,4.58,4.53.66,9.11.87,13.61,1.76,1.47.28,2.19.7,1,2.26-.52.68-.9,1.52-1.49,2.18-2.56,2.88-5.19,5.7-7.66,8.65-1.53,1.82-.6,5.12,1.69,5.72a7.34,7.34,0,0,1,4,2.61,27.34,27.34,0,0,0,2.29,2c1.48,1.46,2.58.57,3.4-.64,2.79-4.1,6.12-7.73,9.28-11.52.9-1.08,1.33-.81,2.16.12,2.51,2.82,4.24,6.13,6.17,9.31a15.33,15.33,0,0,1,1.86,3.54,2.29,2.29,0,0,0,4.09.8c1.77-2.2,4.27-3.47,6.44-5.15,1.68-1.3,2.2-2.21,1-3.91a37.6,37.6,0,0,1-3.61-5.31,33.13,33.13,0,0,0-2.67-4.33c-.29-.41-.88-.66-.5-1.21s.8-.17,1.24,0c3.4,1,7,1.51,10.15,3.17a1.63,1.63,0,0,0,2.52-.76,42.21,42.21,0,0,0,3.39-10c.27-1.07-.5-1.42-1.55-1.68M329.36,239.65c-2.07-1.41-1.55-3.83-3-5.43,1.37.57,2,1.66,3,5.43M231,301.08c-.76-1.39-1.28-2.93-2.09-4.28a37,37,0,0,1-5-22.3,37.12,37.12,0,0,0-.28-4.57c0-.71,0-1.45,1.07-1.36.58.05.82-.33.66-.87-.94-3.13-.06-6.18.48-9.21.48-2.69,1.32-5.31,1.81-8a16.24,16.24,0,0,1,1.56-4.65c1.85-3.59,3.36-7.51,6.2-10.35s4.47-6.58,7.57-9.14c.33-.28.6-.66,1.18-.67.36.59-.42,1.07.23,1.67.18.13.42-.12.65-.32,2-1.78,3.88-3.88,6.15-5.28,6.28-3.87,12.5-8,20.08-9,3.18-.4,6.44-.25,9.62-.66a44.39,44.39,0,0,1,10.93.35,10.09,10.09,0,0,1,3.41,1.18,64.62,64.62,0,0,0,8.93,3.3,18.51,18.51,0,0,1,4.89,2.54,64.47,64.47,0,0,1,6.13,4.41c2.36,2.12,4.54,4.41,6.67,6.72a41.8,41.8,0,0,1,4.07,5.88,43.18,43.18,0,0,1,5.85,15.58c2.07,11.29,3,22.73-1.81,33.6a84.79,84.79,0,0,1-6.31,11.69c-1.76,2.7-3.91,5.2-5.27,8.17-.05.11-.1.28-.19.32-2.47.92-2.58,3.71-4.21,5.35s-3.24,3.69-5.24,4.88a79.87,79.87,0,0,1-9.91,5.46,58,58,0,0,1-14.72,3.6,69,69,0,0,1-18.49,0c-2.91-.4-5.42-2.14-8.18-3.08-4-1.35-7.44-3.7-11.15-5.55a27.13,27.13,0,0,1-4.35-3.37,4.41,4.41,0,0,0-1.07-.79c-5.45-1.86-7.43-6.77-9.89-11.25M122,461l-2.47,0c-1.35,0-1.7-1.15-1.87-2.08-.2-1.1.9-1,1.6-1.09,4.18-.73,8.37-1.38,12.54-2.18,1.56-.3,1.52.7,1.61,1.62s.76,2.38-1,2.51c-3.49.27-6.91,1.12-10.42,1.24m17.28,6.51c-2.09,3.46-2.62,7.66-5.19,10.89a3.38,3.38,0,0,0-.49,1c-.68,2-1.27,2.19-3,1.1a21.51,21.51,0,0,1-1.86-1.31,1.36,1.36,0,0,1-.36-2c2-3.91,4-7.87,6-11.81,1.07-2.11,1.15-2.18,2.95-.38.7.7,1.85.86,2.25,1.87a4,4,0,0,1-.21.59m3-3.62c-5.16-.21-8.18-4.46-7.11-8.88.34-1.4,2.07-2.72.59-4.49a10.43,10.43,0,0,1,2-2.29,4.53,4.53,0,0,1,5.1-.46c.88.51,1.77,1,2.61,1.59,3.09,2.16,3.87,4.38,2.71,8a21.29,21.29,0,0,1-1.84,4.37,4.34,4.34,0,0,1-4,2.13m11.78,8.83c1.23,1.05,1.12,2.78,2.17,4-.71.6-.95,1.52-1.82,1.91-.66.3-1.07-.07-1.49-.5-2.58-2.66-5.05-5.4-6.55-8.87a2.39,2.39,0,0,0-2-1.75,1.45,1.45,0,0,1-1.42-1.31c-.12-.85.78-.64,1.18-1,1.62-1.35,2.52-.7,3.86.75,2.07,2.2,3.82,4.7,6.12,6.69m-2.63-16.86c5.13,2,10.68,2.7,15.74,5,.66.29,1.55.5,1.29,1.43,0,2.27-1,3-3,2.41-3.77-1.05-7.73-1.34-11.4-2.83a9.89,9.89,0,0,0-1.1-.3c-3.4-.95-3.89-2-2.43-5.18.18-.39.4-.67.86-.49m2.75-49.81c-.87,5.14-2,10.25-2.51,15.43-.78,8.37-2.55,16.63-2.74,25.06,0,.62.05,1.43-.64,1.63s-.91-.58-1.27-1c-1.94-2.24-4.55-1.91-7.07-1.87-2.16,0-2.29-.05-1.86-2.25.89-4.43,1.84-8.85,2.7-13.28,1.21-6.24,2.35-12.5,3.57-18.74a42.63,42.63,0,0,1,1.36-5.34c.28-.88-.23-1.43-.61-2.62a14.36,14.36,0,0,0,8,1.49c1.14,0,1.23.57,1.07,1.48m3.1-5c-3.09,2.21-9.69,2.1-12.61-.2a5,5,0,0,1-1.59-3.36c-.34-1.87-.46-3.79-.67-5.69-.26-5.49,2.37-9.63,6.1-13.25a5.73,5.73,0,0,1,1.26-.86c1.93-1,2.34-.86,2.89,1.28q2.61,10.15,5.22,20.3a1.42,1.42,0,0,1-.6,1.78m41.52-7.17a28.74,28.74,0,0,0-.45,8.17c.1.93-.11,1.33-1.05,1.63-5.59,1.76-11.33,2.89-17,4.1-4.42.94-8.79,2.1-13.18,3.17-.43.11-.85.27-1.28.36-2.93.6-2.79,1-3.69-2.22a86.69,86.69,0,0,1-2.63-9.91c-.53-3.42-1.87-6.53-2.89-9.76a66.24,66.24,0,0,1-1.41-6.92c-1.09-5.41-2.16-10.82-3.31-16.22-.2-.94.14-1.14.92-1.46,5-2,10-4,14.91-6.26,5.14-2.43,10.46-4.41,15.53-7q9.79-5.06,19.48-10.32c4.44-2.42,9-4.56,13.4-7.13s9.12-4.52,13.5-7.14c1-.57,1.57-1.73,3.11-1.72-1.49,2.94-3.82,5-5.6,7.52A140.59,140.59,0,0,0,218,347c-2.29,4.16-5,8-7.27,12.21a105.67,105.67,0,0,0-8.11,20.17,143,143,0,0,0-3.73,14.55m4.52,39.23a34.32,34.32,0,0,1,.08-5.16c1.27,5.58,4.86,10.29,6,16.36a67.14,67.14,0,0,1-5.26-5.8c-1.12-1.52-.61-3.58-.8-5.4m.66,9.16c.3-.45.66-.18,1,0a5.93,5.93,0,0,1,3,2.74c.57,1.06,1.16,2.13,2.65,2.1.64,0,.78.62,1,1.05.51,1.22.94,2.47,1.43,3.75-3.25-.62-4.83-3.72-7.8-4.63-.6-.19-1.62-4.46-1.26-5m.76,8.28c-.07-.62,0-1.17.88-.81,4.22,1.68,8.28,3.57,10.46,7.94.24.49.78,1,.19,1.54s-.94-.06-1.36-.33a71.82,71.82,0,0,1-7.43-5.21c-.33-.29-.72-.79-1.06-.76-1.9.13-1.44-1.33-1.68-2.37m1.35,9.43c-.18-1.57-.43-3.14-.65-4.71-.07-.44-.25-.92.59-1,1,1.17,2.63,1.55,3.83,2.6a30.22,30.22,0,0,0,7.72,4.68c1.63.72,2,2.68,2.78,4.17.68,1.33.93,2.89,2,4,.21.24.39.58.16.86s-.68.1-1-.07c-4.82-2.6-9.44-5.53-14-8.49a2.64,2.64,0,0,1-1.38-2.09m1,5.88c-.07-.56-.09-1.13-.13-1.8,1.79.43,3.11,1.57,4.53,2.44,4,2.48,7.86,5.34,12.46,6.77a1.33,1.33,0,0,1,.91.92c.88,3.05,3.32,5.23,4.56,8.52a17.7,17.7,0,0,1-4.39-2.63c-1.94-1.85-4.77-2.38-6.86-4.06-2.38-1.91-5.2-3-7.78-4.61a6.86,6.86,0,0,1-3.3-5.55m5,7.75c4.65,2.81,9.24,5.7,13.81,8.64,1.27.82,2.27,2.54,3.57,2.73,2.16.33,2.7,1.91,3.44,3.25,1.34,2.43,2.9,4.72,4.35,7.16a3.1,3.1,0,0,1-3.12-.65c-3.26-3-7.14-5.27-10.73-7.84a84.38,84.38,0,0,0-9.8-6.07c-1-.52-1.85-1.26-2.79-1.88-2.45-1.61-1.88-4.34-2.7-6.81a8.14,8.14,0,0,1,4,1.47m-.7,14.93c-.22-2.37-1.39-4.5-1.54-6.86,0-.37-.24-.79.17-1.05s.69.17,1,.34c2,1.14,4.07,2,5.67,3.74,1.07,1.15,2.78,1.15,4,2,3.5,2.39,7,4.71,10.36,7.37a16.57,16.57,0,0,0,4.54,3c5,1.71,6.53,6.28,8.93,10.16,1,1.69,2.41,3.21,3,5.45-2.2-.75-3.41-2.5-5.15-3.49-4.72-2.7-8.8-6.34-13.3-9.37-3.81-2.57-7.85-4.8-11.81-7.17a15.93,15.93,0,0,0-4.17-2.23,2.37,2.37,0,0,1-1.71-1.91m2.27,9.33a18.67,18.67,0,0,1-1.49-6.63c2.9,2.08,5.54,4,8.21,5.9,3.14,2.23,6.25,4.5,9.47,6.62,1.57,1,3.28,1.83,4.81,3,1.89,1.45,4.37,2.06,6.17,3.66a32.36,32.36,0,0,0,7.48,4.68c3.54,1.74,4.37,5.2,6.42,7.81a32.14,32.14,0,0,1,3.9,5.84,23.07,23.07,0,0,1-5.57-3.29c-4.69-3.46-9.33-7-14.22-10.15-4.33-2.81-8.41-6-12.79-8.75-3.94-2.49-7.85-5-11.78-7.56-.44-.28-.46-.71-.61-1.13m2.61,10.18a20.12,20.12,0,0,0-1.39-5.92c-.1-.26-.13-.69.24-.82a1,1,0,0,1,.7.18c2.92,1.89,5.69,4.08,8.77,5.63s5.63,4,8.41,6c3.33,2.38,6.81,4.58,10.12,7,3.6,2.65,7.05,5.54,10.86,7.92a10.52,10.52,0,0,0,3.57,1.87c3.51.64,4.54,4,6.46,6.29a23.37,23.37,0,0,0,2.4,3.12c.41.35,1.08.71.83,1.37s-.91.11-1.36.29a11.42,11.42,0,0,1-1.14.26,40.3,40.3,0,0,1-5.37-2.85c-3.05-2.24-6.22-4.31-9.2-6.67s-6.49-4.58-9.71-6.92c-3-2.19-5.83-4.62-8.91-6.68s-6-4.4-9.43-6c-1.88-.85-3.3-2.59-5.28-3.38a.86.86,0,0,1-.57-.71m.84,2.54c2.68,1.67,5.32,3.39,8,5a129.26,129.26,0,0,1,14.8,10.49c5.19,4.15,11,7.49,15.95,11.89,1.45,1.28,3.59,1.58,5.16,3.48-2.69.12-4.79.32-7-1.36-2.95-2.21-6.19-4.15-9.1-6.41-5.26-4.09-10.95-7.54-16.31-11.48-3-2.23-6.23-4.3-9.28-6.54-1.7-1.26-1.94-3.09-2.23-5.07m12.53,14.34a50.15,50.15,0,0,0,5.55,3.87,123.18,123.18,0,0,1,12.14,8.78c1.38,1.15,3.25,1.45,4.51,2.77.37.38,1.23.48,1,1.2s-.89.25-1.36.35c-3.43.74-6.05-.65-8.69-2.74a144.09,144.09,0,0,0-18.64-12.74c-4-2.23-4.63-5.42-5.17-9.16,3.21,3.1,7.34,4.78,10.67,7.67M226,543.18a.93.93,0,0,1-1.11-.83c-.34-2.5-1.33-4.88-1.49-8,3.74,3,7.61,5.05,11.18,8.33-3.17.43-5.91-.05-8.58.46m15.19-.67c-2.87.61-5-1-7.1-2.48-3.39-2.32-6.69-4.76-10.17-6.94a3.94,3.94,0,0,1-1.95-2.57c-.33-1.33-1.05-2.56-1.07-4a3,3,0,0,1,2,.84c3.13,2,6,4.38,9.23,6.24,3.47,2,6.26,4.9,9.69,6.91.54.33,1.46.75,1.23,1.5s-1.22.38-1.87.52m4.8,29.34a1.55,1.55,0,0,1-1.86-1.24,35,35,0,0,1-1.26-5c-.32-2.51-.35-5.06-.5-7.59-.09-1.51,1.16-1,1.89-1.21s1.38.06,1.36,1c-.07,3.37,1,6.64.8,9.91.06.93.12,1.75.16,2.58,0,.58.41,1.36-.59,1.5m2-1.63c-.66-5.88-1.28-11.77-2-17.65a25.38,25.38,0,0,0-.81-4.7c-.49-1.53,0-1.88,1.41-2q8.87-.58,17.73-.82c3.38-.09,3.21-.12,3.15,3.25-.1,5.9-.14,11.81.08,17.72.22,6.17,0,12.35-.09,18.52.13,5.68.44,11.35.49,17,0,1.41-.33,2-1.84,2.16-4,.48-7.88,0-11.81-.19-1.62-.06-2.5-.78-2.53-2.78-.1-6.93-.74-13.85-.84-20.79,0-2.07-.33-4.18-.47-6.27-.07-1-.26-1.94-1.6-2-1.11,0-.85-.93-.92-1.55m-3.31,62.14c-3.94.14-7.89.35-11.81.79-.3,0-.72,0-.88-.13-.32-.34,0-.71.23-1,2.76-3.61,5.28-7.4,8-11,2.37-3.2,4.52-6.58,6.95-9.76,1.29-1.69,2.84-3.14,3.78-5.18s3.35-1.59,5-1.56c3.24.14,6.2.77,9.2.49.36,0,.82-.12,1.06.25s-.11.85-.38,1.17c-1.93,2.33-3.86,4.73-5.62,7.13s-4.39,4.38-5.57,7.38a12,12,0,0,1-2.2,2.81c-2.1,2.54-3.59,5.52-5.93,7.88a2.55,2.55,0,0,1-1.85.79m21.92-1.82a140,140,0,0,0-16.73,1.39c-.43.06-1,.17-1.25-.22s.1-.81.36-1.16c2.78-3.73,5.54-7.47,8.33-11.19,1.7-2.28,3.71-4.33,5.39-6.59a36,36,0,0,1,5.3-5.89c0,2.78-.08,5.19-.05,7.6.05,4.77.13,9.55.27,14.32,0,1.24-.38,1.71-1.62,1.74m13.85-140.75c-.69,4.78-1.82,9.48-2.56,14.24-1.11,7.12-3.81,13.81-5.42,20.8-.92,4-2.42,7.85-3.72,11.75-.27.81.29,2.11-.73,2.37-1.24.3-1.55-1.12-2.08-1.9q-6.35-9.49-12.59-19c-3.29-5-6.78-9.95-9.68-15.2-1.86-3.39-4.11-6.52-6.1-9.81l-7-11.53c-1.94-3.21-3.7-6.62-5.6-9.86-2.48-4.23-4-8.95-7-12.88a1.67,1.67,0,0,1-.36-1.53c2,1.62,3.2,3.71,4.92,5.27,3.13,2.84,5.63,6.3,9.08,8.84,3.23,2.38,6.83,4.12,10.14,6.35,1.42,1,2.93,1.78,4.37,2.71,3.65,2.36,7.77,3.59,11.83,5,3.15,1.09,6.37,1.2,9.6,1.41,3.88.25,7.71.78,11.56,1.3,1.22.16,1.44.57,1.28,1.71m18.65,49.33c-1.4-5.59-3.33-10.91-4.46-16.47-.81-4-2.57-7.73-3.64-11.65-1.17-4.3-2.86-8.41-4.22-12.64-1.05-3.26-1.82-6.59-3.75-9.48-.67-1,.23-1,.82-1.09,2.85-.6,5.72-1.13,8.54-1.81,5.51-1.34,10.49-4,15.58-6.36a138.27,138.27,0,0,0,12.46-7.06c6-3.65,11.26-8.33,16.38-13.17a86.73,86.73,0,0,0,9.54-10.56c.32-.42.65-.93,1.22-.59s.17.92-.07,1.32a149,149,0,0,0-7.77,15.66c-1.73,3.76-3.79,7.41-5.12,11.38a14.59,14.59,0,0,1-1.69,3.19c-2.46,3.78-4.19,8-6.19,12-1.82,3.67-4,7.13-5.9,10.75-3.29,6.28-7,12.35-10.78,18.34A80.68,80.68,0,0,0,304.25,531c-1.35,3.05-3.41,5.38-5.18,8.08m4.2-.78c-1.6-1.56.54-2.48,1-3.65s1.35-.45,2,.08c2.33,2,4.63,4.05,7,6.08.24.21.52.42.35.78s-.52.31-.83.29c-.82-.06-1.64-.14-2.88-.25-2.79.76-4.62-1.46-6.53-3.33m1,2.69c0,1.12-1.34.2-2,.62-.71-.35-2,.43-2.07-.68a1.8,1.8,0,0,1,1.65-2,2.44,2.44,0,0,1,2.41,2m8.78-1.77c-2.3-2-4.52-4-6.74-6.13a2.26,2.26,0,0,1,.43-3.18c.75-.4,1,.31,1.37.68,2.39,2.45,4.65,5,7.19,7.33a38.54,38.54,0,0,0,3.12,2.48c.35.25.82.53.59,1.07s-.64.26-1,.21c-2.1.07-3.55-1.24-5-2.46m-11,42c-1.07-10.86-2-21.72-2.51-32.61-.2-4.24-.33-3.48,3.32-3.4s7.39.29,11.08.34c1.42,0,1.78.58,1.92,1.93.76,7.19.44,14.4.66,22.83-.45,7.65.36,16.5.51,25.36.05,2.78-.21,3.09-2.93,3.12-3.06,0-6.12,0-9.17.11-1.67,0-2.54-.47-2.53-2.4a152.54,152.54,0,0,0-.35-15.28M328,630.21c-7.51,0-15-.07-22.53,0-1.53,0-1.95-.58-2.08-2-.56-5.83-.47-11.69-.73-17.54-.13-2.79.31-5.58.05-8.45,10,8.94,19.22,18.61,29.32,27.59a9.49,9.49,0,0,1-4,.38m8.21-9.87c2.4,2.53,5,4.88,7.22,7.59.27.34.82.58.66,1.08s-.81.53-1.3.56c-1,.08-2,.55-3.36.12-4.24,2.14-7-1.25-9.65-3.75-2.29-2.14-4.61-4.3-6.85-6.52-3.6-3.58-7.49-6.88-11-10.54-2.42-2.51-4.81-5-7.35-7.42-.27-.26-.65-.51-.45-.94s.66-.28,1-.28c3.88,0,7.76,0,11.65,0,1.56,0,2.45,1.11,3.27,2.07q7.85,9.23,16.15,18m-17.07-38.21c1.26-.09,1.32.83,1.38,1.79.14,2.46.34,4.91.51,7.37h0c0,.26,0,.51.06.76.11,1.1.33,2.37-1.29,2.39-1.83,0-.89-1.48-1-2.27-.27-2.7-.4-5.43-.54-8.15,0-.76-.4-1.8.9-1.89m8.35-41.25c-.3.75-1.75.29-2.69.37l-2.69.27a25.07,25.07,0,0,1-5.34-3.88c-2.56-2.43-5-4.95-7.59-7.36-1.66-1.56-1.81-2.17-.61-4.26.35-.6.63-1.25,1-1.84s.47-1.42,1.12-1.42c.85,0,1.06,1,1.44,1.59a6.21,6.21,0,0,0,.66,1.13q6.44,6.81,12.91,13.57c.61.64,2.2.79,1.78,1.83m7-.66c-.26.76-1.06.52-1.67.59-.44.05-.89.06-1.44.09a2.61,2.61,0,0,1-2.45-.8c-3-2.83-5.8-5.77-8.7-8.65-2.38-2.36-4.44-5-6.83-7.33-2.1-2-2-3.76-.44-5.85.52-.68,1-.81,1.48-.08,1.91,2.77,4.54,4.9,6.85,7.28s4.54,4.75,6.84,7.1c1.94,2,3.75,4.12,5.59,6.21.36.41,1,.83.77,1.44m16.78-76c-1.25,4.46-1.91,9.08-3.36,13.49.09-.66-.09-1.23-.83-1.29-1.2-.11-1.58-.82-2.26-1.37-1.55-1.26-2.15-3.27-3.63-4.58-.42-.38-.73-1.39-1.42-.78s-.05,1.29.4,1.83c.94,1.11,2,2.14,2.84,3.32a10.49,10.49,0,0,0,4.51,4v0h0c.57,2.83-.38,5.51-.93,8.21s-1.4,5.54-2,8.32c-.4,1.76-1.15,2.1-2.5,1-2.87-2.42-4.94-5.55-7.37-8.36-.2-.24-.26-.71-.49-.79-.76-.27-1.33-1.78-2.19-.84-.72.78.64,1.13,1.05,1.65a87,87,0,0,0,10,11.1c.62.55.41,1.11.34,1.73-.83,7-2.41,13.77-3.86,20.61-.79,3.75-.76,7.6-1.75,11.31a32.44,32.44,0,0,0-1.34,5.17c-.1,1-.91,1.2-1.41.33-1.43-2.45-3.88-4-5.48-6.28a24.14,24.14,0,0,0-4.64-5,97.26,97.26,0,0,1-9.59-9.67c-.45-.49-.82-1-.43-1.71,1-1.78,2.06-3.56,3.09-5.34h0v0h0l-.05.05c1.81-3.25,3.56-6.55,5.48-9.73a26.91,26.91,0,0,0,2.23-4c.58-1.52,1.37-1.13,2.1-.34,2.27,2.47,4.44,5,6.68,7.5,1.53,1.69,3.08,3.35,4.71,4.93.43.41,1.32,1,1.82.15s-.39-1.34-.89-1.67c-3.6-2.36-5.8-6.09-8.89-8.95-1.09-1-1.67-2.51-3-3.34-1.15-.73-.9-1.67-.3-2.64,2.4-3.88,3.93-8.2,6.28-12.12,1.19-2,1.11-2.13,2.71-.29,1.92,2.19,3.59,4.6,5.69,6.63.46.44.84,1,1.56.93.27,0,.51-.33.76-.51a4.19,4.19,0,0,0-.44-.56,36.36,36.36,0,0,1-5.21-5.68c-.81-1.07-1.81-1.91-2.65-2.92-.4-.48-1-.84-.5-1.62,1.87-3.13,2.95-6.61,4.39-9.92a4.63,4.63,0,0,1,1-1.08c.62-2.6,2.13-4.83,3-7.31.28-.8.89-.83,1.43-.12,1.45,1.89,2.81,3.86,4.88,5.18a1.18,1.18,0,0,1,.46,1.37m.94-8.37c-.1,1.75-.22,3-.24,4.28,0,1.52-.82,1.45-1.68.74a8.88,8.88,0,0,1-2.4-2.87c-.11-.23-.14-.57-.32-.67-2.64-1.51-1.19-3.23-.25-4.9,1.19-2.12,1-1.81,3.09-.59a3.4,3.4,0,0,1,1.8,4m1.94-15.53c-.5,3.82-1,7.65-1.56,11.64-1.47-.77-2-2.1-2.9-3.05-.45-.48-.16-.93.08-1.39a36.74,36.74,0,0,0,3.23-7.45c.12-.44.27-1,.87-.76.43.15.32.66.28,1m2-22.58a59.19,59.19,0,0,1-2.49,14c-1.77,6-5.05,11.2-8.76,16.13a57.46,57.46,0,0,1-6.36,7.52,74.46,74.46,0,0,1-6.35,5.94c-2.36,1.76-4.34,4.07-6.74,5.78-3.34,2.4-6.95,4.44-10.4,6.7-5.12,3.37-10.75,5.71-16.38,8-9.78,4-19.82,5.65-30.37,3.36a64.34,64.34,0,0,1-8.57-2.51c-2.13-.78-4.54-.36-6.6-1.51a7.49,7.49,0,0,0-1.27-.39c-2.57-.88-3.7-2.35-3.81-5.39-.29-8.52-1.2-17-1.34-25.56-.08-5.16.38-10.34,0-15.47-.81-10.88-1.08-21.78-1.11-32.67,0-8.72.23-17.44-.06-26.16-.21-6.55-.78-13.1-.89-19.67-.08-5-.65-9.92-.46-14.89.2-5.27.1-10.56.74-15.81.09-.7.2-1.35-.62-1.51s-.73.54-.74,1c-.16,8.16-.67,16.3-.41,25.31.49,6.85.21,14.59.77,22.28.92,12.56-.13,25.1.19,37.65.24,9.38,1.12,18.71,1.21,28.08.06,6.75-.52,13.53.23,20.26.66,6,1.17,11.92,1.49,17.91.11,2.16-.17,2.41-2,1.4-3.25-1.81-6.78-3.35-9.57-5.74-2.49-2.13-5.23-3.95-7.6-6.24a148.09,148.09,0,0,1-10.43-11.42c-1.4-1.67-1.49-3.84-2.62-5.67-3.86-6.23-5.82-13.29-8.3-20.13-1.66-4.56-2.51-9.31-4-13.9-.8-2.5-.32-5.29-.83-7.93-1.57-8.07,0-15.81,2-23.65,1.42-5.54,3.69-10.69,5.66-16,.87-2.32,2.18-4.47,3.08-6.78,1.34-3.44,3.49-6.42,5.15-9.68a19.61,19.61,0,0,1,2.52-3.58,6.65,6.65,0,0,0,1.73-2.9c.24-1.19,1.45-1.53,2.05-2.43,2.4-3.59,5.13-6.94,7.6-10.5a100.76,100.76,0,0,1,8.35-10c1.59-1.76,3.33-1.74,5.94.24a40,40,0,0,0,14.57,6.75c7.36,1.85,14.86,3,22.61,2.14,3.63-.4,7.05-1.66,10.68-1.87a8.46,8.46,0,0,0,2.46-1c2-.85,4.1-1.37,6.08-2.12a33.3,33.3,0,0,0,10.37-6.51,48.24,48.24,0,0,0,5.26-5.53c1.15-1.41,1.81-.69,2.47.24,1.57,2.22,3,4.52,4.59,6.75,3,4.29,5.48,8.9,8.14,13.4A163.23,163.23,0,0,1,343.25,355c2.11,5.12,4.43,10.25,5.62,15.78.76,3.52,2.53,6.84,3.25,10.37,1.35,6.72,3.79,13.19,4.49,20.05.56,5.54-.13,11-.39,16.56m45.75-10a1.69,1.69,0,0,1-2.29.9c-3.84-1.14-7.66-2.43-11.58-3.22-8.65-1.76-16.88-5.22-25.7-6.3-1.51-.19-3-1.26-4.35.71-.87-3.65-1-7.09-2-10.39-2.45-8.08-4.51-16.27-7.07-24.33-1.77-5.59-3.87-11-6.15-16.39-1.93-4.52-3.92-9.05-6.26-13.42-2.14-4-4.28-7.95-6.72-11.74a91.72,91.72,0,0,0-6.5-9.13,25.5,25.5,0,0,1-3.08-4.43c.61-.31,1,.05,1.35.23,4.58,2.2,9,4.74,13.75,6.54,4,1.52,7.39,4.14,11.53,5.3a25.89,25.89,0,0,1,5.27,2.62c2.61,1.43,5.67,1.83,8.16,3.53,2.34,1.59,5.17,2,7.64,3.28,4.18,2.12,8.57,3.79,12.66,6.13,4.28,2.44,8.79,4.5,13.24,6.64,4.87,2.34,9.48,5.16,14.28,7.64,3.19,1.65,6.12,3.87,9.64,4.88.94.27,1.09.79,1,1.69a7.12,7.12,0,0,1-.92,2.89c-2.61,4.59-2.58,9.93-4.3,14.76-.9,2.51-1.85,5-2.71,7.52-1.22,3.6-2.28,7.27-3.57,10.85-1.61,4.47-2.79,9.11-5.29,13.24m8.46-11.67c-1.62.09-2-.43-1.4-2,1-2.79,1.79-5.65,3.08-8.39,1.44-3,2-6.47,3-9.72.33-1.09.87-2.12,1.15-3.21.39-1.5,1.15-1.63,2.37-1A12.73,12.73,0,0,1,425.72,382c.2,1.87,1.09,3.65.48,5.63-1.55,5-7,8.7-12.91,8.45-1,0-1.91-.07-2.86,0m14.66,36.14c-.38,1,.37,2.37-.39,3.12s-1.81-.44-2.81-.5a12.23,12.23,0,0,0-5.82.61c-1.06.45-1.45.3-1.49-.94-.32-8.48-1.1-16.94-.88-25.43a50.08,50.08,0,0,0-.49-8.39c-.18-1.26.06-2,1.53-1.92a5.61,5.61,0,0,0,3.93-1.22c1.55-1.2,3.67-1.34,5-2.95.69-.82,1.12,0,1.14.71a25.85,25.85,0,0,1-.07,3.63,38.93,38.93,0,0,0-.1,7c0,8.55.66,17.21.42,25.89a1.21,1.21,0,0,1,0,.38m-32.66,13.92c-.79-.06-1.86,0-1.6-1.28.21-1,.15-2.6,1.91-2.15,4.24,1.06,8.62.72,12.89,1.38a10.16,10.16,0,0,0,1.9.16c1.32,0,2.18.28,1.61,1.74.25,1.71-.15,2.27-2,1.91a125.76,125.76,0,0,0-14.75-1.76m22.44,12.35c-3.4,3.35-6.06,7.31-9,11a2.16,2.16,0,0,1-1.65,1.06c-1.52-.5-2.55-1.85-3.82-2.88-.91-.74-1.28-1.42-.14-2.5,3-2.85,5.36-6.38,8.15-9.47.79-.88.85-2.74,2.14-2.61.79.08,1.38,1.67,2.16,2.48s.9,1.81,2.19,1.93c.7.06.34.64,0,1m1.58-2c-3-1.35-7.14-6.83-6-10.94a14,14,0,0,1,6.65-8.83c.82-.46,1.76-.17,2.8-.36a7.3,7.3,0,0,1,5.31,2.48c2.53,2.72,1.89,5.49,1.94,8.4a1.94,1.94,0,0,1-.85,1.82c-.52.31-.74.7-.08,1.15,1.32.9.64,1.91,0,2.69-1.8,2.07-4.28,3.1-6.78,4a4,4,0,0,1-3-.41m17,11.58a3.66,3.66,0,0,1,.24.8c.07,1,0,1.58-.84,1.75-.3.07-.58.26-.88.35-.87.29-1.24,1.88-1.91,1.52a5.18,5.18,0,0,1-2.08-2.63c-1.54-4-4.57-7.11-6.6-10.81-.19-.33-.49-.63-.33-1,.3-.76,4.55-1.77,5-1.16a63.25,63.25,0,0,1,7.37,11.21m10.71-15.19c-.22,2.77-.46,3-2.92,1.8-3.63-1.79-7.66-1.71-11.46-2.66-1.09-.27-1.49-.39-1.33-1.62.42-3.32.32-3.15,3.57-2.51a75,75,0,0,1,11.1,3.33c1.06.39,1.13.47,1,1.66" transform="translate(-114.24 -207.57)"/><path class="cls-2" d="M341.55,465.1l0,0h0Z" transform="translate(-114.24 -207.57)"/><path class="cls-2" d="M251.73,416.61a1.59,1.59,0,0,0,1.56-1.46c.05-1.58-1.19-3.75-2-3.64a1.7,1.7,0,0,0-1.66,1.73c0,1.69,1,3.47,2.07,3.37" transform="translate(-114.24 -207.57)"/><path class="cls-2" d="M252,463.62c-.85.26-1.78.81-1.65,1.86a2.47,2.47,0,0,0,2.23,2.41,1.76,1.76,0,0,0,2-1.77,3.1,3.1,0,0,0-2.61-2.5" transform="translate(-114.24 -207.57)"/><path class="cls-2" d="M251.9,342.62c-.23-1.17-.3-2.42-1.88-2.45-1.12,0-1.85.52-1.8,1.7s.64,2.37,2.09,2.45c1.07.05,1.51-.74,1.59-1.7" transform="translate(-114.24 -207.57)"/><path class="cls-2" d="M251.17,392.07c1.08.28,1.44-.66,1.63-1.43.27-1.07-1.38-2.73-2.92-2.89-.46.06-.58.5-.6,1.05,0,1.48.23,2.83,1.89,3.27" transform="translate(-114.24 -207.57)"/><path class="cls-2" d="M249.92,369.69c.4.54.84,1.29,1.66.77a2,2,0,0,0,.91-2.28c-.2-.81-1.09-.77-1.49-1.33s-.51-1.16-1.27-.79-.36,1-.41,1.52a2.42,2.42,0,0,0,.6,2.11" transform="translate(-114.24 -207.57)"/><path class="cls-2" d="M253.4,439c-.28-1.09-.93-2-2.14-2a1.51,1.51,0,0,0-1.5,1.8c.14,1.21.74,2.12,2,2.06,1,0,1.5-.83,1.61-1.88" transform="translate(-114.24 -207.57)"/><path class="cls-2" d="M245.67,285.21c-.63,0-1.44-.78-1.55.42-.08.94.87.74,1.44.79a99.52,99.52,0,0,0,11.84-.08c6.49-.28,12.93-1,19.4-1.54,11-.9,22.14-.15,33.18-1.14.77-.06,1.09.15,1.18,1q.54,5.61,1.29,11.2c.58,4.29.51,4.41-3.83,4.61a2.41,2.41,0,0,0-.38,0c-4.81.5-9.65.52-14.48.62-7.83.17-15.65.52-23.48.7-7.56.18-15.13.22-22.69.38-1.25,0-1.79-.42-1.79-1.62,0-2,0-3.94,0-5.91s.2-3.82.29-5.74c0-.79-.23-1.39-1.18-1.37-1.18,0-.62.85-.62,1.38,0,4,0,7.91,0,11.87,0,2.42.49,3,3,2.95,7.39-.1,14.78-.17,22.17-.4,9.74-.29,19.47-.72,29.21-1.09a1.09,1.09,0,0,0,0,.18c3.62-.19,7.25-.34,10.87-.61a36.67,36.67,0,0,0,4.52-.73c.7-.14,1.34-.67.6-1.3s-.74-1.57-.75-2.41c0-4.15-.89-8.22-1.17-12.34-.15-2.21-1-2.77-3.16-2.67-3.43.17-6.88.18-10.29.55-5.66.61-11.3-.17-17,.18-6.93.43-13.84.89-20.74,1.67a105.7,105.7,0,0,1-16,.41" transform="translate(-114.24 -207.57)"/><path class="cls-2" d="M243.23,252.1c.75,8.08,0,16.19.75,24.26.13,1.41-.12,3.1,2.18,1.68a3.19,3.19,0,0,1,1.5-.18c5.79-.19,11.58-.5,17.37-.49,2.58,0,5.15-.71,7.77.09,1.15.35,1-.76.85-1.54-1-5.09-1.08-10.26-1.22-15.42-.14-5.68-1-11.3-1.15-17,0-.55-.09-1.09-.79-1s-.58.65-.55,1.16c.08,1.34.06,2.68.2,4,.95,8.88.28,17.85,1.58,26.7.14.91-.25,1.09-1.12,1.28-2.91.65-5.83.22-8.74.31-4.82.17-9.67.08-14.46.5-2.46.21-2.48-1-2.47-2.63,0-4.84.07-9.68.11-14.53h-.66c0-4.46.14-8.93.07-13.39,0-3.28-.1-3.19,3.14-3.44,7-.56,14,.09,21-.71.5-.05,1.15.07,1.18-.63s-.66-.87-1.23-.82a38.44,38.44,0,0,1-4.36.47c-6.8-.22-13.59.07-20.39.32-1.1,0-1.3.37-1.23,1.31.24,3.23.38,6.48.68,9.71" transform="translate(-114.24 -207.57)"/><path class="cls-2" d="M249.69,271.24a42.94,42.94,0,0,1,8-.4c1.91,0,3.82.11,5.73,0,2.12-.1,2.81-.95,2.79-3,0-1.4,0-2.8,0-4.2-.18-5.28-1.27-10.5-1-15.81,0-.84-.45-1-1.08-.91-4.48.77-9,.34-13.53.57-1.9.1-2.37.77-2.48,2.45-.38,5.93.09,11.85.35,17.76a4.16,4.16,0,0,1-.15,1.88c-.63,1.45,0,1.9,1.4,1.66m-.31-19.92c0-1.22.56-2,2.09-2.14,3.61-.38,7.25,0,10.83-.7,1-.2,1.13.56,1.2,1.3.43,5.08.87,10.15,1.19,13.86.34,6,.34,5.95-4.33,5.81a76.77,76.77,0,0,0-9.71-.19c-.83.07-1-.34-1-1-.42-5.65-.37-11.3-.25-17" transform="translate(-114.24 -207.57)"/><path class="cls-2" d="M292.62,272.56c.35,3.34,1.27,4,4.69,4.08,2.35,0,4.71,0,7.07.05v-.16c.25,0,.51,0,.76,0,2.55-.09,5.1-.11,7.63-.32,1-.08,2.58,0,2.43-1.73a70.37,70.37,0,0,1-.19-12.57c0-.58,0-1.3-.84-1.23s-.6.77-.57,1.35c.17,3.69.28,7.39.49,11.08.05,1-.37,1.36-1.27,1.46a79.75,79.75,0,0,1-16.92.13,1.38,1.38,0,0,1-1.41-1.45c-.3-3.42-1.43-6.71-1.43-10.17,0-2.53-.06-2.53,2.58-2.6,5.73-.15,11.47.2,17.19-.5.63-.07,1.68.16,1.6-.86s-1.07-.62-1.68-.55c-5.95.72-11.93.55-17.9.66-2.24,0-3.38,1-3.14,3.25.35,3.36.57,6.73.91,10.08" transform="translate(-114.24 -207.57)"/><path class="cls-2" d="M306.73,263.53c-2.78.38-5.55-.08-8.32-.22-1.06-.06-1.39.3-1.34,1.26.09,1.46.21,2.92.22,4.37s.68,1.8,1.91,1.72a17.25,17.25,0,0,1,5.12.12c1.14,0,2.28,0,3.42.05s1.91-.44,1.72-1.41a43.22,43.22,0,0,0-1.69-5.59c-.12-.34-.64-.36-1-.3m.54,5.48c-.13.4-.64.31-1,.31-1,0-2,0-3,0v0a14.72,14.72,0,0,0-2.1,0c-1.49.19-2.14-.28-2.28-1.9-.23-2.64-.35-2.63,2.29-2.59l4.19.08c.62,0,1.47-.16,1.63.63.23,1.15.71,2.33.33,3.54" transform="translate(-114.24 -207.57)"/><path class="cls-2" d="M265.32,494.75c-2.75-.76-5.38-1.12-7.92.84a22.55,22.55,0,0,0-3.25,3.67c-3.12,3.67-2.2,7.85.6,11.25.65.79,1,2.09,2.2,2.24,1.76.23,3.4,1.13,5.05.88,3.68.1,4.48-.61,7.55-4.32,3.26-3.94,2.1-12.8-4.23-14.56m4.1,11.42a14.45,14.45,0,0,1-3.4,5.19c-2.32,2.55-8.45.69-10.18-1.77-4.33-6.18-.17-12.06,4.78-14a4.4,4.4,0,0,1,1.56-.21c5.35.14,8.88,5.86,7.24,10.84" transform="translate(-114.24 -207.57)"/><path class="cls-2" d="M322.41,515.9c2.52,2.39,4.94,4.91,7.22,7.48,1.93,2.19,4.1,4.11,6.05,6.26.46.52,1.09.91,1.62.24s-.13-1.21-.66-1.52a14.69,14.69,0,0,1-3.67-3.31c-2.3-2.71-4.77-5.25-7.27-7.77-2.08-2.1-4.56-3.89-5.93-6.63-.48-1-1.09-.5-1.7-.32.63,2.48,2.66,4,4.34,5.57" transform="translate(-114.24 -207.57)"/><path class="cls-2" d="M338.8,518.72c-2.41-.94-3.46-3.19-5-5-2.88-3.51-5.85-7-8.78-10.42-.45-.53-.82-1.67-1.7-.85s.24,1.34.68,1.86c1.75,2.07,3.65,4,5.31,6.16,2.62,3.39,5.51,6.56,8.28,9.83.23.28.42.74.87.56s.63-.76.69-1.4c-.09-.19-.17-.63-.38-.72" transform="translate(-114.24 -207.57)"/><path class="cls-2" d="M341.56,466.73c1.76,1.88,3.54,3.74,5.33,5.6.38.39.89.68,1.31.14s.11-1-.42-1.38c-1-.79-1.77-1.84-2.78-2.6-1.3-1-1.73-2.84-3.47-3.34-.21.53-.43,1.09,0,1.58" transform="translate(-114.24 -207.57)"/><path class="cls-2" d="M341.55,465.1l0,0h0l0,0" transform="translate(-114.24 -207.57)"/><path class="cls-2" d="M256.12,569.26c2.52,0,2.83-.52,3.54-3s-.11-4.55-.2-6.82c-.09-2.09-1.06-3.06-3-3.28-3.06-.35-5.07.45-5.68,2.33a24.18,24.18,0,0,0-.79,3.15c-.48,2.8,1.93,8.09,6.11,7.6m-3.72-10.32c1.21-1.68,4.08-1.75,5.14,0a17,17,0,0,1,1.25,5.76,2.72,2.72,0,0,1-1.73,2.84c-1.5.58-2.59-.37-3.57-1.19-1.49-1.24-2.75-5.16-1.09-7.45" transform="translate(-114.24 -207.57)"/><path class="cls-2" d="M304.6,589.46c-.33-1.85.66-3.22,1.79-4.41,1.64-1.71,3-1.48,4.41.38a5.9,5.9,0,0,1,.95,4c0,1,.28,2.21-.77,2.78s-1.84-.58-2.77-.9c-.52-.17-.66-.73-.76-1.24-.26-1.22-.53-2.43-.79-3.64a.83.83,0,0,0-.87.69c-.54,1.93.88,5.49,2.62,6.55a2.58,2.58,0,0,0,4-.94c1.42-2.26.94-4.56-.06-6.74-.43-1-.27-2.37-1.32-2.84-1.7-.75-4.14-.89-5.61.84-2.13,2.49-2.6,5.08-1.18,7,.67-.36.49-1,.39-1.51" transform="translate(-114.24 -207.57)"/><path class="cls-2" d="M261.43,499.51c-2.1,0-4.46,2.53-4.46,4.79s2.2,4,4.83,4a4.3,4.3,0,0,0,4.23-3.82c0-2.26-2.5-5-4.6-5m.58,7.62a3.58,3.58,0,0,1-3.48-3.14,3.45,3.45,0,0,1,2.73-2.95c1.37-.05,3.26,1.91,3.3,3.41a2.41,2.41,0,0,1-2.55,2.68" transform="translate(-114.24 -207.57)"/></svg>