<svg id="Layer_1" data-name="Layer 1" xmlns="http://www.w3.org/2000/svg" viewBox="0 0 315.98 372.63"><defs><style>.cls-1{fill:#fff;}.cls-2{fill:#010101;}</style></defs><path class="cls-1" d="M443.17,370.32c2.52-7.85,4.66-15.86,7.67-23.52,2.37-6,4.17-12.14,6.09-18.26.81-2.6.7-2.47-1.74-4.13-4.87-3.3-10.32-5.45-15.51-8.11a73.84,73.84,0,0,0-7.94-3.32c-3.17-1.18-4.07-.87-5.12,2.25-.88,2.62-2.18,5.07-3,7.7-2.88,9.57-7.28,18.55-10.73,27.9a8.26,8.26,0,0,1-2.47,4c8.2,6.6,26.26,17.75,31.3,19.32.85-1.1,1-2.5,1.42-3.79m-13.62-12.16c-.16.81,0,2.24-1.29,2s-.6-1.53-.41-2.27a58.33,58.33,0,0,1,1.9-6.24c2.34-6.22,4.49-12.51,7.39-18.51,1.49-3.08,2.44-6.41,3.65-9.63a21.26,21.26,0,0,1,.92-2.2.82.82,0,0,1,1.17-.37c.43.22.76.52.6,1.48a3.58,3.58,0,0,1-.3.91,175.93,175.93,0,0,0-9.54,22.41c-1.5,4.08-3.24,8.11-4.09,12.41" transform="translate(-180.45 -251.95)"/><path class="cls-1" d="M317.7,565a18.76,18.76,0,0,0,3,8.3,7.36,7.36,0,0,0,6,3.45c4.64.47,9.55-4.59,9.59-9.7.05-6.64.23-13.28-.89-19.89a2.81,2.81,0,0,0-2.52-2.7c-1.8-.34-3.62-.6-5.41-1-3.23-.68-6.45-1.42-10.42-2.3,1.23,8.29.1,16.07.61,23.82" transform="translate(-180.45 -251.95)"/><path class="cls-1" d="M338,609.29a53,53,0,0,1-8.77,1.76c-6.3.58-12.14-.1-16.81-4.93-.13-.13-.42-.1-.71-.16a5,5,0,0,0,.58,3.28c2.06,4.68,6.25,6.47,10.68,7.87a10.52,10.52,0,0,0,6.11.42c5.18-1.47,10.52-2.61,15.06-5.68A12.61,12.61,0,0,0,350,601.31a52.2,52.2,0,0,1-4.3,3.51c-2.46,1.62-4.7,3.69-7.63,4.47" transform="translate(-180.45 -251.95)"/><path class="cls-1" d="M258.36,575.33A10.41,10.41,0,0,1,242,577.66a8.2,8.2,0,0,0-3.05-2.2,80.31,80.31,0,0,0-6.62,20.78c-1.24,7.2,4.89,14.21,11.5,15.6,5.6,1.18,10.51-.45,15.29-2.68,8.8-4.09,12.48-11.88,10.75-21.14a35.7,35.7,0,0,0-4.35-10.79c-1.19-2.13-3.05-3.89-4.78-6-.92,1.6-1.65,2.86-2.37,4.14" transform="translate(-180.45 -251.95)"/><path class="cls-1" d="M331,495.53c-4.47.15-8.95.4-13.42.64-2.5.14-2.49.17-2.51,2.88-.05,6.1.43,12.18.87,18.26,0,3.21,0,6.43.1,9.65s.49,6.41.56,9.62a2.08,2.08,0,0,0,1.83,2.39c3.79.9,7.38,2.44,11.27,3.09,5.76,1,5.74,1.1,5.75-4.87s-.26-12.18,0-18.24c.32-6.69-.46-13.31-.61-20-.06-3-.87-3.56-3.88-3.46" transform="translate(-180.45 -251.95)"/><path class="cls-1" d="M429,310.47c10.12,3.71,20.13,7.68,29.35,13.36a2.87,2.87,0,0,0,3.7-.16,167.79,167.79,0,0,1,21.3-13.19c2.14-1.09,4.17-2.41,6.27-3.59.86-.49,1.51-1,1.22-2.16-1.23-4.89-2.44-9.8-3.68-14.69-.27-1.06-.8-1.6-2-.92-3.57,2.07-7.39,3.8-10.71,6.21-3.54,2.59-7.56,4.28-11.17,6.71-1.6,1.07-3.23.08-3.37-1.88a14,14,0,0,1,.25-3.09c1.72-11,2.73-22.1,5.26-33,.31-1.36-.22-2.08-1.38-2.77a29.83,29.83,0,0,0-7.35-2.89c-4.94-1.38-5.19-1.23-6.24,3.89-.07.34-.1.68-.17,1-.56,3-1.05,6.11-1.71,9.14-1.52,6.94-3.95,13.66-4.89,20.73-.24,1.83-1.68,2.5-2.92,3s-2.06-.89-2.59-1.78c-3.21-5.42-7.12-10.4-10-16.05a20.34,20.34,0,0,0-4.65-6c-3,4.08-5.94,7.76-8.59,11.62a5.35,5.35,0,0,0-.15,6.13A199.21,199.21,0,0,0,425.92,308a6.46,6.46,0,0,0,3.11,2.51" transform="translate(-180.45 -251.95)"/><path class="cls-1" d="M410.94,361.09c.78,5.83,2.55,11.43,3.73,17.15.9,4.39,2.28,8.65,3.16,13,.26,1.34,1,1.41,2,.73s1.94-1.6,2.94-2.36c5.81-4.37,11.12-9.38,17.92-13.44-10.4-5.84-20-12.08-29.7-18.62a7,7,0,0,0,0,3.5" transform="translate(-180.45 -251.95)"/><path class="cls-1" d="M269.54,602.35c-4,6.27-10.09,9.42-17.09,11.08-6.37,1.51-12.27.55-17.44-3.74-.57-.48-.91-1.38-2-1.28a4.08,4.08,0,0,0,.68,4.14,8,8,0,0,0,3.52,3.21c3.6,1.44,7,3.78,10.92,3.91,8.89.31,16.15-3,20.48-11.18,1-1.92,2.3-4,1.56-6.43-.25.11-.54.14-.64.29" transform="translate(-180.45 -251.95)"/><path class="cls-1" d="M338.76,568c-1.47.17-1.23,1.85-1.34,2.82-.51,4.2-6.1,8.14-10,8.13-4.11,0-7.53-1.81-9.13-6a1.54,1.54,0,0,0-1.24-1.18,31.15,31.15,0,0,1-1.75,3.58c-3.67,5.65-4.87,12-5.47,18.57a12.15,12.15,0,0,0,1.2,7c2.94,5.24,7.32,8.3,13.58,8.44,7.62.17,14.53-1.7,20.49-6.6,3.44-2.82,5.77-6.33,5.55-10.91a29.79,29.79,0,0,0-5.83-16.63c-1.29-1.74-2.59-3.48-3.94-5.18-.62-.78-1-2.2-2.09-2.07" transform="translate(-180.45 -251.95)"/><path class="cls-1" d="M256.08,538.75c1.35-.67,1.78-1.59,1.78-3.26,0-4.15-.54-8.26-.51-12.39.06-7.83-1-15.6-1.22-23.41-.06-1.63-.66-2.2-2.29-2.17-5.29.12-10.59.09-15.88.18s-5.28.14-5.19,5.66c.16,9.09,1.31,18.12,1.75,27.19.28,6,.11,11.94,1.11,18,3.47-.48,5.7-2.7,8.4-3.91,4.08-1.83,8-3.92,12-5.91" transform="translate(-180.45 -251.95)"/><path class="cls-1" d="M239.8,567.9c.27,3.67,1.61,7,4.75,9.12,4.72,3.14,12.12.61,13.17-5.19.27-1.46.92-2.88,1-4.34a60.57,60.57,0,0,0-2.18-23.87c-.69-2.18-.73-2.23-2.82-1.33-4.53,2-8.78,4.47-13.12,6.8-1.16.63-1.11,1.57-1.15,2.62-.09,2.65.58,5.27.2,7.88,0,2.8-.1,5.57.11,8.31" transform="translate(-180.45 -251.95)"/><path class="cls-1" d="M234.63,422.51c-5.93,0-10.84,3.2-14.24,8.3-4.22,6.33-4.5,13.31-3.48,20.51.26,1.8,1.11,2.17,2.54,1a30,30,0,0,1,11.91-6.14c-1.83-2.16-2.85-4.2-4.44-5.87a51.39,51.39,0,0,1-3.41-4.32c-.48-.62-.59-1.34.13-1.78.55-.32,1.09.08,1.44.6,2.26,3.45,5.7,6,7.52,9.79a1.9,1.9,0,0,0,2.27,1.08c4.07-.68,7.95.27,11.86,1.28a30.37,30.37,0,0,1,7.32,2.87c.68.38,1.82,1.11,2.31-.23,2-5.47,2.84-11.11-.57-16.22-5-7.43-12.55-10.8-21.16-10.84" transform="translate(-180.45 -251.95)"/><path class="cls-1" d="M220,357.05c0,1.36.7,2,2.21,1.92,2.4-.18,4.82-.14,7.23-.25,3.73-.17,3.9-.18,4.13-4.06.21-3.55,2.63-5.13,5.2-6.68a1.58,1.58,0,0,1,1.94,0,1.52,1.52,0,0,1,.26,1.88,7.25,7.25,0,0,0-.49,2c-.05.75-.24,1.71.81,2,.74.18,1.26-.32,1.72-.89,1.86-2.28,2.37-2.22,4,.26a4.44,4.44,0,0,1,.82,3.24c-.2,1.37.59,1.81,1.86,1.74,3.67-.21,7.34-.42,11-.59,1.61-.07,2.06-.81,2-2.43a108,108,0,0,0-4.24-27.13,10.21,10.21,0,0,0-2-3.95c-4.89-5.51-10.9-7.72-18.23-6.2-8.27,1.73-12.23,8.1-15.55,14.81a29.34,29.34,0,0,0-2.72,16.75c0,2.53,0,5,.08,7.58" transform="translate(-180.45 -251.95)"/><path class="cls-1" d="M201.07,343.39a3.2,3.2,0,0,0-.14,3.26c1.11,1.87,2.1,3.8,3.2,5.67,3.18,5.44,6.56,10.78,9.56,16.32a238.58,238.58,0,0,0,13.17,20.92c1.53,2.25,3.47,3.95,6.6,3.18a8.18,8.18,0,0,1,2.74.09c7.9.88,15.83.75,23.75.91,7.24.14,14.49-.08,21.73-.14v-.06c3.1,0,6.2-.08,9.31-.07,11.28,0,22.49-1.14,33.7-2.16a9.07,9.07,0,0,0,7.12-4.09,87.06,87.06,0,0,0,5.32-8.39c4-7.58,8.93-14.64,13.14-22.11,1.91-3.39,3.85-6.78,5.88-10.09,1.87-3.05,3.28-6.3,4.89-9.46a2.43,2.43,0,0,0,0-2.62c-1.39-2.1-2.67-4.29-4.24-6.25-4-5-8.36-9.71-12.14-14.91-5.46-7.5-11.31-14.71-16.78-22.2-2.1-2.88-4.2-5-8.1-4.24a18.14,18.14,0,0,1-3.44-.12c-11.73-.13-23.44.45-35.16.64-1.95,0-3.91.12-5.85.31-9.95,1-19.89,2-29.83,2.94q-7.2.72-14.32,2a4.12,4.12,0,0,0-3.16,2.38c-1.82,3.71-4.35,7-6.46,10.52q-8.84,14.78-16.84,30c-1.32,2.53-2.42,5.18-3.65,7.77m83.55-5.5a28.39,28.39,0,0,1,5.86-13.43c3.33-3.94,7.42-7,13.2-7.07,4-.06,7.92-.61,11.9.69a18.65,18.65,0,0,1,10.3,8.67,52.22,52.22,0,0,1,7.34,25.87c0,.22,0,.46,0,.69.19,3.9.2,3.92-3.56,4.12-6.88.36-13.76.89-20.67.86s-13.8.13-20.7.17c-3.34,0-3.29,0-3.75-3.41a54,54,0,0,1,.06-17.16M274.55,376.1a1,1,0,0,1,.59.71,1.09,1.09,0,0,1-.48.8,4.16,4.16,0,0,1-2.34.39c-2.52.05-5.05.05-7.57.07v.16c-2.41,0-4.83.1-7.24,0-1.47,0-2.5.22-2.38,2,0,.59-.21,1.22-.9,1.24-1,0-.94-.83-.95-1.48a38.45,38.45,0,0,0-.39-6.52c-.13-.73.14-1.46,1-1.56s1,.74,1.14,1.39a2,2,0,0,1,.07.69c-.13,1.7.73,2.09,2.3,2.06,4.82-.1,9.64-.07,14.46-.08a22.8,22.8,0,0,1,2.74.08m-56-36.54a37.32,37.32,0,0,1,6.6-15c4.34-5.83,9.94-8.84,17.27-8.75,4.74.06,9.05,1.1,12.83,4.08a14,14,0,0,1,5.47,8.44c.66,3.38,1.52,6.71,2.33,10.06a46.63,46.63,0,0,1,1,9.92,68.54,68.54,0,0,0,.49,7.57c.33,2.41,0,2.84-2.48,3.07-3.78.36-7.57.52-10.17.68-10.86-.16-20.47.94-30.11,1.43-1.76.09-2.58-.1-3-2.08a45.29,45.29,0,0,1-.19-19.46" transform="translate(-180.45 -251.95)"/><path class="cls-1" d="M362.75,337.55c-2.21,4-4.11,8.2-6.6,12.07-.77,1.19-1.73,2.44-1.73,4.05a3.5,3.5,0,0,0,1.05.32c6.06-.47,12.16-.57,18.06-2.33,3.71-1.11,5.5-3.37,5.7-7.18a41,41,0,0,0-1.14-10.23c-.85-4.34-3.62-6.7-7.54-8-4.23-1.42-8.55-.76-13.43-.64,1.93,2.82,3.45,5.35,5.27,7.64a3.34,3.34,0,0,1,.36,4.31" transform="translate(-180.45 -251.95)"/><path class="cls-1" d="M195,266.05c.8.06,1.74-.05,1.72-1.31a1.68,1.68,0,0,0-2-1.76c-1,.1-2.16.27-2.09,1.7s1.1,1.5,2.38,1.37" transform="translate(-180.45 -251.95)"/><path class="cls-1" d="M286.37,354.34a2.14,2.14,0,0,0,2.57,2.06c3-.17,6-.18,9-.07,1.78.06,2.21-.71,2.06-2.27a9.18,9.18,0,0,1,.05-2.4c.51-2.76,1.78-4.91,4.7-5.78,3.13-.93,3.13-1,2.59,2.42-.15.89-.43,1.93.44,2.56s1.46-.25,2.15-.56c2-.93,2.75-.54,3.53,1.54.52,1.4-.35,2.72,0,4,4.51,0,9,.05,13.42-.15,4.79-.21,4.73-.32,4.59-5.16-.12-4.32-1.57-8.34-2.7-12.42a32.88,32.88,0,0,0-9.11-15.56,11,11,0,0,0-7.09-3.14c-3.46-.22-6.88.45-10.32.24a8.46,8.46,0,0,0-4.86,1.42c-5.1,2.89-8,7.59-9.71,12.87a41.57,41.57,0,0,0-1.88,16c.1,1.49.35,3,.59,4.44" transform="translate(-180.45 -251.95)"/><path class="cls-1" d="M191.54,358.34a26.55,26.55,0,0,0,11.93.61c1.38-.2,1.93-1.12,1.13-2.12-1.66-2.06-2.5-4.64-4.17-6.62-2.59-3-2.61-6.15-.81-9.49,1.24-2.31,2.51-4.6,3.74-6.92.68-1.3,1.53-2.55,1.41-4.21-2.32-.58-4.58.13-6.84.15-1.5,0-2.42.65-2,2.38.15.58.07,1.23-.6,1.4s-1-.56-1-1.06c-.23-2.16-1.55-1.79-3-1.45a3.94,3.94,0,0,0-2,1.29,9.66,9.66,0,0,0-2.24,4.18c-1.7,5.81-.84,11.53.25,17.31a5.63,5.63,0,0,0,4.15,4.55" transform="translate(-180.45 -251.95)"/><path class="cls-1" d="M364.57,421.39c8-5.19,16.49-9.55,24.88-14.06,8.86-4.76,17.94-9.1,26.94-13.63-2.59-12.19-6-24.12-8.08-36.53-1.93,0-3.35,1.07-4.84,1.91-6.81,3.8-13.81,7.22-20.93,10.41-6,2.67-11.87,5.52-17.81,8.26a2.86,2.86,0,0,0-2,3.12,56.49,56.49,0,0,1-.3,7.23,262,262,0,0,0-.07,32.07c.1,2.07.57,2.29,2.22,1.22m4.17-24.5c2.4-1.34,4.79-2.71,7.22-4,5.18-2.7,10.37-5.4,15.59-8,4.3-2.15,8.78-3.94,12.87-6.48.68-.43,1.61-.81,2,.31s-.51,1.33-1.3,1.67c-8.63,3.75-16.81,8.41-25.3,12.45a74.83,74.83,0,0,0-8.32,4.84,4.86,4.86,0,0,1-2.63,1.06c-.17-.1-.6-.2-.7-.44a1.09,1.09,0,0,1,.59-1.43" transform="translate(-180.45 -251.95)"/><path class="cls-1" d="M297.3,418.94c-.69,0-.84.58-.89,1.17s.34,1.4,1.1,1.41c.55,0,.91-.61.92-1.22a1.18,1.18,0,0,0-1.13-1.36" transform="translate(-180.45 -251.95)"/><path class="cls-1" d="M254,452.36a9.24,9.24,0,0,0-2.19-1.63c-4.22-1.43-8.27-3.6-12.94-3.35-.69,0-1.38,0-2.07,0-.54,0-1.21-.12-1.51.54a1.58,1.58,0,0,0,.59,1.82c.72.74,1.5,1.42,2.23,2.15.52.52.9,1.17.28,1.8s-1.27,0-1.79-.37a10.81,10.81,0,0,1-3.38-3.84c-.95-1.67-2-1.53-3.43-1a35.58,35.58,0,0,0-9.74,5.73c-1.59,1.25-1.28,2.12-.33,3.33,5.64,7.15,13.26,9.3,21.82,6.15a51,51,0,0,0,5-2.15,21.15,21.15,0,0,0,7.65-6.8,1.54,1.54,0,0,0-.22-2.41" transform="translate(-180.45 -251.95)"/><path class="cls-1" d="M368.45,263.56c0-1,0-2.15-1.5-2.19-1.7,0-3.23,1.06-3.25,2.37s.95,2.09,2.55,2.14,2.21-.63,2.2-2.32" transform="translate(-180.45 -251.95)"/><path class="cls-1" d="M305.5,414.07c-5.27.15-10.55.23-15.83.29-1.08,0-1.8.3-1.84,1.47-.09,2.74-.14,5.48-.2,8.22,0,1.57.67,2.26,2.3,2.19,2.64-.11,5.28-.06,7.91-.09v-.1c2.53,0,5.05-.06,7.57-.06.89,0,1.7-.18,1.7-1.23,0-3.09-.1-6.18-.18-9.27,0-.89-.29-1.45-1.43-1.42m-8.22,9.65c-1.48,0-2.9-1.69-3-3.54-.09-2.21.74-3.05,3-3.08,2.06,0,2.87.74,3,2.8s-1.26,3.81-3,3.82" transform="translate(-180.45 -251.95)"/><path class="cls-1" d="M337.94,381.34c-1.56,2.8-3.4,5.44-5.17,8.13a7.11,7.11,0,0,1-5.54,3.47c-4.13.44-8.29.25-12.4.72-10.3,1.18-20.66,1.31-31,1.62-1.61,0-3.22,0-4.83.05a368,368,0,0,1-42.4-.58c-1.38-.08-2.91-.34-4.11.14-2.92,1.17-4.21-.53-5.56-2.53-2.25-3.33-4.63-6.57-6.83-9.93a2.76,2.76,0,0,0-2.8-1.44c-3.44.21-6.9.22-10.34.39-2.95.14-3.27.61-3,3.62.41,4.8.92,9.6,1.12,14.41.52,12.4,1.48,24.78,2,37.19.45,11.48,1.32,22.95,1.51,34.45.12,7.47.4,14.94.56,22.42,0,1.61.41,2.54,2.36,2.48,6.32-.18,12.64-.34,19-.26,7.13.09,14.23-.62,21.37-.44,3.12.08,6.25-.13,9.41.12,3.87.31,7.8,0,11.7,0,9.2,0,18.39-.24,27.57-.78a5.64,5.64,0,0,0,3.46-1.13c.48-.38,2.24,1,3.63.87,6.53-.61,13.09,0,19.62-.71a49.76,49.76,0,0,1,8.26-.41c8.32.53,16.48-1,24.71-1.56,1.88-.13,2.25-1,2.17-2.68-.28-5.16-.46-10.34-.66-15.51-.27-7-.62-14-.76-21-.19-9.07-.19-18.15-.31-27.22-.07-6.42-.16-12.84-.32-19.26-.2-8.17.21-16.32.54-24.47.12-2.88-.22-3.26-3.08-3.13-5.62.26-11.23.73-16.84,1.06a3.22,3.22,0,0,0-2.95,1.89m-78.35,59.71a34.52,34.52,0,0,1-2.07,11.45c-2,5.14-5.92,8.35-10.61,10.82-1.41.75-2.9,1.36-4.39,2-8.82,3.62-16.19,2-22.76-4.88-3.78-4-5.63-8.55-5.4-15a25.54,25.54,0,0,1,3.25-13.68c4.69-8.71,11.12-12,21.69-10.59A28.63,28.63,0,0,1,253,427.41c4.37,3.45,6.92,7.83,6.64,13.64m18,52.61-.53-.23c.1-.17.17-.43.32-.49s.33.14.51.22l-.3.5m6.83-.76c.82-.51,1.48-.29,2.52-.07a4,4,0,0,1-2.52.07m23.1-43.2c-6.43.37-12.88.31-19.27,1.22-.81.11-1.21-.24-1.24-.77-.25-4.33-1.61-8.59-.94-13a2.32,2.32,0,0,1,2.73-2.27c6.09.24,12.18.22,18.26-.11.19,0,.39.21,1.14.64-2.12,1.28-4.07,1.2-5.93,1.27-3.9.15-7.8.26-11.71.23-1.69,0-2.5.48-2.63,2.26-.19,2.79.5,5.49.59,8.24,0,.95.66,1.41,1.63,1.36L306,448c1.14-.05,1.61-.65,1.63-1.76a23,23,0,0,0-.51-5.49c-.15-.67-.23-1.36-.38-2s.05-1.41.88-1.53,1,.49,1.09,1.07a29.36,29.36,0,0,1,.3,3.09c.11,2.07,0,4.15.27,6.2.16,1.49-.2,2.08-1.74,2.17m-.67-22.18-9.63.09v.77c-3,0-6,0-8.94.1-1.57.08-2.33-.38-2.47-2a75.13,75.13,0,0,1,.06-12.37c.09-1.3.73-1.75,2-1.69,5.85.3,11.69-.11,17.54-.26,2.37-.06,3.17.53,3.31,2.83.22,3.54.27,7.1.38,10.66.05,1.58-1,1.87-2.27,1.88m13.6,44.64c-1.24-3.14-1.31-6.14-1.47-9.08-.48-8.6-.43-17.22-.66-25.83-.29-10.56-.51-21.13-.72-31.7,0-.46-.07-.92,0-1.38.07-.82-.48-2.14.9-2.17s.9,1.35.93,2.14c.23,6.32.31,12.64.61,18.95.73,15.49.42,31,1.34,46.49a2.4,2.4,0,0,1-.89,2.58m20.69-23c-2.3,0-4.6-.17-6.9-.24-2.65-.07-3.51-.71-3.86-3.36-.4-3-.62-5.94-.88-8.92-.15-1.76.67-3.12,2.34-3.05,5.18.23,10.33-.18,15.49-.32,1.37,0,1.35,1.12,1.48,1.93.42,2.72.74,5.46,1,8.2.21,1.82.32,3.65.49,5.69-3.27,0-6.24.1-9.2.07m8.22-34.89c0,2.41.26,4.81.44,7.22a11.36,11.36,0,0,1-.08,3.08,2,2,0,0,1-2.13,1.8c-5.38.22-10.75,1-16.16.49-1.18-.11-1.88-.29-2.13-1.63a43.47,43.47,0,0,1-.63-9.59c0-.67.07-1.52,1-1.52s1,.76,1,1.49a32.39,32.39,0,0,0,.07,6.53c.43,2.88.45,2.94,3.49,2.92,3.67,0,7.34-.15,11-.11,1.83,0,2.45-.83,2.43-2.5-.05-3.43-.07-6.86-.1-10.72-5.84,1.39-11.16.48-16.41,1.09a2.94,2.94,0,0,1-1.35-.16,1.19,1.19,0,0,1-.58-.76.6.6,0,0,1,.58-.67c1-.12,2.05-.21,3.08-.28,4.23-.28,8.48.15,12.72-.42,2.78-.37,3.68.83,3.74,3.74" transform="translate(-180.45 -251.95)"/><path class="cls-1" d="M347.43,437.61c-.08-2-1.05-2.52-2.87-2.36-1.6.13-3.22.05-4.83.06v.21c-2.07,0-4.13,0-6.2.06-1.26,0-1.79.63-1.8,1.95,0,2.67.65,5.25.89,7.88.09,1,.83,1.29,1.69,1.35,3.9.27,7.8.55,11.7.77,1.32.08,2.19-.39,2-2-.26-2.63-.48-5.27-.6-7.91" transform="translate(-180.45 -251.95)"/><path class="cls-2" d="M189.45,362c4,1.2,8,2.35,12.16,1.77a4.83,4.83,0,0,1,4.91,2.48c1.95,2.93,3.81,5.93,6,9.45l-4.76,0c-1.38,0-2.76,0-4.14,0-2.69.1-5,2.35-4.69,5,.48,3.66.3,7.34.89,11a184.25,184.25,0,0,1,1.87,20.58c.73,14.8,1.23,29.62,1.88,44.43.26,6,.16,11.92.45,17.88.26,5.15.06,10.32.54,15.48a32,32,0,0,1,.38,6.86c-.41,3.6.39,4.45,3.9,3.94,5.5-.81,11-.47,16.49-.45,1.67,0,2.28.7,2.22,2.27a44.63,44.63,0,0,0,0,4.48c.46,6.76,1,13.52,1.46,20.28.17,2.63.53,5.23.61,7.89.19,6.19.42,12.38.39,18.58,0,1.84,1.45,2.56,3.11,1.66.39-.22.66-.64,1.05-.89,1.31-.84,1.87-.62,1.9.95.07,3.79-.12,7.59,0,11.37a20.69,20.69,0,0,1-2.3,10.24c-2.79,5.67-4.14,11.89-5.61,18-1.25,5.19-.74,10.53-.51,15.81a8.17,8.17,0,0,0,1.38,4.2,15.89,15.89,0,0,0,7.89,6.32c4.94,1.73,10,3.14,15.48,2.81,6.17-.37,11.19-2.1,15.15-7.3,4.17-5.47,6.89-11.28,7.38-18.13.67-9.41-.19-18.76-6.37-26.12-4.48-5.34-5.44-10.92-5.57-17.33-.1-4.89,0-9.91-2-14.58a1.39,1.39,0,0,1,.58-1.8c1.43-.92,1.15-2.22,1.22-3.64.51-10.48-.78-20.88-1.5-31.3-.27-4-.25-4,3.67-4,1,0,2.08,0,3.11.11a130.1,130.1,0,0,0,17.55-.05c7.34-.37,14.71-.15,22-.84,2.07-.2,2.45.35,2.57,2.55.29,5.4.56,10.79.93,16.18.46,6.63,1.28,13.27.29,19.92-.14.94-.33,2,.34,2.65,1.69,1.65,1.51,3.76,1.71,5.77.53,5.39,0,10.79,0,16.18a22.38,22.38,0,0,1-2.9,11.53,29.47,29.47,0,0,0-3,8.37c-.65,3-1,6.08-1.8,9.09a32.93,32.93,0,0,0-1.08,6.74c-.32,4.9,1.56,9.24,2.88,13.73a6.33,6.33,0,0,0,3.32,3.8c1,.49,1.94,1,2.92,1.56,2.6,1.4,5.05,3.26,8.15,3.51,4.12.34,8.24.61,12.27-.79,2.7-.93,5.45-1.73,8.18-2.6a17.55,17.55,0,0,0,12.65-15.6,57.59,57.59,0,0,0-1-17.85,27.6,27.6,0,0,0-4-9.85c-2.48-3.56-5.22-6.94-8-10.29a4.21,4.21,0,0,1-1.09-3.09,47,47,0,0,0-.32-9.63c-.47-2.7-2.05-5.42,0-8.19.38-.5,0-1.57,0-2.37-.07-1-.16-2-.18-3.08-.18-8.59-.47-17.18-.68-25.76-.1-4.31-.08-8.62-.12-13a5.28,5.28,0,0,1,1.06-.22c6.55,0,13-1,19.55-1.58,1.74-.15,5.18,1,4.43-3.18,0-.24.58-.65.94-.91a2.08,2.08,0,0,0,.83-2.11c-.68-7.1-.51-14.24-.73-21.36-.32-10.78-.19-21.57.17-32.36.11-3.21.76-6.45.45-9.6a3.52,3.52,0,0,1,2.31-4c4.46-2.13,8.67-4.69,13-7,6.64-3.6,13.29-7.19,20.07-10.51,5.82-2.86,11.09-6.91,17.64-8.21a3.07,3.07,0,0,0,1.12-.75c6.48-5.29,12.72-10.86,19.61-15.63,5.14-3.56,5.18-3.65,6.56-8.51.91-3.2,1.86-6.37,3-9.5,2.21-6.15,4.07-12.43,6.37-18.54a74,74,0,0,0,2.92-8.45c.48-2,1.21-3.95,1.82-5.93a5.19,5.19,0,0,1,2.59-3.05q14.42-8.36,28.77-16.83c4.15-2.46,4.88-4.17,3.59-8.72-1.44-5.07-3.13-10.08-4.6-15.14-.94-3.24-2.79-4.21-5.85-2.57-5.45,2.91-11,5.71-15.95,9.43-1.52,1.13-3.11,2.47-5.26,2.88,1.13-7.21,2.33-14.09,3.25-21,.57-4.34,1.84-8.54,2.41-12.87s.11-5.11-4.12-6.45l-.34-.08c-4.29-.83-8.19-2.87-12.42-3.92-2.72-.68-2.44-.76-4.09,1.86a14.39,14.39,0,0,0-1.9,5.4c-.71,4.07-1.56,8.09-2.49,12.12-1.33,5.78-2.33,11.64-4.4,17.29a5.38,5.38,0,0,1-2-2.77A50.87,50.87,0,0,0,431.8,276a60.84,60.84,0,0,1-5.62-7.81,5.59,5.59,0,0,0-1.26-1.15,1.67,1.67,0,0,0-2.67.1c-1.42,1.5-3.09,2.76-4.42,4.32a82.41,82.41,0,0,0-8.91,12.19,4.09,4.09,0,0,0-.26,4.48c4.56,7.89,8.94,15.89,13.92,23.54.48.73.16,1.32-.08,1.93-.6,1.5-1.31,2.94-1.84,4.46-1.59,4.54-3,9.16-4.7,13.64-2.39,6.19-5.08,12.27-7.54,18.44a5.38,5.38,0,0,1-1.94,2.2c-1.64,1.36-3.75,1.71-5.45,2.88-4.56,3.14-9.67,5.29-14.58,7.75-6.43,3.22-13.17,5.84-19.78,8.7a15.33,15.33,0,0,1-5.95,1.42A68.78,68.78,0,0,0,347,374.37c-.69.15-1.52.67-2.19-.14-.07-.92.61-1.47,1-2.17,2.19-4.17,5.31-7.76,7.32-12a3.33,3.33,0,0,1,3.29-2.07c4,.06,8-.52,12-.82a24.89,24.89,0,0,0,8.27-2.1c3.12-1.37,4.61-3.94,5.39-7.07a25.82,25.82,0,0,0-.18-13c-1.79-6.73-4.55-12.67-12.74-13.36a1.76,1.76,0,0,1-1.89-1.93c-.13-4.25-.66-8.5-.53-12.74.36-11.15.27-22.3.38-33.46,0-2.7-.54-5.3,2.25-7.43,1.51-1.15,1.31-3.69.25-5.48s-2.89-.91-4.41-.76a4,4,0,0,0-3.47,2.95,3.36,3.36,0,0,0,1.34,3.94,6.54,6.54,0,0,1,2.41,5.2c0,10.69-.1,21.38-.65,32.05a59.58,59.58,0,0,0,.23,9c.22,2.17.28,4.35.39,6.53.06,1.1-.42,1.71-1.61,1.7-2.07,0-4.14.05-6.21.06a3.21,3.21,0,0,1-2.83-1.55c-3-4-6.18-8-9.37-11.87-6.33-7.72-12.59-15.48-18.54-23.5a6.45,6.45,0,0,0-5.83-2.86c-4.26.17-8.51.33-12.76.34-10,0-20,.4-29.94.92-6.18.31-12.33,1.18-18.5,1.58-9.76.63-19.49,1.25-29.1,3.29a8.8,8.8,0,0,0-6.29,4.6c-1.38,2.38-2.61,4.84-4.07,7.17-4.37,7-9,13.85-13.1,21-2.11,3.66-4.69,5.22-8.87,5.1-2.31-.07-2.76-.06-2.66-2.57.34-8.39.68-16.78.73-25.18.06-8-.85-16.07-.67-24.14,0-1.88.17-3.57,1.44-5.1s1.26-3.39,1.1-5.26a1.89,1.89,0,0,0-1.95-2,19.56,19.56,0,0,0-2.76,0c-1.63.13-2.86.79-3.08,2.63s0,3.27,2.11,3.67c1.16.21,1.34,1,1.32,2,0,3.21-.1,6.43.07,9.64.79,14.95.41,29.89,0,44.84,0,1.86-.74,2.46-2.42,2.43a6.75,6.75,0,0,0-5.51,2.18c-3.17,3.34-4.3,7.48-5.26,11.7-.86,3.75-.4,7.55,0,11.33a12.59,12.59,0,0,0,8.5,10.29m46.18,186.55c-1-6.08-.83-12.07-1.11-18-.44-9.07-1.59-18.1-1.75-27.19-.09-5.52-.2-5.56,5.19-5.66s10.59-.06,15.88-.18c1.63,0,2.23.54,2.29,2.17.26,7.81,1.28,15.58,1.22,23.41,0,4.13.51,8.24.51,12.39,0,1.67-.43,2.59-1.78,3.26-4,2-8,4.08-12,5.91-2.7,1.21-4.93,3.43-8.4,3.91m3.87,3.14c0-1.05,0-2,1.14-2.62,4.34-2.33,8.59-4.85,13.12-6.8,2.09-.9,2.13-.85,2.82,1.33a60.57,60.57,0,0,1,2.18,23.87c-.13,1.46-.77,2.88-1,4.34-1.05,5.8-8.45,8.33-13.17,5.19-3.14-2.09-4.47-5.45-4.75-9.12-.2-2.74-.08-5.51-.11-8.31.38-2.61-.29-5.23-.19-7.88m29.12,56.78c-4.33,8.2-11.59,11.49-20.48,11.18-3.89-.13-7.32-2.47-10.92-3.9a8.11,8.11,0,0,1-3.52-3.22,4.08,4.08,0,0,1-.68-4.14c1.08-.1,1.42.8,2,1.28,5.17,4.29,11.07,5.25,17.44,3.74,7-1.66,13.07-4.81,17.09-11.08.1-.15.39-.18.64-.29.74,2.46-.55,4.51-1.56,6.43m-3.11-31.26A35.7,35.7,0,0,1,269.86,588c1.73,9.26-1.95,17.05-10.75,21.14-4.78,2.23-9.69,3.86-15.29,2.68-6.61-1.39-12.74-8.4-11.49-15.6a79.9,79.9,0,0,1,6.61-20.78,8.2,8.2,0,0,1,3.05,2.2,10.41,10.41,0,0,0,16.37-2.33c.72-1.28,1.45-2.54,2.37-4.14,1.73,2.15,3.59,3.91,4.78,6m78.65,34.62c-4.54,3.07-9.88,4.21-15.06,5.68a10.52,10.52,0,0,1-6.11-.42c-4.43-1.4-8.62-3.19-10.68-7.87a5,5,0,0,1-.58-3.28c.29.06.58,0,.71.16,4.67,4.83,10.51,5.51,16.81,4.93a53,53,0,0,0,8.77-1.76c2.93-.78,5.17-2.85,7.63-4.47a52.2,52.2,0,0,0,4.3-3.51,12.61,12.61,0,0,1-5.79,10.54m-3.31-41.76c1.35,1.7,2.65,3.44,3.94,5.18a29.79,29.79,0,0,1,5.83,16.63c.22,4.58-2.11,8.09-5.55,10.91-6,4.9-12.87,6.77-20.49,6.6-6.26-.14-10.64-3.2-13.58-8.44a12.15,12.15,0,0,1-1.2-7c.6-6.54,1.8-12.92,5.48-18.57a32.81,32.81,0,0,0,1.74-3.58,1.54,1.54,0,0,1,1.24,1.18c1.6,4.2,5,6,9.13,6,3.93,0,9.52-3.93,10-8.13.11-1-.13-2.65,1.34-2.82,1.1-.13,1.47,1.29,2.09,2.07m-23.76-29c4,.88,7.19,1.62,10.42,2.3,1.79.38,3.61.64,5.41,1a2.81,2.81,0,0,1,2.52,2.7c1.12,6.61.94,13.25.89,19.89,0,5.11-4.95,10.17-9.59,9.7a7.36,7.36,0,0,1-6-3.45,18.76,18.76,0,0,1-3-8.3c-.51-7.75.62-15.53-.61-23.82M335.5,519c-.3,6.06,0,12.15,0,18.23s0,5.83-5.75,4.88c-3.89-.65-7.48-2.19-11.27-3.09a2.08,2.08,0,0,1-1.83-2.39c-.07-3.21-.44-6.41-.56-9.62s-.07-6.44-.1-9.65c-.44-6.08-.92-12.16-.87-18.26,0-2.71,0-2.74,2.51-2.88,4.47-.24,9-.49,13.42-.64,3-.1,3.81.45,3.88,3.46.15,6.65.93,13.27.61,20m87.24-129.3c-1,.76-1.93,1.62-2.94,2.36s-1.71.61-2-.73c-.88-4.39-2.26-8.65-3.16-13-1.18-5.73-2.95-11.33-3.73-17.15a7,7,0,0,1,0-3.5c9.69,6.54,19.3,12.78,29.7,18.62-6.8,4.06-12.11,9.07-17.92,13.44m-7.92-99.47A5.37,5.37,0,0,1,415,284c2.65-3.85,5.55-7.53,8.59-11.61a20.34,20.34,0,0,1,4.65,6c2.89,5.65,6.8,10.63,10,16.05.53.89,1.3,2.36,2.59,1.78s2.67-1.22,2.92-3c.94-7.07,3.37-13.79,4.89-20.73.66-3,1.15-6.09,1.72-9.14.06-.34.09-.68.16-1,1.05-5.12,1.3-5.27,6.24-3.89a29.83,29.83,0,0,1,7.35,2.89c1.16.69,1.69,1.41,1.38,2.77-2.53,10.87-3.54,22-5.26,33a14,14,0,0,0-.25,3.09c.14,2,1.77,2.95,3.37,1.88,3.61-2.43,7.63-4.12,11.17-6.71,3.32-2.41,7.14-4.14,10.71-6.21,1.18-.68,1.71-.14,2,.92,1.24,4.89,2.45,9.8,3.68,14.69.29,1.14-.36,1.67-1.22,2.16-2.1,1.18-4.13,2.5-6.27,3.59a167.79,167.79,0,0,0-21.3,13.19,2.87,2.87,0,0,1-3.7.16c-9.22-5.68-19.23-9.65-29.35-13.36a6.46,6.46,0,0,1-3.11-2.51,199.21,199.21,0,0,1-11.1-17.78m-1.9,60.65c3.45-9.35,7.85-18.33,10.73-27.9.78-2.63,2.09-5.08,3-7.7,1.05-3.12,1.95-3.43,5.12-2.25a73.84,73.84,0,0,1,7.94,3.32c5.19,2.66,10.64,4.81,15.51,8.11,2.44,1.66,2.55,1.53,1.74,4.13-1.92,6.12-3.73,12.26-6.09,18.26-3,7.66-5.15,15.66-7.67,23.52-.42,1.29-.57,2.69-1.42,3.79-5-1.57-23.1-12.72-31.3-19.32a8.26,8.26,0,0,0,2.47-4m-50.5,37.27a54.71,54.71,0,0,0,.29-7.23,2.88,2.88,0,0,1,2-3.12c5.94-2.74,11.84-5.59,17.81-8.26,7.12-3.19,14.11-6.61,20.93-10.41,1.49-.84,2.91-1.87,4.84-1.91,2.07,12.41,5.49,24.34,8.08,36.53-9,4.53-18.08,8.87-26.94,13.63-8.39,4.51-16.88,8.87-24.88,14.06-1.65,1.07-2.12.85-2.22-1.22a262,262,0,0,1,.07-32.07m-4.69-9.71c2.86-.13,3.2.25,3.08,3.13-.33,8.15-.74,16.3-.54,24.47.16,6.42.25,12.84.33,19.26.11,9.07.11,18.15.3,27.22.14,7,.49,14,.76,21,.2,5.17.38,10.35.66,15.51.09,1.67-.29,2.55-2.17,2.68-8.23.58-16.39,2.09-24.71,1.56a49.76,49.76,0,0,0-8.26.41c-6.53.7-13.09.1-19.62.71-1.39.13-3.15-1.25-3.63-.87a5.64,5.64,0,0,1-3.46,1.13c-9.18.54-18.37.75-27.57.78-3.9,0-7.83.34-11.7,0-3.16-.25-6.29,0-9.41-.12-7.14-.18-14.24.53-21.37.44-6.32-.08-12.64.08-19,.26-2,.06-2.32-.87-2.36-2.48-.16-7.48-.44-15-.56-22.42-.19-11.5-1.06-23-1.51-34.45-.49-12.41-1.46-24.79-2-37.19-.2-4.81-.71-9.61-1.12-14.41-.26-3,.06-3.48,3-3.62,3.44-.17,6.9-.19,10.34-.39a2.75,2.75,0,0,1,2.8,1.45c2.2,3.35,4.58,6.59,6.83,9.92,1.35,2,2.64,3.7,5.56,2.53,1.2-.48,2.73-.22,4.11-.13a370.22,370.22,0,0,0,42.4.57c1.61-.08,3.22,0,4.83-.05,10.35-.31,20.71-.44,31-1.62,4.11-.47,8.27-.28,12.4-.72a7.11,7.11,0,0,0,5.54-3.47c1.77-2.69,3.61-5.33,5.17-8.13a3.22,3.22,0,0,1,2.95-1.89c5.61-.33,11.22-.8,16.84-1.06m6-114.65c0-1.31,1.55-2.41,3.25-2.37,1.52,0,1.5,1.16,1.5,2.19,0,1.69-.68,2.37-2.2,2.32s-2.58-.87-2.55-2.14m6.85,62.5c3.92,1.31,6.69,3.67,7.54,8a41,41,0,0,1,1.14,10.23c-.2,3.81-2,6.07-5.7,7.18-5.9,1.76-12,1.86-18.06,2.33a3.5,3.5,0,0,1-1.05-.32c0-1.61,1-2.86,1.73-4.05,2.49-3.87,4.39-8.05,6.6-12.07a3.34,3.34,0,0,0-.36-4.31c-1.82-2.29-3.35-4.82-5.27-7.64,4.88-.12,9.21-.78,13.43.64m-149-20.61c2.11-3.54,4.64-6.81,6.46-10.52a4.12,4.12,0,0,1,3.16-2.38q7.11-1.29,14.32-2c9.94-1,19.88-2,29.83-2.94,1.94-.19,3.9-.28,5.85-.31,11.72-.19,23.43-.77,35.16-.64a18.14,18.14,0,0,0,3.44.12c3.9-.76,6,1.36,8.1,4.24,5.47,7.49,11.32,14.7,16.78,22.2,3.78,5.2,8.14,9.9,12.14,14.91,1.57,2,2.85,4.15,4.24,6.25a2.43,2.43,0,0,1,0,2.62c-1.61,3.16-3,6.41-4.89,9.46-2,3.31-4,6.7-5.88,10.09-4.21,7.47-9.1,14.53-13.14,22.11a87.06,87.06,0,0,1-5.32,8.39,9.07,9.07,0,0,1-7.12,4.09c-11.21,1-22.42,2.17-33.7,2.16-3.11,0-6.21,0-9.31.07v.06c-7.24.06-14.49.28-21.73.14-7.92-.16-15.85,0-23.75-.91a8.18,8.18,0,0,0-2.74-.09c-3.13.77-5.07-.93-6.6-3.18a238.58,238.58,0,0,1-13.17-20.92c-3-5.54-6.38-10.88-9.56-16.32-1.1-1.87-2.09-3.8-3.2-5.67a3.2,3.2,0,0,1,.14-3.26c1.22-2.59,2.33-5.24,3.65-7.77q8-15.24,16.84-30m-28.95-40.95c-.07-1.43,1.12-1.6,2.09-1.7a1.68,1.68,0,0,1,2,1.76c0,1.26-.93,1.37-1.72,1.31-1.28.13-2.31.05-2.38-1.37m-5.47,71.8a9.76,9.76,0,0,1,2.24-4.18,3.94,3.94,0,0,1,2-1.29c1.45-.34,2.77-.71,3,1.45,0,.5.21,1.26,1,1.06s.75-.82.6-1.4c-.43-1.73.48-2.36,2-2.38,2.26,0,4.52-.73,6.84-.15.12,1.66-.73,2.92-1.41,4.21-1.23,2.32-2.5,4.61-3.75,6.92-1.79,3.34-1.77,6.44.82,9.49,1.67,2,2.51,4.56,4.17,6.62.8,1,.24,1.92-1.13,2.12a26.55,26.55,0,0,1-11.93-.61,5.63,5.63,0,0,1-4.15-4.55c-1.09-5.78-1.95-11.5-.25-17.31" transform="translate(-180.45 -251.95)"/><path class="cls-2" d="M253,427.41a28.63,28.63,0,0,0-13.65-6.25c-10.57-1.45-17,1.88-21.69,10.59a25.54,25.54,0,0,0-3.25,13.68c-.23,6.43,1.62,11,5.4,15,6.57,6.85,13.94,8.5,22.76,4.88,1.49-.61,3-1.22,4.39-2,4.69-2.47,8.57-5.68,10.61-10.82a34.79,34.79,0,0,0,2.08-11.45c.27-5.81-2.28-10.19-6.65-13.64m1.28,27.36a21.06,21.06,0,0,1-7.65,6.8,51,51,0,0,1-5,2.15c-8.56,3.15-16.18,1-21.82-6.15-.95-1.21-1.26-2.08.33-3.33a35.58,35.58,0,0,1,9.74-5.73c1.43-.53,2.48-.67,3.43,1a10.76,10.76,0,0,0,3.38,3.85c.52.34,1.1,1.08,1.79.37s.24-1.28-.28-1.8c-.73-.73-1.51-1.41-2.24-2.14-.48-.5-.91-1.09-.58-1.83s1-.5,1.51-.54c.69-.05,1.38,0,2.07,0,4.67-.25,8.72,1.92,12.94,3.35a9.24,9.24,0,0,1,2.19,1.63,1.54,1.54,0,0,1,.22,2.41m2.13-5.2c-.49,1.34-1.63.61-2.31.23a30.37,30.37,0,0,0-7.32-2.87c-3.91-1-7.79-2-11.86-1.28a1.9,1.9,0,0,1-2.27-1.08c-1.82-3.8-5.26-6.34-7.52-9.79-.35-.52-.89-.92-1.44-.59-.72.43-.61,1.15-.13,1.77a51.39,51.39,0,0,0,3.41,4.32c1.59,1.67,2.61,3.71,4.44,5.87a30,30,0,0,0-11.91,6.14c-1.43,1.2-2.28.83-2.54-1-1-7.2-.74-14.18,3.48-20.51,3.4-5.1,8.31-8.32,14.24-8.3,8.62,0,16.19,3.41,21.16,10.84,3.41,5.11,2.59,10.75.57,16.22" transform="translate(-180.45 -251.95)"/><path class="cls-2" d="M320,423.09c-.3-6.31-.38-12.63-.61-18.95,0-.79.47-2.16-.93-2.14s-.83,1.35-.9,2.17c0,.46,0,.92,0,1.38q.3,15.85.72,31.7c.23,8.61.18,17.23.66,25.84.16,2.93.23,5.93,1.47,9.07a2.4,2.4,0,0,0,.89-2.58c-.92-15.48-.61-31-1.34-46.49" transform="translate(-180.45 -251.95)"/><path class="cls-2" d="M305.42,412.15c-5.85.15-11.69.56-17.54.26-1.29-.06-1.93.39-2,1.69a75.13,75.13,0,0,0-.06,12.37c.14,1.63.9,2.09,2.47,2,3-.13,6-.08,8.94-.1v-.77l9.63-.09c1.26,0,2.32-.3,2.27-1.89-.11-3.55-.16-7.11-.38-10.65-.14-2.31-.94-2.89-3.31-2.83m0,13.84-7.57.06v.1c-2.63,0-5.27,0-7.91.09-1.63.07-2.34-.62-2.3-2.19.06-2.74.11-5.48.2-8.22,0-1.17.76-1.46,1.84-1.47,5.28-.06,10.56-.14,15.83-.29,1.14,0,1.4.53,1.43,1.42.08,3.09.17,6.18.18,9.27,0,1.05-.81,1.23-1.7,1.23" transform="translate(-180.45 -251.95)"/><path class="cls-2" d="M309,441.33c-.05-1-.16-2.06-.31-3.09-.09-.57-.39-1.18-1.09-1.07s-1.06.73-.88,1.53.23,1.36.38,2a23,23,0,0,1,.51,5.49c0,1.11-.49,1.71-1.63,1.76l-15.83.8c-1,.05-1.6-.41-1.63-1.36-.09-2.75-.78-5.45-.58-8.24.12-1.78.93-2.27,2.62-2.26,3.91,0,7.81-.08,11.71-.23,1.86-.07,3.81,0,5.93-1.27-.75-.43-.95-.65-1.14-.64-6.08.33-12.17.35-18.26.11a2.32,2.32,0,0,0-2.73,2.27c-.67,4.4.7,8.66.94,13,0,.53.43.88,1.24.77,6.39-.91,12.84-.85,19.27-1.22,1.54-.09,1.91-.68,1.74-2.17-.24-2-.16-4.13-.26-6.2" transform="translate(-180.45 -251.95)"/><path class="cls-2" d="M348.8,435.17c-.13-.81-.11-2-1.48-1.93-5.16.14-10.32.55-15.49.32-1.67-.07-2.49,1.29-2.34,3.05.26,3,.48,6,.88,8.92.35,2.65,1.21,3.29,3.86,3.36,2.3.07,4.6.22,6.9.24,3,0,5.93,0,9.2-.07-.17-2-.28-3.87-.49-5.69-.3-2.74-.62-5.48-1-8.2M346,447.53c-3.9-.22-7.8-.5-11.7-.77-.86-.06-1.6-.34-1.69-1.35-.24-2.63-.89-5.21-.89-7.88,0-1.32.54-1.93,1.8-1.95,2.07,0,4.14,0,6.2-.06v-.21c1.61,0,3.23.07,4.83-.07,1.82-.15,2.79.41,2.87,2.37.12,2.64.33,5.28.6,7.91.17,1.62-.7,2.09-2,2" transform="translate(-180.45 -251.95)"/><path class="cls-2" d="M332.89,410.92c-1,.07-2.05.16-3.08.28-.34.05-.66.32-.58.67a1.19,1.19,0,0,0,.58.76,2.94,2.94,0,0,0,1.35.16c5.24-.62,10.57.3,16.41-1.09,0,3.86.05,7.29.1,10.72,0,1.67-.6,2.52-2.42,2.5-3.68,0-7.35.08-11,.11-3,0-3.06,0-3.49-2.92a32.39,32.39,0,0,1-.07-6.53c0-.74-.13-1.48-1-1.49s-1,.85-1,1.52a43.47,43.47,0,0,0,.63,9.59c.25,1.34.95,1.52,2.13,1.63,5.41.48,10.78-.27,16.16-.49a2,2,0,0,0,2.13-1.8,11.36,11.36,0,0,0,.08-3.08c-.18-2.41-.4-4.81-.44-7.22-.06-2.91-1-4.11-3.74-3.74-4.24.57-8.49.15-12.72.42" transform="translate(-180.45 -251.95)"/><path class="cls-2" d="M284.41,492.9a4,4,0,0,0,2.52-.07c-1-.22-1.7-.44-2.52.07" transform="translate(-180.45 -251.95)"/><path class="cls-2" d="M277.05,493.43l.53.23.3-.5c-.18-.08-.39-.27-.51-.22s-.22.32-.32.49" transform="translate(-180.45 -251.95)"/><path class="cls-2" d="M288.31,358.46c6.9,0,13.8-.11,20.7-.17s13.79-.5,20.67-.86c3.76-.2,3.75-.22,3.56-4.12,0-.23,0-.47,0-.69a52.22,52.22,0,0,0-7.34-25.87,18.65,18.65,0,0,0-10.3-8.67c-4-1.3-7.89-.75-11.9-.69-5.78.08-9.87,3.13-13.2,7.07a28.39,28.39,0,0,0-5.86,13.43,54,54,0,0,0-.06,17.16c.46,3.38.41,3.42,3.75,3.41m-.65-24.53c1.73-5.28,4.61-10,9.71-12.87a8.46,8.46,0,0,1,4.86-1.42c3.44.21,6.86-.46,10.32-.24a11,11,0,0,1,7.09,3.14,32.88,32.88,0,0,1,9.11,15.56c1.13,4.08,2.58,8.1,2.7,12.42.14,4.84.2,5-4.59,5.16-4.45.2-8.91.11-13.42.15-.37-1.27.5-2.59,0-4-.78-2.08-1.49-2.47-3.53-1.54-.69.31-1.35,1.13-2.15.56s-.59-1.67-.44-2.56c.54-3.38.54-3.35-2.59-2.42-2.92.87-4.19,3-4.7,5.77a9.26,9.26,0,0,0-.05,2.41c.15,1.56-.28,2.33-2.06,2.27-3-.11-6-.1-9,.07a2.15,2.15,0,0,1-2.57-2.06c-.24-1.47-.49-2.95-.59-4.44a41.57,41.57,0,0,1,1.88-16" transform="translate(-180.45 -251.95)"/><path class="cls-2" d="M221.77,361.1c9.64-.49,19.25-1.59,30.11-1.43,2.6-.17,6.39-.32,10.17-.68,2.48-.23,2.81-.66,2.48-3.07a66.18,66.18,0,0,1-.48-7.57,46.65,46.65,0,0,0-1-9.92c-.8-3.35-1.66-6.68-2.32-10.06a14,14,0,0,0-5.47-8.44c-3.78-3-8.09-4-12.83-4.08-7.33-.09-12.93,2.92-17.26,8.75a37.2,37.2,0,0,0-6.61,15,45.29,45.29,0,0,0,.19,19.46c.45,2,1.27,2.17,3,2.08m.85-28.38c3.32-6.71,7.28-13.08,15.55-14.8,7.33-1.53,13.34.68,18.23,6.19a10.21,10.21,0,0,1,2,3.95,108,108,0,0,1,4.24,27.13c.07,1.62-.38,2.36-2,2.43-3.67.17-7.34.38-11,.59-1.27.07-2.06-.37-1.86-1.74a4.44,4.44,0,0,0-.82-3.24c-1.61-2.48-2.12-2.54-4-.26-.46.57-1,1.07-1.72.89-1.05-.27-.86-1.23-.81-2a7.25,7.25,0,0,1,.49-2,1.52,1.52,0,0,0-.26-1.88,1.59,1.59,0,0,0-1.94,0c-2.57,1.56-5,3.14-5.2,6.69-.23,3.88-.4,3.89-4.13,4.06-2.41.12-4.83.07-7.23.25-1.51.11-2.17-.56-2.21-1.92-.07-2.53-.06-5.05-.08-7.58a29.25,29.25,0,0,1,2.72-16.75" transform="translate(-180.45 -251.95)"/><path class="cls-2" d="M257.35,376.1c-1.57,0-2.43-.36-2.29-2.06a2.29,2.29,0,0,0-.08-.69c-.16-.65-.21-1.51-1.14-1.39s-1.08.83-1,1.56a38.45,38.45,0,0,1,.39,6.52c0,.65,0,1.51.95,1.48.69,0,.94-.65.9-1.24-.12-1.79.91-2,2.38-2,2.41.06,4.83,0,7.24,0v-.16c2.52,0,5.05,0,7.57-.07a4.16,4.16,0,0,0,2.34-.39,1.13,1.13,0,0,0,.48-.8,1,1,0,0,0-.59-.71,22.8,22.8,0,0,0-2.74-.08c-4.82,0-9.64,0-14.46.08" transform="translate(-180.45 -251.95)"/><path class="cls-2" d="M368.85,398.76a4.86,4.86,0,0,0,2.63-1.06,74.83,74.83,0,0,1,8.32-4.84c8.49-4,16.67-8.7,25.3-12.45.79-.34,1.63-.69,1.3-1.67s-1.29-.74-2-.31c-4.09,2.54-8.57,4.33-12.87,6.48-5.22,2.6-10.41,5.3-15.59,8-2.43,1.27-4.82,2.64-7.22,4a1.1,1.1,0,0,0-.6,1.43c.11.24.54.34.71.44" transform="translate(-180.45 -251.95)"/><path class="cls-2" d="M443.48,322.43c.16-1-.17-1.26-.6-1.48a.82.82,0,0,0-1.17.37,21.26,21.26,0,0,0-.92,2.2c-1.21,3.22-2.16,6.55-3.65,9.63-2.9,6-5.05,12.29-7.39,18.51a58.33,58.33,0,0,0-1.9,6.24c-.19.74-1,2,.41,2.27s1.13-1.2,1.29-2c.85-4.3,2.59-8.33,4.09-12.41a175.93,175.93,0,0,1,9.54-22.41,3.58,3.58,0,0,0,.3-.91" transform="translate(-180.45 -251.95)"/><path class="cls-2" d="M297.33,417.1c-2.28,0-3.11.87-3,3.08.07,1.85,1.49,3.55,3,3.54,1.76,0,3.11-1.72,3-3.82s-.91-2.83-3-2.8m.18,4.42c-.76,0-1-.72-1.1-1.41s.2-1.2.89-1.17a1.18,1.18,0,0,1,1.13,1.36c0,.61-.37,1.22-.92,1.22" transform="translate(-180.45 -251.95)"/></svg>