<svg id="Layer_1" data-name="Layer 1" xmlns="http://www.w3.org/2000/svg" viewBox="0 0 208.88 471.34"><defs><style>.cls-1{fill:#fff}.cls-2{fill:#010101}</style></defs><path class="cls-1" d="M327.87 351.82c-.28-1.73-1.21-1.86-2.56-1.59-3.08.62-6.14 1.49-9.26 1.81-8.37.85-16.66 2.43-25.08 3-10.24.69-20.47 1.74-30.75.65-2.59-.27-3.07.11-3 2.71.13 5 .39 9.94.86 14.9.14 1.55.74 2.38 2.46 2.43 7.44.25 14.85 1.38 22.32 1 4.24-.21 8.52.28 12.74-.31 4.91-.69 9.87-.84 14.77-1.78 5.87-1.14 11.84-1.79 17.77-2.61 1.36-.19 1.72-.86 1.36-2.12-.93-3.36-.81-6.86-1.22-10.29-.37-2.58 0-5.19-.4-7.79" transform="translate(-188.21 -163.37)"/><path class="cls-1" d="M381.14 406.21a.85.85 0 0 1-.06-.17c-1.29-5.63-3.81-10.83-5.54-16.31a121.13 121.13 0 0 1-4.36-16.53c-.56-3.35-1.29-6.68-1.92-10-.28-1.48-.91-2.12-2.44-1.27-1.75 1-3.79 1.11-5.63 1.92a105.3 105.3 0 0 1-15 4.9c-4.44 1.21-8.87 2.53-13.37 3.48-5.82 1.22-11.71 2.09-17.55 3.17a182 182 0 0 1-25.71 2.71 221.66 221.66 0 0 1-31.66-.73c-8.37-.85-16.85-1-25-3.59-4.47-1.44-9.3-1.85-13.41-4.36-1.47-.9-1.74-.35-2 1-1.11 5.69-2 11.43-2.87 17.16-1 6.52-2.69 12.93-3.55 19.49-.73 5.53-2.37 10.88-3.7 16.29-.62 2.52-1.73 4.89-2.12 7.51a35.55 35.55 0 0 1-2.23 9.34c-.51 1.14.19 1.78 1.1 2.34 5.33 3.3 11.48 4.74 17 7.67 2 1.09 4.4.69 6.6 1 4.44.68 8.79 1.89 13.31 2.07 5.58.21 11.16.45 16.74.78 9.71.58 19.44.53 29.15.16 8.3-.32 16.59-1.23 24.88-1.92 4.05-.34 8.12-.68 12.15-1.2 5.48-.72 10.94-1.58 16.39-2.43 7.74-1.21 15.44-2.62 23.11-4.17 4.88-1 9.43-3.25 14.44-3.7.4 0 .89-.06 1.13-.49 1-2 3-1.69 4.4-2a4.26 4.26 0 0 0 1.27 0 41.59 41.59 0 0 1 6.09-2.63.53.53 0 0 0 .21-.9c-1-.92-1-2.3-1.73-3.36-2-3.05-3.79-6.1-4-10a34 34 0 0 0-4.16-15.31m-139-7.34c-3.6-1.54-7.44-1.58-11.23-2-3.07-.34-5.81-2-8.92-2.32a.87.87 0 0 1-.78-1.05c.06-.69.56-.67 1.06-.67a13.92 13.92 0 0 1 4.55 1.15c4.88 1.65 9.95 2.07 15 2.61 1.17.13 2.09.66 2.1 1.51a1.26 1.26 0 0 1-1.79.78m5.33-9c-3.24-1.2-6.69-1.11-10-1.41-4.5-.41-8.48-2.35-12.7-3.57-.43-.12-1.06-.37-.72-1s.88-.39 1.45-.2a79.43 79.43 0 0 0 19.44 4.22c.91.06 1.82 0 2.73 0 .65 0 1 .3 1 1.1-.17.5-.34 1.12-1.18.8m81.36 29.48c-3.18 1.85-6.77 2.4-10.26 2.94-4.15.63-8.18 1.78-12.33 2.31-3.18.41-6.35.86-9.53 1.19-1.18.12-1.58.55-1.43 1.72a82.66 82.66 0 0 0 1.75 11.17c.27 1.07-.52 1.76-1.65 1.65a18.86 18.86 0 0 0-4.17.25c-6.11.8-12.14 2.26-18.36 2.18a81 81 0 0 1-8.52-.61c-1.25-.15-1.86-.86-2-2.28-.56-6.7-.76-13.43-1.27-20.13-.52-7-.26-14-.31-21 0-2.25.84-3.15 3.07-3.07 3.66.13 7.29-.28 11.58-.26 4.73-.4 10.19.17 15.42-1.62 1-.34 1.29 0 1.66 1.13a21 21 0 0 1 1.49 7.07c0 .64.31.77.93.75a104.58 104.58 0 0 0 15.4-1.4 106 106 0 0 0 15.73-3.7c1-.34 1.6-.16 1.79 1 .6 3.77 1.25 7.53 1.5 11.34.16 2.54.31 5.09.51 7.63a1.72 1.72 0 0 1-1 1.86m34.84-1c-.89.25-1.11-.52-1.21-1.22a109 109 0 0 0-2.53-10.93c-1.09-4.22-2-8.47-2.84-12.73-.11-.53-.56-1.24.61-1.35s1.07.93 1.21 1.64c.56 2.67.93 5.38 1.56 8 1.18 5 2.46 9.88 3.75 14.8.21.79.37 1.52-.55 1.77m7 1.07c-.67.09-1-.27-1.06-.93-.59-5.33-2.76-10.27-3.83-15.47-.76-3.67-2-7.25-2.13-11 0-.53-.51-1.38.37-1.51s1.06.69 1.16 1.37c.69 4.75 2 9.36 3.06 14a110.51 110.51 0 0 0 3 11c.13.4.21.82.28 1.09.1.85-.12 1.36-.88 1.46" transform="translate(-188.21 -163.37)"/><path class="cls-1" d="M386 366.16c-1.95.77-3.9 1.54-5.86 2.27a2.34 2.34 0 0 1-1.23.22c-2.13-.43-4.23.26-6.34.09-.93-.08-1.17.41-.95 1.26.45 1.7.85 3.41 1.31 5.11.93 3.51 2 7 2.77 10.53a29 29 0 0 0 1.9 5.85 52.63 52.63 0 0 1 3.16 8.48c.61 2.34 1.6 4.58 2.52 7.15a2.15 2.15 0 0 0 .37-1.73c-.54-6.14.36-12.24.8-18.34.48-6.76 1.56-13.49 2.42-20.23.11-.91-.19-.93-.87-.66M292 405c-.21-2.18.15-4.38-.45-6.52s-1.87-3.25-3.43-3c-7.91 1.27-16 .38-23.89 1.72-1.22.2-1.79.55-1.86 1.67-.24 3.49-.58 7-.62 10.48s.22 7 .35 10.55h-.08c0 .91.07 1.82.1 2.73a110.72 110.72 0 0 0 1.31 15.22c.44 2.5.94 3.11 3.09 3.28 6.76.51 13.47-.29 20.16-1a31.22 31.22 0 0 0 6.77-1.34 1.85 1.85 0 0 0 1.54-2.19c-.17-4.68-1.21-9.25-1.55-13.9q-.63-8.88-1.44-17.74m-6.73 14.67c-2.13.12-3.45-.91-3.53-2.77-.12-2.4 1.31-4.16 3.47-4.29a3.72 3.72 0 0 1 3.67 3.29 4 4 0 0 1-3.61 3.77m42.18-9.11a61.54 61.54 0 0 0-.92-9.77c-.2-.92-.44-1.28-1.41-1.07-1.6.34-3.23.55-4.84.88a233 233 0 0 1-24.93 3.83c-1 .09-1.2.36-1.13 1.33.19 2.72.24 5.46.34 8.19h.1c.1 2.8.26 5.59.29 8.38 0 1.22.46 1.49 1.64 1.44a116 116 0 0 0 13-.93 92.7 92.7 0 0 0 16.91-4.19 2 2 0 0 0 1.5-2.48c-.25-1.86-.48-3.72-.59-5.6m-85.74-117.94a175.72 175.72 0 0 0 19.05 1.23c5.24.16 10.38-1 15.58-1.19 3.16-.09 6.23-.88 9.38-.89a16.64 16.64 0 0 0 3.8-.33c3.45-.82 7-.76 10.46-1.05 5-.42 10.05-.45 15-1.53 5.8-1.27 11.45-3.15 17.32-4.1a20 20 0 0 0 2.81-.72c3.52-1.14 6.95-2.48 10.39-3.8.95-.36 1.16-.84 1-1.58-.88-3.85-.34-7.8-1.09-11.72s-1.61-7.81-2.44-11.7a51 51 0 0 0-7.36-17.64c-1.85-2.8-3.54-5.71-6.28-7.89a23.85 23.85 0 0 1-4.14-3.76 13.73 13.73 0 0 0-3.73-3.6 2.48 2.48 0 0 1-1-1.07 3.88 3.88 0 0 0-2.56-2.15 12.45 12.45 0 0 1-2-1.22c-2.76-1.5-4.76-4.09-7.85-5.17-1.57-.55-3.42-.86-4.66-1.83-2.39-1.86-5.2-2.14-7.9-2.88-2.86-.78-5.8-.11-8.36-.27a39.21 39.21 0 0 0-8.5.66c-3.83.88-7.21 2.89-10.49 4.86a32.57 32.57 0 0 0-10.86 10.07c-.53.81-.84 1.71-1.33 2.54-1.88 3.22-4 6.31-5.34 9.86-1.45 3.91-3.33 7.68-4.51 11.66-.54 1.8-1.55 3.32-2.07 5.08a66.51 66.51 0 0 1-2.24 7.2 37.43 37.43 0 0 0-2.19 7.83 61.29 61.29 0 0 0-.47 16.57c.18 2 0 4 .05 6 0 1.6.84 2.31 2.45 2.53m6.68-18.87a73.57 73.57 0 0 1 1.44-10.24c.62-3.25 1.11-6.54 1.53-9.82a92.34 92.34 0 0 1 2.35-10.26 1.48 1.48 0 0 1 1.27-1.16 98.69 98.69 0 0 0 10-2.63 71.7 71.7 0 0 1 14.93-2.74c4.6-.23 9.18-.86 13.77-1.32 8.89-.57 17.79-.51 26.69-.37 3.09 0 4.61.55 5.9 3.6 1.7 4 3 8.13 4.55 12.17 1.32 3.47 2 7.1 3.23 10.57a11.9 11.9 0 0 1 .43 4.68 2 2 0 0 1-1.64 1.93c-6 1.68-12 3.62-18.13 4.63-7.17 1.19-14.29 2.71-21.55 3.38-4.46.41-8.9 1.43-13.34 1.39-7-.07-14.06.27-21-.9-2.81-.47-5.67-.67-8.51-.88-1.38-.1-1.95-.62-1.88-2M368 336.52c1.41 4.63 1.94 9.48 3.09 14.17.66 2.66 1 5.35 1.55 8 .18.9-.18 1.32-1.12 1.45-1.1.15-1.57.78-1 1.92.17.38.2.82.34 1.22.4 1.16-.5 2.78.78 3.52 1.1.62 2.51 0 3.93.08A29.65 29.65 0 0 0 389.2 363c1.55-.93 3.6-1.55 3.37-4.19a74.93 74.93 0 0 0-2.23-13.23c-1.73-6.39-3.77-12.72-7.28-18.47a53.58 53.58 0 0 0-7.05-9.57 24.18 24.18 0 0 0-5.79-4.29c-2.21-1.2-4.39-2.62-7-2.95-.88-.12-1.24 0-.92 1 2.6 8.24 3.19 16.92 5.71 25.18" transform="translate(-188.21 -163.37)"/><path class="cls-1" d="M341.93 246.43a139.63 139.63 0 0 1 4.37 16.28c.28 1.47.9 1.33 1.79.74a30.4 30.4 0 0 1 5.37-2.95 5.67 5.67 0 0 0 3.83-5.6c0-1 .06-2.06.1-3.08-.71-4.17-.68-8.43-2.48-12.41-1.32-2.92-2.42-5.92-4.57-8.37a4.17 4.17 0 0 0-5.07-.66 2.72 2.72 0 0 1-2 .54c-1.94-.23-3.72.46-5.52.94-1.52.41-1.79 2.06-1.18 3.55 1.55 3.8 4.13 7 5.4 11m1.8-12.34a1 1 0 0 1 1.59.69c.89 3.19 3.34 5.62 4.23 8.78.59 2.07 1 4.21 1.43 6.32h-.13c.25 1.8.5 3.6.73 5.4a8.81 8.81 0 0 1 .07 1.45.9.9 0 0 1-.92.94c-.52 0-.6-.51-.65-.94-.13-1.27-.31-2.53-.39-3.8-.4-5.67-2.43-10.79-5.15-15.7a16.56 16.56 0 0 1-.91-1.78c-.18-.45-.68-1 .1-1.39m-92.49 40.02a57.66 57.66 0 0 0 10.21 1.4 141.32 141.32 0 0 0 21.28.21c6.84-.48 13.66-1.28 20.46-2.15 7.75-1 15.29-3.09 22.88-4.84a20.67 20.67 0 0 0 5.35-1.68 1.78 1.78 0 0 0 1.18-2 32.54 32.54 0 0 0-1.05-5.84c-1.61-5.58-2.92-11.24-5.4-16.54-.74-1.59-1.13-3.33-2.18-4.78-.32-.44-.57-.91-1.21-1-1.57-.16-3.13-.48-4.7-.52a166.44 166.44 0 0 0-19.47.22c-2.12.08-4.25.05-6.37.25-7.48.72-15 1.33-22.31 3.17a65.37 65.37 0 0 1-6.51 1.67 32.49 32.49 0 0 0-6.59 1.26 2.23 2.23 0 0 0-1.58 1.55c-.76 2.47-1.2 5-2.13 7.44-1.41 3.68-1.31 7.64-2 11.46-.5 2.92-1.34 5.8-1.16 8.82.06.92.17 1.55 1.28 1.84m61.58 216.39a.8.8 0 0 0 .68.11c3.33-1.18 6.9-1.26 10.28-2.2 4.2-1.17 8.25-2.87 12.53-3.74a123.21 123.21 0 0 0 12.43-3.37c4.64-1.45 9.06-3.65 14-3.88.36 0 .77 0 .83-.51.08-.63-2.1-2.75-2.69-2.53-2.12.79-4.38.82-6.56 1.28-4.89 1.05-9.93 1.47-14.53 3.67-1.33.64-2.89.43-4.27.81A110.28 110.28 0 0 1 320 483.3c-2.15.26-4.42.33-6.45 1.31.2.72.72.57 1.09.64a2.13 2.13 0 0 1 1.8 1.59c.13.67-.72 1-1.28 1.37s-1.42.91-2.1 1.41c-.23.17-.45.49-.19.77M330.43 479c-4.93.51-9.82 1.5-14.8 1.56-1.7 0-2.65.64-3 2.2 6.86-.66 13.5-2.27 20.21-3.49a3 3 0 0 0-2.38-.27m34.59 34.3c-.39 0-.89 0-1-.57a1.06 1.06 0 0 1 .53-1.08c.82-.63 1.64-1.25 2.45-1.89.5-.39 1.08-.76.87-1.64a9.23 9.23 0 0 0-3.49 1.22c-4.46 2.63-9.55 3.52-14.4 4.92-5.09 1.46-10.16 3.2-15.56 3.63-3.92.31-7.56 2.21-11.5 2.64a16.9 16.9 0 0 0-5.94 1.69c-.68 1.84 3.42-.83 1.4 2.29.74.07 1.43.18 2.13.19 2.93 0 6 1.66 8.7-.84a.32.32 0 0 1 .17-.06c3.81-.81 7.58-2.08 11.41-2.3 6.75-.39 13.09-2.49 19.63-3.7 3.19-.59 6.28-1.92 9.81-1.51a2.51 2.51 0 0 1-2.24 1.63c-3 .61-6 1.29-9.07 1.86-8.45 1.6-17 2.58-25.43 4.43-.78.17-1.74 0-2.16 1a4 4 0 0 0 2.33.27 163.86 163.86 0 0 0 35.69-5.41c.68-.18 1.61-.65 1.9.27s-.88.92-1.46 1.24a2.18 2.18 0 0 1-.53.15 147.09 147.09 0 0 1-23.65 4 224.09 224.09 0 0 1-27.29.72c-2-.08-2-.08-2.19-1.9 0-.06 0-.15-.05-.18-1-.92-2.05-2-3.53-2.05-1.26 0-1.34 1.23-1.64 2.11-1.32 3.81-1.28 7.77-1.07 11.71a8.5 8.5 0 0 0 3.4 6.66c1.19.89 2.64.83 4 1a200.24 200.24 0 0 0 24.37.62c8.12-.17 16.08-2 24.1-3.27a37.69 37.69 0 0 0 4.34-1.22c3.2-.89 4.32-3.89 4.78-6.76a39.45 39.45 0 0 0-1-15.73 2.31 2.31 0 0 0-2.62-1.93c-.72 0-1.5.25-2.08-.37a5.77 5.77 0 0 0-4.05-1.79m-8.72 2.93a9.74 9.74 0 0 1 5.38-1.05 10.73 10.73 0 0 1-5.38 1.05m7.43-30.57a12.2 12.2 0 0 0 2.68-2.17c.27-.24.61-.48.42-.9s-.52-.24-.8-.27a25 25 0 0 1-2.88-.41c-1.89-.51-2.07-1.17-.7-2.95a10.2 10.2 0 0 0-2.93.3c-3.86 1.21-7.57 2.85-11.6 3.57-2.24.4-4.49.95-6.7 1.53-8.31 2.2-16.59 4.53-24.87 6.84-.76.21-2.1 0-2 1 .05.8 1.26 1.16 2.19 1.31a1.16 1.16 0 0 0 .18 0 1.87 1.87 0 0 1 1.79 1.32c.24.74-.65 1-1.09 1.49-.85.89-2.32.92-3 2-.34.55-1.34 1.08-.72 1.84.45.56 1.27.12 1.88-.09 3.37-1.19 6.72-2.42 10.11-3.53 6.2-2 12.34-4.26 18.44-6.56 4.53-1.71 9.16-3 13.74-4.58 1-.34 2.69-.26 2.88-2a.41.41 0 0 1 .71-.24 1.65 1.65 0 0 0 2 .24.68.68 0 0 1 .84.14.72.72 0 0 1-.09 1 3.77 3.77 0 0 1-1.67 1.36 34.56 34.56 0 0 1-4.88 1.39c-6.86.94-12.91 4.36-19.5 6.13-4.64 1.25-9.05 3.33-13.67 4.76a24.86 24.86 0 0 0-10.11 5.49c5.74-.29 11.27-2.23 17-3.39 7.29-1.48 14.45-3.57 21.69-5.33 5-1.22 9.86-3.24 15-4.19.35-.06.83-.08.89-.5s-.38-.68-.72-1a10 10 0 0 0-4.13-1.79c-.37-.08-.88-.1-1-.67a1 1 0 0 1 .66-1.17" transform="translate(-188.21 -163.37)"/><path class="cls-1" d="M366.91 504.41c-.46.23-1 .88-1.38.19a1.74 1.74 0 0 1 0-1.9c.52-.78 1.08-1.54 1.62-2.3-.07-.13-.15-.26-.22-.4-16.73 5.39-34 8.71-50.88 13.93 1.77.43 2 1.64 1.8 3.05.71.16.95-.7 1.57-.47 0 .75-.62.85-1.13 1a4.19 4.19 0 0 0-2.91 2.47c-.18.33-.42.68-.19 1s.66.09 1 0c5.42-1.83 11.1-2.56 16.62-3.94 7.4-1.85 14.84-3.52 22.08-5.9a112.89 112.89 0 0 0 14.9-6c-.95-.32-1.71-1.28-2.84-.72m-47 12.33a9.88 9.88 0 0 1 4.58-1.78 9.62 9.62 0 0 1-4.58 1.78m32.18-9.26c1.09-.92 2.38-.79 3.91-1-1.34 1-2.71.72-3.91 1m18.47 34.84c-.93-1.05-1.76.56-2.74.46-.23 0-.5.13-.71.06-1.85-.57-3.65.1-5.37.46-15.25 3.14-30.64 3.18-46.07 2.16-1-.07-1.43.07-1.43 1.21a189.78 189.78 0 0 1-1.09 19.64c-.76 7.48-.8 15-1.75 22.51a18.5 18.5 0 0 0 1.09 8.23c.3.9 1.25 1.55 1 2.65a2.28 2.28 0 0 0 1 2.36c2.2 1.71 4.28 3.15 7.47 3.23 4.25.12 8.52 1 12.82 1.25 6.46.43 12.86-.3 19.25-1 4.14-.43 8.33-.5 12.4-1.52 1.42-.35 3-.56 4-1.59 2.8-2.74 5.56-5.56 7.11-9.26a13.63 13.63 0 0 0 1.11-4c.25-2.63-.44-5.19-.28-7.58-.21-2.45-.32-4.7-.6-6.92a182.17 182.17 0 0 0-6.17-29.68 7.39 7.39 0 0 0-1-2.68m-85.35-127.87c-1.23.07-2.55 1.28-2.39 2.25.2 1.23 1.21 1.17 2.11 1.15a1.94 1.94 0 0 0 2-2.05 1.44 1.44 0 0 0-1.76-1.35m92.27 27.43c-5.43 1.23-10.55 3.49-16.14 4.26s-11 2.5-16.57 3.38c-9 1.42-18.13 2.58-27.23 3.66-6.45.77-13 1.07-19.41 1.86-8.89 1.09-17.82 1.06-26.73 1.21-6.17.1-12.35-.61-18.53-.94-5.39-.28-10.79-.46-16.17-.83-7.35-.51-14.47-2.36-21.62-4-1.1-.25-1.48 0-1.4 1.1.25 3.75.34 7.52.76 11.25.49 4.39 3.24 7.16 7 9.2 2.12 1.14 4.51.74 6.68 1.56a37.45 37.45 0 0 0 8.67 1.66c3.9.47 7.84.83 11.68 1.6a90.5 90.5 0 0 0 13.85 1.63c6.78.3 13.56.58 20.33 1a187.9 187.9 0 0 0 34.45-.65c8.06-1 16.15-1.81 24.22-2.77 4.45-.52 9-.52 13.32-1.84 2.79-.85 6-.66 8.22-3.13.2-.22.68-.25 1-.28a20.65 20.65 0 0 0 8.81-2.4c2.93-1.7 5.25-3.78 5.93-7.32s-.12-6.92.25-10.28c-.1-2.82-.23-5.56-.29-8.29 0-1-.39-.79-1.12-.63M229.93 302.74c2.34.7 4.16 2.42 6.57 3a43.29 43.29 0 0 1 4.61.94 36.93 36.93 0 0 0 8.54 1.62c4.77.54 9.57.22 14.35.15 11.24-.17 22.42-1.14 33.59-2.32 6.65-.7 13.05-2.72 19.66-3.66 1.8-.26 3.61-.45 5.37-.87 5.12-1.22 9.94-3.35 15-4.76 5.69-1.59 11-4.39 16.87-5.42a1.49 1.49 0 0 0 1.15-1.29c.23-1.43.77-2.83.42-4.45-.24-2.16-.48-4.46-.75-6.75-.31-2.6-1.28-3.5-3.88-3.66-2-.11-2.49.43-2.17 2.36.63 3.72.25 4.73-3.21 6-4.24 1.54-8.56 2.83-12.89 4.09-5.72 1.65-11.58 2.55-17.35 3.9a90.9 90.9 0 0 1-16.55 2.15c-3.82.17-7.61.76-11.42 1.09-6.71.58-13.44.81-20.12 1.7a26.89 26.89 0 0 1-6.14.34c-4.42-.42-8.86 0-13.28-.26-2.93-.15-5.91-.12-8.67-1.2a4.55 4.55 0 0 1-3.13-3 16.77 16.77 0 0 1-.48-4.89c.21-4 .24-3.84-3.72-3.38a4.11 4.11 0 0 0-3.7 3.15c-1.62 4.48-1.2 8.95-.18 13.44a2.47 2.47 0 0 0 1.51 1.93m8.48 30.98a6.66 6.66 0 0 0 6.39-8.2c-.42-2.35-3.89-5-6.71-4.81-3.07.26-6 3.75-5.74 7 .43 3.73 2.33 6.19 6.06 6m-4.06-7.52c.15-.26.6-.51.56-.67-.62-2.49 1.28-1.53 2.32-1.74 3-.25 4.56.94 4.54 3.46 0 2-1.21 3.13-3.52 3.38s-3.89-.82-4.27-2.72a2.33 2.33 0 0 1 .37-1.71" transform="translate(-188.21 -163.37)"/><path class="cls-1" d="M238.05 329.14a2.62 2.62 0 0 0 1.89-2.52c0-1.05-.89-1.4-1.79-1.28a2.09 2.09 0 0 0-2.11 2.05c0 1.22 1 1.51 2 1.75" transform="translate(-188.21 -163.37)"/><path class="cls-1" d="M218 347.09c-.91 4.93-2.25 9.77-3.27 14.67-.57 2.74-.36 2.91 2.4 4.07a3.48 3.48 0 0 1 .89.6c1.91 1.66 4.34 2.43 6.61 3.19 3.48 1.16 7.16 1.8 10.7 2.79a79.13 79.13 0 0 0 19.92 2.9c.95 0 1.53.05 1.3-1.2-.59-3.25-.34-6.55-.6-9.82-.11-2.91-.2-5.82-.34-8.73-.05-.91-.1-1.86 1.06-1.88s2.25-.23 3.41-.2c3.81.1 7.57.95 11.4.52a11.81 11.81 0 0 1 2.88-.24c3.52.5 7 .1 10.52-.08 7.27-.38 14.55-.66 21.78-1.62a120.26 120.26 0 0 0 18.92-3.59c3.44-1 3.45-1.13 3.65 2.52a142.52 142.52 0 0 0 2 19c.19 1 .37 1.27 1.36 1 2.09-.64 4.2-1.18 6.3-1.75a205.47 205.47 0 0 0 20.18-6.13c3.58-1.38 7.24-2.61 10.77-4.18a1.17 1.17 0 0 0 .79-1.42 45.48 45.48 0 0 0-.56-4.69c-1.6-6.54-3.23-13.07-4.55-19.68-1.45-7.25-3.31-14.41-4.93-21.62a72.54 72.54 0 0 0-3.7-10.78 12.7 12.7 0 0 0-2.61-4.74c-.55-.55-1.18-1.12-1.89-.59-1.46 1.09-3.27 1.19-4.86 1.9-4.74 2.12-9.78 3.41-14.65 5.15a120.12 120.12 0 0 1-18.3 4.6c-9.17 1.73-18.35 3.5-27.66 4.19-12.66.93-25.35 2.11-38 .91-6.38-.61-12.89-1.29-18.44-5.13-.72-.5-1.4-.34-1.59.45-.45 1.85-1.72 3.32-2.18 5.15-1.77 7.05-4.4 13.86-5.38 21.12-.61 4.56-2.5 8.82-3.33 13.36m114.87-27.52c.58 0 .86.37.89.94 0 1 .07 2.06.11 3.09.18 5.31 1.77 10.4 2.38 15.61.47 4.09 1.23 8.12 1.78 12.19.08.57-.15 1.21-.68 1.31s-.64-.59-.75-1a78.1 78.1 0 0 1-2.6-13.98c-.19-3.08-1.08-6.1-1.44-9.17-.31-2.65-.32-5.33-.46-8 0-.52.06-1 .74-1m-94.92-.94c4.58-.1 8.73 4.17 8.89 9.15.14 4.16-3.61 7.24-9 7.42-4.64.2-7.22-3.47-7.54-7.62-.27-3.58 4.38-8.87 7.69-8.95m-32.82 103.21c.07.46 0 1.14.58 1.2s.7-.62.8-1.06c.49-2.3 1.12-4.56 1.59-6.88 1.32-6.52 2.71-13 3.73-19.61.7-4.54 1.61-9.05 2.49-13.56.21-1.06.07-1.38-1.1-1.27-2.17.19-4.36.19-6.54.27v.06c-1.94.07-3.88.18-5.82.21-2.59 0-2.73.06-2 2.64 1.06 3.76 1.38 7.63 2 11.45 1.47 8.84 2.84 17.69 4.26 26.54" transform="translate(-188.21 -163.37)"/><path class="cls-1" d="M214 378.67c.69-.12.8-.57.88-1.17.34-2.46.69-4.92 1.11-7.36a2.24 2.24 0 0 0-1.3-2.79 3.22 3.22 0 0 1-1.87-3.6c.48-2.48 1.08-4.93 1.41-7.45.7-5.28 2.4-10.34 3.46-15.56 1.41-7 3.41-13.86 5.11-20.79.13-.52.74-1.21.1-1.65s-1.13.21-1.68.44a31.75 31.75 0 0 0-11.65 8.14c-1.79 2-4 3.64-5.44 6a62.42 62.42 0 0 0-3.84 6.7c-1.2 2.52-2.52 5-2.9 7.77s-.95 5.48-1.47 8.18a86.91 86.91 0 0 0-1.53 16.79c0 .85.05 1.7.1 2.55.18 3.32.19 3.29 3.5 4.05 5.36 1.23 10.68.65 16-.25m103.53 131.16a5.06 5.06 0 0 0-2 1.11c-.4.3-.91.6-.65 1.15s.84.23 1.28.12l17.4-4.51c5.68-1.47 11.39-2.82 17-4.46 5.79-1.69 11.46-3.83 17.44-4.86.29-.05.64 0 .72-.38a.61.61 0 0 0-.41-.72c-.77-.25-1.51-.91-2.38-.3-.52.37-1.05 1.09-1.53 0-.34-.74-.88-1.51.28-2.16a4.3 4.3 0 0 0 2.08-2.16 19 19 0 0 0-3 .91 22 22 0 0 1-6.52 2.17 117.31 117.31 0 0 0-17 3.95c-3.38 1.08-6.94 1-10.35 2-5 1.44-10.08 2.53-15.52 3.87 1.21 1 1.92 2 3.26 2.17a1.24 1.24 0 0 1 1.16 1.21c0 .67-.72.8-1.22.91M377 598.42c-.84-.12-1.08.75-1.51 1.32-2.5 3.31-5.42 5.75-9.87 6.29-3.61.45-7.24.77-10.84 1.27a124.69 124.69 0 0 1-19.78 1.17c-4-.06-7.95-.72-11.93-1.1-3.8-.37-7.18-1.14-9.86-4-.73-.78-1.15-.79-1.63.38-1.89 4.55-2 9.34-2 14.11a8.43 8.43 0 0 0 7.13 8.43c4.54.79 9.18.71 13.71 1.73 2.34.52 4.84.2 7.26.39a98.86 98.86 0 0 0 36.11-4.1c4-1.19 7.36-3.29 7.43-8.22 0-1 .14-2.05.21-3.08.28-1.86-.36-3.64-.65-5.41a29.85 29.85 0 0 0-2.18-7.62 2.37 2.37 0 0 0-1.64-1.56M234.82 505.5a2.8 2.8 0 0 0-1.57.85c-.48.53-1.37 1-1.07 1.76s1.27.44 1.94.44c6.26 0 12.51-.14 18.77-.09 9.59.07 19.19.26 28.78.36.73 0 1.58.19 2.22-.49-.52-.73-1.35-.52-2-.75-.47-.16-.95-.38-1.08-.85-.2-.74.59-.59.92-.88.76-.68 2-.77 2.48-2-16.9-1.75-33.77-1-50.7-2a1.44 1.44 0 0 0 1.3.88c1.36.07 1.28 1.2 1.37 2s-.84.67-1.35.79m-3.69-20.33c-.13.39.21.67.49.9a7.61 7.61 0 0 0 5.48 2c2.09-.17 4.07.4 6.61.58a4 4 0 0 1-2.81.33c-2.9-.23-5.92-1.22-8.38 1.36-.36.38-1.09.55-.94 1.19s.87.49 1.37.49c3.28 0 6.53.08 9.8.35 11.06.93 22.14 1.62 33.21 2.34 3.08.21 6.17-.18 9.51.18a4.22 4.22 0 0 0-2.33-1.27c-.91-.3-2 .08-2.81-.57-.32-.23-.92-.18-.85-.77 0-.37.48-.42.73-.62a10.11 10.11 0 0 0 2.79-3c-2.1-.21-4-.38-5.9-.58-7.34-.78-14.66-1.69-22-2.18-2.36-.16-4.74-.26-7.06-.65-5.31-.89-10.64-.49-16-.53-.38 0-.79.05-.92.44m26.73 4.8l9.42.71a31.65 31.65 0 0 1-9.44-.2v-.51m25.9 29.18a68.48 68.48 0 0 1-8.35-.43c-4.29-.27-8.57.29-12.88-.25-5.43-.69-10.92.09-16.38-.31-3.38-.25-6.79-.24-10.18-.17-.94 0-2.52-.27-2.75.71s1.28 1.4 2.14 1.93c1.29.79 1.28 1.8.51 2.92-.31.45-.73.81-1 1.26-1.22 1.84-1.09 2.29 1.06 2.46 7.62.6 15.25 1.2 22.91.58 3-.32 6.07-.44 9-1 5.3-1 10.54-2.31 15.81-3.46.47-.1.75-.43.46-.7-.91-.9-.07-1.36.35-2 .65-.91.86-1.67-.71-1.57m-15.47 3.45c1.39-.53 2.8.06 4.47-.27-1.24.69-1.24.69-4.47.27m13.5-41.21c-6.43-.44-12.72-.53-19-1.24-4.51-.5-9-.67-13.56-1.18a122 122 0 0 1-14-2.26c-.75-.17-1.28-.09-1.34.68a9.94 9.94 0 0 1-2.63 5.79 2.75 2.75 0 0 0 1.9.44c3.63 0 7.28-.15 10.9 0 5.87.3 11.72.74 17.57 1.28 3.8.35 7.55 1.15 11.35 1.45 3.5.28 7 .18 10.69.24a4.32 4.32 0 0 0-2.08-1.84c-.85-.51-1.77-1.06-1.85-2.07-.1-1.3 1.47-.35 2-1.33" transform="translate(-188.21 -163.37)"/><path class="cls-1" d="M285.91 522.31c.21-.07.43-.13.64-.22.48-.21 1-.3 1.24.26.3.73-.28.92-.83 1.11s-1.22.52-1.84.73a100.05 100.05 0 0 1-21.12 4.63c-9.28 1-18.53.58-27.81.55a3.93 3.93 0 0 1-3.92-2.44c-.57-1.15.61-1.72.69-2.65a5.8 5.8 0 0 1 .68-1.49c.13-.3.47-.67 0-.94-.29-.17-.59.08-.77.32-1.31 1.73-2.86 3.29-3.37 5.52-1.1 4.77-.75 9.54-.07 14.3.32 2.29 3.05 5 5 5.28a126 126 0 0 0 17 1.53 91.78 91.78 0 0 0 13.88-1.44 104.77 104.77 0 0 0 18.52-4.2 12.08 12.08 0 0 1 3.31-.82c2.45-.15 3.68-1.55 4.18-3.74.78-3.47 0-6.89-.18-10.33a20.94 20.94 0 0 0-.87-5.56 4.16 4.16 0 0 0-3.17-2.74c-1.2-.23-1 1.38-1.26 2.34m-53.09-22.04c2.78.23 5.58.47 8.34.54 6.85.16 13.71-.06 20.56.23 5.88.25 11.78-.11 17.61 1 .92.17 2 .68 2.93-.14-1.53-1.45-1.47-1.95.34-2.94a3.41 3.41 0 0 0 2.07-2.19c-1.79.2-3.31-.69-4.91-.67-4.93.05-9.83-.44-14.73-.77-3.81-.26-7.62.28-11.44-.4-4.89-.88-9.92-.68-14.85-1.47a47.61 47.61 0 0 0-5.08-.34c-.33 0-.79 0-.84.48a.67.67 0 0 0 .4.52c1.41.21 2 2 3.29 2.44a9.23 9.23 0 0 0 1.05.05 2 2 0 0 1-1.05-.05h-.14c-2-.46-3.21.79-4.26 2.16-.6.77-.79 1.48.71 1.6m53.15 16.84c.12-.44-.33-.58-.65-.72l-2.68-1.12c-1.3-.53-1.38-1.21-.27-2.14.95-.8 1.87-1.62 2.95-2.56a3.2 3.2 0 0 0-2-.12c-3.26.51-6.54.17-9.8.14-6.48-.05-13-.6-19.44-.62-5.4 0-10.79.25-16.17-.44a17.74 17.74 0 0 0-3.63.17c-.39 0-1.09.36-.51.74 1.23.81 2.26 2.18 3.76 2.27 2.6.15 5.21-.06 7.81-.08.47 0 1-.22 1.39.43a27 27 0 0 1-7.46 0c-3.08-.32-4.88 1.19-6.62 3.78.82 0 1.29.07 1.76.06 5.77-.19 11.55.08 17.31 0 7.72-.14 15.43.15 23.14 0 3.39-.06 6.79.32 10.18.5.35 0 .81.18.93-.29m-14-3.23c1.72-.09 3.44-.35 5.13.34-1.72.08-3.44.67-5.13-.34" transform="translate(-188.21 -163.37)"/><path class="cls-1" d="M289.49 545.69c-.33-1.21-.73-1.7-2.07-1.55s-2.72.87-4.05 1.15a39.56 39.56 0 0 0-4.39.86c-9.12 2.93-18.57 3.59-28 3.88a91.77 91.77 0 0 1-14.9-.58c-2.72-.36-2.91 0-3.39 2.91-1.22 7.36-2 14.77-2.69 22.21-.74 8.26-1.37 16.44.92 24.56a7.25 7.25 0 0 0 4.76 5.24c4.88 1.73 10 2.33 15.08 2.89a91.72 91.72 0 0 0 15.44.14 52.6 52.6 0 0 0 12.65-1.4c3-.7 6-1.34 8.31-3.74 1.49-1.57 2.28-3.54 3.35-5.35.92-1.55 2.06-3.07 2.34-4.9a76.63 76.63 0 0 0 .67-10.81 93 93 0 0 0-.68-13.23c-1-7.45-1.33-15-3.32-22.28m56.3-380.99a6.47 6.47 0 0 0-1.63.39c-1 .47-1.6 1.3-.89 2.34a39.53 39.53 0 0 0 3 3.8c.61.7 1 .57 1.3-.42a23.94 23.94 0 0 0 .53-3.93c.28-2.09.05-2.29-2.35-2.18" transform="translate(-188.21 -163.37)"/><path class="cls-1" d="M291.18 600.47c-1.06-.22-1.43 1.12-1.9 1.91a8.85 8.85 0 0 1-6.75 4.41c-.53.08-1.08.14-1.6.27a71.15 71.15 0 0 1-17.49 2.07 181 181 0 0 1-19.62-.89c-4.73-.49-9.41-1.12-12.88-4.93-.39-.43-.8-.58-1.12.09-.6 1.23-1.48 2.29-1.7 3.76-.62 4.26-.28 8.49 0 12.73.2 3.68 2.74 6.05 5.36 7.79 1.81 1.2 4.38 1.5 6.81 1.78a187.39 187.39 0 0 0 21.79.91c3-.3 7-.81 11.07-1.07 4.49-.29 8.83-1.62 13.33-1.85a7.83 7.83 0 0 0 5.59-2.59c1.54-1.66 1.77-3.66 2.21-5.76 1.17-5.55.13-10.86-1.15-16.18-.25-1-.88-2.24-1.91-2.45" transform="translate(-188.21 -163.37)"/><path class="cls-2" d="M198.6 440.22a2.31 2.31 0 0 0 .33 3.31c2.6 2.11 5.13 4.36 8.5 5.3.81.23 2 .47 2 1.81-.17 3.77.09 7.53.23 11.29a14.69 14.69 0 0 0 12.53 14.26c2.06.33 4.15.47 6.06 1.51.81.45 1.1 1 .52 1.52-1.54 1.3-1.94 3.41-3.6 4.62s-1.54 2.19-.06 3.54c2 1.79 2 1.79 0 3.61-.14.12-.29.22-.42.35-1.4 1.26-1.27 2.28.4 3.23.48.27 1 .49 1.45.76s.78.89.31 1.35a9.18 9.18 0 0 0-1.45 2.32c-1.91 3.24-1.92 3.24 1.5 5.06 2 1.08 2 1.22.63 3-.22.28-.5.53-.75.8-.63.67-1.35 1.41-1 2.37s1.16 1.2 2.21 1.21c.85 0 2.21 1 1.84 1.45-.93 1.22-1.28 2.76-2.31 3.86-1.68 1.8-1.69 2.61.38 3.7 1.2.63.84 1 .29 1.86-1.31 1.95-2.69 3.79-3.14 6.27a68.1 68.1 0 0 0-.55 10c-.11 3.31-.19 6.92 2.37 9.45 2 2 2 4 1.38 6.25a16.51 16.51 0 0 0-.57 1.9c-.52 5.17-1.45 10.3-1.73 15.51-.22 4-1 8.05-1.36 12.08-.52 5.3.88 10.36 2.07 15.44a3.88 3.88 0 0 1-.28 3.09 13.48 13.48 0 0 0-1.92 4.29 55.58 55.58 0 0 0 .35 18.6 5.56 5.56 0 0 0 1.8 3.66c2 1.58 3.54 3.51 6.66 4 6.19.93 12.31 2 18.6 1.9a243.81 243.81 0 0 0 29.91-2.79 34.13 34.13 0 0 1 6.5-.66c4.26.22 8.64-2.26 9.54-6.41.6-2.75 1.16-5.56 1.49-8.36.62-5.42-1.41-10.51-2.47-15.72a3.66 3.66 0 0 0-1-1.88 1.38 1.38 0 0 1-.19-2.06 18.75 18.75 0 0 0 2.46-8.12c.5-4.55.41-9.16.48-13.75 0-3.09-.25-6.17-.29-9.25a57.55 57.55 0 0 0-1.89-15.05c-.95-3.36-2.07-6.52-.81-10.5 1.6-5.09 1.1-10.72-.45-16-.48-1.62-.62-3.56-2.18-4.69-1.2-.87-2.51-1.58-3.95-2.48 1.57-.67 1.4-1.81.62-2.68-1.35-1.49-.26-2.52.57-3.4 1.58-1.69 1.69-2.93 0-4.41-.36-.31-.76-.67-.36-1 2.18-1.91.44-4.07-.45-5.14-1.47-1.8-.23-2.45.53-3.44.45-.58 1.26-1.14.82-1.85-.82-1.29-.84-3.06-2.39-3.91-.49-.27-.73-.57-.09-1.07 2-1.54 1.59-3.75 0-5.47-.83-.9-2-1.51-2.57-2.66.57-.47 1.06-.28 1.53-.28 5.77-.05 11.54 0 17.31-.18 3.31-.1 3.32-.24 1.92 2.8-.63 1.38-.48 2.54.89 3.26 1.08.58.9 1 .17 1.75-2.26 2.22-1.91 4.21.84 5.41.87.38 1.61 1.08 2.48 1.48 1.09.49.61.8.06 1.39-1.15 1.21-2.21 2.6-2.14 4.33 0 1.05-.08 1.46-1.13 1.81-1.39.45-1.42 1.64-.27 2.58.8.65 1.55 1.36 2.32 2 2 1.78 2.08 2.35.29 4.37-.12.14-.26.26-.39.39-1.67 1.67-1.52 3.25.63 4.26 1.33.62 1 1 .27 1.86-1.33 1.54-3 3-3.51 5a29.38 29.38 0 0 0-1.08 6c-.27 4.32-.67 8.54 1.57 12.55a11.24 11.24 0 0 0 1.69 2.75 2.05 2.05 0 0 1 .69 1.43c.06 2.36.15 4.73.13 7.09 0 5.28-.74 10.53-1.08 15.79-.3 4.6-.63 9.2-.94 13.8-.25 3.68-1.08 7.31-.58 11a46.72 46.72 0 0 0 1.58 5.41 2.09 2.09 0 0 1-.25 2 12.45 12.45 0 0 0-1.93 5c-.63 3.76-1.06 7.56-1.35 11.37a10.14 10.14 0 0 0 2.6 7.68c2.35 2.5 5.85 3.52 9.15 4.09 3.46.6 6.9 1.35 10.38 1.8a91.7 91.7 0 0 0 12.13 1 131.33 131.33 0 0 0 13.42-.93 181.3 181.3 0 0 0 20.2-3.59c2-.45 3.71-1.82 5.85-1.88 1.49 0 4.9-2.88 5.07-4.34.19-1.76.8-3.42 1-5.15a35.57 35.57 0 0 0-3.34-20.1c-.2-.42-.51-.68-.15-1.28a13.23 13.23 0 0 0 1.64-6.77 131.59 131.59 0 0 0-.54-15.25c-.36-3.3-.72-6.61-1.28-9.88-.53-3.09-1.33-6.15-2-9.22-.81-3.77-1.47-7.58-2.59-11.29-.22-.69-.83-1.6-.11-2.23a7.72 7.72 0 0 0 2.26-5.18 89.39 89.39 0 0 0 .31-19.07c-.35-3.46-2.25-5.33-5.66-5.81-1.32-.18-1.43-.62-.66-1.61 1.14-1.49 2.27-3 3.31-4.56.73-1.1.23-2.08-1.06-2.32a9 9 0 0 1-.91-.1c-.62-.18-1.47-.21-1.69-.87s.57-1 1-1.37c1.39-1.1 1.24-2.2.13-3.35a4.85 4.85 0 0 0-1.34-1.2c-1.6-.65-.92-1.59-.34-2.43a5.42 5.42 0 0 1 1.38-1.17c1.35-1 1.38-2 .25-3.19a5.17 5.17 0 0 0-2-1.58c-2-.6-1.78-1.4-.64-2.81.91-1.12 2.48-2.5.28-4-.25-.17-.18-.55 0-.85.58-1.23-.2-2.09-.89-2.91a26.46 26.46 0 0 0-2.06-2c3.07-1.11 5.58-3.16 8.49-4.53 2.49-1.16 3.7-3.92 5.88-5.54.19-.14.15-.57.24-.85 2-6.27 1.15-12.63.62-19-.15-1.72-.81-3 2-3.53 3.48-.72 6.64-2.82 9.84-4.54 1.45-.77 1.82-1.82.63-3a26.19 26.19 0 0 1-3.95-5.74c-1.31-2.22-2.79-4.4-2.79-7.2 0-3.52-.94-6.95-1.19-10.47a119.26 119.26 0 0 1-.6-13.62c.24-5.09.63-10.16 1.28-15.23.68-5.36 1.68-10.66 2.46-16a1.48 1.48 0 0 1 .69-1 33.66 33.66 0 0 1 3.47-2.63c1.88-1.06 1.62-2.49 1.24-4.2a57.24 57.24 0 0 1-1.47-8.37 32.89 32.89 0 0 0-1.54-8.72c-1.09-3.13-2.33-6.22-3.25-9.38-1.13-3.88-3.41-7.14-5.48-10.37a42 42 0 0 0-8.87-9.84 30.73 30.73 0 0 0-10.35-5.8c-1-.3-2.51.09-3-1.34-.85-2.59-2.12-5-3-7.59a6.32 6.32 0 0 1-.18-4.76c1.78-4.79.82-9.69-.36-14.48-.89-3.63-1.86-6.1-7.3-5.88-.75 0-1.25-.09-1.15-.91s-1-2.3.63-2.63c3.19-.66 5.53-2.68 7.81-4.72a8.17 8.17 0 0 0 2.85-5.52 36.15 36.15 0 0 0-.21-6.9c-.76-5.54-1.51-11.1-3.95-16.24-1.67-3.52-2.35-7.66-6.92-9.07-2.49-.78-5-1.84-7.53-1.69a2.27 2.27 0 0 1-2.76-2 25.1 25.1 0 0 1-.56-4.15 2.16 2.16 0 0 1 2.31-2.59 25.36 25.36 0 0 0 5.24-.61c1.57-.42 3.34-.93 3.59-3.07s-.87-3.27-2.41-4.49c-1.36-1.08-2.89-.73-4.29-1.2a3.76 3.76 0 0 1-2.7-2.91c-.29-1.38.57-2.22 1.6-3 1.81-1.37 4.06-1.51 6.06-2.36a3.8 3.8 0 0 0 2.36-3.43c.17-1.61.33-3.28-1.51-4.32a7 7 0 0 0-7.41.15c-1.44.83-2.65 1-4.1-.25a9 9 0 0 1-2.53-4.5 3 3 0 0 1 2.33-4 17.55 17.55 0 0 1 4.14-.61 11.51 11.51 0 0 0 5.22-1.41c2.32-1.24 2.76-2.8 1.36-5a1.42 1.42 0 0 1-.21-1.36c.81-2.33.59-4.79.83-7.2.06-.63 0-1.32-.77-1.43-2.47-.34-5-.7-7.23.81-1.46 1-1.56 1.78-.47 3.12a9.44 9.44 0 0 1 1.68 2.79 2.92 2.92 0 0 0 1.63 1.86 5.87 5.87 0 0 1 2.39 1.88c1.57 1.74 1.4 2.4-.75 3.34s-4.37.87-6.57 1.23c-4.15.67-6.87 2.94-4.77 7.16a8 8 0 0 1 .28 1.24 6.8 6.8 0 0 0 6.82 4.66c1.31-.18 2-1.27 3.15-1.73 1.44-.6 3.92 0 4.69 1.2.63 1 .08 3.05-1.07 4.1-1.53 1.38-3.47 1.61-5.37 2a4.69 4.69 0 0 0-3.72 4.58 4.43 4.43 0 0 0 3.85 4.54 11.33 11.33 0 0 1 3.66 1c1.28.7 2.43 1.64 2.1 3.26a3 3 0 0 1-3 2.24c-1.76.15-3.52.26-5.27.48a3 3 0 0 0-2.95 2.89 9.4 9.4 0 0 0 1.11 6.15c.47.75.77 1.56-.36 1.89a27.25 27.25 0 0 0-4.61 2.15 1.65 1.65 0 0 1-2.33-.48 97.13 97.13 0 0 0-12.44-11.81c-1.42-1.13-2.68-2.56-4.26-3.37a79.23 79.23 0 0 0-12.93-5.59c-2.48-.75-4.84-1.95-7.5-2-4-.14-8-.56-12-.05-3.23.41-6.46.8-9.46 2.32-2.25 1.13-4.61 2.06-7 3-3.5 1.36-6.22 3.84-8.84 6.35-2.89 2.78-4.18 6.72-6.52 9.92a5.59 5.59 0 0 0-.85 1.37c-1.42 4.25-4.15 7.9-5.5 12.2-1 3.25-2.43 6.38-3.69 9.56a83.43 83.43 0 0 0-3.15 9.43c-.8 3-2.16 5.79-2.58 8.85-.53 3.85-1 7.71-1.33 11.58-.13 1.47-.62 2.23-2.14 2.33a9 9 0 0 0-7.89 5.08c-2.53 5.64-4.07 11.63-.52 17.6.31.52.62 1 1 1.55a1 1 0 0 1 .12 1.27 23.1 23.1 0 0 0-2.58 7.16 1.38 1.38 0 0 1-1.22 1.34 14.73 14.73 0 0 0-5.36 2.52 40.69 40.69 0 0 0-5 3.9c-1.76 1.67-4 2.67-5.58 4.54s-3.72 3.43-5.19 5.65c-.91 1.36-2.33 2.64-2.85 4.18-1.49 4.39-3.77 8.47-4.88 13-1.19 4.89-2.95 9.64-3.54 14.69a44 44 0 0 0 .9 16.59c.66 2.45 1.65 3.63 4.1 3.62.66 0 .94.29 1.05 1 .41 2.45.92 4.88 1.3 7.34.68 4.37 1.26 8.75 1.93 13.12.33 2.21.79 4.4 1.14 6.61.43 2.63.6 5.32 1.25 7.89a32.53 32.53 0 0 1 .19 16.68c-.45 1.63-.59 3.41-1.86 4.85m149-269.41c-.3 1-.69 1.12-1.3.42a39.53 39.53 0 0 1-3-3.8c-.71-1-.07-1.87.89-2.34a6.47 6.47 0 0 1 1.63-.39c2.4-.11 2.63.09 2.35 2.18a23.94 23.94 0 0 1-.53 3.93M294.24 619.1c-.44 2.1-.67 4.1-2.21 5.76a7.83 7.83 0 0 1-5.59 2.59c-4.5.23-8.84 1.57-13.33 1.85-4.06.26-8.09.78-11.07 1.07a185.21 185.21 0 0 1-21.79-.91c-2.43-.28-5-.58-6.81-1.78-2.62-1.75-5.16-4.11-5.36-7.79-.24-4.24-.58-8.47 0-12.73.22-1.47 1.1-2.53 1.7-3.76.32-.67.73-.52 1.12-.09 3.47 3.81 8.15 4.44 12.88 4.93a181 181 0 0 0 19.62.89 70.73 70.73 0 0 0 17.49-2.07c.52-.13 1.07-.19 1.6-.27a8.85 8.85 0 0 0 6.75-4.41c.47-.79.84-2.12 1.9-1.91s1.66 1.42 1.91 2.46c1.28 5.31 2.32 10.62 1.15 16.17m-.75-37.9a76.63 76.63 0 0 1-.67 10.81c-.28 1.83-1.42 3.35-2.34 4.9-1.07 1.81-1.86 3.78-3.35 5.35-2.27 2.4-5.32 3-8.31 3.74a53.11 53.11 0 0 1-12.65 1.4 91.72 91.72 0 0 1-15.44-.14c-5.09-.55-10.2-1.16-15.08-2.89a7.25 7.25 0 0 1-4.76-5.24c-2.29-8.12-1.66-16.3-.92-24.56.68-7.44 1.47-14.84 2.69-22.21.48-2.93.67-3.27 3.39-2.91A91.77 91.77 0 0 0 251 550c9.46-.29 18.91-.95 28-3.88a39.56 39.56 0 0 1 4.39-.86c1.33-.28 2.6-1 4.05-1.15s1.74.34 2.07 1.55c2 7.3 2.36 14.83 3.32 22.28a93 93 0 0 1 .68 13.23M287.17 520a4.16 4.16 0 0 1 3.17 2.74 20.55 20.55 0 0 1 .87 5.56c.16 3.44 1 6.86.18 10.33-.5 2.19-1.73 3.59-4.18 3.74a12.08 12.08 0 0 0-3.31.82 104.77 104.77 0 0 1-18.52 4.2 90.49 90.49 0 0 1-13.88 1.43 124.43 124.43 0 0 1-17-1.52c-2-.26-4.69-3-5-5.28-.68-4.76-1-9.53.07-14.3.52-2.23 2.06-3.79 3.37-5.52.18-.24.48-.49.77-.32.46.27.12.64 0 .94a5.8 5.8 0 0 0-.68 1.49c-.08.93-1.26 1.5-.69 2.65a3.93 3.93 0 0 0 3.92 2.44c9.28 0 18.53.49 27.81-.55a100.05 100.05 0 0 0 21.08-4.63c.62-.21 1.22-.51 1.84-.73s1.13-.38.83-1.1-.76-.48-1.24-.27c-.21.09-.43.15-.64.22.28-1 .06-2.57 1.26-2.34m-5.56-35.2a4.32 4.32 0 0 1 2.08 1.84c-3.67-.06-7.19 0-10.69-.24-3.8-.3-7.55-1.1-11.35-1.45-5.85-.54-11.7-1-17.57-1.28-3.62-.19-7.27 0-10.9 0a2.75 2.75 0 0 1-1.9-.44 9.94 9.94 0 0 0 2.63-5.79c.06-.77.59-.85 1.34-.68a122 122 0 0 0 14 2.26c4.51.51 9 .68 13.56 1.18 6.26.71 12.55.8 19 1.24-.53 1-2.1 0-2 1.33.08 1 1 1.56 1.85 2.07m-49.55 0c5.32 0 10.65-.36 16 .53 2.32.39 4.7.49 7.06.65 7.37.49 14.69 1.4 22 2.18 1.9.2 3.8.38 5.9.58a10.11 10.11 0 0 1-2.79 3c-.25.2-.69.25-.73.62-.07.59.53.54.85.77.85.64 1.9.27 2.81.57a4.22 4.22 0 0 1 2.33 1.27c-3.34-.36-6.43 0-9.51-.18-11.07-.72-22.15-1.41-33.21-2.34-3.27-.27-6.52-.37-9.79-.35-.51 0-1.22.23-1.38-.49s.58-.81.94-1.19c2.46-2.58 5.48-1.59 8.38-1.36a4 4 0 0 0 2.81-.33c-2.54-.18-4.52-.75-6.61-.58a7.61 7.61 0 0 1-5.48-2c-.28-.23-.62-.51-.49-.9s.54-.44.92-.44m52 37.94c.29.28 0 .6-.46.7-5.27 1.15-10.51 2.44-15.81 3.46-3 .57-6 .69-9 1-7.66.62-15.29 0-22.91-.58-2.15-.17-2.28-.62-1.06-2.46.3-.45.72-.81 1-1.26.77-1.12.78-2.13-.51-2.92-.86-.53-2.33-1.09-2.14-1.93s1.74-.8 2.74-.8c3.39-.07 6.8-.08 10.18.17 5.46.4 10.95-.38 16.38.31 4.31.54 8.59 0 12.88.25a68.48 68.48 0 0 0 8.35.43c1.57-.1 1.36.66.71 1.57-.42.6-1.26 1.06-.35 2m-9.36-5.73c-7.71.13-15.42-.16-23.13 0-5.77.1-11.55-.17-17.32 0-.47 0-.94 0-1.76-.06 1.74-2.59 3.54-4.1 6.62-3.78a27 27 0 0 0 7.46 0c-.34-.65-.92-.44-1.39-.43-2.6 0-5.22.23-7.81.08-1.5-.09-2.53-1.46-3.76-2.27-.58-.38.12-.71.51-.74a17.74 17.74 0 0 1 3.63-.17c5.38.69 10.77.42 16.17.44 6.48 0 13 .57 19.44.62 3.26 0 6.54.37 9.8-.14a3.2 3.2 0 0 1 2 .12c-1.08.94-2 1.76-2.95 2.55-1.11.94-1 1.62.27 2.15l2.68 1.12c.32.14.77.28.65.72s-.58.31-.93.29c-3.39-.18-6.79-.56-10.18-.5m-40-14.24a1.44 1.44 0 0 1-1.3-.88c16.93 1 33.8.25 50.7 2-.46 1.25-1.72 1.34-2.48 2-.33.29-1.12.14-.92.88.13.47.61.69 1.08.85.66.23 1.49 0 2 .75-.64.68-1.49.5-2.22.49-9.59-.1-19.19-.29-28.78-.36-6.26 0-12.51.07-18.77.09-.67 0-1.62.41-1.94-.44s.59-1.23 1.07-1.76a2.8 2.8 0 0 1 1.57-.85c.51-.12 1.44 0 1.35-.79s0-1.93-1.37-2m-2.76-4c1.05-1.37 2.23-2.62 4.26-2.16h.14c-1.33-.43-1.88-2.23-3.29-2.44a.67.67 0 0 1-.4-.52c.05-.46.51-.5.84-.48a47.61 47.61 0 0 1 5.08.34c4.93.79 10 .59 14.85 1.47 3.82.68 7.63.14 11.44.4 4.9.33 9.8.82 14.73.77 1.6 0 3.12.87 4.91.67a3.41 3.41 0 0 1-2.07 2.19c-1.81 1-1.87 1.49-.34 2.94-1 .82-2 .31-2.93.14-5.83-1.07-11.73-.71-17.6-1-6.86-.29-13.72-.07-20.57-.23-2.76-.07-5.56-.32-8.34-.54-1.5-.12-1.31-.82-.71-1.6M381.51 613c-.08 1-.21 2-.22 3.08-.07 4.93-3.43 7-7.43 8.22a98.89 98.89 0 0 1-36.11 4.1c-2.42-.19-4.92.13-7.25-.39-4.54-1-9.18-.94-13.72-1.73a8.43 8.43 0 0 1-7.13-8.43c0-4.77.06-9.56 2-14.11.48-1.17.9-1.16 1.63-.38 2.68 2.86 6.06 3.63 9.86 4 4 .38 7.92 1 11.93 1.1a124.69 124.69 0 0 0 19.79-1.17c3.61-.5 7.23-.82 10.84-1.27 4.45-.54 7.37-3 9.87-6.29.43-.57.67-1.44 1.51-1.32a2.37 2.37 0 0 1 1.64 1.56 29.85 29.85 0 0 1 2.18 7.62c.29 1.77.93 3.55.66 5.41m-3.65-38.31c.28 2.22.39 4.47.6 6.92-.16 2.39.53 5 .28 7.58a13.63 13.63 0 0 1-1.11 4c-1.55 3.7-4.31 6.52-7.11 9.26-1 1-2.58 1.24-4 1.59-4.07 1-8.26 1.09-12.4 1.52-6.39.68-12.79 1.41-19.25 1-4.3-.29-8.56-1.13-12.82-1.25-3.19-.08-5.27-1.52-7.47-3.23a2.26 2.26 0 0 1-1-2.36c.23-1.1-.72-1.75-1-2.65a18.52 18.52 0 0 1-1.08-8.23c.94-7.48 1-15 1.74-22.51a189.78 189.78 0 0 0 1.09-19.64c0-1.14.44-1.28 1.43-1.21 15.43 1 30.82 1 46.07-2.16 1.72-.36 3.52-1 5.37-.46.21.07.48-.08.71-.06 1 .1 1.81-1.51 2.74-.46a7.39 7.39 0 0 1 1 2.68 182.17 182.17 0 0 1 6.22 29.69m-6.68-59.24a2.31 2.31 0 0 1 2.62 1.93 39.26 39.26 0 0 1 1 15.73c-.46 2.87-1.58 5.87-4.77 6.76a38.43 38.43 0 0 1-4.35 1.22c-8 1.24-16 3.1-24.1 3.26a198 198 0 0 1-24.36-.61c-1.32-.13-2.77-.07-4-1a8.47 8.47 0 0 1-3.4-6.66c-.21-3.94-.25-7.9 1.07-11.71.3-.88.38-2.14 1.64-2.11 1.48 0 2.49 1.13 3.54 2.05a.48.48 0 0 1 0 .18c.19 1.82.19 1.82 2.19 1.9a224 224 0 0 0 27.29-.72 146 146 0 0 0 23.65-4 2.18 2.18 0 0 0 .53-.15c.57-.32 1.75-.24 1.45-1.24s-1.21-.45-1.89-.26a164.46 164.46 0 0 1-35.69 5.4 4 4 0 0 1-2.33-.27c.42-1 1.38-.85 2.16-1 8.41-1.85 17-2.83 25.43-4.43 3-.58 6-1.25 9.07-1.86a2.51 2.51 0 0 0 2.24-1.63c-3.53-.41-6.62.92-9.81 1.51-6.54 1.21-12.88 3.31-19.62 3.7-3.84.22-7.61 1.5-11.42 2.3a.32.32 0 0 0-.17.06c-2.68 2.5-5.77.86-8.7.84-.7 0-1.39-.12-2.13-.19 2-3.12-2.08-.45-1.39-2.29a16.79 16.79 0 0 1 5.93-1.69c3.94-.43 7.58-2.33 11.51-2.64 5.39-.43 10.46-2.17 15.55-3.63 4.85-1.4 9.94-2.28 14.4-4.92a9.23 9.23 0 0 1 3.49-1.22c.21.88-.37 1.25-.87 1.64-.81.64-1.63 1.26-2.45 1.89a1.08 1.08 0 0 0-.54 1.08c.11.58.61.54 1 .57a5.77 5.77 0 0 1 4.05 1.79c.58.62 1.36.38 2.08.37M313 489.62c.68-.5 1.4-.95 2.1-1.41s1.41-.7 1.28-1.37a2.13 2.13 0 0 0-1.8-1.59c-.37-.07-.89.08-1.1-.64 2-1 4.31-1.05 6.46-1.31a110.28 110.28 0 0 0 15.6-3.27c1.38-.38 2.94-.17 4.27-.81 4.6-2.2 9.64-2.62 14.52-3.67 2.19-.46 4.45-.49 6.57-1.28.59-.22 2.77 1.9 2.69 2.53-.06.47-.47.49-.83.51-5 .23-9.39 2.43-14 3.88a124.66 124.66 0 0 1-12.43 3.37c-4.29.87-8.34 2.57-12.54 3.74-3.38.94-6.95 1-10.28 2.2a.8.8 0 0 1-.68-.11c-.26-.28 0-.6.19-.77m-.43-6.82c.38-1.56 1.33-2.18 3-2.2 5-.06 9.87-1.05 14.8-1.56a3 3 0 0 1 2.38.27c-6.71 1.22-13.35 2.83-20.21 3.49m51.52 4.75a9.87 9.87 0 0 1 4.13 1.8c.34.26.78.48.72.94s-.54.44-.89.5c-5.12.95-9.94 3-15 4.19-7.24 1.76-14.4 3.85-21.69 5.33-5.68 1.16-11.21 3.11-17 3.39a24.86 24.86 0 0 1 10.11-5.49c4.62-1.43 9-3.51 13.67-4.76 6.59-1.77 12.64-5.19 19.5-6.13a36 36 0 0 0 4.88-1.39 3.77 3.77 0 0 0 1.67-1.36.72.72 0 0 0 .09-1 .68.68 0 0 0-.84-.14 1.65 1.65 0 0 1-2-.24.41.41 0 0 0-.71.24c-.19 1.77-1.86 1.69-2.88 2-4.58 1.54-9.21 2.87-13.74 4.58-6.1 2.3-12.24 4.53-18.44 6.56-3.39 1.11-6.74 2.34-10.11 3.53-.61.21-1.43.65-1.88.09-.62-.76.38-1.29.72-1.84.66-1.08 2.13-1.11 3-2 .44-.46 1.33-.75 1.09-1.49a1.87 1.87 0 0 0-1.79-1.32 1.16 1.16 0 0 1-.18 0c-.93-.15-2.14-.51-2.19-1.31-.06-1 1.28-.77 2-1 8.28-2.31 16.56-4.64 24.87-6.84 2.21-.58 4.46-1.13 6.7-1.53 4-.72 7.74-2.36 11.6-3.57a10.2 10.2 0 0 1 2.93-.3c-1.37 1.78-1.19 2.44.7 2.95a22.94 22.94 0 0 0 2.88.4c.28 0 .64-.07.8.27s-.15.67-.42.91a12.2 12.2 0 0 1-2.68 2.17 1 1 0 0 0-.66 1.17c.08.56.59.59 1 .67m-46.54 20.16c-1.34-.2-2.05-1.2-3.25-2.17 5.43-1.34 10.52-2.44 15.51-3.87 3.41-1 7-.89 10.35-2a117.31 117.31 0 0 1 17-3.95 22 22 0 0 0 6.52-2.17 19 19 0 0 1 3-.91 4.3 4.3 0 0 1-2.08 2.16c-1.16.65-.62 1.42-.29 2.16.49 1.08 1 .36 1.54 0 .87-.61 1.61 0 2.38.3a.61.61 0 0 1 .41.72c-.08.38-.43.32-.72.38-6 1-11.65 3.17-17.44 4.86-5.63 1.64-11.34 3-17 4.46l-17.4 4.51c-.44.11-1 .48-1.28-.12s.25-.85.64-1.15a5.16 5.16 0 0 1 2.06-1.11c.5-.11 1.2-.24 1.22-.91a1.24 1.24 0 0 0-1.16-1.21m52.17-2.58a112.89 112.89 0 0 1-14.9 6c-7.24 2.38-14.68 4.05-22.08 5.9-5.52 1.38-11.2 2.11-16.62 3.94-.32.1-.72.4-1 0s0-.68.19-1a4.19 4.19 0 0 1 2.91-2.47c.51-.1 1.09-.2 1.13-1-.62-.23-.86.63-1.57.47.21-1.41 0-2.62-1.79-3.05 16.86-5.22 34.14-8.54 50.87-13.93.07.14.15.27.22.4-.54.76-1.1 1.52-1.62 2.3a1.74 1.74 0 0 0 0 1.9c.43.69.92 0 1.38-.19 1.13-.56 1.89.4 2.84.72m9.18-54.33c-.37 3.36.42 6.82-.25 10.28s-3 5.62-5.93 7.32a20.65 20.65 0 0 1-8.81 2.4c-.35 0-.83.06-1 .28-2.2 2.47-5.43 2.28-8.22 3.13-4.31 1.32-8.87 1.32-13.32 1.84-8.07 1-16.16 1.78-24.22 2.77a187.9 187.9 0 0 1-34.45.65c-6.77-.4-13.55-.68-20.33-1a90.5 90.5 0 0 1-13.85-1.63c-3.84-.77-7.78-1.13-11.68-1.6a37.45 37.45 0 0 1-8.67-1.66c-2.17-.82-4.56-.42-6.68-1.56-3.77-2-6.52-4.81-7-9.2-.42-3.73-.51-7.5-.76-11.25-.08-1.09.3-1.35 1.4-1.1 7.15 1.64 14.27 3.48 21.62 4 5.38.37 10.78.55 16.17.83 6.18.33 12.36 1 18.53.94 8.91-.15 17.84-.12 26.73-1.21 6.45-.79 13-1.09 19.41-1.86 9.1-1.08 18.19-2.24 27.23-3.66 5.57-.88 11-2.6 16.57-3.38s10.71-3 16.14-4.26c.73-.16 1.09-.35 1.12.63.06 2.73.19 5.47.29 8.29m10.35-19.3c.69 1.06.73 2.44 1.73 3.36a.53.53 0 0 1-.21.9 40.54 40.54 0 0 0-6.09 2.63 4.31 4.31 0 0 1-1.28 0c-1.37.29-3.34 0-4.39 2-.24.43-.73.45-1.13.49-5 .45-9.56 2.72-14.44 3.7-7.67 1.55-15.37 3-23.11 4.16-5.45.86-10.91 1.72-16.39 2.44-4 .52-8.1.86-12.15 1.2-8.29.69-16.58 1.6-24.88 1.92-9.71.37-19.44.42-29.15-.16-5.58-.33-11.16-.57-16.74-.79-4.52-.17-8.87-1.38-13.31-2.06-2.2-.34-4.56.06-6.6-1-5.49-2.93-11.64-4.37-17-7.67-.91-.56-1.61-1.2-1.1-2.34a35.55 35.55 0 0 0 2.23-9.34c.39-2.62 1.5-5 2.12-7.51 1.33-5.41 3-10.76 3.7-16.29.86-6.56 2.52-13 3.55-19.49.9-5.73 1.76-11.47 2.87-17.16.27-1.38.54-1.93 2-1 4.11 2.51 8.93 2.92 13.41 4.36 8.11 2.62 16.59 2.74 25 3.59a223.14 223.14 0 0 0 31.66.73 182 182 0 0 0 25.71-2.71c5.84-1.08 11.73-1.95 17.55-3.17 4.5-.95 8.93-2.27 13.37-3.48a105.3 105.3 0 0 0 15-4.9c1.84-.81 3.88-.94 5.63-1.92 1.53-.86 2.16-.21 2.44 1.27.63 3.34 1.36 6.67 1.92 10a121.13 121.13 0 0 0 4.36 16.53c1.73 5.48 4.25 10.68 5.54 16.31a.85.85 0 0 0 .06.17 34 34 0 0 1 4.16 15.31c.19 3.88 2 6.93 4 10m-61-71.89c.41 3.43.28 6.93 1.22 10.29.35 1.26 0 1.93-1.37 2.12-5.93.82-11.9 1.47-17.77 2.61-4.9.94-9.86 1.1-14.77 1.78-4.22.59-8.5.1-12.75.31-7.46.38-14.87-.75-22.31-1-1.72-.05-2.32-.88-2.46-2.43-.47-5-.73-9.93-.86-14.9-.06-2.6.42-3 3-2.71 10.28 1.09 20.51 0 30.76-.65 8.41-.56 16.7-2.14 25.07-3 3.12-.32 6.18-1.19 9.26-1.81 1.35-.27 2.28-.14 2.56 1.59.42 2.6 0 5.21.41 7.79m58.59 7.21c-.86 6.74-1.94 13.47-2.42 20.23-.44 6.1-1.34 12.2-.8 18.34a2.12 2.12 0 0 1-.37 1.73c-.92-2.57-1.91-4.81-2.52-7.15a52.63 52.63 0 0 0-3.16-8.48 29 29 0 0 1-1.9-5.85c-.78-3.54-1.84-7-2.77-10.53-.45-1.7-.86-3.41-1.31-5.11-.22-.85 0-1.34.95-1.26 2.11.17 4.21-.52 6.34-.09a2.34 2.34 0 0 0 1.23-.22c2-.73 3.91-1.5 5.86-2.27.68-.27 1-.25.87.66m-23.61-56.53c2.61.33 4.79 1.75 7 2.95a24.18 24.18 0 0 1 5.79 4.29 53.58 53.58 0 0 1 7.05 9.57c3.51 5.75 5.55 12.08 7.28 18.46a75.19 75.19 0 0 1 2.23 13.24c.23 2.64-1.82 3.26-3.37 4.18a29.54 29.54 0 0 1-13.67 3.92c-1.42-.05-2.83.54-3.93-.09-1.28-.73-.38-2.35-.78-3.51-.14-.39-.17-.84-.34-1.22-.52-1.14-.05-1.77 1-1.92.94-.13 1.3-.55 1.12-1.45-.5-2.68-.89-5.37-1.55-8-1.16-4.69-1.68-9.53-3.09-14.17-2.52-8.26-3.11-16.94-5.71-25.18-.32-1 0-1.16.92-1m-25.51-78.44c1.8-.48 3.58-1.17 5.52-.94a2.72 2.72 0 0 0 2-.54 4.17 4.17 0 0 1 5.07.66c2.15 2.45 3.25 5.45 4.57 8.37 1.8 4 1.77 8.24 2.48 12.41 0 1-.09 2.05-.1 3.08a5.66 5.66 0 0 1-3.83 5.6 30.4 30.4 0 0 0-5.37 2.95c-.89.59-1.51.73-1.79-.74a139.63 139.63 0 0 0-4.37-16.28c-1.27-4-3.85-7.22-5.4-11-.61-1.49-.34-3.14 1.18-3.55m-98.54 52.2a61.29 61.29 0 0 1 .47-16.57 38 38 0 0 1 2.19-7.83 66.51 66.51 0 0 0 2.24-7.2c.52-1.76 1.54-3.28 2.07-5.08 1.18-4 3.06-7.75 4.51-11.66 1.32-3.55 3.46-6.64 5.34-9.86.49-.83.8-1.73 1.33-2.54a32.57 32.57 0 0 1 10.86-10.07c3.28-2 6.66-4 10.49-4.86a39.21 39.21 0 0 1 8.5-.66c2.56.16 5.5-.51 8.36.27 2.7.74 5.51 1 7.9 2.88 1.24 1 3.09 1.28 4.66 1.83 3.09 1.08 5.09 3.67 7.85 5.17a12.45 12.45 0 0 0 2 1.22 3.88 3.88 0 0 1 2.56 2.15 2.48 2.48 0 0 0 1 1.07 13.73 13.73 0 0 1 3.73 3.6 23.56 23.56 0 0 0 4.15 3.76c2.73 2.18 4.42 5.09 6.27 7.89a51.19 51.19 0 0 1 7.36 17.64c.83 3.89 1.68 7.78 2.44 11.7s.21 7.87 1.09 11.72c.17.74 0 1.22-1 1.58-3.44 1.32-6.87 2.66-10.39 3.8a20 20 0 0 1-2.81.72c-5.87.95-11.52 2.83-17.32 4.1-5 1.08-10 1.11-15 1.53-3.49.29-7 .23-10.46 1.05a16.64 16.64 0 0 1-3.8.33c-3.15 0-6.22.8-9.38.89-5.2.16-10.34 1.35-15.58 1.19a175.72 175.72 0 0 1-19.05-1.23c-1.61-.22-2.44-.93-2.45-2.53 0-2 .12-4-.05-6m-10.57 3.31a4.11 4.11 0 0 1 3.7-3.15c4-.46 3.93-.58 3.72 3.38a16.77 16.77 0 0 0 .48 4.89 4.57 4.57 0 0 0 3.12 3c2.77 1.08 5.74 1.05 8.67 1.2 4.43.24 8.87-.16 13.29.26a26.89 26.89 0 0 0 6.14-.34c6.68-.89 13.41-1.12 20.12-1.7 3.81-.33 7.6-.92 11.42-1.09a90.9 90.9 0 0 0 16.55-2.15c5.77-1.35 11.63-2.25 17.34-3.9 4.34-1.26 8.67-2.55 12.9-4.09 3.46-1.26 3.84-2.27 3.21-6-.32-1.93.18-2.47 2.17-2.36 2.6.16 3.57 1.06 3.88 3.66.26 2.29.51 4.59.75 6.75.35 1.62-.19 3-.43 4.45a1.46 1.46 0 0 1-1.14 1.29c-5.88 1-11.18 3.83-16.87 5.42-5.06 1.41-9.88 3.54-15 4.76-1.76.42-3.57.61-5.37.87-6.6.94-13 3-19.66 3.66-11.17 1.18-22.35 2.15-33.59 2.32-4.78.07-9.58.39-14.34-.15a36.91 36.91 0 0 1-8.55-1.62 43.29 43.29 0 0 0-4.61-.94c-2.41-.61-4.23-2.33-6.57-3a2.47 2.47 0 0 1-1.51-1.93c-1-4.49-1.44-9 .18-13.44m-1.94 25.24c.46-1.83 1.73-3.3 2.18-5.15.19-.79.88-.95 1.59-.45 5.55 3.84 12.06 4.52 18.44 5.13 12.69 1.2 25.37 0 38-.91 9.32-.69 18.5-2.46 27.67-4.19a120.12 120.12 0 0 0 18.3-4.6c4.87-1.74 9.91-3 14.65-5.15 1.59-.71 3.4-.81 4.86-1.9.71-.53 1.34 0 1.89.59a12.7 12.7 0 0 1 2.61 4.74 72.54 72.54 0 0 1 3.7 10.78c1.61 7.21 3.48 14.37 4.93 21.62 1.32 6.61 2.95 13.14 4.55 19.68a45.48 45.48 0 0 1 .56 4.69 1.17 1.17 0 0 1-.79 1.42c-3.53 1.57-7.19 2.8-10.77 4.18a205.47 205.47 0 0 1-20.18 6.13c-2.1.57-4.21 1.11-6.3 1.75-1 .3-1.17 0-1.36-1a142.52 142.52 0 0 1-2-19c-.2-3.65-.21-3.55-3.65-2.52a120.26 120.26 0 0 1-18.92 3.59c-7.23 1-14.51 1.24-21.78 1.62-3.49.18-7 .58-10.52.08a11.81 11.81 0 0 0-2.88.24c-3.83.43-7.59-.42-11.4-.52-1.16 0-2.27.17-3.41.2s-1.11 1-1.06 1.88c.14 2.91.23 5.82.34 8.73.26 3.27 0 6.57.6 9.82.23 1.25-.35 1.21-1.3 1.2a79.13 79.13 0 0 1-19.92-2.9c-3.54-1-7.22-1.63-10.7-2.79-2.27-.76-4.7-1.53-6.61-3.19a3.48 3.48 0 0 0-.89-.6c-2.76-1.16-3-1.33-2.4-4.07 1-4.9 2.36-9.74 3.27-14.67.83-4.54 2.72-8.8 3.33-13.36 1-7.26 3.62-14.07 5.38-21.12m-32.17 62.26c-.05-.85-.07-1.7-.1-2.55a86.91 86.91 0 0 1 1.53-16.79c.52-2.7 1.09-5.43 1.47-8.18s1.7-5.25 2.9-7.77a63.4 63.4 0 0 1 3.84-6.7c1.48-2.35 3.65-4 5.44-6a31.65 31.65 0 0 1 11.65-8.15c.55-.23 1.13-.82 1.68-.45s0 1.14-.1 1.66c-1.7 6.93-3.69 13.8-5.11 20.79-1.06 5.22-2.76 10.28-3.46 15.56-.33 2.52-.93 5-1.41 7.45a3.22 3.22 0 0 0 1.87 3.6 2.24 2.24 0 0 1 1.3 2.79c-.42 2.44-.77 4.9-1.11 7.36-.08.6-.19 1.05-.88 1.17-5.33.9-10.65 1.48-16 .25-3.31-.76-3.32-.73-3.5-4.05m4.37 9c-.72-2.58-.58-2.59 2-2.64 1.94 0 3.88-.14 5.82-.21v-.07c2.18-.08 4.37-.08 6.54-.27 1.17-.11 1.31.21 1.1 1.27-.88 4.51-1.79 9-2.49 13.56-1 6.59-2.41 13.09-3.73 19.61-.47 2.32-1.1 4.58-1.59 6.88-.1.44-.22 1.12-.8 1.06s-.51-.74-.58-1.2c-1.42-8.85-2.79-17.7-4.26-26.54-.64-3.82-1-7.69-2-11.45" transform="translate(-188.21 -163.37)"/><path class="cls-2" d="M237.49 496.57c-.35 0-.7 0-1.05-.05a2 2 0 0 0 1.05.05m90.33-98.07c-.19-1.19-.81-1.37-1.79-1a106 106 0 0 1-15.73 3.7 104.58 104.58 0 0 1-15.4 1.4c-.62 0-.93-.11-.93-.75a21.29 21.29 0 0 0-1.49-7.07c-.37-1.1-.66-1.47-1.66-1.13-5.23 1.79-10.7 1.22-15.42 1.62-4.29 0-7.92.39-11.58.26-2.24-.08-3.08.82-3.07 3.07.05 7-.21 14 .31 21 .5 6.7.71 13.42 1.27 20.13.11 1.42.72 2.13 2 2.28a81 81 0 0 0 8.52.61c6.22.08 12.25-1.38 18.36-2.18a18.86 18.86 0 0 1 4.17-.25c1.13.11 1.93-.58 1.65-1.65a82.66 82.66 0 0 1-1.76-11.06c-.15-1.17.25-1.6 1.43-1.72 3.18-.33 6.35-.78 9.53-1.19 4.15-.53 8.18-1.68 12.33-2.31 3.49-.54 7.08-1.09 10.26-2.94a1.72 1.72 0 0 0 1-1.86c-.2-2.54-.35-5.09-.52-7.63-.24-3.81-.89-7.57-1.49-11.34m-34.33 40.36a31.22 31.22 0 0 1-6.77 1.34c-6.69.68-13.4 1.48-20.16 1-2.15-.17-2.65-.78-3.09-3.28a110.72 110.72 0 0 1-1.31-15.22c0-.91-.07-1.82-.1-2.73h.09c-.14-3.52-.4-7-.36-10.55s.38-7 .62-10.48c.07-1.12.64-1.47 1.86-1.67 7.91-1.34 16-.45 23.89-1.72 1.56-.26 2.85 1 3.43 3s.24 4.35.45 6.52q.82 8.85 1.44 17.74c.34 4.65 1.38 9.23 1.55 13.9a1.85 1.85 0 0 1-1.54 2.19m33.06-20.26a93.1 93.1 0 0 1-16.91 4.19 116.15 116.15 0 0 1-13.05.93c-1.18 0-1.62-.22-1.64-1.44 0-2.79-.19-5.58-.29-8.37h-.1c-.1-2.73-.15-5.47-.34-8.19-.07-1 .18-1.24 1.13-1.33a233.56 233.56 0 0 0 24.94-3.83c1.6-.33 3.23-.54 4.83-.88 1-.21 1.21.15 1.41 1.07a61.54 61.54 0 0 1 .92 9.77c.11 1.88.34 3.74.59 5.6a2 2 0 0 1-1.49 2.48m41.65-12.77c-1.07-4.66-2.37-9.27-3.06-14-.1-.68-.37-1.49-1.16-1.37s-.39 1-.37 1.51c.14 3.78 1.37 7.36 2.13 11 1.07 5.2 3.24 10.14 3.83 15.47.07.67.39 1 1.06.93s1-.61.88-1.46c-.07-.27-.15-.69-.28-1.09a110.51 110.51 0 0 1-3-11m-7.79-4.08c-.63-2.64-1-5.35-1.56-8-.14-.71-.18-1.65-1.21-1.64s-.72.81-.61 1.35c.86 4.26 1.75 8.51 2.84 12.73a109 109 0 0 1 2.53 10.93c.1.7.32 1.47 1.21 1.22s.76-1 .55-1.77c-1.29-4.92-2.58-9.85-3.75-14.8m-118.64-5.21c-5.06-.54-10.13-1-15-2.61a13.92 13.92 0 0 0-4.55-1.15c-.5 0-1 0-1.06.67a.87.87 0 0 0 .78 1.05c3.11.28 5.85 2 8.92 2.33 3.79.43 7.63.46 11.23 2a1.27 1.27 0 0 0 1.8-.78c0-.85-.94-1.38-2.11-1.51m5.8-8.58h-2.73a79.43 79.43 0 0 1-19.44-4.22c-.57-.19-1.14-.36-1.45.2s.29.86.72 1c4.22 1.22 8.2 3.16 12.7 3.57 3.34.3 6.79.21 10 1.41.84.32 1-.3 1.18-.8 0-.8-.36-1.09-1-1.1m-9.83-52.86c5.43-.18 9.18-3.26 9-7.42-.16-5-4.31-9.25-8.89-9.15-3.31.08-8 5.37-7.69 8.95.32 4.15 2.9 7.82 7.54 7.62m.34-14.54c2.82-.23 6.29 2.46 6.71 4.81a6.67 6.67 0 0 1-6.39 8.2c-3.73.17-5.62-2.29-6.06-6-.21-3.24 2.67-6.73 5.74-7M334 337.75a78.1 78.1 0 0 0 2.57 13.92c.11.45.14 1.16.75 1s.76-.74.69-1.31c-.56-4.07-1.32-8.1-1.79-12.19-.61-5.21-2.2-10.3-2.38-15.61 0-1-.07-2.06-.11-3.09a.85.85 0 0 0-.89-.94c-.68 0-.76.49-.74 1 .14 2.67.15 5.35.46 8 .36 3.07 1.26 6.09 1.44 9.17m-83.77-61.95c2.84.21 5.7.41 8.51.88 7 1.17 14 .83 21 .9 4.44 0 8.88-1 13.34-1.39 7.26-.67 14.38-2.19 21.55-3.38 6.15-1 12.12-2.95 18.13-4.63a2 2 0 0 0 1.64-1.93 11.9 11.9 0 0 0-.43-4.68c-1.26-3.47-1.91-7.1-3.23-10.57-1.55-4-2.85-8.16-4.55-12.17-1.29-3.05-2.81-3.55-5.9-3.6-8.9-.14-17.8-.2-26.69.37-4.59.46-9.17 1.09-13.77 1.32a71.7 71.7 0 0 0-14.93 2.74 98.69 98.69 0 0 1-10 2.63 1.48 1.48 0 0 0-1.27 1.16 92.34 92.34 0 0 0-2.35 10.26c-.42 3.28-.91 6.57-1.53 9.82a73.57 73.57 0 0 0-1.44 10.24c-.07 1.41.5 1.93 1.88 2m.94-12.35c.66-3.82.56-7.78 2-11.46.93-2.42 1.37-5 2.13-7.44a2.23 2.23 0 0 1 1.58-1.55 32.49 32.49 0 0 1 6.59-1.26A65.37 65.37 0 0 0 270 240c7.34-1.84 14.83-2.45 22.31-3.16 2.12-.21 4.25-.18 6.37-.26a166.44 166.44 0 0 1 19.47-.22c1.57 0 3.13.36 4.7.52.64.07.89.54 1.21 1 1.05 1.45 1.44 3.19 2.18 4.78 2.48 5.3 3.79 11 5.4 16.54a32.54 32.54 0 0 1 1.05 5.84 1.78 1.78 0 0 1-1.18 2 20.67 20.67 0 0 1-5.35 1.68c-7.6 1.75-15.13 3.85-22.87 4.84-6.81.87-13.63 1.67-20.47 2.14a140 140 0 0 1-21.28-.2 57.66 57.66 0 0 1-10.21-1.4c-1.11-.29-1.22-.92-1.28-1.84-.18-3 .66-5.9 1.17-8.82m105.11 252.79a10.73 10.73 0 0 0 5.38-1.05 9.74 9.74 0 0 0-5.38 1.05m-88.06 6.38c3.23.42 3.23.42 4.47-.27-1.67.33-3.08-.26-4.47.27m76.27-285.35a37.78 37.78 0 0 1 5.15 15.7c.08 1.27.26 2.53.39 3.8.05.43.13.93.65.94a.9.9 0 0 0 .92-.94 8.81 8.81 0 0 0-.07-1.45c-.23-1.8-.48-3.6-.73-5.4h.13c-.47-2.11-.84-4.24-1.43-6.32-.89-3.16-3.34-5.59-4.23-8.78a1 1 0 0 0-1.59-.69c-.78.39-.28.94-.1 1.39a16.56 16.56 0 0 0 .91 1.78M324.47 515a9.88 9.88 0 0 0-4.58 1.78 9.62 9.62 0 0 0 4.58-1.78m31.53-8.51c-1.53.2-2.83.07-3.91 1 1.2-.27 2.57 0 3.91-1m-88.71-15.79l-9.42-.71v.51a31.65 31.65 0 0 0 9.44.2m4.58 23.23c1.69 1 3.41.42 5.13.34-1.69-.69-3.41-.43-5.13-.34" transform="translate(-188.21 -163.37)"/><path class="cls-2" d="M285.25 412.64c-2.15.13-3.59 1.89-3.47 4.29.08 1.86 1.4 2.89 3.53 2.77a4 4 0 0 0 3.61-3.77 3.72 3.72 0 0 0-3.67-3.29m-.24 5.21c-.9 0-1.91.08-2.11-1.15-.16-1 1.16-2.18 2.39-2.25a1.44 1.44 0 0 1 1.76 1.35 1.94 1.94 0 0 1-2 2.05m-46.8-87.27c2.31-.25 3.51-1.4 3.52-3.38 0-2.52-1.54-3.71-4.54-3.46-1 .21-2.94-.75-2.32 1.74 0 .16-.41.42-.56.67a2.33 2.33 0 0 0-.37 1.71c.38 1.9 2 3 4.27 2.72m-.1-5.25c.9-.11 1.78.24 1.79 1.29a2.61 2.61 0 0 1-1.89 2.52c-1-.24-2-.53-2-1.75a2.1 2.1 0 0 1 2.11-2.06" transform="translate(-188.21 -163.37)"/></svg>