<svg id="Layer_1" data-name="Layer 1" xmlns="http://www.w3.org/2000/svg" viewBox="0 0 339.61 339.8"><defs><style>.cls-1{fill:#fff;}.cls-2{fill:#010101;}</style></defs><path class="cls-1" d="M389.49,387.62c0,1.73.88,1.87,2,1a6.89,6.89,0,0,1,3.64-1.17c2.79-.29,5.58-.68,8.39-.91,6.07-.5,10.56,2.83,14.24,6.9,3,3.33,5,7.54,6.83,11.72,1.21,2.78,2.89,5.39,3.82,8.26,1.23,3.75,3.32,7,5.29,10.31.37.61.69.68,1.27.34,1.57-.92,3.15-1.84,4.75-2.7.85-.45,1-.79.51-1.75-1.55-3.2-2.8-6.54-4.25-9.8-3.16-7.1-6.86-13.93-10.3-20.87a16.47,16.47,0,0,0-15.18-9.45c-5.8,0-11.68-.49-17.5.82-3.68.83-3.76.49-3.53,4.28,0,1,.06,2,0,3" transform="translate(-125.16 -253.66)"/><path class="cls-1" d="M309.2,566.65c-10,3.06-20.22,2.78-30.43,1.36a12.75,12.75,0,0,1-8.35-4.92c-1.13-1.47-2.13-1.37-3.48-.87a72.68,72.68,0,0,1-8.17,3c-3.87.93-6.7,3.39-9.88,5.66a19.06,19.06,0,0,0,11.33,4.76c6.77.44,13.55,1,20.34,1.29,3,.12,5.9-.27,8.88-.11a100.16,100.16,0,0,0,14.17-.32c3.32-.3,6.64-1,9.9-1.13a66.75,66.75,0,0,0,18.5-3.4,26,26,0,0,0,8.23-4.37c1.42-1.18,1.28-2.39-.18-3a90.79,90.79,0,0,0-14.53-4.77c-2-.52-4.51-1-5.74,1.94a4.26,4.26,0,0,1-2.65,2.07c-2.66.92-5.25,2.05-7.94,2.87" transform="translate(-125.16 -253.66)"/><path class="cls-1" d="M308,478.37l-16.73.21v.1c-5.8.07-11.61.13-17.41.22-2,0-3.93,2.34-3.95,4.52,0,2,1.51,3.19,3.91,3.19a71.81,71.81,0,0,1,10,.75,75.16,75.16,0,0,0,15.51.41c4.23-.29,8.43-1,12.65-1.53,1.62-.19,2.48-1.19,1.92-2.74a3.68,3.68,0,0,0-2.52-2.73c-.72-.17-1.82-.27-1.73-1.18.15-1.63-.81-1.23-1.68-1.22" transform="translate(-125.16 -253.66)"/><path class="cls-1" d="M326.86,575.12l-11.21,2.12c-2.36.44-3.22,2.39-4,4.22s.14,3.42,1.81,4.58c3.34,2.33,6.94,1.68,10.35.8,5.32-1.38,7.22-4.52,6.33-9.17-.36-1.86-1.08-3-3.24-2.55" transform="translate(-125.16 -253.66)"/><path class="cls-1" d="M267.91,578.31a58.76,58.76,0,0,1-10.4-1.35,2.23,2.23,0,0,0-2,.22,5.19,5.19,0,0,0,.06,8.24,11.83,11.83,0,0,0,6,1.76c3.31-.58,6.75-.39,8.62-4.11,1.31-2.61.65-4.57-2.27-4.76" transform="translate(-125.16 -253.66)"/><path class="cls-1" d="M298.58,581.24c-3.81.63-7.68.51-11.51.84-.43,0-1-.16-1.19.39s.21.82.47,1.2c1.55,2.32,3.76,3,6.39,2.63a32.37,32.37,0,0,0,3.42-.24,4.41,4.41,0,0,0,3.69-3.33c.34-1.15-.21-1.66-1.27-1.49" transform="translate(-125.16 -253.66)"/><path class="cls-1" d="M272,532.26a7.07,7.07,0,0,0,4.3,3.17c6.75,1.57,13.6,1.23,20.44,1.14,3.75.17,7.47-.44,11.21-.48a13.07,13.07,0,0,0,5.91-1.58,2.79,2.79,0,0,0,.52-4.77c-2-1.39-4.2-2.77-6.69-2.63-10.23.58-20.46.22-30.69.25a6.5,6.5,0,0,0-4,1.53c-.94.79-2,2-1,3.37" transform="translate(-125.16 -253.66)"/><path class="cls-1" d="M271.89,542.39a5.4,5.4,0,0,0,4.58,2.12,11.43,11.43,0,0,1,3.18.29,68.1,68.1,0,0,0,18.57,1.3c3.65-.21,7.31-.07,10.95-.64a9.9,9.9,0,0,0,5.06-1.89,3.56,3.56,0,0,0,1.2-4.33c-.6-1.25-2.13-1.57-3.6-1.4a133.24,133.24,0,0,1-15.08.89c-6.32,0-12.65.31-18.95-.51-1.27-.16-2.46-.75-3.8-.68a3.45,3.45,0,0,0-2.9,2c-.59,1,0,2,.79,2.89" transform="translate(-125.16 -253.66)"/><path class="cls-1" d="M278.61,524.94c9.16.07,18.3,1,27.48.09,1.63-.17,3.31-.77,5-.36a3.34,3.34,0,0,0,4.31-3.27c0-1.5-1.28-2.72-3.55-3.36-3.26-.93-6.53-.08-9.79,0-8.17.08-16.34.41-24.51-.14a5.77,5.77,0,0,0-5.4,3.81,1.63,1.63,0,0,0,.59,1.8c1.74,1.59,3.73,1.45,5.92,1.47" transform="translate(-125.16 -253.66)"/><path class="cls-1" d="M379.55,397.2c-.16,3.87-.14,3.88,3.18,2.28.76-.36,1.55-.68,2.27-1.11a3.5,3.5,0,0,0,1.91-2.44,47,47,0,0,0,.42-10.19c-.08-3.74-.48-8.54-1-13.32a2.77,2.77,0,0,0-1.31-2.51c-1.69-.89-3.36-1.82-5-2.73-1.09-.59-1.75-.48-1.71,1,.1,3,.09,6,.27,8.94.4,6.71,1.25,13.38,1,20.12" transform="translate(-125.16 -253.66)"/><path class="cls-1" d="M433.58,427.18a113.46,113.46,0,0,0-13.12,8.15c-1.89,1.34-2,3.22-.71,5.18,1,1.49,2.19,2.83,2.39,4.78a4.19,4.19,0,0,0,1.61,2.44l.56-.33c3.5-2.1,7-4.17,10.51-6.31,4.53-2.77,9-5.7,13.57-8.35,1.9-1.1,3.53-2.58,5.48-3.58a.75.75,0,0,0,.43-.94c-.91-3.55-1.84-7.09-2.75-10.63-.2-.78-.62-.74-1.16-.34-3.79,2.8-8.37,4.25-12.11,7.18a29.65,29.65,0,0,1-4.7,2.75" transform="translate(-125.16 -253.66)"/><path class="cls-1" d="M426.34,454.18c.86,1.52.67,3.92,4,1.73a87.38,87.38,0,0,1,12.58-6.68c4.81-2.17,8.44-6.45,13.84-7.43.66-.12.5-.71.37-1.11-1-3.16-1.63-6.41-2.34-9.8L424.13,450c.65,1.22,1.39,2.72,2.21,4.17" transform="translate(-125.16 -253.66)"/><path class="cls-1" d="M456.59,443c-3.85,2.71-8,4.85-12.09,7.22-4.59,2.69-9.12,5.51-13.87,7.9-1.9.95-1.84,1.91-1.17,3.32a53.47,53.47,0,0,0,3.6,5.81c.81,1.27,1.43,1.07,2.28.26,1.58-1.5,3.65-2.19,5.46-3.29,5.77-3.5,11.67-6.8,17.47-10.24.62-.37,1.54-.88,1.19-2a36.67,36.67,0,0,1-1.77-8.48c0-.67-.46-.94-1.1-.5" transform="translate(-125.16 -253.66)"/><path class="cls-1" d="M280,554.47c6.6,1.07,13.29,1.92,20.46,1.34,4.32.79,8.78-.71,13.31-1.7,1.84-.4,2.59-1.78,2.93-3.42s-1.19-2-2.26-2.68a6.18,6.18,0,0,0-4-.54c-9,.91-17.94,1.47-27,.25-3-.39-5.84-1.89-9-.94-1.16.35-2.47.34-2.85,1.86s.53,2.27,1.32,3.22c1.84,2.2,4.72,2.23,7,2.61" transform="translate(-125.16 -253.66)"/><path class="cls-1" d="M290.35,265.38c1.34-.07,3.43-3,3.35-4.7-.15-3.36-1.43-5-3.74-4.89a5,5,0,0,0-4.39,5.14c.17,1.71,3.2,4.53,4.78,4.45" transform="translate(-125.16 -253.66)"/><path class="cls-1" d="M279.54,256.18a2.79,2.79,0,0,0-2.83,2.18,13.52,13.52,0,0,0-.94,5,5,5,0,0,0,.15,2.58c.6,1.53,3.14,2.18,3.77.78,1.16-2.57,3.25-5,2.2-8.23-.42-1.3-.93-2.31-2.35-2.33" transform="translate(-125.16 -253.66)"/><path class="cls-1" d="M133.94,451.49a19,19,0,0,1,4.23,1.46c2.5.93,4.67,2.55,7.27,3.26a50.18,50.18,0,0,1,6.05,2.07c1.75.71,3.39,1.68,5.11,2.49.61.29,1.42.62,1.62-.46.51-2.61.93-5.24,1.39-7.85.5-1.22-.51-1.23-1.18-1.48q-7.6-2.79-15.21-5.55c-3-1.09-6.06-2.05-9-3.22-1.32-.52-1.66-.08-1.7,1.1-.06,1.91,0,3.83-.2,5.73-.15,1.41-.12,2.23,1.66,2.45" transform="translate(-125.16 -253.66)"/><path class="cls-1" d="M132.54,440.63a3.2,3.2,0,0,1,3.07-.11c2.86,1.39,6,1.84,8.9,3.37,1.58.84,3.23,2,4.94,2.24a33.51,33.51,0,0,1,9.07,2.91c.77.36,1.83.78,2.17-.68.69-3,1.32-5.94,2.12-8.87.34-1.27-.07-1.55-1.22-1.72a26,26,0,0,1-8.45-2.69c-5.41-2.94-11.47-4-17-6.49-1.6-.72-2.57.23-2.15,1.93.21.82.71,1.72.27,2.43-1.45,2.31-1,5-1.72,7.68" transform="translate(-125.16 -253.66)"/><path class="cls-1" d="M144.28,429.68a15.88,15.88,0,0,0,1.51.53c.75.23,1.06,0,1.19-.84,1.05-6.66,3.61-12.89,5.9-19.15a132.17,132.17,0,0,1,7.78-17.74,9.14,9.14,0,0,1,6.55-5.08c5.43-1,11-.59,16.44-1,1.4-.1,3.33,1.1,4-.17.61-1.11,0-3-.24-4.48-.57-4.29-.59-4.29-6.18-4.19-4.67.65-10.61,1.07-16.35,2.66-5,1.38-9.21,3.9-11.68,8.77-.78,1.54-.71,3.37-1.48,4.75A49.35,49.35,0,0,0,147.46,404c-2,6.87-5.54,13.3-6.09,20.58-.1,1.24-1.72,2.41-.79,3.42s2.43,1.17,3.7,1.7" transform="translate(-125.16 -253.66)"/><path class="cls-1" d="M194.91,399.28c1.5.12,1.84.06,1.8-1.43-.13-5.43-.16-10.85-.22-16.28h.23c-.07-5.58-.2-11.16-.16-16.73,0-1.77-.69-1.91-2.1-1.56-4.22,1-5.72,2.75-5.74,7.17a205.78,205.78,0,0,0,1.62,23.26c.29,2.69.92,5.26,4.57,5.57" transform="translate(-125.16 -253.66)"/><path class="cls-1" d="M199.1,404.08c.26,12.23,1.84,24.39,2.71,36.59.76,10.53,1.59,21.06,2.3,31.6.11,1.6.59,2.07,2.24,2.39,3.94.77,7.91.55,11.85.94,6.29.62,12.57,1.44,18.88,1.35,10.86-.16,21.72-.05,32.58-.2,7.23-.1,14.48-.05,21.72-.15q9-.14,18.09-.4c11.8-.33,23.6-.74,35.4-1.06,7.56-.19,15-1.29,22.56-1.76,2.72-.17,5.8-.33,8-1.7,1.76-1.1.75-4.26,1.17-6.47a7.35,7.35,0,0,0,.12-1.14c.22-10.24.54-20.47.62-30.71.09-10.57,1-21.14.13-31.71-.25-2.91.56-5.81.3-8.69-.89-9.89-1.38-19.79-1.84-29.71-.05-4-.16-8-.11-11.94,0-1.54-.71-2.24-2-2.07-5.23.66-10.37-.45-15.55-.59-6.72-.18-13.45.27-20.14-.56-4.39-.54-4.32-.52-4.27-5s.06-9-.15-13.55c-.33-6.79-3-12.9-6.36-18.63-1.72-2.91-3.63-5.74-5.56-8.53-4.11-5.95-10.45-9.14-16.54-12.49S292,285.43,285,285.73a38.47,38.47,0,0,0-15.81,4.59,63.41,63.41,0,0,0-15.58,10.9c-2.29,2.22-2.7,5.62-4.8,7.7-3.73,3.71-4.38,8.58-6,13.11-2.76,7.79-2.8,16-3.87,24.11-.19,1.47-.73,2.44-2.31,2.61-1.29.15-2.57.43-3.87.52-10.3.72-20.6,1.53-30.94,1.09-1.75-.07-2.36.56-2.33,2.18.1,4.73-1,9.37-.87,14.13.31,12.47.18,24.94.45,37.41M297.61,335c1-1.95,1.65-4.06,3.19-5.78,2-2.26,2.78-5.37,4.72-7.76a22.92,22.92,0,0,0,2-3.32c.48-.89,1.12-1.31,2-.65s.23,1.14-.22,1.81c-2.62,3.94-5.14,7.95-7.66,11.94a3.38,3.38,0,0,0-.61,2.45c3.3-3.06,7.1-4.86,10.39-7.42.67-.52,1.43-1.25,2.08-.15.53.91-.05,1.38-1,1.86a71.77,71.77,0,0,0-10.16,6.89c4.78.48,9.08.1,13.37.13,1.11,0,3-1.1,3.15,1s-1.82,1.53-3,1.5c-5.71-.17-11.43-.5-17.14-.69-1.44-.05-1.63-.87-1.17-1.77m-50.48,6.57A44.09,44.09,0,0,1,252.52,321c2-3.61,4.48-6.94,8.58-8.39A11.48,11.48,0,0,1,273,314.82c3.33,2.78,4.36,6.75,5.87,10.43a46,46,0,0,1,3.2,19c-.1,3.54,0,3.58-3.58,3.81-1.82.12-3.66-.14-5.47.8-6.14.07-12.29.11-18.43.24a21.69,21.69,0,0,0-4.75.61c-1.53.39-2.06-.23-2.43-1.54-.63-2.19-.36-4.41-.32-6.61m-34.64,36.33c4.69-1.3,9.31-2.85,14-4.12,6.61-1.79,13-4.45,19.62-6,7.5-1.77,14.66-4.63,22.15-6.31a43.18,43.18,0,0,0,7.79-2.51c.6-.26,1.29-.45,1.74,0,1.5,1.55,3.86,2.27,4.49,4.67a5.21,5.21,0,0,0,2.18,2.6,16,16,0,0,1,3.24,3.18c.85,1.12,1.63,1.66,2.71,0a95.39,95.39,0,0,1,8.2-10.94c.68-.79,1-1,2-.63,6.17,2.35,12.54,4.17,18.6,6.83,2.87,1.25,6,1.63,8.9,2.95a227.09,227.09,0,0,0,21.61,8.32c3.36,1.14,6.52,2.94,10.14,3.34a1.83,1.83,0,0,1,1.53,2.24A41.2,41.2,0,0,1,357.72,392c-.64,1.21-1.45,1-2.48.65-5-1.48-9.58-4-14.56-5.41-5.32-1.47-10.23-3.95-15.28-6-5.65-2.28-11.25-4.66-17-6.78a7.87,7.87,0,0,1-1.8-1,1.22,1.22,0,0,1-.29-1.66c.39-.66,1-.59,1.58-.18,3.7,2.66,8,3.86,12.29,5.24a35.37,35.37,0,0,1,7.52,3.33c2.9,1.76,6.19,2.45,9.21,3.84,5.52,2.54,11.61,3.6,17,6.51,1.22.67,1.92.47,2.43-.81.93-2.33,1.87-4.65,2.89-6.94.56-1.25.11-1.63-1.08-2.09-5.18-2-10.47-3.76-15.7-5.63-7.18-2.57-14.1-5.86-21.35-8.17-6.47-2.05-12.63-5-19.28-6.52-1.81-.41-3,.19-3.65,1.4-1,2-2.58,3.37-3.92,5a13.11,13.11,0,0,0-1.85,3.13c-1.16,2.68-3.12,3.18-5.46,1.47-3.23-2.36-5.43-5.66-8-8.6a4.22,4.22,0,0,0-5.29-1.29c-3.81,1.71-7.89,2.4-11.83,3.6-7.36,2.24-14.77,4.39-22.19,6.36-8,2.14-15.63,5.72-23.88,7.19-3.23.58-3.21.94-2.13,4a14.25,14.25,0,0,1,.92,3c.17,1.4.91,2.26,2.53,1.9,4.6-.64,8.95-2.33,13.38-3.72.42-.13.76-.6,1.18-.66,5.5-.87,10.64-3.07,16-4.37a97.55,97.55,0,0,0,13.22-3.59c3.87-1.51,8-2.5,12-3.62a3,3,0,0,1,3.83,1.66c.78,1.6,2.23,2.67,3.3,4,2.33,2.91,5.23,5.32,7.37,8.35,1.55,2.21,2.61,2.53,4.1.17,1.69-2.67,4-4.77,5.89-7.23,1.78-2.29,3.72-4.44,5.55-6.69.34-.4.68-.71,1.13-.42a.93.93,0,0,1,.2,1.25,4.63,4.63,0,0,1-.62,1c-2.5,2.92-5.06,5.8-7.51,8.77-1.79,2.17-3.43,4.48-5.2,6.68-.73.92-1.19,1.13-2.46.08-5.23-4.35-8.93-10-13.31-15a2.35,2.35,0,0,0-3-.81c-6.08,2.3-12.44,3.66-18.65,5.51-9.34,2.77-18.81,5.14-28,8.38a37.47,37.47,0,0,1-9.55,2.18,2.22,2.22,0,0,1-2.5-1.47c-1-2.32-2.07-4.61-2.94-7-.67-1.82.09-2.62,2-3.14m-1,72.39c4.37-1.53,8.28-4.06,12.76-5.41,2.38-.72,4.45-2.54,6.58-4,.84-.57,1.68-1,2.52-.48s.42,1.59.14,2.29c-1.78,4.6-3.13,9.37-5.61,13.69a54,54,0,0,0-3.83,9.51c-.29.81-.46,1.85-1.61,2-.73.07-1-.48-1.43-.94a122.42,122.42,0,0,1-8-9.65c-.91-1.27-2.45-1.89-3-3.62s-.15-2.88,1.45-3.44" transform="translate(-125.16 -253.66)"/><path class="cls-1" d="M314.72,556.51a8.16,8.16,0,0,0-2.46.4c-1,.21-1.92.53-2.9.69-8.3,1.35-16.6.58-24.9-.08a33.84,33.84,0,0,1-8.14-2.16,4.08,4.08,0,0,0-4.2,1.2,3.16,3.16,0,0,0-.71,3.42,7.07,7.07,0,0,0,5.95,4.31c.36,0,1,.11,1,.28.5,2.12,2.31,1.47,3.57,1.6a91.65,91.65,0,0,0,14.82.32c6.71-.17,13.24-1.16,19.27-4.39,1.37-.73,2.76-1.69,2.47-3.21-.34-1.73-2.19-2.2-3.8-2.38" transform="translate(-125.16 -253.66)"/><path class="cls-1" d="M313,491.26c-1.74-.79-3.09-2.86-5.17-2.45-11.1,2.14-22.17,1.18-33.24-.06a2.88,2.88,0,0,0-3.05,1.4,2.51,2.51,0,0,0,.2,3.35,5.62,5.62,0,0,0,4.17,2.07c8.31.39,16.57,1.62,24.92,1.23,3.71-.3,7.46.31,11.17-.52a2.57,2.57,0,0,0,2.27-2.44,2.11,2.11,0,0,0-1.27-2.58" transform="translate(-125.16 -253.66)"/><path class="cls-1" d="M311.14,498.73c-3-.88-6.07,0-9.1-.09-9-.34-18-.35-27-1.31a4.13,4.13,0,0,0-4.67,3.78c-.11,1.65,1.54,3.11,3.91,3.45.45.07.91.12,1.35.21a127.53,127.53,0,0,0,23.88,2.15,85.82,85.82,0,0,0,12.94-1.43,2.67,2.67,0,0,0,2.28-3.66c-.48-1.86-1.91-2.6-3.61-3.1" transform="translate(-125.16 -253.66)"/><path class="cls-1" d="M329.8,311.46c1.85,3.16,3.72,6.24,4.23,10s.71,3.87,4.36,2.58a3.3,3.3,0,0,0,2.38-2.89,3.42,3.42,0,0,0-.38-1c-1.77-2.34-2.34-5.27-3.69-7.83s-3.32-4.6-3.58-7.58a1.24,1.24,0,0,0-1.62-1.18c-1.09.36-2.22.6-3.26,1.06s-1.54,1.12-.78,2.34c.89,1.41,1.5,3,2.34,4.44" transform="translate(-125.16 -253.66)"/><path class="cls-1" d="M250.36,347.49c7.69-.61,15.38-1.13,23.08-1.69a1.09,1.09,0,0,0,0,.18c1.75-.12,3.51-.37,5.26-.32,1.52,0,1.8-.64,1.74-1.93A60.59,60.59,0,0,0,274.36,320c-1.1-2.29-2.9-4.82-5.49-5.49-6.35-1.66-10.11.54-13.66,6.33a40.45,40.45,0,0,0-5.42,14.39,61.29,61.29,0,0,0-.76,10.73c0,.78-.07,1.68,1.33,1.57" transform="translate(-125.16 -253.66)"/><path class="cls-1" d="M221.75,465.14c3.28-7.19,6.93-14.15,9.93-22.05l-2,.93c-4.23,2.09-8.46,4.15-12.68,6.26-1.35.69-2.91.82-4.18,1.8-.8.62-.89.86-.25,1.73,2.84,3.86,5.93,7.53,9.16,11.33" transform="translate(-125.16 -253.66)"/><path class="cls-1" d="M238.15,326.69c1,.22,1.63,0,1.69-1.13.29-5.62,3.06-10.45,5-15.54.31-.82,1.74-1.53.56-2.51a9.13,9.13,0,0,0-2.61-1.08,2.86,2.86,0,0,0-2.43,2.54,11.67,11.67,0,0,1-2.08,4.76c-2.05,2.46-2.45,5.53-3.24,8.42s.11,3.93,3.09,4.54" transform="translate(-125.16 -253.66)"/><path class="cls-1" d="M312.65,507.89c-2.79-.43-5.48.25-8.22.43-9.49.63-18.93-.44-28.38-1a4.62,4.62,0,0,0-4.76,3.62c-.35,2.18,1.07,4.06,3.5,4.55a9.22,9.22,0,0,0,2.5.27c8.24-.64,16.46,1.37,23.14.32a83.33,83.33,0,0,0,13.39-1.26,2.19,2.19,0,0,0,1.63-1.05c1.78-2.79.56-5.37-2.8-5.89" transform="translate(-125.16 -253.66)"/><path class="cls-1" d="M155.45,471.8c.27-2.44,1.49-4.61,1.92-7a1.83,1.83,0,0,0-1.39-2.42c-2.6-.88-5.06-2.11-7.56-3.22-5.28-2.35-10.9-3.79-16.35-6.6,0,3.37,0,6.34.15,9.3a3,3,0,0,0,1.63,2.92q7.2,3.11,14.41,6.17a17.44,17.44,0,0,0,5.5,1.5c.61,0,1.58.36,1.69-.65" transform="translate(-125.16 -253.66)"/><path class="cls-2" d="M159.5,476.29c.43-.07.68-.58.79-1.06,1-4,2.17-8,2.84-12,.58-3.52.8-7.11,1.53-10.62.58-2.84.94-5.8,2.05-8.43a17.16,17.16,0,0,0,1.19-8.22,1.69,1.69,0,0,0-1.24-1.74c-3.36-.75-6.29-2.64-9.59-3.6-4.57-1.32-4.77-1.91-3.43-6.31,2.17-7.17,4.28-14.29,8.15-20.87,1.43-2.42,2.87-4.88,4.37-7.29,1.23-2,3.1-2.77,5.28-3.23,3.64-.77,7.3-.4,10.95-.38a1.53,1.53,0,0,1,1.76,1.62,11,11,0,0,0,2.23,5.46c1.63,2.28,3.14,4.86,6.63,4.4,1.06-.14,1,.61,1,1.34.06,1.83.07,3.68.27,5.5.48,4.32,1.22,8.61,1.56,12.94.77,9.6,1.41,19.21,2,28.82.46,7.4,1.52,14.77,1.56,22.2,0,1.34,0,2.94,2.19,2.61a.94.94,0,0,1,1,.77c.74,2.28,2.71,2.4,4.61,2.67a112.49,112.49,0,0,0,15.78.69c8.33,0,16.65.64,25,.28,5.1-.21,10.23.07,15.34.23.55,0,2.05-.56,1.65,1.05s.49,2.55,1.24,3.52c.61.79.64,1.37.11,2-1.52,1.83-1.09,3.7-.23,5.6a3.41,3.41,0,0,1,0,3c-1,2.58-1.58,5.41.07,7.94,1,1.45.71,2.62.24,4.08-.63,1.94-1.32,4-.72,6.05.68,2.3,2.06,4.44.81,7a1.14,1.14,0,0,0,.12.87c2.26,4.25-1.18,8.54.11,12.79,0,.06-.06.14-.08.21-.85,3.14-1.4,6.24.84,9.09.56.71,0,1.29-.3,1.89-.79,1.57-1.14,3.06,0,4.74.7,1.05.64,2.09-.21,3.47-1.56,2.55-3.75,3.4-6.39,4.07-1.91.48-3.88.79-5.74,1.37-3.66,1.12-6.79,3.35-10,5.4-2.36,1.5-2.07,3.43-1.82,5.61a4.6,4.6,0,0,0,3.71,4.38c2.08.45,2.34,1.36,1.7,3.25-1.55,4.59,1.85,11,6.56,12.18,3.66.88,7.38,2,11.23.73,4.59-1.45,9.26-3.24,9.49-9.2.06-1.46,1-1.95,2.37-1.75s2.7.31,4,.61a2.42,2.42,0,0,1,1.95,1.31c2.35,4.66,8.71,6.82,13.52,4.72,2.3-1,4.1-2.49,4.12-5.26,0-2.61,2.05-1.42,3.22-1.69s2.22.17,2.14,1.8a5.55,5.55,0,0,0,1,3.48c3.17,4.4,7.18,7.26,12.9,7.18a18.21,18.21,0,0,0,10.45-3.57c3.23-2.36,4.16-6.43,2.91-10.38-.81-2.55,0-3.52,2.25-4.29a18.24,18.24,0,0,0,8.21-5.53,3.71,3.71,0,0,0,1-3.56,8.87,8.87,0,0,0-3.56-5,44.16,44.16,0,0,0-9-4.37c-3.17-1.15-6.24-3.06-9.8-2.63-1.91.24-2.45-.25-2.21-2.15.31-2.41-.08-4.73-2-6.48A1.07,1.07,0,0,1,319,544a7.27,7.27,0,0,0,.55-7,1.43,1.43,0,0,1,0-1.53c1.6-2.13.86-4.22-.15-6.26-.76-1.53-1.29-2.94-.37-4.69a5.58,5.58,0,0,0,.27-3.82c-.38-1.64-1.46-3.48.94-4.6.12-.06.07-.44.14-.65a10.6,10.6,0,0,0-.72-9.32c-1.34-2.55-1.06-6.13-1.56-9.22-.35-2.16,1.11-4.86-.1-7.23-1.3-2.54,1.1-5-.13-7.49-.57-1.14-.18-1.68,1.17-1.56a31.74,31.74,0,0,0,4.57.16c9-.55,17.94-.73,26.9-1.29,8.22-.52,16.41-1.09,24.54-2.4,2.36-.38,5.72-3.29,5.8-5.31.19-4.82,1-9.62,1.06-14.42.34-17.06.46-34.14.54-51.21,0-1.9.45-2.78,2.29-3.49,3.83-1.48,7-3.74,7.43-8.39a1.65,1.65,0,0,1,1.63-1.61c3.22-.4,6.43-.87,9.66-1.21a5.8,5.8,0,0,1,3.94,1c3.4,2.3,6.94,4.37,9,8.25a58.66,58.66,0,0,0,2.86,5.72c3.39,5.08,4.45,11.3,8,16.29a.87.87,0,0,1-.13,1.25c-1.69,1.11-2.68,3-4.75,3.75a28.84,28.84,0,0,0-5.88,3.45c-4.69,3.19-4.55,6.35-2.33,9.7s3.57,6.78,5.22,10.27c3,6.24,5.36,12.77,9.23,18.58,1.12,1.68,1.17,4.26,4.24,3.58,1.9-.43,4,.27,5.72-1.28,2.32-2.11,5.47-3,7.86-5s5.69-2.88,8.24-4.8a33.62,33.62,0,0,1,6.1-3.58c2.28-1.06,4.07-2.54,4-5.53a28.68,28.68,0,0,0-.78-6.08c-1.35-5.39-2.65-10.82-3.74-16.25s-2.58-11-4-16.49c-.54-2.09-3.5-4.2-5.22-3.57-2.5.91-5.32,1.18-7.4,3.47-.92-3.2-2.72-5.8-3.65-8.74-1.7-5.36-4.79-10.06-7-15.15-1.07-2.42-3.08-4.19-4.38-6.38-1.79-3-4.67-4.69-7.06-7a4,4,0,0,0-2.31-1.39c-3.26-.3-6.51-.74-9.8-.76a88.89,88.89,0,0,0-14.12.77c-1.32.2-1.68,0-1.94-1.53-1.19-6.83-3.16-9.63-10.08-11.21-1.57-.36-1.86-1-1.72-2.27.52-4.53-.72-9-.7-13.48,0-1.79-1.11-2.61-2.74-2.73-1.79-.15-3.59-.15-5.39-.22-10.33-.38-20.65-.62-31-.33-1.56,0-2-.47-1.85-2a39.89,39.89,0,0,0-.49-10.74c-.17-1,0-1.63,1.05-1.89,2.87-.71,5.08-2.6,7.46-4.19a.78.78,0,0,0,.33-1.15c-2.27-4.19-3.19-8.87-4.73-13.31-1.3-3.76-4.28-6.63-5.41-10.48a2.19,2.19,0,0,0-1.49-1.31c-2.05-.18-4-1.21-6.21-.21-1,.48-2.24,1.76-3.3,1.13a11.26,11.26,0,0,1-4.14-3.74c-2.11-3.75-5.27-6.17-8.88-8.16-2.56-1.41-5.4-2.32-7.95-3.64-5.85-3-12.14-3.94-18.47-4.89-.88-.13-1.43-.23-1.46-1.27a95.41,95.41,0,0,0-.8-12.5c1,.56,1.77,1,2.57,1.39,2.21,1,5.21.45,6.52-1.22a8.27,8.27,0,0,0,1.52-8c-.82-2.5-3-3.47-5.3-3.78-1.88-.25-3.86-.21-5.07,1.81-.82,1.36-1.56,1.46-2.77.12-2.41-2.69-5.5-2.32-7.46.72-2.12,3.29-2.25,6.94-1.61,10.63.36,2,2.82,3,4.75,2.55,2.11-.53,3-2.18,4-3.8l.66.1c.29,4.17.59,8.33.85,12.5,0,.66-.45.91-1.08.89-5.51-.18-10.32,2.5-15.47,3.76-.7.17-1.41.33-1.72,1-.57,1.24-1.71,1.67-2.78,2.24-5.44,2.94-10.63,6.16-14.16,11.47C248,299,247,300.7,246,301.31s-2.8-1.21-4.28-1.9c-2.24-1-5.75.62-6.48,3-1.51,4.94-3,9.91-4.6,14.8a25.53,25.53,0,0,0-1.51,8.52c0,3.63-.05,3.63,3.38,4.65,2.54.76,3.36,2.26,2.29,4.81a15.36,15.36,0,0,0-1.16,6.24c0,1.63-.61,2.12-2.14,2.18-5.81.22-11.62.58-17.43.81a133.78,133.78,0,0,1-17,0c-1.57-.14-2.52.69-2.51,2.52a67.88,67.88,0,0,1-.34,8.91c-.2,1.59.24,3.62-2.27,4.42-4.73,1.51-7.51,4.88-7.78,9.94-.08,1.53-.67,2-2,2.11-6,.34-11.91,1.79-17.8,3-4.17.88-8.32,2.11-11.37,5.35a33.82,33.82,0,0,0-4.42,6.39c-2.67,4.6-3.91,9.82-6.39,14.54a59.15,59.15,0,0,0-6.52,19.82c-.34,2.6-1.81,3.37-4,3.33-3.66-.08-5-.19-5.22,5.25-.49,11.14-.83,22.3-1.21,33.45a5.53,5.53,0,0,0,2.42,4.88,26.57,26.57,0,0,0,6.4,3c6.31,1.73,12.47,3.92,18.61,6.13,2.72,1,4.61-.82,6.91-1.17m298.19-32.83a36.67,36.67,0,0,0,1.77,8.48c.35,1.12-.57,1.63-1.19,2-5.8,3.44-11.7,6.74-17.47,10.24-1.81,1.1-3.88,1.79-5.46,3.29-.85.81-1.47,1-2.27-.26a52,52,0,0,1-3.61-5.81c-.67-1.41-.73-2.37,1.17-3.32,4.75-2.39,9.28-5.21,13.87-7.9,4.05-2.37,8.24-4.51,12.09-7.22.64-.44,1.08-.17,1.1.5m-.59-2.77c.13.4.3,1-.37,1.11-5.4,1-9,5.27-13.84,7.43a87.38,87.38,0,0,0-12.58,6.68c-3.3,2.19-3.11-.21-4-1.73s-1.56-2.95-2.21-4.17l30.63-19.12c.71,3.39,1.34,6.64,2.34,9.8m-6.71-23.44c.54-.4,1-.44,1.16.34.91,3.54,1.84,7.08,2.75,10.63a.75.75,0,0,1-.43.94c-1.95,1-3.58,2.48-5.48,3.58-4.6,2.65-9,5.58-13.57,8.35-3.49,2.14-7,4.21-10.51,6.31l-.56.33a4.19,4.19,0,0,1-1.61-2.44c-.2-2-1.41-3.29-2.39-4.78-1.28-2-1.18-3.84.71-5.18a113.46,113.46,0,0,1,13.12-8.15,29.65,29.65,0,0,0,4.7-2.75c3.74-2.93,8.32-4.38,12.11-7.18M393,380.36c5.82-1.31,11.7-.83,17.5-.82A16.48,16.48,0,0,1,425.67,389c3.44,6.95,7.14,13.78,10.3,20.88,1.45,3.25,2.7,6.6,4.25,9.8.47,1,.34,1.3-.51,1.75-1.6.86-3.18,1.77-4.75,2.7-.58.34-.91.27-1.27-.34-2-3.33-4.06-6.55-5.29-10.31-.93-2.87-2.61-5.48-3.82-8.26-1.83-4.18-3.83-8.4-6.84-11.72-3.67-4.07-8.16-7.4-14.23-6.9-2.8.23-5.59.62-8.39.91a6.89,6.89,0,0,0-3.64,1.17c-1.11.83-2,.69-2-1,0-1,0-2,0-3-.23-3.79-.15-3.45,3.53-4.28m-13-13.18c1.68.91,3.35,1.84,5,2.73a2.77,2.77,0,0,1,1.31,2.51c.5,4.78.9,9.58,1,13.32a47,47,0,0,1-.42,10.19,3.5,3.5,0,0,1-1.91,2.44c-.72.43-1.51.75-2.27,1.11-3.32,1.6-3.34,1.59-3.18-2.28.26-6.74-.59-13.42-1-20.12-.18-3-.17-6-.27-8.93,0-1.45.62-1.56,1.71-1M290,255.79c2.31-.15,3.6,1.53,3.74,4.89.08,1.7-2,4.63-3.35,4.7-1.58.08-4.61-2.74-4.78-4.45a5,5,0,0,1,4.39-5.14m-10.27,11c-.63,1.4-3.17.75-3.77-.78a5,5,0,0,1-.15-2.58,13.92,13.92,0,0,1,.93-5,2.8,2.8,0,0,1,2.84-2.18c1.42,0,1.93,1,2.35,2.33,1.05,3.26-1,5.66-2.2,8.23m-9.51,316.33c-1.87,3.72-5.31,3.53-8.62,4.11a11.83,11.83,0,0,1-6-1.76,5.19,5.19,0,0,1-.06-8.24,2.23,2.23,0,0,1,2-.22,58.76,58.76,0,0,0,10.4,1.35c2.92.19,3.58,2.15,2.27,4.76m29.67-.34a4.41,4.41,0,0,1-3.68,3.33,32.75,32.75,0,0,1-3.43.24c-2.63.32-4.84-.31-6.4-2.63-.25-.38-.66-.69-.46-1.2s.76-.36,1.19-.39c3.83-.33,7.7-.21,11.51-.84,1.06-.17,1.61.34,1.27,1.49m23.92,4.11c-3.41.88-7,1.53-10.35-.8-1.67-1.16-2.62-2.74-1.81-4.58s1.68-3.78,4-4.22l11.21-2.12c2.16-.47,2.88.69,3.24,2.55.89,4.65-1,7.79-6.33,9.17m-4-25.13c1.23-3,3.69-2.46,5.75-1.94a91,91,0,0,1,14.52,4.77c1.46.64,1.6,1.85.18,3a26.2,26.2,0,0,1-8.23,4.36,66.75,66.75,0,0,1-18.5,3.4c-3.26.17-6.58.83-9.9,1.13a100.16,100.16,0,0,1-14.17.32c-3-.16-5.91.23-8.88.11-6.79-.29-13.57-.85-20.34-1.29a19.06,19.06,0,0,1-11.33-4.76c3.18-2.27,6-4.73,9.88-5.66a72.68,72.68,0,0,0,8.17-3c1.35-.5,2.35-.6,3.48.87a12.75,12.75,0,0,0,8.35,4.92c10.21,1.42,20.41,1.7,30.43-1.36,2.68-.82,5.28-1.95,7.94-2.87a4.26,4.26,0,0,0,2.65-2.07m-8.42-80.94a3.68,3.68,0,0,1,2.52,2.73c.56,1.55-.3,2.55-1.92,2.74-4.22.48-8.42,1.24-12.65,1.53a75.16,75.16,0,0,1-15.51-.41,71.81,71.81,0,0,0-10-.75c-2.4,0-3.92-1.23-3.91-3.19,0-2.18,2-4.49,3.95-4.52,5.8-.09,11.61-.15,17.41-.22v-.1l16.73-.21c.87,0,1.83-.41,1.68,1.22-.09.91,1,1,1.73,1.18M273,528.89a6.5,6.5,0,0,1,4-1.53c10.23,0,20.46.33,30.69-.25,2.49-.14,4.7,1.24,6.69,2.63a2.79,2.79,0,0,1-.52,4.77,13.07,13.07,0,0,1-5.91,1.58c-3.74,0-7.46.65-11.21.48-6.84.09-13.69.43-20.44-1.14a7.13,7.13,0,0,1-4.3-3.16c-1-1.43.05-2.59,1-3.38m-.89-7.22a5.77,5.77,0,0,1,5.4-3.81c8.17.55,16.34.22,24.51.14,3.26,0,6.53-.89,9.79,0,2.27.64,3.55,1.86,3.55,3.36a3.34,3.34,0,0,1-4.31,3.27c-1.64-.41-3.32.19-5,.36-9.18.91-18.32,0-27.48-.09-2.19,0-4.18.12-5.92-1.47a1.63,1.63,0,0,1-.59-1.8m1.9,15.87c1.34-.07,2.53.52,3.8.68,6.3.82,12.63.51,18.95.51a133.24,133.24,0,0,0,15.08-.89c1.47-.17,3,.15,3.6,1.4a3.56,3.56,0,0,1-1.2,4.33,9.93,9.93,0,0,1-5.06,1.89c-3.64.57-7.3.43-10.95.64a68.1,68.1,0,0,1-18.57-1.3,11.4,11.4,0,0,0-3.17-.29,5.41,5.41,0,0,1-4.59-2.12c-.76-.85-1.39-1.84-.79-2.89a3.45,3.45,0,0,1,2.9-2m-2.33,11.1c.38-1.52,1.69-1.51,2.85-1.86,3.14-.95,6,.55,9,.94,9,1.22,18,.66,27-.25a6.18,6.18,0,0,1,4,.54c1.07.64,2.63.91,2.26,2.68s-1.09,3-2.93,3.42c-4.53,1-9,2.49-13.31,1.7-7.17.58-13.86-.27-20.46-1.34-2.31-.38-5.19-.4-7-2.61-.8-.94-1.67-1.82-1.32-3.22m43.78-34.86a2.19,2.19,0,0,1-1.63,1.05,83.33,83.33,0,0,1-13.39,1.26c-6.68,1-14.9-1-23.14-.32a9.22,9.22,0,0,1-2.5-.27c-2.43-.49-3.85-2.37-3.5-4.55a4.62,4.62,0,0,1,4.76-3.62c9.45.55,18.89,1.62,28.38,1,2.74-.18,5.43-.86,8.22-.43,3.36.52,4.58,3.1,2.8,5.89m-3-8.29a85.82,85.82,0,0,1-12.94,1.43,127.53,127.53,0,0,1-23.88-2.15c-.44-.09-.9-.14-1.35-.21-2.37-.34-4-1.8-3.91-3.45a4.13,4.13,0,0,1,4.67-3.78c9,1,18,1,27,1.31,3,.12,6.07-.79,9.1.09,1.7.5,3.13,1.24,3.61,3.1a2.67,2.67,0,0,1-2.28,3.66m1.78-11.65a2.57,2.57,0,0,1-2.27,2.44c-3.71.83-7.46.22-11.17.52-8.35.39-16.61-.84-24.92-1.23a5.62,5.62,0,0,1-4.17-2.07,2.51,2.51,0,0,1-.2-3.35,2.88,2.88,0,0,1,3.05-1.4c11.07,1.24,22.14,2.2,33.24.06,2.08-.41,3.43,1.66,5.17,2.45a2.1,2.1,0,0,1,1.27,2.58m4.27,65.05c.29,1.52-1.1,2.48-2.47,3.21-6,3.23-12.56,4.22-19.27,4.39a91.65,91.65,0,0,1-14.82-.32c-1.26-.13-3.07.52-3.57-1.6,0-.17-.67-.27-1-.28a7.07,7.07,0,0,1-5.94-4.31,3.16,3.16,0,0,1,.71-3.42,4.08,4.08,0,0,1,4.2-1.2,33.84,33.84,0,0,0,8.14,2.16c8.3.66,16.6,1.43,24.9.08,1-.16,1.93-.48,2.9-.69a8.16,8.16,0,0,1,2.46-.4c1.61.18,3.46.65,3.8,2.38m9.72-254.21c1-.46,2.17-.7,3.26-1.06a1.24,1.24,0,0,1,1.62,1.18c.26,3,2.31,5.15,3.58,7.58s1.91,5.49,3.69,7.83a3.42,3.42,0,0,1,.38,1,3.3,3.3,0,0,1-2.38,2.89c-3.65,1.29-3.82,1.35-4.36-2.58s-2.38-6.86-4.23-10c-.84-1.45-1.45-3-2.34-4.44-.76-1.22-.24-1.9.78-2.34m-93.18,17.47c.79-2.89,1.19-6,3.24-8.42a11.67,11.67,0,0,0,2.08-4.76,2.86,2.86,0,0,1,2.43-2.54,9.13,9.13,0,0,1,2.61,1.08c1.18,1-.25,1.69-.56,2.51-2,5.09-4.73,9.92-5,15.54-.06,1.17-.65,1.35-1.69,1.13-3-.61-3.87-1.63-3.09-4.54m-36.41,44.52c-.11-4.76,1-9.4.87-14.13,0-1.62.58-2.25,2.33-2.18,10.34.44,20.64-.37,30.94-1.09,1.3-.09,2.58-.38,3.87-.52,1.58-.17,2.12-1.14,2.31-2.61,1.07-8.07,1.11-16.32,3.87-24.11,1.6-4.53,2.25-9.4,6-13.11,2.1-2.08,2.51-5.48,4.8-7.7a63.41,63.41,0,0,1,15.58-10.9A38.47,38.47,0,0,1,285,285.73c7-.3,13.94.68,20.17,4.11,6.08,3.35,12.43,6.54,16.54,12.49,1.93,2.79,3.84,5.62,5.56,8.53,3.4,5.73,6,11.84,6.36,18.63.21,4.51.2,9,.15,13.55s-.12,4.51,4.27,5c6.69.83,13.42.38,20.14.56,5.18.14,10.32,1.25,15.55.59,1.32-.17,2.05.53,2,2.07,0,4,.06,8,.11,11.94.46,9.92.95,19.82,1.84,29.71.26,2.88-.55,5.78-.3,8.69.89,10.57,0,21.14-.13,31.71-.08,10.24-.4,20.47-.62,30.71a7.35,7.35,0,0,1-.12,1.14c-.42,2.21.59,5.37-1.17,6.48-2.16,1.36-5.24,1.52-8,1.69-7.53.47-15,1.57-22.56,1.76-11.8.32-23.6.73-35.4,1.06q-9,.26-18.09.4c-7.24.1-14.49,0-21.72.15-10.86.15-21.72,0-32.58.2-6.31.09-12.59-.73-18.88-1.35-3.94-.39-7.91-.17-11.85-.94-1.65-.32-2.13-.79-2.24-2.39-.71-10.54-1.54-21.07-2.3-31.6-.87-12.2-2.44-24.36-2.71-36.59-.27-12.47-.14-24.94-.45-37.41m-9.93,3.77c0-4.41,1.52-6.12,5.74-7.16,1.41-.35,2.11-.21,2.1,1.56,0,5.57.09,11.15.16,16.73h-.23c.06,5.43.09,10.85.22,16.28,0,1.49-.3,1.55-1.8,1.43-3.65-.31-4.28-2.88-4.57-5.57a205.79,205.79,0,0,1-1.62-23.27m-47.35,54.12c.55-7.28,4.1-13.71,6.09-20.58a49.35,49.35,0,0,1,4.29-10.24c.77-1.38.7-3.21,1.48-4.75,2.47-4.87,6.68-7.39,11.68-8.77,5.74-1.59,11.68-2,16.35-2.66,5.59-.1,5.61-.1,6.18,4.19.2,1.51.85,3.37.24,4.48-.7,1.27-2.63.07-4,.17-5.48.41-11,0-16.44,1a9.14,9.14,0,0,0-6.55,5.08,131.74,131.74,0,0,0-7.78,17.75c-2.29,6.25-4.85,12.48-5.9,19.14-.13.83-.44,1.07-1.19.84a15.88,15.88,0,0,1-1.51-.53c-1.27-.53-2.86-.78-3.7-1.7s.69-2.18.79-3.42m-7.38,6c-.42-1.7.56-2.65,2.15-1.93,5.53,2.5,11.59,3.55,17,6.49a26,26,0,0,0,8.45,2.69c1.16.17,1.56.45,1.22,1.72-.8,2.93-1.43,5.91-2.12,8.87-.34,1.46-1.4,1-2.17.68a33.51,33.51,0,0,0-9.07-2.91c-1.71-.26-3.36-1.4-4.94-2.24-2.85-1.53-6-2-8.9-3.37a3.2,3.2,0,0,0-3.07.11c.75-2.64.27-5.37,1.72-7.68.44-.71-.06-1.61-.27-2.43M132.28,449c.2-1.9.14-3.82.2-5.73,0-1.18.38-1.62,1.7-1.1,3,1.17,6,2.13,9,3.22q7.62,2.74,15.21,5.55c.67.25,1.68.26,1.18,1.48-.46,2.61-.88,5.24-1.39,7.85-.2,1.08-1,.75-1.62.46-1.71-.81-3.36-1.78-5.11-2.49a50.18,50.18,0,0,0-6.05-2.07c-2.6-.71-4.77-2.33-7.27-3.26a19,19,0,0,0-4.23-1.46c-1.78-.22-1.81-1-1.66-2.45m1.57,15.74a3,3,0,0,1-1.63-2.92c-.15-3-.11-5.93-.15-9.3,5.45,2.81,11.07,4.25,16.35,6.6,2.5,1.11,5,2.34,7.56,3.22a1.83,1.83,0,0,1,1.39,2.42c-.43,2.39-1.65,4.56-1.92,7-.11,1-1.08.68-1.69.64a17.31,17.31,0,0,1-5.49-1.5q-7.22-3.07-14.42-6.17" transform="translate(-125.16 -253.66)"/><path class="cls-2" d="M213.43,388a2.22,2.22,0,0,0,2.5,1.47,37.47,37.47,0,0,0,9.55-2.18c9.21-3.24,18.68-5.61,28-8.38,6.21-1.85,12.57-3.21,18.65-5.51a2.35,2.35,0,0,1,3,.81c4.38,5,8.08,10.67,13.31,15,1.27,1.05,1.73.84,2.46-.08,1.77-2.2,3.41-4.51,5.2-6.68,2.45-3,5-5.85,7.51-8.77a4.63,4.63,0,0,0,.62-1,.93.93,0,0,0-.2-1.25c-.45-.29-.79,0-1.13.42-1.83,2.25-3.77,4.4-5.54,6.69-1.91,2.46-4.21,4.56-5.9,7.23-1.49,2.36-2.55,2-4.1-.16-2.14-3-5-5.45-7.37-8.36-1.07-1.33-2.52-2.4-3.3-4a3,3,0,0,0-3.83-1.66c-4,1.12-8.1,2.11-12,3.62a97.55,97.55,0,0,1-13.22,3.59c-5.4,1.3-10.54,3.5-16,4.37-.42.06-.76.53-1.18.66-4.43,1.39-8.78,3.08-13.38,3.72-1.62.36-2.36-.5-2.53-1.9a14.25,14.25,0,0,0-.92-3c-1.08-3.06-1.1-3.42,2.13-4,8.25-1.47,15.83-5.05,23.88-7.19,7.42-2,14.83-4.12,22.19-6.36,3.94-1.2,8-1.89,11.83-3.6a4.22,4.22,0,0,1,5.29,1.29c2.58,2.94,4.78,6.24,8,8.6,2.34,1.71,4.3,1.21,5.46-1.47a13.11,13.11,0,0,1,1.85-3.13c1.34-1.64,2.93-3,3.92-5,.6-1.21,1.84-1.81,3.65-1.4,6.65,1.52,12.81,4.47,19.28,6.52,7.25,2.31,14.17,5.6,21.35,8.17,5.23,1.87,10.52,3.6,15.7,5.63,1.19.46,1.64.84,1.08,2.09-1,2.29-2,4.61-2.89,6.94-.51,1.28-1.21,1.48-2.43.81-5.38-2.91-11.47-4-17-6.51-3-1.39-6.31-2.08-9.21-3.84a35.37,35.37,0,0,0-7.52-3.33c-4.27-1.38-8.59-2.58-12.29-5.24-.57-.41-1.19-.48-1.58.18a1.22,1.22,0,0,0,.29,1.66,7.87,7.87,0,0,0,1.8,1c5.72,2.12,11.32,4.51,17,6.78,5.05,2,10,4.52,15.28,6,5,1.38,9.58,3.93,14.56,5.41,1,.3,1.84.56,2.48-.65a41.2,41.2,0,0,0,3.69-10.53,1.83,1.83,0,0,0-1.53-2.24c-3.62-.4-6.78-2.2-10.14-3.34a227.09,227.09,0,0,1-21.61-8.32c-2.86-1.32-6-1.7-8.9-2.95-6.06-2.66-12.43-4.48-18.6-6.83-1-.38-1.34-.16-2,.63a95.39,95.39,0,0,0-8.2,10.94c-1.08,1.7-1.86,1.16-2.71,0a16,16,0,0,0-3.24-3.18,5.21,5.21,0,0,1-2.18-2.6c-.63-2.4-3-3.12-4.49-4.67-.45-.46-1.14-.27-1.74,0a43.18,43.18,0,0,1-7.79,2.51c-7.49,1.68-14.65,4.54-22.15,6.31-6.64,1.57-13,4.23-19.62,6-4.69,1.27-9.31,2.82-14,4.12-1.91.52-2.67,1.32-2,3.14.87,2.36,1.94,4.65,2.94,7" transform="translate(-125.16 -253.66)"/><path class="cls-2" d="M249.88,349.74a21.09,21.09,0,0,1,4.75-.6c6.14-.14,12.29-.18,18.43-.25,1.81-.94,3.65-.68,5.47-.8,3.61-.23,3.48-.27,3.58-3.81a46.07,46.07,0,0,0-3.2-19c-1.51-3.67-2.54-7.64-5.87-10.42a11.48,11.48,0,0,0-11.94-2.21c-4.1,1.45-6.61,4.78-8.58,8.39a44.09,44.09,0,0,0-5.39,20.59c0,2.2-.31,4.42.31,6.61.38,1.31.91,1.93,2.44,1.54m-.85-3.82a61.29,61.29,0,0,1,.76-10.73,40.45,40.45,0,0,1,5.42-14.39c3.55-5.79,7.31-8,13.66-6.33,2.59.67,4.39,3.2,5.49,5.48a60.68,60.68,0,0,1,6.09,23.78c.06,1.28-.22,2-1.74,1.93-1.75-.05-3.51.2-5.26.32a1.09,1.09,0,0,1,0-.18c-7.7.56-15.39,1.08-23.08,1.69-1.4.11-1.32-.79-1.33-1.57" transform="translate(-125.16 -253.66)"/><path class="cls-2" d="M213.09,457.37a122.42,122.42,0,0,0,8,9.65c.42.46.7,1,1.43.94,1.15-.18,1.32-1.21,1.61-2a54,54,0,0,1,3.83-9.51c2.48-4.32,3.83-9.09,5.61-13.69.28-.7.81-1.72-.14-2.29s-1.68-.09-2.52.48c-2.13,1.44-4.2,3.26-6.58,4-4.48,1.35-8.39,3.88-12.76,5.41-1.6.56-2.05,1.61-1.45,3.44s2.1,2.35,3,3.62m-.25-5.29c1.27-1,2.83-1.11,4.18-1.8,4.22-2.11,8.45-4.17,12.68-6.26l2-.93c-3,7.9-6.65,14.86-9.93,22.05-3.23-3.8-6.32-7.47-9.16-11.33-.64-.87-.55-1.11.25-1.73" transform="translate(-125.16 -253.66)"/><path class="cls-2" d="M298.78,336.79c5.71.19,11.43.52,17.14.68,1.15,0,3.11.43,3-1.49s-2-1-3.15-1c-4.29,0-8.59.35-13.37-.13A71.77,71.77,0,0,1,312.53,328c.92-.48,1.51-.95,1-1.86-.65-1.1-1.41-.37-2.08.15-3.29,2.56-7.09,4.36-10.39,7.42a3.38,3.38,0,0,1,.61-2.45c2.52-4,5-8,7.66-11.93.45-.68,1.14-1.14.22-1.82s-1.54-.24-2,.65a22.92,22.92,0,0,1-2,3.32c-1.94,2.39-2.69,5.5-4.72,7.76-1.54,1.72-2.19,3.83-3.19,5.78-.46.9-.27,1.72,1.17,1.77" transform="translate(-125.16 -253.66)"/></svg>