<svg id="Layer_1" data-name="Layer 1" xmlns="http://www.w3.org/2000/svg" viewBox="0 0 279.31 343.54"><defs><style>.cls-1{fill:#fff;}.cls-2{fill:#010101;}</style></defs><path class="cls-1" d="M460.16,420.58c-3.78.69-7.59,1.3-11.42,1.65a3,3,0,0,0-3.13,3,27.7,27.7,0,0,1-2.13,7.37,33,33,0,0,0-1.38,6.13,5.77,5.77,0,0,0,1.51,4.85,2.93,2.93,0,0,0,3,1.27c1.55-.37.82-1.71.92-2.64.15-1.38,0-2.81.18-4.19s-1.27-2.59-.35-4c1.19.13,1.13,1.14,1.29,1.86a32,32,0,0,1,.74,8,27.2,27.2,0,0,0,1,9,6.84,6.84,0,0,0,2.52,3.68c4.09,2.95,12,1.07,14-3.56s3.51-9.05,2.62-14.19c-1-5.66-2.31-11.14-5.07-16.23a3.56,3.56,0,0,0-4.29-2.05" transform="translate(-194.11 -209.72)"/><path class="cls-1" d="M416.75,368.9c1.64-3.34,4-6.24,5.5-9.69,1.2-2.78,2.69-5.43,3.92-8.2s3.5-5.26,2.54-8.69c1.6-2.57,3.33-5.07,4-8.09a19.73,19.73,0,0,0,.56-2.73c.27-2.89-.33-3.89-3.23-4.35-3.46-.55-7-.77-10.46-1.1-1.07-.1-1.23.57-1.39,1.51-.6,3.49,0,7-.39,10.48-.88,7.8-1,15.63-1.58,23.44-.17,2.41-.25,4.82-.37,7.24l.87.18" transform="translate(-194.11 -209.72)"/><path class="cls-1" d="M431.2,345.54c-1.79,2.59-2.41,5.76-4.1,8.45-2.05,3.24-3.25,7-5.44,10.16a1.32,1.32,0,0,0,0,1.88c6.4,6.73,10.47,14.93,14.62,23.09,1.17,2.31,1.92,4.75,3,7.09,1.69,3.83,3,7.82,4.27,11.79a50.86,50.86,0,0,1,2.34,12.69c5.13-.64,10.09-1.23,15-1.9,1.81-.25,2.43-1.06,2.12-2.81a67.7,67.7,0,0,0-1.82-8.87,257.29,257.29,0,0,0-12.56-33.33,193.59,193.59,0,0,0-15.59-26.86c-.42-.61-.73-1.5-1.85-1.38" transform="translate(-194.11 -209.72)"/><path class="cls-1" d="M454.14,265.15c1.14-.09,2.15-.41,2.09-1.8,0-1.08-1-1.27-1.79-1.2-1,.09-2.32.19-2.35,1.55,0,1.18,1.12,1.3,2.05,1.45" transform="translate(-194.11 -209.72)"/><path class="cls-1" d="M375.55,281.46c1.29-.28,1.65-1.42,1.89-2.55.28-1.3-.46-2-1.69-2.15a2.18,2.18,0,0,0-2.51,1.86,3.31,3.31,0,0,0,2.31,2.84" transform="translate(-194.11 -209.72)"/><path class="cls-1" d="M354.31,339.56c.16,7.81.39,15.63.56,23.44,0,1.24,0,2.26,1.74,2.33a196.72,196.72,0,0,0,23.79-.21c1.47-.12,1.62-.81,1.59-2.05-.08-3.5,0-7,0-10.51h-.05q0-13.47-.09-26.95a13.26,13.26,0,0,1,.13-2.09c.27-1.78-.59-2.3-2.2-2.11a17,17,0,0,1-1.75,0c-5.93,0-11.86.93-17.79-.17a7.7,7.7,0,0,0-2.44,0c-3.31.43-3.54.58-3.59,3.88-.06,4.78,0,9.56.14,14.34m10.34,1.56a48.48,48.48,0,0,1,10.3-1.76c1.36-.08,2.26.44,2.17,2.38-1.05,1.67-2.17,3.72-3.56,5.56-3,4-3.11,4-6.56.27-1-1.11-2.12-2.15-3.12-3.29-1.23-1.39-1-2.67.77-3.16" transform="translate(-194.11 -209.72)"/><path class="cls-1" d="M371.6,347.08c1.86-1.53,2.44-3.83,4-6-3.67,0-6.89.77-10.89,1.42,1.93,1.93,3.37,3.39,4.83,4.83.79.76,1.39.28,2.08-.29" transform="translate(-194.11 -209.72)"/><path class="cls-1" d="M364,268c1.44,0,2.06-.93,2.22-2.23a2.41,2.41,0,0,0-2.48-2.73c-1.14,0-1.67.69-1.56,1.87-.11,2.14.45,3.12,1.82,3.09" transform="translate(-194.11 -209.72)"/><path class="cls-1" d="M289.39,346a29,29,0,0,0,4.38-6.47,26.8,26.8,0,0,0-9.66,1.34c1.22,2.56,3.71,3.35,5.28,5.13" transform="translate(-194.11 -209.72)"/><path class="cls-1" d="M310.92,307.46c1.53.09,2.41-.35,2.48-2a10.89,10.89,0,0,0-.24-3.42c-.29-1-1.2-.9-2-.92s-1.35.24-1.44,1.11c-.07.57-.12,1.14-.18,1.72s0,.92-.07,1.38c-.07,1.08-.12,2.08,1.44,2.17" transform="translate(-194.11 -209.72)"/><path class="cls-1" d="M302.32,346.14c0-8.06-.15-16.12,0-24.19.06-2.94,0-3-3.15-3.17l-9.81-.49q-6,0-11.93,0c-1.72,0-2.64.49-2.57,2.36.06,1.52-.17,3.05-.05,4.56a156.22,156.22,0,0,1,.4,18.23c-.28,6.55.6,13.07.45,19.61,0,1.73.79,2.23,2.37,2.17,7.24-.28,14.48-.51,21.72-.77,3.25-.11,3.31-.11,3.3-3.3,0-5-.72-10-.74-15.05m-7.82-4.59a26.88,26.88,0,0,0-3.44,5.62c-.47,1.25-1.27,1.49-2.37.45-1.86-1.74-3.9-3.29-5.68-5.1-1.34-1.35-.91-2.93.91-3.43a27.43,27.43,0,0,1,11.64-.87c.32,1.44-.44,2.41-1.06,3.33" transform="translate(-194.11 -209.72)"/><path class="cls-1" d="M301.6,217.7a1.51,1.51,0,0,0,1.83-1.57c-.05-1.23-1.26-1.59-2.24-1.77a1.42,1.42,0,0,0-1.8,1.56c.07,1.25,1.07,1.66,2.21,1.78" transform="translate(-194.11 -209.72)"/><path class="cls-1" d="M387,294.74a3,3,0,0,0,3-2.85,2,2,0,0,0-1.71-2.25c-.94-.13-2.75,2-2.86,3.18s.62,1.66,1.58,1.92" transform="translate(-194.11 -209.72)"/><path class="cls-1" d="M297.84,512.1c-5.47.47-11-.19-16.43.12a5.89,5.89,0,0,0-4.28,2,74.5,74.5,0,0,0-6.17,8.42,159.33,159.33,0,0,0-8.85,15c-2,3.73-4.51,7.31-5.31,12.37,2.63-1.2,4.93-1.54,7.12-2.37a178.48,178.48,0,0,0,24.72-11.31,76.73,76.73,0,0,0,10.13-6.73,4,4,0,0,0,1.73-4.25c-.8-3.59-.31-7.21-.33-10.8,0-1.94-.6-2.62-2.33-2.47" transform="translate(-194.11 -209.72)"/><path class="cls-1" d="M360.77,516.32c4.79-.27,9.58.27,14.38-.23a2.37,2.37,0,0,0,2.47-2.26c.37-1.88-.07-3.73.07-5.6.49-6.29,1-12.57,1.75-18.84s.73-12.58,1.12-18.87c1.42-22.86,2.3-45.75,2.85-68.66q.38-7.53.74-15.06c0-.69,0-1.4,0-2.1s-.34-1.45-1.22-1.33c-2,.27-3.91-.69-5.91-.63q-8.93.3-17.87.54c-1.23,0-1.74.56-1.49,1.73a23,23,0,0,1,.32,4.54c.09,7.7,0,15.42.34,23.12.44,10.63.25,21.25.29,31.88,0,7.83-.19,15.7.68,23.47.93,8.29,0,16.56.33,24.83.26,7.12-.25,14.26-.44,21.39,0,1.14,0,2.17,1.57,2.08" transform="translate(-194.11 -209.72)"/><path class="cls-1" d="M279.18,504.64c-.05,1.51,0,3,0,4.55,0,1.3.6,1.92,2,1.74,5.36-.74,10.76-.14,16.12-.56,2.86-.23,3-.27,2.85-3-.46-8.41.77-16.77.8-25.18,0-7.32.37-14.7.66-22,.4-10.16.19-20.33.35-30.49.08-4.44.5-8.87.65-13.31.32-9.34.57-18.68.85-28,0-1.29,0-2.57.1-3.86.07-1.48-.61-2.09-2.09-2.07-3.16.05-6.32,0-9.47,0-4.78.06-9.55.16-14.39.25.05,4.42-.18,8.64.22,12.8a233.64,233.64,0,0,1,.88,32.18,69.09,69.09,0,0,0-.22,8.38c.81,9.91,1.05,19.86.93,29.75-.15,13,.18,25.91-.24,38.86m6-39.82c1-.59,1.67-.25,2.63-.27a4.41,4.41,0,0,1-2.63.27m13.5,31.33a100.19,100.19,0,0,1-11.71.85l0,.05h0l-.08,0-2.27.09a2.33,2.33,0,0,1,2.27-.09h.13a1.22,1.22,0,0,1,1-.78c3.33-.28,6.65-.82,10.72-.07m-.27-14c-4.39-.35-8.74,1-13.45.2,4.67-1.39,9.06-.68,13.45-.2m-6-67.81v.14l-4.94-.25v-.14l4.93.25m-7.83,33.28a1.69,1.69,0,0,1,.67,0,2.54,2.54,0,0,1,.54.26,8.56,8.56,0,0,1-1.11,0c-.35-.05-.38-.23-.1-.3M282.06,465a1,1,0,0,1,.65.1c.13.11-.07.28-.39.24l-.68-.11c.14-.08.28-.22.42-.23" transform="translate(-194.11 -209.72)"/><path class="cls-1" d="M375.49,517.37a96.31,96.31,0,0,1-14,.54c-1.87-.1-2.45.69-2.5,2.42-.15,4.79-.42,9.58-.6,14.38s-.12,4.68,4.38,5.86c5.64,1.47,11.22,3.07,17.06,3.76,5,.58,9.89,1.85,14.92,1.89,6.66.06,13.3.59,19.94.84,1,0,2.1.34,3.44-.71-.95-.89-1.91-1.69-2.75-2.6A98.94,98.94,0,0,0,406,534.9,128.22,128.22,0,0,0,388.81,523c-3.62-2.16-8-2.51-11.3-5.37a3,3,0,0,0-2-.27" transform="translate(-194.11 -209.72)"/><path class="cls-1" d="M260.43,288.08c1-1.28,1.83-2.41,2.77-3.44,6-6.67,11.5-13.78,17.1-20.78q7.09-8.87,14.45-17.48c3-3.58,3.08-3.43-.06-6.77-1.25-1.32-2-1.11-3.05.14-4.48,5.32-9,10.59-13.54,15.91-5.17,6.13-10.35,12.27-15.44,18.48-2,2.43-3.72,5.06-5.6,7.58-.46.61-.81,1.2-.27,1.88,1.15,1.43,1.69,3.34,3.64,4.48" transform="translate(-194.11 -209.72)"/><path class="cls-1" d="M397.28,304.87a2.19,2.19,0,0,0,2.12-2c.18-1.32-.68-1.93-1.75-2.2s-2.37,1.08-2.32,2.08a2.27,2.27,0,0,0,1.95,2.09" transform="translate(-194.11 -209.72)"/><path class="cls-1" d="M368.87,255.7c5.73,6.4,11.37,12.89,17.14,19.26s10.61,13,15.92,19.48c3.25,4,2.76,3.7,6.35.57-2.08-4.58-5.56-8.1-8.27-12.14-2.94-4.38-6.77-8-10.15-12-6.76-8-13.37-16.12-20.06-24.17-1.94-2.33-2.08-2.31-4.41-.43l-.28.21c-2.51,2.1-2.56,2.66-.36,5,1.35,1.43,2.81,2.78,4.12,4.25" transform="translate(-194.11 -209.72)"/><path class="cls-1" d="M304.23,307a2.67,2.67,0,0,0,4.12-1.71c.09-.69,0-1.39.12-2.08.19-1.63-.47-2.25-2.14-2.27s-2.48.3-2.2,2.09a7.76,7.76,0,0,1-.06,1.42c0,.6-.81,1.73.16,2.55" transform="translate(-194.11 -209.72)"/><path class="cls-1" d="M299.67,307.47c2.58.06,3.31-.76,3.44-3.88.09-2.19-.26-2.54-2.57-2.61-3.49-.09-3.53-.05-3.65,3.29-.11,3.13-.11,3.13,2.78,3.2" transform="translate(-194.11 -209.72)"/><path class="cls-1" d="M208.2,404a50.24,50.24,0,0,0,10.22,2.37c1,.13,1.51-.23,1.7-1.22s.52-1.79.7-2.7c1.05-5.38,2.2-10.73,3.65-16a69.55,69.55,0,0,1,6.6-16.85c2.8-4.79,5.74-9.54,9.69-13.52.56-.57.37-1,.17-1.54-1.22-3.39-2.41-6.8-3.67-10.18-1.2-3.21-3.15-3.54-5.39-1-7,7.86-12.36,16.8-17.13,26.18s-6.86,19.5-8.34,29.8c-.26,3.21,0,4.07,1.8,4.71" transform="translate(-194.11 -209.72)"/><path class="cls-1" d="M284.25,307a2,2,0,0,0,.35,0v-.09a20.35,20.35,0,0,1,2.07.11c1.9.28,2.34-.7,2.44-2.38.19-3.39.27-3.4-3.24-3.37-1.15,0-2.31.11-3.46.19-.59,0-1.28.15-1.33.83-.11,1.36-.42,2.87,0,4.06s2.05.52,3.14.65" transform="translate(-194.11 -209.72)"/><path class="cls-1" d="M277.63,307.13c1.3.18,1.57-.68,1.62-1.69s.11-2.09.1-3.13a.86.86,0,0,0-.91-.85,1,1,0,0,0-1.08.69c-.23,1-.36,2.06-.47,2.75-.09,1.1-.58,2,.74,2.23" transform="translate(-194.11 -209.72)"/><path class="cls-1" d="M293.26,307.28c1.56.07,2.08-.61,2.16-2s.12-2.53.2-4.05c-4.94-.5-5-.48-5.07,3.28-.07,2.57.11,2.63,2.71,2.74" transform="translate(-194.11 -209.72)"/><path class="cls-1" d="M267.33,307.31c1.44,0,1.12-1.17,1.29-2.14,0-1,.23-2.23-.88-3.07a1,1,0,0,0-1.29,0c-1,.9-.7,2.13-.55,3.25.11.87.06,2,1.43,2" transform="translate(-194.11 -209.72)"/><path class="cls-1" d="M258.7,380.35a28.36,28.36,0,0,0,4.52.43c6.9-.25,13.8,0,20.7-.08,13-.17,26,.24,38.94.28,6.07,0,12.14-.27,18.21-.41,6.68-.15,13.28,1.28,20,.95,10.41-.5,20.81-.13,31.21.28a104,104,0,0,0,12.6-.42c5.52-.47,9.36-3.48,9.51-9.56.16-6.9.64-13.78,1-20.67h.27c.23-4.56.52-9.11.66-13.68a82.54,82.54,0,0,0-.61-13.85,43.25,43.25,0,0,0-5.4-16.08c-2.71-4.69-6.63-8.44-9.9-12.69s-7-8.41-10.32-12.72c-3-3.87-6.58-7.19-9.76-10.88-4.48-5.2-9-10.37-13.6-15.46-3.95-4.35-8.12-8.49-11.82-13.11-4.67-5.82-10-11.08-15.25-16.45-1.1-1.13-2.22-2.52-3.82-3-4.8-1.44-9.56-1.9-14.3.49-3.88,1.95-6.58,5.18-9.52,8.18s-5.36,6.45-8.55,9.23c-2.6,2.26-5.63,3.89-7.93,6.68-4.22,5.12-8.58,10.13-12.75,15.29-4.63,5.72-9.35,11.35-13.89,17.12-2.71,3.43-6.43,6.15-7.67,10.65a2.12,2.12,0,0,1-.89,1.06,10.39,10.39,0,0,0-3,3.82c-1.23,2.12-2.44,4.26-3.83,6.26a30,30,0,0,0-5.17,13.57c-.61,4.84-1.25,9.69-1.44,14.6-.51,13.16-1.63,26.32,1.49,39.36,1.53,6.36,4.91,10.12,10.34,10.81m138.91-81.67c1.65.12,3.32,2.21,3.22,4-.15,2.39-1.89,4.2-3.93,4.09-1.83-.1-3.28-2.11-3.1-4.33s2-3.89,3.81-3.76m-9.17-10.4a3,3,0,0,1,3.13,3.42c-.08,2.24-2.41,4.7-4.43,4.69a4.35,4.35,0,0,1-3.86-4.24c.14-1.63,3.21-3.94,5.16-3.87m-12-12.84c2.11.36,3.07,1.63,2.75,3.64s-2.68,4.37-4.06,4.09c-2.05-.41-4.08-2.9-3.88-4.76s2.88-3.37,5.19-3m-12.76-14.07c2,0,4.21,2.06,4.2,3.89,0,2.8-1.62,4.4-4.3,4.3-2.3-.08-3.84-1.94-3.74-4.49a3.78,3.78,0,0,1,3.84-3.7m-8.14,58.86c4.44-.14,8.89-.15,13.33-.21v.15c4.09-.18,8.18-.34,12.26-.53,2.39-.1,2.85.16,2.6,2.42-.68,5.94-.28,11.91-.28,17.84,0,8.23-.72,16.49.35,24.7.26,2-.86,2-2.27,2.1-6.19.4-12.37.16-18.56.08a44.67,44.67,0,0,0-6.64.22c-2.48.35-2.65.18-2.82-2.24-.27-3.61-.6-7.23-.63-10.84-.11-10.28-.1-20.57-.09-30.85,0-2.61.12-2.76,2.75-2.84m-52.65,46.26a3.21,3.21,0,0,0-2.7-.42c-4.78.91-9.6,0-14.39.34a78.4,78.4,0,0,0-9.07.85c-1.33.24-1.94-.16-2.26-1.44a16.47,16.47,0,0,1-.33-3.13c-.75-12.72-.25-25.48-.8-38.21-.32-7.48-.27-7.42,7.34-7.63,3.75-.11,7.48,0,11.23-.06,3.27.17,6.54.43,9.81.46,2.3,0,2.64.14,2.61,2.31-.05,3.39-.11,6.78-.22,10.16-.41,11.92.11,23.82.41,35.73,0,1.54,0,2.36-1.63,1m-33.43-65.9c5-.17,10-.66,15-1a223.87,223.87,0,0,1,26.29,0c4.43.22,4.43.16,4.26,4.57-.15,3.91-1.14,4.8-5.13,4.76-12.85-.13-25.7-.69-38.55-.24a20.59,20.59,0,0,0-4.53.36c-1.66.46-2.07-.46-2.51-1.6a2.62,2.62,0,0,1-.11-.69c-.9-6-.84-6,5.25-6.17" transform="translate(-194.11 -209.72)"/><path class="cls-1" d="M270,307h3a5.37,5.37,0,0,0,1.39,0c.89-.25,1.73-3.4,1.23-4.75s-1.53-.75-2.38-.66c-3.31.35-3.31.37-3.36,3.33,0,.57,0,1.15.07,2.1" transform="translate(-194.11 -209.72)"/><path class="cls-1" d="M233.89,330.64c2.35,8.45,6.45,16.23,9.3,24.49a1.31,1.31,0,0,0,1.5,1,4.41,4.41,0,0,0,.29-2.48,184.77,184.77,0,0,1,0-20c.15-3,.18-6.08.37-9.11.1-1.62-.47-2.45-2.11-2.46-2.45,0-4.89-.13-7.23.94-2.72,1.24-3.5,2.64-2.79,5.56.17.68.49,1.32.67,2" transform="translate(-194.11 -209.72)"/><path class="cls-1" d="M207.41,431c2-2.25,4.48-4.18,5.47-7.32a21.36,21.36,0,0,1,3.41-6.85c.34-.43,1-.77,1.51-.15a.89.89,0,0,1-.08,1.25c-1.9,1.9-2.32,4.54-3.42,6.82-.94,1.94-.36,3.13,1.7,4.1,1.42.67,2.81.12,3.74-1.57a8.71,8.71,0,0,0,1.09-4.73c-.27-4.3-.7-8.6-1-12.9-.08-1.29-.9-1.51-1.81-1.72-3.75-.83-7.51-1.62-11.26-2.47a2,2,0,0,0-1.58.49c-2.85,1.74-5.06,3.89-5.95,7.33a62.28,62.28,0,0,0-1.43,7.62c-.59,3.15.58,6.58,3,9.63,2.25,2.82,4.17,3.17,6.56.47" transform="translate(-194.11 -209.72)"/><path class="cls-2" d="M208.63,434.24c1-.77,2.3-1.27,2.9-2.49.51-1.05,1.06-.85,1.93-.38,5,2.71,9.42.65,10.34-4.9a31.61,31.61,0,0,0,.34-8.74,52.86,52.86,0,0,1,.24-16c2.2-12,5.19-23.73,11.79-34.2a45.65,45.65,0,0,1,6.06-8.07c2.15,3.45,2.5,4.78,2.8,10.26a15.51,15.51,0,0,0,10.67,13.73c4.29,1.34,8.73,1.37,13.16,1.63,5.54.31,5.53.4,5.57,5.87,0,.82,0,1.65,0,2.46.8,9.21.87,18.45,1,27.68.08,5.49-.54,11-.25,16.49.72,13.53.83,27.09.8,40.63,0,8.3-.61,16.6-.36,24.89.13,4.19,0,8.17-3.64,11.06a1,1,0,0,0-.2.28c-4.21,7.41-9.15,14.38-13,22-1.95,3.82-4.16,7.51-5.06,11.83-.8,3.86.67,5.66,4.53,4.78a84.44,84.44,0,0,0,13.5-4.82c10.8-4.5,21.16-9.79,30.45-17a3.84,3.84,0,0,0,1.81-3.47c-.12-4.43-.6-8.86-.08-13.29s-.28-9.11,0-13.66c.57-10,1-20.08,1.14-30.13.15-11.7,0-23.39.25-35.08.35-14.38,1.39-28.74,1.2-43.13,0-1.75.2-3.51.26-5.26s.83-2.56,2.61-2.56,3.73-.19,5.6-.18c3.86,0,7.73.32,11.58.17a226.22,226.22,0,0,1,24.15,0c3.54.23,3.89.49,3.72,4-.53,11.12,1.06,22.17.8,33.3-.18,7.57-.14,15.18-.06,22.78.06,5.25,0,10.51.21,15.76.32,6.85.94,13.7.76,20.56s.22,14-.18,21c-.48,8.27-.07,16.57-.61,24.85-.26,4-.31,8-.41,11.93,0,1.17-.09,2.6,1.18,3.06,1.54.55,2.82,1.56,4.44,2,11.79,3,23.68,5.45,35.88,6.09,4.66.24,9.34.43,14,.63a37,37,0,0,0,8.73-.5c2.78-.56,3.53-2.39,2.14-4.91a9.09,9.09,0,0,0-1.8-2.12c-2.05-1.91-4.06-3.86-6-5.88-5.13-5.31-11.19-9.45-17.22-13.59a71.94,71.94,0,0,0-13.06-6.72c-1.26-.53-2.16-1.14-2-2.8.44-6.06.45-12.17,1.18-18.2,1.64-13.49,1.59-27.08,2.69-40.6.5-6.16.57-12.37,1.15-18.52a243,243,0,0,0,1.29-27c-.13-7.13,0-14.26,0-21.39,0-3.3.12-3.21,3.36-3.18,4.66.06,9.33,0,14,0a18.5,18.5,0,0,0,7.75-2c2.92-1.38,4.56-4.27,5-7.59a11.47,11.47,0,0,1,2.54-5.57,10.55,10.55,0,0,1,3.21,3.44c1.59,2.58,3.22,5.13,4.8,7.72,3.95,6.48,6.82,13.47,9.66,20.48A84.54,84.54,0,0,1,441,412c1.76,6.63,2.61,13.27-.52,19.82a21.42,21.42,0,0,0-1.84,6.74,9.12,9.12,0,0,0,5.27,9.69c1.15.55,1.34,1.34,1.62,2.41.71,2.68,1.42,5.3,3.52,7.47,2.7,2.79,6.13,3.87,9.62,4.5,4.87.89,7.82-1,10-5.62a31.7,31.7,0,0,0,2.3-5.09c.86-3.12,2.78-6,2.39-9.4a81.67,81.67,0,0,0-2-12.06c-1.4-5.2-4.8-9.68-4.9-15.41-.05-3.3-1.32-6.6-2.24-9.85-2.25-7.85-5.11-15.52-8.12-23.09a191.13,191.13,0,0,0-18.18-34.18c-1.22-1.85-2.95-3.28-3.89-5.35-.44-1-.62-1.65,0-2.53a24.36,24.36,0,0,0,2.61-4.95c2-4.64-.25-10.91-6.86-11.45-2.79-.22-5.56-.55-8.35-.76-1.63-.13-2.63-.82-2.79-2.52-.62-6.36-3.83-11.66-6.95-17-.84-1.42-2.72-2.19-2.88-3.85-.2-2,2.19-2.43,3-3.95.75-1.33.84-2.12-.31-3.3a75.43,75.43,0,0,1-4.9-5.92c-3.48-4.37-6.08-9.41-10.4-13.14-1.35-1.16-1.45-2.58-.72-4.38a16.75,16.75,0,0,1,4.35-5.84c2.94-2.74,6.3-5,10.69-4.19a23.05,23.05,0,0,1,11.94,5.51,56.35,56.35,0,0,0,14.42,10.32c5.15,2.43,11.9,1.59,15.52-2.84a5.78,5.78,0,0,1,4.34-2.43c2.45-.2,2.75-.58,3-2.94a15.55,15.55,0,0,0,.11-2.81,4.84,4.84,0,0,0-3.88-4.72c-3.33-.58-5.6.39-6.72,3a5,5,0,0,0,.77,5.27c.56.74.79,1.38.15,2.18-1.67,2.12-7.83,3.92-10.4,2.7-4.31-2.06-8.62-4.1-11.95-7.78a28.74,28.74,0,0,0-17-9,10.79,10.79,0,0,0-5.82.56,22,22,0,0,0-11.32,9.93,5.63,5.63,0,0,1-2.05,2.61c-1.33-1.7-2.65-3.31-3.88-5-4.73-6.39-10-12.29-15.29-18.24-4.3-4.85-4.68-4.89-9.43-.71-1.06.94-1.59.74-2.55-.21-1.74-1.73-3-3.84-4.68-5.6-3.3-3.44-6.27-7.22-9.63-10.56-3.72-3.69-7.27-7.71-13-9-3.5-.78-6.65-1.15-9.85.3a38.06,38.06,0,0,0-7.54,4.37A52.88,52.88,0,0,0,306,234.05a19.41,19.41,0,0,1-5.38,5.42c-1,.58-1.56.73-2.33-.1-.95-1-1.87-2.08-2.91-3-1.57-1.38-3.65-1.55-4.75-.33-2.87,3.21-5.79,6.39-8.43,9.78-3.81,4.89-8,9.44-12,14.14-1.57,1.84-2,1.8-3.19-.49-2.21-4.45-1.35-9,.7-13.11a18.13,18.13,0,0,1,10.92-9.28c5.74-1.91,11.47-3.8,16.27-7.69,2.18-1.76,4.55-3.29,6.25-5.58a9.89,9.89,0,0,1,3.31-3,5.11,5.11,0,0,0,2.24-7.21,6.64,6.64,0,0,0-5.44-3.9c-2.29-.23-3.53,1.46-4.32,3-1,2-1.32,4.3.7,6.13,1.49,1.35.94,2.69-.13,3.9a14.54,14.54,0,0,1-2.57,2.32c-4.28,3-8.32,6.37-13.72,7.43a23.55,23.55,0,0,0-7.48,2.83C266,240,261.91,246.8,262.58,256.06a9.51,9.51,0,0,0,1.9,5.51c2,2.58,1.9,3,0,5.43-2.59,3.3-5.2,6.58-7.66,10-4,5.54-4,5.6-.1,11.42a1.6,1.6,0,0,1,0,2.15c-1.53,2.32-2.92,4.75-4.58,7-3.19,4.29-5,9.18-6.59,14.18-.78,2.37-.09,4.89-1.1,7.27a18.64,18.64,0,0,0-9.66,1.48c-4.61,2.27-5.73,4.61-5.56,9.09a11.06,11.06,0,0,0,1.31,4.69c1.29,2.5,1.16,4.41-1.12,6.5A55.18,55.18,0,0,0,222,349.1a116.79,116.79,0,0,0-12.32,22.3,85.79,85.79,0,0,0-6.91,29.85c-.06,1.25.25,2.6-1.29,3.31-2.76,1.28-3.86,3.81-5,6.43-3.05,6.81-3.29,13.46.12,20.23,2.19,4.34,7.45,6.51,12,3m255.82-11.61c2.76,5.09,4.1,10.57,5.07,16.23.89,5.14-.75,9.71-2.62,14.19s-9.89,6.51-14,3.56a6.84,6.84,0,0,1-2.52-3.68,27.2,27.2,0,0,1-1-9,32,32,0,0,0-.74-8c-.16-.72-.1-1.73-1.29-1.86-.92,1.4.52,2.62.35,4s0,2.81-.18,4.2c-.1.92.63,2.26-.91,2.63a2.94,2.94,0,0,1-3-1.27,5.77,5.77,0,0,1-1.51-4.85,33,33,0,0,1,1.38-6.13,27.7,27.7,0,0,0,2.13-7.37,3,3,0,0,1,3.13-3c3.82-.35,7.64-1,11.42-1.65a3.56,3.56,0,0,1,4.29,2.05m-15.81-48.85a257.29,257.29,0,0,1,12.56,33.33A67.7,67.7,0,0,1,463,416c.31,1.75-.31,2.56-2.12,2.81-4.95.67-9.91,1.26-15,1.9A50.86,50.86,0,0,0,443.52,408c-1.31-4-2.58-8-4.27-11.79-1-2.34-1.79-4.78-3-7.09-4.15-8.16-8.22-16.36-14.62-23.09a1.33,1.33,0,0,1,0-1.88c2.2-3.18,3.4-6.92,5.45-10.16,1.69-2.69,2.31-5.86,4.1-8.45,1.12-.12,1.43.77,1.85,1.38a193.59,193.59,0,0,1,15.59,26.86m-32.39-12.3c.56-7.81.7-15.64,1.58-23.44.38-3.46-.21-7,.39-10.48.16-.94.32-1.61,1.39-1.51,3.49.33,7,.55,10.46,1.1,2.9.46,3.5,1.46,3.23,4.35a19.73,19.73,0,0,1-.56,2.73c-.7,3-2.43,5.52-4,8.09,1,3.43-1.31,5.92-2.54,8.69s-2.72,5.42-3.92,8.2c-1.5,3.45-3.86,6.35-5.5,9.69l-.87-.18c.12-2.42.2-4.83.37-7.24m38.19-99.33c.8-.07,1.75.12,1.79,1.2.06,1.39-1,1.71-2.09,1.8-.93-.15-2.08-.27-2.05-1.45,0-1.36,1.34-1.46,2.35-1.55M301.19,214.36c1,.18,2.19.54,2.24,1.77a1.51,1.51,0,0,1-1.83,1.57c-1.14-.12-2.13-.53-2.21-1.78a1.42,1.42,0,0,1,1.8-1.56M278.49,436a69.09,69.09,0,0,1,.22-8.38,233.64,233.64,0,0,0-.88-32.18c-.4-4.16-.17-8.38-.22-12.8,4.84-.09,9.61-.19,14.38-.25,3.16,0,6.32,0,9.48,0,1.48,0,2.16.59,2.09,2.07-.06,1.29-.06,2.57-.1,3.86-.28,9.33-.53,18.67-.85,28-.15,4.44-.57,8.87-.65,13.31-.16,10.16.05,20.33-.35,30.49-.29,7.34-.63,14.72-.66,22,0,8.41-1.26,16.77-.8,25.18.15,2.74,0,2.78-2.85,3-5.36.42-10.76-.18-16.12.56-1.37.18-1.95-.44-2-1.74,0-1.52-.08-3,0-4.55.42-12.95.09-25.91.24-38.86.12-9.89-.12-19.84-.93-29.75m22,89.34a4,4,0,0,1-1.73,4.25,77.74,77.74,0,0,1-10.13,6.73,178.48,178.48,0,0,1-24.72,11.31c-2.19.83-4.49,1.17-7.12,2.37.8-5.06,3.29-8.64,5.31-12.37a159.33,159.33,0,0,1,8.85-15,73.61,73.61,0,0,1,6.17-8.42,5.89,5.89,0,0,1,4.28-2c5.47-.31,11,.36,16.43-.12,1.73-.15,2.32.53,2.33,2.47,0,3.59-.47,7.21.33,10.8m59.14-32.52c-.3-8.27.6-16.53-.33-24.83-.87-7.77-.65-15.64-.68-23.47,0-10.63.15-21.25-.29-31.88-.32-7.7-.25-15.42-.34-23.12a23,23,0,0,0-.32-4.54c-.25-1.17.26-1.7,1.49-1.73,6-.15,11.92-.34,17.87-.53,2-.07,3.88.89,5.91.62.88-.12,1.19.55,1.22,1.33s0,1.4,0,2.1q-.36,7.53-.74,15.06c-.55,22.91-1.43,45.8-2.85,68.66-.39,6.29-.42,12.62-1.12,18.87s-1.26,12.55-1.75,18.84c-.14,1.87.3,3.72-.07,5.6a2.37,2.37,0,0,1-2.47,2.26c-4.8.5-9.59,0-14.38.23-1.56.09-1.6-.94-1.57-2.08.19-7.13.7-14.27.44-21.39M388.81,523A128.22,128.22,0,0,1,406,534.9a98.94,98.94,0,0,1,9.35,8.85c.84.91,1.8,1.71,2.75,2.6-1.34,1-2.42.74-3.44.71-6.64-.25-13.28-.78-19.94-.84-5,0-9.94-1.31-14.92-1.89-5.84-.69-11.42-2.29-17.06-3.76-4.5-1.18-4.55-1.16-4.38-5.86s.45-9.59.6-14.38c.05-1.73.63-2.52,2.5-2.42a96.31,96.31,0,0,0,14-.54,3,3,0,0,1,2,.27c3.26,2.86,7.68,3.21,11.3,5.37m-23.7-276.54.28-.22c2.34-1.88,2.47-1.9,4.41.43,6.69,8,13.3,16.18,20.06,24.17,3.38,4,7.21,7.64,10.15,12,2.71,4,6.19,7.56,8.27,12.14-3.59,3.13-3.1,3.42-6.35-.57-5.31-6.5-10.28-13.26-15.92-19.48S374.6,262.1,368.87,255.7c-1.31-1.47-2.77-2.82-4.12-4.25-2.2-2.33-2.15-2.89.36-5M256.79,283.6c-.54-.68-.19-1.27.27-1.88,1.88-2.52,3.62-5.15,5.6-7.58,5.09-6.21,10.27-12.35,15.44-18.48,4.5-5.32,9.06-10.59,13.54-15.91,1.05-1.25,1.8-1.46,3.05-.14,3.14,3.34,3.1,3.19.06,6.76-4.89,5.77-9.72,11.58-14.45,17.49-5.6,7-11.08,14.11-17.1,20.78-.94,1-1.75,2.16-2.77,3.44-1.95-1.14-2.49-3.05-3.64-4.48m-8.48,32A30.06,30.06,0,0,1,253.48,302c1.39-2,2.6-4.14,3.83-6.26a10.39,10.39,0,0,1,3-3.82,2.12,2.12,0,0,0,.89-1.06c1.24-4.5,5-7.22,7.67-10.65,4.54-5.77,9.26-11.41,13.89-17.12,4.17-5.16,8.53-10.17,12.75-15.29,2.31-2.79,5.33-4.42,7.93-6.68,3.19-2.78,5.61-6.24,8.55-9.23s5.64-6.23,9.52-8.18c4.74-2.39,9.5-1.93,14.3-.49,1.6.49,2.72,1.88,3.82,3,5.21,5.37,10.59,10.63,15.25,16.45,3.7,4.62,7.87,8.76,11.82,13.12,4.61,5.08,9.12,10.25,13.6,15.45,3.18,3.69,6.76,7,9.76,10.88,3.35,4.31,7,8.39,10.32,12.72s7.19,8,9.9,12.69a42.89,42.89,0,0,1,5.4,16.08,82.54,82.54,0,0,1,.61,13.85c-.14,4.56-.43,9.12-.66,13.68l-.27,0c-.35,6.9-.83,13.78-1,20.68-.15,6.08-4,9.09-9.51,9.55a102,102,0,0,1-12.6.43c-10.4-.41-20.8-.78-31.21-.27-6.68.32-13.28-1.11-20-1-6.07.14-12.14.43-18.21.41-13,0-26-.45-38.94-.28-6.9.09-13.8-.17-20.7.08a28.36,28.36,0,0,1-4.52-.43c-5.43-.69-8.81-4.45-10.34-10.81-3.12-13-2-26.2-1.49-39.36.19-4.91.83-9.76,1.44-14.6m-12.3,7.5c2.34-1.06,4.78-.94,7.23-.93,1.64,0,2.21.84,2.11,2.46-.19,3-.22,6.07-.37,9.11a184.77,184.77,0,0,0,0,20,4.41,4.41,0,0,1-.29,2.48,1.31,1.31,0,0,1-1.5-1c-2.85-8.26-6.95-16-9.3-24.49-.18-.67-.5-1.31-.67-2-.71-2.92.07-4.32,2.79-5.57m-29.61,76.2c1.48-10.3,3.53-20.37,8.34-29.8s10.09-18.32,17.13-26.18c2.24-2.51,4.19-2.17,5.39,1,1.26,3.38,2.45,6.79,3.67,10.18.2.54.39,1-.17,1.54-4,4-6.89,8.73-9.69,13.52a69.55,69.55,0,0,0-6.6,16.85c-1.45,5.29-2.6,10.64-3.65,16-.18.91-.52,1.79-.7,2.7s-.66,1.35-1.7,1.22A50.24,50.24,0,0,1,208.2,404c-1.81-.64-2.06-1.5-1.8-4.71m-8.56,21.62a62.28,62.28,0,0,1,1.43-7.62c.89-3.44,3.1-5.59,5.95-7.33a2,2,0,0,1,1.58-.49c3.75.85,7.51,1.64,11.26,2.47.91.21,1.73.43,1.81,1.72.26,4.3.69,8.6,1,12.9a8.63,8.63,0,0,1-1.1,4.73c-.92,1.69-2.31,2.24-3.73,1.57-2.06-1-2.64-2.16-1.7-4.1,1.1-2.28,1.52-4.92,3.42-6.82a.89.89,0,0,0,.08-1.25c-.53-.62-1.17-.28-1.51.15a21.36,21.36,0,0,0-3.41,6.85c-1,3.14-3.47,5.07-5.47,7.32-2.39,2.7-4.31,2.35-6.56-.47-2.43-3-3.6-6.48-3-9.63" transform="translate(-194.11 -209.72)"/><path class="cls-2" d="M304.15,329.72c.11-3.39.17-6.77.22-10.16,0-2.17-.31-2.29-2.61-2.31-3.27,0-6.54-.29-9.81-.46-3.75,0-7.48-.05-11.23.06-7.61.21-7.66.15-7.34,7.63.55,12.73.05,25.49.8,38.21a16.55,16.55,0,0,0,.33,3.13c.32,1.28.93,1.68,2.26,1.44a78.4,78.4,0,0,1,9.07-.85c4.79-.33,9.61.57,14.39-.34a3.21,3.21,0,0,1,2.7.42c1.61,1.32,1.66.5,1.63-1-.3-11.91-.82-23.81-.41-35.73m-4.39,34.77c-7.24.26-14.48.49-21.72.77-1.58.06-2.41-.44-2.37-2.17.15-6.54-.73-13.06-.45-19.61a156.22,156.22,0,0,0-.4-18.23c-.12-1.51.11-3,.05-4.56-.07-1.87.85-2.33,2.57-2.36q6-.07,11.93,0l9.81.49c3.11.16,3.21.23,3.15,3.17-.16,8.07-.05,16.13,0,24.19,0,5,.73,10,.74,15.05,0,3.19-.05,3.19-3.3,3.3" transform="translate(-194.11 -209.72)"/><path class="cls-2" d="M264.36,307.45c.44,1.14.85,2.06,2.51,1.6a20.59,20.59,0,0,1,4.53-.36c12.85-.45,25.7.11,38.55.24,4,0,5-.85,5.13-4.76.17-4.41.17-4.35-4.26-4.57a221.72,221.72,0,0,0-26.29,0c-5,.34-10,.83-15,1-6.09.2-6.15.14-5.25,6.17a2.62,2.62,0,0,0,.11.69m45.12-2.16c0-.46,0-.92.07-1.38s.11-1.15.18-1.72c.09-.87.67-1.14,1.44-1.11s1.7-.12,2,.92a10.87,10.87,0,0,1,.24,3.42c-.07,1.69-.95,2.13-2.48,2s-1.51-1.09-1.44-2.17M304.13,303c-.28-1.79.61-2.12,2.2-2.09s2.33.64,2.14,2.27c-.08.69,0,1.39-.12,2.08a2.67,2.67,0,0,1-4.12,1.71c-1-.82-.13-1.95-.16-2.55a7.76,7.76,0,0,0,.06-1.42M300.54,301c2.31.07,2.66.42,2.57,2.61-.13,3.12-.86,3.94-3.44,3.88-2.89-.07-2.89-.07-2.78-3.2.12-3.34.16-3.38,3.65-3.29m-4.92.28c-.08,1.52-.14,2.79-.2,4.05s-.6,2-2.16,2c-2.6-.11-2.78-.17-2.71-2.74.11-3.76.13-3.78,5.07-3.28m-14.53,1c.05-.68.74-.79,1.33-.83,1.15-.08,2.31-.18,3.47-.19,3.5,0,3.42,0,3.23,3.37-.1,1.68-.54,2.66-2.44,2.38a20.35,20.35,0,0,0-2.07-.11.28.28,0,0,0,0,.09c-.12,0-.23,0-.35,0-1.09-.14-2.67.58-3.14-.66s-.13-2.7,0-4.06m-4.2,2.6c.11-.69.24-1.73.47-2.75a1,1,0,0,1,1.08-.69.86.86,0,0,1,.91.85c0,1,0,2.09-.1,3.13s-.32,1.87-1.62,1.69-.83-1.13-.74-2.23m-3.56-3.37c.85-.09,1.92-.57,2.38.66s-.34,4.5-1.23,4.75a5.37,5.37,0,0,1-1.39,0h-3c0-.95-.08-1.53-.07-2.1,0-3,0-3,3.36-3.33m-6.88.57a1,1,0,0,1,1.29,0c1.11.84.84,2,.88,3.07-.17,1,.15,2.12-1.29,2.14s-1.32-1.09-1.43-2c-.14-1.12-.48-2.35.55-3.25" transform="translate(-194.11 -209.72)"/><path class="cls-2" d="M352.92,353.92c0,3.61.36,7.23.63,10.84.17,2.42.34,2.59,2.82,2.24a44.67,44.67,0,0,1,6.64-.22c6.19.08,12.37.32,18.56-.08,1.41-.09,2.53-.12,2.27-2.1-1.07-8.21-.35-16.47-.35-24.69,0-6-.4-11.91.28-17.85.25-2.26-.21-2.52-2.6-2.42-4.08.19-8.17.35-12.26.53V320c-4.44.07-8.89.08-13.33.22-2.63.08-2.75.23-2.75,2.84,0,10.29,0,20.57.09,30.85m4.84-32.58a7.7,7.7,0,0,1,2.44,0c5.93,1.1,11.86.15,17.79.17a17,17,0,0,0,1.75,0c1.61-.19,2.47.33,2.2,2.11a12.16,12.16,0,0,0-.13,2.09q0,13.49.09,26.95H382c0,3.51,0,7,0,10.51,0,1.23-.12,1.93-1.59,2.05a196.72,196.72,0,0,1-23.79.21c-1.77-.07-1.71-1.09-1.74-2.33-.17-7.81-.4-15.63-.56-23.44-.1-4.78-.2-9.56-.14-14.34.05-3.3.28-3.45,3.59-3.88" transform="translate(-194.11 -209.72)"/><path class="cls-2" d="M363.62,269.56c2.67.1,4.27-1.5,4.3-4.31,0-1.82-2.22-3.88-4.2-3.88a3.78,3.78,0,0,0-3.84,3.7c-.1,2.55,1.44,4.41,3.74,4.49m.14-6.5a2.41,2.41,0,0,1,2.48,2.73c-.16,1.3-.78,2.19-2.22,2.23s-1.93-.95-1.82-3.09c-.11-1.18.42-1.85,1.56-1.87" transform="translate(-194.11 -209.72)"/><path class="cls-2" d="M387.14,296.39c2,0,4.35-2.45,4.43-4.69a3,3,0,0,0-3.13-3.42c-1.95-.07-5,2.24-5.16,3.87a4.35,4.35,0,0,0,3.86,4.24m1.09-6.75a2,2,0,0,1,1.71,2.25,3,3,0,0,1-3,2.85c-1-.26-1.69-.74-1.58-1.92s1.92-3.31,2.86-3.18" transform="translate(-194.11 -209.72)"/><path class="cls-2" d="M375.17,283.17c1.38.28,3.75-2.1,4.06-4.09s-.64-3.28-2.75-3.64c-2.31-.4-5,1.13-5.19,3s1.83,4.35,3.88,4.76m.59-6.41c1.22.18,2,.85,1.68,2.15-.24,1.13-.6,2.27-1.89,2.55a3.31,3.31,0,0,1-2.31-2.85,2.19,2.19,0,0,1,2.52-1.85" transform="translate(-194.11 -209.72)"/><path class="cls-2" d="M396.9,306.77c2,.11,3.78-1.7,3.93-4.09.1-1.79-1.57-3.88-3.22-4-1.85-.13-3.64,1.64-3.81,3.76s1.27,4.23,3.1,4.33m.75-6.07c1.07.27,1.93.88,1.75,2.2a2.19,2.19,0,0,1-2.12,2,2.27,2.27,0,0,1-1.95-2.09c-.05-1,1.39-2.33,2.32-2.08" transform="translate(-194.11 -209.72)"/><path class="cls-2" d="M298.37,482.11c-4.39-.48-8.78-1.19-13.45.2,4.71.78,9.06-.55,13.45-.2" transform="translate(-194.11 -209.72)"/><path class="cls-2" d="M287.92,496.22a1.22,1.22,0,0,0-1,.78,100.19,100.19,0,0,0,11.71-.85c-4.07-.75-7.39-.21-10.72.07" transform="translate(-194.11 -209.72)"/><path class="cls-2" d="M292.35,414.44v-.14l-4.93-.25v.14l4.94.25" transform="translate(-194.11 -209.72)"/><path class="cls-2" d="M287.77,464.55c-1,0-1.6-.32-2.63.27a4.41,4.41,0,0,0,2.63-.27" transform="translate(-194.11 -209.72)"/><path class="cls-2" d="M284.53,497.1l2.27-.09a2.33,2.33,0,0,0-2.27.09" transform="translate(-194.11 -209.72)"/><path class="cls-2" d="M286.8,497l.08,0h0l0-.05h-.13" transform="translate(-194.11 -209.72)"/><path class="cls-2" d="M285.73,447.85a2.73,2.73,0,0,0-.54-.24,1.53,1.53,0,0,0-.67,0c-.28.07-.25.25.1.3a7.23,7.23,0,0,0,1.11,0" transform="translate(-194.11 -209.72)"/><path class="cls-2" d="M282.71,465.12a1,1,0,0,0-.65-.1c-.14,0-.28.15-.42.22l.68.12c.32,0,.52-.13.39-.24" transform="translate(-194.11 -209.72)"/><path class="cls-2" d="M283.92,339.09c-1.82.5-2.25,2.08-.91,3.43,1.78,1.81,3.83,3.36,5.68,5.1,1.1,1,1.9.8,2.37-.46a27.07,27.07,0,0,1,3.44-5.61c.62-.92,1.38-1.89,1.06-3.32a27.27,27.27,0,0,0-11.64.86m5.47,6.9c-1.57-1.78-4.06-2.57-5.28-5.13a26.8,26.8,0,0,1,9.66-1.34,29,29,0,0,1-4.38,6.47" transform="translate(-194.11 -209.72)"/><path class="cls-2" d="M367,347.57c3.45,3.7,3.52,3.75,6.56-.27,1.39-1.84,2.5-3.89,3.56-5.56.09-1.94-.81-2.46-2.17-2.38a48.48,48.48,0,0,0-10.3,1.76c-1.77.49-2,1.77-.77,3.16,1,1.14,2.1,2.18,3.12,3.29m8.58-6.45c-1.54,2.13-2.12,4.43-4,6-.69.57-1.29,1.05-2.08.29-1.46-1.44-2.9-2.9-4.83-4.83,4-.65,7.22-1.43,10.89-1.42" transform="translate(-194.11 -209.72)"/></svg>