<svg id="Layer_1" data-name="Layer 1" xmlns="http://www.w3.org/2000/svg" viewBox="0 0 226.73 357.59"><defs><style>.cls-1{fill:#fff;}.cls-2{fill:#010101;}</style></defs><path class="cls-1" d="M419.69,491.61c1.66-1.29,1.43-2.89-.15-4.26-1.32-1.13-3-1.63-4.44-2.44-2.68-1.47-4.71-4-7.85-4.73-1.92-.46-4.6-.09-4.85,1.07a54.43,54.43,0,0,0-1.11,10.3c.28,2.94.53,5.73.82,8.52.23,2.21,1.83,3.13,3.76,2a19.1,19.1,0,0,0,4.93-3.35c.83-.91,1.68-2.28,2.7-2.47,2.92-.55,4.17-3.08,6.19-4.65" transform="translate(-200.16 -239.1)"/><path class="cls-1" d="M410.91,501.54c-.76,0-.72.85-.94,1.34a9.85,9.85,0,0,0-.44,1.88,39.56,39.56,0,0,0,1.32,4.29,6.16,6.16,0,0,0,4.35,3.41,1.58,1.58,0,0,0,1.66-.3c.45-.57-.44-.81-.58-1.25-.93-2.91-3.19-5.14-4.07-8.07-.2-.68-.52-1.32-1.3-1.3" transform="translate(-200.16 -239.1)"/><path class="cls-1" d="M401.57,476.2c-1.33-1.13-2.15-2.7-3.69-3.73a14,14,0,0,1-4.19-3.83c-2.64-4-6.71-6.15-10.75-8.37-3.53-1.95-7.53-2.92-10.84-5.3l.06,0c-1.5.49-2.73-1.29-4.52-.58,4.42,1.93,8.05,4.67,11.87,7.07,5,3.16,9.8,6.72,14.6,10.22a30.12,30.12,0,0,1,6.07,5.65c.39.49.37,1.78,1.44,1.12s.49-1.85-.05-2.3" transform="translate(-200.16 -239.1)"/><path class="cls-1" d="M292.9,534.71c.56-4.51.31-4.69-3.75-6.6-.21-.1-.41-.19-.61-.3-2.36-1.24-2.41-1.23-2.36,1.54.14,7.41.34,14.81.49,20.9,0,8.51.19,15.69-.07,22.88-.12,3.16.87,3.73,4,2.91,1.8-.46,1.94-1.67,1.11-2.77a5.79,5.79,0,0,1-.9-4.21c.56-11.46.63-22.94,2.06-34.35" transform="translate(-200.16 -239.1)"/><path class="cls-1" d="M418.23,496.16c-.57.49-.26,1.06,0,1.6,1.33,2.46,2.64,4.92,4,7.37.33.61.51,1.58,1.5,1.29s.81-1.27.81-2.07c0-3-1.61-5.29-3.11-7.65a4.07,4.07,0,0,0-1.21-.92c-.79-.54-1.44-.11-2,.38" transform="translate(-200.16 -239.1)"/><path class="cls-1" d="M330.75,539.41c.36-3.3.28-6.65.36-10,0-.64,0-1.6-1-1a17,17,0,0,1-4.93,2.43c-.5.11-.42.71-.42,1.15,0,3.91,0,7.83.11,11.75.28,7.08,1.47,14.11,1,20.75,0,4.1,0,7.73-.11,11.36,0,1.57.6,2.11,2.12,2,2.59-.23,3.46-1.11,3.23-3.7-.18-2-.88-4-.72-5.9.4-4.81-.51-9.57-.28-14.35s.19-9.7.71-14.53" transform="translate(-200.16 -239.1)"/><path class="cls-1" d="M333.73,574.94c.67,2.89-1.75,3.59-3.29,4.71-2.61,1.89-6.59.07-7.09-3.11-.26-1.62-1.1-1.85-2.26-1-.76.55-2,.78-1.84,2.19a3.74,3.74,0,0,0,2.19,2.83c2.48,1.4,5.18.85,7.79,1,1.78,0,3.55.09,5.32,0,1.54,0,4.32-2.34,4.44-3.54.16-1.54-1.62-3.59-3.6-4.1-.92-.24-1.92,0-1.66,1" transform="translate(-200.16 -239.1)"/><path class="cls-1" d="M336.39,583c-5.2,2.15-10.42,1.25-15.5-.38-1.48-.47-2-.71-1.88,1.05,0,.44,0,.89,0,1.33-.19,2.91.59,4.62,2.62,5.25,3.26,1,6.63,1.82,10.05,1.33,5.51-.79,7.2-2.29,7.46-6.85.16-2.89,0-2.85-2.74-1.73" transform="translate(-200.16 -239.1)"/><path class="cls-1" d="M343.7,490.24c-7,.08-14.08-.05-21.13-.05a220.4,220.4,0,0,1-30.8-1.94c-6.82-1-13.63-1.87-20.4-3.15-3.48-.65-3.88-.17-3.42,3.38.4,3.15.94,6.29,1.5,9.42.85,4.78,1.75,9.48,4.85,13.56a98.37,98.37,0,0,0,8.52,9.6c2.73,2.75,6.06,4.29,9.48,5.78s6.54,3.16,10.14,3.57a46.71,46.71,0,0,0,11.2.26c.79,0,1.9.05,3,0a14.48,14.48,0,0,0,3.3-.29c9.88-2.68,17.23-8.35,21.95-17.64,3.36-6.61,3.71-13.56,3.82-20.66,0-1.29-.48-1.86-2-1.85" transform="translate(-200.16 -239.1)"/><path class="cls-1" d="M346.14,467.55c-.12-5-.59-10.78-.16-16.55.14-1.72-.25-2.45-2.14-2.19-10.18,1.43-20.42,1-30.64.77a210.62,210.62,0,0,1-30.1-2.42c-4.45-.73-8.87-1.66-13.3-2.53-1.6-.32-2.42-.15-2.24,1.91.33,3.6.36,7.24.42,10.86.11,7.47-.51,14.93-.1,22.4.05.81-.46,1.84.88,2.16,1.58.37,3.14.84,4.74,1.16,4.84,1,9.71,1.74,14.65,2.23,4.61.45,9.23,1.08,13.85,1.63,7.15.85,14.35.51,21.51,1a170.74,170.74,0,0,0,20.36.09c1.08-.06,2.11,0,2.12-1.57,0-6.08.09-12.15.15-19M288,480.07c-1,.07-1.45-.24-1.47-1.1,0-1.16.91-1.25,1.66-1.36a1.33,1.33,0,0,1,1.54,1.47c0,1.16-1.3.61-1.73,1m31.54,3.57c-1,.07-1.23-.92-1.39-1.68a1.34,1.34,0,0,1,1.3-1.68,1.43,1.43,0,0,1,1.73,1.33c-.28.87-.47,1.95-1.64,2" transform="translate(-200.16 -239.1)"/><path class="cls-1" d="M354.15,438.12c-.64-1.23-4.37-2.37-5.54-1.75a1,1,0,0,0-.51,1.12c.66,4.65-.6,9.28,0,14.21-.05,1-.12,2.23-.2,3.48s-.47,2.71.21,3.68,2,0,3.09.05c2.83,0,3.76-.59,4.06-3.35.57-5.13.1-10.26-.31-15.38a5.72,5.72,0,0,0-.76-2.06" transform="translate(-200.16 -239.1)"/><path class="cls-1" d="M346.39,433.29c.09-3.46-.5-6.9-.06-10.4.3-2.37-.84-3.17-3.19-3.15-4.82.06-9.48,1.5-14.27,1.71-11,.47-22,1.17-33-.53-5.24-.81-10.48-1.66-15.71-2.5a66.33,66.33,0,0,1-9.6-2.58c-3.17-1-3.72-.64-3.35,2.72.56,5.09-.2,10.17.36,15.24,0,2.22-.05,4.44-.05,6.66,0,1,.26,1.6,1.46,1.8,7.66,1.27,15.31,2.59,23.05,3.36,5.44.54,10.91.75,16.37,1.1,5.15.33,10.28.94,15.46.94,6.6,0,13.16-.68,19.75-1,1.69-.08,2.55-.43,2.67-2.54.19-3.63,0-7.24.08-10.86m-57.44,6a1.16,1.16,0,0,1-1.28-1.4c.06-.89.79-1.14,1.43-1.36.91.21,1.45.66,1.48,1.51,0,1.14-.71,1.26-1.63,1.25m28.57,3.41a1.47,1.47,0,0,1-1.54-1.76,1.58,1.58,0,0,1,1.64-1.48c1.19-.05,1.26.76,1.31,1.57s-.33,1.67-1.41,1.67" transform="translate(-200.16 -239.1)"/><path class="cls-1" d="M385.84,460.52a.87.87,0,0,0-.24-.7c-4.92-4.31-10.66-7.22-16.49-10-2.63-1.27-5.6-1.74-8-3.67-.91-.75-2.43-1.43-3.69-.57-.94.63,0,4.32,1.07,4.72a75.45,75.45,0,0,0,8.4,2.71c1.77.4,3.76.55,5.18,2,5,.9,9.2,3.59,13.75,5.56" transform="translate(-200.16 -239.1)"/><path class="cls-1" d="M294.77,575a3,3,0,0,1-1.43,2.59c-2.18,1.61-4.6,1.33-7,.68-1.68-.46-3.08-1.23-2.06-3.44.19-.41.33-1.09-.18-1.43s-1,0-1.47.23a9.91,9.91,0,0,0-3.15,2.72c-.79.84-.64,1.49.38,2.11a21.09,21.09,0,0,0,9.4,2.73c2.71,0,5.37-.1,7.48-2.09a3.14,3.14,0,0,0-.33-4.8c-.79-.53-1.66-.63-1.65.7" transform="translate(-200.16 -239.1)"/><path class="cls-1" d="M261.15,417.31c-1.52-.94-3.36-1.48-5.09-2.39.69,3.25,3.67,4.36,5.39,6.67-.12-1.49,1.27-3.32-.3-4.28" transform="translate(-200.16 -239.1)"/><path class="cls-1" d="M261.54,394.24c3.45,1.25,6.66,3.11,10.2,4.17,1.6.48,2.12-.11,2.08-1.69-.1-3.41-.11-6.82-.12-10.22a1.84,1.84,0,0,0-.88-1.58c-1.38-1.17-3.34-1.2-4.58-2.57a20.8,20.8,0,0,1-5.59-15.84,54.47,54.47,0,0,1,5-20.26c1.57-3.3,4-6.05,8.07-6.43a2.4,2.4,0,0,0,2.52-2.65c0-3.62,1.24-7.08,1.17-10.75a38.32,38.32,0,0,1,1.23-9c2-9,4.89-17.72,7.25-26.6A174.4,174.4,0,0,1,293.8,274a2.09,2.09,0,0,0-.08-2c-1.08-1.93-5.32-2.34-7.29-.63-3.56,3.1-7.09,6.15-9.78,10.2-1.61,2.42-3.09,5-4.7,7.41-1.3,1.95-3.13,3.48-4.14,5.61-2.06,4.38-4.45,8.59-6.6,12.92-2.76,5.55-4.87,11.29-7.11,17-1.91,4.87-1.87,10.09-3.26,15.08a125.75,125.75,0,0,0-4,21.11c-.67,6.68-1.46,13.35-2,19.94a10.27,10.27,0,0,0,.52,3.09c1.37,3.82,4.8,5.2,7.8,7.11,2.57,1.65,5.5,2.39,8.33,3.41" transform="translate(-200.16 -239.1)"/><path class="cls-1" d="M288.11,298.25c-.41,3.33-1.69,6.41-2.68,9.56a76,76,0,0,0-2.7,10.92c-.75,4.81-1,9.7-1.56,14.55-.23,2,.36,3,2.29,3.58,1.46.42,3.29.82,4.13,1.88a21,21,0,0,1,4,7.35c1.5,5.25,1.07,10.59.92,15.9a20,20,0,0,1-14.79,18.87c-.78.23-1.33.48-1.35,1.45,0,3.15-.86,6.28-.14,9.39-.14,1.84-.24,3.62-.44,5.38a2,2,0,0,0,1.58,2.49,93.39,93.39,0,0,0,22.1,4.49,235.72,235.72,0,0,0,26.18.39,92.64,92.64,0,0,0,17.92-2.74c10.06-2.38,19.63-5.72,28.25-11.65,3.41-2.35,4.95-5.12,4.26-9.13-.93-5.38-2-10.74-2.83-16.14a107.64,107.64,0,0,0-2.81-11.36c-1.12-4.25-2.22-8.51-3.55-12.7-1.06-3.36-2.78-6.53-3.73-9.91a121.59,121.59,0,0,0-5.91-16.15c-2.22-5-4.09-10.27-7-15-1.63-2.7-2.68-5.72-4.77-8.18-2.52-3-4.22-6.52-6.58-9.65-4.46-5.93-8.17-12.4-15.7-15.22-4.27-1.6-8.49-3.34-13.11-2.44-4.28.83-8.62,2-11.27,5.87a35,35,0,0,0-4.48,8.6c-1,3-2.3,5.93-3.15,9-1,3.56-2.68,6.91-3.13,10.62m33.76,44.69c1.19-2.5,1.77-5.26,3.77-7.4a16.21,16.21,0,0,1,4.81-3.48c1.81-.88,3.44.37,5.13.64,3.31.55,6.29,1.7,8.08,5.08,1.54,2.9,3.83,5.32,4.27,8.86s1.73,6.7,2,10.2a29.13,29.13,0,0,1-.52,7.7c-.5,2.85-1.65,5.52-2.05,8.41a9.43,9.43,0,0,1-2.55,4.8c-2.23,2.53-4.13,5.33-7.53,6.63-2.75,1.05-7.63.16-10.05-1.55-5.72-4.06-6.8-10.25-8-16.39a41.07,41.07,0,0,1-1.08-8.35,37.19,37.19,0,0,1,3.67-15.15" transform="translate(-200.16 -239.1)"/><path class="cls-1" d="M277.4,345.77c.09-1.1.16-2.21.27-3.31.05-.55.16-1.19-.7-.91-1.53.5-3.34.79-4.33,2-2.09,2.55-4.14,5.22-4.89,8.54s-1.34,6.65-2,10a22.57,22.57,0,0,0-.44,6.85c.54,4.89,1.48,9.66,6,12.69.73.49,1.45,1.44,2.25,1.17,1-.35.54-1.55.55-2.38.09-5.77.77-11.49,1.31-17.23s1.86-11.53,2-17.39" transform="translate(-200.16 -239.1)"/><path class="cls-1" d="M279.07,378.33a16.36,16.36,0,0,0,8.15-7.19c2.46-4.45,3.83-9.28,3-14a34.15,34.15,0,0,0-1.39-10.89c-1-3.57-2.56-6.33-6.27-7.64-1.56-.55-2-.51-2.22,1.24-.55,5.29-1.17,10.57-1.92,15.83-1,6.88-1.58,13.78-2,20.7-.16,2.37.5,2.89,2.69,2" transform="translate(-200.16 -239.1)"/><path class="cls-1" d="M295.6,582.23c-5,2.48-9.76,1.54-14.52-.54-2.24-1-2.44-.92-2.71,1.4-.1.8-.22,1.61-.26,1.95-.12,4.34.84,5.81,3.93,6.16a35.85,35.85,0,0,0,8.6.19c5.11-.66,6.83-2.31,7.37-7.38.26-2.55-.1-2.93-2.41-1.78" transform="translate(-200.16 -239.1)"/><path class="cls-1" d="M287.78,417.18a169.49,169.49,0,0,0,36.22,2c3.77-.15,7.5-.67,11.25-1,1-.11,2.07-.14,3.07-.35,5.61-1.19,11.2-2.43,16.8-3.65A34,34,0,0,0,362,412c3.67-1.66,6.94-4,10.44-6,2.11-1.19,2.38-2.34,1.33-4.61-.81-1.76-2.35-2.58-3.85-3.52-.49-.31-1.64-.54-.59-1.56a.91.91,0,0,0,.06-1.39c-.55-.51-1.15-.19-1.63.13a43.09,43.09,0,0,1-10.41,4.79c-3,1-6,2.14-9,3.05-3.28,1-6.63,1.27-9.94,1.93a113.1,113.1,0,0,1-25.26,2.3c-8-.2-15.86-1.4-23.77-2.45a104.26,104.26,0,0,1-15.2-3.4,132,132,0,0,1-16-5.82c-3.83-1.66-3.89-1.51-5.78,2.36-.12.26-.38.46-.5.72-2.13,4.61-1.78,6.82,3.32,9.07,2.75,1.21,5.75,1.81,8.43,3.26a18.88,18.88,0,0,0,4.44,2c6.52,1.57,13,3.24,19.63,4.41" transform="translate(-200.16 -239.1)"/><path class="cls-1" d="M266,445.69c-.55-3.47-.21-6.95-.71-10.41-.08-.57.09-1.21-.53-1.6-1.51-.95-5.05.38-5.44,2.18-1.25,5.7-2.31,11.41-1.17,17.3.74,3.81,1.82,4.8,5.63,5.15,1.8.16,2.16-.51,2.15-2.07,0-3.52,0-7,.07-10.55" transform="translate(-200.16 -239.1)"/><path class="cls-1" d="M301.16,244.13c0-1.64-.73-2.81-2.42-2.84-2.05,0-3.27,1.55-3.26,3.89s.8,4.06,1.83,4c1.92-.12,3.87-2.7,3.85-5.05" transform="translate(-200.16 -239.1)"/><path class="cls-1" d="M325.81,377.38l-1.7-4A4.42,4.42,0,0,1,326,376c1.14,2.52,2.45,4.82,5,6.26,1.49.86,4.77,1.32,6.14.28,2.38-1.79,4.86-3.38,6.29-6.31,2.5-5.13,4.25-10.35,4.31-16.13a43.18,43.18,0,0,0-2-12.87c-1.08-3.62-2.44-7-5.15-9.72a10.55,10.55,0,0,0-5.62-2.8c-2.1-.46-3.83,1.58-5.93.64-.16-.07-.68.51-.93.86-4.58,6.3-6.59,13.53-7,21.15-.33,6.23,1.72,12.2,3,18.24.21,1,1,1.4,1.78,1.8" transform="translate(-200.16 -239.1)"/><path class="cls-1" d="M205.65,494.13a4,4,0,0,0-.89.35c-1.15.78-2.78,6-2.36,7.4.12.37.25.72.67.78.64.1.82-.4,1.11-.86,1.23-1.95,1.33-4.35,2.55-6.32.45-.72-.15-1.21-1.08-1.35" transform="translate(-200.16 -239.1)"/><path class="cls-1" d="M254.05,442.69c-5.15,1.41-9.36,4.49-13.59,7.57-7.27,5.29-12.55,12.4-17.88,19.46a17.55,17.55,0,0,0-1.62,3.14.91.91,0,0,0,.18,1.2,3.42,3.42,0,0,0,5.07-.91,66.63,66.63,0,0,1,10.72-13c3.58-3.23,7.43-6.18,10.94-9.51a20.24,20.24,0,0,1,2.32-1.65c1.72-1.22,3.11-2.9,5.14-3.74.51-.21.44-.89.48-1.41.07-1.41-.15-1.54-1.76-1.1" transform="translate(-200.16 -239.1)"/><path class="cls-1" d="M215,496.6c-.92-.17-1,.53-1.23,1.2-.54,1.61-1.18,3.18-1.8,4.76-.23.6-.8,1.36-.1,1.78s1.46,0,2-.79a7.68,7.68,0,0,0,1.94-4.79c.26-1.3.07-2-.85-2.16" transform="translate(-200.16 -239.1)"/><path class="cls-1" d="M220.56,476.91a14.73,14.73,0,0,0-6.12,2.06c-3.82,2.09-7.73,4.07-9.08,8.79-.87,3-.39,4.38,2.46,5.16a59.25,59.25,0,0,0,10,1.82c3.4.16,7.72-4.14,7.48-7.74a27.6,27.6,0,0,0-2.26-9c-.47-1.11-1.24-1.2-2.48-1.1" transform="translate(-200.16 -239.1)"/><path class="cls-2" d="M414.84,498.47c1.05-.94,1.48.14,1.75.81,1.38,3.44,3.5,6.43,5.47,9.52.73,1.14,1.59,1.5,2.5.56,1.35-1.38,2.5-3,2.32-5.09-.27-3.07-1.15-6-3.49-8.16-1.56-1.43-1.89-2.73-.8-4.59a4.25,4.25,0,0,0-1-5.23c-4.78-3.27-9.27-7-14.94-8.8a1.25,1.25,0,0,1-.63-.55,19.34,19.34,0,0,0-4.76-5.36c-4.85-4-8.75-8.91-13.64-12.86A67.45,67.45,0,0,0,375,450.51c-4.47-2.18-8.69-4.95-13.55-6.34-.43-.12-1.26-.17-.9-.92.89-1.81.26-3.63.2-5.44a5.08,5.08,0,0,0-4.71-4.77,16.08,16.08,0,0,0-3.28.3c-1.21.06-1.89-.24-1.56-1.63a20.07,20.07,0,0,0,.23-5.53c-.16-3.52-.11-3.52,3.23-4.75a21.37,21.37,0,0,1,3.08-1.17c.82-.18,1.77-.68,2.88.11-1.56.78-2,2.5-3.71,2.85a1,1,0,0,0-.69,1.22c.44,1.13.48,1.14-.21,1.73-1.12.95-2.27,1.88-3.41,2.81a23.63,23.63,0,0,0,9.26-6.71,2.46,2.46,0,0,0,.67-2c-.19-.93.47-1.37,1.12-1.7,2.64-1.31,5.24-2.74,8-3.79a17.48,17.48,0,0,0,4.8-2.67c3.61-2.89,5.38-6.42,4-11.08a18.06,18.06,0,0,0-2.85-4.92c-.76-1.1-1-1.75.29-2.57,4.18-2.7,5.39-6.74,5.23-11.49-.12-3.76-1.92-7.06-2.54-10.72-.9-5.35-2.84-10.52-3.91-15.86S374,345.17,372.86,340s-3.61-9.92-4.91-15.1c-1.19-4.79-3.72-9.15-5.78-13.64a187.57,187.57,0,0,0-11.33-21.91c-1.15-1.81-1.77-4.08-3.15-5.48-3.59-3.65-5.81-8.16-8.64-12.27-2.38-3.46-5.69-5.73-8.88-8.24-1.73-1.35-3.94-.81-5.76-2-3.65-2.37-7.92-3.09-12.18-3.48-2.62-.24-5,1-7.45,1.75-.69.22-1.41.83-2,0-1.56-2.24-3.52-4.23-4.46-6.85-.28-.76-.55-1.48.64-1.91,2-.72,3.07-2.47,3.95-4.3,1.1-2.28.16-5.88-1.77-7s-5-.21-6.6,1.71c-1.8,2.18-1.46,7.31.54,10.41,1.85,2.86,3.55,5.8,5.31,8.71.31.51.76,1.21-.18,1.38-1.71.31-2.43,1.81-3.58,2.77a2.2,2.2,0,0,1-2.79.31c-3.79-1.92-7.32-.8-10.68,1.2-2.45,1.46-3.93,3.9-5.84,5.91a119.66,119.66,0,0,0-9,11.38,79.94,79.94,0,0,0-4.86,7.56c-3,5.22-5.93,10.49-8.49,16-1.7,3.6-3,7.39-4.84,10.92a23.84,23.84,0,0,0-2.33,6.78c-.67,3.71-1.76,7.29-2.58,10.95-2,8.8-3.3,17.72-4.75,26.61a96.27,96.27,0,0,0-1.37,19.39c.18,4.75,1.85,8.79,6,11.54,2.33,1.55,2.63,2.62,1.44,5.08-.41.85-.9,1.68-1.3,2.55-1.94,4.18-1.05,7.49,2.95,9.78,3.7,2.12,7.07,4.39,9,8.42a8.89,8.89,0,0,0,3.12,3.7c2.62,1.57,1.32,3.82,1.27,5.71s-1.91.56-2.87,1a11.06,11.06,0,0,1-1.95.42c-3.35.81-6.28,5.51-5,8.5.93,2.11.22,3.08-1.54,3.69-5.12,1.78-8.95,5.6-13.34,8.51a27.48,27.48,0,0,0-5.41,4.13,72.38,72.38,0,0,0-11.38,16.14c-1.66,3.37-4,5.12-7.12,6.71-4.77,2.45-9.12,5.44-10.82,11-.43,1.42-.63,2.57.38,3.69.61.69.34,1.19-.18,1.72-2.74,2.78-2.3,6.2-1.72,9.54.22,1.3,1.65,1.95,2.79,2.23s1.66-.9,2.12-1.86c1.15-2.38,1.86-5,3.37-7.17.46-.67.83-1.66,2.06-.92,1.05.62.63,1.29.37,2.08-.7,2.18-1.26,4.4-2.06,6.54a1.48,1.48,0,0,0,.31,1.78c1.48,1.46,4.6,1.28,5.72-.5s2.89-3.59,2.81-6.12a2,2,0,0,1,1.62-2.09A10.12,10.12,0,0,0,227,485.63c-.22-1.39-.61-2.76-.74-4.15-.2-2.25-1.06-4.74.78-6.6,2.47-2.49,4.14-5.56,6.44-8.17,1.63-1.85,3.76-3.15,5.3-5,3.43-4.22,8.23-6.75,12.27-10.58.17.64.27,1,.35,1.31.77,3.19,1.08,6.55,3.65,9,1.71,1.66,3.76,2.82,6,2.63,1.46-.13,1.44.2,1.41,1.26-.21,7.32-.61,14.62-.54,21.95a65.34,65.34,0,0,0,3.7,19.74,49.14,49.14,0,0,0,5.17,10.65c2.43,3.9,4.6,7.7,8.83,10,1.16.64,2.88,1.4,2.73,3.59-.39,5.76-.52,11.54-.78,17.31s-.6,11.68-.82,17.52c-.07,2-.66,3.36-2.65,4.06a5.22,5.22,0,0,0-2.37,1.59c-4.71,5.88-5.18,12.44-2.61,19.21a7.65,7.65,0,0,0,4.3,4.2c5,1.92,10.17,1.79,15.31.87,3.1-.55,6.54-2.15,7.66-4.66,2.53-5.62,4.29-11.72.73-17.85-.85-1.47-1.79-2.56-3.51-2.54s-2.09-.74-2.06-2.3c.15-7.79.18-15.57.31-23.36.05-2.59.26-5.18.39-7.77,0-.73-.06-1.84,1.09-1.19a18.63,18.63,0,0,0,7.48,2c4.42.49,8.78.9,13.13-.56,2.55-.85,2.59-.72,2.42,2.08-.55,9-.07,18,0,27,0,1.64-.06,4-2.43,4.89a3.73,3.73,0,0,0-2.38,2.77c-.94,4.94-1.57,9.86-.27,14.9a7.63,7.63,0,0,0,4.63,5.45c2,.92,4.24.58,6.3,1.05a17.93,17.93,0,0,0,11.81-1.47c2.82-1.32,6.07-4.4,5.54-8-.3-2,.15-4,.13-6-.07-5.56.16-8.61-5.53-10.1-.91-.24-2.39.71-2.77-1a29.24,29.24,0,0,1-.77-3.43c-.15-1.32,0-2.67-.1-4-.55-9.18-.21-18.36.13-27.54.1-2.61,0-5.65,2.55-7.19,2.74-1.66,4.56-4,6.65-6.32,6.22-6.79,8.43-14.92,8.16-23.84a248.3,248.3,0,0,1,.83-28.61c.22-2.5.35-4.75,3.42-5.3.3,0,.5-.5.79-.71a8.08,8.08,0,0,0,3.46-8.07c-.11-.94.16-1.1,1.14-.77,5.24,1.75,9.62,5.08,14.27,7.83,5.48,3.25,10.53,7.23,15.72,11s9,8,7.56,15.27a30.81,30.81,0,0,0,.38,11.51c.72,3.93,1.62,6.56,6.21,5.26,1.14-.32,1.11.25,1.25,1.09A11,11,0,0,0,413.2,514a6.33,6.33,0,0,0,5.58.11c1-.42,1.7-1.24.76-2.45-2.51-3.22-3.83-7.13-6-10.53-1.08-1.67.57-2,1.34-2.67M295.48,245.18c0-2.34,1.21-3.93,3.26-3.89,1.69,0,2.4,1.2,2.42,2.84,0,2.35-1.93,4.93-3.84,5.05-1,.06-1.83-1.65-1.84-4M206.73,495.49c-1.22,2-1.32,4.36-2.55,6.31-.29.45-.47,1-1.11.86-.42-.06-.55-.41-.67-.78-.42-1.39,1.21-6.62,2.36-7.4a4.5,4.5,0,0,1,.89-.35c.93.14,1.53.63,1.08,1.36m9.14,3.27a7.62,7.62,0,0,1-1.94,4.79c-.58.74-1.26,1.26-2,.79s-.13-1.18.11-1.78c.61-1.58,1.25-3.15,1.79-4.76.22-.67.31-1.37,1.23-1.2s1.11.86.85,2.16m1.95-4a59.25,59.25,0,0,1-10-1.82c-2.85-.78-3.33-2.16-2.46-5.16,1.35-4.72,5.26-6.7,9.08-8.8a14.87,14.87,0,0,1,6.11-2c1.25-.1,2,0,2.49,1.1a27.6,27.6,0,0,1,2.26,9c.24,3.6-4.08,7.9-7.48,7.74m38-50.95c0,.52,0,1.2-.48,1.41-2,.84-3.42,2.52-5.14,3.74a20.24,20.24,0,0,0-2.32,1.65c-3.51,3.33-7.36,6.28-10.94,9.51a66.63,66.63,0,0,0-10.72,13,3.42,3.42,0,0,1-5.07.91.91.91,0,0,1-.18-1.2,17.55,17.55,0,0,1,1.62-3.14c5.33-7.06,10.61-14.17,17.88-19.46,4.23-3.08,8.44-6.16,13.59-7.57,1.61-.44,1.83-.31,1.76,1.1m43.06-173.74c2.65-3.83,7-5,11.27-5.87,4.62-.9,8.84.83,13.11,2.44,7.53,2.82,11.24,9.29,15.7,15.22,2.36,3.13,4.06,6.68,6.58,9.65,2.09,2.46,3.14,5.48,4.77,8.18,2.87,4.73,4.74,10,7,15a121.59,121.59,0,0,1,5.91,16.15c.95,3.38,2.67,6.55,3.73,9.91,1.33,4.19,2.43,8.45,3.55,12.7a107.64,107.64,0,0,1,2.81,11.36c.8,5.4,1.9,10.76,2.83,16.14.69,4-.85,6.78-4.26,9.13-8.62,5.93-18.19,9.27-28.25,11.65a92.64,92.64,0,0,1-17.92,2.74,235.72,235.72,0,0,1-26.18-.39,93.39,93.39,0,0,1-22.1-4.49,2,2,0,0,1-1.58-2.49c.2-1.76.3-3.54.44-5.38-.72-3.11.1-6.24.14-9.39,0-1,.57-1.22,1.35-1.45A20,20,0,0,0,292.52,362c.15-5.31.58-10.65-.92-15.9a21.15,21.15,0,0,0-4-7.36c-.84-1.05-2.67-1.45-4.13-1.87-1.93-.56-2.52-1.63-2.29-3.59.59-4.84.81-9.73,1.56-14.54a76,76,0,0,1,2.7-10.92c1-3.15,2.27-6.23,2.68-9.56.45-3.7,2.13-7.06,3.13-10.62.85-3.05,2.12-6,3.15-9a35,35,0,0,1,4.48-8.6M273.58,382.77c-.8.27-1.52-.68-2.25-1.17-4.56-3-5.5-7.8-6-12.69a22.57,22.57,0,0,1,.44-6.85c.68-3.32,1.28-6.66,2-10s2.8-6,4.89-8.54c1-1.21,2.8-1.5,4.33-2,.86-.28.75.36.7.91-.11,1.1-.18,2.21-.27,3.32-.1,5.85-1.42,11.57-2,17.38s-1.22,11.46-1.31,17.23c0,.83.46,2-.55,2.38m4.83-27.12c.75-5.26,1.37-10.54,1.92-15.83.18-1.75.66-1.79,2.22-1.24,3.71,1.31,5.27,4.07,6.27,7.64a34.15,34.15,0,0,1,1.39,10.89c.84,4.75-.53,9.58-3,14a16.36,16.36,0,0,1-8.15,7.19c-2.19.91-2.85.39-2.69-2,.45-6.92,1.05-13.82,2-20.7m-33,28.07a10.27,10.27,0,0,1-.52-3.09c.54-6.59,1.33-13.26,2-19.94a125.75,125.75,0,0,1,4-21.11c1.39-5,1.35-10.21,3.26-15.08,2.24-5.73,4.35-11.47,7.11-17,2.15-4.33,4.54-8.54,6.6-12.92,1-2.13,2.84-3.66,4.14-5.61,1.61-2.43,3.09-5,4.7-7.41,2.69-4.05,6.22-7.1,9.78-10.2,2-1.71,6.21-1.3,7.29.63a2.09,2.09,0,0,1,.08,2,175.35,175.35,0,0,0-5.91,16.82c-2.36,8.88-5.21,17.63-7.25,26.6a38.32,38.32,0,0,0-1.23,9c.07,3.67-1.16,7.13-1.17,10.75a2.4,2.4,0,0,1-2.52,2.65c-4.08.38-6.5,3.13-8.07,6.43a54.47,54.47,0,0,0-5,20.26,20.8,20.8,0,0,0,5.59,15.84c1.24,1.37,3.2,1.4,4.58,2.57a1.84,1.84,0,0,1,.88,1.58c0,3.4,0,6.81.12,10.22,0,1.58-.48,2.17-2.08,1.69-3.54-1.06-6.75-2.92-10.2-4.17-2.83-1-5.76-1.76-8.33-3.41-3-1.91-6.43-3.29-7.8-7.11m16,37.87c-1.72-2.31-4.7-3.42-5.39-6.67,1.73.91,3.57,1.45,5.09,2.39s.18,2.79.3,4.28m2.31,36.72c-3.81-.35-4.89-1.34-5.63-5.15-1.14-5.89-.08-11.6,1.17-17.3.39-1.8,3.93-3.13,5.44-2.18.62.39.45,1,.53,1.6.5,3.46.16,6.94.71,10.41,0,3.52-.11,7-.07,10.55,0,1.56-.35,2.23-2.15,2.07m-.05-47.51c-2.68-1.45-5.68-2.05-8.43-3.26-5.1-2.25-5.45-4.46-3.32-9.07.12-.26.38-.46.5-.72,1.89-3.87,1.95-4,5.78-2.36a132,132,0,0,0,16,5.82,104.26,104.26,0,0,0,15.2,3.4c7.91,1.05,15.81,2.25,23.77,2.45a113.1,113.1,0,0,0,25.26-2.3c3.31-.66,6.66-1,9.94-1.93,3.06-.91,6-2.08,9-3.05a42.84,42.84,0,0,0,10.4-4.79c.49-.32,1.09-.64,1.63-.13a.91.91,0,0,1,0,1.39c-1.07,1,.09,1.25.58,1.56,1.5.94,3,1.76,3.85,3.52,1.05,2.27.78,3.42-1.33,4.61-3.5,2-6.77,4.36-10.44,6a34,34,0,0,1-6.92,2.2c-5.6,1.22-11.19,2.46-16.8,3.65-1,.21-2.05.24-3.07.35-3.75.35-7.48.87-11.25,1a169.49,169.49,0,0,1-36.22-2c-6.6-1.17-13.11-2.84-19.63-4.41a18.88,18.88,0,0,1-4.44-2M298,584c-.54,5.07-2.26,6.72-7.37,7.38a35.34,35.34,0,0,1-8.6-.2c-3.09-.34-4.05-1.81-3.93-6.15,0-.34.16-1.15.26-1.95.28-2.32.47-2.37,2.71-1.4,4.76,2.08,9.53,3,14.52.54,2.31-1.15,2.67-.77,2.41,1.78m-1.59-9.68a3.14,3.14,0,0,1,.33,4.8c-2.11,2-4.77,2.13-7.48,2.09a21.09,21.09,0,0,1-9.4-2.73c-1-.62-1.17-1.27-.38-2.1a9.67,9.67,0,0,1,3.15-2.72c.47-.2,1-.54,1.47-.24s.37,1,.18,1.43c-1,2.21.38,3,2.06,3.44,2.39.65,4.81.93,7-.68a3,3,0,0,0,1.43-2.59c0-1.33.86-1.23,1.65-.7m-4.68-1.06c.83,1.1.69,2.31-1.1,2.77-3.17.82-4.16.25-4-2.91.26-7.19.06-14.37.07-22.89-.15-6.08-.35-13.48-.49-20.89-.06-2.77,0-2.78,2.37-1.54.19.11.39.2.59.3,4.07,1.91,4.32,2.09,3.76,6.6-1.42,11.41-1.5,22.89-2.06,34.35a5.79,5.79,0,0,0,.9,4.21m47.39,11.49c-.26,4.56-1.95,6.06-7.46,6.85-3.43.49-6.79-.32-10.05-1.33-2-.63-2.81-2.34-2.62-5.25,0-.44,0-.89,0-1.33-.12-1.76.4-1.52,1.88-1.05,5.08,1.63,10.3,2.53,15.49.38,2.72-1.12,2.91-1.16,2.75,1.73m-3.74-10.86c2,.51,3.76,2.56,3.6,4.1-.12,1.2-2.9,3.49-4.44,3.54-1.77.06-3.54,0-5.32,0-2.61-.11-5.31.44-7.79-1a3.79,3.79,0,0,1-2.2-2.83c-.19-1.41,1.09-1.64,1.85-2.19,1.16-.84,2-.62,2.26,1,.5,3.18,4.47,5,7.09,3.11,1.54-1.12,4-1.82,3.29-4.71-.26-1.08.74-1.28,1.66-1m-5.07-5.61c-.16,1.93.54,3.92.72,5.9.23,2.59-.64,3.47-3.23,3.7-1.52.13-2.16-.41-2.12-2,.09-3.63.08-7.25.11-11.36.52-6.64-.68-13.67-1-20.75-.15-3.92-.08-7.84-.11-11.75,0-.44-.08-1,.42-1.15a17,17,0,0,0,4.93-2.43c1.06-.64,1.05.32,1,1-.09,3.33,0,6.68-.37,10-.52,4.83-.49,9.69-.71,14.53s.68,9.54.28,14.35m11.58-55.54c-4.72,9.29-12.08,15-21.95,17.64a14.48,14.48,0,0,1-3.3.29c-1.11,0-2.22,0-3,0a46.71,46.71,0,0,1-11.2-.26c-3.6-.41-6.84-2.14-10.14-3.57s-6.75-3-9.48-5.78a98.37,98.37,0,0,1-8.52-9.6c-3.1-4.08-4-8.78-4.85-13.56-.56-3.13-1.1-6.26-1.5-9.42-.46-3.55-.06-4,3.42-3.38,6.77,1.28,13.58,2.19,20.4,3.15a220.4,220.4,0,0,0,30.8,1.94c7.05,0,14.09.13,21.13.05,1.54,0,2,.56,2,1.85-.11,7.1-.46,14.05-3.82,20.66m2-24.65a170.74,170.74,0,0,1-20.36-.09c-7.16-.52-14.36-.18-21.51-1-4.62-.55-9.24-1.18-13.85-1.63-4.94-.49-9.81-1.27-14.66-2.23-1.59-.32-3.15-.79-4.73-1.16-1.34-.32-.83-1.35-.88-2.16-.41-7.47.2-14.93.09-22.4-.05-3.62-.08-7.25-.41-10.86-.18-2.06.64-2.22,2.24-1.91,4.43.87,8.85,1.8,13.3,2.53a210.62,210.62,0,0,0,30.1,2.42c10.22.19,20.46.66,30.63-.77,1.9-.26,2.29.47,2.16,2.19-.44,5.77,0,11.53.15,16.55-.06,6.83-.13,12.9-.15,19,0,1.55-1,1.52-2.12,1.57m2.44-44c-.12,2.11-1,2.46-2.67,2.54-6.59.29-13.15,1-19.75,1-5.18,0-10.31-.61-15.46-.94-5.46-.35-10.93-.56-16.37-1.1-7.74-.77-15.39-2.09-23.05-3.36-1.2-.2-1.45-.84-1.46-1.8,0-2.22,0-4.44.05-6.66-.56-5.07.2-10.15-.36-15.24-.37-3.37.18-3.74,3.35-2.72a66.33,66.33,0,0,0,9.6,2.58c5.23.84,10.47,1.69,15.71,2.5,11,1.7,22,1,33,.53,4.79-.21,9.45-1.65,14.27-1.71,2.35,0,3.49.78,3.19,3.15-.44,3.5.15,6.94.06,10.4-.09,3.62.11,7.23-.08,10.86m8.91,11.41c-.3,2.76-1.23,3.38-4.06,3.35-1.06,0-2.41.94-3.09-.05s-.3-2.43-.21-3.68.15-2.5.2-3.48c-.56-4.93.7-9.56,0-14.21a1,1,0,0,1,.51-1.12c1.17-.62,4.9.52,5.54,1.75a5.72,5.72,0,0,1,.76,2.06c.41,5.12.88,10.25.31,15.38m66.22,41.14c1.5,2.36,3.11,4.68,3.11,7.65,0,.8.23,1.77-.81,2.07s-1.17-.68-1.5-1.29c-1.34-2.45-2.65-4.91-4-7.37-.3-.54-.61-1.11,0-1.6s1.21-.92,2-.38a4.21,4.21,0,0,1,1.21.92m-62.93-46.44c-1.11-.4-2-4.09-1.07-4.73,1.26-.85,2.78-.17,3.69.58,2.38,1.93,5.35,2.4,8,3.67,5.83,2.82,11.57,5.73,16.49,10a.87.87,0,0,1,.24.7c-4.55-2-8.8-4.66-13.75-5.56-1.42-1.44-3.41-1.59-5.18-2a75.45,75.45,0,0,1-8.4-2.71m41.67,27.12a29.84,29.84,0,0,0-6.07-5.65c-4.8-3.5-9.58-7.06-14.6-10.22-3.82-2.4-7.45-5.14-11.87-7.07,1.79-.71,3,1.07,4.52.58l-.07,0c3.32,2.37,7.32,3.35,10.85,5.3,4,2.22,8.11,4.4,10.75,8.37a14,14,0,0,0,4.19,3.83c1.54,1,2.36,2.59,3.69,3.73.54.45,1.06,1.68.05,2.3s-1.05-.63-1.44-1.12m16.1,33.53c.14.44,1,.68.58,1.25a1.58,1.58,0,0,1-1.66.3,6.16,6.16,0,0,1-4.35-3.41,39.56,39.56,0,0,1-1.32-4.29,9.85,9.85,0,0,1,.44-1.88c.22-.49.18-1.32.94-1.34s1.1.62,1.3,1.3c.88,2.93,3.14,5.16,4.07,8.07m-5.48-12.18a19.1,19.1,0,0,1-4.93,3.35c-1.93,1.12-3.53.2-3.76-2-.29-2.79-.54-5.58-.82-8.52a54.43,54.43,0,0,1,1.11-10.3c.25-1.16,2.93-1.53,4.85-1.07,3.14.76,5.17,3.26,7.85,4.73,1.48.81,3.12,1.31,4.44,2.44,1.58,1.37,1.81,3,.15,4.26-2,1.57-3.26,4.1-6.19,4.65-1,.19-1.87,1.56-2.7,2.47" transform="translate(-200.16 -239.1)"/><path class="cls-2" d="M327.26,382.83c2.42,1.71,7.3,2.6,10,1.55,3.41-1.3,5.31-4.1,7.54-6.63a9.43,9.43,0,0,0,2.55-4.8c.4-2.89,1.55-5.56,2.05-8.41a29.13,29.13,0,0,0,.52-7.7c-.3-3.5-1.61-6.77-2-10.2s-2.72-6-4.26-8.86c-1.79-3.38-4.77-4.53-8.08-5.07-1.69-.28-3.32-1.53-5.13-.65a16.21,16.21,0,0,0-4.81,3.48c-2,2.14-2.58,4.9-3.77,7.4a37.19,37.19,0,0,0-3.67,15.15,40.38,40.38,0,0,0,1.08,8.35c1.18,6.14,2.26,12.33,8,16.39m.76-46.64c.25-.35.77-.93.93-.86,2.1.94,3.83-1.1,5.93-.64a10.55,10.55,0,0,1,5.62,2.8c2.71,2.76,4.07,6.1,5.15,9.72a43.18,43.18,0,0,1,2,12.87c-.06,5.78-1.81,11-4.31,16.13-1.43,2.93-3.91,4.52-6.29,6.31-1.37,1-4.65.58-6.14-.28-2.55-1.44-3.86-3.74-5-6.26a4.42,4.42,0,0,0-1.84-2.57l1.7,4c-.8-.4-1.57-.81-1.78-1.8-1.29-6-3.34-12-3-18.24.41-7.62,2.42-14.85,7-21.15" transform="translate(-200.16 -239.1)"/><path class="cls-2" d="M319.45,480.28a1.33,1.33,0,0,0-1.3,1.68c.16.76.35,1.75,1.39,1.68s1.36-1.16,1.64-2a1.43,1.43,0,0,0-1.73-1.33" transform="translate(-200.16 -239.1)"/><path class="cls-2" d="M288.19,477.61c-.75.11-1.69.2-1.66,1.36,0,.86.48,1.17,1.47,1.1.43-.38,1.69.17,1.73-1a1.33,1.33,0,0,0-1.54-1.47" transform="translate(-200.16 -239.1)"/><path class="cls-2" d="M317.62,439.44a1.58,1.58,0,0,0-1.64,1.48,1.47,1.47,0,0,0,1.54,1.76c1.08,0,1.34-.73,1.41-1.67s-.12-1.62-1.31-1.57" transform="translate(-200.16 -239.1)"/><path class="cls-2" d="M289.1,436.51c-.64.22-1.37.47-1.43,1.36a1.16,1.16,0,0,0,1.28,1.4c.92,0,1.67-.11,1.63-1.25,0-.85-.57-1.3-1.48-1.51" transform="translate(-200.16 -239.1)"/></svg>