<svg id="Layer_1" data-name="Layer 1" xmlns="http://www.w3.org/2000/svg" viewBox="0 0 228.03 368.62"><defs><style>.cls-1{fill:#fff;}.cls-2{fill:#010101;}</style></defs><path class="cls-1" d="M431.71,497.7c-.64,1.59-1.28,3.14-1.89,4.7a8.44,8.44,0,0,0-.33,1.22c-.25,1.06.47,1.54,1.24,1.93,1,.49,1.65-.06,2-.92.48-1.32.69-2.75,1.25-4,1-2.34-.53-2.55-2.23-2.91" transform="translate(-232.85 -232.34)"/><path class="cls-1" d="M374.81,560.9c.69-8.15,1.3-16.32,1.75-24.49.37-6.72.46-13.46.7-20.84-3.49,1.43-6,3.11-9.19,2.63-1.54-.24-1.91.93-1.78,2.2a49.2,49.2,0,0,1,0,6.76c-.24,9.9-1.32,19.73-2,29.6-.23,3.6-1,7.32,1.93,10.36a4.56,4.56,0,0,1,.83,1.93c1.64,6,4.85,11.41,6.88,17.28.6,1.72,1.57,3.32,2.34,5a2.67,2.67,0,0,0,2.6,1.79c3.24,0,6.48.12,9.71,0,1.85,0,2.16-.71,1.24-2.5-1-2-2.27-3.89-3.28-5.91A129.36,129.36,0,0,0,377,568.35a10.66,10.66,0,0,1-2.16-7.45" transform="translate(-232.85 -232.34)"/><path class="cls-1" d="M388.46,471.25c.56-12.72,1.31-25.42,1.86-38.14.22-5.07,1.07-10.11.43-15.25-.3-2.42-1.07-3.29-3.51-3.63-11.95-1.67-24-.84-36-1.3-5.06-.19-10.16-.72-15.23,0a79.16,79.16,0,0,1-9.73.48c-6.77.1-13.53.43-20.3.68a24.19,24.19,0,0,0-2.53.29c-3.59.52-3.55.52-3.58,4-.07,7.07-.19,14.15-.29,21.09-.07,1-.15,1.83-.19,2.68a286.08,286.08,0,0,0,.2,34.77,10.43,10.43,0,0,0,4.62,8.48c9.5,6.85,19.31,13.25,29,19.86a18.36,18.36,0,0,0,14.57,3,45.21,45.21,0,0,0,14.28-5.1c4.22-2.56,8.82-4.39,13.14-6.78,3.31-1.84,6.57-3.73,9.81-5.67a4.41,4.41,0,0,0,2.43-4.15c-.28-5.13.79-10.15,1-15.24M377.88,485c-1.12,0-2.25,0-3.38.07-16.67.74-33.31.05-50-.65-4.93-.21-9.88.11-14.83.2-.68,0-1.53.25-1.58-.8s.72-1.15,1.43-1.21a100.51,100.51,0,0,1,16.09.15,31.79,31.79,0,0,0,6.14.18,270.38,270.38,0,0,0,30.29.29c4.37-.27,8.74-.5,13.11-.74a24,24,0,0,1,2.54-.05c.83,0,1.81,0,1.84,1.22s-.71,1.36-1.69,1.34" transform="translate(-232.85 -232.34)"/><path class="cls-1" d="M363.44,571.44q-.46,8.64-.86,17.3c0,.84,0,1.69,0,2.53s.47,1.61,1.5,1.6c3.15,0,6.3,0,9.61-.07-2.51-8.48-6.31-16-9.16-24.22a3.48,3.48,0,0,0-1.1,2.86" transform="translate(-232.85 -232.34)"/><path class="cls-1" d="M395.75,415.62c-2.31-.36-2.76-.09-2.85,2.3-.13,3.66-.1,7.34-.13,11H393c-.29,3.94-.66,7.88-.82,11.82-.11,2.5.62,3.22,2.94,2.78,4.29-.81,8.2-2.85,10.52-6.48,5.46-8.52,0-19.93-9.9-21.44" transform="translate(-232.85 -232.34)"/><path class="cls-1" d="M432,492.3a5.58,5.58,0,0,0,6.57,4.32c3.41-.65,7.79-5.43,8.16-9.38a19.5,19.5,0,0,0-.4-3.22c-.78-3-5-5.5-7.56-4.59A10.56,10.56,0,0,0,432,492.3" transform="translate(-232.85 -232.34)"/><path class="cls-1" d="M371.51,515.55c5-1,9.73-7,10.12-12.94a7.71,7.71,0,0,0-1-4.62c-.62-1.31-1.44-1.93-3-1.06-5.35,3.05-10.69,6.14-16.29,8.73-1.63.76-1.75,2.16-1.3,3.57,1.06,3.34,7.89,7,11.44,6.32" transform="translate(-232.85 -232.34)"/><path class="cls-1" d="M435.05,479.75c1.48-1.07,1.68-2.2.53-3.9-2.35-3.5-4-7.41-6.1-11.07-4.69-8.17-9.78-16.08-15.07-23.85-1.56-2.29-2.77-4.91-5.59-7.15-.27,2.74-2.57,4.55-1.24,6.9,2,3.53,3.5,7.31,5.77,10.71,3.83,5.72,7.24,11.72,11.1,17.41,2.22,3.26,4.08,6.7,6.07,10.08,1.14,1.93,2.73,2.18,4.53.87" transform="translate(-232.85 -232.34)"/><path class="cls-1" d="M279.87,433c-3.39,4.9-6.61,9.16-9.39,13.69-5.67,9.23-9.82,19.34-16.13,28.22a10.26,10.26,0,0,0-1.35,3.53c-.83,3.21-.83,3.19,2.64,3.47a10.89,10.89,0,0,1,2.49.41c1.52.49,2.33-.08,3-1.46,1.18-2.56,2.43-5.09,3.79-7.56,5.2-9.51,10.29-19.1,15.79-28.44,2-3.33,3-6.07.1-9.21-.43-.47-.46-1.29-.91-2.65" transform="translate(-232.85 -232.34)"/><path class="cls-1" d="M324,576.31c0-1.13-.25-2.26-.38-3.39-3.53,6.56-6.26,13.26-10.11,19.74,3.32,1.08,6,0,8.76-.13,1.88-.08,2.4-1.13,2.32-2.77-.19-4.48-.37-9-.59-13.45" transform="translate(-232.85 -232.34)"/><path class="cls-1" d="M258.1,484.4c-1.38-.94-8.17-.45-9.38.58a2.27,2.27,0,0,0-.73,1c-.54,1.88-1.52,3.64-1.63,5.65-.19,3.55,2.78,7.79,5.59,7.92,3.75.17,8.87-4.4,9.28-8.28a6.72,6.72,0,0,0-3.13-6.88" transform="translate(-232.85 -232.34)"/><path class="cls-1" d="M340.42,380.22c-.08-1.9-.11-5-.38-8.1-.3-3.42-.4-3.39-3.8-3.55-8.91-.43-17.7,1.34-26.57,1.45-1.92,0-2,1.16-1.94,2.5.22,4.23.53,8.45.73,12.68.07,1.45.76,2,2.12,2l3-.06c7.18-.19,14.37-.48,21.56-.56,5.32-.06,5.32.05,5.32-6.34" transform="translate(-232.85 -232.34)"/><path class="cls-1" d="M259.7,498.1c-.65.38-1.3,1-1,1.65,1.29,2.77,2.43,5.64,4.45,8a1.16,1.16,0,0,0,1.52.21,2.14,2.14,0,0,0,1.37-1.93,2.83,2.83,0,0,0-.21-.81c-1.54-2.33-3.07-4.66-4.66-7a1.07,1.07,0,0,0-1.5-.18" transform="translate(-232.85 -232.34)"/><path class="cls-1" d="M322.94,565.47c-1.24-2.92-.36-5.88-.29-8.81.14-6.5.24-13,.75-19.48.56-7.18,1.29-14.34,1-22.23-2.14.93-4,1.67-6,1.43-1.68-.2-2.19.77-2.33,2.27-.53,5.48-1.06,11-1.69,16.45-1,8.85-.4,17.76-.88,26.63a10.09,10.09,0,0,1-1.61,5c-3.47,5.64-8,10.52-11.18,16.38a48.68,48.68,0,0,1-4.95,7.37c-.85,1.07-2.33,2.23-1.65,3.66s2.54.71,3.82.59c3.37-.29,6.71-.93,10.09-1.21,1.9-.16,2.83-.94,3.81-2.65a170.82,170.82,0,0,0,10.45-22.62c.35-.9,1-1.85.62-2.83" transform="translate(-232.85 -232.34)"/><path class="cls-1" d="M297.19,435.13c0,.05,0,.1,0,.19,0-5.64.13-10.72.1-15.8,0-3.73-.93-4.38-4.65-3.57a12,12,0,0,0-1.59.56c-5.72,2.09-10.09,9.45-8.21,16.69,1.08,4.14,3.89,6.43,8,7.19,5,.93,6.23-.14,6.39-5.2v-.06" transform="translate(-232.85 -232.34)"/><path class="cls-1" d="M322.42,512.86c3.41-1.32,5.82-3.71,8-6.43a9.21,9.21,0,0,0-3.74-3.5c-2-1.29-4.1-2.44-6.05-3.8s-4.4-3.57-6.7-2.43c-2.7,1.34-2.55,4.8-2.84,7.57a9.07,9.07,0,0,0,.59,3.73c1.61,4.88,5.93,6.71,10.7,4.86" transform="translate(-232.85 -232.34)"/><path class="cls-1" d="M309.52,367.67a34.4,34.4,0,0,0,3.8,0c6.6-.88,13.24-.78,19.86-1,6-.19,6-.19,6.16-6.15a48.46,48.46,0,0,0,.07-7.62c-.19-1.55-.84-2.27-2.44-2.14-1.27.1-2.56-.06-3.81.12a73,73,0,0,1-14.78.44c-2.67-.16-5.36,0-8-.09-1.93-.06-2.84.64-2.83,2.69,0,3.82-.08,7.63-.21,11.44-.06,1.63.63,2.35,2.22,2.33" transform="translate(-232.85 -232.34)"/><path class="cls-1" d="M242.11,493.18c-1.93.84-3.8,1.82-5.65,2.82-1,.53-.62,1.43-.36,2.23s.71,1.44,1.48,1.14c2.08-.83,4.11-1.81,6.12-2.8.29-.14.41-.66.49-.81.1-1.6-1.08-3-2.08-2.58" transform="translate(-232.85 -232.34)"/><path class="cls-1" d="M449.83,490.25c1.74.5,3.5.93,5,1.32a9.45,9.45,0,0,0,1.52.1c1.09-.14,2.18-2.21,2-3.7s-1.21-1.42-2.19-1.24a18.92,18.92,0,0,1-5.42,0c-.93-.1-1.63.12-1.84,1.19s-.3,2,1,2.36" transform="translate(-232.85 -232.34)"/><path class="cls-1" d="M305.3,372c-.07-1.5-.9-2-2.18-1.93-2.25.07-4.5.12-6.74.33-3.1.29-3.2.43-3,3.68.18,2.66.7,5.32.64,8-.12,5.34-.44,5.44,5.18,5.13,1.12.08,2.24.23,3.36.23,3.32,0,3.47,0,3.39-3.19-.09-4.08-.49-8.15-.67-12.22" transform="translate(-232.85 -232.34)"/><path class="cls-1" d="M372.15,353.18c.1-3.16-.09-3.56-3.2-3.33-4.95.35-9.86-.21-14.78-.21a85.4,85.4,0,0,0-11,.52c-1.57.2-2.21.8-2.12,2.43.21,3.66.37,7.33.38,11,0,2,.59,2.71,2.74,2.43A155.36,155.36,0,0,1,364.44,365c2.23,0,4.88,1.06,6.59-.28,2.05-1.6.48-4.53.8-6.84.11-1.55.28-3.1.32-4.65" transform="translate(-232.85 -232.34)"/><path class="cls-1" d="M388.29,368.28c-3.81-.17-7.61-.46-11.41-.7-3.4-.2-3.5-.19-3.55,3.44-.07,3.94-.95,7.88-.15,11.84.18.89,0,1.94-1,2-1.61.17-1-1.26-1.15-2.11a8,8,0,0,1-.06-1.69c.22-3.53.4-7.06.71-10.57.19-2.2-.71-3.07-2.88-3.06-5.78,0-11.57-.12-17.36,0-3.06.08-6.11.65-9.19,1,.14,5.13.76,10,.52,15-.16,3.21,0,3.18,3.45,3.2,2.11,0,4.23.26,6.34.26,11.56,0,23.12-.18,34.67-.14,1.87,0,2.49-.69,2.73-2.34.69-4.78.22-9.59.48-14.38.08-1.56-.87-1.76-2.17-1.81" transform="translate(-232.85 -232.34)"/><path class="cls-1" d="M336.42,410.32c1.94,1.1,4.94.33,7.47.38a3.4,3.4,0,0,0,.83-.12,1.37,1.37,0,0,0,1.11-1.12,36.24,36.24,0,0,0,.8-6.26c-.05-1.84-2.37-1.62-3.44-2.72a23.3,23.3,0,0,0-4.74-3.47c-.71-.42-1.39-1.54-2.67-.74a66.64,66.64,0,0,0-.15,7.08c.19,2.39-1.57,5.63.79,7" transform="translate(-232.85 -232.34)"/><path class="cls-1" d="M375.46,365.34c2.12.08,4.23.29,6.34.44v-.07c2.12.16,4.23.27,6.34.47,1.81.18,2.52-.54,2.51-2.4,0-3.81,0-7.63.23-11.44.08-1.48-.32-2-1.79-2-4.23,0-8.46-.1-12.69-.28-1.72-.07-2.26.76-2.33,2.24-.19,3.67-.35,7.34-.57,11-.09,1.45.55,2,2,2.08" transform="translate(-232.85 -232.34)"/><path class="cls-1" d="M316.07,329a11.68,11.68,0,0,0,6.43-2.93c3.33-3.28,5.53-7.09,5.55-11a17.07,17.07,0,0,0-4.89-14.3c-3.82-3.95-11.08-4.33-15.38-.89a36.06,36.06,0,0,0-6.94,7.34c-3.3,4.69-2.89,13.31.91,17.39s9,5.16,14.32,4.36" transform="translate(-232.85 -232.34)"/><path class="cls-1" d="M359.12,322.61c.07,2.32,1.29,2.82,3.27,2.71,5.9-.33,11.8-.68,17.71-.89,2.33-.08,2.77-1.22,2.64-3.26-.23-3.65-.3-7.32-.4-11,0-2.23,1.06-5-.27-6.57-1.52-1.85-4.49-.78-5.68-1a71.67,71.67,0,0,0-13.77-.23c-4.15.37-4.31.53-4.24,4.59.09,5.2.57,10.4.74,15.6" transform="translate(-232.85 -232.34)"/><path class="cls-1" d="M293.44,274.46c-1.43,0-2.9,0-2.87,2.45-.16,2.27.37,3.25,2.18,3.29,1.37,0,3.13.13,2.75-2-.25-1.39.72-3.69-2.06-3.71" transform="translate(-232.85 -232.34)"/><path class="cls-1" d="M283.14,349.8c9.73-.35,19.44-1.08,29.19-.72,4.52.16,9.12.47,13.55-.18,8.56-1.26,17.17-1.07,25.74-1.37,12.7-.45,25.44-.32,38.15.24,5.2.23,10.41.74,16,.39-1-2.47-2.33-4-3.33-5.63-1.22-2-2.71-4.09-2.59-6.62.35-7.37-.71-14.66-1.22-22s-1.08-14.65-1.05-22c0-3.64-.77-4.3-4.38-5-.83-.16-1.68-.21-2.53-.31-10.38-1.22-20.83-1.72-31.26-2-9.44-.27-18.9,0-28.34,0-13.16,0-26.25.91-39.35,1.69-1.76.1-4.15-.47-5.17,1-.81,1.14-.17,3.25-.3,4.92a393.3,393.3,0,0,0-1.38,44.09,14.1,14.1,0,0,1-3.19,9.33c-.9,1.2-2.38,2.11-2.26,3.93,1.19.83,2.46.33,3.69.29m77.49-49.15c2.52-.22,5.07-.17,7.6-.21,3.66-.05,7.32-.08,11-.11,4.14,0,5.45,1.39,5.52,5.55.1,5.91.24,11.83.37,17.74.06,2.75-.3,3.28-3.11,3.15a165.8,165.8,0,0,0-21.95.49c-2.55.21-2.81-.08-3-2.77-.1-1.68,0-3.38-.1-5.07-.19-4.64-.45-9.28-.61-13.93-.11-3.45.81-4.54,4.26-4.84m-58.24,1.09a33.61,33.61,0,0,1,7.54-5.95,8.13,8.13,0,0,1,6.44-.73c10,2.51,14.28,9.64,13.47,21.64-.46,6.17-4.1,11.78-11.86,14.49s-17.75-2.05-20.43-9.76-.7-14.05,4.84-19.69M292,340c4.65.34,9.31.66,13.7.58,15.42.89,30.52-.53,45.64-.53,8.9,0,17.8.19,26.7.25,3.67,0,7.35-.07,11-.1q1.28,0,2.55.09c.87.06,1.8.26,1.69,1.39s-1.05,1-1.93.95c-12.71-.49-25.42-.32-38.13,0-14.83.4-29.67.63-44.47-.28-5.65-.34-11.29.08-16.91-.51-.79-.09-1.94.29-1.87-1s1.21-.95,2-.89" transform="translate(-232.85 -232.34)"/><path class="cls-1" d="M285.09,369c1.76-.24,4.05.69,5.17-.87s.28-3.55.39-5.37a55.18,55.18,0,0,0-.19-8.43c-.19-2.07-1.22-2.69-3-2.62-2.1.07-4.21.42-6.3.3s-2.84.75-2.84,2.64c0,2.67.11,5.35,0,8-.27,7.2-.29,7.29,6.76,6.33" transform="translate(-232.85 -232.34)"/><path class="cls-1" d="M367.44,275.1c-5.34-.24-10.66-1.09-16-1.14-10.13-.1-20.26.53-33.85-.43-3.72-.54-10.91,1-18.09.38-.82-.07-1.71-.15-2.15.87-1.07,2.45.74,5.5,3.27,5.14,5.2-.73,10.41.26,15.61-.43,4.34-.58,8.75.17,13.09-.14,8.87-.61,17.73-.49,26.59-.35,8.45.13,16.89.64,25.33,1,1.25.06,2.21.05,2.36-1.56.17-1.86-.9-1.94-2.33-2.09-4.6-.48-9.19-1.07-13.83-1.27" transform="translate(-232.85 -232.34)"/><path class="cls-1" d="M295.72,368.79a15.69,15.69,0,0,0,1.67-.27c2.43-.56,5.64.71,7.19-1.22s.47-4.91.64-7.43q.24-3.39.49-6.76c.11-1.42-.51-2.1-1.95-2.07-3.23.07-6.47.09-9.71.21-1.31,0-2.18.76-1.87,2.19.92,4.32.65,8.7.73,13.07,0,2.38.34,2.57,2.81,2.28" transform="translate(-232.85 -232.34)"/><path class="cls-1" d="M291.22,374.4c-.3-3.41-.38-3.4-4.16-3.48a28.79,28.79,0,0,0-6.38.45c-1.82.27-2.85,1-2.78,3,.13,3.52.21,7.05.35,10.57a2.08,2.08,0,0,0,2.42,2.25c2.82-.05,5.65-.05,8.46.11,2.09.12,2.81-.74,2.67-2.72-.22-3.38-.28-6.78-.58-10.15" transform="translate(-232.85 -232.34)"/><path class="cls-1" d="M401,350.63c-2.18.37-4.28-.05-6.4-.14-1.2,0-1.81.36-1.82,1.68q-.06,6.15-.24,12.31a1.7,1.7,0,0,0,1.65,2,71.68,71.68,0,0,0,14,.72,1.68,1.68,0,0,0,1.75-1.93c-.13-4,0-7.94-.64-11.85-.3-1.7-1.34-2.91-3.27-2.51-1.73.36-3.36-.27-5-.28" transform="translate(-232.85 -232.34)"/><path class="cls-1" d="M379.46,258.54c-1.4.06-2.8.09-4.19.08-1.83,0-2.4.77-2.21,2.6s1.38,2.19,2.91,2.18a17.75,17.75,0,0,0,4.16-.37c1.69-.37,1.85-1.45,1.72-2.82s-1.15-1.72-2.39-1.67" transform="translate(-232.85 -232.34)"/><path class="cls-1" d="M376.63,256.17c.84,0,1.68-.2,2.5-.14,2.26.15,2.89-1,2.79-3-.11-2.46-.27-2.64-4.38-2.9-.5,0-1.48,0-2.45,0a1.58,1.58,0,0,0-1.62,1c-1.18,2.85.13,5,3.16,5" transform="translate(-232.85 -232.34)"/><path class="cls-1" d="M394.75,368.32c-1.49-.13-2.42.34-2.42,2.07,0,5.22-.59,10.43,0,16.09,5.72.11,11.22.22,16.72.3.95,0,2.28.19,2.19-1.26-.3-4.78.14-9.62-.95-14.36-.21-.91-.62-1.51-1.64-1.6-4.64-.4-9.28-.83-13.92-1.24" transform="translate(-232.85 -232.34)"/><path class="cls-1" d="M370.25,258.81a12.64,12.64,0,0,0-6.66-.56c-.29.05-.58.58-.72.94-.93,2.47.11,4.13,3.28,4.42.69-.06,2-.11,3.22-.27,1-.13,1.38-.88,1.46-1.8s.39-2.35-.58-2.73" transform="translate(-232.85 -232.34)"/><path class="cls-1" d="M385.45,278.68c-.06,1.93,1.37,1.75,2.67,1.9,1.37,0,3.19.66,3.31-1.83.07-1.3-.26-2-1.83-2.12-3.11-.16-4.1.22-4.15,2.05" transform="translate(-232.85 -232.34)"/><path class="cls-1" d="M317.53,268.82c10.31-.15,20.62-.74,30.92-.45,15.95.46,31.81,2.85,47.82,2.85,2.66,0,3.4-.87,4.1-2.83,2.92-8.25,6-16.44,8.34-25.28-3.19-.65-6.06-1.47-9-1.79-18.27-2-36.63-2.76-55-3.08-12.42-.22-24.83.6-37.25,1.09-11.34.45-22.38,3.37-33.72,3.32-2,0-2,1.1-1.38,2.53,3.37,7.3,6.82,14.57,10.09,21.92.88,2,2,2.63,4.16,2.61,6.08,0,12.09-1.24,18.2-.91,4.22.23,8.47.09,12.71,0m46.56-20.72c5.22-.07,10.44-.08,15.66.08,3.8.12,4.83,1.42,4.69,5.17-.06,1.55-.05,3.1-.07,4.65h-.09c0,1.83,0,3.66.07,5.5,0,1.11-.25,1.91-1.6,1.94-5.88.13-11.77.37-17.65.42-4.13,0-4.49-.36-4.56-4.68-.06-3.24,0-6.49.18-9.74.11-2.39,1-3.32,3.37-3.35" transform="translate(-232.85 -232.34)"/><path class="cls-1" d="M366.23,255.71c1,.07,1.95.15,2.93.21,1.18.06,1.73-.58,2-1.67.78-3,0-4.07-3-4.22-.83,0-1.67-.09-2.51-.11-2.92,0-3.18.2-3.18,3,0,2.48,0,2.48,3.75,2.83" transform="translate(-232.85 -232.34)"/><path class="cls-2" d="M426.8,504.61a1.78,1.78,0,0,0,.6,2.22c3.83,3,6.08,2.4,7.68-2,.34-.93.66-1.87.94-2.82a3.62,3.62,0,0,1,2.82-2.75,13.84,13.84,0,0,0,7.37-5.42c1.11-1.5,2.19-2,3.89-1.5,1.09.3,2.21.49,3.31.74,6.17,1.37,6.35,1.24,7.29-5.15.5-3.43.06-4-3.49-3.73a43.49,43.49,0,0,1-5.93.06c-1.49-.1-2.71-.46-3.3-2.09a7.71,7.71,0,0,0-7.15-5.13,4.3,4.3,0,0,1-3.83-2.75c-1.43-2.74-2.74-5.57-4.38-8.19-3.6-5.74-6.8-11.71-10.68-17.29-3.05-4.38-5.41-9.24-8.82-13.41-.74-.9-1.53-2-.45-3,2.43-2.24,1.52-4.91,1.22-7.53-.33-2.88-1.14-5.86-3.42-7.54-3.25-2.4-6.43-5.16-10.42-6.32-7.09-2.06-14.45-2.61-21.76-3-9-.5-18.08-.48-27.12-.57-2.08,0-2.74-.71-2.45-2.77.39-2.8.49-5.64.8-8.45.37-3.44.46-3.49,3.83-3.48,4.95,0,9.89,0,14.84.05,8.2.09,16.36-.69,24.58-.58,6.9.09,13.83-.63,20.75,0,1.28.13,2.23-.26,2.39-1.72s.95-2.44.75-4c-.69-5.46-1-11-1.33-16.47-.27-4.23-.88-8.52-.47-12.7.43-4.49-1.07-7.84-3.61-11.27-3-4.05-6.16-8.12-6.17-13.61,0-13.58-1.91-27.07-2-40.65,0-5.12-2.51-8.85-7.69-10.26-1.38-.37-1.69-1-1.71-2.37-.06-2.81,1.88-2.47,3.47-2.24,5.65.81,5.9-.76,7.42-5.22,2.32-6.82,4.61-13.66,7.29-20.33,1.58-3.91,2.1-7.38-.23-11.19-1.21-2-2.36-3.3-4.82-3.44-13.83-.78-27.6-2.33-41.4-3.52-22-1.89-43.79-.22-65.63,1.3-10.27.71-20.45,2.65-30.67,4.05-4.74.65-5.61,1.86-4.63,6.53a11.22,11.22,0,0,0,1.3,3.1c1.82,3.18,3.75,6.28,5.57,9.46a115,115,0,0,1,6.11,11.14c1.59,3.71,3.44,6.41,7.93,5.91,1.75-.2,2.61.6,2.8,2.34.24,2.09.43,3.76-2.8,4.11-1.74.18-3.54.64-3.51,2.9.06,3.7-1.21,7.23-1.25,10.9-.18,14.43-1.75,28.82-1.66,43.26a7.11,7.11,0,0,1-1.87,5c-4,4.06-5.94,8.53-4.1,14.2a3,3,0,0,1,0,.85c-.31,10.32.09,20.64.24,31,0,2.1.48,3.24,2.7,3.28.84,0,1.68.2,2.52.21,7.77.1,15.55.32,23.31.23,9.61-.11,19.22.13,28.81-.67,2.84-.24,2.88-.1,2.79,2.69s-.19,5.37-.33,8c-.15,3-.17,3-3.06,3.13-6.77.34-13.56.42-20.31,1-7,.62-14,1.18-20.65,4.07-9.26,4-13.18,10.1-12.06,20.15a6.18,6.18,0,0,1-1.47,4.28,220.92,220.92,0,0,0-13.58,22.92c-2.93,5.79-6.12,11.46-9.37,17.08-1.11,1.94-1.51,4.36-3.42,5.77a11.79,11.79,0,0,0-3.89,5.44c-.94,2.48-2.14,4.35-5.15,4.84-2,.33-3.71,1.93-5.86,2.32a1.51,1.51,0,0,0-1.24,2.21,30.51,30.51,0,0,0,1.19,3.61c1.26,2.53,1.76,2.6,4.42,1.47,1.81-.76,3.71-1.34,5.54-2.06,1.14-.44,2-.55,3,.6a5.8,5.8,0,0,0,6.24,1.7c2.9-.81,4.14.4,5.11,2.73.33.77.87,1.46,1.27,2.2,3.38,6.34,3.52,6.33,8.59,1.39,1.07-1,1.13-2,.3-2.93-1.76-2.05-2.68-4.69-4.45-6.68a5.16,5.16,0,0,1-1.08-5.77,7.25,7.25,0,0,0-.18-5.41c-1.38-3-.44-5.78,1-8.47q2.32-4.27,4.63-8.57a269.78,269.78,0,0,1,14.77-25.17c1.09-1.58,1.87-1.62,3.39-.76a8.83,8.83,0,0,0,4.78,1.55c2.3-.15,2.46,1.25,2.41,3-.12,3.67-.32,7.35-.21,11,.25,8.46-.3,17,2.45,25.23a8.58,8.58,0,0,0,3.6,4.94c2.49,1.59,5.2,2.85,7.58,5a14.18,14.18,0,0,0-1.9,14c.85,2.35,2.8,3.87,4.14,5.83a6,6,0,0,1,1.26,3.76,69.17,69.17,0,0,1-1.54,13.47,97.89,97.89,0,0,0-2.42,23.17c.2,6.61-.31,12.72-5.77,17.33a1.25,1.25,0,0,0-.23.35c-2.9,5.18-6.62,9.82-9.86,14.77a15.17,15.17,0,0,0-2.93,9.53c.23,3.38,1.17,4.31,4.44,3.71a138.82,138.82,0,0,1,21.05-2.15,104.87,104.87,0,0,0,12.65-1c3.73-.56,5-1.51,4.31-5.61-.8-4.86-1.59-9.75-1.25-14.75a46.1,46.1,0,0,0-.28-8.47c-.95-7.91-.6-15.82-.31-23.73.36-9.61.91-19.2,1.36-28.81.16-3.55,2.32-4.69,5.65-3.12,4.73,2.23,9.62,3.27,14.75,1.32,1.44-.56,2.9-1.09,4.34-1.67a2,2,0,0,1,2.23.49c3.83,3.05,4.47,7.16,4.19,11.64-.09,1.41-.3,2.81-.39,4.22q-1.8,28.8-3.58,57.61a79.86,79.86,0,0,0-.05,8c.12,3,1.7,4.15,4.73,3.86a27,27,0,0,1,3.79-.37c7.75.32,15.51-.5,23.26.4a11.36,11.36,0,0,0,6.49-1.63c1.56-.82,2.35-1.95,1.4-3.79-2.45-4.77-4.78-9.6-7.29-14.33-2.77-5.23-5.74-10.36-8.54-15.58a7.83,7.83,0,0,1-.6-5.36,83.21,83.21,0,0,0,1.36-14.35q.21-12.74.49-25.46c0-1.68-.11-3.49,1.25-4.79,4-3.86,3.89-8.78,2.82-13.47-.62-2.74-.53-4.06,2.1-5.17,3.2-1.35,4.26-3.91,4.39-7.46.47-12.15,1.34-24.29,2-36.43.17-3.39.73-6.13,5-6.23,1.52,0,2.35-1.49,3.49-2.28s2.2-1,3,.64c6.09,11.49,13.64,22.07,20.61,33,2.16,3.39,5.18,6.87,2.64,11.53a3.91,3.91,0,0,0-.26,2.9c1.42,3.66.09,6.86-1.26,10.13-.53,1.3-.79,2.71-1.21,4.06m22.06-16.72c.21-1.07.91-1.28,1.84-1.19a18.92,18.92,0,0,0,5.42,0c1-.18,2-.14,2.19,1.24s-.88,3.56-2,3.7a9.45,9.45,0,0,1-1.52-.1c-1.49-.39-3.25-.82-5-1.32-1.27-.36-1.18-1.33-1-2.36M243.7,496.57c-2,1-4,2-6.12,2.79-.77.31-1.25-.43-1.48-1.13s-.64-1.7.36-2.23c1.85-1,3.72-2,5.65-2.82,1-.43,2.18,1,2.08,2.58-.08.16-.19.67-.49.81M390,384.47c-.24,1.65-.86,2.34-2.73,2.34-11.55,0-23.11.1-34.67.14-2.11,0-4.23-.25-6.34-.26-3.47,0-3.61,0-3.45-3.2.24-4.95-.38-9.86-.52-15,3.08-.35,6.13-.92,9.19-1,5.79-.15,11.58,0,17.36,0,2.17,0,3.07.86,2.88,3.06-.31,3.51-.49,7-.71,10.57a8,8,0,0,0,.06,1.69c.12.85-.46,2.28,1.15,2.11,1-.1,1.16-1.15,1-2-.8-4,.08-7.9.15-11.84.05-3.63.15-3.64,3.54-3.44,3.81.24,7.61.53,11.42.7,1.3.05,2.25.25,2.17,1.81-.26,4.79.21,9.6-.48,14.38m-54.35,18.88a66.7,66.7,0,0,1,.15-7.08c1.28-.8,2,.32,2.67.74a23.3,23.3,0,0,1,4.74,3.47c1.07,1.1,3.39.88,3.44,2.72a36.36,36.36,0,0,1-.8,6.26,1.37,1.37,0,0,1-1.11,1.12,3,3,0,0,1-.83.12c-2.53-.05-5.53.72-7.47-.38-2.36-1.34-.6-4.58-.79-7M371,364.67c-1.71,1.34-4.36.28-6.59.28A155.36,155.36,0,0,0,344.21,366c-2.15.28-2.73-.42-2.74-2.43,0-3.66-.17-7.33-.38-11-.09-1.63.55-2.23,2.12-2.43a85.4,85.4,0,0,1,11-.52c4.92,0,9.83.56,14.78.21,3.11-.23,3.3.17,3.2,3.33,0,1.55-.21,3.1-.32,4.65-.32,2.31,1.25,5.24-.8,6.84m3-12.42c.07-1.48.61-2.31,2.33-2.24,4.23.18,8.46.24,12.69.28,1.47,0,1.87.57,1.79,2-.19,3.81-.26,7.63-.23,11.44,0,1.86-.7,2.58-2.51,2.4-2.11-.2-4.22-.31-6.34-.47v.07c-2.11-.15-4.22-.36-6.34-.44-1.41-.06-2-.63-2-2.08.22-3.67.38-7.34.57-11m36.24,18.91c1.09,4.74.65,9.58.95,14.36.09,1.45-1.24,1.28-2.19,1.26-5.5-.08-11-.19-16.72-.3-.61-5.66,0-10.87,0-16.09,0-1.73.93-2.2,2.42-2.07,4.64.41,9.28.84,13.91,1.24,1,.09,1.44.69,1.65,1.6m-1-17.74c.68,3.91.51,7.89.64,11.85a1.68,1.68,0,0,1-1.75,1.93,72.46,72.46,0,0,1-14-.71,1.71,1.71,0,0,1-1.65-2q.18-6.15.23-12.31c0-1.32.63-1.72,1.83-1.68,2.12.09,4.22.51,6.4.14,1.63,0,3.26.64,5,.28,1.93-.4,3,.81,3.27,2.51M286.62,269.71a3.84,3.84,0,0,1-4.16-2.61c-3.27-7.35-6.72-14.62-10.09-21.92-.66-1.43-.58-2.54,1.38-2.53,11.34,0,22.38-2.87,33.72-3.32,12.42-.49,24.83-1.31,37.25-1.09,18.37.32,36.73,1.08,55,3.08,2.93.32,5.8,1.14,9,1.79-2.34,8.84-5.42,17-8.34,25.28-.7,2-1.44,2.83-4.1,2.83-16,0-31.87-2.39-47.82-2.85-10.3-.29-20.61.3-30.92.45-4.24.07-8.49.2-12.71,0-6.11-.33-12.12.86-18.2.91m104.81,9c-.12,2.49-1.94,1.8-3.31,1.83-1.3-.15-2.73,0-2.67-1.9s1-2.21,4.15-2.05c1.57.09,1.9.82,1.83,2.12m-7.83-.29c-.15,1.61-1.11,1.62-2.36,1.56-8.44-.38-16.88-.9-25.33-1-8.86-.14-17.72-.26-26.59.35-4.34.31-8.75-.44-13.09.14-5.2.69-10.41-.3-15.61.43-2.53.36-4.33-2.69-3.27-5.14.44-1,1.33-.94,2.15-.87,7.18.59,14.37-.92,18.09-.38,13.59,1,23.73.33,33.85.43,5.34.05,10.66.9,16,1.14,4.64.2,9.23.79,13.83,1.27,1.43.15,2.5.23,2.33,2.09m-90.85,1.74c-1.81,0-2.34-1-2.18-3.29,0-2.44,1.44-2.46,2.86-2.45,2.79,0,1.82,2.32,2.07,3.71.38,2.16-1.38,2.06-2.75,2m-11,65.38a14.1,14.1,0,0,0,3.19-9.33,395.69,395.69,0,0,1,1.37-44.09c.14-1.67-.5-3.78.31-4.91,1-1.44,3.41-.87,5.17-1,13.1-.77,26.19-1.73,39.35-1.68,9.44,0,18.9-.25,28.34,0,10.43.3,20.88.8,31.26,2,.85.1,1.7.15,2.53.31,3.61.68,4.39,1.34,4.38,5,0,7.36.54,14.68,1.05,22s1.57,14.61,1.22,22c-.12,2.53,1.37,4.57,2.59,6.62,1,1.68,2.34,3.16,3.33,5.63-5.62.35-10.83-.16-16-.39-12.71-.56-25.44-.69-38.15-.24-8.57.3-17.18.11-25.74,1.37-4.43.65-9,.34-13.55.18-9.75-.36-19.46.37-29.19.72-1.23,0-2.5.54-3.69-.29-.12-1.82,1.36-2.73,2.26-3.93m-3.39,9.05c0-1.89.77-2.76,2.84-2.64s4.2-.23,6.3-.31c1.78-.06,2.81.56,3,2.62a55.34,55.34,0,0,1,.19,8.44c-.11,1.82.63,3.95-.39,5.37s-3.42.63-5.17.87c-7,1-7,.87-6.76-6.33.1-2.67,0-5.35,0-8m10.81,32.64c-2.81-.16-5.64-.16-8.46-.11a2.08,2.08,0,0,1-2.42-2.25c-.14-3.52-.22-7.05-.35-10.58-.07-1.95,1-2.69,2.78-3a29.4,29.4,0,0,1,6.38-.45c3.78.08,3.86.07,4.16,3.48s.36,6.77.58,10.15c.14,2-.58,2.84-2.67,2.72m3.78-20.76c-.08-4.37.19-8.75-.73-13.07-.31-1.43.56-2.15,1.87-2.19,3.24-.12,6.48-.14,9.71-.21,1.44,0,2.06.65,1.95,2.07q-.25,3.38-.49,6.76c-.17,2.52.84,5.59-.64,7.44s-4.76.65-7.19,1.2a13.53,13.53,0,0,1-1.67.28c-2.47.29-2.76.1-2.81-2.28m9.67,20.91c-1.12,0-2.24-.15-3.36-.23-5.62.31-5.3.21-5.18-5.13.06-2.65-.46-5.31-.64-8-.22-3.25-.12-3.39,3-3.68,2.24-.21,4.49-.26,6.74-.33,1.28,0,2.11.43,2.18,1.93.18,4.07.58,8.14.67,12.22.08,3.18-.07,3.2-3.39,3.19m4.72-22.08c.13-3.81.23-7.62.21-11.44,0-2,.9-2.75,2.83-2.69,2.68.09,5.37-.07,8,.09a73,73,0,0,0,14.78-.44c1.25-.18,2.54,0,3.81-.12,1.6-.13,2.25.59,2.44,2.14a48.46,48.46,0,0,1-.07,7.62c-.19,6-.19,6-6.16,6.15-6.62.22-13.26.12-19.86,1a34.56,34.56,0,0,1-3.81,0c-1.58,0-2.27-.7-2.21-2.33m6.24,21.78-3,.06c-1.36,0-2.05-.53-2.12-2-.2-4.23-.5-8.45-.73-12.68-.07-1.34,0-2.47,1.94-2.5,8.87-.11,17.66-1.88,26.57-1.45,3.4.16,3.5.13,3.8,3.55.27,3.09.3,6.2.38,8.1,0,6.39,0,6.28-5.32,6.34-7.19.08-14.38.37-21.56.56M252,499.56c-2.81-.13-5.78-4.37-5.59-7.92.11-2,1.09-3.77,1.63-5.65a2.27,2.27,0,0,1,.73-1c1.21-1,8-1.52,9.38-.58a6.72,6.72,0,0,1,3.13,6.88c-.41,3.88-5.53,8.45-9.28,8.28m9.25-1.28c1.59,2.29,3.12,4.62,4.66,7a2.83,2.83,0,0,1,.21.81A2.14,2.14,0,0,1,264.7,508a1.16,1.16,0,0,1-1.52-.21c-2-2.37-3.16-5.24-4.45-8-.33-.69.32-1.27,1-1.65a1.07,1.07,0,0,1,1.5.18m19.48-53.47c-5.5,9.34-10.59,18.93-15.79,28.44-1.36,2.47-2.61,5-3.79,7.56-.64,1.38-1.45,1.95-3,1.46a10.89,10.89,0,0,0-2.49-.41c-3.47-.28-3.47-.26-2.64-3.47a10.26,10.26,0,0,1,1.35-3.53c6.31-8.88,10.46-19,16.13-28.22,2.78-4.53,6-8.79,9.39-13.69.45,1.36.48,2.18.91,2.65,2.87,3.14,1.86,5.87-.1,9.21m10.12-4.42c-4.08-.76-6.89-3.05-8-7.19C281,426,285.32,418.6,291,416.51a12,12,0,0,1,1.59-.56c3.72-.81,4.63-.16,4.65,3.57,0,5.08-.06,10.16-.1,15.8,0-.09,0-.14,0-.19v.05c-.16,5.07-1.41,6.14-6.39,5.21m20.33,63.88c.29-2.77.14-6.23,2.84-7.57,2.3-1.14,4.63,1,6.7,2.43s4.05,2.51,6.05,3.8a9.21,9.21,0,0,1,3.74,3.5c-2.22,2.72-4.63,5.11-8,6.43-4.77,1.85-9.09,0-10.7-4.86a9.07,9.07,0,0,1-.59-3.73m-3.07,89.3c-3.38.28-6.72.92-10.09,1.21-1.28.12-3.09,1-3.82-.59s.8-2.59,1.65-3.66a48.68,48.68,0,0,0,4.95-7.37c3.14-5.86,7.71-10.74,11.18-16.38a10.09,10.09,0,0,0,1.61-5c.48-8.87-.14-17.78.88-26.63.63-5.48,1.16-11,1.69-16.46.14-1.49.65-2.46,2.33-2.26,2,.24,3.86-.49,6-1.43.25,7.89-.48,15-1,22.23-.51,6.47-.61,13-.75,19.48-.07,2.93-.95,5.89.29,8.81.42,1-.27,1.93-.62,2.83a170.82,170.82,0,0,1-10.45,22.62c-1,1.71-1.91,2.49-3.81,2.65m14.17-1c-2.73.1-5.44,1.21-8.76.13,3.85-6.48,6.58-13.18,10.11-19.74.13,1.13.33,2.26.38,3.39.23,4.48.4,9,.59,13.45.08,1.64-.44,2.69-2.32,2.77m37.84-83.3c-.45-1.41-.33-2.81,1.3-3.57,5.6-2.59,10.94-5.68,16.29-8.73,1.54-.87,2.36-.25,3,1.06a7.71,7.71,0,0,1,1,4.62c-.39,6-5.11,11.91-10.12,12.94-3.55.73-10.38-3-11.44-6.32m4,83.65c-1,0-1.49-.62-1.5-1.61s0-1.69,0-2.53c.27-5.77.54-11.54.86-17.3a3.48,3.48,0,0,1,1.1-2.86c2.85,8.21,6.65,15.74,9.16,24.22-3.31,0-6.46.07-9.61.08m22.52-8.14c1,2,2.26,3.9,3.28,5.91.92,1.79.61,2.46-1.24,2.5-3.23.07-6.47,0-9.71,0a2.67,2.67,0,0,1-2.6-1.79c-.77-1.66-1.74-3.26-2.34-5-2-5.87-5.24-11.26-6.88-17.28a4.56,4.56,0,0,0-.83-1.93c-3-3-2.16-6.76-1.93-10.36.64-9.87,1.72-19.7,2-29.6a50.83,50.83,0,0,0,0-6.76c-.14-1.27.23-2.44,1.77-2.2,3.16.48,5.7-1.2,9.19-2.63-.24,7.38-.33,14.12-.7,20.84-.45,8.17-1.06,16.34-1.75,24.49a10.66,10.66,0,0,0,2.16,7.45,129.36,129.36,0,0,1,9.64,16.39m-1.6-94.1c-3.24,1.94-6.5,3.83-9.81,5.67-4.32,2.4-8.92,4.22-13.14,6.78a45.21,45.21,0,0,1-14.28,5.1,18.36,18.36,0,0,1-14.57-3c-9.66-6.61-19.47-13-29-19.86a10.41,10.41,0,0,1-4.62-8.48,286.08,286.08,0,0,1-.2-34.77c0-.85.12-1.7.19-2.68.1-6.94.22-14,.29-21.09,0-3.49,0-3.49,3.58-4,.84-.12,1.69-.25,2.53-.29,6.77-.25,13.53-.58,20.3-.68a79.16,79.16,0,0,0,9.73-.48c5.07-.68,10.17-.15,15.23,0,12,.45,24-.37,36,1.3,2.44.34,3.21,1.21,3.51,3.63.64,5.14-.21,10.18-.43,15.25-.55,12.72-1.3,25.42-1.86,38.14-.23,5.09-1.3,10.11-1,15.24a4.41,4.41,0,0,1-2.43,4.15m48.93,10c-.56,1.27-.77,2.7-1.25,4-.31.86-1,1.41-2,.92-.77-.39-1.49-.87-1.24-1.93a8.44,8.44,0,0,1,.33-1.22c.61-1.56,1.25-3.11,1.89-4.7,1.7.36,3.26.57,2.23,2.91m4.85-21.18c2.53-.91,6.78,1.6,7.56,4.59a19.5,19.5,0,0,1,.4,3.22c-.37,3.95-4.75,8.73-8.16,9.38A5.58,5.58,0,0,1,432,492.3a10.56,10.56,0,0,1,6.77-12.87m-33.14-42.37c-2.32,3.63-6.23,5.67-10.52,6.48-2.32.44-3.05-.28-2.94-2.78.16-3.94.53-7.88.82-11.82h-.24c0-3.67,0-7.35.14-11,.08-2.39.53-2.66,2.84-2.3,9.94,1.51,15.36,12.92,9.9,21.44m24.87,41.82c-2-3.38-3.85-6.82-6.07-10.08-3.86-5.69-7.27-11.69-11.1-17.41-2.27-3.4-3.77-7.18-5.77-10.71-1.33-2.35,1-4.16,1.24-6.9,2.82,2.24,4,4.86,5.59,7.15,5.29,7.77,10.38,15.68,15.07,23.85,2.1,3.66,3.75,7.57,6.1,11.07,1.15,1.7.95,2.83-.53,3.91-1.81,1.3-3.39,1.05-4.53-.88" transform="translate(-232.85 -232.34)"/><path class="cls-2" d="M377.73,482.42a24,24,0,0,0-2.54.05c-4.37.24-8.74.47-13.11.74a270.38,270.38,0,0,1-30.29-.29,32.61,32.61,0,0,1-6.14-.18,101.69,101.69,0,0,0-16.09-.16c-.71.07-1.48.32-1.43,1.22s.9.81,1.58.8c5-.09,9.9-.41,14.83-.2,16.65.7,33.29,1.39,50,.65,1.13-.05,2.26-.1,3.38-.07s1.72-.23,1.69-1.34-1-1.19-1.84-1.22" transform="translate(-232.85 -232.34)"/><path class="cls-2" d="M318,331.19c7.76-2.71,11.4-8.32,11.86-14.49.81-12-3.46-19.13-13.47-21.64a8.13,8.13,0,0,0-6.44.73,33.61,33.61,0,0,0-7.54,5.95c-5.54,5.64-7.51,12.06-4.84,19.69s12.73,12.45,20.43,9.76m-17.14-23.92a36.06,36.06,0,0,1,6.94-7.34c4.3-3.44,11.56-3.06,15.38.89a17.11,17.11,0,0,1,4.9,14.3c0,3.88-2.22,7.69-5.56,11a11.68,11.68,0,0,1-6.43,2.93c-5.31.81-10.46-.21-14.32-4.36s-4.21-12.7-.91-17.39" transform="translate(-232.85 -232.34)"/><path class="cls-2" d="M291.81,341.84c5.62.59,11.26.17,16.91.51,14.79.91,29.64.68,44.47.28,12.71-.33,25.42-.5,38.13,0,.88,0,1.81.24,1.93-.95s-.82-1.33-1.69-1.39-1.7-.1-2.55-.09c-3.67,0-7.35.13-11,.1-8.9-.06-17.8-.25-26.7-.25-15.12,0-30.23,1.42-45.64.53-4.39.08-9-.24-13.71-.58-.79-.06-1.94-.28-2,.89s1.08.87,1.87,1" transform="translate(-232.85 -232.34)"/><path class="cls-2" d="M357,319.42c.07,1.69,0,3.39.1,5.07.15,2.69.41,3,3,2.77a165.8,165.8,0,0,1,21.95-.49c2.81.13,3.17-.4,3.11-3.15-.13-5.91-.27-11.83-.37-17.74-.07-4.16-1.38-5.51-5.52-5.55-3.66,0-7.32.06-11,.11-2.53,0-5.08,0-7.6.21-3.45.3-4.37,1.39-4.26,4.84.16,4.65.42,9.29.61,13.93m5.64-17a71.67,71.67,0,0,1,13.77.23c1.19.19,4.16-.88,5.68,1,1.33,1.61.22,4.34.27,6.57.09,3.66.17,7.33.4,11,.13,2-.31,3.18-2.64,3.26-5.91.21-11.81.56-17.71.89-2,.11-3.2-.39-3.27-2.71-.17-5.2-.65-10.4-.74-15.6-.07-4.06.09-4.22,4.24-4.59" transform="translate(-232.85 -232.34)"/><path class="cls-2" d="M365.1,265.87c5.88-.05,11.77-.29,17.65-.42,1.35,0,1.62-.83,1.6-1.94,0-1.84-.05-3.67-.07-5.5h.09c0-1.55,0-3.1.07-4.65.14-3.75-.89-5-4.69-5.17-5.22-.16-10.44-.15-15.66-.08-2.38,0-3.26,1-3.36,3.35-.15,3.25-.25,6.5-.19,9.75.07,4.31.43,4.71,4.56,4.67m15-2.84a17.75,17.75,0,0,1-4.16.37c-1.52,0-2.71-.21-2.91-2.18s.38-2.63,2.2-2.6c1.4,0,2.8,0,4.2-.08,1.24-.05,2.26.15,2.39,1.67s0,2.45-1.72,2.82m-6.66-11.89a1.58,1.58,0,0,1,1.62-1c1,0,2,0,2.45,0,4.11.26,4.27.44,4.38,2.9.1,2.06-.53,3.2-2.79,3-.82-.06-1.67.15-2.5.14-3,0-4.34-2.17-3.16-5m-2.65,10.4a1.7,1.7,0,0,1-1.45,1.8c-1.26.16-2.53.21-3.22.27-3.17-.28-4.22-1.95-3.28-4.42.14-.37.43-.89.72-.94a12.64,12.64,0,0,1,6.66.56c1,.38.66,1.75.57,2.73m-5.16-11.62c.84,0,1.68.07,2.51.11,3,.15,3.79,1.25,3,4.22-.29,1.09-.84,1.73-2,1.67-1-.06-2-.14-2.93-.21-3.75-.35-3.75-.35-3.75-2.83,0-2.76.26-3,3.18-3" transform="translate(-232.85 -232.34)"/></svg>