<svg id="Layer_1" data-name="Layer 1" xmlns="http://www.w3.org/2000/svg" viewBox="0 0 623.7 862.06"><defs><style>.cls-1{fill:#fff;}.cls-2{fill:#010101;}</style></defs><path class="cls-1" d="M440.13,715.05c.68-3.38-.4-6.18-.93-9-3.12-16.64-7.24-33.16-9.17-49.93-2.61-22.73-5.22-45.47-7.61-68.22-2.72-25.76-4.11-51.54-5.53-77.35-.34-6.24-.34-6.57-6.79-6.11q-23.13,1.66-46.21,3.92c-6.61.64-6.79,1-6,7.67,1.71,13.87,3.45,27.74,5.58,41.55,2.45,15.87,4.28,32,8.32,47.43,4.58,17.53,7.24,35.45,12.56,52.85,4.85,15.88,9,31.94,15.77,47.16,1.89,4.23,4.83,7.44,9.78,8,10,1.08,20,2.37,30.2,2.08" transform="translate(-171.42 -56.71)"/><path class="cls-1" d="M525.41,227.16C508.69,250,501.8,276,501.62,304.34c.71,8.93,0,18.12,1.85,27.28,3,14.44,11.86,25.3,21.74,35,12.67,12.48,26.44,24.36,44.66,27.69,9.19,1.67,17.7,4.87,26.4,7.72a57.5,57.5,0,0,0,10.27,2.76c23,3.17,45.34,1.38,67.31-7.22,16.56-6.49,31.69-14.48,43.72-27.78a73.61,73.61,0,0,1,6.68-5.89,93.48,93.48,0,0,0,23.66-30.59c3.79-7.94,4.36-16.6,6.47-24.93,7.59-30,1.37-57.75-13.84-83.76-10.72-18.32-25.23-33.36-45.76-40.31a208.16,208.16,0,0,0-50.42-10.4c-7.68-.59-15.54-1.14-23.09.75-20.63,5.16-41.64,8.65-60.12,20.9-13.54,9-26.2,18.55-35.74,31.57M654,233.84a32.94,32.94,0,0,1,20.17-13.71c7-1.53,13.64,1.49,19.53,4.64,27.54,14.71,45.79,52.81,31,87.37-9.1,21.31-31.21,28.85-47.59,26.43-1.77-.26-3.52-.73-5.29-.84-11.25-.69-18-7.61-23.85-16.38-7.2-10.84-10.13-22.62-9.25-33.25-.81-21.28,4.41-38.66,15.25-54.26m-25.28,52.47a.92.92,0,0,1-1.25.83,3,3,0,0,1-.73-3.24c.08-.35,1-.87,1.21-.75,1.19.76.93,2,.77,3.16m-1.9-14.42c1.44.54.52,1.69.6,2.54,0,.44-.35.92-1,2.49.2-2.44.3-3.73.41-5m-43.57,7.2a154.22,154.22,0,0,1,8.45-40.79A203,203,0,0,1,608.3,202c1.71-2.86,3-5.87,7.89-6.41-.71,6.52-5.52,9.83-8,14.31-8.86,16.08-14,33.29-17.91,51C589,267,587.44,273.1,587,279.28c-1.52,22.2,5.22,42.17,17.26,60.6,5.38,8.24,12,15.33,19.07,22.11A31.78,31.78,0,0,0,634,368.35c8.56,3.39,17.08,6.91,26,9.26,1.57.42,3.76.33,3.79,3.48a36.54,36.54,0,0,1-17.68-3.6c-4.3-2.07-8.44-4.44-13.25-5.11a11.87,11.87,0,0,1-5.54-2.71c-9-6.88-17.37-14.29-24-23.67-14.19-20.12-21.8-42.21-20-66.91" transform="translate(-171.42 -56.71)"/><path class="cls-1" d="M451.67,816.23c-5.9,18.31-12.66,36.47-16.18,55.36-4.16,22.28,6.58,37,29.69,37.09l5.44.05c9,3,18.36-1.49,28-2.6,3.05-.36,5.32-2.25,7.63-4.24,4.81-4.14,5.67-9.59,5.55-15.33-.32-14.19,0-28.31-2.35-42.55-1.74-10.45-2.23-21.11-5.42-31.38-1.94-6.27-5.82-10-12.13-11.74-6.16-1.68-12.3-1-18.52-1-11.39.13-18.35,5.89-21.71,16.3m25.55-9.64c2,.2,4.33-.32,5.48,2.06.89,1.82.15,3.58-.78,5.05-1.1,1.73-2.65,3.18-3.9,4.83-1.78,2.34-4,4.47-3.66,7.87.31,1,1,1.17,2,1.11,11.27-.73,12.59,1.39,8.14,11.78-2.13,5-4.45,9.76-8.4,13.48-2.15,2-2.33,4.65-3.32,7.6,4.28.53,7.21-.57,10.22-2a5.17,5.17,0,0,1,5.76,1.3c1.86,1.83,1.27,4,.13,5.74a133.53,133.53,0,0,0-13.28,26.13c-.89,2.29-2.83,4.28-5.42,3.43s-4-3.26-3.73-6.39c.27-3.4,2-6.15,3.33-9.12s4.48-4.92,3.59-9.18c-3.4-.36-7,1-10.39-.37-4-1.58-5.19-3.64-3.25-7.52,2.77-5.57,5.16-11.39,9.14-16.29,1.48-1.82,3.13-3.53,3.82-6.5-3.59-.82-6.95-1.46-10.24-2.35s-4.2-3.06-2.9-6.15a103.35,103.35,0,0,1,13.11-22.2,5,5,0,0,1,4.56-2.31" transform="translate(-171.42 -56.71)"/><path class="cls-1" d="M493.54,784.91c2.64-.07,7-2.5,7.1,2.09.11,3.92-4.87,1.67-7.2,3.11-.24.15-.44.37-1.24,1a5.86,5.86,0,0,0,3.42,3.12c6.48,2.36,12.66,5.17,16.62,11.24a2.84,2.84,0,0,0,3.87,1.09c5-2.51,10.77-3.17,15.44-6.66a10.07,10.07,0,0,0,4.35-10c-.79-8-5.12-14.41-9.08-21-1.9-3.14-5.23-4-8.63-3.17-7.14,1.69-14.28,3.42-21.27,5.61-4.13,1.29-7.23,4.17-7.47,9-.14,2.74.88,4.54,4.09,4.46m18.74,9.84a1.85,1.85,0,0,1-2.09,1.2,1.57,1.57,0,0,1-1.36-1.87c1.9-6.17-1.43-10.5-5.06-14.92,8.26,1.77,11.72,8.81,8.51,15.59" transform="translate(-171.42 -56.71)"/><path class="cls-1" d="M433.39,802.2A82.7,82.7,0,0,1,438,791.63c5.48-11.52,5.5-11.51,18.18-13.92-5.74-8.83-5.74-8.83-14.54-9.65-19-1.75-19-1.75-26.7,16-5.57,12.84-5,14.32,7.78,19.66,1.1.46,2.21.87,3.27,1.38,3.52,1.68,6,1.53,7.43-2.88m3.15-27.07c.78,7.68-2.42,12.48-3.74,17.7-2.58-6.08.13-11,3.74-17.7" transform="translate(-171.42 -56.71)"/><path class="cls-1" d="M581.89,609.19c2.8-20.32,5.47-40.66,6.86-61.13.76-11.18,2.89-22.38-2-33.43-1.32-3-2.72-4.65-5.45-4.59-11.74.25-22.88-3.63-34.44-4.6-22.24-1.86-44.5-3.22-63.33-2.92-21.07-.5-38.59.32-56.13,1.34-4,.23-6.05,1.12-5.83,5.62.82,16.93,1.47,33.88,2,50.83.14,4,2.1,5.22,5.66,4.94,6.52-.5,13-1.15,19.56-1.47,6.36-.31,6.41-.17,6.77,6,.54,9.2.63,18.44,1.58,27.59,2.28,21.88,2.51,43.94,6.09,65.7.8,4.93-.53,6.82-5.48,7.11-4.8.29-9.36,1.59-14.07,2.2s-6.62.9-6,7.4c1.1,11,4.31,21.56,6.31,32.36.72,3.9,3.86,4.3,6.75,4.54,13,1.07,26.06,3,39.12,1.85,20.14-1.76,40.14-4.6,59.57-10.45,5.17-1.56,9.9-3.38,11.24-9.75.9-4.32,3.34-8.3,4.39-12.6,4.59-18.74,10-37.28,13.13-56.37,1.1-6.74,2.64-13.39,3.57-20.19" transform="translate(-171.42 -56.71)"/><path class="cls-1" d="M699.72,536.2c-2.24,8.6-4.71,17.12-7.55,25.56-2.74,8.17-7.71,15.49-9.73,23.73-2.14,8.66-9.69,14.54-11.66,24.68,11.52-4.07,21.73-7.94,32.13-11.23,5.33-1.69,7.24-5.33,8.66-10.19,3.57-12.23,7.57-24.34,11.29-36.53,3.62-11.91,7.13-23.86,10.65-35.8,1.12-3.81,1.76-7.62-1.73-10.72-7.09-6.3-12.84-13.88-20.71-22.1-1.84,10.25-3.16,19-5,27.58-1.82,8.4-4.16,16.69-6.33,25" transform="translate(-171.42 -56.71)"/><path class="cls-1" d="M687.2,307c-2.35,9.07-3.27,18.61-9.31,27.18,14.29,2.88,26.08-1.07,34.77-10.56,10.4-11.36,13.66-26.11,13-41.32-.55-11.79-5.3-22.32-11.55-32.33-8.79-14.05-19.54-24.09-37.54-24.15a18.79,18.79,0,0,0-14.73,6.08c-6,6-9.63,13.41-13.8,21.79l11.61,3.8c20.66,6.76,32.76,29.61,27.6,49.51" transform="translate(-171.42 -56.71)"/><path class="cls-1" d="M426.2,720.12a82.2,82.2,0,0,0,8.48,18c1.8,2.81,3.75,4.2,7.2,3.69,15.65-2.31,31.3-1.41,47-.12,6.49.54,13,.57,19.54.89,2.57.13,4.77-.32,5.71-3.07,2.23-6.56,6.21-12.48,7.65-20.53-31.83,6.64-63,4.51-95.56,1.15" transform="translate(-171.42 -56.71)"/><path class="cls-1" d="M444.07,790.33c-1.61,3.49-3.6,6.8-5.4,10.2-.95,1.77-2.29,3.5-.74,5.69,2.66.83,5.72,1.25,7.22-1.31,2.94-5,7.9-7.57,12.52-11.4-2.85-2.26-6.87.25-7.92-3.71,2.11-1.82,4.27-.89,6.27-1.08,1.35-.13,2.33-.73,2.06-2.13a3,3,0,0,0-1.56-1.9c-5.13-2.15-9.95.2-12.45,5.64" transform="translate(-171.42 -56.71)"/><path class="cls-1" d="M376.92,94.41c7.71-1.41,16.47-12.14,16.38-20.6-.41-4.09-1.75-8.1-6.3-10.46-5.29-2.74-10.24-2.21-15.15.88-1.8,1.13-3.7,2.34-3.74,4.63,0,3.19,2.81,2.23,4.61,2.79,1.41.44,2.77,1,4.14,1.6,1.15.47,2.21,1.28,1.84,2.61-.52,1.9-2.13,1.7-3.6,1.27-1.14-.33-2.22-.84-3.33-1.25-3.79-1.36-5.66.29-6.07,4A17,17,0,0,0,367,88.6c1.77,4.08,6.12,6.52,10,5.81" transform="translate(-171.42 -56.71)"/><path class="cls-1" d="M786,565.84c2.43-.13,4.73-1,4.88-4,.14-2.79-4.62-5.82-8.78-5.71-1.74.05-2.67.91-2.61,2.2.09,4.2,3.16,7.66,6.51,7.48" transform="translate(-171.42 -56.71)"/><path class="cls-1" d="M464.87,789c2.06,0,4.13-.08,6.18-.28,6.72-.63,7-.77,7.36-7.23.31-5.89.37-11.81.12-17.7-.16-3.87.87-8-1.65-11.65-2.38,8.19-1.87,16.47-2,24.7-.06,3.36-.69,5.75-4.86,5.7a20.73,20.73,0,0,0-6,1.41c-1.35.42-1.51,1.76-1.43,2.91a2.14,2.14,0,0,0,2.29,2.14" transform="translate(-171.42 -56.71)"/><path class="cls-1" d="M456,630.82c-1.45-4.49,1-10.78-2.59-13.41-3.78-2.79-9.74-.66-14.73-.6-8,.09-8.81,1.23-8.37,9.62.31,3.54.73,7.07.91,10.62s1.89,5.39,5.61,5c4.7-.48,9.41-.93,14.12-1.38,5.83-.55,5.88-.59,5.5-6.35a15.14,15.14,0,0,0-.45-3.51" transform="translate(-171.42 -56.71)"/><path class="cls-1" d="M442,568.62c-3.54-.06-7.08.16-10.61.41-7.16.49-7.44.77-6.75,7.92,1,10.45-1.32,11.32,11.82,10.34l2.62-.18c3-.12,6.81-.26,10.64-.44,1.47-.07,3.15-.12,3.33-2.07.47-5,.69-10.43-1.82-14.68-1.53-2.59-6.05-1.25-9.23-1.3" transform="translate(-171.42 -56.71)"/><path class="cls-1" d="M446.23,645.67c-13.65.45-15-2-11.72,14.14.35,1.74.5,3.52.72,5.28.36,2.83,1.83,3.95,4.79,3.91,5.09,0,10-1.58,15-1.85,4.55-.24,5.46-2.55,4.87-6.4-.23-1.45-.22-3-.43-4.41-1.64-11.06-1.65-11.05-13.19-10.67" transform="translate(-171.42 -56.71)"/><path class="cls-1" d="M437.29,811.75c-3.07-.08-3.85,2.38-4.69,4.56-2,5.23-3.91,10.51-6,16.15,3.66,1.65,5.87.89,7.13-2.13,2.17-5.18,4.34-10.37,6.35-15.6,1-2.61-.92-2.93-2.81-3" transform="translate(-171.42 -56.71)"/><path class="cls-1" d="M311.21,431.84c11.69,2,23.08,5.3,34.92.88,3.29-1.23,7-1.42,10.44-2.22,13.49-3.12,25.52-9.67,36.4-17.77C407.3,402.06,418.22,388,428,373c3.25-5,5.18-10.77,9-15.25,4.23-5,6-10.77,7.84-16.73,5-16.55,4.48-33.48,3.25-50.42a27.41,27.41,0,0,0-2.46-9.44c-8.46-18.09-19.1-34.7-33.53-48.74C398.6,219.37,383.21,208.78,368,198a31.41,31.41,0,0,0-20.16-5.77c-25.21,1.47-50.28,3.34-73.19,16-20.89,11.58-38.79,26.09-50.86,47-3,5.15-6.14,10.22-8.56,15.61-3.64,8.08-8.43,15.83-9.3,24.89-.81,8.58-2.58,17.07-2.38,25.75a106.45,106.45,0,0,0,1.1,18.57c1.61,10.21,6.29,19.14,9.88,28.5,5.21,13.57,14.79,24.49,25,34.24,10.33,9.89,24,15.26,37.68,19.37,11.29,3.39,22.32,7.59,34.08,9.6M258.31,343c-8.5-9.62-10.77-16.69-10.86-31-.24-5.77,1.55-11.25,3.41-16.49a110.08,110.08,0,0,1,18.39-33.31c8.81-10.72,21.41-15.17,34.85-17.52,8.74-1.53,15.33-.06,20.9,8.09,5.86,8.57,12.26,16.81,15.83,26.54a36.93,36.93,0,0,1,.93,22c-4.77,17.54-12.41,33.62-29.56,42.6-8.1,4.25-16.43,7.9-25.64,9.82-12.14,2.52-20.8-2.3-28.25-10.72m15.52,67.9c3.39-1.41,7.17-.35,10.63-.36,22.78-.06,41.19-9.58,56.9-25.43,9.48-9.56,17.21-20.4,24.44-31.67,14.85-23.13,23.5-48.5,27.18-75.61,1.91-14.11-.92-27.73-5.5-41.06-.71-2.08-2.21-3.48-3.51-5.08a21.94,21.94,0,0,1-5.1-10.45c7.54,4.67,10.78,10.19,13.17,16.3,4.41,11.26,5.69,22.91,5.06,35-.87,16.81-3.7,33.51-10.32,48.63-10.44,23.85-23,46.69-41.72,65.71a95.16,95.16,0,0,1-44.61,26c-7.91,2.08-16,1-24,.92-1.09,0-2.32-.55-2.66-2.94" transform="translate(-171.42 -56.71)"/><path class="cls-1" d="M179.74,572c5,.44,8.53-2,8.89-5.8.35-3.55-1.38-5.58-4.84-6.07-3.81-.55-8.61,3.3-8.65,7,0,3.3,2.27,4.45,4.6,4.83" transform="translate(-171.42 -56.71)"/><path class="cls-1" d="M250.66,584.32c2.3,13.66,7.77,22,20.92,25.62,3.54,1,6.42,4.12,12,3.65-21.45-38.26-25.2-79.55-26.79-121.48-1.44-.95-2.74-.29-3.77.84-5.6,6.13-11,12.45-16.76,18.42-3,3.13-2.79,6.53-1.6,9.93a385.74,385.74,0,0,1,16,63" transform="translate(-171.42 -56.71)"/><path class="cls-1" d="M305.68,312.73c-2.77,6.77-2.42,14.11-.67,21.12,1.65,6.61,5,7.6,10.22,3.33,7-5.71,12.17-12.8,16.45-20.8,6.34-11.86,8.37-23.91,4-37.66-14.79,8.08-24.14,19.64-30,34m15,2c-3.61-6.61-3.6-7.61.14-15.51-.05,5.54-.1,10.06-.14,15.51" transform="translate(-171.42 -56.71)"/><path class="cls-1" d="M288.4,349.06c3.75-.76,7.55-1.64,10.83-3.82-7.73-11.09-6.53-23.15-2.84-34.93,5.65-18.07,16.06-32.23,35.47-37.49-5.7-15.82-17.35-20.8-31.75-21a29.2,29.2,0,0,0-18.84,6.48c-9.46,7.38-15.13,17-19.08,28.15C257,301,254,315.25,259,330.66c4.78,14.61,14.59,21.38,29.42,18.4" transform="translate(-171.42 -56.71)"/><path class="cls-1" d="M422.84,200.13c-1.42,5.46-2.6,11-3.61,16.54-1.39,7.66-1.2,14.08,5.69,20.48,8.59,8,12.12,20,18,30.16,3.14,5.39,6.49,10.64,7.76,16.94,4.52,22.46,1.41,44.42-4.37,66.15a28.39,28.39,0,0,1-5.76,11c-5.69,6.54-9.47,14.28-14.4,21.29-18.62,26.46-42.12,45.57-74.26,53.24-15.42,3.68-30.42,4.46-45.66-.51-11.55-3.76-23.29-6.9-35.18-10.38,0,4.5-1.4,8.73-2.42,13A252.47,252.47,0,0,0,262.1,492c-.4,24.88,1.64,49.81,7.69,74.24,4.18,16.85,10.14,33.09,18.78,47.91C299,632,310,649.55,325.05,664.26c18.43,18,38.62,33.07,63.35,41.51a2.45,2.45,0,0,0,.61-3.06c-12.42-31-19.71-63.45-27.39-95.83-4-16.82-6.59-33.83-9.64-50.79-2.31-12.86-3.52-25.89-6.13-38.73-1.79-8.83-.2-10.75,8.48-11.72,18-2,36.06-4.42,54.16-5.28,29.1-1.37,58.23-2.62,87.4-1.75,27.67.84,55.27,2.49,82.79,5.47,9.9,1.07,12.75,4.52,13.72,14.71,2.2,23.3-.25,46.37-3.28,69.39-4.47,33.92-9.73,67.69-21,100.21-1.28,3.7-3,7.54-2.22,11.91a12.79,12.79,0,0,0,3.11-.6c15.61-8.47,31.65-15.88,45.57-27.57C631,658.4,644.47,642.48,656.21,625a278.22,278.22,0,0,0,23.11-41.93c2.91-6.5,6.45-12.76,8.76-19.45A429.32,429.32,0,0,0,702,513c2.57-12.11,3.56-24.49,4.66-36.89a240,240,0,0,0-.23-45.33A183.56,183.56,0,0,0,701.35,401c-2.07-7.6-3.36-8.38-10.35-5.5-5,2-9.84,4.26-14.9,6-12.37,4.21-24.77,8.05-38,9-18.39,1.32-36.07-1.86-53.86-5.87a125.6,125.6,0,0,1-32.29-12.08,109.15,109.15,0,0,1-34-28.36,67.85,67.85,0,0,0-7.11-7.94c-4.52-4.22-7-9.46-8.45-15.29-9.5-38-5.33-74.38,14.67-108.22,15.78-26.7,40-43.16,69-52.81,1.69-.56,3.43-1,5.13-1.53,3.12-1,4.61-2.71,2.2-5.85-.73-.94-1.37-1.95-2.14-2.86-12.4-14.73-24.62-29.61-41.06-40.29-8.69-5.65-16.29-13.6-26.13-16.73-17.82-5.68-36.07-10-55.22-6.58-4.26.75-6.7,2.06-8.89,5.84C452.22,125.23,445.43,139,439,153.07c-7,15.2-12,31-16.16,47.06M610.73,543.07a24.67,24.67,0,0,1,10.76-3.79c7.27-1,12.2,3,13.42,10.75.91,5.76-4.26,12.53-10.27,13.32a61.48,61.48,0,0,1-6.41,0,17.46,17.46,0,0,1-5-.86c-4-1.56-7.17-4.09-7.63-8.92-.44-4.62,1.29-7.89,5.16-10.47m-1.14,48.25c7.61-2.41,17.27,5.47,16.42,13.39-.54,5.06-5.68,8.38-13,8.38-8.2,0-13.75-3.36-14.65-8.88s3.14-10.34,11.2-12.89m-5.26,41.09c5.24-.06,10.08,6.3,10.2,13.41.12,7.3-5.52,12.31-13.56,12.06-4.8-.14-9.11-5.53-9.15-11.42-.05-6.36,6.74-14,12.51-14.05" transform="translate(-171.42 -56.71)"/><path class="cls-1" d="M612.39,557.64c2.05,1.47,4.33,1.74,7.28,2a24.51,24.51,0,0,0,2.92-.34c4-.84,7.35-2.6,8.3-6.92a9.85,9.85,0,0,0-2.93-8.94c-3.26-3.39-6.61-.42-9.71.84a25.79,25.79,0,0,0-6.07,3.58c-4.46,3.47-4.27,6.6.21,9.78" transform="translate(-171.42 -56.71)"/><path class="cls-1" d="M612.36,609.33c6.61-.05,9.41-2.07,9.41-6.8,0-4.9-3.48-8.1-8.66-8s-10.73,4.94-10.46,9.08c.24,3.58,3.92,5.74,9.71,5.71" transform="translate(-171.42 -56.71)"/><path class="cls-1" d="M663.74,331.36c1.74,1.4,2.91,1.31,4.77-1.09,6.94-9,11.49-30.35,8.47-41.31-4.21-15.32-15.11-22.39-30.27-25.78-4.72,20.51-5.86,39.79,6.23,57.88,2.9,4.34,6.91,7.2,10.8,10.3" transform="translate(-171.42 -56.71)"/><path class="cls-1" d="M408.73,195.3c.49-.74.56-1.56-.34-2s-1.65.1-2.13.8a1.37,1.37,0,0,0,.12,1.91,1.58,1.58,0,0,0,2.35-.68" transform="translate(-171.42 -56.71)"/><path class="cls-1" d="M601.91,654.25c4.58-.16,9.91-5.52,9.72-9.78-.15-3.52-4.22-7.78-7.28-7.62-4.08.21-8.52,5.51-8.35,9.94s2.73,7.57,5.91,7.46" transform="translate(-171.42 -56.71)"/><path class="cls-1" d="M374.81,196.54c9.83,6.15,19.27,12.74,27.35,21.12,3.29,3.4,6.51,6.87,12.39,9.77,4-42.72,21.05-80.1,41-117.28a49,49,0,0,0-12.95,4.37c-13.21,6-23.18,16.18-33.56,25.73-14.67,13.5-26.3,29.55-36.62,46.51-3.47,5.7-3.32,6.21,2.38,9.78m46-46.78c3.14-.43,6.12,1.93,6.12,4.78,0,3.79-2.61,4.87-5.88,5.34-3,0-4.92-1.33-4.88-4.69.05-3.08,1.56-5,4.64-5.43m-18.27,44.67c.55-4.89,2.07-6.52,6-6.11s4.74,3.11,4.43,6.34c-.37,4-3.86,7.27-7,6.59s-4.06-3.09-3.4-6.82" transform="translate(-171.42 -56.71)"/><path class="cls-1" d="M453.15,591.73c-3.91,0-7.13-.14-10.35-.08-18.15.38-18.09.38-14.37,18.2.57,2.74,1.4,4.41,4.47,4.18,5.31-.39,10.65-.62,16-1.12,3.69-.35,5.85-1.93,5.21-6.34-.68-4.65-.61-9.41-.91-14.84" transform="translate(-171.42 -56.71)"/><path class="cls-2" d="M183.39,576.48a45.33,45.33,0,0,0,12.47-4.67c12.31-6.5,24.75-12.75,36.93-19,2.22,1.82,2.34,4,3,5.94,4.23,12.71,5.93,26,8.75,39,1.75,8.12,6.89,12.82,13.85,16.23,5.86,2.87,11.79,5.62,17.52,8.73,7.1,3.86,13.2,8.69,17.55,15.9A174.76,174.76,0,0,0,319,671.49a207.51,207.51,0,0,0,45,34.79,133.43,133.43,0,0,0,50.28,16.86c3,.36,6.11.27,6.8,4.26,1.19,6.85,5.53,12.55,7.25,19.11,1.39,5.31,3.87,6.4,8.88,5.69a162.67,162.67,0,0,1,29.36-1.12c2.46.1,4.89.13,4.75,3.69-.24,6.52-.36,13-.57,19.56-.08,2.49-1.34,3.64-3.91,3.82-3.42.24-5.28-1.18-7-4.13-3.1-5.25-7.5-9.53-14-9.66a108.53,108.53,0,0,1-16.81-1.65c-3.28-.59-5.44.33-7.72,2.91-6.44,7.3-10,16.15-13.73,24.83-3.06,7.19.11,12.64,7.61,15.48,2.77,1.06,5.7,1.7,8.5,2.7,6.36,2.29,6.43,2.37,3.76,8.83-1.36,3.3-3.1,6.43-4.61,9.67-4.46,9.53-4.45,9.52,6.13,10.7.46,0,.86.74,1.38,1.22-.52,4.34-1,8.76-1.59,13.16-1.6,12.06-4.08,24-4.69,36.21-.54,10.91,3.54,19.35,13.61,23.8,11,4.85,22.63,7.4,34.7,6.31,9.13-.83,18.15-3,27.22-4.06,18.11-2.18,26.1-18,26.09-31a178.54,178.54,0,0,0-3.83-38c-2.45-11.23-.78-23.39-8.47-33.73a24.12,24.12,0,0,1,3.6-2c3.14-.9,6.34-1.61,9.48-2.51,9.61-2.74,16.21-10.79,14.32-18.51a68.19,68.19,0,0,0-8.94-21.23c-2.72-4.17-6.18-5.89-11.1-5.9-9.18,0-17.37,3.75-25.82,6.41-7.82,2.47-10.28,7.13-9.44,15.6.11,1.14.75,2.52-.95,2.84-2.21.41-2.26-1.39-2.27-2.81-.06-8.63-.13-17.26,0-25.89.08-6.1.21-6.25,6.79-6,7.72.33,15.45.74,23.13,1.56,4.76.51,7.57-.43,9.59-5.39,2.79-6.83,7-13.08,9.5-20.09,1.32-3.68,3.58-5.56,7.6-6.46,9-2,18.11-3.81,26.51-7.31,9.52-4,19.16-7.92,28-13.51s18.62-9.79,26.35-16.5c20.18-17.53,38.08-37.31,51.78-60.48a11,11,0,0,1,7.25-5.6q15.4-4.35,30.65-9.29c6.63-2.14,12-5.48,10.24-14a6,6,0,0,1,.44-3.5c5.26-11.72,8-24.27,11.82-36.44,1.28-4.06,3.55-5.08,7.25-4.55l31.77,4.52c2.58.37,4.56,1.23,4.35,4.42-.27,4.08,2.56,6.59,5.11,9,3.9,3.7,10,2.77,13.21-1.66,3-4.24,1.88-9.2-2.71-12.14-4.18-2.68-9-3.13-13.67-3.66-9.75-1.09-19.53-2-29.29-3-2.95-.3-5.89-.9-8.85-1-4.57-.17-4.72-2.49-3.31-5.9,1-2.48,2-5,2.86-7.51,2.45-7,4.91-14,5.22-21.56.21-5.14-1.11-9.15-4.87-12.72-4.73-4.51-8.86-9.67-13.67-14.08-6.2-5.69-7.8-12.18-7.36-20.6A206.47,206.47,0,0,0,709,393.91c-1-3.33-.79-5.42,2-7.7,5-4.14,9.72-8.65,14.56-13,6.6-5.95,13.44-11.66,18.89-18.76C758.59,336,763.55,314,765.39,291.93c2-23.47-1.53-46.9-12.09-68.56-11.42-23.41-28.47-41.65-51.94-53.06-10.36-5-21.66-8.14-33-10.57a16.56,16.56,0,0,0-5.32-.47c-15.86,1.88-32.11.22-47.66,5.1-2.54.79-5.27.93-7.89,1.46-3.15.63-5.34.19-7.37-3A81.12,81.12,0,0,0,590,150.45c-16.3-17.1-35.49-30.54-55.09-43.5-12.78-8.45-26.68-12.51-41.91-13-10.46-.35-20.79.64-31.17,1.55a56.08,56.08,0,0,0-30.08,11.82A288.4,288.4,0,0,0,387,150.59c-1,1.14-1.87,2.32-2.87,3.42a2.72,2.72,0,0,1-4,.51c-7.73-5.87-16.5-10.68-20.12-20.62-1.32-3.62-3.13-7.06-4.61-10.63-4.17-10.1-5.33-20.8-4.88-31.5.26-6.32,2.14-12.88,10.5-14.65.15,2.84.17,5.21.41,7.55,1.09,10.37,9.29,15.25,19.12,12.26,7.66-2.33,11.6-7.93,14.89-14.33,4.28-8.35,2.32-16.84-4.77-22.26-6.66-5.08-15.43-5-21.91,1.44-4.91,4.89-9.79,9.61-15.18,14-5.56,4.56-8.42,11.26-8.19,19,.4,13.33,4.4,25.58,9.49,37.78a46.39,46.39,0,0,0,20,22.93c1.67,1,4.11,1.29,4.45,4.34-5.83,7.46-12.52,14.65-17.18,23.3-1.62,3-4.32,2.62-7,2.54-11-.31-21.93-.13-32.9,1.61-17,2.71-34.17,4.25-49.54,13.25-6.88,4-14.39,7-21.5,10.65a85.51,85.51,0,0,0-13,7.68c-14.45,11.08-23.22,26.72-31.58,42.24-6.74,12.52-9.88,26.72-12.95,40.62a76.77,76.77,0,0,0-1.24,27.51,205.34,205.34,0,0,0,12.57,47.1c9.15,22.87,25.93,37.83,48.65,46.51,6.59,2.51,7.2,3.4,6,10.64C257.33,447.27,254.6,461,254,475a10,10,0,0,1-3.14,7c-7.89,8.05-15.43,16.44-23.26,24.56-3.95,4.1-4.86,8.06-2.54,13.65,3.07,7.38,4.9,15.27,7.23,22.95,1.07,3.55.66,6.44-3.42,7.83-10.48,3.56-19.92,9.27-29.69,14.31-3,1.55-5.58,2.66-6.26-2.26-.36-2.57-2.51-4-4.4-5.4-4.1-3.06-8.69-2.67-13,1a11.54,11.54,0,0,0-3.26,12.95c1.64,4,5.85,6,11.17,4.92m598.74-20.32c4.16-.11,8.92,2.92,8.78,5.71-.15,3-2.45,3.84-4.89,4-3.34.18-6.41-3.28-6.5-7.48-.07-1.29.87-2.15,2.61-2.2M365.7,79.87c.41-3.7,2.28-5.35,6.07-4,1.11.41,2.19.92,3.33,1.25,1.47.43,3.08.63,3.6-1.27.36-1.33-.69-2.14-1.84-2.61-1.37-.57-2.73-1.16-4.14-1.6-1.8-.56-4.65.4-4.61-2.79,0-2.29,1.94-3.5,3.74-4.63,4.91-3.09,9.86-3.62,15.15-.88,4.55,2.36,5.89,6.37,6.3,10.46.09,8.46-8.67,19.19-16.38,20.6-3.85.71-8.2-1.73-10-5.81a17,17,0,0,1-1.25-8.73M409.93,713c-4.95-.53-7.89-3.74-9.77-8-6.77-15.22-10.93-31.28-15.78-47.16-5.32-17.4-8-35.32-12.56-52.85-4-15.48-5.87-31.56-8.32-47.43-2.13-13.81-3.87-27.68-5.58-41.55-.82-6.7-.64-7,6-7.67q23.07-2.23,46.21-3.92c6.45-.46,6.45-.13,6.79,6.11,1.42,25.81,2.81,51.59,5.53,77.35,2.39,22.75,5,45.5,7.61,68.22,1.93,16.77,6.05,33.29,9.17,49.93.53,2.84,1.61,5.64.93,9-10.2.29-20.19-1-30.2-2.08m41-72.29c-4.71.45-9.42.9-14.12,1.38-3.72.38-5.42-1.34-5.61-5s-.6-7.08-.91-10.62c-.44-8.39.33-9.53,8.37-9.62,5-.06,10.95-2.19,14.73.6,3.56,2.62,1.14,8.92,2.59,13.41a15.22,15.22,0,0,1,.45,3.52c.38,5.75.33,5.79-5.5,6.34m8.49,15.66c.21,1.46.2,3,.43,4.41.59,3.85-.32,6.16-4.87,6.4-5,.27-9.87,1.8-15,1.85-3,0-4.43-1.08-4.79-3.91-.22-1.76-.37-3.54-.72-5.28-3.31-16.13-1.93-13.68,11.72-14.14,11.55-.38,11.55-.39,13.19,10.67m-10.57-43.43c-5.3.5-10.64.73-16,1.12-3.07.23-3.9-1.44-4.47-4.18-3.72-17.82-3.78-17.83,14.37-18.2,3.22-.06,6.44.05,10.35.08.3,5.43.23,10.19.91,14.84.64,4.41-1.52,6-5.21,6.34m4.2-28.31c-.18,1.95-1.86,2-3.33,2.07-3.83.18-7.66.32-10.64.43l-2.62.19c-13.14,1-10.82.11-11.82-10.34-.69-7.15-.41-7.43,6.75-7.92,3.53-.25,7.07-.47,10.61-.41,3.18,0,7.7-1.29,9.23,1.29,2.51,4.26,2.29,9.65,1.82,14.69M464,784a20.73,20.73,0,0,1,6-1.41c4.17,0,4.8-2.34,4.86-5.7.16-8.23-.35-16.51,2-24.7,2.52,3.69,1.49,7.78,1.65,11.65.25,5.89.19,11.81-.11,17.7-.34,6.46-.65,6.6-7.37,7.23-2.05.2-4.12.27-6.18.28a2.14,2.14,0,0,1-2.29-2.14c-.08-1.15.08-2.49,1.43-2.91m-5.93,2.62c.27,1.4-.71,2-2.06,2.13-2,.19-4.16-.74-6.27,1.08,1.05,4,5.07,1.45,7.92,3.71-4.62,3.83-9.58,6.41-12.52,11.4-1.5,2.56-4.56,2.14-7.22,1.31-1.55-2.19-.21-3.92.74-5.69,1.8-3.4,3.79-6.71,5.4-10.2,2.5-5.44,7.32-7.79,12.45-5.64a3,3,0,0,1,1.56,1.9M426,805.08c-1.06-.51-2.17-.92-3.27-1.38-12.76-5.34-13.35-6.82-7.78-19.66,7.68-17.73,7.68-17.73,26.7-16,8.8.82,8.8.82,14.54,9.65-12.68,2.41-12.7,2.4-18.18,13.93a81.36,81.36,0,0,0-4.58,10.56c-1.39,4.41-3.91,4.56-7.43,2.88m.66,27.38c2.07-5.64,4-10.92,6-16.15.84-2.18,1.62-4.64,4.69-4.56,1.89,0,3.82.37,2.81,3-2,5.23-4.18,10.42-6.35,15.6-1.26,3-3.47,3.78-7.13,2.13m70.3-61c7-2.19,14.13-3.92,21.27-5.61,3.4-.8,6.73,0,8.62,3.17,4,6.55,8.3,13,9.09,21a10.07,10.07,0,0,1-4.35,10c-4.67,3.49-10.42,4.15-15.44,6.66a2.84,2.84,0,0,1-3.87-1.09c-4-6.07-10.14-8.88-16.62-11.24a5.9,5.9,0,0,1-3.42-3.12c.8-.68,1-.9,1.24-1,2.33-1.45,7.31.82,7.21-3.11-.13-4.59-4.47-2.16-7.11-2.09-3.21.08-4.23-1.72-4.09-4.46.24-4.8,3.33-7.68,7.47-9m-5,29.41c6.31,1.73,10.19,5.47,12.13,11.74,3.19,10.27,3.68,20.93,5.42,31.38,2.37,14.24,2,28.36,2.34,42.55.13,5.74-.73,11.19-5.54,15.33-2.31,2-4.58,3.88-7.63,4.24-9.64,1.11-19,5.63-28,2.6l-5.44-.05c-23.1-.13-33.85-14.81-29.69-37.09,3.52-18.89,10.28-37.05,16.18-55.36,3.36-10.41,10.32-16.17,21.71-16.3,6.22-.08,12.36-.72,18.52,1m22.21-61.39c-.94,2.75-3.14,3.2-5.71,3.07-6.51-.32-13-.35-19.54-.89-15.68-1.29-31.33-2.19-47,.12-3.45.51-5.4-.88-7.2-3.69a82.2,82.2,0,0,1-8.48-18c32.52,3.36,63.73,5.49,95.56-1.15-1.44,8-5.42,14-7.65,20.53m51.08-53.75c-1.05,4.3-3.49,8.28-4.39,12.6-1.34,6.37-6.07,8.19-11.24,9.75-19.43,5.85-39.43,8.69-59.57,10.45-13.06,1.15-26.1-.78-39.12-1.85-2.89-.24-6-.64-6.75-4.54-2-10.8-5.21-21.34-6.31-32.36-.66-6.5,1.37-6.81,6-7.4s9.27-1.91,14.07-2.2c5-.29,6.28-2.18,5.48-7.11-3.58-21.76-3.81-43.82-6.09-65.7-1-9.15-1-18.39-1.58-27.59-.36-6.19-.41-6.33-6.77-6-6.52.32-13,1-19.56,1.47-3.56.28-5.52-1-5.66-4.94q-.84-25.42-2-50.83c-.22-4.5,1.87-5.39,5.83-5.62,17.54-1,35.06-1.84,56.13-1.34,18.83-.3,41.09,1.06,63.33,2.92,11.56,1,22.7,4.85,34.44,4.6,2.73-.06,4.13,1.56,5.45,4.59,4.84,11,2.71,22.25,2,33.43-1.39,20.47-4.06,40.81-6.86,61.13-.93,6.8-2.47,13.45-3.57,20.19-3.12,19.09-8.54,37.63-13.13,56.37M711.07,483.6c7.87,8.22,13.62,15.8,20.72,22.1,3.48,3.1,2.84,6.91,1.72,10.72-3.52,11.94-7,23.89-10.66,35.8-3.71,12.19-7.71,24.3-11.28,36.53-1.42,4.86-3.34,8.5-8.66,10.19-10.4,3.29-20.61,7.16-32.13,11.23,2-10.14,9.52-16,11.66-24.68,2-8.24,7-15.56,9.73-23.73,2.84-8.44,5.31-17,7.55-25.56,2.17-8.33,4.51-16.62,6.33-25,1.86-8.61,3.18-17.33,5-27.58m-89.8-308.91c7.55-1.89,15.41-1.34,23.09-.75a208.16,208.16,0,0,1,50.42,10.4c20.53,6.95,35,22,45.76,40.31,15.21,26,21.43,53.79,13.84,83.76-2.11,8.33-2.68,17-6.47,24.93a93.48,93.48,0,0,1-23.66,30.59,73.61,73.61,0,0,0-6.68,5.89c-12,13.3-27.16,21.29-43.72,27.78-22,8.6-44.27,10.39-67.31,7.22a57.5,57.5,0,0,1-10.27-2.76c-8.7-2.85-17.21-6.05-26.4-7.72-18.22-3.33-32-15.22-44.66-27.69-9.88-9.73-18.75-20.59-21.74-35-1.89-9.16-1.14-18.35-1.85-27.28.18-28.3,7.07-54.37,23.79-77.18,9.54-13,22.2-22.6,35.74-31.57,18.48-12.25,39.49-15.74,60.12-20.9M468.84,106c19.15-3.38,37.4.9,55.23,6.58,9.83,3.14,17.43,11.08,26.12,16.73,16.44,10.68,28.66,25.56,41.06,40.29.76.91,1.41,1.92,2.14,2.86,2.41,3.14.92,4.82-2.2,5.85-1.7.55-3.44,1-5.13,1.53-29.1,9.65-53.27,26.11-69,52.81-20,33.84-24.17,70.2-14.67,108.22,1.46,5.83,3.93,11.07,8.45,15.29a67.85,67.85,0,0,1,7.11,7.94,109.15,109.15,0,0,0,34,28.36,125.6,125.6,0,0,0,32.29,12.08c17.79,4,35.47,7.18,53.86,5.87,13.24-.95,25.64-4.79,38-9,5.07-1.72,9.95-3.95,14.91-6,7-2.88,8.28-2.1,10.35,5.5a182.67,182.67,0,0,1,5.12,29.85,240,240,0,0,1,.23,45.33c-1.09,12.4-2.09,24.78-4.66,36.89a429.32,429.32,0,0,1-14,50.64c-2.31,6.69-5.85,13-8.76,19.45A278.22,278.22,0,0,1,656.21,625c-11.74,17.44-25.26,33.36-41.62,47.09-13.91,11.69-30,19.1-45.56,27.57a12.79,12.79,0,0,1-3.11.6c-.73-4.37.94-8.21,2.22-11.91,11.25-32.52,16.51-66.29,21-100.21,3-23,5.48-46.09,3.28-69.39-1-10.19-3.82-13.64-13.72-14.71-27.52-3-55.12-4.64-82.79-5.47-29.17-.87-58.3.38-87.4,1.75-18.1.86-36.13,3.25-54.16,5.28-8.68,1-10.27,2.89-8.48,11.72,2.61,12.84,3.82,25.87,6.13,38.73,3,17,5.65,34,9.64,50.79,7.68,32.38,15,64.82,27.39,95.83a2.45,2.45,0,0,1-.61,3.06c-24.73-8.44-44.92-23.47-63.35-41.51C310,649.55,299,632,288.57,614.11c-8.64-14.82-14.6-31.06-18.78-47.91-6.05-24.43-8.09-49.36-7.69-74.24a252.47,252.47,0,0,1,6.57-53.9c1-4.3,2.4-8.53,2.42-13,11.89,3.48,23.63,6.62,35.18,10.38,15.24,5,30.24,4.19,45.66.51,32.14-7.67,55.64-26.78,74.26-53.24,4.93-7,8.71-14.75,14.4-21.29a28.39,28.39,0,0,0,5.76-11c5.78-21.73,8.89-43.69,4.37-66.15-1.27-6.3-4.62-11.55-7.76-16.94-5.92-10.16-9.45-22.17-18-30.16-6.89-6.4-7.08-12.82-5.69-20.49,1-5.54,2.19-11.07,3.61-16.53C427,184,432,168.27,439,153.07c6.43-14,13.22-27.84,20.95-41.21,2.19-3.78,4.63-5.09,8.89-5.84m-96.41,80.74c10.32-17,21.95-33,36.62-46.51,10.38-9.55,20.35-19.76,33.56-25.73a49,49,0,0,1,12.95-4.37c-20,37.18-37.05,74.55-41,117.28-5.88-2.9-9.1-6.37-12.39-9.77-8.08-8.38-17.52-15-27.34-21.12-5.71-3.57-5.87-4.08-2.39-9.78m-133,216.11c-10.18-9.75-19.76-20.67-25-34.24-3.59-9.36-8.27-18.29-9.88-28.5a106.45,106.45,0,0,1-1.1-18.57c-.2-8.68,1.57-17.17,2.38-25.75.87-9.06,5.66-16.81,9.3-24.89,2.42-5.39,5.6-10.46,8.56-15.61,12.08-20.94,30-35.45,50.86-47,22.91-12.7,48-14.57,73.19-16A31.41,31.41,0,0,1,368,198c15.26,10.77,30.65,21.36,44.11,34.45,14.43,14,25.07,30.65,33.53,48.74a27.41,27.41,0,0,1,2.46,9.44c1.23,16.94,1.74,33.87-3.25,50.42-1.8,6-3.61,11.77-7.84,16.73-3.81,4.48-5.74,10.26-9,15.25-9.76,15-20.67,29-35,39.69-10.88,8.1-22.91,14.65-36.4,17.77-3.47.8-7.15,1-10.44,2.22-11.84,4.42-23.23,1.13-34.92-.88s-22.79-6.21-34.08-9.6c-13.7-4.11-27.35-9.48-37.68-19.37m-3.18,108.5c5.76-6,11.16-12.29,16.76-18.42,1-1.13,2.33-1.79,3.77-.85,1.59,41.94,5.34,83.23,26.79,121.49-5.59.47-8.47-2.68-12-3.65-13.15-3.62-18.62-12-20.92-25.62a384.75,384.75,0,0,0-16-63c-1.18-3.4-1.4-6.8,1.61-9.93m-52.48,48.8c3.46.5,5.19,2.51,4.84,6.07-.36,3.81-3.87,6.24-8.89,5.8-2.33-.38-4.64-1.53-4.6-4.83,0-3.74,4.84-7.59,8.65-7" transform="translate(-171.42 -56.71)"/><path class="cls-2" d="M613.2,562.46a17.51,17.51,0,0,0,5,.86,61.48,61.48,0,0,0,6.41,0c6-.79,11.18-7.56,10.27-13.31-1.22-7.77-6.15-11.73-13.42-10.76a24.67,24.67,0,0,0-10.76,3.79c-3.87,2.58-5.6,5.85-5.16,10.47.46,4.83,3.62,7.36,7.63,8.92m-1-14.6a25.93,25.93,0,0,1,6.06-3.58c3.11-1.26,6.46-4.23,9.72-.83a9.82,9.82,0,0,1,2.93,8.93c-.95,4.32-4.33,6.08-8.3,6.92a24.51,24.51,0,0,1-2.92.34c-2.95-.26-5.22-.53-7.28-2-4.48-3.18-4.67-6.31-.21-9.78" transform="translate(-171.42 -56.71)"/><path class="cls-2" d="M613,613.09c7.29,0,12.43-3.32,13-8.38.85-7.92-8.81-15.8-16.42-13.39-8.06,2.55-12.12,7.23-11.2,12.89s6.45,8.89,14.65,8.88m.07-18.55c5.18-.11,8.65,3.09,8.66,8,0,4.73-2.8,6.75-9.41,6.8-5.79,0-9.47-2.13-9.71-5.71-.27-4.14,5.29-9,10.46-9.08" transform="translate(-171.42 -56.71)"/><path class="cls-2" d="M601,657.88c8,.25,13.68-4.76,13.56-12.06-.12-7.11-5-13.47-10.2-13.41-5.77.07-12.56,7.69-12.51,14.05,0,5.89,4.35,11.28,9.15,11.42m3.38-21c3.06-.16,7.13,4.1,7.28,7.62.19,4.27-5.14,9.62-9.72,9.78-3.18.11-5.73-3.11-5.91-7.46s4.27-9.73,8.35-9.94" transform="translate(-171.42 -56.71)"/><path class="cls-2" d="M648,321.35c5.83,8.77,12.6,15.69,23.85,16.38,1.77.11,3.52.58,5.29.84,16.38,2.42,38.49-5.12,47.59-26.43,14.76-34.56-3.49-72.66-31-87.37-5.89-3.14-12.58-6.17-19.53-4.64A32.94,32.94,0,0,0,654,233.84c-10.84,15.6-16.06,33-15.25,54.26-.88,10.63,2,22.41,9.25,33.25m13.78-89.49a18.78,18.78,0,0,1,14.73-6.08c18,.06,28.75,10.1,37.54,24.15,6.26,10,11,20.54,11.55,32.33.71,15.21-2.55,30-13,41.32-8.69,9.49-20.48,13.44-34.77,10.56,6-8.57,7-18.11,9.31-27.18,5.16-19.9-6.94-42.75-27.6-49.51L648,253.65c4.17-8.38,7.83-15.75,13.8-21.79m-15.08,31.32c15.16,3.39,26.06,10.45,30.27,25.77,3,11-1.53,32.32-8.47,41.32-1.86,2.4-3,2.49-4.77,1.09-3.89-3.1-7.9-6-10.8-10.3-12.09-18.09-11-37.37-6.23-57.88" transform="translate(-171.42 -56.71)"/><path class="cls-2" d="M627.28,369.67a11.87,11.87,0,0,0,5.54,2.71c4.81.67,8.95,3,13.25,5.11a36.54,36.54,0,0,0,17.68,3.6c0-3.15-2.22-3.06-3.79-3.48-8.93-2.35-17.45-5.87-26-9.26A31.64,31.64,0,0,1,623.34,362c-7-6.77-13.69-13.86-19.07-22.1-12-18.43-18.78-38.39-17.26-60.6.43-6.19,1.94-12.33,3.28-18.42,3.89-17.72,9.05-34.93,17.91-51,2.47-4.48,7.28-7.78,8-14.3-4.92.54-6.18,3.55-7.89,6.41a203,203,0,0,0-16.59,36.35,154.22,154.22,0,0,0-8.45,40.79c-1.77,24.7,5.84,46.79,20,66.91,6.62,9.38,15,16.79,24,23.67" transform="translate(-171.42 -56.71)"/><path class="cls-2" d="M626.75,283.9a3,3,0,0,0,.73,3.24.92.92,0,0,0,1.25-.83c.16-1.15.42-2.4-.77-3.16-.19-.12-1.13.4-1.21.75" transform="translate(-171.42 -56.71)"/><path class="cls-2" d="M626.83,271.89c-.11,1.3-.21,2.59-.41,5,.66-1.57,1.05-2.05,1-2.49-.08-.85.84-2-.6-2.54" transform="translate(-171.42 -56.71)"/><path class="cls-2" d="M286.56,353.69c9.21-1.92,17.54-5.57,25.64-9.82,17.15-9,24.79-25.06,29.56-42.6a36.93,36.93,0,0,0-.93-22c-3.57-9.73-10-18-15.83-26.54-5.57-8.15-12.16-9.62-20.9-8.09-13.43,2.35-26,6.8-34.85,17.52a110.08,110.08,0,0,0-18.39,33.31c-1.86,5.24-3.65,10.72-3.41,16.49.09,14.35,2.36,21.42,10.86,31,7.45,8.42,16.11,13.24,28.25,10.72m45.12-37.31c-4.28,8-9.46,15.09-16.45,20.8-5.22,4.26-8.57,3.28-10.22-3.33-1.75-7-2.1-14.35.67-21.12,5.88-14.37,15.23-25.93,30-34,4.35,13.74,2.32,25.79-4,37.65M259,330.66c-5-15.41-1.94-29.65,3.2-44.19,4-11.18,9.63-20.77,19.09-28.15a29.2,29.2,0,0,1,18.84-6.48c14.4.18,26.05,5.16,31.75,21-19.41,5.26-29.82,19.42-35.47,37.49-3.69,11.78-4.89,23.84,2.84,34.93-3.28,2.18-7.08,3.06-10.83,3.82-14.83,3-24.64-3.79-29.42-18.4" transform="translate(-171.42 -56.71)"/><path class="cls-2" d="M300.45,412.89a95.16,95.16,0,0,0,44.61-26c18.72-19,31.28-41.86,41.72-65.71,6.62-15.12,9.45-31.82,10.32-48.63.63-12.1-.65-23.75-5.06-35-2.39-6.11-5.63-11.63-13.17-16.3a21.94,21.94,0,0,0,5.1,10.45c1.3,1.6,2.8,3,3.51,5.08,4.58,13.33,7.41,26.95,5.5,41.06-3.68,27.11-12.33,52.48-27.18,75.61-7.23,11.27-15,22.11-24.44,31.67-15.71,15.85-34.12,25.37-56.9,25.43-3.46,0-7.25-1.05-10.63.36.34,2.4,1.57,2.93,2.66,2.94,8,.11,16.05,1.16,24-.92" transform="translate(-171.42 -56.71)"/><path class="cls-2" d="M459.55,831.1c-1.3,3.09-.34,5.27,2.9,6.15s6.65,1.53,10.24,2.35c-.69,3-2.34,4.68-3.82,6.5-4,4.9-6.37,10.72-9.14,16.29-1.94,3.88-.73,5.93,3.25,7.52,3.4,1.35,7,0,10.39.37.89,4.26-2.3,6.34-3.59,9.18s-3.06,5.72-3.33,9.12c-.25,3.13,1,5.49,3.73,6.39s4.53-1.14,5.42-3.43a133.53,133.53,0,0,1,13.28-26.13c1.14-1.71,1.73-3.91-.13-5.74a5.18,5.18,0,0,0-5.76-1.3c-3,1.43-5.94,2.53-10.22,2,1-3,1.17-5.57,3.32-7.6,4-3.72,6.27-8.49,8.4-13.48,4.45-10.39,3.13-12.51-8.14-11.78-1,.06-1.68-.16-2-1.11-.39-3.4,1.88-5.53,3.66-7.87,1.25-1.65,2.8-3.1,3.9-4.83.93-1.48,1.67-3.23.78-5.05-1.15-2.38-3.49-1.86-5.48-2.06a5,5,0,0,0-4.56,2.31,103.35,103.35,0,0,0-13.11,22.2" transform="translate(-171.42 -56.71)"/><path class="cls-2" d="M406,201.25c3.17.68,6.66-2.63,7-6.59.3-3.23-.44-5.92-4.43-6.34s-5.45,1.22-6,6.11c-.66,3.73.18,6.13,3.4,6.82m.29-7.18c.48-.7,1.2-1.29,2.13-.8s.83,1.29.34,2a1.58,1.58,0,0,1-2.35.67,1.37,1.37,0,0,1-.12-1.91" transform="translate(-171.42 -56.71)"/><path class="cls-2" d="M421.08,159.88c3.27-.47,5.87-1.55,5.88-5.34,0-2.85-3-5.21-6.12-4.78s-4.59,2.36-4.64,5.43c0,3.36,1.91,4.64,4.88,4.69" transform="translate(-171.42 -56.71)"/><path class="cls-2" d="M508.83,794.08a1.57,1.57,0,0,0,1.36,1.87,1.85,1.85,0,0,0,2.09-1.2c3.21-6.78-.25-13.82-8.51-15.59,3.63,4.42,7,8.75,5.06,14.92" transform="translate(-171.42 -56.71)"/><path class="cls-2" d="M436.54,775.13c-3.61,6.71-6.32,11.62-3.74,17.7,1.32-5.22,4.52-10,3.74-17.7" transform="translate(-171.42 -56.71)"/><path class="cls-2" d="M320.65,314.76c0-5.45.09-10,.14-15.51-3.74,7.9-3.75,8.9-.14,15.51" transform="translate(-171.42 -56.71)"/></svg>