<svg id="Layer_1" data-name="Layer 1" xmlns="http://www.w3.org/2000/svg" viewBox="0 0 304.01 351.95"><defs><style>.cls-1{fill:#fff;}.cls-2{fill:#010101;}</style></defs><path class="cls-1" d="M388.72,421.77c0,3.05,0,6.1-.06,9.15,0,.88.16,1.14,1.07,1.26a64.83,64.83,0,0,0,10.7.2c.63,0,1.88-.08,2.3.52,0-1.58,0-3.15,0-4.73-.06-4.08.09-8.21-1.5-12.09-1-2.38-3-4-4.55-6-2.2-2.88-5.06-5.21-7.07-8.26-.07-.1-.27-.12-.42-.19a2.42,2.42,0,0,0-.26,1.84c.49,6.11-.18,12.21-.2,18.31" transform="translate(-132.89 -235.99)"/><path class="cls-1" d="M403.91,429.16a40.11,40.11,0,0,0,.41,8,43.7,43.7,0,0,1,.65,8c0,4.68.13,9.35.22,14,0,1.37.52,2,2.1,2,4.89,0,9.78-.38,14.66.05,1.28.12,1.71-.39,1.89-1.44.69-4,1.73-8,1.66-12.15a24.64,24.64,0,0,1,.11-3.94c1.11-7.36,1-14.81,1.62-22.2a1.76,1.76,0,0,0-1.66-2.2c-6.52-.86-13-2-19.57-2.41-.21,0-.42,0-.63,0-2.21-.25-2.22-.25-2.11,2,.18,3.46.68,6.89.65,10.38" transform="translate(-132.89 -235.99)"/><path class="cls-1" d="M410.16,495.82a81.39,81.39,0,0,1,10.34-1.17c.77,0,1-.47,1-1.12.25-4.62,1.52-9.1,1.56-13.77.05-4.94.55-9.87.86-14.8.07-1.14-.2-1.77-1.58-2-2.31-.39-4.62-.08-6.92-.15-2.58-.06-5.15-.05-7.73-.2-1.4-.07-1.88.2-1.73,1.8.28,3,1.1,6,1.14,9.06a88.16,88.16,0,0,0,.61,10.53,77.53,77.53,0,0,1,1.09,10.63c0,1.08.28,1.37,1.35,1.18" transform="translate(-132.89 -235.99)"/><path class="cls-1" d="M419.37,496.45c-2.88.11-5.7.88-8.59,1.05-.76,0-2.12-.06-2.06,1.17.16,2.87-.63,5.63-.82,8.46a88.8,88.8,0,0,0,.11,14,3.64,3.64,0,0,0,3.48,3.39c1.46.16,2.92.32,4.39.44,4.16.33,8.31.37,12.34-1a8.77,8.77,0,0,0,3.58-2.2c2.72-2.76,3.42-6.17,3.32-9.86,0-.85,0-1.69-.05-2.53a12.15,12.15,0,0,0-4.67-9.58,15.93,15.93,0,0,0-11-3.39" transform="translate(-132.89 -235.99)"/><path class="cls-1" d="M331.19,398.53c-2.22-.12-4.47-.41-6.71-.5-3.47-.16-6.94-.11-10.41-.24-8.51-.31-17-.71-25.54-1-7.42-.26-14.83.31-22.25.42-8.42.12-16.85-.38-25.25.19-5.34.37-10.81-.75-16,1.33a1.23,1.23,0,0,1-.47,0c-3.42-.36-6.83.14-10.24.18-5.84.06-11.67.28-17.49.81q-6.51.59-13,1.13c-2,.17-4.08.28-6.12.42s-2.27.39-2,2.27a31.79,31.79,0,0,1,.21,4.57c-.05,4-.15,8.11-.1,12.16s.15,8,.09,12c-.09,6.21,0,12.42.23,18.61.3,9.74.87,19.46,1.31,29.19.16,3.52.27,7.05.38,10.57,0,1.31.55,1.73,1.89,1.45a72.55,72.55,0,0,1,12.54-1.2c7.3-.27,14.61,0,21.92,0q11.52,0,23,.2c6.32.12,12.63,0,19,.29,15.07.78,30.15,1.48,45.23,2.23q15.14.75,30.3.64c11.52-.1,23,.76,34.57.3,6.78-.27,13.56-.11,20.28-1.35a2,2,0,0,0,1.84-2.43c-.54-6.45-.57-12.94-.66-19.4-.18-13.38-1.05-26.76-.26-40.15.24-4.09.2-8.21.3-12.31h-.07c0-.68,0-1.37,0-2.05a91.53,91.53,0,0,0,.14-14.05c-.07-.7-.08-1.39-1.1-1.37-3.79.08-7.55-.43-11.32-.63-5.57-.3-11.13-.63-16.69-.91-7.14-.35-14.26-1.19-21.43-.94-2,.07-4.06-.28-6.08-.39m-133.93,59.8c0-.81.79-.69,1.35-.65,8.31.57,16.63.25,24.94.28,5.68,0,11.37-.27,17-.39,1.16,0,1.31-.62,1.34-1.62.22-5.94-.28-11.88,0-17.83.34-6.36,1.43-12.65,1.75-19,.07-1.41-.25-1.95-1.65-1.9-1.08,0-2.18-.32-3.16.52-.26.23-.81.18-1.22.15-5.54-.4-11.09-.09-16.64-.15a136.69,136.69,0,0,0-16.06.45c-.36,0-.73.06-1.09.12-2.7.5-2.7.57-2.91,3.32-.38,5-1.16,9.94-1.2,14.95-.05,6.05-.29,12.1.37,18.14a4.5,4.5,0,0,1,0,1.1.91.91,0,0,1-1.11.85c-.59-.08-.7-.48-.71-1q-.1-8.13-.28-16.25A72,72,0,0,1,199,427.3a31.36,31.36,0,0,0,.41-8.44c-.11-.93.66-1.22,1.42-1.34a126.45,126.45,0,0,1,20.3-1.08q5.29,0,10.59.06a2.94,2.94,0,0,0,1.74-.3c-.71-.79-1.89-.16-2.41-1,.46-.29.93-.08,1.37,0a48,48,0,0,0,11.16.81c1.38,0,1.77.38,1.74,1.67-.1,4.42-.69,8.79-1.17,13.19a110.13,110.13,0,0,0-.42,18c.05.83.43,1.07,1.21,1,1.89-.08,3.81.07,5.67-.19,6.25-.87,12.52-.21,18.77-.49h.32c3.41-.15,3.42-.15,3.52-3.55,0-.6-.07-1.27.79-1.23s.83.64.79,1.27c-.28,3.89-.79,7.77-.25,11.66.11.8-.42,1.05-1,1.11-.86.08-.68-.61-.69-1.1,0-1.73-.08-3.47,0-5.21,0-1.07-.24-1.47-1.4-1.49a243.25,243.25,0,0,0-26.18.48c-1.27.11-1.67.5-1.53,1.72.11,1,0,2.11.05,3.16,0,.53,0,1.05.52,1.4a.91.91,0,0,1,.46,1.2c-.25.64-.8.66-1.33.56-3.56-.61-7.13-.13-10.69-.08q-15,.24-30,0c-1.36,0-2.73.08-4.1.1-.64,0-1.42,0-1.4-.88m163.6,13.82c2.47-.3,4.82.4,7.17.89,1.45.3,3,.23,4.5,1.08-.94.75-1.83.45-2.68.36-2.71-.27-5.34-1.17-8.13-.87a12,12,0,0,0-7.34,3.31c-2.67,2.61-6,3.92-9.34,5.07-3,1-5.8-.33-8.63-1.05a14,14,0,0,1-4.48-2.28,41.15,41.15,0,0,0-6.81-3.63,8.26,8.26,0,0,0-6.73.12c-3.37,1.34-6.72,2.74-10.12,4-4.91,1.83-9.92,1.32-15,.6-4.62-.65-8.77-2.54-12.91-4.45-6.85-3.17-13.32-2.69-19.88,1.06a36.37,36.37,0,0,1-18.63,4.51c-5.26,0-9.33-2.43-13.29-5.13a17,17,0,0,0-11.87-3.16,17.22,17.22,0,0,0-9.35,4.17,19,19,0,0,0-5,5.66c-.19.38-.5.95-1.08.61a1,1,0,0,1-.27-1.28,5.06,5.06,0,0,1,.68-1.25c3.37-4.5,7.74-7.75,13.24-8.77,4.65-.87,9.35-.74,13.5,2.53a39.72,39.72,0,0,0,7.79,4.41c2.16,1,4.62.86,7,.9,6.76.11,12.86-2.07,18.76-5.22a19.29,19.29,0,0,1,16.44-1.3c3.37,1.24,6.49,3.08,9.92,4,6.78,1.93,13.65,3.19,20.58.55a73.14,73.14,0,0,0,7.45-3c4.87-2.51,9.25-1.57,13.71,1.11a41,41,0,0,0,9.45,4.6c5,1.48,8.92-.57,12.49-3.41,2.71-2.16,5.23-4.38,8.82-4.82m-75.92-21.92.09-4.09c0-.46-.08-1,.63-1s.85.4.89.91,0,1.25,0,1.88a58.37,58.37,0,0,0-.16,8.15c.13,1.35-1,.95-1.45,1-.79.09-.38-.66-.32-1a43.29,43.29,0,0,0,.33-5.8m10.9,6.68c.1.69-.34.86-1,.93-.88.11-.8-.44-.79-1,0-1.37.06-2.73.08-3.61.33-2.73.32-5,.82-7.22.11-.47.12-1.2.85-1.09s.47.79.45,1.28c-.21,3.56-.93,7.1-.45,10.68m9.06.7c0,.44,0,.85-.69.72-.5-.1-1.11.08-1.09-.74s0-1.47,0-2a71.38,71.38,0,0,1,.87-8.47c.12-.52.11-1.17.83-1.1a1,1,0,0,1,.86,1.29c-.94,3.41-.85,6.88-.82,10.35m4.44-.47c.4-3.34.82-6.68,1.23-10,.07-.55.18-1.12.92-1s.88.66.75,1.31a50.18,50.18,0,0,0-.84,9.07c0,.56,0,1.24-.83,1.51s-1.34.07-1.23-.89m9.17-5.21c-.13-1.15.15-2.88.19-4.61,0-.59.07-1.29.84-1.27a1.07,1.07,0,0,1,1,1.35,46.17,46.17,0,0,0-.36,9.9c.09.94-.68,1.21-1.34,1.18s-.43-.77-.43-1.24c0-1.57.07-3.15.12-5.31m7.7,4.49c.62-3.3,1-6.75,2-10.11.16-.59.48-.95,1.14-.69s.62.65.45,1.17a43.42,43.42,0,0,0-1.86,9.7c-.08.84-.52.94-1.13.94s-.59-.46-.55-1m29.69-22.71c.49,0,1.19-.29,1.19.55s-.66,1-1.35,1c-5.48-.29-10.95.42-16.42.2-5.63-.23-11.26.3-16.89.17-16.36-.37-32.72-.88-49.08-1.13-8-.13-16,.21-24,.32-1.32,0-2.63,0-3.95,0-.42,0-.9-.12-.83-.71s.44-.62.93-.61c12.73.47,25.47-.77,38.2,0,.73,0,1.47-.07,2.2-.1,7.05,0,14.07.71,21.12.61,5.94-.08,11.89.51,17.82.32,10.34-.33,20.69,0,31-.58" transform="translate(-132.89 -235.99)"/><path class="cls-1" d="M386.07,494.41c-3.49.44-7,.91-10.5,1.09-12.36.63-24.73.37-37.09.08-10.2-.25-20.4,0-30.62-.42-11.67-.46-23.34-1.1-35-1.52-9.61-.35-19.2-1.2-28.84-1.16-11,0-22-.07-33-.19-8.21-.09-16.42-.28-24.61.42a32.38,32.38,0,0,0-8.58,1.57,8.32,8.32,0,0,1,3.33,3c3,3.84,6,7.74,9,11.56,1.77,2.22,3.71,4.3,5.49,6.51a66.44,66.44,0,0,0,11.23,11.44c.38.28.79.81,1.22.63,1.29-.55,2.59-.14,3.87-.18a115.63,115.63,0,0,1,12.62-.17c8.21.59,16.42.17,24.62.41,8.56.26,17.13-.3,25.7-.63,9.56-.38,19.13-.56,28.71-.06,7.83.41,15.69.23,23.51.74,8.1.52,16.19.21,24.29.23,4.47,0,8.92-.47,13.38-.71a3.77,3.77,0,0,0,3.22-1.77q4.13-6,8.16-12.09,2.82-4.28,5.51-8.63a99.7,99.7,0,0,0,5.19-9.18c.45-1,.25-1.13-.82-1" transform="translate(-132.89 -235.99)"/><path class="cls-1" d="M264.82,575.19c0-4.26-.22-8.52-.33-12.77,0-.66,0-1.3-.89-1.38s-1.77-.27-2.65-.3c-4.78-.17-9.57-.24-14.35-.5-3.77-.2-7.55.13-11.31-.48a9.82,9.82,0,0,0-5,.94,27.14,27.14,0,0,0-13.76,11.77,12.31,12.31,0,0,0-2.1,8.51c.15,1,.46,1.35,1.43,1.37,2.79.07,5.57.19,8.34.46,4.67.45,9.36.09,14,.18a256.54,256.54,0,0,0,25.86-.75c1.27-.11,1.28-.81,1.2-1.71-.15-1.78-.44-3.54-.45-5.34" transform="translate(-132.89 -235.99)"/><path class="cls-1" d="M332.52,560.67c-6.3.33-12.59.78-18.86,1.41a1.47,1.47,0,0,0-1.54,1.71c0,2.53-.1,5.05-.16,7.58h.16c.08,3.26.25,6.53.19,9.79,0,1.44.26,2,1.79,1.82,3.44-.39,6.89-.6,10.36-.69,10-.27,20-.56,29.94-1.2,5.21-.34,10.42-.12,15.62-.16,1.14,0,1.65-.29,1.51-1.52s-.68-2.55-.89-3.82a18.45,18.45,0,0,0-9-13.25,14.65,14.65,0,0,0-8.38-2.61c-6.92.29-13.84.59-20.75.94" transform="translate(-132.89 -235.99)"/><path class="cls-1" d="M222.2,563.09c1.3-1.05,3-1.55,4.24-2.91-1.09-.58-1.33.39-1.89.66s-.94.85-1.2-.07-.89-1-1.69-.73a16.44,16.44,0,0,1-1.86.33c-7.75,1.34-15.12,3.39-20.67,9.61a17.35,17.35,0,0,0-4.48,10.82c-.07,1.07.28,1.66,1.53,1.59a111.82,111.82,0,0,1,15.42-.29c1,.08,1.31-.33,1.19-1.28a10.57,10.57,0,0,1,.31-5.15,28.92,28.92,0,0,1,9.1-12.58" transform="translate(-132.89 -235.99)"/><path class="cls-1" d="M251.28,551.39a15.92,15.92,0,0,0-5.44-.46c-4.72,0-9.44.19-14.17.32l-6,.2c-.58,0-1.24,0-1.23.84a25.82,25.82,0,0,0,.32,5.19c.14.65.49.82,1.11.79a109.13,109.13,0,0,1,13,.29c4.35.33,8.73.13,13.08.51,3.67.33,7.36,0,11,.41,1.18.14,1.45-.36,1.36-1.42a146.72,146.72,0,0,1-.09-20.65c.06-2.52.09-5,.19-7.56,0-.83-.1-1.28-1.08-1.25q-4.26.12-8.52.09c-.93,0-1.3.36-1.38,1.25-.27,3.25-.6,6.49-.87,9.74-.29,3.47-.17,6.94-.19,10.42,0,.81-.1,1.67-1.17,1.29" transform="translate(-132.89 -235.99)"/><path class="cls-1" d="M362.49,560.74a19.86,19.86,0,0,1,5.82,5c3,4.17,3.92,9,4.76,13.89.14.83.22,1.4,1.26,1.35,3.57-.16,7.14-.35,10.72-.18.45,0,1,0,.81-.6-1-2.73-.81-5.83-2.58-8.38a31.53,31.53,0,0,0-6.6-6.7c-4.44-3.47-9.56-4.78-15.11-5.42.08.82.58.84.92,1" transform="translate(-132.89 -235.99)"/><path class="cls-1" d="M314.1,560.53c5.09-.08,10.13-.77,15.2-1.19,6.54-.53,13.08-.88,19.63-1.26.69,0,.95-.22.93-.9-.05-1.57,0-3.16-.12-4.73-.12-2.4-.15-2.37-2.51-2.47-5.94-.27-11.88-.21-17.81-.06a50.83,50.83,0,0,0-5.52,0c-2.24.31-2.24.3-1.79-2a7.3,7.3,0,0,0,.05-.94q.1-4.18.19-8.37h-.15q.09-4.5.2-9c0-.52.09-1.09-.72-1.12-2.78-.1-5.56-.2-8.34-.32-.85,0-1,.33-1,1.14,0,3.36,0,6.73-.1,10.1-.13,6.37,0,12.74.05,19.11,0,1.92,0,1.95,1.85,1.93" transform="translate(-132.89 -235.99)"/><path class="cls-1" d="M324,546.3c0,2.08.14,2.1,2.28,2.17,3.8.13,7.55-.47,11.34-.48,3.51,0,7,0,10.55.08,1.13,0,1.51-.47,1.62-1.58.55-5.49.34-11,1.51-16.47.18-.8-.12-1.13-1-1.14-4.1,0-8.2-.16-12.3-.25,0,.14,0,.29,0,.44l-1.41,0c-3.69-.09-7.37-.2-11.05-.27-.41,0-1.35-.11-1.11.38.61,1.3-.31,2.29-.35,3.44-.13,4.57-.1,9.15-.08,13.72" transform="translate(-132.89 -235.99)"/><path class="cls-1" d="M345.57,375.64c-4.67-.13-9.33-.34-14-.11-8.67.45-17.32-.57-26-.64q-15.3-.13-30.59-.11c-7.47,0-14.94.27-22.41.2-6.94-.07-13.87-.61-20.81-.6-5.62,0-11.24-.05-16.85-.36-.33,0-.65,0-.86.26s0,.69.24,1c1.51,1.95,3,3.91,4.56,5.85a142.57,142.57,0,0,0,12.51,14.17,3.14,3.14,0,0,0,2.36,1c5.53.09,11-.34,16.55-.53,12.53-.43,25.06-.3,37.57-.12q15.06.21,30.12,1c3.84.08,7.68.16,11.52.26a1.81,1.81,0,0,0,1.7-.55c1.13-1.38,2.33-2.71,3.47-4.08,1.88-2.26,3.76-4.51,5.59-6.81A61.17,61.17,0,0,0,346.3,377c.48-.86.48-1.28-.73-1.32" transform="translate(-132.89 -235.99)"/><path class="cls-1" d="M249.44,528.72c-5.83-.07-11.66-.24-17.5-.37v.3c-1.89,0-3.79-.07-5.68-.13-2.19-.07-2.17-.09-2.11,2.19.15,5.89.33,11.78.38,17.67,0,1.25.32,1.68,1.53,1.71a83.27,83.27,0,0,0,10.24-.2c4.29-.46,8.62-.23,12.91-.57.74-.06,1.68.19,1.64-1.1-.19-5.84.32-11.66.7-17.48.12-1.88-.64-2-2.11-2" transform="translate(-132.89 -235.99)"/><path class="cls-1" d="M249.35,372.49c.06.95.58,1.18,1.48,1.19,4.14,0,8.29.32,12.44,0,.42,0,.84,0,1.26,0,4.89-.11,9.77-.21,14.66-.34.56,0,1.36.23,1.23-.88a114.74,114.74,0,0,1-.37-14c0-1.14-.45-1.44-1.52-1.4-2.31.06-4.63.07-6.94,0-7-.24-14.08.28-21.12.22-.47,0-1,0-1,.68,0,4.83-.44,9.67-.13,14.5" transform="translate(-132.89 -235.99)"/><path class="cls-1" d="M273.27,288.72q-12.56.25-25.09-.06c-12.21-.3-24.41-1-36.87.4a3.71,3.71,0,0,1,.39,2.15c0,8.64.62,17.25,1,25.88.14,3.63.31,7.26.44,10.89q.3,8.37.56,16.73c.15,4.84.36,9.68.37,14.52,0,4-.2,8-.38,12-.06,1.28.38,1.69,1.67,1.8a59.13,59.13,0,0,0,7.41.13c.76,0,1.15-.27,1.12-1.13-.18-4.38.42-8.73.68-13.09,0-.83-.6-1.63.13-2.55.9-1.15,1.6.06,2.4,0,3-.21,6.09-.24,9.14-.29,6.83-.1,13.67-.06,20.51-.27s13.46-.05,20.19-.06c12.46,0,24.92.06,37.38-.12,7.22-.11,14.52,1.07,21.65-1,.48-.14.84-.09,1.06.37s0,.91-.55,1.09-.94.31-.89.92c.14,1.55-.43,3-.41,4.56.05,3.79.12,7.58.13,11.37,0,1.05.45,1.37,1.44,1.34,2.9-.09,5.79-.16,8.69-.15,1.24,0,1.62-.52,1.67-1.7.31-8.63.78-17.24,1-25.87.25-9.83.14-19.68.54-29.51.15-3.73-.1-7.46.31-11.19a69.25,69.25,0,0,0-.28-15.43c-.12-.95-.46-1.41-1.51-1.29a16.81,16.81,0,0,1-3.47.1c-5.62-.58-11.26-.12-16.88-.09-10.47,0-20.94-.42-31.41-.4-7.36,0-14.74-.19-22.09,0M262.64,343a19.26,19.26,0,0,1-9.47,7,17.34,17.34,0,0,1-9.62.33c-2.7-.74-5.39-1.47-7.5-3.45a13.74,13.74,0,0,1-3.57-5.33c-1.55-4.35-3.36-8.68-2.63-13.47,1-6.45,3.83-11.69,9.83-14.89,1.73-.93,3.76-1.33,5.19-2.86.26-.28.88-.28,1.34-.33a21.9,21.9,0,0,1,10,1.59,3.63,3.63,0,0,1,1.78,1.28c3,4.3,6.08,8.58,7.44,13.79a27.38,27.38,0,0,1,.73,6.25A15.06,15.06,0,0,1,262.64,343m33.08-19.21a22.69,22.69,0,0,1,8.61-10.63c.9-.63,1.78-1.29,2.67-1.94-.18-.79-1.27-.25-1.12-1,.11-.52.8-.45,1.23-.53,4.61-.9,9.17-1.18,13.54,1.1a15.64,15.64,0,0,1,6.51,6.65,42.72,42.72,0,0,1,4.52,11.41c1,4.78.71,9.47-2.62,13.59-3,3.76-6.27,7.25-11.18,8.2a19,19,0,0,1-8.87-.26c-1.55-.45-3.19-.47-4.72-1.15-4-1.78-6.34-4.92-7.9-8.94-2.12-5.47-2.77-10.95-.67-16.48" transform="translate(-132.89 -235.99)"/><path class="cls-1" d="M306.59,348.17a34.13,34.13,0,0,0,7.72,1.09,15,15,0,0,0,3.34-.18c3.27-.89,5.77-2.87,8.17-5.16,4.79-4.57,5.86-10.09,4.07-16.19A41.66,41.66,0,0,0,325,316.81C322.16,312.33,315,308.47,309,312a31.92,31.92,0,0,0-8.64,7.26,16.45,16.45,0,0,0-3.23,5.36c-2,6.45-.9,12.6,2.43,18.36a10.76,10.76,0,0,0,7,5.2" transform="translate(-132.89 -235.99)"/><path class="cls-1" d="M257.61,314.83a6.08,6.08,0,0,0-3.3-2.29c-4.06-1.37-7.8-.48-11.6,1.14-6.53,2.79-10,7.77-11.07,14.61-.67,4.29,1,8.16,2.33,12.11,2.1,6.21,7.17,8.42,13.24,8.73a18,18,0,0,0,11.7-4.52c6.29-5.35,6.9-12,4.67-19.23-1.19-3.89-3.73-7.17-6-10.55" transform="translate(-132.89 -235.99)"/><path class="cls-1" d="M211.42,327.81h.15c-.25-4.51-.52-9-.76-13.54,0-.52,0-1-.74-.88a35.23,35.23,0,0,1-7.26,0c-1,0-1.13.51-1.09,1.28.1,2.21.33,4.42.26,6.62-.28,8.39.54,16.71,1.13,25,0,.6,0,1.26,1,1.36a64,64,0,0,0,7.06.3c.78,0,1.07-.21,1-1.11-.29-6.36-.51-12.72-.75-19.08" transform="translate(-132.89 -235.99)"/><path class="cls-1" d="M281.6,359.13c0,.52,0,1.05,0,1.57a104.29,104.29,0,0,0,.47,11.18c.09,1.2.52,1.75,1.85,1.66,1.83-.14,3.68-.1,5.52-.08,5.83.06,11.67.15,17.5.24.89,0,1.5-.05,1.54-1.22.16-4.73.52-9.45,1.12-14.15.14-1.09-.23-1.37-1.26-1.38-4.2,0-8.4-.16-12.6-.26l0,.62-12-.26c-2.2-.05-2.19-.05-2.11,2.08" transform="translate(-132.89 -235.99)"/><path class="cls-1" d="M248.07,359.19c0-1.3-.22-1.77-1.59-1.74-6.36.15-12.72,0-19.07.27-1,0-1.41.35-1.44,1.37,0,1.57-.26,3.14-.28,4.72,0,2.57-.57,5.12-.21,7.7.16,1.18.52,1.72,1.85,1.7,3.09,0,6.19.1,9.29.17v.06c3.26.07,6.52.11,9.77.23,1.08,0,1.51-.2,1.43-1.39-.3-4.36.22-8.72.26-13.09" transform="translate(-132.89 -235.99)"/><path class="cls-1" d="M311.48,373.72c1.31,0,2.62.14,3.94.2,5.62.25,11.23.66,16.86.43.66,0,1.36.16,1.3-1-.14-2.2,0-4.41-.14-6.61-.15-3,.45-6,.62-9,.05-.88-.13-1.17-1.12-1.12-3.46.19-6.93.29-10.4.34s-6.83,0-10.25,0c-1,0-1.43.26-1.43,1.32,0,2.36-.09,4.73-.14,7.1h-.43c-.06,2.31-.08,4.63-.17,6.94,0,1,.3,1.43,1.36,1.41" transform="translate(-132.89 -235.99)"/><path class="cls-1" d="M259.71,277.08a45.83,45.83,0,0,0-.18,8c.08,2.2.25,2.4,2.5,2.37,9.29-.1,18.58-.05,27.87-.39,1.73,0,3.46,0,5.19.13.79,0,1-.2,1-1-.05-1.36-.06-2.73-.05-4.1,0-2.84.3-5.66.58-8.49.17-1.7-.22-2.06-1.9-2-3.41.15-6.82.14-10.22.55-7.85.95-15.78,1.3-23.49,3.31-1,.26-1.19.63-1.31,1.53" transform="translate(-132.89 -235.99)"/><path class="cls-1" d="M174.79,414.74h-.4a75.13,75.13,0,0,0-.33-10.71c0-.35.09-.79-.35-.95s-.56.17-.77.42c-1.81,2.1-3.68,4.16-5.43,6.32-1.37,1.67-2.65,3.11-2.51,5.82.22,4.25-.43,8.56-.33,12.87,0,1.13.32,1.47,1.45,1.39,2.25-.18,4.51-.3,6.76-.3,1.24,0,1.63-.37,1.64-1.62,0-4.41.17-8.82.27-13.23" transform="translate(-132.89 -235.99)"/><path class="cls-1" d="M159.16,491.89c.09-1.09-.26-1.43-1.35-1.55a47.14,47.14,0,0,0-14.28.48c-5,1-7.85,3-8.64,9.1-.48,3.62.14,7.13.42,10.68a6,6,0,0,0,2.92,4.46c2,1.35,4.19,1.34,6.36,1.42a79.71,79.71,0,0,0,9.13-.52c3.4-.27,4.24-1,4.86-4.39.88-4.9.4-9.85.44-14.79,0-1.63,0-3.26.14-4.89" transform="translate(-132.89 -235.99)"/><path class="cls-1" d="M349.8,330.64c0,4.72.07,9.45,0,14.18,0,1.16,0,2.32-.09,3.47-.07,1,.26,1.37,1.26,1.23,1.82-.27,3.64-.56,5.47-.69,1.54-.11,2-.77,2-2.3-.08-6.19,0-12.38-.06-18.58-.08-4.93-.37-9.87-.52-14.8,0-1.1-.37-1.5-1.51-1.32-1.55.24-3.12.36-4.69.49-.95.07-1.35.42-1.35,1.47,0,5.62-.48,11.22-.47,16.85" transform="translate(-132.89 -235.99)"/><path class="cls-1" d="M162.89,445.28c.4-7.77.62-15.53.3-23.3-.08-2.11.39-4.2,0-6.3-.13-.79-.38-1.18-1.21-.95a10.62,10.62,0,0,1-3-.07c-5.14-.07-10.12,1.09-15.15,1.89a6.55,6.55,0,0,0-2.94,1.23c.94,0,1.31.58,1.26,1.51-.29,4.7.47,9.37.44,14,0,6.53.71,13,.92,19.52,0,1.3.5,1.68,1.75,1.35a19.62,19.62,0,0,1,4.53-.53c3.84-.12,7.68-.11,11.5-.58,1.27-.16,1.9-.6,1.78-2a42.17,42.17,0,0,1-.23-5.83" transform="translate(-132.89 -235.99)"/><path class="cls-1" d="M161.41,459.19c-4.88.11-9.77,0-14.62.87-.95.16-1.19.62-1,1.52a53.13,53.13,0,0,1,.29,12.63c.11,4.28.24,8.75.32,13.22,0,.88.28,1.19,1.19,1.19,3.41,0,6.83.05,10.24.22,1.2.06,1.67-.25,1.56-1.44-.3-3.42.43-6.8.42-10.21a12.73,12.73,0,0,1,.25-1.72q1-7.74,2-15.48c.06-.5,0-.81-.63-.8" transform="translate(-132.89 -235.99)"/><path class="cls-1" d="M161.94,454.74c-3.67.55-7.35.14-11,.13a16,16,0,0,0-6.31,1.19c-.94.39-.68.87-.55,1.47s.14,1.33.62,1.29c4.5-.71,8.61-.78,12.69-1.06,1.32-.1,2.62-.24,3.93-.37s1.22-1.31,1.52-2.11c.19-.5-.45-.61-.88-.54" transform="translate(-132.89 -235.99)"/><path class="cls-2" d="M312,252.12c-2.64,4.07-8,4.2-11.17,2.51-1.89-1-3.14-2.74-4.78-4-5-3.92-10.16-2.4-14.87-.53a3.92,3.92,0,0,0-1.51,1.36c-2.66,3.54-4.61,7.37-4.95,11.92-.1,1.26,1.16,2.85-.25,3.7-1.1.65-2.65.56-4,.8a.78.78,0,0,0-.16,0c-4.27.86-8.63,1.29-12.83,2.53-1.41.41-2.2,1-2.28,2.69-.16,3.19-.65,6.37-1,9.56-.07.71-.32,1-1.09,1-6.2,0-12.42-.13-18.62.15-8.58.38-17.24-.52-25.75,1.42-1.37.31-2.12,1-2,2.34a64.38,64.38,0,0,1,.11,9c-.19,4.1.51,8.19.06,12.3-.09.86-.33,1.1-1.16.93a21.2,21.2,0,0,0-3-.4,4.57,4.57,0,0,0-5,4.77c.23,7.68-.17,15.36.41,23,.28,3.62.47,7.24.84,10.86a3.33,3.33,0,0,0,2.78,2.85,36,36,0,0,0,5.19.26c1.09,0,1.81.33,1.82,1.77,0,4.78.4,9.55.39,14.33,0,2.58.49,5.17-.05,7.71a2.2,2.2,0,0,0,.62,2.25,34.88,34.88,0,0,1,3.18,3.5,134,134,0,0,0,10,12.38c.26.29.76.56.54,1s-.73.28-1.13.3c-9.13.62-18.3.45-27.41,1.46-6.65.73-13.32,1.2-20,1.79-.5,0-1.12-.13-1.23.64-.31,2.1-1.76,3.54-3,5a68.31,68.31,0,0,0-5.38,7,5.34,5.34,0,0,1-4.46,2.78,124.56,124.56,0,0,0-15.63,2c-1.71.28-3.42.59-5.12.89-.42.08-.9.16-.94.68a1,1,0,0,0,.71.94,8.47,8.47,0,0,0,.86.25,4.84,4.84,0,0,0-.41,2.24c.12,3.53.28,7,.54,10.57.74,10.32.61,20.71,2.61,30.94.68,3.48.59,7.11.75,10.68.23,5.1.32,10.21.57,15.31,0,1.16-.25,1.52-1.41,1.69a11.67,11.67,0,0,0-6.58,2.69,12,12,0,0,0-3.78,7.73,46.42,46.42,0,0,0,.08,9.93c.45,5.07,2.86,7.55,7.86,8.35,4.33.69,8.61-.23,12.91-.19,4.6,0,6.51-3.52,6.67-7.3.23-5.34-.29-10.71-.1-16.06.11-3.27.52-6.52.55-9.78.05-6.39,1.28-12.64,2.15-18.94.22-1.57.12-3.15.37-4.72a53.3,53.3,0,0,0,.94-9.4c-.12-5.14-.38-10.3-.06-15.46.31-4.85.65-5.23,5.54-5,2,.1,2,.1,1.63,1.95a1.63,1.63,0,0,0,0,.93,2.56,2.56,0,0,1-.05,2,9.3,9.3,0,0,0-.29,3c.37,9.05.77,18.1,1.08,27.16.31,8.83.62,17.67,1.13,26.5,0,.61.36,1.24,0,1.86a2,2,0,0,0,.5,2.43c2.52,2.9,4.6,6.14,7.06,9.1C185,510.58,189,514.9,193,519.31a115.67,115.67,0,0,0,10.09,10,9.54,9.54,0,0,0,4.57,2.53,42.44,42.44,0,0,0,9.28.46c1,0,1.7.07,1.67,1.4-.19,7.32-.59,14.63,0,21.94.16,2.07,0,2.1-2,2.08a4.78,4.78,0,0,0-1.37.29c-2.27.64-4.52,1.41-6.83,1.84-6.11,1.15-10.27,5.12-14.21,9.49a11.89,11.89,0,0,0-2.45,4.89c-1,3.52-3.18,7.08-.4,10.78a2,2,0,0,1,.2.76,1.39,1.39,0,0,0,1.7,1.23,102.05,102.05,0,0,1,11.2-.07c7.68.2,15.37.21,23,.54,6.1.27,12.2.46,18.3.21s12.39-.32,18.58-.74a5.12,5.12,0,0,0,3.53-1.37c.91-.91.86-2.4,1.77-3.36.09-.1,0-.41-.09-.61a9.91,9.91,0,0,1-.32-2.81q-.33-8.68-.68-17.36c-.27-7-.69-14-.33-21a44.48,44.48,0,0,0-.07-7.57c-.21-1.61.36-1.81,1.59-1.83l16.55-.26a185.8,185.8,0,0,1,20.3.48c.95.09,1.31.43,1.32,1.34,0,3.64.15,7.27.14,10.9,0,7,0,14-.13,21-.1,5.43.31,10.85-.06,16.28a2.64,2.64,0,0,0,.45,1.95,1.43,1.43,0,0,1,.13,1.68c-.71,1.75.72,3.93,2.22,3.55a59.73,59.73,0,0,1,13.78-1.42c3.84-.07,7.68,0,11.51-.25,7.19-.46,14.39-.54,21.58-1,5.6-.39,11.25,0,16.88,0,4.21,0,8.42-.38,12.61.12,2.12.25,2.8-.54,2.2-2.6a1.46,1.46,0,0,1-.11-.61c.42-2.93-.85-5.63-1.25-8.44-.53-3.67-2.79-6.53-5.19-9.19-3.88-4.31-8.46-7.56-14.25-8.75a42.53,42.53,0,0,0-13-.76c-1.13.12-1.57-.16-1.64-1.4-.34-6.65.67-13.23.84-19.85,0-.7.27-1.12,1-1.06,3.05.2,6.05-.73,9.13-.38a6,6,0,0,0,5.38-2.46c2.48-3.18,4.63-6.62,6.83-10,4.9-7.52,10.32-14.72,14-23a20.29,20.29,0,0,0,1.55-5.74,37.23,37.23,0,0,0,0-6.92c-.37-5.41-.76-10.82-1-16.24-.54-10.74.09-21.48,0-32.23,0-1.09.41-1.49,1.5-1.47,2.46,0,4.92.44,7.41.15.67-.08,1.85,0,2.23-.56a37.37,37.37,0,0,0,.41,5.38,50.91,50.91,0,0,1,.47,6.29c.22,7.16-1.11,14.37,1,21.48.83,2.8.75,5.83,1,8.77.4,5.87,1.13,11.73,1.29,17.61.11,4.08-.28,8.18-.56,12.27-.36,5.12-.81,10.26-.18,15.43.32,2.6,1.87,5,4.45,5.33,5.53.7,11.06,1.24,16.62,0a11.66,11.66,0,0,0,7.66-5.54c1.55-2.46,1.64-5.18,1.93-7.88.88-8.26-3-15.8-12.26-17.81-1.1-.24-1.14-.76-1.08-1.64.49-6.83.83-13.67,1.44-20.48.49-5.46.35-10.95,1.22-16.38s.56-11,1.13-16.55c.65-6.28.89-12.6,1.23-18.9.07-1.31.84-2.5.48-3.85-.08-.3,0-.65-.37-.8a.57.57,0,0,0-.78.34c-.36,1.1-1.18.82-2,.71a163.18,163.18,0,0,0-17.2-2c-2.81-.11-5.6-.12-7.57-2.78-3.8-5.15-8.94-9.18-12.26-14.75A1.86,1.86,0,0,0,387,397c-8,.33-16-.72-24-.91-7.48-.17-14.91-1.22-22.4-1.09-.49,0-1.17.29-1.41-.33s.33-1,.67-1.34c2.85-3.17,5.34-6.62,8-9.92,2.83-3.46,4.66-7.21,4.69-11.82,0-6.05.25-12.09,0-18.13,0-.75.34-.92.87-1,1.39-.28,2.8-.51,4.18-.82s3-.51,4.2-1.64c1-1,.24-2.21.33-3.33.47-6.35.41-12.72.61-19.09.16-5.25,0-10.51.32-15.77.13-2.09-.8-3.05-2.83-3.65-1.35-.41-2.59.13-3.87.2-2.58.13-3-.13-3.14-2.61-.18-3.05-.14-6.1-.22-9.15-.08-3.22.34-6.43,0-9.64-.09-.75-.51-1.74-1-1.48-1.49.75-2.05-.31-2.88-1a2.17,2.17,0,0,0-1.78-.43c-1.77.22-3.54.4-5.31.61a79.5,79.5,0,0,1-11.64.5c-6-.17-12.08-.12-18.12-.37-3.68-.16-7.35-.45-11-.52-.8,0-1.3-.34-1.26-1.25.14-3.25-.23-6.53.43-9.76.3-1.5.24-3.05.44-4.53.27-2-1.59-2.54-2.2-3.89-.13-.28-.58,0-.87.05a78.14,78.14,0,0,0-8.08,1c-2.48.29-4.85-.57-7.27-.16-.83.14-1.68.21-2.49.42-1.1.29-1.51-.11-1.34-1.17a23.46,23.46,0,0,1,3.22-9.46c2.47-3.78,8.43-4.6,11.72-1.48a16.45,16.45,0,0,0,1.86,1.47,18.45,18.45,0,0,0,12.69,3.77,10.41,10.41,0,0,0,7.66-4.78,18,18,0,0,0,3.42-11.27c0-.11,0-.22,0-.33-.07-2.11,0-4.34-1.95-5.93-.54-.44-1.1-1.07-1.77-.83s-.44,1.17-.44,1.81a9.25,9.25,0,0,0,.1,1.58,16,16,0,0,1,.18,3.28,18.69,18.69,0,0,1-3.3,9.4M158.58,511.57c-.62,3.43-1.46,4.12-4.86,4.39a79.71,79.71,0,0,1-9.13.52c-2.17-.08-4.41-.08-6.36-1.42a6,6,0,0,1-2.92-4.46c-.28-3.55-.9-7.06-.42-10.68.79-6.08,3.62-8.13,8.64-9.1a47.14,47.14,0,0,1,14.28-.48c1.09.12,1.44.46,1.35,1.55-.14,1.63-.1,3.26-.14,4.89,0,4.94.44,9.89-.44,14.79M162,460q-1,7.74-2,15.48a12.82,12.82,0,0,0-.25,1.71c0,3.42-.72,6.8-.42,10.23.11,1.18-.36,1.49-1.56,1.43-3.41-.17-6.83-.2-10.24-.22-.91,0-1.18-.31-1.19-1.19-.08-4.47-.21-8.94-.32-13.22a53.13,53.13,0,0,0-.29-12.63c-.14-.9.1-1.36,1.06-1.52,4.84-.83,9.73-.76,14.61-.87.62,0,.69.3.63.8m.78-4.71c-.3.8-.23,2-1.52,2.11s-2.62.27-3.93.37c-4.08.28-8.19.35-12.69,1.06-.48,0-.48-.69-.62-1.29s-.39-1.08.55-1.47a16,16,0,0,1,6.31-1.19c3.67,0,7.35.42,11-.13.43-.07,1.07,0,.88.54m-1.48-2.18c-3.82.47-7.66.46-11.5.58a19.62,19.62,0,0,0-4.53.53c-1.25.33-1.71,0-1.75-1.35-.21-6.51-.95-13-.92-19.52,0-4.68-.73-9.35-.44-14,.05-.93-.31-1.47-1.26-1.51a6.6,6.6,0,0,1,2.94-1.23c5-.8,10-2,15.15-1.89a10.62,10.62,0,0,0,3,.07c.83-.23,1.08.17,1.21.95.36,2.11-.12,4.19,0,6.3.32,7.77.1,15.54-.31,23.3a42.18,42.18,0,0,0,.24,5.83c.12,1.39-.51,1.83-1.78,2m11.54-23.51c-2.25,0-4.51.12-6.76.3-1.13.08-1.42-.26-1.45-1.39-.1-4.31.55-8.62.33-12.87-.14-2.71,1.15-4.15,2.51-5.82,1.75-2.16,3.62-4.22,5.43-6.32.21-.25.42-.55.77-.42s.32.6.35.95a75.08,75.08,0,0,1,.33,10.71h.4c-.1,4.41-.25,8.82-.27,13.23,0,1.25-.4,1.63-1.64,1.62m177.39-115.8c0-1.05.4-1.4,1.35-1.47,1.57-.13,3.14-.25,4.69-.49,1.14-.18,1.48.22,1.51,1.32.15,4.93.44,9.87.52,14.8.09,6.2,0,12.39.06,18.58,0,1.53-.44,2.19-2,2.3-1.83.13-3.65.42-5.47.69-1,.14-1.33-.26-1.26-1.23.07-1.15.06-2.31.09-3.47.09-4.73,0-9.46,0-14.18,0-5.63.49-11.23.47-16.85M211.14,348a64,64,0,0,1-7.06-.3c-.93-.09-.93-.76-1-1.36-.59-8.34-1.41-16.66-1.13-25,.07-2.2-.16-4.41-.26-6.62,0-.77.08-1.31,1.1-1.28a35.14,35.14,0,0,0,7.25,0c.7-.13.71.36.74.88q.38,6.78.76,13.54h-.15c.24,6.36.46,12.72.75,19.08,0,.9-.25,1.1-1,1.11m1.65,232.82c.12.95-.16,1.36-1.19,1.28a111.82,111.82,0,0,0-15.42.29c-1.25.07-1.6-.52-1.53-1.59A17.35,17.35,0,0,1,199.13,570c5.55-6.22,12.92-8.27,20.67-9.61a16.44,16.44,0,0,0,1.86-.33c.8-.23,1.39-.31,1.69.73s.78.28,1.2.07.8-1.24,1.89-.66c-1.28,1.36-2.94,1.86-4.24,2.91a28.92,28.92,0,0,0-9.1,12.58,10.57,10.57,0,0,0-.31,5.15m39.85-41.14c.27-3.25.6-6.49.87-9.74.08-.89.45-1.26,1.38-1.25q4.26,0,8.52-.09c1,0,1.11.42,1.08,1.25-.1,2.52-.13,5-.19,7.56a146.72,146.72,0,0,0,.09,20.65c.09,1.06-.18,1.56-1.36,1.42-3.66-.45-7.35-.08-11-.41-4.35-.38-8.73-.18-13.08-.51a109.13,109.13,0,0,0-13-.29c-.62,0-1-.14-1.11-.79a25.82,25.82,0,0,1-.32-5.19c0-.87.65-.82,1.23-.84l6-.2c4.73-.13,9.45-.35,14.17-.32a15.92,15.92,0,0,1,5.44.46c1.07.38,1.16-.48,1.17-1.29,0-3.48-.1-7,.19-10.42m-1.79,8.54c0,1.29-.9,1-1.64,1.1-4.29.34-8.62.11-12.91.57a83.27,83.27,0,0,1-10.24.2c-1.21,0-1.52-.46-1.53-1.71-.05-5.89-.23-11.78-.38-17.67-.06-2.28-.08-2.26,2.11-2.19,1.89.06,3.79.09,5.68.13v-.3c5.84.13,11.67.3,17.5.37,1.47,0,2.23.14,2.11,2-.38,5.82-.89,11.64-.7,17.48m13.22,34a256.37,256.37,0,0,1-25.86.75c-4.68-.09-9.37.27-14-.18-2.77-.27-5.55-.39-8.34-.46-1,0-1.28-.36-1.43-1.37a12.31,12.31,0,0,1,2.1-8.51,27.14,27.14,0,0,1,13.76-11.77,9.82,9.82,0,0,1,5-.94c3.76.61,7.54.28,11.31.48,4.78.26,9.57.33,14.35.5.88,0,1.77.21,2.65.3s.88.72.89,1.38c.11,4.25.29,8.51.33,12.77,0,1.8.29,3.56.45,5.34.08.9.07,1.6-1.2,1.71m48.23-52.86c0-.8.19-1.17,1-1.13,2.78.12,5.56.22,8.35.32.8,0,.72.6.71,1.12q-.11,4.5-.2,9h.15q-.09,4.18-.19,8.37a4.9,4.9,0,0,1-.06.94c-.44,2.26-.44,2.27,1.8,2a50.83,50.83,0,0,1,5.52,0c5.93-.15,11.87-.21,17.81.06,2.36.1,2.39.07,2.51,2.47.08,1.57.07,3.16.12,4.73,0,.68-.24.86-.93.9-6.55.38-13.1.73-19.63,1.26-5.07.42-10.11,1.11-15.2,1.19-1.88,0-1.82,0-1.85-1.93-.06-6.37-.18-12.74-.05-19.11.06-3.37.11-6.74.1-10.11m12.15-.24c-.24-.49.7-.39,1.11-.38,3.68.07,7.36.18,11.05.27l1.41,0c0-.15,0-.3,0-.44,4.1.09,8.2.2,12.3.25.87,0,1.17.34,1,1.14-1.17,5.43-1,11-1.51,16.47-.11,1.11-.49,1.59-1.62,1.58-3.52-.06-7-.1-10.55-.08-3.79,0-7.54.61-11.34.48-2.14-.07-2.26-.09-2.28-2.17,0-4.57,0-9.15.08-13.72,0-1.15,1-2.14.35-3.44m52.22,36a31.11,31.11,0,0,1,6.61,6.7c1.77,2.55,1.54,5.65,2.58,8.38.22.57-.36.62-.81.6-3.58-.17-7.15,0-10.72.18-1,0-1.12-.52-1.26-1.35-.84-4.88-1.79-9.72-4.76-13.89a19.86,19.86,0,0,0-5.82-5c-.34-.21-.84-.23-.92-1,5.55.64,10.67,1.95,15.1,5.42m-15-2.77a18.45,18.45,0,0,1,9,13.25c.21,1.27.75,2.49.89,3.82s-.37,1.51-1.51,1.52c-5.21,0-10.41-.18-15.62.16-10,.64-19.95.93-29.94,1.2-3.47.09-6.92.3-10.37.69-1.52.17-1.81-.38-1.78-1.82.06-3.26-.11-6.53-.19-9.79H312c.06-2.53.14-5,.16-7.58a1.47,1.47,0,0,1,1.54-1.71c6.27-.63,12.56-1.08,18.86-1.41,6.91-.36,13.83-.65,20.74-.94a14.65,14.65,0,0,1,8.39,2.61m25.24-66.93a99.7,99.7,0,0,1-5.19,9.18q-2.68,4.37-5.51,8.63-4,6.07-8.16,12.09a3.77,3.77,0,0,1-3.22,1.77c-4.46.24-8.91.73-13.38.71-8.09,0-16.19.29-24.29-.23-7.82-.51-15.68-.33-23.51-.74-9.58-.5-19.15-.32-28.71.06-8.57.33-17.15.88-25.7.63-8.2-.24-16.41.18-24.62-.41a115.63,115.63,0,0,0-12.62.17c-1.28,0-2.58-.36-3.87.18-.44.18-.84-.35-1.21-.63a66.14,66.14,0,0,1-11.24-11.44c-1.78-2.21-3.72-4.29-5.49-6.51-3-3.82-6-7.72-9-11.56a8.32,8.32,0,0,0-3.33-3,32.38,32.38,0,0,1,8.58-1.57c8.19-.7,16.4-.51,24.61-.42,11,.12,22,.23,33,.19,9.64,0,19.23.81,28.84,1.16,11.68.42,23.35,1.06,35,1.52,10.21.39,20.42.17,30.62.42,12.36.29,24.73.55,37.09-.08,3.51-.18,7-.65,10.5-1.09,1.07-.13,1.27,0,.82,1m20.22-21.93c0-3.08-.86-6-1.14-9.06-.15-1.6.32-1.87,1.73-1.8,2.58.15,5.15.14,7.73.2,2.3.07,4.61-.24,6.92.14,1.38.23,1.65.86,1.58,2-.31,4.93-.81,9.86-.86,14.8,0,4.67-1.31,9.15-1.56,13.77,0,.65-.24,1.09-1,1.12a81.39,81.39,0,0,0-10.34,1.17c-1.07.18-1.36-.1-1.35-1.18A77.53,77.53,0,0,0,407.72,484a88.16,88.16,0,0,1-.61-10.53m23.29,26.36a12.15,12.15,0,0,1,4.67,9.58c0,.84,0,1.68.05,2.53.1,3.69-.6,7.1-3.31,9.86a9,9,0,0,1-3.59,2.2c-4,1.35-8.18,1.31-12.34,1-1.47-.11-2.93-.28-4.39-.44a3.64,3.64,0,0,1-3.48-3.39,88.8,88.8,0,0,1-.11-14c.19-2.83,1-5.59.82-8.46-.06-1.23,1.3-1.13,2.06-1.17,2.89-.16,5.71-.94,8.59-1.05a15.93,15.93,0,0,1,11,3.39m-25-83c.21,0,.42,0,.63,0,6.57.44,13.05,1.55,19.57,2.41a1.76,1.76,0,0,1,1.66,2.2c-.66,7.39-.51,14.84-1.62,22.2a24.64,24.64,0,0,0-.11,3.94c.07,4.14-1,8.12-1.66,12.15-.18,1.05-.61,1.56-1.89,1.44-4.88-.43-9.77-.09-14.66-.05-1.58,0-2.08-.62-2.11-2-.08-4.67-.17-9.34-.21-14a43.7,43.7,0,0,0-.65-8,40.15,40.15,0,0,1-.41-8c0-3.49-.47-6.92-.65-10.38-.11-2.24-.1-2.24,2.11-2m-16.19-15.17c.15.07.35.09.42.19,2,3.05,4.87,5.38,7.07,8.26,1.53,2,3.57,3.63,4.55,6,1.59,3.88,1.44,8,1.5,12.09,0,1.58,0,3.15,0,4.73-.42-.6-1.67-.54-2.3-.51a66,66,0,0,1-10.7-.21c-.91-.12-1.09-.38-1.07-1.26.08-3.05,0-6.1.06-9.15,0-6.1.69-12.2.2-18.31a2.42,2.42,0,0,1,.26-1.84m-30.48-1.76c5.56.28,11.12.61,16.69.91,3.77.21,7.53.71,11.32.63,1,0,1,.67,1.1,1.37a92.81,92.81,0,0,1-.14,14.05c0,.69,0,1.37,0,2.05h.07c-.09,4.1-.06,8.22-.3,12.31-.79,13.39.08,26.77.26,40.15.09,6.46.12,13,.66,19.4a2,2,0,0,1-1.84,2.43c-6.71,1.24-13.5,1.08-20.28,1.35-11.54.46-23.05-.4-34.57-.3q-15.17.12-30.3-.64c-15.08-.75-30.16-1.45-45.23-2.23-6.32-.32-12.63-.17-19-.29q-11.52-.21-23-.2c-7.31,0-14.62-.25-21.92,0a72.55,72.55,0,0,0-12.54,1.2c-1.34.28-1.85-.14-1.89-1.45-.11-3.52-.22-7.05-.38-10.57-.44-9.73-1-19.45-1.31-29.19-.19-6.19-.32-12.4-.23-18.61.06-4,0-8-.09-12s.05-8.11.1-12.16a31.79,31.79,0,0,0-.21-4.57c-.24-1.88,0-2.14,2-2.27s4.08-.25,6.12-.42q6.51-.54,13-1.13c5.82-.53,11.65-.75,17.49-.81,3.41,0,6.82-.54,10.24-.18a1.06,1.06,0,0,0,.47,0c5.2-2.07,10.67-.95,16-1.32,8.4-.57,16.83-.07,25.25-.19,7.42-.11,14.83-.68,22.25-.42,8.51.31,17,.71,25.54,1,3.47.13,6.94.09,10.41.24,2.24.09,4.49.38,6.71.5,2,.11,4,.46,6.08.39,7.17-.25,14.29.59,21.43.94M346.3,377a61.17,61.17,0,0,1-6.07,8.42c-1.83,2.3-3.71,4.55-5.59,6.81-1.14,1.37-2.34,2.69-3.47,4.08a1.81,1.81,0,0,1-1.7.55c-3.84-.1-7.68-.18-11.52-.26-10-.49-20.08-.84-30.12-1-12.51-.18-25-.32-37.57.12-5.51.19-11,.62-16.55.53a3.14,3.14,0,0,1-2.36-1,142.57,142.57,0,0,1-12.51-14.17c-1.54-1.94-3.05-3.9-4.56-5.85-.22-.29-.51-.58-.24-1s.53-.28.85-.26c5.62.31,11.24.37,16.86.36,6.94,0,13.87.53,20.81.6,7.47.07,14.94-.17,22.41-.2q15.28,0,30.59.11c8.67.07,17.32,1.09,26,.65,4.69-.24,9.35,0,14,.11,1.21,0,1.21.45.73,1.31m-98.49-4.68c.08,1.19-.35,1.43-1.43,1.39-3.25-.12-6.51-.16-9.77-.23v-.06c-3.1-.07-6.2-.21-9.29-.17-1.33,0-1.69-.52-1.85-1.7-.36-2.58.19-5.13.21-7.7,0-1.58.24-3.15.28-4.72,0-1,.42-1.32,1.44-1.37,6.35-.29,12.71-.12,19.07-.27,1.37,0,1.6.44,1.58,1.74,0,4.37-.55,8.73-.25,13.09M249.48,358c0-.71.52-.69,1-.68,7,.06,14.08-.46,21.12-.22,2.31.08,4.63.07,6.94,0,1.08,0,1.52.26,1.52,1.4a114.74,114.74,0,0,0,.37,14c.13,1.11-.67.86-1.23.88-4.89.13-9.77.23-14.66.34-.42,0-.84,0-1.26,0-4.15.3-8.3,0-12.44,0-.9,0-1.41-.23-1.48-1.17-.31-4.84.14-9.68.13-14.51m46.22-1.3c4.21.1,8.41.22,12.61.26,1,0,1.4.29,1.26,1.38q-.88,7.05-1.12,14.15c0,1.17-.65,1.24-1.54,1.22-5.83-.09-11.67-.18-17.51-.24-1.83,0-3.68-.06-5.51.08-1.33.09-1.76-.46-1.85-1.66a104.29,104.29,0,0,1-.47-11.18c0-.52.05-1.05,0-1.57-.08-2.13-.09-2.13,2.11-2.08l12,.26Zm14.59,8.68h.43c0-2.37.14-4.74.14-7.1,0-1.06.44-1.33,1.43-1.32,3.42.06,6.84.08,10.25,0s6.94-.15,10.4-.34c1,0,1.17.24,1.12,1.12-.17,3-.77,5.94-.62,9,.11,2.2,0,4.41.14,6.61.07,1.17-.64,1-1.3,1-5.63.23-11.24-.18-16.86-.43-1.32-.06-2.63-.22-3.94-.2-1.06,0-1.4-.41-1.36-1.41.08-2.31.12-4.63.17-6.94m16.48-76.22c5.62,0,11.26-.49,16.88.09a16.81,16.81,0,0,0,3.47-.1c1.05-.12,1.39.34,1.51,1.29a69.25,69.25,0,0,1,.28,15.43c-.4,3.73-.16,7.46-.31,11.19-.4,9.83-.29,19.68-.54,29.51-.22,8.63-.69,17.24-1,25.87-.05,1.18-.43,1.7-1.67,1.7-2.9,0-5.79.06-8.69.15-1,0-1.43-.29-1.43-1.34,0-3.79-.08-7.58-.14-11.37,0-1.54.55-3,.41-4.55-.05-.62.43-.77.89-.93s.81-.53.55-1.09-.58-.51-1.06-.37c-7.13,2.11-14.43.93-21.65,1-12.46.18-24.92.1-37.38.12-6.73,0-13.47-.15-20.19.06s-13.68.17-20.51.27c-3.05.05-6.1.08-9.14.29-.8,0-1.5-1.16-2.4,0-.73.92-.08,1.71-.13,2.55-.26,4.36-.86,8.71-.68,13.09,0,.86-.36,1.11-1.12,1.13a61.09,61.09,0,0,1-7.41-.12c-1.29-.12-1.73-.53-1.67-1.81.18-4,.39-8,.38-12,0-4.84-.22-9.68-.37-14.52q-.26-8.37-.56-16.73c-.13-3.63-.3-7.26-.44-10.89-.33-8.63-.91-17.24-1-25.88a3.63,3.63,0,0,0-.39-2.15c12.46-1.38,24.66-.7,36.87-.4q12.54.31,25.09.06c7.35-.16,14.73,0,22.09,0,10.48,0,20.94.44,31.41.4m-42.26-16.91c3.4-.41,6.81-.4,10.22-.55,1.68-.07,2.07.29,1.9,2-.28,2.83-.57,5.65-.58,8.49,0,1.37,0,2.74.05,4.1,0,.75-.22,1-1,1-1.73-.1-3.46-.09-5.19-.13-9.29.34-18.58.29-27.87.39-2.25,0-2.42-.17-2.5-2.37a45.83,45.83,0,0,1,.18-8c.12-.9.31-1.27,1.31-1.53,7.71-2,15.64-2.36,23.49-3.31" transform="translate(-132.89 -235.99)"/><path class="cls-2" d="M232.74,459.09c3.56,0,7.13-.53,10.7.08.52.1,1.07.08,1.32-.56a.91.91,0,0,0-.46-1.2c-.54-.35-.51-.87-.52-1.4,0-1.05.06-2.12-.05-3.16-.14-1.22.26-1.61,1.53-1.72a243.25,243.25,0,0,1,26.18-.48c1.16,0,1.44.42,1.4,1.49-.07,1.74,0,3.48,0,5.21,0,.49-.17,1.18.69,1.1.61-.06,1.14-.31,1-1.11-.54-3.89,0-7.77.25-11.66,0-.63,0-1.23-.79-1.27s-.77.63-.79,1.23c-.1,3.4-.11,3.4-3.52,3.55h-.32c-6.25.28-12.52-.38-18.77.49-1.86.25-3.78.11-5.67.19-.77,0-1.16-.21-1.21-1a110.13,110.13,0,0,1,.42-18c.48-4.4,1.07-8.77,1.17-13.2,0-1.28-.36-1.67-1.74-1.66a48,48,0,0,1-11.16-.81c-.44-.1-.91-.31-1.37,0,.52.88,1.7.25,2.41,1a3,3,0,0,1-1.74.3q-5.3,0-10.59-.06a126.45,126.45,0,0,0-20.3,1.08c-.76.12-1.53.41-1.42,1.34a31.36,31.36,0,0,1-.41,8.44,72,72,0,0,0-.93,12.09q.18,8.12.28,16.24c0,.55.12.95.71,1a.91.91,0,0,0,1.11-.85,4.5,4.5,0,0,0,0-1.1c-.66-6-.42-12.09-.37-18.14,0-5,.82-10,1.2-14.95.21-2.75.21-2.82,2.91-3.31.36-.07.73-.09,1.09-.13a136.69,136.69,0,0,1,16.06-.45c5.55.06,11.1-.25,16.64.15.41,0,1,.08,1.22-.15,1-.84,2.08-.48,3.16-.52,1.4,0,1.72.49,1.65,1.9-.32,6.36-1.41,12.65-1.75,19-.32,5.95.18,11.89,0,17.83,0,1-.18,1.6-1.34,1.62-5.68.12-11.37.41-17,.39-8.31,0-16.63.29-24.94-.28-.56,0-1.33-.16-1.35.65s.76.89,1.4.88c1.37,0,2.74-.12,4.1-.1q15,.19,30,0" transform="translate(-132.89 -235.99)"/><path class="cls-2" d="M339.55,480.38a41,41,0,0,1-9.45-4.6c-4.46-2.68-8.84-3.62-13.71-1.11a73.14,73.14,0,0,1-7.45,3c-6.93,2.64-13.8,1.38-20.58-.55-3.43-1-6.55-2.81-9.92-4a19.29,19.29,0,0,0-16.44,1.3c-5.9,3.15-12,5.33-18.76,5.22-2.36,0-4.82.12-7-.9a39.72,39.72,0,0,1-7.79-4.41c-4.15-3.27-8.85-3.4-13.5-2.53-5.5,1-9.87,4.27-13.24,8.77a5.06,5.06,0,0,0-.68,1.25,1,1,0,0,0,.27,1.28c.58.34.89-.23,1.08-.61a19.17,19.17,0,0,1,5-5.67,17.28,17.28,0,0,1,9.35-4.16,17,17,0,0,1,11.87,3.16c4,2.7,8,5.11,13.29,5.13a36.37,36.37,0,0,0,18.63-4.51c6.56-3.75,13-4.23,19.88-1.07,4.14,1.92,8.29,3.81,12.91,4.46,5.05.72,10.06,1.23,15-.6,3.4-1.26,6.75-2.66,10.12-4a8.26,8.26,0,0,1,6.73-.12,41.15,41.15,0,0,1,6.81,3.63,14,14,0,0,0,4.48,2.28c2.83.72,5.66,2.08,8.63,1.05,3.37-1.15,6.67-2.46,9.34-5.07a12,12,0,0,1,7.34-3.31c2.79-.3,5.42.6,8.13.87.85.09,1.74.39,2.68-.36-1.49-.85-3-.78-4.5-1.08-2.35-.5-4.7-1.19-7.17-.89-3.59.44-6.11,2.66-8.82,4.82-3.57,2.84-7.45,4.89-12.49,3.41" transform="translate(-132.89 -235.99)"/><path class="cls-2" d="M307.05,434c-7.05.1-14.07-.65-21.11-.61-.74,0-1.48.14-2.21.1-12.73-.82-25.47.43-38.2,0-.49,0-.87.09-.93.61s.41.69.83.71c1.32,0,2.63.06,3.95,0,8-.11,16-.45,24-.32,16.36.25,32.72.76,49.08,1.13,5.63.13,11.26-.4,16.89-.17,5.47.22,10.94-.49,16.42-.2.69,0,1.34-.15,1.35-1s-.7-.58-1.19-.55c-10.34.54-20.69.25-31,.58-5.92.19-11.87-.4-17.81-.32" transform="translate(-132.89 -235.99)"/><path class="cls-2" d="M318.82,458.48c.66,0,1.43-.24,1.34-1.18a46.17,46.17,0,0,1,.36-9.9c.09-.69-.23-1.33-1-1.35s-.82.68-.84,1.27c0,1.73-.32,3.46-.19,4.61-.05,2.16-.09,3.74-.12,5.31,0,.47-.38,1.2.43,1.24" transform="translate(-132.89 -235.99)"/><path class="cls-2" d="M310.57,458c.85-.27.82-.95.83-1.51a50.18,50.18,0,0,1,.84-9.07c.13-.65-.05-1.18-.75-1.31s-.85.43-.92,1c-.41,3.34-.83,6.68-1.23,10-.11,1,.3,1.18,1.23.89" transform="translate(-132.89 -235.99)"/><path class="cls-2" d="M304.86,446c-.72-.07-.71.58-.83,1.1a71.38,71.38,0,0,0-.87,8.47c0,.58,0,1.31,0,2s.59.64,1.09.74c.69.13.69-.28.69-.72,0-3.47-.12-6.94.82-10.35a1,1,0,0,0-.86-1.29" transform="translate(-132.89 -235.99)"/><path class="cls-2" d="M295.84,445c-.73-.11-.74.62-.85,1.09-.5,2.22-.49,4.49-.82,7.22,0,.88-.06,2.24-.08,3.61,0,.53-.08,1.08.79,1,.62-.07,1.06-.24,1-.93-.48-3.58.24-7.12.45-10.68,0-.49.31-1.17-.45-1.28" transform="translate(-132.89 -235.99)"/><path class="cls-2" d="M327.89,456.49a43.42,43.42,0,0,1,1.86-9.7c.17-.53.1-1-.45-1.17s-1,.1-1.14.69c-.93,3.36-1.33,6.81-2,10.11,0,.55-.06,1,.55,1s1.05-.1,1.13-.94" transform="translate(-132.89 -235.99)"/><path class="cls-2" d="M284.93,457.07c.47-.06,1.58.34,1.45-1a58.37,58.37,0,0,1,.16-8.15,16.86,16.86,0,0,0,0-1.88c0-.51-.3-.92-.89-.91s-.62.56-.63,1c0,1.36-.06,2.73-.09,4.09a43.54,43.54,0,0,1-.33,5.81c-.06.37-.47,1.12.32,1" transform="translate(-132.89 -235.99)"/><path class="cls-2" d="M304.29,349.22c1.53.68,3.17.7,4.72,1.15a19,19,0,0,0,8.87.26c4.91-.95,8.14-4.44,11.18-8.2,3.33-4.12,3.66-8.81,2.62-13.59a42.72,42.72,0,0,0-4.52-11.41,15.64,15.64,0,0,0-6.51-6.65c-4.37-2.28-8.93-2-13.54-1.1-.43.08-1.12,0-1.23.53-.15.77.94.23,1.12,1-.89.65-1.77,1.31-2.67,1.94a22.69,22.69,0,0,0-8.61,10.63c-2.1,5.53-1.45,11,.67,16.48,1.56,4,3.88,7.16,7.9,8.94m-7.18-24.61a16.45,16.45,0,0,1,3.23-5.36A31.92,31.92,0,0,1,309,312c6-3.52,13.18.34,16.06,4.82a41.66,41.66,0,0,1,4.85,10.92c1.79,6.1.72,11.62-4.07,16.19-2.4,2.29-4.9,4.27-8.16,5.15a14.61,14.61,0,0,1-3.35.19,34.13,34.13,0,0,1-7.72-1.09,10.71,10.71,0,0,1-7-5.2c-3.34-5.76-4.44-11.91-2.44-18.36" transform="translate(-132.89 -235.99)"/><path class="cls-2" d="M265.46,326.71c-1.36-5.21-4.43-9.49-7.44-13.8a3.67,3.67,0,0,0-1.78-1.27,21.9,21.9,0,0,0-10-1.59c-.46.05-1.08.05-1.34.33-1.43,1.53-3.46,1.93-5.19,2.86-6,3.2-8.84,8.44-9.83,14.89-.73,4.79,1.08,9.12,2.63,13.47a13.74,13.74,0,0,0,3.57,5.33c2.11,2,4.8,2.71,7.5,3.45a17.34,17.34,0,0,0,9.62-.33,19.26,19.26,0,0,0,9.47-7A15.06,15.06,0,0,0,266.19,333a27.38,27.38,0,0,0-.73-6.25m-6.55,17.9a18,18,0,0,1-11.7,4.52c-6.07-.31-11.14-2.52-13.24-8.73-1.34-3.95-3-7.82-2.33-12.11,1.05-6.84,4.54-11.82,11.07-14.61,3.8-1.63,7.54-2.51,11.6-1.14a6.08,6.08,0,0,1,3.3,2.29c2.24,3.38,4.78,6.66,6,10.55,2.23,7.23,1.62,13.88-4.67,19.23" transform="translate(-132.89 -235.99)"/></svg>