<svg id="Layer_1" data-name="Layer 1" xmlns="http://www.w3.org/2000/svg" viewBox="0 0 260.55 372.37"><defs><style>.cls-1{fill:#fff;}.cls-2{fill:#010101;}</style></defs><path class="cls-1" d="M312.28,273.7a8.58,8.58,0,0,0,2-5.1,8.27,8.27,0,0,0-.91-4,2.57,2.57,0,0,0-3.6-1c-2.55,1.72-3.38,7.35-1.43,9.75,1,1.23,3.13,1.51,3.94.31" transform="translate(-166.07 -223.58)"/><path class="cls-1" d="M250.43,311.46c.57-1.28.88-2.84,2.24-3.43,2.35-1,4.63-2.24,7.25-2.64a190.87,190.87,0,0,1,40-1.82c6.37.36,12.63,1.47,18.94,2.17a27.94,27.94,0,0,1,8.55,2.67,3.67,3.67,0,0,1,2.12,1.88c.77,2.07,2.38,3.55,3.6,5.47,2.67-2.27,3.68-4.56,2.84-8.22-1.63-7.05-1.5-14.35-3.35-21.35-.47-1.77-.75-3.58-1.17-5.35-.82-3.48-.39-7.07-1.09-10.58a73.44,73.44,0,0,1-1.57-12.15c-.15-4.37-.31-8.84-1.77-13.07-.76-2.22-1.52-4.5-3.16-6.22-3.34-3.47-7.81-4.93-12.3-5.87-8.2-1.72-16.41-2.95-24.94-2.34a62.23,62.23,0,0,0-15.78,2.91c-6.13,2.09-10.88,5.79-12.64,12.52-.38,1.47-.39,3-.76,4.39-1.3,5-2.71,10-3.61,15.06-1.31,7.42-3,14.77-4.06,22.24a101.26,101.26,0,0,1-2.37,12.69c-.53,2-.61,4.05-1,6.06a6.57,6.57,0,0,0,1.44,5.14c1.25,1.72,1.74,1.73,2.58-.16m68.11-45.09c.34-.94,1.36-1,2.22-1,2.4,0,3.6,1.59,4.5,3.54a6.74,6.74,0,0,1,.5,3.47c-.11,1.85-.39,3.68-2,4.85a4.29,4.29,0,0,1-6.78-3.12c-.4-2.75.71-5.26,1.6-7.77m-10.88-3.21c2.82-2.88,6.8-2,8.07,1.86a26.51,26.51,0,0,1,.69,3.8c.08,2-1.16,3.5-2,5.07s-2.43,2.8-4.52,2.34-3.91-1.44-4.34-3.43c-.74-3.42-.57-6.86,2.14-9.64m-56.53,40.58a14,14,0,0,1,2-1.06c7.89-3.2,15.92-6,24.45-6.71,3.62-.31,7.32.19,11,.32,11.48,0,22.68,2,33.8,4.64a20.06,20.06,0,0,1,3.91,1.46c.66.31.66,1.09.29,1.7s-.87.47-1.39.16c-4.28-2.54-9.08-3.25-13.87-3.86-7.58-1-15.11-2.37-22.79-2.39-4.83,0-9.69-.34-14.5.32a35.12,35.12,0,0,0-7.24,1.49c-4.65,1.7-9.56,2.62-14,4.79a6.9,6.9,0,0,1-.89.36c-.44.14-.85.13-1-.4a.68.68,0,0,1,.34-.82" transform="translate(-166.07 -223.58)"/><path class="cls-1" d="M321.18,276a2.08,2.08,0,0,0,2.29-1.82c.12-.63.18-1.28.23-1.6.08-1.85.14-3.39-1.12-4.53-.7-.63-1.64-1-2.19,0a8.7,8.7,0,0,0-1.21,6.2,1.93,1.93,0,0,0,2,1.74" transform="translate(-166.07 -223.58)"/><path class="cls-1" d="M377.75,359.39c2,2,1.05,4.47,1.5,7.48,14.13-11.48,25.54-24.25,30.92-41.56a25.25,25.25,0,0,0-3.86,2.38c-4.59,3.2-9.27,6.25-14.15,9-5.8,3.28-12,5.75-18,8.72a122.89,122.89,0,0,1-13.51,5.24c-.9.33-1.86.48-2.24,1.71,3.34.6,6.62,1.14,9.87,1.78a18,18,0,0,1,9.43,5.25" transform="translate(-166.07 -223.58)"/><path class="cls-1" d="M263.28,327.57c1.23.37,2.58-.41,3.3-1.91a6.72,6.72,0,0,0-1.15-6.9c-.81-.8-1.56-1-2.35.15a11.26,11.26,0,0,0-1.85,5.39,3.19,3.19,0,0,0,2,3.27" transform="translate(-166.07 -223.58)"/><path class="cls-1" d="M254.68,327.44c1.33-.94,1.27-2.4,1.45-3.92,0-.3,0-.73,0-1.16-.05-.89-.18-1.76-1.22-2a1.84,1.84,0,0,0-2.11,1.13,6.42,6.42,0,0,0-1,4.93,1.7,1.7,0,0,0,2.89,1.06" transform="translate(-166.07 -223.58)"/><path class="cls-1" d="M231.9,349.62c-.09,1.67.44,2.05,2,1.81a103.37,103.37,0,0,1,10.92-1.24c7.86-.27,15.73-.3,23.56-1.06,5.7-.54,11.43.14,17.12-.53,3.43-.4,6.87-.41,10.32-.51,8.75-.27,17.45.57,26.17.94,6.13.26,12.26.41,18.36,1.23,3.73.5,7.45,1,11.22,1.23,1.61.09,2.17-.52,2.19-2,0-2.8,0-5.61.22-8.4.12-1.54-.51-1.86-1.77-1.95-2.9-.2-5.8-.47-8.7-.67-11.61-.79-23.19-2.07-35.91-2.18-9.61-.49-20.27.28-30.94.36-10.88.07-21.75.7-32.61,1.38-2.9.18-5.8.44-8.68.79-3.5.43-3.61.64-3.54,4,0,2.26.17,4.53,0,6.78" transform="translate(-166.07 -223.58)"/><path class="cls-1" d="M246.9,336.32c3.45-.17,6.89-.38,10.34-.5,6.89-.24,13.8-.24,20.68-.68a299.5,299.5,0,0,1,33.74-.61c6.46,0,13.33.66,20.21,1.13,5,.34,5,.23,4.59-4.92-.21-2.46-.26-5-1.51-7.2-1.89-3.36-3.68-6.78-5.71-10.05-1.56-2.51-3.56-4.61-6.85-4.86-1.38-.11-2.75-.48-4.13-.73-5.83-1-11.61-2.27-17.53-2.82-9.5-.88-19-.37-28.42.27-6.1.42-12.19,1.32-17.66,4.45a4.65,4.65,0,0,0-2.15,1.84c-1.94,4-4,7.88-5.79,11.9a24.3,24.3,0,0,0-2.29,10.33c0,2.51,0,2.57,2.48,2.45m12.34-12.56a9,9,0,0,1,1.5-5.18c2-2.73,3-3,5.8-1.1,2.62,1.76,3.43,7.15,1.44,9.62a5,5,0,0,1-6,1.78c-2.41-.93-2.89-1.84-2.72-5.12M253,318.28c.34-.45,1-.23,1.52-.12,2.43.5,3.81,2.58,3.71,5.39-.14,2.22-.58,4-2.42,5.24a3.94,3.94,0,0,1-6.3-2.82c-.38-3.23,1.77-5.38,3.49-7.69" transform="translate(-166.07 -223.58)"/><path class="cls-1" d="M350.77,460.4c-11.1-.45-22.2-.55-33.31-.63-6.25,0-12.49-.49-18.74-.76-6-.27-12.07-.19-19.07-.48-13.92-.34-28.74-2-43.63-2.2-1,0-1.94-.06-2.91-.08s-1.46.28-1.48,1.27c-.1,7.3-.77,14.6.77,21.86.63,3,1.84,5.73,2.59,8.65A151.46,151.46,0,0,0,240,503c1.61,4.34,3.33,8.64,5,13s3,8.5,4.65,12.7c1,2.68,1.36,2.93,4.36,2.73,5-.33,9.92,0,14.88-.14,3.55-.11,7.1-.44,10.65-.59,1.64-.07,2.23-.74,2.19-2.4-.29-10.78-.42-21.57-.78-32.35-.24-7.1-.45-14.22-1.12-21.3A4.78,4.78,0,0,1,280,473a1,1,0,0,1,.93-.76c.52,0,.76.31.83.77a4.52,4.52,0,0,1,.06,1c-.06,1.66.79,1.81,2.25,1.72,4.51-.26,9-.64,13.56-.54,2.37.06,4.75-.07,7.12,0,1.22,0,2.11-.16,2.09-1.68,0-.68.37-1.37,1.14-1.28s.82.81.82,1.51c0,3.75.3,7.47.13,11.25-.54,11.54,1.09,23.05,1.1,34.6,0,3,.49,6,.61,9,.06,1.78.48,2.67,2.54,2.83s3.86.2,5.78.37a170.8,170.8,0,0,0,20.36.65c3.49-.13,3.37-.26,4.6-3.71a156.43,156.43,0,0,0,5.5-20.93c1.14-5.48,3-10.8,3.63-16.4,1.1-9,2.1-18,1.69-27.09-.17-3.77-.26-3.73-4-3.88" transform="translate(-166.07 -223.58)"/><path class="cls-1" d="M393.7,386.85c-.11,1.47.34,2.06,2,2.11,4.54.12,9-.32,13.57-.38a4.79,4.79,0,0,0,2.48-.58c3.36-2.29,6-5.38,8.9-8.27a119.52,119.52,0,0,0-16.81-.11c-2.58.12-5.16.24-7.73.42-1.36.1-2.46.41-2.24,2.29a24.49,24.49,0,0,1-.14,4.52" transform="translate(-166.07 -223.58)"/><path class="cls-1" d="M382.48,370.24c-.65.05-1.3,0-1.94,0a1.43,1.43,0,0,0-1.66,1.52,15.82,15.82,0,0,0-.08,1.94c.51,6.68-.11,13.35-.18,20,0,1.07,0,2.15,0,3.23s.57,1.51,1.54,1.73c5.14,1.17,10.95-2.7,11.74-7.93a33.1,33.1,0,0,0,.17-4,27.49,27.49,0,0,0-.37-9.83c-1.41-6-3-7.2-9.2-6.73" transform="translate(-166.07 -223.58)"/><path class="cls-1" d="M325.33,561.28c1.07,0,2.15-.24,3.22-.26,1.27,0,1.69-.73,1.67-1.86,0-.54,0-1.08,0-1.62a172.48,172.48,0,0,1-.46-19.69c0-3.72,0-3.72-3.55-4.07-4.35-.44-4.34-.43-4.35,3.88,0,2.81,0,5.61-.19,8.41-.07,1.6-.08,3.31-1.15,4.62a2.84,2.84,0,0,0-.12,3.82,4.9,4.9,0,0,1,.9,3c0,3.88.06,3.89,4.05,3.76m-.89-11.81a7.91,7.91,0,0,1,.94.89,3.06,3.06,0,0,1,0,3.36.74.74,0,0,1-.76.44c-.42,0-.53-.34-.55-.65-.07-1.07-.12-2.14-.11-3.2,0-.27.29-.54.46-.84" transform="translate(-166.07 -223.58)"/><path class="cls-1" d="M265.83,564.68c-.51-.57-1.19-.32-1.79-.32-8.5,0-17,.44-25.44,1.28-3.75.38-6.59,1-8.35,4.77-1.65,3.58-4.6,6.42-6.73,9.79-1.94,3.08-3.27,6.5-5.8,9.69,8.08-1,43.73-19.79,48.11-25.21" transform="translate(-166.07 -223.58)"/><path class="cls-1" d="M246.38,579.07c-7.8,4.3-15.9,8-23.74,12.2a6.88,6.88,0,0,0,2.33.1c8.58-.79,17.14-1.61,25.72-2.35,5.57-.48,11.16-.81,16.74-1.24,2.24-.17,2.26-.2,2.36-2.46.3-6.76.62-13.53-.19-20.74-7.75,5.31-15.32,10.15-23.22,14.49" transform="translate(-166.07 -223.58)"/><path class="cls-1" d="M295.13,430.73a2.52,2.52,0,0,0,1.79,2.56c2,1,4.22.66,6.31,1a115.56,115.56,0,0,0,18,1.6q15.66.48,31.33,1.06c2.21.08,3.13-.58,2.84-2.72-.5-3.78,0-7.54,0-11.3.22-9.82.56-19.62.53-29.45,0-6.68-.69-13.36-.1-20,.56-6.25.39-6.2-6.07-6s-13.13.3-19.69.18c-9.27-.17-18.54-.58-27.81-.86-3.86-.12-3.88-.09-4.14,3.88q-.68,10.32-1.82,20.6c-.65,6-.53,12.06-.75,18.09.15,7.11-.79,14.22-.46,21.35" transform="translate(-166.07 -223.58)"/><path class="cls-1" d="M323.44,563.29c4.16,6.89,35.13,23.82,48.27,26.35a7.84,7.84,0,0,0-1.53-3.39c-3.26-4.79-6.43-9.62-9.65-14.43-1.74-2.59-3.55-5.13-5.27-7.73a4,4,0,0,0-3.51-1.76c-9.06-.55-18.07.44-27.11.57a4.65,4.65,0,0,0-1.2.39" transform="translate(-166.07 -223.58)"/><path class="cls-1" d="M321,567.27c.24,7.21.5,14.41.29,21.62,0,1.64.67,1.78,1.9,1.72,4.09-.22,8.18-.24,12.26-.31,10.22-.19,20.44,0,30.67.11.09-.2.18-.4.28-.59-16.14-6.24-31.69-13.54-44.81-25a2.69,2.69,0,0,0-.59,2.46" transform="translate(-166.07 -223.58)"/><path class="cls-1" d="M271.27,546.27c.21-3.65.24-7.31.26-11,0-2.57,0-2.61-2.78-2.55-1.72,0-3.43.22-5.15.36-2.2.17-2.28.19-2.26,2.52,0,4,.15,8,.23,11.94h.27c-.13,3.54-.28,7.09-.38,10.64-.13,4.59-.11,4.58,4.32,4.36,1-.05,1.94,0,2.91,0,.68,0,1.3-.13,1.41-1a17.59,17.59,0,0,1,2.31-6,2.67,2.67,0,0,0-.17-2.76c-1.17-2.09-1.1-4.29-1-6.58m-3.13,9.61c.06.6,0,1.07-.7,1.21a1.13,1.13,0,0,1-1.46-.88,3.68,3.68,0,0,1-.07-.8c.09-.69.13-1.22.25-1.75.19-.87.56-1.9,1.55-1.71,1.33.25.38,1.3.37,2a15.08,15.08,0,0,0,.06,1.9" transform="translate(-166.07 -223.58)"/><path class="cls-1" d="M179.71,391.11a2.91,2.91,0,0,0,2.58,1c3.33-.23,6.66-.32,10-.62,2.72-.25,2.68-.35,2.76-3.28,0-1.5.24-3,.32-4.51.12-2.25.09-2.24-2.27-2.39-5.28-.32-10.51.52-15.77.63a14.23,14.23,0,0,0-5.35.87,91.8,91.8,0,0,1,7.75,8.27" transform="translate(-166.07 -223.58)"/><path class="cls-1" d="M179.35,486.61a16.8,16.8,0,0,0,1.11,7.62c1.8-3.08,2.22-6.35,1.95-10.26-1.58.91-2.91,1.33-3.06,2.64" transform="translate(-166.07 -223.58)"/><path class="cls-1" d="M199.68,400.3c2.47,1.76,5.21,1.89,8,1.87,2.51,0,2.45-.05,2.59-2.48.31-5.8-.71-11.6,0-17.3-.06-1.82-.16-3.54-.17-5.26,0-1.9,1-4.34-.39-5.52s-3.72-.08-5.63.07c-3.34.28-5.43,2-6,5.34a94.07,94.07,0,0,0-.91,19.34,4.91,4.91,0,0,0,2.41,3.94" transform="translate(-166.07 -223.58)"/><path class="cls-1" d="M169.14,485.23c-.32,3,.67,5.69,1.25,8.46l.64-.05c.27-1.46.54-2.92.79-4.39.5-2.84.49-2.84-2.68-4" transform="translate(-166.07 -223.58)"/><path class="cls-1" d="M176.53,470.19c-5.22-1.49-8.21.67-8.37,6a12.16,12.16,0,0,0,.5,3.83,6.89,6.89,0,0,0,9.1,4.47c3.37-1.21,4.29-4,4.87-7,.53-2.75-.73-4.84-3.08-6.2a13.16,13.16,0,0,0-3-1.11" transform="translate(-166.07 -223.58)"/><path class="cls-1" d="M169.53,458.72a47.39,47.39,0,0,0,.37,10.12,12.78,12.78,0,0,1,8,0c1.76.55,2,.29,2.12-1.61.15-4.1.34-8.19.31-12.29-.08-12.72-.41-25.43-.35-38.15,0-7.44-1-14.86-.34-22.29a2.17,2.17,0,0,0-.89-1.93c-2.59-2.41-4.71-5.28-8.2-8.17-.14,4,0,7.36-.42,10.64-1.34,11.5-1.08,23-.69,34.56.34,9.7.52,19.39.07,29.08" transform="translate(-166.07 -223.58)"/><path class="cls-1" d="M246.59,414.21c1.28-.43.7-1.51.9-3-1.28,1-2.28,1.44-2,2.72.08.39.72.45,1.11.33" transform="translate(-166.07 -223.58)"/><path class="cls-1" d="M250.18,417.82a2.68,2.68,0,0,0,2-2.69c-.11-1.52-.7-2.66-2.34-3-.87,1-.14,2.2-.48,3.15-.55,1.51-2.14.36-3.42,1.25a3.22,3.22,0,0,0,4.28,1.27" transform="translate(-166.07 -223.58)"/><path class="cls-1" d="M288.47,402a5.83,5.83,0,0,0,4.69.56c1.46-.37.76-2,1-3.06a9.55,9.55,0,0,0,.07-1.61h0c0-1.08.08-2.16.11-3.23a1.21,1.21,0,0,0-.78-1.26c-2.11-.94-5.75.21-6.89,2.22-1,1.69-.08,5.17,1.76,6.38" transform="translate(-166.07 -223.58)"/><path class="cls-1" d="M287.36,413a11.69,11.69,0,0,0,3,1.17c2.47.55,3,.13,3.12-2.42,0-.75.06-1.5.08-2.26h.06c0-.32,0-.64,0-1,.21-4.09-.38-4.58-4.47-3.58a7,7,0,0,0-2.08.83,4.24,4.24,0,0,0,.25,7.23" transform="translate(-166.07 -223.58)"/><path class="cls-1" d="M291.35,391.19c2.55.7,3.22.24,3.51-2.42.08-.75.06-1.51.09-2.26h.15c0-.86,0-1.73.1-2.58.17-1.53-.53-2-2-2.18-2-.2-3.18,1.12-4.49,2.17-2.17,1.74-2.26,3-.51,5.13a6.21,6.21,0,0,0,3.16,2.13" transform="translate(-166.07 -223.58)"/><path class="cls-1" d="M238.28,430c6.79,4.54,14.2,3.28,21.21,0,3.86-1.82,6.62-4.88,9-8.52a13,13,0,0,0,2-10.1,20,20,0,0,0-4.59-9.11c-4.38-5.16-10.47-6.77-16.76-7.77-2.88-.55-5.12.55-7.15,2.34a6.34,6.34,0,0,1-.81.54c-6.37,4.35-10.24,10.07-10.81,18-.48,6.73,3,11.34,7.87,14.62m1.21-15c2-.22,3.78-.51,4.49-2.83a3.06,3.06,0,0,1,1.84-2.14c2-.54,1.92-2,1.81-3.53-.09-1.28-.35-2.56-.36-3.84,0-.77-.33-2,.87-2.08s1.08,1.1,1,1.93a43.14,43.14,0,0,0,.28,4.82,3.54,3.54,0,0,0,1.75,3.22,5.25,5.25,0,0,1,1,.83c1.53,1.57,2.35,3.38,1.57,5.56-.68,1.9-2.79,3-5.43,2.87a3.87,3.87,0,0,1-3.56-1.6c-1.23-2-3-2.12-5-2-1.06.08-3,.91-3.07-.42-.13-1.51,1.81-.71,2.81-.82" transform="translate(-166.07 -223.58)"/><path class="cls-1" d="M213.33,361c-1,2.6-.81,5.21-.85,7.89-.13,7.65-.51,15.29-.79,22.94a43.12,43.12,0,0,1,.29,8.41c0,8.2.08,16.39.18,24.59.05,3.77,0,7.56.36,11.3.34,3.32,0,6.68.71,10a7,7,0,0,0,3.66,5,11.27,11.27,0,0,0,6.29,1c8.06-.42,16.11,0,24.16.26,7,.2,14,.74,20.93,1,6.63.24,13.26.54,19.91.41a126.32,126.32,0,0,1,17,1.09,162.64,162.64,0,0,0,20,.7c12-.15,23.94.28,35.89.86a25.47,25.47,0,0,0,8.87-.73c3.12-.95,5.73-3.52,5.9-6.77.21-4.19.71-8.38.64-12.6-.13-9.25,1.24-18.49.16-27.75-.26-2.17.83-4.24.76-6.34-.15-4.53.38-9,.26-13.54-.19-7.87-.67-15.74-.09-23.6a6,6,0,0,0-2.76-5.81A29.94,29.94,0,0,0,364,354.69c-8.38-1.53-16.91-1.83-25.37-2.78-10.49-1.18-21.08-1.29-31.62-2-10.37-.72-20.67.52-31,.57-4,0-8,.15-11.94.28-5.07.17-10.09,1.14-15.16,1a45.05,45.05,0,0,0-8.69.61c-3,.47-6,.66-9,.95-4.47.44-9,.72-13.2,2.72a8.86,8.86,0,0,0-4.7,5m72.09,39.85c-1.73-3.54-.72-6.69,2.38-9-1.5-2.52-3.4-4.76-1.46-7.81,2.12-3.35,5.19-4.23,9.27-3.62.13-3.6.21-7,.39-10.47.22-4.16.26-4.1,4.31-4.11,12.61,0,25.23.38,37.84-.29,4.62-.25,9.27.31,13.9-.09a1.77,1.77,0,0,1,.32,0c4.69.81,6.16.23,5.17,6.42a33.58,33.58,0,0,0-.47,7.41c.43,6.68.34,13.37.79,20.05a132.8,132.8,0,0,1-.22,14.24c-.27,6.67-.45,13.34-.21,20a11.29,11.29,0,0,1,0,1.3c-.28,3-1.34,4-4.32,4s-6-.2-9.05-.33l-38.45-1.64a29.68,29.68,0,0,1-8.92-1.34c-3.26-1.19-3.54-2-3.32-5.48.25-4.08.06-8.19.08-12.28,0-1.08-.47-1.54-1.54-1.59a12.83,12.83,0,0,1-4.91-1.51c-3.73-1.76-4.84-5.93-2.18-9.07,1.38-1.65,1.58-2.81.63-4.76m-57,14.63a24.92,24.92,0,0,1,4.31-12.27,29.43,29.43,0,0,1,7.48-7.45c2.37-1.68,5-2.42,7.66-3.31a2.41,2.41,0,0,1,1.57-.15c4,1.29,8,2.3,11.8,4.25,6.94,3.59,10.45,9.47,11.37,16.93.47,3.87-1.21,7.4-3.45,10.53a23.6,23.6,0,0,1-15.66,9.88c-2.32.41-4.61,1.22-6.71.74-8.05.56-19.23-9.06-18.37-19.15" transform="translate(-166.07 -223.58)"/><path class="cls-1" d="M415.26,481.84a1.53,1.53,0,0,0-.88-.2c-.29,0-.69.12-.57.53.7,2.4.29,5.07,1.88,7.84a35.28,35.28,0,0,0,.06-6.71c-.05-.52,0-1.11-.49-1.46" transform="translate(-166.07 -223.58)"/><path class="cls-1" d="M412.58,393.82c-.13,9.71-.83,19.4-.27,29.11.48,8.5.27,17,.2,25.51,0,5.38-.13,10.76-.19,16.14,0,1.05-.31,2.18.69,3.14,2.13-.9,4.3-1.88,6.77-1.44,1.18.21,1.48-.53,1.4-1.56a41.89,41.89,0,0,1-.27-4.19c.18-12.18.31-24.37.63-36.55s.86-24.58,1.27-36.87a9.82,9.82,0,0,0-.76-5.38c-2.42,1.95-4.46,4-6.72,5.73s-2.71,3.69-2.75,6.36" transform="translate(-166.07 -223.58)"/><path class="cls-1" d="M418.1,467.89a9.16,9.16,0,0,0-6.78,5.7c-.88,3,1.86,6.65,5,6.68a10.12,10.12,0,0,0,6-2c1.77-1.58,3.05-3.92,1.89-6.58a5.79,5.79,0,0,0-6.1-3.75" transform="translate(-166.07 -223.58)"/><path class="cls-1" d="M421.16,483.53c.06,2.47.34,4.93.56,7.86,2.93-3.5,3.58-8.21,1.84-11.5-2.34,1.38-2.45,1.38-2.4,3.64" transform="translate(-166.07 -223.58)"/><path class="cls-1" d="M210,366.64c1.42-10.36,2.89-11.66,16.42-14.5a149.92,149.92,0,0,1-25.27-12.56c-7.78-4.9-15.16-10.36-22.46-16,5,14.91,14,27.12,24.83,38.06,1.8,1.82,3.6,4.19,6.48,5" transform="translate(-166.07 -223.58)"/><path class="cls-2" d="M167.49,428.47c0,5.71.36,11.43.4,17.14,0,7.44-.06,14.88-.13,22.32,0,1.17.25,2.43-.44,3.48-1.41,2.15-1.34,4.57-1.15,6.9a117.57,117.57,0,0,0,2.54,16.25,11.69,11.69,0,0,0,1.22,3c.55,1,1.42.95,1.93-.09a9.49,9.49,0,0,0,.76-2.46c.41-2.11.81-4.24,1.09-6.38.22-1.65,1.46-1.74,2.61-1.78,1.33-.05.94,1.14,1.06,1.91.39,2.55.71,5.11,1.14,7.66.23,1.35,1,1.54,2,.65a10.57,10.57,0,0,0,3.35-6.78c.74-4.82.17-9.68.6-14.51a4.82,4.82,0,0,0-1.42-4.18c-1.46-1.24-1.46-2.77-1.46-4.38,0-8.2.18-16.4.24-24.6.09-12.19.39-24.37-.09-36.56-.13-3.12,0-6.25-.06-9.38,0-1.67.4-2.68,2.32-2.67,1.28,0,2.57-.3,3.86-.36,3.63-.17,3.65-.14,3.78,3.4a8.26,8.26,0,0,0,.55,2.81c1.55,4,5.09,5.62,8.63,7.15a21.35,21.35,0,0,0,4.4,1c2.33.46,2.32.44,2.22,2.86a27.78,27.78,0,0,0,0,3.87c.65,6.25.1,12.5.12,18.76,0,5.93.42,11.8,2.28,17.53,1.08,3.35,3.38,4.74,6.52,5.37a47.44,47.44,0,0,0,8.64,1.13c1.14,0,2.33.13,2,1.72-.7,3.95.12,8-.74,11.92-.31,1.43-.71,3.21-.15,4.4,1.69,3.67,1.86,7.76,3.56,11.39a18.11,18.11,0,0,1,1.29,3.32A121.13,121.13,0,0,0,236.69,507c1.52,3.67,2.81,7.45,4.28,11.15,2.2,5.52,3.21,11.5,6.86,16.48.84,1.15,1.34,2,2.8,2.09a11.8,11.8,0,0,0,3.15.11c2.46-.43,2.78-.08,2.67,2.53-.09,1.93-.46,3.86-.51,5.79-.11,4.19-.05,8.4-.15,12.59,0,2.23-.13,2.34-2.46,2.28-6.36-.16-12.69.52-19,.66a5.81,5.81,0,0,0-5.3,3c-3,5-6.81,9.35-10,14.15a80.54,80.54,0,0,0-6.32,10.52,4.36,4.36,0,0,0,.56,4.81,6.22,6.22,0,0,0,5,2.6c7,.45,14-.74,20.92-.77,3.14,0,6.18-.69,9.3-.72,4.6,0,9.2-.38,13.79-.8,2.67-.24,5.28-.75,7.91-1.11,3.24-.45,3.79-.5,4.07-3.45q1-10.64,1.95-21.27c.07-.86.44-2.06,0-2.53-2-2.19-.35-3.94.4-5.84.4-1,.79-2,1.12-3,.65-2,.86-4-.31-5.93a7.53,7.53,0,0,1-.88-4.06,52.37,52.37,0,0,1,.67-7.07c.4-2.93.38-2.85,3.27-3.13,1.88-.18,4.35.56,4.82-2.48,0-.14.34-.28.53-.32,1.65-.31,1.5-1.47,1.45-2.73-.34-7.2-.69-14.4-.9-21.61-.22-7.75-.28-15.5-.4-23.26-.06-3.76-.06-3.76,3.58-4.2.21,0,.42-.11.63-.13,3.85-.52,7.73-.4,11.6-.58,1.58-.07,2.15.65,2.14,2.09,0,.54.07,1.08.07,1.62.13,8.72,0,17.45.7,26.15.64,7.81.45,15.7,1.95,23.45.3,1.51.79,2,2.24,2,2.37,0,4.74.29,7.11.39,1.08,0,1.58.51,1.56,1.58,0,1.61-.14,3.24-.07,4.85a8,8,0,0,1-1.95,6.22c-2.11,2.32-2.28,5-.37,7.69,1.65,2.33,1.66,5.07,1.62,7.78q-.2,13.27-.39,26.54c-.05,3.27,1.64,4.94,4.87,4.82,1.18,0,2.37-.13,3.55-.16l27.8-.55c5.16-.1,10.28-.69,15.47-.34a22.39,22.39,0,0,0,8.24-.6c2.47-.77,3.38-2.47,1.85-4.55s-2.77-4.32-4.19-6.46c-3-4.56-6.12-9.08-9-13.73a110.7,110.7,0,0,0-8-11.66,2.84,2.84,0,0,0-2.42-1.31c-3.54.11-7.08-.54-10.64.17a58.79,58.79,0,0,1-6.1.51c-1.45.13-2.14-.29-2.15-1.94-.05-5.39-.29-10.78-.19-16.18,0-1.68.6-2.1,2-2a20.8,20.8,0,0,0,7.94-.76,3,3,0,0,0,2.38-2.12A75.24,75.24,0,0,0,351,523.12c1.38-8,4.08-15.6,5.49-23.56.82-4.66,2-9.3,2.28-14,.42-7.54,2-15,1.84-22.55,0-1.15.42-1.49,1.5-1.52,2.15-.07,4.31-.15,6.44-.4,2.32-.28,4.92,0,6.72-1.85,2.21-2.2,4.2-4.7,4.93-7.84a64.1,64.1,0,0,0,1.43-12.19c.19-5.49.34-11,.81-16.45.41-4.72.48-9.46.73-14.2.07-1.38-.85-3-.06-4.06s2.72-1.09,4.17-1.36c3.29-.6,5.25-2.58,6.63-5.51,1-2.11.81-4.42,1.54-6.64,1.94-.21,3.87-.08,5.8-.36a41.72,41.72,0,0,1,5.82-.14c3.85,0,3.95.08,3.81,4l-.06,1.62c-.53,10.89-.41,21.78-.23,32.68.1,6.14.36,12.29.25,18.43-.1,5.28-.32,10.55-.1,15.85.13,3.29.36,6.63-1.38,9.75-.85,1.52-1.22,3.53.05,4.92,2.49,2.7,2.7,6,3.09,9.32a10.86,10.86,0,0,0,2.93,6.33c.53.56,1.13,1.14,1.95.76s.78-1.13.73-1.95c-.12-2.48-.17-5-.18-7.44,0-1-.25-2.08.53-3,1.09.55.75,1.38.79,2.05.16,2.69.29,5.38.43,8.07,0,.87,0,1.82,1,2.17s1.63-.28,2.25-.92a9.62,9.62,0,0,0,2.43-3.76,19.11,19.11,0,0,0,.71-10.51,5.08,5.08,0,0,1,.09-3.15,5.63,5.63,0,0,0-1.06-6,9.39,9.39,0,0,1-2.28-5.88c-.2-2.48-.15-5-.13-7.44.05-6.58.38-13.15.45-19.73.12-11.21.64-22.41,1-33.61.22-7.43,1-14.85.12-22.29-.33-2.84-.91-3.58-3.59-3.26-6.13.73-12.29-.23-18.42.54a38.56,38.56,0,0,1-3.88,0c-1.15,0-1.69-.37-1.78-1.66-.36-4.87-2-9-7.33-10.79a83.87,83.87,0,0,0,10.83-10.82c2.29-2.84,4.69-5.56,6.72-8.65,1.8-2.74,2.77-5.8,4.4-8.56,2.4-4.1,3.15-8.66,3.92-13.22.19-1.17.21-2.36.34-3.54.2-1.88-1.37-2.62-2.46-3.51s-1.85.37-2.64,1.05c-1,.83-2.14,1.48-3,2.39a38.42,38.42,0,0,1-6.35,4.83,113.44,113.44,0,0,1-10,5.79c-3,1.63-6.07,3.23-9.21,4.6a114.19,114.19,0,0,1-10.62,4.5c-4.05,1.29-7.95,3.06-12.08,4.68-.49-2.4,0-4.53-.06-6.65-.08-2.78-.75-3.63-3.48-4.17a9,9,0,0,0-2.25-.17c-3.16.16-6.2-.77-9.31-1-1.12-.07-1.54-.49-1.69-1.77-.5-4.27-1.11-8.54-3.61-12.25a1.68,1.68,0,0,1,0-2.32c1.93-2.19,2.11-4.86,1.93-7.6-.38-5.68-.34-11.4-1.27-17-.84-5.09-.9-10.34-2.45-15.28-1.8-5.73-2.05-11.67-2.62-17.53-.52-5.37-1.36-10.66-2.15-16a13.58,13.58,0,0,0-4-8A34.37,34.37,0,0,0,316,228.39c-5-1.76-10.27-2.31-15.32-3.79-3.86-1.14-7.68-1.58-11.52,0a2.57,2.57,0,0,1-1,.14,75.82,75.82,0,0,0-13.4,1.7c-5,1-9.87,2.29-13.63,6.09a2.57,2.57,0,0,1-.78.57,8.9,8.9,0,0,0-4.21,4.65c-4.41,9.12-6.39,18.93-7.88,28.82-.87,5.76-2,11.46-3.08,17.15-1.38,7.17-3.59,14.16-4.4,21.46-.4,3.57-.2,6.86,2.19,9.73a2,2,0,0,1,.31,2.59,32.58,32.58,0,0,0-4.26,14.72c-.08,1.41-.68,1.92-2,1.8-1.71-.15-3.43-.33-5.15-.4-2.85-.1-3.85.76-4.37,3.54a52.9,52.9,0,0,0-.56,8.63,88,88,0,0,1-16.24-6.59c-2.11-1-4.44-1.66-6.38-3-6.49-4.53-13-9.06-19.3-13.83-1.72-1.3-3.32-2.73-5-4-3.28-2.45-5.67-.51-6.35,2.72a7.62,7.62,0,0,0,.33,4.13,115.51,115.51,0,0,0,5.48,12.36,107.27,107.27,0,0,0,8.94,15.21c3.5,5,7,10,12,14.22-5.43,3.13-5.43,3.13-7.25,9-1.07,3.46-1.45,3.54-5.24,3.85-4.63.38-9.26.27-13.88.43-4.78.17-4.51-.28-5.3,5.15-.06.42,0,.86,0,1.29-.22,4-.37,8-.71,12-.83,9.92-.5,19.85-.45,29.77M415.69,490c-1.59-2.76-1.18-5.43-1.88-7.83-.12-.41.28-.52.57-.53a1.53,1.53,0,0,1,.88.2c.47.35.44.94.49,1.46a35.17,35.17,0,0,1-.06,6.7m6,1.39c-.22-2.93-.5-5.39-.56-7.86-.05-2.26.06-2.26,2.4-3.64,1.74,3.29,1.09,8-1.84,11.5m2.48-19.74c1.16,2.65-.12,5-1.89,6.57a10.09,10.09,0,0,1-6,2c-3.15,0-5.89-3.68-5-6.68a9.16,9.16,0,0,1,6.78-5.7,5.79,5.79,0,0,1,6.1,3.76m-2.15-89.92a9.82,9.82,0,0,1,.76,5.38c-.41,12.29-.94,24.58-1.27,36.87s-.45,24.37-.63,36.55a41.89,41.89,0,0,0,.27,4.19c.08,1-.22,1.77-1.4,1.56-2.47-.44-4.64.54-6.77,1.44-1-1-.7-2.09-.69-3.14.06-5.38.15-10.76.19-16.14.07-8.5.28-17-.2-25.51-.56-9.71.14-19.4.27-29.11,0-2.67.47-4.6,2.75-6.36s4.3-3.78,6.72-5.73m-26-1.69c2.57-.18,5.15-.31,7.73-.42a119.52,119.52,0,0,1,16.81.11c-2.92,2.89-5.54,6-8.9,8.27a4.79,4.79,0,0,1-2.48.58c-4.53.06-9,.5-13.57.38-1.63,0-2.08-.64-2-2.11a24.49,24.49,0,0,0,.14-4.52c-.22-1.88.88-2.19,2.24-2.29M217.72,589.89c2.53-3.19,3.86-6.61,5.8-9.69,2.14-3.37,5.08-6.21,6.73-9.79,1.76-3.81,4.6-4.39,8.35-4.77,8.47-.84,16.94-1.24,25.44-1.28.6,0,1.28-.25,1.79.32-4.38,5.42-40,24.25-48.11,25.21m52.07-4.57c-.1,2.26-.12,2.29-2.36,2.46-5.58.43-11.17.76-16.74,1.24-8.58.74-17.14,1.56-25.72,2.35a6.88,6.88,0,0,1-2.33-.1c7.84-4.23,15.94-7.9,23.74-12.2s15.47-9.18,23.22-14.49c.81,7.21.49,14,.19,20.74m2.62-29.71a17.59,17.59,0,0,0-2.31,6c-.11.84-.73,1-1.41,1-1,0-1.94,0-2.91,0-4.43.22-4.45.23-4.32-4.36.1-3.55.25-7.1.38-10.64h-.27c-.08-4-.2-8-.23-11.94,0-2.33.06-2.35,2.26-2.52,1.72-.14,3.43-.32,5.15-.36,2.74-.06,2.8,0,2.78,2.56,0,3.65,0,7.31-.26,11-.13,2.29-.2,4.49,1,6.58a2.69,2.69,0,0,1,.16,2.76m48.09-4.92c1.07-1.31,1.08-3,1.15-4.62.13-2.8.18-5.6.19-8.41,0-4.31,0-4.32,4.35-3.89,3.56.36,3.59.36,3.55,4.08a172.48,172.48,0,0,0,.46,19.69c.06.54,0,1.08,0,1.62,0,1.13-.4,1.83-1.67,1.86-1.07,0-2.15.22-3.22.26-4,.13-4,.12-4.05-3.76a4.9,4.9,0,0,0-.9-3,2.84,2.84,0,0,1,.12-3.82m45.63,39.72c-10.23-.07-20.45-.3-30.67-.12-4.08.08-8.17.1-12.26.32-1.23.06-1.94-.08-1.9-1.72.21-7.21-.05-14.41-.29-21.62a2.69,2.69,0,0,1,.59-2.46c13.12,11.47,28.67,18.77,44.81,25-.1.19-.19.39-.28.59m-14.38-28.08a4,4,0,0,1,3.51,1.76c1.72,2.6,3.53,5.14,5.27,7.73,3.22,4.81,6.39,9.64,9.65,14.43a7.84,7.84,0,0,1,1.53,3.39c-13.14-2.53-44.11-19.46-48.27-26.35a4.65,4.65,0,0,1,1.2-.39c9-.13,18.05-1.12,27.11-.57m1.28-71c-.68,5.6-2.49,10.92-3.63,16.4a156.43,156.43,0,0,1-5.5,20.93c-1.23,3.45-1.11,3.58-4.6,3.7a168.72,168.72,0,0,1-20.36-.64c-1.92-.17-3.86-.22-5.78-.37s-2.48-1-2.54-2.83c-.12-3-.61-6-.61-9,0-11.55-1.64-23.06-1.1-34.6.17-3.78-.17-7.5-.13-11.25,0-.7,0-1.42-.82-1.51s-1.15.6-1.14,1.28c0,1.52-.87,1.7-2.09,1.68-2.37,0-4.75.09-7.12,0-4.53-.1-9.05.28-13.56.54-1.45.08-2.31-.06-2.24-1.72a5.28,5.28,0,0,0-.07-1c-.08-.46-.31-.79-.84-.77a1,1,0,0,0-.92.76,4.78,4.78,0,0,0-.19,1.59c.67,7.08.88,14.2,1.12,21.3.36,10.78.49,21.57.78,32.35,0,1.65-.55,2.33-2.19,2.4-3.55.15-7.1.48-10.65.59-5,.16-9.92-.19-14.88.14-3,.2-3.32,0-4.36-2.73-1.62-4.2-3.07-8.48-4.65-12.7s-3.34-8.63-5-13A151.46,151.46,0,0,1,235,488c-.75-2.92-2-5.68-2.59-8.65-1.54-7.26-.87-14.56-.77-21.86,0-1,.62-1.28,1.48-1.27l2.91.09c14.89.17,29.71,1.85,43.63,2.19,7,.29,13.05.21,19.07.48,6.25.27,12.49.71,18.74.76,11.11.08,22.22.18,33.31.63,3.69.15,3.78.11,4,3.88.41,9.09-.59,18.09-1.69,27.09M391.68,377a27.49,27.49,0,0,1,.37,9.83,33.1,33.1,0,0,1-.17,4c-.79,5.23-6.6,9.1-11.74,7.93-1-.22-1.54-.7-1.54-1.73s0-2.16,0-3.23c.07-6.68.69-13.35.18-20a15.82,15.82,0,0,1,.08-1.94,1.43,1.43,0,0,1,1.66-1.52c.65,0,1.29,0,1.94,0,6.18-.47,7.79.7,9.2,6.73m-31-26.32a122.89,122.89,0,0,0,13.51-5.24c6-3,12.16-5.44,18-8.72,4.88-2.75,9.56-5.8,14.15-9a25.25,25.25,0,0,1,3.86-2.38c-5.38,17.31-16.79,30.08-30.92,41.56-.45-3,.49-5.48-1.5-7.48a18,18,0,0,0-9.43-5.25c-3.25-.64-6.53-1.18-9.87-1.78.38-1.23,1.34-1.38,2.24-1.71M246.41,306.48c.34-2,.43-4.1,1-6.06a101.59,101.59,0,0,0,2.37-12.69c1-7.47,2.75-14.82,4-22.24.91-5.1,2.32-10.06,3.62-15.06.37-1.44.38-2.92.76-4.39,1.76-6.73,6.51-10.43,12.64-12.52a62.23,62.23,0,0,1,15.78-2.91c8.53-.61,16.75.62,25,2.34,4.48.94,8.95,2.4,12.28,5.87,1.65,1.72,2.41,4,3.17,6.22,1.46,4.23,1.62,8.7,1.77,13.07a73.44,73.44,0,0,0,1.57,12.15c.7,3.51.27,7.1,1.09,10.58.42,1.77.7,3.58,1.17,5.35,1.85,7,1.72,14.3,3.35,21.35.84,3.66-.17,5.95-2.84,8.22-1.22-1.92-2.83-3.4-3.6-5.47a3.67,3.67,0,0,0-2.12-1.88,27.94,27.94,0,0,0-8.55-2.67c-6.31-.7-12.57-1.81-18.94-2.17a190.87,190.87,0,0,0-40,1.82c-2.62.4-4.9,1.62-7.25,2.64-1.36.59-1.67,2.15-2.24,3.43-.84,1.89-1.33,1.88-2.58.16a6.57,6.57,0,0,1-1.44-5.14m.3,17.06c1.8-4,3.85-7.94,5.79-11.9a4.65,4.65,0,0,1,2.15-1.84c5.47-3.13,11.56-4,17.66-4.45,9.46-.64,18.92-1.15,28.42-.27,5.92.55,11.7,1.78,17.53,2.82,1.38.25,2.75.62,4.14.73,3.28.25,5.28,2.35,6.84,4.86,2,3.27,3.82,6.69,5.7,10.05,1.26,2.24,1.31,4.74,1.52,7.2.45,5.15.44,5.26-4.59,4.92-6.88-.47-13.75-1.1-20.21-1.13a302.1,302.1,0,0,0-33.75.61c-6.87.44-13.78.44-20.67.68-3.45.12-6.89.33-10.33.5-2.46.12-2.45.06-2.49-2.45a24.3,24.3,0,0,1,2.29-10.33m-11.31,15.3c2.88-.35,5.78-.61,8.68-.79,10.86-.68,21.73-1.31,32.61-1.38,10.67-.08,21.33-.85,30.94-.36,12.72.11,24.3,1.39,35.91,2.18,2.9.2,5.8.47,8.7.67,1.26.09,1.89.41,1.77,1.95-.23,2.79-.17,5.6-.22,8.4,0,1.46-.58,2.07-2.19,2-3.77-.2-7.49-.73-11.22-1.23-6.1-.83-12.23-1-18.36-1.23-8.72-.37-17.42-1.21-26.17-.94-3.45.1-6.89.11-10.32.51-5.69.68-11.42,0-17.12.53-7.83.76-15.7.79-23.56,1.06a100.83,100.83,0,0,0-10.92,1.25c-1.59.22-2.12-.15-2-1.82.13-2.25,0-4.52,0-6.78-.07-3.35,0-3.57,3.54-4m-4.17,14.42c3-.29,6-.48,9-.95a45.05,45.05,0,0,1,8.69-.61c5.08.18,10.09-.79,15.16-1,4-.13,8-.26,11.94-.28,10.34,0,20.64-1.29,31-.57,10.54.74,21.13.84,31.62,2,8.46.95,17,1.25,25.37,2.78a29.94,29.94,0,0,1,10.82,4.57,6,6,0,0,1,2.76,5.81c-.58,7.86-.1,15.73.09,23.6.12,4.52-.41,9-.26,13.54.07,2.1-1,4.17-.76,6.34,1.08,9.26-.29,18.5-.16,27.75.06,4.22-.43,8.41-.64,12.6-.17,3.25-2.78,5.82-5.9,6.77a25.47,25.47,0,0,1-8.87.73c-11.95-.58-23.91-1-35.89-.86a162.64,162.64,0,0,1-20-.7,126.21,126.21,0,0,0-17-1.09c-6.65.13-13.28-.17-19.91-.41-7-.25-13.95-.79-20.93-1-8.05-.23-16.1-.68-24.16-.26a11.27,11.27,0,0,1-6.29-1,7,7,0,0,1-3.66-5c-.71-3.3-.37-6.66-.71-10-.39-3.74-.31-7.53-.36-11.3-.1-8.2-.22-16.39-.18-24.59a43.12,43.12,0,0,0-.29-8.41c.28-7.65.66-15.29.78-22.94.05-2.68-.17-5.3.86-7.89a8.86,8.86,0,0,1,4.7-5c4.21-2,8.73-2.28,13.2-2.72m-52.57-29.69c7.3,5.65,14.68,11.11,22.46,16a149.92,149.92,0,0,0,25.27,12.56c-13.53,2.84-15,4.14-16.42,14.5-2.88-.82-4.68-3.19-6.48-5-10.83-10.94-19.86-23.15-24.83-38.06M198.18,377c.54-3.31,2.63-5.06,6-5.34,1.91-.15,4.28-1.18,5.63-.07s.39,3.62.4,5.52c0,1.72.1,3.44.16,5.26-.75,5.7.28,11.5,0,17.3-.13,2.43-.08,2.46-2.59,2.48-2.82,0-5.56-.11-8-1.87a4.91,4.91,0,0,1-2.41-3.94,94.07,94.07,0,0,1,.91-19.34M171.82,489.25c-.25,1.47-.52,2.93-.79,4.39l-.64.05c-.58-2.77-1.57-5.48-1.25-8.46,3.17,1.18,3.18,1.18,2.68,4m8.64,5a16.8,16.8,0,0,1-1.11-7.62c.15-1.31,1.48-1.73,3.07-2.64.26,3.91-.15,7.18-2,10.26m2.17-16.73c-.58,3-1.5,5.82-4.87,7a6.89,6.89,0,0,1-9.1-4.47,12.16,12.16,0,0,1-.5-3.83c.16-5.37,3.15-7.53,8.37-6a13.62,13.62,0,0,1,3,1.1c2.35,1.37,3.61,3.46,3.08,6.21M177.31,382c5.26-.11,10.49-1,15.77-.63,2.36.15,2.39.14,2.27,2.39-.08,1.5-.28,3-.32,4.51-.08,2.93,0,3-2.76,3.28-3.32.3-6.65.39-10,.62a2.91,2.91,0,0,1-2.58-1,91.8,91.8,0,0,0-7.75-8.27,14.23,14.23,0,0,1,5.35-.87m-7.16,13.11c.38-3.28.28-6.62.42-10.63,3.49,2.88,5.62,5.75,8.2,8.16a2.17,2.17,0,0,1,.89,1.93c-.66,7.43.37,14.85.34,22.29-.06,12.72.27,25.43.35,38.15,0,4.1-.16,8.19-.32,12.29-.07,1.9-.36,2.16-2.11,1.61a12.78,12.78,0,0,0-8,0,47.32,47.32,0,0,1-.37-10.11c.45-9.7.27-19.39-.07-29.09-.39-11.53-.65-23.06.69-34.56" transform="translate(-166.07 -223.58)"/><path class="cls-2" d="M287,414.67a12.83,12.83,0,0,0,4.91,1.51c1.07.05,1.55.51,1.54,1.59,0,4.09.17,8.2-.08,12.28-.22,3.5.06,4.29,3.32,5.48a29.68,29.68,0,0,0,8.92,1.34L344,438.51c3,.13,6,.31,9.05.33s4-1.07,4.32-4a11.29,11.29,0,0,0,0-1.3c-.24-6.67-.06-13.34.21-20a132.8,132.8,0,0,0,.22-14.24c-.45-6.68-.36-13.37-.79-20.05a33.58,33.58,0,0,1,.47-7.41c1-6.19-.48-5.61-5.17-6.42a1.77,1.77,0,0,0-.32,0c-4.63.4-9.28-.16-13.9.08-12.61.68-25.23.27-37.84.3-4.05,0-4.09,0-4.31,4.11-.18,3.44-.26,6.87-.39,10.47-4.08-.61-7.15.27-9.27,3.62-1.94,3,0,5.29,1.46,7.81-3.1,2.36-4.11,5.51-2.38,9,.95,2,.75,3.11-.63,4.75-2.66,3.15-1.55,7.32,2.18,9.08m9.37-23.38q1.14-10.29,1.82-20.6c.26-4,.28-4,4.14-3.88,9.27.28,18.54.69,27.81.86,6.56.12,13.13,0,19.69-.18s6.63-.26,6.07,6c-.59,6.69.08,13.37.1,20,0,9.83-.31,19.63-.54,29.45-.08,3.76-.53,7.52,0,11.3.29,2.14-.63,2.8-2.84,2.72q-15.66-.57-31.33-1.06a115.56,115.56,0,0,1-18-1.6c-2.09-.39-4.29-.09-6.31-1a2.52,2.52,0,0,1-1.79-2.56c-.33-7.13.61-14.24.46-21.35.22-6,.1-12.1.75-18.09m-7.64-7.36c1.31-1.05,2.48-2.37,4.49-2.17,1.48.14,2.18.65,2,2.18-.09.85-.07,1.72-.1,2.58H295c0,.75,0,1.51-.09,2.26-.29,2.66-1,3.13-3.51,2.42a6.21,6.21,0,0,1-3.16-2.13c-1.75-2.14-1.66-3.39.51-5.13m-2,11.72c1.14-2,4.78-3.16,6.89-2.22a1.21,1.21,0,0,1,.78,1.26c0,1.07-.07,2.15-.11,3.23h0a8.61,8.61,0,0,1-.07,1.61c-.25,1.07.46,2.69-1,3.06a5.83,5.83,0,0,1-4.69-.56c-1.84-1.21-2.73-4.69-1.76-6.38m.4,10.13a7,7,0,0,1,2.08-.83c4.09-1,4.68-.51,4.47,3.58,0,.33,0,.65,0,1h-.06c0,.76,0,1.51-.08,2.26-.16,2.55-.65,3-3.12,2.42a11.69,11.69,0,0,1-3-1.17,4.24,4.24,0,0,1-.25-7.23" transform="translate(-166.07 -223.58)"/><path class="cls-2" d="M246.75,434.62c2.1.48,4.39-.33,6.71-.74A23.6,23.6,0,0,0,269.12,424c2.24-3.13,3.92-6.66,3.45-10.53-.92-7.46-4.43-13.34-11.38-16.93-3.77-2-7.82-3-11.79-4.25a2.4,2.4,0,0,0-1.57.15c-2.64.89-5.29,1.63-7.66,3.31a29.43,29.43,0,0,0-7.48,7.45,24.92,24.92,0,0,0-4.31,12.27c-.86,10.09,10.32,19.71,18.37,19.15M230.41,415.4c.57-8,4.44-13.68,10.81-18a7.6,7.6,0,0,0,.81-.54c2-1.79,4.27-2.89,7.15-2.34,6.29,1,12.38,2.61,16.76,7.77a20,20,0,0,1,4.59,9.11,13,13,0,0,1-2,10.1c-2.4,3.64-5.16,6.7-9,8.52-7,3.31-14.42,4.57-21.21,0-4.9-3.28-8.35-7.89-7.87-14.62" transform="translate(-166.07 -223.58)"/><path class="cls-2" d="M251.81,305a7.67,7.67,0,0,0,.9-.36c4.47-2.17,9.38-3.09,14-4.79a35.12,35.12,0,0,1,7.24-1.49c4.81-.66,9.67-.33,14.5-.32,7.68,0,15.21,1.43,22.79,2.39,4.79.6,9.59,1.32,13.87,3.86.52.31,1,.41,1.39-.16s.37-1.39-.29-1.7a19.82,19.82,0,0,0-3.91-1.46c-11.12-2.63-22.32-4.68-33.8-4.64-3.65-.13-7.34-.63-11-.32-8.53.71-16.56,3.51-24.45,6.71a14,14,0,0,0-2,1.06.67.67,0,0,0-.34.82c.17.53.58.54,1,.4" transform="translate(-166.07 -223.58)"/><path class="cls-2" d="M309.86,276.23c2.09.46,3.58-.64,4.52-2.34s2.12-3.05,2-5.07a28,28,0,0,0-.69-3.8c-1.28-3.87-5.25-4.74-8.07-1.86s-2.88,6.22-2.14,9.64c.43,2,2.38,3,4.34,3.43m-.09-12.59a2.57,2.57,0,0,1,3.6,1,8.27,8.27,0,0,1,.91,4,8.63,8.63,0,0,1-2,5.11c-.81,1.19-2.95.91-3.94-.32-1.95-2.4-1.12-8,1.43-9.75" transform="translate(-166.07 -223.58)"/><path class="cls-2" d="M323.72,277.26c1.65-1.17,1.93-3,2-4.85a6.74,6.74,0,0,0-.5-3.47c-.9-1.95-2.1-3.54-4.5-3.54-.86,0-1.88,0-2.21,1-.9,2.51-2,5-1.61,7.78a4.29,4.29,0,0,0,6.78,3.11m-3.33-9.16c.55-1,1.49-.64,2.19,0,1.26,1.14,1.2,2.68,1.12,4.53-.05.32-.11,1-.23,1.6a2.08,2.08,0,0,1-2.29,1.82,1.94,1.94,0,0,1-2-1.74,8.7,8.7,0,0,1,1.21-6.2" transform="translate(-166.07 -223.58)"/><path class="cls-2" d="M262,328.88a5,5,0,0,0,6-1.78c2-2.47,1.18-7.86-1.44-9.62-2.77-1.86-3.82-1.63-5.8,1.1a9,9,0,0,0-1.5,5.17c-.17,3.29.31,4.2,2.72,5.13m1.12-10c.79-1.14,1.54-1,2.35-.15a6.72,6.72,0,0,1,1.15,6.9c-.72,1.5-2.07,2.28-3.3,1.91a3.19,3.19,0,0,1-2-3.27,11.16,11.16,0,0,1,1.85-5.39" transform="translate(-166.07 -223.58)"/><path class="cls-2" d="M255.81,328.79c1.84-1.21,2.28-3,2.42-5.24.1-2.81-1.28-4.89-3.71-5.39-.54-.11-1.18-.33-1.52.12-1.72,2.31-3.87,4.46-3.49,7.69a3.94,3.94,0,0,0,6.3,2.82m-3-7.34a1.83,1.83,0,0,1,2.11-1.12c1,.27,1.17,1.14,1.22,2,0,.43,0,.86,0,1.16-.18,1.52-.12,3-1.45,3.92a1.7,1.7,0,0,1-2.89-1.06,6.42,6.42,0,0,1,1-4.93" transform="translate(-166.07 -223.58)"/><path class="cls-2" d="M267.71,552c-1-.19-1.36.84-1.55,1.71-.12.53-.16,1.06-.25,1.75a3.68,3.68,0,0,0,.07.8,1.13,1.13,0,0,0,1.46.88c.66-.14.76-.61.7-1.21a13.41,13.41,0,0,1-.06-1.9c0-.73,1-1.78-.37-2" transform="translate(-166.07 -223.58)"/><path class="cls-2" d="M324.64,554.16a.74.74,0,0,0,.76-.44,3.06,3.06,0,0,0,0-3.36,7.28,7.28,0,0,0-.94-.88c-.17.3-.46.56-.46.83,0,1.07,0,2.13.11,3.2,0,.31.13.62.55.65" transform="translate(-166.07 -223.58)"/><path class="cls-2" d="M239.75,416.23c2.05-.16,3.78-.05,5,2a3.87,3.87,0,0,0,3.56,1.6c2.64.11,4.75-1,5.43-2.87.78-2.18,0-4-1.57-5.56a4.85,4.85,0,0,0-1-.82,3.57,3.57,0,0,1-1.75-3.23,43,43,0,0,1-.28-4.82c.06-.82.21-2-1-1.93s-.88,1.31-.87,2.08c0,1.28.27,2.56.36,3.84.11,1.52.2,3-1.81,3.53a3.06,3.06,0,0,0-1.84,2.14c-.71,2.32-2.47,2.61-4.49,2.83-1,.11-2.94-.69-2.81.82.11,1.33,2,.5,3.07.42m9.57-.93c.34-.95-.39-2.12.48-3.15,1.64.32,2.23,1.46,2.34,3a2.68,2.68,0,0,1-2,2.69,3.22,3.22,0,0,1-4.28-1.27c1.28-.89,2.87.26,3.42-1.25m-1.83-4.15c-.2,1.55.38,2.63-.9,3.06-.39.12-1,.06-1.11-.33-.27-1.28.73-1.74,2-2.73" transform="translate(-166.07 -223.58)"/></svg>