<svg id="Layer_1" data-name="Layer 1" xmlns="http://www.w3.org/2000/svg" viewBox="0 0 136.89 432.18"><defs><style>.cls-1{fill:#fff;}.cls-2{fill:#010101;}</style></defs><path class="cls-1" d="M274.4,506.7c-2.61-.38-5.15-1-7.74-1.45-.38-.06-.83-.28-1.15.19a2.25,2.25,0,0,0,.82,2.93,14,14,0,0,0,6.73,1.29c2-.07,3.38-1.11,4.86-2.83a28.33,28.33,0,0,1-3.52-.13" transform="translate(-235.38 -199)"/><path class="cls-1" d="M293.86,523.66a58.49,58.49,0,0,1-.3-8.78c.05-1.37.06-2.73.17-4.09.08-1.11-.42-1.45-1.46-1.5A8.63,8.63,0,0,0,284,514.4c-1.69,3.84-1.19,7.61,1.24,10.1,1.63,1.67,3.72,1.77,5.81,2a3,3,0,0,0,2.81-2.82" transform="translate(-235.38 -199)"/><path class="cls-1" d="M263.38,504a3.25,3.25,0,0,0-2.57-3.95c-4.13-1-8,2-8.52,7.4a4.46,4.46,0,0,0,7.2,3.83,15.62,15.62,0,0,0,3.4-3.24c.8-.92,1.64-1.87.5-3.14-.21-.23-.08-.58,0-.9" transform="translate(-235.38 -199)"/><path class="cls-1" d="M294.62,569.7c-.38-2.92-.4-2.86-3.33-3.07-1-.07-1.14.24-1.16,1.11-.09,3.55.23,7.1.11,10.66-.18,4.93.61,9.84.71,14.76A52.25,52.25,0,0,0,292.1,603c.07.33.09.83.56.83s.48-.5.58-.82c.4-1.33,0-2.74.31-4.07,1-4.72.22-9.54.86-14.28,0-1,.1-2.1.12-3.15.05-3.93.61-7.86.09-11.79" transform="translate(-235.38 -199)"/><path class="cls-1" d="M289.31,545.18c-.11,2.2-.06,4.41,0,6.61a3,3,0,0,0,2.88,2.63c.86,0,2-1.29,2-2.45,0-1.82,0-3.64,0-5.46-.19-5.39-.43-10.78-.63-16.17-.07-2-.27-2.18-2.3-2.29-1.75-.1-1.74-.1-1.44,1.6a4.08,4.08,0,0,1,.08,1.1c-.48,4.8-.38,9.62-.61,14.43" transform="translate(-235.38 -199)"/><path class="cls-1" d="M257.5,513.93c-.95.12-.53.81-.51,1.34.13,3.83,2,7.12,3.21,10.62a6.34,6.34,0,0,0,1.22,1.81c.25.3.53.8,1,.63s.21-.73.3-1.12c-.06-.68-.13-1.36-.16-2-.17-3.8-1.68-7.23-2.9-10.74-.41-1.19-1.39-.6-2.16-.5" transform="translate(-235.38 -199)"/><path class="cls-1" d="M295.93,605.39a2.76,2.76,0,0,0-.42.84A3.46,3.46,0,0,1,291,608c-1.34-.48-1.64-1.83-2.3-2.87-.33-.51-.08-1.51-.81-1.53s-.94.89-1.38,1.39a2.14,2.14,0,0,0-.25.41,96.87,96.87,0,0,0-5.8,13.25c-1,3.17-.36,5,2.44,6.8a15.07,15.07,0,0,0,7.56,2.51c4.41-.05,7.93-2.06,10.93-5.11a4.3,4.3,0,0,0,1-3.07,20.35,20.35,0,0,0-.76-4.33c-.63-3.31-1.72-6.5-2.65-9.73a2.45,2.45,0,0,0-1.77-1.86c-.94-.16-.81,1-1.31,1.52m-1,18.16c-1.3.31-2.6-.12-3.9,0a13.09,13.09,0,0,1-6.59-1.12c-.63-.32-1.37-.64-.91-1.49s1.07-.56,1.73-.12c1.9,1.23,4,1.23,6.21,1.21,1.1,0,2.2,0,3.3,0,.49,0,1,0,1.08.64s-.48.78-.92.89" transform="translate(-235.38 -199)"/><path class="cls-1" d="M358,513.33a13.63,13.63,0,0,0,1.49.34c3.3.17,7.46-2.33,9.7-5.62.22-.33.74-.64.51-1.07s-.83-.24-1.27-.17a55,55,0,0,1-10.16,1c-1.36,0-2.12.27-1.66,1.84a1.65,1.65,0,0,1-.1,1.24c-1.14,1.85.35,2,1.49,2.41" transform="translate(-235.38 -199)"/><path class="cls-1" d="M290.93,557.65c-3,0-5.31-2.66-5.45-5.83,0-.38.28-.92-.29-1.09s-.72.37-1,.69a10.51,10.51,0,0,0-1.58,4.88,5.84,5.84,0,0,0,1.45,5c2.46,2.79,5.69,3.54,9.14,3.82,2.18.15,4.22-.12,5.78-1.86a9.58,9.58,0,0,0,2.28-8.77,4.94,4.94,0,0,0-1.78-2.91c-.69-.54-1.18-1.08-1.59.49-1,4-3.45,5.56-7,5.54" transform="translate(-235.38 -199)"/><path class="cls-1" d="M254.07,500.51a8.32,8.32,0,0,1,4.22-2.24c1.32-.18,1.64-.63,1.4-1.93a173.48,173.48,0,0,1-2.62-23.28c-.06-1.15-.74-1.43-1.61-1.54a18.64,18.64,0,0,0-5.48,0c-.29.05-.67-.15-.76.3a.68.68,0,0,0,.42.78c1,.33,1.11,1.14,1.14,2,.17,4.09.75,8.14,1.17,12.21.35,3.55.83,7.09,1.12,10.64.09,1.1,1.33,1.65,1,3.05" transform="translate(-235.38 -199)"/><path class="cls-1" d="M307.22,202c-.07-.7-.45-1.41-1.21-1.4s-1.2.74-1.29,1.52.31.94,1,.88c.52-.28,1.63.23,1.51-1" transform="translate(-235.38 -199)"/><path class="cls-1" d="M264.3,442.74c3,.26,8.21-3.74,8-7.65.14-3.36-2.67-6.63-5.83-6.74-5.69-.2-8.14,2-8.51,6.37a7.27,7.27,0,0,0,6.34,8" transform="translate(-235.38 -199)"/><path class="cls-1" d="M250.83,509.36c.08-1.51-.63-1.16-1.52-.69-3.87,2-6.87,5.15-10.16,7.91-.28.23-.74.44-.62.83s.72.32,1.11.39a5.84,5.84,0,0,0,2.62-.51,53,53,0,0,0,7.38-3.89c1.47-1,2.77-1.83,1.24-3.73a.6.6,0,0,1,0-.31" transform="translate(-235.38 -199)"/><path class="cls-1" d="M250.67,470.1c1-.1,2-.11,3-.15V470l1.89.07a2.65,2.65,0,0,0,2.56-1.66,57.91,57.91,0,0,0,1.73-5.71c1.6-5.43,3.19-10.86,4.83-16.27a1.57,1.57,0,0,0-1-2.22c-1.07-.41-2.17-.78-3.21-1.28-.66-.32-.95-.13-1.2.46-.88,2.13-1.86,4.22-2.66,6.38-1.25,3.33-2.28,6.74-3.6,10a86.38,86.38,0,0,0-3,9.36c-.19.7-.06,1,.72.9" transform="translate(-235.38 -199)"/><path class="cls-1" d="M314.74,511.6a82.28,82.28,0,0,1-.29,8.6,11.09,11.09,0,0,1-.06,1.42c-.24,1.33.32,2,1.52,2.67,2.29,1.18,4.25.39,6.26-.62,2.41-1.21,4.29-5.78,2.88-8-2.82-4.48-4.12-6.29-9-5.37-.9.17-1.32.37-1.3,1.31" transform="translate(-235.38 -199)"/><path class="cls-1" d="M353.05,474.74c-1.14.21-2.37-.55-3.44.3-.07.06,0,.29,0,.45q0,12.92.1,25.84c0,.67.14,1.28,1.08,1.14a4.17,4.17,0,0,1,2.7.68c.86.49,1.29.33,1.21-.72-.19-2.6.32-5.19-.21-7.82-.78-3.92.48-7.91,0-11.88-.18-2.41-.37-4.81-.55-7.22,0-.6-.37-.87-.93-.77" transform="translate(-235.38 -199)"/><path class="cls-1" d="M353.08,520.54a11.51,11.51,0,0,0-.1-3.61c-.11-.4-.28-.85-.77-.88a1,1,0,0,0-1,.79,8.78,8.78,0,0,0-.48,2.93c0,3,1,5.89,1.37,8.85.12.81.06,2.32,1,2.2,1.12-.15.58-1.56.54-2.43-.14-2.62-.58-5.22-.49-7.85" transform="translate(-235.38 -199)"/><path class="cls-1" d="M341.42,442.42c4.32.35,7.11-1.36,7.59-5.84a5.19,5.19,0,0,0-.52-2.44c-.91-2.05-2.73-3.13-4.47-4.31a4.21,4.21,0,0,0-4.48,0c-2.58,1.29-4,4.89-3.41,8.23.39,2.26,2.27,4.09,5.29,4.34" transform="translate(-235.38 -199)"/><path class="cls-1" d="M353.86,505.72c.13-1-2.95-1.71-4-1.16-1.93,1-1.8,2.93-2.15,4.69a10.09,10.09,0,0,0,.61,3.66,3.22,3.22,0,0,0,3.15,1.93c1.61-.34,4.34-4.57,3.43-5.93a4,4,0,0,1-1-3.19" transform="translate(-235.38 -199)"/><path class="cls-1" d="M346.83,443.06c-1.47.93-3.1.89-4.71,1-.9.07-.84.56-.65,1.21.39,1.3.75,2.62,1.09,3.94,1.83,7.16,3.8,14.28,5.84,21.39.72,2.5.66,2.52,3.39,2.72.62-.39,2.36.73,2-1.23-.21-1.25-.26-2.5-.42-3.74-.4-3-1.36-5.92-2-8.88-.56-2.45-.59-5-1.28-7.39q-1.2-4.15-2.35-8.32c-.14-.51-.35-1.05-.91-.7" transform="translate(-235.38 -199)"/><path class="cls-1" d="M348.65,383.27c0,.93.37,1.35,1.32,1.31,1.83-.1,3.66-.23,5.5-.21,1.35,0,1.88-.43,1.8-1.84-.38-6.28.33-12.56.2-18.83,0-1.21.1-2.41.14-3.62.08-2.66-.65-4.82-3.42-5.86-1-.39-1.91-1.09-2.92-1.53s-1.84-2.09-2.84-1.35c-.61.45-.36,2.17-.34,3.32.17,9.54.38,19.07.56,28.61" transform="translate(-235.38 -199)"/><path class="cls-1" d="M359,365.17c-.14,5.14-.43,10.28-.45,15.42,0,4.54-.19,3.4,3.77,3.65.87.06,1.24-.24,1.24-1.15,0-1.73.12-3.46.19-5.2H364c.15-4,.35-8.08.46-12.12.13-5.28.88-3.92-4-5.48-1.29-.42-1.61.09-1.55,1.25s.13,2.41.1,3.62" transform="translate(-235.38 -199)"/><path class="cls-1" d="M318.7,425c1.1-3.06,2.12-6.14,3.16-9.21.14-.41.26-.88-.09-1.19s-.71-.1-1.06,0-.7.24-1,.39a53.14,53.14,0,0,1-15.26,4.73,22.8,22.8,0,0,1-10.35-1.24c-2.9-1-5.5-2.76-8.54-3.39-.33-.06-.63-.56-1-.19s0,.7.17,1c1.28,2.55,1.86,5.36,2.95,8,.26.63.07.91-.42,1.29-.8.64-1.83.48-2.65.95-3.26,1.84-6.86,2.87-10.32,4.25-.82.33-1.22.57-.76,1.53a6.44,6.44,0,0,1,.54,2.92c-.06,4.27-2.51,7.1-6.68,8.83-.76.31-1.58.42-1,1.6.87,1.87,1.6,3.79,2.31,5.74,2.19,6,4,12.07,5.87,18.12,2,6.51,2.86,13.34,4.31,20,.2.92.13,2.08.68,2.69s1.75-.1,2.66-.07c.42,0,.85,0,1.26,0,10.18-.58,20.36-1.2,30.53-1.76,4.1-.22,8.21-.32,12.31-.44a1.85,1.85,0,0,0,2-1.53c.37-1.26.65-2.53,1-3.8,1.14-4.48,2.31-8.95,3.43-13.43,1.64-6.61,2.77-13.34,5.15-19.75.63-1.67,1.09-3.4,1.58-5.12.34-1.2.27-2.07-1.2-2.7a6.71,6.71,0,0,1-3.85-7.53,19.35,19.35,0,0,1,.58-2.94c.28-.88,0-1.21-.8-1.5-2.5-.95-5-2-7.48-2.93a25.74,25.74,0,0,0-6.18-1.47c-2,.14-2.35-.35-1.8-1.88m-2.82,4.34a37.46,37.46,0,0,1-12.35.88A35.37,35.37,0,0,1,292,428l-.88-.37c-.46-.2-.87-.47-.63-1.06s.7-.6,1.18-.35c4.22,2.2,8.87,2,13.4,2.36a27.63,27.63,0,0,0,10.3-1c.61-.18,1.39-.61,1.65.47.22.91-.39,1.17-1.12,1.37" transform="translate(-235.38 -199)"/><path class="cls-1" d="M326.49,491.32c-.78,0-1.56.25-2.35.24-4.54-.07-9.08-.33-13.63-.06-6.35.36-12.69.71-19.05.81A63.94,63.94,0,0,0,281,493.49c-.64.12-1.44.17-1.26,1.21.44,2.59.88,5.18,1.3,7.77.12.72.43,1.09,1.27,1a117,117,0,0,1,13.5-.75c6.65,0,13.3-.38,20.92-.17,1.82,0,4.6-.09,7.39-.09a1.4,1.4,0,0,0,1.61-1.26c.73-2.85.93-5.81,1.83-8.62.3-.91-.19-1.3-1-1.26" transform="translate(-235.38 -199)"/><path class="cls-1" d="M325.51,605.87a5.15,5.15,0,0,1-1.47,2.56c-2,2-5.18,2.61-6-.22-.13-.47-.16-1.21-.78-1.21s-.83.62-1,1.09c-2.11,4.45-4.24,8.9-4.89,13.88a5.3,5.3,0,0,0,1.52,4.61c2.23,2.26,5.2,2.51,7.87,2.89,1.5,0,2.81.24,4-.32a23.08,23.08,0,0,0,8.12-5.82,4,4,0,0,0,.8-3.54c-.58-2.67-1.2-5.33-2-7.93s-2-5.08-4.61-6.53c-.79-.44-1.27-.42-1.48.54m2.58,14.87a11.51,11.51,0,0,1,1.36-.38c.56-.06.87.36,1,.83s-.27.72-.61.78c-2.87.58-5.64,1.6-8.48,1.82a17.45,17.45,0,0,1-5.56-1.51c-.46-.24-1.2-.54-.81-1.28a1.05,1.05,0,0,1,1.55-.25c3.87,2.5,7.7.84,11.55,0" transform="translate(-235.38 -199)"/><path class="cls-1" d="M321.36,603.23a5.6,5.6,0,0,0,.47,2.74,12.36,12.36,0,0,0,.77-5c-.19-5,.4-10,.19-14.94s.14-9.86.34-14.79c.1-2.34,0-2.34-2.25-2.56a10,10,0,0,1-1.24-.2c-1-.22-1.47.23-1.25,1.17a22.27,22.27,0,0,1,.18,4.54c.21,6.23,1.36,12.39,1.42,18.64,0,3.52,1.33,6.9,1.37,10.43" transform="translate(-235.38 -199)"/><path class="cls-1" d="M316.51,555.56c-.27-.44-.62-.94-1-.24-.77,1.41-1.95,2.61-2,4.37-.14,3.85,3.33,7.37,7.6,7.44a9.59,9.59,0,0,0,3.67-.63c5.53-1.75,6.74-7.39,3.06-11-.77-.75-1.07-.85-1.73.1s-1.41,2.63-2.95,2.6c-2.49,0-5.08-.16-6.63-2.66" transform="translate(-235.38 -199)"/><path class="cls-1" d="M322.87,552.3c1.53-.33,1-1.52,1-2.4,0-5.51-.25-11-.61-16.53-.15-2.34-.4-4.69-.6-7-.07-.73-.32-.94-1.14-.71-3.34,1-3.35.93-3.33,4.37,0,.73.06,1.47.1,2.21q.33,6,.67,12.1h-.09c0,.68,0,1.37-.08,2-.15,2.52.78,4.86,1.38,7.24a1.75,1.75,0,0,0,2.33,1.08c1-.29.85-1,.19-1.63a.44.44,0,0,1,.2-.76" transform="translate(-235.38 -199)"/><path class="cls-1" d="M310.6,516a115.33,115.33,0,0,1,.56-11.9c.09-.63-.41-.47-.75-.44a37.84,37.84,0,0,1-4.88.15c-2.36,0-4.73,0-7.09,0-1,0-1.36.33-1.22,1.3a8,8,0,0,1,0,1.1c.67,5.9.2,11.84.84,17.75.18,1.64.7,2,2.07,1.8a38.53,38.53,0,0,1,8.91-.37c1.19.09,1.42-.47,1.36-1.49-.15-2.63.09-5.25.17-7.88" transform="translate(-235.38 -199)"/><path class="cls-1" d="M346,509.41c.12-.88-.27-1.16-1.09-1a105.61,105.61,0,0,1-11.31,2.08c-.74.09-.84.42-.48,1.07a4.13,4.13,0,0,0,4.34,2.37c1.52-.3,3.69-.18,5.82-.47,2.88-.39,3-.57,2.72-3.45a2.66,2.66,0,0,1,0-.63" transform="translate(-235.38 -199)"/><path class="cls-1" d="M326.22,365.19c-1.06,0-2.39,1.66-2.47,3.17-.1,1.91,1,3.48,2.51,3.6s3.13-1.65,3.25-3.76-.61-2.9-3.29-3" transform="translate(-235.38 -199)"/><path class="cls-1" d="M256.08,357c.3,5.94-.4,11.87-.37,17.81,0,2.3.16,4.61.26,7.1-.72,1.5.55,3,.44,4.62-.06.79.55.73,1.11.67q11.82-1.31,23.64-2.62c1.07-.12,1.94.26,2,1.28.09,2.59,1.27,5,1.17,7.61,0,.87.08,2,1,2.08a9,9,0,0,0,4-.2c.28-.1.18-.56.16-.87a214.91,214.91,0,0,1,.8-28.93c.46-5,.09-10,.54-14.93.71-7.89-.36-15.74-.24-23.61,0-.3-.08-.78-.26-.87-1.94-.89-1.84-2.14-1.08-3.89.55-1.27.19-2.8.24-4.21.43-11,.39-22.06.22-33.09-.13-8.2.28-16.4.39-24.59,0-.72-.1-1.47.68-2,.45-.29.31-.87.32-1.33s.15-.77-.22-1-.67.08-1,.28c-.93.57-1.72,1.44-2.61,1.93a31.52,31.52,0,0,0-6.72,5.12,56.82,56.82,0,0,0-10,13.12,108,108,0,0,0-8.43,18.25c-2.81,8-3.87,16.43-4.7,24.85-.72,7.36-1.07,14.74-1.2,22.14-.09,5.08-.45,10.16-.19,15.26m23.48,3.45c2.5,0,4.77,2.71,4.7,5.58a5.23,5.23,0,0,1-5.64,5.22c-2.39,0-4.41-2.42-4.39-5.23,0-2.57,2.92-5.6,5.33-5.57" transform="translate(-235.38 -199)"/><path class="cls-1" d="M278.84,369.71c1.62.1,3.42-1.83,3.53-3.78s-1.2-3.77-2.68-3.91c-1.31-.13-3.45,2.05-3.56,3.62-.15,2.36.91,4,2.71,4.07" transform="translate(-235.38 -199)"/><path class="cls-1" d="M293.2,258.12c.13,5.91.36,11.84.24,17.75-.15,7.39-1,14.74-.83,22.17a87.77,87.77,0,0,1-.74,12.51c-.43,3.63.33,7.4.51,11.11.05,1.07.51,1.32,1.5,1.21,2.82-.32,5.64-.61,8.46-.82,9.69-.72,19.4-.45,29.1-.71,4.36-.12,8.72.08,13.07.11,2.09,0,2.07,0,1.82-2-.08-.67,0-1.36-.08-2-.18-2.67.26-5.41-.09-8-.8-5.93-1.11-11.91-2.17-17.81-1.47-8.18-3.25-16.16-7.11-23.69-2.67-5.22-6.83-9-11.08-12.39a23.89,23.89,0,0,0-15.72-5.26c-1.52,0-3-.44-4.55-.11s-3,.61-4.47,1a51.28,51.28,0,0,0-6.95,2.76c-.41.17-1,.36-.85,1,.37,1.12-.08,2.18-.06,3.28" transform="translate(-235.38 -199)"/><path class="cls-1" d="M241.67,359.92a60.79,60.79,0,0,1,.15,6.75,95.8,95.8,0,0,0,.72,15.7c.39,3.29.45,3.29,3.77,3.27,2.06,0,2.07,0,2-2.08q-.18-9.58-.34-19.17h.05c0-1.84-.05-3.68-.1-5.51,0-.42.13-1.08-.71-.79a12,12,0,0,1-4.33.45c-1.09,0-1.31.33-1.24,1.38" transform="translate(-235.38 -199)"/><path class="cls-1" d="M249.57,369.55a142.71,142.71,0,0,1,.06,14.33c-.13,1.58.25,2,1.77,2,1.18,0,2.78-.48,3.22,1.55a5,5,0,0,1,0-2.07,32,32,0,0,0,.15-6.92,34.69,34.69,0,0,1-.21-6.44c.47-6.82.15-13.64.19-20.46,0-1-.46-1.13-1.14-.81-1,.46-1.88,1.21-2.9,1.56a1.91,1.91,0,0,0-1.39,2.15c.08,5,.15,10.08.24,15.12" transform="translate(-235.38 -199)"/><path class="cls-1" d="M345.21,323.18c-3.45-.12-6.9-.31-10.35-.33-4.66,0-9.32.2-14,.12-5.24-.09-10.47.15-15.7.4-3.77.18-7.53.66-11.3.89-1.21.07-1.34.69-1.34,1.62,0,5.2.37,10.4.28,15.58-.09,5.41-.25,10.83-.16,16.23.14,7.72-.32,15.42-.42,23.14a34.24,34.24,0,0,1-.54,6.88,18.8,18.8,0,0,0-.05,6.26,1.32,1.32,0,0,0,1.57,1.33c2.78-.07,5.55-.18,8.33-.14,5.84.07,11.68,0,17.51,0a4,4,0,0,1,2.32.29c1,.67,1.11,0,1.25-.73.38-2.18.21-4.41.67-6.59.61-2.88.75-3.06,3.7-3.1,4.84-.06,9.67,0,14.5.34,1.1,0,2.21.08,3.31.14.54,0,.95.32.89.88a.83.83,0,0,1-1.08.81c-1.4-.21-2.83,0-4.24-.28-4.48-.95-9-.7-13.51-.33a1.67,1.67,0,0,0-1.69,1.5,68.29,68.29,0,0,0-1.06,7.65c-.12.92-.54,2.1-1.51,1.8-2.37-.74-4.74-.61-7.14-.71-8.36-.34-16.72-.35-25.07-.13-1.91.05-4-.14-5.81,1-.87.52-1.58-.41-1.48-1.24.35-3.16-.89-6-1.62-8.93-.12-.48-.23-.94-.86-.94-.83,0-1.67,0-2.5.05-3.39.24-6.79.46-10.19.75s-6.88.57-10.29,1.16c-1,.16-1.31.64-1.24,1.62.12,1.72.15,3.46.17,5.19,0,.89-.37,1.89-.07,2.64.39,1,1.68.52,2.52.88l.15,0c3.63,1.62,7.29,3.2,10.91,4.85,5.62,2.57,11.48,4.54,17.17,6.94a88.72,88.72,0,0,0,11.14,3.84,17.46,17.46,0,0,0,8.68.5,59.37,59.37,0,0,0,11.86-4.65c4-1.91,8-4,12.12-5.67,5.16-2.12,10.11-4.66,15.17-7a1.5,1.5,0,0,0,1-1.57c0-2.68.3-5.37.12-8a89.3,89.3,0,0,1-.24-9.38c.14-3.52-.06-7-.07-10.52,0-4.41-.15-8.82-.18-13.24,0-5.35,0-10.71,0-16.07-.05-4.68-.29-9.35-.24-14,0-1.23-.3-1.6-1.37-1.64m-18.92,50.25a4.89,4.89,0,0,1-4.46-5.17c.21-2.67,2.81-5.66,4.95-5.16a6.17,6.17,0,0,1,3.62,1.82,5.44,5.44,0,0,1-4.11,8.51" transform="translate(-235.38 -199)"/><path class="cls-2" d="M243.38,354.62c-1.3.08-2.52.64-3.89.49a2.4,2.4,0,0,0-2.74,2.7c0,.89.09,1.78.1,2.68.08,5.67-.83,11.35.19,17,.58,3.24.82,6.55,1.27,9.82a4.35,4.35,0,0,0,3.94,3.4c2.25-.15,4.51-.13,6.76-.31,3.33-.26,3.37,1.21,2.91,4.09,0,.1-.13.19-.13.28,0,2.44-.37,4.94,2.1,6.62a14.71,14.71,0,0,0,3,1.53c3.16,1.28,6.15,2.94,9.28,4.31a141.31,141.31,0,0,0,14.22,5.81,2,2,0,0,1,1.36,1.54c.7,2,.51,4.21,1.54,6.08.66,1.19.17,1.64-.87,2.11-2.93,1.33-6,2.22-9,3.37a2.77,2.77,0,0,1-2.45-.09,9.18,9.18,0,0,0-5.66-1c-4.38.38-8.29,2-10.73,5.76-2.34,3.56-2.26,7.56-.43,11.41a3,3,0,0,1,.21,2.54c-1,2.65-2.15,5.23-3.23,7.83-1.55,3.7-3,7.42-4.3,11.23a16.34,16.34,0,0,0-1.22,6.09,52.58,52.58,0,0,0,1.16,6.67c.8,4,1.18,8.11,1.61,12.18.39,3.65.59,7.33,1.23,10.94a19.91,19.91,0,0,1,.19,5.76,2.14,2.14,0,0,1-1.21,1.84,65.78,65.78,0,0,0-11.73,9,7.37,7.37,0,0,0-1.13,1.1c-.54.76-.41,1.54.57,1.65,2.18.26,4.43.69,6.54-.23A51.3,51.3,0,0,0,252,514c1.91-1.35,3.2-.82,3.47,1.47.46,3.86,2,7.4,3.22,11,.58,1.7,2.22,2.62,3.16,4.07.37.58.72,1.33,1.51,1.14s.9-1,1-1.67a22.06,22.06,0,0,0-.27-6.59,84,84,0,0,0-2.86-10c-.31-1,2.3-4.3,3.34-4.26a1,1,0,0,1,.6.18c2,1.61,4.45,1.59,6.88,1.76a8.07,8.07,0,0,0,7.85-4c.31-.47.59-.87,1.25-.64,2.49.85,5,.13,7.48,0a14,14,0,0,1,4.23-.13c.44.11.8.32.79.84s-.46.61-.89.64a29.62,29.62,0,0,0-3,.19,10.07,10.07,0,0,0-5.88,3.4,10.53,10.53,0,0,0-2.57,6.78c-.13,3.42.6,6.46,3.81,8.41a2.9,2.9,0,0,1,1.3,2.55c0,1.43-.27,2.82-.35,4.23-.28,4.54-.43,9.09-.6,13.64a2.17,2.17,0,0,1-.86,1.93c-3.52,2.34-3.79,5.92-3.71,9.65a4.44,4.44,0,0,0,1.36,3.1,13.85,13.85,0,0,0,3.66,3.21c.63.31.57.76.53,1.31-.32,4.39-.23,8.79-.15,13.18.13,6.7.68,13.38,1.35,20,.06.6.35,1.3-.22,1.8-2.95,2.63-4.18,6.28-5.72,9.71s-3.25,6.6-3.44,10.39a4.69,4.69,0,0,0,1.78,4.25,17.43,17.43,0,0,0,7.64,3.56c5.94,1.3,10.9-.77,15-4.87,2.1-2.09,1.9-4.89,1.23-7.6s-1.29-5.41-2-8.09c-.67-2.38-1-5-3.63-6.27a2,2,0,0,1-1-2.39c.53-3.9.66-7.83.94-11.75.49-6.69.57-13.38.82-20.07,0-1-.45-2.12.62-2.94a8.88,8.88,0,0,0,2.73-3.81c1.56-3.83,1.5-9.37-3.2-11.89a1.66,1.66,0,0,1-1-1.48c-.34-6-.47-11.94-.49-17.92,0-1.1.48-1.5,1.5-1.53,1.32,0,2.63-.1,3.94-.22,3.52-.31,7,.32,10.53.21.7,0,.77.46.71,1-.48,4.36.48,8.69.3,13.06-.12,2.94-.22,6,.92,8.87a1.28,1.28,0,0,1-.47,1.53c-4.71,4.62-4.5,8.45-.93,12.7.21.24.45.47.41.82-.31,2.56.42,5.1.19,7.66a16.48,16.48,0,0,0,0,3.78c.65,4.31.89,8.66,1.18,13a38.36,38.36,0,0,0,.95,7.94c.64,2.3,1.47,5-1.34,6.72-.16.1-.24.35-.35.53a47.92,47.92,0,0,0-5.9,15.51,7,7,0,0,0,4.32,7.77c6.5,2.89,12.59,2.18,18.13-2.41,2.33-1.93,4.44-4,3.67-7.46-.6-2.66-1.16-5.34-1.94-8-1.07-3.59-2.88-6.65-6.63-8.12-.81-.32-.7-1.07-.62-1.76.22-2,.57-4,.62-6,.1-4.1.6-8.17,1-12.24.3-3.19.66-6.36.77-9.55a11,11,0,0,1,.43-2.47c.42-1.57,1.26-3.19-.15-4.73-.45-.49.14-.73.4-1,3.6-3.91,2.9-9-1.34-12.14a1.32,1.32,0,0,1-.62-1.57c1-5,.76-10,.3-15a55.68,55.68,0,0,1,.42-16.15,23.19,23.19,0,0,0,.25-2.51c0-.42.06-.91-.45-1.06-.73-.23-.68-.78-.75-1.37a3.88,3.88,0,0,0-.55-1.78c-2.65-3.46-5.41-6.75-10.55-5.39-.42.11-1,.21-1.1-.5a2,2,0,0,1,1.62-2.16c2.94,0,5.88-.35,8.82.07,2.31.33,3.34-.48,3.62-2.7.81-6.37,2.86-12.48,4.15-18.75.95-4.63,2.15-9.2,3.17-13.82a150.48,150.48,0,0,1,4-16,29.81,29.81,0,0,1,1.68,5.51c.86,3.41,1.93,6.78,2.51,10.23a50.86,50.86,0,0,1,1.17,9.79c-.07,2.93.48,5.89.35,8.81a86.55,86.55,0,0,0,.13,14.31c.24,2.1-.48,3-2.53,3.49a76.84,76.84,0,0,1-11.94,2.15c-.73.06-1.53.17-1.13,1.19.88,2.26,2.09,4.33,4.71,4.88a23.36,23.36,0,0,0,10.41-.67,2.8,2.8,0,0,1,3.39,2.66c-.37,5,1.08,9.68,2.34,14.38.36,1.35,1.6,1.6,2.74.78a3.05,3.05,0,0,0,1.12-3c-.15-2-.28-4-.48-6-.29-2.79.68-5.63-.42-8.43-.33-.84.68-1.34,1.56-1a14.27,14.27,0,0,0,4.54,1c4.61.28,10-4.87,11.57-8,.6-1.2-.07-2.1-1.43-2-3.14.32-6.27.72-9.39,1.09-1,.12-1.89.36-1.45-1.24a2.41,2.41,0,0,0-.52-2.09c-1.5-1.7-1.06-3.72-1.15-5.66,0-.79.06-1.59,0-2.37-.8-6.48-.51-13-1-19.51-.26-3.76,0-7.63-1.11-11.25-2-6.92-2.91-14.06-4.3-21.1a3,3,0,0,1,.39-1.79c2.21-5.11,2.12-9.7-3.39-12.81-3.75-2.12-7.71-2.59-11.7-.47a1.61,1.61,0,0,1-2.26-.28,1.92,1.92,0,0,0-.9-.59c-3.19-.72-6.12-2.29-9.31-3-.81-.18-1-.39-.83-1.25.42-1.68,1-3.31,1.52-5s1.85-3.32.7-5.24a.5.5,0,0,1,.18-.7,12.24,12.24,0,0,1,2-1.46c4.34-2,8.71-3.87,13.08-5.78,2.11-.92,4.51-1.23,6.51-2.2,3.38-1.64,5.21-4.21,4.64-8.57-.15-1.09-.14-2.2-.23-3.29-.08-.92.39-1.24,1.21-1.23a8.81,8.81,0,0,0,2.51,0c2.32-.67,4.64-.23,7-.14,1.39.05,3.1-.3,3.57-1,.79-1.18,2-2.46,2-4,.1-3.67.85-7.29.74-11a82.13,82.13,0,0,1,.46-11.62,1.88,1.88,0,0,0-1.2-2.28c-.24-.09-.58-.23-.63-.41-.32-1.37-1.42-1.52-2.52-1.76-2.1-.46-3.87-1.32-4.33-3.73a1.78,1.78,0,0,0-1.15-1.22c-1.76-.75-3.11-2.27-4.88-2.87-3-1-3.44-2.9-3.23-5.74.3-3.86-.06-7.77.08-11.64.14-4.09.64-8.16.31-12.26-.43-5.32-.51-10.68-1.27-15.95-.81-5.63-1.55-11.28-2.71-16.86-1.23-6-2.32-11.93-4.71-17.58-2.54-6-5.72-11.49-11.06-15.46a39.67,39.67,0,0,0-6.76-4.16,38.52,38.52,0,0,0-12.3-3.41,33.61,33.61,0,0,0-6.41-.32c-1.53.14-1.75-.14-1.48-1.66.6-3.3,1.33-6.59,1.06-10-.22-2.72-.58-3.22-3.28-3.93a3.17,3.17,0,0,1-.46-.07,3.38,3.38,0,0,1-2.25-2.8c-.14-1.42.84-2,1.94-2.56a4.37,4.37,0,0,1,3.66.23,10.67,10.67,0,0,0,6,.61,4.73,4.73,0,0,0,3.84-4.34c.22-1.94-.67-3.06-2.85-4a8.69,8.69,0,0,0-7.86.51c-2.62,1.4-4.2.77-5.33-2-.17-.44-.38-.87-.51-1.33-.44-1.54.19-2.25,1.78-2.26,1.84,0,3.3,1,4.88,1.65,2.23,1,3.83.78,4.75-.48,1.17-1.61.9-3.48-.5-5.33-1-1.29-2.52-1.68-3.62-2.73-.28-.27-.91-.33-.73-.87s.67-.37,1.09-.29a1.54,1.54,0,0,0,1.81-1.16c.52-1.49-.14-2.65-1.21-3.65a2.18,2.18,0,0,0-2.76-.27,2.85,2.85,0,0,0-1.74,3.17,6.31,6.31,0,0,0,3.34,4.86,9.73,9.73,0,0,1,2.91,2.38,2.66,2.66,0,0,1,.15,3c-.47.91-1.38.42-2.13.25a7.13,7.13,0,0,1-1.89-.76,10.72,10.72,0,0,0-5-1.31c-2.23,0-3.27,1.38-2.77,3.51.09.36.16.72.25,1.08,1.08,4.32,3.94,5.66,7.94,3.74a7.47,7.47,0,0,1,7.11-.11,2.26,2.26,0,0,1,1,3.5,4.55,4.55,0,0,1-4.77,2c-1.9-.24-3.55-1.31-5.49-1.39-3.24-.12-5.68,2.47-4.93,5.44a4.3,4.3,0,0,0,3.76,3.14c1.58.28,2.09,1.09,2.29,2.64.51,3.91-.85,7.62-.95,11.45a.86.86,0,0,1-1,.92c-2.21-.31-4.28.41-6.37.86a19,19,0,0,0-7.58,3.7c-2.63,2.05-5.18,4.23-7.8,6.3a52.83,52.83,0,0,0-7.91,7.41,65.52,65.52,0,0,0-5.43,7.49c-2.28,3.63-4.88,7-6.63,11a55.42,55.42,0,0,0-3.54,10.72c-.7,3.24-1.92,6.31-2.53,9.56-.54,2.87-1.18,5.72-1.7,8.59s-.13,5.94-.5,8.88c-.85,6.66-1.16,13.36-1.58,20.05-.24,3.75-1.28,7-5.21,8.44a3,3,0,0,0-2,3.55c.1.75-.08,1.16-.79,1.21M356.65,509.68c-.46-1.57.3-1.85,1.66-1.84a55,55,0,0,0,10.16-1c.44-.08,1-.36,1.27.17s-.28.74-.51,1.07c-2.24,3.29-6.4,5.79-9.7,5.62a13.63,13.63,0,0,1-1.49-.34c-1.14-.38-2.63-.56-1.49-2.41a1.65,1.65,0,0,0,.1-1.24M304.72,202.16c.09-.78.46-1.51,1.3-1.52s1.13.7,1.2,1.4c.12,1.23-1,.72-1.51,1-.68.06-1.06-.21-1-.88M266.47,428.35c3.16.11,6,3.38,5.83,6.74.21,3.91-5,7.91-8,7.65a7.28,7.28,0,0,1-6.34-8c.37-4.39,2.82-6.57,8.51-6.37M250,469.2a86.38,86.38,0,0,1,3-9.36c1.32-3.3,2.35-6.71,3.6-10,.8-2.16,1.78-4.25,2.66-6.38.25-.59.54-.78,1.2-.46,1,.5,2.13.87,3.21,1.28a1.57,1.57,0,0,1,1,2.22c-1.64,5.41-3.23,10.84-4.83,16.27a57.91,57.91,0,0,1-1.73,5.71,2.65,2.65,0,0,1-2.56,1.66l-1.89-.07V470c-1,0-2,.05-3,.15-.78.08-.91-.2-.72-.9m-.31,44.2a53,53,0,0,1-7.38,3.89,6,6,0,0,1-2.62.51c-.39-.07-.95.1-1.11-.39s.34-.6.61-.83c3.3-2.76,6.3-5.89,10.17-7.91.89-.47,1.6-.82,1.52.69a.6.6,0,0,0,0,.31c1.53,1.9.23,2.75-1.24,3.73m2.3-26.58c-.41-4.07-1-8.12-1.16-12.21,0-.87-.13-1.68-1.14-2a.68.68,0,0,1-.42-.78c.08-.45.47-.25.76-.3a18.64,18.64,0,0,1,5.48,0c.87.11,1.55.39,1.61,1.54a173.48,173.48,0,0,0,2.62,23.28c.24,1.3-.08,1.75-1.4,1.93a8.32,8.32,0,0,0-4.22,2.24c.33-1.4-.91-1.95-1-3.05-.29-3.55-.77-7.09-1.13-10.64m10.62,38.35c0,.68.1,1.36.16,2-.09.39.2.94-.3,1.12s-.75-.33-1-.63a6.34,6.34,0,0,1-1.22-1.81c-1.19-3.5-3.08-6.79-3.21-10.62,0-.53-.44-1.22.51-1.34.77-.1,1.75-.69,2.16.5,1.22,3.51,2.73,6.94,2.9,10.74m.33-17.13a15.62,15.62,0,0,1-3.4,3.24,4.46,4.46,0,0,1-7.2-3.83c.56-5.4,4.39-8.41,8.52-7.4a3.25,3.25,0,0,1,2.57,3.95c-.07.32-.2.67,0,.9,1.14,1.27.3,2.22-.5,3.14m10.18,1.62a14,14,0,0,1-6.74-1.29,2.25,2.25,0,0,1-.82-2.93c.32-.47.77-.25,1.15-.19,2.59.41,5.13,1.07,7.74,1.46a33.15,33.15,0,0,0,3.52.12c-1.48,1.72-2.83,2.76-4.85,2.83m3.79-4.46a87.54,87.54,0,0,1-10.41-1.71c-.83-.19-1.09-.66-1.48-1.36-2.28-4.06-2.09-8.59-2.52-13s-1-8.77-1.57-13.14a14,14,0,0,1,.35-6.8,54,54,0,0,1,3.53-8.76c.77-1.35.87-2.91,1.32-4.36.11-.34.05-.86.48-.9s.6.53.7.92c1.08,4.28,2.44,8.47,3.8,12.67,1.58,4.85,2.25,9.91,3.28,14.88.63,3.07,1,6.19,1.75,9.25a24.4,24.4,0,0,1,.65,6.07c-.05,2.11.11,4.25,1.6,6-.43.44-1,.26-1.48.21m8.38,19.3c-2.43-2.49-2.93-6.26-1.24-10.1a8.63,8.63,0,0,1,8.27-5.11c1,0,1.54.39,1.46,1.5-.11,1.36-.12,2.72-.17,4.09a58.49,58.49,0,0,0,.3,8.78,3,3,0,0,1-2.81,2.82c-2.08-.21-4.18-.31-5.81-2m4.6,5.15c-.3-1.7-.31-1.7,1.44-1.6,2,.11,2.23.32,2.3,2.29.2,5.39.44,10.78.63,16.17.07,1.82.07,3.64,0,5.46,0,1.16-1.18,2.46-2,2.45a3,3,0,0,1-2.88-2.63c-.07-2.2-.12-4.41,0-6.61.23-4.81.13-9.63.61-14.43a4.08,4.08,0,0,0-.08-1.1m7.4,74.22a2.45,2.45,0,0,1,1.77,1.86c.93,3.23,2,6.42,2.65,9.73a20.35,20.35,0,0,1,.76,4.33,4.3,4.3,0,0,1-1,3.07c-3,3-6.52,5.06-10.93,5.11a15.07,15.07,0,0,1-7.56-2.51c-2.8-1.82-3.47-3.63-2.44-6.8a96.87,96.87,0,0,1,5.8-13.25,1.73,1.73,0,0,1,.25-.41c.44-.5.69-1.41,1.38-1.39s.48,1,.81,1.53c.66,1,1,2.39,2.3,2.87a3.46,3.46,0,0,0,4.51-1.78,2.76,2.76,0,0,1,.42-.84c.5-.48.37-1.68,1.31-1.52m-2.71-22.38c0,1-.08,2.1-.12,3.15-.64,4.74.13,9.56-.86,14.28-.28,1.33.09,2.74-.31,4.07-.1.32-.12.82-.58.82s-.49-.51-.56-.83a52.25,52.25,0,0,1-1.15-9.82c-.1-4.92-.89-9.83-.71-14.76.12-3.57-.2-7.11-.11-10.66,0-.87.17-1.18,1.16-1.11,2.93.21,2.95.15,3.33,3.07.52,3.93,0,7.86-.09,11.79m3.4-29.38c.41-1.57.9-1,1.58-.49a4.91,4.91,0,0,1,1.79,2.91A9.58,9.58,0,0,1,299,563.3c-1.56,1.74-3.6,2-5.78,1.86-3.45-.28-6.68-1-9.14-3.82a5.84,5.84,0,0,1-1.45-5,10.51,10.51,0,0,1,1.58-4.88c.24-.32.48-.82,1-.69s.27.71.29,1.09c.14,3.17,2.45,5.82,5.45,5.83,3.55,0,6-1.55,7-5.54m11.14-26.74a38.53,38.53,0,0,0-8.91.37c-1.37.2-1.89-.16-2.07-1.8-.64-5.91-.17-11.85-.84-17.75a8,8,0,0,0,0-1.1c-.14-1,.26-1.31,1.22-1.3,2.36,0,4.73,0,7.09,0a37.84,37.84,0,0,0,4.88-.15c.34,0,.84-.19.75.44a115.33,115.33,0,0,0-.56,11.9c-.08,2.63-.32,5.25-.17,7.88.06,1-.17,1.58-1.36,1.49m9.5,48.79a23,23,0,0,0-.18-4.54c-.22-.94.25-1.39,1.24-1.17a10.49,10.49,0,0,0,1.25.2c2.29.22,2.35.22,2.25,2.56-.2,4.93-.55,9.86-.34,14.79s-.38,10-.19,14.94a12.36,12.36,0,0,1-.77,5,5.6,5.6,0,0,1-.47-2.74c0-3.53-1.33-6.91-1.37-10.43-.07-6.25-1.21-12.41-1.42-18.64M327,605.33c2.6,1.45,3.78,3.91,4.61,6.53s1.45,5.26,2,7.93a4,4,0,0,1-.8,3.54,23.08,23.08,0,0,1-8.12,5.82c-1.17.56-2.48.3-4,.32-2.67-.38-5.64-.63-7.87-2.89a5.3,5.3,0,0,1-1.52-4.61c.65-5,2.78-9.42,4.89-13.88.22-.47.52-1.09,1-1.09s.65.74.78,1.21c.8,2.83,4,2.24,6,.22a5.15,5.15,0,0,0,1.47-2.56c.21-1,.69-1,1.48-.54m-.9-49.71c.66-1,1-.85,1.73-.1,3.68,3.59,2.47,9.23-3.06,11a9.59,9.59,0,0,1-3.67.63c-4.27-.07-7.74-3.59-7.6-7.44.07-1.76,1.25-3,2-4.37.38-.7.73-.2,1,.24,1.55,2.5,4.14,2.62,6.63,2.66,1.54,0,2.2-1.51,2.95-2.6m-3.42-2.56c.66.66.86,1.34-.19,1.63a1.75,1.75,0,0,1-2.33-1.08c-.6-2.38-1.53-4.72-1.38-7.24,0-.69.05-1.37.08-2h.09q-.33-6-.67-12.11c0-.73-.1-1.47-.1-2.2,0-3.44,0-3.41,3.33-4.37.82-.23,1.07,0,1.14.71.2,2.34.45,4.69.6,7,.36,5.51.64,11,.61,16.53,0,.87.54,2.07-1,2.4a.44.44,0,0,0-.2.76M316,510.29c4.89-.92,6.19.89,9,5.37,1.41,2.23-.47,6.8-2.88,8-2,1-4,1.8-6.26.62-1.2-.63-1.76-1.34-1.52-2.67a11.16,11.16,0,0,0,.06-1.42,82.28,82.28,0,0,0,.29-8.6c0-.94.4-1.14,1.3-1.31m11.49-17.71c-.9,2.81-1.1,5.77-1.83,8.62a1.4,1.4,0,0,1-1.61,1.26c-2.79,0-5.57.06-7.39.09-7.62-.21-14.27.21-20.92.17a117,117,0,0,0-13.5.75c-.84.09-1.15-.28-1.27-1-.42-2.59-.86-5.18-1.3-7.77-.18-1,.62-1.09,1.26-1.21a63.94,63.94,0,0,1,10.49-1.18c6.36-.1,12.7-.45,19.05-.81,4.55-.27,9.09,0,13.63.06.79,0,1.57-.2,2.35-.24s1.34.35,1,1.26m15.73,20.91c-2.13.29-4.3.17-5.82.47a4.13,4.13,0,0,1-4.34-2.37c-.36-.65-.26-1,.48-1.07a105.61,105.61,0,0,0,11.31-2.08c.82-.19,1.21.09,1.09,1a2.66,2.66,0,0,0,0,.63c.25,2.88.16,3.06-2.72,3.45M353,530.82c-.9.12-.84-1.39-1-2.2-.4-3-1.33-5.83-1.37-8.85a9,9,0,0,1,.47-2.93,1,1,0,0,1,1-.79c.49,0,.66.48.77.88a11.51,11.51,0,0,1,.1,3.61c-.09,2.63.35,5.23.49,7.85,0,.87.58,2.28-.54,2.43m-1.57-16a3.22,3.22,0,0,1-3.15-1.93,10.09,10.09,0,0,1-.61-3.66c.35-1.76.22-3.67,2.15-4.69,1.06-.55,4.14.18,4,1.16a4,4,0,0,0,1,3.19c.91,1.36-1.82,5.59-3.43,5.93m3.07-32.11c.44,4-.82,8,0,11.88.53,2.63,0,5.22.21,7.82.08,1.05-.35,1.21-1.21.72a4.17,4.17,0,0,0-2.7-.68c-.94.14-1.07-.47-1.08-1.14q-.06-12.91-.1-25.84c0-.16-.07-.39,0-.45,1.07-.85,2.3-.09,3.44-.3.56-.1.89.17.93.77.18,2.41.37,4.81.55,7.22m-3.16-23.26c.67,3,1.63,5.85,2,8.88.16,1.24.21,2.49.42,3.74.33,2-1.41.84-2,1.23-2.73-.2-2.67-.22-3.39-2.72-2-7.11-4-14.23-5.84-21.39-.34-1.32-.7-2.64-1.09-3.95-.19-.64-.25-1.13.65-1.2,1.61-.11,3.24-.07,4.71-1,.56-.35.77.19.91.7q1.15,4.17,2.35,8.32c.69,2.41.72,4.94,1.28,7.39m-11.83-29.62a4.21,4.21,0,0,1,4.48,0c1.74,1.18,3.56,2.26,4.47,4.31a5.19,5.19,0,0,1,.52,2.44c-.48,4.48-3.27,6.19-7.59,5.84-3-.25-4.9-2.08-5.29-4.34-.57-3.34.83-6.94,3.41-8.23m-12.86-1.47c2.5.94,5,2,7.48,2.93.77.29,1.08.62.8,1.5a18.2,18.2,0,0,0-.58,2.94,6.71,6.71,0,0,0,3.85,7.53c1.47.63,1.54,1.5,1.2,2.7-.49,1.72-.95,3.45-1.58,5.12-2.38,6.41-3.51,13.14-5.15,19.75-1.12,4.48-2.29,9-3.43,13.43-.32,1.27-.6,2.54-1,3.8a1.85,1.85,0,0,1-2,1.53c-4.1.12-8.21.22-12.31.44-10.17.56-20.35,1.18-30.53,1.76-.41,0-.84,0-1.26,0-.91,0-2,.77-2.66.07s-.48-1.77-.68-2.69c-1.45-6.66-2.29-13.49-4.31-20-1.87-6.06-3.68-12.15-5.87-18.12-.71-1.95-1.44-3.87-2.31-5.74-.55-1.18.27-1.29,1-1.6,4.17-1.73,6.62-4.56,6.68-8.83a6.44,6.44,0,0,0-.54-2.92c-.46-1-.06-1.2.76-1.53,3.46-1.38,7.06-2.41,10.32-4.25.82-.47,1.85-.31,2.65-.95.49-.38.68-.66.42-1.29-1.09-2.62-1.67-5.43-2.95-8-.16-.31-.47-.68-.17-1s.65.13,1,.19c3,.63,5.64,2.42,8.54,3.39a22.8,22.8,0,0,0,10.35,1.24A53.14,53.14,0,0,0,319.68,415c.33-.15.68-.27,1-.39s.76-.28,1.06,0,.23.78.09,1.19c-1,3.07-2.06,6.15-3.16,9.21-.55,1.53-.24,2,1.8,1.88a25.74,25.74,0,0,1,6.18,1.47m33.76-68.09c4.88,1.57,4.13.21,4,5.49-.11,4-.31,8.08-.46,12.12h-.24c-.07,1.74-.18,3.47-.19,5.2,0,.91-.37,1.21-1.24,1.15-4-.26-3.79.89-3.77-3.66,0-5.13.31-10.27.45-15.41,0-1.21,0-2.42-.1-3.62s.26-1.67,1.55-1.26m-12-9c1-.74,1.84.9,2.85,1.35s1.89,1.14,2.91,1.53c2.77,1,3.5,3.2,3.42,5.86,0,1.21-.09,2.41-.14,3.62.13,6.27-.58,12.55-.2,18.83.08,1.41-.45,1.85-1.8,1.84-1.84,0-3.67.11-5.5.21-1,0-1.31-.38-1.32-1.31-.18-9.54-.39-19.07-.56-28.61,0-1.15-.27-2.87.34-3.32m-1.61-12.49c.05,5.36,0,10.72,0,16.07,0,4.42.16,8.83.18,13.24,0,3.5.21,7,.07,10.52a89.37,89.37,0,0,0,.24,9.38c.18,2.67-.12,5.36-.12,8a1.5,1.5,0,0,1-1,1.57c-5.06,2.34-10,4.88-15.17,7-4.12,1.7-8.09,3.76-12.12,5.67A59.37,59.37,0,0,1,307.08,415a17.46,17.46,0,0,1-8.68-.5,88.72,88.72,0,0,1-11.14-3.84c-5.69-2.4-11.55-4.37-17.17-6.94-3.62-1.65-7.28-3.23-10.92-4.85l-.15,0c-.83-.36-2.12.1-2.51-.88-.3-.75.08-1.75.07-2.64,0-1.73-.05-3.47-.17-5.19-.07-1,.27-1.46,1.24-1.62,3.41-.59,6.85-.86,10.29-1.16s6.8-.51,10.19-.75c.83-.05,1.67,0,2.5-.05.63,0,.74.46.86.94.73,2.94,2,5.77,1.62,8.93-.1.83.61,1.76,1.48,1.25,1.85-1.11,3.9-.92,5.81-1,8.35-.22,16.71-.21,25.07.13,2.4.1,4.77,0,7.14.71,1,.3,1.39-.88,1.51-1.8a68.29,68.29,0,0,1,1.06-7.65,1.67,1.67,0,0,1,1.68-1.5c4.52-.37,9-.62,13.52.33,1.41.3,2.84.07,4.24.28a.83.83,0,0,0,1.08-.81c.06-.56-.35-.86-.89-.88-1.1-.06-2.21-.09-3.31-.14-4.83-.3-9.66-.4-14.5-.34-2.95,0-3.09.22-3.7,3.1-.46,2.18-.29,4.41-.67,6.59-.14.76-.24,1.4-1.25.73a4,4,0,0,0-2.32-.29c-5.83,0-11.67.09-17.51,0-2.78,0-5.55.07-8.33.14a1.32,1.32,0,0,1-1.57-1.33,18.8,18.8,0,0,1,.05-6.26,34.24,34.24,0,0,0,.54-6.88c.1-7.72.56-15.42.42-23.14-.09-5.4.07-10.82.16-16.23.09-5.18-.26-10.38-.28-15.58,0-.93.13-1.55,1.34-1.62,3.77-.23,7.53-.71,11.3-.89,5.23-.25,10.46-.49,15.7-.4,4.66.08,9.32-.14,14-.12,3.45,0,6.9.21,10.35.33,1.07,0,1.38.41,1.37,1.64-.05,4.68.19,9.35.24,14m-52.71-85a51.28,51.28,0,0,1,6.95-2.76c1.48-.36,3-.64,4.47-1s3,.12,4.55.11a23.89,23.89,0,0,1,15.72,5.26c4.25,3.4,8.41,7.17,11.08,12.39,3.86,7.53,5.64,15.51,7.11,23.69,1.06,5.9,1.37,11.88,2.17,17.81.35,2.58-.09,5.32.09,8,.05.68,0,1.37.08,2,.25,2,.27,2-1.82,2-4.35,0-8.71-.23-13.07-.11-9.7.26-19.41,0-29.1.71-2.82.21-5.64.5-8.46.82-1,.11-1.45-.14-1.5-1.21-.18-3.71-.94-7.48-.51-11.11a87.77,87.77,0,0,0,.74-12.51c-.19-7.43.68-14.78.83-22.17.12-5.91-.11-11.84-.24-17.75,0-1.1.43-2.16.06-3.28-.19-.6.44-.79.85-1m-36.64,65.7c.83-8.42,1.89-16.82,4.7-24.85a108.83,108.83,0,0,1,8.43-18.25,56.82,56.82,0,0,1,10-13.12,31.52,31.52,0,0,1,6.72-5.12c.89-.49,1.68-1.36,2.61-1.93.31-.2.58-.53,1-.28s.22.67.22,1,.13,1-.32,1.33c-.78.5-.67,1.25-.68,2-.11,8.19-.52,16.39-.39,24.59.17,11,.21,22.06-.22,33.09-.05,1.41.31,2.94-.24,4.21-.76,1.75-.87,3,1.08,3.89.18.09.27.57.26.86-.12,7.88.95,15.73.24,23.62-.44,5-.08,10-.54,14.93a214.91,214.91,0,0,0-.8,28.93c0,.31.12.77-.16.87a9,9,0,0,1-4,.2c-.92-.11-1-1.21-1-2.08.1-2.61-1.08-5-1.17-7.61,0-1-.9-1.4-2-1.28q-11.82,1.33-23.64,2.62c-.56.06-1.16.12-1.11-.67.11-1.63-1.15-3.12-.44-4.62-.1-2.49-.25-4.8-.26-7.11,0-5.93.67-11.86.37-17.8-.26-5.09.1-10.18.19-15.26.13-7.4.48-14.78,1.2-22.14m-6.75,32.7c1-.35,1.9-1.1,2.9-1.56.68-.32,1.14-.2,1.14.81,0,6.82.28,13.64-.19,20.46a34.69,34.69,0,0,0,.21,6.44,32,32,0,0,1-.15,6.92,5,5,0,0,0,0,2.07c-.44-2-2-1.57-3.22-1.55-1.52,0-1.9-.41-1.77-2a142.71,142.71,0,0,0-.06-14.33c-.09-5-.16-10.08-.24-15.12a1.91,1.91,0,0,1,1.39-2.15m-3.48,5.81c.84-.29.7.37.71.79.05,1.83.07,3.67.1,5.51H248q.17,9.58.34,19.17c0,2.06,0,2.07-2,2.08-3.32,0-3.38,0-3.77-3.27a95.8,95.8,0,0,1-.72-15.7,60.79,60.79,0,0,0-.15-6.75c-.07-1.05.15-1.4,1.24-1.38a12,12,0,0,0,4.33-.45" transform="translate(-235.38 -199)"/><path class="cls-2" d="M326.78,363.1c-2.14-.5-4.74,2.49-4.94,5.16a4.87,4.87,0,0,0,4.45,5.17,5.44,5.44,0,0,0,4.11-8.52,6.27,6.27,0,0,0-3.62-1.81m-.52,8.86c-1.51-.12-2.61-1.69-2.51-3.6.08-1.51,1.41-3.21,2.47-3.16,2.68.1,3.41.77,3.29,3s-1.65,3.88-3.25,3.76" transform="translate(-235.38 -199)"/><path class="cls-2" d="M315.35,427.53a27.63,27.63,0,0,1-10.3,1c-4.53-.32-9.18-.17-13.4-2.36-.48-.25-.95-.22-1.18.35s.16.86.63,1.06l.87.37a35.48,35.48,0,0,0,11.56,2.29,37.46,37.46,0,0,0,12.35-.88c.73-.2,1.34-.46,1.12-1.37-.26-1.08-1-.65-1.65-.47" transform="translate(-235.38 -199)"/><path class="cls-2" d="M278.62,371.23a5.23,5.23,0,0,0,5.64-5.22c.07-2.87-2.2-5.55-4.7-5.58s-5.31,3-5.33,5.57c0,2.81,2,5.22,4.39,5.23m1.07-9.21c1.48.14,2.79,2.06,2.68,3.91s-1.91,3.88-3.53,3.78c-1.8-.11-2.86-1.71-2.71-4.07.11-1.57,2.25-3.75,3.56-3.62" transform="translate(-235.38 -199)"/><path class="cls-2" d="M294.73,622c-1.1,0-2.2,0-3.3,0-2.16,0-4.31,0-6.21-1.21-.66-.44-1.31-.65-1.73.12s.28,1.17.91,1.49a13.09,13.09,0,0,0,6.59,1.12c1.3-.1,2.6.33,3.9,0,.44-.11,1-.26.92-.89s-.59-.64-1.08-.64" transform="translate(-235.38 -199)"/><path class="cls-2" d="M316.54,620.75A1.05,1.05,0,0,0,315,621c-.39.74.35,1,.81,1.28a17.45,17.45,0,0,0,5.56,1.51c2.84-.22,5.61-1.24,8.48-1.82.34-.06.74-.35.61-.78s-.44-.89-1-.83a11.51,11.51,0,0,0-1.36.38c-3.85.85-7.68,2.51-11.55,0" transform="translate(-235.38 -199)"/></svg>