<svg id="Layer_1" data-name="Layer 1" xmlns="http://www.w3.org/2000/svg" viewBox="0 0 254.55 477.47"><defs><style>.cls-1{fill:#fff;}.cls-2{fill:#010101;}</style></defs><path class="cls-1" d="M241.82,239.84A34.62,34.62,0,0,0,259.11,249c10.4,2.25,20.07-.47,28.8-5,8-4.15,15.3-10.2,19.44-18.9a20.69,20.69,0,0,1,1.35-2c2.05-3.21,3.62-6.77,3.52-10.5a45.38,45.38,0,0,0-2.11-14.13c-3.52-9.94-9.38-17.65-19.69-21.42a42.42,42.42,0,0,0-15.56-2.64c-5.42.11-10.62,1.51-15.9,2.49a17.84,17.84,0,0,0-7.93,3c-3.76,2.93-7.28,6.16-10.89,9.28a3.46,3.46,0,0,0-.9,1.15c-2.08,4.66-5,8.85-5,14.47,0,4.33-.77,8.75-1,14.13-.93,7.8,2.41,14.94,8.53,20.9m43.25-30.43c3.75-3.57,8.42-3.94,13.16-1.8,2.73,1.23,5.93,5.69,5.75,10.09-.22,5.18-1.66,9.93-6.12,13.25a10.55,10.55,0,0,1-7.08,2.22c-5.07-.14-8.88-4-9.94-10.29a14.46,14.46,0,0,1,4.23-13.47m-34.25-1.93c7.39-2.9,19,1.21,18.24,12-.09,5-1.09,9.68-5.27,13.1a7.54,7.54,0,0,1-2.51,1.38c-7.41,2.4-17-.73-18.7-10-1.34-7.24,1.75-13.94,8.24-16.49" transform="translate(-163.57 -167.21)"/><path class="cls-1" d="M250.89,231.53c2.9,2,8.38,2,10.25.28,3.5-3.14,6.46-6.56,5.48-11.05.43-6-.7-8.64-5.45-10.65-8.64-3.67-16.28,1.72-16.73,10.51-.27,5.37,2.75,8.32,6.45,10.91" transform="translate(-163.57 -167.21)"/><path class="cls-1" d="M217.91,248.49c0,7.55,2.19,14.67,4.64,21.67,2,5.74,6.73,9.51,11.07,13.4a134.39,134.39,0,0,0,10.93,8.51,87.8,87.8,0,0,0,13,7.79c3.07,1.5,3.7.92,3.43-2.41-1-12.95-3.13-25.8-3.62-38.8-.05-1.22-.59-1.59-1.65-2-2.55-1-5.48-.92-7.75-2.8a22.31,22.31,0,0,0-5-3.45c-3.85-1.67-6.47-4.93-9.36-7.6-3.82-3.52-4.64-9-5.77-14-.09-.42-.28-1,.39-1.21a1.23,1.23,0,0,1,1.27.56c1.2,1.45,1.35,3.31,1.87,5,.69,2.24,1.14,4.58,2.77,6.4a56.83,56.83,0,0,0,20.42,14.64,7.43,7.43,0,0,0,2.6.65c1.89,0,1.53-1.83,2.08-2.86.44-.82-.39-1-1.12-1.06a19.16,19.16,0,0,1-9.76-3.3c-4.45-2.77-8.87-5.48-11.61-10.12-1.68-2.84-4-5.26-4.76-8.7A39.41,39.41,0,0,1,231,216.9c.2-2.29-.5-2.19-2.25-1.34-2.79,1.35-5.06,3.28-6,6.15-2.53,7.58-5.22,15.17-4.75,23.41,0,1.1,0,2.23,0,3.37" transform="translate(-163.57 -167.21)"/><path class="cls-1" d="M259.75,259.26c.07,6.71.94,13.36,1.28,20.06.36,7,1.67,13.94,2.5,20.91a1.29,1.29,0,0,0,1.33,1.36,81.06,81.06,0,0,0,11.32,1.08c6-.43,13.2-1.14,19.49-5.41.6-.41,1.55-.49,1.38-1.87q-.89-7.26-1.33-14.59c-.5-8.32-1.87-16.55-2.71-24.83-.09-.87.09-2.07-1.67-1.46a63.06,63.06,0,0,1-30.1,3.34c-1.32-.19-1.5.24-1.49,1.41" transform="translate(-163.57 -167.21)"/><path class="cls-1" d="M283.3,224c.32,4.59,6.51,8.15,10.79,6.51,4.66-1.78,6.32-5.46,7.17-9.88.66-3.42.36-6.71-2.06-9.37-2-2.25-4.89-3.41-7.74-2.46-3.79,1.27-7.44,3.17-8.06,7.87a15.08,15.08,0,0,0-.19,4.88c0,.81,0,1.63.09,2.45" transform="translate(-163.57 -167.21)"/><path class="cls-1" d="M176.39,376.45c1.1.15,1.3-.68,1.43-1.56,1.21-8.62,3.7-17,5.11-25.59,1-6.16,2.75-12.21,4.19-18.3.22-1,.61-2-.32-2.72-1.25-1-2.55-1.94-4-3-4.56,17.25-8.39,34.42-12.33,51.88,2.4-.27,4.11-.92,5.93-.67" transform="translate(-163.57 -167.21)"/><path class="cls-1" d="M197.53,317.86c2.54,6.8,5.93,13.19,8.79,19.84a219.09,219.09,0,0,0,10.37,20.45c3.31,5.92,4.88,12.85,10.48,17.6,2.05,1.74,3.19,4.81,4.52,7.44a82.78,82.78,0,0,0,6.89,11.67c3.19,4.32,5.93,8.94,9.2,13.23,4.3,5.62,8.43,11.35,13.61,16.17,2.44,2.28,4.67,4.93,8.3,5.81a13.81,13.81,0,0,1,4.67,2,10.55,10.55,0,0,0,11.64.66,85.73,85.73,0,0,0,14.51-11.45c4.82-4.68,8.15-10.49,12.24-15.73,1.68-2.15,2.55-5,4.33-7,2.5-2.87,3.86-6.32,5.8-9.47,1-1.66,2.33-3.31,2.77-5.14,1.28-5.29,4.33-9.79,6.28-14.78s4.42-9.52,6.32-14.46a151.46,151.46,0,0,0,5.4-15.2c1.77-6.54,5.23-12.51,7-19.07a35.67,35.67,0,0,1,1.63-4.59c1.88-4.24,2.27-8.83,3.45-13.23,1.86-6.91,4.13-13.73,4.64-21,.56-8-1.83-15.15-5.82-21.81-1.79-3-5-4.57-7.9-6.52-3.22-2.16-6.74-3.61-10.1-5.35-2-1-3.65-2.64-6-3.12-1.81-.37-2.23-.12-2.24,1.76a65.11,65.11,0,0,1-1.82,16.24c-1.17,4.35-4.08,7.93-6.68,11.47-3.41,4.63-5.28,10.29-9.63,14.26a24.17,24.17,0,0,0-3.33,3.13c-2.71,3.61-6.66,5.76-10.36,7.76-6.7,3.62-13.85,6.15-21.87,5.84a53.57,53.57,0,0,1-31.09-11.38,127,127,0,0,1-12.43-10.19c-3.56-3.49-7.59-6.26-9.79-11.2-2.71-6.13-5-12.22-5.23-19.32-7,3-14.21,5.25-19.32,11.16-.83,1-2.15,1.45-2.81,2.66-3.18,5.94-4,12.47-3.86,19,.2,11.08,3.52,21.53,7.38,31.86" transform="translate(-163.57 -167.21)"/><path class="cls-1" d="M201.69,333.05c-6.27-15.14-13.66-29.92-13.56-47-6.91,5.6-12,18.29-8.57,28.71,2.81,8.47,15.07,18.65,22.13,18.33" transform="translate(-163.57 -167.21)"/><path class="cls-1" d="M394.47,380.2c-1.31.35-1.84.45-2.14,1.83-.72,3.34-1.62,6.66-2.6,9.94-1.53,5.18-2.16,10.58-3.65,15.73-1.8,6.26-2.05,12.72-3.38,19-.12.55-.37,1.32.53,1.66,2.28.88,4.47,2,7,2.16,1.84-.31,3.7-.52,5.5-1a42.41,42.41,0,0,0,10.16-4.12c1.87-1,3.64-2.12,5.39-3.28.63-.41,1.31-.87.82-1.77-2.28-4.21-2.75-9-4.45-13.39-3-7.75-5-15.84-8.42-23.44-1.06-2.34-1.42-4.29-4.77-3.39" transform="translate(-163.57 -167.21)"/><path class="cls-1" d="M408.29,426.46c-4.69,3.62-10.32,4.63-16,5.49a8.84,8.84,0,0,1-4.13-.17c-2.07-.71-2.93.09-3.31,1.9-.82,3.83-1.55,7.68-2.36,11.51-.31,1.46.43,2.53,1.15,3.61a1.85,1.85,0,0,0,2,.75c.92-.18.58-1.05.63-1.63.12-1.3,0-2.63.22-3.92.31-2.26.73-4.51,1.18-6.75.15-.77.68-1.43,1.54-1.28,1.08.19.74,1,.63,1.77-.3,1.93-.73,3.85-.87,5.8-.29,4-1.43,8-1.05,12.16.21,2.33,1,4.08,3.33,4.92,7,2.52,13.21-.2,19-3.44,4.06-2.28,5.62-6.6,5.29-11.74.1-.87-.18-2.08-.2-3.29-.09-5.52-3.6-9.95-4.67-15.15-.29-1.4-1.2-1.44-2.37-.54" transform="translate(-163.57 -167.21)"/><path class="cls-1" d="M283.53,465.83c-2.84,1.53-6.17,1.21-8-.68-2.72-2.85-3.39-6.21-1.65-9.66,1-2,.14-1.92-1.3-2.05-6-.52-11.8-1.55-17.24-4.21-1.83-.9-3.62-1.88-5.5-2.66-.58-.25-1.76-1.16-2,.15-.65,3.64-3.67,5.28-6.08,7.31-3.74,3.16-7.6,3.3-11.68.85-3.83-2.31-7.64-4.65-10.34-8.38a2.6,2.6,0,0,0-2.55-1.17c-.85.22-.73,1.37-.85,2.14a13,13,0,0,0,15.1,14.74c2-.35,3.44-1.61,3-4-.08-.49-.09-1,.55-1.19a1,1,0,0,1,1.2.56c2.12,4,5.66,6.66,9.07,9.34,5.19,4.06,11.2,6.76,17.32,9.15,6.38,2.48,13,3.94,19.59,3.45,5.79.42,11.33.3,16.42-1.93a141,141,0,0,0,16.39-8,44.19,44.19,0,0,0,12.24-10.5,14.43,14.43,0,0,0,3.23-11.21c-.5-3.63-1.94-4.3-5.26-2.56-3.16,1.65-6.3,3.37-9.59,4.71a59.78,59.78,0,0,1-21.53,4.08c-.9,0-2.06-.41-2.23,1.16-.57,5.29-4.08,8.28-8.4,10.59" transform="translate(-163.57 -167.21)"/><path class="cls-1" d="M262.37,255.78c2.45.11,4.91.08,8,.11,6.38.65,13-.8,19.46-3.45,1.7-.69,3.1-1.21,1.21-3.21a4.63,4.63,0,0,1-1-1.95c-.42-1.51-1-1.41-2.25-.71a37,37,0,0,1-12,4,63.22,63.22,0,0,1-13.17,1c-2.62-.08-1.62,2.09-2,3.19-.53,1.52,1.06,1,1.76,1.06" transform="translate(-163.57 -167.21)"/><path class="cls-1" d="M386.81,371.18c.29,5.45,2.32,7.53,7.15,7.35,3-.11,6.94-5,6.69-8.22s-3.86-5.71-7.85-5.61a6.67,6.67,0,0,0-6,6.48" transform="translate(-163.57 -167.21)"/><path class="cls-1" d="M293.17,243.65c-1.67,1.29-1.52,2.22-.67,3.62a10.31,10.31,0,0,1,1,1.67c.51,1.35,1.12,1.23,2.15.47a74.08,74.08,0,0,0,13.08-12.62,41,41,0,0,0,5.19-8.83c.31-.66.64-1.47,1.62-.9.79.45.33,1.05.19,1.69-.93,4-3.44,7.31-5.94,10.29-4.1,4.87-8.25,9.88-14.08,12.93a1.68,1.68,0,0,0-1,2c.38,2.5.59,5,1.08,7.5a108.24,108.24,0,0,1,1.85,14.8c.37,6.09,1,12.16,1.51,18.73,5.29-3.32,9-7.56,12.59-12s6.28-9.65,9.45-14.45a28,28,0,0,0,4.88-13.45c.59-8.89.82-17.8-.39-26.67-.71-5.19-2.63-9.61-7.21-12.62-3.11-2.05-3.43-2-4.87,1.34-.16.38-.26.77-.39,1.16a46.53,46.53,0,0,1-8.45,15c-3.26,4-7.54,7.12-11.62,10.3" transform="translate(-163.57 -167.21)"/><path class="cls-1" d="M355,313.39c-.42,1.55-.3,3.17-1,4.73a85.45,85.45,0,0,0-3,8c-.15.38-.32.8.05,1.13s.76.18,1.13,0c5.83-2.7,11.56-5.61,16.11-10.26,5.34-5.45,6.5-12.52,7-17.78.38-5.75-1.64-9-2.71-12.46-1.39-4.56-4.76-7.42-8.19-10.28-.46-.38-1.07-1.07-1.7-.56-.32.26-.29,1-.29,1.6a64.1,64.1,0,0,1-1.92,16.84c-1.66,6.39-3.64,12.68-5.37,19" transform="translate(-163.57 -167.21)"/><path class="cls-1" d="M369.08,319.13c-1.09.91-.86,1.91-.31,3.06,2.4,5,5,9.88,7,15,3.19,8.11,6.9,16,10.14,24.07.75,1.9,1.48,4.42,4.36,2a1.66,1.66,0,0,1,1-.14c1.63,0,2-.86,1.57-2.23a22.16,22.16,0,0,0-.94-2.78c-1.44-3.28-3.41-6.4-4.29-9.82-1.52-5.87-4.14-11.32-6.23-16.94a185.21,185.21,0,0,0-7.51-18.33c-1.66,2.16-2.83,4.43-4.78,6.06" transform="translate(-163.57 -167.21)"/><path class="cls-1" d="M323.83,443.33c4.38-2.62,7.41-1.49,8.32,3.47.79,4.3-.28,8.46-2.18,12.32-.84,1.71-.66,2.62,1.1,3.28a14.94,14.94,0,0,0,8.15.65,7.91,7.91,0,0,0,3-1.78c6.28-5,4.33-14.86,1.52-20.14a10.25,10.25,0,0,0-3.14-4c-2.46-1.67-5.15-1.89-8.75-2-4.4-1-7.52,2-10,5.9-.65,1-1.88,2.59-1,3.5,1.11,1.17,2-.7,2.95-1.27" transform="translate(-163.57 -167.21)"/><path class="cls-1" d="M275.3,460.62c.14,2.31,2.62,4.52,4.87,4,3.19-.74,6.05-2,7.82-5.22,2.54-4.57,2.1-9.62,2.93-14.46.18-3.22-.68-6.34-.84-9.51-.1-1.89-.39-2.64-2.51-1.27a11.34,11.34,0,0,1-8.87,1.71c-3-.67-3.13-.57-2.17,2.3a25.31,25.31,0,0,1-.72,18.36,9.09,9.09,0,0,0-.51,4.09" transform="translate(-163.57 -167.21)"/><path class="cls-1" d="M205.57,429.71a9.3,9.3,0,0,1,1.07-8.2c2.15-3.27,3.17-7.41,7.54-8.87a16.4,16.4,0,0,1,6.7-.86c1.52.13,1.7-.44,1.43-1.67a7,7,0,0,0-.76-2c-3.2-5.64-8.25-9.25-13.86-11.93a162.38,162.38,0,0,0-21.47-8.65,14.44,14.44,0,0,0-6.69-.84c-1.94.31-3.32,1.38-3.4,3.56,0,1,0,2,0,2.94-.5,4.58,1.48,8.59,3.11,12.66a102.24,102.24,0,0,0,7.45,14.59c3.53,5.84,7.44,11.28,13.2,15.12,2.63,1.76,5.48,3.07,8.72,1.86,1.18-.44,2.69-.88.86-2.82-1.38-1.47-3.23-2.76-3.87-4.85m-6.28.66c-1.34.11-.82-1.1-.92-1.8-1-7.14,1.71-13.09,6-18.48,1.53-1.94,3.94-2.77,5.82-3.89a1.35,1.35,0,0,1,1.41.76.91.91,0,0,1-.38,1.27,11.34,11.34,0,0,1-1.29.69c-7.19,3.8-9.58,10.19-9.64,17.85a12.17,12.17,0,0,0,.09,1.71c.12.92-.11,1.82-1.07,1.89" transform="translate(-163.57 -167.21)"/><path class="cls-1" d="M228.78,516.06c-6.81,2.38-13,5.73-17.48,11.72-3.76,5-4.36,11.7-1,16.8,2.31,3.48,5.48,6.16,9.7,6.95,6.55,1.24,13.05.93,19.1-2.18,3.17-1.63,6.56-3.34,7.46-7.25a40.15,40.15,0,0,0,.49-6.33h-.15c0-1.64.14-3.28,0-4.91a11.48,11.48,0,0,0-2.65-6.71c-2.57-3-5.34-5.79-9.42-6.86-2-.53-4-2-6.1-1.23" transform="translate(-163.57 -167.21)"/><path class="cls-1" d="M239.62,622.58a47.28,47.28,0,0,0-12.81-5.79c-1.62-.53-3.11-1.34-4.78-1.81-4.12-1.14-8.2-.73-12.37-.55a15.67,15.67,0,0,0-11.89,6q-3.2,3.81-6.18,7.79c-1.9,2.55-3.57,5.25-5.59,7.72-1.66,2-1.18,3,1.45,3.42,1.45.25,2.91.37,4.37.55,9.39-.36,18.75-.87,28.05-2.09,4.68-.62,9.31-1.61,14-2.42,3.12-.55,6.27-1,9.37-1.65,3.64-.77,4.19-2.29,2.29-5.47a19.29,19.29,0,0,0-5.88-5.71" transform="translate(-163.57 -167.21)"/><path class="cls-1" d="M230.09,471c-.1-1.3-.5-2.69-.19-3.89.65-2.56-.72-2.69-2.59-2.69-2.24,0-1.57,1.89-1.68,2.87-.77,7.47-2.62,14.75-3.92,22.12-1.5,8.55-2.46,17.09-1.48,25.77.07.62-.2,1.46.53,1.76a1.8,1.8,0,0,0,2-.72,6.58,6.58,0,0,1,3.52-1.93,12.4,12.4,0,0,1,9.73,1.09c.24-4.25-1.31-7.76-2-11.42-2-10.9-3-21.93-3.89-33" transform="translate(-163.57 -167.21)"/><path class="cls-1" d="M345.05,557.37c.19-1.38,0-1.57-1.67-1.42-4.19.36-8.45.83-12.65-.22-1.58-.4-3.42-2.12-4.48-1.35-1.24.89-.14,3.11-.08,4.75.39,11-1.81,21.76-3.82,32.51-.81,4.31-2.83,8.33-3.54,12.6a58.4,58.4,0,0,1-3.06,11c-2,5.29-2.93,10.85-4,16.37-.3,1.48.52,2,1.74,2.42,1.39.44,2-.27,2.29-1.46a43.05,43.05,0,0,1,2.43-6.37c2.29-4.9,5.16-9.11,10.5-11.25,1.66-.66,3.43-.91,5-1.78a34,34,0,0,1,16.6-4.34c1.8,0,1.78-.55,1.29-2-2.63-7.69-5.4-15.26-5.63-23.65-.23-8.62-2-17.19-.92-25.86" transform="translate(-163.57 -167.21)"/><path class="cls-1" d="M331.85,615.87c-2.67,1.07-5.59,2.2-7.25,4.36-2.93,3.83-6,7.76-6.6,12.91-.22,1.75.28,2.26,1.75,2.4,4,.37,8.07.9,12.12,1.05,6.45.24,12.9.4,20.11,1,7.94-.51,16.7-.19,25.33-1.85,1.69-.33,2.12-1,1.43-2.48a47.28,47.28,0,0,1-2.63-5.16c-1.76-5.21-5.66-8.79-9.39-12.42-4.75-4.62-10.8-5.29-17.08-4.79s-12,2.66-17.79,5" transform="translate(-163.57 -167.21)"/><path class="cls-1" d="M332.65,524.24c-.43.22-.93.3-1.38.49-9.09,4-13.94,10-12.23,20.64a3.37,3.37,0,0,0,.51,1.83,16.83,16.83,0,0,0,7.44,5.13c3,1.09,6.35,2.17,9.36,1.56,5.7,0,10.61-.47,14.89-4.46,8.24-7.67,4.53-18.95-1.93-23.54-4.88-3.46-10.76-4.6-16.66-1.65" transform="translate(-163.57 -167.21)"/><path class="cls-1" d="M225.34,449.05a35.08,35.08,0,0,0,6.94,4.39c1.53.86,3.72,1.48,5.45.63,4-2,7.74-4.37,8.66-9.3.26-1.37.58-2.72.88-4.08,1.52-6.78-2.57-12.43-9.52-13.18-1.22-.13-2.42-.41-3.64-.52-3.87-.34-6.84-3.05-10.5-3.91-1-.24-1.55-.69-1.27-1.64.38-1.26,1.25-.68,2-.3a37.6,37.6,0,0,0,7.29,2.84c.67.19,1.49.71,2.08.13.73-.74-.28-1.29-.5-1.93-1.42-4-5.24-5.05-8.5-6.74-2.08-1.09-4.06-2.28-6.68-1.89-6.72,1-9.72,7.34-10.77,12.43a5.66,5.66,0,0,0,.87,3.69,76.14,76.14,0,0,0,7.68,10,99.64,99.64,0,0,0,9.57,9.37" transform="translate(-163.57 -167.21)"/><path class="cls-1" d="M241,593.28c.17-6,.14-12.1.2-18.16h0c.07-6.7.17-13.41.18-20.12,0-3.58-.66-4-4.12-3-.31.08-.59.26-.9.37-4.6,1.57-9.26,2.69-14.17,1.76-1.48-.28-2.22.08-2.25,1.83-.11,6.72-2.15,12.91-4.77,19.08-3.78,8.89-7,18-10.28,27.1a19.58,19.58,0,0,0-1.34,9.12c.12.92.18,1.6,1.37,1.51a55.3,55.3,0,0,0,6.33-.45c4.75-.94,9.24.32,13.7,1.45,4,1,7.62,3.27,11.47,4.79,5,2,9.07,4.89,11.35,10a18,18,0,0,0,1.73,2.65.71.71,0,0,0,1.06.19c.38-.27.12-.56-.06-.83-1.34-2-1.35-4.3-1.66-6.52a91.56,91.56,0,0,0-4.22-16.27c-1.54-4.69-3.72-9.26-3.58-14.42" transform="translate(-163.57 -167.21)"/><path class="cls-1" d="M179,384.23c1.22-.16,1.17-1.18,1-2.12-.52-2.43-2.64-3.92-5.49-3.86a8.49,8.49,0,0,0-7.72,5.08c-.86,2.38.34,5.37,3.09,7.7,1.75,1.48,3.48.85,4.28-1.32.89-2.41,1.63-5,4.87-5.48" transform="translate(-163.57 -167.21)"/><path class="cls-1" d="M341,468c-.25-2.66-.3-2.61-4.52-2.16-2.2.23-1.52,1.83-1.46,3a34.31,34.31,0,0,1-.32,8.69c-2.27,11.61-4.13,23.29-5.42,35.06-.31,2.83-.8,5.65-1.22,8.58.78.58-1.11,3.59,1.9,2,5-2.54,9.88-4.78,15.45-1.63,1.34.76,2.22.8,1.73-1.38a185.74,185.74,0,0,1-3.34-21.75c-1-10.13-1.86-20.28-2.8-30.42" transform="translate(-163.57 -167.21)"/><path class="cls-2" d="M174.32,340.69c-2.64,9-3.95,18.3-6.53,27.31-.92,3.21-1.23,6.73-2.75,9.61-3.09,5.84-1.2,13.92,4.56,16.89.64.33,1.08.62,1.11,1.4.29,6.74,3.91,12.38,6.35,18.36a67.12,67.12,0,0,0,7.62,13.6c1.88,2.61,3.13,5.62,5.69,7.83a64.18,64.18,0,0,0,6.74,5.11c5.51,3.65,9.91,3.66,14.94-.65.84-.72,1.56-.74,2,.14.67,1.39,1.68,2.55,1.14,4.5-1.7,6.11-.65,11.69,4.26,16.12a3.09,3.09,0,0,1,1,2.57,110.17,110.17,0,0,1-2.55,22.6c-2,9.72-3.61,19.53-2,29.45.58,3.62-.93,5.85-3.29,7.64-5,3.81-5.72,9.41-6.8,14.89a6.59,6.59,0,0,0,.57,3.11,20.12,20.12,0,0,0,7.1,9.71c1.74,1.37,1.86,2.83,1.81,4.64a38.94,38.94,0,0,1-2.5,12.4c-2.18,5.94-4.76,11.76-7,17.68-2.65,6.91-5.55,13.72-7.15,21-.6,2.7-.53,5.48-2.33,8-2.27,3.18-5,6-7.31,9.1-.86,1.14-2.45,2-3.11,3.34-1.88,3.89-4.6,7.25-6.67,11-1.63,3-.16,5.6,3.22,6.23,4.52.83,8.94,0,13.42-.08,6.51-.17,13.05-.12,19.48-1.22,2.69-.47,5.55.08,8-.77,3.78-1.31,7.72-1.12,11.54-2,5.23-1.14,10.61-1.72,15.84-3,4.65-1.1,5.54-2.79,4.05-7.31-.15-.46-.15-1-.26-1.44-1.62-7.38-2.09-15-5.26-22.06-3.8-8.47-3.49-17.53-3-26.54.42-7.68,1.1-15.38.11-23a27.68,27.68,0,0,1,1.21-12.3c2.77-8.48,1-16.32-2.1-24.15-1.27-3.21-3.19-6.09-4.07-9.52-1.88-7.34-4-14.61-4.81-22.18-.66-6.33-.3-12.75-1.78-19a10.05,10.05,0,0,1-.06-2.2,1.5,1.5,0,0,1,.84-1.4c.83-.4.78.55,1.14.89,2.18,2.07,4.05,4.82,6.64,6,4.28,2,7.88,5,12.18,7a61.82,61.82,0,0,0,18.53,5.47c7.94,1,15.87,0,23.8-.58a1.54,1.54,0,0,0,.48-.06c5.65-2.3,11.49-4.33,16.62-7.59A85.77,85.77,0,0,0,330,465.71c.07,3.81.93,7,.37,10.29-.71,4.1-1.53,8.19-2.19,12.29-1.37,8.48-2.68,16.95-3.66,25.48-.52,4.54.5,9.54-2.29,13.58a40.55,40.55,0,0,0-4.52,7.71c-2,4.83-2.27,9.45.9,13.92a6.8,6.8,0,0,1,1.24,2.64A81.33,81.33,0,0,1,320,576a157.66,157.66,0,0,1-4.74,22.46c-2.18,7.77-3.76,15.7-6.54,23.3-1.44,3.95-1.86,8.1-2.35,12.23-.09.82-.14,2.08.58,2.23,2.21.43,3.45,2.37,5.64,3a95.87,95.87,0,0,0,19.14,2.77c8.41.54,16.85.52,25.28.6a112.45,112.45,0,0,0,21.95-2c3.16-.6,4.19-2.63,4.57-5.21a12.63,12.63,0,0,0-.4-4.82c-1.57-6.22-5.27-11.14-9.55-15.64a27.18,27.18,0,0,0-7-5.64c-2.78-1.43-5.42-3.37-8.65-3.91a1.56,1.56,0,0,1-.89-.76c-2.19-4-4.21-8.17-4.94-12.7-.95-6-1.65-12-2.13-18-.46-5.78-1.4-11.56-.5-17.38a7.66,7.66,0,0,1,2.11-4.65c2.24-2.26,4.91-4.49,5.73-7.76,1.05-4.2,1.17-8.56-1.13-12.4s-3.23-7.6-4.18-11.76c-1.93-8.4-2.4-17-3.55-25.43-.83-6.05-1.29-12.15-1.74-18.24-.21-2.76-1.2-5.44-.73-8.26,1-5.64,3.42-10.95,2.32-17a58.05,58.05,0,0,0-3-11.8c-1.56-3.83-5.24-4.76-8.55-5.95-5.46-1.94-14.81.57-16.73,7.22-.22.75-.55,1.17-1.35,1.07a3.3,3.3,0,0,0-2.23.84,18.75,18.75,0,0,1-5.58,2.42A148.8,148.8,0,0,1,294,447.37c-1.1.14-1.49-.14-1.53-1.22-.11-3.76-.26-7.52-.41-11.28,0-.69,0-1.36.74-1.65,2.57-1,4.37-3.08,6.49-4.72a52,52,0,0,0,9.34-9.29c3.23-4.17,6.3-8.48,9.17-12.9,2.57-4,5.47-7.75,7.7-11.88A154.7,154.7,0,0,0,333,378.68c3.32-8.3,7.67-16.17,10.52-24.72,1.89-5.7,4.63-11.12,5.62-17.14.22-1.38.64-2.94,2.28-3.52a69.35,69.35,0,0,0,12.93-6.23c1.1-.67,1.66-.78,2.2.49a93.14,93.14,0,0,1,3.77,8.78,191.25,191.25,0,0,0,9.5,23.28,40.6,40.6,0,0,1,2.91,8.74c.81,3.79,1.43,7.77,4.52,10.64.36.33.85.57.64,1.18-1.24,3.64-1.15,7.57-2.49,11.2a203.93,203.93,0,0,0-6,21.15c-1,4-1.82,7.94-2.6,11.94s.6,7.31,4.62,8.15c1.67.36,1.53,1.07,1.14,2.19-1.23,3.51-1.4,7.21-2,10.83-.43,2.68.75,5.27,2.77,5.66,2.46.48,2.87,2.08,2.66,3.89-.52,4.59,1.67,7,5.82,8.2a10.31,10.31,0,0,0,2.62.42,33.32,33.32,0,0,0,12.45-2.41c12-4.39,12.79-15.29,9.77-24.65-.87-2.67-2.09-5.28-2.9-8-.42-1.39-.35-2.21,1-3,1.76-1,3.22-2.41,2.81-4.67A21.9,21.9,0,0,0,416,416a129.58,129.58,0,0,1-6.38-17.68c-1.81-6.29-4.81-12.08-6.79-18.28a7,7,0,0,1-.07-5c1.78-4.41.76-8.77-2.73-12.23a9.51,9.51,0,0,1-2.58-3.51c-1.36-4-3.15-7.86-4.82-11.71-3.21-7.42-5.67-15.13-9.14-22.43-1.5-3.15-1.89-6.76-3.8-9.74-2.31-3.62-1.82-7.48-1.2-11.38.29-1.85.61-3.71.82-5.58a31.94,31.94,0,0,0-2.21-15.77c-1.56-3.88-4.39-6.64-7.37-9.35-1.72-1.56-4.22-2.2-5.43-4.28a46.54,46.54,0,0,1-3.37-8.31c-1.35-3.87-4.19-6.5-6.69-9.15A27.44,27.44,0,0,0,344,244.77c-3.64-1.34-6.51-4.35-10.44-5.21-1.26-.28-.95-1.31-1-2.18-.42-6.24-.53-12.45-3.34-18.36a27.83,27.83,0,0,0-8.46-10.6,2.33,2.33,0,0,0-2.47-.61c-1.27.57-1.41-.06-1.65-1.13-1-4.51-1.31-9.2-3.36-13.46-1.37-2.85-2.11-6.14-4-8.57a52.76,52.76,0,0,0-10.37-10,16.29,16.29,0,0,0-2.36-1.74c-7.46-3.62-15.45-5.08-23.65-5.64-3.42-.23-6.81.91-10.11,1-4.64.15-8.44,2.13-12.11,4.08a46.1,46.1,0,0,0-13.06,9.77c-3.69,4.09-6.13,8.68-8.51,13.41-1.79,3.54-1.22,7.53-1.16,11.36,0,1.55-.36,3-1.67,3.54-3.31,1.41-5.07,4.43-6.94,7-5.05,7-8.67,14.86-8.34,23.62.26,6.71-2.91,10.18-8.47,12.38a37.32,37.32,0,0,0-12,8.17c-3.66,3.54-5.64,8.22-6.79,13.27-.64,2.78,0,5.75-1.33,8.36-2.56,4.89-5.18,9.75-7.78,14.62a22.78,22.78,0,0,0-3,9.27c-.39,6.28-1.28,12.77,5.05,17.11a1.75,1.75,0,0,1,.81,1.91c-1.07,4.84-1.81,9.79-3.2,14.54M169.84,391c-2.76-2.33-4-5.32-3.1-7.7a8.49,8.49,0,0,1,7.72-5.08c2.85-.06,5,1.43,5.49,3.86.2.94.25,2-1,2.12-3.24.43-4,3.07-4.87,5.48-.8,2.17-2.53,2.8-4.27,1.32m38.74,46.35c-3.24,1.21-6.09-.1-8.72-1.86-5.76-3.84-9.67-9.28-13.2-15.12a102.24,102.24,0,0,1-7.45-14.59c-1.63-4.07-3.61-8.07-3.11-12.66,0-1,0-2,0-2.94.08-2.19,1.46-3.25,3.4-3.56a14.38,14.38,0,0,1,6.68.84,162,162,0,0,1,21.48,8.65c5.61,2.68,10.66,6.29,13.86,11.93a6.7,6.7,0,0,1,.75,2c.28,1.23.1,1.8-1.42,1.67a16.38,16.38,0,0,0-6.7.86c-4.37,1.46-5.39,5.6-7.54,8.86a9.33,9.33,0,0,0-1.07,8.21c.64,2.09,2.49,3.38,3.87,4.85,1.83,1.94.32,2.38-.86,2.82m67.95.79c-1-2.87-.84-3,2.17-2.3a11.34,11.34,0,0,0,8.87-1.71c2.12-1.37,2.41-.62,2.51,1.27.16,3.17,1,6.29.84,9.51-.83,4.84-.39,9.89-2.93,14.46-1.77,3.2-4.63,4.48-7.82,5.22-2.25.53-4.73-1.69-4.87-4a9.09,9.09,0,0,1,.51-4.09,25.31,25.31,0,0,0,.72-18.36M270,447c-6.07-1.43-12-3-17.14-6.82-2.65-2-3-1.65-3.61-5.2-.86-4.68-6.5-9.74-10.53-9.52-1.44.08-2.24-.53-2.8-2.07a15.71,15.71,0,0,0-8.75-9.32c-1-.43-1.7-1-1.16-2,2.52-4.56-.46-7.38-3-10.57-5.18-6.57-12.3-10.2-19.79-13.06-4.56-1.73-9-3.74-13.71-5.18-1.88-.58-3.24-1.93-4.69-3.62-4.23-4.91-1.23-9.61-.45-14.19,1.71-10,4-20,6.24-30.44a12.86,12.86,0,0,0,9.2,3.64,1.32,1.32,0,0,1,1.34.88c1,2.49,2.65,4.64,3.59,7.2,1,2.74,2.71,5.23,3.76,7.95,2,5.17,4.89,9.88,7.38,14.79,2.69,5.29,6.15,10.17,9.27,15.22,4.34,7,9.27,13.56,14.21,20.1,6.16,8.15,12,16.59,19.61,23.52,3.34,3,6.6,6.32,11.49,6.8,3.94.38,4.26,3.54,4.87,6.46a7,7,0,0,1,.05,1.22c.2,5.18-.26,5.42-5.41,4.22m-61.91-17.36a5.66,5.66,0,0,1-.87-3.69c1.05-5.09,4.06-11.44,10.77-12.43,2.62-.39,4.6.8,6.68,1.89,3.26,1.69,7.08,2.72,8.5,6.74.22.64,1.23,1.19.5,1.93-.59.58-1.41.06-2.08-.13a37.6,37.6,0,0,1-7.29-2.84c-.71-.38-1.58-1-2,.3-.28.95.25,1.4,1.27,1.64,3.66.86,6.63,3.57,10.5,3.91,1.22.11,2.42.39,3.64.52,6.95.75,11,6.4,9.52,13.18-.3,1.36-.62,2.71-.88,4.08-.92,4.93-4.65,7.33-8.66,9.29-1.73.86-3.92.24-5.45-.62a35.08,35.08,0,0,1-6.94-4.39,99.64,99.64,0,0,1-9.57-9.37,76.14,76.14,0,0,1-7.68-10m35.12,204.09c-3.1.66-6.25,1.1-9.37,1.65-4.66.81-9.29,1.8-14,2.42-9.3,1.22-18.66,1.73-28.05,2.09-1.46-.18-2.92-.3-4.37-.55-2.63-.45-3.11-1.38-1.45-3.41,2-2.48,3.69-5.18,5.59-7.73s4-5.25,6.18-7.79a15.67,15.67,0,0,1,11.89-6c4.17-.18,8.25-.59,12.37.55,1.67.47,3.16,1.28,4.78,1.81a47.28,47.28,0,0,1,12.81,5.79,19.29,19.29,0,0,1,5.88,5.71c1.9,3.18,1.35,4.7-2.29,5.47m5.61-9.79c.31,2.22.32,4.55,1.66,6.52.18.27.45.56.06.83a.71.71,0,0,1-1.06-.19,18,18,0,0,1-1.73-2.65c-2.28-5.06-6.31-8-11.35-10-3.85-1.52-7.45-3.78-11.47-4.79-4.46-1.13-9-2.39-13.7-1.45a55.3,55.3,0,0,1-6.33.45c-1.19.09-1.25-.59-1.37-1.51a19.58,19.58,0,0,1,1.34-9.12c3.27-9.09,6.5-18.21,10.28-27.1,2.61-6.17,4.66-12.36,4.77-19.08,0-1.75.77-2.11,2.25-1.83,4.91.93,9.57-.19,14.17-1.76.31-.11.59-.29.9-.37,3.46-1,4.12-.55,4.12,3,0,6.71-.11,13.42-.18,20.12h0c-.06,6.06,0,12.11-.2,18.16-.14,5.16,2,9.73,3.58,14.42A91.56,91.56,0,0,1,248.82,624m-4.52-99.82a11.48,11.48,0,0,1,2.65,6.71c.12,1.63,0,3.27,0,4.91h.15a40.15,40.15,0,0,1-.49,6.33c-.9,3.91-4.29,5.62-7.45,7.25-6.06,3.11-12.56,3.42-19.11,2.18-4.22-.79-7.39-3.47-9.7-6.95-3.39-5.1-2.79-11.77,1-16.8,4.47-6,10.67-9.34,17.48-11.72,2.1-.74,4.08.7,6.1,1.23,4.08,1.07,6.85,3.84,9.42,6.86M236,515.34a12.4,12.4,0,0,0-9.73-1.09,6.58,6.58,0,0,0-3.52,1.93,1.8,1.8,0,0,1-2,.72c-.73-.3-.46-1.14-.53-1.76-1-8.68,0-17.22,1.48-25.77,1.3-7.37,3.15-14.65,3.92-22.12.11-1-.56-2.86,1.68-2.87,1.87,0,3.24.13,2.59,2.69-.31,1.2.09,2.59.19,3.89.9,11,1.9,22.06,3.89,33,.67,3.66,2.22,7.17,2,11.42M366.72,615.7c3.73,3.63,7.63,7.21,9.39,12.42a47.28,47.28,0,0,0,2.63,5.16c.69,1.44.26,2.15-1.43,2.48-8.63,1.66-17.39,1.34-25.33,1.85-7.21-.63-13.66-.78-20.11-1-4.05-.15-8.08-.68-12.12-1.05-1.47-.14-2-.65-1.75-2.4.65-5.15,3.67-9.08,6.6-12.91,1.66-2.16,4.58-3.29,7.25-4.36,5.75-2.3,11.54-4.47,17.79-5s12.33.17,17.08,4.79m-15.12-8.82c.49,1.44.51,2-1.29,2a34,34,0,0,0-16.6,4.34c-1.61.87-3.38,1.12-5,1.78-5.34,2.14-8.21,6.35-10.5,11.25a43.05,43.05,0,0,0-2.43,6.37c-.33,1.19-.9,1.9-2.29,1.47-1.22-.39-2-1-1.74-2.43,1.11-5.52,2-11.07,4-16.37a58.4,58.4,0,0,0,3.06-11c.71-4.27,2.73-8.29,3.54-12.6,2-10.75,4.21-21.48,3.82-32.51-.06-1.64-1.16-3.86.08-4.75,1.06-.77,2.9,1,4.48,1.35,4.2,1,8.46.58,12.65.21,1.63-.14,1.86,0,1.67,1.43-1.1,8.67.69,17.24.92,25.86.23,8.39,3,16,5.63,23.65m-2.29-81c6.46,4.59,10.17,15.86,1.93,23.54-4.28,4-9.19,4.46-14.89,4.46-3,.61-6.32-.47-9.36-1.57a16.78,16.78,0,0,1-7.44-5.12,3.37,3.37,0,0,1-.51-1.83c-1.71-10.64,3.14-16.67,12.24-20.64.44-.19.94-.27,1.37-.49,5.9-3,11.78-1.81,16.66,1.65m-2.19-5.75c.49,2.18-.39,2.14-1.73,1.38-5.57-3.15-10.47-.91-15.45,1.63-3,1.54-1.12-1.47-1.9-2,.42-2.93.91-5.75,1.22-8.58,1.3-11.77,3.15-23.45,5.42-35.06a34.31,34.31,0,0,0,.32-8.69c-.06-1.13-.74-2.74,1.46-3,4.22-.44,4.27-.5,4.52,2.16.94,10.14,1.75,20.29,2.8,30.42a185.74,185.74,0,0,0,3.34,21.75m-25.24-79c2.49-3.93,5.61-6.86,10-5.9,3.6.08,6.29.31,8.75,2a10.18,10.18,0,0,1,3.14,4c2.81,5.28,4.76,15.17-1.52,20.14a7.91,7.91,0,0,1-3,1.78,14.85,14.85,0,0,1-8.15-.65c-1.76-.66-1.94-1.57-1.1-3.28,1.9-3.86,3-8,2.18-12.32-.91-5-3.94-6.09-8.32-3.47-.94.57-1.84,2.44-2.95,1.27-.88-.91.35-2.46,1-3.5m-29.95,14.14c.17-1.57,1.33-1.14,2.23-1.16A59.78,59.78,0,0,0,315.69,450c3.29-1.34,6.43-3.06,9.59-4.71,3.32-1.74,4.76-1.07,5.26,2.56a14.43,14.43,0,0,1-3.23,11.21,44.19,44.19,0,0,1-12.24,10.5,141.78,141.78,0,0,1-16.39,8c-5.09,2.23-10.63,2.35-16.42,1.93-6.63.49-13.21-1-19.59-3.45-6.12-2.39-12.13-5.09-17.32-9.15-3.41-2.67-6.95-5.36-9.07-9.34a1,1,0,0,0-1.2-.56c-.64.17-.63.7-.55,1.19.4,2.41-1.07,3.67-3,4a13,13,0,0,1-15.1-14.74c.12-.77,0-1.92.85-2.14a2.62,2.62,0,0,1,2.56,1.17c2.69,3.73,6.5,6.07,10.33,8.38,4.08,2.45,7.94,2.31,11.68-.85,2.41-2,5.43-3.67,6.08-7.31.23-1.31,1.41-.4,2-.15,1.88.79,3.67,1.76,5.5,2.66,5.44,2.66,11.28,3.69,17.24,4.21,1.44.13,2.32,0,1.3,2.05-1.74,3.45-1.07,6.81,1.65,9.66,1.79,1.89,5.12,2.21,8,.68,4.32-2.31,7.83-5.3,8.4-10.59m123.4-13.09c0,1.21.3,2.42.2,3.29.33,5.14-1.23,9.46-5.29,11.74-5.78,3.24-12,6-19,3.44-2.31-.84-3.12-2.59-3.33-4.92-.38-4.13.76-8.11,1.05-12.16.14-2,.57-3.87.87-5.8.11-.72.45-1.58-.63-1.77-.86-.15-1.39.51-1.54,1.28-.45,2.24-.87,4.49-1.18,6.75-.18,1.29-.1,2.62-.22,3.92,0,.58.29,1.45-.63,1.63a1.84,1.84,0,0,1-2-.75c-.72-1.08-1.46-2.15-1.15-3.61.81-3.83,1.54-7.68,2.36-11.51.38-1.81,1.24-2.61,3.31-1.9a8.84,8.84,0,0,0,4.13.17c5.64-.86,11.27-1.87,16-5.49,1.17-.9,2.08-.86,2.37.54,1.07,5.2,4.58,9.63,4.67,15.15M407.66,407c1.7,4.37,2.18,9.18,4.45,13.39.49.9-.19,1.36-.82,1.77-1.75,1.16-3.52,2.27-5.39,3.27a42,42,0,0,1-10.16,4.13c-1.8.43-3.66.64-5.5,1-2.54-.14-4.73-1.28-7-2.16-.9-.35-.65-1.11-.53-1.66,1.33-6.3,1.58-12.76,3.38-19,1.49-5.15,2.12-10.55,3.65-15.73,1-3.28,1.88-6.6,2.6-9.94.3-1.38.83-1.48,2.14-1.83,3.35-.9,3.71,1.05,4.77,3.39,3.43,7.6,5.43,15.69,8.42,23.44m-7-36.73c.25,3.27-3.69,8.13-6.69,8.24-4.83.17-6.86-1.91-7.15-7.36a6.67,6.67,0,0,1,6-6.48c4-.1,7.61,2.48,7.85,5.6m-19.28-38.9c2.09,5.62,4.71,11.07,6.23,16.94.88,3.42,2.85,6.54,4.29,9.82a22.16,22.16,0,0,1,.94,2.78c.4,1.37.06,2.26-1.57,2.23a1.66,1.66,0,0,0-1,.14c-2.88,2.39-3.61-.13-4.36-2-3.24-8.08-6.95-16-10.14-24.07-2-5.14-4.63-10-7-15-.55-1.15-.78-2.15.31-3.06,1.95-1.63,3.12-3.9,4.78-6.06a185.21,185.21,0,0,1,7.51,18.33m-19.12-53.89c0-.55,0-1.34.29-1.6.63-.51,1.24.18,1.7.56,3.43,2.86,6.8,5.72,8.19,10.28,1.07,3.49,3.09,6.71,2.71,12.46-.47,5.26-1.63,12.33-7,17.77-4.56,4.66-10.28,7.57-16.11,10.27-.37.18-.78.33-1.14,0s-.19-.76,0-1.14a85.45,85.45,0,0,1,3-8c.75-1.56.63-3.18,1-4.73,1.73-6.36,3.71-12.65,5.37-19a64.1,64.1,0,0,0,1.92-16.84m-49-59.18c.13-.39.23-.78.39-1.16,1.44-3.38,1.76-3.39,4.87-1.34,4.58,3,6.5,7.43,7.21,12.62,1.21,8.87,1,17.78.39,26.67a28,28,0,0,1-4.88,13.45c-3.17,4.8-5.83,10-9.45,14.45s-7.3,8.65-12.59,12c-.54-6.57-1.14-12.64-1.51-18.73a110,110,0,0,0-1.85-14.8c-.49-2.47-.7-5-1.08-7.5a1.68,1.68,0,0,1,1-2c5.83-3.05,10-8.06,14.08-12.93,2.5-3,5-6.25,5.94-10.29.14-.64.6-1.24-.19-1.69-1-.57-1.31.24-1.62.9a41,41,0,0,1-5.19,8.83,74.36,74.36,0,0,1-13.07,12.62c-1,.76-1.65.88-2.15-.47a11.15,11.15,0,0,0-1-1.67c-.85-1.4-1-2.33.67-3.62,4.08-3.18,8.36-6.35,11.62-10.3a46.53,46.53,0,0,0,8.45-15m-50.62,33.2a63.22,63.22,0,0,0,13.17-1,37,37,0,0,0,12-4c1.23-.7,1.83-.8,2.25.71a4.63,4.63,0,0,0,1,1.95c1.89,2,.49,2.52-1.21,3.21-6.45,2.65-13.08,4.1-19.46,3.45-3.07,0-5.53,0-8-.11-.7,0-2.29.46-1.76-1.06.39-1.1-.61-3.27,2-3.19m-1.38,6.32a63.05,63.05,0,0,0,30.1-3.34c1.76-.61,1.58.59,1.67,1.46.84,8.28,2.21,16.51,2.71,24.83q.45,7.32,1.33,14.59c.17,1.38-.78,1.46-1.38,1.87-6.29,4.27-13.52,5-19.49,5.41a81.06,81.06,0,0,1-11.32-1.08,1.29,1.29,0,0,1-1.33-1.36c-.83-7-2.14-13.92-2.5-20.91-.34-6.7-1.21-13.35-1.28-20.06,0-1.17.17-1.6,1.49-1.41m-28-38.91c.19-5.38.94-9.8,1-14.13,0-5.62,2.91-9.81,5-14.47a3.46,3.46,0,0,1,.9-1.15c3.61-3.12,7.13-6.35,10.89-9.28a17.84,17.84,0,0,1,7.93-3c5.28-1,10.48-2.38,15.9-2.49A42.42,42.42,0,0,1,290.42,177c10.31,3.77,16.17,11.48,19.69,21.42a45.69,45.69,0,0,1,2.12,14.13c.09,3.73-1.48,7.29-3.53,10.5a20.69,20.69,0,0,0-1.35,2c-4.14,8.7-11.41,14.75-19.44,18.9-8.73,4.51-18.4,7.23-28.8,5a34.58,34.58,0,0,1-17.29-9.18c-6.12-6-9.46-13.1-8.53-20.9m-10.6,2.77c.95-2.87,3.22-4.8,6-6.15,1.75-.85,2.45-.95,2.24,1.34A39.74,39.74,0,0,0,232,228.79c.73,3.44,3.08,5.86,4.76,8.7,2.74,4.64,7.16,7.35,11.61,10.12a19.16,19.16,0,0,0,9.76,3.3c.73,0,1.56.24,1.12,1.06-.55,1-.19,2.91-2.08,2.86a7.43,7.43,0,0,1-2.6-.65,56.83,56.83,0,0,1-20.42-14.64c-1.63-1.82-2.08-4.16-2.77-6.4-.52-1.7-.67-3.56-1.87-5a1.23,1.23,0,0,0-1.27-.56c-.67.18-.49.79-.39,1.21,1.13,5,1.95,10.49,5.77,14,2.89,2.67,5.51,5.93,9.36,7.6a22.31,22.31,0,0,1,5,3.45c2.27,1.88,5.2,1.78,7.75,2.8,1.06.42,1.6.79,1.65,2,.49,13,2.61,25.85,3.62,38.8.27,3.33-.36,3.91-3.43,2.41a87.8,87.8,0,0,1-13-7.79,134.39,134.39,0,0,1-10.93-8.51c-4.34-3.89-9.07-7.66-11.07-13.4-2.45-7-4.62-14.12-4.64-21.67,0-1.14,0-2.27,0-3.37-.48-8.24,2.22-15.83,4.75-23.41M194,267c.65-1.21,2-1.7,2.8-2.66,5.11-5.91,12.27-8.17,19.32-11.16.28,7.1,2.52,13.19,5.23,19.32,2.2,4.94,6.23,7.71,9.79,11.21a128.32,128.32,0,0,0,12.43,10.18,53.57,53.57,0,0,0,31.09,11.38c8,.31,15.17-2.22,21.87-5.84,3.7-2,7.65-4.15,10.36-7.76a24.17,24.17,0,0,1,3.33-3.13c4.35-4,6.22-9.63,9.63-14.26,2.6-3.54,5.51-7.12,6.68-11.47a65.11,65.11,0,0,0,1.82-16.24c0-1.88.43-2.13,2.24-1.76,2.33.48,4,2.1,6,3.12,3.36,1.74,6.88,3.19,10.1,5.35,2.89,2,6.11,3.52,7.9,6.52,4,6.66,6.38,13.8,5.82,21.81-.51,7.26-2.78,14.08-4.64,21-1.18,4.4-1.57,9-3.45,13.23a35.67,35.67,0,0,0-1.63,4.59c-1.81,6.56-5.27,12.53-7,19.07a152.35,152.35,0,0,1-5.4,15.2c-1.9,4.94-4.43,9.6-6.32,14.46s-5,9.49-6.28,14.78c-.44,1.83-1.75,3.48-2.77,5.14-1.93,3.15-3.3,6.6-5.8,9.47-1.78,2-2.65,4.86-4.33,7-4.09,5.24-7.42,11.05-12.24,15.73A85.73,85.73,0,0,1,286,432.77a10.55,10.55,0,0,1-11.64-.66,13.81,13.81,0,0,0-4.67-2c-3.62-.88-5.86-3.53-8.3-5.81-5.18-4.82-9.31-10.55-13.61-16.17-3.27-4.29-6-8.91-9.2-13.23a83.75,83.75,0,0,1-6.89-11.67c-1.33-2.63-2.47-5.7-4.53-7.44-5.59-4.75-7.16-11.68-10.47-17.6a221.64,221.64,0,0,1-10.38-20.45c-2.85-6.65-6.24-13-8.78-19.84-3.86-10.33-7.18-20.78-7.38-31.86-.11-6.49.68-13,3.87-19m-5.89,19c-.1,17.12,7.29,31.9,13.56,47-7.06.33-19.32-9.85-22.13-18.32-3.45-10.42,1.66-23.11,8.57-28.71m-5.34,39.23c1.46,1.1,2.76,2,4,3,.94.76.55,1.75.33,2.72-1.44,6.09-3.17,12.14-4.19,18.3-1.41,8.6-3.9,17-5.11,25.59-.13.88-.34,1.71-1.43,1.56-1.82-.25-3.53.4-5.93.67,3.94-17.46,7.77-34.63,12.33-51.88" transform="translate(-163.57 -167.21)"/><path class="cls-2" d="M261.28,234a7.54,7.54,0,0,0,2.51-1.38c4.18-3.42,5.18-8.06,5.27-13.1.73-10.78-10.85-14.89-18.24-12-6.49,2.55-9.58,9.25-8.24,16.49,1.7,9.25,11.29,12.38,18.7,10m-16.84-13.33c.45-8.79,8.09-14.18,16.73-10.51,4.75,2,5.88,4.65,5.45,10.65,1,4.49-2,7.91-5.48,11.05-1.87,1.68-7.35,1.76-10.25-.28-3.7-2.59-6.72-5.54-6.45-10.91" transform="translate(-163.57 -167.21)"/><path class="cls-2" d="M290.78,233.17a10.55,10.55,0,0,0,7.08-2.22c4.46-3.32,5.9-8.07,6.12-13.25.18-4.4-3-8.86-5.75-10.09-4.74-2.14-9.41-1.77-13.16,1.8a14.46,14.46,0,0,0-4.23,13.47c1.06,6.24,4.87,10.15,9.94,10.29m-7.38-16.55c.62-4.7,4.27-6.6,8.06-7.87,2.85-.95,5.7.21,7.74,2.46,2.42,2.66,2.72,5.95,2.06,9.37-.85,4.42-2.51,8.1-7.17,9.88-4.28,1.64-10.47-1.92-10.79-6.51-.06-.82-.06-1.64-.09-2.45a15.08,15.08,0,0,1,.19-4.88" transform="translate(-163.57 -167.21)"/><path class="cls-2" d="M200.27,426.77c.06-7.66,2.45-14,9.64-17.85a11.34,11.34,0,0,0,1.29-.69.91.91,0,0,0,.38-1.27,1.35,1.35,0,0,0-1.41-.76c-1.88,1.12-4.29,1.95-5.82,3.89-4.27,5.39-7,11.34-6,18.48.1.7-.42,1.91.92,1.8,1-.07,1.19-1,1.07-1.89a12.17,12.17,0,0,1-.09-1.71" transform="translate(-163.57 -167.21)"/></svg>