<svg id="Layer_1" data-name="Layer 1" xmlns="http://www.w3.org/2000/svg" viewBox="0 0 335.07 431.43"><defs><style>.cls-1{fill:#fff;}.cls-2{fill:#010101;}</style></defs><path class="cls-1" d="M116.71,544.6l5,8.57c.25.43.55.9,1.1.82s.43-.68.53-1c1-3.52.72-7.08.52-10.71l-7.19,2.37" transform="translate(-100.07 -197.16)"/><path class="cls-1" d="M119.42,526.21a29,29,0,0,1,7.67-.17c1,.12,2.47,1.58,2.67-.91,0-.46.59-.74,1.13-.77s.82-.38,1-.93c1.4-5.94,3.62-11.63,5.55-17.41,1.32-3.93,2.87-7.78,4.11-11.74,1.57-5,3.26-10,4.92-14.95,1.18-3.52,2.73-6.91,3-10.72a11.88,11.88,0,0,1,2.45-6,13.82,13.82,0,0,0,.83-1.55c-.17-.85-.88-.88-1.41-1.1-2.61-1.1-5.47-1.12-8.15-1.95-1.59-.5-2.82-.53-2.56,1.72a2.07,2.07,0,0,1-.28.86c-1,2.68-2.32,5.28-3.08,8-2,7.29-4.5,14.41-7,21.52-.39,1.09-1,2.11-1.28,3.22-1.7,6.1-4.39,11.86-6.07,18-1.28,4.68-3.29,9.15-4.39,13.92-.3,1.29,0,1.12,1,1" transform="translate(-100.07 -197.16)"/><path class="cls-1" d="M145,456.67a54.62,54.62,0,0,0,9.48,2.53c1.31.29,1.82-.11,1.42-1.43a16.47,16.47,0,0,1-.38-2c-.53-3.07-1-6.15-1.61-9.21-.09-.47,0-1.74-1.11-1.05s-2.47,1-3.16,2.12c-1.45,2.31-4.29,3.22-5.54,5.66-.52,1-2.49,1-2.16,2.11s2,.84,3.06,1.25" transform="translate(-100.07 -197.16)"/><path class="cls-1" d="M110.55,558.81a18.87,18.87,0,0,0,1.6-13.45c-.33-1.5-.15-2,1.5-2.26,2.94-.39,6.07-.41,8.67-2,1.73-1,3.67-1.6,5.35-2.75.9-.62,1.82-.53,2.07,1a46.11,46.11,0,0,0,2.67,9.5,3.66,3.66,0,0,0,4.28,2.07,1.27,1.27,0,0,0,1.06-1.1c.49-3.46,1-6.92-.7-10.23a20.41,20.41,0,0,1-1.05-3.3c-.9-3-2.05-5.89-5.25-7-2.39-.86-4.83-1.78-7.59-1.42-2.39-.24-4.59.78-6.93,1.4-4.54,1.19-7.13,4.27-9,8a31.6,31.6,0,0,0-2.88,9.94c-.56,4-.82,8,1.66,11.65,1.33,1.95,3.46,2,4.57,0" transform="translate(-100.07 -197.16)"/><path class="cls-1" d="M157.32,454.63c.33,1.42-.71,3.46.91,4.15,1.34.58,3.12.15,4.71.13a8.29,8.29,0,0,0,1.63-.22,44.11,44.11,0,0,1,11.8-.84,1.69,1.69,0,0,0,.88-.09c.62-.36.39-6.4-.3-6.57-1.44-.37-1.18-1.5-1.26-2.43-.09-1.21,0-2.43,0-3.65h0c0-1.16-.07-2.33,0-3.48.12-1.37-.17-1.8-1.7-1.51-5.85,1.11-11.73,2.13-17.63,3-1.36.2-1.46.61-1.2,1.72.74,3.26,1.39,6.54,2.16,9.79" transform="translate(-100.07 -197.16)"/><path class="cls-1" d="M229.32,331.48c.47-3.49,2.08-6.63,2.91-10,.74-3,1.36-6.08,2.2-9.07.63-2.25.74-2.22-1.84-2.17-.79.26-2.26-.69-2.66,1.3-.66,3.29-1.47,6.55-2.3,9.8S225.56,328,225,331.42c-.09.59-.51,1.24.09,1.71.9.71,4-.45,4.21-1.65" transform="translate(-100.07 -197.16)"/><path class="cls-1" d="M310.27,520.63c-.81-1.16-2.5-.33-3.79-.39-7.13-.35-14.26-.17-21.4-.19-4.64,0-9.28.08-13.91-.14a318.67,318.67,0,0,0-39,.26c-2.21.16-4.44-.33-6.57,0-3.29.51-6.58.26-9.85.35s-3.74.28-3.85,3.55c-.08,2.33.42,2.89,2.69,2.66,10-1,20-.44,30-.76,7.31-.24,14.65.31,22,.38,12.76.13,25.53-.28,38.28.66.61,0,1.22,0,1.83,0,1.89.08,3.41-.16,3.1-2.69-.15-1.27,1.15-2.71.44-3.7" transform="translate(-100.07 -197.16)"/><path class="cls-1" d="M178.4,447.65c.18,4.34-.2,8.66.83,13,.59,2.52.37,5.43.3,8.18-.15,6.24.78,12.44.78,18.68a82.33,82.33,0,0,0,2.3,20,9.64,9.64,0,0,0,3.65,5.75A24.44,24.44,0,0,0,197,516.7c4.65.49,9.33.71,14,.92,10.49.48,21,.82,32.78.79,6.09-.13,13.48-.37,20.87,0,9.26.5,18.55.33,27.82.38,3.79,0,7.57-.16,11.36.15,2.12.18,4.48.61,6.34-.1s3.48-.29,5.23-.14a58.5,58.5,0,0,0,20.06-1.8c4.4-1.15,7.13-4.42,9.81-7.75a1.17,1.17,0,0,0,.19-.52c.31-2.23,1.28-4.29,1.47-6.57.51-6.33.95-12.67,1.06-19,.09-5.35,1.21-10.61,1.21-16,0-3.29-.37-6.58-.05-9.88,0-.49-.15-1.19.29-1.36,1.68-.69,1.1-2.08,1.11-3.25,0-3.11.08-6.23-.08-9.33a68.05,68.05,0,0,0-.94-9.25,41.33,41.33,0,0,0-2.33-7.11,5.74,5.74,0,0,0-3.54-3.43,71,71,0,0,0-9-2.23,1.68,1.68,0,0,0-1.72.34,2,2,0,0,1-1.72.41c-4.69-.28-9.38-.41-14.07-.75-11.26-.82-22.53-1.58-33.79-2.51-2.33-.2-5.11-1.22-7.16,1.18-.17.2-.7.17-1.05.11a110.14,110.14,0,0,0-23.17-.76c-5.67.34-11.35.39-17,.75-4,.26-8,1-12,1.2a132,132,0,0,0-15,1.7c-6.62,1.13-13.38,1.07-19.91,2.67-5.54,1.36-9,4.1-8.38,9.67a2.24,2.24,0,0,1-.22,1.77,5.67,5.67,0,0,0-.92,3.82c0,2.27-.14,4.53,0,6.79m116.72,57.8c-14,.1-28,0-42,.73-6.89.35-13.8.32-20.68.89a47.18,47.18,0,0,0-6.7.94c-.68.15-1.93.88-2.12-.45-.17-1.12,1.11-1.09,1.89-1.21a92.27,92.27,0,0,1,13-.89c5.37-.07,10.75,0,16.12.06,12-.69,23.93-.89,35.88-1.53,1.52-.08,3.05,0,4.57-.17.8-.07,1.4.06,1.46.91.08,1.21-.89.72-1.44.72m21.57-51.08c-1,5-.57,10.11-1.11,15.15,1.9,2-.51,3.69-.55,5.59-.1,5.07-.42,10.14,0,15.21a1.37,1.37,0,0,0,0,.19c.15,3.34.14,3.23-3.12,3.32-9.54.29-19-.67-28.54-.95-8.74-.26-17.48-.12-26.22-.38-13.5-.41-27,.2-40.49.33a31.84,31.84,0,0,0-4.55.51c-2,.31-2.72-.2-2.72-2.19,0-3.79-.94-7.54-.47-11.85-.66-6.15.46-12.76.43-19.4,0-1.35-.1-2.69-.12-4,0-2.18,1-3.17,3.08-3.4,11.28-1.25,22.6-1.12,33.93-1.32,11.8-.2,23.59-.12,35.39.1,8.87.17,17.73.5,26.6.73a36.78,36.78,0,0,0,4.58-.1c1.43-.15,2.38.85,3.58,1.22.58.18.4.79.3,1.28m-8.89-3.48c.66-1.1,1.4-1.31,2.46-.37-.9.64-1.72.07-2.46.37M192.72,437.94c7.7-1.47,15.51-1.79,23.31-2.37,10.3-.77,20.61-1.07,31.93-1.53,11.65.16,24.3-.33,36.94-.36,11.49,0,23-.7,34.46.11a60.52,60.52,0,0,0,7.5.27c.53,0,1.25,0,1.19.79s-.72.7-1.28.64c-10-1-20-.8-30-.74-4.07,0-8.15-.11-12.23,0-7.64.14-15.27.55-22.91.55-3.77,0-7.54.12-11.32,0a93,93,0,0,0-12.37.65c-1.59.17-3.16.09-4.74.18-10.1.55-20.2,1-30.28,1.64a45.27,45.27,0,0,0-9.94,1.45c-.59.18-1.39.31-1.53-.47-.17-1,.75-.69,1.29-.8" transform="translate(-100.07 -197.16)"/><path class="cls-1" d="M237.81,537.33c-5.63-.64-11.22-.07-16.81.43-.74.06-1.12.17-1,1.07.39,2.48-.09,5-.14,7.46-.16,7.32-.73,14.63-1.12,22-.47,9-.71,17.94-.49,26.92,0,2.23.78,2.87,2.93,3.05,5.53.45,11.08.82,16.58,1.55,1.69.23,1.85-.17,1.81-1.52-.07-2.38-.21-4.77-.08-7.15.49-8.9.76-17.83.49-26.74-.25-8.24-.39-16.49-.5-24.74a2.56,2.56,0,0,1,1-2.25c-.9,0-1.82.07-2.71,0" transform="translate(-100.07 -197.16)"/><path class="cls-1" d="M285,596.51c-.08,1.15.32,1.44,1.47,1.38,5.49-.27,11-.66,16.49-.48.94,0,1.35-.25,1.24-1.24a58.41,58.41,0,0,1-.21-6.35c0-6.05-.29-12.09-.51-18.13-.22-5.74-.57-11.47-.74-17.2-.15-5.17-.44-10.36.29-15.52.16-1.1-.55-1.06-1.21-1.07-3,0-6.11-.19-9.14,0-3.43.24-6.83-.29-10.24-.08-.54,0-1.44-.25-1.22.8a78.44,78.44,0,0,1,.85,10c.35,5,.76,10.08,1,15.13.26,5.25-.17,10.55.76,15.75a97.36,97.36,0,0,1,1.2,12.73c0,1.41,0,2.82,0,4.22" transform="translate(-100.07 -197.16)"/><path class="cls-1" d="M220.55,332.07c0,.66,0,1.54.79,1.69s1.16-.68,1.35-1.28a69.41,69.41,0,0,0,2.87-9.42,81.61,81.61,0,0,1,2-8.51c1.12-3.85,1.14-3.88-3-3.65-.59,0-1.89-.55-1.58,1.16.08.46-.87.91-1.33.09-.33-.58-.6-1.09-1.37-.81s-.6,1.06-.55,1.72q.47,5.38.91,10.77h-.13c0,2.74,0,5.49,0,8.23" transform="translate(-100.07 -197.16)"/><path class="cls-1" d="M304.33,290.85c-6.39,4.14-11.87,9.38-17.46,14.49-.28.26-.75.59-.51,1.07s.75.28,1.16.28a37.3,37.3,0,0,0,6.59-.35c1.07.47,1.65-.2,2.31-.91,3.81-4.12,8.28-7.53,12.42-11.3,2.29-2.09,2.54-2.74,1.4-5.71-.3-.79-.61-.94-1.48-.69-1.89.52-2.91,2.14-4.43,3.12" transform="translate(-100.07 -197.16)"/><path class="cls-1" d="M299.58,304.14c-1.86,1.53-2.7,3.23-2.18,5.29,0,1.14,0,2,0,2.85,0,.36-.07.79.31,1s.78-.14,1.1-.42a40.91,40.91,0,0,1,4-3.51c3.32-2.26,6.23-5,9.5-7.33a1.36,1.36,0,0,0,.52-1.46c-.2-1.51-.34-3-.59-4.53s-1.2-1.95-2.39-.91c-3.42,3-6.72,6.13-10.22,9" transform="translate(-100.07 -197.16)"/><path class="cls-1" d="M295.68,598.88a71.89,71.89,0,0,1-9.15.38c-1-.08-1.55.11-1.64,1.48-.33,5.13.12,10.27-.15,15.4-.19,3.55-.08,3.57,3.49,3.5,4.51-.08,9,0,13.54-.31,4.33-.26,8.67-.49,13-.37,7.62.2,15.25,0,22.88.52q11.14.74,22.23,2a79.41,79.41,0,0,0,8,1c.67,0,1.35,0,1.19-.89-.52-3-.83-6.21-2.68-8.65A29.23,29.23,0,0,0,356,604.49a26.6,26.6,0,0,0-9.65-2.63c-6.38-.59-12.74-1.37-19.11-2.07-7.5-.82-15.06-.12-22.58-.82-3-.28-6-.07-9-.09" transform="translate(-100.07 -197.16)"/><path class="cls-1" d="M404.9,506.14a4.73,4.73,0,0,0-3.43.7,27.41,27.41,0,0,0-5.93,6.28c-2.7,3.86-4.72,11.6-.71,16.4,1.27,1.51,2.05,2,3.59.64,1.74-1.49,3.29-3.21,4.91-4.85a11.7,11.7,0,0,0,2.53-3.76c1.2-2.82,2.22-3.25,5.23-2.53.88.21,1.75.53,2.62.81,2.65.87,5.11,2.39,8,2.38.64,0,.86.4.81,1a7.73,7.73,0,0,1-.26,2.17A74,74,0,0,0,419.48,536c-.44,2-.83,4.07.37,6.06.5.81,1,1,1.51.32,1.59-2.39,4.59-3.23,5.82-6.27,1.71-4.24,4-8.21,3.67-13-.12-1.72.34-3.46-.48-5.2-1.48-3.14-3.19-5.83-6.61-7.32a15.37,15.37,0,0,1-3.52-1.74,8.28,8.28,0,0,0-4.4-1.61c-3.64-.41-7.27-1-10.94-1.05" transform="translate(-100.07 -197.16)"/><path class="cls-1" d="M416.72,522.66c-1.55-.19-2.86-1-4.3-1.5-1.09-.35-1.5-.1-1.94.87-1.51,3.26-1.44,6.77-1.78,9.84,0,.74,0,1.11,0,1.48.09.81-.34,2,.59,2.3s.86-1,1.48-1.37a2.86,2.86,0,0,0,.42-.36c2.9-2.66,4.39-6.23,6.14-9.63.36-.7.54-1.48-.61-1.63" transform="translate(-100.07 -197.16)"/><path class="cls-1" d="M236.78,601a92.84,92.84,0,0,1-10.92-1c-3.55-.58-7.06.24-10.59.39-4.53.18-9.05.78-13.58.9a68.79,68.79,0,0,0-13.88,1.54c-3.67.84-7.16,2.23-10.74,3.35-2,.64-3.5,2.12-5.23,3.19-5,3.1-9.61,6.65-9.37,13.5,0,1,.25,1.45,1.38,1.26,2.83-.46,5.73-.6,8.5-1.18,7.18-1.5,14.47-1.2,21.69-1.86,8.75-.8,17.54-1.35,28.32-1.47,3.47.36,8.83-1,14.26-.95,1.9,0,2.14-.7,2.28-2.3.36-4.08.35-8.17.47-12.26.09-3,.26-3-2.59-3.15" transform="translate(-100.07 -197.16)"/><path class="cls-1" d="M375.73,452.68c-.73.73-2,1.19-2.28,2-.38,1,1.16,1.44,1.62,2.36,1.9,3.81,4.55,7.16,6.82,10.75,2.36,3.74,4.81,7.46,7.5,11,3.34,4.38,5.9,9.21,8.89,13.79a97,97,0,0,1,5.06,8.64c1,1.86,2.31,3.26,4.71,3.06a3.94,3.94,0,0,1,2,.41c2.27,1.13,4.78.9,7.14,1.41,1.31.19,1.61-.27.92-1.38-.19-.31-.35-.65-.56-1-2.68-3.8-4.12-8.28-6.7-12.14-.77-1.15-1-2.57-1.8-3.77-2.4-3.63-4.64-7.37-6.95-11.06-2.61-4.17-5.15-8.38-7.88-12.47-.79-1.19-1.05-2.55-1.91-3.71a64.41,64.41,0,0,1-7.38-12.06c-1.06-2.36-2.43-2.66-4.32-.85-1.67,1.6-3.2,3.34-4.84,5" transform="translate(-100.07 -197.16)"/><path class="cls-1" d="M314.89,339.76c1,.22,1.94.91,3,.69,3.62-.78,7.1-1.7,9.78-4.68,2.41-2.67,3.52-10,1.38-13.09a12.51,12.51,0,0,0-7.17-4.92c-3.52-1-4.16-.55-4.17,3.08,0,.12,0,.25,0,.61a19.49,19.49,0,0,1-.52,4.65,70.79,70.79,0,0,1-2.69,12.48c-.17.54-.21,1.05.41,1.18" transform="translate(-100.07 -197.16)"/><path class="cls-1" d="M351.32,444.22h.11c0,2,0,4,0,6,0,1.27.48,1.7,1.76,1.59a79.46,79.46,0,0,1,13.71.09c1.29.1,1.69-.23,1.69-1.57a96.6,96.6,0,0,0-.57-11.15c-.25-2.35-.15-2.35-2.33-1.74a2.33,2.33,0,0,1-.89.14c-3.94-.51-7.91-.21-11.85-.45-1.2-.08-1.64.33-1.59,1.55.09,1.83,0,3.66,0,5.49" transform="translate(-100.07 -197.16)"/><path class="cls-1" d="M370,446.13h.09c0,.73,0,1.47,0,2.2s0,1.47.07,2.2a2.35,2.35,0,0,0,3.5,1.66c2.71-1.52,4.13-4.37,6.61-6.1,1.29-.9.84-1.77-.19-2.43-2.81-1.79-5.38-4-8.65-5-1.43-.45-1.41.07-1.4,1.09,0,2.13,0,4.26,0,6.39" transform="translate(-100.07 -197.16)"/><path class="cls-1" d="M309.6,528.39c-5.87.49-11.7-.51-17.56-.36-7.2.17-14.4.08-21.6.09-4.09,0-8.2.19-12.27-.1-3.47-.25-6.93-.61-10.41-.57-9,.08-18.07.58-27.11.45-2.41,0-4.72,1.08-7.16.5-2.73,2-5.94,1.45-9,1.79a8.34,8.34,0,0,0-4.17,1.79c-1.16.91-1,1.93.3,2.51a14.74,14.74,0,0,0,3,.9c5.38,1,10.87.74,16.27.74,6.15,0,12.31-.43,18.48-.33q22,.33,44.06.52c8,.06,16-.12,24,.33,1.34,0,2.69,0,4,0,4,.1,8-.95,12-1.17a13.07,13.07,0,0,0,6.8-1.87c.62-.43,1.66-.65,1.42-1.66s-1.18-1.16-2-1.26c-4.6-.52-9.19-1.17-13.8-1.45-1.8-.11-3.43-1-5.14-.87" transform="translate(-100.07 -197.16)"/><path class="cls-1" d="M273.44,371c3.6-4.24,6.26-9.16,6.65-15,.23-3.31.18-3.32-3.18-3.33-.48,0-1,0-1.46,0-3.27.13-3.27.13-3.43,3.24-.13,1.89-.27,3.77-.39,5.66-.07,1.18-.49,2.38-1.69,2.45-4.56.28-9.12-.19-13.69-.37a1.46,1.46,0,0,1-1.42-1.44c-.23-2.43-1.68-4.43-2.27-6.73-.19-.75-.64-.9-1.35-.88-2.48.08-4.75,1.06-7.1,1.67-.81.21-1.38.91-.52,1.8a16.45,16.45,0,0,1,2.92,5.23,29.41,29.41,0,0,0,4.74,7.06c1.45,1.71,3.77,2.57,5.89,3.5,5.17,2.27,12.29,1.78,16.3-2.95" transform="translate(-100.07 -197.16)"/><path class="cls-1" d="M267.67,401.4a26.94,26.94,0,0,0,7.56-2.53c3.42-1.94,6.26-4.71,9.46-7a12.55,12.55,0,0,0,1.61-1.47c2.91-2.9,5-6.39,7.38-9.69,3-4.11,4.87-8.69,7.22-13.07a60.4,60.4,0,0,0,4.93-12.52c1.36-4.92,3-9.75,3.69-14.82.23-1.57.21-3.17.51-4.72.71-3.52,1.2-7.08,1.81-10.61,1.15-6.58.71-13.29,1.1-19.93,0-.41.22-.9-.25-1.17s-.77.15-1.1.41c-2.35,1.82-4.67,3.7-7.07,5.45-1.93,1.41-3.21,3.74-5.22,4.71-2.31,1.1-1.69,2.55-1.62,4.17.18,4.09.38,8.18.51,12.27.05,1.73-1.25,2.55-2.87,1.85a5.46,5.46,0,0,0-2.33-.34l-16.5.21q-12.92.15-25.84.3c-6,.07-11.91,1.18-17.91,1.05a42,42,0,0,0-10.53,1.22c-2.83.67-3.32.37-3.38-2.63-.12-5.92,0-11.86-.41-17.78-.07-1,.06-2-.78-2.74-.48-.41-1-.8-.76-1.52.26-.89,1.08-.66,1.7-.72,6-.61,12-1.17,18.09-1.23a67.76,67.76,0,0,0,7.68-.4,218,218,0,0,1,29.79-1.28c1.32,0,3.28,1.07,3.19-1.68a.22.22,0,0,1,.1-.15c1.7-1.29,3-3,4.74-4.27,2.37-1.77,4.64-3.68,6.87-5.63a71.36,71.36,0,0,1,9.3-7c2.73-1.68,4.8-4.07,7.4-5.86.9-.63,1.72-1.92-.17-2.77-1.41-.63-1.2-2.53-2.44-3.31-2.35-1.5-4.69-3-7.1-4.45-2.66-1.57-5.09-1.33-7.76.47A87,87,0,0,0,281,278c-.58.48-1.29,1.35-2,.4s.28-1.37.9-1.7c2.9-1.54,4.89-4.33,7.9-5.72.65-.3,1.62-.81,1.44-1.7s-1.21-.64-1.88-.84c-2.81-.87-5.76-1-8.61-1.69a59.46,59.46,0,0,0-18.34-1.88,113.59,113.59,0,0,0-19.5,1.81,70.82,70.82,0,0,0-7.7,1.53c-2.33.63-4.09,2.38-6.45,2.82a11.45,11.45,0,0,0-4.85,2.48,85.61,85.61,0,0,1-7.51,5.73,23.21,23.21,0,0,0-4,3.33c-4,3.77-4.22,9.32-6.76,13.76a.7.7,0,0,0-.05.36c0,3.1-.15,6.2-.07,9.3.07,3.36.29,6.72.51,10.07a43.23,43.23,0,0,0,1.86,11.16c.95,2.82,1.64,5.72,2.54,8.56,1.45,4.53,3.64,8.78,4.73,13.41.38,1.65,1.07,1.32,1.92.35,2.42-2.78,5.57-4.68,8.49-6.82,1.89-1.39,3.94-2.61,5.73-4.14.71-.62,1.23-.85,1.81-.17s-.06,1.19-.65,1.53a75,75,0,0,0-10.06,6.77c-1.59,1.31-2.94,3-4.7,3.95-1.35.73-1.33,1.21-.74,2.27,1.36,2.48,1.41,2.5,3.78.85a5,5,0,0,0,.45-.3c4.41-3.82,9.22-7.13,13.85-10.66a22.37,22.37,0,0,1,2.61-1.69.85.85,0,0,1,1.24.41c.27.59-.14,1-.64,1.1-2.75.71-4.64,2.8-6.81,4.37-4,2.93-7.77,6.25-11.68,9.34a1.54,1.54,0,0,0-.5,2.22c1.5,2.62,3.47,5,4.5,7.87.18.52.54,1.25,1.34.62s1.45-1.3,2.21-1.91c2.62-2.11,4.73-4.88,7.89-6.32.46-.22.94-1.15,1.45-.16.39.76-.3,1-.86,1.32a25.44,25.44,0,0,0-5.19,4c-1.6,1.43-2.54,3.65-5,4.07-.74.13-.32.64-.11,1,1,1.58,2.06,3.16,3.13,4.72.49.72,1.1,1,1.74.16,1.72-2.31,4.54-3.27,6.45-5.36.48-.54,1.33-1.36,2-.43s-.49,1.27-1.07,1.65a33.49,33.49,0,0,0-6,4.73,2.06,2.06,0,0,0-.28,3c2.52,3.41,5.11,6.78,7.47,10.31a24.17,24.17,0,0,0,5.68,6.3,92.66,92.66,0,0,0,9.54,5.73c4.91,2.74,10.11,2.71,15.47,1.52m9.38-114.8c3.85-1.93,7.15-4.73,10.65-7.19,2.57-1.81,5.13-3.67,7.68-5.54.44-.32.78-.84,1.43-.57a1.09,1.09,0,0,1,.55,1.25c-.08.68-.66.81-1.2.91a3.33,3.33,0,0,0-1.54.52c-4.48,3.42-9.33,6.34-13.64,10-1.08.91-2,2-3.46,2.23-.39-.09-.88-.11-1-.57a.86.86,0,0,1,.57-1m-3.49,12.24c3.22-2.57,6.55-5,9.58-7.8,4-3.7,8.67-6.61,12.71-10.29a44.76,44.76,0,0,1,5.45-3.67c.53-.36,1.09-.45,1.46.07.49.69,0,1.19-.61,1.41-3.37,1.21-6,3.71-8.73,5.77a84.61,84.61,0,0,0-8,6.33c-2.72,2.58-5.7,4.88-8.54,7.33a23.33,23.33,0,0,0-1.74,1.84,1.51,1.51,0,0,1-1.06.65,1,1,0,0,1-1-.6c-.17-.48.15-.74.52-1M231,353.92a45,45,0,0,0-9.43,7.93c-.24.25-.37.66-.91.59-.74-.47-.76-1.07-.28-1.82,1-1.48,2.64-2.1,3.86-3.27,3.78-3.65,8.55-5.94,12.63-9.19q4.89-3.89,9.82-7.73c.52-.4,1.17-.7,1.59,0a1.09,1.09,0,0,1-.61,1.65c-4,1.65-6.84,4.93-10.25,7.39-2.1,1.52-4.19,3.11-6.42,4.47m14.77,11.52c-1.26-2.5-2.73-4.88-4.11-7.31-1.1-1.95-.68-3.05,1.56-3.35,7.68-1,15.33-2.32,23.08-2.72,4.15-.21,8.29-.63,12.41-1,1.26.47,2.92-.55,3.7.44s-.47,2.22-.63,3.41a54,54,0,0,1-1.55,7.71,21.34,21.34,0,0,1-2.08,4.64c-1.71,3-3.64,6-6.69,7.82a13.91,13.91,0,0,1-6.5,1.56,20.07,20.07,0,0,1-14.25-4.6,19.63,19.63,0,0,1-4.94-6.64" transform="translate(-100.07 -197.16)"/><path class="cls-1" d="M254.86,358c.57,3.16,1.61,4.16,4.77,4.31,2,.11,4,0,6,.05v.19c.55,0,1.1,0,1.65,0,2.55-.07,2.62-.24,3.05-2.83a54.79,54.79,0,0,0,.3-6c0-.63-.22-.72-.75-.67-4.49.36-9,.71-13.48,1.08-2.42.2-2.41.21-1.76,2.6.11.41.11.85.19,1.27" transform="translate(-100.07 -197.16)"/><path class="cls-1" d="M215,271.62c.43,1.05,1,1.17,2,.51,2.81-1.95,5.47-4,8.79-5.3a92.73,92.73,0,0,1,12.9-4.36,114.61,114.61,0,0,1,22.07-2.71c5.91-.22,11.94-.15,17.79,1.33,3.54.9,7.18,1.48,10.58,2.74,3.62,1.33,7.31,2.71,10.35,5.27a1,1,0,0,0,1.69-.24,31,31,0,0,0,3.09-5.32,1,1,0,0,0-.41-1.39,48.9,48.9,0,0,0-4.87-2.87c-4.44-2-8.8-4.12-13.52-5.47s-9-3.16-13.91-3.61c-5.47-.5-10.92-1.23-16.42-1.27a28.61,28.61,0,0,0-6.21.37,38.06,38.06,0,0,0-7.49,1.58,42.41,42.41,0,0,1-6.1,2.27,28.17,28.17,0,0,0-7.12,2.19c-4.51,2.37-9.13,4.53-13.29,7.5-1.13.81-2.6,1.72-2,3.51s1.39,3.52,2.1,5.27" transform="translate(-100.07 -197.16)"/><path class="cls-1" d="M203.54,333.92c-1.39-3.6-3.45-6.93-4.14-10.83-.42-2.41-1.42-2.8-3.66-1.69a12.38,12.38,0,0,0-1.57.92c-4.81,3.39-5.78,9.4-4.5,14.41a8.51,8.51,0,0,0,3.61,4.91,12.66,12.66,0,0,0,8.3,2.33c1.4.38,2.7-.29,4.07-.53.77-.13,1.09-.57.84-1.29-1-2.75-1.9-5.51-3-8.23" transform="translate(-100.07 -197.16)"/><path class="cls-1" d="M267.7,406.49c-3.62.16-7.25,1-10.86-.11-.82-.26-1.09.14-1,1,.22,2.07.47,4.13.58,6.21.07,1.35.69,1.79,2,1.78,2.81,0,5.61,0,8.41,0a1.31,1.31,0,0,1,0,.28c.49,0,1,0,1.46.08,1,.1,1.33-.3,1.25-1.26-.19-2.31-.35-4.63-.51-6.94-.05-.85-.39-1.05-1.29-1" transform="translate(-100.07 -197.16)"/><path class="cls-1" d="M314.32,454.18c-1.14-.75-2.95-.48-4.46-.66-.19,0-.37,0-.55,0l-36.1-1.12c-3.95-.12-7.91-.32-11.85-.25-5.17.09-10.34.49-15.51.62-4,.1-8-.29-12,.07s-8.15.39-12.22.56a52,52,0,0,0-9.39,1.27c-.79.17-1.18.4-1.15,1.27.16,5.26-.31,10.51-.43,15.77,0,1.41.4,1.76,1.85,1.52a95.6,95.6,0,0,1,15.3-1.55c2.55,0,5.11-.24,7.66-.32.77,0,1.39-.28,1.56-1,.76-3.21,3.35-5.27,4.84-8a.73.73,0,0,1,.89-.44c.47.12.83.61.61,1-1,1.47,0,2.69.43,3.94,1.37,4,2.82,7.91,4.23,11.86.15.42.28.89.81.83s.41-.55.48-.89c.43-2.34.77-4.69,1.3-7,.82-3.57,1.92-7.08,2.53-10.7.09-.53,0-1.2.85-1.13.63.05.92.53,1,1.14.16,1.33.25,2.68.5,4,.19,1-.48,2.68.79,2.78.78.06.81-1.8.94-2.86.06-.57.09-1.14.82-1.23s1,.43,1.25.9a18.66,18.66,0,0,1,1.12,2.88c.83,2.8,2.24,5.43,2.46,8.42,0,.34.16.78.6.81.62,0,.57-.52.64-.91.21-1.08.17-2.18.36-3.27.7-4.09,1.84-8.07,2.71-12.1.16-.73-.19-1.76,1-1.83s1.19.94,1.37,1.67a44.85,44.85,0,0,1,1.65,10.1,3.28,3.28,0,0,0,.72,2.68c.58-3.08,2-5.61,3.11-8.31.36-.9.64-2.14,1.7-2.11,1.22,0,1.37,1.35,1.65,2.35.44,1.53.86,3.06,1.36,4.57.22.66.41,1.39,1.44,1.37,4.49-.1,9,.25,13.47.41,5.91.21,11.84-.17,17.76-.23,1.08,0,1.5-.27,1.54-1.41.16-3.78.7-7.56.54-11.35-.06-1.39,1.18-3.18-.14-4" transform="translate(-100.07 -197.16)"/><path class="cls-1" d="M312.61,472.5a43,43,0,0,0-6.21-.25c-5.92,0-11.84.3-17.77,0-2.92-.16-5.94-.82-8.84.5-.8.37-1.36-.47-1.37-1.07,0-1.66-1-3-1.29-4.57-.1-.5-.07-1.26-.78-1.28s-.67.76-.86,1.24c-1.3,3.11-1.69,6.48-2.83,9.64-.23.64-.3,1.48-1.12,1.46s-.83-.93-.93-1.55c-.6-3.81-1.15-7.62-1.76-11.42-.08-.49,0-1.32-.62-1.38-.79-.07-.88.84-.91,1.34-.23,3.24-1.33,6.34-1.4,9.6-.05,2.13-.26,4.27-.41,6.4,0,.59-.24,1.11-.9,1.21a.91.91,0,0,1-1-.82,17.4,17.4,0,0,0-1-2.55c-1.39-3.63-2.41-7.4-4.07-10.92l-.45.08c-.16,2.36-.33,4.71-.46,7.07,0,.66,0,1.26-.91,1.26-.69,0-1.16-.21-1.22-1-.18-2.51-1.15-4.89-1.21-7.42,0-.42.13-1-.68-1.15-1.12,1.74-1,3.83-1.55,5.73-1.09,4-2.22,8-1.23,12.24.13.52.11,1-.44,1.24s-.88-.27-1.09-.7c-1.13-2.37-2.37-4.7-3.31-7.14-1.56-4.06-2.92-8.19-4.54-12.81-1,2.5-3.36,3.77-2.78,6.5.12.52-.27.92-.85,1a65.8,65.8,0,0,1-8,.4c-5.55-.35-11,.42-16.39,1.28-2.11.33-2.7,1.39-2.81,3.25a62.82,62.82,0,0,0,.39,10.62c.38,3.4.27,3.41,3.59,3.06.25,0,.49,0,.74,0,9.46.34,18.91-.6,28.37-.54,9.28.06,18.56.28,27.84.43,3.73.06,7.46,0,11.18.2,4.93.25,9.83,1,14.78,1s9.87-.37,14.8,0c.86.07,1.17-.27,1.15-1.18a159,159,0,0,1,.23-17.6c.08-.83-.13-1.21-1-1.34" transform="translate(-100.07 -197.16)"/><path class="cls-1" d="M242.26,247.13c0,1.69,1.1,1.53,2.12,1.25a41.43,41.43,0,0,1,10.16-1.17c1.34,0,1.68-.61,1.62-1.81a44.34,44.34,0,0,1,.69-9.48,2.77,2.77,0,0,0-1.12-3c-3.55-2.53-7.06-5.13-10.6-7.68-.84-.6-1.94-1.07-2.08-2.19-.3-2.39-.47-4.8.78-7.06a8.86,8.86,0,0,1,6.38-4.44c3.11-.62,6.21-.68,9.35-1.84,4.82-1.79,9.11.73,12.62,4.09.94.91,1.28,2.46,1.83,3.75a1.1,1.1,0,0,1-.48,1.28c-3.59,3-7.12,5.94-10.4,9.23-1.8,1.8-4.09,3.24-4.41,6a71.93,71.93,0,0,0-.78,10.58c.09,2.62.06,2.75,2.59,2.81,3.92.1,7.78.73,11.67,1.05a2.09,2.09,0,0,0,1.8-.61,39.06,39.06,0,0,0,8.09-11.73,16.26,16.26,0,0,0,1.67-8.15,24.88,24.88,0,0,0-13-24.65c-1.4-.76-2.48-2.09-4.08-2.4a26.46,26.46,0,0,0-15.45,1.32c-2.82,1.19-5.9,2.13-8,4.64-.9,1.07-1.76,2.16-2.69,3.2-4.93,5.51-7.17,12-5.9,19.24,1.09,6.25,2.49,12.56,7.39,17.27a.7.7,0,0,1,.2.5" transform="translate(-100.07 -197.16)"/><path class="cls-1" d="M293.55,293.16c-4.72,3.91-9.78,7.45-14,12-.36.38-1,.74-.72,1.33s.88.22,1.35.27l1.13.08c.69-.35,1.81.36,2.58-.52,2.31-2.67,5.14-4.76,7.8-7,2.43-2.1,4.77-4.33,7.28-6.33,3-2.43,6.2-4.69,9.32-7,.57-.42,1-.8.8-1.63-.39-1.46-1.11-1.71-2.77-.43-4.18,3.22-8.74,6-12.78,9.33" transform="translate(-100.07 -197.16)"/><path class="cls-1" d="M232.42,332.72c4.87-.4,9.75-.79,14.63-1,7.82-.28,15.64-.38,25.22-.6,6.3.23,14.37-.18,22.43-.21,1.47,0,2.06-.34,2-1.94-.11-6.23-.24-12.47-.69-18.69-.08-1.07.34-2.78-1.82-1.56a1.93,1.93,0,0,1-1.43-.06c-2.53-1-5.18-.81-7.79-.76-12,.23-23.95.55-35.92.81-3.92.09-7.77.79-11.66,1.17-.52.05-.77.15-.93.81-1.73,6.84-3.07,13.79-5.27,20.52-.41,1.26-.18,1.58,1.2,1.47m41.87-19a20,20,0,0,1,2.19,0s0,0,0,.06l5.65-.37c1-.06,1.63.28,1.75,1.39.26,2.46.13,5,1.19,7.34a1.19,1.19,0,0,1-1.17,1.78c-2.37.14-4.74.33-7.11.49-1.39.1-2.05-.38-2.19-1.94a33,33,0,0,0-1.2-7.38c-.31-.92.09-1.29.88-1.37M243.75,315a54.7,54.7,0,0,0,7.57-.39,1.29,1.29,0,0,1,1.56,1.37,25.19,25.19,0,0,0,1.6,7.48c.31,1,.28,1.8-1.17,1.83-2.74.06-5.48.17-8.21.4-1.4.13-1.87-.43-1.9-1.71,0-1.09-.09-2.19-.14-3.29-.1-1.51.14-3-.35-4.54-.23-.73.34-1.2,1-1.15" transform="translate(-100.07 -197.16)"/><path class="cls-1" d="M266.42,216.08a2.08,2.08,0,0,0,1.89-1.79c0-.78-.38-1-.93-.92a2,2,0,0,0-1.78,1.77.73.73,0,0,0,.82.94" transform="translate(-100.07 -197.16)"/><path class="cls-1" d="M244.85,322.88c0,.5.09,1.1.69,1.13a12.08,12.08,0,0,0,6.2-1c1.19-.61-.44-2.16-.33-3.35a1.63,1.63,0,0,0-.07-.36c-.44-2.87-.45-2.87-3.3-2.71-.31,0-.61.08-.91.11-2.65.25-2.65.25-2.53,2.91.09,1.1.17,2.19.25,3.29" transform="translate(-100.07 -197.16)"/><path class="cls-1" d="M277.91,322.68c1.15-.11,2.19-.82,3.53-.55.4-.33,1.71.4,1.47-.5-.51-1.95-.08-4.33-1.29-5.79s-3.35-.27-5.08-.45c-.69-.07-1,.31-.93,1,.14,1.64.26,3.28.41,4.92.11,1.16.77,1.47,1.89,1.36" transform="translate(-100.07 -197.16)"/><path class="cls-1" d="M259.85,216.29c.06-1.11-2-3.12-3.06-3s-1.14,1-1.17,1.76a2.45,2.45,0,0,0,2.47,2.75c.8-.06,1.7-.29,1.76-1.48" transform="translate(-100.07 -197.16)"/><path class="cls-1" d="M253.68,212.74c-3.67-1.14-9.37,3.09-8.94,7a8.39,8.39,0,0,0,3,5.34,68.1,68.1,0,0,0,8,5.85c.94.53,1.56.62,2.39-.22,2.92-2.94,5.95-5.76,9.12-8.44a24.38,24.38,0,0,0,4.08-3.65c.73-1,.28-3.32-.74-3.88-.57-.31-.75,0-.88.48-.44,1.71-1.89,2.15-3.31,2.51A1.87,1.87,0,0,1,264,216.4c-.68-2.11,0-3.38,2.13-4a4.86,4.86,0,0,0,.63-.33c-1.61-1.25-6-1.73-7.56-.82-.35.2-.78.56-.84.9-.11.7.62.57,1,.76a4,4,0,0,1,1.87,4,3.11,3.11,0,0,1-3.06,2.6c-2.66.1-4.52-2.26-4-5.2.09-.58.7-1.24-.44-1.59" transform="translate(-100.07 -197.16)"/><path class="cls-2" d="M110.47,562.6c2-1.73,4.28-3.4,4.57-6.45,0-.51.09-1.37.84-1.48s.88.68,1.24,1.15c1.55,2,4.66,3.42,7.11,1a11.44,11.44,0,0,0,3.56-6.88c.79,1,1.3,1.75,1.88,2.42,2.11,2.4,5,2.58,7.78,2.19,2.17-.3,3-2.41,3.49-4.29a25.46,25.46,0,0,0-1.58-16.42,23.57,23.57,0,0,0-3.05-5.56c-1.75-2.25-.57-4.91.16-7.14,2.31-7.05,4.67-14.09,7.32-21,2.28-6,4.23-12,6.27-18.09A104.36,104.36,0,0,0,153.19,472a24.88,24.88,0,0,1,1.78-5.91c.77-1.55,1-3.11,3.67-2.75,2.51.33,5.21-.24,7.84-.31a47.58,47.58,0,0,0,8-.42c1-.19.87.59.89,1.18.19,4.27.29,8.55.57,12.82.58,9.07.53,18.19,2,27.22a21.89,21.89,0,0,0,4.1,10.44,13.43,13.43,0,0,0,5.86,4.26c5.93,2.55,12.22,2.67,18.5,2.58,1.69,0,2.16.72,2.31,2.11a3.55,3.55,0,0,0,.15,1.24c.64,1.16,0,1.44-1,1.53s-2.08,0-3.11.16c-2.37.31-4.64.81-6.32,2.8-1.3,1.54-2.33,3.16-1.41,5.14,1.06,2.29,2,4.83,5.13,5.14a84.1,84.1,0,0,0,10.42.58c3.85-.08,3.21-.61,3.24,3.36.05,7.58-.54,15.15-.85,22.73-.38,9.53-.73,19.07-.55,28.62,0,1.72-.52,2.19-2.18,2.18a77.89,77.89,0,0,0-11.34.37c-5.53.8-11.15.82-16.59,2.45-5.74,1.72-11.35,3.53-16.11,7.32-3.37,2.69-7,4.89-8,9.82a22.45,22.45,0,0,0,.73,10.92c.28,1,1.22,1.3,2.26.83a11.94,11.94,0,0,1,3-.86c8.69-1.55,17.52-1.48,26.28-2.22,10.53-.9,21.09-1.79,31.66-1.73,5.07,0,10-1.57,15.13-.83,1.31.19,3.89-2.29,3.71-3.36a36,36,0,0,1,0-6.57c.13-7.33,1.17-14.61,1-22-.23-8.25.12-16.52-.14-24.77-.23-7.58-.43-15.15-.55-22.73,0-2.89.17-3.13,3-3.27,1,0,2,0,2.93.07,2.93.07,5.87,0,8.79.23,6,.41,12.05-.83,18.09.21,1.46.25,1.88.67,2,1.92.25,3.85.74,7.69.73,11.54,0,14,2.08,27.78,2.17,41.73,0,6.16-.15,12.34.12,18.49.12,2.83-2,6.54,2.32,8.25.39,1.86,1.85,1.35,2.95,1.19,6.37-.93,12.81-.48,19.2-.9,5.43-.36,10.88-.31,16.32-.13,7.08.24,14.19.17,21.23.84,8.72.81,17.48,1.49,26.1,3.23,1.82.37,2.78-.54,3-2.44a20.21,20.21,0,0,0-.23-4.19,20,20,0,0,0-3.35-10,28.49,28.49,0,0,0-9.9-8.59A27.82,27.82,0,0,0,348.56,598c-6.1-.76-12.25-1.25-18.38-1.83a193.88,193.88,0,0,0-20.31-.74c-1.59,0-1.87-.53-1.89-2-.15-7.22-.31-14.44-.71-21.64-.53-9.83-.93-19.67-1-29.51,0-1.37.41-1.74,1.78-1.78,6.78-.23,13.55-.58,20.28-1.36,2.91-.34,5.54-2.6,5.58-4.72.07-3.55-2.23-7-5.31-7.37-4.7-.64-9.44-1-14.16-1.55-.71-.07-1.55.07-1.49-1.09,0-.93.27-1.71,1.38-1.82a4.5,4.5,0,0,1,1.1,0,48.88,48.88,0,0,0,11.34,0c4.55-.35,9.12-.7,13.15-3.17,2-1.24,4.34-2.26,5.87-4a19.12,19.12,0,0,0,4.84-11.06c.75-8.52.9-17.09,1.58-25.61.56-7,.68-14,.64-21.07,0-1.32.57-1.69,1.71-1.79a69.27,69.27,0,0,1,14.25.37c.34,0,.83.2.94.44.6,1.32,1.87,2.14,2.56,3.31,2.33,4,5.17,7.64,7.5,11.62,1.78,3.05,3.9,5.87,5.89,8.76,2.17,3.15,4.28,6.34,6.25,9.61,2.52,4.18,4.87,8.46,7.35,12.66.57,1-.07,1.21-.65,1.51a19.11,19.11,0,0,0-3.44,2.84c-1.69,1.42-2.26,3.59-3.41,5.37a21.62,21.62,0,0,0-3.64,11.89c0,3.2.5,6.12,4,7.46a1.14,1.14,0,0,1,.32.18,7,7,0,0,0,8.12.53,19.31,19.31,0,0,0,2.51-2c.36-.29.66-.9,1.2-.58s.33.89.27,1.35a19.26,19.26,0,0,0,.55,6.72,2.34,2.34,0,0,0,2.55,2c2.91.15,4.44-1.83,6.07-3.7.22-.25.19-.78.71-.66s.34.48.31.76c-.21,2.55.92,4.78,1.84,7a3.14,3.14,0,0,0,3.63,2.09c4.75-.72,7.68-4.12,9.9-7.68a37.05,37.05,0,0,0,4.8-13.71c.92-5.63-1.53-9.89-4.58-14a9,9,0,0,0-5.09-3.65c-1.91-.34-2.5-1.17-3.18-2.74-.94-2.17-2.49-4.07-3.46-6.23-2.53-5.62-5.82-10.81-8.77-16.19-1.93-3.49-4.38-6.69-6.52-10.07-2.84-4.47-5.6-9-8.4-13.47-1.9-3-3.92-6-5.67-9.15a30.79,30.79,0,0,0-4.21-6.36c-1-1.06-2.5-1.45-3.57-2.49a39.79,39.79,0,0,0-5-4.3,10.6,10.6,0,0,0-5.56-2.13c-3-.12-5.89-.62-8.88-.42s-5.83-.74-8.77-.57c-1.12.06-1.55-.59-1.59-1.57a17.2,17.2,0,0,0-2.53-7.55,10.84,10.84,0,0,0-5.06-5.1c-4.66-2-9.56-2.25-14.54-1.86s-9.94.26-14.91.76c-3.12.31-6.33-.24-9.5-.44-10.3-.64-20.55-2.1-30.91-1.8-.67,0-1-.24-1-.94,0-2.38-.57-4.73-.48-7.13,0-1.1.45-1.53,1.54-1.51a7,7,0,0,0,4.84-1.42c2.28-2.11,5.58-2.68,7.31-5.77,1.65-2.94,4.16-5.47,6.43-8,2.83-3.16,4.45-7.08,7.25-10.21a6.28,6.28,0,0,0,.91-2.18,3.65,3.65,0,0,1,.57-1.33c2.62-3.07,4.05-6.87,6.26-10.2,1-1.46,1.32-3.33,2.28-4.71a15.26,15.26,0,0,0,2.41-6.21c.66-3.76,2.09-7.4,1.73-11.33-.06-.67.33-.83.93-.71a15.28,15.28,0,0,0,7.23-.43c5.58-1.5,9.56-4.87,11.37-10.32,1.19-3.55,1.49-7.22-1-10.66a23.24,23.24,0,0,0-6.2-5.46c-2.31-1.57-4.6-2.68-7.43-2.36-.35,0-.84.16-1-.25-.55-1.68-2.17-2.81-1.84-5,1.06-7.23-.55-14.25-2.42-21.16-1.3-4.77-3.16-9.35-7.76-12.17-.88-.54-1.55-1.53-2.48-2.11-.44-.28-.56-.59-.25-1.06,1.82-2.73,3.17-5.75,5.14-8.4,1-1.4.77-3.84-.59-4.29-3.66-1.2-6.5-3.94-10.21-5.15-2.55-.83-4.89-2.43-7.54-3.17-3.46-1-6.82-2.23-10.19-3.44-.67-.24-1.13-.38-.53-1.24a54.71,54.71,0,0,0,5-8c1.05-2.25,2.36-4.38,2.58-7a83,83,0,0,0,.18-9.33,26,26,0,0,0-11.06-19.68c-4.29-3.06-8.84-5.58-14.27-5.2s-10.75,1.28-15.69,3.75a23.6,23.6,0,0,0-7.48,5.73,59.21,59.21,0,0,0-5.32,7.77c-2.85,4.73-3.36,9.74-2.8,15,.48,4.47,2.34,8.57,3.94,12.71a9.48,9.48,0,0,0,2.83,4.44c.71.54.64,1.12-.37,1.36-1.7.4-3.27,1.15-5,1.52-5,1.07-9.45,3.77-13.88,6.24a34,34,0,0,0-8.5,6.54c-1.32,1.43-1.73,3.11-.5,4.52,1.76,2,2.25,4.56,3.35,6.84.42.87.14,1.53-.68,2.19A25.37,25.37,0,0,0,204,285.92a79.38,79.38,0,0,0-4.54,13.86,47.68,47.68,0,0,0-.34,15.31c.22,2,.08,2.74-1.8,3.17a17.38,17.38,0,0,0-6.35,2.46,12.77,12.77,0,0,0-5.68,10.1A14.34,14.34,0,0,0,191.2,344c1.24.91,2.38,2,3.9,2.25a28.75,28.75,0,0,0,11.28.25c1.12-.23,1.64.2,2,1.31a21.49,21.49,0,0,0,3.28,6.88,4.51,4.51,0,0,1,.87,2.19,17.73,17.73,0,0,0,2.37,6.22c1.68,3.11,3.91,5.93,5.72,8.94a60.52,60.52,0,0,1,3.43,6.37,37.89,37.89,0,0,0,5.77,9.36c2.7,3.12,5.2,6.4,8,9.46a38.72,38.72,0,0,0,9.37,7.41,8.82,8.82,0,0,1,4.83,7.95c.08,2.38.05,2.4-2.19,2.17a2.19,2.19,0,0,0-.36,0c-6.54.08-13,.9-19.52,1.58-8.61.89-17.28,1.29-25.8,3-1.87.38-3.92,1-5.81.4-3.16-1-6.28-.61-9.44-.32-.67.06-1.51.07-1.85.64-1,1.75-2.87,2.23-4.54,2.88-4.61,1.8-6.21,5.57-6.62,10.05-.24,2.56-.46,2.72-2.93,3.44-4.73,1.37-9.71,1.08-14.43,2.39-.65.19-1.15-.18-1.72-.35-1.23-.36-2.6-1.35-3.78-.19-4.26,4.15-9.06,7.75-13,12.25-1.2,1.39-3.45,2.11-3.36,4.5s-.82,4.8-1.63,7.1c-.93,2.64-2.35,5.17-2.82,7.88-1,5.72-3.65,10.88-5,16.44a27.56,27.56,0,0,1-1.92,4.92c-1.62,3.49-2.37,7.28-3.84,10.83A58.56,58.56,0,0,0,119,510c-1.31,4.95-3.65,9.58-4.53,14.67a3.26,3.26,0,0,1-2.12,2.51c-3.74,1.68-6.25,4.64-8.24,8.19-1.56,2.78-1.86,5.9-2.9,8.81a25.57,25.57,0,0,0-1.12,6.08c-.33,3.52.68,6.73,2,9.95s5.7,4.71,8.39,2.42m306.86-38.31c-1.75,3.4-3.24,7-6.14,9.63a2.86,2.86,0,0,1-.42.36c-.62.36-.67,1.67-1.48,1.37s-.5-1.49-.59-2.3c0-.37,0-.74,0-1.48.34-3.07.27-6.58,1.77-9.84.45-1,.86-1.22,1.95-.87,1.44.47,2.75,1.31,4.3,1.5,1.14.15,1,.93.61,1.63m2.91-15.49a15.37,15.37,0,0,0,3.52,1.74c3.42,1.49,5.13,4.18,6.61,7.32.82,1.74.36,3.48.48,5.21.32,4.78-2,8.75-3.67,13-1.23,3-4.23,3.88-5.82,6.27-.47.7-1,.49-1.51-.32-1.2-2-.81-4.06-.37-6.06a73.7,73.7,0,0,1,2.81-10.61,8.12,8.12,0,0,0,.27-2.17c0-.56-.18-1-.82-1-2.92,0-5.38-1.51-8-2.38-.87-.28-1.74-.6-2.62-.81-3-.72-4-.29-5.23,2.53a11.7,11.7,0,0,1-2.53,3.76c-1.62,1.64-3.17,3.36-4.91,4.85-1.54,1.32-2.32.87-3.59-.64-4-4.8-2-12.54.71-16.4a27.41,27.41,0,0,1,5.93-6.28,4.73,4.73,0,0,1,3.43-.7c3.67.09,7.3.64,10.94,1.05a8.28,8.28,0,0,1,4.4,1.61m-35.35-60.24a64.41,64.41,0,0,0,7.38,12.06c.86,1.16,1.13,2.52,1.91,3.71,2.73,4.09,5.27,8.3,7.88,12.47,2.31,3.69,4.55,7.43,6.95,11.06.79,1.2,1,2.62,1.8,3.77,2.58,3.86,4,8.34,6.7,12.14.21.3.37.64.56,1,.69,1.11.39,1.57-.92,1.38-2.36-.51-4.87-.28-7.14-1.41a3.94,3.94,0,0,0-2-.41c-2.4.2-3.75-1.2-4.71-3.06a99.47,99.47,0,0,0-5.06-8.64c-3-4.58-5.55-9.41-8.89-13.79-2.69-3.51-5.14-7.23-7.5-11-2.27-3.59-4.92-6.94-6.82-10.75-.46-.92-2-1.34-1.62-2.36.32-.84,1.55-1.3,2.28-2,1.64-1.63,3.17-3.37,4.84-5,1.89-1.81,3.26-1.51,4.32.85m-13.45-9.9c3.27,1,5.84,3.21,8.65,5,1,.66,1.48,1.53.19,2.43-2.48,1.73-3.9,4.58-6.61,6.1a2.36,2.36,0,0,1-3.5-1.66c-.07-.73-.06-1.47-.07-2.2s0-1.47,0-2.2H370c0-2.13,0-4.26,0-6.39,0-1,0-1.54,1.4-1.08m-18.53-1.48c3.94.24,7.91-.06,11.85.45a2.33,2.33,0,0,0,.89-.14c2.18-.61,2.08-.6,2.33,1.74a96.6,96.6,0,0,1,.57,11.15c0,1.34-.4,1.67-1.69,1.57a79.46,79.46,0,0,0-13.71-.09c-1.28.12-1.79-.32-1.76-1.59.05-2,0-4,0-6h-.11c0-1.83.09-3.66,0-5.49-.06-1.22.38-1.63,1.58-1.55m-38.43-98.6a70.79,70.79,0,0,0,2.69-12.48,20.05,20.05,0,0,0,.53-4.65v-.61c0-3.63.65-4.12,4.17-3.08a12.51,12.51,0,0,1,7.17,4.92c2.14,3.12,1,10.42-1.38,13.09-2.68,3-6.16,3.9-9.78,4.68-1,.22-2-.47-3-.69-.61-.13-.57-.64-.4-1.18M239.37,604.16c-.12,4.09-.11,8.18-.47,12.26-.14,1.6-.38,2.32-2.28,2.3-5.43-.06-10.79,1.31-14.26.95-10.78.12-19.58.67-28.32,1.47-7.22.66-14.51.36-21.69,1.86-2.77.58-5.67.72-8.5,1.18-1.13.19-1.34-.23-1.38-1.26-.24-6.85,4.34-10.4,9.37-13.5,1.73-1.06,3.18-2.55,5.23-3.19,3.58-1.12,7.07-2.51,10.74-3.35a69.51,69.51,0,0,1,13.88-1.54c4.53-.12,9.05-.72,13.58-.9,3.53-.15,7-1,10.59-.39a92.84,92.84,0,0,0,10.92,1c2.85.14,2.68.19,2.59,3.15m.63-39.81c.27,8.91,0,17.84-.49,26.75-.13,2.37,0,4.76.08,7.14,0,1.36-.12,1.75-1.81,1.52-5.5-.73-11.05-1.1-16.59-1.55-2.14-.17-2.87-.82-2.92-3-.22-9,0-18,.49-26.93.39-7.32,1-14.63,1.12-22,.05-2.48.53-5,.14-7.46-.14-.9.24-1,1-1.07,5.59-.5,11.18-1.07,16.81-.43.89.1,1.81,0,2.72,0a2.57,2.57,0,0,0-1,2.25c.11,8.25.25,16.5.5,24.74m43.79,15.21c-.93-5.2-.5-10.5-.76-15.75-.25-5-.66-10.09-1-15.13a78.44,78.44,0,0,0-.85-10c-.22-1,.68-.77,1.22-.8,3.41-.21,6.81.32,10.24.08,3-.22,6.1-.06,9.14,0,.66,0,1.37,0,1.21,1.07-.73,5.16-.44,10.35-.29,15.52.17,5.73.52,11.46.74,17.2.22,6,.51,12.09.51,18.13a56,56,0,0,0,.22,6.35c.11,1-.31,1.27-1.25,1.24-5.51-.18-11,.21-16.49.48-1.15.06-1.55-.23-1.47-1.38.08-1.4,0-2.81,0-4.22a97,97,0,0,0-1.2-12.73m43.44,20.23c6.37.7,12.73,1.48,19.11,2.07a26.8,26.8,0,0,1,9.65,2.63,29.23,29.23,0,0,1,10.39,8.41c1.85,2.44,2.16,5.65,2.68,8.65.16.89-.52.9-1.19.89a79.41,79.41,0,0,1-8-1q-11.1-1.23-22.23-2c-7.63-.51-15.26-.32-22.88-.52-4.32-.12-8.66.11-13,.37-4.5.28-9,.23-13.54.31-3.57.07-3.68.05-3.49-3.5.27-5.13-.18-10.27.15-15.4.09-1.37.6-1.56,1.64-1.48a71.89,71.89,0,0,0,9.15-.38c3,0,6-.19,9,.09,7.52.7,15.08,0,22.58.82m-12.5-70.53c4.62.28,9.21.93,13.81,1.45.87.1,1.82.31,2,1.26s-.8,1.23-1.42,1.66a13,13,0,0,1-6.8,1.87c-4,.22-7.94,1.27-12,1.17-1.34,0-2.68,0-4,0-8-.45-16-.27-24-.33q-22-.18-44.06-.52c-6.17-.1-12.33.32-18.48.33-5.4,0-10.89.29-16.27-.74a14.74,14.74,0,0,1-3-.9c-1.34-.58-1.46-1.6-.3-2.51a8.34,8.34,0,0,1,4.16-1.79c3.06-.34,6.27.21,9-1.79,2.43.58,4.75-.53,7.16-.5,9,.13,18.07-.37,27.11-.46,3.48,0,6.94.33,10.41.58,4.07.29,8.18.11,12.27.1,7.2,0,14.4.08,21.6-.1,5.86-.14,11.69.86,17.56.37,1.71-.15,3.35.76,5.13.87m-8-2.24c-.61,0-1.22,0-1.83,0-12.75-.94-25.52-.53-38.28-.65-7.33-.08-14.67-.63-22-.39-10,.32-20-.25-30,.76-2.27.23-2.77-.33-2.69-2.66.11-3.27.57-3.46,3.85-3.55s6.56.16,9.85-.35c2.13-.33,4.36.16,6.57,0a318.67,318.67,0,0,1,39-.26c4.63.22,9.27.12,13.91.13,7.14,0,14.27-.15,21.4.2,1.29.06,3-.77,3.79.39.7,1-.59,2.43-.44,3.7.31,2.53-1.21,2.77-3.1,2.69m5.46-231c.25,1.5.39,3,.59,4.53a1.36,1.36,0,0,1-.52,1.46c-3.27,2.3-6.19,5.07-9.5,7.33a40.91,40.91,0,0,0-4,3.51c-.32.28-.62.67-1.1.42s-.31-.63-.31-1c0-.85,0-1.71,0-2.85-.52-2.06.32-3.76,2.18-5.29,3.5-2.9,6.8-6,10.22-9,1.18-1,2.11-.68,2.39.91m-1.95-7.6c1.14,3,.89,3.62-1.4,5.71-4.14,3.77-8.61,7.18-12.42,11.3-.66.71-1.24,1.38-2.31.91a37.3,37.3,0,0,1-6.59.35c-.4,0-.92.2-1.16-.28s.23-.81.51-1.07c5.59-5.11,11.07-10.35,17.46-14.49,1.52-1,2.54-2.6,4.43-3.12.87-.25,1.18-.1,1.48.69m-90.45,24.64c0-.66-.33-1.39.55-1.72s1,.23,1.37.81c.46.82,1.41.37,1.33-.09-.31-1.71,1-1.12,1.58-1.16,4.1-.23,4.08-.2,3,3.65a81.61,81.61,0,0,0-2,8.51,69.41,69.41,0,0,1-2.87,9.42c-.2.6-.58,1.42-1.35,1.28s-.79-1-.8-1.69c0-2.74,0-5.49,0-8.23h.13q-.45-5.38-.91-10.77M225,331.42c.54-3.45,1.76-6.71,2.62-10.08s1.63-6.51,2.29-9.8c.4-2,1.87-1,2.65-1.3,2.59-.05,2.48-.08,1.85,2.17-.84,3-1.46,6-2.2,9.07-.84,3.37-2.44,6.51-2.91,10-.16,1.2-3.31,2.36-4.21,1.65-.6-.47-.18-1.13-.09-1.71m6.2-.17c2.2-6.73,3.54-13.68,5.27-20.52.16-.66.41-.76.93-.81,3.89-.38,7.74-1.08,11.66-1.17,12-.26,23.95-.58,35.92-.8,2.61-.06,5.26-.23,7.79.75a1.93,1.93,0,0,0,1.43.06c2.16-1.22,1.74.49,1.82,1.56.45,6.22.58,12.46.69,18.69,0,1.6-.56,1.93-2,1.93-8.06,0-16.13.45-22.43.22-9.58.22-17.4.32-25.22.6-4.88.17-9.76.56-14.63,1-1.38.11-1.61-.21-1.2-1.47m77.88-47c.22.83-.23,1.21-.8,1.63-3.13,2.32-6.29,4.58-9.32,7-2.51,2-4.85,4.23-7.28,6.33a72.37,72.37,0,0,0-7.8,7c-.77.89-1.89.18-2.58.53l-1.13-.08c-.47-.05-1.12.22-1.35-.27s.36-.95.72-1.33c4.21-4.51,9.27-8.05,14-12,4-3.35,8.6-6.11,12.78-9.33,1.66-1.28,2.38-1,2.77.43m-74.43-54.9c-1.27-7.24,1-13.73,5.9-19.24.93-1,1.79-2.13,2.69-3.2,2.1-2.51,5.18-3.45,8-4.64A26.46,26.46,0,0,1,266.71,201c1.6.31,2.68,1.64,4.08,2.4a24.86,24.86,0,0,1,13,24.65,16.14,16.14,0,0,1-1.66,8.15A39.06,39.06,0,0,1,274,247.89a2.09,2.09,0,0,1-1.8.61c-3.89-.32-7.75-.95-11.67-1.05-2.53-.06-2.5-.19-2.59-2.81a72,72,0,0,1,.78-10.58c.32-2.8,2.61-4.24,4.41-6,3.28-3.29,6.81-6.28,10.4-9.23a1.1,1.1,0,0,0,.48-1.28c-.55-1.29-.89-2.85-1.83-3.75-3.51-3.37-7.8-5.88-12.62-4.09-3.14,1.16-6.24,1.22-9.35,1.84a8.86,8.86,0,0,0-6.38,4.44c-1.25,2.26-1.08,4.67-.78,7.06.14,1.12,1.24,1.59,2.08,2.19,3.54,2.55,7.05,5.15,10.6,7.68a2.77,2.77,0,0,1,1.12,3,44.34,44.34,0,0,0-.69,9.48c.06,1.2-.28,1.78-1.62,1.81a41.48,41.48,0,0,0-10.16,1.17c-1,.28-2.16.44-2.12-1.25a.7.7,0,0,0-.2-.5c-4.9-4.71-6.3-11-7.39-17.27m23.48-9.83a3.11,3.11,0,0,0,3.06-2.6,4,4,0,0,0-1.87-4c-.41-.19-1.14-.06-1-.76.06-.34.49-.7.84-.9,1.53-.91,6-.43,7.56.82a3.75,3.75,0,0,1-.63.32c-2.12.65-2.81,1.92-2.13,4a1.87,1.87,0,0,0,2.48,1.28c1.42-.36,2.87-.8,3.31-2.51.13-.49.31-.79.88-.48,1,.56,1.47,2.92.74,3.88a24.78,24.78,0,0,1-4.08,3.65c-3.17,2.68-6.2,5.5-9.12,8.44-.83.84-1.45.75-2.39.22a67.28,67.28,0,0,1-8-5.85,8.39,8.39,0,0,1-3-5.34c-.43-3.87,5.27-8.1,8.94-7,1.14.35.53,1,.44,1.59-.49,2.94,1.37,5.3,4,5.2M255.62,215c0-.8.1-1.67,1.17-1.76s3.12,1.91,3.06,3-1,1.42-1.76,1.48a2.45,2.45,0,0,1-2.47-2.75m11.76-1.65c.55-.06,1,.14.93.92a2.08,2.08,0,0,1-1.89,1.79.73.73,0,0,1-.82-.94,2,2,0,0,1,1.78-1.77M214.9,262.84c4.16-3,8.78-5.13,13.29-7.5a28.17,28.17,0,0,1,7.12-2.19,42.41,42.41,0,0,0,6.1-2.27,37.9,37.9,0,0,1,7.49-1.58,28.61,28.61,0,0,1,6.21-.37c5.5,0,10.95.77,16.42,1.27,4.87.45,9.3,2.28,13.91,3.61s9.08,3.5,13.52,5.47a48.9,48.9,0,0,1,4.87,2.87,1,1,0,0,1,.41,1.39,31,31,0,0,1-3.09,5.32,1,1,0,0,1-1.69.24c-3-2.56-6.73-3.94-10.35-5.27-3.4-1.26-7-1.84-10.58-2.74-5.85-1.48-11.88-1.55-17.79-1.33a114.61,114.61,0,0,0-22.07,2.71,92.73,92.73,0,0,0-12.9,4.36c-3.32,1.31-6,3.35-8.79,5.3-.95.66-1.56.54-2-.51-.71-1.75-1.51-3.47-2.1-5.27s.88-2.7,2-3.51m-9.25,80.6c-1.37.24-2.67.91-4.07.53a12.66,12.66,0,0,1-8.3-2.33,8.51,8.51,0,0,1-3.61-4.91c-1.28-5-.31-11,4.5-14.41a12.38,12.38,0,0,1,1.57-.92c2.24-1.11,3.24-.72,3.66,1.69.69,3.9,2.75,7.23,4.14,10.84,1.05,2.71,2,5.47,3,8.22.25.72-.07,1.16-.84,1.29m37,50.71a24,24,0,0,1-5.69-6.3c-2.35-3.53-4.95-6.9-7.47-10.31a2.06,2.06,0,0,1,.28-3,33.49,33.49,0,0,1,6-4.73c.58-.38,1.81-.64,1.07-1.65s-1.52-.11-2,.43c-1.91,2.09-4.73,3.05-6.45,5.36-.64.86-1.25.56-1.75-.16-1.06-1.56-2.09-3.14-3.12-4.72-.21-.33-.63-.84.11-1,2.45-.42,3.39-2.64,5-4.07a25.44,25.44,0,0,1,5.19-4c.56-.29,1.25-.56.86-1.32-.52-1-1,0-1.45.16-3.16,1.44-5.27,4.21-7.9,6.32-.75.61-1.44,1.3-2.2,1.91s-1.16-.1-1.34-.62c-1-2.91-3-5.25-4.5-7.87a1.54,1.54,0,0,1,.5-2.22c3.91-3.09,7.65-6.41,11.68-9.34,2.17-1.57,4.06-3.66,6.81-4.37.5-.13.91-.51.64-1.09a.84.84,0,0,0-1.24-.42,22.37,22.37,0,0,0-2.61,1.69c-4.63,3.53-9.43,6.84-13.84,10.66-.14.11-.31.2-.46.3-2.37,1.65-2.42,1.63-3.78-.85-.59-1.06-.61-1.54.74-2.27,1.76-.94,3.11-2.64,4.7-3.95A75,75,0,0,1,230.51,340c.59-.34,1.32-.74.65-1.53s-1.1-.45-1.81.17c-1.79,1.53-3.84,2.75-5.73,4.14-2.92,2.14-6.07,4.05-8.49,6.82-.85,1-1.54,1.3-1.92-.35-1.09-4.63-3.28-8.88-4.72-13.41-.91-2.84-1.6-5.74-2.55-8.56a43.3,43.3,0,0,1-1.86-11.16c-.22-3.35-.44-6.71-.51-10.07-.08-3.1,0-6.2.07-9.3a.7.7,0,0,1,.05-.36c2.54-4.44,2.78-10,6.76-13.76a23.21,23.21,0,0,1,4-3.33,85.61,85.61,0,0,0,7.51-5.73,11.45,11.45,0,0,1,4.85-2.48c2.36-.43,4.12-2.19,6.45-2.82a70.82,70.82,0,0,1,7.7-1.53,113.59,113.59,0,0,1,19.5-1.81,59.46,59.46,0,0,1,18.34,1.88c2.85.66,5.8.82,8.61,1.69.67.2,1.72,0,1.88.84s-.79,1.39-1.43,1.7c-3,1.39-5,4.18-7.91,5.72-.62.33-1.49.89-.9,1.7s1.42.08,2-.4a87,87,0,0,1,7.27-5.79c2.67-1.8,5.1-2,7.76-.47,2.41,1.42,4.75,3,7.1,4.45,1.24.78,1,2.68,2.44,3.31,1.89.85,1.07,2.14.16,2.77-2.59,1.79-4.66,4.18-7.39,5.86a71.36,71.36,0,0,0-9.3,7c-2.23,1.95-4.5,3.86-6.87,5.63-1.72,1.29-3.05,3-4.74,4.27a.22.22,0,0,0-.1.15c.09,2.74-1.87,1.7-3.19,1.68a218,218,0,0,0-29.79,1.28,67.76,67.76,0,0,1-7.68.4c-6,.06-12.07.62-18.09,1.23-.62.06-1.44-.17-1.7.72-.21.72.28,1.11.76,1.53.84.72.71,1.77.78,2.73.45,5.92.29,11.85.41,17.78.06,3,.55,3.3,3.38,2.63A42,42,0,0,1,232.74,334c6,.13,11.93-1,17.91-1.05q12.91-.17,25.84-.3l16.5-.21a5.46,5.46,0,0,1,2.33.34c1.62.7,2.92-.12,2.87-1.85-.13-4.09-.33-8.18-.51-12.27-.07-1.62-.69-3.07,1.62-4.17,2-1,3.29-3.3,5.22-4.71,2.41-1.75,4.72-3.63,7.07-5.45.33-.26.61-.68,1.1-.41s.28.76.26,1.17c-.4,6.64,0,13.35-1.11,19.93-.61,3.53-1.1,7.09-1.8,10.61-.32,1.55-.29,3.15-.52,4.72-.73,5.07-2.33,9.9-3.7,14.82a59.82,59.82,0,0,1-4.92,12.52c-2.35,4.38-4.26,9-7.22,13.07-2.38,3.3-4.47,6.79-7.38,9.69a12.55,12.55,0,0,1-1.61,1.47c-3.2,2.26-6,5-9.46,7a26.94,26.94,0,0,1-7.56,2.53c-5.36,1.19-10.56,1.22-15.47-1.52a91.46,91.46,0,0,1-9.53-5.73m26.83,20.3c.08,1-.29,1.36-1.25,1.26-.48,0-1-.06-1.46-.08a2.53,2.53,0,0,0,0-.28c-2.81,0-5.61-.05-8.42,0-1.26,0-1.89-.43-2-1.78-.11-2.08-.36-4.14-.58-6.21-.09-.82.18-1.22,1-1,3.61,1.12,7.24.27,10.86.12.9,0,1.24.16,1.29,1,.16,2.31.32,4.63.51,6.94M179.36,437a2.24,2.24,0,0,0,.22-1.77c-.62-5.57,2.84-8.31,8.38-9.67,6.53-1.6,13.29-1.54,19.91-2.67a132,132,0,0,1,15-1.7c4-.22,8-.94,12-1.2,5.67-.36,11.35-.41,17-.75a110.14,110.14,0,0,1,23.17.76c.35.06.88.09,1.05-.11,2-2.4,4.83-1.38,7.16-1.18,11.26.93,22.53,1.69,33.79,2.51,4.69.34,9.38.47,14.07.75a2,2,0,0,0,1.72-.41,1.68,1.68,0,0,1,1.72-.34,71,71,0,0,1,9,2.23,5.7,5.7,0,0,1,3.53,3.43,40.52,40.52,0,0,1,2.34,7.11,68.05,68.05,0,0,1,.94,9.25c.16,3.1.1,6.22.08,9.33,0,1.17.57,2.56-1.11,3.25-.43.17-.24.88-.29,1.36-.32,3.3.05,6.59.05,9.88,0,5.36-1.12,10.62-1.21,16-.11,6.35-.55,12.69-1.06,19-.19,2.28-1.16,4.34-1.47,6.57a1.06,1.06,0,0,1-.19.52c-2.68,3.33-5.41,6.6-9.81,7.75a58.5,58.5,0,0,1-20.06,1.8c-1.75-.15-3.31-.59-5.23.14s-4.22.28-6.34.1c-3.79-.31-7.57-.13-11.35-.15-9.28-.05-18.56.12-27.83-.38-7.4-.4-14.78-.16-20.86,0-11.81,0-22.31-.31-32.79-.79-4.68-.21-9.36-.43-14-.92a24.44,24.44,0,0,1-10.73-3.43,9.64,9.64,0,0,1-3.65-5.75,82.33,82.33,0,0,1-2.3-20c0-6.24-.93-12.44-.78-18.68.07-2.75.29-5.66-.3-8.18-1-4.38-.65-8.7-.83-13-.1-2.26.06-4.52,0-6.79a5.67,5.67,0,0,1,.92-3.82m-56,115.9c-.1.37,0,1-.53,1s-.85-.39-1.1-.82l-5-8.57,7.19-2.37c.2,3.63.49,7.19-.52,10.71m33-109.82c5.9-.87,11.78-1.89,17.63-3,1.53-.29,1.82.14,1.7,1.51-.11,1.15,0,2.32,0,3.48h0c0,1.22-.09,2.44,0,3.65.08.93-.18,2.06,1.26,2.43.69.17.92,6.21.3,6.57a1.69,1.69,0,0,1-.88.09,44.11,44.11,0,0,0-11.8.84,8.29,8.29,0,0,1-1.63.22c-1.59,0-3.37.45-4.71-.13-1.62-.69-.58-2.73-.91-4.15-.77-3.25-1.42-6.53-2.16-9.79-.26-1.11-.16-1.52,1.2-1.72m-12.22,10.19c1.25-2.44,4.09-3.35,5.54-5.66.69-1.11,2.09-1.44,3.16-2.12s1,.58,1.11,1.05c.59,3.06,1.08,6.14,1.61,9.21a16.47,16.47,0,0,0,.38,2c.4,1.33-.11,1.72-1.42,1.43a55.49,55.49,0,0,1-9.48-2.52c-1.06-.42-2.76-.25-3.06-1.26s1.64-1.08,2.16-2.11m-25.71,71.93c1.1-4.76,3.11-9.24,4.39-13.92,1.68-6.13,4.37-11.89,6.07-18,.31-1.11.89-2.13,1.28-3.22,2.52-7.11,5-14.23,7-21.52.76-2.75,2-5.35,3.08-8a2.07,2.07,0,0,0,.28-.86c-.26-2.25,1-2.22,2.56-1.72,2.68.83,5.55.85,8.15,1.95.53.22,1.24.25,1.41,1.1a12.47,12.47,0,0,1-.84,1.55,11.91,11.91,0,0,0-2.44,6c-.24,3.8-1.79,7.2-3,10.72-1.66,5-3.35,9.95-4.92,14.95-1.24,4-2.79,7.81-4.11,11.74-1.93,5.78-4.15,11.47-5.55,17.41-.13.55-.36.9-1,.93s-1.09.31-1.13.77c-.2,2.49-1.62,1-2.67.91a29,29,0,0,0-7.67.17c-1,.15-1.29.32-1-1m-14.11,21.94a31.67,31.67,0,0,1,2.88-9.94c1.9-3.77,4.49-6.85,9-8,2.34-.62,4.54-1.64,6.93-1.4,2.76-.36,5.2.56,7.59,1.42,3.2,1.16,4.35,4.09,5.25,7a20.41,20.41,0,0,0,1.05,3.3c1.68,3.31,1.19,6.77.7,10.23a1.27,1.27,0,0,1-1.06,1.1,3.66,3.66,0,0,1-4.28-2.07,46.11,46.11,0,0,1-2.67-9.5c-.25-1.48-1.17-1.57-2.07-1-1.68,1.15-3.62,1.71-5.35,2.75-2.6,1.56-5.73,1.58-8.67,2-1.65.23-1.83.76-1.5,2.26a18.87,18.87,0,0,1-1.6,13.45c-1.11,2.07-3.24,2-4.57,0-2.48-3.63-2.22-7.63-1.66-11.65" transform="translate(-100.07 -197.16)"/><path class="cls-2" d="M316.39,453.09c-1.2-.37-2.15-1.37-3.58-1.22a36.78,36.78,0,0,1-4.58.1c-8.87-.23-17.73-.56-26.6-.73-11.8-.22-23.59-.3-35.39-.1-11.32.2-22.65.07-33.93,1.32-2.13.23-3.12,1.22-3.08,3.4,0,1.35.12,2.69.12,4,0,6.64-1.09,13.25-.43,19.4-.47,4.31.46,8.06.47,11.85,0,2,.7,2.5,2.72,2.19a31.84,31.84,0,0,1,4.55-.51c13.5-.13,27-.74,40.49-.33,8.74.26,17.48.12,26.22.38,9.51.28,19,1.24,28.54.95,3.26-.09,3.27,0,3.12-3.32a1.37,1.37,0,0,1,0-.19c-.4-5.07-.08-10.14,0-15.21,0-1.9,2.45-3.55.55-5.59.54-5,.1-10.15,1.11-15.15.1-.49.28-1.1-.3-1.28m-2.75,20.75a159,159,0,0,0-.23,17.6c0,.91-.29,1.25-1.15,1.18-4.93-.4-9.87,0-14.8,0s-9.85-.78-14.78-1c-3.72-.2-7.45-.14-11.18-.2-9.28-.15-18.56-.37-27.84-.43-9.46-.06-18.91.88-28.37.55a6.09,6.09,0,0,0-.74,0c-3.32.35-3.21.34-3.59-3.06a62.82,62.82,0,0,1-.39-10.62c.11-1.86.7-2.92,2.81-3.25,5.44-.86,10.84-1.63,16.39-1.28a65.8,65.8,0,0,0,8-.4c.58,0,1-.44.85-1-.58-2.73,1.8-4,2.78-6.51,1.62,4.63,3,8.76,4.54,12.82.94,2.44,2.18,4.77,3.31,7.14.21.43.46,1,1.09.7s.57-.72.44-1.24c-1-4.22.14-8.24,1.23-12.24.53-1.9.43-4,1.55-5.73.81.13.67.73.68,1.16.06,2.52,1,4.9,1.21,7.41.06.81.53,1,1.22,1,.89,0,.87-.6.91-1.26.13-2.36.3-4.71.46-7.07l.45-.08c1.66,3.52,2.68,7.29,4.07,10.92a17.4,17.4,0,0,1,1,2.55.91.91,0,0,0,1,.82c.66-.1.86-.62.9-1.21.15-2.13.36-4.27.41-6.4.07-3.26,1.17-6.36,1.4-9.6,0-.5.12-1.41.91-1.34.63.06.54.89.62,1.38.61,3.8,1.16,7.61,1.76,11.42.1.62,0,1.54.93,1.55s.89-.82,1.12-1.46c1.14-3.16,1.53-6.53,2.83-9.64.19-.48.13-1.26.86-1.24s.68.78.78,1.28c.32,1.55,1.26,2.91,1.29,4.57,0,.6.57,1.44,1.37,1.07,2.9-1.32,5.92-.66,8.84-.5,5.93.34,11.85,0,17.77,0a43,43,0,0,1,6.21.25c.9.13,1.11.51,1,1.34m.28-4.28c0,1.14-.46,1.4-1.54,1.41-5.92.06-11.85.44-17.76.23-4.49-.16-9-.51-13.47-.41-1,0-1.22-.71-1.44-1.37-.5-1.51-.92-3.05-1.36-4.57-.28-1-.43-2.32-1.65-2.35-1.06,0-1.34,1.21-1.7,2.11-1.07,2.7-2.53,5.23-3.11,8.31a3.28,3.28,0,0,1-.72-2.68,44.85,44.85,0,0,0-1.65-10.1c-.18-.73-.28-1.73-1.37-1.67s-.84,1.1-1,1.83c-.87,4-2,8-2.71,12.1-.19,1.09-.15,2.19-.36,3.27-.07.39,0,.95-.64.91-.44,0-.57-.47-.6-.81-.22-3-1.63-5.62-2.46-8.42a18.66,18.66,0,0,0-1.12-2.88c-.22-.47-.57-1-1.25-.9s-.76.66-.82,1.22c-.13,1.08-.16,2.93-.94,2.87-1.27-.1-.6-1.79-.79-2.78-.25-1.32-.34-2.67-.5-4-.07-.61-.36-1.09-1-1.14-.82-.07-.76.6-.85,1.13-.61,3.62-1.71,7.13-2.53,10.7-.53,2.32-.87,4.67-1.3,7-.07.34,0,.83-.48.89s-.66-.41-.81-.83c-1.41-3.95-2.85-7.89-4.23-11.86-.43-1.25-1.4-2.47-.43-3.94.22-.35-.14-.84-.61-1a.73.73,0,0,0-.89.44c-1.49,2.75-4.08,4.82-4.83,8-.18.73-.8,1-1.56,1-2.56.08-5.12.3-7.68.32a95.6,95.6,0,0,0-15.29,1.55c-1.45.24-1.88-.11-1.85-1.52.12-5.26.59-10.51.43-15.77,0-.87.36-1.1,1.15-1.27a52,52,0,0,1,9.39-1.27c4.07-.17,8.15-.18,12.22-.56s8,0,12-.07c5.17-.13,10.34-.53,15.51-.62,3.94-.07,7.9.13,11.85.25q18,.54,36.1,1.12c.18,0,.36,0,.55,0,1.51.18,3.32-.09,4.46.66,1.32.85.08,2.64.14,4,.16,3.79-.38,7.57-.54,11.35" transform="translate(-100.07 -197.16)"/><path class="cls-2" d="M193,439.21a45.27,45.27,0,0,1,9.94-1.45c10.08-.66,20.18-1.09,30.28-1.64,1.58-.09,3.15,0,4.74-.18a93,93,0,0,1,12.37-.65c3.77.1,7.55,0,11.32,0,7.64,0,15.27-.4,22.91-.55,4.08-.08,8.15.06,12.23,0,10-.06,20-.3,30,.74.56.06,1.23.09,1.28-.64s-.66-.82-1.19-.79a60.52,60.52,0,0,1-7.5-.27c-11.48-.81-23-.14-34.46-.11-12.64,0-25.29.52-36.94.36-11.32.46-21.63.76-31.93,1.53-7.8.58-15.61.9-23.31,2.37-.54.11-1.46-.16-1.29.8.14.78.94.65,1.53.47" transform="translate(-100.07 -197.16)"/><path class="cls-2" d="M295.1,503.82c-1.52.13-3.05.09-4.57.17-11.95.64-23.92.84-35.88,1.53-5.37,0-10.75-.13-16.12-.06a92.27,92.27,0,0,0-13,.89c-.78.12-2.06.09-1.89,1.21.19,1.33,1.44.6,2.12.45a45.78,45.78,0,0,1,6.7-.94c6.88-.57,13.79-.54,20.68-.89,14-.71,28-.63,42-.72.55,0,1.52.48,1.44-.73-.06-.85-.66-1-1.46-.91" transform="translate(-100.07 -197.16)"/><path class="cls-2" d="M310.26,450.52c-1.06-.94-1.8-.73-2.46.37.74-.3,1.56.27,2.46-.37" transform="translate(-100.07 -197.16)"/><path class="cls-2" d="M265,376.68a13.91,13.91,0,0,0,6.5-1.56c3.05-1.81,5-4.8,6.69-7.82a21.34,21.34,0,0,0,2.08-4.64,54,54,0,0,0,1.55-7.71c.16-1.2,1.28-2.56.63-3.41s-2.44,0-3.7-.44c-4.12.33-8.26.75-12.41,1-7.75.4-15.4,1.68-23.08,2.72-2.24.3-2.66,1.4-1.56,3.35,1.38,2.43,2.85,4.81,4.11,7.31a19.63,19.63,0,0,0,4.94,6.64,20.07,20.07,0,0,0,14.25,4.6m-8.56-22.54c4.49-.37,9-.72,13.48-1.08.53-.05.78,0,.75.67a54.79,54.79,0,0,1-.3,6c-.43,2.59-.5,2.76-3.05,2.83-.55,0-1.1,0-1.65,0v-.19c-2,0-4,.06-6,0-3.16-.16-4.2-1.16-4.77-4.32-.08-.42-.08-.86-.2-1.27-.64-2.39-.65-2.4,1.77-2.6m-5.18,16.28a29.41,29.41,0,0,1-4.74-7.06,16.29,16.29,0,0,0-2.92-5.22c-.86-.9-.29-1.6.52-1.81,2.35-.61,4.62-1.59,7.1-1.67.71,0,1.16.13,1.35.88.59,2.3,2,4.3,2.27,6.73a1.46,1.46,0,0,0,1.42,1.44c4.57.18,9.13.65,13.69.37,1.2-.07,1.62-1.27,1.69-2.45.12-1.89.26-3.77.39-5.66.16-3.11.16-3.11,3.43-3.24.49,0,1,0,1.46,0,3.36,0,3.41,0,3.18,3.33-.39,5.79-3,10.71-6.65,15-4,4.73-11.13,5.22-16.3,2.95-2.12-.93-4.44-1.79-5.89-3.5" transform="translate(-100.07 -197.16)"/><path class="cls-2" d="M274.07,300.48a1.51,1.51,0,0,0,1.06-.65,23.33,23.33,0,0,1,1.74-1.84c2.84-2.45,5.82-4.75,8.54-7.33a84.61,84.61,0,0,1,8-6.33c2.76-2.06,5.36-4.56,8.73-5.77.63-.22,1.1-.73.61-1.41-.37-.52-.93-.43-1.46-.07a44.76,44.76,0,0,0-5.45,3.67c-4,3.68-8.68,6.59-12.71,10.29-3,2.79-6.36,5.23-9.58,7.8-.37.3-.69.56-.52,1a1,1,0,0,0,1,.61" transform="translate(-100.07 -197.16)"/><path class="cls-2" d="M248.31,340.41c-.42-.68-1.07-.38-1.59,0q-4.92,3.85-9.82,7.73c-4.08,3.25-8.85,5.54-12.63,9.19-1.22,1.18-2.9,1.79-3.86,3.27-.48.75-.46,1.35.28,1.82.54.07.67-.34.91-.59a44.77,44.77,0,0,1,9.43-7.93c2.23-1.36,4.31-2.95,6.42-4.47,3.41-2.46,6.23-5.74,10.24-7.39a1.09,1.09,0,0,0,.62-1.65" transform="translate(-100.07 -197.16)"/><path class="cls-2" d="M277.52,288.2c1.48-.27,2.38-1.32,3.46-2.23,4.31-3.65,9.16-6.57,13.64-10a3.33,3.33,0,0,1,1.54-.52c.54-.1,1.12-.24,1.2-.91a1.09,1.09,0,0,0-.55-1.25c-.64-.27-1,.25-1.43.57-2.55,1.87-5.11,3.73-7.69,5.54-3.49,2.46-6.79,5.26-10.65,7.19a.86.86,0,0,0-.56,1c.16.46.65.48,1,.57" transform="translate(-100.07 -197.16)"/><path class="cls-2" d="M274.61,322.51c.14,1.56.8,2,2.19,1.94,2.37-.16,4.74-.35,7.11-.49,1.24-.08,1.53-1,1.17-1.78-1.06-2.36-.93-4.88-1.19-7.34-.12-1.11-.76-1.45-1.75-1.39l-5.65.37a.13.13,0,0,1,0-.06,20,20,0,0,0-2.19,0c-.79.08-1.19.45-.88,1.37a33,33,0,0,1,1.2,7.38m1.93-7.12c1.73.18,3.95-.9,5.08.45s.78,3.84,1.29,5.79c.24.9-1.07.17-1.47.5-1.34-.27-2.38.44-3.53.55s-1.78-.2-1.89-1.36c-.15-1.64-.27-3.28-.41-4.92-.06-.7.24-1.08.93-1" transform="translate(-100.07 -197.16)"/><path class="cls-2" d="M243.06,320.71c.05,1.1.12,2.2.14,3.29,0,1.28.5,1.84,1.9,1.71,2.73-.23,5.47-.34,8.21-.4,1.45,0,1.48-.87,1.17-1.83a25.19,25.19,0,0,1-1.6-7.48,1.29,1.29,0,0,0-1.56-1.37,54.7,54.7,0,0,1-7.57.39c-.7,0-1.27.42-1,1.15.49,1.5.25,3,.35,4.54m4.07-4c.3,0,.6-.09.91-.11,2.85-.16,2.86-.16,3.3,2.71a1.63,1.63,0,0,1,.07.36c-.1,1.19,1.52,2.74.33,3.35a12.08,12.08,0,0,1-6.2,1c-.6,0-.65-.63-.69-1.13-.08-1.1-.16-2.19-.25-3.29-.12-2.66-.12-2.66,2.53-2.91" transform="translate(-100.07 -197.16)"/></svg>