<svg id="Layer_1" data-name="Layer 1" xmlns="http://www.w3.org/2000/svg" viewBox="0 0 227.24 358.41"><defs><style>.cls-1{fill:#fff;}.cls-2{fill:#010101;}</style></defs><path class="cls-1" d="M277.07,499.23c.07-3-3.5-6-6.9-6.09-2.61-.11-5.62,4.44-5.57,7.44.06,3.55,2.22,5.94,5.57,6s6.83-3.74,6.9-7.32" transform="translate(-242.09 -197.31)"/><path class="cls-1" d="M328.07,472.74c-2.65-2.79-5.34-5.55-8-8.34-2.92-3.08-6.07-6-8.6-9.38-.92-1.24-2-2.25-3-3.42-.7-.87-1.29-.7-2,.09-2.2,2.59-4.5,5.32-5.49,8.45-1.88,5.89-4,11.85-3.57,17.2,0,6.39,0,6.31,5.41,6.32,6.55,0,13.08-.86,19.65-.32,2.93.24,5.82.37,7.23-3.61,1.08-3,1.59-3.38-.85-5.82-.34-.34-.52-.82-.85-1.17" transform="translate(-242.09 -197.31)"/><path class="cls-1" d="M330,426c1.05.15,1.54-.68,1.55-1.86-.23-1.42-.65-3-2.31-3.45-1-.25-1.42.8-1.39,1.81.05,1.59.17,3.21,2.15,3.5" transform="translate(-242.09 -197.31)"/><path class="cls-1" d="M332.23,457.64c-1.18.07-1.19.81-1.14,1.66.08,1.26.3,2.61,1.79,2.67,1.27,0,.88-1.24,1-2-.23-1,.14-2.42-1.68-2.31" transform="translate(-242.09 -197.31)"/><path class="cls-1" d="M332.21,444.37c1-.06,1-.8,1-1.55,0-1.37-1.93-3.88-2.88-3.77s-1,.91-1,1.48c.06,1.91,1.61,3.92,2.85,3.84" transform="translate(-242.09 -197.31)"/><path class="cls-1" d="M395.48,382.92c6.17-.61,6.36-.37,7.23,5.87.14,1,.36,2.07.51,3.11.09.58-.41,1.39.47,1.66s1.37-.24,1.92-.77c2.44-2.39,2.42-5.65,3.08-8-.05-3.41-2.69-6.7-5.25-7.19-2.87-.54-8.21,1.72-9.1,3.85-.51,1.18-.53,1.65,1.14,1.48" transform="translate(-242.09 -197.31)"/><path class="cls-1" d="M358.28,384.19l-3,1.36c.05.13.1.26.14.39,1.12-.12,2.23-.22,3.34-.37.49-.06,1-.2.85-.89s-.7-.75-1.29-.49" transform="translate(-242.09 -197.31)"/><path class="cls-1" d="M400.24,442.63c-.78,2.61-2.95,4.21-4.21,6.46-4,7.27-9.47,13.58-14.12,20.44-1.77,2.62-2,2.47.41,4.69.52.48.8,1.21,1.3,1.72,1.31,1.34,2.3,3.34,4.71,2.69,4.35-1.17,8.84-.84,13.26-1.23,4.74-.43,9.49-.73,14.24-1.09,1.15-.08,2.25-.83,1.33-1.77-1.29-1.3-.65-2.69-1-4.26a35.76,35.76,0,0,0-4.3-15c-2.52-4.89-5.59-9.2-10.13-12.37-.45-.32-1.23-1.27-1.51-.31" transform="translate(-242.09 -197.31)"/><path class="cls-1" d="M330.79,393.61c-7.6.39-15.22.26-22.8,1.18-1,.12-1.56.22-1.42,1.57.53,5.37,1.1,10.75,1.27,16.14a200.54,200.54,0,0,0,3.3,32.07,4.17,4.17,0,0,0,1.24,2.54,108.72,108.72,0,0,1,10.9,12.31c0-1.86.06-3,0-4.22-.9-11.64-2.33-23.23-2.7-34.92,0-.95-.49-2.22.89-2.32s1.41,1.29,1.44,2.31c.09,2.52.06,5,.16,7.55.4,10,2.5,19.76,2.92,29.73a13,13,0,0,0,4.22,9.31c3.28,3.05,6,6.74,9.27,9.77,1.21,1.11,1.8,3.29,4.27,3,7.34-.77,14.7-1.33,22-2,1.63-.15,3.38-.45,4.35-1.85,2.1-3,4.46-5.9,6.5-8.93,1.89-2.8,4-5.44,5.78-8.33,2.23-3.64,5.06-6.88,7.49-10.4,3-4.33,4.79-9.36,8.38-13.3a7.65,7.65,0,0,0,2-5.56c-.37-12.9-2.9-25.61-3.15-38.52,0-1.33-.54-1.66-1.82-1.35a63.12,63.12,0,0,1-10.61,1.27c-8.41.56-16.86.67-25.24,1.52-9.53,1-19.09.93-28.63,1.42M326,424.22c-1-3.5.31-5.43,3.91-5.74,2.11-.19,3.88,2.35,3.84,5.5,0,2.53-1.2,4.1-3.43,4.56-1.63.33-2.89-.1-3.49-1.78-.3-.84-.59-1.68-.83-2.54m1.57,14.36a3,3,0,0,1,3-2.2,3,3,0,0,1,3,1.9c1,2.14,2.63,4.12,1,6.71-.87,1.35-1.77,2.27-3.43,1.89a2,2,0,0,1-2.53-1.35c-1-2.23-1.9-4.38-1-6.95m4.81,26.11c-2.15-.05-3.82-2.37-3.84-5.35,0-2.58,1-3.72,3.35-3.73,3.66,0,4.66.91,4.65,4.28,0,2.66-1.92,4.85-4.16,4.8" transform="translate(-242.09 -197.31)"/><path class="cls-1" d="M358.36,379.4c-.55.12-1.07.33-1.61.48-5.2,1.44-9.51,5-14.83,6.16-.46.1-1.07.37-.84.94.32.81,1.13.23,1.54.34,6.41.05,10.81-4.6,16.36-6.35.43-.13.45-.63.33-1.05a.75.75,0,0,0-.95-.52" transform="translate(-242.09 -197.31)"/><path class="cls-1" d="M386.72,510.92c-1.51.09-1.9.83-1.71,2.25.47,3.62,1,7.24,1.23,10.87.47,6.77.83,13.55-5.95,18-1.25.81-.77,2.26-.62,3.38.17,1.29,1.44.68,2.22.73,1.53.1,3.07,0,5.2,0,12.51-.9,25.59-1.82,38.68-2.79.77-.06,2.19.65,2.05-1.13-.1-1.23.59-2.85-1.63-3.12a3.18,3.18,0,0,1-1.95-1.34c-2.24-3.42-4.87-6.7-6.41-10.42-2.1-5.05-1.87-10.6-1.67-16,0-1.47-.25-2.07-1.85-1.9-2.08.21-4.19.23-6.29.25-7.12.06-14.2.8-21.3,1.25m28.32,26c1-.2,1.94-.33,2.06,1.16s-.5,1.54-1.72,1.6c-5.24.27-10.47.68-15.7,1-3.24,0-6.49-.21-9.69.39-.8.15-1.76.54-1.94-.63s.87-1.27,1.65-1.34c4.17-.42,8.36-.8,12.54-1.16s8.57-.27,12.8-1.06" transform="translate(-242.09 -197.31)"/><path class="cls-1" d="M390.58,486.82c2.87-1.66,4.94-4.19,7.56-6.8-2.7-.2-8.09,3.18-8.87,5.22a1.94,1.94,0,0,0,.28,1.63c.27.46.67.16,1-.05" transform="translate(-242.09 -197.31)"/><path class="cls-1" d="M357.37,373.62c-5.2,2.57-10.42,5.1-15.63,7.65a12,12,0,0,0-1.5.8c-.58.37-.51,1-.37,1.52s.45.85,1.2.65a9.08,9.08,0,0,0,1.2-.51,89.21,89.21,0,0,1,11.46-5.16,41.58,41.58,0,0,0,4.34-2.14c1.11-.59.95-1.62.64-2.57-.24-.77-.75-.53-1.34-.24" transform="translate(-242.09 -197.31)"/><path class="cls-1" d="M389.48,493.55c.21.47.87,0,1.22-.3,4.45-3.93,9.55-7.07,13.78-11.27.56-.55,1.27-1,1.23-2.18-3.43-.19-3.43-.18-5.53,2.1a5.43,5.43,0,0,1-1.1.93c-3.43,2.19-5.72,5.69-9.16,7.87-1.07.68-.84,1.9-.44,2.85" transform="translate(-242.09 -197.31)"/><path class="cls-1" d="M389.5,501.32c.85,1.3,2.09-.24,2.91-.94,2-1.73,3.75-3.72,5.79-5.45,3.36-2.84,6.24-6.27,9.69-9,2.24-1.76,3.86-3.49,3.95-7-.93,1-2.18.07-2.64,1.44-.72,2.13-2.71,3.3-4.28,4.46-5.15,3.82-9.89,8.13-15,12-1.47,1.13-1.19,3.34-.45,4.5" transform="translate(-242.09 -197.31)"/><path class="cls-1" d="M400.5,499.58c3-2.82,5.75-5.92,9-8.31,2.08-1.5,2.45-2.9,1.84-5.57a23.33,23.33,0,0,1-3.15,3.42c-6.35,4.52-11.06,10.9-17.44,15.38-1.05.73-1.69,1.84-.78,2.89s1.76-.13,2.39-.72c2.29-2.12,4.31-4.56,7.18-6,.39-.2.58-.77.92-1.09" transform="translate(-242.09 -197.31)"/><path class="cls-1" d="M410.55,500.73c-3,1.38-5.05,3.73-6.92,6.62,3.26.17,7.56-2.75,8.38-5.52.16-.56.26-1.2-.23-1.57s-.82.28-1.23.47" transform="translate(-242.09 -197.31)"/><path class="cls-1" d="M394.81,507.44c2-.24,4,.86,5.69-.59,3.11-2.7,5.71-5.94,9.13-8.31,1.88-1.29,3.05-3.05,2.07-5.92l-16.89,14.82" transform="translate(-242.09 -197.31)"/><path class="cls-1" d="M316.91,281.32a15.54,15.54,0,0,0-5.09,8.63,8.1,8.1,0,0,0,7.92,9.36c4,0,7.4-1.73,9.07-5.29a9.64,9.64,0,0,0-1.51-10.91c-2.51-2.89-8.41-3.65-10.39-1.79" transform="translate(-242.09 -197.31)"/><path class="cls-1" d="M419.25,281.11a3,3,0,0,0-2.39,2.66c-.2,1,.68.83,1.41.81.77-.3,2.26.25,2.16-1.42-.05-.81-.11-2.14-1.18-2.05" transform="translate(-242.09 -197.31)"/><path class="cls-1" d="M423.34,286.56c-1.07,0-1.18.69-1.06,1.47.15,1,.26,2.36,1.58,2.35,1,0,.85-1.18.87-1.85,0-1.08-.1-2-1.39-2" transform="translate(-242.09 -197.31)"/><path class="cls-1" d="M408.15,256.55c.12-1.17-.94-1.39-1.83-1.51a53.35,53.35,0,0,0-7.71-.86c-12.79.25-25.59-.51-37,.45-7.08-.39-12.74.34-18.36.92-13.66,1.41-27.28,3.16-40.75,5.91-5.59,1.14-11.3,1.8-16.48,4.45-1.15.59-3,1.31-2.52,2.51.56,1.49,2.39.54,3.43.06a28.84,28.84,0,0,1,7-2.2c3.09-.58,6.33-.65,9.43-1.49,5.41-1.45,11-.9,16.53-1.83,7.48-1.27,15.07-1.95,22.6-2.87,17.54-2.14,35.16-2.52,52.8-2.83,3.64-.07,7.25.42,10.89.27.76,0,1.84.1,1.95-1" transform="translate(-242.09 -197.31)"/><path class="cls-1" d="M407.59,282.1c-1.33-.06-1.63,1.27-1.85,2.36-.18.91.47,1.05,1.24,1.08.87-.41,2.47.08,2.49-1.55a2.06,2.06,0,0,0-1.88-1.89" transform="translate(-242.09 -197.31)"/><path class="cls-1" d="M356.76,369.3c-1.86.57-3.25,2-5.11,2.64-3.77,1.36-7.37,3.19-11.07,4.76a1.47,1.47,0,0,0-1,1.88c.13.59.53.76,1.22.61.25-.11.62-.29,1-.42,1.62-.57,2.68-2,4.28-2.63a70,70,0,0,0,11.27-5.43c.6-.38,1.63-.75,1.3-1.5s-1.21-.1-1.85.09" transform="translate(-242.09 -197.31)"/><path class="cls-1" d="M396.9,311.61c-.12-10.28,0-20.58-1.07-30.84-.27-2.48-.32-5-.38-7.49a105.93,105.93,0,0,0-.7-12.33c-.17-1.14-.82-1.25-1.66-1.29a89.61,89.61,0,0,0-9.94-.47c-9.77.57-19.54,1.36-29.3,2.17-3,.25-6,.4-8.94.8-4.64.63-9.29,1.24-14,1.54-9.55.63-19,2.41-28.38,4-3.83.67-3.76.95-3.33,4.79.16,1.37.21,2.75.29,4.13.23,3.8,1,7.53,1.28,11.32.44,5.57,1.64,11.07,1.93,16.64.5,9.23,2,18.34,2.85,27.54.88,9.82,1.71,19.68,3.48,29.41.26,1.46.72,2.14,2.28,2.1,3.73-.09,7.46-.06,11.19-.07,12.08-.36,24.09-1.66,36.11-2.73s24.11-2.92,36.25-3.38c1.84-.07,2.06-.88,2-2.44-.21-5.34-.45-10.69-.41-16,.06-9.13.55-18.26.44-27.39m-67.19-6.05c-5.64,3.92-15,3.72-21.27-1-4-3.06-5.14-7.47-5.05-12,.16-7.33,3.61-13.05,9-18.21,5.05-4.8,10-3.2,14.71-1.15A17.13,17.13,0,0,1,338,288.61c-.21,7.21-2.87,13.18-8.28,16.95m35.71,29.69a14.53,14.53,0,0,1-9.49,10.37c-3.26,1.26-6.4,1.2-9.6,1.36-5.47,1.08-9.4-1-12.49-5.48-1.06-1.53-.89-3.07-1.12-4.61-1-6.63,1.27-11.9,6.89-15.63,5-3.29,10.16-3.86,16.08-2.65,4.42.9,6.57,3.83,8.88,6.81s1.74,6.56.85,9.83m23.29-42.53c-3.17,6.19-8.23,9.4-15.07,9.89a15.16,15.16,0,0,1-15.35-11.68c-.67-2.64-.15-5.38.4-8,1.19-5.57,4.45-9.54,9.64-12.2,5-2.58,9.92-2,14.86-.3,2.74,1,4,3.52,5.36,6a16.61,16.61,0,0,1,.16,16.26" transform="translate(-242.09 -197.31)"/><path class="cls-1" d="M319.3,486.68c-2.4,3.61-6,6.1-9.13,8.93-2.27,2.05-4.47,4.38-7.17,6-.43.27-.81.6-.63,1.17.06.19.27.33.46.55.47-.3.9-.53,1.27-.82,2.64-2.1,5.25-4.23,7.91-6.31,3.17-2.48,6.4-4.89,9.55-7.39,1-.78,1.4-2.08.38-2.92-.82-.68-1.9-.32-2.64.79" transform="translate(-242.09 -197.31)"/><path class="cls-1" d="M353.58,367.14c-5.08.24-9.13,3.29-13.65,5.06a1.05,1.05,0,0,0-.51,1.62c.5.91,1.23.5,1.87.17a67.9,67.9,0,0,1,9.49-4.67c1.33-.45,2.93-.35,4-1.67a1,1,0,0,0-1.18-.51" transform="translate(-242.09 -197.31)"/><path class="cls-1" d="M334.29,284.45a14.49,14.49,0,0,0-11.8-10.38c-3.79-.74-6.64-.21-9.12,2.65-.69.8-1.52,1.47-2.16,2.3-3,3.88-5.39,8.07-5.47,12.77.64,8.78,3.53,12.36,11.63,13.72,5.47.91,10.62-.26,14-4.74a17.3,17.3,0,0,0,2.91-16.32M319.6,301.93a10.71,10.71,0,0,1-10.29-10.42,12,12,0,0,1,3.25-8.91c2.15-2.18,4-5.16,7.56-4.35,7-.38,11.76,4.39,12.41,11.38.56,5.94-6.44,12.25-12.93,12.3" transform="translate(-242.09 -197.31)"/><path class="cls-1" d="M348.14,319.88c-2.89.55-4.89,2.27-7.22,3.68a12,12,0,0,0-5.89,10,11.58,11.58,0,0,0,2.15,7.95c2.2,3,5,3.24,8.15,3.24a27.43,27.43,0,0,0,5.32-.45c4.35-1.2,9.14-1.7,11.41-6.64s2.29-9.67-1.64-13.72c-3.3-3.39-7.3-5-12.28-4.07" transform="translate(-242.09 -197.31)"/><path class="cls-1" d="M375.9,271.19c-2.56-.32-4.11,1-6,1.77-5.09,2-7.93,6-8.86,11.24-1.93,10.82,4.31,15.65,13,15.75,7.89.1,13.93-5.86,14.14-15.1-.08-8.29-4.27-12.66-12.22-13.66m4.7,23.18a8.5,8.5,0,0,1-6.92,2.26c-7.44.9-10.68-6-8.63-11.51a20.36,20.36,0,0,1,4.86-7.47c1.9-1.95,3.65-2.86,6.39-2.09a9.32,9.32,0,0,1,6.84,6.76c1.41,4.53.91,8.62-2.54,12.05" transform="translate(-242.09 -197.31)"/><path class="cls-1" d="M371.55,279.31c-3.14,2.49-4,6.1-4.57,9.81a4,4,0,0,0,1.49,3.42c1.95,1.83,5.65,2.59,7.92,1.54,3.32-1.53,5.33-4.43,5.17-7.84a11,11,0,0,0-1.11-4.8,6.07,6.07,0,0,0-8.9-2.13" transform="translate(-242.09 -197.31)"/><path class="cls-1" d="M418.33,391.6c4.53,0,8.22-2.83,8.24-6.21,0-3.09-4-6.46-7.68-6.45-4.26,0-6,3.56-6.24,7.55-.18,2.77,2.68,5.14,5.68,5.11" transform="translate(-242.09 -197.31)"/><path class="cls-1" d="M267.06,297.38c-.94.42-2.77-.61-2.74,1.44,0,.95.61,1.81,1.69,1.68,1.48-.18,2-1.53,2.66-2.59-.32-.94-1.12-.75-1.61-.53" transform="translate(-242.09 -197.31)"/><path class="cls-1" d="M289.41,297c1.34,1.9,2.39,1.62,3.56-.34-1.32.07-2.43-.45-3.56.34" transform="translate(-242.09 -197.31)"/><path class="cls-1" d="M248.83,295.81c-2,0-4.45,2-4.37,3.68.12,2.74,2.6,1.82,3.84,2.54,1.85,0,4-1.91,4-3.46,0-1.38-1.76-2.78-3.47-2.76" transform="translate(-242.09 -197.31)"/><path class="cls-1" d="M280.34,446.17c-1.49-.36-3-.86-4.46-1.09-2.54-.39-5.06-1.12-7.68-.51-.95.23-1.63.52-1.74,1.64a1.88,1.88,0,0,0,1.33,2.24c4.29,1.67,8.55,3.42,13.4,3.61,1-.09,2.46.34,2.52-1.56.08-2.9-.51-3.63-3.37-4.33" transform="translate(-242.09 -197.31)"/><path class="cls-1" d="M278.74,297c-.7.12-2-.56-1.85,1,.08.69.21,1.77,1.38,1.62a2.94,2.94,0,0,0,2.28-2.11c-.37-.86-1.2-.6-1.81-.5" transform="translate(-242.09 -197.31)"/><path class="cls-1" d="M280.13,455.89c-.37-1.2-1.23-1.45-2.42-1.55-1.9-.15-3.93.51-5.67-.67-.4-.28-.48-1.14-1.21-.87s-.64,1.09-.66,1.69c-.15,3.31-.36,6.63-.42,9.93-.16,7.38-1.19,14.68-1.66,22-.27,4.24-.45,4.22,3.68,4.84a7.39,7.39,0,0,1,2.14.41c1.61.82,2.45.05,3.07-1.27a55.13,55.13,0,0,1,2.41-5.29A24.88,24.88,0,0,0,283,469.83c.79-5-1.43-9.4-2.84-13.94" transform="translate(-242.09 -197.31)"/><path class="cls-1" d="M273.84,508.12a15.5,15.5,0,0,1-5.8.76c2.13,3.12,5.2,4.82,8.56,6,1.52.52,2.36-.57,1.68-2.06-.6-1.3-1.63-2.4-2.28-3.68a1.62,1.62,0,0,0-2.16-1" transform="translate(-242.09 -197.31)"/><path class="cls-1" d="M256,295.66c-.4,1-.43,1.61.91,1.29.8-.07,1.61-.12,2.42-.2.54-.05,1.19.08,1.42-.64a1.87,1.87,0,0,0-.45-1.81c-1.25-1.57-3.4-.86-4.3,1.36" transform="translate(-242.09 -197.31)"/><path class="cls-1" d="M438.93,286.68a11.29,11.29,0,0,0,3.8-.88,2.28,2.28,0,0,0,1.59-2.85,2.46,2.46,0,0,0-2.46-2.27c-1.77,0-3.54.28-4.74,1.9-.59.79-1.48,1.67-.88,2.53s1.33,1.95,2.69,1.57" transform="translate(-242.09 -197.31)"/><path class="cls-1" d="M429.53,284.2c1-.4,2.92.68,2.7-1.61-.11-1.13.13-2.78-1.9-2.73-1.06,0-3.34,2.37-3.16,3.43.27,1.51,1.52.66,2.36.91" transform="translate(-242.09 -197.31)"/><path class="cls-1" d="M307.53,388.73c1.67,0,2.64,0,3.61,0,.81,0,1.15-.39.9-1.27a5.52,5.52,0,0,0-6.19-3.54c-1.25.32-2.45.85-3.7,1.18-3.19.82-4,3.56-4.75,6.16a6.72,6.72,0,0,0,2.19,7.25c.27.24.47.74,1,.5s.41-.66.36-1.06c-.2-1.52-.4-3-.67-4.54-.11-.64-.5-1.57.2-1.71,2.74-.58,4.35-4.25,7.08-2.95" transform="translate(-242.09 -197.31)"/><path class="cls-1" d="M302.83,489.31a1.53,1.53,0,0,0-.59,1.93c.19.48.62.36,1,.23.61-.19,5.13-5,4.91-5.12-1.78-1-3.62-.39-5.78,0,2.58.89,2,1.88.43,3" transform="translate(-242.09 -197.31)"/><path class="cls-1" d="M302.38,498.16c.61,1,1.23-.16,1.71-.5a32.66,32.66,0,0,0,3.36-2.74c3.11-2.89,6.66-5.34,9.26-9.15-2.81-.49-5-.42-6.24,2.31a4.27,4.27,0,0,1-1.92,1.81c-2.61,1.35-4,4-6.09,5.8a1.92,1.92,0,0,0-.08,2.47" transform="translate(-242.09 -197.31)"/><path class="cls-1" d="M278,406.94a34.3,34.3,0,0,0-6.39,10.83,33.68,33.68,0,0,0-1.05,22.35c.23.79.46,1.24,1.36,1.4,2.46.45,4.89,1.05,7.35,1.54,3.4.68,4.72.25,5.71-2.34,2.43-6.34,5.34-12.62,3.85-19.81.94-4.78-1.06-9-3-13.2s-4.92-4.06-7.86-.77" transform="translate(-242.09 -197.31)"/><path class="cls-1" d="M322.17,491.41a4.47,4.47,0,0,0-.61.32c-3.29,2.44-6.67,4.77-9.82,7.38-1.08.9-1.83,2.38-3.21,2.81-2.68.85-3.64,3.58-5.81,4.95-.37.23-.46,1-.57,1.53a1.12,1.12,0,0,0,.35,1.31c.54.32.87-.17,1.22-.49,1.85-1.68,3.63-3.44,5.56-5,3.91-3.19,7.91-6.28,11.87-9.42a3.54,3.54,0,0,0,1.69-2.27c.05-.46,0-1-.67-1.11" transform="translate(-242.09 -197.31)"/><path class="cls-1" d="M300.32,259.42c2.95-1,6.14-.43,9-1.22,6.5-1.8,13.17-2.54,19.78-3.49a274,274,0,0,1,34.37-2.56c9.7-.15,19.4-.37,29.1-.24.71,0,1.62.38,2-.39s-.57-1.06-1-1.52a42.42,42.42,0,0,0-8.38-7.52c-3.17-2.27-5.8-5.09-8.72-7.59-5.77-4.93-11.35-10.12-16.95-15.25-5-4.53-10-9-15.29-13.2-1.13-.88-1.6-.79-2.44.23-3.24,4-6.79,7.71-10.24,11.49s-6.64,7.64-9.88,11.53c-7.1,8.53-14.3,17-20.29,26.4-.53.82-1.2,1.54-1.73,2.35-.39.61-.28,1.28.59,1" transform="translate(-242.09 -197.31)"/><path class="cls-1" d="M314.61,509.34a36.93,36.93,0,0,0-3,2.37c-.35.33-1.37,1.29.11,1.48,1.85.24,4,.29,5-1.5s2.68-2.7,4.21-3.8a4.33,4.33,0,0,0,1.95-4.86c-2.85,2.18-5.55,4.25-8.26,6.31" transform="translate(-242.09 -197.31)"/><path class="cls-1" d="M322.68,496.42c-3.56,2.89-7.13,5.24-10.28,8s-6.59,5.13-9.22,8.66c3.63.13,3.59.08,6-2a114.2,114.2,0,0,1,11.5-9.06c1.86-1.26,2.64-2.94,2-5.58" transform="translate(-242.09 -197.31)"/><path class="cls-1" d="M319.11,513c1.48.11,3,.6,4-.36.82-.8.19-2.05-.32-3.27-1.12,1.41-2.85,1.83-3.67,3.63" transform="translate(-242.09 -197.31)"/><path class="cls-1" d="M317.4,515.31c-6.3.42-12.62-.44-18.92.33-1.21.15-1.69.46-1.64,1.75.14,3.32.27,6.64.19,10-.14,5.57-.64,11.09-4.87,15.38a24,24,0,0,1-2.06,1.69c-1,.86-.86,2.12-.73,3.16s1.37.75,2.05.73c3.32-.1,6.6.45,9.94.15,7.75-.7,15.52-1.17,23.28-1.72v-.35l12.64-.06c.54,0,1.22.18,1.33-.64s.22-1.49-.63-1.91c-.66-.32-1.32-.62-2-1a14.69,14.69,0,0,1-7.34-9.23c-1.46-5.41-2.92-11-1.84-16.76.23-1.25-.38-1.65-1.69-1.59-2.58.13-5.17-.11-7.74.07M321,541.39c-6.76.54-13.52,1-20.28,1.51-.56,0-1.13.08-1.69.07-.77,0-1.56-.21-1.58-1.13s.92-.67,1.47-.73c3-.28,5.94-.5,8.92-.74,0,.08,0,.15,0,.22,4.25-.47,8.5-.89,12.74-1.44,1.17-.15,2.29-.28,2.41,1.13s-1.23,1.05-2,1.11" transform="translate(-242.09 -197.31)"/><path class="cls-1" d="M453.56,472.9c.28,3.09,2.47,5.49,6.79,5.33,3.62-.13,6.18-2.55,6.11-5.87.32-4.43-1.85-5.41-7.24-5.56-3.73-.1-6,2.31-5.66,6.1" transform="translate(-242.09 -197.31)"/><path class="cls-1" d="M286.89,388.12c-4.38,0-7.82,3.67-7.94,6.66-.18,4.2,2.78,7.69,6.2,8,4.43.46,6.67-4.17,6.81-8.25.06-2.91-2.66-6.48-5.07-6.45" transform="translate(-242.09 -197.31)"/><path class="cls-1" d="M456.53,485.44a4.65,4.65,0,0,0,0,3.06c.49,1.28,1,1.68,2.2.57,2.73-2.53,3.61-6.14,6.05-9.32-.83-.07-1.06-.08-1.29-.11-4.38-.54-6,2.23-7,5.8" transform="translate(-242.09 -197.31)"/><path class="cls-1" d="M421.67,394.33c-.3,2.32-.69,4.63-1,6.84.95,4.95.87,9.94,3.22,14.49,1,1.94,2.38,3.69,3.15,5.7,1,2.6,3.5,3.21,5.37,4.66a.78.78,0,0,0,1.08-.15c2.79-2.66,6.35-4.09,9.58-6.05.46-.28.77-.49.65-1.09a38.78,38.78,0,0,0-7.17-16.51c-2.23-2.89-4.66-5.62-8.12-7.31a20.2,20.2,0,0,0-4.65-1.92c-1.05-.23-1.91,0-2.08,1.34" transform="translate(-242.09 -197.31)"/><path class="cls-1" d="M448.12,429.52a6,6,0,0,0-.64.29,41.45,41.45,0,0,1-8,4,1.29,1.29,0,0,0-.88,1.06c-.86,5.45-1.17,10.94,1.65,15.89,3,5.29,7.46,9.5,11.67,13.84.67.69,1.54,1.43,2.58.81a15.9,15.9,0,0,1,4.39-1.33c.54-.14,1.55-.13,1.05-1.13-1.48-3-1.7-6.41-2.69-9.58-2.35-7.53-5.77-14.67-7.85-22.29-.18-.66-.23-1.51-1.26-1.57" transform="translate(-242.09 -197.31)"/><path class="cls-1" d="M434.7,428.78c-.62.79-2,1.22-1.36,2.52.5,1.07,1.7.7,3,1,4.34-2,9.61-2.94,13.17-7.11.52-.62,1.44-1.35.49-2.52a2.68,2.68,0,0,0-3-1c-4.8,1.17-9.13,3.13-12.33,7.11" transform="translate(-242.09 -197.31)"/><path class="cls-2" d="M427.64,286.35c2.31-.2,4.78-1,6.95.89,4,3.43,7.88,3,11.33-1.06a4.36,4.36,0,0,0-.94-6.41c-3.55-2.75-6.72-.9-9.86.68-.86.43-.9.59-1.47-.34-1.67-2.73-4.49-3.43-6.27-1.64a11.5,11.5,0,0,0-2.47,3.54c-.29.68.06,1.89-1.08,1.92s-1-1.2-1.3-2c-.59-1.49-1.12-3.28-3.09-3.32a4.27,4.27,0,0,0-4.06,2.57,12,12,0,0,0-.92,2.23c-.2.8-.53,1.32-1.41,1.38s-1-.57-1.32-1.16a14.84,14.84,0,0,0-1.82-2.85,3.17,3.17,0,0,0-5.56.91c-.54,1.29-1,2.61-1.66,4.3a8.88,8.88,0,0,1-.91-4.34c-.26-4.86-.46-9.73-.72-14.59-.22-4.32-.23-4.45,4.1-4.1s7.41-1.71,9.45-5.41c1-1.79.27-5-1.25-6.4-2.72-2.55-6.25-2.83-9.62-3.55-1.56-.33-3.25-.19-4.57-1.31-3.26-2.76-6.56-5.49-9.75-8.33a82.6,82.6,0,0,0-8.31-7c-3.27-2.21-5.64-5.2-8.64-7.58-5-4-9.44-8.71-14.3-12.9-5-4.32-9.38-9.42-15.38-12.52-1.32-.69-2.7-1.27-3.64.21-3,4.76-6.8,9-10.26,13.4-2.68,3.43-5.67,6.61-8.53,9.88-3.05,3.49-6,7.08-8.94,10.64a90.86,90.86,0,0,0-5.94,7.18c-1.94,2.87-4.94,4.86-6.47,8.09s-4.45,5.68-6.4,8.72a3.71,3.71,0,0,1-2.73,1.43,25.42,25.42,0,0,0-9.63,4c-2.93,1.91-4.16,4.82-3.14,9.11.69,2.92,2.78,4.44,6.28,4.39,2.59,0,5.17-.26,7.76-.3,1,0,2.25-.3,2.42,1.27.59,5.47,1.79,10.87,1.8,16.4,0,.52.08,1.07-.63,1-1.18-.15-2.22.46-3.35.51-.92,0-1.61-.15-1.54-1.32.14-2.1-.66-3.79-2.75-4.31s-2.81,1.45-3.76,2.83c-.13.2-.39.36-.43.58-.54,3.51-3.4,2.41-5.51,2.78-.68.11-1-.28-1.16-.94-.34-1.75-1.63-2.36-3.19-2.43a3,3,0,0,0-3.2,2.49c-.48,2.07-2,1.34-3.23,1.7-1.42.42-2.37.64-3.3-1.12a5.18,5.18,0,0,0-5-2.89c-2.08.15-3.66.86-4.3,3.12-.44,1.59-1.06,1-1.91.06-1.64-1.89-5.39-1.87-7.56-.13-2.57,2.07-3.22,5.39-1.52,7.72,2.26,3.08,9.93,2.8,11.46-.76,1.36-3.14,3.86-2.2,6-2.73.66-.17.84.32,1,.8a4.43,4.43,0,0,0,4.62,3.54c2.56,0,3.82-1.79,5.09-3.61.5-.73.16-2.15,1.57-2.12s1.18,1.39,1.63,2.16c2,3.38,4.62,3.92,7.3,1.42a6,6,0,0,0,1.35-2.55,2.33,2.33,0,0,1,2.27-1.82,2,2,0,0,1,2.13,1.56,6.53,6.53,0,0,0,.58,1.07c1.77,2.75,4.25,2.86,6.24.3.43-.55.65-1.33,1.65-1.5,1,4.08,1,8.26,1.29,12.37.36,5.17,1.41,10.23,2,15.35.84,7.72,1,15.51,2.23,23.2.65,4.23.45,8.55,1.48,12.73.46,1.88,1.28,3.73.12,5.65-.21.34-.13,1,.21,1.08,1.52.2,2.52,1.56,4.21,1.49,9.46-.37,18.92-.81,28.39-.75.49,0,1-.06,1.12.59a1.1,1.1,0,0,1-.63,1.41c-.6.24-1.23.4-1.84.62-1.15.41-1.82,1.22-1.35,2.41.55,1.37,1.54.68,2.41.28.56-.26,1.22-.85,1.59.13.29.77-.26,1.18-.95,1.41a5.54,5.54,0,0,0-1.35.55c-.69.48-1.71.86-1.13,2.05a1.37,1.37,0,0,0,2.2.63c.5-.31,1.1-.72,1.44,0a1.28,1.28,0,0,1-.66,1.84c-.51.23-1.05.42-1.56.66-.86.4-1.65.9-1.12,2a1.51,1.51,0,0,0,2.22.76c.54-.23,1.18-1.29,1.7-.05.4,1-.28,1.38-1,1.86a12.76,12.76,0,0,1-7.42,1.74c-4.12-.08-8.26,0-12.38.17a2.17,2.17,0,0,1-2.43-1.28c-2.8-4.84-7-6.25-12.25-4.32-3.91,1.44-6.92,3.78-8,8.49-4-5.13-8.44-7.15-14-3.06-3.16,2.31-4.8,6-3.47,9.83,1.18,3.36,1.33,6.09-1.88,8.88-4.66,4.06-6.47,10-7.82,15.82a34.08,34.08,0,0,0,.59,17.3c.38,1.28.17,1.74-1.13,2.26a4.6,4.6,0,0,0-1.29,7.7,5.13,5.13,0,0,1,1.79,4.27c0,11.44-.59,22.86-1,34.29a11.52,11.52,0,0,1-3,7.2c-1.93,2.35-1.95,4.91-1.33,7.59,1.73,7.49,7.39,11.39,13.7,14.53,2.52,1.25,4.64-.2,5.6-2.86.78-2.17-.53-3.37-1.59-4.74-1.61-2.07-2.33-4.11-1-6.7a7.74,7.74,0,0,0-.34-8.32c-.87-1.28-.43-2.32.36-3.52,2.87-4.39,5.55-8.91,6.39-14.21a38,38,0,0,0-1.25-18.72c-.29-.83-.37-1.74-.6-2.59s.06-1.39,1-1.77c2.12-.82,2.85-2.32,2.14-4.66a10.6,10.6,0,0,1,1-7.62c1.56-3.23,2-6.81,3.35-10.12,1.21-3,1.14-6.12,1.25-9.3.19-5.78-2-10.92-3.72-16.2-.25-.79-.56-1.41.48-1.71,4-1.16,5.65-4,5.84-8.15,1.3,2.8,3.11,4.83,6.05,5.61.6.16.7.78.71,1.4,0,3.82.46,7.61.68,11.4.47,7.93.57,15.89,2,23.73.47,2.53-.2,5.26,1.18,7.6a2.84,2.84,0,0,1-.57,3.91c-3.06,3-4.81,6.77-6.39,10.67-3.32,8.14-4,16.64-3.57,25.3,0,.66.09,1.36.81,1.64s1.12-.39,1.52-.88a2.25,2.25,0,0,1,2.68-.52c.88.4.13,1.55.17,2.36s-.82.91-1.44,1.12-1.83.51-1.61,1.48,1.21.93,2.05.61c1.34-.51,1.5.32,1.6,1.33.22,2-1.18,2.84-2.52,3.76-.67.46-1.49.89-.84,1.91s1.38,1,2.23.26a4.82,4.82,0,0,1,.88-.43c.8,2.05-.18,3-1.84,3.55-1,.35-1.46,1.07-.9,2.08s1.3.67,2,.09a3.6,3.6,0,0,1,.81-.4c1,2.23-1,2.72-2,3.67-.77.73-2,1.29-1,2.45s1.87.14,2.59-.7c.1-.12.37-.09.58-.14.27,3.37-.45,4.15-3.7,4.18a19.91,19.91,0,0,1-2.18.06c-1.77-.19-2.29.54-2.12,2.26.59,6-.48,12-1.73,17.79-.74,3.46-2.11,7-6.39,7.64-2.21.32-2.71,1.44-2.32,3.34a16.58,16.58,0,0,1,.31,4.1c-.13,2.86,3.07,6.74,5.89,7a21,21,0,0,0,5.31-.11c5-.74,10-.69,15-1,6.36-.46,12.75-.67,19.13-.87a117.31,117.31,0,0,1,12.58,0c2.28.16,3.16-.64,3.53-2.58a26.48,26.48,0,0,0-.23-9.68c-.29-1.65-1.32-2.4-3-2.54a7.14,7.14,0,0,1-6.45-5.14,102.73,102.73,0,0,1-3-12.49c-.57-3.13.36-7.38-4.23-8.88a6.67,6.67,0,0,0,1.23-1.38c.55-1.2.37-2.07-1.24-2-.54,0-1.24.91-1.61-.17a1.84,1.84,0,0,1,.75-2.34,6.18,6.18,0,0,0,2.15-1.94,1.55,1.55,0,0,0,0-1.83c-.45-.53-1-.34-1.52,0s-1,.82-1.39,0a1.56,1.56,0,0,1,.42-2.16c.77-.6,1.57-1.14,2.29-1.79a1.51,1.51,0,0,0,.32-1.6c-.21-.62-.8-.37-1.26-.41-.65-.06-1.54.63-1.9-.4s.48-1.47,1-2a17.88,17.88,0,0,0,1.4-1.34c.6-.78.78-1.6-.61-1.58-1.76,0-1.69-1.13-1.62-2.31,0-.7.52-1.33,0-2.1-.83-1.26.12-1.28,1-1.28l2.43-.06c1.6,0,2.55-.53,2.48-2.43s1.13-3,2.37-4.22a16.16,16.16,0,0,0,2.4,2.61c2.14,1.51,3.48,4.1,6.89,3.83,8.79-.72,17.61-1,26.41-1.57,1.43-.09,3-.43,3.17-2.39,0-.27.3-.71.51-.75,2.9-.51,3.46-3.2,4.73-5.17.63-1,.74-1.32,1.84-.34a30.14,30.14,0,0,1,4.07,4.46c.86,1.15,2.69,1.2,3.11,3.09.52,2.35-1.61,2.51-2.49,3.69-.37.5-.62,1-.15,1.52s.8.81,1.45.43,1-1.43,1.7-.38a1.92,1.92,0,0,1-.61,2.6c-.72.64-1.53,1.18-2.24,1.84a1.15,1.15,0,0,0-.07,1.89c.57.5,1.23.82,1.91.08.3-.33.52-.9,1.15-.54.29,1.95.27,1.93-1,3a17.35,17.35,0,0,0-1.71,1.72c-.74.8-1.58,1.72-.41,2.68s1.67-.29,2.32-.95c.22-.23.49-.43.84-.18.74,3.71.9,3.9-2.05,6.14-4.13,3.14-5.5,6.88-4.53,12a37.89,37.89,0,0,1-.07,13.8c-.61,3.42-2.27,5.9-5.91,6.7-1.78.39-3.73,3-3.7,4.88a47.85,47.85,0,0,1-.24,6.56c-.15,1.24-.08,2.69,1.35,3a11.64,11.64,0,0,0,5,.39,56.41,56.41,0,0,1,10-1.52c6.86-.22,13.72-1,20.56-1.18,7.73-.15,15.49-.8,23.25-.09a3.14,3.14,0,0,0,3.09-4.29,11.12,11.12,0,0,1-.79-5.94c.81-4.25-1.45-6.45-4.6-8.45-4-2.55-6.73-5.94-6.5-11,.16-3.63-.64-7.25-.09-10.89.14-.87,0-1.95-1-2.26a36.94,36.94,0,0,0-5.08-1.15c-.66-.11-1.55.48-1.92-.43a2.27,2.27,0,0,1,.46-2.69c.61-.54,1.27-1,1.86-1.57a1.5,1.5,0,0,0,.38-1.58c-.2-.68-.73-.82-1.35-.57s-1.08.27-1.26-.54-.52-1.43.21-2a6.69,6.69,0,0,1,1.44-.9,1.46,1.46,0,0,0,1-1.72c-.13-1-.73-1.21-1.56-1-1,.26-1.06-.34-1.1-1.06-.07-1.24-.09-2.41,1.06-3.29,1.41-1.08,1.59-2.06-.18-3.14-1.46-.9-1.45-2.2-.11-3.34.73-.62,1.89-1.09,1.6-2.19-.35-1.36-1.67-.89-2.68-.93-.22,0-.47-.15-.23-.75a19.16,19.16,0,0,1,4.41.05c1.79.41,2.13-.5,2.42-1.81.42-1.93-.3-3.68-.81-5.46-1.78-6.18-2.24-12.79-5.94-18.35a28.93,28.93,0,0,1-2.71-4.57c-1.46-3.41-4.27-5.76-7.07-7.64-2.19-1.48-1.87-2.15-.65-3.65.46-.57.7-1.39,1.26-1.77,2.54-1.73,2.11-4.13,1.69-6.57-.14-.87-.38-1.74-.46-2.62q-1.17-13.67-2.28-27.34c-.1-1.3-.12-2.61,1.47-3.23a9.43,9.43,0,0,0,5.74-5.9c1.72,1.82,3.62,3.36,6,3.65,1.83.23,1.76.93,1.53,2.35-1.37,8.47,1.31,16.18,4.76,23.68a19.1,19.1,0,0,0,7.13,7.71c.87.58,1.16,1,.71,2.12-.93,2.41.11,4.45,2.6,4.68s2.14,1.29,1.89,3c-1.05,7.06,1.15,13.44,5.41,18.79a103.89,103.89,0,0,0,9.58,10.46,1.86,1.86,0,0,1,.44,2.3c-1,3.54.26,7.81,3.1,9.54a2.69,2.69,0,0,1,1.42,3,9.28,9.28,0,0,1-1.2,3.4,5.63,5.63,0,0,0,1.79,6.74c1.47,1,4.29.34,5.78-1.72,3.34-4.59,6.58-9.27,7.5-15.1a9.58,9.58,0,0,0-4.27-9.56,5.6,5.6,0,0,1-2.94-3.92c-.53-2.59-.57-5.38-1.7-7.8-3.57-7.65-5.52-15.91-9-23.58-.72-1.58-.51-2.52.68-3.56a3.35,3.35,0,0,0,.86-4.58A5.34,5.34,0,0,0,448.5,419c-2.66-.09-2.81-1.79-3.24-3.58-.55-2.27-.84-4.67-1.8-6.75-3.33-7.15-8.08-13.16-15.2-16.91-1.37-.71-1.33-1.27-.7-2.38a7.56,7.56,0,0,0,1.31-4.84c-.85-6-8.16-9.29-12.72-7.73-2.43.84-3.61,2.79-5.28,4.37-2.24-4.67-5.19-6.46-10.07-6.23-3.86.19-8.05,2.56-8.48,5.68s-2.28,3.13-4.48,3.24c-8,.42-16,.87-24,1.27-.78,0-1.78.58-2.07-.89-.26-1.25-.18-2.05,1.27-2.29a1.27,1.27,0,0,0,1.16-1.09c.11-.8-.59-.86-1.08-1.08-.67-.3-1.75,0-1.81-1.2s.93-1.17,1.59-1.58,1.09-.73.95-1.53-.69-.82-1.25-.93-1.61.27-1.66-.89c0-.94-.25-1.93,1-2.46,1-.41,1.09-1.49.31-1.94-2.6-1.53-.31-1.89.56-2.32a8.7,8.7,0,0,1,3-.79c5.55-.55,11.11-1,16.64-1.85,5.3-.79,10.66-1,16-1.26,1.11-.05,3,.16,3.12-.74.33-2.12,2.33-3.7,1.69-6.09a35.5,35.5,0,0,1-.69-7.5c-.56-11.6.31-23.19.29-34.79,0-6.32-.3-12.64-.43-19,0-.63-.49-1.82.54-1.82,3.27,0,3-2.2,2.88-4.3-.06-1.22.57-1.58,1.62-1.57s2.06-.37,2,1.27c0,1.81.59,3.26,2.65,3.41,2.23.17,3.39-1.31,3.53-3.22.16-2.17,1.5-2.05,3-2.2,1.89-.19,1.15,1.37,1.51,2.17.61,1.38.77,3.09,2.36,3.77,2.76,1.18,4.48-.23,4.59-3.59,0-.89-.62-2.43.58-2.53m9.48-3.77c1.2-1.62,3-1.86,4.74-1.9a2.46,2.46,0,0,1,2.46,2.27,2.28,2.28,0,0,1-1.59,2.85,11.29,11.29,0,0,1-3.8.88c-1.36.38-2.12-.77-2.69-1.57s.29-1.74.88-2.53m-6.79-2.72c2-.05,1.79,1.6,1.9,2.73.22,2.29-1.71,1.21-2.7,1.6-.84-.24-2.09.61-2.36-.9-.18-1.06,2.1-3.4,3.16-3.43M248.3,302c-1.24-.72-3.72.2-3.84-2.54-.08-1.64,2.35-3.65,4.37-3.68,1.71,0,3.47,1.38,3.47,2.76,0,1.55-2.15,3.49-4,3.46m12.47-5.92c-.23.72-.88.59-1.42.64-.81.08-1.62.13-2.42.2-1.34.32-1.31-.3-.91-1.29.9-2.21,3.05-2.93,4.3-1.36a1.87,1.87,0,0,1,.45,1.81M266,300.5c-1.09.13-1.67-.73-1.69-1.68,0-2.05,1.79-1,2.74-1.44.5-.22,1.29-.41,1.61.53-.69,1.06-1.18,2.41-2.66,2.59m12.26-.89c-1.17.15-1.3-.93-1.38-1.62-.18-1.55,1.15-.87,1.85-1s1.44-.36,1.81.5a2.94,2.94,0,0,1-2.28,2.11M289.41,297c1.13-.79,2.24-.27,3.56-.34-1.17,2-2.22,2.24-3.56.34M264.6,500.58c-.05-3,3-7.55,5.57-7.44,3.4.14,7,3.1,6.9,6.09-.07,3.58-3.62,7.35-6.9,7.32s-5.51-2.42-5.57-6m13.68,12.22c.68,1.49-.16,2.58-1.68,2.06-3.36-1.16-6.43-2.86-8.56-6a15.5,15.5,0,0,0,5.8-.76,1.62,1.62,0,0,1,2.16,1c.65,1.28,1.68,2.38,2.28,3.68m1.11-27.66a55.13,55.13,0,0,0-2.41,5.29c-.62,1.32-1.47,2.09-3.07,1.27a7.39,7.39,0,0,0-2.14-.41c-4.13-.62-3.95-.6-3.68-4.84.47-7.35,1.5-14.65,1.66-22,.06-3.3.27-6.62.42-9.93,0-.6-.11-1.42.66-1.69s.81.59,1.21.87c1.74,1.18,3.77.52,5.67.67,1.19.1,2.05.35,2.42,1.55,1.41,4.54,3.63,8.91,2.84,13.94a24.88,24.88,0,0,1-3.58,15.31m4.32-34.64c-.06,1.9-1.53,1.47-2.52,1.56-4.85-.19-9.11-1.94-13.4-3.61a1.88,1.88,0,0,1-1.33-2.24c.11-1.12.79-1.41,1.74-1.64,2.62-.61,5.14.12,7.68.51,1.5.23,3,.73,4.45,1.09,2.87.7,3.46,1.43,3.38,4.33m5.13-29.59c1.49,7.19-1.42,13.47-3.85,19.81-1,2.59-2.31,3-5.71,2.34-2.46-.49-4.89-1.09-7.35-1.54-.9-.16-1.13-.61-1.36-1.4a33.68,33.68,0,0,1,1.05-22.35A34.3,34.3,0,0,1,278,406.94c2.94-3.29,6-3.4,7.86.77s3.91,8.42,3,13.2m-3.7-18.09c-3.41-.35-6.37-3.83-6.19-8,.12-3,3.56-6.62,7.94-6.66,2.41,0,5.13,3.54,5.07,6.44-.14,4.09-2.38,8.72-6.82,8.26m173.62,86.25c-1.19,1.11-1.71.71-2.2-.57a4.65,4.65,0,0,1,0-3.06c1-3.57,2.61-6.34,7-5.8.23,0,.47,0,1.29.11-2.44,3.18-3.32,6.79-6.05,9.32m7.7-16.71c.07,3.32-2.49,5.74-6.11,5.87-4.32.16-6.51-2.24-6.79-5.33-.35-3.79,1.93-6.2,5.66-6.1,5.39.15,7.56,1.13,7.24,5.56m-9.23-19c1,3.17,1.21,6.55,2.69,9.58.5,1-.51,1-1.05,1.13a15.9,15.9,0,0,0-4.39,1.33c-1,.62-1.91-.12-2.58-.81-4.21-4.34-8.65-8.55-11.67-13.84-2.82-4.95-2.51-10.44-1.65-15.89a1.29,1.29,0,0,1,.88-1.06,41.45,41.45,0,0,0,8-4,6,6,0,0,1,.64-.29c1,.06,1.08.91,1.26,1.57,2.08,7.62,5.5,14.76,7.85,22.29M447,421.67a2.67,2.67,0,0,1,3,1c.95,1.17,0,1.9-.49,2.52-3.57,4.17-8.83,5.1-13.17,7.11-1.34-.28-2.54.09-3-1-.6-1.3.74-1.73,1.36-2.52,3.2-4,7.53-5.94,12.34-7.11M428.4,394.91c3.46,1.69,5.89,4.42,8.12,7.31a38.78,38.78,0,0,1,7.17,16.51c.11.6-.19.81-.65,1.09-3.23,2-6.79,3.39-9.58,6.05a.78.78,0,0,1-1.08.15c-1.87-1.45-4.38-2.06-5.37-4.66-.77-2-2.15-3.76-3.15-5.7-2.35-4.55-2.27-9.54-3.22-14.49.34-2.21.73-4.52,1-6.84.18-1.36,1-1.57,2.08-1.34a20.2,20.2,0,0,1,4.65,1.92m-9.51-16c3.69,0,7.69,3.36,7.68,6.45,0,3.38-3.71,6.17-8.24,6.21-3,0-5.86-2.34-5.68-5.11.26-4,2-7.54,6.24-7.55M299.73,258.44c.53-.81,1.21-1.53,1.73-2.35,6-9.39,13.18-17.87,20.29-26.4,3.24-3.89,6.46-7.79,9.88-11.53s7-7.51,10.24-11.49c.84-1,1.32-1.11,2.44-.23,5.31,4.16,10.34,8.67,15.29,13.2,5.6,5.13,11.18,10.32,16.95,15.26,2.92,2.49,5.55,5.31,8.73,7.58a42.94,42.94,0,0,1,8.37,7.52c.39.46,1.31.8,1,1.52s-1.29.41-2,.39c-9.7-.13-19.4.09-29.1.24a274,274,0,0,0-34.37,2.56c-6.61.95-13.28,1.69-19.78,3.49-2.9.79-6.09.19-9,1.22-.87.3-1-.37-.59-1m.72,133.23c-.7.15-.31,1.08-.2,1.72.27,1.5.47,3,.67,4.54.05.4.08.85-.36,1.06s-.7-.26-1-.5a6.72,6.72,0,0,1-2.19-7.25c.76-2.6,1.56-5.34,4.75-6.16,1.25-.33,2.45-.86,3.7-1.18a5.54,5.54,0,0,1,6.2,3.54c.24.88-.1,1.24-.91,1.27-1,0-1.94,0-3.61,0-2.73-1.3-4.34,2.37-7.08,2.94m24.69,123.57c1.31-.06,1.92.34,1.69,1.59-1.08,5.78.38,11.35,1.84,16.76a14.69,14.69,0,0,0,7.34,9.23c.65.35,1.31.64,2,1,.85.42.73,1.19.63,1.91s-.79.63-1.33.64l-12.64.06v.35c-7.76.55-15.53,1-23.28,1.72-3.34.3-6.62-.25-9.94-.15-.68,0-1.91.33-2.05-.73s-.31-2.3.73-3.16a25.69,25.69,0,0,0,2.06-1.69c4.23-4.29,4.73-9.81,4.87-15.38.08-3.32,0-6.64-.19-10,0-1.29.43-1.6,1.64-1.75,6.3-.77,12.62.09,18.92-.33,2.57-.18,5.16.06,7.74-.07m-22.74-28.9c2.16-.38,4-1,5.78,0,.22.13-4.3,4.93-4.91,5.12-.41.13-.84.25-1-.23a1.53,1.53,0,0,1,.59-1.93c1.54-1.09,2.15-2.08-.43-3m.06,9.35c2.12-1.83,3.48-4.45,6.09-5.8a4.35,4.35,0,0,0,1.93-1.81c1.23-2.73,3.42-2.8,6.23-2.31-2.59,3.81-6.15,6.26-9.26,9.15a32.66,32.66,0,0,1-3.36,2.74c-.48.34-1.1,1.46-1.71.5a1.92,1.92,0,0,1,.08-2.47m18.46,12.2c-1.53,1.1-3.16,2-4.21,3.8s-3.18,1.74-5,1.5c-1.48-.19-.46-1.15-.11-1.48a36.93,36.93,0,0,1,3-2.37c2.71-2.06,5.41-4.13,8.26-6.31a4.35,4.35,0,0,1-1.95,4.86m2.18,4.7c-1,1-2.51.47-4,.36.82-1.8,2.56-2.22,3.67-3.63.51,1.22,1.14,2.47.32,3.27m-14-1.53c-2.37,2.09-2.33,2.14-6,2,2.63-3.53,6.12-6,9.22-8.66s6.72-5.1,10.28-8c.61,2.64-.18,4.32-2,5.58a113.09,113.09,0,0,0-11.5,9.06m13.7-18.54a3.54,3.54,0,0,1-1.69,2.27c-4,3.14-8,6.23-11.87,9.42-1.93,1.57-3.71,3.33-5.56,5-.35.32-.68.81-1.22.49a1.12,1.12,0,0,1-.35-1.31c.11-.54.2-1.3.57-1.53,2.17-1.37,3.13-4.1,5.81-4.95,1.38-.43,2.13-1.91,3.21-2.81,3.15-2.61,6.53-4.94,9.82-7.38a4.47,4.47,0,0,1,.61-.32c.71.11.72.65.67,1.11m-1.28-3.71c-3.15,2.5-6.38,4.91-9.55,7.39-2.66,2.08-5.27,4.21-7.91,6.31a14,14,0,0,1-1.27.82c-.19-.22-.4-.36-.46-.55-.17-.57.2-.9.63-1.17,2.7-1.62,4.9-3.95,7.17-6,3.13-2.83,6.73-5.32,9.13-8.93.74-1.11,1.82-1.47,2.64-.79,1,.84.6,2.14-.38,2.92m8.21-9.08c-1.41,4-4.3,3.85-7.23,3.61-6.57-.54-13.1.34-19.65.32-5.43,0-5.43.08-5.41-6.32-.41-5.35,1.69-11.31,3.57-17.2,1-3.13,3.29-5.86,5.49-8.45.67-.79,1.26-1,2-.09,1,1.17,2.07,2.18,3,3.42,2.53,3.4,5.68,6.3,8.6,9.38,2.64,2.79,5.33,5.55,8,8.34.33.35.51.83.85,1.17,2.44,2.44,1.93,2.78.85,5.82m84.54,29.68c1.6-.16,1.9.44,1.85,1.91-.2,5.41-.43,11,1.67,16,1.54,3.72,4.17,7,6.41,10.42a3.18,3.18,0,0,0,1.95,1.34c2.22.27,1.53,1.89,1.63,3.12.14,1.78-1.28,1.07-2.05,1.13-13.09,1-26.17,1.89-38.68,2.79-2.13,0-3.67.09-5.2,0-.78,0-2.05.56-2.22-.73-.15-1.12-.63-2.57.62-3.38,6.78-4.42,6.42-11.2,5.95-18-.26-3.63-.76-7.25-1.23-10.87-.19-1.42.21-2.16,1.71-2.25,7.1-.45,14.18-1.19,21.3-1.25,2.1,0,4.21,0,6.29-.26M389.92,490.7c3.44-2.18,5.73-5.68,9.16-7.86a5.82,5.82,0,0,0,1.1-.94c2.1-2.28,2.09-2.29,5.53-2.1,0,1.14-.67,1.63-1.23,2.18-4.23,4.2-9.33,7.34-13.78,11.27-.35.31-1,.77-1.22.3-.4-.95-.63-2.18.44-2.85m-.65-5.46c.78-2,6.17-5.42,8.87-5.21-2.62,2.6-4.69,5.13-7.56,6.79-.36.21-.76.51-1,.05a1.94,1.94,0,0,1-.28-1.63m.68,11.58c5.08-3.89,9.82-8.2,15-12,1.57-1.16,3.56-2.33,4.28-4.46.46-1.37,1.71-.48,2.64-1.44-.09,3.55-1.71,5.28-3.95,7-3.45,2.72-6.33,6.15-9.69,9-2,1.73-3.79,3.71-5.79,5.44-.82.71-2.06,2.25-2.91.95s-1-3.37.45-4.5m19.68,1.72c-3.42,2.37-6,5.61-9.13,8.31-1.67,1.45-3.67.35-5.69.59l16.89-14.82c1,2.87-.19,4.63-2.07,5.92m2.38,3.29c-.82,2.77-5.12,5.69-8.38,5.52,1.87-2.89,3.93-5.24,6.92-6.62.41-.19.74-.84,1.23-.47s.39,1,.23,1.57m-19.61,4.84c-.63.59-1.47,1.77-2.39.72s-.27-2.16.78-2.89c6.38-4.48,11.09-10.86,17.44-15.38a23.33,23.33,0,0,0,3.15-3.42c.61,2.67.24,4.07-1.84,5.57-3.29,2.39-6.06,5.49-9,8.31-.34.33-.53.89-.92,1.09-2.87,1.44-4.89,3.88-7.18,6m19.48-51.37a35.85,35.85,0,0,1,4.3,15c.32,1.57-.31,3,1,4.26.92.94-.19,1.69-1.33,1.77-4.75.36-9.5.66-14.24,1.09-4.42.39-8.91.06-13.26,1.23-2.41.65-3.4-1.35-4.71-2.69-.5-.51-.78-1.24-1.3-1.72-2.37-2.22-2.18-2.07-.41-4.69,4.65-6.86,10.09-13.17,14.12-20.44,1.26-2.25,3.43-3.85,4.21-6.46.28-1,1.06,0,1.51.3,4.54,3.18,7.61,7.49,10.13,12.37m-17.55-73.86c.9-2.13,6.24-4.39,9.11-3.85,2.56.49,5.2,3.78,5.25,7.19-.66,2.36-.64,5.62-3.08,8-.55.53-1.14,1-1.92.77s-.38-1.08-.47-1.66c-.15-1-.37-2.07-.51-3.11-.87-6.24-1.06-6.48-7.23-5.87-1.67.17-1.65-.3-1.15-1.48m-9.67,9.23a63.12,63.12,0,0,0,10.61-1.27c1.28-.31,1.8,0,1.82,1.35.25,12.91,2.78,25.62,3.15,38.52a7.65,7.65,0,0,1-2,5.56c-3.59,3.94-5.4,9-8.38,13.3-2.44,3.52-5.26,6.76-7.49,10.4-1.77,2.89-3.89,5.53-5.78,8.33-2,3-4.4,5.89-6.5,8.93-1,1.4-2.72,1.7-4.35,1.85-7.34.68-14.7,1.24-22,2-2.47.26-3.06-1.91-4.27-3-3.29-3-6-6.72-9.27-9.77a12.94,12.94,0,0,1-4.22-9.31c-.42-10-2.52-19.77-2.92-29.73-.1-2.52-.07-5-.16-7.55,0-1,0-2.42-1.43-2.31s-.94,1.37-.9,2.32c.37,11.69,1.8,23.28,2.7,34.92.09,1.17,0,2.36,0,4.22a107.8,107.8,0,0,0-10.91-12.31,4.28,4.28,0,0,1-1.24-2.54,200.52,200.52,0,0,1-3.28-32.07c-.18-5.39-.75-10.77-1.28-16.14-.14-1.34.4-1.45,1.42-1.57,7.58-.92,15.2-.79,22.8-1.18,9.54-.49,19.1-.45,28.63-1.42,8.38-.85,16.83-1,25.24-1.52M359,381c-5.55,1.75-10,6.4-16.36,6.35-.41-.11-1.22.47-1.54-.34-.23-.57.38-.84.84-.94,5.32-1.14,9.63-4.72,14.83-6.16.54-.15,1.06-.37,1.61-.48a.75.75,0,0,1,.95.53c.12.41.1.91-.33,1m.59,3.71c.15.69-.37.83-.85.89-1.11.15-2.22.25-3.34.37l-.13-.39,3-1.36c.59-.26,1.12-.3,1.29.49m-1.49-8.25a42.74,42.74,0,0,1-4.35,2.14,88.6,88.6,0,0,0-11.46,5.16,7.75,7.75,0,0,1-1.2.5c-.75.21-1.07-.09-1.2-.64s-.21-1.15.37-1.52a13.44,13.44,0,0,1,1.5-.8c5.21-2.55,10.43-5.09,15.63-7.66.59-.28,1.1-.52,1.35.25.3.95.46,2-.64,2.57m-.77-5.72A70,70,0,0,1,346,376.14c-1.6.65-2.66,2.06-4.28,2.63-.37.13-.74.31-1,.42-.69.15-1.09,0-1.22-.61a1.47,1.47,0,0,1,1-1.88c3.7-1.57,7.3-3.4,11.07-4.76,1.86-.67,3.25-2.07,5.11-2.64.64-.19,1.45-1,1.85-.09s-.7,1.12-1.3,1.5m-6.53-1.39a67.9,67.9,0,0,0-9.49,4.67c-.64.33-1.37.74-1.87-.17a1.05,1.05,0,0,1,.51-1.62c4.52-1.77,8.57-4.82,13.66-5.06a1,1,0,0,1,1.17.51c-1.06,1.32-2.65,1.22-4,1.67M396.87,355c.06,1.56-.16,2.37-2,2.44-12.14.46-24.16,2.3-36.25,3.38s-24,2.37-36.11,2.73c-3.73,0-7.46,0-11.19.07-1.56,0-2-.64-2.28-2.1-1.77-9.73-2.6-19.59-3.48-29.41-.81-9.2-2.35-18.31-2.85-27.54-.29-5.57-1.49-11.07-1.93-16.64-.3-3.79-1-7.52-1.28-11.32-.08-1.38-.13-2.76-.29-4.13-.43-3.84-.5-4.12,3.34-4.79,9.41-1.62,18.82-3.4,28.37-4,4.7-.3,9.35-.91,14-1.54,3-.4,6-.55,8.94-.8,9.76-.81,19.53-1.6,29.3-2.17a89.61,89.61,0,0,1,9.94.47c.84,0,1.49.15,1.66,1.29a105.93,105.93,0,0,1,.7,12.33c.06,2.5.11,5,.38,7.49,1.09,10.26.95,20.56,1.07,30.84.11,9.13-.38,18.26-.44,27.39,0,5.35.2,10.7.41,16m-1.56-97.78c-17.64.31-35.26.69-52.8,2.83-7.53.93-15.12,1.6-22.6,2.87-5.49.93-11.12.37-16.53,1.83-3.1.84-6.34.91-9.43,1.49a29.29,29.29,0,0,0-7,2.2c-1,.48-2.87,1.43-3.43-.06-.45-1.2,1.37-1.92,2.52-2.51,5.18-2.65,10.89-3.31,16.48-4.45,13.47-2.75,27.09-4.5,40.75-5.91,5.62-.58,11.28-1.31,18.36-.92,11.4-1,24.2-.2,37-.45a53.35,53.35,0,0,1,7.71.86c.89.12,1.95.34,1.83,1.51s-1.19.95-1.95,1c-3.64.15-7.25-.34-10.89-.27M407,285.54c-.77,0-1.42-.17-1.24-1.08.22-1.09.52-2.42,1.85-2.37a2.08,2.08,0,0,1,1.88,1.9c0,1.63-1.62,1.14-2.49,1.55m11.29-1c-.73,0-1.61.17-1.41-.81a3,3,0,0,1,2.39-2.66c1.07-.09,1.13,1.24,1.18,2.05.1,1.67-1.39,1.12-2.16,1.42m5.59,5.8c-1.32,0-1.43-1.32-1.58-2.35-.12-.78,0-1.47,1.06-1.47,1.29,0,1.37.89,1.39,2,0,.67.08,1.83-.87,1.85" transform="translate(-242.09 -197.31)"/><path class="cls-2" d="M327.13,273.19c-4.76-2.05-9.66-3.65-14.71,1.15-5.43,5.16-8.87,10.88-9,18.22-.09,4.51,1,8.92,5.05,12,6.22,4.74,15.63,4.94,21.27,1,5.41-3.77,8.07-9.74,8.28-16.95a17.13,17.13,0,0,0-10.86-15.42m4.25,27.58c-3.39,4.48-8.54,5.65-14,4.74-8.1-1.36-11-4.94-11.63-13.72.08-4.7,2.42-8.89,5.47-12.77.64-.83,1.47-1.5,2.16-2.3,2.48-2.86,5.33-3.39,9.12-2.65a14.49,14.49,0,0,1,11.8,10.38,17.3,17.3,0,0,1-2.91,16.32" transform="translate(-242.09 -197.31)"/><path class="cls-2" d="M383.19,270.47c-4.94-1.75-9.83-2.28-14.86.3-5.19,2.66-8.45,6.62-9.64,12.2-.55,2.58-1.07,5.32-.4,8a15.16,15.16,0,0,0,15.35,11.68c6.84-.49,11.9-3.7,15.07-9.89a16.61,16.61,0,0,0-.16-16.26c-1.32-2.47-2.62-5-5.36-6M374,300c-8.66-.1-14.9-4.93-13-15.75.93-5.24,3.77-9.22,8.86-11.24,1.92-.77,3.47-2.09,6-1.77,8,1,12.14,5.37,12.22,13.66-.21,9.24-6.25,15.2-14.14,15.1" transform="translate(-242.09 -197.31)"/><path class="cls-2" d="M355.69,318.61c-5.92-1.21-11.12-.64-16.08,2.65-5.62,3.73-7.89,9-6.89,15.63.23,1.54.06,3.08,1.12,4.61,3.09,4.46,7,6.56,12.49,5.48,3.2-.16,6.34-.1,9.6-1.36a14.53,14.53,0,0,0,9.49-10.37c.89-3.27,1.44-6.88-.85-9.83s-4.46-5.91-8.88-6.81m6.37,19.06c-2.27,4.94-7.06,5.44-11.41,6.64a27.43,27.43,0,0,1-5.32.45c-3.14,0-6-.26-8.15-3.24a11.58,11.58,0,0,1-2.15-7.95,12,12,0,0,1,5.89-10c2.33-1.41,4.33-3.13,7.22-3.68,5-1,9,.68,12.28,4.07,3.93,4.05,3.91,8.76,1.64,13.72" transform="translate(-242.09 -197.31)"/><path class="cls-2" d="M331.13,446.88c1.66.38,2.56-.54,3.43-1.89,1.67-2.59.07-4.56-1-6.71a3,3,0,0,0-3-1.9,3,3,0,0,0-3,2.2c-.86,2.57.05,4.72,1,6.95a2,2,0,0,0,2.53,1.35m-.79-7.83c1-.11,2.84,2.4,2.88,3.77,0,.75,0,1.49-1,1.55-1.24.08-2.79-1.93-2.85-3.84,0-.57,0-1.36,1-1.48" transform="translate(-242.09 -197.31)"/><path class="cls-2" d="M330.31,428.54c2.23-.46,3.4-2,3.43-4.56,0-3.15-1.73-5.69-3.84-5.5-3.6.31-4.92,2.24-3.91,5.74.24.86.53,1.7.83,2.54.6,1.68,1.86,2.11,3.49,1.78m-1.06-7.86c1.66.42,2.08,2,2.31,3.45,0,1.18-.5,2-1.55,1.86-2-.29-2.1-1.91-2.15-3.5,0-1,.4-2.06,1.39-1.81" transform="translate(-242.09 -197.31)"/><path class="cls-2" d="M331.88,455.61c-2.35,0-3.38,1.15-3.35,3.73,0,3,1.69,5.3,3.84,5.35s4.15-2.14,4.16-4.8c0-3.37-1-4.29-4.65-4.28m1,6.36c-1.49-.06-1.71-1.41-1.79-2.67,0-.85,0-1.59,1.14-1.66,1.82-.11,1.45,1.28,1.68,2.31-.15.78.24,2.07-1,2" transform="translate(-242.09 -197.31)"/><path class="cls-2" d="M389.7,539.15c-.78.07-1.82.26-1.65,1.34s1.14.79,1.94.63c3.2-.6,6.45-.35,9.69-.39,5.23-.36,10.46-.77,15.7-1,1.21-.06,1.83-.25,1.72-1.6s-1-1.36-2.06-1.16c-4.23.79-8.54.69-12.8,1.06s-8.37.74-12.54,1.16" transform="translate(-242.09 -197.31)"/><path class="cls-2" d="M320.64,539.15c-4.24.55-8.49,1-12.74,1.44,0-.07,0-.14,0-.22-3,.24-5.95.47-8.92.74-.55.06-1.49-.32-1.47.73s.81,1.11,1.58,1.13c.56,0,1.13,0,1.69-.07,6.76-.5,13.52-1,20.28-1.51.78-.06,2.11.21,2-1.11s-1.24-1.28-2.41-1.13" transform="translate(-242.09 -197.31)"/><path class="cls-2" d="M320.12,278.25c-3.56-.81-5.41,2.17-7.56,4.35a12,12,0,0,0-3.25,8.91,10.7,10.7,0,0,0,10.28,10.42c6.5-.05,13.5-6.36,12.94-12.3-.65-7-5.42-11.76-12.41-11.38M328.81,294c-1.67,3.56-5,5.28-9.07,5.29a8.1,8.1,0,0,1-7.92-9.36,15.54,15.54,0,0,1,5.09-8.63c2-1.86,7.88-1.1,10.39,1.79A9.64,9.64,0,0,1,328.81,294" transform="translate(-242.09 -197.31)"/><path class="cls-2" d="M376.3,275.56c-2.74-.77-4.49.13-6.39,2.09a20.44,20.44,0,0,0-4.86,7.47c-2.05,5.55,1.19,12.42,8.63,11.51a8.48,8.48,0,0,0,6.92-2.26c3.45-3.43,3.94-7.52,2.54-12.05a9.33,9.33,0,0,0-6.84-6.76m.09,18.52c-2.27,1.05-6,.29-7.92-1.54a4,4,0,0,1-1.49-3.42c.53-3.71,1.43-7.32,4.57-9.81a6.07,6.07,0,0,1,8.9,2.13,11,11,0,0,1,1.11,4.8c.16,3.41-1.85,6.31-5.17,7.84" transform="translate(-242.09 -197.31)"/></svg>