<svg id="Layer_1" data-name="Layer 1" xmlns="http://www.w3.org/2000/svg" viewBox="0 0 255.28 414.1"><defs><style>.cls-1{fill:#fff;}.cls-2{fill:#010101;}</style></defs><path class="cls-1" d="M202.53,524.18c-1.57.23-3.1.61-3.27,2.62,0,.43,0,1-.39,1.13-2.42.83-1.81,2.88-1.89,4.61-.25,5.47,1.29,10.94-.35,16.64a3.48,3.48,0,0,0,.67-.23c6-6.83,8.42-14.66,6.51-23.69-.16-.77-.56-1.19-1.28-1.08" transform="translate(-182.17 -204.76)"/><path class="cls-1" d="M206.36,524.18c.81,4.25.91,8.59,4.08,12.23,3.51,4,7.33,6.31,12.75,4.78.57-.17,1.42-.09,1.54-.87.1-.62-.56-1-1-1.26a16.8,16.8,0,0,1-6.07-7.19,77.15,77.15,0,0,0-4.22-6.87,4.35,4.35,0,0,0-3.7-2.17l-2.54.21c-.72.05-1,.43-.84,1.14" transform="translate(-182.17 -204.76)"/><path class="cls-1" d="M379,357.52c1.33.09,2.67.23,4,.28a5.38,5.38,0,0,1,4.93,4.46c.54,5,2.07,9.81,2.37,14.84.08,1.49,1,1.86,2.35,1.57a10.74,10.74,0,0,0,6.81-4.37c2.78-4.45,4.78-9.5,4.23-14.85-.59-5.72-2.69-8.83-7.57-10.11a49.29,49.29,0,0,0-7.24-1.53,12.4,12.4,0,0,0-11.94,6c-2.1,3.64-2.1,3.64,2,3.69" transform="translate(-182.17 -204.76)"/><path class="cls-1" d="M335.84,217.88c2.12,0,4.08-1.24,4.18-2.74s-2-4.06-3.25-4.08c-1.87,0-3.66,2.25-3.7,4.84,0,1.89,1.32,2.06,2.77,2" transform="translate(-182.17 -204.76)"/><path class="cls-1" d="M302.61,251.17c.21,1,.66,1.36,1.76,1.3,6.36-.32,12.73-.6,19.09-.75,1.59,0,1.94-.46,1.69-2a42.33,42.33,0,0,0-4.73-13.3c-3.59-6.65-10.58-4.88-14.32-1-2.84,3-3.47,6.85-3.45,10.85,0,1.61-.38,3.23,0,4.85" transform="translate(-182.17 -204.76)"/><path class="cls-1" d="M321.9,233.51c.58.71,1.12-.21,1.46-.66,3-3.93,5.93-7.89,8.89-11.85a7.1,7.1,0,0,0,.41-.7,3,3,0,0,0-1.62-1.65c-.84-.36-1.48.3-2,.91q-3.65,4.55-7.23,9.14a11.87,11.87,0,0,0-1.38,2.12c-.7,1.46.82,1.93,1.44,2.69" transform="translate(-182.17 -204.76)"/><path class="cls-1" d="M385.18,380.46c-1.17-4.71-1.55-9.61-2.28-14.43-.19-1.23-.54-2-2.1-2-6.09,0-12.18-.39-18.26-.19-8.84.28-17.69.1-26.53.6-9.27.52-18.55.82-27.83,1.2-4.16.17-8.34.55-12.47.61-5.23.08-10.43.42-15.64.64-4.53.19-9,.5-13.57.72-5.86.29-11.72.59-17.59.74-1.69.05-2.08.82-2.32,2.26-1.69,9.9-3.63,19.73-4.37,29.78a191.22,191.22,0,0,1-5.38,33.85c-2.29,8.9-4.4,17.85-6.45,26.81a94,94,0,0,0-2.5,15.53c.16,1.92-.21,3.89.73,5.81,1.76,3.54,3.29,7.2,5,10.77a115.4,115.4,0,0,0,8.51,15.4,5.15,5.15,0,0,0,3.23,2.6,40.68,40.68,0,0,0,10.55.75c11.45-1.11,22.94-.3,34.4-1,4.19-.26,8.42.2,12.63.14,9.28-.13,18.56-.48,27.84-.57,10.2-.09,20.4-.26,30.59-.61,6.14-.22,12.29-.79,18.42-.69,4.25.07,6.87-1.7,8.78-5.21,2.3-4.22,4.78-8.35,7-12.6,1.67-3.17,3.52-6.23,5-9.51,2.12-4.58,1.21-9,.37-13.48-1.28-6.73-1.76-13.56-2.62-20.34-.43-3.41-1.08-6.8-1.35-10.25-.32-4.05-1.28-8.06-2-12.08-1-5.78-1.73-11.66-3.26-17.31-2.5-9.23-4.23-18.62-6.54-27.88m-32.73,75.39a129.62,129.62,0,0,1-13.8.28c-1-.05-2-.05-3-.07v.26c-4.18-.09-8.36-.15-12.54-.29-1.61,0-2.19.4-2.15,2.19.15,6.94.09,13.89.13,20.83,0,1,0,2.26-1.15,2.39-1.41.14-1.77-1.18-1.56-2.25a52.47,52.47,0,0,0,.77-11.12c-.07-3.4-.18-6.8-.19-10.2,0-1.23-.29-1.73-1.68-1.73-8.22,0-16.43.5-24.64.82-2.05.09-4.11.1-6.16.08a1.6,1.6,0,0,1-1.76-1.51c0-1,.9-1.26,1.86-1.21,5.23.26,10.46-.15,15.68-.19,4.88,0,9.75-.54,14.63-.14,1.44.12,1.95-.55,1.79-1.87-1.36-11.05-1-22.18-1.57-33.27-.54-10.09-.58-20.2-.59-30.3,0-2.17.48-4.39-.31-6.54-.25-.68.19-1.09.74-1.32s.87.28,1.11.71a7.31,7.31,0,0,1,.69,3.51c.13,11.12.16,22.23.43,33.35.2,7.77.33,15.55,1.18,23.3.33,3,.15,6.09.25,9.13s.12,3.14,3.3,3.22c5.46.14,10.92.11,16.37.32,4,.15,8-.4,12.05-.61.89,0,1.91-.25,1.95.92,0,1-.92,1.25-1.85,1.31" transform="translate(-182.17 -204.76)"/><path class="cls-1" d="M421.39,464.35c1-.77,2.38-.84,3.58-1.23s2.85,1.11,3.63-.41c.64-1.23-.64-2.51-.91-3.82-1.48-7.36-4.31-14.33-6.41-21.51-1.85-6.37-4.27-12.58-5.91-19q-4.89-19.22-11.12-38c-.57-1.71-.59-3.62-1.71-5.25a20.82,20.82,0,0,1-8.54,5.43c-.91.28-1,.75-.69,1.6,2.63,7.89,5.1,15.84,7.85,23.69,3.38,9.62,5.74,19.54,9,29.19s6.88,18.89,9.43,28.63c.27,1,.68,1.5,1.77.69" transform="translate(-182.17 -204.76)"/><path class="cls-1" d="M367.66,511.84c-3.59.28-7.18.4-10.78.44-4,.09-8.06.16-12.08.3-.71,0-1.86-.55-2.05.35a2.71,2.71,0,0,0,.8,2.9c.63.45,1.14,1,.83,1.77-.39.91.13,1.4.48,2.1,1.67,3.3,4.78,4.19,8,4.92,8.09,1.83,14.91-2.44,16.77-10.5.45-2,.08-2.44-2-2.28" transform="translate(-182.17 -204.76)"/><path class="cls-1" d="M361.35,528.56c0-.95-.14-1.85-1.41-1.44a12.24,12.24,0,0,1-6.92-.18c-1.53-.38-1.8.1-1.75,1.5.15,4.39.32,8.78.26,13.17q-.15,9.66.17,19.3c.05,1.5.72,1.86,1.91,1.87,2.06,0,4.12-.13,6.17,0,1.5.08,1.82-.37,1.92-1.89.48-7,0-14-.21-20.41.34-4.39-.18-8.14-.14-11.89" transform="translate(-182.17 -204.76)"/><path class="cls-1" d="M297.72,513.45a35.38,35.38,0,0,1-4.56-.06c-6.05.07-12.43.19-18.8.22-1.7,0-2,.69-1.32,2.08,2.23,4.61,4.63,8.72,10.68,9.26,7.65.68,13.67-1.6,15.75-9.1.48-1.7.51-2.69-1.75-2.4" transform="translate(-182.17 -204.76)"/><path class="cls-1" d="M425.73,487a10.43,10.43,0,0,0,1.84,0c5.25-1.13,7.63-2.4,7.29-7.84-.08-1.26-.12-2.54-.16-3.81a9.45,9.45,0,0,0-5.55-8.75c-3.59-1.8-8.89-.09-10.57,3.51s-.52,11.19,2.27,14c1.43,1.44,2.65,3.45,4.88,2.85" transform="translate(-182.17 -204.76)"/><path class="cls-1" d="M413.8,523.24a10.66,10.66,0,0,0-1.72,4.08c-.91,5.37-3.77,9.53-7.65,13.13-.33.3-1,.51-.68,1.13.23.43.77.27,1.17.21a16.81,16.81,0,0,0,10.89-5.94,19.31,19.31,0,0,0,3.55-7.4c.23-.81.64-1.66,1.81-1.24s1.14,1.13.89,2.06c-.18.68-.36,1.37-.52,2.06-.48,2.06-1.36,4-1.15,6.25.09,1.41.17,2.83.28,4.24.27,3.6,2.21,5.58,5.74,5.9.34,0,.71.21.92-.2s-.05-.7-.29-.94c-3.22-3.27-2.37-7-1.17-10.73.82-2.56,1.72-5.09,2.3-7.73.85-3.86-1.19-6.68-5.1-7.08-1.41-.15-3,.27-4.18-.19-2.81-1.14-3.94.71-5.09,2.39" transform="translate(-182.17 -204.76)"/><path class="cls-1" d="M194.15,469.66c-5.71,1-9.29,4.27-9.05,11.48.17,5.4,4.29,9,9.88,8.78,4.26-.15,10.28-4.11,9.86-9.47.16-8.07-3.68-12.06-10.69-10.79" transform="translate(-182.17 -204.76)"/><path class="cls-1" d="M357.46,336c6.58-.34,13.2.84,19.74-1.54,5.37-2,9-5.15,10.52-10.56a26.72,26.72,0,0,0,.9-7.18c0-1.05-.33-2.2-.34-3.32,0-4,.26-8.06,0-12.06-.48-6.25-.12-12.52-.69-18.76-.47-5.07.16-10.23-1-15.22-.6-2.59-1.17-5.19-1.83-7.76-1.07-4.17-6-7.71-10.09-7-3.91.66-7.66.21-11.52.12-8.62-.2-17.29.19-25.9.69-9.83.56-19.67.59-29.49,1.14-7.14.4-14.28.89-21.42,1.38-5.92.4-11.84.73-17.74,1.31-4.86.47-9.78-.13-14.61,1-2.53.6-5,1.27-6.52,3.56-1.21,1.79-1.31,3.52-.67,5.84a25.38,25.38,0,0,1,.34,9.49c-1,8.27.08,16.53-.27,24.8-.32,7.71,0,15.44.12,23.16,0,2.39-.15,5.07,1.1,7,2.64,4.11,6.24,7.23,11.38,8,2.51.4,4.92-.44,7.37-.35,5.87.2,11.73-.16,17.36-.18,6.8-.22,13.39-.27,20-.69,9.23-.58,18.37-2.23,27.67-2.17,8.57.06,17.14-.27,25.69-.73m-20.12-42.09c6.79.8,13.55-.2,20.33-.26,2.87,0,5.75-.74,8.61.22a2,2,0,0,1,1.61,2.17c0,1.76-.08,3.53-.11,4.9.52,4.92-1.38,8.57-4,12.12s-6,4.71-9.83,5.15a18.1,18.1,0,0,1-12.35-2.64c-3-2-3.94-5.08-4.83-8.22-1.1-3.84-1-7.86-1.38-11.8-.12-1.18.7-1.78,1.91-1.64m-46.63,23.86a14.9,14.9,0,0,1-18.78,2.63,5.45,5.45,0,0,1-2.21-2.23c-2.33-4.92-4.65-9.87-4-15.57a11.34,11.34,0,0,0,0-2.33c-.26-2.73-.27-2.63,2.54-2.86,7.83-.63,15.69-.7,23.49-1.62,2.13-.26,2.91.38,2.94,2.46,0,1.77-.06,3.54-.08,4.53.91,6.12-.31,10.95-3.91,15" transform="translate(-182.17 -204.76)"/><path class="cls-1" d="M323.62,339.27q-7,.56-13.94,1c-1,.06-1.44.38-1.39,1.4.31,5.16.62,10.32.86,15.49.05,1.23.61,1.53,1.72,1.54,3,0,5.94-.48,8.57-.18,2.05-.05,3.76-.13,5.46-.13,1.08,0,1.51-.41,1.42-1.54-.48-5.5-.91-11-1.32-16.51-.07-1-.53-1.17-1.38-1.11" transform="translate(-182.17 -204.76)"/><path class="cls-1" d="M292.16,300.06c.07-1.21-.43-1.64-1.63-1.54a33.16,33.16,0,0,1-5.07.23c-5.27-.37-10.46.56-15.68.82-1.06.05-1.35.53-1.48,1.59-.48,4,.52,7.71,1.74,11.43s3.29,6.65,7.41,7.32c4.35.71,8.34-.11,11.32-3.72s4.07-7.55,3.31-12.74c0-.69,0-2,.08-3.39" transform="translate(-182.17 -204.76)"/><path class="cls-1" d="M238.63,385.08c.73-1.95-1.83-1.95-3-3.06s-1.54-.73-2.29.52c-4.08,6.8-7.22,14.1-11.17,21-2.78,4.84-5.22,9.87-7.59,14.92-4.37,9.27-9.4,18.22-13.59,27.58-2.62,5.87-5.47,11.64-8.12,17.5-.32.71-1.82,2.14-.06,2.43,1.2.2,1.49,1.78,2.82,1.28,2.35-.88,4.49-.14,6.48,1.06.89.52,1.32.4,1.85-.45a38.27,38.27,0,0,0,2.93-5.65c2.07-5,3.92-10.21,6.41-15,4.22-8.18,8-16.57,12.11-24.78,2.66-5.28,5-10.72,7.38-16.15,1.13-2.61,3.15-4.82,3.71-7.61.85-4.23,1.37-8.53,2.14-13.52" transform="translate(-182.17 -204.76)"/><path class="cls-1" d="M239.19,380.91a39.1,39.1,0,0,1,1.11-6.23c1.27-3.57.18-8.06,4.65-10.47a20.23,20.23,0,0,1,4.58-2.29c3.21-.78,6.49-.43,9.74-.46.77,0,1.78.17,2.13-.53.2-.4-.41-1.25-.74-1.86-5-9-17-8.74-23.52-4.6a10.21,10.21,0,0,0-4.4,5,21.76,21.76,0,0,0-.15,14.38,10.63,10.63,0,0,0,6.6,7.06" transform="translate(-182.17 -204.76)"/><path class="cls-1" d="M292.94,548.87c-.55-6.5-.24-13-.86-19.66.79-2.34-.34-2.41-2.37-2a11.67,11.67,0,0,1-5.48,0c-.75-.2-1.56-.44-1.66.86-.22,3-.8,5.92-.73,8.87.17,6.65-.11,13.29-.19,19.93,0,2.26-.47,4.48-.12,6.77.2,1.3.6,1.63,1.86,1.59,2.91-.09,5.76-.79,8.65-.87,1.14,0,1.39-.4,1.32-1.3-.39-4.73,0-9.5-.42-14.21" transform="translate(-182.17 -204.76)"/><path class="cls-1" d="M343.83,313.68c2.33,1.64,4.9,2,7.64,2.11,3.2.14,6.33,0,8.73-2.37a17.26,17.26,0,0,0,4.76-8,26.81,26.81,0,0,0,.46-6.77c0-1.95-.64-2.62-2.72-2.61-6.3,0-12.59-.21-18.88-.35,0,.25,0,.49,0,.74-1.27,0-2.55,0-3.82-.09s-1.88.43-1.85,1.84a45.85,45.85,0,0,0,1.66,9.81,9.53,9.53,0,0,0,4,5.73" transform="translate(-182.17 -204.76)"/><path class="cls-2" d="M421.85,490.62c.35-1.34.68-1.89,2.08-1.26,3.46,1.55,11.12-1.71,12.42-5.22.59-1.6.24-3.26.68-4.79,1.32-4.6-.61-10.69-4.49-13.54a2.42,2.42,0,0,1-1.28-2.56,11.74,11.74,0,0,0-.59-4.79c-3.06-9.56-6.15-19.12-9.38-28.62-4.28-12.61-6.74-25.73-11-38.36-1.92-5.76-3.66-11.59-5.69-17.32a6,6,0,0,1,.08-5.07,17.92,17.92,0,0,0,1.71-9.1c-.26-5.74-2.64-10.6-8.5-12.69a59.5,59.5,0,0,0-7.81-1.85c-6.33-1.32-14.45,2.74-16.73,9.95a2.31,2.31,0,0,1-2.8,1.85,128.75,128.75,0,0,0-13.18-.14c-8.86.26-17.71.49-26.57.82-1.37.05-1.74-.32-2-1.65a75.27,75.27,0,0,1-.89-10.8c-.06-1.05.29-1.36,1.28-1.43,1.76-.12,3.52-.06,5.28-.1,7.35-.18,14.69-.64,22-1,5.86-.27,11.76-1,17.66,0,3.44.6,6.58-.06,9-2.92a6.38,6.38,0,0,1,2.51-1.55c3.61-1.51,6.53-3.91,7.43-7.83,1.22-5.31,2.86-10.61,1.94-16.2a48.51,48.51,0,0,1-.72-5.22c-.39-7.22-.75-14.43-1-21.65q-.33-9.09-.39-18.19a48.74,48.74,0,0,0-.44-8.86c-1.48-7.62-7.55-10.86-13.5-14a17.26,17.26,0,0,0-7.78-1.48c-2.77,0-5.42.68-8.16.57-1.95-.08-3.95.07-5.92.17-8.12.38-16.25.9-24.39.6a1.94,1.94,0,0,1-2-1.54,40.14,40.14,0,0,0-2.33-6.37c-.79-1.44-.41-2.63.64-4,2.14-2.73,4.7-5.1,6.61-8,.61-.93,1.45-2.08,2.4-2.34,3.55-1,5.89-3.35,8-6.17,2.42-3.19,1.63-9.47-1.64-11.77a1.88,1.88,0,0,0-.74-.41c-3.76-.54-7.47-1.74-11.32-.64-1.23.35-2.73.41-3.35,1.58-.88,1.68-2.21,3.27-2.33,5.19-.22,3.4-2.26,5.66-4.36,8-.42.47-.78,1-1.2,1.48-2.28,2.55-4.42,5.12-8.58,3.4a5,5,0,0,0-4.5,0,19.6,19.6,0,0,0-8.21,9.12,32.61,32.61,0,0,0-2.78,13c0,1.41-.51,2-1.9,1.69a16.27,16.27,0,0,0-5.87.19c-6.49,1.11-13.07.93-19.58,1.88A153.22,153.22,0,0,1,254,252.39a15.44,15.44,0,0,0-6.34,1.46c-6.13,3.12-8.66,11.9-7.49,17.66a63.11,63.11,0,0,1,1,10.32c.39,11.18-.7,22.35-.55,33.53.06,4.51-.49,9,.06,13.54.83,6.9,4.52,11.57,10.26,14.88a16.7,16.7,0,0,0,5.11,1.94c2,.38,4.28-.54,5.85,1.53.12.17.54.16.81.15,4.17-.15,8.34-.36,12.49-.67,5.05-.38,10.08-1.06,15.16-1.16s9.87-.18,14.8-.46c1.4-.08,1.18.75,1.19,1.41.09,3.73.07,7.48.19,11.21,0,.89-.24,1.12-1,1.14-5.5.1-11,.41-16.47,1-7.09.72-14.24.75-21.35,1.37a4.09,4.09,0,0,1-4.6-2.74,13.66,13.66,0,0,0-7.12-6.94c-5.43-2.43-11-2.11-16.61-.61a12.56,12.56,0,0,0-8.36,6.35c-3.59,7-3,14.07.81,20.87a1.66,1.66,0,0,1-.06,1.91c-1.11,2-2.26,3.92-3.29,5.93-2.26,4.4-4.4,8.86-6.7,13.24-2.15,4.09-4.57,8-6.63,12.16-3.48,7-6.68,14.13-10.17,21.12-3,5.95-5.65,12-8.41,18.07-2.47,5.39-5.44,10.57-7,16.37a1.65,1.65,0,0,1-.66,1,15.5,15.5,0,0,0-6,8.73c-1.4,4.53-.74,8.78,2.61,12.25s7.49,4.18,12.11,2.83c1.1-.32,2.23-1.49,3.06-1.11,1.1.49.42,2.14.77,3.27,2.49,8.19,4.31,16.56,6.35,24.88.32,1.3.08,1.83-1.28,1.92a15.73,15.73,0,0,0-7,2.3c-1.08.64-1.34.22-1.57-.69-.62-2.48-1.36-4.93-1.85-7.43-1.27-6.45-2.43-12.93-3.62-19.41-.17-.91-.5-1.68-1.58-1.62s-1.3.92-1.24,1.83a8.88,8.88,0,0,0,.22,2.32c2.65,7.71,3.3,15.91,5.7,23.69.64,2.08,1.42,4.45-.65,6.52-.62.62-.59,1.86-.56,2.87.13,3.25.26,6.51.33,9.77.09,3.68.42,7.41-2.11,10.59-.37.47-.76,1.11-.13,1.71a1.52,1.52,0,0,0,1.78.31c1.85-.89,3.79-1.71,5.12-3.33A42.62,42.62,0,0,0,206,538.23c.24-.62.08-1.64.9-1.75s.94.95,1.48,1.38a1.46,1.46,0,0,1,.28.32c4.55,6.22,11,7.11,17.78,4.3,2.29-1,2.47-2.4.6-4-2.16-1.81-4.65-3.25-6-5.89-1.47-2.83-3.08-5.6-4.65-8.37A5.94,5.94,0,0,0,213,521.2c-2.08-.57-2.67-2.06-3.12-3.83q-2.24-8.73-4-17.57c-.73-3.55-1.2-7.29-3.56-10.41a9,9,0,0,0,3.47-3.55c2.29-4.07,2-8.2.42-12.3-.8-2-1.12-3.63.29-5.63a21.46,21.46,0,0,0,2-4.17q2.37-5.78,4.92-11.48c1.71-3.81,3.71-7.47,5.77-11.11s3.48-7.74,5.46-11.49c3.08-5.82,5.48-11.94,8.37-17.84.83-1.67,1.55-3.39,2.57-5.64a5.67,5.67,0,0,1,.2,1.4c-1.49,5.48-1.55,11.18-2.81,16.72-1.53,6.74-2.46,13.63-4.05,20.37-1,4.26-2.47,8.4-3.47,12.66-1.57,6.6-2.66,13.31-3.82,20a15.82,15.82,0,0,0,1.77,10.39c1.1,2,2.9,3.48,3.55,5.72a10.5,10.5,0,0,0,2.78,4.89,4.45,4.45,0,0,1,1.16,2.23c.49,2.5,2.26,4.33,3.41,6.43,1.32,2.39,2.51,4.86,3.74,7.28a6.35,6.35,0,0,0,5.5,3.9c4.52.28,9.07.4,13.59.27,4.12-.11,8.25.24,12.33-.11,1.94-.16,2.65.29,3.3,1.85.83,2,2.09,4.13,4.06,4.72,3.21,1,2.95,3.25,3.09,5.58,0,.49,0,1,0,1.49-.09,9.92-.15,19.84-.26,29.76-.05,4.33.66,8.63.42,13,0,.72.07,1.38-.85,1.69-5.95,2-8,7.06-9.79,12.45-2.54,7.65-2.83,15.57-3.29,23.48a13.92,13.92,0,0,0,.87,5.42c.37,1.07,1,1.38,1.92,1a52.87,52.87,0,0,1,8-2.05c6.77-1.61,13.59-2.7,20.58-2a1.49,1.49,0,0,0,1.64-.68,1.16,1.16,0,0,0-.17-1.56c-1.13-.71-.89-1.78-1.11-2.8-.44-2.12-.19-4.24-.34-6.36-.62-9-1.3-18.08-1.75-27.13-.3-5.79-.2-11.61-.36-17.41-.21-7.5-.5-15-.43-22.49,0-3,.38-6.08-.37-9.06-.22-.91.29-1.28.9-1.71,1.84-1.31,3.69-2.65,4.73-4.77.38-.8,1.18-.87,1.92-1.15,6.42-2.36,13.12-1.61,19.73-1.82,2.39-.07,4.76.37,7.09.44,3.59.1,7.21.06,10.82-.06a2,2,0,0,1,2.26,1.41c1.16,2.66,2.79,5,5.81,5.82,1,.3,1,1.14,1.11,2,.74,6.85.57,13.71.56,20.58,0,13.52.4,27,.78,40.56a164.55,164.55,0,0,1-1,21.64c-.28,2.64,1,4.16,3.64,3.92a19.17,19.17,0,0,1,3.39-.05c7.23.59,14.47,1.11,21.7,1.66a1.61,1.61,0,0,0,1.69-.62,1.44,1.44,0,0,0-.22-1.78,4.52,4.52,0,0,1-.81-4.2c.33-1.73.57-3.49,1-5.19.84-3.13-.47-6.15-.28-9.28.32-5.4-.35-10.68-3.24-15.53-2.12-3.56-6.78-6.36-10.71-5.79-1.65.23-2.08-.19-2-1.82.21-6.66.5-13.33.4-20-.13-8.08-.38-16.16-.41-24.24a2,2,0,0,1,1.17-2c3.16-2.08,6-4.5,6.89-8.47.17-.77.57-1.18,1.31-1,3,.71,6-.21,9.08,0a7.91,7.91,0,0,0,7.05-3.12,90.46,90.46,0,0,0,6.49-10.19c3.24-6,7-11.62,10.44-17.44a17,17,0,0,0,2.3-11.06c-.61-5.92-2.23-11.63-2.95-17.54-.95-7.81-1.58-15.66-2.57-23.46-.16-1.26-.19-2.52-.43-3.78-.7-3.74-1.34-7.51-1.74-11.29a9,9,0,0,0-1.06-3.82,13.82,13.82,0,0,1-1.36-4c-1.24-4.94-2.5-9.87-3.69-14.82-.36-1.46-.52-3-.77-4.47l.51-.08c.81,2.7,1.58,5.4,2.45,8.07,2.88,8.87,5.73,17.77,8.17,26.77,1.76,6.5,4.35,12.7,6.2,19.17,1.62,5.64,3.75,11.13,5.34,16.79.78,2.81,1.83,5.48.33,8.54-2.53,5.17-.88,10.18,1.71,14.76,1,1.72,1.51,2.71,1.09,5-1.42,7.59-3,15.15-4.37,22.75-.3,1.69-.82,3.51.07,5.21.43.81-.13,1-.59,1.29a11.18,11.18,0,0,0-4.67,7.11c-1.4,6.07-4.33,11-9.66,14.38-1.16.73-1.21,1.48-.07,2.28a7.4,7.4,0,0,0,6.07,1.2c4.31-1,8.37-2.6,11.32-6.12.75.71.49,1.45.54,2.13.3,3.51.6,7.09,4.29,8.88,2.64,1.28,5.59,1.4,8.47,1.68.93.09,1-.81.93-1.56a2.76,2.76,0,0,0-1-1.56c-3.84-3.67-3.68-7.78-1.86-12.44,1.67-4.24,3.47-8.69.71-13.26-.24-.4-.07-.81,0-1.23.65-3,1.3-6.07,1.91-9.12,1.1-5.48,1.76-11.05,3.57-16.39a33.67,33.67,0,0,0,1.05-5.61c.11-.71.06-1.44-.86-1.71s-1.27.34-1.52,1a8.76,8.76,0,0,0-.35,1.21c-1.67,8.61-3.31,17.23-5,25.83-.66,3.34-.69,3.32-4.07,2.88-.91-.11-1.83-.11-2.75-.19-4.49-.39-5.39-1.45-4.34-5.68,1.84-7.35,2.71-14.89,4.67-22.21M197.3,549s-.13,0-.67.23c1.64-5.7.1-11.17.35-16.64.08-1.73-.53-3.78,1.89-4.61.39-.13.36-.7.39-1.13.17-2,1.71-2.39,3.27-2.62.72-.11,1.12.31,1.28,1.08,1.91,9-.46,16.86-6.51,23.69m16.14-24a77.15,77.15,0,0,1,4.22,6.87,16.8,16.8,0,0,0,6.07,7.19c.44.27,1.1.64,1,1.26-.12.78-1,.7-1.54.87-5.42,1.53-9.24-.74-12.75-4.78-3.17-3.64-3.27-8-4.08-12.23-.14-.71.12-1.09.84-1.14l2.54-.21a4.35,4.35,0,0,1,3.7,2.17M377,353.83a12.4,12.4,0,0,1,11.94-6,49.29,49.29,0,0,1,7.24,1.53c4.88,1.28,7,4.39,7.57,10.11.55,5.35-1.45,10.4-4.23,14.85a10.74,10.74,0,0,1-6.81,4.37c-1.33.29-2.26-.08-2.35-1.57-.3-5-1.83-9.86-2.37-14.84A5.38,5.38,0,0,0,383,357.8c-1.34-.05-2.68-.19-4-.28-4.15,0-4.15,0-2-3.69M336.77,211.06c1.22,0,3.34,2.7,3.25,4.08s-2.06,2.77-4.18,2.74c-1.45.08-2.79-.09-2.77-2,0-2.59,1.83-4.87,3.7-4.84m-16.31,19.76a11.87,11.87,0,0,1,1.38-2.12q3.59-4.6,7.23-9.14c.49-.61,1.13-1.27,2-.91a3,3,0,0,1,1.62,1.65,7.1,7.1,0,0,1-.41.7c-3,4-5.9,7.92-8.89,11.85-.34.45-.88,1.37-1.46.66s-2.14-1.23-1.44-2.69m-14.36,4.65c3.74-3.91,10.73-5.68,14.32,1a42.33,42.33,0,0,1,4.73,13.3c.25,1.52-.1,1.94-1.69,2-6.36.15-12.73.43-19.09.75-1.1.06-1.55-.3-1.76-1.3-.34-1.62,0-3.24,0-4.85,0-4,.61-7.88,3.45-10.85m-2,103.4c-6.56.42-13.14.47-20,.69-5.63,0-11.49.38-17.36.18-2.45-.09-4.86.75-7.37.35-5.14-.81-8.74-3.93-11.38-8-1.25-1.94-1.07-4.62-1.1-7-.08-7.72-.44-15.45-.12-23.16.35-8.27-.7-16.53.28-24.8a25.59,25.59,0,0,0-.35-9.49c-.64-2.32-.54-4,.67-5.84,1.54-2.29,4-3,6.52-3.55,4.82-1.14,9.75-.54,14.61-1,5.9-.58,11.82-.91,17.74-1.31,7.14-.49,14.28-1,21.42-1.38,9.82-.55,19.66-.58,29.49-1.14,8.61-.5,17.28-.89,25.9-.69,3.86.09,7.61.54,11.52-.12,4.08-.69,9,2.85,10.09,7,.66,2.57,1.23,5.17,1.83,7.76,1.16,5,.53,10.15,1,15.22.57,6.24.21,12.51.69,18.76.31,4,0,8,0,12.06,0,1.12.34,2.27.34,3.32a27.13,27.13,0,0,1-.9,7.18c-1.51,5.41-5.15,8.6-10.52,10.56-6.54,2.38-13.16,1.2-19.74,1.54-8.55.46-17.13.79-25.69.73-9.3-.06-18.44,1.59-27.67,2.17m22.22,18c.09,1.14-.34,1.54-1.42,1.54-1.7,0-3.4.08-5.46.13-2.63-.3-5.59.2-8.57.18-1.11,0-1.67-.31-1.72-1.55-.24-5.16-.55-10.32-.86-15.48-.05-1,.43-1.34,1.39-1.4,4.65-.31,9.29-.67,13.94-1,.85-.06,1.31.14,1.38,1.11.41,5.51.84,11,1.32,16.51m-93.58,2.59a10.19,10.19,0,0,1,4.4-5c6.55-4.14,18.56-4.43,23.52,4.6.33.61.94,1.46.74,1.86-.35.7-1.36.52-2.13.53-3.25,0-6.53-.33-9.74.46a20.23,20.23,0,0,0-4.58,2.29c-4.47,2.41-3.38,6.9-4.65,10.47a38,38,0,0,0-1.11,6.23,10.62,10.62,0,0,1-6.6-7.07,21.7,21.7,0,0,1,.15-14.36M195,489.92c-5.59.19-9.71-3.38-9.88-8.78-.24-7.21,3.34-10.45,9.05-11.48,7-1.27,10.85,2.72,10.69,10.79.42,5.36-5.6,9.32-9.86,9.47m37.8-83.71c-2.35,5.43-4.72,10.87-7.38,16.15-4.13,8.21-7.89,16.6-12.1,24.78-2.5,4.83-4.35,10-6.42,15a38.27,38.27,0,0,1-2.93,5.65c-.53.85-1,1-1.85.45-2-1.2-4.13-1.94-6.48-1.06-1.33.5-1.62-1.08-2.82-1.28-1.76-.29-.26-1.72.06-2.43,2.65-5.86,5.5-11.63,8.12-17.5,4.19-9.36,9.22-18.31,13.59-27.58,2.37-5.05,4.81-10.08,7.59-14.92,4-6.87,7.09-14.17,11.17-21,.75-1.25,1.15-1.59,2.29-.52s3.74,1.11,3,3.06c-.77,5-1.28,9.29-2.14,13.52-.56,2.79-2.58,5-3.71,7.61M292,564.38c-2.89.08-5.74.78-8.65.87-1.26,0-1.66-.29-1.86-1.59-.35-2.29.09-4.52.12-6.77.08-6.64.36-13.28.19-19.93-.07-3,.51-5.91.73-8.87.1-1.3.91-1.06,1.66-.86a11.67,11.67,0,0,0,5.48,0c2-.43,3.16-.36,2.37,2,.62,6.63.31,13.16.86,19.66.4,4.71,0,9.48.42,14.21.07.9-.18,1.27-1.32,1.3m7.43-48.53c-2.08,7.5-8.1,9.78-15.75,9.1-6.05-.54-8.45-4.65-10.68-9.26-.67-1.39-.37-2.07,1.32-2.08,6.37,0,12.75-.15,18.8-.22a35.38,35.38,0,0,0,4.56.06c2.26-.29,2.22.7,1.75,2.4m62.23,45c-.1,1.52-.42,2-1.92,1.89-2-.1-4.11,0-6.17,0-1.19,0-1.86-.37-1.91-1.87q-.31-9.64-.17-19.3c.06-4.39-.11-8.78-.26-13.17,0-1.4.22-1.88,1.75-1.5a12.24,12.24,0,0,0,6.92.18c1.27-.41,1.42.49,1.41,1.44,0,3.75.48,7.5.14,11.89.19,6.38.69,13.38.21,20.41m7.93-46.74c-1.86,8.06-8.68,12.34-16.77,10.5-3.22-.73-6.33-1.62-8-4.92-.35-.7-.87-1.19-.48-2.1.31-.72-.2-1.32-.83-1.77a2.71,2.71,0,0,1-.8-2.9c.19-.9,1.34-.32,2.05-.35,4-.14,8.05-.21,12.08-.3,3.6,0,7.19-.16,10.78-.44,2-.16,2.42.3,2,2.28M395,425.65c.72,4,1.68,8,2,12.08.27,3.45.92,6.84,1.35,10.25.86,6.78,1.34,13.6,2.62,20.34.84,4.44,1.75,8.9-.37,13.48-1.51,3.28-3.36,6.34-5,9.51-2.23,4.25-4.71,8.38-7,12.6-1.91,3.51-4.53,5.28-8.78,5.21-6.13-.1-12.28.47-18.42.69-10.19.35-20.39.52-30.59.61-9.28.09-18.56.44-27.84.57-4.21.07-8.44-.4-12.63-.14-11.46.71-22.95-.1-34.4,1a40.68,40.68,0,0,1-10.55-.75,5.15,5.15,0,0,1-3.23-2.6,115.4,115.4,0,0,1-8.51-15.4c-1.68-3.57-3.21-7.23-5-10.77-.94-1.92-.57-3.89-.73-5.81a94,94,0,0,1,2.5-15.53c2.05-9,4.16-17.91,6.45-26.81a191.37,191.37,0,0,0,5.38-33.85c.74-10,2.69-19.89,4.37-29.77.24-1.45.63-2.22,2.32-2.26,5.87-.16,11.73-.46,17.59-.75,4.53-.22,9-.53,13.57-.72,5.21-.23,10.41-.56,15.64-.64,4.13-.06,8.31-.44,12.47-.61,9.28-.38,18.56-.68,27.83-1.2,8.84-.5,17.69-.32,26.53-.6,6.08-.2,12.17.18,18.26.19,1.56,0,1.91.82,2.1,2,.73,4.82,1.11,9.72,2.28,14.43,2.31,9.26,4,18.65,6.54,27.88,1.53,5.65,2.22,11.53,3.26,17.31M410.19,435c-3.29-9.65-5.65-19.57-9-29.19-2.75-7.85-5.22-15.8-7.85-23.69-.29-.85-.22-1.32.69-1.6a20.82,20.82,0,0,0,8.54-5.43c1.12,1.63,1.14,3.54,1.71,5.25q6.22,18.81,11.12,38c1.64,6.41,4.06,12.62,5.91,19,2.1,7.18,4.93,14.15,6.41,21.51.27,1.31,1.55,2.59.92,3.82-.79,1.52-2.41,0-3.64.41s-2.55.46-3.58,1.23-1.5.34-1.77-.69c-2.55-9.74-6.2-19.12-9.43-28.63m8.39,35.12c1.68-3.6,7-5.31,10.57-3.5a9.43,9.43,0,0,1,5.55,8.75c0,1.26.08,2.54.16,3.8.34,5.44-2,6.71-7.29,7.84a10.43,10.43,0,0,1-1.84,0c-2.23.61-3.45-1.41-4.88-2.85-2.79-2.84-4-10.42-2.27-14m.31,50.7c1.15.46,2.77,0,4.18.19,3.91.4,5.95,3.22,5.1,7.08-.58,2.64-1.48,5.17-2.3,7.73-1.2,3.73-2.05,7.46,1.17,10.73.24.24.49.57.29.94s-.58.23-.92.2c-3.53-.32-5.47-2.3-5.74-5.9-.11-1.41-.19-2.83-.28-4.24-.21-2.2.67-4.19,1.15-6.25.16-.69.34-1.38.52-2.06.25-.93.15-1.69-.89-2.06s-1.58.43-1.81,1.24a19.31,19.31,0,0,1-3.55,7.4,16.81,16.81,0,0,1-10.89,5.94c-.4.06-.94.22-1.16-.21-.34-.62.34-.83.67-1.14,3.88-3.59,6.74-7.75,7.65-13.12a10.66,10.66,0,0,1,1.72-4.08c1.15-1.68,2.28-3.53,5.09-2.39" transform="translate(-182.17 -204.76)"/><path class="cls-2" d="M352.35,453.62c-4,.21-8,.76-12.05.61-5.45-.21-10.91-.18-16.37-.32-3.18-.08-3.2-.14-3.3-3.22s.08-6.11-.25-9.13c-.85-7.75-1-15.53-1.18-23.3-.27-11.12-.3-22.23-.43-33.35a7.21,7.21,0,0,0-.7-3.51c-.23-.43-.45-1-1.1-.71s-1,.64-.74,1.32c.79,2.15.31,4.37.31,6.54,0,10.1,0,20.21.59,30.3.59,11.09.21,22.22,1.57,33.27.16,1.32-.35,2-1.79,1.87-4.88-.4-9.75.11-14.63.14-5.22,0-10.45.45-15.68.19-1-.05-1.84.23-1.86,1.21A1.6,1.6,0,0,0,286.5,457c2.05,0,4.11,0,6.16-.08,8.21-.33,16.42-.78,24.64-.82,1.39,0,1.67.5,1.68,1.73,0,3.4.12,6.8.19,10.2a52.47,52.47,0,0,1-.77,11.12c-.21,1.07.15,2.39,1.56,2.25,1.18-.13,1.16-1.35,1.15-2.39,0-6.94,0-13.89-.13-20.83,0-1.79.54-2.24,2.15-2.19,4.18.14,8.36.2,12.54.29v-.26c1,0,2,0,3,.07a129.62,129.62,0,0,0,13.8-.28c.93-.06,1.89-.29,1.85-1.31,0-1.17-1.06-1-1.95-.92" transform="translate(-182.17 -204.76)"/><path class="cls-2" d="M336.81,307.32c.89,3.14,1.87,6.27,4.83,8.22A18.1,18.1,0,0,0,354,318.18c3.84-.44,7.34-1.74,9.83-5.15s4.48-7.2,4-12.12c0-1.37.07-3.14.11-4.91a2,2,0,0,0-1.61-2.16c-2.86-1-5.74-.25-8.61-.22-6.78.06-13.54,1.06-20.33.26-1.21-.14-2,.46-1.91,1.65.42,3.93.28,8,1.38,11.79m3.17-11c1.27.08,2.55.06,3.82.09,0-.25,0-.49,0-.74,6.29.14,12.59.39,18.88.35,2.08,0,2.71.66,2.72,2.61a26.81,26.81,0,0,1-.46,6.77,17.26,17.26,0,0,1-4.76,8c-2.4,2.34-5.53,2.51-8.73,2.37-2.74-.12-5.31-.47-7.64-2.11a9.53,9.53,0,0,1-4-5.73,45.85,45.85,0,0,1-1.66-9.81c0-1.41.48-1.93,1.85-1.84" transform="translate(-182.17 -204.76)"/><path class="cls-2" d="M294.7,298.22c0-2.07-.81-2.72-2.94-2.46-7.8.92-15.66,1-23.49,1.62-2.81.23-2.8.13-2.54,2.86a10.09,10.09,0,0,1,0,2.33c-.66,5.7,1.65,10.65,4,15.57a5.45,5.45,0,0,0,2.21,2.23,14.9,14.9,0,0,0,18.78-2.63c3.6-4,4.82-8.87,3.91-15,0-1,.11-2.76.08-4.53m-5.93,18c-3,3.61-7,4.43-11.32,3.72-4.12-.67-6.18-3.59-7.41-7.32s-2.22-7.44-1.74-11.43c.13-1.06.42-1.54,1.48-1.59,5.22-.26,10.41-1.19,15.68-.82a33.16,33.16,0,0,0,5.07-.23c1.2-.1,1.7.33,1.63,1.54s-.07,2.7-.08,3.39c.76,5.19-.4,9.23-3.31,12.74" transform="translate(-182.17 -204.76)"/></svg>