<svg id="Layer_1" data-name="Layer 1" xmlns="http://www.w3.org/2000/svg" viewBox="0 0 268.53 332.28"><defs><style>.cls-1{fill:#fff;}.cls-2{fill:#010101;}</style></defs><path class="cls-1" d="M232.49,466.85c-2.61,1.54-3,4.3-.82,6.4a17.18,17.18,0,0,0,1.42,1.09,35.94,35.94,0,0,0,.23-7.21c0-.51-.39-.54-.83-.28" transform="translate(-150.02 -243.93)"/><path class="cls-1" d="M239.25,462.6c.2,5.54.43,11.08.8,16.61.27,4.13,3.07,6.26,5.41,8.9a1.62,1.62,0,0,0,.2-1c-.5-4-1.08-7.91-1.5-11.88-.61-5.89-1.1-11.8-1.65-17.7,0-.57,0-1.29-.68-1.46s-1.1.31-1.43.81c-.86,1.31-1.7,2.63-2.54,3.94,1.46-.23,1.35.79,1.39,1.78" transform="translate(-150.02 -243.93)"/><path class="cls-1" d="M217.61,406.61c.75,9.66,1.11,19.33,1,29s-.53,19.49.14,29.24c.09,1.4-.42,3.23.28,4.12.86,1.09,2.75,0,4.2.22,3.22.41,5.6-.09,7.86-3.3,3.55-5.06,8-9.54,11.64-14.58.86-1.18,2.3-2.43,2.31-3.66,0-2.14,1.27-1.66,2.36-1.77a12.86,12.86,0,0,1,2.7-.11c2,.21,2.53-.85,2.6-2.6.16-3.88-.14-7.75-.15-11.62-.06-15.9,0-31.79.36-47.68.31-13.89.58-27.79-.13-42.09,0-3.4,0-7.22.14-11,0-1.58-.24-2.25-2.12-2.15-3,.15-5.92.17-8.88.39-6,.44-12,.8-18,1.25-1.86.15-3.71.47-5.56.73-1,.15-1.45.73-1.58,1.82a87.82,87.82,0,0,0-.46,12.13c.06,2-.41,4-.17,6,.82,6.94-.22,13.91.25,20.87.13,2-.64,4.18,0,6,.82,2.44.64,4.83.64,7.21,0,7.23,0,14.47.58,21.68" transform="translate(-150.02 -243.93)"/><path class="cls-1" d="M257.91,489.4c1.11,0,1.63-.32,1.68-1.52.11-2.41-.27-4.78-.26-7.16,0-10.05-.13-20.09-1.08-30.11-.31-3.16-.16-3.17-3.37-3.55-.32,0-.63-.13-.95-.17-3.67-.37-4.24.17-4.05,3.76,0,.2,0,.39,0,.58.6,12.31,1.87,24.59,1.83,36.93,0,1.93,1.23,1.16,2.07,1.28,1.09.16,1.65-.17,1.49-1.5-.27-2.17-.34-4.37-.46-6.56-.38-7.28-.77-14.57-1.11-21.86-.17-3.47-.23-7-.31-10.44,0-.8-.22-1.85,1.12-1.77s.59,1.07.62,1.65c.12,2.77.14,5.55.27,8.32.32,7.29.69,14.57,1,21.86h.15c0,2.9-.07,5.81-.1,8.71,0,.94.13,1.6,1.38,1.54" transform="translate(-150.02 -243.93)"/><path class="cls-1" d="M238.67,480.14a35.26,35.26,0,0,0-.23-4.64,142.25,142.25,0,0,1-.66-14.6,5.47,5.47,0,0,0-3,4.4c-.28,2.26.1,4.49-.14,6.75-.53,5.15.12,6.24,4,8.09" transform="translate(-150.02 -243.93)"/><path class="cls-1" d="M249,489.58c1.39,0,1.32-.71,1.3-1.73-.1-8-1-16-1.38-24-.27-5.33-.52-10.66-1.09-16.39-1.1,2-2.61,3.06-3.69,4.49-.63.82-1.58,1.84-1.09,2.73,1.66,3,1.16,6.4,1.6,9.58,1.09,7.91,1.84,15.87,2.67,23.81.12,1.16.54,1.47,1.68,1.46" transform="translate(-150.02 -243.93)"/><path class="cls-1" d="M396.18,476.1c-.18-.44-.37-.93-.88-.91s-.69.56-.82,1a39.59,39.59,0,0,1-1.51,5c-2.79,6.07-5.2,12.3-7.67,18.51a28.52,28.52,0,0,0-.85,2.91c.07,3.22,2.38,4.68,4.38,6,1.19.8,2.7-.59,3.95-1.29.38-.22.66-.71,1.05-.82,1.76-.48,1.18-1.18.33-2.11-1.93-2.1-3.46-4.19-2.58-7.49,1.18-4.38,3.59-8.09,5.54-12,.57-1.15,1.54-2.36,1.22-3.6a37,37,0,0,0-2.16-5.15" transform="translate(-150.02 -243.93)"/><path class="cls-1" d="M154.73,495.41c2.67,2.75,5.48,5.36,8.3,8.09a2.48,2.48,0,0,0-.23-2.06,30.31,30.31,0,0,0-3-5.82,4.16,4.16,0,0,1,.1-5,19.31,19.31,0,0,0,1.2-2.19c1-2.12,1.91-4.35,3-6.38,2.05-3.78,4-7.61,6.19-11.33.4-.7.59-1.41-.17-1.87-1.35-.84-2.17-2.18-3.3-3.22-1.62-1.5-2-1.59-2.54.44-1.05,4.06-4.14,7-5.49,10.95-1.25,3.7-3.47,7.14-5.15,10.75-2,4.32-2.16,4.33,1.09,7.67" transform="translate(-150.02 -243.93)"/><path class="cls-1" d="M409.59,500.81c-.52,3.57.3,7.29-.55,11.09.94-.13,1.08-.54,1.17-.88a29.36,29.36,0,0,1,3.41-6.87c.46-.77.79-1.62,1.18-2.43,1.29-2.62,1.65-5.24.28-8a104.69,104.69,0,0,0-5.84-10.52c-2.51-3.83-3.71-8.31-6.18-12.16-1.37-2.15-1.23-2.24-3.6-1.17l-.19.05a3.58,3.58,0,0,0-1.92,5,64.8,64.8,0,0,0,3.14,6.57c2.53,4.75,5.36,9.33,7.73,14.17.83,1.68,1.7,2.88,1.37,5.09" transform="translate(-150.02 -243.93)"/><path class="cls-1" d="M169.37,477.7c2,2.39,3.89,4.93,5.77,7.45,1.16,1.57,1.75,3.4,3,4.9a10.9,10.9,0,0,1,2.51,9c-.12.74,0,1.09.67,1.31.85.29,1.71.57,2.56.87.58.2,1,.1,1.21-.54,1-3.74,1.36-7.46-.64-11-2.15-3.81-4.73-7.33-7.1-11a47.41,47.41,0,0,0-5.23-7.17c-1,1.56-1.92,3-2.85,4.35a1.28,1.28,0,0,0,.13,1.84" transform="translate(-150.02 -243.93)"/><path class="cls-1" d="M292.27,458.47a71.59,71.59,0,0,1-.11-10.25c0-.48.2-1-.4-1.37a2.21,2.21,0,0,0-3.43,1.76c-.08.64,0,1.29-.09,1.93-.47,5.93.55,11.84.32,17.76-.05,1.24.23,1.71,1.58,1.63s2.15,0,2.07-1.8c-.14-3.21,0-6.44.06-9.66" transform="translate(-150.02 -243.93)"/><path class="cls-1" d="M321,448.16c-.83-.52-1.18,0-1.31.93a42.57,42.57,0,0,0,.25,10.22c1.15,10.64,1.29,21.33,1.9,32,0,.37.07.64.4.75a.49.49,0,0,0,.46-.12c1.32-2.63,3.41-4.81,2.83-8.3-1.55-9.3-1.82-18.73-2.44-27.79,0-1.76,0-3.18.07-4.59.13-1.68-1.06-2.39-2.16-3.09" transform="translate(-150.02 -243.93)"/><path class="cls-1" d="M300.66,485.76c0,1.54-.06,3.1,0,4.64,0,.6-.42,1.54.84,1.52s.92-.82.92-1.51c0-3.48-.13-7,0-10.44a151.87,151.87,0,0,0,0-16.25c-.32-5.05-1.49-10.08-.59-15.19.15-.84-.39-1.14-1.18-1.1s-1.8-.24-1.68,1c.29,3-1,6-.47,9s-.16,6.42-.35,9.62c-.07,1.07-.07,2.23,1.63,2.27.69,0,.95.83,1.07,1.62.78,4.95-.3,9.88-.23,14.82" transform="translate(-150.02 -243.93)"/><path class="cls-1" d="M305.73,536.34a37.25,37.25,0,0,1,7.54-.2c6.31.42,12.63.68,19,.54,2.61-.06,2.6-.07,2.48-2.56a5.51,5.51,0,0,1,.15-1.34,37.92,37.92,0,0,1,3.82-11.3c1.43-2.54,2.2-5.41,4.76-7.36,2.85-2.17,2.81-2.64,2.8-6.32v-.39c.13-5.55-.43-11.08-.13-16.68.32-6,.41-12,.69-18,.05-1.12-.15-1.75-1.46-1.58s-2.57.24-3.86.31a4.51,4.51,0,0,0-3.5,1.95c-1.78,2.2-3,4.72-4.79,6.94-3.27,4.16-6.19,8.6-9.25,12.93-.33.46-.69,1.36-1.22,1-1.52-1.09-3.12-.24-4.63-.46a68.76,68.76,0,0,0-16-.56c-1.08.09-1.62.24-1.64,1.5-.16,9.69.19,19.37.41,29.06l-.12,10.84c0,.52-.12,1.26.57,1.2,1.51-.13,2.87.65,4.38.45" transform="translate(-150.02 -243.93)"/><path class="cls-1" d="M225.36,544.7a58.8,58.8,0,0,0,3.43-11.6,13.47,13.47,0,0,0-.67-8.18c-1.23-2.76-2.28-5.61-3.59-8.32-2.2-4.53-5.28-4.49-7.61-3.12a12.06,12.06,0,0,0-4.72,5c-1.93,3.89-3.36,7.94-3.09,12a25.65,25.65,0,0,0,1.2,11.23c1.16,3.48,2.31,6.84,5.2,9.47,2,1.83,3.07,2.26,5.2.55,2.31-1.85,3.49-4.27,4.65-7" transform="translate(-150.02 -243.93)"/><path class="cls-1" d="M296.85,453.42c0-1.77-.47-3.56,0-5.37.31-1.07-.81-.74-1.31-.86s-1.84-.4-1.65.57c.39,1.89-.75,3.42-.73,5.23,0,5,.12,9.91.61,14.39-.07.78-.13,1.1-.13,1.42,0,1.62,1.27,1.06,2.12,1.18,1.23.17.88-.64.88-1.34,0-5.07.29-10.14.16-15.22" transform="translate(-150.02 -243.93)"/><path class="cls-1" d="M312.35,448.44c-.14-1.6-1.32-.82-2.06-.9s-1.53.17-1.47,1.25c.09,1.87.2,3.74.25,5.6.23,8.83,1.34,17.62.85,26.47,0,2.38,0,4.77-.09,7.15-.1,3.92-.12,3.89,3.72,4.17.9.07,1.27,0,1.15-1.11-1.12-10.53,0-21.15-1.27-31.68-.43-3.64-.75-7.29-1.08-10.95" transform="translate(-150.02 -243.93)"/><path class="cls-1" d="M318.14,449.8c.08-1.54-2.36-2.8-3.71-2.08-.31.16-.23.35-.22.6a79.21,79.21,0,0,0,.25,8.31c1.24,9,.79,18,1.47,25.85a70,70,0,0,0,.47,8.84c.08.95.38,1.07,1.13,1s1.54-.18,2.3-.3c.5-.08.81-.29.71-.91-.67-4.34-.43-8.74-.72-13.11-.42-6.63-1-13.24-1.32-19.87a79.11,79.11,0,0,1-.36-8.3" transform="translate(-150.02 -243.93)"/><path class="cls-1" d="M328.78,457.46c-1.07-1.23-1.65-2.77-2.79-3.92-.3-.3-.53-.88-1.05-.65s-.22.81-.2,1.22c.24,4.43.57,8.86.76,13.29A128,128,0,0,0,327.23,485a28.41,28.41,0,0,0,2-2.2,5.84,5.84,0,0,0,1.51-4.55c-.77-6.12-1.28-12.27-1.88-18.41-.08-.81.28-1.92-.13-2.39" transform="translate(-150.02 -243.93)"/><path class="cls-1" d="M269.52,472.46c-1-.38-.88-1.21-.89-1.93-.1-7.32-.24-14.64.29-21.95.06-.85-.1-1.94-1.26-1.65-.72.17-2.18-.9-2.2.91a88.86,88.86,0,0,0,0,10.06c.82,7.82,1.51,15.64,1.9,23.5,0,2-.07,4-.06,6,0,.84,0,1.73,1.27,1.69s1.05-.84,1.09-1.61c.28-4.37,0-8.77.44-13.14.06-.62.29-1.55-.57-1.87" transform="translate(-150.02 -243.93)"/><path class="cls-1" d="M307.05,448.6c0-1.29-.84-1.29-1.69-1.22-.66.06-1.7-.55-1.81.75a28.74,28.74,0,0,0-.16,4c.22,4.44.53,8.88.81,13.32.46,7.22-.36,14.43-.15,21.65,0,1.16,0,2.32,0,3.49,0,.51.05,1.15.72,1.17a9.88,9.88,0,0,0,3.62-.21c.86-.33,0-1.5.12-2.31a10.65,10.65,0,0,0,.12-2.12c0-3.09.61-6.13.51-9.26-.24-7-1.19-13.86-1.63-20.8-.18-2.83-.35-5.66-.43-8.5" transform="translate(-150.02 -243.93)"/><path class="cls-1" d="M268.39,491.15c-1.86-.14-3.7.18-5.5,0-5.1-.5-10.17.13-15.25.19a3.11,3.11,0,0,1-2.83-1.1,81.81,81.81,0,0,0-7.62-8.38,45.27,45.27,0,0,1-7.2-7.77c-1.57-2.21-2.93-4.21-5.54-3.28-1.48,0-2.45,0-3.42-.05-1.57,0-2,.6-2,2.24.2,5.49.25,11,.22,16.47-.05,6.78-.23,13.57-.35,20.35,0,.66-.13,1.29.88,1.31,2.89.05,4.46,1.74,5.91,4.14,3.29,5.46,5.44,11.11,4.71,17.59-.09.78,0,1.21,1,1.11,6.32-.65,12.65,0,19-.15,4.08-.09,8.25.53,12.27-1.1,1.27-.51,2.93-.12,4.41-.08,1,0,1.43-.34,1.43-1.34,0-1.61.1-3.23.13-4.84.12-7.41.19-14.82.37-22.24.09-3.93.36-7.86.56-11.8,0-.85,0-1.18-1.19-1.27" transform="translate(-150.02 -243.93)"/><path class="cls-1" d="M262.24,446.9c-1,.11-2.3-.48-2.18,1.48.55,9.15.81,18.31.92,27.48,0,3.42-.2,6.85-.08,10.27s.23,3.24,3.58,3c1-.07,1.14-.43,1.1-1.32-.08-1.6.05-3.2,0-4.81-.17-6.89-.12-13.8-1-20.67-.6-4.73-1.3-9.45-.8-14.24.14-1.36-.67-1.3-1.56-1.2" transform="translate(-150.02 -243.93)"/><path class="cls-1" d="M260.74,537c-.78-.93-1.69-.92-2.71-1.1-3.19-.57-6.4-.07-9.6-.24-5.72-.31-11.45-.75-17.19-.11-.93.1-1.43.32-1.54,1.26A30.53,30.53,0,0,1,226,547.34c-1.26,2.43-2.11,5.17-5.2,6.06a1,1,0,0,0-.43,1.79c2.69,2.48,3.91,5.82,5.52,9,1.09,2.1,2.63,4,3.48,6.21a2.58,2.58,0,0,0,2.77,1.62c4.59-.12,9.18,0,13.76-.21,2.2-.09,4.38.22,6.57,0a95.81,95.81,0,0,1,13.65-.58c1.48.07,1.95-.22,1.85-1.72-.24-4-.36-8-.46-10.3.09-5.38-.24-9.06-.37-12.73-.09-2.66-1.48-4.48-3.06-6.25-1-1.15-2.37-2-3.35-3.19" transform="translate(-150.02 -243.93)"/><path class="cls-1" d="M287.07,460.68a48.25,48.25,0,0,1-.13-12.36c.17-1.53.07-1.76-1.3-1.79s-2.57-.17-1.65,1.82a2.15,2.15,0,0,1,0,1.15,48.3,48.3,0,0,0-.27,8.6c0,4.39.9,7.63,1.22,10.94.08.87.63.83,1.22.84s1.18,0,1.13-.87c-.15-2.78.21-5.55-.19-8.33" transform="translate(-150.02 -243.93)"/><path class="cls-1" d="M282.29,453.16a21.27,21.27,0,0,0,0-5.58c-.33-1.48-1.39-.79-2.16-.8s-1.32.11-1.27,1.21c.1,2.18,0,4.37,0,6.56-.13,4.59.52,9.14.59,13.71,0,2.28,1.5,1.47,2.58,1.58,1.67.16,1-1.09,1-1.84,0-5-.91-9.88-.71-14.84" transform="translate(-150.02 -243.93)"/><path class="cls-1" d="M271.31,446.71c-.6,0-1.08,0-1.08.91,0,4.32-.07,8.63-.12,12.95H270c0,2.65-.09,5.29-.07,7.94,0,.59-.4,1.78.68,1.54s2.69.61,2.77-1.47c.25-7-.76-13.92-.61-20.89,0-1.1-.8-1-1.5-1" transform="translate(-150.02 -243.93)"/><path class="cls-1" d="M276.94,448.12c0-1.05-.67-1.24-1.54-1.31-1.14-.08-1,.68-1,1.4l-.12,9.87h.42q-.06,4.76-.11,9.49a2.28,2.28,0,0,0,3.38,2.18c.4-.19.34-.45.32-.77-.63-6.94-1.05-13.9-1.32-20.86" transform="translate(-150.02 -243.93)"/><path class="cls-1" d="M344.3,515.69c-3.15,3.74-4.75,8.2-6.15,12.78-.57,1.89-1.79,3.54-1.68,5.68.25,4.83,2,9.29,3.36,13.82a3.09,3.09,0,0,0,1.25,1.69l4.05,2.61a2.14,2.14,0,0,0,2.85-.21,15.37,15.37,0,0,0,3.82-5.21,45.25,45.25,0,0,0,2.33-12.35c0-6.84-.61-14.75-4.67-18.76-2-2-3.36-2.21-5.16,0" transform="translate(-150.02 -243.93)"/><path class="cls-1" d="M188.15,360.3c.92,0,1.87-.36,1.82-1.3s-1.24-1.46-2.08-1.71c-1-.3-.94.75-1.11,1.38,0,.93.2,1.68,1.37,1.63" transform="translate(-150.02 -243.93)"/><path class="cls-1" d="M253,317.62a3.4,3.4,0,0,0,2.63-.26c3.57-1.69,5.48-4.52,5.63-9.67,0-2.23-1.37-5.11-3.58-7.53a5.43,5.43,0,0,0-5.35-1.88,9.4,9.4,0,0,0-4.3,3A10.39,10.39,0,0,0,245.79,312c1.12,3.5,4.17,4.56,7.24,5.6" transform="translate(-150.02 -243.93)"/><path class="cls-1" d="M217.11,327.11c-.06,1.77.4,2.25,2.16,2,8.45-1.26,17-.86,25.49-1.76,7.51-.78,15.07.43,22.61-.39,4.19-.46,8.38.37,12.58.51.78,0,1.5.25,1.44-1.08-.39-9.41-.23-18.84-.52-28.26-.36-11.42-.82-22.86-.46-34.29h-.6c.05-4.32.18-8.65.12-13,0-2.89-.33-3.1-3.16-2.88-5.08.39-10.15,1.18-15.23,1.22a53,53,0,0,0-21.05,4.64,16.36,16.36,0,0,0-3.2,1.33A104.69,104.69,0,0,0,226.22,264c-5,4.67-8.33,9.94-9.07,17-1,9.47-.19,18.92-.16,28.37,0,5.91.32,11.84.12,17.77m25.06-23.88c1.94-4.46,6.72-8.8,11.68-8.88a7.21,7.21,0,0,1,4.38,1.28,13.35,13.35,0,0,0,2.84,1.62,2.16,2.16,0,0,1,1.16,1c1.73,3.2,4.09,6.18,3.51,10a10.79,10.79,0,0,1-6.39,10.84,12.58,12.58,0,0,1-10.34.53c-7.55-2.71-9.35-10.66-6.84-16.41" transform="translate(-150.02 -243.93)"/><path class="cls-1" d="M282.57,292.86c.47,10,.87,20,.54,30,0,.71,0,1.42,0,2.13,0,2.62,0,2.71,2.63,2.84,7,.36,13.91.66,20.87.95,8.58.37,17.15.77,25.73,1,5.55.16,11.11.11,16.6,1,1.15.19,1.32-.21,1.52-1.24.69-3.49-.12-6.93-.14-10.4a159,159,0,0,0-1.77-23.65c-.84-5.41-1.38-10.82-3.52-15.91-1.41-3.35-2.57-6.86-4.43-10a38.46,38.46,0,0,0-6-7.89c-3.55-3.48-7-6.78-12-8.2-2.63-.76-5.13-2.08-7.72-2.9A35,35,0,0,0,304,249.29c-7,.08-13.95-1-20.95-1.15-.85,0-1.09.1-1.07,1,.08,4.06,0,8.12.07,12.19.08,10.5.07,21,.57,31.5m24.12,13.07c.2-2.83,2.25-4.71,3.45-6.95,1.1-2.05,3.9-2.64,6.2-3.24,5.68-1.47,8.5.43,12,4.46a8.51,8.51,0,0,1,1.69,6.15c.29,7.36-6.33,13.81-13.14,13.47a10.83,10.83,0,0,1-9.12-5.23c-1.54-2.55-1.26-5.67-1.05-8.66" transform="translate(-150.02 -243.93)"/><path class="cls-1" d="M169.27,400.73c-1,6.82-1.47,13.71-2,20.58a137.17,137.17,0,0,0,1.41,31.22,18.35,18.35,0,0,0,2.5,6.29c.76,1.42,2,1.71,3.45.94a4.43,4.43,0,0,0,2.26-3.2,8.38,8.38,0,0,1,.52-2A78.71,78.71,0,0,0,182,441.84c1.62-5.68,3.35-11.34,4.93-17a184.69,184.69,0,0,0,4.39-18.6c1.17-7,2.14-14,3-21.07a36.43,36.43,0,0,1,.1-4.44c.16-1.19-.26-1.48-1.29-1.58a12.56,12.56,0,0,1-5.71-1.68c-3.41-2.21-6.49-4.8-8.13-8.7a1.18,1.18,0,0,0-.66-.62c-.36-.09-.53.31-.64.6a26.42,26.42,0,0,0-1.69,4.67c-.69,3.91-2.15,7.61-3.27,11.37a111.3,111.3,0,0,0-3.77,16" transform="translate(-150.02 -243.93)"/><path class="cls-1" d="M331.41,461.49c.39,5.64-.36,11.29,1,16.86.68-1.5,2.29-2.45,2.07-4.36-.25-2.24-.82-4.58-.41-6.71.53-2.81-1.55-4-2.68-5.79" transform="translate(-150.02 -243.93)"/><path class="cls-1" d="M320.13,315.82c3.41-1.68,5-4.51,4.68-8.5.6-3.57-1.07-6-4.39-7.53a4,4,0,0,0-3.73-.08c-2.78,1.77-5.65,3.55-6,7.39-.26,2.9-.28,5.85,2.05,7.84a6.59,6.59,0,0,0,7.39.88" transform="translate(-150.02 -243.93)"/><path class="cls-1" d="M182.41,370.31a13.85,13.85,0,0,0,7.69,6.13c4.45,1.27,9-.16,13.45-.05,3.09.07,6.28-.5,9.25.1,2.07.41,1.79-.18,2-1.58.48-2.86-.18-5.67,0-8.49a204.56,204.56,0,0,0-.15-20.72c0-.9,0-1.8,0-2.7.1-3.68.11-3.67-3.6-3.6-6.82.12-13.61,1-20.41,1.28a11.49,11.49,0,0,0-7.54,3.49c-4,3.79-5.16,8.76-4.74,14.15a25.26,25.26,0,0,0,4,12m5.52-15.25c1.39,0,3.72,2.61,3.73,4.14a2.83,2.83,0,0,1-3.1,3.11,3.78,3.78,0,0,1-3.65-3.75c0-1.57,1.69-3.53,3-3.5" transform="translate(-150.02 -243.93)"/><path class="cls-1" d="M343.36,553.56c-5.42-3.19-7.31-8.39-8-14.23-.12-1.1-.44-1.22-1.43-1.09a50.66,50.66,0,0,1-8.88-.07c-5.14-.24-10.28-.54-15.42-.77-1.29-.06-2.68-.21-2.51,1.92.12,1.43-1.64,1.21-2.28,2a14.67,14.67,0,0,0-3.34,8.82c-.15,6.19.14,12.4-.67,18.57-.15,1.13.21,1.46,1.33,1.46,4.26,0,8.53.08,12.79.13v-.05c1.16,0,2.33,0,3.49.05,5.21.41,10.4-.46,15.61-.34a1.77,1.77,0,0,0,1.62-.84c.67-1,1.27-2.09,1.94-3.11,2.34-3.61,3.65-7.77,6.07-11.33.44-.66.13-.88-.36-1.17" transform="translate(-150.02 -243.93)"/><path class="cls-1" d="M337.78,470.39c-.2-.61-.52-1.43-1.5-1.48a4,4,0,0,0,.33,2.67c.21-.64,1.45-.32,1.17-1.19" transform="translate(-150.02 -243.93)"/><path class="cls-1" d="M350.24,333.64c.22-.92-.27-1.14-1.06-1.12a67.39,67.39,0,0,1-6.95-.46c-5-.36-10.06-.5-15.08-.93-6.63-.57-13.27-.87-19.92-1-4.83-.12-9.67-.35-14.5-.45s-9.64-.51-14.45-1c-7.46-.76-14.93.8-22.38-.25-1.3-.18-1.31.63-1.34,1.53-.22,7.11-.51,14.22-.08,21.32.53,8.76,0,17.53.33,26.29.15,4.5-1,9-.7,13.51.16,2.38.21,4.78.16,7.17-.12,5.48-.69,10.95-.25,16.44.06.7,0,1.41,0,2.12,0,4.06-.33,8.14.08,12.16a66.18,66.18,0,0,1,.28,14.68c-.2,1.72.11,1.95,1.6,1.91,7.75-.19,15.51-.58,23.25-.43,14,.26,28,.86,42,1.31a1.71,1.71,0,0,1,1.37.58c3,3.54,6.28,6.87,8.87,10.67,2.49,3.65,5,7.25,7.59,10.86.93,1.32,2,2.44,3.69,1.66.59,0,1,0,1.5,0,1.72.08,2.64-.36,2.63-2.46,0-4.32.42-8.64.47-13,.1-8.65.67-17.28.42-25.94-.13-4.38.61-8.75.73-13.12.46-15.8.52-31.61,1.08-47.42.32-8.84.38-17.68,1.22-26.49a6.3,6.3,0,0,0-.12-2.88,8.24,8.24,0,0,1-.42-5.29M317.61,444.79c-.12.6-.48,1.12-1.2,1s-.61-.73-.61-1.24l.15-13c-1.35-8.71-.8-17.43-.69-26.13.12-9.3-.62-18.59-.33-27.87.37-11.75.18-23.48-.3-35.22-.13-3.16,0-6.33.05-9.49,0-.68-.15-1.72.74-1.74s1,.94,1,1.77c-.51,8.14.2,16.25.38,24.38.15,6.38-.24,12.77-.36,19.15-.09,5.49.57,11,.64,16.44.12,8.83.39,17.67-.37,26.5a43.16,43.16,0,0,0,.26,5.78c.24,4.56.23,9.14.31,13.71a13.37,13.37,0,0,0,.4,4.22,3.56,3.56,0,0,1-.06,1.71" transform="translate(-150.02 -243.93)"/><path class="cls-1" d="M350.69,376.49c0,1.15.31,1.42,1.4,1.39,7.59-.23,15.14-.94,22.71-1.46a2.76,2.76,0,0,0,1.77-.65c2.76-2.62,5.64-5.17,5.86-9.38a2.33,2.33,0,0,1,.15-.56c2.05-6.05,2.69-12.08-.8-17.84-1.3-2.13-3.07-4.3-5.4-5a64.17,64.17,0,0,0-22.92-2.27c-.5,0-1.08-.07-1.15.69-.45,4.8-1.12,9.6-1.27,14.41-.11,3.65-.25,7.34-.21,11,0,3.23,0,6.46-.14,9.68M372.91,356c1.94-.12,3.15,1.43,3.26,4.17.08,1.83-.63,2.59-2.44,2.64-2.39.06-4.06-1.31-4.14-3.38a3.71,3.71,0,0,1,3.32-3.43" transform="translate(-150.02 -243.93)"/><path class="cls-1" d="M373.13,360.73c.56-.07,1.48.27,1.29-1-.13-.8-.14-1.88-1.24-1.79a1.78,1.78,0,0,0-1.63,1.59c-.13,1.18.74,1.12,1.58,1.15" transform="translate(-150.02 -243.93)"/><path class="cls-1" d="M383.38,369.56c-2.42,5.06-5.23,9.59-12,8.58a1.41,1.41,0,0,0-.2,0c-3.84.16-3.87.16-3.26,3.83.41,2.43.13,4.9.43,7.31.89,7.43,2.86,14.66,4,22,.82,5.13,2.81,10,4.07,15.07,1.2,4.79,3.23,9.35,4.59,14.13,2.06,7.24,6.35,13.55,9.23,20.46a2.22,2.22,0,0,0,3.66.49c3-3.1,4.05-6.91,4.09-11.12.06-6.06.14-12.13.22-19.59.37-2.69-.17-6.75-.8-10.74q-2-12.78-5.08-25.36c-2-8.13-4.83-16-6.87-24.08a3.41,3.41,0,0,0-.61-1.2c-.25-.33-.39-.91-1-.79s-.4.61-.56.95" transform="translate(-150.02 -243.93)"/><path class="cls-2" d="M174.49,365.4c-1.23,1.08-1.58,3.78-2.16,5.81-1.42,5-2.83,9.9-4.31,14.83a87.33,87.33,0,0,0-3.64,16.79c-.41,4.37-1,8.71-1.49,13.07a118,118,0,0,0-.66,14.31c.1,5.41.78,10.8,1.21,16.2s.89,10.59,4.65,15c3.19,3.74,6.31,3.41,9.74,1,2.42-1.69,3.4-4.27,4.24-7.09,1.24-4.17,3.15-8.09,4.11-12.43,1.3-5.95,3.57-11.66,5-17.61s3.19-11.8,4.29-17.84a196.68,196.68,0,0,0,3.09-25.35c.06-1.32.46-1.68,1.67-1.65,3.62.09,7.24.12,10.86.16,1.49,0,2.15.55,2.13,2.21-.09,6.33-.28,12.68.07,19,.56,10.35,1.31,20.7,1.3,31.07,0,8.2-.6,16.39-.32,24.6.19,5.66.11,11.36.47,17,.47,7.23.28,14.43.31,21.64,0,4.75-1.14,9.46-.42,14.22a1,1,0,0,1-.55,1,19.29,19.29,0,0,0-7.55,10.41,48.55,48.55,0,0,0-2.19,10.74c-.28,3.78.84,7.46,1.65,11.16a21,21,0,0,0,9.09,13.1,14.27,14.27,0,0,1,4.92,5.52,113.25,113.25,0,0,0,6.57,12,3.73,3.73,0,0,0,3.28,2c4.55-.5,9.1,0,13.66-.21,8.6-.39,17.23.21,25.79-1.22,2.37-.39,2.93-.62,2.81-3s-.41-4.88-.46-7.32c-.12-6.26-.23-12.53-.18-18.79a6.51,6.51,0,0,0-1.29-3.92,34.2,34.2,0,0,0-4.48-5.39.82.82,0,0,1,1-.34c2.7.84,3.75-1.69,5.53-2.72.35-.2.3-.68.24-1.08a42.14,42.14,0,0,1,.1-8.1c.45-9.6.2-19.21,1-28.82.57-6.53,1-13.1,1.52-19.66.1-1.38.6-1.77,1.86-1.74,6.13.14,12.27.28,18.41.34,1.18,0,1.42.45,1.38,1.47-.07,1.62.07,3.24-.07,4.84a244,244,0,0,0-.55,29.25c.29,8.77,1,17.54.31,26.33-.19,2.36,1.16,3.81,3.32,3.85.42,0,.86-.35,1.35.2-1,1.36-2,2.74-3.08,4.09a2.27,2.27,0,0,0-.72,1.72,52.84,52.84,0,0,1-.12,9.66c-.31,5.2.41,10.46-.92,15.62-.33,1.3,2.09,3.62,3.46,3.63,3.48,0,7,.07,10.45,0,5.66,0,11.31,1,17,.21a13.29,13.29,0,0,1,5,.24c1.67.43,3-.48,4.53-.52,2.28-.05,2.18-1.85,2.65-3.39a10.71,10.71,0,0,1,1.84-3.38,22.17,22.17,0,0,0,3.15-5.74,7.27,7.27,0,0,1,2.72-3.89,1.11,1.11,0,0,0,.56-1.33c-.37-1,.29-1.36,1-1.52,2.62-.64,4.19-2.45,5.51-4.64a21.46,21.46,0,0,0,3.28-8.57c.37-3.26.72-6.53.93-9.82a35.08,35.08,0,0,0-3-17.16c-.93-2-1.9-4.26-4.1-5.46-.58-.32-.53-1-.5-1.58.09-2.38.53-4.79.26-7.12-.51-4.4-.22-8.78-.28-13.17-.12-8.65-.07-17.3.28-25.94.28-6.9.69-13.81.88-20.7.23-8.51.11-17,.63-25.53.49-7.92.53-15.87.59-23.82,0-3.09.62-6.18.21-9.28-.16-1.14.69-.72,1.12-.7a40.79,40.79,0,0,0,7.73-.42c1.23-.2,1.44.29,1.35,1.35a14.15,14.15,0,0,0,0,2.91,251.89,251.89,0,0,0,5.15,28.31c2,8.86,5.05,17.43,7.69,26.11a70,70,0,0,0,6.4,14.83c.68,1.16,1.68,2.33,1.83,3.58.28,2.45,1.74,3.72,3.58,4.92,4.31,2.8,7.25,2.31,10.31-1.75,3.22-4.26,4.27-9.29,4.41-14.38.17-5.65-.88-11.3-.68-17a46.8,46.8,0,0,0,.14-5,123.51,123.51,0,0,0-1.62-12.28,152.23,152.23,0,0,0-4-18.9c-.8-2.66-1.64-5.31-2.21-8-1.24-6-3.86-11.59-5.4-17.5-.52-2-2.6-3.48-1.79-5.91a23,23,0,0,0-7.26-22.76,6.19,6.19,0,0,0-2.68-1.48c-5.44-1-10.87-2.14-16.44-2.19-1.67,0-3.35.05-5,.19-1.2.1-1.5-.42-1.69-1.51a18.35,18.35,0,0,1,.17-4.63c.64-7.87.1-15.73-.15-23.59a88.34,88.34,0,0,0-3.23-21.93c-1.68-5.74-3.33-11.62-6.43-16.85-2.18-3.71-4.36-7.45-7.89-10.13-1-.73-1.79-1.66-2.73-2.45-3.25-2.71-6.43-5.54-10.87-6.17a3.82,3.82,0,0,1-2-.68,7.9,7.9,0,0,0-4.59-1.86c-3.78-.48-7.43-1.64-11.28-1.73-6.25-.14-12.49-.53-18.73-.8-2.65-.12-5.29-.13-7.93-.35a25.73,25.73,0,0,0-5.19.06c-5.88.68-11.77,1.56-17.67,1.7a41.5,41.5,0,0,0-19.8,5.67c-4.92,2.78-9.06,6.48-13.2,10.2a28.07,28.07,0,0,0-9.58,17.49c-1.37,10.73-.91,21.54-.24,32.3.47,7.62.12,15.21-.07,22.8,0,1-.51,1.22-1.32,1.23q-10.15.18-20.29,1c-6.17.5-11,3.21-13.65,8.95a25.52,25.52,0,0,0-2.45,13.91c.24,2,1.8,3.9-.69,6.07m41.9,12.32c-.6-1.77.17-4,0-6-.47-6.95.57-13.92-.25-20.86-.25-2,.23-4,.17-6a87.82,87.82,0,0,1,.46-12.13c.13-1.09.53-1.67,1.58-1.82,1.85-.26,3.7-.58,5.56-.73,6-.45,12-.81,18-1.25,3-.22,5.92-.24,8.88-.39,1.88-.1,2.17.57,2.12,2.15-.11,3.81-.1,7.63-.14,11,.71,14.31.44,28.21.13,42.1-.35,15.89-.42,31.78-.36,47.68,0,3.87.31,7.74.15,11.62-.07,1.75-.59,2.81-2.6,2.6a12.86,12.86,0,0,0-2.7.11c-1.09.11-2.34-.37-2.36,1.76,0,1.24-1.45,2.49-2.31,3.68-3.67,5-8.09,9.51-11.64,14.57-2.26,3.21-4.64,3.71-7.86,3.3-1.45-.18-3.34.87-4.2-.22-.7-.89-.19-2.72-.28-4.12-.67-9.75-.28-19.49-.14-29.24s-.23-19.34-1-29c-.56-7.21-.56-14.45-.57-21.68,0-2.38.17-4.77-.65-7.21m40.09,101.42c-.35-7.29-.72-14.57-1-21.86-.13-2.77-.15-5.55-.27-8.32,0-.58.65-1.56-.62-1.65s-1.13,1-1.12,1.77c.08,3.48.14,7,.31,10.44.33,7.29.73,14.58,1.11,21.86.12,2.19.19,4.39.46,6.56.16,1.33-.4,1.66-1.5,1.5-.83-.12-2.07.65-2.06-1.28,0-12.34-1.23-24.62-1.83-36.93,0-.19,0-.38,0-.58-.19-3.59.38-4.12,4.05-3.76.32,0,.63.13.95.17,3.21.38,3.06.39,3.37,3.55.95,10,1.1,20.06,1.08,30.11,0,2.38.37,4.76.26,7.16,0,1.2-.57,1.47-1.68,1.52s-1.39-.6-1.38-1.54c0-2.9.06-5.81.1-8.71h-.15M234.76,465.3a5.44,5.44,0,0,1,3-4.4,142.25,142.25,0,0,0,.66,14.6,35.35,35.35,0,0,1,.23,4.64c-3.93-1.85-4.58-2.94-4-8.09.24-2.26-.14-4.49.14-6.75m3.1-4.48c.84-1.31,1.68-2.63,2.54-3.94.33-.5.82-1,1.43-.81s.63.89.68,1.46c.55,5.9,1,11.81,1.65,17.7.42,4,1,7.92,1.5,11.88a1.62,1.62,0,0,1-.2,1c-2.34-2.64-5.14-4.77-5.41-8.9-.37-5.53-.6-11.07-.8-16.61,0-1,.06-2-1.39-1.78m6.8,3.49c-.44-3.18.06-6.54-1.6-9.58-.49-.89.46-1.91,1.08-2.73,1.1-1.43,2.6-2.51,3.7-4.49.57,5.73.82,11.06,1.09,16.39.4,8,1.28,16,1.38,24,0,1,.09,1.71-1.3,1.72-1.14,0-1.56-.3-1.68-1.46-.83-7.94-1.58-15.9-2.67-23.81m-11.57,10a17.18,17.18,0,0,1-1.42-1.09c-2.15-2.1-1.79-4.86.82-6.4.44-.26.81-.23.83.28a35.94,35.94,0,0,1-.23,7.21m-17.58,76.85c-2.89-2.63-4-6-5.2-9.47a25.65,25.65,0,0,1-1.2-11.23c-.27-4.09,1.16-8.14,3.09-12a12.06,12.06,0,0,1,4.72-5c2.33-1.37,5.41-1.41,7.61,3.12,1.31,2.71,2.36,5.56,3.59,8.32a13.47,13.47,0,0,1,.67,8.18,58.8,58.8,0,0,1-3.43,11.6c-1.16,2.77-2.34,5.19-4.65,7-2.13,1.71-3.18,1.28-5.2-.55m51.64-4.73c.13,3.67.46,7.35.37,12.73.1,2.31.22,6.31.47,10.3.09,1.5-.38,1.79-1.86,1.72a97.29,97.29,0,0,0-13.65.57c-2.19.21-4.37-.1-6.57,0-4.58.2-9.17.09-13.76.21a2.58,2.58,0,0,1-2.77-1.62c-.85-2.26-2.39-4.11-3.47-6.21-1.62-3.14-2.84-6.48-5.53-9a1,1,0,0,1,.43-1.79c3.09-.89,3.94-3.63,5.2-6.06a30.53,30.53,0,0,0,3.69-10.51c.11-.94.61-1.16,1.54-1.26,5.74-.64,11.47-.2,17.19.11,3.2.17,6.41-.33,9.6.24,1,.18,1.93.17,2.71,1.1,1,1.17,2.33,2,3.35,3.19,1.58,1.77,3,3.59,3.06,6.25m2.43-54c-.2,3.94-.47,7.87-.56,11.8-.18,7.42-.25,14.83-.37,22.24,0,1.61-.12,3.23-.13,4.84,0,1-.46,1.37-1.43,1.34-1.48,0-3.14-.43-4.42.08-4,1.63-8.18,1-12.26,1.1-6.32.13-12.65-.5-19,.15-1,.1-1.1-.33-1-1.11.73-6.48-1.42-12.13-4.71-17.59-1.45-2.4-3-4.09-5.91-4.14-1,0-.9-.65-.88-1.31.12-6.78.3-13.57.35-20.35,0-5.49,0-11-.22-16.47-.06-1.64.4-2.28,2-2.24,1,0,1.94,0,3.42.05,2.61-.93,4,1.07,5.54,3.28a45.27,45.27,0,0,0,7.2,7.77,81.81,81.81,0,0,1,7.62,8.38,3.11,3.11,0,0,0,2.83,1.1c5.08-.06,10.15-.69,15.25-.19,1.8.18,3.64-.14,5.5,0,1.22.1,1.23.42,1.19,1.27m-5-30.08c.87,6.87.82,13.78,1,20.67,0,1.61-.09,3.21,0,4.81,0,.89-.1,1.25-1.1,1.32-3.35.23-3.47.28-3.58-3s0-6.85.08-10.27c-.11-9.17-.36-18.33-.92-27.48-.12-2,1.21-1.37,2.18-1.48s1.7-.16,1.56,1.2c-.5,4.79.2,9.51.8,14.24m5.49,12c-.42,4.37-.16,8.77-.44,13.14,0,.77.12,1.57-1.09,1.61s-1.27-.85-1.27-1.69c0-2,0-4,.06-6-.39-7.86-1.08-15.68-1.9-23.5a88.86,88.86,0,0,1,0-10.06c0-1.81,1.48-.74,2.2-.91,1.16-.29,1.32.8,1.26,1.65-.53,7.31-.39,14.63-.29,21.95,0,.72-.12,1.55.89,1.93s.63,1.25.57,1.87m3.33-5.75c-.08,2.08-1.83,1.25-2.77,1.47s-.68-.95-.68-1.54c0-2.65,0-5.29.07-7.94h.07c.05-4.32.14-8.63.12-12.95,0-.93.48-.91,1.07-.91s1.54-.12,1.51,1c-.15,7,.86,13.91.61,20.89m4.52,1.17a2.28,2.28,0,0,1-3.38-2.18q0-4.74.11-9.49h-.42l.12-9.87c0-.72-.11-1.48,1-1.4.87.07,1.5.26,1.54,1.31.27,7,.69,13.92,1.31,20.86,0,.32.09.58-.31.77m4,.09c-1.08-.11-2.54.7-2.58-1.58-.07-4.57-.72-9.12-.59-13.71,0-2.19.14-4.38,0-6.56,0-1.1.56-1.23,1.27-1.21s1.83-.68,2.16.8a21.27,21.27,0,0,1,0,5.58c-.2,5,.7,9.88.71,14.84,0,.75.64,2-1,1.84m4.16,0c-.59,0-1.14,0-1.22-.84-.32-3.31-1.24-6.55-1.22-10.94a48.3,48.3,0,0,1,.27-8.6,2.15,2.15,0,0,0,0-1.15c-.92-2,.32-1.84,1.65-1.82s1.47.26,1.3,1.79a48.25,48.25,0,0,0,.13,12.36c.4,2.78,0,5.55.19,8.33.05.87-.51.89-1.13.87m4,.05c-1.35.08-1.63-.39-1.59-1.63.24-5.92-.78-11.83-.31-17.76.05-.64,0-1.29.09-1.93a2.21,2.21,0,0,1,3.43-1.76c.6.33.45.89.4,1.37a71.59,71.59,0,0,0,.11,10.25c0,3.22-.2,6.45-.06,9.66.08,1.78-.8,1.73-2.07,1.8m6.55-1.29c0,.7.35,1.51-.88,1.34-.85-.12-2.11.44-2.12-1.18,0-.32.06-.64.13-1.41-.49-4.49-.57-9.44-.61-14.4,0-1.81,1.12-3.34.73-5.23-.19-1,1-.72,1.65-.57s1.62-.21,1.31.86c-.52,1.81-.09,3.6,0,5.37.13,5.08-.18,10.15-.16,15.22m3.13.68c-1.7,0-1.7-1.2-1.63-2.27.19-3.2.88-6.42.35-9.62s.76-6,.47-9c-.12-1.21.95-.93,1.68-1s1.33.26,1.18,1.1c-.9,5.11.27,10.13.59,15.19a151.68,151.68,0,0,1,0,16.24c-.15,3.48,0,7,0,10.45,0,.69.22,1.49-.92,1.51s-.83-.92-.84-1.52c0-1.54,0-3.09,0-4.64-.07-4.94,1-9.87.23-14.82-.12-.79-.38-1.6-1.07-1.62m1,65.37.12-10.84c-.22-9.69-.57-19.37-.41-29.06,0-1.26.56-1.41,1.64-1.5a68.76,68.76,0,0,1,16,.56c1.51.22,3.11-.63,4.63.46.53.38.89-.52,1.22-1,3.06-4.33,6-8.77,9.25-12.93,1.75-2.22,3-4.74,4.79-6.94a4.51,4.51,0,0,1,3.5-1.95c1.29-.07,2.58-.14,3.86-.31s1.51.46,1.46,1.58c-.28,6-.37,12-.69,18-.3,5.6.26,11.12.13,16.67,0,.13,0,.26,0,.39,0,3.68.05,4.15-2.8,6.32-2.56,2-3.33,4.82-4.76,7.36a37.92,37.92,0,0,0-3.82,11.3,5.51,5.51,0,0,0-.15,1.34c.12,2.49.13,2.5-2.48,2.56-6.33.14-12.65-.12-19-.54a37.25,37.25,0,0,0-7.54.2c-1.51.2-2.87-.58-4.38-.45-.69.06-.58-.68-.57-1.2m22.3-78.85c.62,9.06.89,18.49,2.44,27.79.58,3.49-1.51,5.67-2.83,8.3a.49.49,0,0,1-.46.12c-.33-.11-.38-.38-.4-.75-.61-10.66-.75-21.35-1.9-32a42.57,42.57,0,0,1-.25-10.22c.13-.93.48-1.44,1.31-.93,1.1.7,2.29,1.41,2.16,3.09-.12,1.41,0,2.83-.07,4.59m5.83,4c.6,6.14,1.11,12.29,1.88,18.41a5.84,5.84,0,0,1-1.51,4.55,28.41,28.41,0,0,1-2,2.2,128,128,0,0,1-1.73-17.61c-.19-4.43-.52-8.86-.76-13.29,0-.41-.34-1,.2-1.22s.75.35,1.05.65c1.14,1.15,1.72,2.69,2.79,3.92.41.47.05,1.58.13,2.39M319.82,478c.29,4.37.05,8.77.72,13.11.1.62-.21.83-.71.91-.77.12-1.53.2-2.3.3s-1,0-1.13-1a70,70,0,0,1-.47-8.84c-.68-7.85-.23-16.89-1.47-25.85a79.21,79.21,0,0,1-.25-8.31c0-.25-.09-.44.22-.6,1.35-.72,3.79.54,3.71,2.09a79,79,0,0,0,.36,8.29c.32,6.63.9,13.24,1.32,19.87m-5.12,13.1c.12,1.07-.25,1.18-1.15,1.11-3.84-.28-3.82-.25-3.72-4.17.07-2.38.06-4.77.09-7.15.49-8.85-.62-17.64-.85-26.47-.05-1.86-.16-3.73-.25-5.59-.06-1.09.68-1.35,1.47-1.26s1.92-.7,2.06.9c.33,3.66.65,7.31,1.08,10.95,1.24,10.53.15,21.15,1.27,31.68m-5.59-13.17c.1,3.13-.51,6.17-.51,9.26a11.45,11.45,0,0,1-.12,2.12c-.16.81.74,2-.12,2.31a9.88,9.88,0,0,1-3.62.21c-.67,0-.72-.66-.72-1.18,0-1.16,0-2.32,0-3.48-.21-7.22.61-14.43.15-21.66-.28-4.43-.59-8.87-.82-13.31a30.56,30.56,0,0,1,.17-4.05c.11-1.29,1.15-.68,1.81-.74.84-.07,1.66-.07,1.69,1.22.08,2.84.25,5.67.43,8.5.44,6.94,1.39,13.84,1.63,20.8M334.5,474c.22,1.91-1.39,2.86-2.07,4.36-1.38-5.57-.63-11.22-1-16.86,1.13,1.83,3.21,3,2.67,5.79-.4,2.13.17,4.47.42,6.71m1.78-5.08c1,0,1.3.87,1.5,1.48.28.87-1,.55-1.17,1.19a4,4,0,0,1-.33-2.67m7.44,85.82c-2.42,3.56-3.73,7.72-6.07,11.33-.67,1-1.27,2.09-1.94,3.11a1.74,1.74,0,0,1-1.62.83c-5.21-.11-10.4.76-15.61.35-1.16-.09-2.33,0-3.49-.05v.05c-4.26-.05-8.53-.13-12.79-.13-1.13,0-1.48-.33-1.33-1.46.81-6.17.52-12.38.67-18.57a14.67,14.67,0,0,1,3.34-8.82c.64-.84,2.4-.62,2.28-2-.17-2.13,1.22-2,2.51-1.92,5.14.23,10.28.53,15.42.77a50.66,50.66,0,0,0,8.88.07c1-.13,1.31,0,1.43,1.09.65,5.84,2.54,11,8,14.23.49.29.8.51.36,1.17m10.41-20.23a45.25,45.25,0,0,1-2.33,12.35,15.37,15.37,0,0,1-3.82,5.21,2.15,2.15,0,0,1-2.86.21c-1.34-.87-2.69-1.75-4-2.61a3.09,3.09,0,0,1-1.25-1.69c-1.4-4.53-3.11-9-3.36-13.82-.11-2.14,1.11-3.79,1.68-5.68,1.4-4.58,3-9,6.15-12.78,1.8-2.16,3.17-1.93,5.16,0,4.06,4,4.63,11.93,4.67,18.76M384.9,369.4a3.41,3.41,0,0,1,.61,1.2c2,8.1,4.88,15.95,6.87,24.08q3.09,12.6,5.08,25.36c.63,4,1.17,8,.8,10.74-.08,7.46-.16,13.53-.22,19.59,0,4.2-1.12,8-4.09,11.12a2.22,2.22,0,0,1-3.66-.49c-2.88-6.92-7.17-13.22-9.23-20.46-1.36-4.78-3.39-9.34-4.59-14.13-1.26-5.06-3.25-9.94-4.07-15.07-1.18-7.39-3.15-14.62-4-22-.3-2.41,0-4.88-.43-7.31-.61-3.67-.58-3.67,3.26-3.83a1.34,1.34,0,0,1,.2,0c6.76,1,9.57-3.52,12-8.58.16-.34.12-.85.56-.95s.72.46,1,.79M351,355.81c.15-4.81.82-9.6,1.27-14.41.07-.76.65-.65,1.15-.69A64.17,64.17,0,0,1,376.38,343c2.33.71,4.1,2.88,5.4,5,3.49,5.76,2.85,11.79.8,17.84a2.33,2.33,0,0,0-.15.56c-.22,4.21-3.1,6.76-5.85,9.38a2.81,2.81,0,0,1-1.78.65c-7.57.53-15.12,1.23-22.71,1.46-1.09,0-1.44-.24-1.4-1.39.13-3.22.1-6.45.14-9.68,0-3.66.1-7.35.21-11m-.26-14c-.84,8.81-.9,17.65-1.22,26.49-.56,15.81-.62,31.62-1.08,47.42-.12,4.37-.86,8.74-.73,13.12.25,8.66-.32,17.3-.42,25.94-.05,4.33-.49,8.65-.47,13,0,2.1-.91,2.54-2.63,2.46-.45,0-.91,0-1.5,0-1.72.78-2.76-.34-3.69-1.66-2.55-3.61-5.1-7.21-7.59-10.86-2.6-3.8-5.89-7.13-8.87-10.68a1.74,1.74,0,0,0-1.37-.57c-14-.45-28-1.05-42-1.31-7.74-.15-15.5.24-23.25.43-1.49,0-1.8-.19-1.6-1.91a66.18,66.18,0,0,0-.28-14.68c-.41-4-.09-8.1-.08-12.16,0-.71.1-1.42,0-2.12-.44-5.49.13-11,.25-16.44,0-2.39,0-4.79-.16-7.17-.32-4.54.85-9,.7-13.51-.29-8.76.2-17.53-.33-26.29-.43-7.1-.14-14.21.08-21.32,0-.9,0-1.71,1.34-1.53,7.45,1.06,14.92-.51,22.38.25,4.81.48,9.65.88,14.45,1s9.67.33,14.5.45c6.65.16,13.29.46,19.92,1,5,.43,10.06.57,15.08.93a67.39,67.39,0,0,0,6.95.46c.79,0,1.28.2,1.06,1.12a8.24,8.24,0,0,0,.42,5.29,6.3,6.3,0,0,1,.12,2.88M283,248.14c7,.11,13.94,1.23,20.95,1.15a35,35,0,0,1,10.91,1.37c2.59.82,5.09,2.14,7.73,2.9,4.94,1.42,8.42,4.72,12,8.2a39,39,0,0,1,6,7.88c1.86,3.1,3,6.61,4.43,10,2.14,5.09,2.68,10.5,3.52,15.91a159.08,159.08,0,0,1,1.77,23.66c0,3.46.83,6.9.14,10.39-.2,1-.37,1.43-1.52,1.24-5.49-.92-11.05-.87-16.6-1-8.58-.26-17.15-.66-25.73-1q-10.44-.44-20.87-.95c-2.64-.13-2.66-.22-2.63-2.84,0-.71,0-1.42,0-2.13.33-10-.07-20-.54-30-.5-10.49-.49-21-.57-31.5,0-4.07,0-8.13-.07-12.19,0-.93.22-1,1.07-1M217.15,281c.74-7,4.11-12.3,9.07-17a105.6,105.6,0,0,1,11.06-8.85,16.71,16.71,0,0,1,3.21-1.33,53,53,0,0,1,21.05-4.64c5.08,0,10.15-.83,15.23-1.22,2.83-.22,3.13,0,3.16,2.88.06,4.32-.07,8.65-.11,13h.59c-.36,11.43.1,22.87.46,34.29.29,9.42.13,18.85.52,28.26.06,1.33-.66,1.1-1.44,1.08-4.2-.14-8.39-1-12.58-.51-7.54.82-15.1-.39-22.61.39-8.48.9-17,.5-25.49,1.76-1.76.27-2.22-.21-2.16-2,.2-5.93-.09-11.86-.12-17.77,0-9.45-.83-18.9.16-28.37m-34.05,63.2a11.49,11.49,0,0,1,7.54-3.49c6.8-.33,13.58-1.16,20.41-1.28,3.71-.07,3.7-.08,3.6,3.6,0,.9,0,1.8,0,2.7a204.56,204.56,0,0,1,.15,20.72c-.13,2.82.53,5.63,0,8.49-.23,1.4.05,2-2,1.58-3-.6-6.16,0-9.25-.1-4.49-.11-9,1.32-13.45.05a13.85,13.85,0,0,1-7.69-6.13,25.26,25.26,0,0,1-4-12c-.42-5.39.78-10.36,4.74-14.15m-6.79,29.21a26.42,26.42,0,0,1,1.69-4.67c.11-.29.28-.69.64-.6a1.18,1.18,0,0,1,.66.62c1.64,3.9,4.72,6.49,8.13,8.7a12.56,12.56,0,0,0,5.71,1.68c1,.1,1.45.39,1.29,1.58a36.43,36.43,0,0,0-.1,4.44c-.89,7.06-1.86,14.08-3,21.07a184.69,184.69,0,0,1-4.39,18.6c-1.58,5.7-3.31,11.36-4.93,17a78.71,78.71,0,0,1-4.61,12.68,8.38,8.38,0,0,0-.52,2,4.43,4.43,0,0,1-2.26,3.2c-1.48.77-2.69.48-3.45-.94a18.35,18.35,0,0,1-2.5-6.29,137.17,137.17,0,0,1-1.41-31.22c.57-6.87,1.07-13.76,2-20.58a111.3,111.3,0,0,1,3.77-16c1.12-3.76,2.58-7.45,3.27-11.37" transform="translate(-150.02 -243.93)"/><path class="cls-2" d="M407.49,515.62c0,.56.19,1,.82,1.14a1.21,1.21,0,0,0,1.35-.54,5.2,5.2,0,0,0,.71-1.58c.8-4.45,4.08-7.77,5.46-12a13.68,13.68,0,0,1,2.5-5.13.88.88,0,0,0,.06-1.1c-1.75-2.27-2.41-5.12-3.88-7.48-2-3.28-3.81-6.68-5.75-10-1.81-3.09-2.77-6.62-4.67-9.7-1.24-2-1.91-2.3-4-1.41-2.31,1-3.64,3.19-5.77,4.39a1.72,1.72,0,0,0-.56,1.19c-.73,5.33-3.59,9.89-5.37,14.84-1.3,3.61-3.29,7-4.21,10.77-.34,1.41-1.46,2.58-1.33,4.17.25,3.25,2.57,5,4.78,6.9a2.74,2.74,0,0,0,3.21.33,36.25,36.25,0,0,0,5.33-3.45c1.77-1.19,1.75-1.27.19-2.84s-3.88-2.87-3.11-5.39a9.62,9.62,0,0,1,.64-3.77c1.69-3.24,3.33-6.5,5-9.73.54-1,1.13-1.42,1.86-.07,1.69,3.17,3.59,6.25,5.11,9.5.71,1.51,1.91,2.94,1.82,4.74-.21,4.32.71,8.64-.18,13a15.1,15.1,0,0,0,0,3.29m-10.37-30.77c-1.95,4-4.36,7.67-5.54,12-.88,3.3.65,5.39,2.58,7.49.85.93,1.43,1.63-.33,2.11-.39.11-.67.6-1.05.82-1.25.7-2.76,2.09-3.95,1.29-2-1.34-4.31-2.8-4.38-6a28.52,28.52,0,0,1,.85-2.91c2.46-6.21,4.88-12.44,7.67-18.52a39,39,0,0,0,1.51-5c.13-.42.32-.95.82-1s.7.48.88.91a36.49,36.49,0,0,1,2.16,5.15c.32,1.24-.65,2.45-1.22,3.6m3.37-3.3a64.8,64.8,0,0,1-3.14-6.57,3.57,3.57,0,0,1,1.92-5c.06,0,.13,0,.19-.06,2.37-1.07,2.23-1,3.6,1.17,2.47,3.85,3.67,8.33,6.18,12.16a104.69,104.69,0,0,1,5.84,10.52c1.37,2.73,1,5.35-.28,8-.39.81-.72,1.66-1.18,2.43a29.36,29.36,0,0,0-3.41,6.87c-.09.34-.23.75-1.17.88.85-3.8,0-7.52.55-11.09.33-2.21-.54-3.41-1.37-5.09-2.37-4.84-5.2-9.42-7.73-14.17" transform="translate(-150.02 -243.93)"/><path class="cls-2" d="M150.73,490.13c-1.15,2.12-.93,3.12.88,4.63,2.56,2.13,4.78,4.63,7.21,6.91a101.77,101.77,0,0,0,7.77,7.06c.31.24.65.52,1,.2a1,1,0,0,0,.32-1.05,6.15,6.15,0,0,0-1.13-2.43,29.73,29.73,0,0,1-2.59-4.3c-1.05-2-1.21-4.36-2.74-6.11a2.74,2.74,0,0,1-.24-3.4c2.06-3.84,3.57-8,5.74-11.74.64-1.11,1-1.17,1.87-.2a62,62,0,0,1,5.24,7.06c1.93,2.89,3.91,5.75,4.73,9.23.38,1.59.52,3-1.07,4.14-.76.52-.55,1.32.25,1.4,2.28.22,4.3,1.3,6.49,1.8a1,1,0,0,0,1.4-.68c.72-2.24,2.14-4.31,1.75-6.61a20.81,20.81,0,0,0-4.15-11.61,30.73,30.73,0,0,1-2.34-3.27c-1.63-2.67-3.38-5.28-5.1-7.91-2.13-3.27-5.09-5.9-7.86-8.65-2.3-2.28-3.93-2.21-5.24.4-2.51,5-5.09,10-7.36,15.08-1.52,3.41-3.09,6.78-4.86,10.05m26.6-11.45c2.36,3.67,4.94,7.19,7.09,11,2,3.55,1.61,7.27.64,11-.17.64-.63.74-1.21.54-.85-.3-1.71-.58-2.56-.87-.64-.22-.79-.57-.67-1.31a10.9,10.9,0,0,0-2.51-9c-1.22-1.5-1.81-3.33-3-4.9-1.88-2.52-3.73-5.06-5.77-7.45a1.28,1.28,0,0,1-.13-1.84c.94-1.38,1.84-2.79,2.86-4.34a48.23,48.23,0,0,1,5.23,7.16M164.28,466c.52-2,.92-1.94,2.55-.44,1.12,1,1.94,2.38,3.29,3.22.76.46.57,1.17.17,1.87-2.16,3.72-4.14,7.55-6.19,11.33-1.11,2-2,4.26-3,6.38a19.31,19.31,0,0,1-1.2,2.19,4.16,4.16,0,0,0-.1,5,30.31,30.31,0,0,1,3,5.82,2.48,2.48,0,0,1,.23,2.06c-2.82-2.73-5.63-5.34-8.3-8.09-3.25-3.34-3.11-3.35-1.09-7.67,1.68-3.61,3.9-7.05,5.15-10.75,1.35-4,4.44-6.89,5.49-10.95" transform="translate(-150.02 -243.93)"/><path class="cls-2" d="M317.27,438.86c-.08-4.57-.07-9.15-.31-13.71a43.16,43.16,0,0,1-.26-5.78c.76-8.83.49-17.67.37-26.5-.07-5.48-.73-10.95-.64-16.44.12-6.38.51-12.77.36-19.15-.18-8.13-.89-16.24-.38-24.38,0-.83-.06-1.8-1-1.77s-.73,1.06-.74,1.74c0,3.16-.18,6.33-.05,9.49.48,11.74.67,23.46.3,35.22-.29,9.28.45,18.57.33,27.87-.11,8.7-.66,17.42.69,26.13l-.15,13c0,.51-.08,1.12.61,1.24s1.08-.39,1.2-1a3.56,3.56,0,0,0,.06-1.71,13.37,13.37,0,0,1-.4-4.22" transform="translate(-150.02 -243.93)"/><path class="cls-2" d="M316.86,319.81c6.81.35,13.43-6.1,13.14-13.46a8.51,8.51,0,0,0-1.69-6.15c-3.47-4-6.28-5.93-12-4.46-2.3.6-5.1,1.19-6.2,3.24-1.2,2.24-3.25,4.12-3.45,6.95-.21,3-.49,6.11,1.05,8.66a10.8,10.8,0,0,0,9.12,5.22m-6.17-12.71c.35-3.84,3.22-5.62,6-7.39a4,4,0,0,1,3.73.08c3.32,1.5,5,4,4.39,7.53.32,4-1.27,6.82-4.68,8.5a6.59,6.59,0,0,1-7.39-.88c-2.33-2-2.31-4.94-2.05-7.84" transform="translate(-150.02 -243.93)"/><path class="cls-2" d="M249,319.64a12.58,12.58,0,0,0,10.34-.53,10.79,10.79,0,0,0,6.39-10.84c.58-3.87-1.78-6.85-3.51-10a2.16,2.16,0,0,0-1.16-1,13.35,13.35,0,0,1-2.84-1.62,7.21,7.21,0,0,0-4.38-1.28c-5,.08-9.74,4.42-11.68,8.88-2.51,5.75-.71,13.7,6.84,16.41m-.95-18.36a9.4,9.4,0,0,1,4.3-3,5.43,5.43,0,0,1,5.35,1.88c2.21,2.42,3.57,5.3,3.58,7.53-.15,5.15-2.06,8-5.63,9.67a3.41,3.41,0,0,1-2.63.26c-3.07-1-6.12-2.1-7.25-5.6a10.41,10.41,0,0,1,2.28-10.74" transform="translate(-150.02 -243.93)"/><path class="cls-2" d="M188.56,362.31a2.83,2.83,0,0,0,3.1-3.11c0-1.53-2.34-4.11-3.74-4.14s-3,1.93-3,3.5a3.79,3.79,0,0,0,3.66,3.75m-.67-5c.84.25,2,.67,2.08,1.71s-.9,1.27-1.82,1.3c-1.17.05-1.36-.7-1.37-1.63.17-.63.11-1.68,1.11-1.38" transform="translate(-150.02 -243.93)"/><path class="cls-2" d="M373.73,362.79c1.81-.05,2.52-.81,2.44-2.64-.11-2.74-1.32-4.29-3.26-4.17a3.72,3.72,0,0,0-3.32,3.43c.08,2.07,1.75,3.44,4.14,3.38m-.55-4.8c1.1-.09,1.11,1,1.24,1.79.19,1.22-.73.88-1.29,1-.85,0-1.71,0-1.58-1.15a1.78,1.78,0,0,1,1.63-1.59" transform="translate(-150.02 -243.93)"/></svg>