<svg id="Layer_1" data-name="Layer 1" xmlns="http://www.w3.org/2000/svg" viewBox="0 0 311.68 507.15"><defs><style>.cls-1{fill:#fff;}.cls-2{fill:#010101;}</style></defs><path class="cls-1" d="M273.25,525.29c4-.2,8.05.14,12.06-.25.83-.08,1.05-.48,1.06-1.25,0-5.07.38-10.15,0-15.23,0-.57-.37-.56-.75-.61a62.45,62.45,0,0,0-11.84-.45c-1.19.07-1.49.52-1.46,1.66.08,2.35,0,4.72,0,7.08h.11c0,2.56,0,5.11,0,7.67,0,.6-.17,1.42.83,1.38" transform="translate(-124.82 -149.42)"/><path class="cls-1" d="M272.21,502.57c-.58,2.58.08,3.43,2.62,3.29,1.14-.06,2.29-.06,3.44-.08,2.84,0,5.68,0,8.56,0-4.49-1.23-8.94-2.38-13.33-3.8-.54-.17-1.09-.29-1.29.6" transform="translate(-124.82 -149.42)"/><path class="cls-1" d="M285.33,527q-5.65,0-11.3-.14c-1.33,0-1.74.6-1.69,1.9.09,2.36,0,4.73,0,7.09h.37c0,2.49,0,5,0,7.48,0,1,.33,1.48,1.44,1.46q5.83-.09,11.66-.58c.61,0,1-.27,1-.92q-.06-7.47-.15-15c0-.8-.31-1.33-1.24-1.34" transform="translate(-124.82 -149.42)"/><path class="cls-1" d="M372.85,509.22c-4.28.07-8.57,0-12.84.47a1.38,1.38,0,0,0-1.42,1.63c0,2.37,0,4.74,0,7.11h-.05c0,2.43,0,4.86,0,7.3,0,.72,0,1.24,1,1.07a66.38,66.38,0,0,1,12-.57c1.37,0,1.91-.36,1.89-1.84-.07-4.73-.39-9.47.22-14.19.08-.6-.12-1-.82-1" transform="translate(-124.82 -149.42)"/><path class="cls-1" d="M272.61,612.55a70.09,70.09,0,0,1,13.89-.3c1,.1,1.35-.33,1.31-1.34-.1-2.17-.15-4.34-.13-6.51,0-1.15-.49-1.42-1.52-1.33a32,32,0,0,1-6.11.07,55.16,55.16,0,0,0-6.68-.06c-1.23,0-1.81.42-1.73,1.8a23.47,23.47,0,0,1-.27,6.48c-.26,1.18.3,1.28,1.24,1.19" transform="translate(-124.82 -149.42)"/><path class="cls-1" d="M357.76,506.42c.5,1.33,1,2,2.33,1.6a8.45,8.45,0,0,1,2.09-.14c3.32-.16,6.64-.31,10-.5.51,0,1.41.11,1.35-.68-.1-1.2.76-1.81,1.26-2.84a78.55,78.55,0,0,1-17,2.56" transform="translate(-124.82 -149.42)"/><path class="cls-1" d="M358.34,564.14c-.08.83.2,1.16,1.09,1a71.32,71.32,0,0,1,10.53-.55,19.81,19.81,0,0,0,4.71-.77c.63-.17.79-.41.77-1-.22-4.92-.43-9.83-.57-14.75,0-1.31-.65-1.63-1.8-1.62-2.3,0-4.6,0-6.9,0h0c-2.23,0-4.46,0-6.69,0-.82,0-1.12.31-1.13,1.13-.08,5.56.53,11.11,0,16.67" transform="translate(-124.82 -149.42)"/><path class="cls-1" d="M358.43,536.68c0,2.3,0,4.61,0,6.91,0,.75-.06,1.38,1,1.37q6.79-.12,13.61-.12c1.11,0,1.57-.47,1.42-1.5-.71-4.76-.58-9.56-.88-14.34,0-.59-.16-1-.85-1-4.28,0-8.57-.29-12.84.19-1.11.12-1.51.67-1.48,1.78,0,2.23,0,4.48,0,6.72h0" transform="translate(-124.82 -149.42)"/><path class="cls-1" d="M359.61,580.8c2.54-.43,5.1.07,8.55-.18,1.22,0,3.33,0,5.43,0,1.13.05,1.65-.28,1.67-1.47.05-3.9.14-7.8.29-11.7,0-1.2-.27-1.62-1.51-1.37a29.44,29.44,0,0,1-7.08.32,38,38,0,0,0-7.07.46c-.77.11-1.65.13-1.6,1.4.17,3.83.26,7.66.35,11.5,0,.67.13,1.15,1,1" transform="translate(-124.82 -149.42)"/><path class="cls-1" d="M185.87,343.1a13.17,13.17,0,0,0,2.63-.52c.8-.21,1.18-.59.68-1.52-.78-1.46-2-3-2-4.48,0-2-.75-2.2-2.21-1.87-1.76-.23-3.35.34-5,.61a57.81,57.81,0,0,1-11.06.84c-.38,0-.79-.08-1.05.28a.51.51,0,0,0,.18.81c1.16.57.81,1.59.81,2.51a12.59,12.59,0,0,0,1,5c.49,1.16,1.11,1.42,2.37,1.15,4.54-1,8.94-2.55,13.62-2.83" transform="translate(-124.82 -149.42)"/><path class="cls-1" d="M284.73,565.09c-3.37.16-6.73-.08-10.11.34-1.88.23-2.33.94-2.31,2.64.05,3.74.95,7.48,0,11.23-.22.85-.2,1.77-.35,2.65-.18,1.1.22,1.51,1.34,1.43,4-.27,7.89-.52,11.84-.72,1.27-.07,1.61-.72,1.59-1.87,0-2.29,0-4.6,0-6.9h.18a55.3,55.3,0,0,1,.08-6.31c.23-1.93-.53-2.57-2.25-2.49" transform="translate(-124.82 -149.42)"/><path class="cls-1" d="M285.69,601.44c1.4,0,2-.48,1.83-1.91-.53-4.45-.32-8.93-.53-13.4-.05-1.19-.45-1.69-1.72-1.64-4,.16-8,.25-12,.31-1.08,0-1.46.45-1.46,1.5,0,4.72,0,9.45-.07,14.18,0,1.09.42,1.23,1.37,1.19,2-.07,4.08,0,6.12,0v-.28c2.17,0,4.34,0,6.51,0" transform="translate(-124.82 -149.42)"/><path class="cls-1" d="M289.12,645.86c-.18-8.37-1.61-16.68-1.28-25.08.16-4.17.11-4.17-3.93-4.53-.2,0-.38-.06-.58-.07a52.9,52.9,0,0,0-16.59,1.34c-4.69,1-8.44,4-12,6.89-4,3.32-7.88,6.88-10.7,11.49a29,29,0,0,0-4,14.17c0,1.13.25,1.75,1.79,1.65,11.42-.77,22.81-2.13,33.36-1.9,4.56,0,8.2,0,11.85-.21,1.75-.12,2.33-.56,2.08-2.22a11.13,11.13,0,0,1-.1-1.53m-7-23.09c-2.45,2.88-4.76,5.89-7.25,8.7a83.6,83.6,0,0,0-7,9.42c-1.74,2.61-3.72,5.17-4.78,8.2-.21.61-.56.9-1.11.7-.72-.26-.4-.86-.16-1.27,1.44-2.47,3-4.87,4.36-7.4a66.73,66.73,0,0,1,5-7.32,101.92,101.92,0,0,1,7.89-10c1-1,1.33-2.29,2.13-3.35.33-.44.7-.78,1.29-.49a1.36,1.36,0,0,1,.71,1.2c0,.67-.63,1.13-1.06,1.63" transform="translate(-124.82 -149.42)"/><path class="cls-1" d="M285.41,545.73c-3.7.2-7.4.3-11.1.37-1.2,0-1.63.39-1.68,1.67-.18,4.85.35,9.71-.14,14.55-.13,1.27.27,1.65,1.61,1.53a78.55,78.55,0,0,1,11.47-.64c1.13.06,1.41-.47,1.43-1.48a72.59,72.59,0,0,0-.17-8.77c0-1.7,0-3.74,0-5.79,0-1-.27-1.5-1.45-1.44" transform="translate(-124.82 -149.42)"/><path class="cls-1" d="M404.54,388.68a4.68,4.68,0,0,0,.48,3.7c.56,1,1.71.55,2.63.46a125.52,125.52,0,0,0,20.89-3.76c.56-.15,1-.18,1.27.44a1,1,0,0,1-.67,1.38,19.31,19.31,0,0,1-2.6.63c-6.67,1-13.34,2.05-20,3-.93.14-1.28.45-1.38,1.42-.26,2.5,1.33,3.95,3,5.15a55.16,55.16,0,0,1,7,6.41c2.1,2.09,4.09,4.3,6.39,6.18.41.34.93.59.48,1.19a.87.87,0,0,1-1.35.13,14.74,14.74,0,0,1-2.34-2,112.09,112.09,0,0,0-13-12.73c-.81-.68-1.34-.67-2,.15a24.25,24.25,0,0,1-4.26,3.83c-1.85,1.33-2,2-.62,3.87a76,76,0,0,1,4.72,6.69c1,1.83,2.44,3.45,3.29,5.34a12.56,12.56,0,0,0,2.55,3.72c.69.7,1.21.56,2,.1a80.38,80.38,0,0,0,7-4.72c5-3.62,9.42-7.63,11.6-13.73,1.22-3.4,2.55-6.69,2.49-10.37a17.14,17.14,0,0,0-1.59-7.58c-2.5-5.26-6.88-8.65-11.36-11.95a3.07,3.07,0,0,0-4.34.53c-2.94,3.09-5,6.82-7.66,10.17-.78,1-2.2,1.38-2.57,2.29" transform="translate(-124.82 -149.42)"/><path class="cls-1" d="M305.21,264.56c-2.9.51-5.15,1.59-6.56,4.54s-3.15,5.85-2.89,9.39a14.84,14.84,0,0,0,1.33,7.25c1.78,3.95,4.28,4.5,7.61,2.36,2.56-1.64,3.75-4.38,5.61-6.58a8.07,8.07,0,0,0,1.67-3.61,20.12,20.12,0,0,0-.4-9.29c-.87-3.41-2.9-4.67-6.37-4.06" transform="translate(-124.82 -149.42)"/><path class="cls-1" d="M344.83,288.42c5.39-2.24,7.41-7.76,7.23-13.42-.17-5.26-4.09-9.83-9-10.27-2-.18-4.43.59-4.84,2a56.26,56.26,0,0,0-2.29,12.39c-.25,2.73.91,5,2.21,7.23a5.84,5.84,0,0,0,6.7,2.11" transform="translate(-124.82 -149.42)"/><path class="cls-1" d="M284.79,246.57c1.15,3.07,2.77,3.44,5.28,1.35a3,3,0,0,0,.82-1.24,10.81,10.81,0,0,0,.85-5.82,84.11,84.11,0,0,1-.45-14.54,107.76,107.76,0,0,1,2.85-18.93c1.56-6.53,4.52-12.56,7.19-18.68.65-1.49,1.94-2.61,2.4-4.12.67-2.25,2.16-3.85,3.66-5.48,2.08-2.26,4.83-3.71,7.08-5.77a9.12,9.12,0,0,0,2.91-5.17c-.27-1,0-2.11-1.07-2.6a2.94,2.94,0,0,0-3.05.61c-2,1.52-4,3.07-6,4.64-4,3.19-8,6.46-11,10.64a61.54,61.54,0,0,0-7.76,14.19,22.7,22.7,0,0,0-1.88,6.59c-.14,2.51-.75,4.92-1.06,7.37-.27,2.09-.94,4.08-1.12,6.17a170.12,170.12,0,0,0-.48,22.8c.13,2.67-.16,5.41.81,8" transform="translate(-124.82 -149.42)"/><path class="cls-1" d="M402.68,383.23a9.36,9.36,0,0,0,.67,2.58c.12.44.43,1.1.84.68.77-.81,1.86-1.18,2.55-2,2.56-3.13,4.32-6.86,7.28-9.7.6-.58.82-1.1-.21-1.57A39.59,39.59,0,0,0,401,369.81c-.67,0-1.39.13-.91,1.72,1.14,3.83,2.73,7.57,2.63,11.7" transform="translate(-124.82 -149.42)"/><path class="cls-1" d="M240.83,432.7c-.64,6.12-.68,12.26-1,18.39a145.79,145.79,0,0,0,.63,24.72,12.34,12.34,0,0,1,.45,2.6,6.21,6.21,0,0,0,1.63,4.89,47,47,0,0,0,17.34,12.08c2.32.9,4.87,1.38,7,2.71s4.76.49,6.34,2.66c.17.22.72.17,1.09.25l2.25.45c4.27.81,8.15,3.35,13,2,1.63-.45,4.1.17,6.15.72a49,49,0,0,0,8.84,1.61q5.64.44,11.25,1a117.3,117.3,0,0,0,16.86.46c5.17-.22,10.32-.76,15.48-1.11,3.27-.22,6.56-.36,9.81-.63,5.38-.45,10.69-1.77,16-2.75.79-.14,1.68-.22,2-1.23.14-.44.57-.48,1-.49,4.33-.09,8.41-1.3,12.52-2.56s7.8-3.19,9.65-7.57c1.27-3,3.59-5.7,3.33-9.23a28.23,28.23,0,0,1,.75-7.33c.82-4.45,1.19-9,1.73-13.5A287.72,287.72,0,0,0,407,428a65.45,65.45,0,0,1-5.62,3.48c-5.13,2.54-10.17,5.28-15.45,7.54-1.7.72-3.57,1.05-5.14,2a30.45,30.45,0,0,1-6.35,3c-5.58,1.75-10.79,4.53-16.59,5.7-3,.61-5.91,2.09-8.95,2.73-4.54,1-9.19,1.4-13.75,2.37-2.93.63-3.22.26-3.12-2.72,0-.64.07-1.27.07-1.91,0-.43.14-1-.45-1.1s-.6.4-.77.73-.33.84-.56,1.22c-1.2,2-2.19,4.21-4.47,5.1a36.25,36.25,0,0,1-13.26,2.61,9.89,9.89,0,0,1-5.49-1.42,15,15,0,0,1-6.88-13.54c.06-1.38-.36-1.61-1.52-1.67-5.4-.28-10.8-.37-16.06-2.08-2.75-.89-5.44-3.69-5.48-6.59a3.76,3.76,0,0,1,1.28-3.05c2-1.87,4.51-2.49,7.11-2.94,4.26-.74,8.55-.37,12.83-.19.88,0,1.3.09,1-1.07-1.38-4.7-1.4-9.2,1.41-13.58,1.86-2.91,4.47-3.59,7.34-3.43a3.79,3.79,0,0,1,3.64,2.82c.87,2.49.88,5.13,1.83,7.58a11.36,11.36,0,0,0,4.53,5.9c4.35,2.78,8.95,5.24,12.75,9a6,6,0,0,0,.07-3.2c-.25-1.09-.07-1.81,1.24-2.08a105.45,105.45,0,0,0,11.15-2.59c7.19-2.36,14.7-3.7,21.63-6.84,2.39-1.08,5-1.27,7.39-2.43,3.29-1.62,6.72-3,10-4.56,2.4-1.16,4.72-2.46,7-3.79a109.52,109.52,0,0,0,11.43-7.9c1.39-1.06,2.77-2.41,2.71-4.15a56.11,56.11,0,0,0-1.15-8.73c-1-5.12-2.3-10.19-3.48-15.28-1.66-7.16-3.93-14.12-6.17-21.09a140.37,140.37,0,0,0-8.26-19.71c-1.06-2.1-2.43-4.07-3.31-6.24-1.64-4.05-4.2-7.56-6.34-11.31-1.16-2-1.44-2-3.11-.37-2.54,2.42-4.43,5.5-7.55,7.32-1.48.86-3,1.65-4.47,2.54a54.69,54.69,0,0,1-13.47,5.82c-5.21,1.47-10.64,1.32-16,1.86a34.29,34.29,0,0,1-8.22.12c-5.73-.83-11.53-1.35-17.09-3.24-4.63-1.57-9.52-2.43-13.87-4.83a14,14,0,0,0-3.41-1.71c-3.76-.84-6.82-3.16-10.29-4.58-1.77-.72-2.46-.74-3.17.89-1.33,3.09-2.75,6.15-4.12,9.22-3.26,7.24-6.37,14.58-9,22.06q-3.21,9-6.52,18c-2.64,7.18-4.45,14.59-6.64,21.89a133.07,133.07,0,0,0-3.32,16.52c-1.47,8.84-2.78,17.7-3.7,26.6" transform="translate(-124.82 -149.42)"/><path class="cls-1" d="M281.69,298.51a38.87,38.87,0,0,1,3.93,2.22,50.78,50.78,0,0,0,15.56,7.5c3.58,1.08,7.24,1.95,10.91,2.69,4.42.89,8.82,2,13.43,1.74a71.09,71.09,0,0,0,21.65-5.23c1.65-.64,3.14-1.7,4.76-2.43a42.78,42.78,0,0,0,10-5.58c1.65-1.36,4.79-2.33,3.8-5.72-.08-.28.36-.8.67-1.09.92-.86,1.77-1.82,2.68-2.62a7.55,7.55,0,0,0,2.58-6.65,33.65,33.65,0,0,1-.19-5.75c1.2-9.71-.58-19.34-.83-29a112.85,112.85,0,0,0-1.09-12c-.94-7.11-.57-14.32-1.21-21.45-.48-5.2.49-10.69-2.63-15.46-.09-.14,0-.38,0-.57-.68-5.39-1.48-10.75-3.61-15.82a20.16,20.16,0,0,1-1-2.86c-1-3.75-1.85-7.52-4.89-10.4s-6.66-5.68-9.44-9.11c-.18-.22-.55-.3-.83-.46a70.05,70.05,0,0,0-14.21-6.05c-3-.92-5.84-2-9.12-1.73A34.36,34.36,0,0,0,307,157.89c-2.88,1.83-6,3.35-8.38,5.94a49.29,49.29,0,0,1-4.18,4.34c-2.42,2-4,4.61-5.7,7.08A39.93,39.93,0,0,0,282,196.5c-.31,7-1.64,14-2.65,20.89-.69,4.76-1,9.53-1.48,14.29-.47,5.09-.46,10.22-.84,15.32-.64,8.55-.94,17.11-1.26,27.67a86.24,86.24,0,0,0,.93,14.65c.51,3.62,1.22,7.1,5,9.19M334,280.62c.2-4.77.59-8.06,1.7-11.23.06-.18.2-.37.17-.54-.45-3,1.67-4.52,3.73-5.53,2.47-1.21,5.08-.31,7.51.88,6.38,3.12,8.45,11,6.05,17-1.65,4.11-3.92,7.36-8.08,9.06-2.58,1.05-5.21,0-7.21-1.9-2.68-2.58-4.09-5.47-3.87-7.74m-25.47,6.22a13.64,13.64,0,0,1-3.43,3.26c-5.26,2.94-9.33-.39-10.32-5.38a21.2,21.2,0,0,1-.61-5.65c0-6.82,2.21-11.92,7.48-15.23a8.18,8.18,0,0,1,9.4.31,4.29,4.29,0,0,1,1.84,2.38c.48,1.78,1,3.56,1.36,5.37,1.2,6.15-2,10.68-5.72,14.94M282.33,238.9c0-7.93-.1-15.86.16-23.78.18-5.56,1.86-10.91,3.19-16.29a53.53,53.53,0,0,1,4.37-11.38c1-2,2.64-3.48,3.51-5.43,1.48-3.35,4.74-5.16,6.61-8.26a14.88,14.88,0,0,1,5.59-5c2.44-1.34,4.47-3.34,7.11-4.42a7.24,7.24,0,0,1,6.91.77c1,.84,1.16,3.1.32,4.44a29.68,29.68,0,0,1-5.17,5.9,66.61,66.61,0,0,0-7.32,7.79A51.1,51.1,0,0,0,300,195.93c-2.72,7.13-5.08,14.36-5.94,22.09-.75,6.69-.29,13.18.24,19.82.35,4.36.34,9.58-4.41,12.64-2.42,1.55-5.33,1.79-6.7-1.62s-1.1-6.62-1.41-10h.53" transform="translate(-124.82 -149.42)"/><path class="cls-1" d="M274.29,310.4c1.77,1.1,3.23,2.55,5.2,3.48,2.32,1.09,4.6,2.55,6.94,3.55A98.63,98.63,0,0,0,324.32,326l1,0a120.41,120.41,0,0,0,19.58-2.31,57.81,57.81,0,0,0,8.9-2.18,59.66,59.66,0,0,0,7.39-3.94c2.55-1.39,3.91-4.24,6.78-5.39.94-.37,1.39-2.17,2.52-2.75a10.92,10.92,0,0,0,3.92-4,3.48,3.48,0,0,0-.24-4.42,14.53,14.53,0,0,0-2.62-2.45c-1.65-1.28-2.2-1.15-3.3.59a7.73,7.73,0,0,1-1.3,1.38,22.78,22.78,0,0,1-7.81,5.3c-3.56,1.34-6.67,3.65-10.19,5.15a88.77,88.77,0,0,1-9.61,3.21c-5.53,1.65-11.23,2.77-17,2.28a95.86,95.86,0,0,1-25.84-5.87c-6-2.28-11.79-5.05-16.6-9.46-.7-.64-1.53-.73-2.06-.14-1.17,1.33-2.85,1.91-4.12,3.09-2.67,2.48-2.6,4.42.53,6.36" transform="translate(-124.82 -149.42)"/><path class="cls-1" d="M349.48,450.19c3.74-1,7.42-2.22,11.18-3.14.92-.22,2.63-.32,2.39-2.59,0-.06-.14-.56-.3-1-2-5.8-3.87-11.63-5.36-17.57-.4-1.6-.88-1.8-2.31-1.29-3.07,1.08-6.08,2.38-9.37,2.71-1.13.11-1.47.62-1.18,1.83a30.42,30.42,0,0,1,1.27,6.77c.05,4.24,1,8.38,1.62,12.55.15,1.12.43,2.19,2.06,1.77" transform="translate(-124.82 -149.42)"/><path class="cls-1" d="M361.28,615.43c-1.12.22-1.63.68-1.58,1.91a45.8,45.8,0,0,1-.14,5.37c-.42,5-.87,10-.3,15.12.41,3.68.75,7.39.85,11.09.05,1.7.63,2,2.15,2.05,8.31,0,16.61.1,24.93-.21s16.45.44,24.68.85a59,59,0,0,0,5.95,0c1.08-.06,1.68-.23,1.2-1.88-1.2-4.14-3.89-7.35-6.34-10.61a66.79,66.79,0,0,0-6.63-7.79,50.37,50.37,0,0,0-6.62-6,47.33,47.33,0,0,0-10.51-5.69,76.74,76.74,0,0,0-22.68-4.38c-2,.2-3.48-.11-5,.17m12.4,13.6a57.44,57.44,0,0,0,5.8,6.27c2.85,2.53,4.8,5.89,7.75,8.33a12.12,12.12,0,0,1,1.78,2.22.74.74,0,0,1-.09,1c-.37.35-.74.16-1-.1a21.92,21.92,0,0,1-4.06-4.21,29.2,29.2,0,0,0-4.75-5.43c-3.4-3.12-6.2-6.75-9.21-10.21-1.83-2.11-3.82-4.07-5.49-6.33-.22-.29-.6-.56-.36-1,.11-.2.38-.3.59-.44a3.14,3.14,0,0,1,1.81,1.35c2.09,3.12,4.87,5.64,7.25,8.49" transform="translate(-124.82 -149.42)"/><path class="cls-1" d="M401.61,414.73c-1.23-2.51-3.49-4.62-4.87-7.2-.5-.93-1-.88-1.79-.27a32,32,0,0,1-5,3.08c-1.05.51-2.87.75-2.9,2.48a6.11,6.11,0,0,0,.13.91,172.8,172.8,0,0,0,7.23,16c1.38,2.83,1.79,2.81,4.6,1.25,2.32-1.3,4.42-3,7-3.87,1.2-.41,1.64-1.48,1.05-3-1.33-3.41-3.81-6.12-5.43-9.39" transform="translate(-124.82 -149.42)"/><path class="cls-1" d="M360.44,603c-.78,0-1.16.32-1.08,1.17.17,2,.29,4.07.42,6.1.07,1,.39,1.57,1.56,1.33a40.53,40.53,0,0,1,6.21-.29c2.82.06,5.38-.12,7.88.54,1,.27,1.33-.16,1.17-1.06a45.17,45.17,0,0,1-.73-7.42c0-.76-.43-1-1.1-1-4.78.21-9.55.43-14.33.62" transform="translate(-124.82 -149.42)"/><path class="cls-1" d="M385.11,437.52a9.82,9.82,0,0,1,2.09-.95,25.77,25.77,0,0,0,5.73-2.55,1.48,1.48,0,0,0,.8-2.18c-2.66-6.06-5.86-11.89-8.13-18.13-.11-.31-.25-.59-.69-.51l-.33.13c-3.48,1.27-6.71,3.09-10,4.68-.84.4-.76,1.08-.43,1.78,1.06,2.31,2,4.65,3,7,1.16,2.95,2.69,5.72,3.46,8.86.86,3.49,1.38,3.57,4.57,1.85" transform="translate(-124.82 -149.42)"/><path class="cls-1" d="M365.67,445.17c1.53-.63,3.2-.34,4.76-1.16,2.79-1.48,5.52-3.18,8.69-3.78.85-.15,1.31-.5,1.06-1.41a13.45,13.45,0,0,0-.64-2.19c-2.5-5.24-4.06-10.86-6.58-16.08-.65-1.34-.91-1.91-2.53-1.26-3.54,1.41-6.93,3.29-10.79,3.81-.82.11-1,.71-.95,1.6,0,.13.08.44.11.76.24,3.13,1.79,5.85,2.74,8.75,1.08,3.26,1.61,6.7,3.07,9.84.26.55.51,1.35,1.06,1.12" transform="translate(-124.82 -149.42)"/><path class="cls-1" d="M359.21,600c-.2,1.66.2,2.26,1.91,1.47a4.52,4.52,0,0,1,1.89-.14c3.77,0,7.51-.53,11.27-.67,1.05,0,1.39-.4,1.34-1.52-.11-2.42,0-4.86,0-7.28h-.38c0-2.42,0-4.85.05-7.28,0-1.29-.23-2-1.73-2.06-4.28-.26-8.54-.11-12.81,0-1.57,0-1.89.58-1.86,2.05.11,5.15.93,10.3.32,15.47" transform="translate(-124.82 -149.42)"/><path class="cls-1" d="M333.41,451.1c.07,2.07.48,2.43,2.59,2,2.61-.53,5.19-1.31,7.83-1.65,2-.27,2.19-1.31,2.06-3a167.71,167.71,0,0,0-2.73-18.92c-.24-1.18-.6-1.47-1.79-1.07a51.06,51.06,0,0,1-7,2c-1.38.26-1.63.82-1.57,2,.23,4.91.6,9.81.42,14.73.06,1.28.13,2.56.18,3.84" transform="translate(-124.82 -149.42)"/><path class="cls-1" d="M307.89,453.45a11.7,11.7,0,0,0,10.78,1.42c3.4-1.08,7-1.66,8.94-5.53.65-1.32.93-2.71,1.55-4a8,8,0,0,0-1.74-8.84,33,33,0,0,0-7.2-5.3c-2.49-1.26-4.62-3.12-6.94-4.64s-3.2-4.64-3.88-7.46c-.4-1.68-.65-3.4-1.08-5.07s-1.48-2.2-2.67-1.43a5.48,5.48,0,0,0-2.66,3.16c-1.18,4.91-1.53,9.63,3.22,13.08a1.38,1.38,0,0,1,.57,1.83c-.34.84-1,.61-1.62.61-3.14,0-6.27,0-9.41,0v-.09c-.9,0-1.79,0-2.69,0-3.58,0-7.17-.2-10.68.83-.78.23-1.54.64-1.57,1.47s.25,1.85,1,2.09c1.64.52,3.13,1.45,4.86,1.72a85.44,85.44,0,0,0,16.2,1.25,2.15,2.15,0,0,1,2.07,1.08,1.42,1.42,0,0,1-.12,1.74c-2,3.2-.06,10,3.05,12.13" transform="translate(-124.82 -149.42)"/><path class="cls-1" d="M129.42,316.48a18.34,18.34,0,0,0,6.45,2.74,69.68,69.68,0,0,0,11.81,1.23c.86,0,1.41.41,1.43,1.21,0,2.81,2,4.49,3.78,6.17,4.63,4.48,10.08,7.14,16.75,6.67,1.78-.1,3.57-.24,5.35-.29,3.66-.08,7.17-1.39,10.84-1.16a2.4,2.4,0,0,0,2.45-1.38c2.67-4.42,2.07-8.87-.17-13.12a20.62,20.62,0,0,0-2.78-4.71c-.77-.83-2-.92-2.69-1.79a14.07,14.07,0,0,0-5.59-3.83c-3.89-1.8-7.08-4.4-7.7-9a16.08,16.08,0,0,0-2.44-6.39c-1.53-2.47-4.28-2.81-6.16-.93a10.11,10.11,0,0,0,2,15.54c1.08.67,2.24,1.11,2.73,2.63.67,2.07.64,2.38-1.59,2.15a40.17,40.17,0,0,0-7.27-.42,135.86,135.86,0,0,1-15,.46c-3.39-.13-6.77-.42-10.15-.56-1.23-.06-2.55.18-3.09,1.4a2.51,2.51,0,0,0,1,3.36" transform="translate(-124.82 -149.42)"/><path class="cls-1" d="M210.78,379.49c-1.86,2.18-4.21,3.9-5.86,6.28-.47.68-.56,1,.18,1.5,3.79,2.65,7.57,5.32,11.29,8.06.53.4,1.12.53,1.69.91a4,4,0,0,0,2-1.61c.94-1.44,1.76-3,2.83-4.3,1.86-2.31,2.49-5.36,4.61-7.45,1.31-1.28.86-1.83-.5-2.65-2.68-1.62-5.63-2.8-8-5-1.82-1.72-2.91-1.51-4.67.36-1.22,1.3-2.48,2.57-3.64,3.92" transform="translate(-124.82 -149.42)"/><path class="cls-1" d="M191.73,373.33c-.49.41-1.3.91-.39,1.67,3.72,3.08,6.94,6.73,10.86,9.58.39.28.88.74,1.3.09,1.09-1.7,2.86-2.7,4.15-4.2,2.38-2.78,4.88-5.45,7.5-8.36a68.06,68.06,0,0,1-8.66-8.49c-.63-.7-.92-.86-1.77-.13a66.72,66.72,0,0,1-6.18,4.67c-2.37,1.6-4.62,3.35-6.81,5.17" transform="translate(-124.82 -149.42)"/><path class="cls-1" d="M221.79,399c2.27,1.4,4.69,2.55,7,4,3.21,2,3.18,2.05,4.59-1.37l.15-.35a128.89,128.89,0,0,1,7.1-13.9c.52-.93.11-1-.57-1.32-2.22-.95-4.38-2-6.62-2.93a18.59,18.59,0,0,1-3.16-1.05c-.67,0-.8.39-.89.88a5.24,5.24,0,0,1-.42,1.45,53.6,53.6,0,0,1-7.52,11.44c-1.29,1.49-1.27,2.17.38,3.19" transform="translate(-124.82 -149.42)"/><path class="cls-1" d="M190.92,356.58c-3.27,1.58-6.41,3.42-9.6,5.16-.57.31-1.26.72-.63,1.46,2.69,3.14,5.42,6.24,8.16,9.34.42.48.93.65,1.46,0,2.2-2.58,5.18-4.23,7.8-6.3,1.75-1.39,3.56-2.71,5.33-4.08a1.29,1.29,0,0,0,.72-1.13,1.26,1.26,0,0,1-.49-.3c-1.79-2.06-3.61-4.1-5.29-6.25-.94-1.2-1.81-1.14-2.94-.4a39.47,39.47,0,0,1-4.52,2.47" transform="translate(-124.82 -149.42)"/><path class="cls-1" d="M184.17,345a98,98,0,0,0-11.59,2.49c-.88.22-.92.44-.59,1.27,1.51,3.81,4.1,7,5.82,10.69.77,1.64,1.87,1.45,3.12.74s2.72-1.67,4.11-2.44q5-2.75,10-5.41c.62-.33.71-.49.3-1.1-1.45-2.15-2.82-4.35-4.23-6.52-.27-.41-.44-1-1.41-.7-1.73-.08-3.58.72-5.55,1" transform="translate(-124.82 -149.42)"/><path class="cls-1" d="M235.87,406.77c2,1.25,4.31,1.58,6.57,2.35,1.23-6,2.1-12.12,3.82-18.07,1-3.31.88-3.32-2.49-3.81-.76-.11-1.29-.25-1.83.71-2.76,4.89-4.76,10.14-7.3,15.14-1.17,2.31-1,2.27,1.23,3.68" transform="translate(-124.82 -149.42)"/><path class="cls-2" d="M128.32,321.14A48.22,48.22,0,0,0,144,324.9c.68,0,1.32.24,1.33,1.06a8.9,8.9,0,0,0,3.46,6.87,25.45,25.45,0,0,0,13.88,6.27c.6.06,1.36-.16,1.45.82.31,3.49,1.83,6.52,3.34,9.63,1.89,3.9,4.08,7.62,6.29,11.32,3.76,6.34,9,11.52,14.08,16.72a148.53,148.53,0,0,0,12.57,11.31c4.46,3.6,9.18,6.81,13.85,10.1a115.91,115.91,0,0,0,14.14,8.64c3,1.52,6,3,9,4.5a1.68,1.68,0,0,1,1.15,1.91c-1.15,11.05-2.34,22.09-2.72,33.21a196.06,196.06,0,0,0,1,30.65c.22,1.75.3,3.73,1.18,5.14a35.29,35.29,0,0,0,15.48,13.58c4.34,2,8.81,3.74,13.27,5.46a1.86,1.86,0,0,1,1.47,2.08c-.14,3.08.22,6.14.33,9.21.35,10-.09,20-.22,29.94-.15,11.91-.52,23.81-.62,35.72-.09,10.62-.07,21.25.43,31.87.07,1.55-.3,2.18-1.89,2.62-3.33.93-6.73,1.59-9.62,3.94-2.48,2-5.27,3.63-7.8,5.67s-4.94,4-6.52,6.5c-4.05,6.5-6.67,13.58-6.49,21.48a8.85,8.85,0,0,0,1.93,5c.69,1,2.24,0,3.4-.22a2.33,2.33,0,0,1,.38,0c8.18-.35,16.32-1.34,24.52-1.48,7.86-.14,15.74.06,23.56-1,2.25-.3,3.29-1.31,3.3-3.61a138.5,138.5,0,0,0-.75-16.28,98.66,98.66,0,0,1-.42-17.62c.34-5.52-.36-11.1-.54-16.65-.2-6.2-.36-12.41-.64-18.62-.41-9.13.41-18.28.15-27.43-.26-8.83,0-17.67-.38-26.49-.23-5.89.55-11.74.14-17.61-.06-.93.24-1.42,1.33-1.3a61.49,61.49,0,0,1,6.46.88,49.26,49.26,0,0,0,8.11,1.38c3.38.17,6.78.26,10.13.69,9.34,1.19,18.63.71,27.93-.34,2.47-.28,5,0,7.44-.64s2.57-.56,2.61,2.09c0,.13,0,.26,0,.39-.11,11.58-.18,23.17-.36,34.76-.09,6,.76,12,.17,18-.5,5.07.18,10.09.34,15.13.18,6.13.77,12.29.5,18.4a342.61,342.61,0,0,0,.6,43c.33,4,1.29,8,.69,12-.17,1.2.74,1.18,1.49,1.21,4.09.16,8.18.4,12.27.4,7.3,0,14.59-.27,21.89-.16,8.82.14,17.64.55,26.47.85,2.17.07,4.09-1,4.22-2.4a10.63,10.63,0,0,0-.63-5.66c-3.55-7.46-7.14-14.95-13.07-20.84-4.75-4.72-9.58-9.4-16.05-12-3.52-1.43-7-2.78-10.77-3-1.49-.1-1.83-.74-2-2.12-.58-4.27-.46-8.57-.78-12.84a170.16,170.16,0,0,1-.22-21.66,219.65,219.65,0,0,0-.31-25.14c-.44-6.69-1.21-13.36-1.37-20.08a233.15,233.15,0,0,1,.18-23.94c.05-.72-.16-1.65,1.05-1.67,5.17-.08,10-1.86,15-3,3-.69,5.35-2.86,7.24-5.11,1.54-1.85,2.31-4.37,3.33-6.64,1.9-4.23,1.91-8.82,2.44-13.31,1.82-15.24,4-30.45,4-45.85a2,2,0,0,1,1-1.88c1.78-1.17,3.68-2.12,5.42-3.37a47.54,47.54,0,0,0,11.93-11.95c1.18-1.74,3.06-3.13,3.47-5.23.45-2.31,1.6-4.3,2.38-6.45,2.81-7.85,1.54-15-3.15-21.67-2.49-3.52-6.11-5.78-9.82-7.83a15.8,15.8,0,0,0-3.78-1.78c-4.82-1.22-9.39-3.26-14.27-4.33a2.88,2.88,0,0,1-1.42-.92,20.44,20.44,0,0,1-4.34-9,98.86,98.86,0,0,0-5.05-14.58,188.05,188.05,0,0,0-8.56-17.68c-2.09-3.91-4-8-6.8-11.47-1.2-1.51-2.2-3.2-1.1-5.35a13.72,13.72,0,0,0,1.15-3.63c.76-3.77-.29-7.23-4.56-8.37a5.32,5.32,0,0,1-2-.79c1.11-2.38,3.18-3.88,4.1-6.23a11.48,11.48,0,0,0,.68-3.34c.17-2.38-.26-4.72-.22-7.09.18-11-.58-21.86-1.38-32.77-.61-8.16-1.32-16.31-1.84-24.49-.59-9.24-.35-18.59-3.78-27.57-1.8-4.71-2.27-9.9-4.58-14.54-1.44-2.89-2.11-6.25-4.32-8.65-3.87-4.2-8-8.13-12.1-12.16-1.95-1.94-4.64-2.59-6.94-3.93-3.1-1.81-6.32-3.56-10.09-3.64a20.71,20.71,0,0,1-3.61,0c-5.68-1.22-11.06.44-16.28,2.06-4.73,1.46-8.77,4.52-12.77,7.48a48.64,48.64,0,0,0-8.07,7.7,69.66,69.66,0,0,0-4.24,5.56,46,46,0,0,0-4.74,8.68c-.88,2.09-.87,4.52-2,6.34a10,10,0,0,0-1.35,5.64,71.16,71.16,0,0,1-.45,10.92c-1.27,7.55-2.52,15.11-3.23,22.74-.7,7.44-1.16,14.9-1.48,22.37-.1,2.29.3,4.62-.27,6.87a31.42,31.42,0,0,0-.65,7.21c-.13,6.94-.47,13.9.13,20.85.43,4.88.51,9.84,3.57,14,.53.72-.1.89-.56,1.06-2.33.85-3.83,2.65-5.29,4.53-1.93,2.49-1.09,7.59,1.56,9.32.52.35,1.09.56.63,1.48-2.84,5.77-5.4,11.67-7.91,17.6-3.22,7.64-6.28,15.33-9,23.16-3,8.74-6.55,17.33-8.61,26.39-.24,1-.83,1.24-1.66,1a41.6,41.6,0,0,1-4.56-1.43,97,97,0,0,1-14.88-7.34,51,51,0,0,1-7.9-5.94c-2.09-1.91-4.13-4-6.12-6-3.37-3.43-6.55-7-9.77-10.56a58.16,58.16,0,0,1-8.94-13.26c-1.21-2.44-2.39-4.89-.22-7.42,1.72-2,1.87-4.42,1.57-6.88a23.57,23.57,0,0,0-1-4.88c-.76-2.15-1.31-4.75-2.86-6.17-3.94-3.59-7.53-7.83-13-9.36-.35-.1-.62-.45-.94-.65-3.42-2.07-3.61-5.83-4.63-9.09a10.42,10.42,0,0,0-3.79-5.69c-1.22-.84-2.67-1.87-4.55-1.22a11.51,11.51,0,0,0-7.4,6.92,18.7,18.7,0,0,0-.89,7.54c.06,1.92,1.16,3.48,1.55,5.28.16.74.24,1.21-.8,1.19-3.64-.1-7.3.08-10.92-.24a60.11,60.11,0,0,0-13.54.2c-3.29.45-5.09,2-5.79,5.07-.83,3.59-.32,6.86,3.15,8.22m41.56,23.64a12.59,12.59,0,0,1-1-5c0-.92.35-1.95-.81-2.51a.51.51,0,0,1-.18-.81c.26-.36.67-.29,1.05-.28a57.81,57.81,0,0,0,11.06-.84c1.63-.27,3.22-.84,5-.61,1.46-.33,2.21-.17,2.21,1.87,0,1.49,1.19,3,2,4.48.5.93.12,1.31-.68,1.52a13.91,13.91,0,0,1-2.63.52c-4.68.28-9.08,1.87-13.62,2.83-1.26.27-1.88,0-2.37-1.15M287.14,649.61c-3.65.24-7.28.21-11.85.21-10.55-.23-21.94,1.13-33.36,1.9-1.54.1-1.85-.52-1.79-1.65a29,29,0,0,1,4-14.17c2.82-4.61,6.69-8.17,10.7-11.49,3.51-2.91,7.26-5.89,12-6.89a52.9,52.9,0,0,1,16.59-1.34c.2,0,.38.06.57.07,4.05.36,4.1.36,3.94,4.53-.33,8.4,1.1,16.71,1.28,25.08a11.13,11.13,0,0,0,.1,1.53c.25,1.66-.33,2.1-2.08,2.22M286.83,553a72.59,72.59,0,0,1,.17,8.77c0,1-.3,1.54-1.43,1.48a78.55,78.55,0,0,0-11.47.64c-1.34.12-1.74-.26-1.61-1.53.49-4.84,0-9.7.14-14.55.05-1.28.48-1.65,1.68-1.67,3.7-.07,7.4-.17,11.1-.37,1.18-.06,1.45.47,1.45,1.44,0,2.05,0,4.09,0,5.79m-7.65,48.72c-2,0-4.08-.08-6.12,0-.95,0-1.38-.1-1.37-1.19.07-4.73.08-9.46.07-14.18,0-1,.38-1.48,1.46-1.5,4-.06,8-.15,12-.31,1.27,0,1.67.45,1.72,1.64.21,4.47,0,9,.53,13.4.17,1.43-.44,2-1.83,1.91-2.17-.06-4.34,0-6.51,0v.28m7.8-34.1a55.3,55.3,0,0,0-.08,6.31h-.18c0,2.3-.05,4.61,0,6.91,0,1.14-.32,1.79-1.59,1.86-3.95.2-7.89.45-11.84.72-1.12.08-1.52-.33-1.34-1.43.15-.88.13-1.8.35-2.65,1-3.75.08-7.49,0-11.23,0-1.7.43-2.41,2.31-2.64,3.38-.42,6.74-.18,10.11-.34,1.72-.08,2.48.56,2.25,2.49m-14.53-51.34h-.11c0-2.36.08-4.72,0-7.08,0-1.14.27-1.59,1.46-1.66a62.45,62.45,0,0,1,11.84.45c.38.05.71,0,.75.61.37,5.08,0,10.16,0,15.23,0,.77-.23,1.17-1.06,1.25-4,.39-8,.05-12.06.25-1,0-.83-.78-.83-1.38,0-2.56,0-5.11,0-7.67m13.31,28q-5.82.5-11.66.58c-1.11,0-1.46-.41-1.44-1.46,0-2.49,0-5,0-7.48h-.37c0-2.36.09-4.73,0-7.09,0-1.3.36-1.92,1.69-1.9q5.64.09,11.3.14c.93,0,1.24.54,1.25,1.34q.07,7.49.14,15c0,.65-.35.87-1,.92m-7.49-38.46c-1.15,0-2.29,0-3.44.08-2.54.14-3.2-.71-2.62-3.29.2-.89.75-.77,1.29-.6,4.39,1.42,8.84,2.57,13.33,3.8-2.88,0-5.72,0-8.56,0m-6.63,99.1c-.08-1.38.5-1.79,1.73-1.8a55.15,55.15,0,0,1,6.68.06,32,32,0,0,0,6.11-.07c1-.09,1.53.18,1.52,1.33,0,2.17,0,4.34.13,6.51,0,1-.33,1.44-1.32,1.34a70,70,0,0,0-13.88.3c-.94.09-1.5,0-1.24-1.19a23.47,23.47,0,0,0,.27-6.48m101.81-80.49c0,1.48-.52,1.85-1.89,1.84a66.38,66.38,0,0,0-12,.57c-1,.17-1-.35-1-1.07,0-2.44,0-4.87,0-7.3h.05c0-2.37.05-4.74,0-7.11a1.38,1.38,0,0,1,1.42-1.63c4.27-.47,8.56-.4,12.84-.47.7,0,.9.38.82,1-.61,4.72-.29,9.46-.22,14.19m0-17.69c.06.79-.84.65-1.35.68-3.32.19-6.64.34-10,.5a8.45,8.45,0,0,0-2.09.14c-1.35.44-1.83-.27-2.33-1.59a79.18,79.18,0,0,0,17-2.57c-.5,1-1.36,1.64-1.26,2.84M358.41,530c0-1.11.37-1.66,1.48-1.78,4.27-.48,8.56-.18,12.84-.19.69,0,.81.42.85,1,.3,4.79.17,9.59.88,14.35.15,1-.31,1.5-1.42,1.5q-6.81,0-13.61.12c-1.1,0-1.05-.62-1-1.37,0-2.3,0-4.61,0-6.91h0c0-2.24.06-4.49,0-6.72m1.07,16.38c2.23,0,4.46,0,6.69,0h0c2.3,0,4.6.05,6.9,0,1.15,0,1.77.31,1.8,1.62.14,4.92.35,9.83.57,14.75,0,.63-.14.87-.77,1a19.81,19.81,0,0,1-4.71.77,71.32,71.32,0,0,0-10.53.55c-.89.16-1.17-.17-1.09-1,.54-5.56-.07-11.11,0-16.67,0-.82.31-1.14,1.13-1.13m-.84,33.46c-.09-3.84-.18-7.67-.35-11.5-.05-1.27.83-1.29,1.6-1.4a38,38,0,0,1,7.07-.46,29.44,29.44,0,0,0,7.08-.32c1.24-.25,1.55.17,1.51,1.37-.15,3.9-.24,7.8-.29,11.7,0,1.19-.54,1.52-1.67,1.47-2.1-.09-4.21,0-5.43,0-3.45.25-6-.25-8.55.18-.84.15-.95-.33-1-1m2.11,2.72c4.27-.08,8.53-.23,12.81,0,1.5.09,1.77.77,1.73,2.07-.08,2.42,0,4.85-.05,7.28h.38c0,2.42-.11,4.86,0,7.28.05,1.12-.29,1.48-1.34,1.52-3.76.14-7.5.72-11.27.67a4.52,4.52,0,0,0-1.89.14c-1.71.79-2.11.2-1.91-1.47.61-5.17-.21-10.32-.32-15.47,0-1.47.29-2,1.86-2.05m15.12,20.85a45.17,45.17,0,0,0,.73,7.42c.16.9-.15,1.33-1.17,1.06-2.5-.66-5.06-.48-7.88-.54a40.53,40.53,0,0,0-6.21.29c-1.17.24-1.49-.35-1.56-1.33-.13-2-.25-4.07-.42-6.1-.08-.85.3-1.13,1.08-1.17,4.78-.19,9.55-.41,14.33-.62.67,0,1.08.23,1.1,1m13.05,16.27a47.33,47.33,0,0,1,10.51,5.69,50.37,50.37,0,0,1,6.62,6,66.79,66.79,0,0,1,6.63,7.79c2.45,3.26,5.14,6.47,6.34,10.61.48,1.65-.12,1.82-1.2,1.88a59,59,0,0,1-5.95,0c-8.23-.41-16.45-1.16-24.68-.85s-16.62.24-24.93.21c-1.52,0-2.1-.35-2.15-2.05-.1-3.7-.43-7.41-.85-11.09-.57-5.07-.12-10.09.3-15.12a45.8,45.8,0,0,0,.14-5.37c-.05-1.23.46-1.7,1.58-1.91,1.48-.28,2.94,0,5-.17a76.74,76.74,0,0,1,22.68,4.38M406,427.11c-2.58.9-4.68,2.57-7,3.87-2.81,1.56-3.22,1.58-4.6-1.25a172.8,172.8,0,0,1-7.23-16,6.11,6.11,0,0,1-.13-.91c0-1.73,1.85-2,2.9-2.48a32.45,32.45,0,0,0,5-3.08c.83-.61,1.29-.66,1.79.27,1.38,2.58,3.64,4.69,4.87,7.2,1.62,3.27,4.1,6,5.43,9.39.59,1.51.15,2.58-1.05,3m-73.18,5.42c-.06-1.19.19-1.75,1.57-2a51.06,51.06,0,0,0,7-2c1.19-.4,1.55-.11,1.79,1.07a167.38,167.38,0,0,1,2.73,18.92c.13,1.66,0,2.7-2.06,3-2.64.34-5.22,1.12-7.83,1.65-2.11.42-2.52.06-2.59-2-.05-1.28-.12-2.56-.18-3.84.18-4.92-.19-9.82-.42-14.73m13,3.34a31,31,0,0,0-1.27-6.77c-.29-1.21.05-1.72,1.18-1.83,3.29-.33,6.3-1.63,9.37-2.71,1.43-.51,1.91-.31,2.31,1.29,1.49,5.94,3.4,11.77,5.36,17.57.16.48.28,1,.3,1,.24,2.27-1.47,2.37-2.39,2.59-3.76.92-7.44,2.16-11.18,3.14-1.62.42-1.91-.65-2.06-1.77-.59-4.17-1.57-8.31-1.62-12.55m15.74-1.66c-1-2.9-2.5-5.62-2.74-8.75,0-.32-.09-.63-.11-.76,0-.89.13-1.49.95-1.6,3.86-.52,7.25-2.4,10.79-3.81,1.62-.65,1.88-.08,2.53,1.26,2.52,5.22,4.08,10.84,6.58,16.08a13.17,13.17,0,0,1,.64,2.19c.25.91-.21,1.26-1.06,1.41-3.17.6-5.9,2.3-8.69,3.78-1.56.82-3.23.53-4.76,1.16-.55.23-.8-.57-1.06-1.11-1.46-3.15-2-6.59-3.07-9.85m15.54-7.4c-.93-2.37-1.91-4.71-3-7-.33-.7-.41-1.38.43-1.78,3.33-1.59,6.56-3.41,10-4.68l.33-.13c.44-.08.58.2.69.51,2.27,6.24,5.47,12.07,8.13,18.13a1.48,1.48,0,0,1-.8,2.18,25.77,25.77,0,0,1-5.73,2.55,9.82,9.82,0,0,0-2.09.95c-3.19,1.72-3.71,1.64-4.57-1.85-.77-3.14-2.3-5.91-3.46-8.86m42-51.12c4.49,3.3,8.86,6.69,11.36,11.95a17.11,17.11,0,0,1,1.59,7.58c.06,3.68-1.27,7-2.49,10.37-2.18,6.1-6.59,10.11-11.6,13.73a80.38,80.38,0,0,1-7,4.72c-.79.46-1.31.6-2-.1a12.56,12.56,0,0,1-2.55-3.72c-.85-1.89-2.27-3.51-3.29-5.34a76,76,0,0,0-4.72-6.69c-1.34-1.9-1.23-2.54.62-3.87a24.25,24.25,0,0,0,4.26-3.83c.7-.82,1.23-.83,2-.15a112.09,112.09,0,0,1,13,12.73,14.74,14.74,0,0,0,2.34,2,.88.88,0,0,0,1.36-.13c.44-.6-.08-.85-.49-1.19-2.3-1.88-4.29-4.09-6.39-6.18a55.16,55.16,0,0,0-7-6.41c-1.69-1.2-3.28-2.65-3-5.15.1-1,.45-1.28,1.38-1.42,6.68-1,13.35-2,20-3a17.91,17.91,0,0,0,2.6-.63,1,1,0,0,0,.67-1.38c-.22-.62-.71-.59-1.27-.44a125.52,125.52,0,0,1-20.89,3.76c-.92.09-2.07.57-2.63-.46a4.68,4.68,0,0,1-.48-3.7c.37-.91,1.79-1.28,2.57-2.29,2.61-3.35,4.72-7.08,7.66-10.17a3.07,3.07,0,0,1,4.34-.53M401,369.81a39.59,39.59,0,0,1,12.85,3.39c1,.47.81,1,.21,1.57-3,2.84-4.72,6.57-7.28,9.7-.69.84-1.78,1.21-2.55,2-.41.42-.72-.24-.84-.68a9.36,9.36,0,0,1-.67-2.58c.1-4.13-1.49-7.87-2.63-11.7-.48-1.59.24-1.75.91-1.72M275.8,274.67c.32-10.56.62-19.12,1.26-27.67.38-5.1.37-10.23.84-15.32.44-4.76.79-9.53,1.48-14.29,1-6.93,2.34-13.85,2.65-20.89a39.93,39.93,0,0,1,6.67-21.25c1.7-2.47,3.28-5,5.7-7.08a49.29,49.29,0,0,0,4.18-4.34c2.38-2.59,5.5-4.11,8.38-5.94a34.36,34.36,0,0,1,15.57-5.21c3.28-.3,6.16.81,9.12,1.73a70.05,70.05,0,0,1,14.21,6.05c.28.16.65.24.83.46,2.78,3.43,6.27,6.11,9.44,9.11s3.92,6.65,4.89,10.4a20.74,20.74,0,0,0,1,2.87c2.13,5.06,2.93,10.42,3.61,15.81,0,.19-.06.43,0,.57,3.12,4.77,2.15,10.26,2.63,15.46.64,7.13.27,14.34,1.21,21.45a112.85,112.85,0,0,1,1.09,12c.25,9.66,2,19.29.83,29a33.65,33.65,0,0,0,.19,5.75A7.55,7.55,0,0,1,369,290c-.92.8-1.76,1.76-2.68,2.62-.31.29-.75.81-.67,1.09,1,3.39-2.15,4.36-3.8,5.72a42.78,42.78,0,0,1-10,5.58c-1.62.73-3.11,1.79-4.76,2.43a71.09,71.09,0,0,1-21.65,5.23c-4.61.27-9-.85-13.43-1.74-3.67-.75-7.33-1.62-10.91-2.69a50.55,50.55,0,0,1-15.56-7.5,38.87,38.87,0,0,0-3.93-2.22c-3.74-2.09-4.45-5.57-5-9.19a86.24,86.24,0,0,1-.93-14.65m-2,29.37c1.27-1.18,2.94-1.76,4.12-3.09.53-.59,1.36-.5,2.06.14,4.81,4.41,10.57,7.18,16.6,9.46a95.86,95.86,0,0,0,25.84,5.87c5.74.49,11.44-.63,17-2.28a88.77,88.77,0,0,0,9.61-3.21c3.52-1.5,6.63-3.81,10.19-5.14a22.85,22.85,0,0,0,7.81-5.31,7.73,7.73,0,0,0,1.3-1.38c1.1-1.74,1.65-1.87,3.3-.59a14.93,14.93,0,0,1,2.63,2.45,3.49,3.49,0,0,1,.23,4.42,10.92,10.92,0,0,1-3.92,4c-1.13.58-1.58,2.37-2.52,2.75-2.87,1.15-4.23,4-6.78,5.39a59.66,59.66,0,0,1-7.39,3.94,57.81,57.81,0,0,1-8.9,2.18A120.41,120.41,0,0,1,325.33,326l-1,0a98.5,98.5,0,0,1-37.89-8.57c-2.34-1-4.62-2.46-6.94-3.55-2-.93-3.43-2.38-5.2-3.48-3.13-1.94-3.2-3.88-.53-6.36m-19.27,63.65q3.3-9,6.52-18c2.67-7.48,5.78-14.82,9-22.06,1.37-3.07,2.79-6.13,4.12-9.22.71-1.63,1.4-1.61,3.17-.89,3.47,1.42,6.53,3.74,10.29,4.58a14,14,0,0,1,3.41,1.71c4.35,2.4,9.24,3.26,13.87,4.83,5.56,1.89,11.36,2.41,17.09,3.24a34.29,34.29,0,0,0,8.22-.12c5.33-.54,10.76-.39,16-1.86a54.69,54.69,0,0,0,13.47-5.82c1.47-.89,3-1.68,4.47-2.54,3.12-1.82,5-4.9,7.55-7.32,1.67-1.59,1.95-1.67,3.11.37,2.14,3.75,4.7,7.26,6.34,11.31.88,2.17,2.25,4.13,3.31,6.24a140.37,140.37,0,0,1,8.26,19.71c2.24,7,4.51,13.93,6.17,21.09,1.18,5.09,2.47,10.16,3.48,15.28A56.11,56.11,0,0,1,403.5,397c.06,1.74-1.32,3.09-2.71,4.15a109.52,109.52,0,0,1-11.43,7.9c-2.31,1.33-4.63,2.63-7,3.79-3.31,1.59-6.74,2.94-10,4.56-2.37,1.16-5,1.35-7.39,2.43-6.93,3.14-14.44,4.48-21.63,6.84a105.45,105.45,0,0,1-11.15,2.59c-1.31.27-1.49,1-1.24,2.08a6,6,0,0,1-.07,3.2c-3.79-3.76-8.4-6.22-12.75-9a11.36,11.36,0,0,1-4.53-5.9c-1-2.45-1-5.09-1.83-7.58a3.79,3.79,0,0,0-3.64-2.82c-2.87-.16-5.48.52-7.34,3.43-2.81,4.38-2.79,8.88-1.41,13.58.34,1.16-.08,1.11-1,1.07-4.28-.18-8.57-.55-12.83.19-2.6.45-5.09,1.07-7.11,2.94a3.8,3.8,0,0,0-1.28,3.05c0,2.9,2.73,5.7,5.48,6.59,5.26,1.71,10.66,1.8,16.06,2.08,1.16.06,1.58.29,1.52,1.67a15,15,0,0,0,6.88,13.54,9.89,9.89,0,0,0,5.49,1.42,36.25,36.25,0,0,0,13.26-2.61c2.28-.89,3.27-3.14,4.47-5.1.23-.38.36-.82.56-1.22s.32-.82.77-.73.45.67.45,1.1c0,.64-.05,1.27-.07,1.91-.1,3,.19,3.35,3.12,2.72,4.56-1,9.21-1.41,13.75-2.37,3-.64,5.91-2.12,8.95-2.73,5.8-1.17,11-3.95,16.59-5.7a30.45,30.45,0,0,0,6.35-3c1.57-.95,3.44-1.28,5.14-2,5.28-2.26,10.32-5,15.45-7.54A65.45,65.45,0,0,0,407,428a287.72,287.72,0,0,1-2.15,32.9c-.54,4.5-.91,9-1.73,13.5a28.23,28.23,0,0,0-.75,7.33c.26,3.53-2.06,6.2-3.33,9.23-1.85,4.38-5.39,6.27-9.65,7.57s-8.19,2.47-12.52,2.56c-.38,0-.81,0-1,.49-.31,1-1.2,1.09-2,1.23-5.33,1-10.64,2.3-16,2.75-3.25.27-6.54.41-9.81.63-5.16.35-10.31.89-15.47,1.11a117.4,117.4,0,0,1-16.87-.46q-5.61-.59-11.25-1a49,49,0,0,1-8.84-1.61c-2-.55-4.52-1.17-6.15-.72-4.81,1.31-8.69-1.23-13-2l-2.25-.45c-.37-.08-.92,0-1.09-.25-1.58-2.17-4.35-1.39-6.34-2.66s-4.64-1.81-7-2.71a47,47,0,0,1-17.34-12.08,6.21,6.21,0,0,1-1.63-4.89,12.34,12.34,0,0,0-.45-2.6,145.79,145.79,0,0,1-.63-24.72c.3-6.13.34-12.27,1-18.39.92-8.9,2.23-17.76,3.7-26.6a133.07,133.07,0,0,1,3.32-16.52c2.19-7.3,4-14.71,6.64-21.89M305,439.58a2.15,2.15,0,0,0-2.07-1.08,85.44,85.44,0,0,1-16.2-1.25c-1.73-.27-3.22-1.2-4.86-1.72-.77-.24-1.05-1.3-1-2.09s.79-1.24,1.57-1.47c3.51-1,7.1-.79,10.68-.83.9,0,1.79,0,2.69,0v.09c3.14,0,6.27,0,9.41,0,.6,0,1.28.23,1.63-.61a1.39,1.39,0,0,0-.58-1.83c-4.75-3.45-4.4-8.17-3.22-13.08a5.48,5.48,0,0,1,2.66-3.16c1.19-.77,2.26-.18,2.67,1.43s.68,3.39,1.08,5.07c.68,2.82,1.55,5.93,3.88,7.46s4.45,3.38,6.94,4.64a33,33,0,0,1,7.2,5.3,8,8,0,0,1,1.74,8.84c-.62,1.3-.9,2.69-1.55,4-1.9,3.87-5.54,4.45-8.94,5.53a11.7,11.7,0,0,1-10.78-1.42c-3.11-2.13-5-8.93-3-12.13a1.43,1.43,0,0,0,.11-1.74m-61.19-52.34c3.37.49,3.44.5,2.48,3.81-1.71,5.95-2.58,12.08-3.81,18.07-2.26-.77-4.56-1.1-6.57-2.35-2.27-1.41-2.4-1.37-1.23-3.68,2.54-5,4.54-10.25,7.3-15.15.54-.95,1.07-.81,1.83-.7m-14.42-4.33c.09-.49.22-.86.89-.88a18.59,18.59,0,0,0,3.16,1.05c2.24.89,4.4,2,6.62,2.93.68.3,1.09.39.57,1.32a128.89,128.89,0,0,0-7.1,13.9l-.15.35c-1.41,3.42-1.38,3.36-4.59,1.37-2.27-1.41-4.69-2.56-7-4-1.65-1-1.67-1.7-.38-3.19a53.6,53.6,0,0,0,7.52-11.44,5.24,5.24,0,0,0,.42-1.45m-10.26-7.7c2.34,2.22,5.29,3.4,8,5,1.36.82,1.81,1.37.5,2.65-2.12,2.09-2.75,5.14-4.61,7.45-1.07,1.33-1.89,2.86-2.83,4.3a4,4,0,0,1-2,1.61c-.57-.38-1.16-.51-1.7-.91-3.71-2.74-7.49-5.41-11.28-8.06-.74-.51-.65-.82-.18-1.5,1.65-2.38,4-4.1,5.87-6.28,1.15-1.35,2.41-2.62,3.63-3.92,1.76-1.87,2.85-2.08,4.67-.36m-12.6-11.59a68.06,68.06,0,0,0,8.66,8.49c-2.62,2.91-5.12,5.58-7.5,8.36-1.29,1.5-3.06,2.5-4.15,4.2-.42.65-.91.19-1.3-.09-3.92-2.85-7.14-6.5-10.86-9.58-.91-.76-.1-1.26.39-1.67,2.19-1.82,4.44-3.57,6.81-5.17a66.72,66.72,0,0,0,6.18-4.67c.85-.73,1.14-.57,1.77.13m-8.12-9.11c1.69,2.15,3.51,4.19,5.3,6.25a1.26,1.26,0,0,0,.49.3,1.29,1.29,0,0,1-.72,1.13c-1.77,1.37-3.58,2.69-5.33,4.08-2.62,2.07-5.6,3.72-7.8,6.3-.53.62-1,.45-1.46,0-2.74-3.1-5.47-6.2-8.16-9.34-.63-.74.06-1.15.63-1.46,3.19-1.74,6.33-3.58,9.6-5.16a39.47,39.47,0,0,0,4.52-2.47c1.13-.74,2-.8,2.93.4m-7.24-9.76c1.41,2.17,2.78,4.37,4.23,6.52.41.61.32.77-.3,1.1q-5,2.65-10,5.41c-1.39.77-2.73,1.64-4.11,2.44s-2.35.9-3.12-.74c-1.72-3.67-4.31-6.88-5.82-10.69-.33-.83-.29-1.05.59-1.27A98,98,0,0,1,184.17,345c2-.26,3.82-1.06,5.55-1,1-.29,1.14.29,1.41.7m-62.74-31.63c.54-1.22,1.86-1.46,3.08-1.4,3.39.15,6.77.43,10.16.56a135.86,135.86,0,0,0,15-.46,40.17,40.17,0,0,1,7.27.42c2.23.23,2.25-.08,1.59-2.15-.49-1.52-1.65-2-2.73-2.63a10.11,10.11,0,0,1-2-15.54c1.87-1.88,4.63-1.54,6.16.93a16.08,16.08,0,0,1,2.44,6.39c.62,4.58,3.81,7.18,7.7,9a14.19,14.19,0,0,1,5.59,3.84c.69.87,1.92,1,2.69,1.79a20.62,20.62,0,0,1,2.78,4.71c2.24,4.25,2.84,8.7.17,13.12a2.4,2.4,0,0,1-2.45,1.38c-3.66-.23-7.18,1.08-10.84,1.16-1.78.05-3.57.19-5.35.29-6.67.47-12.12-2.19-16.75-6.67-1.73-1.68-3.73-3.36-3.78-6.17,0-.8-.57-1.22-1.43-1.21a69.68,69.68,0,0,1-11.81-1.23,18.34,18.34,0,0,1-6.45-2.74,2.51,2.51,0,0,1-1-3.36" transform="translate(-124.82 -149.42)"/><path class="cls-2" d="M289.91,250.48c4.75-3.06,4.75-8.27,4.41-12.64-.53-6.64-1-13.13-.24-19.82.86-7.73,3.22-15,5.94-22.09a51.1,51.1,0,0,1,7.59-12.68,66.61,66.61,0,0,1,7.32-7.79,29.68,29.68,0,0,0,5.17-5.9c.84-1.34.67-3.6-.32-4.44a7.24,7.24,0,0,0-6.91-.77c-2.64,1.08-4.67,3.08-7.11,4.42a14.88,14.88,0,0,0-5.59,5c-1.87,3.1-5.13,4.91-6.61,8.26-.87,1.95-2.51,3.47-3.51,5.43a53.53,53.53,0,0,0-4.37,11.38c-1.33,5.38-3,10.73-3.19,16.29-.26,7.92-.13,15.85-.16,23.78h-.53c.3,3.34.1,6.69,1.41,10s4.28,3.17,6.7,1.62m-5.45-34.7c.18-2.09.85-4.08,1.12-6.17.31-2.45.92-4.86,1.06-7.37a22.7,22.7,0,0,1,1.88-6.59,61.75,61.75,0,0,1,7.76-14.19c3-4.18,7-7.45,11-10.64,2-1.57,4-3.12,6-4.64a2.94,2.94,0,0,1,3.05-.61c1.06.49.8,1.64,1.07,2.6a9.12,9.12,0,0,1-2.91,5.17c-2.25,2.06-5,3.51-7.08,5.77-1.5,1.63-3,3.23-3.66,5.48-.46,1.51-1.75,2.63-2.4,4.12-2.67,6.12-5.63,12.15-7.19,18.68a107.76,107.76,0,0,0-2.85,18.93,84.11,84.11,0,0,0,.45,14.54,10.81,10.81,0,0,1-.85,5.82,3,3,0,0,1-.82,1.24c-2.51,2.09-4.13,1.72-5.28-1.35-1-2.58-.68-5.32-.81-8a170.12,170.12,0,0,1,.48-22.8" transform="translate(-124.82 -149.42)"/><path class="cls-2" d="M345,290.26c4.16-1.7,6.43-4.95,8.08-9.06,2.4-6,.33-13.88-6.05-17-2.43-1.19-5-2.09-7.51-.88-2.06,1-4.18,2.55-3.73,5.53,0,.17-.11.36-.17.54-1.11,3.17-1.5,6.46-1.7,11.23-.22,2.27,1.19,5.16,3.87,7.74,2,1.92,4.63,2.95,7.21,1.9m-9.11-11.18a56.26,56.26,0,0,1,2.29-12.39c.41-1.37,2.8-2.14,4.84-2,4.92.44,8.84,5,9,10.27.18,5.66-1.84,11.18-7.23,13.42a5.84,5.84,0,0,1-6.7-2.11c-1.29-2.22-2.46-4.5-2.21-7.23" transform="translate(-124.82 -149.42)"/><path class="cls-2" d="M312.84,266.53a4.29,4.29,0,0,0-1.84-2.38,8.18,8.18,0,0,0-9.4-.31c-5.27,3.31-7.52,8.41-7.48,15.23a21.24,21.24,0,0,0,.61,5.65c1,5,5.06,8.32,10.32,5.38a13.64,13.64,0,0,0,3.43-3.26c3.72-4.27,6.92-8.79,5.72-14.94-.36-1.81-.88-3.59-1.36-5.37M312,277.91a8.18,8.18,0,0,1-1.67,3.61c-1.86,2.2-3.05,4.94-5.61,6.58-3.33,2.14-5.83,1.59-7.61-2.36a14.84,14.84,0,0,1-1.33-7.25c-.26-3.54,1.45-6.37,2.89-9.39s3.66-4,6.56-4.54c3.47-.61,5.5.65,6.37,4.06a20.12,20.12,0,0,1,.4,9.29" transform="translate(-124.82 -149.42)"/><path class="cls-2" d="M364.62,619.19c-.21.14-.48.24-.59.44-.24.42.14.69.36,1,1.67,2.26,3.66,4.22,5.49,6.33,3,3.46,5.81,7.09,9.21,10.21a29.2,29.2,0,0,1,4.75,5.43,21.92,21.92,0,0,0,4.06,4.21c.28.26.65.45,1,.1a.74.74,0,0,0,.09-1,11.72,11.72,0,0,0-1.78-2.22c-3-2.45-4.9-5.8-7.75-8.33a57.44,57.44,0,0,1-5.8-6.27c-2.38-2.85-5.16-5.37-7.25-8.49a3.14,3.14,0,0,0-1.81-1.35" transform="translate(-124.82 -149.42)"/><path class="cls-2" d="M282.44,619.94c-.59-.29-1,0-1.29.49-.8,1.06-1.18,2.32-2.13,3.35a103,103,0,0,0-7.89,10,67.82,67.82,0,0,0-5,7.33c-1.34,2.53-2.92,4.93-4.36,7.4-.24.41-.56,1,.16,1.27.55.2.9-.09,1.11-.7,1.06-3,3-5.59,4.78-8.2a83.6,83.6,0,0,1,7-9.42c2.49-2.81,4.8-5.82,7.25-8.7.43-.5,1.06-1,1.06-1.63a1.36,1.36,0,0,0-.71-1.2" transform="translate(-124.82 -149.42)"/></svg>