<svg id="Layer_1" data-name="Layer 1" xmlns="http://www.w3.org/2000/svg" viewBox="0 0 426.27 430.32"><defs><style>.cls-1{fill:#fff;}.cls-2{fill:#010101;}</style></defs><path class="cls-1" d="M154.81,256.81a18,18,0,0,0,3.8,6.26c1.52,1.51,2.57-.07,3.77-.35s.54-1.27.36-2c-.39-1.67-1.15-3.2-1.6-4.86-.94-3.46-1.79-7-3.53-10.18a2.43,2.43,0,0,0-2.41-1.36c-3,0-4.17,1.59-3.64,4.4s2.15,5.43,3.25,8.13" transform="translate(-61.3 -238.02)"/><path class="cls-1" d="M166.46,262a2.7,2.7,0,0,0,3.45-2.11,51.66,51.66,0,0,0,2.28-12.57c0-.32,0-.64,0-1,0-2.36-.26-2.65-2.53-2.07a5.82,5.82,0,0,0-4.38,4.29,32.9,32.9,0,0,0-.64,11.58c.1,1.18.73,1.62,1.81,1.83" transform="translate(-61.3 -238.02)"/><path class="cls-1" d="M239.82,345.92c.21,2.23.22,2.21,2.72,2,4.4-.3,8.8-.66,13.2-.76,12.13-.29,24.26-.46,36.4-.65.89,0,1.2-.36,1.66-1.12.9-1.44-.18-2.59-.22-3.87-.29-8.68-.49-17.36-1.17-26-.88-11.33-1.74-22.66-2-34,0-2.49.05-5,.1-7.47,0-1-.4-1.62-1.48-1.46-3.93.58-7.87-.12-11.82.17-7,.52-14,.73-21,1.3-6.35.51-12.67,1.36-19,2-2.86.28-3.64,1-3.26,3.87.85,6.4,1,12.87,1.81,19.26.89,7.18,1.06,14.4,1.72,21.58.78,8.39,1.6,16.78,2.38,25.18m11.48-5.32c-2,.25-4.05.44-6.07.7-1.13.15-1.63-.3-1.77-1.4-.21-1.64-.51-3.28-.77-4.91,0-.13-.09-.26-.06-.38.31-1.18-1.67-2.16-.72-3s2.78-.57,4.3-.63c.65.39,2.14-.56,2.1.72s-1.46.61-2.25.56c-1.58-.09-2.1.55-1.76,2a10.61,10.61,0,0,1,.17,1.13c.51,4.45.5,4.41,5,4.13,1-.07,1.33-.34,1.13-1.37a26.63,26.63,0,0,1-.63-5.49c0-.36-.08-.84.44-.9a.73.73,0,0,1,.78.68c.45,2.38.9,4.76,1.27,7.15.12.74-.58.92-1.15,1m-6.64-27.12c-2.58.64-3.34,0-3.45-2.69-.07-1.53-.07-3.07-.25-4.59s.42-2,1.74-2.14a110.21,110.21,0,0,1,12-.52c.64,0,1.28,0,1.92,0,3.13.16,3.13.16,2.79,3.33a2.32,2.32,0,0,1-.07.38c-.43,1.5.81,3.57-.75,4.46-1.27.72-3.11.44-4.69.59a59.28,59.28,0,0,0-9.28,1.15m43.89,17.25c.15,2.41.39,4.82.51,7.23a2.75,2.75,0,0,0,1.24,2.23l-9.4.52c-.82,0-1.22-.22-1.41-1.12-.59-2.95,0-6-.72-8.92-.16-.69.06-1.35.89-1.4a34.83,34.83,0,0,1,7.57-.09c.95.15,1.26.66,1.32,1.55m-7.48-55.06c.24-.45.68-.1,1-.06a14.37,14.37,0,0,1,4.83,1c1.49.71,2.28,3.09,1.73,5.42-.6,2.51-2.18,4.18-3.9,4.11-2.29-.09-3.87-2.16-3.79-5a5.82,5.82,0,0,1,.75-3.31c.27-.39.67-.93-.09-1.26-.47-.2-.85-.44-.56-1m.71,28.22a9.27,9.27,0,0,0,3.75-.54c1-.41,1.83.07,1.66,1.08a34,34,0,0,0,0,4.95c0,1.55-.55,2.29-2.31,2.16-2.46-.2-4.95-.11-7.43-.14v0c-2.55,0-5.09-.09-7.64-.09-.86,0-1.36-.22-1.21-1.2a9.89,9.89,0,0,0,.08-1.33c.11-4.23-.08-4.46,4.86-4.91,2.71-.25,5.47.05,8.2.06m-10.64-26.8c2.29.07,4.13,2.11,4,5a4.43,4.43,0,0,1-2.21,3.79,3.18,3.18,0,0,1-4.83-1.9,13.45,13.45,0,0,1-.23-2.84c0-2.45,1.39-4.1,3.31-4m-4.45,55.3c.08-1.34,1.22-1.82,2.34-2.12,1.91-.51,3.8.1,5.69.19.77,0,.73.68.76,1.29.16,2.54.28,5.09.59,7.61.18,1.43-.43,1.65-1.59,1.57-.89-.06-1.78,0-2.67-.05v0c-.51,0-1,0-1.53,0-2.76.07-3.27-.34-3.48-3.12a43.31,43.31,0,0,1-.11-5.34m-3.71.19c0,1,0,2,0,3.05,0,4.48,0,4.48-4.36,5.06-.56.07-1.12.21-1.68.33a1.55,1.55,0,0,1-2-1.45c-.25-2.32-.82-4.61-.39-7,.15-.85.41-1.23,1.17-1.43,2.16-.59,4.3,0,6.44.15.7,0,.87.7.88,1.29m-8.44-53.19a9,9,0,0,0,.94-1.2c.83-1.36,2-1.15,2.91-.35a7,7,0,0,1,2.53,5.13,5,5,0,0,1-1.18,3.33c-1.29,1.45-2.6,1.71-4.19.67-3-2-3.38-4.9-1-7.58m-16.88,3.24c.35-1.5,1.37-2.65,1.75-4.15.24-1,3.28-1,4.11.1a9.76,9.76,0,0,1,2.24,4.51c-.08,2.64-.79,4-2.6,4.66-1.43.51-2.83.86-4-.47a4.83,4.83,0,0,1-1.46-4.65" transform="translate(-61.3 -238.02)"/><path class="cls-1" d="M249.39,247.28c6.66-.49,13.32-.94,20-1.41,0,0,0,.07,0,.1,1.27-.05,2.55-.12,3.82-.16s2.28-.38,2.3-1.92-1-1.8-2.28-1.77c-7.14.21-14.29.34-21.43.54-3.15.09-3.1.14-3.8,3.16-.31,1.35.28,1.54,1.4,1.46" transform="translate(-61.3 -238.02)"/><path class="cls-1" d="M198.15,343.89c1.37-.46,1.92-1.22,1.22-2.58a39.07,39.07,0,0,1-2.59-7.37c-2.06-7.28-4.11-14.56-6.47-21.73-1-3.11-1.24-6.4-2.5-9.41a111,111,0,0,1-4.93-16.44c-.5-2-.94-2.14-2.72-1.13-1,.56-1.87,2-2.89,1.63-1.75-.7-3,.28-4.48.57-4,.79-7.57,2.53-11.19,4.22-.47.22-1.46.26-1,1.25a32.75,32.75,0,0,1,2.75,7.82c.91,4.23,2.8,8.16,4,12.32,1.05,3.66,2,7.35,3.24,11s3,7.2,4,10.91c1.29,4.87,3.09,9.53,4.77,14.25.28.78.49.84,1.34.62,1.89-.51,3.47-2,5.58-1.78,1.33-.07,2.4-.83,3.61-1.24,2.76-.94,5.49-1.95,8.26-2.88" transform="translate(-61.3 -238.02)"/><path class="cls-1" d="M156.92,265a1.62,1.62,0,0,0-.27-.5c-3.53-3.83-7.27-7.32-13.05-7.39a5.73,5.73,0,0,0-3,.57,1.45,1.45,0,0,0-.93,2.28c1.16,1.73,1.73,3.91,3.43,5.19a22.44,22.44,0,0,0,10.11,4.53c.76.11,4-3.94,3.76-4.68" transform="translate(-61.3 -238.02)"/><path class="cls-1" d="M257.57,285.89c1.64-.2,1.63-1.51,1.6-2.77,0-2-1-3.78-2.08-3.78s-2.27,2-2.26,3.36,1.69,3.33,2.74,3.19" transform="translate(-61.3 -238.02)"/><path class="cls-1" d="M172.83,285.49c1.8-.49,1.34-2.14,1.75-3.25.83-2.19,1.74-4.57,1.14-6.87-.51-1.94-1.37-3.84-1.7-5.83-.73-4.27-4.38-5.77-8.17-6-2.29.18-4.6,1.6-6.88,3.27-2.75,2-3.46,5-3.34,7.94.15,3.72,1.28,7.22,5,9.28a36.68,36.68,0,0,0,5.16,2c2.43.92,4.73.18,7.08-.47" transform="translate(-61.3 -238.02)"/><path class="cls-1" d="M284.82,284.7c1.21.23,1.22-1.2,1.69-1.95a3.55,3.55,0,0,0,.52-2c.05-1.61-.67-3.21-2-3.47s-1.78,1.51-2.13,2.71a4.86,4.86,0,0,0-.21,2.06,3.05,3.05,0,0,0,2.18,2.65" transform="translate(-61.3 -238.02)"/><path class="cls-1" d="M254.64,305.14c-.57,0-1.14,0-1.64,0a25.7,25.7,0,0,0-6.74.15c-5.24.9-4.06-.47-4.09,4.83,0,1.29.58,1.63,1.76,1.62,2.61,0,5.16-.7,7.79-.63,1.65,0,3.31-.23,5-.29,1.1-.05,1.55-.53,1.63-1.65.31-3.87.35-3.87-3.67-4" transform="translate(-61.3 -238.02)"/><path class="cls-1" d="M284,330.33c-3.61.56-3.61.56-3.66,4.13,0,1.15.08,2.29.14,3.44,0,.69.28,1.28,1.11,1.29,1.85,0,3.69,0,5.54,0,.65,0,1.31-.27.91-1-1-1.78-.7-3.73-1-5.61-.35-2.71-.34-2.71-3.09-2.29" transform="translate(-61.3 -238.02)"/><path class="cls-1" d="M237.45,275.07c2.25-.35,4.49-.79,6.8-.92,3.88-.21,7.74-.67,11.62-.93,6.67-.44,13.3-1.34,20-1.38,3.83,0,7.66-.16,11.48-.35,2.09-.1,2.22-.43,1.11-2.26s-2.13-3.61-3.28-5.28a145.9,145.9,0,0,1-8.87-15.5,1.89,1.89,0,0,0-2.1-1.14c-4.78.2-9.57,0-14.34.53l-11.25.85a2.25,2.25,0,0,0-2.22,2c-1.09,4.47-3.73,8.27-5.44,12.48-1.44,3.53-3.31,6.88-5,10.32-.24.5-.52,1.12,0,1.6s.93.11,1.44,0m36.95-23.13c.71-.08,1,.42,1.16,1-.2.74-.57,1.36-1.38,1.35a1,1,0,0,1-1-1.12,1.37,1.37,0,0,1,1.26-1.24m-13.55,1.43c.15-.69.47-1.19,1.26-1.09.62.08.88.43.71,1.13s-.33,1.16-1.18,1c-.55-.1-.92-.37-.79-1" transform="translate(-61.3 -238.02)"/><path class="cls-1" d="M200.17,374.66c1.05-.68,1.92-1.63,3.27-1.85.53-.09.71-.56.44-1.2a77.55,77.55,0,0,1-3.07-9c-1.39-5.21-3.8-10.11-5-15.4-.19-.81-.62-.86-1.26-.59a46,46,0,0,1-5.7,2.15.8.8,0,0,0-.64,1c.05.25.1.5.13.76.16,1.65,1.41,2.83,1.89,4.36,2.05,6.48,5,12.63,7.41,19,.56,1.45,1.4,1.49,2.51.76" transform="translate(-61.3 -238.02)"/><path class="cls-1" d="M270.24,308.36c0,1.21.84,1.36,1.86,1.34,2,0,3.95,0,6.53.07a51.22,51.22,0,0,0,5.52.16c1.14,0,1.67-.4,1.65-1.54,0-.64,0-1.28,0-1.91,0-.8-.31-1.08-1.16-1.07-3.06,0-6.13-.13-9.19-.12a28.69,28.69,0,0,0-3.79.41c-1.61.24-1.48,1.52-1.45,2.66" transform="translate(-61.3 -238.02)"/><path class="cls-1" d="M256,335.85c.15,3.5.16,3.38,3.64,3.54,1.82.09,2.76-.16,2.24-2.21a16.51,16.51,0,0,1-.33-3c.12-1.71-.44-2.16-2.18-2-3.51.33-3.52.22-3.37,3.68" transform="translate(-61.3 -238.02)"/><path class="cls-1" d="M267.83,334.44c0,.41,0,.86,0,1.3.22,3.55.22,3.55,3.71,3.74.64,0,1.28,0,1.9.14,1.19.19,1.59-.43,1.33-1.43a40,40,0,0,1-.79-5.65c0-.44,0-1.07-.49-1.14a9.46,9.46,0,0,0-4.85.54c-1.31.5-.63,1.61-.79,2.5" transform="translate(-61.3 -238.02)"/><path class="cls-1" d="M271.26,284.8c1.8,0,2-1.61,2.26-3.12-.15-1.3-.46-2.62-2.08-2.91-1.16-.21-2.25,1.16-2.11,2.86.11,1.3-.09,3.17,1.93,3.17" transform="translate(-61.3 -238.02)"/><path class="cls-1" d="M241.68,286.44c1.53-.13,2-1.3,2.29-2.44,0-1.5-1.61-4.41-2.3-4.38-.86,0-2.3,2.43-2.34,3.92a1.37,1.37,0,0,0,0,.57c.5,1.06.75,2.47,2.35,2.33" transform="translate(-61.3 -238.02)"/><path class="cls-1" d="M202.34,410.48a3.82,3.82,0,0,1-2.66-1c-1.37-1.16-1.63-.31-1.93.85q-1.83,6.93-3.7,13.85c-.86,3.2-.87,3.19,2.44,4,2.39.62,2.89.33,3.5-2.15.75-3,1.17-6.13,2.44-9,.67-1.51,1.09-3.13,1.61-4.68-.11-1-.22-2-1.7-1.92" transform="translate(-61.3 -238.02)"/><path class="cls-1" d="M183.71,430.06c-2,6.12-4.43,12.06-6.49,18.15-2.12,6.26-4.75,12.36-7.08,18.55-.53,1.42-.57,3.05-1.21,4.4a99,99,0,0,0-4.52,10.91c-.56,1.71,0,2.22,1.4,2.45a31.43,31.43,0,0,1,7.22,2.34c3.76,1.58,7.87,2.1,11.46,4.09a3.45,3.45,0,0,0,1.1.3.7.7,0,0,0,.86-.56c1.3-4.32,3.32-8.39,4.7-12.67,2.3-7.15,4.35-14.38,6.58-21.55,1.67-5.37,3.19-10.8,6.1-15.72.88-1.48,1.06-3.38,1.55-5-.18-1.5-.71-2.72-2.17-3.18-5.08-1.59-9.93-3.9-15.27-4.73-2.67-.42-3.36-.4-4.23,2.26" transform="translate(-61.3 -238.02)"/><path class="cls-1" d="M172.52,513.27c-1.74.51-.77,2-.9,3.06-.07.56,0,1.14,0,2.28a16.7,16.7,0,0,0,1.41,8.6c.78,1.83,2.31,2.8,3.83,2.47,2.51-.55,3.47-1.66,3.38-3.95-.15-3.91-1.82-7.39-3.29-10.89-.78-1.87-2.14-2.23-4.39-1.57" transform="translate(-61.3 -238.02)"/><path class="cls-1" d="M209.26,401.11c-.46-2.31-1-4.59-1.43-6.91-1-5.95-2.67-11.79-2.63-17.89,0-1.4-.34-1.95-1.95-1.4a15.89,15.89,0,0,0-7.52,4.81,20,20,0,0,0-4.67,12.63c-.1,3.24,1.28,6.34,2.68,9.16,1.25,2.51,3,5,6.06,6,2.53.83,4.89,2.17,7.64,2.21a8.58,8.58,0,0,0,1.52,0c2.48-.38,2.74-.75,1.9-3.09a38.76,38.76,0,0,1-1.6-5.49" transform="translate(-61.3 -238.02)"/><path class="cls-1" d="M177.65,490.29c.06-.34-.26-.55-.58-.66-2.8-1-5.53-1.71-8.42-.08s-4.33,4.14-5.42,7.1c-1.36,3.67.63,11.15,3.77,13.51,2.35,1.77,8.09,1.64,10.52-.14,3.3-2.41,3.57-6,3.91-10,.27-1.06-.32-2.28-1-3.57-1-2-3.3-3.46-2.82-6.17" transform="translate(-61.3 -238.02)"/><path class="cls-1" d="M249.42,564.55a7.18,7.18,0,0,1-7.6,1.73c-1.71-.59-2.83.13-2.94,2a16.57,16.57,0,0,0,.3,3c.58,4.16,1.16,8.32,1.78,12.48q1.14,7.74,2.35,15.46A58.61,58.61,0,0,0,246,608.6a12.64,12.64,0,0,0,4,5.72,1.55,1.55,0,0,0,2.08.07c1.91-1.2,2.5-2.63,2.52-5.14,0-4.44-.36-8.92.2-12.57a156.17,156.17,0,0,0-1.08-19.86,82.44,82.44,0,0,0-2-11.68c-.53-1.93-.87-1.93-2.36-.59" transform="translate(-61.3 -238.02)"/><path class="cls-1" d="M247.76,614.86c-.56-.61-.7-1.53-1.63-2-2.68,4.44-6.39,7.9-9.67,11.66-2.15,2.46-4.24,5-6.58,7.36a13.12,13.12,0,0,0-1.72,2.47c-1.71,2.75-3.73,5.3-5.52,8s-3.81,5.53-4.93,8.73c-.13.36-.36.72,0,1.06a.83.83,0,0,0,1.07,0c1.91-1.08,4.12-1.18,6.15-1.87,4.64-1.57,9.42-2.72,14-4.58,2.53-1,5-2.32,7.55-3.17,5.2-1.73,10.15-4.05,15.24-6a2.9,2.9,0,0,0,1.93-3.14,34.31,34.31,0,0,0-1.6-11.49c-1-2.8-2.47-5.43-3.07-8.4-.22-1.07-1-2.31-2.18-2.4-1-.08-.79,1.42-1.41,2-.21.21-.24.6-.43.84-2,2.59-4.46,3.72-7.13.84m6.78,7.35c.57.8-.32,1.22-1,1.67-6,3.92-11.2,8.92-16.6,13.64-2,1.73-3.76,3.7-5.89,5.29a54.89,54.89,0,0,0-6.87,6.24c-.21.22-.32.56-.71.54-.56-.11-.56-.47-.34-.85.31-.55.56-1.28,1.05-1.56,2.43-1.36,4-3.71,6.24-5.3,2.46-1.74,4.43-4.16,6.81-6,2.63-2.08,4.89-4.55,7.47-6.69s5.38-4.22,8-6.48c.55-.49,1.29-1.29,1.89-.46" transform="translate(-61.3 -238.02)"/><path class="cls-1" d="M244.24,564.82A6.28,6.28,0,0,0,248,563.7c.79-.56,2.14-1.41,1.74-2.27-.69-1.54.09-2.55.55-3.73.18-.49.42-1,0-1.42s-.89.18-1.26.43c-2.47,1.67-5,2.42-7.87.95-.62-.32-1.21-1.17-2-.36a2.62,2.62,0,0,0-.76,2.43,6.24,6.24,0,0,0,5.84,5.09" transform="translate(-61.3 -238.02)"/><path class="cls-1" d="M81.88,408.49a1.44,1.44,0,0,0-1.29-1.24c-1-.08-2,0-3-.05-3.68.11-7.34.32-10.8,1.77-.79.33-1.69.64-1.7,1.58s.86,1.13,1.63,1.33c.61.16,1.22.61,1.79.55,4.23-.46,8.51-.68,12.47-2.51.63-.29,1.13-.66.95-1.43" transform="translate(-61.3 -238.02)"/><path class="cls-1" d="M101.49,404.1c0-3-2.24-4.06-4.42-5.23a5.78,5.78,0,0,0-4.62-.37c-2.61.79-5.06,2-7.58,3-1.61.64-2.35,1.59-2,2.61.32,2.53-.1,4.5.87,6.14a15.32,15.32,0,0,0,7,6.28c2.12,1,4,.39,5.71-.87a10.93,10.93,0,0,1,2.14-1.58c2.53-1,1.57-4.22,3.64-5.46.1-.06,0-.49-.06-.74a22.31,22.31,0,0,1-.71-3.75" transform="translate(-61.3 -238.02)"/><path class="cls-1" d="M167.19,512c-1-.66-1.22.49-1.68,1.17-1.5,2.23-1.24,4.89-1.9,7.32a37.44,37.44,0,0,0-1.45,9.78c0,.8.15,1.55,1.15,1.68a1.71,1.71,0,0,0,1.93-1.19c2.22-4.71,4.38-9.44,4.11-14.84a7.46,7.46,0,0,1,.12-1.71c.65-2.19-1.43-1.66-2.28-2.21" transform="translate(-61.3 -238.02)"/><path class="cls-1" d="M78.47,404.29c1.72,0,2.93.45,3.15-1.5s-.84-2-2.07-2.25a11.26,11.26,0,0,1-3.61-1.64,31.75,31.75,0,0,0-5.58-2.82,2.48,2.48,0,0,0-3,.71c-.72,1,0,1.86.6,2.72,2.78,3.69,7,4,10.46,4.78" transform="translate(-61.3 -238.02)"/><path class="cls-1" d="M81.82,413.31c-2.49.56-3.46,3.09-5.67,4-1.89.76-2.71,2.6-3.79,4.13a2.83,2.83,0,0,0,3.36,4.13,27,27,0,0,0,5.15-2.8c2.69-1.65,3.48-4.29,4-6.5.16-2.59-1.1-3.38-3.05-2.94" transform="translate(-61.3 -238.02)"/><path class="cls-1" d="M164.35,511.27c.31-1.06-.06-1.23-1.17-1.06-2.06.31-3.77,1.46-5.69,2.09-2.76.9-5.5,2-7.43,4.37-.51.64-1.45,1.37-.85,2.09s1.37,1.86,2.6,2a17.28,17.28,0,0,0,6.28-2.14c1.54-1,2.37-2.65,3.91-3.59a5.89,5.89,0,0,0,2.35-3.77" transform="translate(-61.3 -238.02)"/><path class="cls-1" d="M189.17,392.2a.86.86,0,0,0-1.17-.89c-1,.36-2,.12-3,.35-5.78,1.41-11.73,1.42-17.6,2.06-1.32.14-1.67.63-1.41,1.86-.17,1.45.59,2.82.65,4.26.08,1.75.83,1.88,2.32,1.66,4.72-.71,9.41-1.62,14.18-2,2.07-.15,4.08-.91,6.21-.2,1,.34,1.56-.22,1.2-1.4-.58-1.88-1.39-3.7-1.36-5.73" transform="translate(-61.3 -238.02)"/><path class="cls-1" d="M163.67,392.52a2.74,2.74,0,0,1-1.6-3.2c.05-3.17,0-3.21-1.55-3.09-7.56.55-15.09,1.44-22.57,2.62-6.42,1-12.85,1.92-19.31,2.64-5.38.6-10.81.77-16.16,1.68-1.52.26-1.84.7-1.3,2.06a22.47,22.47,0,0,1,1.14,3.79c.36,1.83.27,3.69.72,5.48a55.61,55.61,0,0,1,1.6,10.18c.1,1.44.58,1.62,1.93,1.38a118,118,0,0,1,13-1.89c6.76-.39,13.45-1.29,20.17-2,6-.6,11.84-1.89,17.83-2.28a13.27,13.27,0,0,0,6.7-2.6,2.33,2.33,0,0,0,1.26-2c-.22-3.91-.73-7.79-1.27-11.67a1.28,1.28,0,0,0-.63-1.11" transform="translate(-61.3 -238.02)"/><path class="cls-1" d="M355.57,341c4.76,2.51,9.13,5.67,13.74,8.43.83.5,1.54.69,2.1-.28,1.44-2.47,3.2-4.73,4.64-7.19,3.41-5.86,7-11.62,10.85-17.18,4.1-5.85,8.25-11.67,12.39-17.5,1.87-2.64,3.78-5.25,5.66-7.88.33-.46.59-1,.85-1.41-.14-.71-.68-1-1.11-1.35-1.64-1.39-3.8-1.77-5.41-3.5-2.24-2.41-5.17-4.21-7.9-6.12-2.93-2.05-3.84-1.89-5.35,1.42s-3.75,6-5.72,9c-3,4.41-6.13,8.73-9.23,13.06-2.59,3.61-5,7.37-7.5,11-2.94,4.21-5.16,8.91-8.2,13.07-.44.59-.72,1.1.2,1.49.45.2,1.1.38.88,1s-.87.23-1.33.27c-.74.05-1.42.49-1.16,1.16a4.15,4.15,0,0,0,1.6,2.51" transform="translate(-61.3 -238.02)"/><path class="cls-1" d="M244.4,489.68c-1.71-1-2.29-.54-2.31,1.45,0,5.49-.64,10.95-1.12,16.4-.63,7.18-1.75,14.32-2.21,21.5a175.83,175.83,0,0,0-.52,21c.2,3.65,1.06,5,4.46,6.22a5.85,5.85,0,0,0,7.54-4c1.1-4.16,1.11-8.44,1.61-12.67.91-7.73,1.66-15.47,2.08-23.24.29-5.62,1.23-11.15,1.76-16.74.3-3,.26-6.08,1-9.33a12.79,12.79,0,0,1-12.29-.63" transform="translate(-61.3 -238.02)"/><path class="cls-1" d="M413.89,273.42c-.41.27-1,.47-.62,1.14.3.51.44,1.26,1.22,1.21a8.42,8.42,0,0,0,1.56-.32c2.12-.88,4.37-1.35,6.52-2.11,3.06-1.08,6.32-1.95,8.59-4.58.36-.41,1-.83.54-1.45s-.93-.09-1.43,0c-2.44.22-4.52,1.61-6.82,2.15a29.64,29.64,0,0,0-9.56,4" transform="translate(-61.3 -238.02)"/><path class="cls-1" d="M400.76,292.1c1.21.92,2-.32,2.95-.85a2.22,2.22,0,0,1,1.13-.06,3.34,3.34,0,0,0,1.81-.52c4.63-2.51,6.1-6.72,6.38-11.63.06-1-1.37-1.38-1-2.33.51-1.4-.44-2-1.24-2.7a29.29,29.29,0,0,0-3.88-2.79c-2.3-1.31-4.83-2-7.26-.55a12.05,12.05,0,0,0-6,10.65c-.12,1.89.8,3.56,1.32,5.3.86,2.89,3.7,3.87,5.84,5.48" transform="translate(-61.3 -238.02)"/><path class="cls-1" d="M404.93,267.64c0,1.25,1.06,1.44,2,1.7.71.2.85-.29,1-.83,1.26-5.45,2.86-10.83,2.82-16.5a6.07,6.07,0,0,0-.42-2.62c-.43-.9-.81-2-2.07-2s-1.37,1.23-1.64,2.08a39.08,39.08,0,0,0-1.59,13c0,1.71-.08,3.43-.05,5.15" transform="translate(-61.3 -238.02)"/><path class="cls-1" d="M409.87,271c.7.63,1.41,1.55,2.23,1.68s.25-.82.29-1.31c0-.16.17-.41.29-.42,2.12-.26,2.69-2.37,4.11-3.47,2.82-2.2,4.6-5.39,7.07-8a14.51,14.51,0,0,0,3.19-5.06c-.15-1,0-1.87-.74-2.32s-1.43.21-2.1.53c-1.86.9-3.07,2.64-4.76,3.69a16,16,0,0,0-2.93,2.57c-3,3.08-4.32,7.17-6.57,10.7-.3.47-.57.92-.08,1.36" transform="translate(-61.3 -238.02)"/><path class="cls-1" d="M482.84,388.24a21.77,21.77,0,0,0-8.59-1c-2.64-.27-5.46,1-8.41.82-1.38-.07-1.06,1-1,1.76s-.38,1.83,1.11,1.93a100.14,100.14,0,0,0,10.82,0c2.08-.09,4.23-.05,6.2-.92.61-.27,1.38-.63,1.3-1.46s-.77-.93-1.4-1.12" transform="translate(-61.3 -238.02)"/><path class="cls-1" d="M342.61,434.1c1.61,4.83,2.83,9.77,4.5,14.59,2.59,7.5,4.71,15.17,7,22.77.93,3,2.3,6,2.8,9.12a27.67,27.67,0,0,0,2.13,7.06c.34.75.69,1,1.43.71,3.76-1.58,7.8-2.17,11.73-3.15,2.73-.68,5-2.56,7.89-2.78,1-.08.69-.89.45-1.48-.49-1.25-1.13-2.44-1.52-3.71-1.32-4.19-3.54-8-4.9-12.17-1-3.15-2.77-6.07-3.63-9.24-1.33-4.86-3.66-9.32-5.18-14.09-1.07-3.33-2.71-6.49-3.41-9.92a41.64,41.64,0,0,0-1.77-5.44,1.36,1.36,0,0,0-1.73-1,13.24,13.24,0,0,0-2.46.66c-4,1.91-8.45,2.79-12.27,5.32-1.44.95-1.49,1.49-1.09,2.71" transform="translate(-61.3 -238.02)"/><path class="cls-1" d="M374.85,487.18a12.13,12.13,0,0,0-3.48-.18c-1.9,0-1.52,1.53-2.08,2.45a21.68,21.68,0,0,0-2.42,6.39c-1.33,5.29,0,9.51,4.7,12.51.41.27,1,.71,1,1.09.07,1.56,1.1,1.25,2.09,1.28,3.33-.87,7.21-.9,8.17-5.44a1,1,0,0,1,.51-.54c1-.52,1.25-1.55,1.55-2.51.93-3-.07-5.47-1.88-7.81-2.26-2.93-4.17-6.14-8.16-7.24" transform="translate(-61.3 -238.02)"/><path class="cls-1" d="M373.15,512.38a1.86,1.86,0,0,0-2.39,1,8.62,8.62,0,0,0-.69,1.56,110.69,110.69,0,0,0-2.2,11.39c0,.73.06,1.24.1,1.75a1.9,1.9,0,0,0,1.6,1.88,1.86,1.86,0,0,0,2-1.2,30.38,30.38,0,0,0,2.91-14.57c0-.9-.28-1.57-1.31-1.8" transform="translate(-61.3 -238.02)"/><path class="cls-1" d="M383.15,518.5a26.76,26.76,0,0,0-2.53-6.14c-.38-.56-.77-1.37-1.63-1s-2.2.37-2.27,1.45c-.08,1.35-.15,2.92.79,4a3.18,3.18,0,0,1,.54,3.22A24.38,24.38,0,0,0,382.59,532a1.27,1.27,0,0,0,1.87.24,2.81,2.81,0,0,0,1.32-3,43.12,43.12,0,0,0-2.63-10.75" transform="translate(-61.3 -238.02)"/><path class="cls-1" d="M381.44,510.43c2.2-.32,3.29,1.14,4.31,2.31A69.12,69.12,0,0,0,395.5,522a3,3,0,0,0,4.11-.58c.88-1.23.08-2.18-.73-3-3.58-3.66-8.05-6.1-12.37-8.68-2.66-1.59-3.65-1.29-5.07.75" transform="translate(-61.3 -238.02)"/><path class="cls-1" d="M378.77,384.22c.14-1.32-.44-1.69-1.75-1.73-5.48-.19-11-.16-16.44-.23-2.36,0-4.71,0-7.06-.13-.8,0-.87.16-.79.81.14,1.13.61,2.29.23,3.4-.6,1.76.29,2,1.67,1.9a60.21,60.21,0,0,1,6.3-.06,65.26,65.26,0,0,0,14.85-.34c1-.15,2.33.56,2.81-.26s.16-2.09.18-3.17a1.21,1.21,0,0,1,0-.19" transform="translate(-61.3 -238.02)"/><path class="cls-1" d="M349.4,377.4c-1.35-3.63-4.77-8.63-10.15-8.41-1.61.06-3-.21-3,2.09a9.82,9.82,0,0,1-.64,2.59c-1.12,4-2.59,8-3.29,12.15-.77,4.49-2.14,8.85-2.55,13.44-.26,2.94-.59,2.91,3.64,2.83,3.92-.55,8.9-1.62,12.84-5.29,4.36-4.05,5.84-9,4.63-14.89a30.14,30.14,0,0,0-1.48-4.51" transform="translate(-61.3 -238.02)"/><path class="cls-1" d="M344.43,400.58c-2.81.5-4.89,2.48-7.59,2.84-.93.12-.58,1-.35,1.56.4.93,1,1.8,1.39,2.72,1.4,3.05,2.45,6.24,3.62,9.38,1.29,3.44,2.9,6.77,3.27,10.48.11,1.06.71.7,1.2.53,1.8-.62,3.59-1.31,5.39-1.94.83-.28,1.09-.55.59-1.48a20.69,20.69,0,0,1-2.09-4.87A82.78,82.78,0,0,0,345.58,407a11.64,11.64,0,0,1-1.15-6.4" transform="translate(-61.3 -238.02)"/><path class="cls-1" d="M354.11,363.7c2.46-4.26,5.4-8.21,8.1-12.32a7.62,7.62,0,0,0,1.32-3.47c0-.45-1.44-1-2.25-1.5a20.48,20.48,0,0,1-1.81-1.07c-.74-.56-1.11-.29-1.73.31-2.09,2-3.27,4.65-4.72,7.09-1,1.69-2.37,3.25-3,5.07-.86,2.47-2.51,4.39-3.82,6.54a27.87,27.87,0,0,0-1.7,4.19c-.1.23,1.35,1.06,2.05,1.66a14,14,0,0,1,1,1.14c.17.18.36.33.65.6a3.09,3.09,0,0,0,1.32-1.8,12.7,12.7,0,0,1,3.64-5.5,4.36,4.36,0,0,0,.93-.94" transform="translate(-61.3 -238.02)"/><path class="cls-1" d="M333.68,376.12c.62-1.65.62-3.53,1.24-5.18.56-1.49-1.12-1.81-1.13-3-.05-4.76-3.07-7.6-6.79-9.75-5.83-3.36-12.38-4.9-18.74-6.88-3.28-1-6.58-2-9.75-3.3-1.64-.69-3.17-2.08-5-.33-.21.2-.74.09-1.12.11-1.65.06-3.31.16-5,.16-12.33,0-24.66-.08-37,.84-5,.38-10.35-.84-15.12,2.45-2.05,1.41-4.67,2.29-6.88,3.53-4.06,2.3-8.39,4.07-12.28,6.65a33.85,33.85,0,0,0-3.7,2.22c-4.79,4.22-6.63,9.6-5.86,15.91.34,2.79,1.2,5.47,1.75,8.22.79,4,1.33,8,2,12.06s3.4,7.39,3.76,11.52a1.1,1.1,0,0,0,.23.52,26.81,26.81,0,0,0,4.67,5.71,14.81,14.81,0,0,0,9.54,3.81c3.67.12,7.37.35,11,.22,9.89-.34,19.79,0,29.67-1,5.17.06,10.35.32,15.51.16,8.36-.26,16.72.05,25.09-.13A12.83,12.83,0,0,0,321,414.81a41.56,41.56,0,0,0,6.54-14.87c1-4.26,1.93-8.58,3.26-12.77,1.16-3.63,1.52-7.45,2.85-11.05" transform="translate(-61.3 -238.02)"/><path class="cls-1" d="M299.2,553.42c0,5.5,2.18,7.75,7.27,7.41,1.27-.09,3-.27,3.22-1.59a14.5,14.5,0,0,1,1.63-4c.72-1.43.1-2.23-1.43-2-3,.49-5.48-.59-7.87-2.22-.68-.46-1.17-1.74-2.18-1.1s-.56,1.74-.63,2.68c0,.25,0,.51,0,.76" transform="translate(-61.3 -238.02)"/><path class="cls-1" d="M302.77,609.9c-2,2.94-5,2.86-6.79-.2-.13-.22-.24-.45-.35-.68s-.34-.72-.8-.68-.47.51-.53.87a160.32,160.32,0,0,0-2.52,20.21c.15,1.09-.49,2.61.35,3.84a23.2,23.2,0,0,0,4.84,5.61,3.14,3.14,0,0,1,1.16,1.21c1.29,2.91,3.63,5.14,5.8,7.23s4.32,4.06,6.61,6c4.3,3.57,9,6.51,13.48,9.8a1,1,0,0,0,1.51-.06,2.36,2.36,0,0,0,.75-2.74c-.84-3.13-2-6.18-2.82-9.31-.9-3.3-2.54-6.41-3.38-9.73-1.28-5-3.61-9.64-4.86-14.65-.67-2.7-2.28-5.16-3-7.85-1-3.87-3.84-6.37-6.35-9.11-1.35-1.47-2-1.29-3.1.29m13.79,40c1,2.11,2.88,3.55,4.12,5.46.2.32.58.52.57,1a.79.79,0,0,1-.61.65.65.65,0,0,1-.83-.29c-1.36-2.33-3.33-4.18-4.73-6.56-2.22-3.77-4.48-7.55-6.75-11.3-3.65-6-8-11.57-10.75-18.12-.15-.37-.63-.84,0-1.15s.69.26.9.68c3.35,6.79,7.87,12.86,11.87,19.25a105.5,105.5,0,0,1,6.24,10.42" transform="translate(-61.3 -238.02)"/><path class="cls-1" d="M310,561.16c-3.16,2.56-6.33,2.15-9.47,0-.89-.62-1.23-.31-1.36.66-.59,4.48-1.18,9-1.81,13.43a104.15,104.15,0,0,0-1.41,17.72c.4,4.07-.18,8.15.17,12.24a8.66,8.66,0,0,0,1.83,4.48,1.36,1.36,0,0,0,2.11.41c3.41-2.07,4.88-5.43,5.85-9,1.74-6.44,2.69-13,3.95-19.6.95-4.94,1.95-9.87,2.52-14.87a7.23,7.23,0,0,0-.88-5c-.38-.6-.75-1.05-1.5-.45" transform="translate(-61.3 -238.02)"/><path class="cls-1" d="M305,488.46a14.51,14.51,0,0,1-11.69,3.41c-1.61-.25-1.89.16-1.7,1.62.5,3.66.88,7.35,1.35,11,.95,7.33,1.79,14.68,2.94,22,.87,5.55,2.46,11,3.17,16.54.52,4.12,3,6.23,6.13,8.12,1.35.82,4.62.87,5.06.09,1.21-2.1,3.06-4,2.4-6.68a27.79,27.79,0,0,0-.3-6.54c-.95-8.73-2.11-17.43-3.11-26.15-.48-4.24-.73-8.5-1.18-12.75a74.68,74.68,0,0,0-1.64-10.18c-.24-1-.44-1.3-1.43-.48" transform="translate(-61.3 -238.02)"/><path class="cls-1" d="M307,422c-4.79-.23-9.57-.07-14.36,0-10,.17-19.92.25-29.88.37v.22l-30.07.24c-.64,0-1.28,0-1.91,0-.78.06-1,.42-.59,1.14,1.1,1.9,1.32,4.09,2,6.13,1.23,3.8,2.42,7.61,3.37,11.51,1.22,5.07,3.31,9.9,4.62,15,1.25,4.82,2.17,5.5,7.07,6,3.22.31,4.6,1.07,4.82,4.2.33,4.58,2.49,8.55,3.54,12.87.49,2,.75,4.16,2,5.91,3.46,4.76,7.51,8.8,13.4,10.44,2.45.68,4.94,1.64,7.49.92a20.11,20.11,0,0,0,12.12-9.81c4.08-7.33,7-15.22,7.26-23.8,0-.84.32-1.27,1.21-1.37,1.77-.18,3.54-.48,5.31-.68,1.1-.12,1.57-.61,1.85-1.76.84-3.44.78-7,1.25-10.44,1.11-8.11,1.44-16.27,2-24.42A2.5,2.5,0,0,0,307,422" transform="translate(-61.3 -238.02)"/><path class="cls-1" d="M298.54,471.36c-.8,2.81-2,5.49-2.75,8.31a19.07,19.07,0,0,1-3,6.79c-.69.88-1.87,2.08-1.37,3.16.62,1.37,2.36.84,3.34,1a11.87,11.87,0,0,0,7.37-1.79c2.92-1.72,4.31-4.39,5.22-7.41a3.83,3.83,0,0,0-.45-3.51c-2-2.38-3.42-5.2-5.9-7.17-1.52-1.22-2-1.23-2.51.62" transform="translate(-61.3 -238.02)"/><path class="cls-1" d="M466.13,385.83a21.2,21.2,0,0,1,3.81-1.24,21.33,21.33,0,0,0,8-3.45,4,4,0,0,0,1.82-3c.11-1.17-.4-1.67-1.61-1.61a21.73,21.73,0,0,0-5.11,1.32c-3.06,1.2-6.44,1.62-9.08,3.88a2.2,2.2,0,0,0-.63,3.14,1.89,1.89,0,0,0,2.83.95" transform="translate(-61.3 -238.02)"/><path class="cls-1" d="M462.31,387.92a.53.53,0,0,1-.35-.76c.58-1.31-.32-1.92-1.09-2.74a9,9,0,0,1-1.91-2.83c-1.08-2.75-3.37-3.43-5.89-3.69-1.83-.19-3.52.67-5.14,1.32-2.21.88-3.28,3.18-4.43,5-.81,1.31-.42,3.36-.59,5.42-.24,1.38.48,2.72,1.56,4a13.82,13.82,0,0,0,4.67,3.52,15.47,15.47,0,0,0,7.14,1.81c2.9,0,3.88-3.14,6.26-4.07.21-.08.38-.74.28-1-.46-1.37,0-2.66.18-4,.11-.69.27-1.58-.69-2" transform="translate(-61.3 -238.02)"/><path class="cls-1" d="M479.47,401.21a49.1,49.1,0,0,0-8.13-5.41,22.09,22.09,0,0,0-5.41-2.3c-.79-.14-1.44-.06-1.55.89-.1.76-1,1.83.14,2.2,2.65.86,4.21,3.33,6.71,4.29s4.77,3,7.35,3.31c.87-.1,1.69.36,1.82-.65a2.28,2.28,0,0,0-.93-2.33" transform="translate(-61.3 -238.02)"/><path class="cls-1" d="M439.27,376c-7.9.36-15.78,1.2-23.71,1.26-9.19.07-18.37.83-27.56,0-2.1-.19-4.19-.43-6.29-.55-.93-.06-1.76.11-1.7,1.45.24,5.41,0,10.84.38,16.25.08,1.06.26,1.59,1.52,1.59,15,0,30,0,43.33,1.17,5.42.07,9.19.13,12.95.16.61,0,1.47.17,1.57-.7.26-2.34,1.37-4.45,1.6-6.85.36-3.8-.05-7.59.25-11.38.18-2.38.15-2.5-2.34-2.38" transform="translate(-61.3 -238.02)"/><path class="cls-1" d="M252.07,473.41c-.91-3.53-.49-4.15-3.92-1.29-.19.16-.41.28-.61.43-3.24,2.37-5.25,5.43-5.4,9.13.16,1.68.1,2.87.77,4.11,2.77,5.11,10.54,5,13.72,3.17.5-.3.75-.56.4-1.21-2.41-4.51-3.68-9.42-5-14.34" transform="translate(-61.3 -238.02)"/><path class="cls-2" d="M484.31,385.34c-2.1-.9-2.05-1.86-1.1-3.66,1.6-3.05-.77-8.33-4.06-9.31a7.81,7.81,0,0,0-4.34.06,33.11,33.11,0,0,0-11.46,5.45c-1.29,1-1.75.69-2.52-.34a8.34,8.34,0,0,0-8.12-3.63c-2.73.34-5.47.8-7.78,2.61-.77-3.95.26-4.11-4.75-4.1-5.83,0-11.58,1-17.39,1.07-13.68.11-27.33-.67-41-1.14-3.33-.12-3.64,0-4.46,3.2a3.22,3.22,0,0,0-.19.74c0,1.22-.69,1.63-1.85,1.66-5.68.14-11.37.25-17,.53-2.61.12-4.87.1-5.23-3.26a2.15,2.15,0,0,0-.61-1c-.55-.66-.34-1.18.05-1.88,2.19-3.88,5.15-7.22,7.65-10.88,1.71-2.5,3.37-5.05,5.05-7.57s2.16-2.83,4.78-1.05c1.51,1,2.92.7,4.07-.8a50.1,50.1,0,0,0,3-4.64c2.09-3.41,4.46-6.66,6.33-10.18a121.32,121.32,0,0,1,7-10.92c4.43-6.5,9.16-12.81,13.63-19.3,1.79-2.61,3.65-5.18,5.49-7.76,1.52-2.12,1.3-2.89-1.05-4-.65-.3-1.44-.49-1.86-1.32,1.75-1.07,3.86-1.87,5.11-3.23,2.59-2.79,5.37-5.79,4.75-10.21-.18-1.28.52-1.9,1.77-1.94a14,14,0,0,0,4.43-1.12c3-1.11,5.71-2.8,8.59-4.15a10.88,10.88,0,0,0,4.16-4.14c1.39-2.11-.61-4.56-3.63-5-2.13-.31-3.9.94-6.36,1.1,1.1-1.34,1.86-2.36,2.71-3.28,3.2-3.48,3.81-7.14,1.94-11.43-.68-1.57-1.67-2.31-3.43-2a18.29,18.29,0,0,0-9.85,5.65c-.49.5-.93,1.29-1.64,1.08s-.44-1.11-.5-1.71a14.38,14.38,0,0,0-2-6.85,6.13,6.13,0,0,0-4.28-2.87c-1.73-.22-3.27,1-4.3,2.69-1.45,2.4-1.7,5-1.89,7.69-.22,3.18-.3,6.38-.41,9.57,0,1.3-.51,2-2,1.92a4.66,4.66,0,0,0-3.53,1.15c-4.06,3.41-6.78,7.47-6.63,13,0,1.14-.35,1.4-1.36.88s-2-.45-2.43.85c-1.09,3.33-3.56,5.84-5.3,8.77-3,5-6.74,9.48-10.1,14.24-3,4.31-6,8.64-8.91,13.05-4.19,6.41-8.23,12.9-12.36,19.35-.62,1-.87,2-.14,2.84a7.37,7.37,0,0,0,3.55,2.75c1.37.37,1.45,1.1.72,2.09a53,53,0,0,0-3.79,6.31c-2.38,4.39-4.74,8.83-7.53,13a3.77,3.77,0,0,1-3.83,1.89c-1,0-1.5-.17-1.53-1.34a9.45,9.45,0,0,0-1.47-4.28c-1.75-3.12-4.83-4.65-7.74-6.24-4.53-2.47-9.55-3.76-14.45-5.29-4.3-1.35-8.63-2.61-12.94-3.92a2.51,2.51,0,0,1-2.05-2.88c.34-10.17-1.16-20.24-1.8-30.36-.44-6.94-1.18-13.86-1.84-20.78-.58-6,0-12-.56-18a4.93,4.93,0,0,0-.58-2.38c-2.46-3.85-5-7.65-7.3-11.59-1.64-2.78-3-5.9-4.88-8.34-2.53-3.25-2.84-6.56-2.69-10.19.07-1.65-.54-2.07-2-2.26-2.11-.27-4,.71-6.05.78-5.55.18-11.1.42-16.65.6a35.09,35.09,0,0,0-8.72.92c-1,.3-1.6.77-1,1.72,1.07,1.7.56,3.32.07,5-2,6.68-5.31,12.81-8.17,19.12-1.71,3.76-3.13,7.66-5.16,11.28a4.13,4.13,0,0,0-.24,2.63c.48,3.6,1.09,7.21,1.3,10.83.66,11.1,2.07,22.13,3,33.2.56,6.87,1.93,13.65,2,20.57a2.69,2.69,0,0,1-1.7,2.84c-2.59,1.21-5.17,2.45-7.77,3.63-1.68.76-3.19,1.82-4.82,2.63a113.77,113.77,0,0,0-13.91,7.84c-.93.64-1.69,2.16-2.63,2-1.3-.28-.81-2.07-1.29-3.14a111,111,0,0,1-4.42-12.16c-.32-1-.32-1.71.54-2.36,1.14-.86,3.07-1,3.37-2.56s-1.18-2.6-1.57-4c-1.31-4.7-2.49-9.45-4-14.1-.62-1.94-.79-4-1.53-5.89-1-2.61-2.34-5.2-2.76-7.91-1-6.28-3.91-11.94-5.25-18.1-.77-3.53-2.12-6.92-2.48-10.57a1.91,1.91,0,0,0-2.32-1.73,11.94,11.94,0,0,0-3.87,1c-.49.25-1.07.67-1.59.25s-.05-1,0-1.43a13,13,0,0,0-.24-7,40.71,40.71,0,0,1-2.26-8c-.2-1.68-.66-3.68-3.09-4.1-.82-.14-.76-1.2-.5-2,.76-2.3,1.49-4.61,2.29-6.9a15.9,15.9,0,0,0,.89-8.62c-.85-4.23-4.46-5.21-7.95-3.1-2.14,1.29-4,2.63-4.74,5.18-.23.78-.79,1.24-1.38.07s-1.29-2.19-1.91-3.31c-1.07-1.9-5.25-3.66-7.27-2.94a3.68,3.68,0,0,0-1.47,1.17c-2.34,2.9-2.78,6.25-2.4,9.84.11,1,1.61,2.11.5,2.8-.72.46-2.18-.25-3.3-.46-.31-.06-.6-.22-.91-.29-2.38-.58-6.82.37-7.65,3.33-1.27,4.59,1.56,11.51,6,13.47,2.84,1.26,5.61,2.73,8.74,3.21.45.06,1,.16.91.75-.46,2.78.53,5.28,1.36,7.83s2,4.92,4.62,6.21c.85.42.88.84,0,1.27a6.83,6.83,0,0,1-1.2.55c-2.23.67-2.5,1.32-1.48,3.44.85,1.78,2.26,3.33,2.46,5.36a25.86,25.86,0,0,0,1.89,6.59,94.85,94.85,0,0,1,4.72,15.1c1.36,6.87,4.93,12.9,6.47,19.66,1,4.19,3.16,8,4,12.3.52,2.53,2.07,3,4.17,1.47,3.39-2.51,4.51-2.24,6.27,1.55.14.29.23.6.38.88,1.71,3.16,1.7,6.94,3.56,10,1.73,2.86,2.33,6.16,3.71,9.16.28.59,0,.92-.28,1.37-1.45,2.43-3.48,4.47-4.49,7.23-.54,1.49-.63,3.54-1.56,4.35s-3.11.09-4.75.35c-5.24.83-10.49,1.5-15.73,2.29-1.31.19-1.85-.19-1.94-1.56a36,36,0,0,0-.71-4.34,3.49,3.49,0,0,0-3.27-2.67c-5.46.51-10.93.92-16.37,1.65-7,.93-14,2.42-21,3.15-7.87.82-15.73,1.65-23.52,3-2.25.4-2.69.81-2.37,3.27.18,1.36-.18,1.7-1.38,1.15a5.77,5.77,0,0,0-2.8-.23c-2.53.12-4.81,1.14-7.21,1.73a10.21,10.21,0,0,1-5.88-.2A33,33,0,0,1,75,393.27a9.46,9.46,0,0,0-5.36-1.62,4.81,4.81,0,0,0-4.62,2.7,5.06,5.06,0,0,0,.07,5.6,11.35,11.35,0,0,0,2.34,3.44c.62.49.64,1.18-.45,1.2-1.3,0-2.27.85-3.29,1.43a4.45,4.45,0,0,0-.51,7.54A9.65,9.65,0,0,0,69,416.09c1.12,0,1.58.38.79,1.48a6.09,6.09,0,0,0-.38,6.93,1.52,1.52,0,0,1,.12.36,6.24,6.24,0,0,0,9.65,3.84c.16-.1.35-.15.52-.24,3.62-1.82,6.59-4.25,8-8.24.41-1.18.95-.35,1.37,0,2,1.6,4.07,2.79,6.57,1.17a35.63,35.63,0,0,0,3.28-2.63c1.59-1.33,2.3-1.34,3.65.23a2.21,2.21,0,0,0,2.48,1c4.06-1.25,8.27-1.48,12.45-2,6.65-.81,13.32-1.37,20-2.11,5.39-.6,10.78-1.12,16.16-1.73,3.51-.4,7-1,10.48-1.64a5.68,5.68,0,0,0,4.14-6.37c-.29-1.11,0-1.56,1-1.72a145.14,145.14,0,0,1,19.4-2,1.35,1.35,0,0,1,1.59,1.21,6.83,6.83,0,0,0,4.12,5.1c.65.28,1.12.78.69,1.51-2.25,3.8-3,8.07-3.92,12.29-.37,1.76-.94,3-3.11,2.14a18.37,18.37,0,0,0-2.62-.47,2.64,2.64,0,0,0-3,1.2,27.83,27.83,0,0,0-3,5.5c-1,2.9-1.59,5.89-2.81,8.72a51.65,51.65,0,0,0-2.39,6.42c-1.65,5.83-4.17,11.34-6,17.1-.76,2.36-1.62,4.69-2.5,7-1.62,4.33-2.74,8.85-4.92,13-.39.73,0,1.1.41,1.64,1,1.26,2.62,1.54,3.91,2.32,1.06.63,1,.82.16,1.53-4.5,3.86-7.78,11-5.36,16.91,1,2.34.72,2.48-1.7,3.11-.31.08-.63.12-.94.18-4.12.81-8,1.89-10.61,5.7-1.66,2.42-2,4.11-.75,6.46a6.12,6.12,0,0,0,6.56,3.15c1.45-.42,3-.41,4.35-1.32.31-.22.73-.44,1.07-.18s.1.78,0,1.2a22.21,22.21,0,0,0-.9,5.66c0,3.59,2.88,6.24,6.17,5.64a8.84,8.84,0,0,0,5.41-3c.82-1,1-.9,1.75,0,4,4.84,9.2,2.54,12.28-1.12,1.18-1.41,1.37-3.39,1.36-5.28,0-4-1.2-7.82-2.39-11.59a2.34,2.34,0,0,1,.66-2.87,7.85,7.85,0,0,0,2.36-3.85,18.84,18.84,0,0,0,.5-10.15c-.25-1.28-.69-2.44,1.26-2.86,3-.67,4.37-3,4.69-5.83a24.79,24.79,0,0,1,2.37-7c2.15-4.93,3.54-10.11,5.19-15.18,2.41-7.37,4.24-14.9,7.63-22a44,44,0,0,0,2.95-7c.59-2.1.55-3.75-1-5.16a9.48,9.48,0,0,0-4.92-2.48c-.76-.11-1.32-.31-.81-1.2,1.54-2.7,2-5.72,2.74-8.69.41-1.74.93-3.45,1.4-5.17.14-.5.32-1.13,1-1a9.64,9.64,0,0,0,4.14.18c.43-.09.56.43.73.77a24,24,0,0,0,2.28,4.39c2.9,3.61,6.26,6.67,11.14,7.34a1.82,1.82,0,0,1,1.42,1.1,37,37,0,0,1,3.57,10.86c1,5.54,3.42,10.65,4.59,16.16.69,3.28,2.52,6.36,3.48,9.66a1.33,1.33,0,0,0,1.28,1.15c1.83.2,3.65.5,5.48.57a2.61,2.61,0,0,1,2.41,1.87c.41,1-.78,1.16-1.35,1.53a28.25,28.25,0,0,0-3.79,3.13c-3.31,3.16-4.89,6.82-4.25,11.45a30.42,30.42,0,0,1,.64,5.49c-.32,6.05-.85,12.08-1.43,18.11-.44,4.63-1.14,9.23-1.59,13.85-.7,7.12-1.31,14.24-1.9,21.37-.35,4.22-.31,8.43,1.37,12.42.29.68-.08,1-.24,1.57-.76,2.4-1.25,4.91.4,7.06a2,2,0,0,1,.25,2.69,4.85,4.85,0,0,0-.72,3.46c.77,4.91,1.61,9.82,2.11,14.75.67,6.66,1.89,13.21,3,19.78.39,2.26,1.19,4.44,1.26,6.77a3.65,3.65,0,0,1-1,2.8,24.57,24.57,0,0,0-3.24,3.46c-1.82,2.78-4.43,4.88-6.36,7.55-2.11,2.92-5.05,5.11-6.9,8.28-1.72,2.94-3.72,5.74-5.73,8.5-2.64,3.65-5.09,7.36-5.86,11.93-.28,1.71.51,2.83,2.23,2.68a43.07,43.07,0,0,0,4.32-.79c3.69-.77,7.06-2.69,10.72-3.39,5.46-1,10.5-3.2,15.54-5.23,6.91-2.79,13.86-5.52,20.76-8.33a1.67,1.67,0,0,0,1.07-1.63c1.05-10.45-1.91-19.78-8-28.15a5.19,5.19,0,0,1-1.15-3.25c-.06-6.9.44-13.79.1-20.69-.29-6,0-12-1.55-17.89-.68-2.57-1-5.35-3-7.44a1.36,1.36,0,0,1,.11-1.78,5.25,5.25,0,0,0,.87-3.28c0-2.14-.68-4.24,0-6.45a11.41,11.41,0,0,0,.78-3.32c0-8.64,1.62-17.16,1.94-25.77.29-8.17,1.71-16.23,2.53-24.36.12-1.17.54-1.3,1.36-.48.31.31.8.46,1.06.8,2.42,3.12,6,4.41,9.39,6a13,13,0,0,0,4.15,1.3c4.34.45,7.63-1.74,10.8-4.13,1-.75,1.19-.41,1.33.42.35,2.07.64,4.15.92,6.24.93,7,1.77,14,2.79,21,.6,4.08,1.37,8.16,2.29,12.18.78,3.43.4,7,1.72,10.36a2.12,2.12,0,0,1-.17,1.87c-.81,1.3-.54,2.69-.58,4.09,0,1.67.78,3.3.52,4.88-.6,3.72-.76,7.5-1.45,11.18-.5,2.64-.63,5.31-1.17,7.94a43.56,43.56,0,0,0-1,7.15c-.17,4.4-.08,8.81-.06,13.22,0,4-.25,8-1.83,11.79a18,18,0,0,0-.82,4.31c-.88,6.1-1,12.28-2.2,18.34a2.5,2.5,0,0,0,1.08,2.45,46.88,46.88,0,0,1,5,5.32c2.61,3.49,5.44,6.78,8.35,10,2.64,2.91,5.82,5.26,8.67,7.94,2.23,2.09,4.9,3.56,7.21,5.52,2.11,1.78,4.86,2.46,7.28,3.73a2.46,2.46,0,0,0,3.61-1.72A25.38,25.38,0,0,1,330,661.9a3.62,3.62,0,0,0,.27-2.61c-.6-2.32-1.41-4.6-2.1-6.9-1.27-4.24-2.92-8.37-4.28-12.61-1.51-4.7-3.34-9.34-5-14-.83-2.28-2.12-4.4-2.6-6.75a24.15,24.15,0,0,0-6.54-12.71c-.42-.42-.87-.94-.65-1.51,1.18-3,1.53-6.15,2.1-9.28.6-3.32,1.43-6.6,2.05-9.91.94-5,1.6-10.08,2.75-15,.93-4,1.31-7.81-1.48-11.26a1.7,1.7,0,0,1,.17-2.53,3.85,3.85,0,0,0,.79-4.42,2,2,0,0,1,.08-2.17c2.36-2.82,2.16-6.24,1.8-9.5-.42-3.85-1.08-7.69-1.8-11.52-1.68-9-2.2-18.2-3.22-27.32a114.5,114.5,0,0,0-2.18-13.78c-.12-.52-.4-1,.05-1.62,2.64-3.34,1.67-6.74-.09-10-1.93-3.6-4.36-6.84-8-8.92-.89-.5-.53-1.2-.44-1.85s.38-1.26,1.19-1.25a18,18,0,0,0,5-1.13,3.26,3.26,0,0,0,2.63-3.41c.16-3.49.44-7,.76-10.46.44-4.77,1.11-9.5,1.41-14.29.2-3.18-.06-6.38.56-9.54.12-.62.13-1.3,1-1.44,2.57-.42,4.67-1.91,6.95-3,2.84-1.38,4.54-3.81,5.87-6.41a49.54,49.54,0,0,0,2.51-7.18c.28-.85.56-1.52,1.69-1.39,1,.13,1.91-.19,2.4,1.22,2.39,6.84,4.9,13.65,7.38,20.46.25.7.06.89-.64,1.21-2.93,1.33-3.25,2.57-1.62,5.36a5.59,5.59,0,0,1,.76,1.74c1.1,6.06,3.74,11.65,5.4,17.54,2.17,7.65,5.12,15.09,7.36,22.73,1.35,4.65,2.73,9.29,4.21,13.9.35,1.07.71,1.43,2,1.22a21.41,21.41,0,0,0,5.08-1.5c.38-.17.88-.41,1.25,0s0,.82-.12,1.23c-1.44,3.88-2.34,7.89-1.16,12,.62,2.12,1.41,4.51,3.44,5.72,1.57.93,1.52,1.78.79,3.07-2.77,4.89-3,10.35-3.37,15.74a4.61,4.61,0,0,0,2.37,4.7,5.74,5.74,0,0,0,5.82-.23c1.05-.61,1.48-2.57,2.59-2,.89.45,1.11,2.18,1.68,3.32,2.08,4.19,6.38,4.73,9.63,1.25a14.73,14.73,0,0,0,3.65-9.43c.11-1.7.31-1.92,1.66-.91,4.12,3.07,8.29,1.45,10.61-1.86a3.71,3.71,0,0,0,.51-4.12c-1.38-2.65-2.71-5.34-5.16-7.25a56.13,56.13,0,0,0-9.07-5.85c-.87-.45-.62-.89-.35-1.52,1.77-4.06-.14-7.79-1.44-11.39-.68-1.88-2.91-3.09-4.22-4.84-.54-.73-2.23-1.1-2.1-2,.17-1.11,1.78-.77,2.73-1.16,1.26-.51,2.49-1.11,1.56-2.78-1.53-2.75-2.18-5.85-3.55-8.65-.73-1.49-1.59-2.92-2.17-4.47-2.37-6.36-4.83-12.71-6.91-19.16-1.85-5.7-4.9-10.95-6.09-16.86-.6-3-2.2-5.73-2.74-8.74a2,2,0,0,0-2.45-2,6.82,6.82,0,0,0-2.43.47c-1.72.8-2.74.07-3.68-1.29a8.5,8.5,0,0,1-1.21-3.19,35.57,35.57,0,0,0-1.12-4c-1.2-3.62-3.11-7-3.85-10.77a2.46,2.46,0,0,1,.34-2.27,24.36,24.36,0,0,1,2.52-3.1,7.42,7.42,0,0,0,2.27-3.7c.29-1.48,1-1.91,2.45-2,5.44-.28,10.84.74,16.28.21,4.55-.44,4.55-.36,5.31,4.13.54,3.27,1.53,4.1,4.79,4.13,1.6,0,3.2.22,4.79.15,10.22-.41,20.43.27,30.65.37,6.89.06,13.78.69,20.68.77,3.2,0,3.21,0,3.67-3.11.06-.44,0-.95.51-1.16s.87.1,1.16.44c1.52,1.74,3.55,2.55,5.67,3.35,4.1,1.56,8,1.94,11.75-.86a1.63,1.63,0,0,1,2,0c4,2.23,7.68,5.12,12.13,6.68,3.2,1.13,5.65,1.13,7.13-.86a5,5,0,0,0,.56-5.54,16.55,16.55,0,0,0-3.38-4c.57-.56,1.18-.36,1.72-.4a6.59,6.59,0,0,0,5.83-5.25c.35-1.55-1.24-4.79-3.21-5.65m-54-118.07c.5,0,1.07-.45,1.43,0s-.18,1-.54,1.45c-2.27,2.63-5.53,3.5-8.59,4.58-2.15.76-4.4,1.23-6.52,2.11a8.42,8.42,0,0,1-1.56.32c-.78.05-.92-.7-1.22-1.21-.4-.67.21-.87.62-1.14a29.64,29.64,0,0,1,9.56-4c2.3-.54,4.38-1.93,6.82-2.15m-13.75-8.33a16,16,0,0,1,2.93-2.57c1.69-1.05,2.9-2.79,4.76-3.69.67-.32,1.29-1,2.1-.53s.59,1.34.74,2.32a14.51,14.51,0,0,1-3.19,5.06c-2.48,2.56-4.25,5.75-7.07,8-1.42,1.1-2,3.21-4.11,3.47-.12,0-.28.26-.29.42,0,.49.56,1.45-.29,1.31s-1.53-1.05-2.23-1.68c-.49-.44-.22-.89.08-1.36,2.25-3.53,3.54-7.62,6.57-10.7m-9.95-9.44c.27-.86.39-2,1.64-2.07s1.64,1.06,2.07,2a6.07,6.07,0,0,1,.42,2.62c0,5.67-1.56,11.05-2.82,16.5-.13.54-.27,1-1,.83-.91-.26-2-.45-2-1.7,0-1.72,0-3.44.05-5.15a39.08,39.08,0,0,1,1.59-13m-6.94,21.17c2.43-1.47,5-.76,7.26.55a29.29,29.29,0,0,1,3.88,2.79c.8.65,1.75,1.3,1.24,2.7-.35,1,1.08,1.31,1,2.33-.28,4.91-1.75,9.12-6.38,11.63a3.34,3.34,0,0,1-1.81.52,2.22,2.22,0,0,0-1.13.06c-.94.53-1.74,1.77-2.95.85-2.14-1.61-5-2.59-5.84-5.48-.52-1.74-1.44-3.41-1.31-5.3a12,12,0,0,1,6-10.65m-44.5,66.65c.46,0,1.11.4,1.33-.27s-.43-.83-.88-1c-.92-.39-.64-.9-.2-1.49,3-4.16,5.26-8.86,8.2-13.07,2.54-3.64,4.91-7.4,7.5-11,3.1-4.33,6.24-8.65,9.22-13.06,2-2.92,4.23-5.68,5.73-9s2.42-3.47,5.35-1.42c2.73,1.91,5.65,3.71,7.9,6.12,1.61,1.73,3.77,2.11,5.41,3.5.43.37,1,.63,1.11,1.35-.26.44-.52.95-.85,1.41-1.88,2.63-3.79,5.24-5.66,7.88-4.14,5.83-8.29,11.65-12.39,17.5-3.89,5.56-7.44,11.32-10.85,17.18-1.44,2.46-3.2,4.72-4.64,7.2-.56,1-1.27.77-2.1.27-4.61-2.76-9-5.92-13.74-8.43-1-.52-1.25-1.61-1.61-2.51-.25-.67.43-1.11,1.17-1.16M248,245.82c.7-3,.65-3.07,3.8-3.16,7.14-.2,14.28-.33,21.43-.54,1.32,0,2.3.15,2.28,1.77s-1,1.88-2.3,1.92-2.55.11-3.82.16c0,0,0-.07,0-.1-6.66.47-13.32.92-20,1.41-1.12.08-1.71-.11-1.4-1.46m-12,27.63c1.65-3.44,3.52-6.79,5-10.32,1.71-4.21,4.35-8,5.44-12.48a2.25,2.25,0,0,1,2.22-2l11.25-.85c4.77-.52,9.56-.33,14.34-.53a1.89,1.89,0,0,1,2.1,1.14,145.9,145.9,0,0,0,8.87,15.5c1.15,1.67,2.2,3.51,3.28,5.28s1,2.16-1.11,2.26c-3.82.19-7.65.33-11.48.35-6.7,0-13.33.94-20,1.38-3.88.26-7.74.72-11.62.93a66.57,66.57,0,0,0-6.8.93c-.51.08-1,.36-1.44,0s-.25-1.1,0-1.6m-.28,25.71c-.8-6.39-1-12.86-1.81-19.26-.38-2.87.4-3.59,3.26-3.88,6.35-.63,12.67-1.48,19-2,7-.57,14-.78,21-1.3,3.95-.29,7.89.41,11.82-.18,1.08-.15,1.5.43,1.48,1.47-.05,2.49-.07,5-.1,7.47.28,11.37,1.14,22.7,2,34,.68,8.67.88,17.35,1.17,26,0,1.28,1.12,2.43.22,3.88-.46.75-.77,1.1-1.66,1.11-12.14.19-24.27.36-36.4.65-4.4.1-8.8.45-13.2.76-2.5.18-2.51.2-2.72-2-.78-8.4-1.6-16.79-2.38-25.18-.66-7.18-.83-14.4-1.72-21.58m-70.43-50.59a5.82,5.82,0,0,1,4.38-4.29c2.27-.58,2.54-.29,2.53,2.07,0,.31,0,.63,0,1a51.66,51.66,0,0,1-2.28,12.57,2.7,2.7,0,0,1-3.45,2.11c-1.08-.21-1.71-.65-1.81-1.83a32.9,32.9,0,0,1,.64-11.58m-10.09-4.29a2.43,2.43,0,0,1,2.41,1.36c1.74,3.2,2.59,6.72,3.53,10.18.45,1.66,1.21,3.19,1.6,4.86.18.77.88,1.75-.36,2s-2.25,1.86-3.77.35a18,18,0,0,1-3.8-6.26c-1.1-2.7-2.69-5.2-3.25-8.13s.64-4.41,3.64-4.4m-2,25.41a22.44,22.44,0,0,1-10.11-4.53c-1.7-1.28-2.27-3.46-3.43-5.19a1.45,1.45,0,0,1,.93-2.28,5.73,5.73,0,0,1,3-.57c5.78.07,9.52,3.56,13.05,7.39a1.62,1.62,0,0,1,.27.5c.24.74-3,4.79-3.76,4.68m2.47,5c-.12-3,.59-5.93,3.34-7.94,2.28-1.67,4.59-3.09,6.88-3.27,3.79.26,7.44,1.76,8.17,6,.33,2,1.19,3.89,1.7,5.83.6,2.3-.31,4.68-1.14,6.87-.41,1.11,0,2.76-1.75,3.25-2.35.65-4.65,1.39-7.08.47a36.68,36.68,0,0,1-5.16-2c-3.68-2.06-4.81-5.56-5-9.28M186.28,348c-2.11-.26-3.69,1.27-5.58,1.78-.85.22-1.06.15-1.34-.62-1.68-4.72-3.48-9.38-4.77-14.25-1-3.71-2.74-7.22-4-10.91s-2.19-7.31-3.24-11c-1.2-4.16-3.09-8.09-4-12.32a33.17,33.17,0,0,0-2.74-7.82c-.5-1,.49-1,1-1.25,3.62-1.69,7.23-3.43,11.19-4.22,1.46-.29,2.73-1.27,4.48-.57,1,.41,1.91-1.07,2.89-1.63,1.78-1,2.22-.86,2.72,1.13a111,111,0,0,0,4.93,16.44c1.26,3,1.47,6.3,2.5,9.41,2.36,7.17,4.41,14.45,6.48,21.73a38.35,38.35,0,0,0,2.58,7.37c.7,1.36.15,2.12-1.22,2.58-2.77.93-5.5,1.94-8.26,2.88-1.21.41-2.29,1.17-3.61,1.24m4,6.93c-.48-1.53-1.73-2.71-1.89-4.36,0-.26-.09-.51-.13-.76a.8.8,0,0,1,.64-1,46,46,0,0,0,5.7-2.15c.64-.27,1.07-.22,1.26.59,1.18,5.29,3.59,10.19,5,15.4a77.55,77.55,0,0,0,3.07,9c.27.64.09,1.11-.44,1.2-1.35.22-2.22,1.17-3.27,1.85s-1.95.69-2.51-.76c-2.44-6.33-5.37-12.48-7.41-19M67.41,396.79a2.48,2.48,0,0,1,3-.71,31.75,31.75,0,0,1,5.58,2.82,11.26,11.26,0,0,0,3.61,1.64c1.23.22,2.29.42,2.07,2.25s-1.43,1.54-3.15,1.5c-3.48-.74-7.68-1.09-10.46-4.78-.65-.86-1.32-1.73-.6-2.72m1,15.64c-.57.06-1.18-.39-1.79-.55-.77-.2-1.64-.45-1.63-1.33s.91-1.25,1.7-1.58c3.46-1.45,7.12-1.66,10.8-1.77,1,0,2,0,3,.05a1.44,1.44,0,0,1,1.29,1.24c.18.77-.32,1.14-.95,1.44-4,1.82-8.24,2-12.47,2.5m12.41,10.32a27,27,0,0,1-5.15,2.8,2.83,2.83,0,0,1-3.36-4.13c1.08-1.53,1.9-3.37,3.79-4.13,2.21-.89,3.18-3.42,5.67-4,2-.44,3.21.35,3.05,2.94-.51,2.21-1.31,4.85-4,6.5m21.39-14.16c-2.07,1.24-1.11,4.48-3.64,5.46a10.93,10.93,0,0,0-2.14,1.58c-1.75,1.26-3.59,1.83-5.71.87a15.32,15.32,0,0,1-7-6.28c-1-1.64-.55-3.61-.87-6.14-.33-1,.41-2,2-2.61,2.52-1,5-2.18,7.58-3a5.78,5.78,0,0,1,4.62.37c2.18,1.16,4.37,2.21,4.42,5.23a22.31,22.31,0,0,0,.71,3.75c0,.25.16.68.06.74m62.05-1.27a13.27,13.27,0,0,1-6.7,2.6c-6,.39-11.87,1.68-17.83,2.28-6.72.68-13.41,1.58-20.17,2a115.67,115.67,0,0,0-13,1.88c-1.35.24-1.83.05-1.93-1.38a55.85,55.85,0,0,0-1.6-10.19c-.45-1.78-.36-3.64-.72-5.47a22.47,22.47,0,0,0-1.14-3.79c-.54-1.36-.22-1.8,1.3-2.06,5.35-.91,10.78-1.08,16.16-1.68,6.46-.72,12.89-1.62,19.31-2.64,7.48-1.18,15-2.07,22.57-2.62,1.59-.12,1.6-.08,1.55,3.09a2.74,2.74,0,0,0,1.6,3.2,1.28,1.28,0,0,1,.63,1.11c.54,3.88,1,7.76,1.27,11.67a2.33,2.33,0,0,1-1.26,2m25-8c-2.13-.71-4.14.05-6.21.2-4.77.36-9.46,1.26-14.18,2-1.49.22-2.24.09-2.32-1.66-.06-1.44-.82-2.81-.65-4.26-.26-1.23.09-1.72,1.41-1.86,5.87-.64,11.82-.65,17.6-2.06,1-.23,2,0,3-.35a.86.86,0,0,1,1.17.89c0,2,.78,3.86,1.36,5.73.36,1.18-.19,1.74-1.2,1.4M162,515c-1.54.94-2.37,2.62-3.91,3.59a17.28,17.28,0,0,1-6.28,2.14c-1.23-.15-1.93-1.21-2.6-2s.34-1.45.85-2.09c1.93-2.4,4.67-3.47,7.43-4.37,1.92-.63,3.63-1.78,5.69-2.09,1.11-.17,1.48,0,1.17,1.06A5.89,5.89,0,0,1,162,515m7.47-.86a7.46,7.46,0,0,0-.12,1.71c.27,5.4-1.89,10.12-4.11,14.84a1.71,1.71,0,0,1-1.93,1.19c-1-.13-1.14-.88-1.15-1.68a37.44,37.44,0,0,1,1.45-9.78c.66-2.43.4-5.09,1.9-7.32.46-.68.65-1.83,1.68-1.17.85.55,2.93,0,2.28,2.21m7.35,15.5c-1.52.33-3.06-.64-3.83-2.47a16.7,16.7,0,0,1-1.41-8.6c0-1.14,0-1.72,0-2.28.13-1.07-.84-2.54.9-3.06,2.25-.66,3.61-.3,4.39,1.57,1.47,3.5,3.14,7,3.29,10.89.09,2.29-.87,3.4-3.38,3.95M181.43,500c-.34,4-.61,7.58-3.91,10-2.43,1.78-8.17,1.91-10.52.14-3.14-2.36-5.13-9.84-3.77-13.51,1.09-3,2.54-5.48,5.42-7.1s5.62-.9,8.42.08c.32.11.64.32.58.66-.48,2.71,1.82,4.14,2.82,6.17.64,1.29,1.23,2.51,1,3.57m21.78-67.5c1.46.46,2,1.68,2.17,3.17-.49,1.67-.67,3.57-1.55,5.05-2.91,4.92-4.43,10.35-6.1,15.72-2.23,7.17-4.28,14.4-6.58,21.55-1.38,4.28-3.4,8.35-4.7,12.67a.7.7,0,0,1-.86.56,3.45,3.45,0,0,1-1.1-.3c-3.59-2-7.7-2.51-11.46-4.09a31.43,31.43,0,0,0-7.22-2.34c-1.44-.23-2-.74-1.4-2.45a98.2,98.2,0,0,1,4.52-10.91c.64-1.35.68-3,1.21-4.4,2.33-6.19,5-12.29,7.08-18.55,2.06-6.09,4.52-12,6.49-18.15.87-2.66,1.56-2.68,4.23-2.26,5.34.83,10.19,3.14,15.27,4.73m-.78-15.45c-1.27,2.89-1.69,6-2.44,9-.61,2.48-1.1,2.77-3.5,2.15-3.31-.85-3.3-.84-2.44-4q1.86-6.93,3.7-13.85c.3-1.16.56-2,1.93-.85a3.82,3.82,0,0,0,2.66,1c1.48-.1,1.59.87,1.7,1.92-.52,1.55-.94,3.17-1.61,4.68m6.53-7.39a8.58,8.58,0,0,1-1.52,0c-2.75,0-5.11-1.38-7.64-2.21-3-1-4.81-3.45-6.06-6-1.4-2.82-2.78-5.92-2.68-9.16a20,20,0,0,1,4.67-12.63,15.85,15.85,0,0,1,7.52-4.81c1.61-.55,2,0,1.95,1.4,0,6.1,1.65,11.94,2.63,17.89.39,2.32,1,4.6,1.43,6.91a38.76,38.76,0,0,0,1.6,5.49c.84,2.34.58,2.71-1.9,3.09m30.2,147.61c.8-.81,1.39,0,2,.36,2.85,1.47,5.4.72,7.87-.95.37-.25.69-1,1.26-.43s.2.93,0,1.42c-.45,1.18-1.23,2.19-.54,3.73.4.86-.95,1.71-1.74,2.27a6.16,6.16,0,0,1-9.62-4,2.62,2.62,0,0,1,.76-2.43m16.16,55.88c.62-.63.46-2.13,1.41-2,1.16.09,2,1.33,2.18,2.4.6,3,2.06,5.6,3.07,8.4a34.31,34.31,0,0,1,1.6,11.49,2.9,2.9,0,0,1-1.93,3.14c-5.09,2-10,4.3-15.24,6-2.58.85-5,2.13-7.55,3.17-4.54,1.86-9.32,3-14,4.57-2,.69-4.24.8-6.15,1.88a.83.83,0,0,1-1.07,0c-.33-.34-.1-.7,0-1.06,1.12-3.2,3.07-5.94,4.93-8.73s3.81-5.24,5.52-8a13.45,13.45,0,0,1,1.72-2.47c2.34-2.33,4.43-4.9,6.58-7.36,3.28-3.76,7-7.22,9.67-11.66.93.42,1.07,1.34,1.63,2,2.67,2.88,5.11,1.75,7.13-.84.2-.24.22-.63.43-.84m-1.52-36.36a156.17,156.17,0,0,1,1.08,19.86c-.57,3.65-.16,8.13-.2,12.57,0,2.51-.61,3.94-2.52,5.14a1.55,1.55,0,0,1-2.08-.07,12.64,12.64,0,0,1-4-5.72,58.61,58.61,0,0,1-2.73-9.33q-1.2-7.72-2.35-15.46c-.62-4.16-1.2-8.32-1.78-12.48a16.57,16.57,0,0,1-.3-3c.11-1.88,1.22-2.59,2.94-2a7.18,7.18,0,0,0,7.6-1.73c1.49-1.34,1.83-1.34,2.37.59a83.86,83.86,0,0,1,2,11.68m1.9-77.18c-.54,5.59-1.48,11.12-1.77,16.73-.42,7.78-1.17,15.52-2.08,23.25-.5,4.23-.51,8.51-1.61,12.68a5.85,5.85,0,0,1-7.54,4c-3.4-1.2-4.26-2.57-4.46-6.22a175.83,175.83,0,0,1,.52-21c.46-7.18,1.58-14.32,2.21-21.5.48-5.45,1.08-10.91,1.12-16.4,0-2,.6-2.44,2.31-1.45a12.79,12.79,0,0,0,12.29.63,67.79,67.79,0,0,0-1,9.33m.93-10.68c-3.18,1.88-10.95,1.94-13.72-3.17-.67-1.24-.61-2.43-.77-4.11.15-3.7,2.16-6.76,5.4-9.13.2-.15.42-.27.61-.43,3.43-2.86,3-2.24,3.92,1.29,1.28,4.92,2.55,9.83,5,14.34.35.65.1.91-.4,1.21m55.59,129.76c.72,2.69,2.33,5.15,3,7.85,1.25,5,3.58,9.64,4.86,14.65.84,3.32,2.48,6.43,3.38,9.73.86,3.13,2,6.18,2.82,9.31a2.36,2.36,0,0,1-.75,2.74,1,1,0,0,1-1.51.06c-4.47-3.29-9.18-6.23-13.48-9.8-2.29-1.89-4.51-3.93-6.61-6s-4.51-4.32-5.81-7.23a3,3,0,0,0-1.15-1.21,23.2,23.2,0,0,1-4.84-5.61c-.84-1.23-.2-2.75-.35-3.84a160.32,160.32,0,0,1,2.52-20.21c.06-.36,0-.82.53-.87s.64.32.8.68.22.46.35.68c1.81,3.06,4.74,3.14,6.79.2,1.09-1.58,1.75-1.76,3.09-.29,2.52,2.74,5.32,5.24,6.36,9.11m.13-52.13c-.57,5-1.56,9.93-2.52,14.87-1.26,6.55-2.21,13.16-3.95,19.6-1,3.57-2.44,6.93-5.85,9a1.36,1.36,0,0,1-2.11-.41,8.74,8.74,0,0,1-1.83-4.48c-.35-4.09.23-8.17-.17-12.24a104.15,104.15,0,0,1,1.41-17.72c.63-4.47,1.22-9,1.81-13.43.13-1,.47-1.28,1.36-.66,3.14,2.19,6.31,2.6,9.47,0,.75-.6,1.12-.15,1.5.45a7.22,7.22,0,0,1,.88,5M299.84,550c1-.64,1.5.64,2.18,1.1,2.39,1.63,4.88,2.71,7.87,2.22,1.53-.26,2.15.54,1.43,2a14.5,14.5,0,0,0-1.63,4c-.25,1.32-1.95,1.5-3.22,1.59-5.09.34-7.26-1.91-7.27-7.41,0-.25,0-.51,0-.76.06-.94-.26-2.13.62-2.68m9.45-38.11c1,8.72,2.16,17.42,3.11,26.15a27.79,27.79,0,0,1,.3,6.54c.66,2.67-1.19,4.58-2.4,6.68-.44.78-3.72.72-5.06-.09-3.09-1.89-5.61-4-6.13-8.12-.71-5.56-2.3-11-3.17-16.54-1.15-7.3-2-14.65-2.94-22-.47-3.67-.85-7.36-1.35-11-.19-1.45.09-1.86,1.7-1.61A14.51,14.51,0,0,0,305,488.46c1-.82,1.19-.53,1.43.48a74.68,74.68,0,0,1,1.64,10.18c.45,4.25.69,8.51,1.18,12.75m-2.34-34a3.83,3.83,0,0,1,.45,3.51c-.91,3-2.3,5.69-5.22,7.41a11.81,11.81,0,0,1-7.37,1.79c-1-.16-2.72.37-3.35-1-.49-1.08.69-2.28,1.38-3.16a19.07,19.07,0,0,0,3-6.79c.79-2.82,1.95-5.5,2.75-8.31.53-1.85,1-1.83,2.51-.62,2.48,2,3.93,4.79,5.9,7.17m.55-28.79c-.47,3.47-.41,7-1.25,10.44-.28,1.15-.75,1.64-1.85,1.76-1.77.2-3.54.5-5.31.68-.89.1-1.19.53-1.21,1.37-.28,8.58-3.18,16.47-7.26,23.8A20.11,20.11,0,0,1,278.5,497c-2.55.72-5-.24-7.49-.92-5.89-1.64-9.94-5.68-13.4-10.44-1.28-1.75-1.54-3.92-2-5.91-1.05-4.32-3.21-8.29-3.54-12.87-.22-3.13-1.6-3.89-4.82-4.2-4.9-.47-5.82-1.15-7.07-6-1.31-5.07-3.4-9.9-4.63-15-.94-3.9-2.13-7.71-3.36-11.51-.65-2-.87-4.23-2-6.13-.43-.72-.19-1.08.59-1.14.63-.05,1.27,0,1.91,0l30.07-.24v-.22c10-.12,19.92-.2,29.88-.37,4.79-.09,9.57-.25,14.36,0a2.5,2.5,0,0,1,2.49,2.66c-.55,8.15-.88,16.31-2,24.42m20.07-49.18A41.56,41.56,0,0,1,321,414.81a12.83,12.83,0,0,1-11.14,5.82c-8.37.18-16.73-.13-25.09.13-5.16.16-10.34-.1-15.51-.16-9.88,1-19.78.7-29.67,1-3.67.12-7.37-.1-11-.22a14.81,14.81,0,0,1-9.54-3.81,26.81,26.81,0,0,1-4.67-5.71,1.06,1.06,0,0,1-.23-.52c-.36-4.13-3.1-7.48-3.76-11.52s-1.2-8.07-2-12.06c-.55-2.75-1.41-5.43-1.75-8.22-.77-6.31,1.07-11.69,5.86-15.91a33.85,33.85,0,0,1,3.7-2.22c3.89-2.58,8.22-4.36,12.28-6.65,2.21-1.24,4.83-2.12,6.88-3.54,4.77-3.28,10.07-2.06,15.12-2.44,12.3-.92,24.63-.82,37-.84,1.65,0,3.31-.1,5-.16.38,0,.91.09,1.12-.11,1.82-1.75,3.35-.36,5,.33,3.17,1.34,6.47,2.28,9.75,3.3,6.36,2,12.91,3.52,18.74,6.88,3.72,2.15,6.74,5,6.79,9.75,0,1.16,1.69,1.48,1.13,3-.62,1.65-.62,3.53-1.24,5.18-1.33,3.6-1.69,7.42-2.85,11.05-1.33,4.19-2.3,8.51-3.26,12.77m44,128.81a1.86,1.86,0,0,1-2,1.2,1.89,1.89,0,0,1-1.6-1.88c0-.51-.06-1-.1-1.75a110.69,110.69,0,0,1,2.2-11.39,8.62,8.62,0,0,1,.69-1.56,1.86,1.86,0,0,1,2.39-1c1,.23,1.29.9,1.31,1.8a30.38,30.38,0,0,1-2.91,14.57m12.91,3.45a1.27,1.27,0,0,1-1.87-.24,24.38,24.38,0,0,1-4.54-11.87,3.18,3.18,0,0,0-.54-3.22c-.94-1.12-.87-2.69-.79-4,.07-1.08,1.44-1.08,2.27-1.45s1.25.42,1.63,1a26.76,26.76,0,0,1,2.53,6.14,43.12,43.12,0,0,1,2.63,10.75,2.79,2.79,0,0,1-1.32,3m2.05-22.53c4.32,2.59,8.79,5,12.37,8.69.81.84,1.61,1.79.73,3a3,3,0,0,1-4.11.58,69.12,69.12,0,0,1-9.75-9.22c-1-1.17-2.11-2.63-4.31-2.31,1.42-2,2.41-2.34,5.07-.76M383,494.42c1.81,2.34,2.81,4.84,1.88,7.81-.3,1-.51,2-1.55,2.51a1,1,0,0,0-.51.54c-1,4.54-4.84,4.57-8.17,5.44-1,0-2,.29-2.09-1.28,0-.38-.59-.82-1-1.09-4.69-3-6-7.22-4.7-12.51a21.68,21.68,0,0,1,2.42-6.39c.56-.92.18-2.47,2.08-2.45a12.49,12.49,0,0,1,3.48.18c4,1.1,5.9,4.31,8.16,7.24m-27-68.34a11.94,11.94,0,0,1,2.46-.67,1.36,1.36,0,0,1,1.73,1,41.64,41.64,0,0,1,1.77,5.44c.7,3.43,2.34,6.59,3.41,9.92,1.52,4.77,3.85,9.23,5.18,14.09.86,3.17,2.62,6.09,3.63,9.24,1.36,4.18,3.58,8,4.9,12.17.39,1.27,1,2.46,1.52,3.71.24.59.55,1.4-.45,1.48-2.89.22-5.16,2.1-7.89,2.78-3.93,1-8,1.57-11.73,3.15-.74.32-1.09,0-1.43-.71a27.67,27.67,0,0,1-2.13-7.06c-.5-3.17-1.87-6.08-2.8-9.12-2.32-7.6-4.44-15.27-7-22.77-1.67-4.82-2.89-9.76-4.5-14.59-.4-1.22-.35-1.76,1.09-2.71,3.82-2.53,8.25-3.41,12.27-5.31m-6.11-6.28a21.12,21.12,0,0,0,2.09,4.87c.5.93.24,1.2-.59,1.48-1.8.63-3.59,1.32-5.39,1.94-.49.17-1.09.53-1.2-.53-.37-3.71-2-7-3.27-10.48-1.17-3.14-2.22-6.33-3.62-9.38-.43-.93-1-1.79-1.39-2.72-.23-.55-.58-1.44.35-1.56,2.7-.36,4.78-2.34,7.59-2.84a11.64,11.64,0,0,0,1.15,6.4,82.78,82.78,0,0,1,4.28,12.82m-3.61-23c-3.94,3.67-8.92,4.74-12.84,5.29-4.23.08-3.9.11-3.64-2.83.41-4.58,1.78-8.95,2.55-13.44.7-4.12,2.17-8.11,3.29-12.15a9.82,9.82,0,0,0,.64-2.59c0-2.3,1.39-2,3-2.09,5.38-.22,8.8,4.78,10.15,8.41a30.14,30.14,0,0,1,1.48,4.51c1.21,5.87-.28,10.84-4.63,14.89m3.28-26.66a3,3,0,0,1-1.31,1.8c-.29-.27-.48-.42-.65-.6a14,14,0,0,0-1-1.14c-.7-.6-2.15-1.43-2.05-1.66a27.87,27.87,0,0,1,1.7-4.19c1.31-2.15,3-4.07,3.82-6.54.63-1.82,2-3.38,3-5.07,1.45-2.44,2.63-5.06,4.72-7.09.62-.61,1-.87,1.73-.3.55.42,1.22.69,1.81,1.06.81.49,2.28,1,2.25,1.5a7.51,7.51,0,0,1-1.32,3.47c-2.7,4.11-5.64,8.06-8.1,12.32a4.36,4.36,0,0,1-.93.94,12.8,12.8,0,0,0-3.65,5.5m29.07,17.44c-.49.82-1.85.11-2.82.26a65.26,65.26,0,0,1-14.85.34,60.21,60.21,0,0,0-6.3.06c-1.38.05-2.27-.14-1.67-1.91.38-1.1-.09-2.26-.23-3.39-.08-.65,0-.85.79-.81,2.35.14,4.7.1,7.06.13,5.48.07,11,0,16.44.23,1.31,0,1.89.41,1.75,1.73a1.21,1.21,0,0,0,0,.19c0,1.08.3,2.36-.17,3.17m62.76,2.17c-.23,2.4-1.34,4.51-1.6,6.85-.1.87-1,.7-1.57.7-3.76,0-7.53-.09-12.95-.16C411.92,396,396.91,396,381.91,396c-1.26,0-1.44-.53-1.52-1.59-.4-5.41-.14-10.84-.38-16.25-.06-1.34.77-1.51,1.7-1.45,2.1.12,4.19.36,6.29.55,9.19.85,18.37.09,27.56,0,7.93-.06,15.81-.9,23.71-1.26,2.49-.12,2.52,0,2.34,2.38-.3,3.79.11,7.58-.25,11.38m21.64.16c-.2,1.33-.64,2.62-.18,4,.1.3-.07,1-.28,1-2.38.93-3.36,4-6.26,4.07a15.47,15.47,0,0,1-7.14-1.81,13.82,13.82,0,0,1-4.67-3.52c-1.08-1.28-1.8-2.62-1.56-4,.17-2.06-.22-4.11.59-5.42,1.15-1.86,2.22-4.16,4.43-5,1.61-.65,3.31-1.51,5.14-1.32,2.52.26,4.81.94,5.89,3.69a9,9,0,0,0,1.91,2.83c.77.82,1.67,1.43,1.09,2.74a.53.53,0,0,0,.35.76c1,.41.8,1.3.69,2m.3-5a2.2,2.2,0,0,1,.63-3.14c2.64-2.26,6-2.68,9.08-3.88a21.73,21.73,0,0,1,5.11-1.32c1.21-.06,1.72.44,1.61,1.61a4,4,0,0,1-1.82,3,21.33,21.33,0,0,1-8,3.45,21.2,21.2,0,0,0-3.81,1.24,1.89,1.89,0,0,1-2.83-.95m17.1,18.66c-.13,1-.95.55-1.82.65-2.58-.35-4.76-2.31-7.35-3.31s-4.06-3.43-6.71-4.29c-1.1-.37-.24-1.44-.14-2.2.11-.95.76-1,1.55-.89a22.09,22.09,0,0,1,5.41,2.3,49.1,49.1,0,0,1,8.13,5.41,2.28,2.28,0,0,1,.93,2.33m2.54-12.72c-2,.87-4.12.83-6.2.92a100.14,100.14,0,0,1-10.82,0c-1.49-.1-1.08-1.12-1.11-1.93s-.35-1.83,1-1.76c3,.17,5.77-1.09,8.41-.83a22,22,0,0,1,8.59,1c.63.19,1.33.41,1.4,1.12s-.69,1.19-1.3,1.46" transform="translate(-61.3 -238.02)"/><path class="cls-2" d="M268.72,308.74a9.89,9.89,0,0,1-.08,1.33c-.15,1,.35,1.2,1.21,1.2,2.55,0,5.09.06,7.64.09v0c2.48,0,5-.06,7.43.14,1.76.13,2.27-.61,2.31-2.16a35.52,35.52,0,0,1,0-4.95c.17-1-.67-1.49-1.66-1.08a9.27,9.27,0,0,1-3.75.54c-2.73,0-5.49-.31-8.2-.06-4.94.45-4.75.68-4.86,4.91m15.95-3.33c.85,0,1.18.27,1.16,1.07,0,.63,0,1.27,0,1.91,0,1.14-.51,1.56-1.65,1.54a51.22,51.22,0,0,1-5.52-.16c-2.58,0-4.55-.1-6.53-.07-1,0-1.84-.13-1.86-1.34s-.16-2.42,1.45-2.66a28.69,28.69,0,0,1,3.79-.41c3.06,0,6.13.13,9.19.12" transform="translate(-61.3 -238.02)"/><path class="cls-2" d="M259.38,307.28a2.32,2.32,0,0,0,.07-.38c.34-3.17.34-3.18-2.79-3.33-.64,0-1.28,0-1.92,0a110.1,110.1,0,0,0-12,.52c-1.32.16-1.9.74-1.74,2.14s.18,3.06.25,4.59c.11,2.66.87,3.33,3.45,2.69a60.36,60.36,0,0,1,9.28-1.16c1.58-.14,3.42.14,4.68-.58,1.57-.89.33-3,.76-4.46m-1.07,1.87c-.08,1.12-.53,1.6-1.63,1.65-1.65.06-3.31.33-5,.29-2.63-.07-5.18.62-7.8.63-1.17,0-1.76-.33-1.75-1.62,0-5.31-1.15-3.93,4.09-4.83a25.76,25.76,0,0,1,6.75-.15c.49,0,1.06,0,1.63,0,4,.14,4,.14,3.67,4" transform="translate(-61.3 -238.02)"/><path class="cls-2" d="M279.66,329.27c-.83.05-1.05.71-.89,1.4.68,2.94.13,6,.72,8.92.19.9.59,1.16,1.41,1.12l9.4-.52a2.77,2.77,0,0,1-1.24-2.23c-.12-2.41-.36-4.82-.51-7.23-.06-.89-.37-1.4-1.32-1.55a34.83,34.83,0,0,0-7.57.09m7.47,10c-1.85,0-3.69,0-5.54,0-.83,0-1.07-.6-1.11-1.29-.06-1.14-.09-2.29-.14-3.44.06-3.57.06-3.57,3.66-4.13,2.75-.42,2.74-.42,3.09,2.29.25,1.88,0,3.83,1,5.61.4.73-.26,1-.91,1" transform="translate(-61.3 -238.02)"/><path class="cls-2" d="M251.18,332.46a.73.73,0,0,0-.78-.68c-.52.06-.43.54-.44.9a26.63,26.63,0,0,0,.63,5.49c.2,1-.1,1.3-1.13,1.37-4.49.28-4.49.32-5-4.13a10.61,10.61,0,0,0-.17-1.13c-.34-1.49.18-2.13,1.76-2,.79.05,2.22.63,2.25-.56s-1.45-.33-2.1-.72c-1.52.06-3.24-.34-4.3.63s1,1.84.72,3c0,.12,0,.25.06.38.26,1.63.56,3.26.77,4.91.14,1.1.64,1.55,1.77,1.4,2-.26,4.05-.45,6.07-.7.57-.07,1.27-.25,1.15-1-.37-2.39-.82-4.77-1.27-7.15" transform="translate(-61.3 -238.02)"/><path class="cls-2" d="M243.16,287.75c1.81-.65,2.52-2,2.6-4.66a9.76,9.76,0,0,0-2.24-4.51c-.83-1.07-3.87-1.08-4.11-.1-.38,1.5-1.4,2.65-1.75,4.15a4.83,4.83,0,0,0,1.46,4.65c1.21,1.33,2.61,1,4,.47m-3.83-4.21c0-1.49,1.48-3.88,2.34-3.92.69,0,2.29,2.88,2.3,4.38-.24,1.14-.76,2.31-2.29,2.44s-1.85-1.27-2.35-2.33a1.37,1.37,0,0,1,0-.57" transform="translate(-61.3 -238.02)"/><path class="cls-2" d="M281.63,276.64c.76.33.36.87.09,1.26a5.82,5.82,0,0,0-.75,3.31c-.08,2.81,1.5,4.88,3.79,5,1.72.07,3.3-1.6,3.9-4.11.55-2.33-.23-4.71-1.73-5.42a14.37,14.37,0,0,0-4.83-1c-.35,0-.79-.39-1,.06s.09.77.56,1m1.23,3.35c.34-1.2.73-3,2.12-2.71s2.1,1.86,2,3.47a3.55,3.55,0,0,1-.52,2c-.47.75-.48,2.18-1.69,1.95a3.05,3.05,0,0,1-2.18-2.65,4.71,4.71,0,0,1,.22-2.06" transform="translate(-61.3 -238.02)"/><path class="cls-2" d="M270.28,340.85c.51,0,1,0,1.53,0v0c.89,0,1.78,0,2.67.05,1.16.08,1.77-.14,1.59-1.57-.31-2.52-.43-5.07-.59-7.61,0-.61,0-1.25-.76-1.29-1.89-.09-3.78-.7-5.69-.19-1.12.3-2.26.78-2.33,2.12a41.43,41.43,0,0,0,.1,5.34c.21,2.78.72,3.19,3.48,3.12m-1.66-8.91a9.46,9.46,0,0,1,4.85-.54c.49.07.45.7.49,1.14a40,40,0,0,0,.79,5.65c.26,1-.14,1.62-1.33,1.43-.62-.1-1.26-.1-1.9-.14-3.49-.19-3.49-.19-3.71-3.74,0-.44,0-.89,0-1.3.17-.89-.52-2,.79-2.5" transform="translate(-61.3 -238.02)"/><path class="cls-2" d="M255.66,331.14c-.76.2-1,.58-1.17,1.43-.43,2.39.14,4.68.39,7a1.55,1.55,0,0,0,2,1.45c.56-.12,1.12-.26,1.68-.33,4.38-.58,4.38-.58,4.36-5.07,0-1,.06-2,0-3.05,0-.58-.18-1.24-.88-1.28-2.14-.12-4.28-.74-6.44-.15m5.88,3a16.51,16.51,0,0,0,.33,3c.53,2.05-.42,2.3-2.24,2.21-3.48-.16-3.49,0-3.64-3.54s-.14-3.35,3.37-3.68c1.74-.17,2.3.28,2.18,2" transform="translate(-61.3 -238.02)"/><path class="cls-2" d="M255.55,287c1.59,1,2.9.78,4.19-.67a5,5,0,0,0,1.18-3.33,6.92,6.92,0,0,0-2.53-5.13c-.92-.8-2.08-1-2.91.35a8.27,8.27,0,0,1-.94,1.2c-2.37,2.68-2,5.61,1,7.58m1.54-7.63c1.09,0,2.08,1.78,2.08,3.78,0,1.26,0,2.57-1.6,2.77-1.05.14-2.73-1.93-2.74-3.19s1.31-3.37,2.26-3.36" transform="translate(-61.3 -238.02)"/><path class="cls-2" d="M272.89,285.86a4.43,4.43,0,0,0,2.21-3.79c.17-2.87-1.67-4.91-4-5-1.91-.07-3.3,1.58-3.31,4a13.45,13.45,0,0,0,.23,2.84,3.18,3.18,0,0,0,4.83,1.9m-1.45-7.09c1.63.29,1.93,1.61,2.08,2.91-.26,1.51-.46,3.12-2.26,3.12-2,0-1.82-1.87-1.93-3.17-.14-1.7.95-3.07,2.11-2.86" transform="translate(-61.3 -238.02)"/><path class="cls-2" d="M274.18,254.3c.81,0,1.18-.61,1.38-1.35-.17-.59-.45-1.09-1.16-1a1.37,1.37,0,0,0-1.26,1.24,1,1,0,0,0,1,1.12" transform="translate(-61.3 -238.02)"/><path class="cls-2" d="M261.64,254.4c.85.17,1.1-.36,1.18-1s-.09-1-.71-1.13c-.79-.1-1.11.4-1.26,1.09s.24.93.79,1" transform="translate(-61.3 -238.02)"/><path class="cls-2" d="M297.55,619.51c-.6.31-.12.78,0,1.15,2.71,6.55,7.1,12.12,10.75,18.12,2.27,3.75,4.53,7.53,6.75,11.3,1.4,2.38,3.37,4.23,4.73,6.56a.65.65,0,0,0,.83.29.79.79,0,0,0,.61-.65c0-.44-.37-.65-.57-1-1.24-1.91-3.12-3.35-4.12-5.46a105.5,105.5,0,0,0-6.24-10.42c-4-6.39-8.52-12.46-11.87-19.25-.21-.42-.33-1-.9-.68" transform="translate(-61.3 -238.02)"/><path class="cls-2" d="M244.7,629.15c-2.58,2.14-4.84,4.61-7.47,6.69-2.38,1.87-4.35,4.3-6.81,6-2.26,1.59-3.81,3.94-6.24,5.3-.49.28-.74,1-1.05,1.56-.22.38-.22.74.34.85.39,0,.5-.32.71-.54a54.89,54.89,0,0,1,6.87-6.24c2.13-1.59,3.9-3.56,5.89-5.3,5.4-4.72,10.55-9.71,16.6-13.63.68-.45,1.57-.87,1-1.67s-1.34,0-1.89.46c-2.57,2.26-5.31,4.3-8,6.48" transform="translate(-61.3 -238.02)"/></svg>