<svg id="Layer_1" data-name="Layer 1" xmlns="http://www.w3.org/2000/svg" viewBox="0 0 254.62 454.46"><defs><style>.cls-1{fill:#fff;}.cls-2{fill:#010101;}</style></defs><path class="cls-1" d="M185.53,512c-1.32.21-2.55.49-2.27,2.32a2.29,2.29,0,0,0,2.35,2.17c1.3-.13,1.77-1.39,1.66-2.71-.09-1.07-.3-2-1.74-1.78" transform="translate(-84.1 -149.39)"/><path class="cls-1" d="M187.52,555.34c-.44,1.79.32,2.91,1.84,3.74s2.66.18,3.72-.89,1.25-2.73,1.57-4.45c-.55-1-.9-2.24-2.26-2.88s-2.25.29-2.95,1a7.74,7.74,0,0,0-1.92,3.44" transform="translate(-84.1 -149.39)"/><path class="cls-1" d="M279.6,551.63c-1.43-.63-3.09-.81-4.14.14a13.5,13.5,0,0,0-3.09,4.79,1.56,1.56,0,0,0,.11,1c.66,1.93,3.56,3.26,5.61,3.08,1.7-.15,1.53-2,2.89-2.4s1.45-1.74,1.6-2.83a4.37,4.37,0,0,0-3-3.74" transform="translate(-84.1 -149.39)"/><path class="cls-1" d="M175.51,400.88c5.42.45,10.86.91,16.25,1.63,4.34.59,8.65,1.44,12.92,2.39,3.2.71,6.48.7,9.66,1.43,7.39,1.67,14.74,3.46,22.12,5.17,6.46,1.51,12.74,3.63,19.12,5.41,3.33.93,6.63,2.24,9.91,3.47,1.27.47,1.83.08,2.17-1.15.75-2.73,1.53-5.46,2.4-8.16a73.36,73.36,0,0,0,3.21-13.66,121.83,121.83,0,0,1,3.79-18.36c2.12-7.49,3.68-15.09,5.39-22.66,1.44-6.36,2.06-12.91,4.18-19.13a23,23,0,0,0,.46-3.55c.14-.78-.09-1-.86-1.16a17.66,17.66,0,0,1-4.55-1.22,59.41,59.41,0,0,0-8-3.08c-7.2-2.34-14.59-4-22-5.75-6.53-1.53-13.17-2.54-19.72-4-5.31-1.16-10.76-1.68-16.14-2.51-4.13-.64-8.25-1.39-12.34-1.68-1.15.57-2.76-.55-3.34,1.22-.68,2.07-1.26,4.18-2,6.24-1.05,3.07-1.75,6.24-2.63,9.36-1.06,3.71-2.93,7.16-4,10.9-.95,3.23-2.39,6.32-3.21,9.58-1.17,4.69-3.2,9.07-4.47,13.73-.78,2.9-2.08,5.73-2.65,8.7a53.57,53.57,0,0,1-2.32,8.79c-2,5.38-2,11.27-4.56,16.46-.49,1-.1,1.47,1.16,1.58" transform="translate(-84.1 -149.39)"/><path class="cls-1" d="M214.88,419.09c0-.17.08-.35.11-.52l-4.87-.66c1.59,1.55,3.32.6,4.76,1.18" transform="translate(-84.1 -149.39)"/><path class="cls-1" d="M322.64,557.9c.78.57,1.58.48,2.37-.53a7.61,7.61,0,0,1-4.2-2c-.51,1.83,1,1.91,1.83,2.5" transform="translate(-84.1 -149.39)"/><path class="cls-1" d="M162.19,412c4.13-.33,8.23.62,12.36.35a72.09,72.09,0,0,1,13.54.82c8.84,1.09,17.67,2.23,26.43,3.87,3.32.62,6.72.93,10,1.84,3,.84,6,1.42,8.91,2.85a36.7,36.7,0,0,0,8.44,2.64c6.1,1.32,11.83,3.8,17.9,5.25,4.47,1.07,8.86,2.83,13.25,4.35,3.22,1.11,3.24,1.19,4.61-1.84a7.67,7.67,0,0,0,1-3.38c-.09-1.14-1.74-.57-2.5-1.22-3.38-2.92-7.74-3.91-11.7-5.57a178.55,178.55,0,0,0-18.09-6.06c-6.66-2-13.41-3.7-20.14-5.26-9.1-2.11-18.26-4.35-27.72-4.46a5.53,5.53,0,0,1-1.94-.38,20,20,0,0,0-9.89-1.52,3.72,3.72,0,0,1-2.7-.48,6.1,6.1,0,0,0-4-1c-2.2.12-4.43-.15-6.57,0-1.75.13-3.48,1.12-5.35.79s-3.82.16-5.73.18a1.3,1.3,0,0,0-1.39,1.38c-.1,1.52-.13,3-.17,4.2.24,1.29-.39,2.75,1.43,2.61" transform="translate(-84.1 -149.39)"/><path class="cls-1" d="M203.86,310.27c.6,0,1.19.16,1.79.2,7.32.42,14.49,2,21.76,2.8,5.35.59,10.59,2.07,15.93,2.71,6.83.82,13.4,2.79,20,4.31,6.18,1.41,12.16,3.75,18.14,5.91,1.56.57,3.34.55,4.69,1.65.33.28.46.9,1,.69s.3-.68.39-1.05c1.59-6.71,2.12-13.62,3.89-20.3,1.36-5.14,1.42-10.58,2.84-15.66,1.79-6.39,2.09-12.94,3.07-19.41.72-4.72,1.68-9.4,2.52-14.08,1-5.28,1.9-10.58,2.75-15.88a184.48,184.48,0,0,0,2.33-25.81c.07-3.43-.33-7,0-10.31.71-8,2.14-16,1.26-24.09-.67-2.7-.76-5.57-2.25-8.13a22.61,22.61,0,0,1-2.72-5.93,10.41,10.41,0,0,0-2.42-4.07c-1.2-1.5-3-1.76-4.54-2.67-2.07-1.25-3.64-3.16-6.09-4-4.12-1.35-8.07-3.13-12.55-1.51a25.86,25.86,0,0,1-2.92,1.19c-5.52,1.32-10.78,3.23-15.09,7.16a25.18,25.18,0,0,0-5.13,5.73c-1.63,2.85-3.63,5.49-4.61,8.84-1.06,3.63-3.75,6.77-3.22,10.94.24,1.84-1.27,3-2.08,4.39-1.73,3-2.19,6.53-3.95,9.52a25.92,25.92,0,0,0-2,4.12c-1.53,4.24-3.23,8.43-5,12.55-1.71,4-3,8.07-4.64,12.06-2.48,6.22-4.52,12.61-6.54,19-.65,2.05-2.16,3.71-2.43,5.87-.64,5.26-3.44,9.86-4.53,15-.67,3.18-2.59,6-3.39,9.26-1.09,4.47-3.08,8.67-3.75,13.33s-2.82,9.11-3.68,13.84c-.23,1.25-.19,1.72,1.08,1.79" transform="translate(-84.1 -149.39)"/><path class="cls-1" d="M199.48,416.77l.09-.94-14.83-1.38c4.8,1.54,9.88.83,14.74,2.32" transform="translate(-84.1 -149.39)"/><path class="cls-1" d="M277.41,474.93c-1.31-1.06-1.92-.25-2.62.8a5.17,5.17,0,0,0-.73,3.73,2.94,2.94,0,0,0,2.73,3.53c2.88.52,7.28-1.85,8.29-4.59.93-2.5-.71-4.57-3.27-4.11a25.39,25.39,0,0,0-2.7.68c-.58.17-1.18.39-1.7,0" transform="translate(-84.1 -149.39)"/><path class="cls-1" d="M165.71,469.69c2.81-2.23,5-5.07,7.85-7.28.83-.65,3.2-.55,3.9.38.85,1.13.25,2.11-.67,2.94-2.71,2.44-5.2,5.13-8.14,7.32-1.48,1.11-1,2.08,0,3.1,2.57,2.46,5.24,4.45,9.13,2.74a11.79,11.79,0,0,1,3.35-.43c3.9-.47,7.8-1.25,11.71-1.35a37.54,37.54,0,0,1,18.22,4.11c2,1,4.32,1,6.16,2.2,3,1.86,6.35,3,9.11,5.16a5.3,5.3,0,0,0,4.85.82,46.47,46.47,0,0,0,5.6-1.34c3.7-1.37,3.89-1.29,2.49-5.06s-1.87-7.63-2.89-11.42a1.78,1.78,0,0,1,.78-2.25c.9-.53,1.51.08,2.13.57a4.13,4.13,0,0,1,1.3,2.4c1.1,4,2.3,7.91,3.42,11.87.33,1.18,1,1.53,2.06,1s2.36-.84,3.52-1.38c2.3-1.08,4.26-2.71,6.49-3.88,1.79-.95,3.88-1.49,4.6-3.78a1.52,1.52,0,0,1,.92-.7c3-1,4.52-3.78,7-5.38,2-1.28,3.27-3.54,5.17-4.84,2.8-1.91,4.77-4.6,7.19-6.83,2.74-2.54,2.09-4.28-1.4-5.41-2.27-.73-4.56-1.44-6.82-2.17-7.74-2.5-15.33-5.49-23.23-7.54-4.88-1.27-9.62-3-14.63-3.76-3.58-.51-6.85-2.31-10.37-2.77-7.07-.93-13.89-2.94-20.87-4.25-8.22-1.56-16.43-3.19-24.73-4.32a151.23,151.23,0,0,0-15.49-1.52c-3.82-.13-7.69-.29-11.52-.76-2.62-.32-2.64,0-2.1,2.45a15.41,15.41,0,0,1,.14,1.8l-.16,0c.82,3.42,1.54,6.87,2.48,10.25,1.55,5.54,2.9,11.16,5.35,16.42,1.95,4.2,3.24,8.72,6,12.56.69.95,1,1.14,2,.28" transform="translate(-84.1 -149.39)"/><path class="cls-1" d="M138.8,501.51c2.93.84,5.82-1.11,5.38-3.76-.79.36-1.17,1.08-1.7,1.65-1,1.07-2.9,1.28-3.71.34-1-1.2-.8-2.26.49-3.17a7,7,0,0,0,1.1-1.14c.31-.35.38-.86-.12-.94-1.26-.2-2.65-.75-3.64.62a4.12,4.12,0,0,0,2.2,6.4" transform="translate(-84.1 -149.39)"/><path class="cls-1" d="M180.78,426.28q10,1.55,20,3.17c8.19,1.32,16.33,3.17,24.39,5.26,3.08.8,6.3,1.12,9.33,2.05,5.33,1.63,10.81,2.65,16.19,4a118.65,118.65,0,0,1,15.78,4.77c1.78.74,3.7.79,5.41,1.79,4.85,2.83,10.3,4.12,15.66,5.64a.71.71,0,0,0,.88-.27c1.48-2.49,3.44-4.7,4.54-7.5-3.05-1.31-6-2.75-9.11-3.89-4.28-1.58-8.65-2.9-12.95-4.42-2.63-.93-5.12-2.5-7.82-2.95-5.35-.88-10.15-3.54-15.52-4.3-3.69-.52-7-2.43-10.63-3.29s-7.47-1.81-11.18-2.8-7.41-1.35-11.08-2.24c-4.31-1-8.78-1.46-13.14-2.25-5.16-.93-10.32-2.15-15.52-2.6-5.75-.51-11.51-1-17.26-1.6-7.08-.73-14.18-1.14-21.26.28-.81.16-1.18.4-1.22,1.21a30.26,30.26,0,0,0,.34,6.38c.12.66.41.91,1.06.87,5.66-.28,11.26.5,16.84,1.24,5.39.7,10.84.59,16.23,1.41" transform="translate(-84.1 -149.39)"/><path class="cls-1" d="M249.81,514.54c-1.05-.83-.73-1.84-.12-2.83a10.56,10.56,0,0,0,.53-1.29c.16-.36.4-.73,0-1.06s-.75-.09-1.12.07c-2.55,1.09-2.87,4.24-.66,6.5a3.47,3.47,0,0,0,3.29,1c1.36-.27,1.56-1.41,1.93-2.8a5.61,5.61,0,0,0-.89.36,2.21,2.21,0,0,1-2.94,0" transform="translate(-84.1 -149.39)"/><path class="cls-1" d="M205.69,480.69a16,16,0,0,0-6.78-1.41c-2.81,0-5.58-.38-8.47-.12-4.09.36-8.17.77-12.43,1.32a17.89,17.89,0,0,0,6.27,5.16c2.79,1.22,5.07,3.38,8.05,4.26,1,.29,1.6.23,2-.88.43-1.33,1.06-2.58,1.55-3.89.25-.66.51-1.38,1.35-1.13s.63,1.14.48,1.71a6.47,6.47,0,0,1-1,2.38c-1.81,2.34-1.39,3.27,1.67,3.78a69.25,69.25,0,0,0,14.56,1.25,77.57,77.57,0,0,0,13.69-2.25c-1.71-1.62-3.86-2.27-5.58-3.49-4.68-3.3-10.26-4.37-15.32-6.69" transform="translate(-84.1 -149.39)"/><path class="cls-1" d="M323.94,551.58c-.68-.13-1.65.27-1.36,1.26a2.64,2.64,0,0,0,2.75,2.56,1.36,1.36,0,0,0,1.54-1.64c-.29-1.5-1.69-2-2.93-2.18" transform="translate(-84.1 -149.39)"/><path class="cls-1" d="M274.34,508.23c-1.36.6-1.86-.5-2.59-1.3a5.6,5.6,0,0,0-1,3.85c.17,1.59,2.22,3.2,2.88,2.37.9-1.14,2-2.34,1.58-4.07-.12-.51-.34-1.06-.84-.85" transform="translate(-84.1 -149.39)"/><path class="cls-1" d="M320,471.92a13.71,13.71,0,0,0,1.49.06,4.94,4.94,0,0,0,4.69-3.56,3.47,3.47,0,0,0-1.26-4.22,2.46,2.46,0,0,0-2.81-.15c-.92.42-2.36,1.56-2.08,1.88,1.75,2-.37,2.51-1.15,3.52s-.41,2.24,1.12,2.47" transform="translate(-84.1 -149.39)"/><path class="cls-1" d="M101.55,480.19a2.65,2.65,0,0,0,2.63-1.42c.37-1-1.17-.83-1.79-1.32a2,2,0,0,0-1.14-.3c-1.62,0-1.91-1.13-2.1-2.38a2.53,2.53,0,0,1,.78-2.17c.78-.64,1.49-.11,2.21.19,1,.4,2,.81,2.94,1.17.3.1.72.13.8-.3a.83.83,0,0,0-.34-.64,6.74,6.74,0,0,0-4.66-1.26c-2.43.3-3.47,2-3.31,4.62a4.45,4.45,0,0,0,4,3.81" transform="translate(-84.1 -149.39)"/><path class="cls-1" d="M101.39,559.53c-.45-2.55-.76-5.13-1.18-7.68-.12-.71-.34-1.64-1.36-.65a9.51,9.51,0,0,0-2,9.8c1.1,2.69,2.38,3.38,5.21,2.85.66-.13,1.32-.18,2-.29,2.33-.42,5.59-3.42,6-5.52.3-1.49-2.26-6.38-3.67-6.92-1-.38-1.76-.28-1.61,1.08.13,1.19.3,2.37.45,3.56h.06c.07,1.06.16,2.12.22,3.19a2.59,2.59,0,0,1-2.53,2.88c-2,.22-1.45-1.34-1.61-2.3" transform="translate(-84.1 -149.39)"/><path class="cls-2" d="M100.08,533.9c0,3.92.46,7.84.16,11.77a2.28,2.28,0,0,1-1.42,2.17A11.47,11.47,0,0,0,93,552.9c-.55,1.07-1,.66-1.56-.08a17.74,17.74,0,0,1-2.6-5.29c-.64-1.94-2-2.79-3.32-2.23-1.19.48-1.73,2.78-1.24,4.29,1,3.13,3,5.75,4.49,8.6,3.51,6.66,8,12.68,12,19,2.46,3.82,5.27,7.46,7.88,11.19,3.5,5,7.46,9.68,11.21,14.5a2,2,0,0,0,2.58.83c1-.41,2.23-.73,2.31-2.16a2.47,2.47,0,0,0-1.5-2.6,4.52,4.52,0,0,1-1.73-1.6c-3.13-4.21-6.34-8.36-9.37-12.63s-5.92-8.45-8.67-12.81a44.83,44.83,0,0,0-3.24-4.35,29,29,0,0,0,5.58-1.23c2.57-.85,5.13-2.18,6.54-4.27,1.87-2.76,3.34-6.1.36-9.34a3,3,0,0,1-.6-1.45,2.14,2.14,0,0,0-1.3-1.66c-1.58-.7-3.09-1.63-4.86-1.72-1.21-.07-1.4-.77-1.35-1.75.09-1.73.26-3.46.21-5.18-.08-3-.43-6.11-.44-9.16,0-8.79,0-17.57.08-26.36,0-6-.8-12.09-.39-18.15a3.12,3.12,0,0,0-.87-2.55c-.52-.53-.78-1.24.21-1.78,3.31-1.78,6.6-3.33,9.88.05.09.09.24.11.36.18,4.64,2.66,9.44,5,13.88,8.08,2.21,1.52,3.73,2.93,3,5.85a5.26,5.26,0,0,0,.39,2.54c1.58,5.44,6,7.83,11.32,6.55a4.27,4.27,0,0,0,2.67-1.21c1.8-2.28,3.12-4.81,2.55-7.71-.52-2.64.7-4.22,2.35-5.84,2.07-2,4.18-4.07,6-6.29s4.61-4,6.41-6.48c.67-.94,1.34-.89,2,.06,2.05,2.76,5.23,4.19,7.74,6.43,2.82,2.51,6.46,4,9.76,5.86,2.85,1.63,6.29,1.52,9.08,3.37,1.06.7,1.2,1.08.73,2.13-1.46,3.28-2.55,6.73-4.27,9.9-.5.91-.61,2.14-1.82,2.74-.31-1.44-.58-2.74-.87-4s-.62-2.73-.94-4.09c-.12-.53-.29-1.13-1-1s-.82.82-.85,1.41a3.12,3.12,0,0,0,.23,1,57.29,57.29,0,0,1,1.36,6.24,3,3,0,0,1-.89,2.82c-1.86,2-1.61,5.14.61,6.16,1.71.78,2,2,2.29,3.57,1.23,6,1.9,12.11,2.78,18.17.39,2.7.89,5.38,1.43,8.05.32,1.58-.41,2.25-1.82,2.41s-1.39-1.1-1.76-1.82a51.39,51.39,0,0,1-3.81-11.54c-.22-.94-.53-1.84-1.61-1.55s-.7,1.2-.4,2c1.84,4.91,3.37,9.94,5.52,14.74a2.08,2.08,0,0,1,.12,2.19c-2,3.53-.75,6.45,3.22,7.46,1.76.44,2.22,1.49,2.75,2.89,1.32,3.47,2.76,6.89,4.06,10.36s3.09,6.87,4.47,10.37A4,4,0,0,0,202.2,587a.9.9,0,0,0,1.25-.22.76.76,0,0,0,.07-1.08c-2.24-2.26-2.92-5.28-4.09-8.1-1.94-4.67-3.89-9.34-5.64-14.09a4.08,4.08,0,0,1,.67-4.49c3.67-4.39,2.13-6.88-1.23-9.83a4.25,4.25,0,0,1-1.58-2.6c-1.62-9-3.23-18-4.92-26.95a2.14,2.14,0,0,1,.89-2.5c2.08-1.59,2.23-3.77.61-5.85a1.59,1.59,0,0,1-.32-2c2.19-4,3.54-8.4,5.41-12.56.43-1,.92-1,1.86-.89,2.48.3,4.8,1.49,7.38,1.28,3.33-.28,6.53,1.35,9.89.72a12.76,12.76,0,0,1,4.57.11,13.06,13.06,0,0,0,8.69-1.46,9,9,0,0,1,2.5-1.12,88,88,0,0,0,12.29-3.28c1.38-.51,1.63,0,1.93,1,1,3.58,2.06,7.14,3.07,10.72a2.7,2.7,0,0,1-.77,3.2,7,7,0,0,0-2.43,3.73c-1.41,5.65,2.7,12,9.7,11.09,3.37-.46,5.42-1.93,6.16-5,.65-2.68-.07-5.15-.85-7.62a2.75,2.75,0,0,1,.2-2.36c1.15-2.37,3.32-4,4.36-6.36,1.35-3,4-4.88,5.5-7.72a1.15,1.15,0,0,1,1.34-.75,29.9,29.9,0,0,0,1.47,5.53,29.48,29.48,0,0,1,1.21,5.86c.26,1.43,0,2.35-1.61,2.58-.49.07-1.49.38-1.21.7,1.26,1.43,0,2.82.15,4.2.24,1.8,1.89,3.9,3.58,4.17,1.47.23,2.88-.08,3.52-1.61.54-1.32,1.34-2.59,1-4.16a2.07,2.07,0,0,1,1.77-2.45c1.11-.06.45,1.35.61,2.11a5.9,5.9,0,0,1,0,1.39q-.26,7.5-.52,15c-.26,6.9-.56,13.8-.72,20.71,0,1.16-.46,1.31-1.37,1.35-1.83.07-3.48.88-5.2,1.4-.81.25-1.62.76-1.17,1.71s0,1.3-.43,1.91c-2.3,3.33-2.36,5.57-.14,7.94a11,11,0,0,0,4.48,3.18c2.11.71,3,1.9,2.7,4.3a67.86,67.86,0,0,0-.1,13.37,14.46,14.46,0,0,1-.4,5.93c-.42,1.23-.17,2.39,1,2.89s2.2-.35,3-1.18A3.61,3.61,0,0,0,281,587a15.93,15.93,0,0,0,.28-3.57,129.83,129.83,0,0,1-.21-18,3.45,3.45,0,0,1,2-3.26,8.05,8.05,0,0,0,3.16-3.44,6.27,6.27,0,0,0-1.64-8.24,1.19,1.19,0,0,1-.54-1.54c.22-.55.49-1.09.69-1.65,1.49-4.17,2.8-8.42,4.52-12.52.74-1.75,2-3.31,2-5.36,0-.87.29-2-1-1.87s-3.2-.68-3.5,1.33c-.4,2.63-1.72,4.88-2.44,7.36a1.77,1.77,0,0,1-1.37,1.4,28.18,28.18,0,0,1-.22-3.38,312.23,312.23,0,0,0,.51-31.35,2.39,2.39,0,0,1,.83-2.11c2.43-2.15,4.79-4.38,7.15-6.61,4.18-3.94,8.29-8,12.53-11.85,3.8-3.49,7.76-6.81,11.61-10.26.65-.58,1-.38,1.47.12a4.74,4.74,0,0,0,3.48,1.68c1.3,0,1.6.62,1.66,1.68.29,5.46.85,10.92.82,16.37s.08,11.19.24,16.77c.19,7.32.2,14.65.59,22,.25,4.84-.06,9.72.32,14.57.12,1.5-.34,2.1-1.84,2.37-3.43.61-4.9,3.21-5.68,6.24a3.87,3.87,0,0,0,.64,3.81c2.32,2.21,4.49,4.92,8.36,3.86.84-.23,1.19.05,1,1-.82,5.14-.44,10.37-1,15.53-.7,6.75-.49,13.57-1.28,20.32-.22,1.87.91,3.65,2.27,3.71s3.3-1.93,3.26-3.67c-.18-7.27,1.26-14.45,1.2-21.73-.05-6,1.25-11.91,2.25-17.81.6-3.55.16-7.22,1.08-10.7,1.3-4.94,2.78-9.84,4.24-14.74.24-.79.36-1.42-.39-1.92a2.81,2.81,0,0,0-4.36,1.52c-.87,2.86-1.58,5.76-2.45,8.62a52.12,52.12,0,0,1-2.45,7.58c-.86-.95-1.15-2.1-2.48-2.16-.62,0-.62-.76-.63-1.31q-.21-10.2-.42-20.4c-.2-8.54-.5-17.07-.58-25.61-.07-8.28-.93-16.51-1.31-24.78a1.67,1.67,0,0,1,1.15-1.94c3-1.4,4.21-5.21,2.88-8.59-.9-2.28-5-4-7.62-3.18a6.27,6.27,0,0,0-4.46,6.4,3.92,3.92,0,0,1-1.77,3.46,156.54,156.54,0,0,0-12.29,11.16c-2.92,2.8-6.07,5.33-8.84,8.3-2.5,2.68-5.34,5.09-7.89,7.75-.27.28-.39.78-.89.6s-.34-.54-.34-.86c0-2.47.05-4.93-.08-7.39-.18-3.27.48-5.74,3.62-7.77,4.38-2.84,3.14-9.14-.35-10.91-2.64-1.35-4.92-4-8.69-3.05,1-2.17,2.94-2.77,4.07-4.21,1.59-2,3.37-4.24,5.33-5.47a12.85,12.85,0,0,0,4.48-4.2c2-3,3.62-6.28,5.57-9.34a3.38,3.38,0,0,0-.8-4.29c-1.36-.91-2.86-1.61-4.3-2.38a45.52,45.52,0,0,0-8.89-3.32c-1.93-.56-2-1.78-1.19-3.18a20.61,20.61,0,0,0,1.57-4.07c.38-1.15.08-2.05-1.15-2.31-2.72-.57-4.67-2.75-7.35-3.46-.89-.23-1.73-.94-2.67-1.28-.62-.21-1.2-.67-.74-1.34,1.88-2.69,2.28-5.92,3.28-8.93a44.21,44.21,0,0,0,2.45-9.34c.65-6.78,2.51-13.3,3.62-20,.71-4.3,2.57-8.38,3.22-12.72.41-2.72,1.73-5.2,2-7.85a119.27,119.27,0,0,1,2.41-14.08,148.77,148.77,0,0,0,3.27-17.39c1.32-11.18,4.2-22.08,6-33.19.69-4.32,2.05-8.57,2.56-12.86.79-6.67,1.53-13.32,2.92-19.89.77-3.64,0-7.72,3.16-10.65a.6.6,0,0,0,0-.54c-1-.46-.45-1.22-.43-1.9.1-5.23,1.61-10.27,2.06-15.49.58-6.83.94-13.66,1.25-20.51.14-3.11.36-6.26.33-9.33-.07-5.53.69-11,.46-16.54a67.33,67.33,0,0,0-.65-9.91c-1.16-6.14-4.34-11.5-6.3-17.31a6.59,6.59,0,0,0-1.3-2.64,36.32,36.32,0,0,0-6.62-5.55A25.88,25.88,0,0,0,275.8,150a43.12,43.12,0,0,0-13.08,4.62c-5,2.91-9.61,6.29-12.75,11.08-4,6.19-7.88,12.54-10.53,19.51-1.12,3-2.23,5.92-3.47,8.84s-2,6-3.45,8.87a2.76,2.76,0,0,0-.39,1.71c.44,1.92-.39,3.52-1.07,5.17-.48,1.17-1.16,2.27-1.54,3.47-1.72,5.5-4.15,10.73-6.1,16.15-1.53,4.23-3.17,8.45-4.54,12.72-1.89,5.88-4.45,11.53-5.94,17.53-.78,3.11-2.5,5.91-3.13,9-1,4.87-3.73,9.1-4.77,13.93-.61,2.86-2.12,5.44-2.64,8.35a78.39,78.39,0,0,1-2.1,9.52c-2.11,6.89-4.42,13.72-6.53,20.6-3.2,10.45-6.75,20.78-10.14,31.16-2.63,8.06-5.79,16-7.81,24.22-.85,3.49-2.12,6.9-2.82,10.38-.78,3.85-1.85,7.61-2.8,11.4-.3,1.18-.86,1.68-2.09,1.51-3.27-.44-6.52.16-9.77.32-1.16.05-2.29.36-1.92,1.86.47,1.94.08,3.84.09,5.76,0,1.29-.32,1.89-1.74,2-3.39.21-6.76.67-10.15.86-1.3.07-1.69.49-1.85,1.73-.25,1.92-.05,3.85-.23,5.77a21.89,21.89,0,0,0,1.33,9.78,61.4,61.4,0,0,1,3.22,11.68,80,80,0,0,0,4,13.94c2.44,6.77,4.69,13.73,9.15,19.6a1.12,1.12,0,0,1-.17,1.73c-1.77,1.68-3.5,3.41-5.21,5.16-2.95,3-5.95,6-8.81,9.15-1.9,2.09-1.8,2.18-4.27.79a6.9,6.9,0,0,1-.67-.43c-2.2-1.58-4.46-1.88-6.77-.23-.64.46-1.17.26-1.84,0-2.37-1-4.1-2.94-6.31-4.14-4.72-2.56-9.46-5.07-14.19-7.62-.73-.4-1.6-.78-1.42-1.91.48-3-.94-4.46-3.62-5.76-4.93-2.41-9.42-2-12.91,3.18-1.36,2-1.74,7.65,1.31,8.76,3.29,1.19,3.51,3.87,3.71,6.29.51,6.1.63,12.23.73,18.35.15,9.19.13,18.39.23,27.59m92.31,17c1.36.64,1.71,1.89,2.26,2.88-.32,1.72-.41,3.28-1.57,4.45s-2.18,1.73-3.72.89-2.28-2-1.84-3.74a7.84,7.84,0,0,1,1.92-3.44c.7-.75,1.56-1.69,2.95-1m-6.78-34.4a2.3,2.3,0,0,1-2.35-2.17c-.28-1.83,1-2.1,2.27-2.32s1.65.71,1.74,1.78c.11,1.32-.36,2.58-1.66,2.71M281,558.2c-1.36.37-1.19,2.26-2.89,2.4-2,.18-4.95-1.15-5.61-3.08a1.56,1.56,0,0,1-.11-1,13.5,13.5,0,0,1,3.09-4.79c1.05-.94,2.71-.77,4.14-.14a4.37,4.37,0,0,1,3,3.75c-.15,1.08-.18,2.43-1.6,2.82m41.66-.3c-.8-.59-2.34-.67-1.84-2.49a7.73,7.73,0,0,0,4.21,2c-.79,1-1.59,1.1-2.37.53m4.23-4.14a1.36,1.36,0,0,1-1.54,1.64,2.64,2.64,0,0,1-2.75-2.56c-.29-1,.68-1.39,1.36-1.26,1.24.23,2.64.68,2.93,2.18m-8-84.31c.78-1,2.9-1.49,1.15-3.52-.28-.32,1.16-1.46,2.07-1.88a2.48,2.48,0,0,1,2.82.15,3.46,3.46,0,0,1,1.26,4.22A5,5,0,0,1,321.5,472c-.56,0-1,0-1.49-.07-1.53-.23-2-1.32-1.12-2.47m-106,23.67a69.25,69.25,0,0,1-14.56-1.25c-3.06-.51-3.48-1.44-1.67-3.79a6.35,6.35,0,0,0,1-2.37c.15-.57.37-1.45-.48-1.71s-1.1.47-1.35,1.13c-.49,1.3-1.12,2.56-1.55,3.89-.37,1.11-1,1.17-2,.88-3-.88-5.26-3-8.05-4.26a17.89,17.89,0,0,1-6.27-5.16c4.26-.55,8.34-1,12.43-1.32,2.89-.26,5.66.16,8.47.12a16,16,0,0,1,6.78,1.41c5.06,2.32,10.64,3.39,15.32,6.69,1.72,1.22,3.87,1.87,5.58,3.49a77.57,77.57,0,0,1-13.69,2.25M251.71,517a3.47,3.47,0,0,1-3.29-1c-2.21-2.26-1.89-5.41.66-6.5.37-.16.75-.36,1.12-.07s.18.7,0,1.06a10.56,10.56,0,0,1-.53,1.29c-.61,1-.93,2,.12,2.83a2.21,2.21,0,0,0,2.94,0,5.61,5.61,0,0,1,.89-.36c-.37,1.39-.57,2.53-1.93,2.8m13.59-28.59c-2.85,3.9-5.86,7.69-8.38,11.82-1.13,1.87-2.86,3.3-3.69,5.41-.37,1-2.52.27-3-1-.54-1.43-1-2.9-1.4-4.37-.8-2.74-1.56-5.49-2.36-8.22-.33-1.13-.47-1.77,1.17-2.18a27.5,27.5,0,0,0,9.33-4.68c1.76-1.26,3.89-1.9,5.62-3.25.57-.44,1.44-.59,1.86-1.12,1.54-1.94,1.84-.67,2.18.73.24,1,.49,2.07.8,3.32a12.88,12.88,0,0,1-2.14,3.53m3.76-5.42c-.76.09-.55-1-.77-1.57-.73-1.85-1-3.54,1.55-4.41a21.46,21.46,0,0,0,.32,4,1.59,1.59,0,0,1-1.1,2m4.54,30.21c-.66.83-2.71-.78-2.88-2.37a5.6,5.6,0,0,1,1-3.85c.73.8,1.23,1.9,2.59,1.3.5-.21.72.34.84.85.41,1.73-.68,2.93-1.58,4.07m5.45-10.94a4.2,4.2,0,0,1-1.53,3.11,2.23,2.23,0,0,1-3.72-.92c-1.27-4.61-2.44-9.24-3.65-13.86-.37-2.48,1.79-3.62,2.74-5.33.25-.46.88-.17,1.22.17a5.48,5.48,0,0,0,4,1.57c.85,0,1.14.47,1.13,1.29-.08,4.65-.18,9.31-.16,14m.06-27.24a25.39,25.39,0,0,1,2.7-.68c2.56-.46,4.2,1.61,3.27,4.11-1,2.74-5.41,5.11-8.28,4.59a2.94,2.94,0,0,1-2.74-3.53,5.17,5.17,0,0,1,.73-3.73c.7-1.06,1.31-1.86,2.62-.8.52.43,1.12.21,1.7,0M202.78,308.48c.86-4.73,3-9.12,3.68-13.84s2.66-8.86,3.75-13.33c.8-3.28,2.72-6.08,3.39-9.26,1.09-5.15,3.89-9.75,4.53-15,.27-2.16,1.78-3.82,2.43-5.87,2-6.39,4.06-12.78,6.54-19,1.6-4,2.93-8.09,4.64-12.06,1.77-4.12,3.47-8.31,5-12.55a25.92,25.92,0,0,1,2-4.12c1.76-3,2.22-6.51,3.95-9.52.81-1.4,2.32-2.55,2.08-4.39-.53-4.17,2.16-7.31,3.22-10.94,1-3.35,3-6,4.61-8.84A25.18,25.18,0,0,1,257.7,164c4.31-3.93,9.57-5.84,15.09-7.16a25.86,25.86,0,0,0,2.92-1.19c4.49-1.62,8.43.16,12.55,1.51,2.45.81,4,2.72,6.08,4,1.51.91,3.34,1.17,4.55,2.67a10.41,10.41,0,0,1,2.42,4.07,22.61,22.61,0,0,0,2.72,5.93c1.49,2.56,1.58,5.43,2.25,8.13.88,8.13-.55,16.08-1.26,24.09-.29,3.33.11,6.88,0,10.31a184.48,184.48,0,0,1-2.33,25.81c-.85,5.3-1.79,10.6-2.75,15.88-.84,4.68-1.8,9.36-2.52,14.08-1,6.47-1.28,13-3.07,19.41-1.42,5.08-1.48,10.52-2.84,15.66-1.77,6.68-2.3,13.59-3.89,20.3-.09.37.06.88-.39,1.05s-.71-.41-1-.69c-1.35-1.1-3.13-1.08-4.69-1.65-6-2.16-12-4.5-18.14-5.91-6.65-1.52-13.22-3.5-20-4.31-5.34-.64-10.58-2.12-15.93-2.71-7.27-.8-14.44-2.38-21.76-2.8-.6,0-1.19-.16-1.79-.19-1.28-.08-1.31-.55-1.08-1.8m-28.43,90.83c2.57-5.2,2.56-11.09,4.56-16.47a53.57,53.57,0,0,0,2.32-8.79c.57-3,1.87-5.8,2.65-8.7,1.27-4.66,3.3-9,4.47-13.73.82-3.26,2.26-6.35,3.21-9.58,1.1-3.74,3-7.19,4-10.9.89-3.12,1.59-6.29,2.64-9.36.7-2.06,1.28-4.17,2-6.24.58-1.77,2.19-.65,3.34-1.22,4.09.29,8.21,1,12.34,1.68,5.38.83,10.84,1.35,16.14,2.51,6.55,1.45,13.19,2.46,19.72,4,7.37,1.73,14.76,3.41,22,5.75a59.41,59.41,0,0,1,8,3.08,17.66,17.66,0,0,0,4.55,1.22c.77.15,1,.38.86,1.16a22.69,22.69,0,0,1-.46,3.54c-2.12,6.23-2.74,12.78-4.18,19.14-1.71,7.57-3.27,15.17-5.39,22.66a122.08,122.08,0,0,0-3.79,18.36,72.6,72.6,0,0,1-3.22,13.66c-.86,2.7-1.64,5.43-2.39,8.16-.34,1.23-.9,1.62-2.17,1.15-3.28-1.23-6.58-2.55-9.91-3.47-6.38-1.78-12.66-3.9-19.12-5.41-7.38-1.71-14.73-3.5-22.12-5.17-3.18-.73-6.46-.72-9.66-1.43-4.27-.95-8.58-1.8-12.92-2.39-5.39-.72-10.83-1.18-16.25-1.63-1.26-.11-1.65-.58-1.16-1.57m-13.59,10.12c0-1.16.07-2.68.17-4.2a1.3,1.3,0,0,1,1.39-1.38c1.91,0,3.8-.53,5.73-.18s3.6-.66,5.35-.79c2.14-.17,4.37.1,6.57,0a6.1,6.1,0,0,1,4,1,3.72,3.72,0,0,0,2.7.48,20,20,0,0,1,9.89,1.52,5.53,5.53,0,0,0,1.94.38c9.46.11,18.62,2.35,27.72,4.46,6.73,1.56,13.48,3.28,20.14,5.26A178.55,178.55,0,0,1,264.43,422c4,1.66,8.32,2.65,11.7,5.57.76.65,2.41.08,2.5,1.22a7.67,7.67,0,0,1-1,3.38c-1.37,3-1.39,2.95-4.6,1.84-4.4-1.52-8.79-3.28-13.26-4.35-6.07-1.45-11.8-3.93-17.9-5.25a36.7,36.7,0,0,1-8.44-2.64c-2.9-1.43-5.93-2-8.91-2.85-3.24-.91-6.64-1.22-10-1.84-8.76-1.64-17.59-2.78-26.43-3.87a72.09,72.09,0,0,0-13.54-.82c-4.13.27-8.23-.68-12.36-.35-1.82.14-1.19-1.32-1.43-2.61M215,418.57c0,.17-.07.35-.11.52-1.45-.58-3.17.37-4.76-1.18l4.87.66m-15.42-2.74-.09.94c-4.86-1.49-9.94-.78-14.74-2.32l14.83,1.38m-51.86,7.8c-.65,0-.94-.21-1.06-.87a30.26,30.26,0,0,1-.34-6.38c0-.81.41-1.05,1.22-1.21,7.08-1.42,14.18-1,21.26-.28,5.75.6,11.51,1.09,17.26,1.6,5.2.45,10.35,1.67,15.52,2.6,4.36.79,8.83,1.21,13.14,2.25,3.67.89,7.43,1.28,11.08,2.25s7.44,1.9,11.18,2.79,6.94,2.77,10.63,3.29c5.37.76,10.17,3.42,15.52,4.3,2.7.45,5.19,2,7.82,2.95,4.3,1.52,8.67,2.84,12.95,4.42,3.09,1.14,6.06,2.58,9.11,3.89-1.1,2.8-3.06,5-4.54,7.5a.71.71,0,0,1-.88.27c-5.36-1.52-10.81-2.81-15.66-5.64-1.72-1-3.63-1.05-5.41-1.79a118.65,118.65,0,0,0-15.78-4.77c-5.38-1.39-10.86-2.41-16.19-4-3-.93-6.25-1.25-9.33-2.05-8.06-2.09-16.2-3.94-24.39-5.26q-10-1.62-20-3.17c-5.39-.82-10.84-.71-16.23-1.41-5.58-.74-11.18-1.52-16.84-1.24m10,33.21c-2.45-5.25-3.8-10.86-5.35-16.41-.94-3.38-1.66-6.83-2.48-10.24l.16,0a15.24,15.24,0,0,0-.14-1.8c-.54-2.48-.52-2.77,2.1-2.45,3.83.47,7.7.63,11.52.76A151.23,151.23,0,0,1,179,428.18c8.3,1.13,16.51,2.76,24.73,4.32,7,1.31,13.8,3.33,20.87,4.25,3.52.46,6.79,2.26,10.37,2.77,5,.73,9.75,2.49,14.63,3.76,7.9,2.05,15.49,5,23.23,7.54,2.26.73,4.55,1.44,6.82,2.17,3.49,1.13,4.14,2.87,1.4,5.41-2.42,2.23-4.39,4.92-7.19,6.83-1.9,1.3-3.17,3.56-5.17,4.84-2.5,1.6-4,4.42-7,5.38a1.52,1.52,0,0,0-.92.7c-.72,2.29-2.81,2.83-4.6,3.78-2.23,1.17-4.19,2.8-6.49,3.88-1.16.55-2.38.85-3.52,1.38s-1.73.16-2.06-1c-1.12-4-2.32-7.9-3.42-11.87a4.13,4.13,0,0,0-1.3-2.4c-.62-.49-1.23-1.1-2.13-.57a1.78,1.78,0,0,0-.78,2.25c1,3.79,1.51,7.7,2.89,11.42s1.21,3.69-2.49,5.06a46.47,46.47,0,0,1-5.6,1.34,5.3,5.3,0,0,1-4.85-.82c-2.76-2.12-6.14-3.3-9.11-5.16-1.84-1.15-4.18-1.19-6.16-2.2a37.54,37.54,0,0,0-18.22-4.11c-3.91.1-7.81.88-11.71,1.35a11.79,11.79,0,0,0-3.35.43c-3.89,1.71-6.56-.28-9.13-2.74-1.07-1-1.53-2,0-3.1,2.94-2.19,5.43-4.88,8.14-7.32.92-.83,1.52-1.81.67-3-.7-.92-3.07-1-3.9-.37-2.82,2.21-5,5-7.85,7.28-1.09.86-1.35.67-2-.28-2.75-3.83-4-8.36-6-12.57M136.6,495.11c1-1.37,2.38-.82,3.64-.62.5.08.43.59.12.94a7,7,0,0,1-1.1,1.14c-1.29.91-1.51,2-.49,3.17.81.94,2.71.73,3.71-.35.53-.56.91-1.28,1.7-1.64.44,2.65-2.45,4.6-5.38,3.76a4.12,4.12,0,0,1-2.2-6.4m-39-18.73c-.16-2.63.88-4.31,3.31-4.62a6.75,6.75,0,0,1,4.65,1.26.81.81,0,0,1,.35.64c-.08.43-.5.4-.8.3-1-.36-2-.77-2.94-1.17-.72-.3-1.43-.83-2.21-.19a2.53,2.53,0,0,0-.78,2.17c.19,1.25.48,2.38,2.11,2.38a2,2,0,0,1,1.13.3c.62.49,2.16.28,1.79,1.32a2.65,2.65,0,0,1-2.63,1.42,4.45,4.45,0,0,1-4-3.81m8,82.57c-.06-1.07-.15-2.13-.22-3.19h-.06c-.15-1.19-.32-2.37-.45-3.56-.15-1.36.63-1.46,1.61-1.08,1.41.54,4,5.43,3.67,6.92-.43,2.1-3.69,5.1-6,5.52-.66.11-1.32.16-2,.29-2.83.53-4.11-.16-5.21-2.85a9.51,9.51,0,0,1,2-9.8c1-1,1.24-.06,1.36.65.42,2.55.73,5.13,1.18,7.68.16,1-.37,2.52,1.61,2.3a2.59,2.59,0,0,0,2.53-2.88" transform="translate(-84.1 -149.39)"/></svg>