<svg id="Layer_1" data-name="Layer 1" xmlns="http://www.w3.org/2000/svg" viewBox="0 0 266.65 461.48"><defs><style>.cls-1{fill:#fff;}.cls-2{fill:#010101;}</style></defs><path class="cls-1" d="M287.68,242c2.42,0,3.34-1.46,3.62-4.45-.21-3.27-1.11-4.41-3.33-4.24s-4.21,3.16-4,5.63a3.64,3.64,0,0,0,3.72,3.06" transform="translate(-168.84 -186.12)"/><path class="cls-1" d="M281.09,253.64c1.73,3.73,3.85,7.31,5.28,11.15,1.84,4.94,4.43,9.76,3.92,15.46.07,1.44.14,3,.23,4.59.06,1.1.33,1.72,1.65,1a13,13,0,0,1,10-.85c1.52.47,1.89.36,2.12-1.41.81-6.45,1-13.06,4-19a33.8,33.8,0,0,0,2.13-4.2c1.48-4.36,4.46-7.88,6.63-11.85a21.44,21.44,0,0,1,5-6.33c.58-.47.46-1.07.38-1.65-.35-2.66-.94-5.3-1.06-8-.34-7.25-.6-14.49-3.29-21.38-1.11-2.85-2-5.77-3.24-8.57-.64-1.49-1.94-2.7-2.52-4.21-1.37-3.55-4.26-5.44-7.37-7a12.92,12.92,0,0,0-10.58-.58,22.28,22.28,0,0,0-7.24,3.82,29.69,29.69,0,0,0-9.31,14.62c-1.53,5.44-3.22,10.84-4.42,16.4-1.07,5-1.29,9.91-1.73,14.88a5.16,5.16,0,0,0,1.9,4.5c2.7,2.64,5.83,4.93,7.48,8.53m21.23-20c1.86-2,7.58-2.44,9.47-.59a4.31,4.31,0,0,1,1.19,4.36c-1.25,4.13-2.32,5.89-7.15,5.62-1.56-.17-3.8.33-4.92-2-.94-2-.21-5.65,1.41-7.38m-13.64-1.86c2.75,0,4.72,2.33,4.74,5.7,0,4.2-1.89,6.21-5.91,6.23-3.51,0-6-2.1-6-5,.06-3.52,3.48-6.82,7.14-6.9" transform="translate(-168.84 -186.12)"/><path class="cls-1" d="M283.31,294.62c1.2-1.8,1.59-4.34,3.54-5.38s2.08-2.32,1.82-4.08c-.91-7.49-1.63-15.05-5.69-21.74-1.44-2.37-2.84-4.75-3.14-7.6a1.32,1.32,0,0,0-1-1.11,4.77,4.77,0,0,1-3-3.43c-.48-2-1.92-2.95-3.14-4.2-1-1-1.18-.26-1.25.65-.2,2.61-.42,5.23-.61,7.84-.35,4.77-.29,9.53-.17,14.31.13,5.16-.18,10.33-.29,15.49,0,.66-.1,1.28.67,1.74,3.61,2.16,6.14,5.63,9.63,8,1.25.84,1.73.82,2.59-.46" transform="translate(-168.84 -186.12)"/><path class="cls-1" d="M427.2,404.57a51.2,51.2,0,0,1-6.05-7.42c-2.75-3.72-5.93-7.17-8.52-10.94-2.06-3-4.64-5.44-6.89-8.18-2.12-2.58-4.05-5.3-6.17-7.88a164,164,0,0,1-10.34-13.57,2.83,2.83,0,0,0-1.67-1.37,4,4,0,0,0-.42.22A93.24,93.24,0,0,0,377,363c-1.26,1-2.44,2.21-3.79,3.12a51,51,0,0,0-4.41,3.75c-.41.35-1.07.78-.33,1.44,1.85,1.67,3,3.89,4.54,5.81,3.05,3.87,6.83,7.06,9.63,11.2a53.3,53.3,0,0,0,6,8c4,4,7.24,8.63,11.06,12.78,3.29,3.56,6.16,7.51,9.16,11.32.66.84,1.35,1.45,2.11.38,1.34-1.9,3.48-2.79,5.09-4.33,3.46-3.28,6.89-6.59,10.66-9.52.92-.71,1.37-1.65.5-2.46" transform="translate(-168.84 -186.12)"/><path class="cls-1" d="M306.38,241.51a4.74,4.74,0,0,0,4.54-4.81,3.24,3.24,0,0,0-2.89-3.56c-2.58,0-5.57,2.79-5.69,5.38-.07,1.55,1.85,3,4,3" transform="translate(-168.84 -186.12)"/><path class="cls-1" d="M430.44,445.28c.19-1.69-.35-1.88-1.75-1.88-6.3,0-12.61-.07-18.92-.14-3.72-.05-3.7-.86-4.13,3.57-.14,1.34-.3,2.68-.38,4-.61,9.9-1.31,19.79-1.77,29.69-.29,6.17-1.59,12.2-2.12,18.33-.33,3.85-.29,3.85,3.68,4,.82,0,1.65.1,2.76.18,3.35.3,6.87-.72,10.46-.9,4.52-.23,4.52-.19,4.94-4.62,0-.37.23-.72.29-1.08.63-3.9,1.71-7.8,1.77-11.71.1-7.62,1.86-15,2.59-22.55.56-5.65,1.91-11.23,2.58-16.9" transform="translate(-168.84 -186.12)"/><path class="cls-1" d="M307.49,273.58c-.62,3.15-1.29,6.3-1.74,9.48a3.58,3.58,0,0,0,1.92,4.1,9.27,9.27,0,0,1,5,6.25c.66,2.79,1,2.82,3.24.87,2.1-1.78,4-3.81,6.27-5.37s3.73-3.32,3.66-6.35c-.23-9.19-.41-18.38-1.67-27.52-.45-3.32-.42-6.71-1.49-10.63a92.4,92.4,0,0,0-5.52,7.87c-3.79,6.83-8.1,13.45-9.66,21.3" transform="translate(-168.84 -186.12)"/><path class="cls-1" d="M307.7,289.35c-1-.38-1.93-.71-2.88-1.15-7.7-3.62-15.82-.29-19.48,6.76-1.95,3.75-1.67,7.55-.28,11.49,1.61,4.55,4,8.16,9.11,8.83,4.14.54,8.51.41,11.77-2.35a16,16,0,0,0,5.63-12.44c-.15-1.34-.28-3.29-.62-5.2-.41-2.32-.53-4.88-3.25-5.94" transform="translate(-168.84 -186.12)"/><path class="cls-1" d="M213,365a4.82,4.82,0,0,0-.82-.48c-.81,0-1.05.5-1.32.95-1.72,2.8-3.83,5.33-5.63,8.05-2.5,3.77-5,7.51-7.48,11.33-3.26,5.14-6.52,10.31-10,15.32-3.05,4.44-5.15,9.45-8.74,13.55-1.93,2.2-1.54,2.83.7,4.53,4.59,3.5,9.11,7.09,13.6,10.72,1.1.89,1.56.84,2.37-.4,3.89-6,7.06-12.43,10.57-18.65,3-5.33,5.56-10.93,8.79-16.11,2.9-4.63,5-9.74,8.25-14.14.84-1.12,2.38-2.74.84-4.31A108.31,108.31,0,0,0,213,365" transform="translate(-168.84 -186.12)"/><path class="cls-1" d="M175,456.79c1.25,5.4,2.49,10.8,3.85,16.17,1.15,4.54,2.53,9,3.7,13.55,1.35,5.2,2.55,10.43,4.26,15.52.34,1,.94,1.28,2.07,1,5.45-1.28,10.92-2.45,16.39-3.66.76-.17,1.53-.38,1.17-1.47A132.93,132.93,0,0,1,203.07,484c-1.59-7.43-4.18-14.62-5.92-22-.94-4-2.23-7.91-3.33-11.87-.27-1-.6-1.72-2.1-1.37-4.42,0-8.8,1.72-13.31,2.77-4.35,1-4.38,1-3.4,5.3" transform="translate(-168.84 -186.12)"/><path class="cls-1" d="M288.82,422.67c2,0,2.46-.82,2.28-2.55a32.61,32.61,0,0,1,0-7.39,28.7,28.7,0,0,0-.66-9.64,179.1,179.1,0,0,0-5.1-19.29c-2.08-6.21-4.33-12.33-6.84-18.37-.41-1-.54-3.49-2.27-.69-.2.33-1.12.28-1.7.3-6.23.16-12.45.44-18.64,1.09a10.07,10.07,0,0,0-6.79,3.18,2.55,2.55,0,0,0-.82,2c.14,5.78,1.07,11.5,1.07,17.29a131.45,131.45,0,0,0,.61,13.47c.45,4.47,1,8.92,1.78,13.37,1,5.93,1.76,7,7.81,7.1,4.58.11,9.16.05,13.74.06,5.18.55,10.37,0,15.55.11" transform="translate(-168.84 -186.12)"/><path class="cls-1" d="M319,577.21c-.62-1-.1-3-1.9-2.92s-1.1,2-1.86,3c-.57.7.05,2.15-1.18,2.47s-1.34-1.18-1.88-1.82a1.88,1.88,0,0,0-2.36-.54c-.93.25-1.78.47-1.73,1.65a24.15,24.15,0,0,0,0,3.8c1.61,8.54,4.8,16.63,7.26,24.93,1.73,5.87,4,11.6,5.42,17.57a1.32,1.32,0,0,1-.94,1.76c-1,.28-1.06-.49-1.16-1.2-.81-6.12-3-11.89-4.65-17.79-1.76-6.41-4.62-12.5-5.6-19.16-.1-.68-.11-1.8-1-1.8-1.08,0-.74,1.11-.78,1.77-.27,5.17-.34,10.36-.78,15.51-.65,7.49-.14,15.05-1.3,22.49-.18,1.53.39,2.1,2,2.15a77.45,77.45,0,0,1,13,1.45c4.33.89,8.65,1.88,13,2.57,2.67.42,5.32.84,7.94,1.5.4.1.81.55,1.22.13s.18-.86,0-1.27a35.59,35.59,0,0,0-2.19-5.41c-3.58-6.1-5.66-12.86-8.63-19.23-2.39-5.12-4.88-10.23-6.47-15.75-.94-3.24-2.84-6.26-4-9.51-.75-2.07-.26-4.42-1.46-6.33" transform="translate(-168.84 -186.12)"/><path class="cls-1" d="M319.65,440.45c-7.42.45-14.83.65-22.25,1.3-10.54.92-21.14,1-31.72,1.52-.55,0-1.28-.32-1.61.39-.25.54.19,1.08.5,1.41,2.42,2.61,5.24,4.82,7.76,7.33.72.71,1.89,1.25,2.39,2.25a11.1,11.1,0,0,0,2.27,2.77c4.48,4.47,9,8.88,12.82,14a3.67,3.67,0,0,0,3.89,1.7,42,42,0,0,1,4.81-.46,4.85,4.85,0,0,0,5.41-2.11c2.67-3.72,6-6.82,9.09-10.13,3.3-3.52,6.67-7,10-10.48,2.42-2.6,4.63-5.42,7.48-7.61.32-.26.79-.56.67-1.08s-.57-.5-.92-.45c-3.54.53-7-.56-10.55-.34" transform="translate(-168.84 -186.12)"/><path class="cls-1" d="M280.35,326.77c-5,.78-10,.81-15,1.12a2,2,0,0,0-2.22,2,53.78,53.78,0,0,0-.8,9c0,.5-.08.95.47,1.37a46.48,46.48,0,0,1,8,8.34c4.64,5.86,7.75,12.55,10.93,19.22,2.16,4.5,2.94,9.47,4.87,14,3.26,7.7,4.68,15.83,5.65,24,.72,6,.1,12.13.08,18.2h.34a8.68,8.68,0,0,1,0,1.35c-.32,2,.26,2.9,2.48,2.62a62.32,62.32,0,0,1,7-.34c1.25,0,1.56-.47,1.38-1.64-1.67-11.06.51-21.91,2.28-32.69a100,100,0,0,1,5.58-18.94c2.5-6.68,5.07-13.35,9.11-19.42,3.88-5.83,7.93-11.34,13.74-15.34a2.12,2.12,0,0,0,1-2.83c-1.21-3.12-1.31-6.47-1.87-9.72-.26-1.52-.81-1.81-2.11-1.82-5.19,0-10.38-.19-15.56-.19-11.79,0-23.58,0-35.28,1.77m49.13,10c.75,0,1.3.25,1.27,1.18s-.71.88-1.41.88c-6.9,0-13.79.29-20.67.69-9.43.55-18.85,1.26-28.27,2.05a109.12,109.12,0,0,1-11-.05c-.53,0-1-.25-1.11-1.23,5.29-.2,10.46,0,15.62-.33,8-.54,15.92-2.09,24-2.27,6.68-.14,13.35-.57,20-.88.53,0,1.05-.05,1.58,0" transform="translate(-168.84 -186.12)"/><path class="cls-1" d="M315.68,368.89a12.84,12.84,0,0,1-1,2.73c-3.52,7.13-5.17,14.88-7.18,22.47a87.06,87.06,0,0,0-2.6,20.33c0,2.18,0,4.36,0,6.53,0,.91.15,1.38,1.23,1.32,8.32-.53,16.68.77,25-.6a6.78,6.78,0,0,1,3.3.49c3.47,1.2,8.42-1.12,9.65-4.56a18.63,18.63,0,0,0,1.33-5.23c.43-7.79,1.56-15.49,2.73-23.19.8-5.3,2.54-10.52,1.26-16.05-.31-1.33-1.77-2.18-1.27-3.8.57-1.83-.53-2.88-2.14-3.34a28.41,28.41,0,0,0-4.21-.79c-3.05-.38-6.17-.13-9.18-.53a64.39,64.39,0,0,0-12.34,0c-3.42.2-3.76.81-4.52,4.2" transform="translate(-168.84 -186.12)"/><path class="cls-1" d="M308.11,491c-.13,3.44-.27,6.87-.44,10.31-.06,1,.39,1.7,1.4,1.51,1.5-.29,2.93.41,4.3.28,2.95-.29,5.81.27,8.7.44A14.72,14.72,0,0,1,325,504a1.37,1.37,0,0,1,1.06,1.54c-.11.83-.79.82-1.4.64-4.83-1.42-9.86-.7-14.76-1.4-2.15-.31-2.67.6-2.68,2.57,0,3.15-.25,6.3-.38,9.46a240.1,240.1,0,0,0,1.2,37.15c.37,3.13,1.22,6.21,1.48,9.35.37,4.52,2.43,8.45,3.71,12.91.45-.37.64-.44.67-.55,1.39-6.61,4.79-12.58,6.15-19.2.42-2.05,1-4.06,1.49-6.11,1.35-6.21,2.9-12.38,3.49-18.74.53-5.66.74-11.34,1.74-17,1.22-6.88,2.09-13.78,1.41-20.79-.09-.93-.19-1.49-1.26-1.74-5.72-1.36-11.57-1.6-17.38-2.13-.74-.07-1.35.06-1.39,1" transform="translate(-168.84 -186.12)"/><path class="cls-1" d="M282.22,505.38c-6.14.95-12.27,2-18.41,3-1.44.22-1.64,1-1.41,2.23.91,4.8.86,9.68,1.28,14.52.35,4,.55,8.09.78,12.14.21,3.66,1.2,7.24,1.55,10.83a108.61,108.61,0,0,0,4.34,20.51c1,3.41,3.16,6.4,5.18,9.34,1.37,2,2.06,1.89,2.88-.42.95-2.66,1.73-5.38,2.45-8.11,1.75-6.63,2.1-13.5,2.95-20.26a185.91,185.91,0,0,0,1.1-30.13,49,49,0,0,1-.26-7.27,41.54,41.54,0,0,1-.3-4.65c0-1.7-1-1.88-2.13-1.7" transform="translate(-168.84 -186.12)"/><path class="cls-1" d="M282.14,585.43c-.27-2.52-.83-5-1.26-7.55-.72.27-.72.7-.93,1-1.22,1.82,0,3.8-.4,5.7a111.8,111.8,0,0,0-1.65,11.36c-1.38,11.68-2,23.45-3.65,35.1-.3,2.05.52,2.13,2,1.73,3.83-1,7.52-2.5,11.48-3.08,1.48-.22.8-1.58.68-2.42a1,1,0,0,0-1.71-.76c-2.81,1.62-6.17,1.88-8.91,3.67a1.65,1.65,0,0,1-2.06.17,11.49,11.49,0,0,1,2.94-1.9c2.46-.89,5-1.54,7.43-2.59,1.65-.72,1.88-1.42,1.54-3.05-1.21-5.79-2.66-11.58-3.25-17.45-.67-6.65-1.54-13.28-2.25-19.93" transform="translate(-168.84 -186.12)"/><path class="cls-1" d="M277.07,582.22a13.32,13.32,0,0,1-4.33-5c-.32-.56-.88-.89-1.1-.08-.66,2.45-2.78,4.19-2.92,7a13.06,13.06,0,0,1-2.66,6.79c-2.19,2.95-2.76,6.44-4.23,9.61-2.07,4.44-3.13,9.29-5,13.84a47.77,47.77,0,0,0-3.34,11.59c-.54,3.92-.72,7.89-2.17,11.64-.28.72-.43,1.92,0,2.36.55.62,1.46-.14,2.18-.46s1.36-.62,2.06-.88c1.71-.63,3.74-.74,4.46-2.92.12-.37.48-.37.65,0,.6,1.22,1.54.64,2.35.43,2.75-.73,5.5-1.49,8.23-2.29.79-.23,2.2,0,2.12-1.1s-1.49.24-2.2-.66a3.53,3.53,0,0,0,2.25-3.19c.24-4.05.54-8.09.64-12.13.28-10.37,1.94-20.59,3.24-30.85.15-1.23.88-3-.18-3.63" transform="translate(-168.84 -186.12)"/><path class="cls-1" d="M262.67,495.26c-1.15.37-2,.76-1.48,1.94.27,2.7.56,5.16.76,7.62.12,1.45.7,1.56,2.08,1.33,6.05-1,12.12-1.86,18.2-2.67,1.35-.18,1.93-.7,1.66-2-.38-1.84-.92-3.65-1.16-5.5s-1.07-2.34-2.84-2.3c-4.81.1-9.59.61-14.38.94a12.6,12.6,0,0,0-2.84.66" transform="translate(-168.84 -186.12)"/><path class="cls-2" d="M428.1,501.73c-.84-.45-.27-1.37-.15-2.07.93-5.84,2.29-11.64,2.72-17.52.63-8.72,1.78-17.36,2.86-26,.61-4.92,1.25-9.84,1.89-14.76.19-1.51,0-2.78-1.9-2.83a48.89,48.89,0,0,0-6,0c-1.92.18-2.68-.74-3.26-2.3-1.35-3.58-1.41-3.61,2.05-5.53a22.54,22.54,0,0,0,2.29-1.78,8.5,8.5,0,0,0,2.22-11.81,17.79,17.79,0,0,0-3.95-3.94,35.93,35.93,0,0,0,5.34-4.93c1.53-1.82,1.52-3.78-.18-5.34a51.44,51.44,0,0,1-6.3-7.53c-3.05-4.14-6.13-8.27-9.27-12.33s-6.88-7.63-10-11.71c-4.1-5.32-8.34-10.52-12.49-15.8a13.49,13.49,0,0,1-1.8-2.82,8.83,8.83,0,0,0-3-3.25c-1.06-.8-1.77.66-2.6,1.21a.52.52,0,0,1-.21.07c-4,.83-6.1,4.56-9.43,6.49-1.33.77-1.93,1-3,.05a4.48,4.48,0,0,0-2.33-1.24c-3-.5-5.89-1.18-8.83-1.75-.72-.14-1.31-.25-1.33-1.18,0-1.8-.15-3.6-.23-5.4-.27-6.64,2.18-13.05,1.69-19.71a1.85,1.85,0,0,1,1.11-1.82c2.31-1.19,3.47-3.43,5.06-5.28,3.68-4.28,3.81-9.37,2.44-14.24-1.78-6.33-5.79-10.85-12.66-12.47a25,25,0,0,0-16.09,1.29,27.43,27.43,0,0,0-11.31,8.69,10.54,10.54,0,0,1-3,2.58c-2.81,1.83-5.66,3.71-7.19,6.89a41.64,41.64,0,0,0-2.22,5.15c-.42,1.3-1.13,1.37-2.29,1.38-10.82.08-21.64,0-32.39,1.58-3.42.5-6.86.82-10.29,1.27a3,3,0,0,1-3.43-1.81c-1.18-2.06-.36-4,0-5.91,1-5.79-.11-10.87-4.79-14.87a5.79,5.79,0,0,0-2.72-1.27,28.35,28.35,0,0,0-12.5,0,23.43,23.43,0,0,0-11.2,6.17c-4.73,4.38-6,10.26-7.39,16.05-1,4.08-2,8.41-.48,12.45a9.34,9.34,0,0,1,0,6.86C229.89,345,229.8,350,227.16,354a45.39,45.39,0,0,1-3.7,5.35,13.38,13.38,0,0,1-5.74,3.37c-1.7.62-2.22-1.26-3.48-1.6a7.9,7.9,0,0,1-1.73-1c-2.41-1.38-3.09-1.22-4.56,1.1-1.79,2.83-3.35,5.84-5.39,8.47-4.81,6.2-8.86,12.91-13.13,19.46-2.47,3.81-4.83,7.72-7.25,11.56-2.87,4.54-5.13,9.44-8.53,13.68-1.82,2.27-1.09,4,1.43,5.7,2.18,1.45,4.65,2.43,6.59,4.28.87.83,1,1.27.06,2.08-3.34,2.76-4.2,6.56-4.47,10.66-.2,3,.81,5.78,1.28,8.66.25,1.55-.13,2.08-1.61,2.09a21.69,21.69,0,0,0-6.39,1.24c-.87.27-2,.49-1.64,2.14,1.29,6.46,2.57,12.94,3.52,19.45.89,6.06,3.06,11.75,4.45,17.67s3.2,11.7,4.78,17.56c.45,1.67,1.19,3.22,3.11,2.81,2.57-.54,5.19-.82,7.72-1.47,1.25-.32,1.6.06,2,1,2.28,5.39,2.33,11,1.28,16.58-.51,2.72-1.24,5.39-1.91,8.07a1.51,1.51,0,0,0,1.32,2c1,.18,1-.83,1.08-1.57a29.61,29.61,0,0,1,.56-3.1c1.88-7.5,2.21-15-.1-22.46-.16-.54-.63-1.2.19-1.56s1.43-1.05,2.28-.72.41,1.19.47,1.81a73.81,73.81,0,0,0,6,23.42c.76,1.7,1.9,3.25,2.48,5,.36,1.06.53,2.06,1.79,1.5,1.09-.48,2-1.55,1.28-2.86-1.56-3-2.83-6.12-4.39-9-3-5.59-4.16-11.52-5.12-17.6-.17-1.07-.31-2.29,1.3-2.65,1.44-.33,2.4-.32,3.32,1.24,2.58,4.41,5,8.95,8.7,12.6.43.42.9.79,1.33,1.21s.95.8,1.6.51.51-1,.67-1.56c.59-2-.82-2.87-2.08-3.79-3.38-2.46-5.45-6.06-8-9.22-.57-.7-.73-1.47.8-1.79s3.71-.79,2.75-3.15c-2.8-7-3.57-14.39-5.42-21.57-2.08-8-3.73-16.22-5.77-24.28-.74-2.89-2.13-5.61-2.29-8.65-.12-2.4-2.51-4.08-4.41-2.62s-3.65-.37-5.3.66c-.4.25-.43-.45-.65-.69a4.69,4.69,0,0,1-1.19-4.19,57.92,57.92,0,0,1,1.41-6.13c.55-1.86,1.77-2.19,3.48-1.14.82.51,1.61,1.08,2.47,1.52a2.94,2.94,0,0,0,4.21-1.57c1.29-3.63,3.71-6.66,5.6-9.92,2.64-4.56,5.22-9.2,8.07-13.66,1.49-2.33,2.53-4.95,4.09-7.23,2.76-4,4.8-8.45,7.27-12.63a81.35,81.35,0,0,0,5.84-10.91c.92-2.28.83-3.62-1.43-4.78a12.38,12.38,0,0,1-3.61-3c-1.8-2.09-1.53-2.77,1.11-3.67,1.54-.53,3.28-.62,4.51-1.89A45.33,45.33,0,0,0,236.5,357c.93-1.53,2.05-2.89,2.27-4.82a20.75,20.75,0,0,0-2.55-12.33,6.85,6.85,0,0,1-.87-5.36c1.45-5.32,4.71-9.44,8.18-13.5a30.72,30.72,0,0,1,7.35-6.2c3.82-2.32,12.61,0,15.51,3.5a1.59,1.59,0,0,1,.49,1c-.14,1.73-3.25,4.57-5.18,4.69a2.06,2.06,0,0,0-2.2,2c-.39,2.83-1.35,5.64-1.27,8.44.09,3.36-2.14,7.27,1.75,10a13.09,13.09,0,0,1,1.94,1.86A81.59,81.59,0,0,1,271,358.41c.37.59,1.33,1.08.83,1.9-.38.62-1.25.29-1.9.31-5.69.14-11.39-.41-17,1.24a19.37,19.37,0,0,0-7.36,4.11c-2.3,2-1.89,5.4-2,7.9a108.66,108.66,0,0,0,.48,12.58c.64,9.8,1.21,19.61,2.72,29.36.69,4.47,1.81,8.38,6.13,10.55a13.87,13.87,0,0,0,7,1.45c2.46-.12,5.15-.62,7.26.69,2.74,1.72,4.13,4.61,4.81,7.82.3,1.4-.17,1.88-1.4,1.71-2.8-.36-5.58.56-8.31.18a4.16,4.16,0,0,0-4.39,2.28,5.13,5.13,0,0,0,.46,4.51c1.88,3,5,4.9,7,7.85.08.12.24.17.37.25,3.52,2.09,3.53,2.14.91,5.15s-2.82,6.06-.78,9.27a17.45,17.45,0,0,0,2.67,3.31,2.94,2.94,0,0,1,1,2.76,37.1,37.1,0,0,0-.15,8.75c.62,4.16-1.37,6.9-5.52,8-1.6.42-3.21.78-4.81,1.2a3.71,3.71,0,0,0-2.73,4.75,7.57,7.57,0,0,1,.4,1.74c.45,6.52.91,13,1.3,19.56.79,13.39.38,26.89,3.78,40,1.47,5.71,2.32,11.6,5.26,16.85.3.52.72,1,.26,1.64-2,2.68-2.84,5.84-3.94,8.94-1.37,3.85-3.29,7.49-4.81,11.31-2.37,6-4.47,12-6.63,18.06-3.23,9-4.35,18.54-5.94,27.93a6.1,6.1,0,0,0,.23,3.11,2.76,2.76,0,0,0,4.3,1.6c5-3.49,11-4.52,16.43-7,4.15-1.87,8.78-1.84,13-3.39a44.43,44.43,0,0,1,8.22-2.26,6.69,6.69,0,0,0,5.21-8.24,108.51,108.51,0,0,1-3.69-17.86c-1.12-9.24-2.37-18.46-3.84-27.66-.3-1.93-1-3.86-.36-6a103.34,103.34,0,0,0,3.49-18.3c1.26-12.82,1.07-25.67,1.09-38.52,0-8.34-.27-16.63-3.21-24.6-.93-2.54-2.12-3.73-4.76-3.84-1.73-.07-3.46-.21-5.18-.17a2.79,2.79,0,0,1-2.56-1.34c-1.61-2.06-1.45-3.76-.33-6.09,1.47-3,2.31-6.46-.71-9.33a1.28,1.28,0,0,1-.2-1.94,43.37,43.37,0,0,1,3.36-4.75c.85-.93,1.52-1.16,2.27,0,1.09,1.73,2.86,2.84,4.14,4.38a24,24,0,0,1,4.24,6.25c.53,1.31,1.54,1.77,3.06,1.69,3.81-.19,7.62-1.17,11.44-.06a1.72,1.72,0,0,0,1.69-.39c2.31-2.11,5-3.81,6.64-6.59.33-.56.6-1.17,1.33-.78a7.5,7.5,0,0,1,2.57,1.77c.48.67-.67,1.29-1,2a19.54,19.54,0,0,0-1,2.48,2.82,2.82,0,0,0,2.15,3.79c2.5.8,2.59,1.28,1.09,3.46a3.25,3.25,0,0,1-3.61,1.54c-2.4-.42-4.79-.43-7,1-1.14.72-1.78,1.57-1.32,3a11.27,11.27,0,0,1,.31,4.69A284.31,284.31,0,0,0,302,523.92c.06,11.21.18,22.4,1.27,33.54.49,5,1.06,10,2.72,14.79.43,1.26,1.36,2.42-.84,3-.75.2-1.06,1.25-1.14,2.06-.26,2.84-.86,5.62-1.22,8.43-1.31,10.3-1.53,20.67-1.89,31-.11,3.42-.11,6.87-1.09,10.27-1.07,3.7.81,6,4.57,6.53,7.13.94,14.26,1.75,21.33,3.14,7.42,1.45,14.6,3.86,22,5.18,1,.17,2.16.71,2.92-.42s.19-2-.2-3a56.52,56.52,0,0,0-4-7.52c-4.68-8.15-7.81-17-11.85-25.47-2.72-5.69-4.88-11.58-7.32-17.37-.76-1.78-1.86-3.45-2.26-5.37a39.14,39.14,0,0,0-2.48-8.17,10.48,10.48,0,0,1,0-9.43,20.7,20.7,0,0,0,2.4-8.15,20.51,20.51,0,0,1,1.39-5.88,39.46,39.46,0,0,0,2.2-8c.53-5,1.4-9.92,1.79-14.94.54-6.85,2.41-13.56,2.5-20.5.06-4.79.93-9.55.56-14.39-.31-4-1.88-5.82-5.85-6.15-1.12-.1-2.23-.29-3.35-.46-.5-.08-1.31-.18-1.18-.77.78-3.53-.67-5.45-3.64-7.48-1.47-1-1.59-4.4-1.72-6.75-.06-1.07,1.4-2.16,2.43-3a16.78,16.78,0,0,0,6.2-13.78,3.1,3.1,0,0,1,1-2.38c3.38-3.61,6.66-7.3,10.07-10.88,1.23-1.3,1.22-2.46-.16-3.37-2.45-1.62-5-3-8.19-2.08-1.18.33-1.73-.46-2.43-1.42-1.57-2.17-1-3.51.87-5.09a5.85,5.85,0,0,1,4.21-1.64,50.79,50.79,0,0,0,5.63-.35c5.07-.48,9.05-3.1,12.58-6.57a1.91,1.91,0,0,0,.45-1.46A181.44,181.44,0,0,1,352,400.59c.91-6.7,1.27-13.45,2.61-20.1a22.43,22.43,0,0,0-.92-10.7c-.45-1.54-1.85-2.68-2.3-4.29a6.51,6.51,0,0,0-4.43-4.43,30.32,30.32,0,0,0-10.39-1.54c-3.7.1-7.41,0-11.16,0a6,6,0,0,1,1.38-3,110.77,110.77,0,0,1,12.38-14.79,2.61,2.61,0,0,0,.75-2.31c-.09-2.74-1.24-5.23-1.35-7.94a61.2,61.2,0,0,0-.91-7.38c-.46-2.8-1.21-3.38-4-3.47-3.68-.12-7.36-.28-11-.39-1.55-.05-2.09-.63-1.26-2.08a36.63,36.63,0,0,1,3.22-5.38c.87-1.05,1.12-2.93,3.43-3-1,3-2.6,5.48-2.28,8.46.05.53-.37,1.37.47,1.51,1,.16.92-.79,1-1.41.54-3.63,2.56-6.71,3.76-10.1a3,3,0,0,1,2.05-1.63c2.51-.92,5.14-1,7.74-1.29a10.88,10.88,0,0,1,7.82,2.11c5.31,3.58,7.66,9.37,10.93,14.46a13.87,13.87,0,0,1,1.16,2.93c.18.5.21,1.43-.31,1.31-1.75-.4-1.93,1.25-2.73,1.95-3.63,3.13-6.76,6.62-8.39,11.33a11.6,11.6,0,0,0,4.57,13.8c1.94,1.26,4.91,1.9,5.86,3.41,1.86,3,4.62,4.86,6.8,7.38.78.9.69,1.35-.11,1.95-.54.39-1.12.73-1.66,1.13-1.14.84-2.25,4.06-1.64,4.87,1.36,1.77,2.72,3.55,4.18,5.23,3,3.51,6.06,7.05,9,10.63,3.86,4.78,7.57,9.75,11.12,14.8,4.66,6.65,10.51,12.31,15.4,18.75,1.68,2.22,4.35,3,6,5,1.23,1.52,2.35,1.4,3.33-.25a10.24,10.24,0,0,1,3.63-3.29c.85-.54,1.25-.32,1.76.48,1.28,2,1.59,4.36,2.39,6.54.42,1.15.12,1.67-1,1.91a4.53,4.53,0,0,0-3.54,2.85c-1.19,4.18-4.13,4.27-7.51,3.82a5,5,0,0,0-2.23,0c-1.61.59-4.31.31-4.25,2.67.09,3.87-.65,7.62-.89,11.44-.78,12.53-3.33,24.91-3.69,37.46-.15,5.55-2.51,11.27.91,16.75.91,1.47,1.41,2.11,3,1.33.52-.25,1.7-.78,1.65.1-.08,1.31.77,2.35.57,3.66-.66,4.31-1.1,8.64-1.76,13a140.82,140.82,0,0,1-5.41,22c-.33,1,.13,1.16,1,1a2.11,2.11,0,0,0,1.64-1.36c1.45-3.06,2.93-6.1,2.91-9.61a41,41,0,0,1,1.52-10.23,76,76,0,0,0,2.67-17.72c0-.86.24-1.25,1.13-1.24,2.89,0,5.79,0,9.26,0-2.61,2.7-3.18,5.74-3.76,8.75-.53,2.73-.48,5.55-1.27,8.23a19.65,19.65,0,0,0-.53,7.39c.36,4,.9,8.06,1.45,12.08.19,1.38,1,3.18,2.28,2.86s1.85.36,2.89.46c-2.83-12-5.2-23.79-.67-36.26a68.49,68.49,0,0,0,7.64,16.16c.49.78,1.37,1.41,2.24.67a1.35,1.35,0,0,0-.18-2.3,8.35,8.35,0,0,1-1.85-2.79,43.25,43.25,0,0,1-3.1-6.65c-.93-2.45-1.88-4.88-2.57-7.41-.45-1.66.37-2.36,1.64-2,2.27.7,4.22-.59,6.35-.58a2.31,2.31,0,0,0,2.21-1.89c.34-1.09.76-1.87-.58-2.58m-236.38-53c1.5-.35,1.83.41,2.1,1.37,1.1,4,2.38,7.88,3.33,11.87,1.74,7.41,4.33,14.61,5.92,22a132.51,132.51,0,0,0,3.38,13.92c.36,1.09-.41,1.3-1.17,1.47-5.46,1.21-10.94,2.38-16.39,3.66-1.13.27-1.73,0-2.07-1-1.71-5.09-2.91-10.32-4.26-15.52-1.17-4.53-2.55-9-3.7-13.55-1.36-5.37-2.6-10.77-3.85-16.17-1-4.27-.95-4.3,3.4-5.3,4.51-1.05,8.89-2.77,13.31-2.77m-4.43-16.1c-1.7,3.35-3.15,6.8-2,10.74.23.78.45,1.86-.56,2.43a1.86,1.86,0,0,1-2.2-.14c-1.65-1-2-1.1-2.79-3.12-1.82-4.64-.17-11.92,3.43-15.15a1.27,1.27,0,0,1,1.13-.39c2.63.1,4.23,3.17,3,5.63m36.84-57.27c1.53,1.57,0,3.19-.84,4.31-3.29,4.4-5.35,9.51-8.25,14.14-3.23,5.18-5.78,10.78-8.79,16.11-3.51,6.22-6.68,12.64-10.57,18.65-.81,1.24-1.27,1.29-2.37.4-4.49-3.63-9-7.22-13.6-10.72-2.24-1.7-2.63-2.33-.7-4.53,3.59-4.1,5.69-9.11,8.74-13.55,3.45-5,6.71-10.18,10-15.32,2.43-3.82,5-7.56,7.48-11.33,1.8-2.72,3.91-5.25,5.63-8.05.27-.45.51-.93,1.32-.95a4.82,4.82,0,0,1,.82.48,107.22,107.22,0,0,1,11.16,10.36m12-28a11.57,11.57,0,0,1-2.2,9.72c-3.06,4.37-6.22,8.45-12.09,9.06-1,.1-2.18.34-2.61-.63-.53-1.24.93-1.29,1.61-1.69,4.58-2.69,7.45-6.72,9.51-11.54,1.47-3.42,2.31-7.05,3.79-10.81a25,25,0,0,1,2,5.89m19-35.26c-.47,0-1-.17-1.08-.64-.11-.79.65-.67,1.1-.8,2.89-.79,5.59.1,8.58,1.28-2.21-2.36-7.73-2.91-10.25-1.32a82.07,82.07,0,0,0-7,4.42,28.19,28.19,0,0,0-6,5.91c-1.92,2.82-4.66,5.11-5.72,8.5-.27.83-.66,1.63-1,2.44a11.8,11.8,0,0,1-.35-5.84,54.39,54.39,0,0,1,2.29-10.49c.44-1.17.87-2.53,2.11-3.25a1.15,1.15,0,0,0,.66-.85c.55-3.8,3.23-6.1,6.15-7.86a23.84,23.84,0,0,1,14.39-3.65c7.09.55,11.46,8.71,9.53,15.54-.23.82-.64,1.22-1.45.66a21.2,21.2,0,0,0-12-4.05m4.34,110.43c-6-.15-6.8-1.17-7.81-7.1-.75-4.45-1.33-8.9-1.78-13.37a131.45,131.45,0,0,1-.61-13.47c0-5.79-.93-11.51-1.08-17.29a2.6,2.6,0,0,1,.83-2,10.07,10.07,0,0,1,6.79-3.18c6.19-.64,12.41-.93,18.63-1.09.59,0,1.51,0,1.71-.29,1.73-2.81,1.86-.33,2.27.68,2.51,6,4.76,12.16,6.84,18.37a179.1,179.1,0,0,1,5.1,19.29,28.7,28.7,0,0,1,.66,9.64,32.61,32.61,0,0,0,0,7.39c.18,1.73-.26,2.59-2.28,2.55-5.18-.08-10.37.44-15.55-.11-4.58,0-9.16.05-13.74-.06m20.14,5.72c2.73,0,5.42,0,8.11,0,1,0,1.15.61,1.3,1.44.52,3.05.84,3.28,3.93,3.29,3.82,0,7.65,0,11.47.11,2.07.07,2.84-.89,2.94-2.76,0-.67.22-1.34.21-2,0-1.06.57-1.27,1.45-1.15l.23,0c3.9.41,3.86.39,2.38,4.22-.51,1.33-1.43,2.48-1.61,3.94-.1.85-.76.79-1.36.8-8.63.12-17.2,1.23-25.81,1.65-1.88.1-2.77-.3-2.14-2.34.79-2.56-1-4.77-1.1-7.23m-8.81,1.22c-.45-.37-1.23-.76-1-1.35.29-.83,1.16-.34,1.79-.33s1.05.08,1.8.13c1.19.5,3.5-.9,3.89,1.84.23,1.57,1.86,2.81,1,4.64a2.94,2.94,0,0,0,0,1.32c.08,1,.38,2.07-1.14,2.16-1.23.07-2.32.37-2.69-1.6a11,11,0,0,0-3.65-6.81m2.51,199.39a3.53,3.53,0,0,1-2.25,3.19c.71.9,2.11-.43,2.2.66s-1.33.87-2.12,1.1c-2.73.8-5.48,1.56-8.23,2.29-.81.21-1.76.79-2.35-.43-.17-.37-.53-.37-.65,0-.72,2.18-2.75,2.29-4.46,2.92-.7.26-1.37.59-2.06.88s-1.63,1.08-2.18.46c-.39-.44-.25-1.64,0-2.36,1.44-3.75,1.63-7.72,2.17-11.64a47.77,47.77,0,0,1,3.34-11.59c1.89-4.55,2.95-9.4,5-13.84,1.47-3.17,2-6.66,4.23-9.61a13,13,0,0,0,2.66-6.79c.14-2.77,2.26-4.51,2.92-7,.22-.81.78-.48,1.1.08a13.32,13.32,0,0,0,4.33,5c1.06.68.33,2.4.18,3.63-1.3,10.26-3,20.48-3.24,30.85-.1,4-.4,8.08-.64,12.13m14.27-6c.34,1.63.11,2.33-1.54,3.05-2.43,1-5,1.7-7.43,2.59a11.49,11.49,0,0,0-2.94,1.9,1.65,1.65,0,0,0,2.06-.17c2.74-1.79,6.1-2,8.91-3.67a1,1,0,0,1,1.71.76c.12.84.8,2.2-.68,2.42-4,.58-7.65,2.07-11.48,3.08-1.48.39-2.3.32-2-1.73,1.69-11.65,2.27-23.42,3.65-35.1a114.68,114.68,0,0,1,1.65-11.36c.42-1.9-.82-3.88.4-5.7.21-.3.21-.73.93-1,.43,2.54,1,5,1.26,7.55.71,6.65,1.58,13.28,2.25,19.93.59,5.87,2,11.66,3.25,17.45m-3.29-115.73a41.9,41.9,0,0,0,.3,4.66,49,49,0,0,0,.26,7.26,185.91,185.91,0,0,1-1.1,30.13c-.85,6.76-1.2,13.63-2.95,20.26-.72,2.73-1.5,5.45-2.45,8.11-.82,2.31-1.51,2.42-2.88.42-2-2.94-4.16-5.93-5.18-9.34A108.61,108.61,0,0,1,266,548.07c-.35-3.59-1.34-7.17-1.55-10.83-.23-4-.43-8.1-.78-12.14-.42-4.84-.37-9.72-1.28-14.52-.23-1.23,0-2,1.41-2.23,6.14-1,12.27-2,18.41-3,1.16-.18,2.18,0,2.13,1.7m-4.46-13.42c1.77,0,2.61.5,2.84,2.3s.78,3.66,1.16,5.5c.27,1.32-.31,1.84-1.66,2-6.08.81-12.15,1.66-18.2,2.67-1.38.23-2,.12-2.08-1.33-.2-2.46-.49-4.92-.76-7.62-.52-1.18.33-1.57,1.48-1.94a12.6,12.6,0,0,1,2.84-.66c4.79-.33,9.57-.84,14.38-.94m-8.5-12.48a11.89,11.89,0,0,1-.05-6.29,1,1,0,0,1,.46-.69c.45-.15.59.29.79.6,1.15,1.78.83,3.75-1.2,6.38m1.29-13.6c-2.72,2.89-2.89,2.87-4.77-.86-.53-1.06-1.31-2-1.19-3.34.18-2.2,1.44-3.87,2.69-5.56.39-.52.75-.33,1.14,0s.84.61,1.22,1c4.61,4.21,5.08,4.4.91,8.84m43.16,11c-.63.1-1.25-.09-1.36-.85a2.9,2.9,0,0,1,1.15-3.19c.23,1,.43,1.91.61,2.79.1.48.41,1.11-.4,1.25m8.63,114.5c1.59,5.52,4.08,10.63,6.47,15.75,3,6.37,5.05,13.13,8.63,19.23a35.59,35.59,0,0,1,2.19,5.41c.16.41.35.89,0,1.27s-.82,0-1.22-.13c-2.62-.66-5.27-1.08-7.94-1.5-4.36-.68-8.68-1.68-13-2.57a77.45,77.45,0,0,0-13-1.45c-1.62,0-2.19-.62-2-2.15,1.16-7.44.65-15,1.3-22.49.44-5.15.51-10.34.78-15.51,0-.66-.3-1.78.78-1.77.9,0,.91,1.12,1,1.8,1,6.66,3.84,12.75,5.6,19.16,1.62,5.9,3.84,11.67,4.65,17.79.1.71.2,1.48,1.16,1.2a1.32,1.32,0,0,0,.94-1.76c-1.46-6-3.69-11.7-5.42-17.57-2.46-8.3-5.65-16.39-7.26-24.93a24.16,24.16,0,0,1,0-3.8c0-1.18.8-1.4,1.73-1.66a1.9,1.9,0,0,1,2.36.55c.54.64.51,2.17,1.88,1.82s.61-1.77,1.18-2.47c.76-.95.15-2.94,1.86-3s1.28,1.92,1.9,2.92c1.2,1.91.71,4.26,1.46,6.33,1.17,3.25,3.07,6.27,4,9.51m2.41-100.94c1.07.26,1.17.82,1.26,1.75.68,7-.19,13.92-1.41,20.79-1,5.61-1.21,11.29-1.74,17-.59,6.36-2.14,12.53-3.49,18.74-.45,2-1.07,4.06-1.49,6.11-1.36,6.62-4.76,12.59-6.15,19.2,0,.11-.22.18-.67.55-1.28-4.46-3.34-8.39-3.71-12.91-.26-3.14-1.11-6.22-1.48-9.35a240.1,240.1,0,0,1-1.2-37.15c.13-3.16.39-6.31.39-9.46,0-2,.52-2.88,2.67-2.57,4.9.7,9.93,0,14.76,1.4.61.18,1.29.19,1.4-.64A1.38,1.38,0,0,0,325,504a14.73,14.73,0,0,0-2.88-.43c-2.9-.17-5.76-.73-8.71-.44-1.37.13-2.8-.57-4.3-.28-1,.19-1.46-.47-1.4-1.51.17-3.44.31-6.87.44-10.31,0-1,.65-1.09,1.39-1,5.81.53,11.66.77,17.38,2.12m-7.28-7.54c-.92-1.18-1.32-2.06-.67-3,.23-.34.71-.22,1,.05a2.45,2.45,0,0,1,.56,2.86c-.39,1.06-2.81,1.88-3.73,1.26-.44-.29-.3-.6-.08-.92.66-1,1.51-1.07,2.93-.25m2.13-20.82a45.94,45.94,0,0,1-4.79,5.28,2.35,2.35,0,0,1-3,.61c-1.26-.51-2-.93-.59-2.46,2.88-3.25,6.13-6.15,9-9.38a2.74,2.74,0,0,1,2.08-1.23,18,18,0,0,1-2.78,7.18m8.46-22.95c.36-.06.82,0,.92.44s-.34.83-.66,1.08c-2.85,2.19-5.06,5-7.48,7.61-3.29,3.52-6.66,7-10,10.48-3.1,3.31-6.42,6.41-9.09,10.13a4.84,4.84,0,0,1-5.4,2.11,42,42,0,0,0-4.82.46,3.67,3.67,0,0,1-3.89-1.7c-3.8-5.11-8.34-9.52-12.82-14a11.32,11.32,0,0,1-2.27-2.77c-.5-1-1.67-1.54-2.39-2.25-2.52-2.51-5.34-4.72-7.76-7.33-.31-.33-.75-.87-.5-1.41.33-.71,1.06-.36,1.61-.39,10.58-.48,21.18-.6,31.72-1.52,7.41-.65,14.83-.85,22.25-1.3,3.52-.22,7,.87,10.54.35M317.11,433a2.84,2.84,0,0,0,3.41,1.92,8.36,8.36,0,0,0,2.28-.93c.55-.3,1.05-.76,1.51,0a2.31,2.31,0,0,1,.49,1.42c-.17.68-.89.3-1.36.31-1.43,0-2.85,0-4.28,0v.13c-1.5,0-3,0-4.5,0-2.11-.08-2.43-.65-1.5-2.46a11.56,11.56,0,0,0,1.33-2.83c.5-2.48,1.91-3.2,4.28-2.87,1.78.25,3.6.2,5.39.32.42,0,1-.06,1.17.45s-.23.8-.52,1.14a2.15,2.15,0,0,1-2.41.76,5.09,5.09,0,0,0-3.11.15c-1.2.42-2.72.92-2.18,2.53m15.43-68.35c3,.4,6.13.15,9.18.53a28,28,0,0,1,4.2.79c1.62.46,2.72,1.51,2.15,3.34-.5,1.62,1,2.47,1.27,3.8,1.28,5.53-.46,10.76-1.26,16.05-1.17,7.7-2.3,15.4-2.73,23.19A18.63,18.63,0,0,1,344,417.6c-1.23,3.44-6.18,5.77-9.65,4.56a6.78,6.78,0,0,0-3.3-.49c-8.31,1.37-16.67.07-25,.6-1.08.06-1.25-.41-1.24-1.32.05-2.17,0-4.35,0-6.53a87.06,87.06,0,0,1,2.6-20.33c2-7.59,3.66-15.34,7.17-22.47a12.35,12.35,0,0,0,1-2.73c.76-3.39,1.1-4,4.52-4.2a64.39,64.39,0,0,1,12.34,0m-1.35-39.48c1.3,0,1.85.3,2.11,1.82.56,3.25.66,6.6,1.87,9.72a2.12,2.12,0,0,1-1,2.83c-5.81,4-9.86,9.51-13.74,15.34-4,6.07-6.61,12.74-9.12,19.42a100.68,100.68,0,0,0-5.57,18.94c-1.77,10.78-4,21.63-2.28,32.69.18,1.17-.13,1.62-1.38,1.63a64.81,64.81,0,0,0-7,.35c-2.22.28-2.8-.65-2.48-2.62a8.68,8.68,0,0,0,0-1.35h-.34c0-6.07.64-12.21-.08-18.2-1-8.15-2.39-16.28-5.65-24-1.93-4.55-2.71-9.52-4.87-14-3.18-6.67-6.29-13.36-10.93-19.22a46.48,46.48,0,0,0-8-8.34c-.55-.42-.46-.87-.47-1.37a53.78,53.78,0,0,1,.8-9,2,2,0,0,1,2.22-2c5-.31,10.05-.34,15.05-1.12C292.05,325,303.84,325,315.63,325c5.18,0,10.37.16,15.56.19M356,311.67c-3.74-5-8.43-9.23-15.69-7.8a45.87,45.87,0,0,1-5.61.44c1.29-3.44,4.33-4.64,7-6.16,5.74-3.32,11.87-4.36,18.14-1.79,8.87,3.65,13.84,15.6,7.12,23.78-1,1.18-1.65,2.62-2.87,3.66-.82.7-1.51.87-1.74-.39-.84-4.6-3.72-8.23-6.32-11.74m4.91,20.13c-.59,4.76-1.44,9.48-2.11,14.23a19.63,19.63,0,0,0-.05,5.57c.07.48.59,1.07-.06,1.39a1.33,1.33,0,0,1-1.22-.32c-1.18-1.35-3.1-1.43-4.33-2.7-2.35-2.4-2.06-5.52-1.83-8.32.47-5.63,4.2-9.33,8.6-12.41.63-.45,1-.19,1,.53s0,1.36,0,2m4.65,28.54c-1.18-1.2-2.65-2.22-3.1-4.36,3.34,1,6.84.64,9.72,2.75,1.11.81,1.71,1.28,0,2.33-3.65,2.26-3.6,2.38-6.65-.72M416,416.55c-1.61,1.54-3.75,2.43-5.09,4.33-.76,1.07-1.45.46-2.11-.38-3-3.81-5.87-7.76-9.16-11.32-3.82-4.15-7.06-8.78-11.06-12.78a53.3,53.3,0,0,1-6-8c-2.8-4.14-6.58-7.33-9.63-11.2-1.52-1.92-2.69-4.14-4.54-5.8-.74-.67-.08-1.1.33-1.45a51,51,0,0,1,4.41-3.75c1.35-.91,2.53-2.1,3.79-3.12a93.24,93.24,0,0,1,10.15-7.61,4,4,0,0,1,.42-.22,2.83,2.83,0,0,1,1.67,1.37,164,164,0,0,0,10.34,13.57c2.12,2.58,4.05,5.3,6.17,7.88,2.25,2.74,4.83,5.19,6.89,8.18,2.59,3.77,5.77,7.22,8.52,10.94a51.2,51.2,0,0,0,6.05,7.42c.87.81.42,1.75-.5,2.46-3.77,2.93-7.2,6.24-10.66,9.52m2,4.75c-.74-.25,0-.94.37-1.18a76,76,0,0,0,6.53-5.34c.68-.57.84-.38,1.47.27,2.22,2.28,3.43,4.82,3.09,7.84.15,3-1.47,4.46-3.77,5.58-3.17,1.53-3,1.51-4.2-1.72-.75-2-.79-4.54-3.49-5.45m1.83,12.17c1,0,2.47,2.5,2.5,4.23,0,.94,0,.95-3.49,1-.76-.4-2.31.78-2.66-.8-.4-1.81,2-4.45,3.65-4.39m5.44,51.26c-.06,3.91-1.14,7.81-1.77,11.7-.06.37-.25.72-.29,1.09-.42,4.43-.42,4.39-4.94,4.62-3.59.18-7.12,1.2-10.46.9-1.11-.08-1.94-.15-2.76-.18-4-.13-4-.13-3.68-4,.53-6.13,1.83-12.16,2.12-18.33.46-9.9,1.16-19.79,1.77-29.69.08-1.35.24-2.69.38-4,.43-4.42.41-3.62,4.13-3.57,6.31.07,12.62.14,18.92.14,1.4,0,1.94.19,1.75,1.88-.67,5.67-2,11.25-2.58,16.9-.73,7.53-2.49,14.93-2.59,22.55" transform="translate(-168.84 -186.12)"/><path class="cls-2" d="M283.64,313.16c2.71,3,5.69,5.69,10.08,6.15,4,.43,7.78-.59,11.45-1.82a13.07,13.07,0,0,0,6.83-4.56c2.59-3.65,4.59-7.53,4.53-12.15a3,3,0,0,1,1.5-2.73c3.93-2.93,7.75-6,11.58-9.06a1.75,1.75,0,0,0,.66-1.12c.09-1.84.58-3.61.38-5.53-.42-3.88-.61-7.79-.66-11.69-.09-6.39-1-12.7-1.5-19-.49-6.06-1.86-12.06-2.18-18.12-.52-9.72-1.93-19.24-5.31-28.38-1.39-3.75-2.5-7.84-5.23-10.8-4.22-4.56-8.7-8.78-15.9-8.13-4.6.42-9.08.46-13.07,3.3-2.52,1.8-4.33,4.23-6.53,6.27-4.06,3.79-5.64,8.75-7.52,13.55-1.44,3.65-2.11,7.62-3,11.47a90,90,0,0,0-1.91,9c-.71,5.27-.43,10.64-.87,15.92-.87,10.57-.95,21.13-.78,30.52,0,3.9.18,6.62-.1,9.3a4.48,4.48,0,0,0,2,4.51c2,1.57,3.28,3.91,5.76,5.18,2,1,3.22,3.25,5.36,4.27.45.21.28.79.29,1.24.12,4.57,1,9,4.16,12.45m22.3-.23c-3.26,2.76-7.63,2.89-11.77,2.35-5.12-.67-7.5-4.28-9.11-8.83-1.39-3.94-1.67-7.74.28-11.49,3.66-7,11.78-10.38,19.48-6.76.95.44,1.92.77,2.88,1.15,2.72,1.06,2.84,3.62,3.25,5.94.34,1.91.47,3.86.62,5.2a16,16,0,0,1-5.63,12.44M324.16,255c1.26,9.14,1.44,18.33,1.67,27.52.07,3-1.35,4.75-3.66,6.35s-4.17,3.59-6.27,5.37c-2.28,2-2.58,1.92-3.24-.87a9.27,9.27,0,0,0-5-6.25,3.58,3.58,0,0,1-1.92-4.1c.45-3.18,1.12-6.33,1.74-9.48,1.56-7.85,5.87-14.47,9.66-21.3a92.4,92.4,0,0,1,5.52-7.87c1.07,3.92,1,7.31,1.49,10.63m-52.45-14.43c.44-5,.66-9.93,1.73-14.88,1.2-5.56,2.89-11,4.42-16.4a29.69,29.69,0,0,1,9.31-14.62,22.28,22.28,0,0,1,7.24-3.82,12.92,12.92,0,0,1,10.58.58c3.11,1.52,6,3.41,7.37,7,.58,1.51,1.88,2.72,2.52,4.21,1.21,2.8,2.13,5.72,3.24,8.57,2.69,6.89,2.95,14.13,3.29,21.38.12,2.67.71,5.31,1.06,8,.08.58.2,1.18-.38,1.65a21.6,21.6,0,0,0-5,6.33c-2.17,4-5.15,7.49-6.63,11.85a33.8,33.8,0,0,1-2.13,4.2c-3.06,6-3.21,12.58-4,19-.23,1.77-.6,1.88-2.12,1.41a13,13,0,0,0-10,.85c-1.32.68-1.59.06-1.65-1-.09-1.58-.16-3.15-.23-4.59.51-5.7-2.08-10.52-3.92-15.46-1.43-3.84-3.55-7.42-5.28-11.15s-4.78-5.89-7.48-8.52a5.18,5.18,0,0,1-1.9-4.51m-.62,46.5c-.77-.46-.68-1.08-.67-1.74.11-5.16.42-10.33.29-15.49-.12-4.78-.17-9.54.17-14.31.19-2.61.41-5.23.61-7.84.07-.91.25-1.68,1.25-.65,1.22,1.25,2.66,2.17,3.14,4.2a4.77,4.77,0,0,0,3,3.43,1.32,1.32,0,0,1,1,1.11c.3,2.85,1.7,5.23,3.14,7.6,4.06,6.69,4.79,14.25,5.69,21.74.26,1.76.1,3-1.82,4.08s-2.34,3.58-3.55,5.38c-.85,1.28-1.33,1.3-2.58.46-3.49-2.34-6-5.81-9.63-8" transform="translate(-168.84 -186.12)"/><path class="cls-2" d="M283.91,340c-5.16.35-10.33.13-15.62.33.09,1,.58,1.23,1.11,1.24,3.67.05,7.36.35,11,0,9.42-.79,18.84-1.5,28.27-2.05,6.88-.4,13.77-.72,20.67-.69.7,0,1.38.17,1.41-.88s-.52-1.16-1.27-1.18c-.53,0-1.05,0-1.58,0-6.67.31-13.34.74-20,.88-8.05.18-16,1.73-24,2.27" transform="translate(-168.84 -186.12)"/><path class="cls-2" d="M357.34,347.27c.09-1.68.18-3.36.3-5.58-1.46,2.16-.69,3.88-.3,5.58" transform="translate(-168.84 -186.12)"/><path class="cls-2" d="M357.59,340.17c.49-1.46,1.39-2.86,1-4.79-.89,1.7-.72,3.3-1,4.79" transform="translate(-168.84 -186.12)"/><path class="cls-2" d="M287.51,243.72c4,0,5.92-2,5.91-6.23,0-3.37-2-5.75-4.74-5.69-3.66.07-7.08,3.37-7.14,6.89,0,2.93,2.46,5.05,6,5m.46-10.37c2.22-.17,3.12,1,3.33,4.24-.28,3-1.19,4.44-3.62,4.45A3.64,3.64,0,0,1,284,239c-.2-2.47,1.94-5.48,4-5.63" transform="translate(-168.84 -186.12)"/><path class="cls-2" d="M305.83,243c4.83.27,5.9-1.49,7.15-5.62a4.31,4.31,0,0,0-1.19-4.36c-1.89-1.85-7.61-1.39-9.47.59-1.62,1.73-2.35,5.41-1.41,7.38,1.12,2.34,3.36,1.84,4.92,2m2.2-9.9a3.24,3.24,0,0,1,2.89,3.56,4.74,4.74,0,0,1-4.54,4.81c-2.19,0-4.11-1.44-4-3,.12-2.59,3.11-5.42,5.69-5.38" transform="translate(-168.84 -186.12)"/></svg>