<svg id="Layer_1" data-name="Layer 1" xmlns="http://www.w3.org/2000/svg" viewBox="0 0 253.44 425.44"><defs><style>.cls-1{fill:#fff;}.cls-2{fill:#010101;}</style></defs><path class="cls-1" d="M369.52,380.13c2-.17,3.16,1,3.79,2.69a37,37,0,0,1,1.13,4.47c4.66-3.89,5-6.76,1.28-11.13-2.4-2.86-7.84-3.79-10.27-1.76-3.39,2.82-3.48,8.25.09,12.65.4-1.48.79-2.67,1-3.89.33-1.68,1.12-2.88,2.94-3" transform="translate(-137.04 -202.28)"/><path class="cls-1" d="M361.26,456a1.05,1.05,0,0,0,1.46-1c.34-3,1.91-5.78,1.1-9.12-1.06,2.92-2.13,5.83-3.16,8.75a1,1,0,0,0,.6,1.35" transform="translate(-137.04 -202.28)"/><path class="cls-1" d="M366.15,464.54c1.4,0,1.94-.67,1.79-2.1-.39-3.65-.68-7.3-1-10.95-1.81,3.5-2.47,7.25-3.16,11-.3,1.65,1,2.08,2.39,2.06" transform="translate(-137.04 -202.28)"/><path class="cls-1" d="M311.1,289.63c-1.64,0-4,2.33-4.08,4.11-.16,2.2,2,4.4,4.43,4.44a4.47,4.47,0,0,0,4.79-4.13c.11-2.28-2.39-4.43-5.14-4.42" transform="translate(-137.04 -202.28)"/><path class="cls-1" d="M344.19,293.34c-.5-5-1.93-9.86-2.55-14.83a3.54,3.54,0,0,0-3.42-3.46c-.69-.11-1.38-.23-2.07-.32a106.19,106.19,0,0,0-26.72-.05c-8.29,1.14-16.62,1.88-24.62,4.71-6.28,2.21-6.55,2.42-3.74,8.67.35.76.76,1.5,1.15,2.24,1.23,2.33,2.54,4.64,3.68,7,1,2,.13,3.25-2,3.17a9,9,0,0,1-1.24-.24,107.43,107.43,0,0,0-19.2-1.38c-5.57,0-11.17-.08-16.52,2.1-1.88.77-2.91-.4-2.43-2.42a26.42,26.42,0,0,1,1.27-3.52c2-5.16,4.31-10.2,5.73-15.68a72.62,72.62,0,0,0-17.19-2.56q-11.73-.34-23.49-.29c-10.11.05-20,1.83-29.79,4.24-3.58.88-3.62,1-3.49,4.84.34,10.7-.82,21.15-5,31.13-.34.81-1.2,1.61-.62,2.68.74.43,1.35-.1,2-.23,5.46-1.15,10.89-2.48,16.38-3.46,9.21-1.65,18.51-2.81,27.68-4.68A161.29,161.29,0,0,1,246.21,308c13.27-.36,26.54-1,39.84-.3,7.64.4,15.33-.55,23,.33,9.71,1.12,19.55.73,29.19,2.77,4,.85,8.19,1.18,12.75,1.8a54.68,54.68,0,0,1-2.63-7c-1-4.23-3.73-7.86-4.16-12.21m-147.66,2.73c-.05.24-.12.47-.18.73a7.94,7.94,0,0,1-.06-.81c0-.42.11-.54.24-.31a.65.65,0,0,1,0,.39m19.2,7.73c-5.08-.16-8.1-3.31-7.91-8.25s3.86-8.05,8.9-7.88,8.83,3.33,8.58,7.27c-.29,4.49-5.14,9-9.57,8.86m95.35-3a6.56,6.56,0,0,1-6.63-6.17A7.49,7.49,0,0,1,312.2,287a6.49,6.49,0,0,1,6.64,6.58c0,3.87-3.71,7.29-7.76,7.17" transform="translate(-137.04 -202.28)"/><path class="cls-1" d="M345.28,276.93c-1.7,2.36-.41,5.87.24,8.86.41,1.84,1.57,2.16,3.13,1.67a8.87,8.87,0,0,0,2.29-1c3.17-2.2,6.78-3.81,9.64-7.27a35.78,35.78,0,0,0-8.23-2c-2.43-.36-5.74-2.14-7.07-.29" transform="translate(-137.04 -202.28)"/><path class="cls-1" d="M216,290a5.74,5.74,0,0,0-.12,11.48c2.59,0,6.11-3.84,6.21-6.76S219.9,290.16,216,290" transform="translate(-137.04 -202.28)"/><path class="cls-1" d="M253,282.16c-1.57,3.73-2.59,7.67-4.37,11.33-.57,1.17-1.44,2.42-.83,4.35,5.7-1.28,11.53-.92,17.34-.94,6,0,11.9,1.39,17.84.91a2.07,2.07,0,0,0-.24-2.1,48.94,48.94,0,0,1-3.36-6.25,147.75,147.75,0,0,1-6.7-23.7c-1.19-6.16-3-12.24-3.2-18.54-.27-6.84-.33-13.68-.8-20.52a116.83,116.83,0,0,1,.2-13.36c.18-3.62-.67-4.84-2.81-5.33-2.48-.57-3.73.33-5.19,3.66a22.12,22.12,0,0,0-1.48,9c-.05,8.66-.71,17.3-1.33,25.94s-1.9,16.9-2.83,25.36A36,36,0,0,1,253,282.16" transform="translate(-137.04 -202.28)"/><path class="cls-1" d="M277.09,275.83a17.08,17.08,0,0,0,.73,2c.45,1.3,1.2,1.73,2.56,1.16a44.71,44.71,0,0,1,5.11-1.88,120.57,120.57,0,0,1,35.15-4.92c10.77.11,21.52.35,32.1,2.7,1.73.38,3.4,1.36,5.51.75-.78-2.17-2.51-3-3.55-4.48a131.43,131.43,0,0,0-9.79-11.95,156.07,156.07,0,0,0-21.38-19.31c-7.65-5.85-15.42-11.37-24.25-15.37-8.53-3.86-17.72-4.86-26.68-6.9-1.28-.29-1.86.41-2.05,1.48a28.21,28.21,0,0,0-.28,3.33c-.26,4.06.79,8.06.73,12.11-.22,14.11,3.16,27.69,6.09,41.32" transform="translate(-137.04 -202.28)"/><path class="cls-1" d="M169.51,282c2.09-.78,4-2,6.22-2.46a210.94,210.94,0,0,1,31-4.88c13.39-1,26.77-1.06,40.07,1.43,5.59,1,6.16.39,6.65-5.21q1.05-11.88,2.28-23.74c.88-8.61,1.7-17.23,2-25.88.13-3.37-.2-3.6-3.51-3.22a77.76,77.76,0,0,0-19.71,5.42c-12.95,5.2-25.49,11.2-36.65,19.85-11,8.51-20.77,18.09-28.14,29.94-1.75,2.81-3.08,5.88-4.73,9.07,2,.95,3.23.16,4.53-.32" transform="translate(-137.04 -202.28)"/><path class="cls-1" d="M175.42,289.28c0-2.07.41-4.17-.48-6.17a4.32,4.32,0,0,0-2.86.29l-7,2.35c2.66,2.27,5,4.16,8,4.92,1.32.33,2.23.2,2.25-1.39" transform="translate(-137.04 -202.28)"/><path class="cls-1" d="M209.78,407a23.5,23.5,0,0,0-2.63-1.25c-4.09-1.77-8.2-3.49-12.27-5.29-7-3.09-14-6.23-20.93-9.35-2.67-1.19-5.31-2.43-8-3.57-1.36-.58-2.45-.73-3.32,1.15-1.06,2.3.77,2.33,1.82,2.83,7,3.34,14.36,6,21.63,8.86q10.11,3.94,20.25,7.84a6.52,6.52,0,0,0,2.95.82c.2-.13.67-.26.84-.57a1.05,1.05,0,0,0-.34-1.47" transform="translate(-137.04 -202.28)"/><path class="cls-1" d="M167.36,459.27c.49-2.89-2.26-4.18-3-7.37-1.13,6.87-.89,7.35,3,7.37" transform="translate(-137.04 -202.28)"/><path class="cls-1" d="M147.45,261.31l.07-.11-.06.1c0-.11,0-.23-.06-.35-.43-.65-1.46-.87-1.43-2.06,1.12.37,1.29,1.21,1.43,2.06a.83.83,0,0,1,.12.25.22.22,0,0,1,0,.08c1.88-.89,2.54-2,.58-3.58-.63-.52-1.15-1.18-1.75-1.76-1.24-1.17-2.39-1.07-3.59.14-1.36,1.39-3.14,2.71-2.54,4.87.51,1.78,2.62,1.8,4.09,2.45,2.13,1,3.06-.07,3.21-2.12l-.06,0" transform="translate(-137.04 -202.28)"/><path class="cls-1" d="M156,376.85c-2.69-.68-5.85,1.06-7.34,4.19a9.8,9.8,0,0,0-.37,8.07c.32.82.62,1.91,2.16,1.62.49-2.28,1.3-4.92,4.16-4.6,3.44.38,1.91,3.7,2.6,6,3.67-1.7,3.48-4.66,3.58-7.58.12-3.12-2.22-7.08-4.79-7.73" transform="translate(-137.04 -202.28)"/><path class="cls-1" d="M156.59,468.53c-.16,2,.93,2.79,3.11,2.82s1.54-1.64,1.5-2.71c-.34-8.35-.69-16.69-.62-25.9-1.8,2.14-1.31,3.94-1.79,5.49-2.07,6.61-1.67,13.51-2.2,20.3" transform="translate(-137.04 -202.28)"/><path class="cls-1" d="M147.65,445.35c-3.56,1.64-3.75,2.54-2.4,6.23,2.06,5.61,6.09,10.13,8.58,15.66.79-8.5,2.32-16.78,3.09-25.51-3.36,1.3-6.39,2.29-9.27,3.62" transform="translate(-137.04 -202.28)"/><path class="cls-1" d="M154,440.76c.92-.55.78-1.3.82-2.14.21-4.07-.55-8.08-.58-12.13,0-7.13,0-14.26,0-21.38,0-5.14.06-10.27.1-15.4l-.87,0a73.4,73.4,0,0,0-1.7,8.11c-1.53,10.15-1.05,20.35-.94,30.55,0,3.76.31,7.52.59,11.27.13,1.6,1.21,1.93,2.59,1.09" transform="translate(-137.04 -202.28)"/><path class="cls-1" d="M299.47,586.46c0,1.11.42,2.37-1,2.87-4.82,1.73-7.48.88-9.62-3.57-.51-1-.25-2.45-1.62-3.62A24.27,24.27,0,0,0,281.6,595a11.12,11.12,0,0,0,2.34,8.21c3.08,4.3,6.61,8.29,9,13.06a1.62,1.62,0,0,0,1.73,1.09c.55-2.14.51-4-1.79-5.3a1.26,1.26,0,0,1-.42-1.09c.2-.86.78-.49,1.29-.26a1,1,0,0,0,1.49-.82c.13-1.48.57-3-.94-4.24-3.72-3-5.82-7.44-9-10.94a13.15,13.15,0,0,1-1.75-2.83,1,1,0,0,1,.53-1.39,1.32,1.32,0,0,1,1.14.12,17.42,17.42,0,0,1,1.56,1.94c2.38,3.08,4.75,6.19,7.16,9.26a3.38,3.38,0,0,0,3.55,1.61c4.09-.75,8.29-1,12.24-2.44,1-.35,1.94-.7,2.74,0,1.24,1,2.62.78,4,.8,5.46.1,10.91.21,16.36.27,1.32,0,2.64-.15,4-.23-4.95-2.63-8.91-6.37-13.53-9.09s-9.33-5-13.52-8.31a12.61,12.61,0,0,0-5.41-2.15c-5-1-5.09-1-4.85,4.2M329,598.11a3.69,3.69,0,0,1-3,1.14c.51-1.22,1.5-1.13,3-1.14m-7.81,1.22c.05,0,.19.1.29.16a4.68,4.68,0,0,1-.62.45c-.07,0-.22-.09-.34-.14a5.06,5.06,0,0,1,.67-.47" transform="translate(-137.04 -202.28)"/><path class="cls-1" d="M311.32,604.35c-3.75,0-7.5.7-11.25.94-2,.13-2.69,1.14-2.62,3,0,.55,0,1.11,0,1.67,0,3.81,0,3.85,3.73,4.32,1.22.15,2.33.44,2.59,1.69.47,2.29,2.11,2.22,3.84,2.25,2.31,0,4.62-.68,7,.16-2.11,1.49-4.52.89-6.8,1.13-3.07.33-6.38,1.15-7.86-3a1.39,1.39,0,0,0-2.15-.52c-1.14,1.28-.65,2.9-.25,4.39.36,1.33,1.39,1.06,2.38.92a79,79,0,0,1,10.43-.47c10.18-.1,20.37-.26,30.55-.29,1.89,0,2.62-.8,2.36-2.48-.71-4.5.06-9.06-.41-13.63-10.64-.82-21.09,0-31.53-.06m-10,8.58c-.48-.12-.52-.56-.34-.93a.64.64,0,0,1,.63-.16c.17.12.18.44.27.67-.19.15-.42.46-.56.42m20.44,5.61a11.66,11.66,0,0,1-4.82-.36c1.75-1.2,3.18-1.08,4.45-1.46a1.24,1.24,0,0,1,1.69.76c.25,1-.68,1-1.32,1.06m4.75-1.14c.54-1.24,1.42-1.08,2.34-.6a1.07,1.07,0,0,1,.27.69,2,2,0,0,1-2.61-.09" transform="translate(-137.04 -202.28)"/><path class="cls-1" d="M369.6,439.63c-.07,1.24-.57,2.51-.41,3.71.65,4.83.57,9.68.87,14.52.1,1.61.07,3.56,2,5,4.58-7.39,7.41-15.38,11.73-22.58-1.62-1.31-3.16-1.23-4.67-1.29-2.37-.1-4.74-.06-7-.91-1.46-.54-2.42-.24-2.51,1.56" transform="translate(-137.04 -202.28)"/><path class="cls-1" d="M294.06,547.74c-5.05,2.47-5.07,2.47-4.72,7.79.58,8.78,1.2,17.56,1.79,26.34a8.75,8.75,0,0,0,1.33,4.77,2.81,2.81,0,0,0,2.82,1.43c1.28-.26,1.5-1.37,1.57-2.61.11-1.83.66-3.68-1.65-4.62a1.42,1.42,0,0,1-1-1.68c.64-2,.3-4.06-.07-6.74,1.9,2,.73,4.13,2.22,5.67.53-3.42-1.34-27.81-2.32-30.35" transform="translate(-137.04 -202.28)"/><path class="cls-1" d="M304.15,505.6c.39-3.06,0-6.13.17-9.19.69-16.75.52-33.5,0-50.25-.33-10.88.29-21.77-.77-32.63-.59-6-1.62-11.87-7.88-15-.57-.28-.9-1-1.37-1.54-5.19-5.65-11.29-9.39-19.23-9.55-3.69-.08-3.74-.18-3.78,3.41a49.07,49.07,0,0,1-2.72,15.19c-.83,2.46-2.26,4.21-5.07,4.21s-5.23-.57-6.45-3.61a25.22,25.22,0,0,1-1.33-4.39c-.79-3.82-.71-7.78-1.92-12-1.14.4-2.08.67-3,1-5.56,2.32-10.52,5.69-15.58,8.89-3.08,1.95-6.22,4.16-8.21,7-4,5.78-6.28,12.28-5.49,19.65,2.16,20.15,2.48,40.42,3.8,60.63.78,11.84,1.55,23.67,2.64,35.49.83,8.91,5.25,15.28,12.41,20.2a37.16,37.16,0,0,0,7.92,3.67c6.65,2.58,13.45,3.59,20.5,2.13,8.91-1.86,17.07-5.23,23.32-12.19,1.64-1.83,3.37-3.6,5-5.44,6-6.89,9.62-14.6,7.11-24.07a4.87,4.87,0,0,1-.07-1.66m-8.92-87.87c-4.44,2.57-8.6,5.59-13.89,6.55a127,127,0,0,1-21.4,2.59,82.89,82.89,0,0,1-27.06-7.15,16.55,16.55,0,0,1-3-2.2c-.54-.44-1-1.08-.57-1.8s1.14-.42,1.76,0c5.73,4,12.39,5.56,19,7.31,3.68,1,7.48,1,11.21,1,8.69.21,17.3-.69,25.42-4,2.53-1,4.77-2.76,7.12-4.22.73-.46,1.46-1,2.15-.16s.1,1.6-.68,2.05" transform="translate(-137.04 -202.28)"/><path class="cls-1" d="M313.37,403c-1-3.4-6.78-7.63-10.23-7.56-1.3,0-2.65.25-3.23,1.45-.49,1,.66,1.69,1.21,2.45a20.79,20.79,0,0,1,3.67,7.38,45.11,45.11,0,0,1,1.44,6.91c.13,1.45.88,1.82,2.3,1.36,4.51-1.48,6.26-4.16,5.53-8.75a27,27,0,0,0-.69-3.24" transform="translate(-137.04 -202.28)"/><path class="cls-1" d="M370.16,423.12c.12,3.33.48,6.67.79,10,.07.78-.13,1.75.78,2.25a2.82,2.82,0,0,0,2.78.31c1.07-.61.6-1.7.55-2.65-.83-15.45-1.7-30.9-3.33-46.29-.17-1.66,0-4.12-1.9-4s-1.75,3-1.43,4.17c1.21,4.59.06,9.17.49,13.72-.24,7.54,1,15,1.27,22.53" transform="translate(-137.04 -202.28)"/><path class="cls-1" d="M359.81,381.6a4,4,0,0,0-2.44.42c-7.27,2.84-14.54,5.64-21.77,8.56-4.25,1.71-8.43,3.62-12.64,5.45-2.31,1-4.61,2-6.91,3-.73.32-1.14.87-.76,1.64s1.11.73,1.74.29c2-1.41,4.33-1.91,6.49-2.89,8.38-3.81,16.92-7.21,25.54-10.4,3.13-1.15,6.13-2.66,9.4-3.45.89-.21,1.93-.54,2.08-1.65a.87.87,0,0,0-.73-1" transform="translate(-137.04 -202.28)"/><path class="cls-1" d="M263.81,376.26a118.92,118.92,0,0,0,28.56-7.61,142.48,142.48,0,0,0,24.57-12.46,114.4,114.4,0,0,0,23.93-20.58c4.63-5.31,8-11.36,11.54-17.37,1.52-2.6,1.47-3-1.48-3.42-6.89-1.07-13.77-2.23-20.69-3-7.21-.78-14.47-1.06-21.7-1.71-9.19-.83-18.39.28-28.61-.48-3.58-.43-8.17.53-12.76.34a232.17,232.17,0,0,0-38.38,1.63c-7.07.88-14,2.48-21,3.5-12.59,1.82-25,4.34-37.35,7.4-3,.75-3.13,1.27-1.15,3.84a136.4,136.4,0,0,0,11.19,12.46,106.06,106.06,0,0,0,19.78,16c5.69,3.51,11.83,6.28,17.63,9.62,13.72,7.91,28.74,10.86,44.28,11.94a8.54,8.54,0,0,0,1.67-.12m51.26-64.42c.34,0,.52.1.45.38a.4.4,0,0,1-.3.21,3.87,3.87,0,0,1-.67-.17Zm-71.09,47c-.85.28-1.12-.43-1.36-1.14a57.07,57.07,0,0,1-2.3-10.19,86.18,86.18,0,0,0-3.43-14.2c-.3-.92-.44-1.89-.63-2.69a9.73,9.73,0,0,1,.32-1.81,1.46,1.46,0,0,1,.81-.84c.64-.13,1,.36,1.09.95,1.64,8.05,4,16,5.12,24.11a35.4,35.4,0,0,0,.92,4c.18.69.26,1.51-.54,1.77m4.72-4.12c-1.28-6.68-2.51-13.37-3.88-20a31.61,31.61,0,0,1-.44-5.39c0-.76-.23-1.9.87-2,1.43-.16,1.25,1.17,1.41,2a21.64,21.64,0,0,1,.34,2.9,54.89,54.89,0,0,0,2.61,13.88c1.31,4.05,1.53,8.3,1.86,13.41a6.47,6.47,0,0,1-2.77-4.79m9.32,3.46a1.22,1.22,0,0,1-.89.69,1.14,1.14,0,0,1-.91-.62,10.59,10.59,0,0,1-.51-2.44q-1.08-11.41-2.13-22.85h.13c0-1.25,0-2.51,0-3.75.05-.84.25-1.88,1.23-1.89s1.08,1,1.08,1.88a43.3,43.3,0,0,0,0,6.24c1,6.87,1.55,13.79,2.09,20.71a6.33,6.33,0,0,1-.15,2m4.81-29.9A1.27,1.27,0,0,1,264,327.2c.87,0,1.13.69,1.13,1.43q0,6.28-.08,12.56c.39,5.15.24,10.32,1.09,15.44.12.68.15,1.53-.68,1.76-1.18.34-1.37-.65-1.5-1.45a38.26,38.26,0,0,1-.63-7.92,53.63,53.63,0,0,0-.93-13.73,16,16,0,0,1,.45-7" transform="translate(-137.04 -202.28)"/><path class="cls-1" d="M291,546.49c4.39-1.77,5.15-5.35,5.09-9.56A80.07,80.07,0,0,1,285.45,545a3.39,3.39,0,0,0-.9.87.84.84,0,0,0,.06,1.12,3.05,3.05,0,0,0,1,.58c1.47-2,3.64-.39,5.43-1.12" transform="translate(-137.04 -202.28)"/><path class="cls-1" d="M239.25,606.05c0-1.33-.41-2.16-1.88-2.14-2.37,0-4.71-.41-7.1-.27-7.94.44-15.89.69-23.83,1.13a59.61,59.61,0,0,0-6.62,1,2.37,2.37,0,0,0-2.19,2.56c-.19,4-.56,8,0,12a6.79,6.79,0,0,0,4.65,0c3.65-1.34,7.42-1.11,11.17-1.28,7.8-.37,15.6-.79,23.41-1,2.18-.06,2.57-1,2.52-2.78-.1-3.07-.12-6.14-.11-9.21" transform="translate(-137.04 -202.28)"/><path class="cls-1" d="M221.4,401.58a6.29,6.29,0,0,0-6.26,2.52,13.4,13.4,0,0,0-3.21,8.42c-.2,3.68,1.08,6.59,4.44,8.31,2,1,2.53.69,3.09-1.58,1-4.18,1.83-8.41,4.31-12.1s2-4.75-2.37-5.57" transform="translate(-137.04 -202.28)"/><path class="cls-1" d="M268.36,382.12c-.06-4.42-.07-4.33-4.33-3.95a33.7,33.7,0,0,1-5-.29c-3.33-.22-4.06.5-3.4,3.83a103.94,103.94,0,0,1,1.59,11.54c.25,3.18.1,6.42,1,9.56s3,5.64,5,5.49c1.74-.13,3.51-2.67,4.18-5.73a52.94,52.94,0,0,0,.91-14.06c0-2.2.06-4.3,0-6.39" transform="translate(-137.04 -202.28)"/><path class="cls-1" d="M245.42,549c-3.36-2-6.81-3.93-10.47-6-.62,3.06.71,4.66,2.82,6.09,2.28,1.55,4.59,2.61,7.33,1.81.88-.25,1.31-1.29.32-1.89" transform="translate(-137.04 -202.28)"/><path class="cls-1" d="M241.57,586.42c1.75,1.5,3.82,1.19,4.8-.88a11.7,11.7,0,0,0,.73-4.92c.17-7-.7-13.92-.91-20.89-.19-6.4-.25-6.4-7.19-6.54-.91,7.54.36,14.93,1.52,22.33l0,0a7.71,7.71,0,0,1,.63,4.61c-1.06,0-1.08-.85-1.54-1.24-.58,2.83-.44,5.47,2,7.55" transform="translate(-137.04 -202.28)"/><path class="cls-1" d="M239.55,578.66c.28-1.09.57-2.17.85-3.26-.24-.25-.48-.57-.77-.64-1-.22-.52.61-.54,1a5.15,5.15,0,0,0,.46,2.94" transform="translate(-137.04 -202.28)"/><path class="cls-1" d="M249.1,585.32a5.22,5.22,0,0,1-5.16,4.13c-3.1.25-4.77-.67-6-3.42a10,10,0,0,1-.86-2.78c-.19-1.6-1-1.76-2.33-1.41a13.16,13.16,0,0,0-3.05,1.34c-8.06,4.42-16.24,8.64-24.17,13.3-2.91,1.71-6.15,3.21-8.54,6.19a2.91,2.91,0,0,0,2.44.54c11-.57,22-1.3,33.06-1.59a9.74,9.74,0,0,0,7.65-3.25c2.63-2.88,5.49-5.55,8.27-8.29.56-.56,1.16-1.48,2-.54a1.62,1.62,0,0,1-.1,2.28,8.21,8.21,0,0,1-.93.83A49.21,49.21,0,0,0,247,596.5c-1.77,1.92-4.29,3.41-4.92,6.09a24.84,24.84,0,0,0,.09,12.32,5.79,5.79,0,0,0,1.34-.74c3.7-4.13,7.45-8.22,11-12.45a10.77,10.77,0,0,0,2.61-7.67c-.12-3.27-1-6.32-1.61-9.46s-2.55-4.46-5.63-4.71a47,47,0,0,1-.81,5.44" transform="translate(-137.04 -202.28)"/><path class="cls-2" d="M147.45,261.31l.06,0a.22.22,0,0,0,0-.08Z" transform="translate(-137.04 -202.28)"/><path class="cls-2" d="M361.58,469.19a22.41,22.41,0,0,0,3.73.57c2.48.2,5-.21,7.37,1.1a1.71,1.71,0,0,0,2.66-1.59c.06-1.67,1.07-2.86,1.8-4.17,4.46-7.89,7.91-16.3,12.63-24.06,1.44-2.36.64-4.25-1.94-5.22a29.13,29.13,0,0,0-4.08-.94c-3.69-.79-3.67-.78-3.87-4.38-.7-12.26-.5-24.58-2.38-36.77-.47-3.07-.73-6.07,1.93-8.45a3.63,3.63,0,0,0,.85-1.87c.9-4.22-1.86-9.24-6.33-11.63-3.67-2-8-1-11.28,2.45-.74.78-1.08,2-2.42,2.15-4.2.58-7.84,2.77-11.77,4.11-11.38,3.9-22.1,9.32-33.2,13.87-2,.82-4.23,2.07-6.37.71a10.36,10.36,0,0,0-8.43-1.17,2.58,2.58,0,0,1-2.94-.85,30.62,30.62,0,0,0-22.28-10.65c-.79,0-1.74.18-2.17-.89,6.9-2.94,14.28-4.34,21.33-6.86,9.79-3.5,18.72-8.47,27.49-13.85,4.89-3,8.92-7,13-11.06,7.84-7.73,15.59-15.56,21.7-24.72,3-4.44,4.16-9.48.62-14.76a47.18,47.18,0,0,1-5.92-12.89c-1.14-3.83-1-4.1,2.57-5.68a42.27,42.27,0,0,0,10-6.68c1.54-1.31,3.1-3.1,2.7-4.95-.67-3.14-.6-6.54-3.21-9.21-4.26-4.35-8.18-9-12.2-13.59-8.3-9.42-16.66-18.75-27.47-25.49-6.1-3.8-11.54-8.62-18.18-11.62-2-.91-4.12-1.61-6.13-2.58a58.47,58.47,0,0,0-22-6.18c-2.38-.14-3.68-.62-4.59-3.12-1.33-3.72-6.56-6.56-10.68-5.89a8.32,8.32,0,0,0-7.11,6.77,2.73,2.73,0,0,1-2.85,2.41,31.62,31.62,0,0,0-7.26,1.92c-7.13,2.42-14.08,5.22-21,8.19a232.85,232.85,0,0,0-24.77,12.94c-7.52,4.35-13.85,10.31-19.94,16.46a113.32,113.32,0,0,0-13.74,16.78,44.64,44.64,0,0,0-7,18.52c-.24,1.63.62,2.55,1.68,3.56a27.6,27.6,0,0,0,9.22,5.62c1.17.46,1.89,1.22,1.51,2.57s-1.45,1.1-2.4,1.17c-3.19.2-6-1.2-8.88-2.19a13.57,13.57,0,0,1-8.53-8.66c-2.2-6-4-12.16-3.77-18.76.08-2.37.31-4.39,1.93-6.15.66-.72,1.16-1.6,1.88-2.25,1.38-1.23,1.17-2.33,0-3.55-.67-.7-1.18-1.57-1.86-2.26-3.2-3.27-7-3.25-9.65.52-3.14,4.5-3.49,7.43,2.27,9.1a3.54,3.54,0,0,1,2.74,3.21c.3,1.64.25,3.34.42,5a47.76,47.76,0,0,0,4.83,17.63c3.55,6.77,9.08,9.88,16.44,10.37,1.1.07,2.24-.18,3.6.58-1.5,4.09-1.49,8.58-3.07,12.8a36.32,36.32,0,0,1-4,7.29c-2.37,3.6-1.29,4.6.62,7a163.23,163.23,0,0,0,12.68,13.87c4,4.06,7.95,8.37,12.55,11.7,8.42,6.09,17,12,26.61,16.26,7.67,3.41,15.59,6,23.42,8.88,3.22,1.2,6.61,1,9.93,1.38a1.74,1.74,0,0,1,1.73,1.47,1.69,1.69,0,0,1-1,2.06c-.37.2-.77.34-1.14.52a84,84,0,0,0-21,14.35c-.84.79-1.55,1.46-2.89.74-3.86-2.07-7.29-1.1-10.31,1.81-.8.77-1.39.68-2.48.26-3-1.14-5.62-3.07-8.58-4.32-11.55-4.86-22.78-10.43-34.63-14.62a14.22,14.22,0,0,1-7.55-5.67c-2.71-4.18-6.16-4.27-10.56-1.83s-6.24,10.74-3.62,15.37a7.38,7.38,0,0,1,.8,5.19,26.63,26.63,0,0,0-.33,3.33c-.57,12.71-1.17,25.42-.42,38.14.13,2.16-.63,3.07-2.6,3.43a11.52,11.52,0,0,0-6.07,3.5,2.46,2.46,0,0,0-.7,3c2.82,6.5,5.13,13.24,9,19.26,1.28,2,3,3.69,3.65,6.06.68,2.58,2.49,3.52,5,3.49a21.13,21.13,0,0,1,7.42,1c3.09,1.07,4.83-.29,4.68-3.52a57.26,57.26,0,0,1,.52-10.41,14.05,14.05,0,0,0,5.25-.19c1.79-.44,2.29-1.38,1.58-3.05-2.84-6.66-5.81-13.27-8.44-20-1.17-3-2.72-4.76-6.28-4.07.62-11.67.7-22.81.37-34-.06-2.25-1.62-5.39.44-6.56s4.7.9,6.94,2c2.75,1.35,5.34,3.39,8.24,4,4.2.88,7.91,2.75,11.63,4.54a147.77,147.77,0,0,0,19.82,7.71c1.62.51,2.89,1.19,3.08,2.93a5.84,5.84,0,0,0,3.06,4.74c3.26,1.71,3.75,4.55,3.86,7.72.22,7,.16,14,.8,20.95,1.19,12.8,1.26,25.65,2.3,38.45,1.11,13.76.55,27.65,3.63,41.25a25.71,25.71,0,0,0,3.18,8.57c.66,1,1.63,2,1.3,3.41-.71,3,.59,5.53,2.19,7.82a10,10,0,0,1,1.77,6.29c-.15,6-1.51,11.94-.3,17.95.33,1.59-.5,2.65-1.78,3.47-2.69,1.73-5.25,3.64-8.14,5.12-5,2.58-9.89,5.59-14.94,8.2-4.57,2.37-8.9,5.14-13.4,7.61-1.6.87-2.25,1.52-2.23,3.37.06,4.89-.16,9.78-.25,14.67,0,2-.15,3.93,0,5.87.31,4,1.84,4.95,5.74,4.18,3.13-.61,6.1-1.74,9.43-1.76,7.07,0,14.13-.56,21.2-.87,4.08-.18,8.32,1.08,12.13-1.4,2.46,1.12,3.95-.46,5.35-2,5.22-5.75,10.34-11.6,16.11-16.82a5.62,5.62,0,0,0,1.88-4.81c-.19-4.94-1.59-9.62-2.51-14.41a10.24,10.24,0,0,0-5.65-7.82,4.4,4.4,0,0,1-2.54-4,78.17,78.17,0,0,1,0-15.75c10.52,2.79,20.38-.14,30.48-2.87,1.3,7.3,2.35,14.45,2.07,21.73,0,.81.07,1.63-.73,2.27-4.43,3.51-5.69,8.61-7.18,13.73-1.07,3.64.21,7.55-1.74,11-.32.58.37,1.26.81,1.82,5.23,6.67,10.37,13.42,15.7,20a7.43,7.43,0,0,0,7,2.91,127.33,127.33,0,0,1,13.4-.59c8.38-.15,16.77-.33,25.13-.93,2.88-.2,5.77.34,8.66-.44,3.26-.88,3.65-.81,3.13-4-1-6.25-.81-12.51-.6-18.78a2.39,2.39,0,0,0-1.58-2.57c-10-4.88-19.37-11-28.68-17.08-3.82-2.51-7.44-5.59-12.06-6.56-2.78-.59-3.49-2.19-3.63-4.73-.4-6.82-.89-13.65-1.54-20.45-.28-2.9-.92-5.71-.05-8.66a48.5,48.5,0,0,0,1.35-6.95c.41-3,1.15-6,3.59-8.29,1.33-1.24,1.9-3,2.64-4.72,2.71-6.08,2.1-12.6,2.46-19,.35-6.12-.47-12.26-.3-18.41.28-9.77.91-19.61-.07-29.32-1.23-12.14-.87-24.29-1.4-36.42A2.4,2.4,0,0,1,311,417c1.68-.67,3.6-1.8,4-3.44.61-2.5,3.22-3.81,3.27-6.57,0-1,1.32-1.76,2.35-2.22,1.4-.62,2.84-1.15,4.27-1.72,8.79-3.52,17.79-6.46,26.5-10.2,3.17-1.36,6.41-2.68,9.66-3.9,2.32-.86,3.1-.33,3.23,2.11.1,1.81-.07,3.63-.08,5.45a274.38,274.38,0,0,0,1.57,31.39c.14,1.34.6,2.75-.49,4-3.39,3.84-4.67,8.87-7.32,13.14a52.29,52.29,0,0,0-3.72,8.4c-1.14,2.9-.83,4.87,1.37,5.68,2.45.9,2.53,2.49,1.93,4.28-1.33,3.95,1,5,4.05,5.76M144.3,263.4c-1.47-.65-3.58-.67-4.08-2.45-.61-2.16,1.17-3.48,2.53-4.87,1.2-1.21,2.36-1.31,3.59-.14.6.58,1.12,1.24,1.75,1.76,2,1.6,1.3,2.69-.58,3.58-.16,2.05-1.07,3.07-3.21,2.12m20.09,188.5c.71,3.19,3.46,4.49,3,7.37-3.86,0-4.1-.5-3-7.37m-10.56,15.34c-2.49-5.53-6.52-10.05-8.58-15.66-1.35-3.69-1.16-4.59,2.4-6.23,2.88-1.33,5.91-2.32,9.27-3.62-.77,8.73-2.3,17-3.09,25.51m-2.05-69.39a73.4,73.4,0,0,1,1.7-8.11l.87,0c0,5.14-.09,10.27-.1,15.41,0,7.12,0,14.25,0,21.38,0,4.05.79,8.06.58,12.13,0,.84.1,1.59-.82,2.14-1.38.84-2.46.51-2.59-1.09-.28-3.75-.55-7.51-.59-11.27-.11-10.2-.59-20.4.94-30.55m8.79,44.89c-.06,9.21.29,17.55.63,25.9,0,1.07.63,2.74-1.5,2.71s-3.27-.87-3.11-2.82c.53-6.79.13-13.69,2.2-20.3.48-1.55,0-3.35,1.78-5.49m-3.38-50.58c-.69-2.33.85-5.65-2.6-6-2.86-.32-3.67,2.32-4.16,4.6-1.54.29-1.84-.8-2.16-1.62a9.8,9.8,0,0,1,.37-8.07c1.49-3.13,4.65-4.87,7.34-4.19s4.91,4.61,4.79,7.73c-.1,2.92.09,5.88-3.58,7.58m52.93,16.35c-.17.31-.64.44-.84.57a6.52,6.52,0,0,1-2.95-.82q-10.12-3.92-20.25-7.84c-7.27-2.82-14.59-5.52-21.63-8.86-1-.5-2.88-.53-1.82-2.83.87-1.87,2-1.73,3.32-1.15,2.69,1.14,5.33,2.38,8,3.57,7,3.12,13.94,6.26,20.93,9.35,4.07,1.8,8.18,3.52,12.28,5.29a24.22,24.22,0,0,1,2.62,1.25,1.05,1.05,0,0,1,.34,1.47m140.86-96c-4.56-.62-8.71-.95-12.75-1.8-9.64-2-19.48-1.65-29.19-2.77-7.66-.88-15.35.07-23-.33-13.3-.7-26.57-.06-39.83.3A161.3,161.3,0,0,0,217.94,311c-9.16,1.87-18.47,3-27.68,4.68-5.49,1-10.92,2.31-16.38,3.46-.64.13-1.25.66-2,.23-.58-1.07.28-1.87.62-2.68,4.18-10,5.34-20.43,5-31.13-.13-3.81-.09-4,3.49-4.84,9.79-2.41,19.68-4.2,29.79-4.24q11.75-.06,23.49.29a72.62,72.62,0,0,1,17.19,2.56c-1.42,5.48-3.74,10.52-5.73,15.68a26.42,26.42,0,0,0-1.27,3.52c-.48,2,.55,3.18,2.43,2.42,5.35-2.18,11-2.07,16.52-2.1a107.43,107.43,0,0,1,19.2,1.38,9,9,0,0,0,1.24.24c2.17.08,3-1.15,2-3.17-1.15-2.37-2.45-4.67-3.68-7-.39-.74-.8-1.48-1.15-2.24-2.81-6.25-2.54-6.46,3.75-8.67,8-2.82,16.32-3.57,24.61-4.71a106.19,106.19,0,0,1,26.72.05c.69.09,1.38.22,2.07.32a3.54,3.54,0,0,1,3.42,3.46c.62,5,2.05,9.82,2.55,14.84.43,4.34,3.19,8,4.16,12.2a54.68,54.68,0,0,0,2.63,7m0-26.1a8.87,8.87,0,0,1-2.29,1c-1.56.49-2.72.17-3.13-1.67-.65-3-1.94-6.5-.24-8.86,1.33-1.86,4.64-.07,7.07.29a35.3,35.3,0,0,1,8.23,2c-2.86,3.45-6.47,5.06-9.64,7.26m-80.67-64a28.21,28.21,0,0,1,.28-3.33c.19-1.07.77-1.77,2.05-1.48,9,2,18.15,3,26.68,6.9,8.83,4,16.61,9.52,24.25,15.37a156.07,156.07,0,0,1,21.38,19.31,131.43,131.43,0,0,1,9.79,11.95c1,1.47,2.77,2.31,3.55,4.48-2.11.61-3.78-.37-5.51-.75-10.58-2.35-21.33-2.59-32.1-2.7a120.57,120.57,0,0,0-35.15,4.92,44.71,44.71,0,0,0-5.11,1.88c-1.36.57-2.1.14-2.56-1.16a17.08,17.08,0,0,1-.73-2c-2.93-13.64-6.31-27.21-6.09-41.32.06-4-1-8-.73-12.11m-10.9-1.7a22.12,22.12,0,0,1,1.48-9c1.46-3.33,2.71-4.23,5.19-3.66,2.14.49,3,1.71,2.81,5.33a116.83,116.83,0,0,0-.2,13.36c.47,6.84.53,13.68.8,20.52.24,6.3,2,12.38,3.2,18.54a148.79,148.79,0,0,0,6.7,23.7,48.94,48.94,0,0,0,3.36,6.25,2,2,0,0,1,.23,2.1c-5.93.48-11.85-.93-17.83-.91-5.81,0-11.64-.34-17.33.94-.62-1.93.25-3.18.82-4.35,1.78-3.66,2.8-7.6,4.37-11.33A36,36,0,0,0,255.21,272c.93-8.46,2.21-16.87,2.83-25.36s1.28-17.28,1.33-25.94m-89.66,52.56c7.37-11.85,17.15-21.43,28.14-29.94,11.16-8.64,23.7-14.65,36.65-19.85a77.76,77.76,0,0,1,19.71-5.42c3.31-.38,3.64-.15,3.51,3.22-.32,8.65-1.14,17.27-2,25.88q-1.22,11.86-2.28,23.74c-.49,5.6-1.06,6.26-6.65,5.21-13.3-2.49-26.68-2.44-40.07-1.43a212.28,212.28,0,0,0-31,4.88c-2.21.5-4.13,1.68-6.22,2.46-1.3.48-2.51,1.27-4.53.32,1.65-3.19,3-6.26,4.73-9.07m-4.58,12.49,7-2.35a4.32,4.32,0,0,1,2.86-.29c.89,2,.5,4.1.48,6.17,0,1.59-.93,1.72-2.25,1.39-3.07-.76-5.38-2.65-8-4.92m52.73,78.69c-5.8-3.34-11.94-6.11-17.63-9.62a106.46,106.46,0,0,1-19.78-16,137.74,137.74,0,0,1-11.19-12.46c-2-2.57-1.89-3.09,1.15-3.84,12.33-3.06,24.76-5.58,37.35-7.4,7-1,14-2.62,21-3.5A232.17,232.17,0,0,1,267.17,310c4.59.19,9.18-.77,12.76-.34,10.22.76,19.42-.35,28.61.48,7.23.65,14.49.93,21.7,1.72,6.92.75,13.8,1.91,20.69,3,2.95.46,3,.82,1.48,3.42-3.52,6-6.91,12.06-11.54,17.37a114.4,114.4,0,0,1-23.93,20.58,142.48,142.48,0,0,1-24.57,12.46,118.92,118.92,0,0,1-28.56,7.61,8.54,8.54,0,0,1-1.67.12c-15.54-1.08-30.56-4-44.28-11.94m49.56,38.13c-.67,3.06-2.44,5.6-4.19,5.73-2,.15-4-2.24-5-5.49s-.79-6.38-1-9.56a103.94,103.94,0,0,0-1.59-11.54c-.66-3.33.07-4,3.4-3.83a33.7,33.7,0,0,0,5,.29c4.26-.38,4.27-.47,4.33,3.95,0,2.09,0,4.19,0,6.39a52.94,52.94,0,0,1-.91,14.06m-48,16.68c-.56,2.27-1.09,2.61-3.09,1.58-3.36-1.72-4.64-4.63-4.44-8.31a13.4,13.4,0,0,1,3.21-8.42,6.29,6.29,0,0,1,6.26-2.52c4.33.82,4.85,1.88,2.37,5.56s-3.28,7.93-4.31,12.11M236.84,618c-7.81.18-15.61.6-23.41,1-3.75.17-7.52-.06-11.17,1.28a6.79,6.79,0,0,1-4.65,0c-.54-4-.17-8,0-12a2.37,2.37,0,0,1,2.19-2.56,59.61,59.61,0,0,1,6.62-1c7.94-.44,15.89-.69,23.83-1.13,2.39-.14,4.73.32,7.1.27,1.47,0,1.89.81,1.88,2.14,0,3.07,0,6.14.11,9.21,0,1.81-.34,2.72-2.52,2.78m18.7-33.45c.56,3.14,1.49,6.19,1.61,9.46a10.77,10.77,0,0,1-2.61,7.67c-3.58,4.23-7.33,8.32-11,12.45a5.79,5.79,0,0,1-1.34.74,25,25,0,0,1-.09-12.32c.63-2.68,3.15-4.17,4.92-6.09a49.21,49.21,0,0,1,4.41-3.85,9.18,9.18,0,0,0,.93-.83,1.62,1.62,0,0,0,.1-2.28c-.87-.94-1.47,0-2,.54-2.78,2.74-5.64,5.41-8.27,8.29a9.74,9.74,0,0,1-7.65,3.25c-11,.29-22,1-33.06,1.59a2.91,2.91,0,0,1-2.44-.54c2.39-3,5.63-4.48,8.54-6.19,7.92-4.66,16.11-8.87,24.17-13.3a13.16,13.16,0,0,1,3.05-1.34c1.31-.35,2.14-.19,2.33,1.41a10,10,0,0,0,.86,2.78c1.23,2.75,2.9,3.67,6,3.42,2.7-.21,4.46-1.48,5.16-4.13a47,47,0,0,0,.81-5.44c3.08.25,5.09,1.67,5.63,4.71m-15.91-9.83c.29.07.52.38.77.64-.28,1.09-.57,2.17-.85,3.26a5.15,5.15,0,0,1-.46-2.94c0-.35-.43-1.18.54-1m0,4.11c.46.39.48,1.28,1.54,1.24a7.7,7.7,0,0,0-.63-4.61l0,0c-1.16-7.4-2.43-14.79-1.52-22.33,6.94.14,7,.14,7.19,6.54.21,7,1.08,13.9.91,20.89a11.7,11.7,0,0,1-.73,4.92c-1,2.06-3.05,2.38-4.8.88-2.42-2.08-2.56-4.72-2-7.55m5.51-28c-2.74.8-5-.26-7.33-1.81-2.11-1.43-3.43-3-2.82-6.09,3.66,2.08,7.11,4,10.47,6,1,.6.56,1.64-.32,1.89M284.61,547a.85.85,0,0,1-.06-1.13,3.39,3.39,0,0,1,.9-.87,80.07,80.07,0,0,0,10.67-8.11c.06,4.21-.7,7.79-5.09,9.56-1.79.73-4-.84-5.43,1.12a3.06,3.06,0,0,1-1-.57m9.62,32.12a1.42,1.42,0,0,0,1,1.68c2.31.94,1.76,2.79,1.65,4.62-.07,1.24-.29,2.35-1.57,2.61a2.81,2.81,0,0,1-2.82-1.43,8.75,8.75,0,0,1-1.33-4.77c-.59-8.78-1.21-17.56-1.79-26.34-.35-5.32-.33-5.32,4.72-7.79,1,2.54,2.85,26.93,2.32,30.35-1.49-1.54-.32-3.69-2.22-5.67.37,2.68.71,4.75.07,6.74m49,38.88c.26,1.68-.47,2.48-2.36,2.48-10.18,0-20.37.19-30.55.29a79,79,0,0,0-10.43.47c-1,.15-2,.41-2.38-.92-.4-1.49-.89-3.11.25-4.39a1.39,1.39,0,0,1,2.15.52c1.48,4.14,4.79,3.32,7.86,3,2.28-.24,4.69.36,6.8-1.13-2.38-.84-4.69-.11-7-.16-1.73,0-3.37,0-3.84-2.25-.26-1.25-1.37-1.54-2.58-1.69-3.78-.47-3.77-.51-3.74-4.32,0-.56,0-1.12,0-1.68-.07-1.82.61-2.83,2.62-3,3.75-.24,7.5-.95,11.25-.94,10.44,0,20.89-.76,31.53.06.47,4.57-.3,9.13.41,13.63m-38.94-35.78a12.61,12.61,0,0,1,5.41,2.15c4.18,3.3,9,5.63,13.52,8.31s8.58,6.46,13.53,9.09c-1.32.08-2.64.24-4,.23-5.45-.06-10.9-.17-16.36-.27-1.37,0-2.75.22-4-.8-.8-.65-1.74-.31-2.74,0-4,1.42-8.15,1.7-12.24,2.44a3.38,3.38,0,0,1-3.55-1.61c-2.41-3.07-4.78-6.18-7.16-9.26a16.35,16.35,0,0,0-1.56-1.94,1.32,1.32,0,0,0-1.14-.12,1,1,0,0,0-.53,1.39,13.15,13.15,0,0,0,1.75,2.83c3.2,3.5,5.3,7.9,9,10.94,1.51,1.22,1.07,2.76.94,4.23a1,1,0,0,1-1.49.83c-.51-.23-1.09-.6-1.29.26a1.26,1.26,0,0,0,.42,1.09c2.3,1.25,2.34,3.16,1.79,5.3a1.62,1.62,0,0,1-1.73-1.09c-2.41-4.77-5.94-8.76-9-13.06A11.12,11.12,0,0,1,281.6,595a24.27,24.27,0,0,1,5.66-12.9c1.37,1.17,1.11,2.57,1.62,3.62,2.14,4.45,4.8,5.3,9.62,3.57,1.39-.5,1-1.76,1-2.87-.24-5.19-.18-5.23,4.85-4.2m-7.21-50.93c-1.6,1.84-3.33,3.61-5,5.44-6.25,7-14.41,10.33-23.32,12.19-7.05,1.46-13.85.45-20.5-2.13a37.16,37.16,0,0,1-7.92-3.67c-7.16-4.92-11.58-11.29-12.41-20.2-1.09-11.82-1.86-23.65-2.64-35.49-1.32-20.21-1.64-40.48-3.8-60.63-.79-7.37,1.47-13.87,5.49-19.65,2-2.85,5.13-5.06,8.21-7,5.06-3.2,10-6.57,15.58-8.89.89-.37,1.83-.64,3-1,1.21,4.26,1.13,8.22,1.92,12a24.63,24.63,0,0,0,1.33,4.39c1.22,3,3.67,3.6,6.45,3.61s4.24-1.75,5.07-4.21a48.78,48.78,0,0,0,2.72-15.19c0-3.59.09-3.49,3.78-3.41,7.94.16,14,3.9,19.23,9.55.47.51.8,1.26,1.37,1.54,6.26,3.09,7.29,8.92,7.88,15,1.06,10.86.43,21.75.77,32.63.52,16.75.69,33.5,0,50.25-.13,3.06.22,6.13-.17,9.19a4.63,4.63,0,0,0,.07,1.66c2.51,9.47-1.12,17.18-7.11,24.07M308.53,415c-1.42.46-2.17.09-2.29-1.36a47.65,47.65,0,0,0-1.45-6.91,20.65,20.65,0,0,0-3.68-7.38c-.54-.76-1.69-1.45-1.2-2.45.58-1.2,1.93-1.45,3.22-1.45,3.46-.07,9.22,4.16,10.23,7.56a25.24,25.24,0,0,1,.7,3.24c.73,4.58-1,7.27-5.53,8.75m49.93-30.8c-3.27.79-6.27,2.3-9.4,3.45-8.62,3.19-17.16,6.59-25.54,10.4-2.16,1-4.52,1.48-6.49,2.89-.63.44-1.34.54-1.74-.29s0-1.32.76-1.64c2.3-1,4.6-2,6.91-3,4.21-1.83,8.38-3.74,12.64-5.45,7.23-2.92,14.51-5.72,21.77-8.56a4,4,0,0,1,2.44-.42.87.87,0,0,1,.73,1c-.15,1.11-1.19,1.44-2.08,1.65m9.94,2.65c-.32-1.21-.42-4.08,1.43-4.17s1.73,2.38,1.9,4c1.63,15.39,2.5,30.84,3.33,46.29.05,1,.52,2-.55,2.65a2.82,2.82,0,0,1-2.78-.31c-.91-.5-.71-1.47-.78-2.25-.31-3.33-.67-6.67-.79-10-.28-7.51-1.51-15-1.27-22.52-.43-4.55.72-9.13-.49-13.72M379.12,439c1.51.06,3.05,0,4.67,1.29-4.32,7.2-7.15,15.19-11.73,22.59-1.93-1.44-1.9-3.39-2-5-.3-4.84-.22-9.69-.87-14.52-.16-1.2.34-2.47.41-3.71.09-1.8,1-2.1,2.51-1.56,2.27.85,4.64.81,7,.91m-13.58-51.93c-3.57-4.4-3.48-9.83-.09-12.66,2.43-2,7.86-1.09,10.27,1.77,3.68,4.37,3.38,7.25-1.29,11.13a35.18,35.18,0,0,0-1.12-4.47c-.63-1.65-1.82-2.86-3.79-2.69-1.82.15-2.61,1.35-2.94,3-.25,1.22-.64,2.41-1,3.89m1.38,64.44c.34,3.65.63,7.3,1,10.95.15,1.43-.39,2.08-1.79,2.1s-2.69-.41-2.39-2.06c.68-3.74,1.35-7.49,3.16-11m-6.26,3.19c1-2.92,2.1-5.83,3.16-8.75.81,3.34-.76,6.11-1.11,9.12a1,1,0,0,1-1.45,1,1,1,0,0,1-.6-1.35" transform="translate(-137.04 -202.28)"/><path class="cls-2" d="M293.76,415.84c-2.35,1.46-4.59,3.19-7.12,4.22-8.13,3.33-16.73,4.23-25.42,4-3.73-.08-7.53-.07-11.21-1-6.59-1.75-13.25-3.32-19-7.31-.62-.43-1.25-.79-1.76,0s0,1.36.57,1.8a16.55,16.55,0,0,0,3,2.2,82.89,82.89,0,0,0,27.06,7.15,127,127,0,0,0,21.4-2.59c5.29-1,9.45-4,13.89-6.55.78-.45,1.35-1.18.68-2.05s-1.42-.3-2.15.16" transform="translate(-137.04 -202.28)"/><path class="cls-2" d="M256.08,335.4a43.3,43.3,0,0,1,0-6.24c0-.85,0-1.9-1.08-1.88s-1.18,1.05-1.23,1.89c-.08,1.24,0,2.5,0,3.75h-.13q1.06,11.43,2.13,22.85a10.79,10.79,0,0,0,.51,2.45,1.14,1.14,0,0,0,.91.61,1.22,1.22,0,0,0,.89-.69,6.08,6.08,0,0,0,.14-2c-.53-6.92-1.09-13.84-2.08-20.71" transform="translate(-137.04 -202.28)"/><path class="cls-2" d="M247,332.19a21.63,21.63,0,0,0-.33-2.9c-.17-.87,0-2.2-1.42-2-1.1.12-.89,1.26-.87,2a31.61,31.61,0,0,0,.44,5.39c1.37,6.66,2.6,13.35,3.88,20a6.47,6.47,0,0,0,2.77,4.79c-.33-5.11-.55-9.36-1.86-13.41A54.89,54.89,0,0,1,247,332.19" transform="translate(-137.04 -202.28)"/><path class="cls-2" d="M263.31,349a38.26,38.26,0,0,0,.63,7.92c.13.8.32,1.79,1.5,1.45.83-.23.8-1.08.68-1.76-.85-5.12-.7-10.29-1.09-15.44q0-6.29.08-12.56c0-.74-.26-1.44-1.12-1.43a1.26,1.26,0,0,0-1.16,1.05,16,16,0,0,0-.45,7,53.63,53.63,0,0,1,.93,13.73" transform="translate(-137.04 -202.28)"/><path class="cls-2" d="M243.6,353c-1.16-8.15-3.48-16.06-5.12-24.11-.12-.59-.45-1.08-1.09-.95a1.43,1.43,0,0,0-.81.84,9.73,9.73,0,0,0-.32,1.81c.18.8.33,1.77.63,2.69a86.18,86.18,0,0,1,3.43,14.2,57.07,57.07,0,0,0,2.3,10.19c.25.71.51,1.42,1.36,1.14s.72-1.08.54-1.77a35.4,35.4,0,0,1-.92-4" transform="translate(-137.04 -202.28)"/><path class="cls-2" d="M315.52,312.22c.07-.28-.11-.41-.45-.38l-.52.42a3.87,3.87,0,0,0,.67.17.37.37,0,0,0,.3-.21" transform="translate(-137.04 -202.28)"/><path class="cls-2" d="M216.72,287.67c-5-.17-8.72,3.08-8.9,7.88s2.83,8.09,7.91,8.25c4.43.13,9.28-4.37,9.57-8.86.25-3.94-3.48-7.1-8.58-7.27m-.88,13.84A5.74,5.74,0,0,1,216,290c3.94.13,6.18,1.87,6.08,4.72s-3.61,6.75-6.2,6.76" transform="translate(-137.04 -202.28)"/><path class="cls-2" d="M312.2,287a7.49,7.49,0,0,0-7.75,7.58,6.56,6.56,0,0,0,6.63,6.17c4.05.11,7.75-3.3,7.77-7.17A6.51,6.51,0,0,0,312.2,287m-.75,11.14c-2.39,0-4.59-2.24-4.43-4.44.13-1.78,2.44-4.1,4.08-4.11,2.75,0,5.25,2.14,5.14,4.42a4.47,4.47,0,0,1-4.79,4.13" transform="translate(-137.04 -202.28)"/><path class="cls-2" d="M196.29,296a7.94,7.94,0,0,0,.06.81c.06-.26.13-.49.18-.73a.65.65,0,0,0,0-.39c-.13-.23-.24-.11-.24.31" transform="translate(-137.04 -202.28)"/><path class="cls-2" d="M326,599.25a3.69,3.69,0,0,0,3-1.14c-1.48,0-2.47-.08-3,1.14" transform="translate(-137.04 -202.28)"/><path class="cls-2" d="M321.44,599.49c-.1-.06-.24-.19-.29-.16a5.06,5.06,0,0,0-.67.47c.12.05.27.17.34.14a4.68,4.68,0,0,0,.62-.45" transform="translate(-137.04 -202.28)"/><path class="cls-2" d="M321.39,616.72c-1.27.39-2.7.26-4.45,1.46a11.66,11.66,0,0,0,4.82.36c.64-.06,1.56,0,1.32-1.06a1.24,1.24,0,0,0-1.69-.76" transform="translate(-137.04 -202.28)"/><path class="cls-2" d="M326.51,617.4a2,2,0,0,0,2.61.09,1.07,1.07,0,0,0-.27-.69c-.92-.48-1.8-.64-2.34.6" transform="translate(-137.04 -202.28)"/><path class="cls-2" d="M301,612c-.18.37-.14.81.34.93.14,0,.37-.27.56-.42-.09-.23-.1-.55-.27-.67a.64.64,0,0,0-.63.16" transform="translate(-137.04 -202.28)"/><path class="cls-2" d="M146,258.89c0,1.19,1,1.41,1.42,2.06-.14-.85-.31-1.69-1.42-2.06" transform="translate(-137.04 -202.28)"/><path class="cls-2" d="M147.46,261.3l.06-.1a.83.83,0,0,0-.12-.25c0,.12,0,.24.06.35" transform="translate(-137.04 -202.28)"/></svg>