<svg id="Layer_1" data-name="Layer 1" xmlns="http://www.w3.org/2000/svg" viewBox="0 0 298.02 410.44"><defs><style>.cls-1{fill:#fff;}.cls-2{fill:#010101;}</style></defs><path class="cls-1" d="M278.44,525.9c-6.27,1.31-12.53,2.68-18.86,3.74a91.42,91.42,0,0,0-15.24,3.92c-2.9,1-5.75,2.2-8.71,3a31.75,31.75,0,0,0-9.42,3.75c-1.27.8-.92,1.12,0,1.84,2.27,1.81,4.46,3.65,7.3,4.63,3.32,1.14,6.32,3,9.92,3.57,4.83.8,9.7,0,14.51,1,2.67-1.08,5.36-2.07,8-3.25,1.44-.66,3.34-.35,4.38-1.55,1.66-1.91,4-3.06,5.37-5.29,2.49-4,5.69-7.69,5.7-12.85,0-2.75-.21-3-2.89-2.44" transform="translate(-149.29 -219.8)"/><path class="cls-1" d="M281.43,376.55c1.29,0,2.59-.24,3.88-.36a.77.77,0,0,0,0,.15,15.42,15.42,0,0,0,3.83-.63c2.19-.95,4.77-1.73,5.86-4a22.42,22.42,0,0,0,2.37-7.74c.59-7.69,3.45-14.82,5-22.27.54-2.66,1.72-5.19,2.47-7.82,1.72-5.95,3.5-11.89,4.83-17.95.42-1.89,1.62-3.56,1.87-5.41.76-5.59,3.39-10.62,4.34-16.18.78-4.51,3-8.73,3.82-13.31.15-.84.77-1.86.22-2.5s-1.35.32-2.08.41-1.35.24-2,.33c-3.19.38-6.39-.21-9.59,0-.68,0-1.26-.21-1.61.75-1.17,3.24-2.95,6.18-3.86,9.61-1.19,4.46-2.78,8.81-4,13.3-1.55,5.89-2.71,11.87-4.14,17.78-1.75,7.23-3.73,14.41-6,21.43a158.68,158.68,0,0,0-4.35,17.17c-.28,1.3.1,3.37-2.2,3.66-.24,0-.56.63-.6,1-.28,2.54-1.42,4.84-2.08,7.27-.83,3,.94,5.39,4.06,5.33" transform="translate(-149.29 -219.8)"/><path class="cls-1" d="M202.77,498.38c.09-2.53-1.35-4.64-2.47-6.91-1.77-3.57-5.52-4.9-8.87-3a1.92,1.92,0,0,0-1,1.24c-1.08,4.33-1.81,8.66-.69,13.12.83,3.33,2.16,6.3,5.2,8.21,2.22,1.4,6,.51,6.59-1.92.84-3.46,2.26-6.91,1.23-10.76" transform="translate(-149.29 -219.8)"/><path class="cls-1" d="M261.66,511.65c-6.64,1.43-11.84,5.28-16.55,9.84-3.59,3.46-6.89,7.23-10.31,10.86l-2.73,2.9.25.4c.51-.14,1-.26,1.54-.41,5.49-1.61,10.61-4.23,16.36-5.24,9.55-1.69,18.88-4.52,28.45-6.18,1.81-.31,2-1,1.36-2.44-3.22-7.38-10.13-11.5-18.37-9.73" transform="translate(-149.29 -219.8)"/><path class="cls-1" d="M303.14,406.06a11.46,11.46,0,0,1-3,1.22c-5.23,1.51-10.46,3.05-15.72,4.43-7,1.81-13.91,3.65-21.1,4.3-10.36.94-20.68,2.26-31.05,3.11a296.89,296.89,0,0,1-46.1.52c-4.09-.29-8.22.13-12.24-.93a1.17,1.17,0,0,0-.94.26c-1.59.93-3.23,1.76-4.79,2.73-2.61,1.63-4.11,3.82-3.89,7.11.17,2.33.42,4.64.79,6.93.88,5.38,2.6,10.59,3.2,16a55.42,55.42,0,0,0,1.58,7.62c1.79,7,4.06,13.78,5.79,20.76,1.11,4.52,1.92,9.11,3.18,13.58,1.74,6.19,3.62,12.36,4.6,18.68,1.46,9.41,5,18.32,6.33,27.72a5.52,5.52,0,0,0,.29.77,83.29,83.29,0,0,1,3,12.35c1.61,9.28,5.16,17.64,11.56,24.66a92.14,92.14,0,0,0,9.14,8.63,43.76,43.76,0,0,0,9.47,6.6,51.44,51.44,0,0,0,15.05,4.42,108.28,108.28,0,0,0,26.12.76c2.23-.34,4.5-.53,6.68-1.07,5.75-1.44,11.43-3.07,17.07-4.94,4.89-1.62,9.13-4.36,13.54-6.71a51.18,51.18,0,0,0,10.69-8c4.41-4.13,7.87-8.78,9.67-14.5,1.58-5,1.55-10.27,1.88-15.42.37-5.65-.05-11.34-.06-17,0-13.61,0-27.21,0-40.82,0-2.59-.09-5.19-.18-7.79,0-.93-.22-1.3-1.49-1.05-3.37.66-6.17,2.43-9.2,3.84a44.64,44.64,0,0,0-13.85,10.63c-.7.75-1.37,1.5-2.39.65s-1.71-2.31-1-3.19c1.32-1.69,2.33-3.75,4.15-5,3.29-2.2,6.17-4.89,9.85-6.67,4.06-2,8-4.11,12.41-5.11,1.56-.36,1.86-1.12,1.71-2.56a59.68,59.68,0,0,1-.12-11.88c.26-2.75.71-5.56.2-8.36a51.22,51.22,0,0,1-.45-15.49c1-8.6-.6-17.2-.59-25.82a11.64,11.64,0,0,0-1.16-4.33c-.61-1.42-2-1.83-3.47-2.24-5.12-1.51-10.18-2.73-15.15.5M192.48,511.88c-4.39-3.38-7.46-13.68-4.55-20a4.39,4.39,0,0,0,.48-3.07c-.33-1.46,1.2-2.12,2.44-2.49a10.81,10.81,0,0,1,2.34-.26c4.35-1.33,6.63.67,9.32,4.85,4,6.25,3.6,12.84.59,19.36-1.74,3.76-7,4.38-10.62,1.63m90.7,18.88a13.77,13.77,0,0,1-2.57,6.57c-1.42,2.23-3,4.32-4.53,6.47-2.72,3.82-7,5.07-10.91,6.8-2.37,1-4.67,2.35-7.38,2.41-5.08-.4-10.29.51-15.23-.9-6.62-1.88-13.15-4.13-18.24-9.16a3.06,3.06,0,0,0-3.47-1,6,6,0,0,1-3.24-.07c-4.41-1.23-8.83-2.49-12.05-6.11-.32-.35-.79-.71-.51-1.22s.93-.35,1.45-.2a5.24,5.24,0,0,1,2.12,1.58A14.53,14.53,0,0,0,224,538.54c5.11-2.45,8.65-6.65,12.28-10.79a61.66,61.66,0,0,1,5.94-6.15c1.1-1,1.89-2.14,2.95-3,4.57-3.89,9.32-7.46,15.51-8.59a34.6,34.6,0,0,1,9.68-.34c2,.2,3.49,1.57,5,2.66,6.35,4.53,8.33,11,7.84,18.47m-62.83-53.91a9.42,9.42,0,0,1,7.3,1.41c6.66,4.57,8.34,11,8.22,18.49a29,29,0,0,1-1.53,9,19,19,0,0,1-5,7.56c-1.82,1.73-3.81,3.51-6.66,4.16-4.83,1.12-10.06-2.84-11.55-7.06a25.28,25.28,0,0,1-1.7-7.76,44.75,44.75,0,0,1-.08-10.66A19.68,19.68,0,0,1,216,479.76c1.3-1.19,2.44-2.63,4.35-2.91m-3.91-15.36c2.11-1.9,4-4.11,6.87-4.31,3.94-.35,9.52,2.61,11.06,5.73a1.53,1.53,0,0,1,0,1.75c-.51.52-1.12.11-1.66-.21-1-.58-1.42-1.64-2.16-2.43-3.16-3.33-7.35-4.74-11.27-.45a14.53,14.53,0,0,1-1.29,1.31,1,1,0,0,1-1.48-.12.81.81,0,0,1-.06-1.27m102.9-51.71c.36.69-.52.88-.9,1.13a42.23,42.23,0,0,1-10.8,5.21c-6.14,1.88-12.19,4-18.43,5.64-9.68,2.5-19.58,3.95-29.29,6.28-6.67,1.61-13.5,2.1-21.67,2.9-8,.38-17.3,1.85-26.67,1.23-7.57-.5-15.17-.49-22.71-1.52-5.52-.76-11.07-1.24-16.6-1.88a6,6,0,0,1-2.15-.57,1.43,1.43,0,0,1-.7-1.93c.42-.7,1.14-.21,1.62.09,1.48.92,3.19.76,4.77,1,11.26,1.68,22.62,2.26,33.95,3.2,4.25.35,8.58-.41,12.88-.63,10.36-.55,20.75-1.09,31-2.71,7.79-1.24,15.59-2.66,23.29-4.54,5.9-1.44,11.69-3.45,17.62-4.57,5.67-1.07,10.74-3.53,16.1-5.27a72.67,72.67,0,0,0,7.1-3.06c.57-.26,1.21-.74,1.6,0" transform="translate(-149.29 -219.8)"/><path class="cls-1" d="M307.22,277.42c4-.66,8.17.4,12-1.59,1-.53,1.53-.9,1.38-2a1.9,1.9,0,0,0-1.87-1.83,17.1,17.1,0,0,0-2.25,0c-.88.09-1.36.17-1.83.18-1.65,0-1.8.77-1.16,2.11.28.59,1.25,1.39.32,1.93s-1.21-.73-1.68-1.27a5.46,5.46,0,0,1-.66-1.27c-.21-.44-.6-.65-1-.4a12.61,12.61,0,0,0-3.86,2.9c-.6.79-.43,1.41.59,1.24" transform="translate(-149.29 -219.8)"/><path class="cls-1" d="M265.85,605.86c.37-.94.73-1.88-.9-1.27-2.72-.3-2.12,2-2.56,3.31s.46,2.17,1.61,2.66a4,4,0,0,0,5.26-2.17,2.77,2.77,0,0,0-.73-2.63c-.14-.18-.56-.38-.67-.31-.69.47-.32,1.23-.42,1.86a3,3,0,0,0,0,.41c0,.94-.7,1.11-1.42,1-.89-.07-.85-.76-.71-1.37a10.91,10.91,0,0,1,.58-1.53" transform="translate(-149.29 -219.8)"/><path class="cls-1" d="M281.63,596.61c-3.39.76-6.69,1.9-10.19,2.27-1.84.2-3,3.58-1.88,4.83,2.8,3.09,2.65,5.32-.55,8a6,6,0,0,1-7.85-.38c-1.7-1.6-1.6-4.25.24-6.69a4.26,4.26,0,0,1,3.41-2,4.87,4.87,0,0,0,1.4-.3,1.92,1.92,0,0,0,1.4-2.23c-.22-1.05-1.28-.43-1.92-.35a124.25,124.25,0,0,1-15.54.89c-5,0-5.11-.06-5,5.12,0,.41,0,.82,0,1.23.55,5.57,3,10.44,5.78,15.15a3.74,3.74,0,0,0,3.71,2.07c1.06-.1,2.16.22,3.25.22,7.75,0,15-1.09,20.72-7.34,5-5.43,4.9-12,5.55-18.51.17-1.64-1.05-2.31-2.61-2" transform="translate(-149.29 -219.8)"/><path class="cls-1" d="M243.65,601.93c.24-1.31-.3-1.62-1.66-1.76-3.23-.35-6.53-.17-9.67-1.31-.92-.33-1.79-1-2.89-.77.37,9.66,12.49,25,20.1,25.09-2-2.93-3.81-5.67-4.63-8.91-1-4-2.05-8.1-1.25-12.34" transform="translate(-149.29 -219.8)"/><path class="cls-1" d="M183.17,343.06a7.65,7.65,0,0,0,5.06-3.15,5.13,5.13,0,0,0,.42-1.09c-.48-1.21-.9-2.36-1.38-3.48-.19-.45-.58-.93-1.11-.62-1.65.93-3.67,1.21-5,2.73-.83,1-1.56,2.58-.93,3.32s1.67,2.56,2.91,2.29" transform="translate(-149.29 -219.8)"/><path class="cls-1" d="M241.08,337.6c2.6-.3,4.06-2.21,3.68-5-.53-1.2.13-3.49-2.59-3.14-3.19.41-5.31,2.85-4.85,5.61.22,1.28,2.33,2.71,3.76,2.54" transform="translate(-149.29 -219.8)"/><path class="cls-1" d="M213.57,485.74c-2.29,4.51-2.64,9.31-2.56,14.29.09,5.27,1.27,10,5,13.9a3.69,3.69,0,0,0,1.68,1c4.1,1.38,7.43,0,10.19-3,4.56-4.88,6.9-10.59,5.92-17.41-.3-1.61-.71-3.22-.86-4.85-.44-4.64-3.14-7.68-6.85-10-1.46-.93-3.21-1.9-4.82-1.18a15.61,15.61,0,0,0-7.71,7.23" transform="translate(-149.29 -219.8)"/><path class="cls-1" d="M157.48,407.42c.89,3.14,2.56,5.64,5.91,6.82,2.73,1,5.63.93,8.34,1.65,6.65,1.78,13.47,2.16,20.24,2.43,8.18.33,16.38,0,24.57-.24,6.08-.14,12.17-.2,18.21-.83,8.65-.88,17.34-1.48,25.95-2.76,1.89-.28,3.85-.2,5.71-.6,5.8-1.24,11.53-2.78,17.35-3.93a93.18,93.18,0,0,0,22.67-7.46c1.09-.53,2.95-.4,3.31-1.38.91-2.45,3.16-2.21,4.84-3.14,2.1-1.18,4.64-2,5.75-4.35a18.76,18.76,0,0,0,1.49-12.93,12.66,12.66,0,0,1-.38-3.47c.11-4.15-3.1-6-5.62-8.38a.41.41,0,0,0-.19-.08,62,62,0,0,0-12-3.19c-5-.76-5.21-.69-6,4.33-.19,1.21-.14,2.35-1.1,3.56-1.64,2.07-3.89,3-6.06,3.87-3.83,1.56-7.88,2.36-11.92.42-1.75-.84-4-3.57-2.93-6,.81-1.85.57-3.9,1.44-5.71.6-1.25.45-1.9-1.28-2a100.83,100.83,0,0,0-13.24.39c-8.65.78-17.3,1.63-25.92,2.7-6.62.83-13.2,2.05-19.8,3.06-.72.11-1,.51-1.34,1-2.23,3.2-4,6.66-6.72,9.59-6.24,6.65-13.55,9-22.36,7.08a5.18,5.18,0,0,1-.8-.19,1,1,0,0,1-.5-1.23c.16-.91.92-.63,1.49-.56a28.2,28.2,0,0,0,14.1-1.3,12,12,0,0,0,3.87-2.56,32.32,32.32,0,0,0,8.16-11.24c-2.68.55-5.08,1-7.44,1.55-4.32,1-8.59,2.31-12.95,3.13-8.53,1.62-16.62,4.65-24.81,7.37-.69.23-1,.57-.26,1.12,2.21,1.7,4,3.95,6.92,4.65.7.17,1.69.35,1.31,1.39-.32.86-1.19.77-2,.52a5,5,0,0,1-1.34-.49c-2.21-1.57-4.67-2.8-6.36-5.05-.41-.55-.87-1.38-1.81-1-4.17,1.6-7.72,4-10,8a1.66,1.66,0,0,0-.27,1.34c1.25,4.69,2.41,9.4,3.73,14.07m1-10.7c.13-.79.62-1.23,1.46-1,7.67,2.5,15.64,2,23.51,2.55,4.84.36,9.62-.05,14.42,0s9.41-.36,14.12-.32c5.13,0,10.2-.86,15.3-1.25,12-.91,23.76-3,35.61-4.65,4.57-.64,9-2.26,13.54-3.29,5.72-1.3,11.34-3,16.91-4.79,5.12-1.63,10-3.91,15-6a8.52,8.52,0,0,0,2.9-2.25c.41-.46.81-.77,1.39-.31s.46,1.12,0,1.61a5.39,5.39,0,0,1-1.55,1.31,112.47,112.47,0,0,1-17.52,7.31c-7.8,2.53-15.65,4.67-23.67,6.45-7.16,1.58-14.46,2.22-18.62,3.37-11.48,2.32-20.17,2.82-28.79,3.93-7.22.92-14.47.55-21.71.68-3.83.07-7.66.38-11.47.23-9-.34-18.2,1-27-2a16.29,16.29,0,0,0-2.64-.26c-.73-.11-1.34-.48-1.18-1.36" transform="translate(-149.29 -219.8)"/><path class="cls-1" d="M424.45,453.86c3.43-.33,4.67-1.34,4.36-5.17-.1-2.49-3.16-5.1-5.82-5-2.43.11-4.66,3.88-4.4,7.42.13,1.76,2.52,3.05,5.86,2.73" transform="translate(-149.29 -219.8)"/><path class="cls-1" d="M372,424.74c.93.25,1.83-1.2,2.34-2.24.33-.68.61-1,1.38-.6,2,1,2.41,2.44,1.17,4.18a4.23,4.23,0,0,0-1.07,2.27l2-.2a5.53,5.53,0,0,0,4.28-7.66c-.7-1.54-2.38-1.7-3.43-2.74s-2.47-2.09-3.82-1.12c-1.69,1.21-3.95,2.2-4.12,4.72-.08,1.26-.08,3,1.27,3.39" transform="translate(-149.29 -219.8)"/><path class="cls-2" d="M153.37,407.07a21.6,21.6,0,0,0,2.45,6.26,12.92,12.92,0,0,0,7.68,5.34c.52.13,1.16.16,1.35.78.24.79-.57,1-.95,1.42s-1.33.61-1.87,1.21c-1.88,2.06-1.55,4.64-1.73,7.06-.23,3.23,1.44,6.43.2,9.71a1.11,1.11,0,0,0,.51,1.26c.71.39.75,1,.91,1.72,1.15,4.92,1.83,9.94,3,14.83,1.11,4.59,2.27,9.2,3.76,13.72,2,6.21,3.24,12.65,4.9,19,1.5,5.73,3,11.46,4,17.32,1.19,7.28,2.23,14.6,4.57,21.64.36,1.08.1,2.41.58,3.4,1.81,3.75,2.62,7.82,3.56,11.79,2.06,8.63,3.45,17.37,7.24,25.56,2.73,5.87,6.56,10.85,10.51,15.81,1.83,2.29,4.48,3.74,6.36,5.94,2.78,3.26,6.78,4.8,10,7.45.49.4,1.18.31,1.74.51,1.36.49,3,.61,3.56,2.36.4,1.23.89,2.43,1.31,3.66,2,5.92,4.63,11.44,9,16.09,1.51,1.61,3.87,2.11,4.9,4.19v0a12.54,12.54,0,0,1,1.93.66A33.64,33.64,0,0,0,261,628.83a51.8,51.8,0,0,0,9.73-1.76,18.39,18.39,0,0,0,11.2-7.9c.95-1.48,1.64-3.08,3-4.25a2.32,2.32,0,0,0,.72-1.44c.86-5.24,1.77-10.47,2.54-15.72a1.73,1.73,0,0,1,1.41-1.68,23.64,23.64,0,0,0,4.76-1.78c3.15-1.85,6.51-3.3,9.68-5.16a73.83,73.83,0,0,0,7.67-5.15,65.61,65.61,0,0,0,9-8.77c3-3.47,4.57-7.51,5.79-11.52,1.53-5.05,1.44-10.51,1.77-15.83.25-4-.08-7.93-.15-11.89-.1-5.88.35-11.75.14-17.64-.43-12.17.33-24.35-.3-36.52a1.8,1.8,0,0,1,1.14-1.88,14.94,14.94,0,0,1,6.23-1.46c5.73-.47,11.44.17,17.14.86,3.4.41,6.74,1.27,10.11,1.56a99.7,99.7,0,0,0,33.26-2.71c5.44-1.39,9.72-4.64,14.07-7.91,1.39-1,2.09-2.58,3.52-3.62a26,26,0,0,0,6.93-8A1.23,1.23,0,0,1,422,458a9,9,0,0,0,6.54-.93c1.55-.86,4.09-.85,4.34-3,.31-2.71,1.6-2,3.09-1.41a14.84,14.84,0,0,0,10.4-.27,1.25,1.25,0,0,0,1-1.34c.08-2.67-1.26-3.63-3.58-2.38a7.91,7.91,0,0,1-5.15.94c-1.9-.33-4.36-.22-5.26-2.19a10.86,10.86,0,0,0-3.88-4.6c-1.95-1.36-2.12-2-.46-3.71a18.09,18.09,0,0,1,11-5.6c.82-.1,1.52-.16,1.85-.95a2.38,2.38,0,0,0-.47-2.49c-1-1.28-2.4-1.14-3.72-.71-4.83,1.58-9.61,3.26-12.59,7.83a15.58,15.58,0,0,1-1.08,1.23,1.09,1.09,0,0,1-1.23.52c-.73-.24-.47-.86-.43-1.38.27-3.56,2.8-5.48,5.43-7.21,1.07-.7,1.64-1.4,1-2.43s-1.49-2.12-3-1.51a12.93,12.93,0,0,0-7.52,11.7c.1,2.23-.17,4.23-2.46,5.36-.65.32-.84,1.05-1.13,1.68-1.48,3.28-.71,6.29,1.32,9a2.06,2.06,0,0,1,.14,2.75,26.37,26.37,0,0,1-4.33,5.2c-2.72,2.24-5.48,4.42-8.27,6.57a32.86,32.86,0,0,1-13.54,6.46,143.32,143.32,0,0,1-16.69,1.94c-7.08.57-14-1-20.95-1.74-5.83-.62-11.63-1.8-17.56-.83a46.26,46.26,0,0,1-5.28.19c-.68,0-1-.19-1.06-.89-.11-2.94-.76-5.85-.56-8.81.38-5.78,1-11.55-.3-17.31-.27-1.23-.24-2.49,1.65-2.83,1-.18,1.82-1.14,2.69-1.8,2.74-2.12,5.81-3.78,9.25-2.88s7.13.82,10.65,1.6a11.43,11.43,0,0,0,5.89-.1c5.52-1.77,9.73-5.57,13.89-9.34,1.31-1.18,2.34-1.46,3.76-.63,2.31,1.37,8.48-.63,9.76-3.14.89-1.75,2.11-3.23,4.45-1.89a3.83,3.83,0,0,0,1.21.2c3.29.59,6.32-.88,9.5-1.17a6.8,6.8,0,0,0,3.69-1.58c1.43-1.12,1.46-2.22.22-3.62s-2.12-1.09-3.1.2a1.67,1.67,0,0,1-1,.66c-2.27.26-4.32,1.3-6.51,1.81a6.71,6.71,0,0,1-7.61-3.75c-.24-.49-.41-1.08-1-1.29-1.9-.72-1.2-1.89-.42-2.89a7.16,7.16,0,0,1,5.68-3.15c1.71,0,2.27-1.19,1.93-2.69a2.1,2.1,0,0,0-2.76-1.72c-3.4.87-6.69,2-8.41,5.47a1.48,1.48,0,0,1-1.85.87c-3.39-.75-3.89-1.68-2.74-4.95a18.93,18.93,0,0,1,1.33-2.76c1.26-2.36,2.95-3.17,5.53-2.56a11.81,11.81,0,0,0,2.21.34,1.15,1.15,0,0,0,1.26-.82,3.06,3.06,0,0,0-2.75-3.77c-2.12.1-4.23.38-6.34.57a2.66,2.66,0,0,0-1.91,1.08c-2.31,3-4,6.32-4,10.25a4.16,4.16,0,0,1-1.8,3.47c-2.46,2-3.69,4.44-3.08,7.67a10.15,10.15,0,0,0,2.29,4.74c.49.57.88,1.07,0,1.67-2.94,2.09-5.48,4.7-8.54,6.62-2.62,1.63-5.27,2.92-8.59,2.36-3.14-.53-6.3-1.1-9.42-1.55-4.66-.66-9.59-.72-13.3,3.31a5.16,5.16,0,0,1-1.44.76c-.77-1.48.16-2.75.21-4.08.28-7.3-.16-14.59-.46-21.88-.14-3.52-.49-7.13-3.07-10-1.64-1.82-3.79-2.72-6.55-3.39,2.64-1.29,3.86-3.48,5.55-5.21a5.91,5.91,0,0,0,1.65-3.68c.54-6.25.75-12.43-.73-18.66-1.21-5.1-4.81-7.84-9-9.58a38.59,38.59,0,0,0-11.89-2.84c-1.47-.12-1.92-.61-1.61-2.22,1.17-6.15,3.73-11.91,4.95-18.06.46-2.3,1.69-4.45,2.35-6.73,1.81-6.22,3.47-12.48,5.24-18.72.62-2.16,1.56-4.25,2-6.44,1.21-5.66,3.1-11.13,4.57-16.71,1.57-5.9,3.7-11.64,4.25-17.78a5.6,5.6,0,0,0-5.4-6.06,33.78,33.78,0,0,0-6.28,0c-.73.1-1.19.09-1.22-.82a10.72,10.72,0,0,1,4.35-9.45,4.31,4.31,0,0,1,5.42.34c1.28,1,2.56,2,3.89,3,2.59,1.82,7.71,1.3,9.17-1.05.83-1.33,1.63-1.5,3-1,2.52.92,6.8-1.15,7.33-3.68.7-3.33,1.37-6.65,2.14-10s.43-3.39,3.61-4a56.12,56.12,0,0,1,14-.88c1.36.08,1.86.68,2.09,2a17.63,17.63,0,0,0,3.6,8.11,11.58,11.58,0,0,0,14.76,3,3.17,3.17,0,0,0,1.57-1.79c1.35-4.11,2.62-8.19,1.65-12.62a37.1,37.1,0,0,1-.44-4.49c-.06-.62-.15-1.22.43-1.7,2.35-1.93,4.43-4.17,7.43-5.27,2.59-.94,2.65-1,3.5,1.64,1.22,3.88,3.1,7.19,7.1,8.89,2.25,1,4.33,1.28,6.61-.09,1.79-1.08,3.91-1.56,5.73-2.66a3.3,3.3,0,0,1,2.6-.08,17.92,17.92,0,0,0,8.73.08,13,13,0,0,0,5.37-2.39c.31-.25.71-.62.37-1s-.77-.08-1.05.19a7.59,7.59,0,0,1-3.69,1.68c-3,.76-6,1.35-9,0-.65-.28-1.36-.45-.47-1.15,3.75-2.92,7.79-5.39,12.52-6.21a19.25,19.25,0,0,1,10.07,1.17c.43.16,1,.4,1.26-.16s-.24-.75-.6-.93c-4.27-2.07-8.73-2.87-13.3-1.38-3.71,1.2-6.92,3.48-10.27,5.44-2.67,1.56-4.81.39-6-2.57-.92-2.25-1.89-4.75-4.77-5.4a13.77,13.77,0,0,0-8.41,1.06c-2.48,1-2.83.84-4-1.47-1.05-2-4.46-3.38-7.49-2.94-1.35.19-3.33,2.62-3.61,4.6a34.22,34.22,0,0,0-.76,7.14,2.15,2.15,0,0,1-.61,1.87c-1.4,1.38-2.78,2.79-4.13,4.21a15.66,15.66,0,0,1-7.08,3.89c-2.11.65-6.49-1.13-7-3.09-.7-2.61-2.81-4-4.37-5.81a1.46,1.46,0,0,0-1.24-.62c-1.87.18-3.7-.58-5.51-.38a9.16,9.16,0,0,0-5.53,2.21c-1.79,1.79-3.73,3.63-4.19,6.37-.09.53-.54.77-1,.92a28.44,28.44,0,0,0-4.92,2.5,20.91,20.91,0,0,0-6.58,5.7c-1.09,1.45.06,3.59.11,5.42,0,.09-.15.18-.22.25-1.27-1.42-2.31-3.07-3.6-4.44-2.2-2.33-4.71-4.61-8-4.94a25.18,25.18,0,0,0-8.36.62,4.43,4.43,0,0,0-3.27,2.27c-2.46,6-4.52,12.12-1.94,18.65a1.89,1.89,0,0,1-.79,2.7c-1.44,1-3.22,1.46-4.43,2.81-2.76,3.1-3.78,7.12-5.72,10.65-1.29,2.36-1.74,4.95-2.49,7.47-1,3.47-2.31,6.87-3.17,10.38-2.32,9.44-4.2,19-6.8,28.36a146.61,146.61,0,0,1-4.7,15,60,60,0,0,0-3,12.46,6.08,6.08,0,0,1-1.07,2.8c-.59.71-1.51-.14-2.3-.23a7.44,7.44,0,0,0-.81,0c-3.68-.06-7.32.32-11,.61-9.49.75-18.92,1.88-28.36,3.07-4.41.55-8.81,1.25-13.21,1.88-.91.13-1.82.34-1.82-1.12,0-6.94-.17-13.82,2.75-20.44,1.16-2.64,3-4.49,4.83-6.45a6.59,6.59,0,0,1,3.38-1.81c1.56-.33,2.45-.08,2.86,1.6.57,2.31,2.24,3.47,4.5,3.95,3.5.74,6.43-.43,9.09-2.6a5.94,5.94,0,0,0,2.41-4.35c.23-3.14-1.45-6.63-3.67-7.52-3.55-1.43-8.74-.8-10.47,1.82-1.48,2.26-3,3.1-5.75,3.59-5.4,1-9,5.11-11.14,9.88a38.91,38.91,0,0,0-3.14,12.84c-.28,3.35-.09,6.69-.17,10,0,1.27-.46,1.88-1.72,2.05-8.46,1.17-16.75,3.25-25.13,4.84-7.88,1.49-15,4.88-22.56,7.31-1.77.57-2.47.25-3.32-1-3.83-5.64-3.38-11.53-.56-17.27.75-1.53,1.21-3.39,2.55-4.61a94.39,94.39,0,0,1,9.55-8.21c1.67-1.16,3.38-1.71,5.46-.5,2.28,1.33,4.71,2,7.32.3a19.28,19.28,0,0,0,4.77-4.36c1.74-2.19,1.84-7,.15-9.11-2.57-3.23-5.18-3.77-8.82-1.83-.72.39-1.48.71-2.15,1.16-2.1,1.4-4.56,2.67-5.08,5.35-.48,2.53-1,4.16-3.74,5.66a39.3,39.3,0,0,0-10,8.25,26.29,26.29,0,0,0-6.61,13.89c-.69,4.77.19,9.75,4,13.5.89.89.74,1.41-.34,2-3.35,1.69-6.61,3.51-8,7.35-1.09,3-2.92,5.72-.25,9,1.92,2.39,1.87,5.76,2.7,8.69M423,443.71c2.66-.12,5.72,2.49,5.82,5,.31,3.83-.93,4.84-4.36,5.17s-5.73-1-5.86-2.73c-.26-3.54,2-7.31,4.4-7.42m-52.23-22.36c.17-2.52,2.43-3.51,4.12-4.72,1.35-1,2.79.09,3.82,1.12s2.73,1.2,3.43,2.74a5.53,5.53,0,0,1-4.28,7.66l-2,.2a4.23,4.23,0,0,1,1.07-2.27c1.24-1.74.8-3.23-1.17-4.18-.77-.37-1.05-.08-1.38.6-.51,1-1.41,2.49-2.35,2.24-1.34-.36-1.34-2.13-1.26-3.39m31.46-195.19a36.41,36.41,0,0,1,4.53-1.29c3.13-.57,5,.21,6.49,3.21a13.86,13.86,0,0,0,4.31,5c1,.75,1,1.23,0,2a15.06,15.06,0,0,1-7.17,2.15c-2.1.59-3.65-.69-5.35-2.13-2.38-2-2.85-4.81-3.72-7.48-.32-1,.28-1.26.94-1.47m-13.15-.58c.77-3.17,3.15-4.31,6.3-3.48,1.57.42,1.89,1.8,2.26,2.89s-1.06,1.11-1.78,1.46a28.38,28.38,0,0,0-7.3,4.62,15.11,15.11,0,0,1,.52-5.49m-19.3,17.21c.34-.41.69,0,1.05.16a7.3,7.3,0,0,0,7.05-.14,24.67,24.67,0,0,0,7.75-6.2c.28-.35.57-.91,1.11-.78.74.19.46.92.45,1.4-.08,3.32.79,6.67-.14,10-.44,1.56-1,3.08-1.49,4.63-.54,1.77-2.55,1.71-4.34,1.91-5.42.91-9.16-2.45-11.08-8.6a10.79,10.79,0,0,1-.37-1.38c-.06-.32-.15-.76,0-1m-19.56-4.38a28.36,28.36,0,0,1,2.52-2.93,7.63,7.63,0,0,1,10.45-.24c.62.53,1.32,1,2,1.45a1.51,1.51,0,0,1,.48,1.84c-.25.61-.92.29-1.46.17-2.47-.58-4.86.4-6.34.34l-6.87.68c-.41,0-.9.08-1-.39a1.18,1.18,0,0,1,.27-.92m-9.25,7.9c1.27-.74,2.28-1.92,3.49-2.8a1.33,1.33,0,0,1,1.54-.16c.51.38,0,.86-.14,1.28-.84,3.22-1.93,6.36-1.73,9.81.12,2-1.55,3.18-4.33,3.45-1.31.22-2-.22-2.61-1.94-1.72-4.58-.11-7.4,3.78-9.64m-98.79,83.14c2.72-.35,2.06,1.94,2.59,3.14.38,2.8-1.08,4.71-3.68,5-1.43.17-3.54-1.26-3.75-2.54-.47-2.76,1.65-5.2,4.84-5.61m-61,8c1.3-1.52,3.32-1.8,5-2.73.53-.31.92.17,1.11.62.48,1.12.9,2.27,1.38,3.48a6.29,6.29,0,0,1-.42,1.09,7.65,7.65,0,0,1-5.06,3.15c-1.24.27-2.16-1.42-2.91-2.29s.1-2.35.93-3.32m48.24,260.64c1.1-.27,2,.44,2.89.77,3.14,1.14,6.44,1,9.67,1.31,1.36.14,1.9.45,1.65,1.76-.79,4.24.23,8.29,1.26,12.34.81,3.24,2.61,6,4.63,8.91-7.61,0-19.73-15.43-20.1-25.09m54.81.49c-.65,6.5-.56,13.08-5.55,18.51-5.75,6.25-13,7.31-20.72,7.34-1.09,0-2.19-.32-3.25-.22a3.74,3.74,0,0,1-3.71-2.07c-2.76-4.71-5.23-9.58-5.78-15.15,0-.41,0-.82,0-1.24-.15-5.17-.07-5.1,5-5.11a124.25,124.25,0,0,0,15.54-.89c.64-.08,1.7-.69,1.92.35a1.92,1.92,0,0,1-1.4,2.23,4.87,4.87,0,0,1-1.4.3,4.26,4.26,0,0,0-3.41,2c-1.84,2.44-1.94,5.09-.24,6.69a6,6,0,0,0,7.85.38c3.2-2.64,3.35-4.87.55-8-1.13-1.25,0-4.63,1.88-4.83,3.5-.37,6.8-1.51,10.19-2.27,1.56-.34,2.78.33,2.61,2M266,608.76c.72.06,1.38-.1,1.42-1a3,3,0,0,1,0-.41c.1-.63-.27-1.39.42-1.86.11-.07.53.13.67.31a2.77,2.77,0,0,1,.73,2.63,4,4,0,0,1-5.26,2.17c-1.15-.49-2-1.37-1.61-2.66s-.16-3.61,2.56-3.31c1.63-.61,1.27.33.9,1.27a10.91,10.91,0,0,0-.58,1.53c-.14.61-.18,1.3.71,1.37m55.78-201a11.64,11.64,0,0,1,1.16,4.33c0,8.62,1.63,17.22.59,25.82a51.22,51.22,0,0,0,.45,15.49c.51,2.8.06,5.61-.2,8.36a59.68,59.68,0,0,0,.12,11.88c.15,1.44-.15,2.2-1.71,2.56-4.42,1-8.35,3.14-12.41,5.11-3.68,1.78-6.56,4.47-9.85,6.67-1.82,1.23-2.83,3.28-4.15,5-.7.88,0,2.36,1,3.19s1.69.1,2.39-.66A44.76,44.76,0,0,1,313,484.91c3-1.41,5.83-3.18,9.2-3.84,1.27-.25,1.46.11,1.49,1.05.09,2.6.18,5.2.18,7.79,0,13.61,0,27.21,0,40.82,0,5.67.43,11.36.06,17-.33,5.16-.3,10.45-1.88,15.43-1.8,5.72-5.26,10.37-9.67,14.5a51.18,51.18,0,0,1-10.69,8c-4.41,2.35-8.65,5.08-13.54,6.71-5.64,1.87-11.32,3.5-17.07,4.94-2.18.54-4.45.72-6.68,1.07a108.28,108.28,0,0,1-26.12-.76,51.44,51.44,0,0,1-15.05-4.42,43.76,43.76,0,0,1-9.47-6.6,92.14,92.14,0,0,1-9.14-8.63c-6.4-7-10-15.38-11.56-24.66a83.29,83.29,0,0,0-3-12.35,5.52,5.52,0,0,1-.29-.77c-1.36-9.4-4.87-18.31-6.33-27.72-1-6.32-2.86-12.49-4.6-18.68-1.26-4.47-2.07-9.06-3.18-13.58-1.73-7-4-13.8-5.79-20.76a55.42,55.42,0,0,1-1.58-7.62c-.6-5.45-2.32-10.66-3.2-16-.37-2.29-.62-4.6-.79-6.93-.22-3.29,1.28-5.48,3.89-7.11,1.55-1,3.2-1.8,4.79-2.73a1.21,1.21,0,0,1,.94-.26c4,1.06,8.15.64,12.24.93a296.89,296.89,0,0,0,46.1-.52c10.37-.85,20.69-2.17,31.05-3.11,7.19-.65,14.14-2.49,21.1-4.3,5.26-1.38,10.49-2.92,15.72-4.43a11.46,11.46,0,0,0,3-1.22c5-3.23,10-2,15.15-.5,1.43.41,2.86.82,3.47,2.24M310.83,256.37a16.19,16.19,0,0,0,.58-2.58c0-4.57,5.11-6.58,8.65-6.35a17,17,0,0,1,6.86,2.25,6.46,6.46,0,0,1,2.76,2.38,28.26,28.26,0,0,0,3.74,4.82c1.37,1.51,1.07,2.56-.85,3.3a6.05,6.05,0,0,1-7.08-1.66c-2.26-2.56-4.71-4-8.06-2.86s-5,3.84-6.07,7c-.22.62,0,1.38-.86,2-1-2.87-.13-5.56.33-8.26m-4.2,19.81a12.61,12.61,0,0,1,3.86-2.9c.4-.25.79,0,1,.4a5.84,5.84,0,0,0,.65,1.27c.48.55.64,1.88,1.69,1.27s0-1.34-.32-1.93c-.65-1.34-.49-2.09,1.16-2.11.47,0,.95-.09,1.83-.18a17.1,17.1,0,0,1,2.25,0,1.9,1.9,0,0,1,1.87,1.83c.15,1.14-.36,1.51-1.38,2-3.85,2-8,.93-12,1.59-1,.17-1.19-.45-.59-1.24M279.45,364c0-.37.36-1,.6-1,2.3-.29,1.92-2.36,2.2-3.66a158.68,158.68,0,0,1,4.35-17.17c2.31-7,4.29-14.2,6-21.43,1.43-5.91,2.59-11.88,4.14-17.78,1.19-4.49,2.78-8.84,4-13.3.91-3.43,2.69-6.37,3.86-9.61.35-1,.93-.71,1.61-.75,3.2-.19,6.4.4,9.59,0,.68-.09,1.35-.25,2-.33s1.59-1,2.08-.41-.07,1.66-.22,2.51c-.83,4.57-3,8.79-3.82,13.3-.95,5.56-3.58,10.59-4.34,16.18-.26,1.85-1.45,3.52-1.87,5.41-1.33,6.06-3.11,12-4.83,17.95-.75,2.63-1.93,5.16-2.47,7.82-1.53,7.45-4.39,14.58-5,22.27a22.48,22.48,0,0,1-2.37,7.74c-1.09,2.27-3.67,3.05-5.86,4a15.42,15.42,0,0,1-3.83.63.77.77,0,0,1,0-.15c-1.29.12-2.59.34-3.88.36-3.12.06-4.89-2.33-4.06-5.33.66-2.43,1.8-4.73,2.08-7.27M154,392c2.26-4,5.81-6.4,10-8,.94-.36,1.4.47,1.81,1,1.69,2.25,4.15,3.48,6.36,5.05a5,5,0,0,0,1.34.49c.77.25,1.64.34,2-.52.38-1-.61-1.22-1.31-1.4-2.89-.69-4.71-2.94-6.92-4.64-.7-.55-.43-.89.26-1.12,8.19-2.72,16.28-5.75,24.81-7.37,4.36-.82,8.63-2.11,12.95-3.13,2.36-.56,4.76-1,7.44-1.55a32.32,32.32,0,0,1-8.16,11.24,12,12,0,0,1-3.87,2.56,28.2,28.2,0,0,1-14.1,1.3c-.57-.07-1.33-.35-1.49.56a1,1,0,0,0,.5,1.23,5.18,5.18,0,0,0,.8.19c8.81,1.92,16.12-.43,22.36-7.08,2.75-2.93,4.49-6.39,6.72-9.59.37-.53.62-.93,1.34-1,6.6-1,13.18-2.23,19.8-3.06,8.62-1.07,17.27-1.92,25.92-2.7a100.83,100.83,0,0,1,13.24-.39c1.73.07,1.88.72,1.28,2-.87,1.81-.63,3.86-1.44,5.71-1.07,2.45,1.18,5.18,2.93,6,4,1.93,8.09,1.13,11.92-.43,2.17-.88,4.42-1.8,6.06-3.87,1-1.21.91-2.35,1.1-3.56.8-5,1-5.09,6-4.33a62,62,0,0,1,12,3.19c.07,0,.15,0,.19.08,2.52,2.36,5.73,4.23,5.62,8.38a12.66,12.66,0,0,0,.38,3.47,18.76,18.76,0,0,1-1.49,12.93c-1.11,2.4-3.65,3.17-5.75,4.35-1.68.93-3.93.69-4.84,3.14-.36,1-2.22.84-3.31,1.37A92.78,92.78,0,0,1,283.76,410c-5.82,1.15-11.55,2.69-17.35,3.93-1.86.4-3.82.32-5.71.6-8.61,1.28-17.3,1.88-25.95,2.77-6,.62-12.13.68-18.21.82-8.19.2-16.39.57-24.57.24-6.77-.27-13.59-.65-20.24-2.43-2.71-.72-5.61-.69-8.34-1.65-3.35-1.18-5-3.68-5.91-6.82-1.32-4.67-2.48-9.38-3.73-14.07A1.66,1.66,0,0,1,154,392" transform="translate(-149.29 -219.8)"/><path class="cls-2" d="M246.49,630.15h-.08a.43.43,0,0,1,0,.07Z" transform="translate(-149.29 -219.8)"/><path class="cls-2" d="M246.49,630.15l0,.06.12,0-.08-.09" transform="translate(-149.29 -219.8)"/><path class="cls-2" d="M275.34,512.29c-1.52-1.09-3-2.46-5-2.66a34.6,34.6,0,0,0-9.68.34c-6.19,1.13-10.94,4.7-15.51,8.59-1,.9-1.85,2.09-2.95,3a61.66,61.66,0,0,0-5.94,6.15c-3.63,4.14-7.17,8.34-12.28,10.79A14.53,14.53,0,0,1,208.62,536a5.24,5.24,0,0,0-2.12-1.58c-.52-.15-1.11-.44-1.45.2s.19.87.51,1.22c3.21,3.62,7.64,4.88,12.05,6.11a6,6,0,0,0,3.24.07,3.06,3.06,0,0,1,3.47,1c5.09,5,11.62,7.28,18.24,9.16,4.94,1.41,10.16.5,15.23.9,2.71-.06,5-1.38,7.38-2.41,3.95-1.73,8.19-3,10.91-6.8,1.53-2.15,3.11-4.24,4.53-6.47a13.77,13.77,0,0,0,2.57-6.57c.49-7.5-1.49-13.94-7.84-18.47m6,16.05c0,5.16-3.21,8.82-5.7,12.85-1.38,2.23-3.71,3.38-5.37,5.29-1,1.2-2.94.89-4.38,1.55-2.6,1.18-5.29,2.17-8,3.25-4.81-1-9.68-.18-14.51-1-3.6-.59-6.6-2.43-9.92-3.57-2.84-1-5-2.82-7.3-4.63-.9-.72-1.25-1,0-1.84a31.75,31.75,0,0,1,9.42-3.75c3-.75,5.81-1.94,8.71-3a91.42,91.42,0,0,1,15.24-3.92c6.33-1.06,12.59-2.43,18.86-3.74,2.68-.56,2.9-.31,2.89,2.44m-2.66-4.52c-9.57,1.66-18.9,4.49-28.44,6.18-5.76,1-10.88,3.63-16.37,5.24-.51.15-1,.27-1.54.41l-.25-.4,2.73-2.9c3.42-3.63,6.72-7.4,10.31-10.86,4.71-4.56,9.91-8.41,16.55-9.84,8.24-1.77,15.15,2.35,18.37,9.73.62,1.42.45,2.13-1.36,2.44" transform="translate(-149.29 -219.8)"/><path class="cls-2" d="M317.74,409.77a73.56,73.56,0,0,1-7.09,3.06c-5.37,1.74-10.44,4.2-16.11,5.27-5.93,1.12-11.72,3.13-17.62,4.57-7.7,1.88-15.5,3.3-23.3,4.54-10.23,1.62-20.62,2.16-31,2.71-4.3.22-8.63,1-12.88.63-11.33-.94-22.69-1.52-33.95-3.2-1.58-.23-3.29-.07-4.77-1-.48-.3-1.2-.79-1.61-.09a1.42,1.42,0,0,0,.69,1.93,6,6,0,0,0,2.15.57c5.53.64,11.08,1.12,16.6,1.88,7.54,1,15.14,1,22.71,1.52,9.37.62,18.69-.85,26.67-1.23,8.17-.8,15-1.29,21.67-2.9,9.71-2.33,19.61-3.78,29.29-6.28,6.24-1.61,12.29-3.76,18.43-5.64a42.57,42.57,0,0,0,10.8-5.21c.38-.25,1.26-.44.9-1.13s-1-.27-1.6,0" transform="translate(-149.29 -219.8)"/><path class="cls-2" d="M209.34,492a44.75,44.75,0,0,0,.08,10.66,25.28,25.28,0,0,0,1.7,7.76c1.49,4.22,6.72,8.18,11.55,7.06,2.85-.65,4.84-2.42,6.66-4.16a19,19,0,0,0,5-7.56,29,29,0,0,0,1.53-9c.12-7.46-1.56-13.92-8.22-18.49a9.42,9.42,0,0,0-7.3-1.41c-1.91.28-3,1.72-4.35,2.91A19.68,19.68,0,0,0,209.34,492m11.94-13.51c1.61-.72,3.36.25,4.82,1.18,3.71,2.36,6.41,5.4,6.85,10,.15,1.63.56,3.24.86,4.85,1,6.82-1.36,12.53-5.92,17.41-2.76,3-6.09,4.33-10.19,3a3.69,3.69,0,0,1-1.68-1c-3.74-3.9-4.92-8.63-5-13.9-.08-5,.27-9.78,2.56-14.29a15.61,15.61,0,0,1,7.71-7.23" transform="translate(-149.29 -219.8)"/><path class="cls-2" d="M202.51,490.89c-2.69-4.18-5-6.18-9.32-4.85a11.48,11.48,0,0,0-2.34.26c-1.24.37-2.77,1-2.44,2.49a4.35,4.35,0,0,1-.48,3.06c-2.91,6.35.16,16.65,4.55,20,3.58,2.75,8.88,2.13,10.62-1.63,3-6.52,3.42-13.11-.59-19.36m-1,18.25c-.59,2.43-4.37,3.32-6.59,1.92-3-1.91-4.37-4.88-5.2-8.21-1.12-4.46-.39-8.79.69-13.12a2,2,0,0,1,1-1.25c3.35-1.91,7.1-.58,8.87,3,1.12,2.27,2.56,4.38,2.47,6.91,1,3.85-.39,7.3-1.23,10.76" transform="translate(-149.29 -219.8)"/><path class="cls-2" d="M218,462.88a14.53,14.53,0,0,0,1.29-1.31c3.92-4.29,8.11-2.88,11.27.45.74.79,1.17,1.85,2.16,2.43.54.32,1.15.73,1.66.21a1.53,1.53,0,0,0,0-1.75c-1.54-3.12-7.12-6.08-11.06-5.73-2.84.2-4.76,2.41-6.87,4.31a.81.81,0,0,0,.06,1.27,1,1,0,0,0,1.48.12" transform="translate(-149.29 -219.8)"/><path class="cls-2" d="M159.63,398.08a16.29,16.29,0,0,1,2.64.26c8.85,3,18,1.67,27,2,3.81.15,7.64-.16,11.46-.23,7.25-.13,14.5.24,21.72-.68,8.62-1.11,17.31-1.61,28.79-3.93,4.16-1.15,11.46-1.79,18.62-3.37,8-1.78,15.87-3.92,23.67-6.45a112.47,112.47,0,0,0,17.52-7.31,5.55,5.55,0,0,0,1.55-1.31c.43-.49.62-1.1,0-1.61s-1-.15-1.39.31a8.68,8.68,0,0,1-2.9,2.26c-5,2.06-9.9,4.34-15,6-5.57,1.78-11.19,3.49-16.91,4.79-4.53,1-9,2.64-13.54,3.29-11.85,1.65-23.65,3.74-35.61,4.65-5.1.39-10.17,1.29-15.3,1.25-4.71,0-9.4.34-14.12.32s-9.58.38-14.42,0c-7.87-.58-15.84-.05-23.51-2.55-.84-.28-1.33.16-1.47,1s.46,1.25,1.19,1.36" transform="translate(-149.29 -219.8)"/></svg>