<svg id="Layer_1" data-name="Layer 1" xmlns="http://www.w3.org/2000/svg" viewBox="0 0 253.2 432.15"><defs><style>.cls-1{fill:#fff;}.cls-2{fill:#010101;}</style></defs><path class="cls-1" d="M328,502.79c-4,3-7.93,6.09-11.88,9.16-1.22.95-1,1.8.15,2.66,2.59,2,5.26,3.7,8.67,3.93,6,.41,5.26,1.65,5.5-5.44.6-2.61-.27-5.72-.47-8.85-.07-1.1-.39-2.63-2-1.46" transform="translate(-169.69 -213.49)"/><path class="cls-1" d="M263.79,474.07c-.2-2.61-1.11-3-3.45-2.73-8.69,1.11-17.32,3-26.17,2.66a66.45,66.45,0,0,0-6.91.21c-2.86.18-3.16.49-2.42,3.3,3,11.23,3.56,22.91,6.4,34.19.57,2.29,1.32,2.75,3.33,2.48,5.09-.68,10.23-.45,16.54-.58,2.57,0,6.33,0,10.08.12,1.78.07,2.32-.74,2.61-2.33.52-2.9-.05-5.8.15-8.69a192.69,192.69,0,0,0-.16-28.63" transform="translate(-169.69 -213.49)"/><path class="cls-1" d="M327.44,497.14a3.13,3.13,0,0,0,1.73-3.34c-.15-2.47,0-4.95,0-7.42.13-2.74-.3-5.47-.29-8.2,0-.83.23-1.86-.57-2.38s-1.55.4-2.19.84a4,4,0,0,1-2.83.93,2.4,2.4,0,0,0-2.19,1c-1.87,2-3.88,3.83-5.66,5.88-5.48,6.32-6,15.66-3.13,22.64.31.76.7,1.32,1.7.5,1.88-1.55,3.83-3,5.75-4.54,2.54-2,4.78-4.38,7.66-5.94" transform="translate(-169.69 -213.49)"/><path class="cls-1" d="M220.87,444.66c-2.49.11-4.16,1.59-4.09,3.62.08,2.29,1.81,2.56,3.33,2.78,2,0,3-1.43,3.06-3.76,0-1.56-.49-2.72-2.3-2.64" transform="translate(-169.69 -213.49)"/><path class="cls-1" d="M345.86,508.21c-2.95-2.21-6.42-3.34-9.82-4.6-1.27-.47-1.11.61-1.11,1.32,0,2.64.92,5.21.52,7.88,0,.6,0,1.2,0,1.79-.18,1.86.06,2.57,2.24,1.6,3.4-1.52,5.8-4.28,8.76-6.32,1.09-.75,0-1.23-.57-1.67" transform="translate(-169.69 -213.49)"/><path class="cls-1" d="M348,431c-16.2.9-32.42.69-48.64.6-11.25,0-22.51-.19-33.76-.3v.15c-6-.05-12-.32-17.93-.12-13.05.43-26.08,1.09-39.12,1.67-3.62.16-3.73.52-3.46,4.16.45,6.15,3,11.78,4,17.79,1.69,9.83,3.21,19.71,5.49,29.42,1.68,7.15-.44,15,4.65,21.6,1.84,2.39,2,6,2.14,9.13A228.72,228.72,0,0,0,224.2,540c.24,1.49.77,1.9,2.26,2,5.42.44,10.79-.43,16.25,0,9.08.73,18.23.63,27.35.68,10.74.07,21.49-.09,32.24-.1,3.13,0,6.15,1.11,9.33,1,5.48-.14,10.92.6,16.47-.3,7.87-1.29,15.83-.17,23.73.5a25.65,25.65,0,0,0,6.89-.28c1.53-.29,2.31-1,2.6-2.88,1.42-8.94,1.58-18,2.63-27,1.11-9.45,1.21-18.91,1.69-28.37a87.69,87.69,0,0,1,.87-10.39c.95-5.62,2.87-11.14.54-16.85a2.94,2.94,0,0,1,0-1.5c.3-1.94.71-3.87.94-5.81.75-6.26,1.57-12.52-1.3-18.56-.5-1.05-1-1.44-2.06-1.36-5.53.41-11.06-.2-16.62.11m-99.35,10.46c2.3-2,5.5-2.5,7.57-1.21,3.16,2,5,5.57,4.37,8.56-.39,1.92-4.6,5.52-6.65,5.7-2.54.22-4.56-1.1-5.76-3.8s.05-4.78,1.35-7c-.73-.68-1.87.42-2.1-.72-.14-.75.74-1.08,1.22-1.5m-12.15-.67c2.13,0,5,4,5,6.91,0,3.28-3,6-6.59,6-2.34,0-4.66-2.73-4.67-5.46,0-3.26,3.5-7.45,6.22-7.42m-16.15,12.9a6,6,0,0,1-5.74-6.21c.2-2.5,3.9-5.24,6.82-5.06a4.93,4.93,0,0,1,4.27,5.14c-.22,3.28-2.83,6.28-5.35,6.13m46.06,60.75c.19,1.24-.71,1.18-1.44,1.19-3.92.08-7.85.33-11.74.09-2.74-.17-5.46.13-8.18-.13a80.78,80.78,0,0,0-11.74.46c-3.88.33-3.8.22-4.29-3.34-.57-4.13-1.3-8.24-2-12.36-1.17-7.15-2.66-14.24-4.22-21.31-.47-2.16-.57-4.39-.84-6.58a1.1,1.1,0,0,1,.59-1.29c.52-.24,1.1-.21,1.35.3.71,1.41,1.78.87,2.86.71a26.64,26.64,0,0,1,5.1-.45c10.22.49,20.13-2.11,30.22-2.92,1.34-.11,2.62-2,4.09-.12.3.38,1,.69.66,1.15-2.06,3-.6,6.15-.39,9.15a231.27,231.27,0,0,1-.05,24.56c-.13,3.62-.56,7.26,0,10.89M294.59,537a73.59,73.59,0,0,1-8.65.82c-2,0-2.85-.66-2.8-2.66.09-3.76.08-7.51.12-11.26-.16-11-2.32-22-2.07-33a27.38,27.38,0,0,1,1-7.05c.24-.81.17-1.88,1.42-1.64s1.16,1.2.9,2c-1.76,5.8-.61,11.7-.65,17.56,0,1.72.28,2.45,2.27,2.17a47.06,47.06,0,0,1,6.4-.09c.9,0,1.52.35,1.39,1.36s-.79,1.15-1.67.85a6.31,6.31,0,0,0-1.5-.28c-5.85-.38-6.44.26-5.89,6a33.66,33.66,0,0,1,.06,5.12c-.09,1.53.32,2.17,2,2.07,2-.12,3.93,0,5.89.09.81,0,1.6.27,1.49,1.32s-.86.93-1.56.92c-2.05,0-4.1,0-6.15-.07-1,0-1.63.17-1.6,1.39.09,3.75.11,7.51.15,11.27,0,1.68,1.23,1.64,2.35,1.54,2.3-.2,4.58-.53,6.88-.73.74-.06,1.8-.54,1.88.93.06,1.23-.65,1.25-1.61,1.36m62.71-33.85A31.64,31.64,0,0,1,344.71,517c-7.89,4.6-9.47,5.43-16.86,5.7-3.1-.16-7.56-.25-11.53-2.55-6.13-3.53-8.25-9.56-9.73-16-1.68-7.33-.89-14.37,3.34-20.55,4.39-6.41,10.25-11.22,18.15-12.92a9.77,9.77,0,0,1,6.05.36c3.89,1.85,8.16,2.29,12.12,3.88,1.84.74,2.87,2.06,4.11,3.23,4.21,3.95,7.44,8.62,8.65,14.36a16.27,16.27,0,0,1-1.71,10.64m4.47-43.07c0,.61-.23,1.23-1,1.3a1,1,0,0,1-1.07-.9c-.42-1.74.22-3.85-2-4.92-2.51-1.24-5.21-1-7.79-.78-5.27.52-10.53-.24-15.79.27-5.66.55-11.42-.1-17,1.46-.85.24-1.76.67-2.09-.55s.67-1.45,1.49-1.66a16.6,16.6,0,0,1,4-.8c5.64,0,11.17-1.51,16.83-1.05,6.13.35,12.22-.9,18.38-.41,4.66.36,6.2,4.76,6,8" transform="translate(-169.69 -213.49)"/><path class="cls-1" d="M235.14,451.18c2.39.22,4.12-1.1,4.33-3.28a3.46,3.46,0,0,0-3.2-4.07c-1.82-.1-3.17,1.49-3.4,4.22.06,1.38.18,2.94,2.27,3.13" transform="translate(-169.69 -213.49)"/><path class="cls-1" d="M349.65,484.39c-3.28-5.4-8.44-7.63-14.34-8.64-1.32-.23-2.11.09-1.9,1.76a85.11,85.11,0,0,1,.7,11.73c0,2.13-.07,4.26-.05,6.4,0,.83-.07,1.8.81,2.29,1.62.91,3.24,1.83,4.93,2.59,2.78,1.26,5.72,2.15,8.38,3.72,1.65,1,3.14.65,4-1.2,2.48-5.15,2.77-10.32-.1-15.42-.65-1.17-1.75-2.09-2.45-3.23" transform="translate(-169.69 -213.49)"/><path class="cls-1" d="M324,582.59a4,4,0,0,1-3.51-1.19c-1.69-1.4-2.22-.57-2.26,1.19a57,57,0,0,0,.32,7.15c.22,2.18,1.64,2.6,3.25,2.93a2.79,2.79,0,0,0,3.56-2,9.93,9.93,0,0,0,.93-4.49c0-.57.05-.91.1-1.25.26-1.86,0-3.05-2.39-2.35" transform="translate(-169.69 -213.49)"/><path class="cls-1" d="M400.31,358.64c.56-.19,1.57,0,1.54-1.12,0-.89-.68-1.33-1.58-1.27s-1.93.12-2,1.16,1.05,1.1,2,1.23" transform="translate(-169.69 -213.49)"/><path class="cls-1" d="M206.57,505.79c-2.4,3.49-3.36,7.6-4.61,11.37.21,2.05.31,4.12,2.45,4.55s3.34-.91,4.27-3.06c1.71-3.95,1.06-8.73,4.3-12.11.34-.36.23-.74-.15-1.1-1.94-1.8-4.81-1.75-6.26.35" transform="translate(-169.69 -213.49)"/><path class="cls-1" d="M263.35,615.05c-6.1,3.66-12.23,3.76-18.23-.23-1.23-.82-1.59-.27-2,.77-.92,2.2-2.08,4.32-2.81,6.57-1.25,3.83-2.08,7.76-1.16,11.83a4.73,4.73,0,0,0,1.88,3.22,22.4,22.4,0,0,0,13.22,3.94,16.73,16.73,0,0,0,11-5c2.24-2.17,3.12-5.58,3-9.73.37-3.06-1-6.61-1.9-10.22-.44-1.69-1.43-2.12-3.06-1.13" transform="translate(-169.69 -213.49)"/><path class="cls-1" d="M274.88,219.12c-1.85-.29-3.64-.18-4.21,1.88a4.32,4.32,0,0,0,1.72,4.51c2,1.67,3.93.2,5.77-.34,2.29-.67,2.5-2.09,1.19-4.12a3.83,3.83,0,0,0-4.47-1.93" transform="translate(-169.69 -213.49)"/><path class="cls-1" d="M210.43,472c-.43-4-1.86-7.67-3.28-11.37-.44,11.34-1.63,22.61-.59,33.9a7.89,7.89,0,0,0,1.35,3.83,22.69,22.69,0,0,1,2.61,3.66c.65,1.4,2.75,1.55,4.14,1.12,1.19-.36.25-1.77.13-2.65-1.37-9.51-3.3-18.93-4.36-28.49" transform="translate(-169.69 -213.49)"/><path class="cls-1" d="M308.75,417.06c.38,4.45-.75,6.18-5.05,7.26-5.09,1.28-10.36.81-15.55.95a48.29,48.29,0,0,1-12.41-1.54c-3-.71-5.13-2.34-5.57-5.68s-2.65-4.81-5.81-4.21a12,12,0,0,1-2.81.13c-12.78-.56-25.59.26-38.36-.8a2,2,0,0,0-1.6.58c-3.71,3.23-6.46,7.35-10.17,10.64-1.81,1.6-4.18,2.95-5.27,5.41-.26.59-1.06,1.07-.61,1.76s1.1.16,1.68.08A304.57,304.57,0,0,1,246,429.29c10-.06,20,.09,30,.13,10.92.05,21.84,0,32.76.15,7.69.11,15.35.27,23,0,8.61-.33,17.21-1.14,25.85-.82a27.21,27.21,0,0,0,6.05-.1c-2.52-4.15-6.3-6.72-9.45-9.9-2.81-2.84-5.89-5-10.38-4.94-10.82.21-21.65.08-32.48.31-2.63.06-2.81.74-2.62,3" transform="translate(-169.69 -213.49)"/><path class="cls-1" d="M246.37,607.21c.94,4.38,5.31,6.27,8.58,6,5.92-.52,8.17-2.18,8.43-7.2.38-7.56.52-15.14.61-22.72.08-5.79-.13-11.58-.1-17.38,0-5.63.28-11.26.23-16.89,0-1.54-.34-3,1.09-4.21l-.4-.5c-5.45,0-10.91-.06-16.36-.18-1.65,0-1.82.87-1.72,2.11.22,2.47.54,4.93.66,7.39.59,12-1.57,23.84-1.38,35.79.09,5.93-.91,11.86.36,17.81" transform="translate(-169.69 -213.49)"/><path class="cls-1" d="M323.67,575.67a7.11,7.11,0,0,0,.66-2.72c.11-2.64.08-5.28.11-7.92a71.45,71.45,0,0,0-1.24-17.33c-.2-1.11-.53-2.18-2-2.22-3.15-.09-6.31-.21-9.46-.34-1.45-.06-1.91.32-1.53,2,1.6,6.77,2.94,13.64,5.82,20a46.24,46.24,0,0,0,4.93,8.88c1,1.38,2.06,1.06,2.73-.33" transform="translate(-169.69 -213.49)"/><path class="cls-1" d="M254.49,451.82a5.38,5.38,0,0,0,3.92-5c-.15-1.43-.9-3.15-2.3-3.55-.63-.18-2,.78-3.42.64s-2.93,3.76-2.26,5.83,2.22,2.45,4.06,2.09" transform="translate(-169.69 -213.49)"/><path class="cls-1" d="M306.33,398.37c0-1.28-.34-2.16-1.83-2.19-3.66-.05-7.31-.17-11-.2-7-.05-13.89,1.32-20.86,1.43-1.62,0-1.71.57-1.6,2,.48,6.26,1.61,12.42,2.59,18.61.55,3.45.88,3.71,4.5,4.19,7.91,1.06,15.83.3,23.75.26,2.86,0,4-1.21,4-4.16a76,76,0,0,1,.37-11c0-3,0-6,.08-8.95" transform="translate(-169.69 -213.49)"/><path class="cls-1" d="M246.71,349.92a6.83,6.83,0,0,0,6.4.32c2.29-1,4.19-2.55,6.29-3.77,4-2.33,6.33-6,5.35-10.32a35.68,35.68,0,0,0-2.93-8.93c-3.67-6.94-13.12-9.08-18.95-4.09-2.18,1.87-3.63,4.44-5.2,6.85a6.86,6.86,0,0,0-1.25,4.54c-.4,3.11,1.77,5.54,2.88,8.36,1.4,3.56,4.48,5.27,7.41,7m5.47-20.35c2.2-.16,5.2,3.56,5.08,5.88-.22,4.1-3.39,7.26-7.15,7.14-2.85.17-7.36-3.66-7.09-6.35.47-4.72,4.67-6.36,9.16-6.67" transform="translate(-169.69 -213.49)"/><path class="cls-1" d="M249.77,340c3.37.47,4.74-2,5-4.48a3.4,3.4,0,0,0-3.37-3.42c-3.09-.08-5.62,1.8-5.67,4.22s1.15,3.58,4.07,3.68" transform="translate(-169.69 -213.49)"/><path class="cls-1" d="M203.33,373.72c1.67.38,2.49.25,2.38-1.89-.37-6.64-.5-13.29-.73-19.94-.4-11.69-.67-23.38.3-35.06,0-.51.09-1-.5-1.31-1.26-.62-5.1.54-5.69,1.87a26.14,26.14,0,0,0-2.22,8.87c-.51,7.48-.6,15-.72,22.5,0,5.79-.45,11.61.43,17.38a9.42,9.42,0,0,0,6.75,7.58" transform="translate(-169.69 -213.49)"/><path class="cls-1" d="M251.91,366.27c.46,5.61.71,11.24.88,16.86.06,1.66.77,2,2.19,2,5,.16,10-.12,15,.11,4.72.21,9.47-.43,14.2-.29,11.21.33,22.29-1.21,33.43-1.89,1.34-.08,2.28-.39,2-2.14a58.44,58.44,0,0,1-.54-15.29c.22-2.1-.47-3-2.85-3-12.19.08-24.39.23-36.58,1.21-8.44-.08-16.89-.12-25.33-.26-2,0-2.61.56-2.43,2.67m10.46,2a295.66,295.66,0,0,1,39.82-.82,26.33,26.33,0,0,0,4.33-.34c1.29-.16,1.8.28,1.94,1.64.3,2.78.27,5.61,1.43,8.27.57,1.3-.27,2.25-1.62,2.19-6.5-.29-12.95.52-19.37,1.11-8.53.77-17.06.35-25.57.83-2.43.13-3.34-.29-2.89-2.78a16.43,16.43,0,0,0,.05-2.81h0a25.33,25.33,0,0,0,0-4.85c-.34-1.78.27-2.28,1.88-2.44" transform="translate(-169.69 -213.49)"/><path class="cls-1" d="M177.79,335.53a3.53,3.53,0,0,0,2.92-2.63c-.22-1.91-1.34-3-3-3.06a2.67,2.67,0,0,0-2.82,2.37c-.17,1.38,1.55,3.45,2.87,3.32" transform="translate(-169.69 -213.49)"/><path class="cls-1" d="M207.83,394.06c0,2.23,1,2.62,2.91,2.14a27.09,27.09,0,0,1,8.14-.6c4.17.26,8.35.27,12.53.43,5.67.23,11.23-1.25,16.85-1.15,14.1.25,28.17-.62,42.25-1,9.14-.22,18.3-.35,27.37.24s18.07.44,27.1.15c6.49.06,13,.07,19.46.21,1.72,0,2.23-.55,2.22-2.21-.06-6.54.09-13.08,0-19.62-.26-14.09,1.2-28.12,1.18-42.2,0-6.48,1.5-13-.12-19.44a1.1,1.1,0,0,1,.4-.88c.94-.77.8-1.83.86-2.83.28-4.86.46-9.73.86-14.58.18-2.16-.71-2.67-2.62-2.64-4.77.08-9.55,0-14.33.1-11.08.18-22.17.5-33.26.59-7.93.05-15.85-.07-23.75.72-9.24.92-18.54.8-27.81,1.34-6.42.37-12.93.7-19.42.46a59.86,59.86,0,0,0-7.91.38c-10,1-20,2.29-30.05,2.79-1.74.09-2.54.56-2.71,2.45-.58,6.44-.82,12.91-1.28,19.35-.68,9.51-.38,19.1-.36,28.66,0,15.72,1.56,31.39,1.52,47.11m95.49-64.14a12.48,12.48,0,0,1,4.52-8.42A19.09,19.09,0,0,1,320,317.07a29.13,29.13,0,0,1,7.12.58c3.65.9,5.84,3.58,7,7.09a56.17,56.17,0,0,1,2.38,10.7c1,7.61-7.54,18-16.88,16.82-4.37-.05-7.73-1.92-11.09-4.78-5.75-4.89-6.26-10.93-5.24-17.56m6.95,30.42c2.73,0,5.46-.17,8.18-.3,1.57-.07,2.35.51,2.43,2.18a67.81,67.81,0,0,1-.1,8.33c.18,4.35-.34,8.64,1.39,12.72.47,1.11.79,2.57-1.24,2.46-9-.45-17.84,1.23-26.81,1.18-11.58-.06-23.17.32-34.76.52-2.55,0-5.09-.52-7.66-.06-.79.14-1.47-.17-1.38-1.31a141.59,141.59,0,0,0-.25-20.9c-.07-1.18-2.26-2-.56-3.28,1.06-.77,2.33,0,3.5,0,19.09-.34,38.15-1.76,57.26-1.53m-75.45-30a13.71,13.71,0,0,1,3.34-5.65,57.24,57.24,0,0,1,5.31-5.13c2.76-2.52,6.15-1.74,9.23-1.32,5.59.76,9.6,3.74,11.47,9.41,1.14,3.46,3,6.7,3.11,10.46a9.75,9.75,0,0,1-3.72,8.33c-3,2.34-5.84,4.8-9.73,5.82A14.31,14.31,0,0,1,240,348.12c-4.56-5.16-6.8-10.87-5.19-17.81" transform="translate(-169.69 -213.49)"/><path class="cls-1" d="M272.14,256c2.08,1.1,4.13,2.25,6.24,3.29,4.63,2.28,9,5,14.18,6.07,4.42.9,8.78,2.07,13.31,2.27,3.18.18,6.3-.39,9.45-.57,1-.06,1.76-.3,1.28-1.54-2.21-5.68-5.21-10.69-10.51-14.18-2.26-1.5-4.9-1.28-7.12-2.54a14.21,14.21,0,0,0-7.34-1.79c-7.38.11-13.78,3.1-19.86,7-1.44.92-.47,1.58.37,2" transform="translate(-169.69 -213.49)"/><path class="cls-1" d="M264,378.83c4.08-.28,8.18-.35,12.22-.71,4.3-.38,8.61-.25,12.91-.6,5.32-.43,10.67-.81,16-1.06.79,0,1.5-.18,1.72-1.16.72-3.24-1.21-5.72-4.43-5.74l-28.14-.26c0,.17,0,.33,0,.5-2.56,0-5.12-.07-7.68-.06-2.33,0-3.94.66-3.54,3.56a17.07,17.07,0,0,1-.29,4.07c-.09.93.18,1.53,1.22,1.46" transform="translate(-169.69 -213.49)"/><path class="cls-1" d="M368.28,365.93c0,2,0,4.1,0,6.23,0,.57-.21,1.27.48,1.59a1.59,1.59,0,0,0,1.84-.57,33.92,33.92,0,0,1,3.19-3.64,8,8,0,0,0,2.81-5,95.27,95.27,0,0,0,1.69-13.41c.77-10.19,1.85-20.4.8-30.65a8.63,8.63,0,0,0-5.69-7.34c-1.49-.46-2.31-.05-2.39,1.6-.29,6.28-.61,12.55-.9,18.83s-.28,12.3-.91,18.4c-.47,4.58-1.22,9.12-.87,13.92" transform="translate(-169.69 -213.49)"/><path class="cls-1" d="M265.39,262c5.94,2.9,11.65,6.51,18.14,8,9.18,2.12,18.28,5.06,27.59,4.06,2.2,0,4.08.17,5.94,0,.91-.09,2.28.7,2.73-.61.38-1.1-.59-2.05-1.09-3-.76-1.48-2.07-.94-3.18-.79a57.36,57.36,0,0,1-27.11-3.16,65.49,65.49,0,0,1-14.58-7.14c-2.6-1.72-5.52-3.49-8.58-.37-1.19,1.22-1.43,2.25.14,3" transform="translate(-169.69 -213.49)"/><path class="cls-1" d="M321.85,349.81a19,19,0,0,0,5.94-2.73c4.81-2.88,7-7,6.29-12.45-.26-1.94-1-3.85-1-5.77-.06-5.37-5.62-10.38-11.74-9.61a17.2,17.2,0,0,0-10.44,3.06c-5.46,4-6.86,9.44-5.41,16s9.66,12.93,16.39,11.5m-3.46-20.51a21.87,21.87,0,0,1,2.29,0c1.71-.05,3.77-.65,3.61,2.3,0,.38.58.79.89,1.19,1.87,2.41,1.82,4.43-.5,6.47a8.44,8.44,0,0,1-7.24,2.23,6.46,6.46,0,0,1-5.12-6.13c.08-2.3,3.57-5.81,6.07-6.06" transform="translate(-169.69 -213.49)"/><path class="cls-1" d="M245.62,291.85c9.68-.9,19.4-1,29.1-1.5,12.33-.63,24.67-1.21,36.6-1.79a78.24,78.24,0,0,0,9.62.13c1.33,0,1.8-.38,1.53-1.81q-.8-4.14-1.24-8.33c-.2-1.84-1-2.31-2.84-2.29-7.66.09-15.36.33-22.94-1.22a110.71,110.71,0,0,1-22-6.44,60.78,60.78,0,0,1-6.69-3.74c-3.73-2.24-6.28-2.21-8,.23-2.64,3.87-6,7.11-8.84,10.83a41,41,0,0,0-6.8,13.28c-.69,2.36.32,2.85,2.42,2.65" transform="translate(-169.69 -213.49)"/><path class="cls-1" d="M318.58,339.6c2.1,0,5.36-2.47,5.35-4,0-1-3.07-4.2-4-4.17-2.6.06-5.15,2.28-5.09,4.44a3.85,3.85,0,0,0,3.74,3.75" transform="translate(-169.69 -213.49)"/><path class="cls-1" d="M372.53,480.78c1.53,6.17,4,12.1,5.92,18.17,1.34,4.21,3.28,8.3,4.2,12.55,1.56,7.15,5.29,13.61,6.05,21,3-5.28,6.82-9.91,10.24-14.79a3.66,3.66,0,0,0,.36-4.26c-.88-2.07-2.5-3.62-3.33-5.7a235.16,235.16,0,0,0-11.52-24.87c-3.91-7.24-7.75-14.5-12.47-21.25a2.46,2.46,0,0,0-.88-.85c-.4-.2-.64.22-.68.53-.31,3.11-1.13,6.28-.75,9.31.42,3.43,2,6.7,2.86,10.13" transform="translate(-169.69 -213.49)"/><path class="cls-1" d="M389.07,538.17a21.69,21.69,0,0,0-1.54,10.77c.21,2.21,1.48,3.63,3.52,3.69s2.53-1.93,2.78-3.66c.12-.84,0-1.71.15-2.55.23-1.86.54-3.71.8-5.56.15-1,.8-1.2,1.66-1.13s1.28.66,1,1.39c-1,2.62.32,3.6,2.47,4.79,1.62.9,1.82.34,2.34-.81.95-2.12.7-4.31.4-6.49-.12-.92-.63-1.92.8-2.23s1.46.75,1.87,1.61a4.9,4.9,0,0,1,.35,2.2c.08,4.21-2,7.68-3.76,11.25a51,51,0,0,1-5.17,8.7c-.86,1.1-1.41,2.59-.1,4,1,1,2.16,1.89,3.6,1.38a16.09,16.09,0,0,0,5.05-2.38A63.77,63.77,0,0,0,415.4,552a8.33,8.33,0,0,0,1.58-4.27c.19-2.38.9-4.71.62-6.71,0-10.92-1.78-14.9-9.71-20.6-1.64-1.18-3.08-3.38-5.05-3.19s-2.54,3-3.87,4.43c-4.38,4.86-7.36,10.56-9.9,16.5" transform="translate(-169.69 -213.49)"/><path class="cls-2" d="M181.29,339.92c1.79-1,2.88-.23,4.11.71a10.24,10.24,0,0,1,2.47,2.19c1,1.57,3.58,1.93,3.55,4.28-.07,5.38-.26,10.76-.33,16.13-.11,8.4,3,13.18,9.73,14.68,2.45.55,3,1.51,3,3.72,0,5.21.23,10.43.41,15.64.08,2.35,1.72,4.2,3.42,3.83,7.91-1.76,15.88-1.47,23.85-.69a121.34,121.34,0,0,0,12.78.49c6.49-.06,13-.25,19.46-.46,1.61-.05,2.35.37,2.3,2.14a40.12,40.12,0,0,0,.31,6.39c.22,1.68-.4,2-1.58,1.16a4.72,4.72,0,0,0-3.14-.83,122.56,122.56,0,0,1-13.55.18c-9.1-.12-18.24.56-27.28-1a2.2,2.2,0,0,0-2.2.94,93.94,93.94,0,0,1-7.07,7.62c-3.14,2.9-6,6.2-8.92,9.37-3.22,3.49-3.64,7.34-2.61,11.29a63.15,63.15,0,0,1,2.35,19.59c-.53,10-.83,20.11-.66,30.16.07,4.71-.66,9.84,2.79,14,.42.5.13,1.16-.52,1.73-4.86,4.22-6.54,9.77-6.13,16,.21,3.17,1.29,6,5,6.9,4.24,1,6.9-.12,9.39-3.69a58.94,58.94,0,0,0,4-7.3,4.58,4.58,0,0,1,.54,1.06c1.26,8.85,2,17.78,4,26.51.33,1.4-.08,3.23.69,4.2,1,1.21,2.61-.24,4-.23,5.11,0,10.21-.19,15.31-.5,1.46-.09,1.48.49,1.54,1.58.68,12.47-.2,24.91-.65,37.37-.21,5.69-.85,11.38-.44,17.1.31,4.25,1.16,8.72-2.8,12a1.13,1.13,0,0,0-.31.68c-.67,3.83-2.76,7.13-4.16,10.66-2.5,6.33.42,15,6.89,17.49,7.14,2.78,14.49,3.9,21.78.27,4.13-2.06,8-4.68,9.34-9.29,1.56-5.38,1.18-10.95.11-16.42a14.52,14.52,0,0,0-1.46-3.44c-1-2.15-3.32-3.8-2.9-6.61,1.18-7.79,1.18-15.63,1.11-23.49-.08-10.74.14-21.48.15-32.22,0-4,.3-4.63,4.4-4.82,4.34-.21,8.7-.22,13.05-.11,5.46.14,10.93-.37,16.37.44A2.24,2.24,0,0,1,305,549c2.69,7.25,4.08,15,7.6,21.92.68,1.34,1.47,2.83,1.2,4.38-.83,4.88-.54,9.78-.32,14.67.19,4.25,2.63,6.82,6.72,7.44,5.12.78,7.58-.57,9.43-4.85,1.64-3.77,1.63-7.67,1.13-11.57s-1.67-7.76-1.56-11.78a113.06,113.06,0,0,0-1-19.12c-.32-2.2.19-2.63,2.18-2.76,8.65-.55,17.21.36,25.78,1.29a16.77,16.77,0,0,0,3.32.07c2.4-.23,5.63-3.7,5.95-6,.41-3,.83-5.89,1.18-8.84,1.18-9.81,2.12-19.64,2.64-29.5.26-5,.13-10,.18-15.37a2.77,2.77,0,0,1,1.93,2.31c.84,2.41,1.25,4.93,2,7.38,1.1,3.51,3.2,6.7,3.8,10.29.78,4.68,2.67,8.95,4.11,13.39,1.38,4.25,2.61,8.62,2.14,13-.57,5.36-.9,10.69-.94,16.07,0,5.07.68,6.27,5.66,7,2,.29,2.09,1.08,1.87,2.67a8.63,8.63,0,0,0,5.72,9.15c4.51,1.55,12.62-1.49,16.47-5.34,3.5-3.49,5.05-8,7.52-12a19.67,19.67,0,0,0,2-4.66,30,30,0,0,0-.25-17.28c-2-7-6.4-11.72-12.13-15.12-3.79-2.25-6.49-5.08-7.85-8.89-2.15-6-5.46-11.35-8.2-17-3.84-7.91-7.76-15.85-12.69-23.19-2.08-3.08-3.79-6.4-6.32-9.23a8,8,0,0,1-2.11-6.35,121,121,0,0,0,.71-12.77c0-4.88-.51-9.45-4.84-13-4.89-4-9.19-8.74-13.93-12.94-1.29-1.14-2.3-3-4.49-2.94-8.35.07-16.71.08-25.07.13-3.92,0-7.85,0-11.78.11-1.78,0-2.44-.69-2.24-2.5a31.41,31.41,0,0,0,.11-4.85c-.09-1.74-.61-2.69,2.34-2.88,7.09-.44,14.17-.23,21.24-.38,10.59-.23,21.19-.24,31.78-.38,1.4,0,2.94.23,3.55-1.69A27.69,27.69,0,0,0,370.9,387a56.1,56.1,0,0,1,.53-8.16,2.43,2.43,0,0,1,1.2-2.16c3.15-1.43,4.36-4.68,6.62-6.93a5.38,5.38,0,0,0,1.49-2.94c.63-3.87,1.19-7.75,1.87-11.6.28-1.51-.56-3.7.56-4.38,1.35-.83,2.25,1.56,3.66,2a1.18,1.18,0,0,1,.47.2c2.23,1.8,5.09,3.14,4.26,6.93a4,4,0,0,0,1.79,4c2.84,2.24,8.93,2,11.38-.69a7.42,7.42,0,0,0,2.32-5.75,6.27,6.27,0,0,0-9.18-5.14c-1.78.83-3,.58-4.62-.59-2-1.42-3.28-3.69-5.8-4.49-3.08-1-3.58-2.37-3.34-5.63.55-7.41,1.16-14.87,0-22.24-.75-4.84-3.1-8.85-8.49-9.94-1.59-.33-2-1.27-2-2.76.13-5.88.19-11.77.31-17.65,0-.61,0-1.67-.34-1.61-2.38.47-3.82-1.77-6.07-1.87-5.63-.24-11.24.21-16.86.31-7.4.14-14.8-1.49-22.21-.16-.79.15-1.08-.45-1.15-1.07-.57-5.64-2.65-10.85-4.27-16.22-2-6.76-4.88-12.75-10.44-17.26a8.09,8.09,0,0,1-2-2.27,2.83,2.83,0,0,0-2.21-1.55,25.29,25.29,0,0,1-6.18-1.64c-4.8-1.74-9.57-3.51-14.81-2.13-.92.24-1.12-.47-1.3-1.18-1.05-4-2-8.1-3.21-12.09a4.2,4.2,0,0,1,1-4.58c2.08-2.33,2-4.36.23-6.89-2.07-3-5-4.35-8.45-5.18-3.8-.93-8.51,2.43-9.4,5.34-1.83,5.95,2.17,11.78,9.8,11.06,1-.09,2-.52,2.29.76.93,3.73,2.36,7.3,3.42,11,.37,1.32.71,3.39-1.56,3.68-6.1.78-10.39,4.94-14.84,8.38a85.4,85.4,0,0,0-14.34,14.35c-3.29,4.11-6.2,8.45-9.12,12.81a7.08,7.08,0,0,0-.89,1.81c-1.74,5.81-3,6.84-8.87,7.43-.51.05-1,.06-1.54.1-7.57.62-15.14,1.21-22.71,1.86-1,.09-2.13.15-2.7,1.45-1.48,3.42-1.6,7-1.46,10.6a41.62,41.62,0,0,1-.23,4.59c-.1,1.46-.39,2.44-2.35,2.58-2.79.2-5.35,1.33-6.4,4.32-.53,1.53-.87,3.12-1.33,4.68-1.64,5.63-1.35,11.49-2,17.24-.08.74.41,2-1.18,1.51-1.43-.41-3.55-3.92-3.3-5.44a7.31,7.31,0,0,0-1.79-6.73c-4.64-5.23-10.24-4.93-14.33.69-2.21,3-1.06,7.6,1,10.45,1.62,2.27,6.65,3.29,9.43,1.77M402.84,517.24c2-.19,3.41,2,5.05,3.19,7.93,5.7,9.67,9.68,9.71,20.6.28,2-.43,4.33-.62,6.71A8.33,8.33,0,0,1,415.4,552a63.77,63.77,0,0,1-10.11,11.09,16.09,16.09,0,0,1-5.05,2.38c-1.44.51-2.6-.34-3.6-1.38-1.31-1.37-.76-2.86.1-4a50.73,50.73,0,0,0,5.17-8.71c1.78-3.56,3.84-7,3.76-11.24a4.9,4.9,0,0,0-.35-2.2c-.41-.86-.58-1.89-1.87-1.61s-.92,1.31-.8,2.23c.3,2.18.55,4.37-.4,6.49-.52,1.15-.72,1.71-2.34.81-2.15-1.19-3.51-2.17-2.47-4.79.28-.73-.08-1.33-1-1.39s-1.51.12-1.66,1.13c-.26,1.85-.57,3.7-.8,5.56-.11.84,0,1.71-.15,2.55-.25,1.73-.62,3.72-2.78,3.66s-3.31-1.48-3.52-3.69a21.69,21.69,0,0,1,1.54-10.77c2.54-5.94,5.52-11.63,9.9-16.5,1.33-1.48,1.79-4.23,3.87-4.43m-32.42-55.9c0-.32.28-.73.68-.53a2.52,2.52,0,0,1,.88.84c4.72,6.76,8.56,14,12.47,21.26A235.16,235.16,0,0,1,396,507.78c.83,2.08,2.45,3.63,3.32,5.7a3.65,3.65,0,0,1-.35,4.26c-3.42,4.88-7.2,9.51-10.24,14.79-.76-7.42-4.49-13.88-6.05-21-.93-4.25-2.86-8.34-4.2-12.55-1.94-6.07-4.39-12-5.92-18.17-.86-3.43-2.44-6.7-2.86-10.13-.38-3,.44-6.2.75-9.31m29.85-105.09c.9-.06,1.56.38,1.58,1.27,0,1.1-1,.93-1.55,1.12-1-.13-2.08-.08-2-1.23s1.12-1.11,2-1.16M278.16,225.17c-1.84.54-3.78,2-5.77.34a4.32,4.32,0,0,1-1.72-4.51c.57-2.06,2.36-2.17,4.21-1.88a3.83,3.83,0,0,1,4.47,1.93c1.31,2,1.1,3.45-1.19,4.12M213,506.54c-3.24,3.38-2.59,8.16-4.3,12.11-.93,2.15-2.06,3.5-4.27,3.06s-2.24-2.5-2.45-4.55c1.25-3.77,2.21-7.88,4.61-11.37,1.45-2.1,4.32-2.15,6.26-.35.38.36.49.74.15,1.1m1.68-3.45c-1.39.43-3.49.28-4.14-1.12a22.69,22.69,0,0,0-2.61-3.66,7.89,7.89,0,0,1-1.35-3.83c-1-11.29.15-22.56.59-33.9,1.42,3.7,2.85,7.41,3.28,11.37,1.06,9.56,3,19,4.36,28.49.12.88,1.06,2.29-.13,2.65M268.31,626.4c.09,4.15-.79,7.56-3,9.73a16.73,16.73,0,0,1-11,5A22.4,22.4,0,0,1,241,637.21a4.73,4.73,0,0,1-1.88-3.22c-.92-4.07-.09-8,1.16-11.83.73-2.25,1.89-4.37,2.81-6.57.43-1,.79-1.59,2-.77,6,4,12.13,3.89,18.23.23,1.63-1,2.62-.56,3.06,1.13.93,3.61,2.27,7.16,1.9,10.22m-22.3-37c-.19-11.95,2-23.82,1.38-35.78-.12-2.47-.44-4.93-.66-7.4-.11-1.24.07-2.14,1.72-2.11,5.45.12,10.91.13,16.36.18l.4.5c-1.42,1.21-1.11,2.67-1.09,4.21.05,5.63-.2,11.26-.23,16.89,0,5.8.18,11.59.1,17.38-.1,7.58-.23,15.16-.61,22.72-.26,5-2.51,6.68-8.43,7.2-3.27.29-7.64-1.6-8.58-6-1.27-6-.27-11.88-.36-17.81m64.18-42.29c-.38-1.65.07-2,1.53-2,3.15.13,6.31.25,9.46.34,1.49,0,1.82,1.11,2,2.22A71.41,71.41,0,0,1,324.44,565c0,2.64,0,5.28-.11,7.92a7.11,7.11,0,0,1-.66,2.72c-.67,1.39-1.69,1.71-2.73.33a46.24,46.24,0,0,1-4.93-8.88c-2.88-6.37-4.22-13.24-5.82-20m16.23,37.83c-.05.34-.06.69-.1,1.25a10.07,10.07,0,0,1-.93,4.49,2.79,2.79,0,0,1-3.56,2c-1.61-.33-3-.75-3.25-2.93a57,57,0,0,1-.32-7.15c0-1.76.57-2.59,2.25-1.19a4,4,0,0,0,3.52,1.18c2.43-.69,2.65.5,2.39,2.36m40.28-152.7c2.87,6,2.05,12.3,1.3,18.56-.23,1.94-.64,3.87-.94,5.81a2.94,2.94,0,0,0,0,1.5c2.33,5.71.41,11.23-.54,16.85a87.69,87.69,0,0,0-.87,10.39c-.48,9.46-.58,18.92-1.69,28.37-1.05,9-1.21,18-2.63,27-.29,1.83-1.07,2.59-2.6,2.88a25.65,25.65,0,0,1-6.89.28c-7.9-.67-15.86-1.79-23.73-.5-5.55.9-11,.16-16.47.3-3.18.08-6.19-1-9.33-1-10.75,0-21.5.17-32.24.1-9.12-.05-18.27,0-27.35-.68-5.46-.45-10.83.42-16.25,0-1.49-.12-2-.53-2.26-2a229,229,0,0,1-2.77-24.9c-.17-3.15-.3-6.74-2.14-9.13-5.09-6.57-3-14.45-4.65-21.6-2.28-9.71-3.8-19.59-5.49-29.42-1-6-3.59-11.64-4-17.79-.27-3.64-.16-4,3.46-4.16,13-.58,26.07-1.24,39.12-1.67,6-.2,11.95.07,17.93.12v-.15c11.25.11,22.51.25,33.76.3,16.22.09,32.44.3,48.64-.6,5.56-.31,11.09.3,16.62-.11,1.1-.08,1.56.31,2.06,1.36M311.37,414.1c10.83-.24,21.66-.1,32.48-.31,4.49-.08,7.57,2.1,10.38,4.94,3.15,3.18,6.93,5.75,9.45,9.9a27.21,27.21,0,0,1-6.05.1c-8.64-.32-17.24.49-25.85.82-7.7.29-15.36.13-23,0-10.92-.15-21.84-.1-32.76-.15-10,0-20-.19-30-.13a302.86,302.86,0,0,0-38.78,2.35c-.58.08-1.3.5-1.68-.08s.35-1.17.61-1.76c1.09-2.46,3.46-3.81,5.27-5.41,3.71-3.29,6.46-7.41,10.17-10.64a2,2,0,0,1,1.6-.58c12.77,1.06,25.58.24,38.36.8a12.56,12.56,0,0,0,2.81-.12c3.16-.61,5.38.91,5.81,4.2s2.54,5,5.57,5.68a48.29,48.29,0,0,0,12.41,1.54c5.19-.14,10.46.33,15.55-.95,4.3-1.08,5.43-2.81,5.05-7.26-.19-2.22,0-2.9,2.62-3m-5.49,4.2c0,2.95-1.11,4.15-4,4.16-7.92,0-15.84.8-23.75-.26-3.62-.48-4-.74-4.5-4.19-1-6.18-2.11-12.35-2.59-18.61-.11-1.42,0-2,1.6-2,7-.11,13.87-1.48,20.86-1.43,3.66,0,7.31.15,11,.2,1.49,0,1.85.91,1.83,2.19,0,3-.06,6-.08,8.95a76,76,0,0,0-.37,11M371,314.78c.08-1.65.9-2.06,2.39-1.6a8.64,8.64,0,0,1,5.69,7.34c1,10.25,0,20.46-.8,30.65a95.27,95.27,0,0,1-1.69,13.41,8,8,0,0,1-2.81,5,35.06,35.06,0,0,0-3.19,3.64,1.59,1.59,0,0,1-1.84.57c-.69-.32-.48-1-.48-1.59,0-2.13,0-4.27,0-6.22-.35-4.81.4-9.35.87-13.93.63-6.1.63-12.26.91-18.4s.61-12.55.9-18.83M271.77,254c6.08-3.87,12.48-6.86,19.86-7a14.27,14.27,0,0,1,7.35,1.79c2.21,1.26,4.85,1,7.11,2.54,5.3,3.49,8.3,8.5,10.51,14.19.48,1.23-.29,1.47-1.28,1.53-3.15.18-6.27.76-9.45.57-4.53-.2-8.89-1.37-13.31-2.27-5.16-1.06-9.55-3.78-14.18-6.07-2.11-1-4.16-2.19-6.24-3.29-.83-.44-1.81-1.1-.37-2m-6.52,4.93c3.06-3.12,6-1.35,8.58.37a65.49,65.49,0,0,0,14.58,7.14,57.36,57.36,0,0,0,27.11,3.16c1.11-.15,2.42-.69,3.18.79.5,1,1.47,1.92,1.09,3-.45,1.31-1.82.52-2.73.61-1.86.17-3.74,0-5.94,0-9.31,1-18.41-1.94-27.59-4.06-6.49-1.5-12.2-5.11-18.14-8-1.57-.77-1.33-1.8-.14-3M243.2,289.2a41,41,0,0,1,6.8-13.28c2.81-3.72,6.2-7,8.84-10.83,1.67-2.44,4.22-2.47,8-.23a60.78,60.78,0,0,0,6.69,3.74,110,110,0,0,0,22,6.44c7.58,1.55,15.28,1.31,22.94,1.22,1.83,0,2.64.45,2.84,2.29q.45,4.18,1.24,8.33c.27,1.43-.2,1.81-1.53,1.81a78.24,78.24,0,0,1-9.62-.13c-11.93.58-24.26,1.16-36.6,1.79-9.7.5-19.42.6-29.1,1.5-2.1.2-3.11-.29-2.42-2.65m-36.53,29.09c.46-6.44.7-12.91,1.28-19.35.17-1.89,1-2.36,2.71-2.45,10.06-.5,20-1.79,30.05-2.79a59.86,59.86,0,0,1,7.91-.38c6.49.23,13-.09,19.43-.46,9.26-.54,18.56-.42,27.8-1.34,7.9-.79,15.82-.67,23.75-.72,11.09-.09,22.18-.41,33.26-.59,4.78-.08,9.56,0,14.33-.1,1.91,0,2.8.48,2.62,2.64-.4,4.85-.58,9.72-.86,14.58-.06,1,.08,2.06-.86,2.83a1.1,1.1,0,0,0-.4.88c1.62,6.47.11,13,.12,19.44,0,14.08-1.44,28.11-1.18,42.2.12,6.54,0,13.08,0,19.62,0,1.66-.5,2.25-2.22,2.21-6.48-.14-13-.15-19.46-.21-9,.29-18.05.44-27.1-.15s-18.23-.46-27.37-.24c-14.08.35-28.15,1.22-42.25,1-5.62-.1-11.18,1.38-16.85,1.15-4.17-.16-8.36-.17-12.53-.43a27.09,27.09,0,0,0-8.14.6c-1.91.48-2.92.09-2.91-2.14,0-15.72-1.48-31.39-1.52-47.11,0-9.56-.32-19.15.36-28.66m-10.52,30.47c.12-7.51.21-15,.72-22.51a26.14,26.14,0,0,1,2.22-8.86c.59-1.33,4.43-2.49,5.69-1.87.59.29.54.8.5,1.31-1,11.68-.7,23.37-.3,35.06.22,6.65.37,13.3.73,19.94.11,2.14-.71,2.28-2.38,1.89a9.42,9.42,0,0,1-6.75-7.58c-.88-5.77-.45-11.59-.43-17.38m-18.41-18.92c1.63,0,2.75,1.15,3,3.05a3.53,3.53,0,0,1-2.92,2.64c-1.32.13-3-1.94-2.87-3.32a2.67,2.67,0,0,1,2.82-2.37" transform="translate(-169.69 -213.49)"/><path class="cls-2" d="M249.51,361.88c-1.7,1.25.49,2.1.56,3.28a141.59,141.59,0,0,1,.25,20.9c-.09,1.14.59,1.45,1.38,1.31,2.57-.46,5.11.1,7.66.06,11.59-.2,23.18-.58,34.76-.52,9,0,17.84-1.63,26.81-1.18,2,.11,1.71-1.35,1.24-2.46-1.73-4.08-1.21-8.37-1.38-12.72a69.88,69.88,0,0,0,.09-8.33c-.08-1.67-.86-2.25-2.43-2.18-2.72.13-5.45.33-8.18.3-19.11-.23-38.17,1.19-57.26,1.53-1.17,0-2.44-.76-3.5,0m30.16,2c12.19-1,24.39-1.13,36.58-1.21,2.38,0,3.07.91,2.85,3a58.44,58.44,0,0,0,.54,15.29c.29,1.75-.65,2.06-2,2.14-11.14.68-22.22,2.22-33.43,1.89-4.73-.14-9.48.5-14.2.29-5-.23-10,.05-15-.11-1.42-.05-2.13-.37-2.19-2-.18-5.62-.42-11.25-.88-16.86-.18-2.1.44-2.7,2.43-2.67,8.44.14,16.89.18,25.33.26" transform="translate(-169.69 -213.49)"/><path class="cls-2" d="M308.56,347.48c3.36,2.86,6.72,4.73,11.09,4.78,9.34,1.15,17.89-9.21,16.88-16.82a56.17,56.17,0,0,0-2.38-10.7c-1.19-3.51-3.38-6.19-7-7.09a29.13,29.13,0,0,0-7.12-.58,19.09,19.09,0,0,0-12.16,4.43,12.48,12.48,0,0,0-4.52,8.42c-1,6.63-.51,12.67,5.24,17.56m2.31-25.17a17.2,17.2,0,0,1,10.44-3.06c6.12-.77,11.68,4.25,11.74,9.61,0,1.92.77,3.83,1,5.77.74,5.49-1.48,9.57-6.29,12.45a19,19,0,0,1-5.94,2.73c-6.73,1.43-14.92-4.87-16.39-11.5s0-12,5.41-16" transform="translate(-169.69 -213.49)"/><path class="cls-2" d="M253.83,352.23c3.89-1,6.74-3.48,9.73-5.82a9.75,9.75,0,0,0,3.72-8.33c-.14-3.76-2-7-3.11-10.46-1.86-5.67-5.88-8.65-11.47-9.41-3.08-.42-6.47-1.2-9.22,1.32a56.13,56.13,0,0,0-5.32,5.13,13.71,13.71,0,0,0-3.34,5.65c-1.61,6.94.63,12.65,5.19,17.81a14.31,14.31,0,0,0,13.82,4.11m-17.41-17.71a6.91,6.91,0,0,1,1.25-4.55c1.57-2.4,3-5,5.2-6.83,5.83-5,15.28-2.86,18.94,4.08a34.92,34.92,0,0,1,2.94,8.93c1,4.34-1.32,8-5.35,10.32-2.1,1.22-4,2.78-6.29,3.77a6.83,6.83,0,0,1-6.4-.32c-2.93-1.77-6-3.48-7.41-7-1.11-2.82-3.28-5.25-2.88-8.36" transform="translate(-169.69 -213.49)"/><path class="cls-2" d="M350.36,478.19c-1.24-1.17-2.27-2.49-4.11-3.23-4-1.59-8.23-2-12.12-3.88a9.77,9.77,0,0,0-6.05-.36c-7.9,1.7-13.76,6.51-18.15,12.92-4.23,6.18-5,13.22-3.34,20.55,1.48,6.43,3.6,12.46,9.73,16,4,2.3,8.43,2.39,11.53,2.55,7.39-.27,9-1.1,16.86-5.7a31.64,31.64,0,0,0,12.59-13.84A16.33,16.33,0,0,0,359,492.55c-1.21-5.74-4.44-10.41-8.65-14.36m-38,28.93c-2.84-7-2.35-16.32,3.13-22.64,1.78-2.05,3.79-3.9,5.66-5.88a2.4,2.4,0,0,1,2.19-1,4,4,0,0,0,2.83-.92c.64-.44,1.24-1.48,2.19-.85s.57,1.55.57,2.38c0,2.73.42,5.46.29,8.2,0,2.47-.17,4.95,0,7.42a3.13,3.13,0,0,1-1.73,3.34c-2.88,1.56-5.12,4-7.66,5.94-1.92,1.5-3.87,3-5.75,4.54-1,.82-1.39.26-1.7-.5m18.07,6c-.24,7.09.53,5.85-5.5,5.44-3.42-.23-6.08-1.94-8.67-3.93-1.11-.86-1.37-1.71-.15-2.66,3.95-3.07,7.85-6.2,11.88-9.17,1.58-1.16,1.9.37,2,1.47.2,3.13,1.07,6.24.47,8.85m16-3.22c-2.95,2-5.36,4.8-8.76,6.32-2.18,1-2.42.26-2.24-1.6.05-.59,0-1.19,0-1.79.4-2.67-.53-5.24-.52-7.88,0-.71-.16-1.79,1.11-1.32,3.4,1.26,6.87,2.39,9.82,4.6.58.44,1.66.92.57,1.67M352.2,503c-.88,1.85-2.37,2.18-4,1.2-2.66-1.57-5.6-2.46-8.38-3.72-1.69-.76-3.31-1.68-4.93-2.59-.88-.49-.8-1.46-.81-2.29,0-2.14,0-4.27.05-6.4a85.11,85.11,0,0,0-.7-11.73c-.21-1.67.57-2,1.9-1.76,5.9,1,11.06,3.24,14.34,8.64.7,1.14,1.8,2.06,2.45,3.23,2.87,5.1,2.58,10.27.1,15.42" transform="translate(-169.69 -213.49)"/><path class="cls-2" d="M266.49,479c-.21-3-1.67-6.17.39-9.15.33-.46-.36-.77-.66-1.15-1.47-1.85-2.75,0-4.09.12-10.09.81-20,3.41-30.22,2.92a26.64,26.64,0,0,0-5.1.45c-1.08.16-2.15.7-2.86-.71-.25-.51-.83-.54-1.35-.3a1.1,1.1,0,0,0-.59,1.29c.27,2.19.37,4.43.84,6.58,1.56,7.07,3.05,14.16,4.22,21.31.67,4.12,1.4,8.23,2,12.36.49,3.56.41,3.67,4.29,3.34a80.78,80.78,0,0,1,11.74-.46c2.72.26,5.44,0,8.18.13,3.89.24,7.82,0,11.74-.09.73,0,1.64.06,1.44-1.19-.55-3.63-.12-7.27,0-10.89a231.27,231.27,0,0,0,.05-24.56m-2.69,32.41c-.29,1.59-.83,2.4-2.61,2.33-3.75-.14-7.51-.1-10.08-.12-6.31.13-11.45-.1-16.54.58-2,.27-2.76-.19-3.33-2.48-2.84-11.28-3.42-23-6.4-34.2-.74-2.8-.44-3.11,2.42-3.29a66.45,66.45,0,0,1,6.91-.21c8.85.33,17.47-1.55,26.18-2.66,2.33-.3,3.24.12,3.44,2.73A192.69,192.69,0,0,1,264,502.7c-.2,2.89.37,5.79-.15,8.69" transform="translate(-169.69 -213.49)"/><path class="cls-2" d="M294.32,534.75c-2.3.2-4.58.53-6.88.73-1.12.1-2.33.14-2.35-1.54,0-3.76-.06-7.52-.15-11.27,0-1.22.62-1.41,1.6-1.39,2,.05,4.1.06,6.15.07.7,0,1.46,0,1.56-.92s-.68-1.28-1.49-1.32c-2-.07-3.93-.21-5.89-.09-1.65.1-2.07-.54-2-2.07a33.66,33.66,0,0,0-.06-5.12c-.55-5.7,0-6.34,5.9-6a6.32,6.32,0,0,1,1.49.28c.88.3,1.55.22,1.67-.85s-.49-1.36-1.39-1.36a47.06,47.06,0,0,0-6.4.09c-2,.28-2.28-.45-2.27-2.17,0-5.86-1.11-11.76.65-17.56.26-.84.24-1.83-.9-2s-1.18.83-1.42,1.64a27.38,27.38,0,0,0-1,7.05c-.25,11,1.91,21.95,2.07,33,0,3.75,0,7.5-.12,11.26-.05,2,.84,2.65,2.8,2.66a73.59,73.59,0,0,0,8.65-.82c1-.11,1.67-.13,1.61-1.36-.08-1.47-1.14-1-1.88-.93" transform="translate(-169.69 -213.49)"/><path class="cls-2" d="M337.42,452.49c-5.66-.46-11.19,1.07-16.83,1.05a16.6,16.6,0,0,0-4,.8c-.82.21-1.8.52-1.49,1.66s1.24.79,2.09.55c5.57-1.56,11.33-.91,17-1.46,5.26-.52,10.52.25,15.79-.27,2.58-.26,5.28-.46,7.79.78,2.19,1.07,1.55,3.18,2,4.92a1,1,0,0,0,1.07.9c.74-.07.93-.69,1-1.3.23-3.28-1.31-7.68-6-8-6.16-.49-12.24.76-18.38.41" transform="translate(-169.69 -213.49)"/><path class="cls-2" d="M249.55,443.67c-1.3,2.25-2.5,4.44-1.35,7s3.22,4,5.76,3.8c2-.18,6.26-3.78,6.65-5.7.62-3-1.21-6.58-4.37-8.55-2.07-1.3-5.27-.82-7.57,1.2-.48.42-1.36.75-1.22,1.5.23,1.14,1.37,0,2.1.72m3.14.23c1.43.14,2.79-.82,3.42-.64,1.4.4,2.15,2.12,2.3,3.55a5.38,5.38,0,0,1-3.92,5c-1.84.36-3.42-.11-4.06-2.09s.73-6,2.26-5.83" transform="translate(-169.69 -213.49)"/><path class="cls-2" d="M235,453.66c3.57,0,6.57-2.69,6.59-6,0-2.89-2.91-6.89-5-6.91-2.72,0-6.23,4.16-6.22,7.42,0,2.73,2.33,5.44,4.67,5.46m1.3-9.83a3.46,3.46,0,0,1,3.2,4.07c-.21,2.18-1.94,3.5-4.33,3.28-2.09-.19-2.21-1.75-2.27-3.13.23-2.73,1.58-4.32,3.4-4.22" transform="translate(-169.69 -213.49)"/><path class="cls-2" d="M225.72,447.55a4.93,4.93,0,0,0-4.27-5.14c-2.92-.18-6.62,2.56-6.82,5.06a6,6,0,0,0,5.74,6.21c2.52.15,5.13-2.85,5.35-6.13m-5.61,3.51c-1.52-.22-3.25-.49-3.33-2.78-.07-2,1.6-3.51,4.09-3.62,1.81-.08,2.31,1.08,2.3,2.64,0,2.33-1.08,3.73-3.06,3.76" transform="translate(-169.69 -213.49)"/><path class="cls-2" d="M260.51,375.52h0a16.43,16.43,0,0,1-.05,2.81c-.45,2.49.45,2.91,2.89,2.78,8.51-.48,17-.06,25.57-.83,6.43-.59,12.87-1.4,19.37-1.11,1.35.06,2.19-.89,1.62-2.19-1.16-2.66-1.13-5.49-1.43-8.27-.14-1.36-.65-1.8-1.94-1.64a26.33,26.33,0,0,1-4.33.34,295.66,295.66,0,0,0-39.82.82c-1.61.16-2.22.66-1.88,2.44a26.17,26.17,0,0,1,0,4.85m2.58-2.22c-.4-2.9,1.21-3.55,3.54-3.56,2.56,0,5.12,0,7.68.06,0-.17,0-.33,0-.5l28.14.26c3.22,0,5.15,2.5,4.43,5.74-.22,1-.93,1.12-1.72,1.16-5.35.25-10.7.63-16,1.06-4.3.35-8.61.22-12.91.6-4,.36-8.14.43-12.22.71-1,.07-1.31-.53-1.22-1.46a17.07,17.07,0,0,0,.29-4.07" transform="translate(-169.69 -213.49)"/><path class="cls-2" d="M317.44,341.49a8.44,8.44,0,0,0,7.24-2.23c2.32-2,2.37-4.06.5-6.47-.31-.4-.91-.81-.89-1.19.16-3-1.9-2.35-3.61-2.3a21.87,21.87,0,0,0-2.29,0c-2.5.25-6,3.77-6.07,6.06a6.46,6.46,0,0,0,5.12,6.13m2.49-10.08c.93,0,4,3.17,4,4.17,0,1.55-3.25,4-5.35,4a3.87,3.87,0,0,1-3.74-3.76c-.06-2.16,2.49-4.38,5.09-4.44" transform="translate(-169.69 -213.49)"/><path class="cls-2" d="M250.12,342.59c3.75.12,6.92-3,7.13-7.14.13-2.32-2.87-6-5.07-5.88-4.49.31-8.69,1.95-9.16,6.67-.27,2.69,4.24,6.52,7.1,6.35m1.25-10.5a3.4,3.4,0,0,1,3.37,3.42c-.23,2.52-1.6,4.95-5,4.48-2.92-.1-4.12-1.18-4.07-3.68s2.58-4.3,5.67-4.22" transform="translate(-169.69 -213.49)"/></svg>