<svg id="Layer_1" data-name="Layer 1" xmlns="http://www.w3.org/2000/svg" viewBox="0 0 255.18 398.38"><defs><style>.cls-1{fill:#fff;}.cls-2{fill:#010101;}</style></defs><path class="cls-1" d="M240.79,450.67a16.49,16.49,0,0,0,8.69,2.75c7.7,0,14.41-3.4,21.08-6.76A5,5,0,0,0,273,444a52.54,52.54,0,0,0,3.19-9.86c1.09-6.13,2-12.28,3.2-18.4a66,66,0,0,0,.8-19.93,2.21,2.21,0,0,0-2.86-2.19c-.82.15-1.68.22-2.48.45a221.14,221.14,0,0,0-25.19,8.6,38.42,38.42,0,0,0-10.19,6.65,16.62,16.62,0,0,0-3.09,3.66c-1.87,2.95-1.71,6.15-1.78,9-.49,9.19,1.4,17.63,4.16,25.92a5.06,5.06,0,0,0,2,2.76" transform="translate(-228.94 -189.89)"/><path class="cls-1" d="M392.25,211.84a102.47,102.47,0,0,0,18.2.31c4.77-.37,7,1.27,8,6,.14.68.18,1.37.26,2.06.45,4.1.45,4.1,4.54,4.2,1.15,0,2.3,0,4,0a3.63,3.63,0,0,1-1.5-4,48,48,0,0,0,.18-10.58c-.25-2.88-2.11-4.47-4.91-5a31.88,31.88,0,0,0-5.26,0c-8.15-.2-16.3-.53-24.45-.87-3.17-.13-3.17-.21-3.21,2.89-.06,4.46-.07,4.54,4.14,5" transform="translate(-228.94 -189.89)"/><path class="cls-1" d="M354.93,584.9c1.6,1.1,3.39,1.82,5.08.28,2.53-2.3,4.73-4.88,5.32-8.41a244.29,244.29,0,0,0,3.39-31.45c0-2.82.08-5.45,0-8.06-.19-5.22-2.64-7.87-8.32-9.2-4-.93-9.81,1.47-11.69,4.72-2.34,4.05-2.25,8.43-2.3,12.94A156.93,156.93,0,0,0,348.77,574c.74,4.37,2.33,8.32,6.16,10.95m1.7-37.65c-2.06.47-2.51-.48-1.85-2.3.37-1,.66-2.05,1-3.08s1.9-2.48-.87-2.49c-.51,0-.68-.64-.53-1.11.7-2.27,1.19-4.63,2.59-6.63.41-.58.9-1.24,1.68-.76s.25,1.2,0,1.81-.67,1.39-.94,2.11c-.33.87-1.17,1.91.87,1.82,1.24-.06,1.48,1,1.05,2-.61,1.49-1.39,2.91-1.95,4.42-.33.88-.86,2.07,1.14,1.67,1.79-.36,2.14.84,1.74,2.29a35,35,0,0,1-3,8.21c-.29.51-.84,1.09-.4,1.69s1.07,0,1.61-.13c1.66-.54,2.39.09,2.26,2-.19,2.68-1.54,5-2.45,7.42-.39,1-1.13,2-.93,3.21a3.15,3.15,0,0,0,.57,0c.89-.08,1.47-1.78,2.57-.59s.32,2.16-.09,3.24c-.84,2.22-1.67,4.45-2.47,6.69-.3.86-.79,1.4-1.7,1s-.48-1.11-.26-1.77c.36-1,.65-2.05,1-3.08.4-1.25,2-2.83-1.15-2.87-1.07,0-1.45-1.39-1-2.63a66.13,66.13,0,0,1,3.16-7.93c.32-.67.93-1.52.47-2.15s-1.4,0-2.1.2-1.64.74-2.37,0,0-1.47.23-2.14c1.12-2.86,2.28-5.71,3.46-8.55.55-1.32.37-1.87-1.22-1.51" transform="translate(-228.94 -189.89)"/><path class="cls-1" d="M433.09,438.29a11.71,11.71,0,0,0,9.17,9.93c5.24,1,10.53,1.29,15.82,1.8,4.44.43,7.43-1.36,9.51-5,2.25-4,3.49-8.36,4.86-12.68,1.76-5.56,3.56-11.14,3.52-17.09a6.57,6.57,0,0,0-1.42-4.29c-2.25-2.76-4.41-5.72-8.71-4.8-.27.06-.59-.15-.88-.25-5-1.87-10.42-2.42-15.42-4.46-3.87-1.58-7.63-3.87-11.37-3.32-6.19-.17-7.55.93-7.1,6.08,1,11.36,1,22.77,2,34.12" transform="translate(-228.94 -189.89)"/><path class="cls-1" d="M325.62,214.82c0,1.79.77,2.47,2.51,2.46,3.84,0,7.69.12,11.54,0,5.13-.11,10.26-.59,15.39-.54,9.47.1,18.91-.88,28.38-.23,2.38.17,3.12-.86,2.67-3.15a17.19,17.19,0,0,1-.14-3.2c0-3.75-.12-7.51-.2-11.26,0-1.11-.38-1.89-1.75-1.92-6.06-.14-12.14-.53-18.18-.45-12.37.16-24.74.43-37.1-.36a7.06,7.06,0,0,1-1.38,0c-2.1-.42-2.79.19-2.61,2.5.41,5.37,1,10.74.87,16.13" transform="translate(-228.94 -189.89)"/><path class="cls-1" d="M283.36,302.32c8.44-4.91,16.95-9.71,24.89-15.42a3.46,3.46,0,0,0,.2-4.89c-.46-.4-.79-.19-1.2.1-6.77,4.88-14.19,8.69-21.28,13.05q-9,5.54-18.24,10.74c-2.58,1.46-5.18,3-7.69,4.57-.72.47-1.27,1-.69,1.85s.91,2.3,2.19,2.94a47.27,47.27,0,0,0,5.09-2.69c5.39-3.73,11.08-7,16.73-10.25" transform="translate(-228.94 -189.89)"/><path class="cls-1" d="M341.23,258.46c-2.86-2.67-5.72-5.34-8.62-8-1.17-1.05-1.79-.61-1.8.88v7.38a33.08,33.08,0,0,1,.49,7.62c0,.94.22,1.72,1.29,1,2.89-2,5.73-4.16,8.54-6.3a1.53,1.53,0,0,0,.1-2.58" transform="translate(-228.94 -189.89)"/><path class="cls-1" d="M309.81,297.45c-1.88,1.49-4.12,2.37-6.09,3.66-8,5.21-16.53,9.4-24.52,14.57-3,1.95-6.16,3.67-8.86,6,3.64,2.76,6.35.94,9-1.21a18.46,18.46,0,0,1,4.32-2.6c6-2.67,11.47-6.18,17.11-9.42,2.78-1.6,5.14-3.93,8.39-4.67a1.16,1.16,0,0,0,1-.85c.35-1.65.74-3.3.94-5,.15-1.18-.59-1.09-1.27-.55" transform="translate(-228.94 -189.89)"/><path class="cls-1" d="M281.55,324c3.53-.5,7.46.18,10.1-3.27a5,5,0,0,1,2.43-1.27c2.43-.77,4.47-2.33,6.88-3.26,3.7-1.43,6-5.22,7.36-9.36-9.66,6.18-20.37,10.43-30.19,16.94a4.53,4.53,0,0,0,3.42.22" transform="translate(-228.94 -189.89)"/><path class="cls-1" d="M308.7,289.54c-4,2.82-8.31,5-12.39,7.58-6.6,4.23-13.66,7.7-20.22,12-3.79,2.49-7.7,4.8-11.58,7.15-1.28.77-1.12,1.3,0,2.15,2.39,1.81,4.05,1.74,7.21-.37,7.48-5,15.27-9.49,23.08-13.94a125.2,125.2,0,0,0,15.08-9.81c.8-.63,1.62-1.24,1.47-2.37,0-3.15-.67-3.82-2.64-2.41" transform="translate(-228.94 -189.89)"/><path class="cls-1" d="M342.72,323c7.59-.34,15.18-.62,22.78-.92v-.16c2.3,0,4.61,0,6.91,0,1.11,0,2-.56,1.27-1.72-1.82-3-2.66-6.37-4.05-9.53a1.67,1.67,0,0,0-1.72-1.18,184.05,184.05,0,0,0-22.26,1.44,2,2,0,0,0-2,1.82,59.34,59.34,0,0,1-2.44,8.15c-.84,2-.25,2.18,1.49,2.11" transform="translate(-228.94 -189.89)"/><path class="cls-1" d="M385.68,251.13a54.94,54.94,0,0,0-13.56,0c-1.28.11-1.41.94-1.33,2,.23,3.07.46,6.14.64,9.21.08,1.35.66,1.89,2,1.82,2.07-.1,4.15,0,6.23,0v.21c2.23,0,4.46,0,6.69,0,1.49.05,1.93-.61,2.14-2a24.3,24.3,0,0,0-.29-8.46c-.32-1.62-.93-2.43-2.56-2.7" transform="translate(-228.94 -189.89)"/><path class="cls-1" d="M376.09,326.47a2.51,2.51,0,0,0-2.74-2.23c-4.05.1-8.11,0-12.17.07-5.45.1-10.9.27-16.35.46s-6.64,1.3-7.55,6.73c-.11.68-.07,1.38-.18,2.06-.22,1.26.23,1.6,1.5,1.49,4.06-.33,8.13-.54,12.49-.82,8.35.39,16.85-1.46,25.46-1.62,1.39,0,1.89-.54,1.12-1.84a15.22,15.22,0,0,1-1.58-4.3" transform="translate(-228.94 -189.89)"/><path class="cls-1" d="M267.26,270.46c4-2.14,7.34-4.85,11.15-6.79-3.61-.77-9.94,3.08-11.15,6.79" transform="translate(-228.94 -189.89)"/><path class="cls-1" d="M391.75,358.54c-.42-.63-.9-1.15-1.68-.92-4.33,1.3-8.74.27-13.1.41-12.64.4-25.23-1-37.83-1.78-6.68-.44-13.38-.69-20.07-1-.65,0-2.05-.43-1.75.69.73,2.68-1,4.66-1.86,6.64-4.5,9.87-8.58,19.91-12.37,30.05A151.58,151.58,0,0,0,294,431.1c-.27,2.83-1.13,5.87-.43,8.48,1.55,5.83,2.52,11.85,5.26,17.39a50.62,50.62,0,0,0,10.35,14.46c4.25,4,9.59,6.63,14.56,9.57,6.09,3.61,12.57,6.62,19.95,7.33a68.65,68.65,0,0,0,25.34-2c8.11-2.27,15.19-6.65,22.27-11,7.5-4.58,12.55-11.54,16.7-19.08,1-1.85,2.19-4,2.2-6.36,0-3.38,0-6.77,0-10.15.17-7.15-.38-14.26-.92-21.38s-2.44-14.2-3.84-21.25a182.45,182.45,0,0,0-5.15-20.57,70.26,70.26,0,0,0-8.49-18.07M379.49,368c-12.74-2-25.42-1.18-38.1.68-6.77,1-13.63,1.26-20.33,2.78-.81.19-1.89.42-2-.83s1-1.14,1.86-1.2c9.29-.7,18.53-1.87,27.73-3.2a96.48,96.48,0,0,1,18.05-.88c5.14,0,9.22-.06,13.29.05.9,0,2.64-.38,2.44,1.17-.15,1.22-1.55,1.65-3,1.43" transform="translate(-228.94 -189.89)"/><path class="cls-1" d="M297.84,226.78c.3,0,.61-.06.92-.05,1.44,0,2.05-.37,1.74-2.07a20.09,20.09,0,0,1,.19-9.59c.9-3,1-3.32,4.23-3.27a127.16,127.16,0,0,0,14.08-.51c1.07-.1,2.32-.72,3.21.49.27.37.46.9,0,1.26-.95.83-2.13.67-3.28.67-4.62,0-9.23.1-13.85.12-1.28,0-1.86.52-2.2,1.82a20.23,20.23,0,0,0-.13,7.79c.27,2.05,1.12,3,3.53,3,7.64-.07,15.24-1.18,22.86-1.08,13.57.17,27.11-1.12,40.68-.46,2.08,0,4.17.06,6.24,0,11.64-.35,23.27-.89,34.91-.72,6.36.1,6.6-.14,4.84-6.42-.48-1.72-1.45-3.17-3.48-3.16q-11.21.06-22.39-.63c-1.38-.08-1.94.3-1.69,1.86.29,1.78-.13,2.82-2.5,3.07-3.71.39-7.39,0-11.05,0-8-.05-16,.33-24,.46-8.23.13-16.44.48-24.67.14-2.45-.1-3.08-1.14-3-3.26.11-3.42.5-6.82,0-10.28-.23-1.68-.85-2.11-2.28-2.06s-3.08.11-4.62.11c-7,0-14-.16-21,.37a4.86,4.86,0,0,0-4.36,4.82c.34,4.14.59,8.29.88,12.43.41,5.62.56,5.61,6.11,5.19" transform="translate(-228.94 -189.89)"/><path class="cls-1" d="M400.66,474.84c-6.57,6.24-14.5,10.28-22.66,13.94a50.3,50.3,0,0,1-11.95,4.05A70.91,70.91,0,0,1,348.46,494c-5-.39-10.15-.68-14.64-2.83-5.51-2.63-11.43-4.58-16.29-8.56-3.31-2.71-7.58-4.05-10.55-7.29-2-2.12-4-4.18-6.29-6.55-.21.79-.31.95-.28,1.08,1.93,9,3.88,18,6.45,26.9a3.51,3.51,0,0,0,4,2.92c11.06-.27,22.13.16,33.14-1.41a93.21,93.21,0,0,1,13.05-.5c8.11,0,16.08-1.95,24.2-1.85a10.71,10.71,0,0,0,1.37-.18,112.52,112.52,0,0,1,16.8-.93c2,.1,2.73-.39,2.84-2.43A92.36,92.36,0,0,1,406,471.82a3.09,3.09,0,0,0,0-2.33c-1.89,1.89-3.57,3.66-5.34,5.35" transform="translate(-228.94 -189.89)"/><path class="cls-1" d="M265,298.83c12-7.68,24-15.31,36.08-22.74,2-1.22,2.05-1.75.39-3-.36-.27-.69-.57-1.31-1.08-.35,2.08-1.89,2.81-3.33,3.67-4.94,3-9.82,6-14.81,8.9-5.24,3-10.26,6.47-15.79,9a54.83,54.83,0,0,0-8.62,4.84c-1.47,1-2.44,2.33-2.15,4.27.17,1.12.55,1.44,1.69.87,2.74-1.39,5.27-3.08,7.85-4.73" transform="translate(-228.94 -189.89)"/><path class="cls-1" d="M257,290.39c2-1.25,3.91-2.76,6-3.85,10.56-5.5,20.55-11.94,30.67-18.19,1.46-.91,1-1.39-.1-2-3.22-1.86-6.78-2.44-10.4-2.75-.35,0-1,.08-1.05.24-.46,2-2.43,1.94-3.71,2.74-2.92,1.82-5.85,3.81-9.05,4.95-4.77,1.68-8.4,4.35-10.63,8.89-.26.52-1,1.05-.37,1.62s1.15-.07,1.65-.36c8.24-4.79,16.79-9,24.91-14.05a8.25,8.25,0,0,1,2.81-1.56c.61-.11,1.22-.39,1.64.3s0,1.22-.55,1.56a38,38,0,0,1-3.87,2.43c-8.87,4.56-17.48,9.59-26.24,14.34-2.15,1.16-2.92,2.73-3.37,5.23a.91.91,0,0,0,.16.65c.47.43,1.08.11,1.49-.15" transform="translate(-228.94 -189.89)"/><path class="cls-1" d="M262.81,306.58c6.31-4,12.9-7.46,19.23-11.41,7.16-4.47,14.61-8.48,21.56-13.32,3.48-2.43,3.48-2.5.27-6.26-.08,1.12,0,1.87-.87,2.29-1.31.63-2.45,1.61-3.78,2.17-7,2.94-12.72,8-19.31,11.61A106,106,0,0,0,268,299.08c-3.2,2.38-6.64,4.43-10.05,6.51-1,.61-1.63,1-.92,2.26s1.22,1.34,2.33.58,2.34-1.16,3.45-1.85" transform="translate(-228.94 -189.89)"/><path class="cls-1" d="M257.19,296.27c1.58-.94,3.16-1.92,4.8-2.74,9.2-4.63,17.92-10.09,26.74-15.36,3.16-1.89,6.15-4.06,9.24-6.07.42-.27,1.33-.08,1.31-.7,0-1-1.13-1.35-1.79-2a.76.76,0,0,0-1.17-.05c-6,4.47-12.82,7.48-19.07,11.5-6.81,4.39-14,8.18-21.06,12.19-.82.47-1.44.89-1.2,1.91-.1,1.87.65,2.22,2.2,1.29" transform="translate(-228.94 -189.89)"/><path class="cls-1" d="M453.3,278.3c-2.26-6.16-10.51-11-18.35-12.12,2.1,2.57,15.56,11.38,18.35,12.12" transform="translate(-228.94 -189.89)"/><path class="cls-1" d="M427.52,269.12a4.23,4.23,0,0,0,1.14.77c6.71,3.91,13.41,7.84,20.13,11.72,2,1.15,4.07,2.19,6.11,3.25.61.32,1.31.69,1.83-.11.32-.49-1.1-3.45-1.65-3.34-2.55.54-3.86-1.51-5.61-2.58a125.93,125.93,0,0,1-15.2-10.34,11.77,11.77,0,0,0-5.57-2.6c-1.09.21-2.48.18-2.91,1.17-.54,1.25,1.14,1.35,1.73,2.06" transform="translate(-228.94 -189.89)"/><path class="cls-1" d="M460.1,291.65c-.64-1.84-1.16-4.26-4.17-3.44-.22.06-.56-.21-.81-.37-9.09-6-19.11-10.47-27.89-17-2.46-1.82-4.8-2.56-7.31.12,13.56,9.32,27.81,17.55,41.57,26.61.43-2.19-.73-4-1.39-6" transform="translate(-228.94 -189.89)"/><path class="cls-1" d="M417.53,314.32c-3-2-6.22-3.62-9-5.91-.43-.34-1.34-1.13-1.41.29-.1,1.93,3.6,7,5.44,7.78a19.6,19.6,0,0,1,4.48,2.76c3.28,2.61,5.72,6.41,10.32,7.2,3.14.54,6.24,1.06,9.52.48-3.05-.87-4.88-3.38-7.39-4.92-4-2.46-8-5.09-11.94-7.68" transform="translate(-228.94 -189.89)"/><path class="cls-1" d="M476.15,228.4c-7.27-.06-14.54-.43-21.82-.67-4.3-.14-8.61.18-12.91-.28-4.08-.45-8.41,1.6-12.24-1.27-.05,0-.15,0-.22,0-10.78-.35-21.57-.82-32.35-.37-17,.72-34,.58-51,.84-12.94.2-25.87.77-38.81,1.23-7.21.26-14.41,1-20.65,1.48-16,.3-30.88,2.18-45.78,3.9-1.46.17-2.74.69-2.19,2.85a15.31,15.31,0,0,1,.08,4.59c-.29,4.54-.83,9.06-.94,13.6-.16,6.85-.33,13.7-.13,20.56.33,11.62-.12,23.24.15,34.87.18,8.23.43,16.47.06,24.71a105.24,105.24,0,0,0-.3,12.93c.12,1.6.74,2.06,2.19,2.28,3.37.5,6.75.45,10.13.62,7.53.38,15.07,0,22.61.54,12.5.91,25.18-1.71,37.55,1.94,3.66,1.08,7.48.79,11.24,1,6.07.31,12.17.26,18.2.9,11.81,1.24,23.65,1.71,35.51,1.91,6.83.12,13.66-.55,20.52-.42,4.93.1,9.87-.65,14.82-.83,8-.28,15.93,0,23.9-.29,2.93-.11,5.84-1,8.74-.6,4.4.62,8.75,0,13.12-.09,6.07-.1,12.15,0,18.23-.55,2-.18,2.3-.59,2.26-2.28-.08-4.07-.08-8.14,0-12.21q.18-17,.41-34c.14-10,.33-20,.47-30,.11-8.69.13-17.38.76-26.06.44-6.06.46-12.15.64-18.23.05-1.49-.1-2.54-2.24-2.56m-204,4.91v.12h-8.74v-.13h8.74m41.54,61.4c-.32,9.88-4.11,18-12,24.16-1.58,1.23-3.29,2.28-4.84,3.55-3.05,2.52-6.89,2.31-10.42,3.2-6.09,1.54-12,.6-17.59-1.8-5.77-2.48-9.82-6.79-12.72-12.46a34.27,34.27,0,0,1,5-38.64c2.82-3.15,5.75-6.23,8.82-9.07,2.38-2.21,5.94-2.86,9.12-2.64,5.41.38,11.11.55,15.74,3.81,8.77,6.17,16.25,13.46,18.49,24.61a13.06,13.06,0,0,1,.33,2.05c.06,1.08,0,2.16,0,3.23M329.09,269a148.62,148.62,0,0,0-.39-20.24c-.06-.84.46-1.23,1.14-1.52a1.5,1.5,0,0,1,1.89.16,165,165,0,0,0,13,11.31c1.08.84.32,1.44-.3,2a52.48,52.48,0,0,1-7,5.26,18.3,18.3,0,0,0-4.4,3.69c-.59.78-1.45.75-2.65.87-.79.1-1.43-.38-1.36-1.57M382,331.64c.26,2.13-1.29,3-3,3-11.16-.09-22.21,2-33.39,1.62a26.21,26.21,0,0,0-7.09.71c-3.34.84-5-.37-5.54-3.71a57.06,57.06,0,0,1-.31-8.55c.34-4.07-1-8.52-.81-13.08,0-1.27.43-1.65,1.51-1.7,12.53-.55,24.95-2.59,37.52-2.64,2.37,0,4.73-.45,7.11-.63,2.87-.22,3.86,1,4.11,3.8.64,7.07-1,14.11-.15,21.18M391.5,266c-.46.71-1.15.51-1.86.46-5.9-.45-11.83-1-17.69.18-1.82.38-2.38-.64-2.42-1.9-.15-4.47-.31-8.92-.83-13.37-.17-1.48.92-2,2.23-2,2.54,0,5.08,0,7.62,0,3.06.32,6.14-.3,9.23,0,1.68.18,2.09.77,2.18,2.17.24,3.76.52,7.52.76,11.29,0,.53-.1,1.08.35,1.51s.84,1,.43,1.62m69.78,46.84a55.79,55.79,0,0,1-7,9.66c-3.9,4.48-9.26,6.17-15,6.78a20.67,20.67,0,0,1-4.63.19c-9.36-.24-17.07-3.35-23.27-9.18a27.91,27.91,0,0,1-7.69-14.44c-2.52-11.25.48-21.09,7.63-29.86,2.14-2.62,4.29-5.26,7.39-6.87.2-.1.48-.25.52-.43,1-4.77,5.49-4.41,8.48-4.71A29.46,29.46,0,0,1,452,272.34a32.16,32.16,0,0,1,6.92,10.83c1.47,3.53,3.51,6.8,4.36,10.63,1.47,6.6,1.38,12.92-2,19" transform="translate(-228.94 -189.89)"/><path class="cls-1" d="M449.89,320.46a10.67,10.67,0,0,0-3.94-2.73,114.1,114.1,0,0,1-11.81-7.11c-2.82-1.85-5.64-3.69-8.4-5.63-3.51-2.46-7.13-4.79-10.86-6.91-2.56-1.47-4.58-3.6-7.09-5.13-1.54-.93-1.85-.45-2,.94-.07.46-.15.92-.28,1.73s.58,1.38,1.4,2.05c3.55,2.89,7.82,4.56,11.62,7,7.49,4.82,14.88,9.78,22.33,14.67,2.18,1.43,4.4,2.79,6.58,4.23,1.57,1.05,2.75.07,3.62-.92,1.05-1.22-.6-1.53-1.13-2.2" transform="translate(-228.94 -189.89)"/><path class="cls-1" d="M444.34,324.33c-4.45-3.12-8.88-6.28-13.4-9.3-2.94-2-6.15-3.6-8.92-5.71-4.8-3.64-10.64-5.53-15.19-9.51-1.07-.94-1.66-.48-1.5.82-.66,3.62,2.23,5,4.39,6.42,8.58,5.66,17.34,11.06,26,16.54.84.53,2,.74,2.58,1.46,1.6,2.09,3.53,1.62,5.56,1.1.5-.13,1.22,0,1.37-.61s-.5-.91-.93-1.21" transform="translate(-228.94 -189.89)"/><path class="cls-1" d="M453.59,315.26c-4.22-1.74-7.87-4.45-11.81-6.65-4.24-2.37-8.12-5.43-12.62-7.44a6.91,6.91,0,0,1-1.18-.72L409.6,287c-.37-.27-.74-.52-1.32-.91-.42.9-.81,1.7-1.17,2.5a1.45,1.45,0,0,0,.66,2.14,55.72,55.72,0,0,1,7.94,5.48c3.93,3,8.46,5,12.42,7.87,4.42,3.22,9.19,5.89,13.68,9,3.4,2.35,7.84,3,10.56,6.42.63.8,1.28.45,1.9-.26,1.91-2.18,1.94-2.84-.68-3.92" transform="translate(-228.94 -189.89)"/><path class="cls-1" d="M459.5,299c-.58,0-1.19-.65-1.76-1-2.73-1.86-5.42-3.79-8.19-5.57-7.23-4.65-14.69-8.91-21.62-14a56.39,56.39,0,0,0-8.84-5.33c-1.81-.88-2.41.55-3.17,1.4-.91,1,.44,1.39.94,1.92a7.25,7.25,0,0,0,1.65,1.25q6.09,3.63,12.09,7.4c7.61,4.78,15.12,9.7,23.11,13.85a26.47,26.47,0,0,1,4.76,3.24c.82.69,2.69,1.41,1.6,2.81s-2.3-.3-2.93-1c-2.72-3-6.5-4.37-9.82-6.26-5.62-3.2-11-6.75-16.47-10.14-5.17-3.19-10.47-6.17-15.29-9.87-1.57-1.21-2.28-.56-3.16.53-1.14,1.43.17,1.81,1.06,2.37L431.77,292c5.4,3.38,10.53,7.16,15.93,10.55,3.7,2.32,7.83,4,11.12,6.95.78.71,1.33.4,1.69-.58a20.32,20.32,0,0,0,1.51-7.48c.22-1.15-.11-2.52-2.52-2.47" transform="translate(-228.94 -189.89)"/><path class="cls-1" d="M457.88,310.77a10.08,10.08,0,0,1-2.15-.74c-3.64-2.7-7.6-4.9-11.38-7.39-5.11-3.37-10.16-6.84-15.28-10.19-3.58-2.34-7.25-4.55-10.88-6.82-2-1.26-4-2.54-6-3.8-.87-.54-1.72-1.12-2.51.21-.63,1-.73,1.67.37,2.67,1.8,1.65,4.3,2.16,5.92,3.93a32,32,0,0,0,7,5.19q9.84,6.18,19.84,12.11c4.47,2.67,8.78,5.64,13.51,7.86a1.89,1.89,0,0,0,2.78-1.76c0-.74-.6-1-1.17-1.27" transform="translate(-228.94 -189.89)"/><path class="cls-2" d="M481.39,223.75a3.21,3.21,0,0,0-2.4-1c-5,.57-10,0-15-.07-5.46-.12-10.92-.17-16.38-.35-4.45-.15-8.9-.44-13.35-.67-.94,0-1.83-.38-1.74-1.43.2-2.23-.57-4.4-.2-6.65,1.23-7.46-3.19-12-10-14.22-3.94-1.26-8-.43-11.92-.13-6,.45-12,.5-18,.36-1.61,0-2.58-.14-2-2.44.92-3.81,0-4.4-3.44-5.93-2.45-1.09-4.68-.22-7-.4-6.69-.52-13.38.12-20.06,0-7.23-.07-14.48.15-21.68-.35-5-.35-10-.11-15-.6-2.49-.25-3.26.8-3.05,3.32.07.84,0,1.7.15,2.54.26,1.79.11,3-2.27,2.44a12.16,12.16,0,0,0-3.44.15c-6.73.52-13.47.51-20.2,1.3-4.39.51-6.29,1.82-8.08,5.83-2.42,5.43-1.15,10.91-.83,16.36.1,1.82-.14,2-1.76,2.07-6.91.17-13.82.4-20.72.73-4.23.2-8.44.89-12.66.86-3.46,0-6.88.34-10.32.47-3.63.13-7.07,2.5-6.92,5.27.17,3.13-.89,6-.93,9.12-.19,14.08-.55,28.17-.39,42.26.19,16.86.56,33.73.79,50.6.06,5-.18,10-.1,15,.07,4.43,2.62,7.06,6.72,7.19,3.45.11,6.9.17,10.36.21,5.62.07,11.27-.26,16.85.24,8.41.76,16.79-.28,24.63.22,3.62,0,6.71.2,9.77-.05,3.21-.26,5.9,1.39,8.88,1.88,1.25.21,1.67.45,1,1.91-2.46,5.2-4.58,10.56-7,15.76-2.6,5.49-4.36,11.31-6.66,16.91A95.91,95.91,0,0,0,293.5,403c-1.64,5.85-2.77,11.82-4,17.77a86,86,0,0,0,0,36.38c1.12,5.11,3,10,4.21,15.1C296,482,297.89,492,302.5,501.08a6.65,6.65,0,0,0,6,3.71c8.77.41,17.54-.2,26.3-.77a3,3,0,0,1,3.25,1.75c3,4.68,6.62,8.77,12.05,10.89,1.62.63,3.35.27,4.94,1,.79.34,1.47.61,1.34,1.55s-1,.64-1.65.64a6.43,6.43,0,0,0-1.35.26,48.52,48.52,0,0,1-11.91,1.24,68,68,0,0,0-8.94.53c-1.48.1-2.28,1-2.13,2.67.48,5.53-.05,11.07,0,16.61,0,5.31-.34,10.62.59,15.89.3,1.73,1.25,3.06,3.12,3.22,2.12.17,4.21.42,6.37-.34,3.09-1.08,4.3-.12,4.55,3.12a82,82,0,0,0,1.54,11.67c1,4.36,2.46,8.4,6,11.44,3.35,2.88,6.74,2.89,9.83-.2a18.29,18.29,0,0,0,5.41-10.22A235.61,235.61,0,0,0,371,538.49c0-2.59-.16-5.08-1.73-7.47-4.91-7.46-19.43-5.9-22.89.65a22.44,22.44,0,0,0-2.36,8.55c-.39,4,.39,8,.25,11.95s-.06,3.85-4,4.06a15.83,15.83,0,0,0-2.05.3c-1,.18-1.65-.13-1.76-1.24-.07-.77-.27-1.52-.31-2.29-.47-8.53,0-17.08-.15-25.62,0-1.27.8-1.32,1.68-1.32,2.07,0,4.14.06,6.21.07,5.25,0,10.36-1.33,15.58-1.53,2.52-.1,2.74-.32,2.13-2.83-.85-3.44-.83-3.38,2.62-4.34a13.81,13.81,0,0,0,9.69-9.09c.71-1.95,1.38-3.92,1.92-5.92.26-1,.66-1.47,1.7-1.41a34.73,34.73,0,0,0,7.82-.58c5.63-.94,11.38-.62,17-1.82,3.83-.83,5.37-2.5,5.72-6.34.91-9.92,3.4-19.57,5.86-29.16a90.65,90.65,0,0,0,2.53-19.36,98.52,98.52,0,0,0-.35-15.63c-.92-7.7-1-15.53-2.71-23.11-3.27-14.3-6-28.76-12.21-42.21-.57-1.24-.48-1.72,1.11-1.75,5.61-.12,11.21-.39,16.82-.42,9.62-.05,19.24-.39,28.85-.84,9.38-.43,18.78-.14,28.14-1.08,3.31-.33,4.9-1.62,5-4.6.36-9.31.35-18.62.51-27.93.12-7.22-.08-14.47,0-21.7.22-13.94.47-27.87.89-41.81.29-9.46.55-18.93,1.17-28.39.22-3.53,1.59-7.66-2.31-10.53m-132.7,309c1.88-3.25,7.73-5.65,11.69-4.72,5.68,1.33,8.13,4,8.32,9.2.1,2.61,0,5.24,0,8.06a244.29,244.29,0,0,1-3.39,31.45c-.59,3.53-2.79,6.11-5.32,8.41-1.69,1.54-3.48.82-5.08-.28-3.83-2.63-5.42-6.58-6.16-10.95a156.93,156.93,0,0,1-2.38-28.23c.05-4.51,0-8.89,2.3-12.94m39.42-325.91c0-3.1,0-3,3.21-2.89,8.15.35,16.3.67,24.45.87a31.88,31.88,0,0,1,5.26,0c2.8.52,4.66,2.11,4.91,5a48,48,0,0,1-.18,10.58,3.63,3.63,0,0,0,1.5,4c-1.68,0-2.83,0-4,0-4.09-.1-4.09-.1-4.54-4.2-.08-.69-.12-1.38-.26-2.06-1-4.78-3.27-6.42-8-6a102.45,102.45,0,0,1-18.2-.31c-4.21-.43-4.2-.51-4.14-5m-60.75-10.68a7.06,7.06,0,0,0,1.38,0c12.36.79,24.73.52,37.1.36,6-.08,12.12.31,18.18.45,1.37,0,1.72.81,1.75,1.92.08,3.75.18,7.51.2,11.26a17.19,17.19,0,0,0,.14,3.2c.45,2.29-.29,3.32-2.67,3.15-9.47-.65-18.91.33-28.38.23-5.13-.05-10.26.43-15.39.54-3.85.09-7.7-.06-11.54,0-1.74,0-2.54-.67-2.51-2.46.11-5.39-.46-10.76-.87-16.13-.18-2.31.51-2.92,2.61-2.5m-32.15,8.15c7-.53,14-.41,21-.37,1.54,0,3.08-.07,4.62-.11s2.05.38,2.28,2.06c.48,3.46.09,6.86,0,10.28-.07,2.12.56,3.16,3,3.26,8.23.34,16.44,0,24.67-.14,8-.13,16-.51,24-.46,3.66,0,7.34.39,11.05,0,2.37-.25,2.79-1.29,2.5-3.07-.25-1.56.31-1.94,1.69-1.86q11.19.67,22.39.63c2,0,3,1.44,3.48,3.16,1.76,6.28,1.52,6.52-4.84,6.42-11.64-.17-23.27.37-34.91.72-2.07.07-4.16,0-6.24,0-13.57-.66-27.12.63-40.68.46-7.62-.1-15.22,1-22.86,1.08-2.41,0-3.26-.92-3.53-3a20.23,20.23,0,0,1,.13-7.79c.34-1.3.92-1.81,2.2-1.82,4.62,0,9.23-.09,13.85-.12,1.15,0,2.33.16,3.28-.67.42-.36.23-.89,0-1.26-.89-1.21-2.14-.59-3.21-.48a127.16,127.16,0,0,1-14.08.5c-3.27-.05-3.32.26-4.23,3.27a20.09,20.09,0,0,0-.19,9.59c.31,1.7-.3,2.1-1.74,2.07-.31,0-.62,0-.92.05-5.55.42-5.7.43-6.11-5.19-.29-4.14-.54-8.29-.88-12.43a4.86,4.86,0,0,1,4.36-4.82M406,471.82a92.36,92.36,0,0,0-3.82,20.57c-.11,2-.82,2.53-2.84,2.43a112.52,112.52,0,0,0-16.8.93,10.71,10.71,0,0,1-1.37.18c-8.12-.1-16.09,1.83-24.2,1.85a93.21,93.21,0,0,0-13.05.5c-11,1.57-22.08,1.14-33.14,1.41a3.51,3.51,0,0,1-4-2.92c-2.57-8.86-4.52-17.88-6.45-26.9,0-.13.07-.29.28-1.08,2.28,2.37,4.33,4.43,6.29,6.55,3,3.24,7.24,4.58,10.55,7.29,4.86,4,10.78,5.93,16.29,8.56,4.49,2.15,9.63,2.44,14.64,2.83a70.91,70.91,0,0,0,17.59-1.19A50.3,50.3,0,0,0,378,488.78c8.16-3.66,16.09-7.7,22.66-13.94,1.77-1.69,3.45-3.46,5.34-5.35a3.09,3.09,0,0,1,0,2.33m-.65-74.64c1.4,7.05,3.3,14,3.84,21.25s1.09,14.23.92,21.38c0,3.38,0,6.77,0,10.15,0,2.36-1.19,4.51-2.2,6.36-4.15,7.54-9.2,14.5-16.7,19.08-7.08,4.32-14.16,8.7-22.27,11a68.65,68.65,0,0,1-25.34,2c-7.38-.71-13.86-3.72-19.95-7.33-5-2.94-10.31-5.54-14.56-9.57A50.62,50.62,0,0,1,298.78,457c-2.74-5.54-3.71-11.56-5.26-17.39-.7-2.61.16-5.65.43-8.48a151.58,151.58,0,0,1,9.14-38.46c3.79-10.14,7.87-20.18,12.37-30.05.9-2,2.59-4,1.86-6.64-.3-1.12,1.1-.71,1.75-.69,6.69.3,13.39.55,20.07,1,12.6.82,25.19,2.18,37.83,1.78,4.36-.14,8.77.89,13.1-.41.78-.23,1.26.29,1.68.92a70.26,70.26,0,0,1,8.49,18.07,182.45,182.45,0,0,1,5.15,20.57m73-166.22c-.18,6.08-.2,12.17-.64,18.23-.63,8.68-.65,17.37-.76,26.06-.14,10-.33,20-.47,30q-.24,17-.41,34c0,4.07,0,8.14,0,12.21,0,1.69-.27,2.1-2.26,2.28-6.08.55-12.15.45-18.23.55-4.37.08-8.72.71-13.12.09-2.9-.41-5.81.48-8.74.6-8,.32-15.94,0-23.9.29-4.95.18-9.89.93-14.82.83-6.86-.13-13.69.54-20.52.42-11.86-.2-23.7-.67-35.51-1.91-6-.64-12.13-.59-18.2-.9-3.76-.2-7.58.09-11.24-1-12.37-3.65-25.05-1-37.54-1.94-7.55-.55-15.09-.16-22.62-.54-3.38-.17-6.76-.12-10.13-.62-1.45-.22-2.07-.68-2.19-2.28a105.24,105.24,0,0,1,.3-12.93c.37-8.24.12-16.48-.06-24.71-.26-11.63.18-23.25-.15-34.87-.2-6.86,0-13.71.13-20.56.11-4.54.65-9.06.94-13.6a15.31,15.31,0,0,0-.08-4.59c-.55-2.16.73-2.68,2.19-2.85,14.9-1.72,29.78-3.6,45.78-3.9,6.24-.46,13.44-1.22,20.66-1.48,12.93-.46,25.86-1,38.81-1.23,17-.26,34-.12,51-.84,10.78-.45,21.57,0,32.35.37.07,0,.17,0,.22,0,3.83,2.87,8.16.82,12.24,1.27,4.3.46,8.61.14,12.91.28,7.28.24,14.55.61,21.82.67,2.14,0,2.28,1.07,2.24,2.56" transform="translate(-228.94 -189.89)"/><path class="cls-2" d="M237.43,454.4c1.27.68,2.87.78,4.09,1.52,6.72,4,13.31,2.23,19.92-.25,4-1.5,8-3,12-4.45,3.78-1.41,6.58-3.57,6.86-8a47.8,47.8,0,0,1,1-6.38c2.45-12.22,5.09-24.43,5.09-36.95,0-6.35-1.94-11.32-9.06-10.89a29.07,29.07,0,0,0-4.8.5c-4.76,1-9.06,3.45-13.72,4.47a55.08,55.08,0,0,0-13.46,5.26c-5.8,3-11.61,6.06-14.61,12.48a20.25,20.25,0,0,0-1.57,8.77c0,4.83-.76,9.67.53,14.45,1.19,4.38,2.18,8.81,3.48,13.14.75,2.5,1.74,5,4.25,6.37M234.63,422c.07-2.85-.09-6.05,1.78-9a16.62,16.62,0,0,1,3.09-3.66,38.42,38.42,0,0,1,10.19-6.65,221.14,221.14,0,0,1,25.19-8.6,25.2,25.2,0,0,1,2.48-.45,2.21,2.21,0,0,1,2.86,2.19,66,66,0,0,1-.8,19.93c-1.15,6.12-2.11,12.27-3.2,18.41A52.68,52.68,0,0,1,273,444a5,5,0,0,1-2.47,2.65c-6.67,3.36-13.38,6.78-21.08,6.76a16.49,16.49,0,0,1-8.69-2.75,5,5,0,0,1-2-2.76c-2.76-8.29-4.65-16.73-4.16-25.92" transform="translate(-228.94 -189.89)"/><path class="cls-2" d="M436.14,450.94c6.78,3.31,14.28,3.2,21.58,3.77a27,27,0,0,0,3.92,0c4.08-.58,7.53-2.08,9.81-5.91a71,71,0,0,0,7.18-17.17c1.8-6.31,3.2-12.68,2.87-19.33-.12-2.42-.68-4.75-2.55-6.18-3.46-2.63-6.72-5.65-11-7.06-1.6-.53-3.34-.51-4.83-1.48a11.2,11.2,0,0,0-5.5-1.53c-4.35-.3-8.78-.17-13-1.66-2.82-1-5.75-1.06-8.66-1.21-7-.36-10.55,3.06-10.42,10,0,2.53.36,5.06.52,7.6.56,9.22.61,18.47,1.48,27.67a14.7,14.7,0,0,0,8.54,12.48m2-52.85c3.75-.55,7.51,1.74,11.38,3.32,5,2,10.39,2.59,15.42,4.46.29.1.61.31.87.25,4.31-.92,6.47,2,8.72,4.8a6.59,6.59,0,0,1,1.42,4.29c0,6-1.76,11.53-3.52,17.09-1.37,4.32-2.61,8.71-4.86,12.68-2.08,3.68-5.07,5.47-9.51,5-5.29-.51-10.58-.77-15.82-1.8a11.71,11.71,0,0,1-9.17-9.93c-1.06-11.35-1-22.76-2-34.12-.45-5.15.9-6.25,7.09-6.08" transform="translate(-228.94 -189.89)"/><path class="cls-2" d="M458.88,283.17A32,32,0,0,0,452,272.35,29.39,29.39,0,0,0,427.71,264c-3,.29-7.46-.07-8.48,4.7,0,.18-.32.33-.52.43-3.1,1.61-5.25,4.25-7.39,6.87-7.15,8.77-10.15,18.61-7.63,29.86a27.91,27.91,0,0,0,7.69,14.44c6.2,5.83,13.91,8.94,23.27,9.18a20.67,20.67,0,0,0,4.63-.19c5.73-.61,11.09-2.3,15-6.78a55.79,55.79,0,0,0,7-9.66c3.34-6.09,3.43-12.41,2-19-.85-3.83-2.89-7.1-4.36-10.63m-5.58-4.87c-2.79-.74-16.25-9.55-18.35-12.12,7.84,1.16,16.09,6,18.35,12.12m-27.51-11.24c.43-1,1.82-1,2.91-1.17a11.73,11.73,0,0,1,5.57,2.6,125.93,125.93,0,0,0,15.2,10.34c1.75,1.07,3.06,3.12,5.61,2.58.55-.11,2,2.85,1.65,3.34-.52.8-1.22.43-1.83.11-2-1.06-4.11-2.1-6.11-3.25-6.72-3.88-13.42-7.81-20.13-11.72a4.23,4.23,0,0,1-1.14-.77c-.59-.71-2.27-.81-1.73-2.06m1.44,3.81c8.78,6.5,18.8,11,27.89,17,.25.16.58.42.81.37,3-.82,3.54,1.6,4.17,3.44s1.82,3.76,1.39,6c-13.76-9.06-28-17.29-41.57-26.61,2.51-2.68,4.85-1.94,7.31-.12m.11,55.57c-4.6-.79-7-4.59-10.32-7.2a19.82,19.82,0,0,0-4.48-2.76c-1.84-.77-5.54-5.85-5.45-7.78.08-1.42,1-.63,1.42-.29,2.8,2.29,6,3.94,9,5.91,4,2.59,7.9,5.22,11.94,7.68,2.51,1.54,4.34,4.05,7.39,4.92-3.28.58-6.38.06-9.52-.48m16.56-.29c-2,.52-4,1-5.56-1.1-.56-.72-1.74-.94-2.58-1.47-8.7-5.47-17.46-10.87-26-16.53-2.16-1.42-5.05-2.8-4.39-6.42-.16-1.3.43-1.76,1.5-.82,4.55,4,10.39,5.87,15.19,9.51,2.77,2.11,6,3.74,8.92,5.71,4.52,3,8.95,6.18,13.4,9.3.43.3,1.06.61.93,1.21s-.87.48-1.37.61m7.12-3.49c-.87,1-2,2-3.62.92-2.18-1.44-4.4-2.8-6.58-4.23-7.45-4.89-14.84-9.85-22.33-14.67-3.8-2.45-8.07-4.12-11.62-7-.82-.67-1.64-1.18-1.4-2.05s.21-1.27.28-1.73c.19-1.39.5-1.87,2-.94,2.51,1.53,4.53,3.66,7.09,5.13,3.73,2.12,7.35,4.45,10.86,6.91,2.76,1.94,5.58,3.78,8.4,5.63A114.1,114.1,0,0,0,446,317.73a10.67,10.67,0,0,1,3.94,2.73c.53.67,2.18,1,1.13,2.2m3.25-3.48c-.62.71-1.27,1.06-1.9.25-2.72-3.46-7.16-4.06-10.56-6.41-4.49-3.1-9.26-5.77-13.68-9-4-2.89-8.49-4.89-12.41-7.87a56.39,56.39,0,0,0-8-5.48,1.45,1.45,0,0,1-.66-2.14c.36-.8.75-1.6,1.17-2.5.58.4,1,.64,1.32.91L428,300.45a7.61,7.61,0,0,0,1.18.72c4.5,2,8.38,5.07,12.62,7.44,3.94,2.2,7.59,4.91,11.81,6.65,2.62,1.08,2.59,1.74.68,3.92m2-5.38c-4.73-2.22-9-5.19-13.51-7.86q-10-6-19.84-12.11a32,32,0,0,1-7-5.19c-1.62-1.76-4.12-2.28-5.92-3.93-1.1-1-1-1.62-.37-2.67.79-1.33,1.64-.75,2.51-.21,2,1.26,4,2.54,6,3.8,3.63,2.27,7.29,4.48,10.88,6.82,5.12,3.35,10.17,6.82,15.28,10.19,3.78,2.49,7.74,4.69,11.38,7.39a10.08,10.08,0,0,0,2.15.74c.57.23,1.13.53,1.18,1.27a1.9,1.9,0,0,1-2.79,1.76M462,301.46a20.32,20.32,0,0,1-1.51,7.48c-.36,1-.91,1.29-1.69.58-3.29-3-7.42-4.63-11.12-6.95-5.4-3.39-10.53-7.17-15.93-10.55l-18.31-11.48c-.89-.56-2.2-.94-1.06-2.37.88-1.09,1.59-1.74,3.16-.53,4.82,3.7,10.12,6.68,15.29,9.87,5.48,3.39,10.85,6.94,16.47,10.14,3.32,1.89,7.1,3.27,9.82,6.26.62.69,1.75,2.5,2.93,1s-.78-2.12-1.6-2.81a26.47,26.47,0,0,0-4.76-3.24c-8-4.15-15.5-9.07-23.11-13.85q-6-3.76-12.09-7.4a7.25,7.25,0,0,1-1.65-1.25c-.5-.53-1.85-.91-.94-1.92.76-.85,1.36-2.28,3.17-1.4a55.69,55.69,0,0,1,8.84,5.34c6.93,5.11,14.39,9.37,21.62,14,2.77,1.78,5.46,3.71,8.19,5.57.57.38,1.18,1,1.76,1,2.41-.05,2.74,1.32,2.52,2.47" transform="translate(-228.94 -189.89)"/><path class="cls-2" d="M313.32,289.43c-2.24-11.15-9.72-18.44-18.49-24.61-4.63-3.26-10.33-3.43-15.74-3.81-3.18-.22-6.74.43-9.12,2.64-3.07,2.84-6,5.92-8.82,9.07a34.27,34.27,0,0,0-5,38.64c2.9,5.67,6.95,10,12.72,12.46,5.62,2.4,11.5,3.34,17.59,1.8,3.53-.89,7.37-.68,10.43-3.2,1.54-1.27,3.25-2.32,4.83-3.55,7.86-6.13,11.65-14.28,12-24.16,0-1.07,0-2.15,0-3.23a13.06,13.06,0,0,0-.33-2.05m-34.91-25.76c-3.81,1.95-7.11,4.65-11.15,6.79,1.21-3.71,7.54-7.56,11.15-6.79m-23,26.22c.45-2.5,1.22-4.07,3.37-5.23,8.76-4.74,17.37-9.78,26.24-14.34a38,38,0,0,0,3.87-2.43c.5-.35,1-.86.55-1.56s-1-.41-1.64-.3a8.25,8.25,0,0,0-2.81,1.56c-8.12,5-16.67,9.26-24.91,14.05-.5.29-1.09.9-1.65.36s.11-1.1.37-1.62c2.23-4.54,5.86-7.21,10.63-8.9,3.2-1.13,6.13-3.12,9.05-4.94,1.28-.8,3.25-.76,3.71-2.74,0-.16.7-.28,1.05-.25,3.62.32,7.18.9,10.4,2.76,1.11.65,1.56,1.13.1,2C283.58,274.6,273.59,281,263,286.54c-2.1,1.09-4,2.6-6,3.86-.41.25-1,.57-1.49.14a.9.9,0,0,1-.16-.65M255,295c-.24-1,.38-1.44,1.2-1.91,7.05-4,14.25-7.8,21.06-12.19,6.25-4,13.1-7,19.07-11.51a.77.77,0,0,1,1.17.06c.66.61,1.75.95,1.79,2,0,.62-.89.43-1.31.7-3.09,2-6.08,4.18-9.24,6.06-8.82,5.28-17.54,10.74-26.74,15.37-1.64.82-3.22,1.8-4.8,2.74s-2.3.58-2.2-1.29m.47,7.71c-.29-1.94.68-3.23,2.15-4.27a54.83,54.83,0,0,1,8.62-4.84c5.53-2.54,10.55-6,15.79-9,5-2.88,9.87-5.93,14.81-8.9,1.44-.86,3-1.59,3.33-3.67.62.51.95.81,1.31,1.08,1.66,1.26,1.6,1.79-.39,3C289,283.52,277,291.15,265,298.83c-2.58,1.65-5.11,3.34-7.85,4.73-1.14.57-1.52.25-1.69-.87m1.57,5.16c-.71-1.28-.07-1.65.92-2.26,3.41-2.08,6.85-4.13,10.05-6.51a106,106,0,0,1,11.91-7.42c6.59-3.63,12.31-8.67,19.31-11.61,1.33-.56,2.47-1.54,3.78-2.17.85-.42.79-1.17.87-2.29,3.21,3.76,3.21,3.83-.27,6.26-7,4.84-14.4,8.85-21.56,13.32-6.33,3.95-12.92,7.45-19.23,11.41-1.11.69-2.38,1.11-3.45,1.85s-1.69.58-2.33-.58m2.32,4.48c-.58-.88,0-1.39.69-1.86,2.51-1.62,5.11-3.11,7.69-4.57Q277,300.7,286,295.16c7.09-4.36,14.51-8.17,21.28-13.05.41-.29.74-.5,1.2-.1a3.47,3.47,0,0,1-.2,4.9c-7.94,5.7-16.45,10.49-24.89,15.41-5.65,3.29-11.34,6.52-16.73,10.25a47.27,47.27,0,0,1-5.09,2.69c-1.28-.64-1.54-1.95-2.19-2.93m41.6,3.82c-2.4.93-4.44,2.49-6.87,3.26a5,5,0,0,0-2.43,1.27c-2.64,3.45-6.57,2.77-10.1,3.27a4.53,4.53,0,0,1-3.42-.22c9.82-6.51,20.53-10.76,30.19-16.94-1.35,4.14-3.66,7.93-7.37,9.36M311.08,298c-.2,1.67-.59,3.32-.94,5a1.17,1.17,0,0,1-1,.85c-3.25.74-5.61,3.07-8.38,4.67-5.65,3.24-11.16,6.74-17.12,9.42a18.25,18.25,0,0,0-4.32,2.6c-2.63,2.15-5.34,4-9,1.21,2.71-2.37,5.87-4.1,8.87-6,8-5.17,16.55-9.36,24.52-14.57,2-1.29,4.21-2.17,6.09-3.66.68-.54,1.42-.63,1.27.55m-1.21-3.68a125.2,125.2,0,0,1-15.08,9.81c-7.81,4.45-15.6,8.94-23.08,13.94-3.16,2.11-4.82,2.18-7.21.37-1.12-.85-1.27-1.38,0-2.15,3.88-2.35,7.79-4.66,11.58-7.15,6.56-4.32,13.62-7.79,20.22-12,4.08-2.61,8.43-4.76,12.39-7.58,2-1.41,2.65-.74,2.64,2.41.15,1.13-.67,1.74-1.47,2.37" transform="translate(-228.94 -189.89)"/><path class="cls-2" d="M382.16,310.46c-.25-2.82-1.24-4-4.11-3.8-2.38.18-4.74.63-7.11.63-12.57,0-25,2.09-37.52,2.64-1.08.05-1.47.43-1.51,1.7-.15,4.56,1.15,9,.81,13.08a57.06,57.06,0,0,0,.31,8.55c.54,3.34,2.2,4.55,5.54,3.71a26.21,26.21,0,0,1,7.09-.71c11.18.34,22.23-1.71,33.39-1.62,1.67,0,3.22-.87,3-3-.86-7.07.78-14.11.15-21.18M341.23,320.9a59.34,59.34,0,0,0,2.44-8.15,2,2,0,0,1,2-1.82,182,182,0,0,1,22.26-1.44,1.67,1.67,0,0,1,1.72,1.18c1.39,3.16,2.23,6.54,4.05,9.53.71,1.16-.16,1.7-1.27,1.72-2.3,0-4.61,0-6.91,0v.16c-7.6.3-15.19.58-22.78.92-1.74.07-2.33-.13-1.49-2.11m35.32,11.71c-8.61.16-17.11,2-25.46,1.62-4.36.28-8.43.48-12.49.82-1.27.11-1.72-.23-1.5-1.49.11-.68.07-1.38.18-2.06.91-5.43,2.13-6.54,7.55-6.73s10.9-.35,16.35-.46c4.06-.07,8.11,0,12.17-.07a2.51,2.51,0,0,1,2.74,2.23,15.28,15.28,0,0,0,1.58,4.31c.77,1.29.27,1.81-1.12,1.83" transform="translate(-228.94 -189.89)"/><path class="cls-2" d="M390.72,262.84c-.24-3.76-.52-7.53-.76-11.29-.09-1.4-.5-2-2.18-2.17-3.09-.33-6.17.29-9.23,0-2.54,0-5.08,0-7.62,0-1.31,0-2.4.5-2.23,2,.52,4.45.68,8.9.83,13.37,0,1.26.6,2.28,2.42,1.9,5.86-1.21,11.79-.63,17.69-.18.71.05,1.4.25,1.86-.46s.05-1.17-.43-1.62-.31-1-.35-1.51m-2.19-.55c-.21,1.4-.65,2.06-2.14,2-2.23-.08-4.46,0-6.69,0v-.21c-2.08,0-4.16-.08-6.23,0-1.38.07-2-.47-2-1.82-.18-3.07-.41-6.14-.64-9.21-.08-1,0-1.85,1.33-2a54.94,54.94,0,0,1,13.56,0c1.63.27,2.24,1.08,2.56,2.7a24.3,24.3,0,0,1,.29,8.46" transform="translate(-228.94 -189.89)"/><path class="cls-2" d="M337.5,266a52.48,52.48,0,0,0,7-5.26c.62-.6,1.38-1.2.3-2a167.17,167.17,0,0,1-13-11.32,1.5,1.5,0,0,0-1.89-.16c-.68.29-1.2.68-1.14,1.52a148.62,148.62,0,0,1,.39,20.24c-.07,1.19.57,1.67,1.36,1.57,1.2-.12,2.06-.09,2.65-.88a18.3,18.3,0,0,1,4.4-3.68m-6.2.37a33.08,33.08,0,0,0-.49-7.62q0-3.69,0-7.38c0-1.49.62-1.92,1.79-.88,2.9,2.62,5.76,5.29,8.62,8a1.53,1.53,0,0,1-.1,2.58c-2.81,2.14-5.65,4.26-8.54,6.3-1.07.76-1.28,0-1.29-1" transform="translate(-228.94 -189.89)"/><path class="cls-2" d="M272.13,233.43v-.12h-8.74v.13h8.74" transform="translate(-228.94 -189.89)"/><path class="cls-2" d="M380,365.43c-4.07-.11-8.15-.05-13.29-.06a97.36,97.36,0,0,0-18.05.89c-9.2,1.33-18.44,2.5-27.73,3.2-.82.06-1.93,0-1.86,1.2s1.15,1,2,.83c6.7-1.52,13.56-1.8,20.33-2.78,12.68-1.86,25.36-2.7,38.1-.68,1.43.22,2.83-.21,3-1.43.2-1.55-1.54-1.15-2.44-1.17" transform="translate(-228.94 -189.89)"/><path class="cls-2" d="M354.39,557.31c-.26.67-.91,1.4-.23,2.14s1.56.22,2.37,0,1.52-1,2.1-.2-.15,1.48-.47,2.15a66.13,66.13,0,0,0-3.16,7.93c-.41,1.24,0,2.62,1,2.63,3.19,0,1.55,1.62,1.15,2.87-.32,1-.61,2.07-1,3.08-.22.66-.67,1.38.26,1.77s1.4-.15,1.7-1c.8-2.24,1.63-4.47,2.47-6.69.41-1.08,1.05-2.2.09-3.24s-1.68.51-2.57.59a3.15,3.15,0,0,1-.57,0c-.2-1.21.54-2.18.93-3.21.91-2.44,2.26-4.74,2.45-7.42.13-1.88-.6-2.52-2.26-2-.54.18-1.09.85-1.61.13s.11-1.18.4-1.69a35,35,0,0,0,3-8.21c.4-1.45.05-2.65-1.74-2.29-2,.4-1.47-.8-1.14-1.67.56-1.51,1.34-2.93,1.95-4.42.43-1,.19-2-1.05-2-2,.09-1.2-1-.87-1.82.27-.72.62-1.41.94-2.11s.89-1.28,0-1.81-1.27.18-1.68.76c-1.4,2-1.89,4.36-2.59,6.63-.15.47,0,1.11.53,1.11,2.77,0,1.17,1.48.87,2.49s-.6,2.07-1,3.08c-.66,1.82-.21,2.77,1.85,2.3,1.59-.36,1.77.19,1.22,1.51-1.18,2.84-2.34,5.69-3.46,8.55" transform="translate(-228.94 -189.89)"/></svg>