<svg xmlns="http://www.w3.org/2000/svg" width="307.343" height="307.343" viewBox="0 0 307.343 581.978" stroke="#000" fill="none" stroke-linecap="round" stroke-linejoin="round"><path class="selected" fill="#000" d="M64.2 302.978c1.414 8.247 2.883 15.985 4.227 23.744 1.646 9.498 3.42 18.983 4.7 28.532 1.03 7.674 1.758 15.425 2 23.161.51 16.23-2.974 31.945-7.361 47.42-5.403 19.06-11.604 37.9-16.74 57.028-2.209 8.228-2.418 16.975-3.891 25.425-.989 5.674-2.536 11.256-3.992 16.837-.275 1.052-1.303 1.907-1.983 2.853-.986-1-2.632-1.88-2.845-3.025-.897-4.823-2.15-9.784-1.788-14.582.428-5.696 2.614-11.238 3.558-16.927.372-2.244-.738-4.695-.854-7.067-.687-14.07 3.451-27.048 8.823-39.827a1057.767 1057.767 0 0 0 15.2-38.197c5.552-14.793 4.878-30.148 2.881-45.439-1.682-12.878-3.834-25.698-5.96-38.514-2.557-15.412-5.213-30.809-8.06-46.17-.521-2.812-1.742-5.711-3.383-8.048-2.28-3.246-4.96-5.344-9.838-3.367-7.6 3.08-17.332-1.762-21.53-11.382-5.66-12.972-10.333-26.388-15.114-39.727-4.441-12.393-2.778-14.081 9.239-17.529 14.543-4.172 29.414-7.43 44.33-10 9.933-1.712 20.238-2.412 30.289-1.886 6.59.345 13.176 3.302 19.489 5.787 7.541 2.968 15.087 4.152 22.845 1.786 2.444-.745 4.734-2.569 6.65-4.371 7.35-6.917 15.93-8.57 25.535-6.626 1.275.258 2.64.052 3.96.116 13.556.659 27.113 1.296 40.666 2.022 2.87.153 6.005.018 8.506 1.149 2.484 1.123 5.75 3.42 6.145 5.65.827 4.679 3.819 6.795 7.343 8.023 3.824 1.333 8.05 1.554 12.12 2.139 13.327 1.915 26.496 2.304 39.014-3.975 11.391-5.715 22.732-.62 26.873 11.633 3.224 9.543 2.245 19.034.226 28.488a264.376 264.376 0 0 1-6.005 23.003c-3.046 9.835-10.294 15.993-19.838 18.658-5.711 1.594-7.221 5.034-7.39 9.847-.466 13.19-.702 26.387-1.05 39.58-.317 12.028-.94 24.055-.923 36.082.017 13.694.435 27.393.98 41.079.394 9.9 1.427 19.774 1.906 29.672.512 10.576.537 21.177 1.14 31.746.192 3.368-.934 5.976-3.865 5.926-2.1-.035-5.306-2.183-6.021-4.124-2.246-6.096-3.87-12.475-5.146-18.862-2.561-12.82-4.918-25.687-7.002-38.593-1.35-8.361-2.013-16.832-3.087-25.24-.542-4.24-1.513-8.431-1.915-12.68-.317-3.36.12-6.786-.1-10.161-.558-8.564-1.17-17.127-1.993-25.669-1.218-12.624-2.71-25.221-3.937-37.844-.535-5.509-.904-11.053-.91-16.581-.001-1.657 1.48-3.315 2.282-4.973 1.383 1.352 3.445 2.472 4 4.105 1.006 2.955 1.287 6.2 1.564 9.352 1.075 12.244 1.968 24.505 3.05 36.749.906 10.26 1.979 20.504 2.981 30.755 1.331 13.613 2.645 27.228 4.041 40.834.105 1.024.806 1.986 1.23 2.977.243-.914.684-1.825.696-2.742.067-5.332-.095-10.669.065-15.997.197-6.531 1.258-13.096.84-19.576-.923-14.306-2.585-28.563-3.855-42.848-.76-8.548-1.41-17.106-2.004-25.668-1.047-15.08-2.348-30.155-2.872-45.256-.26-7.51 1.115-14.797 10.027-17.784 4.415-1.48 3.516-6.202 2.55-8.967-1.061-3.042-3.832-6.542-6.709-7.664-5.041-1.966-10.758-2.146-16.137-3.326-2.385-.523-4.945-1.22-6.891-2.595-7.637-5.394-14.417-3.135-14.778 6.033-.484 12.273-1.6 24.772 2.8 36.744.478 1.3.905 2.632 1.517 3.87 2.185 4.423.49 7.86-4.454 7.913-5.522.06-11.074-.375-16.572-.971-7.276-.788-14.503-2.018-21.768-2.92-11.271-1.4-22.635-2.245-33.8-4.221-4.864-.861-7.315-5.577-8.958-10.287-3.53-10.124-3.948-20.387-2.015-30.86.328-1.772-.034-3.661.063-5.49.204-3.807-1.678-5.798-5.306-5.088-8.46 1.657-17.103 2.983-23.36 10.008-2.782 3.123-4.488 6.367-4.4 10.715.442 22.024.662 44.052 1.074 66.077.19 10.197.035 20.454 1.133 30.565 1.293 11.902 5.431 13.985 16.89 12.089 4.024-.666 8.511-2.29 11.755 1.886.793 1.022 1.492 2.975 1.03 3.898-.604 1.21-2.339 2.447-3.7 2.588a558.73 558.73 0 0 1-25.162 2.04c-2.939.173-3.624.27-2.194 3.562 2.573 5.922 4.185 12.26 6.244 18.41.25.745.785 1.396 1.188 2.09.264-.833.594-1.652.78-2.503.735-3.367 1.126-6.844 2.207-10.093 1.4-4.21 5.528-5.456 9.091-5.167 3.558.288 6.132 2.725 6.91 7.17.811 4.644 3.905 5.23 8.086 2.872 4.177-2.355 9.629-2.34 14.106 1.844 3.176 2.968 5.487 6.949 7.786 10.72.784 1.286.36 3.31.486 4.997-1.534.053-3.15-.174-4.581.239-1.455.42-3.113 1.162-4.014 2.295-4.536 5.703-15.726 10.155-23.546 2.65-.688-.66-1.412-1.283-2.119-1.924-.467 1.14-1.275 2.26-1.34 3.422-.24 4.35-1.419 8.419-5.1 10.822-2.563 1.675-5.854 3.12-8.809 3.098-4.264-.033-5.306-4.032-6.147-7.573-.361-1.521-.418-3.174-1.067-4.554-.857-1.826-2.16-3.442-3.271-5.148-.889 1.354-1.746 2.73-2.672 4.058-3.339 4.787-6.774 9.508-10.038 14.346-5.679 8.418-8.03 22.814-.802 31.656 3.515 4.3.924 8.035.683 11.871-.406 6.456-2.274 12.816-2.736 19.273-.717 10-1.144 20.053-.99 30.073.14 9.065 1.217 18.115 1.903 27.17.034.448.275.88.42 1.32.235-.525.6-1.03.686-1.578.657-4.237 1.454-8.465 1.839-12.729.8-8.877 1.247-17.787 2.07-26.662 1.218-13.123 2.646-26.227 3.965-39.342.37-3.69.545-7.406 1.045-11.078.415-3.046 2.737-4.254 5.326-3.37 1.207.413 2.49 2.688 2.501 4.13.036 4.358-.942 8.735-.79 13.08.452 12.896.895 25.812 2.02 38.661 1.242 14.178 3.21 28.294 4.932 42.429.263 2.165.904 4.284 1.37 6.424 1.414-1.68 2.843-3.347 4.233-5.046.412-.505.716-1.099 1.07-1.652.099.625.118 1.277.31 1.872 3.926 12.176 5.442 24.676 4.949 37.427-.066 1.698-.234 3.664-1.123 4.993-1.336 2-3.003 4.046-5.835 1.105-5.485-5.696-6.59-13.096-7.892-20.23-2.7-14.798-4.855-29.698-7.072-44.58-.898-6.023-1.336-12.112-2.077-18.16-.112-.908-.74-1.753-1.13-2.628-.278.821-.747 1.63-.8 2.464-.391 6.024-.783 12.05-1.013 18.083-.4 10.524-.53 21.062-1.068 31.579-.42 8.235-1.166 16.46-2.058 24.659-.162 1.484-1.49 3.166-2.769 4.047-.53.365-2.776-.829-3.49-1.843-1.775-2.523-4.006-5.21-4.46-8.082-1.182-7.475-1.865-15.074-2.102-22.644-.557-17.853-.805-35.717-1.017-53.578-.044-3.69.661-7.386.907-11.086.053-.805-.385-1.641-.597-2.463-.455.645-1.112 1.228-1.332 1.945-1.725 5.624-4.06 11.175-4.882 16.938a330.833 330.833 0 0 0-3.018 32.238c-.343 7.831 1.057 15.742.666 23.567-.224 4.503-2.323 8.956-3.893 13.318-.42 1.167-1.998 1.917-3.045 2.858-.86-1.073-2.107-2.016-2.517-3.24-2.644-7.901-3.143-15.9-1.533-24.176 1.456-7.489 2.074-15.137 3.212-22.693 1.224-8.132 2.696-16.228 3.922-24.36 1.115-7.398 1.95-14.839 3.078-22.234 1.576-10.323 3.353-20.614 4.963-30.931 1.077-6.907 2.227-13.812 2.973-20.757 1.847-17.208 5.947-33.853 12.07-50.008 1.472-3.883 3.524-7.553 4.9-11.464 1.03-2.929 1.956-6.083 1.982-9.146.174-19.996.131-39.995.042-59.992-.012-2.855.016-6.046-1.2-8.466-1.266-2.52-3.767-5.704-6.164-6.126-6.595-1.161-13.514-1.912-20.127-1.191-9.041.985-12.055 6.001-10.41 15.314 1.419 8.031 3.282 15.983 4.949 24.47m-39.5-99c-3.611 1.334-7.341 2.427-10.772 4.125-1.271.63-2.626 2.69-2.607 4.08.19 13.848 4.91 26.376 12.489 37.715 3.718 5.563 9.43 9.748 16.515 7.927 12.488-3.209 25.071-4.098 37.851-3.871 7.634.135 10.012-2.35 10.02-10.074.014-13.322.004-26.645.003-39.967 0-7.45-2.548-10.305-10.18-9.833-9.272.573-18.6 1.347-27.71 3.06-8.337 1.569-16.417 4.505-25.61 6.838m187.5 22.5c0-1.5-.146-3.016.025-4.496.985-8.565-.05-15.762-10.283-18.2-1.568-.374-3.355-3.28-3.566-5.178-.446-4.012-3.048-5.32-6.087-5.53-8.676-.604-17.38-.9-26.078-1.044-5.233-.086-11.166-1.296-13.459 5.807-.168.52-1.308 1.04-1.992 1.034-6.524-.063-6.362 4.825-6.494 9.075-.233 7.492-.068 14.997-.065 22.496.005 8.672 4.464 15.195 12.9 17.818 4.477 1.391 9.212 2.186 13.89 2.651 12.064 1.2 24.165 2.04 36.246 3.086 3.003.26 3.98-.931 4.032-3.933.127-7.532.598-15.058.932-23.586m60 33c0 .833-.004 1.665 0 2.497.036 6.274 1.809 7.827 8.024 8.068 5.054.197 7.248-3.15 9.093-6.751 7.608-14.852 10.022-30.924 9.707-47.326-.146-7.556-6.795-13.569-12.2-12.951-1.235.141-2.417.74-3.624 1.13 1.178.944 2.318 1.944 3.546 2.82 1.445 1.029 4.021 1.753 4.247 2.958.58 3.09-1.678 4.74-4.655 5.02-1.98.186-4.008-.13-5.985.07-4.212.424-8.19 1.285-8.156 6.847.016 2.72.003 5.44.003 8.159v29.46m-11.5-16.5l-.5 16.345c.431-.047.95.045 1.282-.162 4.505-2.813 4.638-12.608 2.492-15.797-.296-.44-1.494-.273-3.274-.387m4.5 40.5c-.41-4.073 1.216-8.429-2.035-12.11-1.598-1.81-2.394-.914-2.422.645-.064 3.607.455 7.223.412 10.832-.053 4.403 1.453 4.171 4.045.633z" stroke="none"/><path class="selected" fill="#000" d="M259.2 139.978c.334-5.027.728-9.552.951-14.085.047-.956-.5-2.754-.832-2.768-1.183-.051-2.61.2-3.55.882-2.832 2.052-3.425 5.01-3.733 8.466-.339 3.79-1.716 7.568-3.206 11.115-.34.81-3.444 1.378-4.465.746-1.187-.734-2.138-2.947-2.054-4.455.428-7.735 1.43-15.44 1.811-23.177.228-4.626-1.953-6.444-6.137-5.624-1.052.206-2.676 1.657-2.66 2.51.192 10.705-7.985 15.237-14.96 20.654-.15.116-1.062-.306-1.12-.58-.734-3.543-1.502-7.087-2.009-10.666-.496-3.505-.678-7.054-1.095-10.572-.026-.215-1.133-.621-1.365-.446-8.087 6.098-13.721 5.062-19.574-3.672-2.01-2.998-3.982-6.02-6.02-8.999-.361-.528-.966-.89-1.458-1.329-.174.59-.362 1.176-.521 1.77-1.005 3.75-1.585 7.683-3.108 11.209-1.911 4.425-6.101 5.963-10.52 4.891-4.11-.996-5.214-4.836-5.345-8.662-.413-12.024-1.49-24.096-.822-36.067.781-14.022 3.143-27.956 4.764-41.935.148-1.28-.108-2.606-.177-3.911-.931.917-2.043 1.712-2.767 2.771-9.793 14.322-11.457 30.198-9.074 46.922.952 6.682 1.462 13.432 2.021 20.163.459 5.518 1.156 11.08.834 16.57-.166 2.82-1.632 6.9-3.746 7.969-3.495 1.768-7.227-1.033-8.856-4.203-2.873-5.59-5.498-11.473-7.07-17.533-3.073-11.85-4.843-23.982-4.096-36.298.448-7.402 1.36-14.776 1.898-22.174.097-1.33-.284-2.941-1.029-4.018-.749-1.084-2.227-1.663-3.386-2.464-.508 1.09-1.456 2.178-1.46 3.27-.081 27.161-.06 54.323-.066 81.484 0 5.868-.716 6.136-6.022 3.782-19.413-8.615-28.66-24.869-32.812-44.47-1.953-9.216-2.52-18.78-3.074-28.223-.703-12.004-.725-24.048-1.139-36.072-.04-1.177-.766-2.33-1.174-3.494-.592.903-1.263 1.765-1.764 2.717-4.215 8.011-5.996 16.605-7.137 25.573-2.744 21.575 3.177 41.828 8.432 62.235 1.648 6.399 4.074 12.711 1.7 19.468-1.857 5.282-4.678 9.322-10.644 10.814-7.423 1.857-12.284 7.053-14.242 14.253-1.893 6.96-2.75 14.2-4.135 21.303-.93 4.766-1.928 9.52-3.043 14.244-.188.796-1.127 1.415-1.719 2.116-.542-.633-1.186-1.205-1.61-1.91-4.358-7.252-2.466-14.61-.255-21.934 2.501-8.29 5.88-16.42 7.315-24.884.746-4.397-.869-9.94-3.17-13.963-6.268-10.95-11.22-22.11-12.617-34.832-.867-7.895-2.224-15.689 1.221-23.215.571-1.247 2.504-2.317 3.952-2.544.829-.13 2.69 1.532 2.784 2.513.189 1.978-.483 4.046-.849 6.069-3.167 17.479 1.544 33.105 11.341 47.453 1.77 2.594 4.192 4.743 6.313 7.098-.827-3.06-1.793-6.09-2.454-9.186-2.126-9.965-4.75-19.876-6.03-29.954-1.394-10.962-2.259-22.113-1.904-33.136.246-7.64-.28-16.768 6.872-21.918 8.223-5.922 10.68-15.21 15.933-22.836C88.112.67 94.281-2.7 98.723 3.105c.884 1.156 1.467 2.915 1.405 4.363-.542 12.727-2.289 25.5-1.631 38.152.627 12.074 3.702 24.02 5.707 36.023.13.772.31 1.537.466 2.305.177-.74.493-1.476.51-2.22.36-16.191.504-32.39 1.1-48.573.29-7.893 1.937-15.635 8.984-20.6 2.627-1.852 7.29-4.704 8.623-3.75 3.537 2.536 4.213 7.506 3.095 11.785-4.134 15.812-8.187 31.756-6.556 48.147 1.176 11.813 4.438 23.419 6.791 35.112.073.363.396.676.602 1.011.127-.447.296-.887.374-1.342.35-2.026.956-4.054.964-6.084.073-19.496-.204-38.998.237-58.485.097-4.273 2.207-8.715 4.206-12.667 1.706-3.372 5.956-4.573 8.866-3.012 2.304 1.236 4.033 4.919 4.592 7.792 2.436 12.53-1.328 24.876-1.656 37.314-.33 12.545.228 25.347 9.974 35.27.439.446.939.833 1.41 1.247-.077-.687-.13-1.378-.235-2.06-.778-5.008-1.949-9.99-2.269-15.028-.614-9.675-1.214-19.393-.974-29.072.374-15.005 3.29-29.455 13.227-41.436 1.855-2.236 4.62-3.948 7.29-5.213 2.705-1.28 6.525 1.637 6.287 4.926-.555 7.673-1.443 15.33-2.448 22.962-.993 7.538-2.666 15-3.364 22.559-.769 8.32-1.205 16.725-.943 25.067.17 5.444 1.814 10.847 2.877 16.252.148.755.747 1.421 1.137 2.128.277-.654.664-1.284.812-1.967 1.363-6.273 3.272-12.498 3.89-18.848 1.118-11.51 1.525-23.094 2.067-34.655.094-2.008-.944-4.073-.83-6.076.087-1.514 1-4.075 1.86-4.213 1.553-.248 4.158.485 4.853 1.67 1.286 2.195 1.798 4.975 2.122 7.574.834 6.702 1.383 13.439 2.07 20.16.045.447.29.875.442 1.312.181-.563.405-1.115.537-1.689 1.012-4.415 1.617-8.973 3.12-13.212 1.402-3.951 5.272-4.717 8.897-3.949 3.685.781 5.156 3.595 5.037 7.477-.269 8.718 3.492 16.117 9.306 22.059 7.997 8.173 16.78 15.573 25.13 23.407 1.867 1.752 3.172 4.102 5.037 5.856 1.245 1.17 1.76 4.09 5.064 1.39 2.993-2.443 9.757 2.105 10.304 6.729.355 2.997-.264 6.133-.624 9.186-.633 5.376-.56 10.558 3.349 14.878.647.716 1.36 1.574 2.215 1.866 10.134 3.47 11.017 3.955 10.007 14.06-.873 8.72-3.064 17.321-4.889 25.929-.701 3.309-2.63 7.053-6.346 5.759-2.778-.968-4.657-4.163-2.757-8.41 2.444-5.465 3.858-11.408 5.497-17.207.56-1.981.9-4.237.512-6.204-.283-1.433-1.773-3.44-3.003-3.663-1.461-.265-3.241 1.06-4.843 1.784-1.321.599-2.75 2.054-3.828 1.806-1.235-.284-2.957-1.973-3.036-3.148-.335-5.034-.142-10.104-.142-15.66m-174-28.5c-.334-1.692-.702-3.378-.995-5.076a39175.633 39175.633 0 0 1-8.002-46.589c-.692-4.044-1.251-8.114-2.086-12.128-.143-.685-1.372-1.144-2.1-1.708-.272.824-.8 1.653-.779 2.469.275 10.509-.016 21.087 1.139 31.504 1.208 10.903 3.682 21.68 5.942 32.441.45 2.14 2.193 4.202 3.819 5.819.817.812 2.703.628 4.116.7.293.016.985-.936.886-1.254-.543-1.759-1.274-3.459-1.94-6.179m32-71c.333-4.023.783-8.043.924-12.073.04-1.126-.83-2.284-1.283-3.427-.88.911-2.25 1.678-2.566 2.755-3.524 12.006-4.566 24.321-4.004 36.773.073 1.609 1.074 3.192 1.736 4.748.267.629.778 1.153 1.179 1.724.338-.592.921-1.162.974-1.78.405-4.683.573-9.39 1.077-14.06.493-4.571 1.296-9.108 1.963-14.66zm124.75 486.75a1618.516 1618.516 0 0 1 11.214 31.199c.616 1.768 1.71 4.618.963 5.382-2.403 2.455-5.122.827-6.822-1.347-2.65-3.39-6.378-3.123-9.943-3.89-9.117-1.964-12.624-9.354-16.257-16.86-2.903-5.995-6.61-11.606-10.075-17.318-.416-.687-1.556-.934-2.36-1.385-.078.902-.423 1.88-.194 2.695 3.95 14.02 7.992 28.014 11.944 42.033.47 1.668.78 3.459.724 5.179-.097 3.019-2.888 4.51-4.933 2.4-4.04-4.171-9.111-5.153-14.354-6.595-2.632-.723-5.094-3.795-6.66-6.39-11.958-19.815-20.34-41.202-26.968-63.294-5.43-18.097-10.663-36.253-15.855-54.42-2.635-9.216 1.77-19.079 8.96-21.76 2.504-.935 3.29-.762 4.006 1.711 1.504 5.193 3.378 10.28 4.826 15.488 2.456 8.83 4.467 17.789 7.08 26.57 6.527 21.942 13.059 43.888 20.147 65.65 1.407 4.318 5.29 7.836 8.085 11.683.293.401.964.527 1.46.781-.061-.569.022-1.204-.205-1.697-4.304-9.37-4.695-18.797-1.773-28.772.915-3.125-.713-7.16-1.67-10.643-6.288-22.877-12.793-45.695-19.043-68.582-1.972-7.225-3.714-14.551-4.862-21.94-.386-2.49 1.39-5.317 2.177-7.99 1.65 2.224 4.147 4.226 4.8 6.713 2.592 9.87 4.44 19.931 6.885 29.843 2.452 9.946 4.92 19.914 8.036 29.664 5.023 15.72 10.528 31.286 15.953 46.875 1.465 4.209 3.35 8.275 5.117 12.374.236.55.91.91 1.381 1.359.155-.602.437-1.202.447-1.807.292-16.68-.037-33.244-4.737-49.51-6.074-21.017-11.735-42.156-17.335-63.306-2.595-9.802-4.802-19.72-6.734-29.672-.323-1.66 1.664-3.77 2.583-5.67 1.414 1.073 3.613 1.872 4.104 3.27 1.997 5.692 3.718 11.51 5.086 17.388 2.837 12.186 5.125 24.504 8.118 36.65 3.728 15.129 7.555 30.255 12.054 45.168 4.319 14.318 9.55 28.36 14.63 42.773m-73.75-54.75c1.87 6.87 3.582 13.79 5.713 20.578.579 1.844 2.418 3.292 3.68 4.922.044-1.99.627-4.153.052-5.944-5.369-16.708-10.935-33.353-16.448-50.015-.207-.628-.447-1.245-.671-1.867-.11.843-.478 1.75-.287 2.517 2.44 9.781 4.96 19.543 7.96 29.81m8 27l1.859 3.5 1.142-.645c-.834-1.118-1.667-2.237-3-2.856zm52-163.5c-.613-6.851-.87-14.06 6.735-16.149 1.457-.4 3.155.076 4.742.148-.36 1.035-.592 2.138-1.101 3.094-4.006 7.521-2.168 15.623-2.184 23.485-.007 4.066 1.34 8.116 1.777 12.205 1.418 13.271 2.615 26.565 4.057 39.833 1.21 11.127 2.76 22.217 3.94 33.347 1.156 10.901 1.834 21.855 3.087 32.744 1.44 12.501 3.335 24.95 4.929 37.434 1.074 8.416 1.982 16.853 2.91 25.287.055.497-.433 1.515-.569 1.498-1.233-.154-3.104-.09-3.549-.832-2.137-3.569-4.782-7.178-5.623-11.12-4.325-20.27-8.2-40.64-12.137-60.993a11620.496 11620.496 0 0 1-11.992-63.024c-1.138-6.06-2.331-12.142-2.826-18.268-.143-1.762 1.651-4.308 3.287-5.445 2.725-1.896 5.494.409 5.485 4.477-.017 8.06-.345 16.137 3.025 23.758.061.14-.043.35.015.494.808 1.998 1.631 3.99 2.45 5.984.181-2.23.767-4.515.471-6.68-1.158-8.471-3.823-16.933-3.623-25.343.26-10.908-2.004-21.32-3.287-31.936-.139-1.15-.018-2.332-.018-3.999zm-81 157c4.115 15.614 8.1 30.765 12.426 45.818 1.223 4.254 3.356 8.264 5.284 12.284.412.859 1.744 1.276 2.653 1.897.546-1.079 1.26-2.11 1.584-3.252.262-.925.04-1.983.057-2.982.022-1.255.069-2.51.105-3.766 1.63 1.023 4.016 1.68 4.726 3.148 1.258 2.602 1.657 5.67 2.134 8.588 1.1 6.73 2.352 13.464 2.851 20.246.167 2.26-1.77 4.675-2.745 7.018-1.782-1.257-4.367-2.116-5.217-3.834-6.15-12.42-13-24.642-17.606-37.642-6.603-18.639-11.886-37.78-16.956-56.913-3.17-11.96-4.932-24.294-7.279-36.469-.45-2.337-1.148-4.773-.867-7.057.218-1.78 1.779-3.396 2.743-5.085 1.703 1.646 4.479 3.05 4.913 4.98 1.504 6.69 1.886 13.626 3.266 20.35 2.162 10.538 4.787 20.982 7.243 31.458.065.276.45.477.686 1.212zm-26-18c1.997 11.83 3.734 23.214 6.064 34.475 2.337 11.287 5.097 22.496 8.036 33.643.927 3.517 2.963 6.758 4.641 10.049.393.77 1.57 1.841 2.075 1.696.858-.246 2.032-1.318 2.078-2.1.132-2.244-.21-4.518-.419-6.776-.087-.938-.71-2.035-.399-2.764.898-2.1 2.148-4.05 3.26-6.06 1.222 1.883 3.313 3.68 3.51 5.664.724 7.317.903 14.695 1.097 22.055.05 1.85-.136 4.008-1.053 5.512-1.39 2.278-3.188 3.614-6.463 1.72-5.863-3.39-8.021-9.352-10.21-14.758-4.278-10.56-7.878-21.48-10.674-32.526-2.585-10.215-3.845-20.774-5.517-31.21-1.78-11.115-3.428-22.254-4.997-33.401-.826-5.864-1.446-11.76-1.956-17.66-.098-1.145.743-2.371 1.151-3.56 1.615.857 4.253 1.38 4.661 2.63 1.45 4.437 2.39 9.086 3.054 13.723.911 6.35 1.395 12.762 2.062 19.647zm-57.75-254.25c3.156 1.413 5.51 3.293 4.61 6.648-.467 1.737-2.373 4.306-3.678 4.336-2.414.055-5.042-1.191-7.203-2.513-.744-.455-.84-2.927-.392-4.175 1.017-2.832 2.808-5.114 6.664-4.297zm108.75 5.25c.084 4.62-3.165 5.943-6.008 5.784-3.107-.173-5.665-2.972-4.781-6.27.568-2.12 2.89-4.748 4.917-5.282 3.552-.935 5.836 1.34 5.873 5.767z" stroke="none"/></svg>